G75*
G70*
%OFA0B0*%
%FSLAX24Y24*%
%IPPOS*%
%LPD*%
%AMOC8*
5,1,8,0,0,1.08239X$1,22.5*
%
%ADD10C,0.0640*%
%ADD11C,0.2300*%
%ADD12C,0.0740*%
%ADD13R,0.0740X0.0740*%
%ADD14C,0.0240*%
%ADD15OC8,0.0317*%
%ADD16C,0.0100*%
D10*
X005524Y001410D03*
X005524Y002410D03*
X006524Y002410D03*
X006524Y001410D03*
X007524Y001410D03*
X007524Y002410D03*
D11*
X001725Y001800D03*
X020622Y001800D03*
X020622Y020698D03*
X001725Y020698D03*
D12*
X005400Y016540D03*
X006400Y016540D03*
X007400Y016540D03*
X006900Y015540D03*
X005900Y015540D03*
X007900Y015540D03*
X011400Y016540D03*
X011900Y015540D03*
X012400Y016540D03*
X013400Y016540D03*
X012900Y015540D03*
X013900Y015540D03*
X014650Y012225D03*
X014650Y011225D03*
X018150Y012225D03*
X018150Y013225D03*
X018150Y016725D03*
X018150Y017725D03*
X017756Y020745D03*
X018150Y008725D03*
X018150Y007725D03*
X014650Y007225D03*
X014650Y006225D03*
X018150Y004225D03*
X018150Y003225D03*
X002174Y005406D03*
X002174Y006406D03*
X002174Y007406D03*
D13*
X002174Y008406D03*
X014650Y010225D03*
X018150Y011225D03*
X018150Y006725D03*
X014650Y005225D03*
X018150Y002225D03*
X018150Y015725D03*
X016756Y020745D03*
D14*
X013398Y017292D02*
X013398Y016542D01*
X013400Y016540D01*
X013398Y017292D02*
X013150Y017540D01*
X007650Y017540D01*
X007400Y017290D01*
X007400Y016540D01*
X006900Y015540D02*
X006900Y014833D01*
X007138Y014595D01*
X012768Y014595D01*
X012926Y014753D01*
X012926Y015515D01*
X012900Y015540D01*
X018150Y015725D02*
X019150Y015725D01*
X019650Y015225D01*
X019650Y011725D01*
X019150Y011225D01*
X018150Y011225D01*
X018150Y006725D02*
X018150Y005725D01*
X017650Y005225D01*
X014650Y005225D01*
D15*
X012650Y005225D03*
X011650Y005725D03*
X010217Y006702D03*
X009705Y006387D03*
X009310Y006032D03*
X009874Y005402D03*
X009310Y006976D03*
X009469Y008454D03*
X010296Y008985D03*
X009874Y009694D03*
X011477Y008139D03*
X013150Y008631D03*
X015737Y008316D03*
X012886Y011989D03*
X011902Y014162D03*
X010406Y016040D03*
X010150Y016544D03*
X009646Y012076D03*
X007264Y009713D03*
X006811Y007391D03*
X006969Y006997D03*
X004650Y007725D03*
X007020Y004536D03*
X007540Y004536D03*
X010150Y001225D03*
X012670Y003926D03*
X021150Y011225D03*
X015697Y013591D03*
X021150Y018225D03*
X015150Y021225D03*
X011650Y021225D03*
X008150Y021225D03*
X004650Y021225D03*
X001150Y018225D03*
X001150Y015725D03*
X004150Y013225D03*
X001150Y004225D03*
D16*
X000600Y004264D02*
X006138Y004264D01*
X006138Y004362D02*
X000600Y004362D01*
X000600Y004461D02*
X006138Y004461D01*
X006138Y004559D02*
X000600Y004559D01*
X000600Y004658D02*
X006138Y004658D01*
X006138Y004756D02*
X000600Y004756D01*
X000600Y004855D02*
X001990Y004855D01*
X002058Y004826D02*
X001845Y004915D01*
X001682Y005078D01*
X001594Y005291D01*
X001594Y005522D01*
X001682Y005735D01*
X001845Y005898D01*
X001865Y005906D01*
X001845Y005915D01*
X001682Y006078D01*
X001594Y006291D01*
X001594Y006522D01*
X001682Y006735D01*
X001845Y006898D01*
X001865Y006906D01*
X001845Y006915D01*
X001682Y007078D01*
X001594Y007291D01*
X001594Y007522D01*
X001682Y007735D01*
X001833Y007886D01*
X001784Y007886D01*
X001746Y007897D01*
X001712Y007916D01*
X001684Y007944D01*
X001664Y007978D01*
X001654Y008017D01*
X001654Y008356D01*
X002124Y008356D01*
X002124Y008456D01*
X001654Y008456D01*
X001654Y008796D01*
X001664Y008834D01*
X001684Y008868D01*
X001712Y008896D01*
X001746Y008916D01*
X001784Y008926D01*
X002124Y008926D01*
X002124Y008456D01*
X002224Y008456D01*
X002694Y008456D01*
X002694Y008796D01*
X002683Y008834D01*
X002664Y008868D01*
X002636Y008896D01*
X002602Y008916D01*
X002563Y008926D01*
X002224Y008926D01*
X002224Y008456D01*
X002224Y008356D01*
X002694Y008356D01*
X002694Y008017D01*
X002683Y007978D01*
X002664Y007944D01*
X002636Y007916D01*
X002602Y007897D01*
X002563Y007886D01*
X002514Y007886D01*
X002665Y007735D01*
X002700Y007651D01*
X006550Y007651D01*
X006659Y007759D01*
X006964Y007759D01*
X007180Y007543D01*
X007180Y007307D01*
X007338Y007150D01*
X007338Y006844D01*
X007140Y006647D01*
X009444Y006647D01*
X009552Y006755D01*
X009848Y006755D01*
X009848Y006854D01*
X009957Y006963D01*
X009957Y008802D01*
X009927Y008832D01*
X009927Y009138D01*
X010143Y009354D01*
X010448Y009354D01*
X010664Y009138D01*
X010664Y008832D01*
X010477Y008645D01*
X010477Y006963D01*
X010586Y006854D01*
X010586Y006549D01*
X010370Y006333D01*
X010074Y006333D01*
X010074Y006234D01*
X009858Y006018D01*
X009552Y006018D01*
X009444Y006127D01*
X006762Y006127D01*
X006658Y006023D01*
X006658Y004696D01*
X006867Y004905D01*
X007173Y004905D01*
X007280Y004798D01*
X007387Y004905D01*
X007693Y004905D01*
X007909Y004689D01*
X007909Y004383D01*
X007800Y004275D01*
X007800Y002870D01*
X007824Y002860D01*
X007973Y002710D01*
X008054Y002516D01*
X008054Y002305D01*
X007973Y002110D01*
X007824Y001961D01*
X007702Y001910D01*
X007824Y001860D01*
X007973Y001710D01*
X008054Y001516D01*
X008054Y001305D01*
X007973Y001110D01*
X007824Y000961D01*
X007629Y000880D01*
X007419Y000880D01*
X007224Y000961D01*
X007075Y001110D01*
X007024Y001232D01*
X006973Y001110D01*
X006824Y000961D01*
X006629Y000880D01*
X006419Y000880D01*
X006224Y000961D01*
X006075Y001110D01*
X005994Y001305D01*
X005994Y001516D01*
X006075Y001710D01*
X006224Y001860D01*
X006346Y001910D01*
X006224Y001961D01*
X006075Y002110D01*
X006024Y002232D01*
X005973Y002110D01*
X005824Y001961D01*
X005629Y001880D01*
X005419Y001880D01*
X005224Y001961D01*
X005075Y002110D01*
X004994Y002305D01*
X004994Y002516D01*
X005075Y002710D01*
X005224Y002860D01*
X005419Y002940D01*
X005629Y002940D01*
X005675Y002921D01*
X006138Y003384D01*
X006138Y006182D01*
X006178Y006278D01*
X006365Y006465D01*
X002754Y006465D01*
X002754Y006291D01*
X002665Y006078D01*
X002502Y005915D01*
X002482Y005906D01*
X002502Y005898D01*
X002665Y005735D01*
X002754Y005522D01*
X002754Y005291D01*
X002665Y005078D01*
X002502Y004915D01*
X002289Y004826D01*
X002058Y004826D01*
X001806Y004953D02*
X000600Y004953D01*
X000600Y005052D02*
X001708Y005052D01*
X001652Y005150D02*
X000600Y005150D01*
X000600Y005249D02*
X001611Y005249D01*
X001594Y005347D02*
X000600Y005347D01*
X000600Y005446D02*
X001594Y005446D01*
X001603Y005544D02*
X000600Y005544D01*
X000600Y005643D02*
X001644Y005643D01*
X001688Y005741D02*
X000600Y005741D01*
X000600Y005840D02*
X001787Y005840D01*
X001821Y005938D02*
X000600Y005938D01*
X000600Y006037D02*
X001723Y006037D01*
X001658Y006135D02*
X000600Y006135D01*
X000600Y006234D02*
X001617Y006234D01*
X001594Y006332D02*
X000600Y006332D01*
X000600Y006431D02*
X001594Y006431D01*
X001597Y006529D02*
X000600Y006529D01*
X000600Y006628D02*
X001638Y006628D01*
X001678Y006726D02*
X000600Y006726D01*
X000600Y006825D02*
X001772Y006825D01*
X001836Y006923D02*
X000600Y006923D01*
X000600Y007022D02*
X001738Y007022D01*
X001664Y007120D02*
X000600Y007120D01*
X000600Y007219D02*
X001624Y007219D01*
X001594Y007317D02*
X000600Y007317D01*
X000600Y007416D02*
X001594Y007416D01*
X001594Y007514D02*
X000600Y007514D01*
X000600Y007613D02*
X001631Y007613D01*
X001672Y007711D02*
X000600Y007711D01*
X000600Y007810D02*
X001757Y007810D01*
X001725Y007908D02*
X000600Y007908D01*
X000600Y008007D02*
X001656Y008007D01*
X001654Y008105D02*
X000600Y008105D01*
X000600Y008204D02*
X001654Y008204D01*
X001654Y008302D02*
X000600Y008302D01*
X000600Y008401D02*
X002124Y008401D01*
X002124Y008499D02*
X002224Y008499D01*
X002224Y008401D02*
X009957Y008401D01*
X009957Y008499D02*
X002694Y008499D01*
X002694Y008598D02*
X009957Y008598D01*
X009957Y008696D02*
X002694Y008696D01*
X002694Y008795D02*
X009957Y008795D01*
X009927Y008893D02*
X002639Y008893D01*
X002224Y008893D02*
X002124Y008893D01*
X002124Y008795D02*
X002224Y008795D01*
X002224Y008696D02*
X002124Y008696D01*
X002124Y008598D02*
X002224Y008598D01*
X002694Y008302D02*
X009957Y008302D01*
X009957Y008204D02*
X002694Y008204D01*
X002694Y008105D02*
X009957Y008105D01*
X009957Y008007D02*
X002691Y008007D01*
X002622Y007908D02*
X009957Y007908D01*
X009957Y007810D02*
X002590Y007810D01*
X002675Y007711D02*
X006611Y007711D01*
X006811Y007391D02*
X002189Y007391D01*
X002174Y007406D01*
X002493Y006725D02*
X002174Y006406D01*
X002493Y006725D02*
X006678Y006725D01*
X006969Y006997D01*
X007180Y007317D02*
X009957Y007317D01*
X009957Y007219D02*
X007269Y007219D01*
X007264Y007174D02*
X007462Y006976D01*
X009310Y006976D01*
X009523Y006726D02*
X007220Y006726D01*
X007318Y006825D02*
X009848Y006825D01*
X009917Y006923D02*
X007338Y006923D01*
X007338Y007022D02*
X009957Y007022D01*
X009957Y007120D02*
X007338Y007120D01*
X007264Y007174D02*
X007264Y007725D01*
X004650Y007725D01*
X006232Y006332D02*
X002754Y006332D01*
X002754Y006431D02*
X006330Y006431D01*
X006159Y006234D02*
X002730Y006234D01*
X002689Y006135D02*
X006138Y006135D01*
X006138Y006037D02*
X002624Y006037D01*
X002526Y005938D02*
X006138Y005938D01*
X006138Y005840D02*
X002560Y005840D01*
X002659Y005741D02*
X006138Y005741D01*
X006138Y005643D02*
X002703Y005643D01*
X002744Y005544D02*
X006138Y005544D01*
X006138Y005446D02*
X002754Y005446D01*
X002754Y005347D02*
X006138Y005347D01*
X006138Y005249D02*
X002736Y005249D01*
X002695Y005150D02*
X006138Y005150D01*
X006138Y005052D02*
X002639Y005052D01*
X002541Y004953D02*
X006138Y004953D01*
X006138Y004855D02*
X002358Y004855D01*
X001904Y003160D02*
X001546Y003160D01*
X001200Y003067D01*
X000890Y002888D01*
X000637Y002635D01*
X000600Y002572D01*
X000600Y019926D01*
X000637Y019863D01*
X000890Y019609D01*
X001200Y019430D01*
X001546Y019338D01*
X001904Y019338D01*
X002250Y019430D01*
X002560Y019609D01*
X002813Y019863D01*
X002992Y020173D01*
X003085Y020519D01*
X003085Y020877D01*
X002992Y021223D01*
X002813Y021533D01*
X002560Y021786D01*
X002497Y021822D01*
X019851Y021822D01*
X019787Y021786D01*
X019534Y021533D01*
X019355Y021223D01*
X019262Y020877D01*
X019262Y020519D01*
X019355Y020173D01*
X019534Y019863D01*
X019787Y019609D01*
X020098Y019430D01*
X020443Y019338D01*
X020801Y019338D01*
X021147Y019430D01*
X021458Y019609D01*
X021711Y019863D01*
X021747Y019926D01*
X021747Y002572D01*
X021711Y002635D01*
X021458Y002888D01*
X021147Y003067D01*
X020801Y003160D01*
X020443Y003160D01*
X020098Y003067D01*
X019787Y002888D01*
X019534Y002635D01*
X019355Y002325D01*
X019262Y001979D01*
X019262Y001621D01*
X019355Y001275D01*
X019534Y000965D01*
X019787Y000712D01*
X019851Y000675D01*
X002497Y000675D01*
X002560Y000712D01*
X002813Y000965D01*
X002992Y001275D01*
X003085Y001621D01*
X003085Y001979D01*
X002992Y002325D01*
X002813Y002635D01*
X002560Y002888D01*
X002250Y003067D01*
X001904Y003160D01*
X002196Y003082D02*
X005836Y003082D01*
X005934Y003180D02*
X000600Y003180D01*
X000600Y003082D02*
X001254Y003082D01*
X001054Y002983D02*
X000600Y002983D01*
X000600Y002885D02*
X000886Y002885D01*
X000788Y002786D02*
X000600Y002786D01*
X000600Y002688D02*
X000689Y002688D01*
X000610Y002589D02*
X000600Y002589D01*
X000600Y003279D02*
X006033Y003279D01*
X006131Y003377D02*
X000600Y003377D01*
X000600Y003476D02*
X006138Y003476D01*
X006138Y003574D02*
X000600Y003574D01*
X000600Y003673D02*
X006138Y003673D01*
X006138Y003771D02*
X000600Y003771D01*
X000600Y003870D02*
X006138Y003870D01*
X006138Y003968D02*
X000600Y003968D01*
X000600Y004067D02*
X006138Y004067D01*
X006138Y004165D02*
X000600Y004165D01*
X002395Y002983D02*
X005737Y002983D01*
X005285Y002885D02*
X002563Y002885D01*
X002662Y002786D02*
X005150Y002786D01*
X005065Y002688D02*
X002760Y002688D01*
X002840Y002589D02*
X005024Y002589D01*
X004994Y002491D02*
X002896Y002491D01*
X002953Y002392D02*
X004994Y002392D01*
X004999Y002294D02*
X003000Y002294D01*
X003027Y002195D02*
X005039Y002195D01*
X005088Y002097D02*
X003053Y002097D01*
X003080Y001998D02*
X005187Y001998D01*
X005278Y001812D02*
X005218Y001769D01*
X005166Y001716D01*
X005122Y001657D01*
X005088Y001591D01*
X005066Y001520D01*
X005054Y001449D01*
X005485Y001449D01*
X005485Y001372D01*
X005054Y001372D01*
X005066Y001300D01*
X005088Y001230D01*
X005122Y001164D01*
X005166Y001104D01*
X005218Y001052D01*
X005278Y001008D01*
X005344Y000975D01*
X005414Y000952D01*
X005485Y000940D01*
X005485Y001372D01*
X005563Y001372D01*
X005563Y001449D01*
X005994Y001449D01*
X005982Y001520D01*
X005960Y001591D01*
X005926Y001657D01*
X005883Y001716D01*
X005830Y001769D01*
X005770Y001812D01*
X005704Y001846D01*
X005634Y001869D01*
X005563Y001880D01*
X005563Y001449D01*
X005485Y001449D01*
X005485Y001880D01*
X005414Y001869D01*
X005344Y001846D01*
X005278Y001812D01*
X005263Y001801D02*
X003085Y001801D01*
X003085Y001703D02*
X005156Y001703D01*
X005095Y001604D02*
X003080Y001604D01*
X003054Y001506D02*
X005063Y001506D01*
X005064Y001309D02*
X003001Y001309D01*
X003028Y001407D02*
X005485Y001407D01*
X005563Y001407D02*
X005994Y001407D01*
X005994Y001372D02*
X005563Y001372D01*
X005563Y000940D01*
X005634Y000952D01*
X005704Y000975D01*
X005770Y001008D01*
X005830Y001052D01*
X005883Y001104D01*
X005926Y001164D01*
X005960Y001230D01*
X005982Y001300D01*
X005994Y001372D01*
X005984Y001309D02*
X005994Y001309D01*
X006033Y001210D02*
X005950Y001210D01*
X005888Y001112D02*
X006074Y001112D01*
X006172Y001013D02*
X005777Y001013D01*
X005563Y001013D02*
X005485Y001013D01*
X005485Y001112D02*
X005563Y001112D01*
X005563Y001210D02*
X005485Y001210D01*
X005485Y001309D02*
X005563Y001309D01*
X005563Y001506D02*
X005485Y001506D01*
X005485Y001604D02*
X005563Y001604D01*
X005563Y001703D02*
X005485Y001703D01*
X005485Y001801D02*
X005563Y001801D01*
X005676Y001900D02*
X006321Y001900D01*
X006187Y001998D02*
X005862Y001998D01*
X005960Y002097D02*
X006088Y002097D01*
X006039Y002195D02*
X006009Y002195D01*
X006165Y001801D02*
X005786Y001801D01*
X005892Y001703D02*
X006071Y001703D01*
X006031Y001604D02*
X005953Y001604D01*
X005985Y001506D02*
X005994Y001506D01*
X006335Y000915D02*
X002763Y000915D01*
X002841Y001013D02*
X005271Y001013D01*
X005160Y001112D02*
X002898Y001112D01*
X002955Y001210D02*
X005098Y001210D01*
X005372Y001900D02*
X003085Y001900D01*
X002664Y000816D02*
X019683Y000816D01*
X019781Y000718D02*
X002566Y000718D01*
X005524Y002410D02*
X005532Y002410D01*
X006398Y003276D01*
X006398Y006131D01*
X006654Y006387D01*
X009705Y006387D01*
X009975Y006135D02*
X011692Y006135D01*
X011651Y006094D02*
X011497Y006094D01*
X011281Y005878D01*
X011281Y005662D01*
X010136Y005662D01*
X010027Y005771D01*
X009722Y005771D01*
X009506Y005555D01*
X009506Y005250D01*
X009722Y005034D01*
X010027Y005034D01*
X010136Y005142D01*
X011879Y005142D01*
X011974Y005182D01*
X014144Y007352D01*
X014143Y007347D01*
X014131Y007275D01*
X014600Y007275D01*
X014600Y007175D01*
X014131Y007175D01*
X014143Y007103D01*
X014168Y007026D01*
X014205Y006953D01*
X014253Y006886D01*
X014311Y006829D01*
X014377Y006780D01*
X014421Y006758D01*
X014321Y006717D01*
X014158Y006554D01*
X014070Y006341D01*
X014070Y006110D01*
X014158Y005897D01*
X014250Y005805D01*
X014193Y005805D01*
X014070Y005682D01*
X014070Y004768D01*
X014193Y004645D01*
X015107Y004645D01*
X015230Y004768D01*
X015230Y004895D01*
X017716Y004895D01*
X017837Y004945D01*
X018337Y005445D01*
X018430Y005538D01*
X018480Y005660D01*
X018480Y006145D01*
X018607Y006145D01*
X018730Y006268D01*
X018730Y007182D01*
X018607Y007305D01*
X018550Y007305D01*
X018642Y007397D01*
X018730Y007610D01*
X018730Y007841D01*
X018642Y008054D01*
X018479Y008217D01*
X018379Y008258D01*
X018423Y008280D01*
X018489Y008329D01*
X018547Y008386D01*
X018595Y008453D01*
X018632Y008526D01*
X018657Y008603D01*
X018669Y008675D01*
X018200Y008675D01*
X018200Y008775D01*
X018669Y008775D01*
X018657Y008847D01*
X018632Y008925D01*
X018595Y008998D01*
X018547Y009064D01*
X018489Y009122D01*
X018423Y009170D01*
X018350Y009207D01*
X018272Y009232D01*
X018200Y009244D01*
X018200Y008775D01*
X018100Y008775D01*
X018100Y008675D01*
X017631Y008675D01*
X017643Y008603D01*
X017668Y008526D01*
X017705Y008453D01*
X017753Y008386D01*
X017811Y008329D01*
X017877Y008280D01*
X017921Y008258D01*
X017821Y008217D01*
X017658Y008054D01*
X017570Y007841D01*
X017570Y007610D01*
X017658Y007397D01*
X017750Y007305D01*
X017693Y007305D01*
X017570Y007182D01*
X017570Y006268D01*
X017693Y006145D01*
X017820Y006145D01*
X017820Y005862D01*
X017513Y005555D01*
X015230Y005555D01*
X015230Y005682D01*
X015107Y005805D01*
X015050Y005805D01*
X015142Y005897D01*
X015230Y006110D01*
X015230Y006341D01*
X015142Y006554D01*
X014979Y006717D01*
X014879Y006758D01*
X014923Y006780D01*
X014989Y006829D01*
X015047Y006886D01*
X015095Y006953D01*
X015132Y007026D01*
X015157Y007103D01*
X015169Y007175D01*
X014700Y007175D01*
X014700Y007275D01*
X015169Y007275D01*
X015157Y007347D01*
X015132Y007425D01*
X015095Y007498D01*
X015047Y007564D01*
X014989Y007622D01*
X014923Y007670D01*
X014850Y007707D01*
X014772Y007732D01*
X014700Y007744D01*
X014700Y007275D01*
X014600Y007275D01*
X014600Y007744D01*
X014528Y007732D01*
X014523Y007731D01*
X017297Y010505D01*
X017370Y010578D01*
X017410Y010673D01*
X017410Y011862D01*
X017521Y011973D01*
X017627Y011973D01*
X017658Y011897D01*
X017750Y011805D01*
X017693Y011805D01*
X017570Y011682D01*
X017570Y010768D01*
X017693Y010645D01*
X018607Y010645D01*
X018730Y010768D01*
X018730Y010895D01*
X019216Y010895D01*
X019337Y010945D01*
X019430Y011038D01*
X019930Y011538D01*
X019980Y011660D01*
X019980Y015291D01*
X019930Y015412D01*
X019837Y015505D01*
X019337Y016005D01*
X019216Y016055D01*
X018730Y016055D01*
X018730Y016182D01*
X018607Y016305D01*
X018550Y016305D01*
X018642Y016397D01*
X018730Y016610D01*
X018730Y016841D01*
X018642Y017054D01*
X018479Y017217D01*
X018379Y017258D01*
X018423Y017280D01*
X018489Y017329D01*
X018547Y017386D01*
X018595Y017453D01*
X018632Y017526D01*
X018657Y017603D01*
X018669Y017675D01*
X018200Y017675D01*
X018200Y017775D01*
X018669Y017775D01*
X018657Y017847D01*
X018632Y017925D01*
X018595Y017998D01*
X018547Y018064D01*
X018489Y018122D01*
X018423Y018170D01*
X018350Y018207D01*
X018272Y018232D01*
X018200Y018244D01*
X018200Y017775D01*
X018100Y017775D01*
X018100Y017675D01*
X017631Y017675D01*
X017643Y017603D01*
X017668Y017526D01*
X017705Y017453D01*
X017753Y017386D01*
X017811Y017329D01*
X017877Y017280D01*
X017921Y017258D01*
X017821Y017217D01*
X017658Y017054D01*
X017570Y016841D01*
X017570Y016610D01*
X017658Y016397D01*
X017750Y016305D01*
X017693Y016305D01*
X017570Y016182D01*
X017570Y015268D01*
X017693Y015145D01*
X018607Y015145D01*
X018730Y015268D01*
X018730Y015395D01*
X019013Y015395D01*
X019320Y015089D01*
X019320Y011862D01*
X019013Y011555D01*
X018730Y011555D01*
X018730Y011682D01*
X018607Y011805D01*
X018550Y011805D01*
X018642Y011897D01*
X018730Y012110D01*
X018730Y012341D01*
X019320Y012341D01*
X019320Y012439D02*
X018689Y012439D01*
X018730Y012341D02*
X018642Y012554D01*
X018479Y012717D01*
X018379Y012758D01*
X018423Y012780D01*
X018489Y012829D01*
X018547Y012886D01*
X018595Y012953D01*
X018632Y013026D01*
X018657Y013103D01*
X018669Y013175D01*
X018200Y013175D01*
X018200Y013275D01*
X018669Y013275D01*
X018657Y013347D01*
X018632Y013425D01*
X018595Y013498D01*
X018547Y013564D01*
X018489Y013622D01*
X018423Y013670D01*
X018350Y013707D01*
X018272Y013732D01*
X018200Y013744D01*
X018200Y013275D01*
X018100Y013275D01*
X018100Y013175D01*
X017631Y013175D01*
X017643Y013103D01*
X017668Y013026D01*
X017705Y012953D01*
X017753Y012886D01*
X017811Y012829D01*
X017877Y012780D01*
X017921Y012758D01*
X017821Y012717D01*
X017658Y012554D01*
X017633Y012493D01*
X017362Y012493D01*
X017267Y012453D01*
X017193Y012380D01*
X016930Y012117D01*
X016890Y012021D01*
X016890Y010833D01*
X013910Y007853D01*
X013910Y010862D01*
X013998Y010949D01*
X014136Y010949D01*
X014158Y010897D01*
X014250Y010805D01*
X014193Y010805D01*
X014070Y010682D01*
X014070Y009768D01*
X014193Y009645D01*
X015107Y009645D01*
X015230Y009768D01*
X015230Y010682D01*
X015107Y010805D01*
X015050Y010805D01*
X015142Y010897D01*
X015230Y011110D01*
X015230Y011341D01*
X015142Y011554D01*
X014979Y011717D01*
X014879Y011758D01*
X014923Y011780D01*
X014989Y011829D01*
X015047Y011886D01*
X015095Y011953D01*
X015132Y012026D01*
X015157Y012103D01*
X015169Y012175D01*
X014700Y012175D01*
X014700Y012275D01*
X015169Y012275D01*
X015157Y012347D01*
X015132Y012425D01*
X015095Y012498D01*
X015047Y012564D01*
X014989Y012622D01*
X014923Y012670D01*
X014850Y012707D01*
X014772Y012732D01*
X014700Y012744D01*
X014700Y012275D01*
X014600Y012275D01*
X014600Y012175D01*
X014131Y012175D01*
X014143Y012103D01*
X014168Y012026D01*
X014205Y011953D01*
X014253Y011886D01*
X014311Y011829D01*
X014377Y011780D01*
X014421Y011758D01*
X014321Y011717D01*
X014158Y011554D01*
X014123Y011469D01*
X013838Y011469D01*
X013743Y011430D01*
X013670Y011357D01*
X013503Y011190D01*
X013503Y011190D01*
X013430Y011117D01*
X013390Y011021D01*
X013390Y007833D01*
X011651Y006094D01*
X011791Y006234D02*
X010074Y006234D01*
X010074Y006332D02*
X011889Y006332D01*
X011988Y006431D02*
X010468Y006431D01*
X010566Y006529D02*
X012086Y006529D01*
X012185Y006628D02*
X010586Y006628D01*
X010586Y006726D02*
X012283Y006726D01*
X012382Y006825D02*
X010586Y006825D01*
X010517Y006923D02*
X012480Y006923D01*
X012579Y007022D02*
X010477Y007022D01*
X010477Y007120D02*
X012677Y007120D01*
X012776Y007219D02*
X010477Y007219D01*
X010477Y007317D02*
X012874Y007317D01*
X012973Y007416D02*
X010477Y007416D01*
X010477Y007514D02*
X013071Y007514D01*
X013170Y007613D02*
X010477Y007613D01*
X010477Y007711D02*
X013268Y007711D01*
X013367Y007810D02*
X010477Y007810D01*
X010477Y007908D02*
X013390Y007908D01*
X013390Y008007D02*
X010477Y008007D01*
X010477Y008105D02*
X013390Y008105D01*
X013390Y008204D02*
X010477Y008204D01*
X010477Y008302D02*
X013390Y008302D01*
X013390Y008401D02*
X010477Y008401D01*
X010477Y008499D02*
X013390Y008499D01*
X013390Y008598D02*
X010477Y008598D01*
X010528Y008696D02*
X013390Y008696D01*
X013390Y008795D02*
X010627Y008795D01*
X010664Y008893D02*
X013390Y008893D01*
X013390Y008992D02*
X010664Y008992D01*
X010664Y009090D02*
X013390Y009090D01*
X013390Y009189D02*
X010613Y009189D01*
X010515Y009287D02*
X013390Y009287D01*
X013390Y009386D02*
X010088Y009386D01*
X010027Y009325D02*
X010243Y009541D01*
X010243Y009846D01*
X010134Y009955D01*
X010134Y011692D01*
X010238Y011796D01*
X010311Y011869D01*
X010351Y011965D01*
X010351Y013816D01*
X011727Y013816D01*
X011749Y013793D01*
X012055Y013793D01*
X012271Y014009D01*
X012271Y014265D01*
X012834Y014265D01*
X012955Y014316D01*
X013113Y014473D01*
X013205Y014566D01*
X013256Y014687D01*
X013256Y015076D01*
X013392Y015212D01*
X013400Y015232D01*
X013408Y015212D01*
X013571Y015048D01*
X013785Y014960D01*
X014015Y014960D01*
X014229Y015048D01*
X014392Y015212D01*
X014480Y015425D01*
X014480Y015656D01*
X014392Y015869D01*
X014229Y016032D01*
X014015Y016120D01*
X013938Y016120D01*
X013870Y016187D01*
X013869Y016189D01*
X013892Y016212D01*
X013980Y016425D01*
X013980Y016656D01*
X013892Y016869D01*
X013729Y017032D01*
X013728Y017032D01*
X013728Y017358D01*
X013678Y017479D01*
X013585Y017572D01*
X013337Y017820D01*
X013216Y017870D01*
X007584Y017870D01*
X007463Y017820D01*
X007370Y017727D01*
X007120Y017477D01*
X007070Y017356D01*
X007070Y017030D01*
X006908Y016869D01*
X006867Y016769D01*
X006845Y016813D01*
X006797Y016879D01*
X006739Y016937D01*
X006673Y016985D01*
X006600Y017022D01*
X006522Y017047D01*
X006450Y017059D01*
X006450Y016590D01*
X006350Y016590D01*
X006350Y017059D01*
X006278Y017047D01*
X006200Y017022D01*
X006127Y016985D01*
X006061Y016937D01*
X006003Y016879D01*
X005955Y016813D01*
X005933Y016769D01*
X005892Y016869D01*
X005729Y017032D01*
X005515Y017120D01*
X005285Y017120D01*
X005071Y017032D01*
X004908Y016869D01*
X004820Y016656D01*
X004820Y016425D01*
X004908Y016212D01*
X005071Y016048D01*
X005285Y015960D01*
X005362Y015960D01*
X005430Y015893D01*
X005431Y015891D01*
X005408Y015869D01*
X005320Y015656D01*
X005320Y015425D01*
X005408Y015212D01*
X005571Y015048D01*
X005640Y015020D01*
X005640Y014238D01*
X005680Y014143D01*
X005894Y013928D01*
X005967Y013855D01*
X006063Y013816D01*
X009831Y013816D01*
X009831Y012124D01*
X009654Y011947D01*
X009614Y011852D01*
X009614Y009955D01*
X009506Y009846D01*
X009506Y009541D01*
X009722Y009325D01*
X010027Y009325D01*
X010076Y009287D02*
X000600Y009287D01*
X000600Y009189D02*
X009978Y009189D01*
X009927Y009090D02*
X000600Y009090D01*
X000600Y008992D02*
X009927Y008992D01*
X010217Y008906D02*
X010296Y008985D01*
X010217Y008906D02*
X010217Y006702D01*
X009877Y006037D02*
X011440Y006037D01*
X011342Y005938D02*
X006658Y005938D01*
X006658Y005840D02*
X011281Y005840D01*
X011281Y005741D02*
X010057Y005741D01*
X009692Y005741D02*
X006658Y005741D01*
X006658Y005643D02*
X009593Y005643D01*
X009506Y005544D02*
X006658Y005544D01*
X006658Y005446D02*
X009506Y005446D01*
X009506Y005347D02*
X006658Y005347D01*
X006658Y005249D02*
X009507Y005249D01*
X009605Y005150D02*
X006658Y005150D01*
X006658Y005052D02*
X009704Y005052D01*
X010045Y005052D02*
X014070Y005052D01*
X014070Y005150D02*
X011898Y005150D01*
X012041Y005249D02*
X014070Y005249D01*
X014070Y005347D02*
X012140Y005347D01*
X012238Y005446D02*
X014070Y005446D01*
X014070Y005544D02*
X012337Y005544D01*
X012435Y005643D02*
X014070Y005643D01*
X014129Y005741D02*
X012534Y005741D01*
X012632Y005840D02*
X014215Y005840D01*
X014141Y005938D02*
X012731Y005938D01*
X012829Y006037D02*
X014100Y006037D01*
X014070Y006135D02*
X012928Y006135D01*
X013026Y006234D02*
X014070Y006234D01*
X014070Y006332D02*
X013125Y006332D01*
X013223Y006431D02*
X014107Y006431D01*
X014148Y006529D02*
X013322Y006529D01*
X013420Y006628D02*
X014232Y006628D01*
X014344Y006726D02*
X013519Y006726D01*
X013617Y006825D02*
X014317Y006825D01*
X014227Y006923D02*
X013716Y006923D01*
X013814Y007022D02*
X014170Y007022D01*
X014140Y007120D02*
X013913Y007120D01*
X014011Y007219D02*
X014600Y007219D01*
X014650Y007225D02*
X013650Y006225D01*
X013650Y004725D01*
X014150Y004225D01*
X009690Y004225D01*
X009310Y004605D01*
X009310Y006032D01*
X009330Y006052D01*
X011260Y006052D01*
X011477Y006269D01*
X011477Y008139D01*
X012953Y008139D01*
X013150Y008335D01*
X013150Y008631D01*
X013910Y008598D02*
X014655Y008598D01*
X014753Y008696D02*
X013910Y008696D01*
X013910Y008795D02*
X014852Y008795D01*
X014950Y008893D02*
X013910Y008893D01*
X013910Y008992D02*
X015049Y008992D01*
X015147Y009090D02*
X013910Y009090D01*
X013910Y009189D02*
X015246Y009189D01*
X015344Y009287D02*
X013910Y009287D01*
X013910Y009386D02*
X015443Y009386D01*
X015541Y009484D02*
X013910Y009484D01*
X013910Y009583D02*
X015640Y009583D01*
X015738Y009681D02*
X015143Y009681D01*
X015230Y009780D02*
X015837Y009780D01*
X015935Y009878D02*
X015230Y009878D01*
X015230Y009977D02*
X016034Y009977D01*
X016132Y010075D02*
X015230Y010075D01*
X015230Y010174D02*
X016231Y010174D01*
X016329Y010272D02*
X015230Y010272D01*
X015230Y010371D02*
X016428Y010371D01*
X016526Y010469D02*
X015230Y010469D01*
X015230Y010568D02*
X016625Y010568D01*
X016723Y010666D02*
X015230Y010666D01*
X015147Y010765D02*
X016822Y010765D01*
X016890Y010863D02*
X015108Y010863D01*
X015169Y010962D02*
X016890Y010962D01*
X016890Y011060D02*
X015209Y011060D01*
X015230Y011159D02*
X016890Y011159D01*
X016890Y011257D02*
X015230Y011257D01*
X015224Y011356D02*
X016890Y011356D01*
X016890Y011454D02*
X015183Y011454D01*
X015142Y011553D02*
X016890Y011553D01*
X016890Y011651D02*
X015044Y011651D01*
X014899Y011750D02*
X016890Y011750D01*
X016890Y011848D02*
X015008Y011848D01*
X015090Y011947D02*
X016890Y011947D01*
X016900Y012045D02*
X015138Y012045D01*
X015164Y012144D02*
X016957Y012144D01*
X017055Y012242D02*
X014700Y012242D01*
X014650Y012225D02*
X013150Y012225D01*
X012914Y011989D01*
X012886Y011989D01*
X013570Y011257D02*
X010134Y011257D01*
X010134Y011159D02*
X013472Y011159D01*
X013406Y011060D02*
X010134Y011060D01*
X010134Y010962D02*
X013390Y010962D01*
X013390Y010863D02*
X010134Y010863D01*
X010134Y010765D02*
X013390Y010765D01*
X013390Y010666D02*
X010134Y010666D01*
X010134Y010568D02*
X013390Y010568D01*
X013390Y010469D02*
X010134Y010469D01*
X010134Y010371D02*
X013390Y010371D01*
X013390Y010272D02*
X010134Y010272D01*
X010134Y010174D02*
X013390Y010174D01*
X013390Y010075D02*
X010134Y010075D01*
X010134Y009977D02*
X013390Y009977D01*
X013390Y009878D02*
X010211Y009878D01*
X010243Y009780D02*
X013390Y009780D01*
X013390Y009681D02*
X010243Y009681D01*
X010243Y009583D02*
X013390Y009583D01*
X013390Y009484D02*
X010186Y009484D01*
X009874Y009694D02*
X009874Y011800D01*
X010091Y012017D01*
X010091Y014076D01*
X011815Y014076D01*
X011902Y014162D01*
X012178Y013917D02*
X019320Y013917D01*
X019320Y014015D02*
X012271Y014015D01*
X012271Y014114D02*
X019320Y014114D01*
X019320Y014212D02*
X012271Y014212D01*
X012079Y013818D02*
X019320Y013818D01*
X019320Y013720D02*
X018311Y013720D01*
X018200Y013720D02*
X018100Y013720D01*
X018100Y013744D02*
X018028Y013732D01*
X017950Y013707D01*
X017877Y013670D01*
X017811Y013622D01*
X017753Y013564D01*
X017705Y013498D01*
X017668Y013425D01*
X017643Y013347D01*
X017631Y013275D01*
X018100Y013275D01*
X018100Y013744D01*
X017989Y013720D02*
X010351Y013720D01*
X010351Y013621D02*
X017811Y013621D01*
X017723Y013523D02*
X010351Y013523D01*
X010351Y013424D02*
X017668Y013424D01*
X017639Y013326D02*
X010351Y013326D01*
X010351Y013227D02*
X018100Y013227D01*
X018150Y013225D02*
X017650Y013225D01*
X017150Y013725D01*
X017150Y017225D01*
X017650Y017725D01*
X018150Y017725D01*
X018200Y017758D02*
X021747Y017758D01*
X021747Y017660D02*
X018666Y017660D01*
X018643Y017561D02*
X021747Y017561D01*
X021747Y017463D02*
X018600Y017463D01*
X018524Y017364D02*
X021747Y017364D01*
X021747Y017266D02*
X018394Y017266D01*
X018528Y017167D02*
X021747Y017167D01*
X021747Y017069D02*
X018627Y017069D01*
X018676Y016970D02*
X021747Y016970D01*
X021747Y016872D02*
X018717Y016872D01*
X018730Y016773D02*
X021747Y016773D01*
X021747Y016675D02*
X018730Y016675D01*
X018716Y016576D02*
X021747Y016576D01*
X021747Y016478D02*
X018675Y016478D01*
X018624Y016379D02*
X021747Y016379D01*
X021747Y016281D02*
X018631Y016281D01*
X018730Y016182D02*
X021747Y016182D01*
X021747Y016084D02*
X018730Y016084D01*
X019357Y015985D02*
X021747Y015985D01*
X021747Y015887D02*
X019455Y015887D01*
X019554Y015788D02*
X021747Y015788D01*
X021747Y015690D02*
X019652Y015690D01*
X019751Y015591D02*
X021747Y015591D01*
X021747Y015493D02*
X019849Y015493D01*
X019937Y015394D02*
X021747Y015394D01*
X021747Y015296D02*
X019978Y015296D01*
X019980Y015197D02*
X021747Y015197D01*
X021747Y015099D02*
X019980Y015099D01*
X019980Y015000D02*
X021747Y015000D01*
X021747Y014902D02*
X019980Y014902D01*
X019980Y014803D02*
X021747Y014803D01*
X021747Y014705D02*
X019980Y014705D01*
X019980Y014606D02*
X021747Y014606D01*
X021747Y014508D02*
X019980Y014508D01*
X019980Y014409D02*
X021747Y014409D01*
X021747Y014311D02*
X019980Y014311D01*
X019980Y014212D02*
X021747Y014212D01*
X021747Y014114D02*
X019980Y014114D01*
X019980Y014015D02*
X021747Y014015D01*
X021747Y013917D02*
X019980Y013917D01*
X019980Y013818D02*
X021747Y013818D01*
X021747Y013720D02*
X019980Y013720D01*
X019980Y013621D02*
X021747Y013621D01*
X021747Y013523D02*
X019980Y013523D01*
X019980Y013424D02*
X021747Y013424D01*
X021747Y013326D02*
X019980Y013326D01*
X019980Y013227D02*
X021747Y013227D01*
X021747Y013129D02*
X019980Y013129D01*
X019980Y013030D02*
X021747Y013030D01*
X021747Y012932D02*
X019980Y012932D01*
X019980Y012833D02*
X021747Y012833D01*
X021747Y012735D02*
X019980Y012735D01*
X019980Y012636D02*
X021747Y012636D01*
X021747Y012538D02*
X019980Y012538D01*
X019980Y012439D02*
X021747Y012439D01*
X021747Y012341D02*
X019980Y012341D01*
X019980Y012242D02*
X021747Y012242D01*
X021747Y012144D02*
X019980Y012144D01*
X019980Y012045D02*
X021747Y012045D01*
X021747Y011947D02*
X019980Y011947D01*
X019980Y011848D02*
X021747Y011848D01*
X021747Y011750D02*
X019980Y011750D01*
X019977Y011651D02*
X021747Y011651D01*
X021747Y011553D02*
X019936Y011553D01*
X019846Y011454D02*
X021747Y011454D01*
X021747Y011356D02*
X019747Y011356D01*
X019649Y011257D02*
X021747Y011257D01*
X021747Y011159D02*
X019550Y011159D01*
X019452Y011060D02*
X021747Y011060D01*
X021747Y010962D02*
X019353Y010962D01*
X018730Y010863D02*
X021747Y010863D01*
X021747Y010765D02*
X018727Y010765D01*
X018628Y010666D02*
X021747Y010666D01*
X021747Y010568D02*
X017360Y010568D01*
X017407Y010666D02*
X017672Y010666D01*
X017573Y010765D02*
X017410Y010765D01*
X017410Y010863D02*
X017570Y010863D01*
X017570Y010962D02*
X017410Y010962D01*
X017410Y011060D02*
X017570Y011060D01*
X017570Y011159D02*
X017410Y011159D01*
X017410Y011257D02*
X017570Y011257D01*
X017570Y011356D02*
X017410Y011356D01*
X017410Y011454D02*
X017570Y011454D01*
X017570Y011553D02*
X017410Y011553D01*
X017410Y011651D02*
X017570Y011651D01*
X017638Y011750D02*
X017410Y011750D01*
X017410Y011848D02*
X017707Y011848D01*
X017638Y011947D02*
X017495Y011947D01*
X017414Y012233D02*
X018142Y012233D01*
X018150Y012225D01*
X018559Y012636D02*
X019320Y012636D01*
X019320Y012538D02*
X018648Y012538D01*
X018435Y012735D02*
X019320Y012735D01*
X019320Y012833D02*
X018493Y012833D01*
X018580Y012932D02*
X019320Y012932D01*
X019320Y013030D02*
X018633Y013030D01*
X018661Y013129D02*
X019320Y013129D01*
X019320Y013227D02*
X018200Y013227D01*
X018200Y013326D02*
X018100Y013326D01*
X018100Y013424D02*
X018200Y013424D01*
X018200Y013523D02*
X018100Y013523D01*
X018100Y013621D02*
X018200Y013621D01*
X018489Y013621D02*
X019320Y013621D01*
X019320Y013523D02*
X018577Y013523D01*
X018632Y013424D02*
X019320Y013424D01*
X019320Y013326D02*
X018661Y013326D01*
X017807Y012833D02*
X010351Y012833D01*
X010351Y012735D02*
X014543Y012735D01*
X014528Y012732D02*
X014450Y012707D01*
X014377Y012670D01*
X014311Y012622D01*
X014253Y012564D01*
X014205Y012498D01*
X014168Y012425D01*
X014143Y012347D01*
X014131Y012275D01*
X014600Y012275D01*
X014600Y012744D01*
X014528Y012732D01*
X014600Y012735D02*
X014700Y012735D01*
X014757Y012735D02*
X017865Y012735D01*
X017741Y012636D02*
X014969Y012636D01*
X015066Y012538D02*
X017652Y012538D01*
X017414Y012233D02*
X017150Y011969D01*
X017150Y010725D01*
X011827Y005402D01*
X009874Y005402D01*
X009534Y006037D02*
X006672Y006037D01*
X006658Y004953D02*
X014070Y004953D01*
X014070Y004855D02*
X007743Y004855D01*
X007841Y004756D02*
X014082Y004756D01*
X014181Y004658D02*
X007909Y004658D01*
X007909Y004559D02*
X017750Y004559D01*
X017753Y004564D02*
X017705Y004498D01*
X017668Y004425D01*
X017643Y004347D01*
X017631Y004275D01*
X018100Y004275D01*
X018100Y004175D01*
X017631Y004175D01*
X017643Y004103D01*
X017668Y004026D01*
X017705Y003953D01*
X017753Y003886D01*
X017811Y003829D01*
X017877Y003780D01*
X017921Y003758D01*
X017821Y003717D01*
X017658Y003554D01*
X017570Y003341D01*
X017570Y003110D01*
X017658Y002897D01*
X017750Y002805D01*
X017693Y002805D01*
X017570Y002682D01*
X017570Y001768D01*
X017693Y001645D01*
X018607Y001645D01*
X018730Y001768D01*
X018730Y002682D01*
X018607Y002805D01*
X018550Y002805D01*
X018642Y002897D01*
X018730Y003110D01*
X018730Y003341D01*
X018642Y003554D01*
X018479Y003717D01*
X018379Y003758D01*
X018423Y003780D01*
X018489Y003829D01*
X018547Y003886D01*
X018595Y003953D01*
X018632Y004026D01*
X018657Y004103D01*
X018669Y004175D01*
X018200Y004175D01*
X018200Y004275D01*
X018669Y004275D01*
X018657Y004347D01*
X018632Y004425D01*
X018595Y004498D01*
X018547Y004564D01*
X018489Y004622D01*
X018423Y004670D01*
X018350Y004707D01*
X018272Y004732D01*
X018200Y004744D01*
X018200Y004275D01*
X018100Y004275D01*
X018100Y004744D01*
X018028Y004732D01*
X017950Y004707D01*
X017877Y004670D01*
X017811Y004622D01*
X017753Y004564D01*
X017686Y004461D02*
X007909Y004461D01*
X007887Y004362D02*
X017648Y004362D01*
X017633Y004165D02*
X007800Y004165D01*
X007800Y004067D02*
X017655Y004067D01*
X017697Y003968D02*
X007800Y003968D01*
X007800Y003870D02*
X017770Y003870D01*
X017896Y003771D02*
X007800Y003771D01*
X007800Y003673D02*
X017777Y003673D01*
X017679Y003574D02*
X007800Y003574D01*
X007800Y003476D02*
X017626Y003476D01*
X017585Y003377D02*
X007800Y003377D01*
X007800Y003279D02*
X017570Y003279D01*
X017570Y003180D02*
X007800Y003180D01*
X007800Y003082D02*
X017582Y003082D01*
X017622Y002983D02*
X007800Y002983D01*
X007800Y002885D02*
X017670Y002885D01*
X017674Y002786D02*
X007898Y002786D01*
X007983Y002688D02*
X017576Y002688D01*
X017570Y002589D02*
X008024Y002589D01*
X008054Y002491D02*
X017570Y002491D01*
X017570Y002392D02*
X008054Y002392D01*
X008049Y002294D02*
X017570Y002294D01*
X017570Y002195D02*
X008009Y002195D01*
X007960Y002097D02*
X017570Y002097D01*
X017570Y001998D02*
X007862Y001998D01*
X007727Y001900D02*
X017570Y001900D01*
X017570Y001801D02*
X007883Y001801D01*
X007977Y001703D02*
X017636Y001703D01*
X018664Y001703D02*
X019262Y001703D01*
X019262Y001801D02*
X018730Y001801D01*
X018730Y001900D02*
X019262Y001900D01*
X019268Y001998D02*
X018730Y001998D01*
X018730Y002097D02*
X019294Y002097D01*
X019320Y002195D02*
X018730Y002195D01*
X018730Y002294D02*
X019347Y002294D01*
X019394Y002392D02*
X018730Y002392D01*
X018730Y002491D02*
X019451Y002491D01*
X019508Y002589D02*
X018730Y002589D01*
X018724Y002688D02*
X019587Y002688D01*
X019685Y002786D02*
X018626Y002786D01*
X018630Y002885D02*
X019784Y002885D01*
X019952Y002983D02*
X018678Y002983D01*
X018718Y003082D02*
X020151Y003082D01*
X021094Y003082D02*
X021747Y003082D01*
X021747Y003180D02*
X018730Y003180D01*
X018730Y003279D02*
X021747Y003279D01*
X021747Y003377D02*
X018715Y003377D01*
X018674Y003476D02*
X021747Y003476D01*
X021747Y003574D02*
X018621Y003574D01*
X018523Y003673D02*
X021747Y003673D01*
X021747Y003771D02*
X018404Y003771D01*
X018530Y003870D02*
X021747Y003870D01*
X021747Y003968D02*
X018603Y003968D01*
X018645Y004067D02*
X021747Y004067D01*
X021747Y004165D02*
X018667Y004165D01*
X018652Y004362D02*
X021747Y004362D01*
X021747Y004264D02*
X018200Y004264D01*
X018150Y004225D02*
X014150Y004225D01*
X015119Y004658D02*
X017861Y004658D01*
X018100Y004658D02*
X018200Y004658D01*
X018200Y004559D02*
X018100Y004559D01*
X018100Y004461D02*
X018200Y004461D01*
X018200Y004362D02*
X018100Y004362D01*
X018100Y004264D02*
X007800Y004264D01*
X007540Y004536D02*
X007540Y002426D01*
X007524Y002410D01*
X007020Y001906D02*
X006524Y001410D01*
X007015Y001210D02*
X007033Y001210D01*
X007074Y001112D02*
X006974Y001112D01*
X006877Y001013D02*
X007172Y001013D01*
X007335Y000915D02*
X006713Y000915D01*
X007020Y001906D02*
X007020Y004536D01*
X006817Y004855D02*
X006658Y004855D01*
X006658Y004756D02*
X006719Y004756D01*
X007223Y004855D02*
X007337Y004855D01*
X007180Y007416D02*
X009957Y007416D01*
X009957Y007514D02*
X007180Y007514D01*
X007111Y007613D02*
X009957Y007613D01*
X009957Y007711D02*
X007012Y007711D01*
X007264Y007725D02*
X007264Y009713D01*
X009506Y009681D02*
X000600Y009681D01*
X000600Y009583D02*
X009506Y009583D01*
X009562Y009484D02*
X000600Y009484D01*
X000600Y009386D02*
X009661Y009386D01*
X009506Y009780D02*
X000600Y009780D01*
X000600Y009878D02*
X009537Y009878D01*
X009614Y009977D02*
X000600Y009977D01*
X000600Y010075D02*
X009614Y010075D01*
X009614Y010174D02*
X000600Y010174D01*
X000600Y010272D02*
X009614Y010272D01*
X009614Y010371D02*
X000600Y010371D01*
X000600Y010469D02*
X009614Y010469D01*
X009614Y010568D02*
X000600Y010568D01*
X000600Y010666D02*
X009614Y010666D01*
X009614Y010765D02*
X000600Y010765D01*
X000600Y010863D02*
X009614Y010863D01*
X009614Y010962D02*
X000600Y010962D01*
X000600Y011060D02*
X009614Y011060D01*
X009614Y011159D02*
X000600Y011159D01*
X000600Y011257D02*
X009614Y011257D01*
X009614Y011356D02*
X000600Y011356D01*
X000600Y011454D02*
X009614Y011454D01*
X009614Y011553D02*
X000600Y011553D01*
X000600Y011651D02*
X009614Y011651D01*
X009614Y011750D02*
X000600Y011750D01*
X000600Y011848D02*
X009614Y011848D01*
X009654Y011947D02*
X000600Y011947D01*
X000600Y012045D02*
X009752Y012045D01*
X009646Y012076D02*
X009469Y011898D01*
X009469Y008454D01*
X011650Y005725D02*
X013650Y007725D01*
X013650Y010969D01*
X013890Y011209D01*
X014634Y011209D01*
X014650Y011225D01*
X014256Y011651D02*
X010134Y011651D01*
X010134Y011553D02*
X014158Y011553D01*
X014292Y011848D02*
X010290Y011848D01*
X010343Y011947D02*
X014210Y011947D01*
X014162Y012045D02*
X010351Y012045D01*
X010351Y012144D02*
X014136Y012144D01*
X014142Y012341D02*
X010351Y012341D01*
X010351Y012439D02*
X014175Y012439D01*
X014234Y012538D02*
X010351Y012538D01*
X010351Y012636D02*
X014331Y012636D01*
X014600Y012636D02*
X014700Y012636D01*
X014700Y012538D02*
X014600Y012538D01*
X014600Y012439D02*
X014700Y012439D01*
X014700Y012341D02*
X014600Y012341D01*
X014600Y012242D02*
X010351Y012242D01*
X010192Y011750D02*
X014401Y011750D01*
X013802Y011454D02*
X010134Y011454D01*
X010134Y011356D02*
X013669Y011356D01*
X013670Y011357D02*
X013670Y011357D01*
X013912Y010863D02*
X014192Y010863D01*
X014153Y010765D02*
X013910Y010765D01*
X013910Y010666D02*
X014070Y010666D01*
X014070Y010568D02*
X013910Y010568D01*
X013910Y010469D02*
X014070Y010469D01*
X014070Y010371D02*
X013910Y010371D01*
X013910Y010272D02*
X014070Y010272D01*
X014070Y010174D02*
X013910Y010174D01*
X013910Y010075D02*
X014070Y010075D01*
X014070Y009977D02*
X013910Y009977D01*
X013910Y009878D02*
X014070Y009878D01*
X014070Y009780D02*
X013910Y009780D01*
X013910Y009681D02*
X014157Y009681D01*
X013910Y008499D02*
X014556Y008499D01*
X014458Y008401D02*
X013910Y008401D01*
X013910Y008302D02*
X014359Y008302D01*
X014261Y008204D02*
X013910Y008204D01*
X013910Y008105D02*
X014162Y008105D01*
X014064Y008007D02*
X013910Y008007D01*
X013910Y007908D02*
X013965Y007908D01*
X014602Y007810D02*
X017570Y007810D01*
X017570Y007711D02*
X014837Y007711D01*
X014700Y007711D02*
X014600Y007711D01*
X014600Y007613D02*
X014700Y007613D01*
X014700Y007514D02*
X014600Y007514D01*
X014600Y007416D02*
X014700Y007416D01*
X014700Y007317D02*
X014600Y007317D01*
X014700Y007219D02*
X017607Y007219D01*
X017570Y007120D02*
X015160Y007120D01*
X015130Y007022D02*
X017570Y007022D01*
X017570Y006923D02*
X015073Y006923D01*
X014983Y006825D02*
X017570Y006825D01*
X017570Y006726D02*
X014956Y006726D01*
X015068Y006628D02*
X017570Y006628D01*
X017570Y006529D02*
X015152Y006529D01*
X015193Y006431D02*
X017570Y006431D01*
X017570Y006332D02*
X015230Y006332D01*
X015230Y006234D02*
X017604Y006234D01*
X017820Y006135D02*
X015230Y006135D01*
X015200Y006037D02*
X017820Y006037D01*
X017820Y005938D02*
X015159Y005938D01*
X015085Y005840D02*
X017798Y005840D01*
X017699Y005741D02*
X015171Y005741D01*
X015230Y005643D02*
X017601Y005643D01*
X018140Y005249D02*
X021747Y005249D01*
X021747Y005347D02*
X018239Y005347D01*
X018337Y005445D02*
X018337Y005445D01*
X018337Y005446D02*
X021747Y005446D01*
X021747Y005544D02*
X018432Y005544D01*
X018473Y005643D02*
X021747Y005643D01*
X021747Y005741D02*
X018480Y005741D01*
X018480Y005840D02*
X021747Y005840D01*
X021747Y005938D02*
X018480Y005938D01*
X018480Y006037D02*
X021747Y006037D01*
X021747Y006135D02*
X018480Y006135D01*
X018695Y006234D02*
X021747Y006234D01*
X021747Y006332D02*
X018730Y006332D01*
X018730Y006431D02*
X021747Y006431D01*
X021747Y006529D02*
X018730Y006529D01*
X018730Y006628D02*
X021747Y006628D01*
X021747Y006726D02*
X018730Y006726D01*
X018730Y006825D02*
X021747Y006825D01*
X021747Y006923D02*
X018730Y006923D01*
X018730Y007022D02*
X021747Y007022D01*
X021747Y007120D02*
X018730Y007120D01*
X018693Y007219D02*
X021747Y007219D01*
X021747Y007317D02*
X018562Y007317D01*
X018650Y007416D02*
X021747Y007416D01*
X021747Y007514D02*
X018690Y007514D01*
X018730Y007613D02*
X021747Y007613D01*
X021747Y007711D02*
X018730Y007711D01*
X018730Y007810D02*
X021747Y007810D01*
X021747Y007908D02*
X018702Y007908D01*
X018661Y008007D02*
X021747Y008007D01*
X021747Y008105D02*
X018590Y008105D01*
X018492Y008204D02*
X021747Y008204D01*
X021747Y008302D02*
X018452Y008302D01*
X018557Y008401D02*
X021747Y008401D01*
X021747Y008499D02*
X018618Y008499D01*
X018655Y008598D02*
X021747Y008598D01*
X021747Y008696D02*
X018200Y008696D01*
X018200Y008795D02*
X018100Y008795D01*
X018100Y008775D02*
X018100Y009244D01*
X018028Y009232D01*
X017950Y009207D01*
X017877Y009170D01*
X017811Y009122D01*
X017753Y009064D01*
X017705Y008998D01*
X017668Y008925D01*
X017643Y008847D01*
X017631Y008775D01*
X018100Y008775D01*
X018100Y008696D02*
X015489Y008696D01*
X015587Y008795D02*
X017635Y008795D01*
X017658Y008893D02*
X015686Y008893D01*
X015784Y008992D02*
X017702Y008992D01*
X017780Y009090D02*
X015883Y009090D01*
X015981Y009189D02*
X017914Y009189D01*
X018100Y009189D02*
X018200Y009189D01*
X018200Y009090D02*
X018100Y009090D01*
X018100Y008992D02*
X018200Y008992D01*
X018200Y008893D02*
X018100Y008893D01*
X018386Y009189D02*
X021747Y009189D01*
X021747Y009287D02*
X016080Y009287D01*
X016178Y009386D02*
X021747Y009386D01*
X021747Y009484D02*
X016277Y009484D01*
X016375Y009583D02*
X021747Y009583D01*
X021747Y009681D02*
X016474Y009681D01*
X016572Y009780D02*
X021747Y009780D01*
X021747Y009878D02*
X016671Y009878D01*
X016769Y009977D02*
X021747Y009977D01*
X021747Y010075D02*
X016868Y010075D01*
X016966Y010174D02*
X021747Y010174D01*
X021747Y010272D02*
X017065Y010272D01*
X017163Y010371D02*
X021747Y010371D01*
X021747Y010469D02*
X017262Y010469D01*
X018520Y009090D02*
X021747Y009090D01*
X021747Y008992D02*
X018598Y008992D01*
X018642Y008893D02*
X021747Y008893D01*
X021747Y008795D02*
X018665Y008795D01*
X017848Y008302D02*
X015095Y008302D01*
X015193Y008401D02*
X017743Y008401D01*
X017682Y008499D02*
X015292Y008499D01*
X015390Y008598D02*
X017645Y008598D01*
X017808Y008204D02*
X014996Y008204D01*
X014898Y008105D02*
X017710Y008105D01*
X017639Y008007D02*
X014799Y008007D01*
X014701Y007908D02*
X017598Y007908D01*
X017570Y007613D02*
X014998Y007613D01*
X015083Y007514D02*
X017610Y007514D01*
X017650Y007416D02*
X015135Y007416D01*
X015162Y007317D02*
X017738Y007317D01*
X018042Y005150D02*
X021747Y005150D01*
X021747Y005052D02*
X017943Y005052D01*
X017845Y004953D02*
X021747Y004953D01*
X021747Y004855D02*
X015230Y004855D01*
X015218Y004756D02*
X021747Y004756D01*
X021747Y004658D02*
X018439Y004658D01*
X018550Y004559D02*
X021747Y004559D01*
X021747Y004461D02*
X018614Y004461D01*
X019267Y001604D02*
X008017Y001604D01*
X008054Y001506D02*
X019293Y001506D01*
X019320Y001407D02*
X008054Y001407D01*
X008054Y001309D02*
X019346Y001309D01*
X019393Y001210D02*
X008015Y001210D01*
X007974Y001112D02*
X019449Y001112D01*
X019506Y001013D02*
X007877Y001013D01*
X007713Y000915D02*
X019584Y000915D01*
X021461Y002885D02*
X021747Y002885D01*
X021747Y002983D02*
X021293Y002983D01*
X021560Y002786D02*
X021747Y002786D01*
X021747Y002688D02*
X021658Y002688D01*
X021737Y002589D02*
X021747Y002589D01*
X014138Y007317D02*
X014110Y007317D01*
X018662Y011750D02*
X019208Y011750D01*
X019306Y011848D02*
X018593Y011848D01*
X018662Y011947D02*
X019320Y011947D01*
X019320Y012045D02*
X018703Y012045D01*
X018730Y012144D02*
X019320Y012144D01*
X019320Y012242D02*
X018730Y012242D01*
X018730Y011651D02*
X019109Y011651D01*
X017720Y012932D02*
X010351Y012932D01*
X010351Y013030D02*
X017667Y013030D01*
X017639Y013129D02*
X010351Y013129D01*
X009831Y013129D02*
X000600Y013129D01*
X000600Y013227D02*
X009831Y013227D01*
X009831Y013326D02*
X000600Y013326D01*
X000600Y013424D02*
X009831Y013424D01*
X009831Y013523D02*
X000600Y013523D01*
X000600Y013621D02*
X009831Y013621D01*
X009831Y013720D02*
X000600Y013720D01*
X000600Y013818D02*
X006056Y013818D01*
X005906Y013917D02*
X000600Y013917D01*
X000600Y014015D02*
X005807Y014015D01*
X005709Y014114D02*
X000600Y014114D01*
X000600Y014212D02*
X005651Y014212D01*
X005640Y014311D02*
X000600Y014311D01*
X000600Y014409D02*
X005640Y014409D01*
X005640Y014508D02*
X000600Y014508D01*
X000600Y014606D02*
X005640Y014606D01*
X005640Y014705D02*
X000600Y014705D01*
X000600Y014803D02*
X005640Y014803D01*
X005640Y014902D02*
X000600Y014902D01*
X000600Y015000D02*
X005640Y015000D01*
X005521Y015099D02*
X000600Y015099D01*
X000600Y015197D02*
X005423Y015197D01*
X005373Y015296D02*
X000600Y015296D01*
X000600Y015394D02*
X005333Y015394D01*
X005320Y015493D02*
X000600Y015493D01*
X000600Y015591D02*
X005320Y015591D01*
X005334Y015690D02*
X000600Y015690D01*
X000600Y015788D02*
X005375Y015788D01*
X005426Y015887D02*
X000600Y015887D01*
X000600Y015985D02*
X005224Y015985D01*
X005036Y016084D02*
X000600Y016084D01*
X000600Y016182D02*
X004938Y016182D01*
X004880Y016281D02*
X000600Y016281D01*
X000600Y016379D02*
X004839Y016379D01*
X004820Y016478D02*
X000600Y016478D01*
X000600Y016576D02*
X004820Y016576D01*
X004828Y016675D02*
X000600Y016675D01*
X000600Y016773D02*
X004869Y016773D01*
X004911Y016872D02*
X000600Y016872D01*
X000600Y016970D02*
X005010Y016970D01*
X005160Y017069D02*
X000600Y017069D01*
X000600Y017167D02*
X007070Y017167D01*
X007070Y017069D02*
X005640Y017069D01*
X005790Y016970D02*
X006107Y016970D01*
X005998Y016872D02*
X005889Y016872D01*
X005931Y016773D02*
X005935Y016773D01*
X006350Y016773D02*
X006450Y016773D01*
X006450Y016675D02*
X006350Y016675D01*
X006350Y016872D02*
X006450Y016872D01*
X006450Y016970D02*
X006350Y016970D01*
X006693Y016970D02*
X007010Y016970D01*
X006911Y016872D02*
X006802Y016872D01*
X006865Y016773D02*
X006869Y016773D01*
X007070Y017266D02*
X000600Y017266D01*
X000600Y017364D02*
X007073Y017364D01*
X007114Y017463D02*
X000600Y017463D01*
X000600Y017561D02*
X007204Y017561D01*
X007303Y017660D02*
X000600Y017660D01*
X000600Y017758D02*
X007401Y017758D01*
X007552Y017857D02*
X000600Y017857D01*
X000600Y017955D02*
X004488Y017955D01*
X004506Y017950D02*
X004229Y018024D01*
X003981Y018168D01*
X003778Y018371D01*
X003634Y018619D01*
X003560Y018897D01*
X003560Y019184D01*
X003634Y019461D01*
X003778Y019709D01*
X003981Y019912D01*
X004229Y020056D01*
X004506Y020130D01*
X004794Y020130D01*
X005071Y020056D01*
X005319Y019912D01*
X005522Y019709D01*
X005666Y019461D01*
X005740Y019184D01*
X005740Y018897D01*
X005666Y018619D01*
X005522Y018371D01*
X005319Y018168D01*
X005071Y018024D01*
X004794Y017950D01*
X004506Y017950D01*
X004812Y017955D02*
X008488Y017955D01*
X008506Y017950D02*
X008794Y017950D01*
X009071Y018024D01*
X009319Y018168D01*
X009522Y018371D01*
X009650Y018592D01*
X009778Y018371D01*
X009981Y018168D01*
X010229Y018024D01*
X010506Y017950D01*
X010794Y017950D01*
X011071Y018024D01*
X011319Y018168D01*
X011522Y018371D01*
X011666Y018619D01*
X011740Y018897D01*
X011740Y019184D01*
X011666Y019461D01*
X011522Y019709D01*
X011319Y019912D01*
X011071Y020056D01*
X010794Y020130D01*
X010506Y020130D01*
X010229Y020056D01*
X009981Y019912D01*
X009778Y019709D01*
X009650Y019488D01*
X009522Y019709D01*
X009319Y019912D01*
X009071Y020056D01*
X008794Y020130D01*
X008506Y020130D01*
X008229Y020056D01*
X007981Y019912D01*
X007778Y019709D01*
X007634Y019461D01*
X007560Y019184D01*
X007560Y018897D01*
X007634Y018619D01*
X007778Y018371D01*
X007981Y018168D01*
X008229Y018024D01*
X008506Y017950D01*
X008179Y018054D02*
X005121Y018054D01*
X005292Y018152D02*
X008008Y018152D01*
X007898Y018251D02*
X005402Y018251D01*
X005501Y018349D02*
X007799Y018349D01*
X007733Y018448D02*
X005567Y018448D01*
X005623Y018546D02*
X007677Y018546D01*
X007627Y018645D02*
X005672Y018645D01*
X005699Y018743D02*
X007601Y018743D01*
X007575Y018842D02*
X005725Y018842D01*
X005740Y018940D02*
X007560Y018940D01*
X007560Y019039D02*
X005740Y019039D01*
X005740Y019137D02*
X007560Y019137D01*
X007574Y019236D02*
X005726Y019236D01*
X005700Y019334D02*
X007600Y019334D01*
X007627Y019433D02*
X005673Y019433D01*
X005625Y019531D02*
X007675Y019531D01*
X007732Y019630D02*
X005568Y019630D01*
X005503Y019728D02*
X007797Y019728D01*
X007895Y019827D02*
X005405Y019827D01*
X005297Y019925D02*
X008003Y019925D01*
X008174Y020024D02*
X005126Y020024D01*
X004823Y020122D02*
X008477Y020122D01*
X008823Y020122D02*
X010477Y020122D01*
X010174Y020024D02*
X009126Y020024D01*
X009297Y019925D02*
X010003Y019925D01*
X009895Y019827D02*
X009405Y019827D01*
X009503Y019728D02*
X009797Y019728D01*
X009732Y019630D02*
X009568Y019630D01*
X009625Y019531D02*
X009675Y019531D01*
X009677Y018546D02*
X009623Y018546D01*
X009567Y018448D02*
X009733Y018448D01*
X009799Y018349D02*
X009501Y018349D01*
X009402Y018251D02*
X009898Y018251D01*
X010008Y018152D02*
X009292Y018152D01*
X009121Y018054D02*
X010179Y018054D01*
X010488Y017955D02*
X008812Y017955D01*
X007787Y017210D02*
X013013Y017210D01*
X013068Y017155D01*
X013068Y017028D01*
X012908Y016869D01*
X012867Y016769D01*
X012845Y016813D01*
X012797Y016879D01*
X012739Y016937D01*
X012673Y016985D01*
X012600Y017022D01*
X012522Y017047D01*
X012450Y017059D01*
X012450Y016590D01*
X012350Y016590D01*
X012350Y017059D01*
X012278Y017047D01*
X012200Y017022D01*
X012127Y016985D01*
X012061Y016937D01*
X012003Y016879D01*
X011955Y016813D01*
X011933Y016769D01*
X011892Y016869D01*
X011729Y017032D01*
X011515Y017120D01*
X011285Y017120D01*
X011071Y017032D01*
X010908Y016869D01*
X010882Y016804D01*
X010411Y016804D01*
X010303Y016913D01*
X009997Y016913D01*
X009889Y016804D01*
X008169Y016804D01*
X008074Y016765D01*
X008000Y016691D01*
X007975Y016666D01*
X007892Y016869D01*
X007730Y017030D01*
X007730Y017153D01*
X007787Y017210D01*
X007744Y017167D02*
X013056Y017167D01*
X013068Y017069D02*
X011640Y017069D01*
X011790Y016970D02*
X012107Y016970D01*
X011998Y016872D02*
X011889Y016872D01*
X011931Y016773D02*
X011935Y016773D01*
X012350Y016773D02*
X012450Y016773D01*
X012450Y016675D02*
X012350Y016675D01*
X012350Y016872D02*
X012450Y016872D01*
X012450Y016970D02*
X012350Y016970D01*
X012693Y016970D02*
X013010Y016970D01*
X012911Y016872D02*
X012802Y016872D01*
X012865Y016773D02*
X012869Y016773D01*
X013685Y017463D02*
X017700Y017463D01*
X017657Y017561D02*
X013596Y017561D01*
X013497Y017660D02*
X017634Y017660D01*
X017631Y017775D02*
X018100Y017775D01*
X018100Y018244D01*
X018028Y018232D01*
X017950Y018207D01*
X017877Y018170D01*
X017811Y018122D01*
X017753Y018064D01*
X017705Y017998D01*
X017668Y017925D01*
X017643Y017847D01*
X017631Y017775D01*
X017646Y017857D02*
X013248Y017857D01*
X013399Y017758D02*
X018100Y017758D01*
X018100Y017857D02*
X018200Y017857D01*
X018200Y017955D02*
X018100Y017955D01*
X018100Y018054D02*
X018200Y018054D01*
X018200Y018152D02*
X018100Y018152D01*
X017853Y018152D02*
X015292Y018152D01*
X015319Y018168D02*
X015522Y018371D01*
X015666Y018619D01*
X015740Y018897D01*
X015740Y019184D01*
X015666Y019461D01*
X015522Y019709D01*
X015319Y019912D01*
X015071Y020056D01*
X014794Y020130D01*
X014506Y020130D01*
X014229Y020056D01*
X013981Y019912D01*
X013778Y019709D01*
X013634Y019461D01*
X013560Y019184D01*
X013560Y018897D01*
X013634Y018619D01*
X013778Y018371D01*
X013981Y018168D01*
X014229Y018024D01*
X014506Y017950D01*
X014794Y017950D01*
X015071Y018024D01*
X015319Y018168D01*
X015402Y018251D02*
X021747Y018251D01*
X021747Y018349D02*
X015501Y018349D01*
X015567Y018448D02*
X021747Y018448D01*
X021747Y018546D02*
X015623Y018546D01*
X015672Y018645D02*
X021747Y018645D01*
X021747Y018743D02*
X015699Y018743D01*
X015725Y018842D02*
X021747Y018842D01*
X021747Y018940D02*
X015740Y018940D01*
X015740Y019039D02*
X021747Y019039D01*
X021747Y019137D02*
X015740Y019137D01*
X015726Y019236D02*
X021747Y019236D01*
X021747Y019334D02*
X015700Y019334D01*
X015673Y019433D02*
X020093Y019433D01*
X019923Y019531D02*
X015625Y019531D01*
X015568Y019630D02*
X019767Y019630D01*
X019669Y019728D02*
X015503Y019728D01*
X015405Y019827D02*
X019570Y019827D01*
X019498Y019925D02*
X015297Y019925D01*
X015126Y020024D02*
X019441Y020024D01*
X019384Y020122D02*
X014823Y020122D01*
X014477Y020122D02*
X010823Y020122D01*
X011126Y020024D02*
X014174Y020024D01*
X014003Y019925D02*
X011297Y019925D01*
X011405Y019827D02*
X013895Y019827D01*
X013797Y019728D02*
X011503Y019728D01*
X011568Y019630D02*
X013732Y019630D01*
X013675Y019531D02*
X011625Y019531D01*
X011673Y019433D02*
X013627Y019433D01*
X013600Y019334D02*
X011700Y019334D01*
X011726Y019236D02*
X013574Y019236D01*
X013560Y019137D02*
X011740Y019137D01*
X011740Y019039D02*
X013560Y019039D01*
X013560Y018940D02*
X011740Y018940D01*
X011725Y018842D02*
X013575Y018842D01*
X013601Y018743D02*
X011699Y018743D01*
X011672Y018645D02*
X013627Y018645D01*
X013677Y018546D02*
X011623Y018546D01*
X011567Y018448D02*
X013733Y018448D01*
X013799Y018349D02*
X011501Y018349D01*
X011402Y018251D02*
X013898Y018251D01*
X014008Y018152D02*
X011292Y018152D01*
X011121Y018054D02*
X014179Y018054D01*
X014488Y017955D02*
X010812Y017955D01*
X011160Y017069D02*
X007730Y017069D01*
X007790Y016970D02*
X011010Y016970D01*
X010911Y016872D02*
X010344Y016872D01*
X010150Y016544D02*
X008221Y016544D01*
X007717Y016040D01*
X005650Y016040D01*
X005400Y016290D01*
X005400Y016540D01*
X005900Y015540D02*
X005900Y014290D01*
X006115Y014076D01*
X010091Y014076D01*
X009831Y013030D02*
X000600Y013030D01*
X000600Y012932D02*
X009831Y012932D01*
X009831Y012833D02*
X000600Y012833D01*
X000600Y012735D02*
X009831Y012735D01*
X009831Y012636D02*
X000600Y012636D01*
X000600Y012538D02*
X009831Y012538D01*
X009831Y012439D02*
X000600Y012439D01*
X000600Y012341D02*
X009831Y012341D01*
X009831Y012242D02*
X000600Y012242D01*
X000600Y012144D02*
X009831Y012144D01*
X012943Y014311D02*
X019320Y014311D01*
X019320Y014409D02*
X013049Y014409D01*
X013147Y014508D02*
X019320Y014508D01*
X019320Y014606D02*
X013222Y014606D01*
X013256Y014705D02*
X019320Y014705D01*
X019320Y014803D02*
X013256Y014803D01*
X013256Y014902D02*
X019320Y014902D01*
X019320Y015000D02*
X014112Y015000D01*
X014279Y015099D02*
X019310Y015099D01*
X019211Y015197D02*
X018659Y015197D01*
X018730Y015296D02*
X019113Y015296D01*
X019014Y015394D02*
X018730Y015394D01*
X017641Y015197D02*
X014377Y015197D01*
X014427Y015296D02*
X017570Y015296D01*
X017570Y015394D02*
X014467Y015394D01*
X014480Y015493D02*
X017570Y015493D01*
X017570Y015591D02*
X014480Y015591D01*
X014466Y015690D02*
X017570Y015690D01*
X017570Y015788D02*
X014425Y015788D01*
X014374Y015887D02*
X017570Y015887D01*
X017570Y015985D02*
X014275Y015985D01*
X014103Y016084D02*
X017570Y016084D01*
X017570Y016182D02*
X013876Y016182D01*
X013920Y016281D02*
X017669Y016281D01*
X017676Y016379D02*
X013961Y016379D01*
X013980Y016478D02*
X017625Y016478D01*
X017584Y016576D02*
X013980Y016576D01*
X013972Y016675D02*
X017570Y016675D01*
X017570Y016773D02*
X013931Y016773D01*
X013889Y016872D02*
X017583Y016872D01*
X017624Y016970D02*
X013790Y016970D01*
X013728Y017069D02*
X017673Y017069D01*
X017772Y017167D02*
X013728Y017167D01*
X013728Y017266D02*
X017906Y017266D01*
X017776Y017364D02*
X013725Y017364D01*
X014812Y017955D02*
X017684Y017955D01*
X017746Y018054D02*
X015121Y018054D01*
X013650Y016040D02*
X010406Y016040D01*
X008400Y016040D01*
X007900Y015540D01*
X007972Y016675D02*
X007984Y016675D01*
X007931Y016773D02*
X008095Y016773D01*
X007889Y016872D02*
X009956Y016872D01*
X010150Y016544D02*
X011396Y016544D01*
X011400Y016540D01*
X013256Y015000D02*
X013688Y015000D01*
X013521Y015099D02*
X013279Y015099D01*
X013377Y015197D02*
X013423Y015197D01*
X013900Y015540D02*
X013900Y015790D01*
X013650Y016040D01*
X015125Y012439D02*
X017252Y012439D01*
X017154Y012341D02*
X015158Y012341D01*
X018654Y017857D02*
X021747Y017857D01*
X021747Y017955D02*
X018616Y017955D01*
X018554Y018054D02*
X021747Y018054D01*
X021747Y018152D02*
X018447Y018152D01*
X017878Y020238D02*
X017956Y020263D01*
X018029Y020300D01*
X018095Y020348D01*
X018153Y020406D01*
X018201Y020472D01*
X018238Y020545D01*
X018263Y020623D01*
X018275Y020695D01*
X017806Y020695D01*
X017806Y020226D01*
X017878Y020238D01*
X017806Y020319D02*
X017706Y020319D01*
X017706Y020226D02*
X017706Y020695D01*
X017806Y020695D01*
X017806Y020795D01*
X017706Y020795D01*
X017706Y021263D01*
X017635Y021252D01*
X017557Y021227D01*
X017484Y021190D01*
X017418Y021142D01*
X017360Y021084D01*
X017336Y021051D01*
X017336Y021202D01*
X017213Y021325D01*
X016299Y021325D01*
X016176Y021202D01*
X016176Y020288D01*
X016299Y020165D01*
X017213Y020165D01*
X017336Y020288D01*
X017336Y020438D01*
X017360Y020406D01*
X017418Y020348D01*
X017484Y020300D01*
X017557Y020263D01*
X017635Y020238D01*
X017706Y020226D01*
X017706Y020418D02*
X017806Y020418D01*
X017806Y020516D02*
X017706Y020516D01*
X017706Y020615D02*
X017806Y020615D01*
X017806Y020713D02*
X019262Y020713D01*
X019262Y020615D02*
X018261Y020615D01*
X018223Y020516D02*
X019263Y020516D01*
X019289Y020418D02*
X018161Y020418D01*
X018055Y020319D02*
X019316Y020319D01*
X019342Y020221D02*
X017269Y020221D01*
X017336Y020319D02*
X017457Y020319D01*
X017351Y020418D02*
X017336Y020418D01*
X017706Y020812D02*
X017806Y020812D01*
X017806Y020795D02*
X017806Y021263D01*
X017878Y021252D01*
X017956Y021227D01*
X018029Y021190D01*
X018095Y021142D01*
X018153Y021084D01*
X018201Y021017D01*
X018238Y020944D01*
X018263Y020867D01*
X018275Y020795D01*
X017806Y020795D01*
X017806Y020910D02*
X017706Y020910D01*
X017706Y021009D02*
X017806Y021009D01*
X017806Y021107D02*
X017706Y021107D01*
X017706Y021206D02*
X017806Y021206D01*
X017997Y021206D02*
X019351Y021206D01*
X019324Y021107D02*
X018129Y021107D01*
X018205Y021009D02*
X019298Y021009D01*
X019271Y020910D02*
X018249Y020910D01*
X018272Y020812D02*
X019262Y020812D01*
X019402Y021304D02*
X017234Y021304D01*
X017332Y021206D02*
X017515Y021206D01*
X017383Y021107D02*
X017336Y021107D01*
X016279Y021304D02*
X002945Y021304D01*
X002997Y021206D02*
X016180Y021206D01*
X016176Y021107D02*
X003023Y021107D01*
X003049Y021009D02*
X016176Y021009D01*
X016176Y020910D02*
X003076Y020910D01*
X003085Y020812D02*
X016176Y020812D01*
X016176Y020713D02*
X003085Y020713D01*
X003085Y020615D02*
X016176Y020615D01*
X016176Y020516D02*
X003084Y020516D01*
X003058Y020418D02*
X016176Y020418D01*
X016176Y020319D02*
X003031Y020319D01*
X003005Y020221D02*
X016243Y020221D01*
X019459Y021403D02*
X002888Y021403D01*
X002831Y021501D02*
X019516Y021501D01*
X019601Y021600D02*
X002746Y021600D01*
X002648Y021698D02*
X019700Y021698D01*
X019806Y021797D02*
X002541Y021797D01*
X002963Y020122D02*
X004477Y020122D01*
X004174Y020024D02*
X002906Y020024D01*
X002849Y019925D02*
X004003Y019925D01*
X003895Y019827D02*
X002777Y019827D01*
X002679Y019728D02*
X003797Y019728D01*
X003732Y019630D02*
X002580Y019630D01*
X002425Y019531D02*
X003675Y019531D01*
X003627Y019433D02*
X002254Y019433D01*
X001196Y019433D02*
X000600Y019433D01*
X000600Y019531D02*
X001025Y019531D01*
X000869Y019630D02*
X000600Y019630D01*
X000600Y019728D02*
X000771Y019728D01*
X000672Y019827D02*
X000600Y019827D01*
X000600Y019925D02*
X000600Y019925D01*
X000600Y019334D02*
X003600Y019334D01*
X003574Y019236D02*
X000600Y019236D01*
X000600Y019137D02*
X003560Y019137D01*
X003560Y019039D02*
X000600Y019039D01*
X000600Y018940D02*
X003560Y018940D01*
X003575Y018842D02*
X000600Y018842D01*
X000600Y018743D02*
X003601Y018743D01*
X003627Y018645D02*
X000600Y018645D01*
X000600Y018546D02*
X003677Y018546D01*
X003733Y018448D02*
X000600Y018448D01*
X000600Y018349D02*
X003799Y018349D01*
X003898Y018251D02*
X000600Y018251D01*
X000600Y018152D02*
X004008Y018152D01*
X004179Y018054D02*
X000600Y018054D01*
X000600Y008893D02*
X001708Y008893D01*
X001654Y008795D02*
X000600Y008795D01*
X000600Y008696D02*
X001654Y008696D01*
X001654Y008598D02*
X000600Y008598D01*
X000600Y008499D02*
X001654Y008499D01*
X021152Y019433D02*
X021747Y019433D01*
X021747Y019531D02*
X021322Y019531D01*
X021478Y019630D02*
X021747Y019630D01*
X021747Y019728D02*
X021576Y019728D01*
X021675Y019827D02*
X021747Y019827D01*
X021747Y019925D02*
X021747Y019925D01*
M02*
