G75*
G70*
%OFA0B0*%
%FSLAX24Y24*%
%IPPOS*%
%LPD*%
%AMOC8*
5,1,8,0,0,1.08239X$1,22.5*
%
%ADD10C,0.0060*%
%ADD11C,0.0040*%
%ADD12C,0.0100*%
%ADD13R,0.2323X0.4646*%
%ADD14C,0.0030*%
%ADD15C,0.0020*%
%ADD16C,0.0050*%
%ADD17C,0.0080*%
%ADD18R,0.0098X0.0098*%
%ADD19R,0.0003X0.0003*%
%ADD20R,0.0057X0.0003*%
%ADD21R,0.0080X0.0003*%
%ADD22R,0.0097X0.0003*%
%ADD23R,0.0112X0.0003*%
%ADD24R,0.0127X0.0003*%
%ADD25R,0.0138X0.0003*%
%ADD26R,0.0147X0.0003*%
%ADD27R,0.0160X0.0003*%
%ADD28R,0.0165X0.0003*%
%ADD29R,0.0175X0.0003*%
%ADD30R,0.0185X0.0003*%
%ADD31R,0.0190X0.0003*%
%ADD32R,0.0198X0.0003*%
%ADD33R,0.0205X0.0003*%
%ADD34R,0.0213X0.0003*%
%ADD35R,0.0217X0.0003*%
%ADD36R,0.0222X0.0003*%
%ADD37R,0.0230X0.0003*%
%ADD38R,0.0235X0.0003*%
%ADD39R,0.0240X0.0003*%
%ADD40R,0.0248X0.0003*%
%ADD41R,0.0253X0.0003*%
%ADD42R,0.0257X0.0003*%
%ADD43R,0.0262X0.0003*%
%ADD44R,0.0267X0.0003*%
%ADD45R,0.0272X0.0003*%
%ADD46R,0.0278X0.0003*%
%ADD47R,0.0283X0.0003*%
%ADD48R,0.0285X0.0003*%
%ADD49R,0.0290X0.0003*%
%ADD50R,0.0295X0.0003*%
%ADD51R,0.0297X0.0003*%
%ADD52R,0.0302X0.0003*%
%ADD53R,0.0305X0.0003*%
%ADD54R,0.0310X0.0003*%
%ADD55R,0.0315X0.0003*%
%ADD56R,0.0318X0.0003*%
%ADD57R,0.0323X0.0003*%
%ADD58R,0.0325X0.0003*%
%ADD59R,0.0330X0.0003*%
%ADD60R,0.0333X0.0003*%
%ADD61R,0.0335X0.0003*%
%ADD62R,0.0338X0.0003*%
%ADD63R,0.0343X0.0003*%
%ADD64R,0.0345X0.0003*%
%ADD65R,0.0350X0.0003*%
%ADD66R,0.0352X0.0003*%
%ADD67R,0.0357X0.0003*%
%ADD68R,0.0362X0.0003*%
%ADD69R,0.0365X0.0003*%
%ADD70R,0.0370X0.0003*%
%ADD71R,0.0372X0.0003*%
%ADD72R,0.0375X0.0003*%
%ADD73R,0.0377X0.0003*%
%ADD74R,0.0380X0.0003*%
%ADD75R,0.0385X0.0003*%
%ADD76R,0.0387X0.0003*%
%ADD77R,0.0390X0.0003*%
%ADD78R,0.0393X0.0003*%
%ADD79R,0.0395X0.0003*%
%ADD80R,0.0398X0.0003*%
%ADD81R,0.0403X0.0003*%
%ADD82R,0.0405X0.0003*%
%ADD83R,0.0410X0.0003*%
%ADD84R,0.0413X0.0003*%
%ADD85R,0.0418X0.0003*%
%ADD86R,0.0182X0.0003*%
%ADD87R,0.0232X0.0003*%
%ADD88R,0.0227X0.0003*%
%ADD89R,0.0180X0.0003*%
%ADD90R,0.0225X0.0003*%
%ADD91R,0.0220X0.0003*%
%ADD92R,0.0177X0.0003*%
%ADD93R,0.0215X0.0003*%
%ADD94R,0.0210X0.0003*%
%ADD95R,0.0173X0.0003*%
%ADD96R,0.0170X0.0003*%
%ADD97R,0.0208X0.0003*%
%ADD98R,0.0168X0.0003*%
%ADD99R,0.0203X0.0003*%
%ADD100R,0.0200X0.0003*%
%ADD101R,0.0187X0.0003*%
%ADD102R,0.0195X0.0003*%
%ADD103R,0.0192X0.0003*%
%ADD104R,0.0005X0.0003*%
%ADD105R,0.0008X0.0003*%
%ADD106R,0.0010X0.0003*%
%ADD107R,0.0013X0.0003*%
%ADD108R,0.0015X0.0003*%
%ADD109R,0.0018X0.0003*%
%ADD110R,0.0020X0.0003*%
%ADD111R,0.0022X0.0003*%
%ADD112R,0.0025X0.0003*%
%ADD113R,0.0030X0.0003*%
%ADD114R,0.0032X0.0003*%
%ADD115R,0.0035X0.0003*%
%ADD116R,0.0037X0.0003*%
%ADD117R,0.0040X0.0003*%
%ADD118R,0.0043X0.0003*%
%ADD119R,0.0045X0.0003*%
%ADD120R,0.0047X0.0003*%
%ADD121R,0.0238X0.0003*%
%ADD122R,0.0050X0.0003*%
%ADD123R,0.0053X0.0003*%
%ADD124R,0.0055X0.0003*%
%ADD125R,0.0243X0.0003*%
%ADD126R,0.0060X0.0003*%
%ADD127R,0.0063X0.0003*%
%ADD128R,0.0065X0.0003*%
%ADD129R,0.0245X0.0003*%
%ADD130R,0.0067X0.0003*%
%ADD131R,0.0070X0.0003*%
%ADD132R,0.0073X0.0003*%
%ADD133R,0.0430X0.0003*%
%ADD134R,0.0428X0.0003*%
%ADD135R,0.0075X0.0003*%
%ADD136R,0.0425X0.0003*%
%ADD137R,0.0423X0.0003*%
%ADD138R,0.0420X0.0003*%
%ADD139R,0.0077X0.0003*%
%ADD140R,0.0415X0.0003*%
%ADD141R,0.0083X0.0003*%
%ADD142R,0.0408X0.0003*%
%ADD143R,0.0085X0.0003*%
%ADD144R,0.0400X0.0003*%
%ADD145R,0.0088X0.0003*%
%ADD146R,0.0090X0.0003*%
%ADD147R,0.0382X0.0003*%
%ADD148R,0.0092X0.0003*%
%ADD149R,0.0095X0.0003*%
%ADD150R,0.0367X0.0003*%
%ADD151R,0.0360X0.0003*%
%ADD152R,0.0355X0.0003*%
%ADD153R,0.0100X0.0003*%
%ADD154R,0.0103X0.0003*%
%ADD155R,0.0340X0.0003*%
%ADD156R,0.0105X0.0003*%
%ADD157R,0.0107X0.0003*%
%ADD158R,0.0328X0.0003*%
%ADD159R,0.0110X0.0003*%
%ADD160R,0.0320X0.0003*%
%ADD161R,0.0312X0.0003*%
%ADD162R,0.0307X0.0003*%
%ADD163R,0.0300X0.0003*%
%ADD164R,0.0115X0.0003*%
%ADD165R,0.0118X0.0003*%
%ADD166R,0.0293X0.0003*%
%ADD167R,0.0288X0.0003*%
%ADD168R,0.0280X0.0003*%
%ADD169R,0.0120X0.0003*%
%ADD170R,0.0275X0.0003*%
%ADD171R,0.0123X0.0003*%
%ADD172R,0.0270X0.0003*%
%ADD173R,0.0265X0.0003*%
%ADD174R,0.0255X0.0003*%
%ADD175R,0.0125X0.0003*%
%ADD176R,0.0250X0.0003*%
%ADD177R,0.0130X0.0003*%
%ADD178R,0.0132X0.0003*%
%ADD179R,0.0135X0.0003*%
%ADD180R,0.0140X0.0003*%
%ADD181R,0.0143X0.0003*%
%ADD182R,0.0145X0.0003*%
%ADD183R,0.0150X0.0003*%
%ADD184R,0.0152X0.0003*%
%ADD185R,0.0155X0.0003*%
%ADD186R,0.0158X0.0003*%
%ADD187R,0.0163X0.0003*%
%ADD188R,0.0260X0.0003*%
%ADD189R,0.0440X0.0003*%
%ADD190R,0.0445X0.0003*%
%ADD191R,0.0447X0.0003*%
%ADD192R,0.0450X0.0003*%
%ADD193R,0.0452X0.0003*%
%ADD194R,0.0457X0.0003*%
%ADD195R,0.0462X0.0003*%
%ADD196R,0.0465X0.0003*%
%ADD197R,0.0467X0.0003*%
%ADD198R,0.0470X0.0003*%
%ADD199R,0.0473X0.0003*%
%ADD200R,0.0475X0.0003*%
%ADD201R,0.0478X0.0003*%
%ADD202R,0.0455X0.0003*%
%ADD203R,0.0432X0.0003*%
%ADD204R,0.0480X0.0003*%
%ADD205R,0.0483X0.0003*%
%ADD206R,0.0488X0.0003*%
%ADD207R,0.0485X0.0003*%
%ADD208R,0.0710X0.0003*%
%ADD209R,0.0493X0.0003*%
%ADD210R,0.0495X0.0003*%
%ADD211R,0.0435X0.0003*%
%ADD212R,0.0437X0.0003*%
%ADD213R,0.0500X0.0003*%
%ADD214R,0.0712X0.0003*%
%ADD215R,0.0498X0.0003*%
%ADD216R,0.0442X0.0003*%
%ADD217R,0.0508X0.0003*%
%ADD218R,0.0715X0.0003*%
%ADD219R,0.0348X0.0003*%
%ADD220R,0.0515X0.0003*%
%ADD221R,0.0503X0.0003*%
%ADD222R,0.0520X0.0003*%
%ADD223R,0.0505X0.0003*%
%ADD224R,0.0460X0.0003*%
%ADD225R,0.0527X0.0003*%
%ADD226R,0.0717X0.0003*%
%ADD227R,0.0532X0.0003*%
%ADD228R,0.0510X0.0003*%
%ADD229R,0.0540X0.0003*%
%ADD230R,0.0548X0.0003*%
%ADD231R,0.0720X0.0003*%
%ADD232R,0.0553X0.0003*%
%ADD233R,0.0722X0.0003*%
%ADD234R,0.0560X0.0003*%
%ADD235R,0.0517X0.0003*%
%ADD236R,0.0565X0.0003*%
%ADD237R,0.0573X0.0003*%
%ADD238R,0.0522X0.0003*%
%ADD239R,0.0578X0.0003*%
%ADD240R,0.0725X0.0003*%
%ADD241R,0.0525X0.0003*%
%ADD242R,0.0583X0.0003*%
%ADD243R,0.0512X0.0003*%
%ADD244R,0.0590X0.0003*%
%ADD245R,0.0530X0.0003*%
%ADD246R,0.0595X0.0003*%
%ADD247R,0.0602X0.0003*%
%ADD248R,0.0727X0.0003*%
%ADD249R,0.0535X0.0003*%
%ADD250R,0.0607X0.0003*%
%ADD251R,0.0730X0.0003*%
%ADD252R,0.0537X0.0003*%
%ADD253R,0.0612X0.0003*%
%ADD254R,0.0617X0.0003*%
%ADD255R,0.0542X0.0003*%
%ADD256R,0.0545X0.0003*%
%ADD257R,0.0622X0.0003*%
%ADD258R,0.0630X0.0003*%
%ADD259R,0.0732X0.0003*%
%ADD260R,0.0633X0.0003*%
%ADD261R,0.0550X0.0003*%
%ADD262R,0.0555X0.0003*%
%ADD263R,0.0638X0.0003*%
%ADD264R,0.0563X0.0003*%
%ADD265R,0.0645X0.0003*%
%ADD266R,0.0558X0.0003*%
%ADD267R,0.0490X0.0003*%
%ADD268R,0.0650X0.0003*%
%ADD269R,0.0735X0.0003*%
%ADD270R,0.0570X0.0003*%
%ADD271R,0.0653X0.0003*%
%ADD272R,0.0660X0.0003*%
%ADD273R,0.0580X0.0003*%
%ADD274R,0.0665X0.0003*%
%ADD275R,0.0575X0.0003*%
%ADD276R,0.0668X0.0003*%
%ADD277R,0.0587X0.0003*%
%ADD278R,0.0673X0.0003*%
%ADD279R,0.0737X0.0003*%
%ADD280R,0.0680X0.0003*%
%ADD281R,0.0585X0.0003*%
%ADD282R,0.0592X0.0003*%
%ADD283R,0.0683X0.0003*%
%ADD284R,0.0600X0.0003*%
%ADD285R,0.0688X0.0003*%
%ADD286R,0.0690X0.0003*%
%ADD287R,0.0597X0.0003*%
%ADD288R,0.0698X0.0003*%
%ADD289R,0.0740X0.0003*%
%ADD290R,0.0610X0.0003*%
%ADD291R,0.0700X0.0003*%
%ADD292R,0.0605X0.0003*%
%ADD293R,0.0705X0.0003*%
%ADD294R,0.0625X0.0003*%
%ADD295R,0.0742X0.0003*%
%ADD296R,0.0620X0.0003*%
%ADD297R,0.0635X0.0003*%
%ADD298R,0.0640X0.0003*%
%ADD299R,0.0643X0.0003*%
%ADD300R,0.0745X0.0003*%
%ADD301R,0.0648X0.0003*%
%ADD302R,0.0658X0.0003*%
%ADD303R,0.0655X0.0003*%
%ADD304R,0.0663X0.0003*%
%ADD305R,0.0747X0.0003*%
%ADD306R,0.0670X0.0003*%
%ADD307R,0.0675X0.0003*%
%ADD308R,0.0685X0.0003*%
%ADD309R,0.0695X0.0003*%
%ADD310R,0.0027X0.0003*%
%ADD311R,0.0568X0.0003*%
%ADD312R,0.0912X0.0003*%
%ADD313R,0.0907X0.0003*%
%ADD314R,0.0900X0.0003*%
%ADD315R,0.0895X0.0003*%
%ADD316R,0.0887X0.0003*%
%ADD317R,0.0882X0.0003*%
%ADD318R,0.0875X0.0003*%
%ADD319R,0.0862X0.0003*%
%ADD320R,0.0848X0.0003*%
%ADD321R,0.0833X0.0003*%
%ADD322R,0.0818X0.0003*%
%ADD323R,0.0800X0.0003*%
%ADD324R,0.0788X0.0003*%
%ADD325R,0.0770X0.0003*%
%ADD326R,0.0752X0.0003*%
%ADD327R,0.0615X0.0003*%
%ADD328C,0.0000*%
D10*
X000375Y001800D02*
X000377Y001873D01*
X000383Y001946D01*
X000393Y002018D01*
X000407Y002090D01*
X000424Y002161D01*
X000446Y002231D01*
X000471Y002300D01*
X000500Y002367D01*
X000532Y002432D01*
X000568Y002496D01*
X000608Y002558D01*
X000650Y002617D01*
X000696Y002674D01*
X000745Y002728D01*
X000797Y002780D01*
X000851Y002829D01*
X000908Y002875D01*
X000967Y002917D01*
X001029Y002957D01*
X001093Y002993D01*
X001158Y003025D01*
X001225Y003054D01*
X001294Y003079D01*
X001364Y003101D01*
X001435Y003118D01*
X001507Y003132D01*
X001579Y003142D01*
X001652Y003148D01*
X001725Y003150D01*
X001798Y003148D01*
X001871Y003142D01*
X001943Y003132D01*
X002015Y003118D01*
X002086Y003101D01*
X002156Y003079D01*
X002225Y003054D01*
X002292Y003025D01*
X002357Y002993D01*
X002421Y002957D01*
X002483Y002917D01*
X002542Y002875D01*
X002599Y002829D01*
X002653Y002780D01*
X002705Y002728D01*
X002754Y002674D01*
X002800Y002617D01*
X002842Y002558D01*
X002882Y002496D01*
X002918Y002432D01*
X002950Y002367D01*
X002979Y002300D01*
X003004Y002231D01*
X003026Y002161D01*
X003043Y002090D01*
X003057Y002018D01*
X003067Y001946D01*
X003073Y001873D01*
X003075Y001800D01*
X003073Y001727D01*
X003067Y001654D01*
X003057Y001582D01*
X003043Y001510D01*
X003026Y001439D01*
X003004Y001369D01*
X002979Y001300D01*
X002950Y001233D01*
X002918Y001168D01*
X002882Y001104D01*
X002842Y001042D01*
X002800Y000983D01*
X002754Y000926D01*
X002705Y000872D01*
X002653Y000820D01*
X002599Y000771D01*
X002542Y000725D01*
X002483Y000683D01*
X002421Y000643D01*
X002357Y000607D01*
X002292Y000575D01*
X002225Y000546D01*
X002156Y000521D01*
X002086Y000499D01*
X002015Y000482D01*
X001943Y000468D01*
X001871Y000458D01*
X001798Y000452D01*
X001725Y000450D01*
X001652Y000452D01*
X001579Y000458D01*
X001507Y000468D01*
X001435Y000482D01*
X001364Y000499D01*
X001294Y000521D01*
X001225Y000546D01*
X001158Y000575D01*
X001093Y000607D01*
X001029Y000643D01*
X000967Y000683D01*
X000908Y000725D01*
X000851Y000771D01*
X000797Y000820D01*
X000745Y000872D01*
X000696Y000926D01*
X000650Y000983D01*
X000608Y001042D01*
X000568Y001104D01*
X000532Y001168D01*
X000500Y001233D01*
X000471Y001300D01*
X000446Y001369D01*
X000424Y001439D01*
X000407Y001510D01*
X000393Y001582D01*
X000383Y001654D01*
X000377Y001727D01*
X000375Y001800D01*
X005000Y004425D02*
X005000Y005025D01*
X005002Y005042D01*
X005006Y005059D01*
X005013Y005075D01*
X005023Y005089D01*
X005036Y005102D01*
X005050Y005112D01*
X005066Y005119D01*
X005083Y005123D01*
X005100Y005125D01*
X006200Y005125D01*
X006217Y005123D01*
X006234Y005119D01*
X006250Y005112D01*
X006264Y005102D01*
X006277Y005089D01*
X006287Y005075D01*
X006294Y005059D01*
X006298Y005042D01*
X006300Y005025D01*
X006300Y004425D01*
X006298Y004408D01*
X006294Y004391D01*
X006287Y004375D01*
X006277Y004361D01*
X006264Y004348D01*
X006250Y004338D01*
X006234Y004331D01*
X006217Y004327D01*
X006200Y004325D01*
X005100Y004325D01*
X005083Y004327D01*
X005066Y004331D01*
X005050Y004338D01*
X005036Y004348D01*
X005023Y004361D01*
X005013Y004375D01*
X005006Y004391D01*
X005002Y004408D01*
X005000Y004425D01*
X005100Y005325D02*
X006200Y005325D01*
X006217Y005327D01*
X006234Y005331D01*
X006250Y005338D01*
X006264Y005348D01*
X006277Y005361D01*
X006287Y005375D01*
X006294Y005391D01*
X006298Y005408D01*
X006300Y005425D01*
X006300Y006025D01*
X006298Y006042D01*
X006294Y006059D01*
X006287Y006075D01*
X006277Y006089D01*
X006264Y006102D01*
X006250Y006112D01*
X006234Y006119D01*
X006217Y006123D01*
X006200Y006125D01*
X005100Y006125D01*
X005083Y006123D01*
X005066Y006119D01*
X005050Y006112D01*
X005036Y006102D01*
X005023Y006089D01*
X005013Y006075D01*
X005006Y006059D01*
X005002Y006042D01*
X005000Y006025D01*
X005000Y005425D01*
X005002Y005408D01*
X005006Y005391D01*
X005013Y005375D01*
X005023Y005361D01*
X005036Y005348D01*
X005050Y005338D01*
X005066Y005331D01*
X005083Y005327D01*
X005100Y005325D01*
X005100Y006325D02*
X006200Y006325D01*
X006217Y006327D01*
X006234Y006331D01*
X006250Y006338D01*
X006264Y006348D01*
X006277Y006361D01*
X006287Y006375D01*
X006294Y006391D01*
X006298Y006408D01*
X006300Y006425D01*
X006300Y007025D01*
X006298Y007042D01*
X006294Y007059D01*
X006287Y007075D01*
X006277Y007089D01*
X006264Y007102D01*
X006250Y007112D01*
X006234Y007119D01*
X006217Y007123D01*
X006200Y007125D01*
X005100Y007125D01*
X005083Y007123D01*
X005066Y007119D01*
X005050Y007112D01*
X005036Y007102D01*
X005023Y007089D01*
X005013Y007075D01*
X005006Y007059D01*
X005002Y007042D01*
X005000Y007025D01*
X005000Y006425D01*
X005002Y006408D01*
X005006Y006391D01*
X005013Y006375D01*
X005023Y006361D01*
X005036Y006348D01*
X005050Y006338D01*
X005066Y006331D01*
X005083Y006327D01*
X005100Y006325D01*
X005100Y007325D02*
X006200Y007325D01*
X006217Y007327D01*
X006234Y007331D01*
X006250Y007338D01*
X006264Y007348D01*
X006277Y007361D01*
X006287Y007375D01*
X006294Y007391D01*
X006298Y007408D01*
X006300Y007425D01*
X006300Y008025D01*
X006298Y008042D01*
X006294Y008059D01*
X006287Y008075D01*
X006277Y008089D01*
X006264Y008102D01*
X006250Y008112D01*
X006234Y008119D01*
X006217Y008123D01*
X006200Y008125D01*
X005100Y008125D01*
X005083Y008123D01*
X005066Y008119D01*
X005050Y008112D01*
X005036Y008102D01*
X005023Y008089D01*
X005013Y008075D01*
X005006Y008059D01*
X005002Y008042D01*
X005000Y008025D01*
X005000Y007425D01*
X005002Y007408D01*
X005006Y007391D01*
X005013Y007375D01*
X005023Y007361D01*
X005036Y007348D01*
X005050Y007338D01*
X005066Y007331D01*
X005083Y007327D01*
X005100Y007325D01*
X004350Y010370D02*
X008650Y010370D01*
X008667Y010372D01*
X008684Y010376D01*
X008700Y010383D01*
X008714Y010393D01*
X008727Y010406D01*
X008737Y010420D01*
X008744Y010436D01*
X008748Y010453D01*
X008750Y010470D01*
X008750Y010870D01*
X008750Y011770D02*
X008750Y012170D01*
X008748Y012187D01*
X008744Y012204D01*
X008737Y012220D01*
X008727Y012234D01*
X008714Y012247D01*
X008700Y012257D01*
X008684Y012264D01*
X008667Y012268D01*
X008650Y012270D01*
X004350Y012270D01*
X004333Y012268D01*
X004316Y012264D01*
X004300Y012257D01*
X004286Y012247D01*
X004273Y012234D01*
X004263Y012220D01*
X004256Y012204D01*
X004252Y012187D01*
X004250Y012170D01*
X004250Y011770D01*
X004250Y010870D02*
X004250Y010470D01*
X004252Y010453D01*
X004256Y010436D01*
X004263Y010420D01*
X004273Y010406D01*
X004286Y010393D01*
X004300Y010383D01*
X004316Y010376D01*
X004333Y010372D01*
X004350Y010370D01*
X006250Y011070D02*
X006250Y011320D01*
X006250Y011570D01*
X006400Y011570D02*
X006600Y011570D01*
X006600Y011070D01*
X006400Y011070D01*
X006400Y011570D01*
X006750Y011570D02*
X006750Y011320D01*
X006750Y011070D01*
X010200Y007435D02*
X010360Y007275D01*
X010626Y004835D02*
X010626Y004392D01*
X010714Y004304D01*
X010891Y004304D01*
X010980Y004392D01*
X010980Y004835D01*
X011170Y004658D02*
X011347Y004835D01*
X011347Y004304D01*
X011170Y004304D02*
X011524Y004304D01*
X011707Y002003D02*
X011586Y001882D01*
X011586Y001396D01*
X012071Y001882D01*
X012071Y001396D01*
X011950Y001275D01*
X011707Y001275D01*
X011586Y001396D01*
X011346Y001275D02*
X010861Y001275D01*
X011346Y001760D01*
X011346Y001882D01*
X011225Y002003D01*
X010982Y002003D01*
X010861Y001882D01*
X011707Y002003D02*
X011950Y002003D01*
X012071Y001882D01*
X012311Y001760D02*
X012554Y002003D01*
X012554Y001275D01*
X012311Y001275D02*
X012797Y001275D01*
X013036Y001396D02*
X013158Y001275D01*
X013400Y001275D01*
X013522Y001396D01*
X013522Y001518D01*
X013400Y001639D01*
X013036Y001639D01*
X013036Y001396D01*
X013036Y001639D02*
X013279Y001882D01*
X013522Y002003D01*
X014160Y001983D02*
X014524Y001983D01*
X014646Y001862D01*
X014646Y001619D01*
X014524Y001498D01*
X014160Y001498D01*
X014160Y001255D02*
X014160Y001983D01*
X014403Y001498D02*
X014646Y001255D01*
X014885Y001377D02*
X014885Y001619D01*
X015007Y001741D01*
X015249Y001741D01*
X015371Y001619D01*
X015371Y001498D01*
X014885Y001498D01*
X014885Y001377D02*
X015007Y001255D01*
X015249Y001255D01*
X015853Y001255D02*
X015610Y001741D01*
X016096Y001741D02*
X015853Y001255D01*
X016335Y001255D02*
X016335Y001741D01*
X016578Y001983D01*
X016821Y001741D01*
X016821Y001255D01*
X016821Y001619D02*
X016335Y001619D01*
X019272Y001800D02*
X019274Y001873D01*
X019280Y001946D01*
X019290Y002018D01*
X019304Y002090D01*
X019321Y002161D01*
X019343Y002231D01*
X019368Y002300D01*
X019397Y002367D01*
X019429Y002432D01*
X019465Y002496D01*
X019505Y002558D01*
X019547Y002617D01*
X019593Y002674D01*
X019642Y002728D01*
X019694Y002780D01*
X019748Y002829D01*
X019805Y002875D01*
X019864Y002917D01*
X019926Y002957D01*
X019990Y002993D01*
X020055Y003025D01*
X020122Y003054D01*
X020191Y003079D01*
X020261Y003101D01*
X020332Y003118D01*
X020404Y003132D01*
X020476Y003142D01*
X020549Y003148D01*
X020622Y003150D01*
X020695Y003148D01*
X020768Y003142D01*
X020840Y003132D01*
X020912Y003118D01*
X020983Y003101D01*
X021053Y003079D01*
X021122Y003054D01*
X021189Y003025D01*
X021254Y002993D01*
X021318Y002957D01*
X021380Y002917D01*
X021439Y002875D01*
X021496Y002829D01*
X021550Y002780D01*
X021602Y002728D01*
X021651Y002674D01*
X021697Y002617D01*
X021739Y002558D01*
X021779Y002496D01*
X021815Y002432D01*
X021847Y002367D01*
X021876Y002300D01*
X021901Y002231D01*
X021923Y002161D01*
X021940Y002090D01*
X021954Y002018D01*
X021964Y001946D01*
X021970Y001873D01*
X021972Y001800D01*
X021970Y001727D01*
X021964Y001654D01*
X021954Y001582D01*
X021940Y001510D01*
X021923Y001439D01*
X021901Y001369D01*
X021876Y001300D01*
X021847Y001233D01*
X021815Y001168D01*
X021779Y001104D01*
X021739Y001042D01*
X021697Y000983D01*
X021651Y000926D01*
X021602Y000872D01*
X021550Y000820D01*
X021496Y000771D01*
X021439Y000725D01*
X021380Y000683D01*
X021318Y000643D01*
X021254Y000607D01*
X021189Y000575D01*
X021122Y000546D01*
X021053Y000521D01*
X020983Y000499D01*
X020912Y000482D01*
X020840Y000468D01*
X020768Y000458D01*
X020695Y000452D01*
X020622Y000450D01*
X020549Y000452D01*
X020476Y000458D01*
X020404Y000468D01*
X020332Y000482D01*
X020261Y000499D01*
X020191Y000521D01*
X020122Y000546D01*
X020055Y000575D01*
X019990Y000607D01*
X019926Y000643D01*
X019864Y000683D01*
X019805Y000725D01*
X019748Y000771D01*
X019694Y000820D01*
X019642Y000872D01*
X019593Y000926D01*
X019547Y000983D01*
X019505Y001042D01*
X019465Y001104D01*
X019429Y001168D01*
X019397Y001233D01*
X019368Y001300D01*
X019343Y001369D01*
X019321Y001439D01*
X019304Y001510D01*
X019290Y001582D01*
X019280Y001654D01*
X019274Y001727D01*
X019272Y001800D01*
X019272Y020698D02*
X019274Y020771D01*
X019280Y020844D01*
X019290Y020916D01*
X019304Y020988D01*
X019321Y021059D01*
X019343Y021129D01*
X019368Y021198D01*
X019397Y021265D01*
X019429Y021330D01*
X019465Y021394D01*
X019505Y021456D01*
X019547Y021515D01*
X019593Y021572D01*
X019642Y021626D01*
X019694Y021678D01*
X019748Y021727D01*
X019805Y021773D01*
X019864Y021815D01*
X019926Y021855D01*
X019990Y021891D01*
X020055Y021923D01*
X020122Y021952D01*
X020191Y021977D01*
X020261Y021999D01*
X020332Y022016D01*
X020404Y022030D01*
X020476Y022040D01*
X020549Y022046D01*
X020622Y022048D01*
X020695Y022046D01*
X020768Y022040D01*
X020840Y022030D01*
X020912Y022016D01*
X020983Y021999D01*
X021053Y021977D01*
X021122Y021952D01*
X021189Y021923D01*
X021254Y021891D01*
X021318Y021855D01*
X021380Y021815D01*
X021439Y021773D01*
X021496Y021727D01*
X021550Y021678D01*
X021602Y021626D01*
X021651Y021572D01*
X021697Y021515D01*
X021739Y021456D01*
X021779Y021394D01*
X021815Y021330D01*
X021847Y021265D01*
X021876Y021198D01*
X021901Y021129D01*
X021923Y021059D01*
X021940Y020988D01*
X021954Y020916D01*
X021964Y020844D01*
X021970Y020771D01*
X021972Y020698D01*
X021970Y020625D01*
X021964Y020552D01*
X021954Y020480D01*
X021940Y020408D01*
X021923Y020337D01*
X021901Y020267D01*
X021876Y020198D01*
X021847Y020131D01*
X021815Y020066D01*
X021779Y020002D01*
X021739Y019940D01*
X021697Y019881D01*
X021651Y019824D01*
X021602Y019770D01*
X021550Y019718D01*
X021496Y019669D01*
X021439Y019623D01*
X021380Y019581D01*
X021318Y019541D01*
X021254Y019505D01*
X021189Y019473D01*
X021122Y019444D01*
X021053Y019419D01*
X020983Y019397D01*
X020912Y019380D01*
X020840Y019366D01*
X020768Y019356D01*
X020695Y019350D01*
X020622Y019348D01*
X020549Y019350D01*
X020476Y019356D01*
X020404Y019366D01*
X020332Y019380D01*
X020261Y019397D01*
X020191Y019419D01*
X020122Y019444D01*
X020055Y019473D01*
X019990Y019505D01*
X019926Y019541D01*
X019864Y019581D01*
X019805Y019623D01*
X019748Y019669D01*
X019694Y019718D01*
X019642Y019770D01*
X019593Y019824D01*
X019547Y019881D01*
X019505Y019940D01*
X019465Y020002D01*
X019429Y020066D01*
X019397Y020131D01*
X019368Y020198D01*
X019343Y020267D01*
X019321Y020337D01*
X019304Y020408D01*
X019290Y020480D01*
X019280Y020552D01*
X019274Y020625D01*
X019272Y020698D01*
X000375Y020698D02*
X000377Y020771D01*
X000383Y020844D01*
X000393Y020916D01*
X000407Y020988D01*
X000424Y021059D01*
X000446Y021129D01*
X000471Y021198D01*
X000500Y021265D01*
X000532Y021330D01*
X000568Y021394D01*
X000608Y021456D01*
X000650Y021515D01*
X000696Y021572D01*
X000745Y021626D01*
X000797Y021678D01*
X000851Y021727D01*
X000908Y021773D01*
X000967Y021815D01*
X001029Y021855D01*
X001093Y021891D01*
X001158Y021923D01*
X001225Y021952D01*
X001294Y021977D01*
X001364Y021999D01*
X001435Y022016D01*
X001507Y022030D01*
X001579Y022040D01*
X001652Y022046D01*
X001725Y022048D01*
X001798Y022046D01*
X001871Y022040D01*
X001943Y022030D01*
X002015Y022016D01*
X002086Y021999D01*
X002156Y021977D01*
X002225Y021952D01*
X002292Y021923D01*
X002357Y021891D01*
X002421Y021855D01*
X002483Y021815D01*
X002542Y021773D01*
X002599Y021727D01*
X002653Y021678D01*
X002705Y021626D01*
X002754Y021572D01*
X002800Y021515D01*
X002842Y021456D01*
X002882Y021394D01*
X002918Y021330D01*
X002950Y021265D01*
X002979Y021198D01*
X003004Y021129D01*
X003026Y021059D01*
X003043Y020988D01*
X003057Y020916D01*
X003067Y020844D01*
X003073Y020771D01*
X003075Y020698D01*
X003073Y020625D01*
X003067Y020552D01*
X003057Y020480D01*
X003043Y020408D01*
X003026Y020337D01*
X003004Y020267D01*
X002979Y020198D01*
X002950Y020131D01*
X002918Y020066D01*
X002882Y020002D01*
X002842Y019940D01*
X002800Y019881D01*
X002754Y019824D01*
X002705Y019770D01*
X002653Y019718D01*
X002599Y019669D01*
X002542Y019623D01*
X002483Y019581D01*
X002421Y019541D01*
X002357Y019505D01*
X002292Y019473D01*
X002225Y019444D01*
X002156Y019419D01*
X002086Y019397D01*
X002015Y019380D01*
X001943Y019366D01*
X001871Y019356D01*
X001798Y019350D01*
X001725Y019348D01*
X001652Y019350D01*
X001579Y019356D01*
X001507Y019366D01*
X001435Y019380D01*
X001364Y019397D01*
X001294Y019419D01*
X001225Y019444D01*
X001158Y019473D01*
X001093Y019505D01*
X001029Y019541D01*
X000967Y019581D01*
X000908Y019623D01*
X000851Y019669D01*
X000797Y019718D01*
X000745Y019770D01*
X000696Y019824D01*
X000650Y019881D01*
X000608Y019940D01*
X000568Y020002D01*
X000532Y020066D01*
X000500Y020131D01*
X000471Y020198D01*
X000446Y020267D01*
X000424Y020337D01*
X000407Y020408D01*
X000393Y020480D01*
X000383Y020552D01*
X000377Y020625D01*
X000375Y020698D01*
D11*
X003343Y018320D02*
X003497Y018320D01*
X003420Y018320D02*
X003420Y017936D01*
X003343Y017859D01*
X003266Y017859D01*
X003190Y017936D01*
X003650Y017859D02*
X003957Y017859D01*
X003804Y017859D02*
X003804Y018320D01*
X003650Y018166D01*
X005971Y014704D02*
X005894Y014627D01*
X005894Y014320D01*
X005971Y014243D01*
X006125Y014243D01*
X006201Y014320D01*
X006355Y014320D02*
X006355Y014397D01*
X006432Y014473D01*
X006585Y014473D01*
X006662Y014397D01*
X006662Y014320D01*
X006585Y014243D01*
X006432Y014243D01*
X006355Y014320D01*
X006432Y014473D02*
X006355Y014550D01*
X006355Y014627D01*
X006432Y014704D01*
X006585Y014704D01*
X006662Y014627D01*
X006662Y014550D01*
X006585Y014473D01*
X006201Y014627D02*
X006125Y014704D01*
X005971Y014704D01*
X008471Y013975D02*
X008471Y013515D01*
X008471Y013668D02*
X008701Y013668D01*
X008778Y013745D01*
X008778Y013899D01*
X008701Y013975D01*
X008471Y013975D01*
X008625Y013668D02*
X008778Y013515D01*
X008932Y013745D02*
X009239Y013745D01*
X009162Y013515D02*
X009162Y013975D01*
X008932Y013745D01*
X008932Y013042D02*
X009239Y013042D01*
X009239Y012965D01*
X008932Y012659D01*
X008932Y012582D01*
X008778Y012659D02*
X008701Y012582D01*
X008548Y012582D01*
X008471Y012659D01*
X008471Y012965D01*
X008548Y013042D01*
X008701Y013042D01*
X008778Y012965D01*
X009970Y011566D02*
X009970Y011259D01*
X009970Y011412D02*
X009509Y011412D01*
X009663Y011259D01*
X009586Y011105D02*
X009509Y011028D01*
X009509Y010875D01*
X009586Y010798D01*
X009893Y010798D01*
X009970Y010875D01*
X009970Y011028D01*
X009893Y011105D01*
X009970Y010645D02*
X009970Y010491D01*
X009970Y010568D02*
X009509Y010568D01*
X009509Y010491D02*
X009509Y010645D01*
X009386Y010062D02*
X009463Y009985D01*
X009463Y009908D01*
X009386Y009832D01*
X009463Y009755D01*
X009463Y009678D01*
X009386Y009601D01*
X009233Y009601D01*
X009156Y009678D01*
X009003Y009678D02*
X008926Y009601D01*
X008772Y009601D01*
X008696Y009678D01*
X008696Y009985D01*
X008772Y010062D01*
X008926Y010062D01*
X009003Y009985D01*
X009156Y009985D02*
X009233Y010062D01*
X009386Y010062D01*
X009386Y009832D02*
X009309Y009832D01*
X010420Y008507D02*
X010650Y008507D01*
X010727Y008430D01*
X010727Y008277D01*
X010650Y008200D01*
X010420Y008200D01*
X010573Y008200D02*
X010727Y008046D01*
X010880Y008123D02*
X010957Y008046D01*
X011111Y008046D01*
X011187Y008123D01*
X011187Y008200D01*
X011111Y008277D01*
X010880Y008277D01*
X010880Y008123D01*
X010880Y008277D02*
X011034Y008430D01*
X011187Y008507D01*
X010420Y008507D02*
X010420Y008046D01*
X012200Y008458D02*
X012276Y008381D01*
X012430Y008381D01*
X012506Y008458D01*
X012660Y008458D02*
X012737Y008381D01*
X012890Y008381D01*
X012967Y008458D01*
X012967Y008765D01*
X012890Y008841D01*
X012737Y008841D01*
X012660Y008765D01*
X012660Y008688D01*
X012737Y008611D01*
X012967Y008611D01*
X012506Y008765D02*
X012430Y008841D01*
X012276Y008841D01*
X012200Y008765D01*
X012200Y008458D01*
X012235Y009727D02*
X012235Y010188D01*
X012465Y010188D01*
X012542Y010111D01*
X012542Y009958D01*
X012465Y009881D01*
X012235Y009881D01*
X012388Y009881D02*
X012542Y009727D01*
X012695Y009804D02*
X012772Y009727D01*
X012926Y009727D01*
X013002Y009804D01*
X013002Y009881D01*
X012926Y009958D01*
X012849Y009958D01*
X012926Y009958D02*
X013002Y010034D01*
X013002Y010111D01*
X012926Y010188D01*
X012772Y010188D01*
X012695Y010111D01*
X014048Y008387D02*
X014201Y008387D01*
X014125Y008387D02*
X014125Y007926D01*
X014201Y007926D02*
X014048Y007926D01*
X014355Y008003D02*
X014432Y007926D01*
X014585Y007926D01*
X014662Y008003D01*
X014662Y008310D01*
X014585Y008387D01*
X014432Y008387D01*
X014355Y008310D01*
X014355Y008003D01*
X014815Y007926D02*
X015122Y008233D01*
X015122Y008310D01*
X015045Y008387D01*
X014892Y008387D01*
X014815Y008310D01*
X014815Y007926D02*
X015122Y007926D01*
X015824Y009373D02*
X015977Y009373D01*
X016054Y009450D01*
X016207Y009373D02*
X016514Y009373D01*
X016361Y009373D02*
X016361Y009834D01*
X016207Y009680D01*
X016054Y009757D02*
X015977Y009834D01*
X015824Y009834D01*
X015747Y009757D01*
X015747Y009450D01*
X015824Y009373D01*
X016668Y009373D02*
X016974Y009373D01*
X016821Y009373D02*
X016821Y009834D01*
X016668Y009680D01*
X017548Y010064D02*
X017701Y010064D01*
X017625Y010064D02*
X017625Y010524D01*
X017701Y010524D02*
X017548Y010524D01*
X017855Y010448D02*
X017855Y010141D01*
X017932Y010064D01*
X018085Y010064D01*
X018162Y010141D01*
X018162Y010448D01*
X018085Y010524D01*
X017932Y010524D01*
X017855Y010448D01*
X018315Y010294D02*
X018622Y010294D01*
X018545Y010064D02*
X018545Y010524D01*
X018315Y010294D01*
X019290Y009710D02*
X019290Y009403D01*
X019367Y009326D01*
X019520Y009326D01*
X019597Y009403D01*
X019750Y009326D02*
X020057Y009326D01*
X019904Y009326D02*
X019904Y009786D01*
X019750Y009633D01*
X019597Y009710D02*
X019520Y009786D01*
X019367Y009786D01*
X019290Y009710D01*
X020211Y009710D02*
X020211Y009403D01*
X020518Y009710D01*
X020518Y009403D01*
X020441Y009326D01*
X020288Y009326D01*
X020211Y009403D01*
X020211Y009710D02*
X020288Y009786D01*
X020441Y009786D01*
X020518Y009710D01*
X020500Y008286D02*
X020347Y008286D01*
X020270Y008210D01*
X020423Y008056D02*
X020500Y008056D01*
X020577Y007979D01*
X020577Y007903D01*
X020500Y007826D01*
X020347Y007826D01*
X020270Y007903D01*
X020116Y007826D02*
X019810Y007826D01*
X019963Y007826D02*
X019963Y008286D01*
X019810Y008133D01*
X019656Y008210D02*
X019579Y008286D01*
X019426Y008286D01*
X019349Y008210D01*
X019349Y007903D01*
X019426Y007826D01*
X019579Y007826D01*
X019656Y007903D01*
X020500Y008056D02*
X020577Y008133D01*
X020577Y008210D01*
X020500Y008286D01*
X018469Y006024D02*
X018315Y005871D01*
X018162Y005948D02*
X018162Y005641D01*
X018085Y005564D01*
X017932Y005564D01*
X017855Y005641D01*
X017855Y005948D01*
X017932Y006024D01*
X018085Y006024D01*
X018162Y005948D01*
X018469Y006024D02*
X018469Y005564D01*
X018622Y005564D02*
X018315Y005564D01*
X017701Y005564D02*
X017548Y005564D01*
X017625Y005564D02*
X017625Y006024D01*
X017701Y006024D02*
X017548Y006024D01*
X016852Y004814D02*
X016546Y004814D01*
X016546Y004584D01*
X016699Y004660D01*
X016776Y004660D01*
X016852Y004584D01*
X016852Y004430D01*
X016776Y004353D01*
X016622Y004353D01*
X016546Y004430D01*
X016392Y004353D02*
X016085Y004353D01*
X016239Y004353D02*
X016239Y004814D01*
X016085Y004660D01*
X015932Y004737D02*
X015855Y004814D01*
X015701Y004814D01*
X015625Y004737D01*
X015625Y004430D01*
X015701Y004353D01*
X015855Y004353D01*
X015932Y004430D01*
X013046Y005983D02*
X012739Y005983D01*
X012892Y005983D02*
X012892Y006444D01*
X012739Y006290D01*
X012585Y006214D02*
X012508Y006137D01*
X012278Y006137D01*
X012278Y005983D02*
X012278Y006444D01*
X012508Y006444D01*
X012585Y006367D01*
X012585Y006214D01*
X012432Y006137D02*
X012585Y005983D01*
X010676Y003940D02*
X010676Y003479D01*
X010829Y003479D02*
X010522Y003479D01*
X010369Y003556D02*
X010292Y003479D01*
X010138Y003479D01*
X010062Y003556D01*
X010062Y003863D01*
X010138Y003940D01*
X010292Y003940D01*
X010369Y003863D01*
X010522Y003786D02*
X010676Y003940D01*
X009099Y002042D02*
X008869Y001812D01*
X009176Y001812D01*
X009099Y001582D02*
X009099Y002042D01*
X008715Y001965D02*
X008638Y002042D01*
X008485Y002042D01*
X008408Y001965D01*
X008408Y001659D01*
X008485Y001582D01*
X008638Y001582D01*
X008715Y001659D01*
X007955Y003491D02*
X007955Y003568D01*
X008262Y003875D01*
X008262Y003952D01*
X007955Y003952D01*
X007802Y003875D02*
X007802Y003721D01*
X007725Y003645D01*
X007495Y003645D01*
X007648Y003645D02*
X007802Y003491D01*
X007495Y003491D02*
X007495Y003952D01*
X007725Y003952D01*
X007802Y003875D01*
X004949Y003444D02*
X004642Y003444D01*
X004795Y003444D02*
X004795Y003904D01*
X004642Y003751D01*
X004489Y003828D02*
X004489Y003521D01*
X004412Y003444D01*
X004182Y003444D01*
X004182Y003904D01*
X004412Y003904D01*
X004489Y003828D01*
X004028Y003444D02*
X003721Y003444D01*
X003721Y003904D01*
X002629Y003714D02*
X002552Y003790D01*
X002399Y003790D01*
X002322Y003714D01*
X002168Y003714D02*
X002092Y003790D01*
X001938Y003790D01*
X001861Y003714D01*
X001861Y003407D01*
X001938Y003330D01*
X002092Y003330D01*
X002168Y003407D01*
X002322Y003330D02*
X002629Y003637D01*
X002629Y003714D01*
X002629Y003330D02*
X002322Y003330D01*
X003809Y002134D02*
X003962Y002134D01*
X003885Y002134D02*
X003885Y001674D01*
X003809Y001674D02*
X003962Y001674D01*
X004116Y001750D02*
X004192Y001674D01*
X004346Y001674D01*
X004422Y001750D01*
X004422Y001827D01*
X004346Y001904D01*
X004192Y001904D01*
X004116Y001980D01*
X004116Y002057D01*
X004192Y002134D01*
X004346Y002134D01*
X004422Y002057D01*
X004576Y002134D02*
X004806Y002134D01*
X004883Y002057D01*
X004883Y001904D01*
X004806Y001827D01*
X004576Y001827D01*
X004576Y001674D02*
X004576Y002134D01*
X004505Y008224D02*
X004351Y008224D01*
X004274Y008300D01*
X004274Y008607D01*
X004351Y008684D01*
X004505Y008684D01*
X004581Y008607D01*
X004735Y008684D02*
X004735Y008454D01*
X004888Y008530D01*
X004965Y008530D01*
X005042Y008454D01*
X005042Y008300D01*
X004965Y008224D01*
X004811Y008224D01*
X004735Y008300D01*
X004581Y008300D02*
X004505Y008224D01*
X004735Y008684D02*
X005042Y008684D01*
X005684Y008684D02*
X005684Y008224D01*
X005684Y008377D02*
X005914Y008377D01*
X005991Y008454D01*
X005991Y008607D01*
X005914Y008684D01*
X005684Y008684D01*
X005837Y008377D02*
X005991Y008224D01*
X006144Y008224D02*
X006451Y008530D01*
X006451Y008607D01*
X006374Y008684D01*
X006221Y008684D01*
X006144Y008607D01*
X006144Y008224D02*
X006451Y008224D01*
X007176Y008300D02*
X007253Y008224D01*
X007406Y008224D01*
X007483Y008300D01*
X007636Y008300D02*
X007713Y008224D01*
X007866Y008224D01*
X007943Y008300D01*
X007943Y008377D01*
X007866Y008454D01*
X007636Y008454D01*
X007636Y008300D01*
X007636Y008454D02*
X007790Y008607D01*
X007943Y008684D01*
X007483Y008607D02*
X007406Y008684D01*
X007253Y008684D01*
X007176Y008607D01*
X007176Y008300D01*
X003004Y010200D02*
X002544Y010200D01*
X002774Y009970D01*
X002774Y010277D01*
X002927Y010970D02*
X003004Y011046D01*
X003004Y011200D01*
X002927Y011277D01*
X002851Y011277D01*
X002774Y011200D01*
X002774Y011123D01*
X002774Y011200D02*
X002697Y011277D01*
X002620Y011277D01*
X002544Y011200D01*
X002544Y011046D01*
X002620Y010970D01*
X002012Y011109D02*
X002012Y010802D01*
X001935Y010726D01*
X001781Y010726D01*
X001705Y010802D01*
X002012Y011109D01*
X001935Y011186D01*
X001781Y011186D01*
X001705Y011109D01*
X001705Y010802D01*
X001551Y010726D02*
X001551Y011186D01*
X001398Y011032D01*
X001244Y011186D01*
X001244Y010726D01*
X001091Y010726D02*
X000937Y010879D01*
X000784Y010726D01*
X000784Y011186D01*
X000630Y011109D02*
X000630Y010956D01*
X000554Y010879D01*
X000324Y010879D01*
X000324Y010726D02*
X000324Y011186D01*
X000554Y011186D01*
X000630Y011109D01*
X001091Y011186D02*
X001091Y010726D01*
X001229Y010225D02*
X001229Y009995D01*
X001383Y010072D01*
X001459Y010072D01*
X001536Y009995D01*
X001536Y009842D01*
X001459Y009765D01*
X001306Y009765D01*
X001229Y009842D01*
X001229Y010225D02*
X001536Y010225D01*
X001689Y010225D02*
X001689Y009918D01*
X001843Y009765D01*
X001996Y009918D01*
X001996Y010225D01*
X002031Y011863D02*
X001724Y011863D01*
X001571Y011863D02*
X001571Y012324D01*
X001417Y012170D01*
X001264Y012324D01*
X001264Y011863D01*
X001111Y011863D02*
X000957Y012017D01*
X000804Y011863D01*
X000804Y012324D01*
X000650Y012247D02*
X000650Y012094D01*
X000573Y012017D01*
X000343Y012017D01*
X000343Y011863D02*
X000343Y012324D01*
X000573Y012324D01*
X000650Y012247D01*
X001111Y012324D02*
X001111Y011863D01*
X001724Y012170D02*
X001878Y012324D01*
X001878Y011863D01*
X002544Y012046D02*
X002620Y011970D01*
X002544Y012046D02*
X002544Y012200D01*
X002620Y012277D01*
X002697Y012277D01*
X003004Y011970D01*
X003004Y012277D01*
X003004Y012970D02*
X003004Y013277D01*
X003004Y013123D02*
X002544Y013123D01*
X002697Y012970D01*
X001984Y012940D02*
X001984Y013247D01*
X001908Y013324D01*
X001677Y013324D01*
X001677Y012863D01*
X001908Y012863D01*
X001984Y012940D01*
X001524Y012863D02*
X001524Y013324D01*
X001217Y013324D02*
X001524Y012863D01*
X001217Y012863D02*
X001217Y013324D01*
X001064Y013247D02*
X000987Y013324D01*
X000833Y013324D01*
X000757Y013247D01*
X000757Y012940D01*
X000833Y012863D01*
X000987Y012863D01*
X001064Y012940D01*
X001064Y013094D01*
X000910Y013094D01*
X011203Y013290D02*
X011203Y013751D01*
X011434Y013751D01*
X011510Y013674D01*
X011510Y013521D01*
X011434Y013444D01*
X011203Y013444D01*
X011357Y013444D02*
X011510Y013290D01*
X011664Y013367D02*
X011741Y013290D01*
X011894Y013290D01*
X011971Y013367D01*
X011971Y013521D01*
X011894Y013597D01*
X011817Y013597D01*
X011664Y013521D01*
X011664Y013751D01*
X011971Y013751D01*
X014048Y013387D02*
X014201Y013387D01*
X014125Y013387D02*
X014125Y012926D01*
X014201Y012926D02*
X014048Y012926D01*
X014355Y013003D02*
X014432Y012926D01*
X014585Y012926D01*
X014662Y013003D01*
X014662Y013310D01*
X014585Y013387D01*
X014432Y013387D01*
X014355Y013310D01*
X014355Y013003D01*
X014815Y013003D02*
X014892Y012926D01*
X015045Y012926D01*
X015122Y013003D01*
X015122Y013080D01*
X015045Y013156D01*
X014969Y013156D01*
X015045Y013156D02*
X015122Y013233D01*
X015122Y013310D01*
X015045Y013387D01*
X014892Y013387D01*
X014815Y013310D01*
X017548Y014525D02*
X017701Y014525D01*
X017625Y014525D02*
X017625Y014985D01*
X017701Y014985D02*
X017548Y014985D01*
X017855Y014908D02*
X017855Y014601D01*
X017932Y014525D01*
X018085Y014525D01*
X018162Y014601D01*
X018162Y014908D01*
X018085Y014985D01*
X017932Y014985D01*
X017855Y014908D01*
X018315Y014985D02*
X018315Y014755D01*
X018469Y014832D01*
X018545Y014832D01*
X018622Y014755D01*
X018622Y014601D01*
X018545Y014525D01*
X018392Y014525D01*
X018315Y014601D01*
X018315Y014985D02*
X018622Y014985D01*
X019760Y014926D02*
X019990Y014926D01*
X019914Y015080D01*
X019914Y015156D01*
X019990Y015233D01*
X020144Y015233D01*
X020221Y015156D01*
X020221Y015003D01*
X020144Y014926D01*
X019760Y014926D02*
X019760Y015233D01*
X019990Y015623D02*
X019990Y015853D01*
X020067Y015930D01*
X020144Y015930D01*
X020221Y015853D01*
X020221Y015700D01*
X020144Y015623D01*
X019990Y015623D01*
X019837Y015777D01*
X019760Y015930D01*
X020824Y015938D02*
X020824Y015477D01*
X021054Y015477D01*
X021131Y015554D01*
X021131Y015631D01*
X021054Y015708D01*
X020824Y015708D01*
X020824Y015938D02*
X021054Y015938D01*
X021131Y015861D01*
X021131Y015784D01*
X021054Y015708D01*
X021054Y015202D02*
X020901Y015202D01*
X020824Y015125D01*
X020824Y014818D01*
X020901Y014741D01*
X021054Y014741D01*
X021131Y014818D01*
X021131Y015125D01*
X021054Y015202D01*
X021284Y015202D02*
X021284Y014741D01*
X021438Y014895D01*
X021591Y014741D01*
X021591Y015202D01*
X021592Y014438D02*
X021592Y013977D01*
X021285Y014438D01*
X021285Y013977D01*
X021131Y014054D02*
X021131Y014208D01*
X020978Y014208D01*
X021131Y014361D02*
X021054Y014438D01*
X020901Y014438D01*
X020824Y014361D01*
X020824Y014054D01*
X020901Y013977D01*
X021054Y013977D01*
X021131Y014054D01*
X021131Y013702D02*
X020824Y013702D01*
X020824Y013471D01*
X020977Y013548D01*
X021054Y013548D01*
X021131Y013471D01*
X021131Y013318D01*
X021054Y013241D01*
X020901Y013241D01*
X020824Y013318D01*
X020978Y012922D02*
X020824Y012769D01*
X020978Y012922D02*
X020978Y012462D01*
X021131Y012462D02*
X020824Y012462D01*
X020977Y012202D02*
X021131Y012048D01*
X021131Y011741D01*
X021131Y011971D02*
X020824Y011971D01*
X020824Y012048D02*
X020977Y012202D01*
X020824Y012048D02*
X020824Y011741D01*
X020221Y011926D02*
X020221Y012233D01*
X020221Y012080D02*
X019760Y012080D01*
X019914Y011926D01*
X019837Y012663D02*
X019760Y012739D01*
X019760Y012893D01*
X019837Y012969D01*
X019914Y012969D01*
X020221Y012663D01*
X020221Y012969D01*
X020144Y013426D02*
X020221Y013503D01*
X020221Y013656D01*
X020144Y013733D01*
X020067Y013733D01*
X019990Y013656D01*
X019990Y013580D01*
X019990Y013656D02*
X019914Y013733D01*
X019837Y013733D01*
X019760Y013656D01*
X019760Y013503D01*
X019837Y013426D01*
X019990Y014182D02*
X019990Y014489D01*
X019760Y014412D02*
X019990Y014182D01*
X020221Y014412D02*
X019760Y014412D01*
X021284Y013702D02*
X021284Y013395D01*
X021438Y013241D01*
X021591Y013395D01*
X021591Y013702D01*
X021745Y013977D02*
X021975Y013977D01*
X022052Y014054D01*
X022052Y014361D01*
X021975Y014438D01*
X021745Y014438D01*
X021745Y013977D01*
X021745Y012922D02*
X021745Y012615D01*
X021899Y012462D01*
X022052Y012615D01*
X022052Y012922D01*
X021592Y012845D02*
X021515Y012922D01*
X021361Y012922D01*
X021285Y012845D01*
X021592Y012845D02*
X021592Y012769D01*
X021285Y012462D01*
X021592Y012462D01*
X016677Y016822D02*
X016677Y017282D01*
X016447Y017052D01*
X016754Y017052D01*
X016294Y016822D02*
X015987Y016822D01*
X016140Y016822D02*
X016140Y017282D01*
X015987Y017129D01*
X015833Y017206D02*
X015756Y017282D01*
X015603Y017282D01*
X015526Y017206D01*
X015526Y016899D01*
X015603Y016822D01*
X015756Y016822D01*
X015833Y016899D01*
X015686Y017859D02*
X015762Y017936D01*
X015762Y018320D01*
X015686Y018320D02*
X015839Y018320D01*
X015993Y018243D02*
X016069Y018320D01*
X016223Y018320D01*
X016300Y018243D01*
X016300Y018166D01*
X015993Y017859D01*
X016300Y017859D01*
X015686Y017859D02*
X015609Y017859D01*
X015532Y017936D01*
X015748Y020249D02*
X015595Y020403D01*
X016055Y020403D01*
X016055Y020556D02*
X016055Y020249D01*
X016055Y020710D02*
X015748Y021016D01*
X015672Y021016D01*
X015595Y020940D01*
X015595Y020786D01*
X015672Y020710D01*
X016055Y020710D02*
X016055Y021016D01*
X015902Y021170D02*
X016055Y021323D01*
X015902Y021477D01*
X015595Y021477D01*
X015595Y021170D02*
X015902Y021170D01*
X018426Y021150D02*
X018426Y021380D01*
X018502Y021457D01*
X018809Y021457D01*
X018886Y021380D01*
X018886Y021150D01*
X018426Y021150D01*
X018426Y020997D02*
X018886Y020997D01*
X018426Y020690D01*
X018886Y020690D01*
X018809Y020536D02*
X018656Y020536D01*
X018656Y020383D01*
X018809Y020536D02*
X018886Y020460D01*
X018886Y020306D01*
X018809Y020229D01*
X018502Y020229D01*
X018426Y020306D01*
X018426Y020460D01*
X018502Y020536D01*
X018522Y019145D02*
X018446Y019068D01*
X018446Y018761D01*
X018522Y018684D01*
X018676Y018684D01*
X018753Y018761D01*
X018906Y018684D02*
X019213Y018684D01*
X019059Y018684D02*
X019059Y019145D01*
X018906Y018991D01*
X018753Y019068D02*
X018676Y019145D01*
X018522Y019145D01*
X019366Y018914D02*
X019366Y018761D01*
X019443Y018684D01*
X019597Y018684D01*
X019673Y018761D01*
X019673Y018838D01*
X019597Y018914D01*
X019366Y018914D01*
X019520Y019068D01*
X019673Y019145D01*
X019520Y005452D02*
X019367Y005452D01*
X019290Y005375D01*
X019290Y005068D01*
X019367Y004991D01*
X019520Y004991D01*
X019597Y005068D01*
X019750Y004991D02*
X020057Y004991D01*
X019904Y004991D02*
X019904Y005452D01*
X019750Y005298D01*
X019597Y005375D02*
X019520Y005452D01*
X020211Y005375D02*
X020288Y005452D01*
X020441Y005452D01*
X020518Y005375D01*
X020518Y005298D01*
X020211Y004991D01*
X020518Y004991D01*
X018569Y001513D02*
X018416Y001513D01*
X018339Y001436D01*
X018339Y001129D01*
X018646Y001436D01*
X018646Y001129D01*
X018569Y001052D01*
X018416Y001052D01*
X018339Y001129D01*
X018185Y001129D02*
X018109Y001052D01*
X017955Y001052D01*
X017879Y001129D01*
X017879Y001436D01*
X017955Y001513D01*
X018109Y001513D01*
X018185Y001436D01*
X018185Y001129D01*
X017725Y001052D02*
X017572Y001052D01*
X017648Y001052D02*
X017648Y001513D01*
X017572Y001513D02*
X017725Y001513D01*
X018569Y001513D02*
X018646Y001436D01*
D12*
X019437Y011406D02*
X020603Y011406D01*
X020603Y016406D01*
X019437Y016406D01*
X019437Y011406D01*
X003386Y009450D02*
X002221Y009450D01*
X002241Y013792D01*
X003406Y013792D01*
X003386Y009450D01*
D13*
X001725Y016623D03*
D14*
X010403Y007856D02*
X010717Y007543D01*
X010717Y007699D02*
X010403Y007699D01*
X010403Y007543D02*
X010717Y007856D01*
X010560Y007856D02*
X010560Y007543D01*
X008309Y003004D02*
X008309Y002757D01*
X008309Y002880D02*
X007939Y002880D01*
X008062Y002757D01*
D15*
X007850Y010520D02*
X005150Y010520D01*
X005150Y010820D02*
X007850Y010820D01*
X007888Y010821D01*
X007925Y010826D01*
X007962Y010833D01*
X007998Y010842D01*
X008034Y010855D01*
X008068Y010870D01*
X008511Y011770D02*
X008479Y011815D01*
X008443Y011857D01*
X008404Y011897D01*
X008362Y011934D01*
X008319Y011968D01*
X008272Y011999D01*
X008224Y012027D01*
X008174Y012051D01*
X008123Y012072D01*
X008070Y012089D01*
X008016Y012103D01*
X007961Y012112D01*
X007906Y012118D01*
X007850Y012120D01*
X005150Y012120D01*
X005150Y011820D02*
X007850Y011820D01*
X008511Y010870D02*
X008479Y010825D01*
X008443Y010783D01*
X008404Y010743D01*
X008363Y010706D01*
X008319Y010672D01*
X008272Y010641D01*
X008224Y010613D01*
X008174Y010589D01*
X008123Y010568D01*
X008070Y010551D01*
X008016Y010537D01*
X007961Y010528D01*
X007906Y010522D01*
X007850Y010520D01*
X008068Y011770D02*
X008034Y011785D01*
X007998Y011798D01*
X007962Y011807D01*
X007925Y011814D01*
X007888Y011819D01*
X007850Y011820D01*
X006900Y011320D02*
X006750Y011320D01*
X006250Y011320D02*
X006100Y011320D01*
X005150Y012120D02*
X005094Y012118D01*
X005039Y012112D01*
X004984Y012103D01*
X004930Y012089D01*
X004877Y012072D01*
X004826Y012051D01*
X004776Y012027D01*
X004728Y011999D01*
X004681Y011968D01*
X004637Y011934D01*
X004596Y011897D01*
X004557Y011857D01*
X004521Y011815D01*
X004489Y011770D01*
X004489Y010870D02*
X004521Y010825D01*
X004557Y010783D01*
X004596Y010743D01*
X004638Y010706D01*
X004681Y010672D01*
X004728Y010641D01*
X004776Y010613D01*
X004826Y010589D01*
X004877Y010568D01*
X004930Y010551D01*
X004984Y010537D01*
X005039Y010528D01*
X005094Y010522D01*
X005150Y010520D01*
X005150Y010820D02*
X005112Y010821D01*
X005075Y010826D01*
X005038Y010833D01*
X005002Y010842D01*
X004966Y010855D01*
X004932Y010870D01*
X004932Y011770D02*
X004966Y011785D01*
X005002Y011798D01*
X005038Y011807D01*
X005075Y011814D01*
X005112Y011819D01*
X005150Y011820D01*
D16*
X006067Y012736D02*
X006142Y012661D01*
X006292Y012661D01*
X006367Y012736D01*
X006367Y013037D01*
X006292Y013112D01*
X006142Y013112D01*
X006067Y013037D01*
X006067Y012736D01*
X006217Y012811D02*
X006367Y012661D01*
X006527Y012661D02*
X006827Y012661D01*
X006677Y012661D02*
X006677Y013112D01*
X006527Y012961D01*
X003374Y008906D02*
X003374Y004906D01*
X001174Y004906D01*
X001174Y005406D01*
X001674Y005406D01*
X001674Y008406D01*
X001174Y008406D01*
X001174Y008906D01*
X003374Y008906D01*
X003801Y007981D02*
X003726Y007906D01*
X003726Y007831D01*
X003801Y007756D01*
X003951Y007756D01*
X004026Y007681D01*
X004026Y007606D01*
X003951Y007531D01*
X003801Y007531D01*
X003726Y007606D01*
X003801Y007981D02*
X003951Y007981D01*
X004026Y007906D01*
X004336Y007981D02*
X004486Y007981D01*
X004411Y007981D02*
X004411Y007606D01*
X004336Y007531D01*
X004261Y007531D01*
X004186Y007606D01*
X004647Y007531D02*
X004947Y007531D01*
X004797Y007531D02*
X004797Y007981D01*
X004647Y007831D01*
X004722Y006993D02*
X004647Y006918D01*
X004722Y006993D02*
X004872Y006993D01*
X004947Y006918D01*
X004947Y006843D01*
X004647Y006543D01*
X004947Y006543D01*
X004411Y006618D02*
X004411Y006993D01*
X004336Y006993D02*
X004486Y006993D01*
X004411Y006618D02*
X004336Y006543D01*
X004261Y006543D01*
X004186Y006618D01*
X004026Y006618D02*
X003951Y006543D01*
X003801Y006543D01*
X003726Y006618D01*
X003801Y006768D02*
X003951Y006768D01*
X004026Y006693D01*
X004026Y006618D01*
X003801Y006768D02*
X003726Y006843D01*
X003726Y006918D01*
X003801Y006993D01*
X003951Y006993D01*
X004026Y006918D01*
X003951Y005966D02*
X003801Y005966D01*
X003726Y005890D01*
X003726Y005815D01*
X003801Y005740D01*
X003951Y005740D01*
X004026Y005665D01*
X004026Y005590D01*
X003951Y005515D01*
X003801Y005515D01*
X003726Y005590D01*
X004026Y005890D02*
X003951Y005966D01*
X004336Y005966D02*
X004486Y005966D01*
X004411Y005966D02*
X004411Y005590D01*
X004336Y005515D01*
X004261Y005515D01*
X004186Y005590D01*
X004647Y005590D02*
X004722Y005515D01*
X004872Y005515D01*
X004947Y005590D01*
X004947Y005665D01*
X004872Y005740D01*
X004797Y005740D01*
X004872Y005740D02*
X004947Y005815D01*
X004947Y005890D01*
X004872Y005966D01*
X004722Y005966D01*
X004647Y005890D01*
X004486Y004938D02*
X004336Y004938D01*
X004411Y004938D02*
X004411Y004563D01*
X004336Y004488D01*
X004261Y004488D01*
X004186Y004563D01*
X004026Y004563D02*
X003951Y004488D01*
X003801Y004488D01*
X003726Y004563D01*
X003801Y004713D02*
X003951Y004713D01*
X004026Y004638D01*
X004026Y004563D01*
X003801Y004713D02*
X003726Y004788D01*
X003726Y004863D01*
X003801Y004938D01*
X003951Y004938D01*
X004026Y004863D01*
X004647Y004713D02*
X004947Y004713D01*
X004872Y004488D02*
X004872Y004938D01*
X004647Y004713D01*
X005324Y002910D02*
X005824Y002910D01*
X006024Y002710D01*
X006224Y002910D01*
X006824Y002910D01*
X007024Y002710D01*
X007224Y002910D01*
X007724Y002910D01*
X008024Y002610D01*
X008024Y001210D01*
X007724Y000910D01*
X007224Y000910D01*
X007024Y001110D01*
X006824Y000910D01*
X006224Y000910D01*
X006024Y001110D01*
X005824Y000910D01*
X005324Y000910D01*
X005024Y001210D01*
X005024Y002610D01*
X005324Y002910D01*
X001174Y005406D02*
X001174Y008406D01*
X013450Y007725D02*
X013450Y004725D01*
X015650Y004725D01*
X015650Y005225D01*
X015150Y005225D01*
X015150Y007225D01*
X015650Y007225D01*
X015650Y005225D01*
X016950Y004725D02*
X016950Y001725D01*
X019150Y001725D01*
X019150Y002225D01*
X018650Y002225D01*
X018650Y004225D01*
X019150Y004225D01*
X019150Y002225D01*
X019150Y004225D02*
X019150Y004725D01*
X016950Y004725D01*
X016950Y006225D02*
X016950Y009225D01*
X019150Y009225D01*
X019150Y008725D01*
X018650Y008725D01*
X018650Y006725D01*
X019150Y006725D01*
X019150Y006225D01*
X016950Y006225D01*
X015650Y007225D02*
X015650Y007725D01*
X013450Y007725D01*
X013450Y009725D02*
X013450Y012725D01*
X015650Y012725D01*
X015650Y012225D01*
X015150Y012225D01*
X015150Y010225D01*
X015650Y010225D01*
X015650Y009725D01*
X013450Y009725D01*
X015650Y010225D02*
X015650Y012225D01*
X016950Y013725D02*
X016950Y010725D01*
X019150Y010725D01*
X019150Y011225D01*
X018650Y011225D01*
X018650Y013225D01*
X019150Y013225D01*
X019150Y011225D01*
X019150Y013225D02*
X019150Y013725D01*
X016950Y013725D01*
X016950Y015225D02*
X016950Y018225D01*
X019150Y018225D01*
X019150Y017725D01*
X018650Y017725D01*
X018650Y015725D01*
X019150Y015725D01*
X019150Y015225D01*
X016950Y015225D01*
X019150Y015725D02*
X019150Y017725D01*
X018256Y019745D02*
X017756Y019745D01*
X017756Y020245D01*
X016756Y020245D01*
X016756Y019745D01*
X016256Y019745D01*
X016256Y021945D01*
X018256Y021945D01*
X018256Y019745D01*
X017756Y019745D02*
X016756Y019745D01*
X019150Y008725D02*
X019150Y006725D01*
D17*
X001095Y001800D02*
X001097Y001850D01*
X001103Y001900D01*
X001113Y001949D01*
X001127Y001997D01*
X001144Y002044D01*
X001165Y002089D01*
X001190Y002133D01*
X001218Y002174D01*
X001250Y002213D01*
X001284Y002250D01*
X001321Y002284D01*
X001361Y002314D01*
X001403Y002341D01*
X001447Y002365D01*
X001493Y002386D01*
X001540Y002402D01*
X001588Y002415D01*
X001638Y002424D01*
X001687Y002429D01*
X001738Y002430D01*
X001788Y002427D01*
X001837Y002420D01*
X001886Y002409D01*
X001934Y002394D01*
X001980Y002376D01*
X002025Y002354D01*
X002068Y002328D01*
X002109Y002299D01*
X002148Y002267D01*
X002184Y002232D01*
X002216Y002194D01*
X002246Y002154D01*
X002273Y002111D01*
X002296Y002067D01*
X002315Y002021D01*
X002331Y001973D01*
X002343Y001924D01*
X002351Y001875D01*
X002355Y001825D01*
X002355Y001775D01*
X002351Y001725D01*
X002343Y001676D01*
X002331Y001627D01*
X002315Y001579D01*
X002296Y001533D01*
X002273Y001489D01*
X002246Y001446D01*
X002216Y001406D01*
X002184Y001368D01*
X002148Y001333D01*
X002109Y001301D01*
X002068Y001272D01*
X002025Y001246D01*
X001980Y001224D01*
X001934Y001206D01*
X001886Y001191D01*
X001837Y001180D01*
X001788Y001173D01*
X001738Y001170D01*
X001687Y001171D01*
X001638Y001176D01*
X001588Y001185D01*
X001540Y001198D01*
X001493Y001214D01*
X001447Y001235D01*
X001403Y001259D01*
X001361Y001286D01*
X001321Y001316D01*
X001284Y001350D01*
X001250Y001387D01*
X001218Y001426D01*
X001190Y001467D01*
X001165Y001511D01*
X001144Y001556D01*
X001127Y001603D01*
X001113Y001651D01*
X001103Y001700D01*
X001097Y001750D01*
X001095Y001800D01*
X010115Y010158D02*
X010115Y010355D01*
X012004Y010355D01*
X012004Y010158D01*
X012004Y010355D02*
X012004Y011654D01*
X010115Y011654D02*
X010115Y010355D01*
X009950Y014940D02*
X015350Y014940D01*
X015350Y021090D01*
X009950Y021090D01*
X009950Y014940D01*
X009350Y014940D02*
X009350Y021090D01*
X003950Y021090D01*
X003950Y014940D01*
X009350Y014940D01*
X001095Y020698D02*
X001097Y020748D01*
X001103Y020798D01*
X001113Y020847D01*
X001127Y020895D01*
X001144Y020942D01*
X001165Y020987D01*
X001190Y021031D01*
X001218Y021072D01*
X001250Y021111D01*
X001284Y021148D01*
X001321Y021182D01*
X001361Y021212D01*
X001403Y021239D01*
X001447Y021263D01*
X001493Y021284D01*
X001540Y021300D01*
X001588Y021313D01*
X001638Y021322D01*
X001687Y021327D01*
X001738Y021328D01*
X001788Y021325D01*
X001837Y021318D01*
X001886Y021307D01*
X001934Y021292D01*
X001980Y021274D01*
X002025Y021252D01*
X002068Y021226D01*
X002109Y021197D01*
X002148Y021165D01*
X002184Y021130D01*
X002216Y021092D01*
X002246Y021052D01*
X002273Y021009D01*
X002296Y020965D01*
X002315Y020919D01*
X002331Y020871D01*
X002343Y020822D01*
X002351Y020773D01*
X002355Y020723D01*
X002355Y020673D01*
X002351Y020623D01*
X002343Y020574D01*
X002331Y020525D01*
X002315Y020477D01*
X002296Y020431D01*
X002273Y020387D01*
X002246Y020344D01*
X002216Y020304D01*
X002184Y020266D01*
X002148Y020231D01*
X002109Y020199D01*
X002068Y020170D01*
X002025Y020144D01*
X001980Y020122D01*
X001934Y020104D01*
X001886Y020089D01*
X001837Y020078D01*
X001788Y020071D01*
X001738Y020068D01*
X001687Y020069D01*
X001638Y020074D01*
X001588Y020083D01*
X001540Y020096D01*
X001493Y020112D01*
X001447Y020133D01*
X001403Y020157D01*
X001361Y020184D01*
X001321Y020214D01*
X001284Y020248D01*
X001250Y020285D01*
X001218Y020324D01*
X001190Y020365D01*
X001165Y020409D01*
X001144Y020454D01*
X001127Y020501D01*
X001113Y020549D01*
X001103Y020598D01*
X001097Y020648D01*
X001095Y020698D01*
X019992Y020698D02*
X019994Y020748D01*
X020000Y020798D01*
X020010Y020847D01*
X020024Y020895D01*
X020041Y020942D01*
X020062Y020987D01*
X020087Y021031D01*
X020115Y021072D01*
X020147Y021111D01*
X020181Y021148D01*
X020218Y021182D01*
X020258Y021212D01*
X020300Y021239D01*
X020344Y021263D01*
X020390Y021284D01*
X020437Y021300D01*
X020485Y021313D01*
X020535Y021322D01*
X020584Y021327D01*
X020635Y021328D01*
X020685Y021325D01*
X020734Y021318D01*
X020783Y021307D01*
X020831Y021292D01*
X020877Y021274D01*
X020922Y021252D01*
X020965Y021226D01*
X021006Y021197D01*
X021045Y021165D01*
X021081Y021130D01*
X021113Y021092D01*
X021143Y021052D01*
X021170Y021009D01*
X021193Y020965D01*
X021212Y020919D01*
X021228Y020871D01*
X021240Y020822D01*
X021248Y020773D01*
X021252Y020723D01*
X021252Y020673D01*
X021248Y020623D01*
X021240Y020574D01*
X021228Y020525D01*
X021212Y020477D01*
X021193Y020431D01*
X021170Y020387D01*
X021143Y020344D01*
X021113Y020304D01*
X021081Y020266D01*
X021045Y020231D01*
X021006Y020199D01*
X020965Y020170D01*
X020922Y020144D01*
X020877Y020122D01*
X020831Y020104D01*
X020783Y020089D01*
X020734Y020078D01*
X020685Y020071D01*
X020635Y020068D01*
X020584Y020069D01*
X020535Y020074D01*
X020485Y020083D01*
X020437Y020096D01*
X020390Y020112D01*
X020344Y020133D01*
X020300Y020157D01*
X020258Y020184D01*
X020218Y020214D01*
X020181Y020248D01*
X020147Y020285D01*
X020115Y020324D01*
X020087Y020365D01*
X020062Y020409D01*
X020041Y020454D01*
X020024Y020501D01*
X020010Y020549D01*
X020000Y020598D01*
X019994Y020648D01*
X019992Y020698D01*
X019992Y001800D02*
X019994Y001850D01*
X020000Y001900D01*
X020010Y001949D01*
X020024Y001997D01*
X020041Y002044D01*
X020062Y002089D01*
X020087Y002133D01*
X020115Y002174D01*
X020147Y002213D01*
X020181Y002250D01*
X020218Y002284D01*
X020258Y002314D01*
X020300Y002341D01*
X020344Y002365D01*
X020390Y002386D01*
X020437Y002402D01*
X020485Y002415D01*
X020535Y002424D01*
X020584Y002429D01*
X020635Y002430D01*
X020685Y002427D01*
X020734Y002420D01*
X020783Y002409D01*
X020831Y002394D01*
X020877Y002376D01*
X020922Y002354D01*
X020965Y002328D01*
X021006Y002299D01*
X021045Y002267D01*
X021081Y002232D01*
X021113Y002194D01*
X021143Y002154D01*
X021170Y002111D01*
X021193Y002067D01*
X021212Y002021D01*
X021228Y001973D01*
X021240Y001924D01*
X021248Y001875D01*
X021252Y001825D01*
X021252Y001775D01*
X021248Y001725D01*
X021240Y001676D01*
X021228Y001627D01*
X021212Y001579D01*
X021193Y001533D01*
X021170Y001489D01*
X021143Y001446D01*
X021113Y001406D01*
X021081Y001368D01*
X021045Y001333D01*
X021006Y001301D01*
X020965Y001272D01*
X020922Y001246D01*
X020877Y001224D01*
X020831Y001206D01*
X020783Y001191D01*
X020734Y001180D01*
X020685Y001173D01*
X020635Y001170D01*
X020584Y001171D01*
X020535Y001176D01*
X020485Y001185D01*
X020437Y001198D01*
X020390Y001214D01*
X020344Y001235D01*
X020300Y001259D01*
X020258Y001286D01*
X020218Y001316D01*
X020181Y001350D01*
X020147Y001387D01*
X020115Y001426D01*
X020087Y001467D01*
X020062Y001511D01*
X020041Y001556D01*
X020024Y001603D01*
X020010Y001651D01*
X020000Y001700D01*
X019994Y001750D01*
X019992Y001800D01*
D18*
X005396Y003674D03*
D19*
X009500Y001225D03*
X010703Y001665D03*
X010703Y001668D03*
X010703Y001670D03*
X010703Y001673D03*
X010703Y001675D03*
X010145Y002810D03*
X010145Y002813D03*
X010145Y002815D03*
X010148Y002820D03*
X014415Y002793D03*
X014543Y002725D03*
X016865Y002793D03*
D20*
X016838Y002735D03*
X014808Y002635D03*
X014558Y002690D03*
X014388Y002735D03*
X014290Y003763D03*
X011135Y003330D03*
X010570Y002368D03*
X010693Y001863D03*
X010693Y001860D03*
X010113Y002620D03*
X010113Y002623D03*
X010113Y002625D03*
X009505Y001228D03*
D21*
X009507Y001230D03*
X010697Y001945D03*
X010697Y001948D03*
X010697Y001950D03*
X010099Y002538D03*
X010099Y002540D03*
X010099Y002543D03*
X010099Y002545D03*
X010572Y003280D03*
X011142Y003323D03*
X014277Y003758D03*
X014377Y002715D03*
X014564Y002675D03*
X016827Y002713D03*
X016734Y003375D03*
D22*
X016818Y002695D03*
X016478Y002390D03*
X016278Y002660D03*
X015475Y003063D03*
X014570Y002665D03*
X014368Y002698D03*
X012415Y002388D03*
X011668Y002388D03*
X010705Y002030D03*
X010705Y002028D03*
X010705Y002025D03*
X010705Y002023D03*
X009508Y001233D03*
D23*
X009508Y001235D03*
X010715Y002090D03*
X010715Y002093D03*
X010715Y002095D03*
X010570Y002373D03*
X011153Y003310D03*
X012993Y002838D03*
X012995Y002840D03*
X012998Y002843D03*
X013003Y002850D03*
X013005Y002853D03*
X013008Y002855D03*
X013010Y002858D03*
X013010Y002860D03*
X013013Y002863D03*
X013015Y002865D03*
X013020Y002873D03*
X013155Y003375D03*
X013553Y003315D03*
X013555Y003318D03*
X013555Y003320D03*
X013558Y003325D03*
X014258Y003750D03*
X014360Y002685D03*
X014575Y002658D03*
X014623Y002393D03*
X015838Y002838D03*
X015840Y002840D03*
X015843Y002843D03*
X015845Y002845D03*
X015850Y002853D03*
X015853Y002855D03*
X015855Y002858D03*
X015858Y002860D03*
X015860Y002863D03*
X015863Y002865D03*
X015865Y002870D03*
X015868Y002873D03*
X015870Y002875D03*
X015873Y002878D03*
X015885Y002893D03*
X016168Y002668D03*
X016163Y002660D03*
X016180Y002683D03*
X016190Y002695D03*
X016193Y002698D03*
X016203Y002710D03*
X016205Y002713D03*
X016215Y002725D03*
X016225Y002738D03*
X016228Y002740D03*
X016238Y002753D03*
X016240Y002755D03*
X016248Y002765D03*
X016250Y002768D03*
X016260Y002780D03*
X016263Y002783D03*
X016273Y002795D03*
X016275Y002798D03*
X016283Y002808D03*
X016285Y002810D03*
X016288Y002813D03*
X016295Y002823D03*
X016298Y002825D03*
X016305Y002835D03*
X016308Y002838D03*
X016310Y002840D03*
X016318Y002850D03*
X016320Y002853D03*
X016323Y002855D03*
X016330Y002865D03*
X016333Y002868D03*
X016340Y002878D03*
X016343Y002880D03*
X016345Y002883D03*
X016353Y002893D03*
X016355Y002895D03*
X016358Y002898D03*
X016363Y002905D03*
X016365Y002908D03*
X016368Y002910D03*
X016370Y002913D03*
X016375Y002920D03*
X016378Y002923D03*
X016380Y002925D03*
X016388Y002935D03*
X016390Y002938D03*
X016393Y002940D03*
X016398Y002948D03*
X016400Y002950D03*
X016403Y002953D03*
X016405Y002955D03*
X016410Y002963D03*
X016413Y002965D03*
X016415Y002968D03*
X016420Y002975D03*
X016423Y002978D03*
X016425Y002980D03*
X016428Y002983D03*
X016433Y002990D03*
X016435Y002993D03*
X016438Y002995D03*
X016440Y002998D03*
X016445Y003005D03*
X016448Y003008D03*
X016450Y003010D03*
X016453Y003013D03*
X016455Y003018D03*
X016458Y003020D03*
X016460Y003023D03*
X016463Y003025D03*
X016468Y003033D03*
X016470Y003035D03*
X016473Y003038D03*
X016475Y003040D03*
X016478Y003045D03*
X016480Y003048D03*
X016483Y003050D03*
X016485Y003053D03*
X016488Y003055D03*
X016490Y003060D03*
X016493Y003063D03*
X016495Y003065D03*
X016498Y003068D03*
X016503Y003075D03*
X016505Y003078D03*
X016508Y003080D03*
X016510Y003083D03*
X016513Y003088D03*
X016515Y003090D03*
X016518Y003093D03*
X016520Y003095D03*
X016523Y003098D03*
X016525Y003103D03*
X016528Y003105D03*
X016530Y003108D03*
X016533Y003110D03*
X016535Y003113D03*
X016535Y003115D03*
X016538Y003118D03*
X016540Y003120D03*
X016543Y003123D03*
X016545Y003125D03*
X016548Y003130D03*
X016550Y003133D03*
X016553Y003135D03*
X016555Y003138D03*
X016718Y003370D03*
X016810Y002680D03*
D24*
X016803Y002668D03*
X016800Y002665D03*
X015740Y002733D03*
X015738Y002730D03*
X015735Y002728D03*
X015733Y002725D03*
X015730Y002723D03*
X015728Y002720D03*
X015725Y002718D03*
X015723Y002715D03*
X015493Y003078D03*
X014580Y002650D03*
X014353Y002673D03*
X013970Y002395D03*
X013528Y003265D03*
X013528Y003268D03*
X013530Y003270D03*
X013533Y003275D03*
X013098Y002968D03*
X012853Y002685D03*
X012850Y002683D03*
X012848Y002680D03*
X012845Y002678D03*
X012843Y002675D03*
X012073Y002708D03*
X012070Y002705D03*
X012068Y002703D03*
X012065Y002700D03*
X012063Y002698D03*
X012060Y002695D03*
X011668Y002390D03*
X010730Y002165D03*
X010730Y002163D03*
X010728Y002155D03*
X011158Y003305D03*
X009508Y001238D03*
D25*
X009508Y001240D03*
X010740Y002205D03*
X010740Y002208D03*
X010743Y002213D03*
X010743Y002215D03*
X010743Y002218D03*
X010598Y003270D03*
X012818Y002653D03*
X012820Y002655D03*
X012823Y002658D03*
X013318Y002398D03*
X013513Y003240D03*
X013515Y003243D03*
X013515Y003245D03*
X013518Y003248D03*
X014245Y003745D03*
X014330Y002650D03*
X014328Y002648D03*
X015498Y003083D03*
X015683Y002678D03*
X015680Y002675D03*
X015678Y002673D03*
X015675Y002670D03*
X016775Y002643D03*
X016778Y002645D03*
D26*
X016020Y002455D03*
X015638Y002640D03*
X015635Y002638D03*
X014620Y002398D03*
X014308Y002633D03*
X014305Y002630D03*
X013648Y002633D03*
X013645Y002630D03*
X013640Y002628D03*
X013503Y003223D03*
X014238Y003743D03*
X012798Y002638D03*
X012795Y002635D03*
X012418Y002393D03*
X010760Y002275D03*
X010758Y002270D03*
X010758Y002268D03*
X010758Y002265D03*
X010755Y002260D03*
X009508Y001243D03*
D27*
X009509Y001245D03*
X010779Y002333D03*
X010782Y002340D03*
X010782Y002343D03*
X010784Y002345D03*
X010784Y002348D03*
X010787Y002355D03*
X012002Y002645D03*
X012777Y002623D03*
X013487Y003198D03*
X013489Y003200D03*
X014232Y003740D03*
X015147Y003195D03*
X015149Y003198D03*
X015152Y003200D03*
X015152Y003203D03*
X015154Y003205D03*
X015157Y003208D03*
X015227Y003273D03*
X015512Y003095D03*
X015609Y002618D03*
X016027Y002458D03*
X016247Y003363D03*
X014289Y002620D03*
X013972Y002400D03*
D28*
X014594Y002638D03*
X015132Y003175D03*
X015134Y003178D03*
X015134Y003180D03*
X015137Y003183D03*
X015139Y003185D03*
X015234Y003278D03*
X015597Y002610D03*
X013484Y003193D03*
X013482Y003190D03*
X012769Y002618D03*
X011994Y002640D03*
X011169Y003293D03*
X010609Y003265D03*
X010799Y002388D03*
X010797Y002383D03*
X010797Y002380D03*
X010794Y002378D03*
X010794Y002375D03*
X010792Y002370D03*
X010792Y002368D03*
X009509Y001248D03*
D29*
X009509Y001250D03*
X009407Y001435D03*
X009407Y001438D03*
X009407Y001440D03*
X009404Y001443D03*
X009404Y001445D03*
X009404Y001448D03*
X009404Y001508D03*
X009407Y001515D03*
X009407Y001518D03*
X009407Y001520D03*
X009409Y001523D03*
X009409Y001525D03*
X009409Y001528D03*
X010579Y002385D03*
X010612Y003253D03*
X010614Y003260D03*
X010614Y003263D03*
X011987Y002635D03*
X013147Y003355D03*
X013472Y003175D03*
X013974Y002403D03*
X014599Y002635D03*
X014619Y002403D03*
X015107Y003138D03*
X015109Y003143D03*
X015112Y003145D03*
X015584Y002603D03*
X016734Y002618D03*
X012407Y004043D03*
D30*
X013144Y003350D03*
X013462Y003163D03*
X013464Y003165D03*
X013412Y003023D03*
X013412Y003020D03*
X013409Y003018D03*
X013409Y003015D03*
X013109Y002978D03*
X012419Y002398D03*
X014264Y002608D03*
X015082Y003095D03*
X015084Y003100D03*
X015087Y003103D03*
X015087Y003105D03*
X015089Y003108D03*
X015527Y003108D03*
X010602Y003205D03*
X010602Y003208D03*
X010599Y003200D03*
X010599Y003198D03*
X010599Y003195D03*
X010597Y003188D03*
X010597Y003185D03*
X010479Y002550D03*
X010482Y002545D03*
X010484Y002540D03*
X009907Y001873D03*
X009904Y001868D03*
X009902Y001860D03*
X009899Y001855D03*
X009897Y001850D03*
X009897Y001848D03*
X009894Y001845D03*
X009894Y001843D03*
X009892Y001840D03*
X009892Y001838D03*
X009889Y001835D03*
X009889Y001833D03*
X009889Y001830D03*
X009887Y001828D03*
X009887Y001825D03*
X009884Y001823D03*
X009884Y001820D03*
X009882Y001815D03*
X009879Y001810D03*
X009877Y001805D03*
X009874Y001800D03*
X009427Y001573D03*
X009424Y001568D03*
X009424Y001565D03*
X009422Y001563D03*
X009509Y001253D03*
D31*
X009509Y001255D03*
X009432Y001583D03*
X009432Y001585D03*
X009434Y001588D03*
X009434Y001590D03*
X009817Y001683D03*
X009819Y001688D03*
X009822Y001693D03*
X009824Y001698D03*
X009827Y001703D03*
X009829Y001708D03*
X009832Y001713D03*
X009834Y001718D03*
X009837Y001720D03*
X009837Y001723D03*
X009839Y001725D03*
X009839Y001728D03*
X009842Y001730D03*
X009842Y001733D03*
X009844Y001735D03*
X009844Y001738D03*
X009847Y001743D03*
X009849Y001748D03*
X009852Y001753D03*
X009854Y001758D03*
X009857Y001763D03*
X009859Y001768D03*
X009862Y001773D03*
X010582Y003133D03*
X010584Y003140D03*
X010584Y003143D03*
X010587Y003148D03*
X010587Y003150D03*
X010587Y003153D03*
X010589Y003155D03*
X010589Y003158D03*
X010589Y003160D03*
X010592Y003168D03*
X011177Y003283D03*
X011669Y002398D03*
X013144Y003348D03*
X013457Y003158D03*
X013404Y003005D03*
X013402Y003000D03*
X013399Y002995D03*
X013324Y002410D03*
X015074Y003080D03*
X015077Y003085D03*
X015079Y003090D03*
X015429Y003373D03*
X015529Y003110D03*
D32*
X015533Y003115D03*
X015065Y003063D03*
X015065Y003060D03*
X015063Y003058D03*
X015063Y003055D03*
X015558Y002590D03*
X013975Y002408D03*
X013325Y002413D03*
X013385Y002968D03*
X013388Y002970D03*
X013388Y002973D03*
X013390Y002978D03*
X013450Y003150D03*
X013143Y003343D03*
X013110Y002980D03*
X011165Y003255D03*
X011163Y003250D03*
X011163Y003248D03*
X011160Y003245D03*
X011160Y003243D03*
X011158Y003238D03*
X010568Y003090D03*
X010565Y003083D03*
X010563Y003078D03*
X010563Y003075D03*
X010560Y003070D03*
X010560Y003068D03*
X010558Y003065D03*
X010558Y003063D03*
X010558Y003060D03*
X010555Y003055D03*
X010553Y003048D03*
X009773Y001603D03*
X009765Y001590D03*
X009763Y001585D03*
X009760Y001580D03*
X009758Y001578D03*
X009758Y001575D03*
X009755Y001573D03*
X009753Y001570D03*
X009753Y001568D03*
X009750Y001565D03*
X009750Y001563D03*
X009748Y001560D03*
X009745Y001555D03*
X009743Y001553D03*
X009740Y001548D03*
X009453Y001623D03*
X009450Y001620D03*
X009450Y001618D03*
X009448Y001615D03*
X009445Y001610D03*
X009510Y001258D03*
D33*
X009509Y001260D03*
X009692Y001473D03*
X009697Y001480D03*
X009699Y001485D03*
X009702Y001488D03*
X009704Y001490D03*
X009704Y001493D03*
X009707Y001495D03*
X009709Y001498D03*
X009712Y001503D03*
X009717Y001510D03*
X009477Y001660D03*
X009474Y001658D03*
X009472Y001653D03*
X009469Y001650D03*
X009467Y001645D03*
X010582Y002393D03*
X010519Y002965D03*
X010522Y002970D03*
X010524Y002975D03*
X010524Y002978D03*
X010527Y002980D03*
X010527Y002983D03*
X010529Y002988D03*
X010532Y002995D03*
X010534Y003000D03*
X011134Y003183D03*
X011137Y003188D03*
X011139Y003193D03*
X011139Y003195D03*
X011142Y003198D03*
X011142Y003200D03*
X011144Y003205D03*
X011669Y002400D03*
X011962Y002625D03*
X013372Y002938D03*
X013374Y002940D03*
X013374Y002943D03*
X013377Y002948D03*
X013444Y003143D03*
X014207Y003730D03*
X015054Y003035D03*
X015054Y003033D03*
X015052Y003030D03*
X015052Y003028D03*
X015429Y003370D03*
X015537Y003120D03*
X016267Y003358D03*
D34*
X015543Y003130D03*
X015543Y003128D03*
X015545Y002585D03*
X015040Y002998D03*
X015043Y003003D03*
X015043Y003005D03*
X015045Y003010D03*
X015045Y003013D03*
X013440Y003138D03*
X013438Y003135D03*
X013363Y002918D03*
X013360Y002913D03*
X013360Y002910D03*
X013358Y002908D03*
X013358Y002905D03*
X013355Y002900D03*
X013113Y002983D03*
X013138Y003333D03*
X011120Y003150D03*
X011118Y003145D03*
X011118Y003143D03*
X011115Y003140D03*
X011115Y003138D03*
X011113Y003133D03*
X011110Y003128D03*
X010503Y002928D03*
X010500Y002923D03*
X010500Y002920D03*
X010498Y002918D03*
X010498Y002915D03*
X010495Y002913D03*
X010495Y002910D03*
X010493Y002905D03*
X010490Y002900D03*
X010583Y002395D03*
X009675Y001450D03*
X009673Y001448D03*
X009670Y001443D03*
X009510Y001263D03*
X009490Y001680D03*
X009493Y001683D03*
X009495Y001688D03*
X009498Y001690D03*
X009500Y001693D03*
X009505Y001700D03*
D35*
X009513Y001710D03*
X009515Y001713D03*
X009518Y001715D03*
X009520Y001718D03*
X009523Y001723D03*
X009525Y001725D03*
X009660Y001433D03*
X009658Y001430D03*
X009655Y001428D03*
X009510Y001265D03*
X010478Y002873D03*
X010480Y002878D03*
X010480Y002880D03*
X010483Y002883D03*
X010483Y002885D03*
X010485Y002888D03*
X011090Y003083D03*
X011093Y003088D03*
X011095Y003093D03*
X011095Y003095D03*
X011098Y003098D03*
X011098Y003100D03*
X011100Y003103D03*
X011100Y003105D03*
X011103Y003110D03*
X012420Y002403D03*
X013345Y002878D03*
X013348Y002883D03*
X013348Y002885D03*
X013350Y002888D03*
X013350Y002890D03*
X013433Y003130D03*
X013435Y003133D03*
X013138Y003330D03*
X014200Y003728D03*
X015038Y002990D03*
X015038Y002988D03*
X015035Y002980D03*
X015545Y003135D03*
D36*
X015548Y003143D03*
X015548Y003145D03*
X015550Y003148D03*
X015550Y003150D03*
X015550Y003153D03*
X015033Y002973D03*
X015033Y002970D03*
X015030Y002965D03*
X015030Y002963D03*
X015538Y002583D03*
X013978Y002413D03*
X013328Y002420D03*
X013335Y002853D03*
X013335Y002855D03*
X013338Y002858D03*
X013338Y002860D03*
X013340Y002865D03*
X013115Y002985D03*
X013135Y003323D03*
X013430Y003128D03*
X011083Y003065D03*
X011080Y003060D03*
X011078Y003055D03*
X011078Y003053D03*
X011075Y003050D03*
X011075Y003048D03*
X011073Y003045D03*
X011073Y003043D03*
X011070Y003038D03*
X011068Y003033D03*
X010473Y002860D03*
X010470Y002858D03*
X010470Y002855D03*
X010468Y002850D03*
X010465Y002845D03*
X010583Y002398D03*
X010095Y002305D03*
X010075Y002278D03*
X010073Y002275D03*
X010070Y002273D03*
X010068Y002270D03*
X010065Y002268D03*
X010060Y002260D03*
X010058Y002258D03*
X010055Y002255D03*
X009548Y001753D03*
X009545Y001750D03*
X009543Y001748D03*
X009543Y001745D03*
X009540Y001743D03*
X009538Y001740D03*
X009535Y001738D03*
X009648Y001418D03*
X009645Y001415D03*
X009510Y001268D03*
D37*
X009512Y001270D03*
X009632Y001403D03*
X009569Y001778D03*
X009572Y001780D03*
X009574Y001783D03*
X009577Y001785D03*
X009579Y001788D03*
X009582Y001790D03*
X010014Y002210D03*
X010017Y002213D03*
X010019Y002215D03*
X010022Y002218D03*
X010024Y002220D03*
X010027Y002223D03*
X010029Y002225D03*
X010104Y002320D03*
X010104Y002323D03*
X010107Y002325D03*
X010454Y002820D03*
X010454Y002823D03*
X010457Y002825D03*
X010457Y002828D03*
X010584Y002400D03*
X011032Y002955D03*
X011034Y002960D03*
X011037Y002965D03*
X011039Y002970D03*
X011039Y002973D03*
X011042Y002975D03*
X011042Y002978D03*
X011044Y002980D03*
X011044Y002983D03*
X011047Y002988D03*
X011049Y002993D03*
X011052Y002998D03*
X012422Y002405D03*
X013329Y002423D03*
X013319Y002810D03*
X013322Y002815D03*
X013322Y002818D03*
X013324Y002823D03*
X013424Y003123D03*
X013134Y003318D03*
X013979Y002415D03*
X015024Y002935D03*
X015024Y002938D03*
X015024Y002940D03*
X015027Y002943D03*
X015027Y002945D03*
X015027Y002948D03*
X015549Y003218D03*
X015549Y003220D03*
X015547Y003228D03*
X015547Y003230D03*
X015547Y003233D03*
X015544Y003235D03*
X015544Y003238D03*
D38*
X015539Y003250D03*
X015537Y003255D03*
X015534Y003258D03*
X015427Y003365D03*
X015022Y002925D03*
X015022Y002923D03*
X015022Y002920D03*
X013422Y003120D03*
X013117Y002988D03*
X013317Y002800D03*
X013314Y002795D03*
X013314Y002793D03*
X013312Y002785D03*
X013132Y003310D03*
X013132Y003313D03*
X011029Y002950D03*
X011027Y002945D03*
X011024Y002940D03*
X011022Y002935D03*
X011019Y002930D03*
X011019Y002928D03*
X011017Y002925D03*
X011017Y002923D03*
X011014Y002920D03*
X011014Y002918D03*
X011012Y002915D03*
X011009Y002910D03*
X010449Y002810D03*
X010449Y002808D03*
X010447Y002805D03*
X010114Y002340D03*
X010112Y002335D03*
X009994Y002188D03*
X009992Y002185D03*
X009989Y002183D03*
X009987Y002180D03*
X009614Y001825D03*
X009612Y001823D03*
X009609Y001820D03*
X009607Y001818D03*
X009604Y001815D03*
X009602Y001813D03*
X009599Y001810D03*
X009597Y001808D03*
X009512Y001273D03*
D39*
X009512Y001275D03*
X009637Y001850D03*
X009639Y001853D03*
X009642Y001855D03*
X009644Y001858D03*
X009647Y001860D03*
X009649Y001863D03*
X009972Y002165D03*
X010117Y002345D03*
X010119Y002350D03*
X010584Y002403D03*
X010439Y002788D03*
X010439Y002790D03*
X010442Y002793D03*
X010987Y002865D03*
X010989Y002868D03*
X010989Y002870D03*
X010992Y002873D03*
X010992Y002875D03*
X010994Y002878D03*
X010994Y002880D03*
X010997Y002883D03*
X010997Y002885D03*
X010999Y002888D03*
X010999Y002890D03*
X013129Y003305D03*
X013417Y003115D03*
X013419Y003118D03*
X013309Y002778D03*
X013309Y002775D03*
X013307Y002770D03*
X013307Y002768D03*
X013307Y002765D03*
X013979Y002418D03*
X015017Y002895D03*
X015017Y002898D03*
X015017Y002900D03*
X015019Y002905D03*
X015019Y002908D03*
X015019Y002910D03*
X015527Y003270D03*
X015529Y003268D03*
X014187Y003723D03*
D40*
X013413Y003113D03*
X013125Y003293D03*
X013125Y003295D03*
X013300Y002743D03*
X013300Y002740D03*
X013300Y002738D03*
X013980Y002420D03*
X015013Y002865D03*
X015013Y002868D03*
X015013Y002870D03*
X015013Y002873D03*
X015520Y003278D03*
X010968Y002828D03*
X010965Y002823D03*
X010963Y002818D03*
X010960Y002813D03*
X010958Y002810D03*
X010958Y002808D03*
X010955Y002805D03*
X010955Y002803D03*
X010953Y002800D03*
X010950Y002795D03*
X010433Y002773D03*
X010430Y002770D03*
X010430Y002768D03*
X010585Y002405D03*
X010130Y002373D03*
X010130Y002370D03*
X010128Y002368D03*
X009965Y002158D03*
X009710Y001923D03*
X009708Y001920D03*
X009705Y001918D03*
X009703Y001915D03*
X009700Y001913D03*
X009698Y001910D03*
X009695Y001908D03*
X009693Y001905D03*
X009690Y001903D03*
X009688Y001900D03*
X009513Y001278D03*
D41*
X009513Y001280D03*
X009960Y002150D03*
X009963Y002153D03*
X010135Y002383D03*
X010138Y002385D03*
X010138Y002388D03*
X010585Y002408D03*
X010425Y002758D03*
X010428Y002763D03*
X010930Y002758D03*
X010933Y002763D03*
X010935Y002768D03*
X010938Y002770D03*
X010938Y002773D03*
X010940Y002775D03*
X010940Y002778D03*
X010943Y002780D03*
X010945Y002785D03*
X010948Y002790D03*
X013123Y003285D03*
X013410Y003110D03*
X013298Y002730D03*
X013298Y002728D03*
X013298Y002725D03*
X013298Y002723D03*
X013333Y002430D03*
X014610Y002423D03*
X015013Y002853D03*
X015013Y002855D03*
X015013Y002858D03*
X014180Y003720D03*
D42*
X015010Y002835D03*
X015010Y002833D03*
X015010Y002830D03*
X015010Y002828D03*
X015010Y002825D03*
X015223Y002405D03*
X013980Y002423D03*
X013295Y002708D03*
X013295Y002710D03*
X013295Y002713D03*
X013120Y002993D03*
X013120Y003275D03*
X013120Y003278D03*
X010923Y002745D03*
X010920Y002740D03*
X010918Y002738D03*
X010918Y002735D03*
X010588Y002410D03*
X010420Y002745D03*
X010145Y002403D03*
X010143Y002398D03*
X010140Y002393D03*
X009958Y002145D03*
X009513Y001283D03*
D43*
X009513Y001285D03*
X009953Y002140D03*
X009955Y002143D03*
X010150Y002413D03*
X010150Y002415D03*
X010153Y002418D03*
X010415Y002733D03*
X010415Y002735D03*
X010588Y002413D03*
X010903Y002710D03*
X010905Y002713D03*
X010905Y002715D03*
X010908Y002718D03*
X010910Y002723D03*
X013068Y003088D03*
X013068Y003090D03*
X013068Y003093D03*
X013115Y003263D03*
X013115Y003265D03*
X013403Y003105D03*
X013293Y002695D03*
X013293Y002693D03*
X013293Y002690D03*
X014173Y003718D03*
X015010Y002820D03*
X015010Y002818D03*
X015010Y002815D03*
X015010Y002813D03*
X015010Y002810D03*
X015010Y002808D03*
X015508Y003285D03*
D44*
X015010Y002800D03*
X015010Y002798D03*
X015010Y002795D03*
X015010Y002793D03*
X014608Y002428D03*
X013335Y002435D03*
X013293Y002680D03*
X013293Y002683D03*
X013293Y002685D03*
X013070Y003103D03*
X013070Y003105D03*
X013070Y003108D03*
X013110Y003248D03*
X013113Y003253D03*
X013113Y003255D03*
X012425Y002413D03*
X010895Y002698D03*
X010893Y002693D03*
X010890Y002690D03*
X010888Y002685D03*
X010413Y002728D03*
X010410Y002723D03*
X010160Y002433D03*
X010158Y002430D03*
X010158Y002428D03*
X009950Y002135D03*
X009515Y001288D03*
X016235Y002653D03*
X016463Y002418D03*
D45*
X015425Y003358D03*
X015013Y002778D03*
X015013Y002775D03*
X015223Y002408D03*
X014608Y002430D03*
X013983Y002428D03*
X013335Y002438D03*
X013293Y002670D03*
X013293Y002673D03*
X013293Y002675D03*
X013395Y003100D03*
X013108Y003238D03*
X013108Y003240D03*
X013105Y003233D03*
X013075Y003128D03*
X013075Y003125D03*
X013075Y003123D03*
X013073Y003120D03*
X013073Y003118D03*
X013073Y003115D03*
X014168Y003715D03*
X011978Y003898D03*
X011973Y003895D03*
X011965Y003890D03*
X011958Y003885D03*
X011950Y003880D03*
X011943Y003875D03*
X011940Y003873D03*
X011935Y003870D03*
X011933Y003868D03*
X011925Y003863D03*
X010883Y002678D03*
X010883Y002675D03*
X010880Y002673D03*
X010408Y002713D03*
X010408Y002715D03*
X010165Y002445D03*
X010165Y002443D03*
X010163Y002440D03*
X009945Y002130D03*
X009515Y001290D03*
D46*
X009515Y001293D03*
X009943Y002125D03*
X010170Y002455D03*
X010173Y002458D03*
X010173Y002460D03*
X010403Y002703D03*
X010868Y002653D03*
X010870Y002658D03*
X010873Y002660D03*
X011868Y003815D03*
X011870Y003818D03*
X011883Y003828D03*
X011885Y003830D03*
X011888Y003833D03*
X011890Y003835D03*
X011900Y003843D03*
X011903Y003845D03*
X012008Y003915D03*
X012013Y003918D03*
X012018Y003920D03*
X013100Y003218D03*
X013100Y003215D03*
X013098Y003210D03*
X013098Y003208D03*
X013095Y003200D03*
X013093Y003193D03*
X013088Y003175D03*
X013083Y003158D03*
X013083Y003155D03*
X013080Y003150D03*
X013080Y003148D03*
X013080Y003145D03*
X013078Y003140D03*
X013078Y003138D03*
X013293Y002665D03*
X012425Y002415D03*
X015013Y002760D03*
X015013Y002763D03*
X015013Y002765D03*
X015013Y002768D03*
D47*
X015015Y002750D03*
X015015Y002748D03*
X015015Y002745D03*
X013983Y002430D03*
X013898Y002798D03*
X013900Y002810D03*
X013900Y002813D03*
X013903Y002825D03*
X013905Y002838D03*
X013908Y002850D03*
X013295Y002658D03*
X013295Y002655D03*
X012033Y003928D03*
X012028Y003925D03*
X011850Y003798D03*
X010863Y002645D03*
X010860Y002643D03*
X010858Y002638D03*
X010400Y002693D03*
X010400Y002695D03*
X010180Y002475D03*
X010178Y002470D03*
X009938Y002118D03*
X009515Y001295D03*
X016240Y002650D03*
D48*
X015424Y003355D03*
X015017Y002743D03*
X015017Y002740D03*
X015017Y002738D03*
X014062Y003380D03*
X014064Y003388D03*
X014064Y003390D03*
X014067Y003395D03*
X014067Y003398D03*
X014069Y003405D03*
X014072Y003413D03*
X014072Y003415D03*
X014074Y003420D03*
X014074Y003423D03*
X014077Y003430D03*
X014079Y003438D03*
X014079Y003440D03*
X014082Y003445D03*
X014082Y003448D03*
X014084Y003455D03*
X014087Y003463D03*
X014087Y003465D03*
X014089Y003470D03*
X014089Y003473D03*
X014092Y003480D03*
X014092Y003483D03*
X014094Y003488D03*
X014094Y003490D03*
X014097Y003495D03*
X014097Y003498D03*
X014099Y003505D03*
X014099Y003508D03*
X014102Y003513D03*
X014102Y003515D03*
X014104Y003520D03*
X014104Y003523D03*
X014107Y003530D03*
X014107Y003533D03*
X014109Y003538D03*
X014109Y003540D03*
X014112Y003545D03*
X014112Y003548D03*
X014114Y003555D03*
X014114Y003558D03*
X014117Y003563D03*
X014117Y003565D03*
X014119Y003570D03*
X014119Y003573D03*
X014119Y003575D03*
X014122Y003580D03*
X014122Y003583D03*
X014124Y003588D03*
X014124Y003590D03*
X014127Y003595D03*
X014127Y003598D03*
X014127Y003600D03*
X014129Y003605D03*
X014129Y003608D03*
X014132Y003613D03*
X014132Y003615D03*
X014134Y003620D03*
X014134Y003623D03*
X014134Y003625D03*
X014137Y003628D03*
X014137Y003630D03*
X014137Y003633D03*
X014139Y003638D03*
X014139Y003640D03*
X014139Y003643D03*
X014142Y003645D03*
X014142Y003648D03*
X014142Y003650D03*
X014144Y003653D03*
X014144Y003655D03*
X014144Y003658D03*
X014147Y003663D03*
X014147Y003665D03*
X014147Y003668D03*
X014149Y003670D03*
X014149Y003673D03*
X014149Y003675D03*
X014152Y003678D03*
X014152Y003680D03*
X014152Y003683D03*
X014154Y003688D03*
X014154Y003690D03*
X014154Y003693D03*
X014157Y003695D03*
X014157Y003698D03*
X014157Y003700D03*
X014159Y003703D03*
X014159Y003705D03*
X014159Y003708D03*
X014162Y003713D03*
X013929Y002935D03*
X013927Y002925D03*
X013924Y002918D03*
X013924Y002915D03*
X013922Y002908D03*
X013922Y002905D03*
X013919Y002900D03*
X013919Y002898D03*
X013919Y002895D03*
X013917Y002890D03*
X013917Y002888D03*
X013917Y002885D03*
X013914Y002880D03*
X013914Y002878D03*
X013914Y002875D03*
X013912Y002870D03*
X013912Y002868D03*
X013912Y002865D03*
X013912Y002863D03*
X013909Y002860D03*
X013909Y002858D03*
X013909Y002855D03*
X013909Y002853D03*
X013907Y002848D03*
X013907Y002845D03*
X013907Y002843D03*
X013907Y002840D03*
X013904Y002835D03*
X013904Y002833D03*
X013904Y002830D03*
X013904Y002828D03*
X013902Y002823D03*
X013902Y002820D03*
X013902Y002818D03*
X013902Y002815D03*
X013899Y002808D03*
X013899Y002805D03*
X013899Y002803D03*
X013899Y002800D03*
X013897Y002795D03*
X012039Y003930D03*
X011847Y003795D03*
X011844Y003793D03*
X011842Y003790D03*
X011839Y003788D03*
X011837Y003785D03*
X011834Y003783D03*
X011832Y003780D03*
X011829Y003778D03*
X011827Y003775D03*
X011824Y003773D03*
X011822Y003770D03*
X010859Y002640D03*
X010857Y002635D03*
X010854Y002633D03*
X010399Y002690D03*
X010184Y002483D03*
X010182Y002480D03*
X010182Y002478D03*
X009517Y001298D03*
D49*
X009517Y001300D03*
X009932Y002110D03*
X009934Y002113D03*
X010189Y002493D03*
X010189Y002495D03*
X010192Y002498D03*
X010192Y002500D03*
X010394Y002678D03*
X010394Y002680D03*
X010847Y002623D03*
X010849Y002625D03*
X011672Y002418D03*
X012427Y002418D03*
X013297Y002648D03*
X013894Y002790D03*
X013947Y002995D03*
X013952Y003013D03*
X013957Y003030D03*
X013959Y003038D03*
X013959Y003040D03*
X013962Y003048D03*
X013964Y003055D03*
X013964Y003058D03*
X013967Y003063D03*
X013967Y003065D03*
X013969Y003073D03*
X013969Y003075D03*
X013972Y003080D03*
X013972Y003083D03*
X013974Y003088D03*
X013974Y003090D03*
X013974Y003093D03*
X013977Y003098D03*
X013977Y003100D03*
X013977Y003103D03*
X013979Y003105D03*
X013979Y003108D03*
X013979Y003110D03*
X013982Y003115D03*
X013982Y003118D03*
X013982Y003120D03*
X013984Y003123D03*
X013984Y003125D03*
X013984Y003128D03*
X013987Y003130D03*
X013987Y003133D03*
X013987Y003135D03*
X013987Y003138D03*
X013989Y003140D03*
X013989Y003143D03*
X013989Y003145D03*
X013992Y003148D03*
X013992Y003150D03*
X013992Y003153D03*
X013994Y003158D03*
X013994Y003160D03*
X013994Y003163D03*
X013997Y003168D03*
X013997Y003170D03*
X013999Y003175D03*
X013984Y002433D03*
X015019Y002725D03*
X015019Y002728D03*
X015019Y002730D03*
X012057Y003938D03*
X011804Y003750D03*
X011802Y003748D03*
X011799Y003745D03*
X011797Y003743D03*
X011794Y003740D03*
D50*
X011782Y003725D03*
X011779Y003723D03*
X011774Y003715D03*
X011772Y003713D03*
X011769Y003710D03*
X011767Y003708D03*
X011762Y003700D03*
X010839Y002610D03*
X010837Y002608D03*
X010392Y002670D03*
X009929Y002105D03*
X009517Y001303D03*
X013127Y003003D03*
X013299Y002640D03*
X013892Y002785D03*
X015022Y002718D03*
X015022Y002715D03*
X016619Y003353D03*
D51*
X015023Y002713D03*
X015023Y002710D03*
X013985Y002435D03*
X013890Y002783D03*
X013380Y003093D03*
X013300Y002638D03*
X013340Y002448D03*
X012428Y002420D03*
X011748Y003683D03*
X011750Y003685D03*
X011753Y003690D03*
X011755Y003693D03*
X011758Y003695D03*
X011760Y003698D03*
X011763Y003703D03*
X011765Y003705D03*
X012070Y003943D03*
X010835Y002605D03*
X010833Y002603D03*
X010390Y002665D03*
X010390Y002668D03*
X009928Y002103D03*
X009925Y002100D03*
X009518Y001305D03*
D52*
X009518Y001308D03*
X009920Y002093D03*
X009923Y002095D03*
X010388Y002658D03*
X010388Y002660D03*
X010828Y002595D03*
X010830Y002598D03*
X011718Y003640D03*
X011720Y003643D03*
X011723Y003648D03*
X011725Y003650D03*
X011725Y003653D03*
X011728Y003655D03*
X011730Y003658D03*
X011733Y003663D03*
X011735Y003665D03*
X012413Y004038D03*
X013128Y003005D03*
X013300Y002635D03*
X013898Y002655D03*
X013885Y002775D03*
X015025Y002703D03*
X015025Y002700D03*
X015225Y002413D03*
X015423Y003350D03*
D53*
X015027Y002698D03*
X015027Y002695D03*
X014602Y002443D03*
X013987Y002438D03*
X013899Y002650D03*
X013899Y002653D03*
X013884Y002773D03*
X013302Y002633D03*
X013342Y002450D03*
X012687Y003863D03*
X012689Y003865D03*
X012697Y003875D03*
X012699Y003878D03*
X012702Y003880D03*
X012704Y003883D03*
X012707Y003888D03*
X012709Y003890D03*
X012712Y003893D03*
X012714Y003895D03*
X012717Y003898D03*
X012084Y003948D03*
X011722Y003645D03*
X011717Y003638D03*
X011714Y003635D03*
X011714Y003633D03*
X011712Y003630D03*
X011709Y003628D03*
X011707Y003623D03*
X011702Y003615D03*
X010827Y002593D03*
X010824Y002590D03*
X010387Y002655D03*
X009519Y001310D03*
X016459Y002425D03*
D54*
X015032Y002683D03*
X015032Y002685D03*
X015029Y002690D03*
X014602Y002445D03*
X013987Y002440D03*
X013904Y002640D03*
X013902Y002643D03*
X013902Y002645D03*
X013882Y002768D03*
X013304Y002628D03*
X013342Y002453D03*
X013374Y003090D03*
X012629Y003785D03*
X012634Y003793D03*
X012639Y003800D03*
X012642Y003803D03*
X012644Y003808D03*
X012647Y003810D03*
X012649Y003813D03*
X012649Y003815D03*
X012652Y003818D03*
X012654Y003820D03*
X012657Y003823D03*
X012659Y003828D03*
X012662Y003830D03*
X012669Y003840D03*
X011694Y003603D03*
X011689Y003595D03*
X011687Y003590D03*
X011684Y003588D03*
X011684Y003585D03*
X011682Y003583D03*
X011682Y003580D03*
X011679Y003578D03*
X011677Y003573D03*
X012429Y002423D03*
X010387Y002650D03*
X009917Y002088D03*
X009519Y001313D03*
D55*
X009519Y001315D03*
X009912Y002080D03*
X010384Y002643D03*
X010812Y002575D03*
X010814Y002578D03*
X011644Y003510D03*
X011644Y003513D03*
X011647Y003515D03*
X011647Y003518D03*
X011649Y003520D03*
X011649Y003523D03*
X011652Y003525D03*
X011652Y003528D03*
X011654Y003530D03*
X011654Y003533D03*
X011657Y003535D03*
X011657Y003538D03*
X011659Y003540D03*
X011662Y003545D03*
X011664Y003550D03*
X012592Y003728D03*
X012597Y003735D03*
X012599Y003740D03*
X012602Y003743D03*
X012604Y003748D03*
X012607Y003750D03*
X012607Y003753D03*
X012609Y003755D03*
X012612Y003758D03*
X012612Y003760D03*
X012614Y003763D03*
X012619Y003770D03*
X012624Y003778D03*
X013307Y002625D03*
X013879Y002763D03*
X013907Y002635D03*
X014602Y002448D03*
X015034Y002675D03*
X015034Y002678D03*
X015227Y002415D03*
X015422Y003348D03*
X016252Y002645D03*
D56*
X016455Y002428D03*
X015035Y002673D03*
X013988Y002443D03*
X013908Y002633D03*
X013878Y002760D03*
X013308Y002623D03*
X013343Y002455D03*
X012430Y002425D03*
X011673Y002425D03*
X010810Y002573D03*
X010383Y002638D03*
X010383Y002640D03*
X009910Y002078D03*
X009520Y001318D03*
X011620Y003460D03*
X011623Y003465D03*
X011625Y003473D03*
X011628Y003478D03*
X011630Y003483D03*
X011633Y003488D03*
X011633Y003490D03*
X011635Y003493D03*
X011635Y003495D03*
X011638Y003498D03*
X011638Y003500D03*
X011640Y003503D03*
X011640Y003505D03*
X011643Y003508D03*
X012575Y003700D03*
X012578Y003705D03*
X012580Y003708D03*
X012580Y003710D03*
X012583Y003713D03*
X012585Y003715D03*
X012585Y003718D03*
X012588Y003720D03*
X012588Y003723D03*
X012590Y003725D03*
X012593Y003730D03*
X012595Y003733D03*
X012598Y003738D03*
X012603Y003745D03*
X012713Y003908D03*
D57*
X012710Y003910D03*
X012558Y003670D03*
X012555Y003665D03*
X012553Y003660D03*
X012550Y003655D03*
X012548Y003653D03*
X012548Y003650D03*
X012545Y003648D03*
X012545Y003645D03*
X012543Y003643D03*
X012543Y003640D03*
X012540Y003638D03*
X012538Y003633D03*
X012535Y003628D03*
X012533Y003623D03*
X012530Y003618D03*
X012528Y003613D03*
X012330Y002998D03*
X012328Y002985D03*
X012328Y002983D03*
X012328Y002980D03*
X012325Y002970D03*
X012325Y002968D03*
X012325Y002965D03*
X012323Y002958D03*
X012323Y002955D03*
X012323Y002953D03*
X012323Y002950D03*
X012323Y002948D03*
X012320Y002940D03*
X012320Y002938D03*
X012320Y002935D03*
X012320Y002933D03*
X012320Y002930D03*
X012318Y002925D03*
X012318Y002923D03*
X012318Y002920D03*
X012318Y002918D03*
X012318Y002915D03*
X012318Y002913D03*
X012318Y002910D03*
X012315Y002908D03*
X012315Y002905D03*
X012315Y002903D03*
X012315Y002900D03*
X012315Y002898D03*
X012315Y002895D03*
X012315Y002893D03*
X012315Y002890D03*
X012313Y002888D03*
X012313Y002885D03*
X012313Y002883D03*
X012313Y002880D03*
X012313Y002878D03*
X012313Y002875D03*
X012313Y002873D03*
X011585Y003373D03*
X011588Y003378D03*
X011588Y003380D03*
X011590Y003385D03*
X011593Y003393D03*
X011595Y003398D03*
X011595Y003400D03*
X011598Y003403D03*
X011598Y003405D03*
X011598Y003408D03*
X011600Y003410D03*
X011600Y003413D03*
X011603Y003418D03*
X011603Y003420D03*
X011605Y003423D03*
X011605Y003425D03*
X011608Y003430D03*
X011613Y003443D03*
X010805Y002568D03*
X010803Y002565D03*
X009905Y002070D03*
X009520Y001320D03*
X013310Y002620D03*
X013365Y003088D03*
X013873Y002753D03*
X013910Y002628D03*
X015040Y002663D03*
X015420Y003345D03*
D58*
X015042Y002660D03*
X014672Y002628D03*
X014599Y002453D03*
X013989Y002445D03*
X013912Y002625D03*
X013872Y002750D03*
X012512Y003580D03*
X012514Y003585D03*
X012517Y003590D03*
X012519Y003595D03*
X012522Y003600D03*
X012524Y003605D03*
X012524Y003608D03*
X012527Y003610D03*
X012529Y003615D03*
X012532Y003620D03*
X012534Y003625D03*
X012537Y003630D03*
X012539Y003635D03*
X012342Y003055D03*
X012339Y003045D03*
X012339Y003043D03*
X012337Y003033D03*
X012337Y003030D03*
X012334Y003023D03*
X012334Y003020D03*
X012334Y003018D03*
X012334Y003015D03*
X012334Y003013D03*
X012332Y003010D03*
X012332Y003008D03*
X012332Y003005D03*
X012332Y003003D03*
X012332Y003000D03*
X012329Y002995D03*
X012329Y002993D03*
X012329Y002990D03*
X012329Y002988D03*
X012327Y002978D03*
X012327Y002975D03*
X012327Y002973D03*
X012324Y002963D03*
X012324Y002960D03*
X012322Y002945D03*
X012322Y002943D03*
X012319Y002928D03*
X012312Y002870D03*
X011567Y003318D03*
X011569Y003325D03*
X011572Y003333D03*
X011574Y003340D03*
X011577Y003345D03*
X011577Y003348D03*
X011579Y003353D03*
X011579Y003355D03*
X011582Y003360D03*
X011582Y003363D03*
X011584Y003365D03*
X011584Y003368D03*
X011584Y003370D03*
X011587Y003375D03*
X011589Y003383D03*
X011592Y003388D03*
X011592Y003390D03*
X011594Y003395D03*
X010382Y002630D03*
X009904Y002068D03*
X009522Y001323D03*
D59*
X009522Y001325D03*
X009899Y002063D03*
X010379Y002623D03*
X011514Y003120D03*
X011517Y003133D03*
X011519Y003143D03*
X011519Y003145D03*
X011522Y003155D03*
X011524Y003165D03*
X011524Y003168D03*
X011527Y003175D03*
X011527Y003178D03*
X011527Y003180D03*
X011529Y003188D03*
X011529Y003190D03*
X011532Y003195D03*
X011532Y003198D03*
X011532Y003200D03*
X011534Y003205D03*
X011534Y003208D03*
X011534Y003210D03*
X011537Y003215D03*
X011537Y003218D03*
X011537Y003220D03*
X011539Y003225D03*
X011539Y003228D03*
X011539Y003230D03*
X011542Y003233D03*
X011542Y003235D03*
X011542Y003238D03*
X011544Y003243D03*
X011544Y003245D03*
X011544Y003248D03*
X011547Y003250D03*
X011547Y003253D03*
X011547Y003255D03*
X011549Y003260D03*
X011549Y003263D03*
X011552Y003268D03*
X011552Y003270D03*
X011552Y003273D03*
X011554Y003278D03*
X011554Y003280D03*
X011557Y003285D03*
X011557Y003288D03*
X011559Y003295D03*
X011562Y003303D03*
X012354Y003118D03*
X012354Y003115D03*
X012354Y003113D03*
X012354Y003110D03*
X012352Y003105D03*
X012352Y003103D03*
X012352Y003100D03*
X012349Y003093D03*
X012349Y003090D03*
X012347Y003080D03*
X012357Y003120D03*
X012357Y003123D03*
X012357Y003125D03*
X012357Y003128D03*
X012359Y003133D03*
X012359Y003135D03*
X012359Y003138D03*
X012362Y003143D03*
X012362Y003145D03*
X012362Y003148D03*
X012364Y003155D03*
X012364Y003158D03*
X012367Y003165D03*
X012369Y003175D03*
X012372Y003185D03*
X012454Y003445D03*
X012459Y003458D03*
X012462Y003465D03*
X012464Y003470D03*
X012467Y003478D03*
X012469Y003483D03*
X012472Y003488D03*
X012472Y003490D03*
X012474Y003495D03*
X012477Y003500D03*
X012477Y003503D03*
X012479Y003505D03*
X012479Y003508D03*
X012479Y003510D03*
X012482Y003513D03*
X012482Y003515D03*
X012484Y003518D03*
X012484Y003520D03*
X012487Y003523D03*
X012487Y003525D03*
X012489Y003530D03*
X012492Y003535D03*
X012494Y003543D03*
X012497Y003548D03*
X012499Y003553D03*
X012114Y003955D03*
X012307Y002860D03*
X012307Y002858D03*
X013347Y002463D03*
X013914Y002620D03*
X013869Y002745D03*
X013989Y002448D03*
X014639Y002543D03*
X014644Y002555D03*
X014647Y002560D03*
X014647Y002563D03*
X014649Y002565D03*
X014649Y002568D03*
X014652Y002573D03*
X014652Y002575D03*
X014654Y002578D03*
X014654Y002580D03*
X014654Y002583D03*
X014657Y002585D03*
X014657Y002588D03*
X014659Y002593D03*
X014662Y002600D03*
X015044Y002655D03*
X015047Y002650D03*
X015227Y002418D03*
X016257Y002643D03*
X016454Y002430D03*
D60*
X015420Y003343D03*
X015048Y002648D03*
X014650Y002570D03*
X014645Y002558D03*
X014643Y002553D03*
X014643Y002550D03*
X014640Y002548D03*
X014640Y002545D03*
X014638Y002540D03*
X014638Y002538D03*
X014635Y002535D03*
X014635Y002533D03*
X014633Y002530D03*
X014633Y002528D03*
X014630Y002523D03*
X014628Y002518D03*
X014598Y002455D03*
X013915Y002618D03*
X013868Y002743D03*
X012705Y003915D03*
X012475Y003498D03*
X012473Y003493D03*
X012470Y003485D03*
X012468Y003480D03*
X012465Y003475D03*
X012465Y003473D03*
X012463Y003468D03*
X012460Y003463D03*
X012460Y003460D03*
X012458Y003455D03*
X012458Y003453D03*
X012455Y003450D03*
X012455Y003448D03*
X012453Y003443D03*
X012453Y003440D03*
X012450Y003438D03*
X012450Y003435D03*
X012450Y003433D03*
X012448Y003430D03*
X012448Y003428D03*
X012445Y003423D03*
X012445Y003420D03*
X012443Y003418D03*
X012443Y003415D03*
X012440Y003410D03*
X012440Y003408D03*
X012438Y003403D03*
X012438Y003400D03*
X012435Y003395D03*
X012435Y003393D03*
X012433Y003388D03*
X012430Y003380D03*
X012428Y003373D03*
X012425Y003365D03*
X012423Y003358D03*
X012420Y003350D03*
X012418Y003343D03*
X012415Y003335D03*
X012413Y003328D03*
X012403Y003295D03*
X012395Y003270D03*
X012393Y003263D03*
X012390Y003255D03*
X012390Y003253D03*
X012388Y003245D03*
X012388Y003243D03*
X012385Y003238D03*
X012385Y003235D03*
X012383Y003228D03*
X012383Y003225D03*
X012380Y003220D03*
X012380Y003218D03*
X012380Y003215D03*
X012378Y003210D03*
X012378Y003208D03*
X012378Y003205D03*
X012375Y003203D03*
X012375Y003200D03*
X012375Y003198D03*
X012375Y003195D03*
X012373Y003193D03*
X012373Y003190D03*
X012373Y003188D03*
X012370Y003183D03*
X012370Y003180D03*
X012370Y003178D03*
X012368Y003173D03*
X012368Y003170D03*
X012368Y003168D03*
X012365Y003163D03*
X012365Y003160D03*
X012363Y003153D03*
X012363Y003150D03*
X012360Y003140D03*
X012358Y003130D03*
X012305Y002855D03*
X011493Y002945D03*
X011493Y002948D03*
X011493Y002950D03*
X011493Y002953D03*
X011493Y002955D03*
X011493Y002958D03*
X011495Y002980D03*
X011495Y002983D03*
X011495Y002985D03*
X011495Y002988D03*
X011495Y002990D03*
X011495Y002993D03*
X011495Y002995D03*
X011498Y003005D03*
X011498Y003008D03*
X011498Y003010D03*
X011498Y003013D03*
X011498Y003015D03*
X011498Y003018D03*
X011498Y003020D03*
X011500Y003028D03*
X011500Y003030D03*
X011500Y003033D03*
X011500Y003035D03*
X011500Y003038D03*
X011500Y003040D03*
X011503Y003048D03*
X011503Y003050D03*
X011503Y003053D03*
X011503Y003055D03*
X011503Y003058D03*
X011503Y003060D03*
X011505Y003063D03*
X011505Y003065D03*
X011505Y003068D03*
X011505Y003070D03*
X011505Y003073D03*
X011505Y003075D03*
X011508Y003078D03*
X011508Y003080D03*
X011508Y003083D03*
X011508Y003085D03*
X011508Y003088D03*
X011508Y003090D03*
X011510Y003093D03*
X011510Y003095D03*
X011510Y003098D03*
X011510Y003100D03*
X011510Y003103D03*
X011510Y003105D03*
X011513Y003108D03*
X011513Y003110D03*
X011513Y003113D03*
X011513Y003115D03*
X011513Y003118D03*
X011515Y003123D03*
X011515Y003125D03*
X011515Y003128D03*
X011515Y003130D03*
X011518Y003135D03*
X011518Y003138D03*
X011518Y003140D03*
X011520Y003148D03*
X011520Y003150D03*
X011520Y003153D03*
X011523Y003158D03*
X011523Y003160D03*
X011523Y003163D03*
X011525Y003170D03*
X011525Y003173D03*
X011528Y003183D03*
X011528Y003185D03*
X011530Y003193D03*
X011533Y003203D03*
X011535Y003213D03*
X011538Y003223D03*
X010795Y002558D03*
X010793Y002555D03*
X010378Y002620D03*
X009898Y002060D03*
X009895Y002058D03*
X009523Y001328D03*
D61*
X009522Y001330D03*
X009894Y002055D03*
X010379Y002618D03*
X011492Y002883D03*
X011492Y002885D03*
X011492Y002888D03*
X011492Y002890D03*
X011492Y002893D03*
X011492Y002895D03*
X011492Y002898D03*
X011492Y002900D03*
X011492Y002903D03*
X011492Y002905D03*
X011492Y002908D03*
X011492Y002910D03*
X011492Y002913D03*
X011492Y002915D03*
X011492Y002918D03*
X011492Y002920D03*
X011492Y002923D03*
X011492Y002925D03*
X011492Y002928D03*
X011492Y002930D03*
X011492Y002933D03*
X011492Y002935D03*
X011492Y002938D03*
X011492Y002940D03*
X011492Y002943D03*
X011494Y002960D03*
X011494Y002963D03*
X011494Y002965D03*
X011494Y002968D03*
X011494Y002970D03*
X011494Y002973D03*
X011494Y002975D03*
X011494Y002978D03*
X011497Y002998D03*
X011497Y003000D03*
X011497Y003003D03*
X011499Y003023D03*
X011499Y003025D03*
X011502Y003043D03*
X011502Y003045D03*
X011674Y002430D03*
X012312Y002710D03*
X012312Y002713D03*
X012304Y002853D03*
X012379Y003213D03*
X012382Y003223D03*
X012384Y003230D03*
X012384Y003233D03*
X012387Y003240D03*
X012389Y003248D03*
X012389Y003250D03*
X012392Y003258D03*
X012392Y003260D03*
X012394Y003265D03*
X012394Y003268D03*
X012397Y003273D03*
X012397Y003275D03*
X012397Y003278D03*
X012399Y003280D03*
X012399Y003283D03*
X012399Y003285D03*
X012402Y003288D03*
X012402Y003290D03*
X012402Y003293D03*
X012404Y003298D03*
X012404Y003300D03*
X012404Y003303D03*
X012407Y003305D03*
X012407Y003308D03*
X012407Y003310D03*
X012409Y003313D03*
X012409Y003315D03*
X012409Y003318D03*
X012412Y003320D03*
X012412Y003323D03*
X012412Y003325D03*
X012414Y003330D03*
X012414Y003333D03*
X012417Y003338D03*
X012417Y003340D03*
X012419Y003345D03*
X012419Y003348D03*
X012422Y003353D03*
X012422Y003355D03*
X012424Y003360D03*
X012424Y003363D03*
X012427Y003368D03*
X012427Y003370D03*
X012429Y003375D03*
X012429Y003378D03*
X012432Y003383D03*
X012432Y003385D03*
X012434Y003390D03*
X012437Y003398D03*
X012439Y003405D03*
X012442Y003413D03*
X012447Y003425D03*
X013134Y003015D03*
X013317Y002615D03*
X013867Y002740D03*
X013919Y002615D03*
X014597Y002458D03*
X014609Y002480D03*
X014612Y002485D03*
X014614Y002490D03*
X014617Y002495D03*
X014619Y002500D03*
X014622Y002503D03*
X014622Y002505D03*
X014624Y002508D03*
X014624Y002510D03*
X014627Y002513D03*
X014627Y002515D03*
X014629Y002520D03*
X014632Y002525D03*
X015049Y002645D03*
X012432Y002430D03*
D62*
X012315Y002695D03*
X012313Y002700D03*
X012313Y002703D03*
X012313Y002705D03*
X012313Y002708D03*
X012303Y002848D03*
X012303Y002850D03*
X011493Y002853D03*
X011493Y002855D03*
X011493Y002858D03*
X011493Y002860D03*
X011493Y002863D03*
X011493Y002865D03*
X011493Y002868D03*
X011493Y002870D03*
X011493Y002873D03*
X011493Y002875D03*
X011493Y002878D03*
X011493Y002880D03*
X010790Y002553D03*
X010788Y002550D03*
X010378Y002613D03*
X010378Y002615D03*
X009893Y002053D03*
X009523Y001333D03*
X012703Y003918D03*
X013348Y002465D03*
X013990Y002450D03*
X014598Y002460D03*
X014600Y002465D03*
X014603Y002468D03*
X014603Y002470D03*
X014605Y002473D03*
X014605Y002475D03*
X014608Y002478D03*
X014610Y002483D03*
X014613Y002488D03*
X014615Y002493D03*
X014618Y002498D03*
X015050Y002643D03*
X015053Y002640D03*
D63*
X015055Y002635D03*
X013863Y002735D03*
X013135Y003018D03*
X012433Y002433D03*
X012318Y002683D03*
X012318Y002685D03*
X012300Y002843D03*
X011498Y002815D03*
X011498Y002813D03*
X011498Y002810D03*
X011498Y002808D03*
X011495Y002820D03*
X011495Y002823D03*
X011495Y002825D03*
X011495Y002828D03*
X011495Y002830D03*
X011495Y002833D03*
X010785Y002548D03*
X009888Y002045D03*
X009523Y001335D03*
X016263Y002640D03*
D64*
X015057Y002633D03*
X013992Y002453D03*
X013924Y002610D03*
X013862Y002733D03*
X013349Y002468D03*
X012319Y002678D03*
X012319Y002680D03*
X012299Y002838D03*
X012299Y002840D03*
X011674Y002433D03*
X011499Y002798D03*
X011499Y002800D03*
X011499Y002803D03*
X011499Y002805D03*
X011497Y002818D03*
X010782Y002545D03*
X010377Y002605D03*
X010377Y002608D03*
X009887Y002043D03*
X009884Y002040D03*
X009524Y001338D03*
X012699Y003920D03*
D65*
X012697Y003923D03*
X012297Y002833D03*
X012294Y002828D03*
X012322Y002670D03*
X012324Y002665D03*
X012324Y002663D03*
X011507Y002763D03*
X011504Y002770D03*
X011504Y002773D03*
X011504Y002775D03*
X010374Y002600D03*
X009882Y002038D03*
X009524Y001340D03*
X013859Y002728D03*
X013992Y002455D03*
X015062Y002628D03*
D66*
X015063Y002625D03*
X015228Y002423D03*
X013928Y002608D03*
X013858Y002725D03*
X013323Y002613D03*
X012433Y002435D03*
X012325Y002660D03*
X012293Y002825D03*
X012295Y002830D03*
X011675Y002435D03*
X011508Y002755D03*
X011508Y002758D03*
X011508Y002760D03*
X011505Y002765D03*
X011505Y002768D03*
X010778Y002543D03*
X010375Y002598D03*
X009880Y002035D03*
X009878Y002033D03*
X009525Y001343D03*
X012415Y004035D03*
D67*
X012693Y003925D03*
X012290Y002820D03*
X012290Y002818D03*
X012328Y002653D03*
X012330Y002650D03*
X011513Y002738D03*
X011513Y002740D03*
X011510Y002745D03*
X011510Y002748D03*
X010773Y002540D03*
X010373Y002593D03*
X009875Y002028D03*
X009525Y001348D03*
X009525Y001345D03*
X013353Y002475D03*
X013855Y002720D03*
X015068Y002620D03*
X016268Y002638D03*
D68*
X015070Y002615D03*
X013853Y002715D03*
X013353Y002478D03*
X012333Y002643D03*
X012288Y002813D03*
X011518Y002725D03*
X011518Y002723D03*
X011515Y002730D03*
X010373Y002588D03*
X010373Y002585D03*
X009870Y002020D03*
X009525Y001350D03*
X012690Y003928D03*
D69*
X012287Y002810D03*
X012334Y002640D03*
X011522Y002713D03*
X011522Y002715D03*
X011519Y002718D03*
X011519Y002720D03*
X010769Y002538D03*
X009869Y002018D03*
X009867Y002015D03*
X009527Y001353D03*
X013852Y002713D03*
X015074Y002613D03*
X015229Y002425D03*
X015417Y003333D03*
X016447Y002438D03*
D70*
X013849Y002708D03*
X012687Y003930D03*
X012284Y002803D03*
X012337Y002635D03*
X012339Y002633D03*
X011527Y002703D03*
X011524Y002705D03*
X011524Y002708D03*
X010372Y002580D03*
X009864Y002010D03*
X009527Y001355D03*
D71*
X009528Y001358D03*
X009860Y002008D03*
X010373Y002578D03*
X011528Y002698D03*
X011528Y002700D03*
X012283Y002800D03*
X012340Y002630D03*
X013355Y002483D03*
X013848Y002705D03*
X013995Y002465D03*
X015078Y002608D03*
X015230Y002428D03*
X015415Y003330D03*
X016273Y002635D03*
D72*
X015082Y002605D03*
X012437Y002443D03*
X012282Y002798D03*
X011677Y002443D03*
X011532Y002690D03*
X011532Y002693D03*
X011529Y002695D03*
X010372Y002575D03*
X009859Y002005D03*
X009529Y001360D03*
D73*
X009528Y001363D03*
X009855Y002000D03*
X009858Y002003D03*
X010370Y002573D03*
X011533Y002688D03*
X012280Y002795D03*
X012343Y002628D03*
X013358Y002485D03*
X013955Y003178D03*
X013958Y003185D03*
X013958Y003188D03*
X015415Y003328D03*
X016445Y002440D03*
X012683Y003933D03*
D74*
X012279Y002793D03*
X012279Y002790D03*
X012344Y002625D03*
X011677Y002445D03*
X011537Y002680D03*
X011534Y002685D03*
X010372Y002570D03*
X009854Y001998D03*
X009529Y001365D03*
X013847Y002703D03*
X013997Y002468D03*
X013957Y003180D03*
X013957Y003183D03*
X013959Y003190D03*
X013959Y003193D03*
X013959Y003195D03*
X015084Y002603D03*
D75*
X015087Y002600D03*
X015414Y003325D03*
X013844Y002698D03*
X013359Y002490D03*
X012349Y002620D03*
X012277Y002785D03*
X011539Y002675D03*
X009849Y001990D03*
X009529Y001368D03*
D76*
X009530Y001370D03*
X009845Y001985D03*
X009848Y001988D03*
X011540Y002673D03*
X011543Y002670D03*
X012275Y002783D03*
X012350Y002618D03*
X013843Y002695D03*
X015090Y002598D03*
X016278Y002633D03*
D77*
X016442Y002443D03*
X013999Y002473D03*
X013842Y002693D03*
X012677Y003938D03*
X012417Y004033D03*
X012274Y002780D03*
X012439Y002448D03*
X011677Y002448D03*
X011544Y002668D03*
X009844Y001983D03*
X009532Y001373D03*
D78*
X009530Y001375D03*
X009840Y001978D03*
X009843Y001980D03*
X011545Y002665D03*
X011548Y002663D03*
X012273Y002775D03*
X012273Y002778D03*
X012353Y002615D03*
X013360Y002493D03*
X013840Y002690D03*
X015093Y002595D03*
X015230Y002433D03*
X015413Y003323D03*
D79*
X013999Y002475D03*
X013362Y002495D03*
X012272Y002773D03*
X011677Y002450D03*
X011549Y002660D03*
X009839Y001975D03*
X009532Y001378D03*
D80*
X009533Y001380D03*
X009835Y001970D03*
X009838Y001973D03*
X011550Y002658D03*
X012270Y002770D03*
X012355Y002613D03*
X012440Y002450D03*
X013840Y002688D03*
X014000Y002478D03*
X016415Y003143D03*
D81*
X016283Y002630D03*
X016438Y002445D03*
X013838Y002683D03*
X012440Y002453D03*
X012270Y002768D03*
X011678Y002453D03*
X009533Y001385D03*
X009533Y001383D03*
D82*
X009534Y001388D03*
X009829Y001963D03*
X009832Y001965D03*
X011557Y002650D03*
X012269Y002765D03*
X012359Y002610D03*
X013364Y002500D03*
X013837Y002680D03*
X014002Y002480D03*
X015102Y002590D03*
X015232Y002435D03*
X015412Y003318D03*
D83*
X014002Y002483D03*
X012442Y002455D03*
X012267Y002760D03*
X011562Y002645D03*
X009827Y001958D03*
X009824Y001955D03*
X009534Y001393D03*
X009534Y001390D03*
D84*
X009535Y001395D03*
X009820Y001950D03*
X009823Y001953D03*
X011563Y002643D03*
X011678Y002458D03*
X012265Y002758D03*
X013365Y002505D03*
X013835Y002678D03*
X015105Y002588D03*
X015233Y002438D03*
X015410Y003315D03*
X016410Y003145D03*
D85*
X016288Y002628D03*
X016435Y002448D03*
X015410Y003313D03*
X013833Y002673D03*
X013368Y002508D03*
X012443Y002458D03*
X012368Y002605D03*
X012263Y002750D03*
X012263Y002753D03*
X011565Y002640D03*
X012663Y003945D03*
X009818Y001945D03*
X009815Y001943D03*
X009535Y001398D03*
D86*
X009418Y001400D03*
X009418Y001403D03*
X009418Y001405D03*
X009415Y001408D03*
X009415Y001410D03*
X009413Y001415D03*
X009418Y001553D03*
X009418Y001555D03*
X009420Y001558D03*
X009420Y001560D03*
X009898Y001853D03*
X009900Y001858D03*
X009903Y001863D03*
X009903Y001865D03*
X009905Y001870D03*
X009908Y001875D03*
X009908Y001878D03*
X009910Y001880D03*
X009910Y001883D03*
X009913Y001885D03*
X009913Y001888D03*
X009915Y001893D03*
X009915Y001895D03*
X009918Y001898D03*
X009918Y001900D03*
X009920Y001905D03*
X009923Y001910D03*
X010480Y002548D03*
X010478Y002553D03*
X010478Y002555D03*
X010475Y002560D03*
X010600Y003203D03*
X010603Y003210D03*
X010603Y003213D03*
X010603Y003215D03*
X010605Y003220D03*
X010605Y003223D03*
X012750Y002608D03*
X013465Y003168D03*
X013608Y002613D03*
X015090Y003110D03*
X015090Y003113D03*
X015093Y003115D03*
X015095Y003120D03*
X015523Y003105D03*
X015575Y002598D03*
X016255Y003360D03*
D87*
X016278Y003355D03*
X016653Y003355D03*
X015543Y003243D03*
X015543Y003240D03*
X015540Y003245D03*
X015540Y003248D03*
X015538Y003253D03*
X015023Y002933D03*
X015023Y002930D03*
X015023Y002928D03*
X013320Y002813D03*
X013318Y002808D03*
X013318Y002805D03*
X013318Y002803D03*
X013315Y002798D03*
X013133Y003315D03*
X011670Y002405D03*
X011020Y002933D03*
X011023Y002938D03*
X011025Y002943D03*
X011028Y002948D03*
X011030Y002953D03*
X011033Y002958D03*
X011035Y002963D03*
X011038Y002968D03*
X010453Y002818D03*
X010450Y002815D03*
X010450Y002813D03*
X010110Y002333D03*
X010108Y002330D03*
X010108Y002328D03*
X010013Y002208D03*
X010010Y002205D03*
X010008Y002203D03*
X010005Y002200D03*
X010003Y002198D03*
X010000Y002195D03*
X009998Y002193D03*
X009995Y002190D03*
X009595Y001805D03*
X009593Y001803D03*
X009590Y001800D03*
X009588Y001798D03*
X009585Y001795D03*
X009583Y001793D03*
X009630Y001400D03*
D88*
X009635Y001405D03*
X009638Y001408D03*
X009640Y001410D03*
X009558Y001765D03*
X009560Y001768D03*
X009563Y001770D03*
X009565Y001773D03*
X009568Y001775D03*
X010030Y002228D03*
X010033Y002230D03*
X010035Y002233D03*
X010038Y002235D03*
X010040Y002238D03*
X010100Y002315D03*
X010103Y002318D03*
X010458Y002830D03*
X010460Y002833D03*
X010460Y002835D03*
X010463Y002840D03*
X011045Y002985D03*
X011048Y002990D03*
X011050Y002995D03*
X011053Y003000D03*
X011053Y003003D03*
X011055Y003005D03*
X011055Y003008D03*
X011058Y003010D03*
X011058Y003013D03*
X011060Y003018D03*
X013323Y002820D03*
X013325Y002825D03*
X013325Y002828D03*
X013328Y002830D03*
X013328Y002833D03*
X013328Y002835D03*
X013330Y002840D03*
X013428Y003125D03*
X014193Y003725D03*
X015028Y002955D03*
X015028Y002953D03*
X015028Y002950D03*
X015553Y003168D03*
X015553Y003170D03*
X015553Y003173D03*
X015553Y003178D03*
X015553Y003180D03*
X015553Y003183D03*
X015553Y003185D03*
X015553Y003188D03*
X015553Y003190D03*
X015553Y003193D03*
X015553Y003195D03*
X015553Y003198D03*
X015553Y003200D03*
X015550Y003208D03*
X015550Y003210D03*
X015550Y003213D03*
X015550Y003215D03*
X015548Y003223D03*
X015548Y003225D03*
X016468Y002410D03*
X014613Y002415D03*
D89*
X015094Y003118D03*
X015097Y003123D03*
X015099Y003125D03*
X015252Y003285D03*
X014219Y003735D03*
X013467Y003170D03*
X013147Y003353D03*
X013322Y002408D03*
X011982Y002633D03*
X010604Y003218D03*
X010607Y003225D03*
X010607Y003228D03*
X010607Y003230D03*
X010607Y003233D03*
X010609Y003238D03*
X010609Y003240D03*
X010474Y002565D03*
X010474Y002563D03*
X010477Y002558D03*
X009927Y001923D03*
X009927Y001920D03*
X009927Y001918D03*
X009924Y001915D03*
X009924Y001913D03*
X009922Y001908D03*
X009919Y001903D03*
X009914Y001890D03*
X009417Y001550D03*
X009417Y001548D03*
X009414Y001545D03*
X009414Y001543D03*
X009414Y001540D03*
X009409Y001428D03*
X009412Y001423D03*
X009412Y001420D03*
X009412Y001418D03*
X009414Y001413D03*
D90*
X009642Y001413D03*
X009549Y001755D03*
X009552Y001758D03*
X009554Y001760D03*
X009557Y001763D03*
X010042Y002240D03*
X010044Y002243D03*
X010047Y002245D03*
X010049Y002248D03*
X010052Y002250D03*
X010054Y002253D03*
X010062Y002263D03*
X010064Y002265D03*
X010097Y002308D03*
X010099Y002310D03*
X010099Y002313D03*
X010462Y002838D03*
X010464Y002843D03*
X010467Y002848D03*
X010469Y002853D03*
X011059Y003015D03*
X011062Y003020D03*
X011064Y003023D03*
X011064Y003025D03*
X011067Y003028D03*
X011067Y003030D03*
X011069Y003035D03*
X011072Y003040D03*
X013134Y003320D03*
X013334Y002850D03*
X013334Y002848D03*
X013332Y002845D03*
X013332Y002843D03*
X013329Y002838D03*
X015029Y002958D03*
X015029Y002960D03*
X015032Y002968D03*
X015552Y003155D03*
X015552Y003158D03*
X015552Y003160D03*
X015552Y003163D03*
X015552Y003165D03*
X015554Y003175D03*
X015552Y003203D03*
X015552Y003205D03*
D91*
X015547Y003140D03*
X015547Y003138D03*
X015429Y003368D03*
X015037Y002985D03*
X015037Y002983D03*
X015034Y002978D03*
X015034Y002975D03*
X015222Y002400D03*
X014614Y002413D03*
X013344Y002873D03*
X013344Y002875D03*
X013342Y002870D03*
X013342Y002868D03*
X013339Y002863D03*
X013347Y002880D03*
X013137Y003325D03*
X013137Y003328D03*
X011669Y002403D03*
X011079Y003058D03*
X011082Y003063D03*
X011084Y003068D03*
X011084Y003070D03*
X011087Y003073D03*
X011087Y003075D03*
X011089Y003078D03*
X011089Y003080D03*
X011092Y003085D03*
X011094Y003090D03*
X010479Y002875D03*
X010477Y002870D03*
X010477Y002868D03*
X010474Y002865D03*
X010474Y002863D03*
X010094Y002303D03*
X010092Y002300D03*
X010092Y002298D03*
X010089Y002295D03*
X010087Y002293D03*
X010084Y002290D03*
X010084Y002288D03*
X010082Y002285D03*
X010079Y002283D03*
X010077Y002280D03*
X009534Y001735D03*
X009532Y001733D03*
X009529Y001730D03*
X009527Y001728D03*
X009522Y001720D03*
X009654Y001425D03*
X009652Y001423D03*
X009649Y001420D03*
D92*
X009410Y001425D03*
X009408Y001430D03*
X009408Y001433D03*
X009410Y001530D03*
X009410Y001533D03*
X009413Y001535D03*
X009413Y001538D03*
X010608Y003235D03*
X010610Y003243D03*
X010610Y003245D03*
X010610Y003248D03*
X010610Y003250D03*
X010613Y003255D03*
X010613Y003258D03*
X011173Y003288D03*
X012755Y002610D03*
X013470Y003173D03*
X014270Y002610D03*
X015220Y002395D03*
X015580Y002600D03*
X015520Y003103D03*
X015108Y003140D03*
X015105Y003135D03*
X015103Y003133D03*
X015100Y003130D03*
X015100Y003128D03*
X016683Y003360D03*
D93*
X016469Y002408D03*
X015544Y003133D03*
X015042Y003000D03*
X015039Y002995D03*
X015039Y002993D03*
X013357Y002903D03*
X013354Y002898D03*
X013354Y002895D03*
X013352Y002893D03*
X013327Y002418D03*
X011114Y003135D03*
X011112Y003130D03*
X011109Y003125D03*
X011109Y003123D03*
X011107Y003120D03*
X011107Y003118D03*
X011104Y003115D03*
X011104Y003113D03*
X011102Y003108D03*
X010494Y002908D03*
X010492Y002903D03*
X010489Y002898D03*
X010489Y002895D03*
X010487Y002893D03*
X010487Y002890D03*
X009512Y001708D03*
X009509Y001705D03*
X009507Y001703D03*
X009504Y001698D03*
X009502Y001695D03*
X009667Y001440D03*
X009664Y001438D03*
X009662Y001435D03*
D94*
X009672Y001445D03*
X009677Y001453D03*
X009679Y001455D03*
X009682Y001458D03*
X009482Y001668D03*
X009487Y001675D03*
X009489Y001678D03*
X009494Y001685D03*
X010502Y002925D03*
X010504Y002930D03*
X010504Y002933D03*
X010507Y002935D03*
X010507Y002938D03*
X010509Y002940D03*
X010509Y002943D03*
X010512Y002948D03*
X010514Y002953D03*
X011119Y003148D03*
X011122Y003153D03*
X011122Y003155D03*
X011124Y003158D03*
X011124Y003160D03*
X011127Y003163D03*
X011127Y003165D03*
X011129Y003170D03*
X013139Y003335D03*
X013367Y002925D03*
X013364Y002920D03*
X013362Y002915D03*
X013977Y002410D03*
X015044Y003008D03*
X015047Y003015D03*
X015047Y003018D03*
X015049Y003023D03*
X015539Y003125D03*
X016712Y002613D03*
D95*
X015588Y002605D03*
X015518Y003100D03*
X015245Y003283D03*
X015118Y003155D03*
X015115Y003153D03*
X015115Y003150D03*
X015113Y003148D03*
X014225Y003738D03*
X013475Y003180D03*
X013473Y003178D03*
X012760Y002613D03*
X011990Y002638D03*
X011170Y003290D03*
X009405Y001513D03*
X009405Y001510D03*
X009403Y001505D03*
X009403Y001503D03*
X009403Y001500D03*
X009403Y001498D03*
X009403Y001495D03*
X009403Y001455D03*
X009403Y001453D03*
X009403Y001450D03*
D96*
X009402Y001458D03*
X009402Y001460D03*
X009402Y001463D03*
X009402Y001485D03*
X009402Y001488D03*
X009402Y001490D03*
X009402Y001493D03*
X010804Y002403D03*
X010807Y002408D03*
X010809Y002413D03*
X011669Y002395D03*
X012419Y002395D03*
X012764Y002615D03*
X013107Y002975D03*
X013477Y003183D03*
X013617Y002615D03*
X013322Y002405D03*
X014277Y002613D03*
X015119Y003158D03*
X015122Y003160D03*
X015124Y003165D03*
X015432Y003375D03*
X016474Y002400D03*
X016739Y002620D03*
D97*
X016360Y003135D03*
X015538Y003123D03*
X015050Y003025D03*
X015048Y003020D03*
X014615Y002410D03*
X013325Y002415D03*
X013365Y002923D03*
X013368Y002928D03*
X013368Y002930D03*
X013370Y002933D03*
X013370Y002935D03*
X013443Y003140D03*
X013140Y003338D03*
X011138Y003190D03*
X011135Y003185D03*
X011133Y003180D03*
X011133Y003178D03*
X011130Y003175D03*
X011130Y003173D03*
X011128Y003168D03*
X010523Y002973D03*
X010520Y002968D03*
X010518Y002963D03*
X010518Y002960D03*
X010515Y002958D03*
X010515Y002955D03*
X010513Y002950D03*
X010510Y002945D03*
X009485Y001673D03*
X009483Y001670D03*
X009480Y001665D03*
X009478Y001663D03*
X009473Y001655D03*
X009698Y001483D03*
X009695Y001478D03*
X009693Y001475D03*
X009690Y001470D03*
X009688Y001468D03*
X009685Y001465D03*
X009685Y001463D03*
X009683Y001460D03*
D98*
X009400Y001465D03*
X009400Y001468D03*
X009400Y001470D03*
X009400Y001473D03*
X009400Y001475D03*
X009400Y001478D03*
X009400Y001480D03*
X009400Y001483D03*
X010578Y002383D03*
X010798Y002385D03*
X010800Y002390D03*
X010800Y002393D03*
X010800Y002395D03*
X010803Y002398D03*
X010803Y002400D03*
X010805Y002405D03*
X010808Y002410D03*
X013148Y003358D03*
X013478Y003185D03*
X013480Y003188D03*
X014280Y002615D03*
X015123Y003163D03*
X015125Y003168D03*
X015128Y003170D03*
X015130Y003173D03*
X015240Y003280D03*
X015515Y003098D03*
X015593Y002608D03*
X016360Y003133D03*
D99*
X015553Y002588D03*
X015220Y002398D03*
X015055Y003038D03*
X015055Y003040D03*
X015058Y003043D03*
X015058Y003045D03*
X015060Y003050D03*
X013448Y003145D03*
X013380Y002955D03*
X013378Y002953D03*
X013378Y002950D03*
X013375Y002945D03*
X013140Y003340D03*
X012735Y002603D03*
X012420Y002400D03*
X011143Y003203D03*
X011145Y003208D03*
X011145Y003210D03*
X011148Y003213D03*
X011148Y003215D03*
X011150Y003220D03*
X010543Y003023D03*
X010540Y003018D03*
X010540Y003015D03*
X010538Y003010D03*
X010538Y003008D03*
X010535Y003005D03*
X010535Y003003D03*
X010533Y002998D03*
X010530Y002993D03*
X010530Y002990D03*
X010528Y002985D03*
X010278Y002565D03*
X010275Y002560D03*
X010270Y002553D03*
X010268Y002548D03*
X010265Y002545D03*
X010263Y002540D03*
X010260Y002538D03*
X010258Y002533D03*
X010255Y002530D03*
X010253Y002525D03*
X010250Y002523D03*
X010250Y002520D03*
X010248Y002518D03*
X010245Y002515D03*
X010245Y002513D03*
X010243Y002510D03*
X009468Y001648D03*
X009465Y001643D03*
X009463Y001640D03*
X009460Y001638D03*
X009460Y001635D03*
X009458Y001633D03*
X009713Y001505D03*
X009715Y001508D03*
X009718Y001513D03*
X009720Y001515D03*
X009723Y001520D03*
X009725Y001523D03*
X009728Y001528D03*
X009733Y001535D03*
X009710Y001500D03*
D100*
X009722Y001518D03*
X009727Y001525D03*
X009729Y001530D03*
X009732Y001533D03*
X009734Y001538D03*
X009737Y001540D03*
X009737Y001543D03*
X009739Y001545D03*
X009742Y001550D03*
X009747Y001558D03*
X009457Y001630D03*
X009454Y001628D03*
X009454Y001625D03*
X010242Y002508D03*
X010254Y002528D03*
X010259Y002535D03*
X010264Y002543D03*
X010269Y002550D03*
X010272Y002555D03*
X010274Y002558D03*
X010277Y002563D03*
X010539Y003013D03*
X010542Y003020D03*
X010544Y003025D03*
X010544Y003028D03*
X010547Y003030D03*
X010547Y003033D03*
X010549Y003035D03*
X010549Y003038D03*
X010549Y003040D03*
X010552Y003043D03*
X010552Y003045D03*
X010554Y003050D03*
X010554Y003053D03*
X010557Y003058D03*
X011149Y003218D03*
X011152Y003223D03*
X011152Y003225D03*
X011154Y003228D03*
X011154Y003230D03*
X011157Y003233D03*
X011157Y003235D03*
X011159Y003240D03*
X013382Y002960D03*
X013382Y002958D03*
X013384Y002963D03*
X013384Y002965D03*
X013449Y003148D03*
X014617Y002408D03*
X015059Y003048D03*
X015062Y003053D03*
X015534Y003118D03*
X016472Y002405D03*
X016669Y003358D03*
D101*
X016725Y002615D03*
X016473Y002403D03*
X015570Y002595D03*
X015078Y003088D03*
X015080Y003093D03*
X015083Y003098D03*
X014618Y002405D03*
X013975Y002405D03*
X013403Y003003D03*
X013405Y003008D03*
X013405Y003010D03*
X013408Y003013D03*
X013460Y003160D03*
X011975Y002630D03*
X011175Y003285D03*
X010598Y003193D03*
X010598Y003190D03*
X010595Y003183D03*
X010595Y003180D03*
X010595Y003178D03*
X010593Y003175D03*
X010593Y003173D03*
X010593Y003170D03*
X010590Y003165D03*
X010590Y003163D03*
X010483Y002543D03*
X010485Y002538D03*
X010580Y002388D03*
X009883Y001818D03*
X009880Y001813D03*
X009878Y001808D03*
X009875Y001803D03*
X009873Y001798D03*
X009873Y001795D03*
X009870Y001793D03*
X009870Y001790D03*
X009868Y001788D03*
X009868Y001785D03*
X009865Y001783D03*
X009865Y001780D03*
X009863Y001778D03*
X009863Y001775D03*
X009860Y001770D03*
X009858Y001765D03*
X009855Y001760D03*
X009853Y001755D03*
X009850Y001750D03*
X009848Y001745D03*
X009845Y001740D03*
X009430Y001580D03*
X009428Y001578D03*
X009428Y001575D03*
X009425Y001570D03*
D102*
X009442Y001603D03*
X009442Y001605D03*
X009444Y001608D03*
X009447Y001613D03*
X009762Y001583D03*
X009764Y001588D03*
X009767Y001593D03*
X009769Y001595D03*
X009769Y001598D03*
X009772Y001600D03*
X009774Y001605D03*
X009777Y001608D03*
X009777Y001610D03*
X009779Y001613D03*
X009779Y001615D03*
X009782Y001618D03*
X009784Y001623D03*
X009787Y001628D03*
X009789Y001633D03*
X009792Y001638D03*
X009797Y001645D03*
X009799Y001650D03*
X009802Y001655D03*
X010582Y002390D03*
X010562Y003073D03*
X010564Y003080D03*
X010567Y003085D03*
X010567Y003088D03*
X010569Y003093D03*
X010569Y003095D03*
X010569Y003098D03*
X010572Y003100D03*
X010572Y003103D03*
X010574Y003108D03*
X010574Y003110D03*
X010577Y003118D03*
X010579Y003125D03*
X011164Y003253D03*
X011167Y003258D03*
X011167Y003260D03*
X011169Y003263D03*
X011169Y003265D03*
X011172Y003270D03*
X013389Y002975D03*
X013392Y002980D03*
X013394Y002985D03*
X013397Y002990D03*
X013454Y003153D03*
X014257Y002605D03*
X015067Y003065D03*
X015069Y003068D03*
X015069Y003070D03*
X015072Y003075D03*
D103*
X015073Y003078D03*
X015075Y003083D03*
X015070Y003073D03*
X015530Y003113D03*
X015565Y002593D03*
X014605Y002633D03*
X014213Y003733D03*
X013455Y003155D03*
X013400Y002998D03*
X013398Y002993D03*
X013395Y002988D03*
X013393Y002983D03*
X013143Y003345D03*
X012743Y002605D03*
X011970Y002628D03*
X011170Y003268D03*
X011173Y003273D03*
X011173Y003275D03*
X011175Y003278D03*
X011175Y003280D03*
X010585Y003145D03*
X010583Y003138D03*
X010583Y003135D03*
X010580Y003130D03*
X010580Y003128D03*
X010578Y003123D03*
X010578Y003120D03*
X010575Y003115D03*
X010575Y003113D03*
X010573Y003105D03*
X009833Y001715D03*
X009830Y001710D03*
X009828Y001705D03*
X009825Y001700D03*
X009823Y001695D03*
X009820Y001690D03*
X009818Y001685D03*
X009815Y001680D03*
X009813Y001678D03*
X009813Y001675D03*
X009810Y001673D03*
X009810Y001670D03*
X009808Y001668D03*
X009808Y001665D03*
X009805Y001663D03*
X009805Y001660D03*
X009803Y001658D03*
X009800Y001653D03*
X009798Y001648D03*
X009795Y001643D03*
X009793Y001640D03*
X009790Y001635D03*
X009788Y001630D03*
X009785Y001625D03*
X009783Y001620D03*
X009440Y001600D03*
X009438Y001598D03*
X009438Y001595D03*
X009435Y001593D03*
D104*
X010144Y002800D03*
X010144Y002803D03*
X010144Y002805D03*
X010144Y002808D03*
X011119Y003348D03*
X012402Y004045D03*
X013769Y003173D03*
X014364Y003385D03*
X014414Y002790D03*
X014839Y002648D03*
X016864Y002790D03*
X010702Y001685D03*
X010702Y001683D03*
X010702Y001680D03*
X010702Y001678D03*
D105*
X010700Y001688D03*
X010143Y002793D03*
X010143Y002795D03*
X010143Y002798D03*
X014413Y002788D03*
X014543Y002723D03*
X016188Y003383D03*
X016863Y002788D03*
D106*
X016862Y002785D03*
X014544Y002720D03*
X014412Y002785D03*
X013629Y003383D03*
X014317Y003773D03*
X010702Y001695D03*
X010702Y001693D03*
X010702Y001690D03*
X010142Y002785D03*
X010142Y002788D03*
X010142Y002790D03*
X010539Y003293D03*
D107*
X010140Y002783D03*
X010140Y002780D03*
X010140Y002778D03*
X010700Y001705D03*
X010700Y001703D03*
X010700Y001700D03*
X010700Y001698D03*
X014410Y002783D03*
X014545Y002718D03*
X016355Y003128D03*
X016860Y002783D03*
D108*
X016859Y002780D03*
X016754Y003383D03*
X015442Y003030D03*
X014834Y002645D03*
X014409Y002780D03*
X011122Y003345D03*
X010139Y002775D03*
X010139Y002773D03*
X010139Y002770D03*
X010699Y001718D03*
X010699Y001715D03*
X010699Y001713D03*
X010699Y001710D03*
X010699Y001708D03*
D109*
X010698Y001720D03*
X010698Y001723D03*
X010698Y001725D03*
X010138Y002763D03*
X010138Y002765D03*
X010138Y002768D03*
X014408Y002778D03*
X014545Y002715D03*
X016858Y002778D03*
D110*
X016857Y002775D03*
X014407Y002775D03*
X013162Y003385D03*
X010699Y001728D03*
X010137Y002755D03*
X010137Y002758D03*
X010137Y002760D03*
D111*
X010135Y002753D03*
X010135Y002750D03*
X010135Y002748D03*
X010545Y003290D03*
X011123Y003343D03*
X010698Y001740D03*
X010698Y001738D03*
X010698Y001735D03*
X010698Y001733D03*
X010698Y001730D03*
X014310Y003770D03*
X014405Y002773D03*
X014548Y002713D03*
X014828Y002643D03*
X015435Y003385D03*
X016855Y002773D03*
X016855Y002770D03*
D112*
X016854Y002768D03*
X014549Y002710D03*
X014404Y002770D03*
X010697Y001753D03*
X010697Y001750D03*
X010697Y001748D03*
X010697Y001745D03*
X010697Y001743D03*
X010134Y002740D03*
X010134Y002743D03*
X010134Y002745D03*
D113*
X010132Y002730D03*
X010129Y002720D03*
X010129Y002718D03*
X010129Y002715D03*
X010697Y001765D03*
X010697Y001763D03*
X010697Y001760D03*
X010697Y001758D03*
X010697Y001755D03*
X014402Y002765D03*
X016852Y002763D03*
D114*
X016850Y002760D03*
X016195Y003380D03*
X014823Y002640D03*
X014550Y002705D03*
X014400Y002763D03*
X014303Y003768D03*
X010695Y001778D03*
X010695Y001775D03*
X010695Y001773D03*
X010695Y001770D03*
X010695Y001768D03*
X010128Y002708D03*
X010128Y002710D03*
X010128Y002713D03*
D115*
X010127Y002705D03*
X010127Y002703D03*
X010127Y002700D03*
X010552Y003288D03*
X010694Y001783D03*
X010694Y001780D03*
X014399Y002760D03*
X014552Y002703D03*
X016479Y002385D03*
X016849Y002758D03*
D116*
X016848Y002755D03*
X015448Y003035D03*
X014398Y002758D03*
X013313Y002385D03*
X011128Y003338D03*
X010125Y002698D03*
X010125Y002695D03*
X010125Y002693D03*
X010695Y001790D03*
X010695Y001788D03*
X010695Y001785D03*
D117*
X010694Y001793D03*
X010694Y001795D03*
X010694Y001798D03*
X010694Y001800D03*
X010694Y001803D03*
X010124Y002685D03*
X010124Y002688D03*
X010124Y002690D03*
X014397Y002755D03*
X014554Y002700D03*
X016847Y002753D03*
D118*
X016845Y002750D03*
X015450Y003038D03*
X014395Y002753D03*
X014395Y002750D03*
X011130Y003335D03*
X010123Y002683D03*
X010123Y002680D03*
X010123Y002678D03*
X010123Y002675D03*
X010695Y001805D03*
D119*
X010694Y001808D03*
X010694Y001810D03*
X010694Y001813D03*
X010694Y001815D03*
X010694Y001818D03*
X010694Y001820D03*
X010694Y001823D03*
X010122Y002668D03*
X010122Y002670D03*
X010122Y002673D03*
X014297Y003765D03*
X014394Y002748D03*
X014554Y002698D03*
X016844Y002748D03*
X016747Y003380D03*
D120*
X016843Y002745D03*
X014815Y002638D03*
X014555Y002695D03*
X014393Y002745D03*
X014340Y003383D03*
X010693Y001825D03*
X010120Y002660D03*
X010120Y002663D03*
X010120Y002665D03*
D121*
X010118Y002348D03*
X010115Y002343D03*
X010113Y002338D03*
X009983Y002178D03*
X009980Y002175D03*
X009978Y002173D03*
X009975Y002170D03*
X009973Y002168D03*
X009635Y001848D03*
X009633Y001845D03*
X009630Y001843D03*
X009628Y001840D03*
X009625Y001838D03*
X009623Y001835D03*
X009620Y001833D03*
X009618Y001830D03*
X009615Y001828D03*
X010443Y002795D03*
X010443Y002798D03*
X010445Y002800D03*
X010445Y002803D03*
X011000Y002893D03*
X011003Y002895D03*
X011003Y002898D03*
X011005Y002900D03*
X011005Y002903D03*
X011008Y002905D03*
X011008Y002908D03*
X011010Y002913D03*
X013130Y003308D03*
X013313Y002790D03*
X013313Y002788D03*
X013310Y002783D03*
X013310Y002780D03*
X013308Y002773D03*
X013330Y002425D03*
X014613Y002418D03*
X015020Y002913D03*
X015020Y002915D03*
X015020Y002918D03*
X015533Y003260D03*
X015533Y003263D03*
X015530Y003265D03*
X016360Y003138D03*
X016223Y002658D03*
D122*
X016284Y002663D03*
X016842Y002743D03*
X015452Y003040D03*
X014624Y002388D03*
X014557Y002693D03*
X014392Y002743D03*
X013967Y002388D03*
X011132Y003333D03*
X010559Y003285D03*
X010119Y002658D03*
X010119Y002655D03*
X010119Y002653D03*
X010694Y001840D03*
X010694Y001838D03*
X010694Y001835D03*
X010694Y001833D03*
X010694Y001830D03*
X010694Y001828D03*
D123*
X010693Y001843D03*
X010693Y001845D03*
X010118Y002643D03*
X010118Y002645D03*
X010118Y002648D03*
X010118Y002650D03*
X011668Y002385D03*
X012415Y002385D03*
X013793Y003175D03*
X014390Y002740D03*
X016203Y003378D03*
X016840Y002740D03*
D124*
X016839Y002738D03*
X015454Y003043D03*
X014389Y002738D03*
X010694Y001858D03*
X010694Y001855D03*
X010694Y001853D03*
X010694Y001850D03*
X010694Y001848D03*
X010114Y002628D03*
X010114Y002630D03*
X010114Y002633D03*
X010117Y002635D03*
X010117Y002638D03*
X010117Y002640D03*
D125*
X010123Y002358D03*
X010123Y002355D03*
X010120Y002353D03*
X009970Y002163D03*
X009968Y002160D03*
X009675Y001888D03*
X009673Y001885D03*
X009670Y001883D03*
X009668Y001880D03*
X009665Y001878D03*
X009663Y001875D03*
X009660Y001873D03*
X009658Y001870D03*
X009655Y001868D03*
X009653Y001865D03*
X010435Y002780D03*
X010438Y002783D03*
X010438Y002785D03*
X010970Y002833D03*
X010973Y002838D03*
X010975Y002843D03*
X010978Y002848D03*
X010980Y002850D03*
X010980Y002853D03*
X010983Y002855D03*
X010983Y002858D03*
X010985Y002860D03*
X010985Y002863D03*
X012423Y002408D03*
X013303Y002753D03*
X013303Y002755D03*
X013305Y002760D03*
X013305Y002763D03*
X013128Y003300D03*
X013128Y003303D03*
X015015Y002893D03*
X015015Y002890D03*
X015015Y002888D03*
X015015Y002885D03*
X015018Y002903D03*
X015223Y002403D03*
X015525Y002580D03*
X016468Y002413D03*
D126*
X016837Y002733D03*
X015962Y002385D03*
X015457Y003045D03*
X014559Y002688D03*
X014387Y002733D03*
X013159Y003383D03*
X010694Y001878D03*
X010694Y001875D03*
X010694Y001873D03*
X010694Y001870D03*
X010694Y001868D03*
X010694Y001865D03*
X010112Y002613D03*
X010112Y002615D03*
X010112Y002618D03*
D127*
X010110Y002610D03*
X010110Y002608D03*
X010110Y002605D03*
X010110Y002603D03*
X010695Y001880D03*
X014385Y002730D03*
X014560Y002685D03*
X016835Y002730D03*
X016740Y003378D03*
D128*
X016834Y002728D03*
X015459Y003048D03*
X011137Y003328D03*
X010564Y003283D03*
X010109Y002600D03*
X010109Y002598D03*
X010109Y002595D03*
X010694Y001895D03*
X010694Y001893D03*
X010694Y001890D03*
X010694Y001888D03*
X010694Y001885D03*
X010694Y001883D03*
D129*
X010127Y002363D03*
X010127Y002365D03*
X010124Y002360D03*
X010434Y002775D03*
X010434Y002778D03*
X010962Y002815D03*
X010964Y002820D03*
X010967Y002825D03*
X010969Y002830D03*
X010972Y002835D03*
X010974Y002840D03*
X010977Y002845D03*
X011672Y002408D03*
X013119Y002990D03*
X013304Y002758D03*
X013302Y002750D03*
X013302Y002748D03*
X013302Y002745D03*
X013332Y002428D03*
X013127Y003298D03*
X014612Y002420D03*
X015014Y002875D03*
X015014Y002878D03*
X015014Y002880D03*
X015014Y002883D03*
X015522Y003275D03*
X015524Y003273D03*
X009684Y001898D03*
X009682Y001895D03*
X009679Y001893D03*
X009677Y001890D03*
D130*
X010108Y002588D03*
X010108Y002590D03*
X010108Y002593D03*
X010695Y001908D03*
X010695Y001905D03*
X010695Y001903D03*
X010695Y001900D03*
X010695Y001898D03*
X013313Y002388D03*
X014383Y002728D03*
X013600Y003380D03*
X014283Y003760D03*
X015218Y002388D03*
X016833Y002725D03*
D131*
X016832Y002723D03*
X016209Y003375D03*
X014562Y002683D03*
X014382Y002725D03*
X011139Y003325D03*
X010107Y002585D03*
X010107Y002583D03*
X010107Y002580D03*
X010694Y001910D03*
D132*
X010695Y001913D03*
X010695Y001915D03*
X010695Y001918D03*
X010695Y001920D03*
X010695Y001923D03*
X010695Y001925D03*
X010103Y002563D03*
X010103Y002565D03*
X010105Y002570D03*
X010105Y002573D03*
X010105Y002575D03*
X010105Y002578D03*
X014380Y002723D03*
X014563Y002680D03*
X015463Y003050D03*
X016480Y002388D03*
X016830Y002720D03*
D133*
X016294Y002625D03*
X015409Y003308D03*
X015234Y002443D03*
X014007Y002493D03*
X013372Y002515D03*
X012444Y002463D03*
X012374Y002603D03*
X012259Y002740D03*
X011574Y002633D03*
X012657Y003948D03*
X009804Y001925D03*
D134*
X009805Y001928D03*
X009808Y001930D03*
X012260Y002743D03*
X012418Y004030D03*
X013830Y002665D03*
D135*
X014379Y002720D03*
X014564Y002678D03*
X016829Y002718D03*
X010697Y001938D03*
X010697Y001935D03*
X010697Y001933D03*
X010697Y001930D03*
X010697Y001928D03*
X010102Y002555D03*
X010102Y002558D03*
X010102Y002560D03*
X010104Y002568D03*
D136*
X009809Y001933D03*
X011572Y002635D03*
X011679Y002463D03*
X013369Y002513D03*
X013832Y002668D03*
X014004Y002490D03*
X015409Y003310D03*
X016407Y003148D03*
D137*
X015233Y002440D03*
X013833Y002670D03*
X012443Y002460D03*
X012260Y002745D03*
X009813Y001938D03*
X009810Y001935D03*
D138*
X009814Y001940D03*
X011569Y002638D03*
X011679Y002460D03*
X012262Y002748D03*
X013369Y002510D03*
X014004Y002488D03*
X015112Y002585D03*
D139*
X014798Y002633D03*
X014378Y002718D03*
X015465Y003053D03*
X016828Y002715D03*
X010698Y001943D03*
X010698Y001940D03*
X010100Y002548D03*
X010100Y002550D03*
X010100Y002553D03*
D140*
X009819Y001948D03*
X012264Y002755D03*
X013834Y002675D03*
X014004Y002485D03*
X013979Y003200D03*
D141*
X014375Y002713D03*
X013968Y002390D03*
X013158Y003380D03*
X015468Y003055D03*
X016825Y002710D03*
X010698Y001963D03*
X010698Y001960D03*
X010698Y001958D03*
X010698Y001955D03*
X010698Y001953D03*
X010098Y002530D03*
X010098Y002533D03*
X010098Y002535D03*
D142*
X009828Y001960D03*
X011558Y002648D03*
X011678Y002455D03*
X012268Y002763D03*
X012363Y002608D03*
X013365Y002503D03*
X012668Y003943D03*
D143*
X011144Y003320D03*
X010097Y002528D03*
X010097Y002525D03*
X010097Y002523D03*
X010094Y002515D03*
X010699Y001975D03*
X010699Y001973D03*
X010699Y001970D03*
X010699Y001968D03*
X010699Y001965D03*
X014374Y002710D03*
X014567Y002673D03*
X014624Y002390D03*
X015954Y002388D03*
X016824Y002708D03*
D144*
X015412Y003320D03*
X015097Y002593D03*
X013839Y002685D03*
X013362Y002498D03*
X012672Y003940D03*
X011552Y002655D03*
X011554Y002653D03*
X009834Y001968D03*
D145*
X010093Y002508D03*
X010093Y002510D03*
X010093Y002513D03*
X010095Y002518D03*
X010095Y002520D03*
X010700Y001988D03*
X010700Y001985D03*
X010700Y001983D03*
X010700Y001980D03*
X010700Y001978D03*
X014373Y002708D03*
X014568Y002670D03*
X015470Y003058D03*
X016218Y003373D03*
X016823Y002705D03*
D146*
X016822Y002703D03*
X015954Y002390D03*
X015434Y003383D03*
X014319Y003380D03*
X014372Y002705D03*
X013314Y002390D03*
X010702Y001998D03*
X010702Y001995D03*
X010702Y001993D03*
X010702Y001990D03*
X010572Y002370D03*
D147*
X010370Y002568D03*
X009853Y001995D03*
X009850Y001993D03*
X011535Y002683D03*
X011538Y002678D03*
X012278Y002788D03*
X012345Y002623D03*
X012438Y002445D03*
X013358Y002488D03*
X013845Y002700D03*
X013998Y002470D03*
X013963Y003198D03*
X015230Y002430D03*
X012680Y003935D03*
D148*
X014270Y003755D03*
X014370Y002703D03*
X015473Y003060D03*
X015955Y002393D03*
X016820Y002700D03*
X011145Y003318D03*
X010578Y003278D03*
X010703Y002008D03*
X010703Y002005D03*
X010703Y002003D03*
X010703Y002000D03*
D149*
X010704Y002010D03*
X010704Y002013D03*
X010704Y002015D03*
X010704Y002018D03*
X010704Y002020D03*
X014369Y002700D03*
X014569Y002668D03*
X015957Y002395D03*
X016819Y002698D03*
X016727Y003373D03*
D150*
X015075Y002610D03*
X013995Y002463D03*
X013850Y002710D03*
X013355Y002480D03*
X012435Y002440D03*
X012335Y002638D03*
X012285Y002805D03*
X012285Y002808D03*
X011675Y002440D03*
X011523Y002710D03*
X010373Y002583D03*
X009865Y002013D03*
D151*
X009872Y002023D03*
X009874Y002025D03*
X010374Y002590D03*
X011514Y002733D03*
X011514Y002735D03*
X011517Y002728D03*
X011674Y002438D03*
X012332Y002645D03*
X012332Y002648D03*
X012289Y002815D03*
X012434Y002438D03*
X013854Y002718D03*
X013932Y002605D03*
X013994Y002460D03*
X015069Y002618D03*
D152*
X015064Y002623D03*
X015417Y003335D03*
X016449Y002435D03*
X013994Y002458D03*
X013857Y002723D03*
X013352Y002473D03*
X013139Y003023D03*
X012292Y002823D03*
X012327Y002658D03*
X012327Y002655D03*
X011512Y002743D03*
X011509Y002750D03*
X011509Y002753D03*
X010374Y002595D03*
X009877Y002030D03*
D153*
X010707Y002033D03*
X010707Y002035D03*
X010707Y002038D03*
X010707Y002040D03*
X011149Y003315D03*
X013074Y002950D03*
X013079Y002958D03*
X013157Y003378D03*
X013579Y003370D03*
X013582Y003375D03*
X013582Y003378D03*
X014367Y002695D03*
X015479Y003065D03*
X015962Y002400D03*
X015959Y002398D03*
X016817Y002693D03*
D154*
X016815Y002690D03*
X016088Y003158D03*
X016085Y003155D03*
X016083Y003150D03*
X016080Y003148D03*
X016078Y003145D03*
X016075Y003140D03*
X016073Y003138D03*
X016070Y003133D03*
X016068Y003130D03*
X016065Y003128D03*
X016063Y003123D03*
X016060Y003120D03*
X016058Y003115D03*
X016055Y003113D03*
X016053Y003110D03*
X016050Y003105D03*
X016048Y003103D03*
X016043Y003095D03*
X016035Y003085D03*
X016030Y003078D03*
X016028Y003075D03*
X016023Y003068D03*
X016020Y003065D03*
X016015Y003058D03*
X016008Y003048D03*
X015965Y002405D03*
X015963Y002403D03*
X014573Y002663D03*
X014365Y002693D03*
X013578Y003365D03*
X013578Y003368D03*
X013580Y003373D03*
X013575Y003363D03*
X013083Y002963D03*
X013080Y002960D03*
X013078Y002955D03*
X013075Y002953D03*
X013073Y002948D03*
X013070Y002945D03*
X013070Y002943D03*
X013068Y002940D03*
X013063Y002933D03*
X014265Y003753D03*
X010708Y002050D03*
X010708Y002048D03*
X010708Y002045D03*
X010708Y002043D03*
D155*
X010377Y002610D03*
X009892Y002050D03*
X009889Y002048D03*
X011494Y002835D03*
X011494Y002838D03*
X011494Y002840D03*
X011494Y002843D03*
X011494Y002845D03*
X011494Y002848D03*
X011494Y002850D03*
X012302Y002845D03*
X012314Y002698D03*
X012317Y002693D03*
X012317Y002690D03*
X012317Y002688D03*
X013864Y002738D03*
X013922Y002613D03*
X014599Y002463D03*
X015054Y002638D03*
X015227Y002420D03*
X015419Y003340D03*
X016452Y002433D03*
D156*
X016814Y002688D03*
X016089Y003160D03*
X016084Y003153D03*
X016077Y003143D03*
X016072Y003135D03*
X016064Y003125D03*
X016059Y003118D03*
X016052Y003108D03*
X016047Y003100D03*
X016044Y003098D03*
X016042Y003093D03*
X016039Y003090D03*
X016037Y003088D03*
X016034Y003083D03*
X016032Y003080D03*
X016027Y003073D03*
X016024Y003070D03*
X016019Y003063D03*
X016017Y003060D03*
X016014Y003055D03*
X016012Y003053D03*
X016009Y003050D03*
X016007Y003045D03*
X016004Y003043D03*
X016002Y003040D03*
X015999Y003038D03*
X015999Y003035D03*
X015997Y003033D03*
X015994Y003030D03*
X015992Y003028D03*
X015992Y003025D03*
X015989Y003023D03*
X015987Y003020D03*
X015984Y003018D03*
X015984Y003015D03*
X015982Y003013D03*
X015979Y003010D03*
X015977Y003008D03*
X015974Y003003D03*
X015972Y003000D03*
X015969Y002998D03*
X015964Y002990D03*
X015962Y002988D03*
X015954Y002978D03*
X015944Y002965D03*
X015482Y003068D03*
X015972Y002415D03*
X015969Y002413D03*
X015969Y002410D03*
X015967Y002408D03*
X016224Y003370D03*
X014364Y002690D03*
X013567Y003343D03*
X013569Y003348D03*
X013569Y003350D03*
X013572Y003353D03*
X013572Y003355D03*
X013574Y003358D03*
X013574Y003360D03*
X013067Y002938D03*
X013064Y002935D03*
X013062Y002930D03*
X013059Y002928D03*
X013057Y002923D03*
X013054Y002920D03*
X013052Y002915D03*
X013049Y002913D03*
X013044Y002905D03*
X010709Y002058D03*
X010709Y002055D03*
X010709Y002053D03*
D157*
X010710Y002060D03*
X010710Y002063D03*
X010710Y002065D03*
X010710Y002068D03*
X010713Y002075D03*
X010713Y002078D03*
X011150Y003313D03*
X013035Y002893D03*
X013040Y002900D03*
X013043Y002903D03*
X013045Y002908D03*
X013048Y002910D03*
X013053Y002918D03*
X013058Y002925D03*
X013563Y003335D03*
X013565Y003340D03*
X013568Y003345D03*
X013315Y002393D03*
X014573Y002660D03*
X015908Y002920D03*
X015910Y002923D03*
X015915Y002930D03*
X015918Y002933D03*
X015920Y002935D03*
X015923Y002938D03*
X015925Y002943D03*
X015928Y002945D03*
X015930Y002948D03*
X015933Y002950D03*
X015935Y002953D03*
X015935Y002955D03*
X015938Y002958D03*
X015940Y002960D03*
X015943Y002963D03*
X015945Y002968D03*
X015948Y002970D03*
X015950Y002973D03*
X015953Y002975D03*
X015955Y002980D03*
X015958Y002983D03*
X015960Y002985D03*
X015965Y002993D03*
X015968Y002995D03*
X015975Y003005D03*
X015978Y002423D03*
X015975Y002420D03*
X015973Y002418D03*
X016813Y002685D03*
D158*
X015045Y002653D03*
X015043Y002658D03*
X014673Y002630D03*
X014670Y002625D03*
X014670Y002623D03*
X014668Y002620D03*
X014668Y002618D03*
X014668Y002615D03*
X014665Y002613D03*
X014665Y002610D03*
X014665Y002608D03*
X014663Y002605D03*
X014663Y002603D03*
X014660Y002598D03*
X014660Y002595D03*
X014658Y002590D03*
X013913Y002623D03*
X013870Y002748D03*
X013313Y002618D03*
X013345Y002460D03*
X013133Y003013D03*
X012488Y003528D03*
X012490Y003533D03*
X012493Y003538D03*
X012493Y003540D03*
X012495Y003545D03*
X012498Y003550D03*
X012500Y003555D03*
X012500Y003558D03*
X012503Y003560D03*
X012503Y003563D03*
X012505Y003565D03*
X012505Y003568D03*
X012508Y003570D03*
X012508Y003573D03*
X012510Y003575D03*
X012510Y003578D03*
X012513Y003583D03*
X012515Y003588D03*
X012518Y003593D03*
X012520Y003598D03*
X012523Y003603D03*
X012708Y003913D03*
X012353Y003108D03*
X012350Y003098D03*
X012350Y003095D03*
X012348Y003088D03*
X012348Y003085D03*
X012348Y003083D03*
X012345Y003078D03*
X012345Y003075D03*
X012345Y003073D03*
X012345Y003070D03*
X012343Y003068D03*
X012343Y003065D03*
X012343Y003063D03*
X012343Y003060D03*
X012343Y003058D03*
X012340Y003053D03*
X012340Y003050D03*
X012340Y003048D03*
X012338Y003040D03*
X012338Y003038D03*
X012338Y003035D03*
X012335Y003028D03*
X012335Y003025D03*
X012310Y002868D03*
X012310Y002865D03*
X012308Y002863D03*
X012430Y002428D03*
X011673Y002428D03*
X010800Y002563D03*
X010798Y002560D03*
X010380Y002625D03*
X010380Y002628D03*
X009900Y002065D03*
X011543Y003240D03*
X011548Y003258D03*
X011550Y003265D03*
X011553Y003275D03*
X011555Y003283D03*
X011558Y003290D03*
X011558Y003293D03*
X011560Y003298D03*
X011560Y003300D03*
X011563Y003305D03*
X011563Y003308D03*
X011563Y003310D03*
X011565Y003313D03*
X011565Y003315D03*
X011568Y003320D03*
X011568Y003323D03*
X011570Y003328D03*
X011570Y003330D03*
X011573Y003335D03*
X011573Y003338D03*
X011575Y003343D03*
X011578Y003350D03*
X011580Y003358D03*
D159*
X010584Y003275D03*
X010714Y002088D03*
X010714Y002085D03*
X010714Y002083D03*
X010714Y002080D03*
X010712Y002073D03*
X010712Y002070D03*
X013017Y002868D03*
X013019Y002870D03*
X013022Y002875D03*
X013024Y002878D03*
X013027Y002880D03*
X013029Y002883D03*
X013029Y002885D03*
X013032Y002888D03*
X013034Y002890D03*
X013037Y002895D03*
X013039Y002898D03*
X013557Y003323D03*
X013559Y003328D03*
X013562Y003330D03*
X013562Y003333D03*
X013564Y003338D03*
X014362Y002688D03*
X013969Y002393D03*
X015484Y003070D03*
X015864Y002868D03*
X015874Y002880D03*
X015877Y002883D03*
X015879Y002885D03*
X015882Y002888D03*
X015884Y002890D03*
X015887Y002895D03*
X015889Y002898D03*
X015892Y002900D03*
X015894Y002903D03*
X015897Y002905D03*
X015897Y002908D03*
X015899Y002910D03*
X015902Y002913D03*
X015904Y002915D03*
X015907Y002918D03*
X015912Y002925D03*
X015914Y002928D03*
X015924Y002940D03*
X016187Y002690D03*
X016189Y002693D03*
X016184Y002688D03*
X016182Y002685D03*
X016179Y002680D03*
X016177Y002678D03*
X016174Y002675D03*
X016172Y002673D03*
X016169Y002670D03*
X016167Y002665D03*
X016164Y002663D03*
X016194Y002700D03*
X016197Y002703D03*
X016199Y002705D03*
X016202Y002708D03*
X016207Y002715D03*
X016209Y002718D03*
X016212Y002720D03*
X016214Y002723D03*
X016217Y002728D03*
X016219Y002730D03*
X016222Y002733D03*
X016224Y002735D03*
X016229Y002743D03*
X016232Y002745D03*
X016234Y002748D03*
X016237Y002750D03*
X016242Y002758D03*
X016244Y002760D03*
X016247Y002763D03*
X016252Y002770D03*
X016254Y002773D03*
X016257Y002775D03*
X016259Y002778D03*
X016264Y002785D03*
X016267Y002788D03*
X016269Y002790D03*
X016272Y002793D03*
X016277Y002800D03*
X016279Y002803D03*
X016282Y002805D03*
X016289Y002815D03*
X016292Y002818D03*
X016294Y002820D03*
X016299Y002828D03*
X016302Y002830D03*
X016304Y002833D03*
X016312Y002843D03*
X016314Y002845D03*
X016317Y002848D03*
X016324Y002858D03*
X016327Y002860D03*
X016329Y002863D03*
X016334Y002870D03*
X016337Y002873D03*
X016339Y002875D03*
X016347Y002885D03*
X016349Y002888D03*
X016352Y002890D03*
X016359Y002900D03*
X016362Y002903D03*
X016372Y002915D03*
X016374Y002918D03*
X016382Y002928D03*
X016384Y002930D03*
X016387Y002933D03*
X016394Y002943D03*
X016397Y002945D03*
X016407Y002958D03*
X016409Y002960D03*
X016417Y002970D03*
X016419Y002973D03*
X016429Y002985D03*
X016432Y002988D03*
X016442Y003000D03*
X016444Y003003D03*
X016454Y003015D03*
X016464Y003028D03*
X016467Y003030D03*
X016477Y003043D03*
X016489Y003058D03*
X016499Y003070D03*
X016502Y003073D03*
X016512Y003085D03*
X016524Y003100D03*
X016547Y003128D03*
X016812Y002683D03*
X015984Y002430D03*
X015982Y002428D03*
X015979Y002425D03*
D160*
X015039Y002665D03*
X015039Y002668D03*
X015037Y002670D03*
X014599Y002450D03*
X013909Y002630D03*
X013874Y002755D03*
X013877Y002758D03*
X013344Y002458D03*
X013132Y003010D03*
X012552Y003658D03*
X012554Y003663D03*
X012557Y003668D03*
X012559Y003673D03*
X012562Y003675D03*
X012562Y003678D03*
X012564Y003680D03*
X012564Y003683D03*
X012567Y003685D03*
X012569Y003688D03*
X012569Y003690D03*
X012572Y003693D03*
X012572Y003695D03*
X012574Y003698D03*
X012577Y003703D03*
X012102Y003953D03*
X011632Y003485D03*
X011629Y003480D03*
X011627Y003475D03*
X011624Y003470D03*
X011624Y003468D03*
X011622Y003463D03*
X011619Y003458D03*
X011619Y003455D03*
X011617Y003453D03*
X011617Y003450D03*
X011614Y003448D03*
X011614Y003445D03*
X011612Y003440D03*
X011612Y003438D03*
X011609Y003435D03*
X011609Y003433D03*
X011607Y003428D03*
X011602Y003415D03*
X010807Y002570D03*
X010382Y002633D03*
X010382Y002635D03*
X009909Y002075D03*
X009907Y002073D03*
D161*
X009913Y002083D03*
X009915Y002085D03*
X010385Y002645D03*
X010385Y002648D03*
X010815Y002580D03*
X010818Y002583D03*
X011660Y003543D03*
X011663Y003548D03*
X011665Y003553D03*
X011668Y003555D03*
X011668Y003558D03*
X011670Y003560D03*
X011670Y003563D03*
X011673Y003565D03*
X011673Y003568D03*
X011675Y003570D03*
X011678Y003575D03*
X012093Y003950D03*
X012615Y003765D03*
X012618Y003768D03*
X012620Y003773D03*
X012623Y003775D03*
X012625Y003780D03*
X012628Y003783D03*
X012630Y003788D03*
X012633Y003790D03*
X012635Y003795D03*
X012638Y003798D03*
X012643Y003805D03*
X012715Y003905D03*
X013130Y003008D03*
X013880Y002765D03*
X013905Y002638D03*
X015033Y002680D03*
D162*
X015030Y002688D03*
X015028Y002693D03*
X013900Y002648D03*
X013883Y002770D03*
X013303Y002630D03*
X012658Y003825D03*
X012663Y003833D03*
X012665Y003835D03*
X012668Y003838D03*
X012670Y003843D03*
X012673Y003845D03*
X012675Y003848D03*
X012678Y003850D03*
X012678Y003853D03*
X012680Y003855D03*
X012683Y003858D03*
X012685Y003860D03*
X012690Y003868D03*
X012693Y003870D03*
X012695Y003873D03*
X012705Y003885D03*
X012718Y003900D03*
X012718Y003903D03*
X011708Y003625D03*
X011705Y003620D03*
X011703Y003618D03*
X011700Y003613D03*
X011698Y003610D03*
X011698Y003608D03*
X011695Y003605D03*
X011693Y003600D03*
X011690Y003598D03*
X011688Y003593D03*
X010823Y002588D03*
X010820Y002585D03*
X010388Y002653D03*
X009918Y002090D03*
X011673Y002423D03*
D163*
X011672Y002420D03*
X010832Y002600D03*
X010389Y002663D03*
X009924Y002098D03*
X011732Y003660D03*
X011737Y003668D03*
X011739Y003670D03*
X011742Y003673D03*
X011742Y003675D03*
X011744Y003678D03*
X011747Y003680D03*
X011752Y003688D03*
X012077Y003945D03*
X013887Y002778D03*
X013889Y002780D03*
X014604Y002440D03*
X015024Y002705D03*
X015024Y002708D03*
X016247Y002648D03*
D164*
X015992Y002438D03*
X015989Y002435D03*
X015987Y002433D03*
X015807Y002803D03*
X015809Y002805D03*
X015812Y002808D03*
X015814Y002810D03*
X015817Y002813D03*
X015819Y002815D03*
X015822Y002820D03*
X015824Y002823D03*
X015827Y002825D03*
X015829Y002828D03*
X015832Y002830D03*
X015834Y002833D03*
X015837Y002835D03*
X015847Y002848D03*
X015849Y002850D03*
X015487Y003073D03*
X014577Y002655D03*
X014359Y002683D03*
X013552Y003310D03*
X013552Y003313D03*
X013549Y003308D03*
X013092Y002965D03*
X013002Y002848D03*
X012999Y002845D03*
X012992Y002835D03*
X012989Y002833D03*
X012987Y002830D03*
X012984Y002828D03*
X012984Y002825D03*
X012982Y002823D03*
X012979Y002820D03*
X012977Y002818D03*
X012967Y002805D03*
X012964Y002803D03*
X010719Y002110D03*
X010717Y002103D03*
X010717Y002100D03*
X010717Y002098D03*
X016557Y003140D03*
D165*
X016808Y002678D03*
X016478Y002393D03*
X015820Y002818D03*
X015805Y002800D03*
X015803Y002798D03*
X015800Y002795D03*
X015218Y002390D03*
X014358Y002680D03*
X013543Y003295D03*
X013545Y003300D03*
X013548Y003303D03*
X013548Y003305D03*
X012975Y002815D03*
X012973Y002813D03*
X012970Y002810D03*
X012968Y002808D03*
X012963Y002800D03*
X012960Y002798D03*
X012958Y002795D03*
X012955Y002793D03*
X012953Y002790D03*
X012928Y002760D03*
X012925Y002758D03*
X012923Y002755D03*
X012920Y002753D03*
X010720Y002120D03*
X010720Y002118D03*
X010720Y002115D03*
X010720Y002113D03*
X010718Y002108D03*
X010718Y002105D03*
D166*
X010840Y002613D03*
X010843Y002615D03*
X010843Y002618D03*
X010845Y002620D03*
X010393Y002673D03*
X010393Y002675D03*
X010195Y002505D03*
X010193Y002503D03*
X009930Y002108D03*
X011775Y003718D03*
X011778Y003720D03*
X011783Y003728D03*
X011785Y003730D03*
X011788Y003733D03*
X011790Y003735D03*
X011793Y003738D03*
X012063Y003940D03*
X013298Y002645D03*
X013298Y002643D03*
X013338Y002445D03*
X013893Y002788D03*
X013993Y003155D03*
X013995Y003165D03*
X013998Y003173D03*
X014605Y002438D03*
X015020Y002720D03*
X015020Y002723D03*
X015423Y003353D03*
X016460Y002423D03*
D167*
X015225Y002410D03*
X015018Y002733D03*
X015018Y002735D03*
X014605Y002435D03*
X013895Y002793D03*
X013913Y002873D03*
X013915Y002883D03*
X013918Y002893D03*
X013920Y002903D03*
X013923Y002910D03*
X013923Y002913D03*
X013925Y002920D03*
X013925Y002923D03*
X013928Y002928D03*
X013928Y002930D03*
X013928Y002933D03*
X013930Y002938D03*
X013930Y002940D03*
X013930Y002943D03*
X013933Y002945D03*
X013933Y002948D03*
X013933Y002950D03*
X013933Y002953D03*
X013935Y002955D03*
X013935Y002958D03*
X013935Y002960D03*
X013938Y002963D03*
X013938Y002965D03*
X013938Y002968D03*
X013940Y002970D03*
X013940Y002973D03*
X013940Y002975D03*
X013940Y002978D03*
X013943Y002980D03*
X013943Y002983D03*
X013943Y002985D03*
X013945Y002988D03*
X013945Y002990D03*
X013945Y002993D03*
X013948Y002998D03*
X013948Y003000D03*
X013948Y003003D03*
X013950Y003005D03*
X013950Y003008D03*
X013950Y003010D03*
X013953Y003015D03*
X013953Y003018D03*
X013953Y003020D03*
X013955Y003023D03*
X013955Y003025D03*
X013955Y003028D03*
X013958Y003033D03*
X013958Y003035D03*
X013960Y003043D03*
X013960Y003045D03*
X013963Y003050D03*
X013963Y003053D03*
X013965Y003060D03*
X013968Y003068D03*
X013968Y003070D03*
X013970Y003078D03*
X013973Y003085D03*
X013975Y003095D03*
X013980Y003113D03*
X014060Y003378D03*
X014063Y003383D03*
X014063Y003385D03*
X014065Y003393D03*
X014068Y003400D03*
X014068Y003403D03*
X014070Y003408D03*
X014070Y003410D03*
X014073Y003418D03*
X014075Y003425D03*
X014075Y003428D03*
X014078Y003433D03*
X014078Y003435D03*
X014080Y003443D03*
X014083Y003450D03*
X014083Y003453D03*
X014085Y003458D03*
X014085Y003460D03*
X014088Y003468D03*
X014090Y003475D03*
X014090Y003478D03*
X014093Y003485D03*
X014095Y003493D03*
X014098Y003500D03*
X014098Y003503D03*
X014100Y003510D03*
X014103Y003518D03*
X014105Y003525D03*
X014105Y003528D03*
X014108Y003535D03*
X014110Y003543D03*
X014113Y003550D03*
X014113Y003553D03*
X014115Y003560D03*
X014118Y003568D03*
X014120Y003578D03*
X014123Y003585D03*
X014125Y003593D03*
X014128Y003603D03*
X014130Y003610D03*
X014133Y003618D03*
X014138Y003635D03*
X014145Y003660D03*
X014153Y003685D03*
X014160Y003710D03*
X013385Y003095D03*
X013125Y003000D03*
X013295Y002653D03*
X013295Y002650D03*
X013338Y002443D03*
X012050Y003935D03*
X012045Y003933D03*
X011820Y003768D03*
X011818Y003765D03*
X011815Y003763D03*
X011813Y003760D03*
X011810Y003758D03*
X011808Y003755D03*
X011805Y003753D03*
X010853Y002630D03*
X010850Y002628D03*
X010398Y002685D03*
X010398Y002688D03*
X010395Y002683D03*
X010188Y002490D03*
X010185Y002488D03*
X010185Y002485D03*
X009935Y002115D03*
D168*
X009939Y002120D03*
X009942Y002123D03*
X010174Y002463D03*
X010177Y002465D03*
X010177Y002468D03*
X010179Y002473D03*
X010402Y002698D03*
X010402Y002700D03*
X010864Y002648D03*
X010867Y002650D03*
X010869Y002655D03*
X011672Y002415D03*
X011852Y003800D03*
X011854Y003803D03*
X011857Y003805D03*
X011859Y003808D03*
X011862Y003810D03*
X011864Y003813D03*
X011874Y003820D03*
X011877Y003823D03*
X011879Y003825D03*
X012024Y003923D03*
X013099Y003213D03*
X013097Y003205D03*
X013097Y003203D03*
X013094Y003198D03*
X013094Y003195D03*
X013092Y003190D03*
X013092Y003188D03*
X013092Y003185D03*
X013089Y003183D03*
X013089Y003180D03*
X013089Y003178D03*
X013087Y003173D03*
X013087Y003170D03*
X013087Y003168D03*
X013084Y003165D03*
X013084Y003163D03*
X013084Y003160D03*
X013082Y003153D03*
X013392Y003098D03*
X013294Y002663D03*
X013294Y002660D03*
X013337Y002440D03*
X014607Y002433D03*
X015014Y002753D03*
X015014Y002755D03*
X015014Y002758D03*
X016462Y002420D03*
D169*
X016807Y002675D03*
X016359Y003130D03*
X015797Y002793D03*
X015794Y002790D03*
X015792Y002788D03*
X015789Y002785D03*
X015994Y002440D03*
X014357Y002678D03*
X013542Y003290D03*
X013542Y003293D03*
X013544Y003298D03*
X013539Y003288D03*
X012952Y002788D03*
X012949Y002785D03*
X012947Y002783D03*
X012944Y002780D03*
X012942Y002778D03*
X012939Y002775D03*
X012937Y002773D03*
X012937Y002770D03*
X012934Y002768D03*
X012932Y002765D03*
X012929Y002763D03*
X012919Y002750D03*
X012917Y002748D03*
X012914Y002745D03*
X012912Y002743D03*
X012909Y002740D03*
X012907Y002738D03*
X012904Y002735D03*
X012902Y002733D03*
X012899Y002730D03*
X012897Y002728D03*
X012894Y002725D03*
X012892Y002723D03*
X010722Y002128D03*
X010722Y002125D03*
X010722Y002123D03*
D170*
X010874Y002663D03*
X010877Y002665D03*
X010877Y002668D03*
X010879Y002670D03*
X010407Y002710D03*
X010404Y002708D03*
X010404Y002705D03*
X010169Y002453D03*
X010169Y002450D03*
X010167Y002448D03*
X009944Y002128D03*
X011894Y003838D03*
X011897Y003840D03*
X011907Y003848D03*
X011909Y003850D03*
X011912Y003853D03*
X011917Y003855D03*
X011919Y003858D03*
X011922Y003860D03*
X011929Y003865D03*
X011947Y003878D03*
X011954Y003883D03*
X011962Y003888D03*
X011969Y003893D03*
X011982Y003900D03*
X011987Y003903D03*
X011989Y003905D03*
X011994Y003908D03*
X011999Y003910D03*
X012004Y003913D03*
X013107Y003235D03*
X013104Y003230D03*
X013104Y003228D03*
X013104Y003225D03*
X013102Y003223D03*
X013102Y003220D03*
X013079Y003143D03*
X013077Y003135D03*
X013077Y003133D03*
X013077Y003130D03*
X013124Y002998D03*
X013294Y002668D03*
X015012Y002770D03*
X015012Y002773D03*
X016299Y003353D03*
D171*
X015788Y002783D03*
X015785Y002780D03*
X015783Y002778D03*
X015780Y002775D03*
X015778Y002773D03*
X015775Y002770D03*
X015773Y002768D03*
X015770Y002765D03*
X015768Y002763D03*
X015998Y002443D03*
X015490Y003075D03*
X015433Y003380D03*
X014578Y002653D03*
X014355Y002675D03*
X013535Y003280D03*
X013538Y003285D03*
X012890Y002720D03*
X012888Y002718D03*
X012885Y002715D03*
X012883Y002713D03*
X012880Y002710D03*
X012878Y002708D03*
X012875Y002705D03*
X013318Y002395D03*
X012078Y002713D03*
X011155Y003308D03*
X010590Y003273D03*
X010725Y002145D03*
X010725Y002143D03*
X010725Y002140D03*
X010725Y002138D03*
X010723Y002135D03*
X010723Y002133D03*
X010723Y002130D03*
X016805Y002673D03*
D172*
X015012Y002780D03*
X015012Y002783D03*
X015012Y002785D03*
X015012Y002788D03*
X015012Y002790D03*
X013294Y002678D03*
X013072Y003110D03*
X013072Y003113D03*
X013109Y003243D03*
X013109Y003245D03*
X013112Y003250D03*
X011672Y002413D03*
X010889Y002688D03*
X010887Y002683D03*
X010884Y002680D03*
X010409Y002718D03*
X010409Y002720D03*
X010162Y002438D03*
X010162Y002435D03*
X009949Y002133D03*
D173*
X009952Y002138D03*
X010154Y002420D03*
X010154Y002423D03*
X010157Y002425D03*
X010412Y002725D03*
X010414Y002730D03*
X010894Y002695D03*
X010897Y002700D03*
X010899Y002703D03*
X010899Y002705D03*
X010902Y002708D03*
X013069Y003095D03*
X013069Y003098D03*
X013069Y003100D03*
X013122Y002995D03*
X013114Y003258D03*
X013114Y003260D03*
X013399Y003103D03*
X013294Y002688D03*
X013982Y002425D03*
X015012Y002803D03*
X015012Y002805D03*
X016362Y003140D03*
D174*
X016229Y002655D03*
X016467Y002415D03*
X015514Y003283D03*
X015012Y002850D03*
X015012Y002848D03*
X015012Y002845D03*
X015012Y002843D03*
X015012Y002840D03*
X015012Y002838D03*
X013407Y003108D03*
X013122Y003280D03*
X013122Y003283D03*
X013297Y002720D03*
X013297Y002718D03*
X013297Y002715D03*
X012424Y002410D03*
X010934Y002765D03*
X010932Y002760D03*
X010929Y002755D03*
X010927Y002753D03*
X010927Y002750D03*
X010924Y002748D03*
X010922Y002743D03*
X010424Y002753D03*
X010424Y002755D03*
X010422Y002750D03*
X010422Y002748D03*
X010142Y002395D03*
X010139Y002390D03*
X009959Y002148D03*
D175*
X010727Y002148D03*
X010727Y002150D03*
X010727Y002153D03*
X010729Y002158D03*
X010729Y002160D03*
X012074Y002710D03*
X012417Y002390D03*
X012857Y002688D03*
X012859Y002690D03*
X012862Y002693D03*
X012864Y002695D03*
X012867Y002698D03*
X012869Y002700D03*
X012872Y002703D03*
X013154Y003373D03*
X013532Y003273D03*
X013534Y003278D03*
X013537Y003283D03*
X014252Y003748D03*
X015742Y002735D03*
X015744Y002738D03*
X015747Y002740D03*
X015749Y002743D03*
X015752Y002745D03*
X015754Y002748D03*
X015757Y002750D03*
X015759Y002753D03*
X015762Y002755D03*
X015764Y002758D03*
X015767Y002760D03*
X016002Y002445D03*
X016804Y002670D03*
X016709Y003368D03*
X016232Y003368D03*
D176*
X015517Y003280D03*
X015427Y003363D03*
X015012Y002863D03*
X015012Y002860D03*
X013299Y002735D03*
X013299Y002733D03*
X013124Y003288D03*
X013124Y003290D03*
X012412Y004040D03*
X010952Y002798D03*
X010949Y002793D03*
X010947Y002788D03*
X010944Y002783D03*
X010429Y002765D03*
X010427Y002760D03*
X010134Y002380D03*
X010134Y002378D03*
X010132Y002375D03*
X009964Y002155D03*
D177*
X010572Y002375D03*
X010734Y002180D03*
X010734Y002178D03*
X010732Y002173D03*
X010732Y002170D03*
X010732Y002168D03*
X012057Y002693D03*
X012834Y002668D03*
X012837Y002670D03*
X012839Y002673D03*
X013524Y003260D03*
X013527Y003263D03*
X014352Y002670D03*
X014622Y002395D03*
X015707Y002700D03*
X015709Y002703D03*
X015712Y002705D03*
X015714Y002708D03*
X015717Y002710D03*
X015719Y002713D03*
X016004Y002448D03*
X016799Y002663D03*
D178*
X016795Y002660D03*
X016793Y002658D03*
X016790Y002655D03*
X016788Y002653D03*
X015705Y002698D03*
X015703Y002695D03*
X015495Y003080D03*
X014350Y002668D03*
X014348Y002665D03*
X014345Y002663D03*
X013523Y003255D03*
X013523Y003258D03*
X013520Y003253D03*
X013153Y003370D03*
X012830Y002665D03*
X012055Y002690D03*
X012053Y002688D03*
X012050Y002685D03*
X010738Y002195D03*
X010738Y002193D03*
X010735Y002188D03*
X010735Y002185D03*
X010735Y002183D03*
X010733Y002175D03*
D179*
X010737Y002190D03*
X010739Y002198D03*
X010739Y002200D03*
X010739Y002203D03*
X010742Y002210D03*
X011159Y003303D03*
X012042Y002678D03*
X012044Y002680D03*
X012047Y002683D03*
X012827Y002660D03*
X012829Y002663D03*
X013519Y003250D03*
X014297Y003378D03*
X014342Y002660D03*
X014339Y002658D03*
X014337Y002655D03*
X014334Y002653D03*
X014582Y002648D03*
X015687Y002680D03*
X015689Y002683D03*
X015692Y002685D03*
X015694Y002688D03*
X015697Y002690D03*
X015699Y002693D03*
X016009Y002450D03*
X016477Y002395D03*
X016782Y002648D03*
X016784Y002650D03*
D180*
X016772Y002640D03*
X016014Y002453D03*
X015672Y002668D03*
X015669Y002665D03*
X015667Y002663D03*
X014584Y002645D03*
X014324Y002645D03*
X014322Y002643D03*
X013674Y002655D03*
X013672Y002653D03*
X013669Y002650D03*
X013102Y002970D03*
X013152Y003368D03*
X013509Y003233D03*
X013512Y003238D03*
X012814Y002650D03*
X012812Y002648D03*
X012039Y002675D03*
X012037Y002673D03*
X012034Y002670D03*
X010749Y002238D03*
X010747Y002230D03*
X010747Y002228D03*
X010747Y002225D03*
X010744Y002223D03*
X010744Y002220D03*
D181*
X010748Y002233D03*
X010748Y002235D03*
X010750Y002240D03*
X010750Y002243D03*
X010753Y002250D03*
X011163Y003300D03*
X012028Y002665D03*
X012030Y002668D03*
X012805Y002643D03*
X012808Y002645D03*
X013658Y002640D03*
X013660Y002643D03*
X013663Y002645D03*
X013665Y002648D03*
X013508Y003230D03*
X013510Y003235D03*
X014315Y002638D03*
X014318Y002640D03*
X015500Y003085D03*
X015663Y002660D03*
X015660Y002658D03*
X015658Y002655D03*
X015653Y002653D03*
X015650Y002650D03*
X015648Y002648D03*
X016240Y003365D03*
X016700Y003365D03*
X016768Y002638D03*
X016765Y002635D03*
D182*
X016762Y002633D03*
X015644Y002645D03*
X015642Y002643D03*
X015504Y003088D03*
X014587Y002643D03*
X014312Y002635D03*
X013972Y002398D03*
X013654Y002638D03*
X013652Y002635D03*
X013504Y003225D03*
X013507Y003228D03*
X012802Y002640D03*
X012024Y002663D03*
X012022Y002660D03*
X010757Y002263D03*
X010754Y002258D03*
X010754Y002255D03*
X010754Y002253D03*
X010752Y002248D03*
X010752Y002245D03*
X010574Y002378D03*
D183*
X010767Y002295D03*
X010764Y002288D03*
X010764Y002285D03*
X010762Y002283D03*
X010762Y002280D03*
X010762Y002278D03*
X010759Y002273D03*
X010604Y003268D03*
X011164Y003298D03*
X012019Y002658D03*
X012792Y002633D03*
X013319Y002400D03*
X013637Y002625D03*
X013497Y003213D03*
X013499Y003218D03*
X013502Y003220D03*
X013152Y003365D03*
X014302Y002628D03*
X015219Y002393D03*
X015629Y002633D03*
X015632Y002635D03*
X015507Y003090D03*
X015432Y003378D03*
D184*
X015203Y003255D03*
X015200Y003253D03*
X015625Y002630D03*
X015623Y002628D03*
X016758Y002630D03*
X014298Y002625D03*
X013633Y002623D03*
X013495Y003210D03*
X013498Y003215D03*
X012788Y002630D03*
X012015Y002655D03*
X012013Y002653D03*
X011668Y002393D03*
X010770Y002308D03*
X010768Y002300D03*
X010768Y002298D03*
X010765Y002293D03*
X010765Y002290D03*
D185*
X010769Y002303D03*
X010769Y002305D03*
X010772Y002310D03*
X010772Y002313D03*
X010774Y002318D03*
X010577Y002380D03*
X012009Y002650D03*
X012784Y002628D03*
X013104Y002973D03*
X013492Y003205D03*
X013494Y003208D03*
X014294Y002623D03*
X014589Y002640D03*
X015169Y003223D03*
X015172Y003225D03*
X015174Y003228D03*
X015177Y003230D03*
X015179Y003233D03*
X015182Y003235D03*
X015184Y003238D03*
X015187Y003240D03*
X015189Y003243D03*
X015192Y003245D03*
X015194Y003248D03*
X015197Y003250D03*
X015207Y003258D03*
X015209Y003260D03*
X015212Y003263D03*
X015509Y003093D03*
X015619Y002625D03*
X016477Y002398D03*
X016754Y002628D03*
D186*
X016750Y002625D03*
X016693Y003363D03*
X015615Y002623D03*
X015613Y002620D03*
X015158Y003210D03*
X015160Y003213D03*
X015163Y003215D03*
X015165Y003218D03*
X015168Y003220D03*
X015215Y003265D03*
X015218Y003268D03*
X015223Y003270D03*
X013628Y002620D03*
X013320Y002403D03*
X012780Y002625D03*
X012005Y002648D03*
X011165Y003295D03*
X010780Y002338D03*
X010780Y002335D03*
X010778Y002330D03*
X010778Y002328D03*
X010775Y002325D03*
X010775Y002323D03*
X010775Y002320D03*
X010773Y002315D03*
X013150Y003363D03*
X013490Y003203D03*
D187*
X013485Y003195D03*
X013148Y003360D03*
X012773Y002620D03*
X011998Y002643D03*
X010793Y002373D03*
X010790Y002365D03*
X010790Y002363D03*
X010788Y002360D03*
X010788Y002358D03*
X010785Y002353D03*
X010785Y002350D03*
X013623Y002618D03*
X014285Y002618D03*
X014620Y002400D03*
X015140Y003188D03*
X015143Y003190D03*
X015145Y003193D03*
X015230Y003275D03*
X015600Y002613D03*
X015605Y002615D03*
X016745Y002623D03*
D188*
X015427Y003360D03*
X015012Y002823D03*
X014609Y002425D03*
X013334Y002433D03*
X013294Y002698D03*
X013294Y002700D03*
X013294Y002703D03*
X013294Y002705D03*
X013117Y003268D03*
X013119Y003270D03*
X013119Y003273D03*
X011672Y002410D03*
X010917Y002733D03*
X010914Y002730D03*
X010914Y002728D03*
X010912Y002725D03*
X010909Y002720D03*
X010419Y002740D03*
X010419Y002743D03*
X010417Y002738D03*
X010149Y002410D03*
X010147Y002408D03*
X010147Y002405D03*
X010144Y002400D03*
D189*
X010674Y002415D03*
X010674Y002418D03*
X011679Y002468D03*
X012254Y002730D03*
X013374Y002523D03*
X012652Y003950D03*
X015234Y002445D03*
X015407Y003303D03*
D190*
X014139Y003370D03*
X013377Y002525D03*
X012254Y002728D03*
X011679Y002470D03*
X011584Y002628D03*
X010674Y002420D03*
D191*
X010673Y002423D03*
X012253Y002725D03*
X013378Y002528D03*
X014010Y002503D03*
X013995Y003203D03*
X014135Y003355D03*
X014135Y003358D03*
X014138Y003363D03*
X014138Y003365D03*
X014138Y003368D03*
X014140Y003373D03*
X014140Y003375D03*
X015235Y002448D03*
X015405Y003300D03*
X016300Y002623D03*
X016425Y002453D03*
D192*
X016399Y003153D03*
X015129Y002580D03*
X014137Y003360D03*
X012447Y002470D03*
X012252Y002723D03*
X011679Y002473D03*
X010674Y002425D03*
D193*
X010673Y002428D03*
X012250Y002720D03*
X013378Y002530D03*
X014010Y002505D03*
X015405Y003298D03*
D194*
X016395Y003155D03*
X012448Y002473D03*
X011590Y002625D03*
X010673Y002433D03*
X010673Y002430D03*
D195*
X010673Y002435D03*
X013383Y002538D03*
X014013Y002510D03*
X015403Y003293D03*
X016305Y002620D03*
D196*
X016422Y002455D03*
X015237Y002453D03*
X014014Y002513D03*
X013384Y002540D03*
X011682Y002480D03*
X010672Y002438D03*
D197*
X010673Y002440D03*
X012450Y002478D03*
X013385Y002543D03*
X015403Y003290D03*
D198*
X015237Y002455D03*
X014014Y002515D03*
X012637Y003955D03*
X011682Y002483D03*
X010672Y002443D03*
X016392Y003158D03*
D199*
X015400Y003288D03*
X014015Y002518D03*
X013385Y002545D03*
X012450Y002480D03*
X010670Y002445D03*
D200*
X010672Y002448D03*
D201*
X010670Y002450D03*
X011683Y002485D03*
X012450Y002483D03*
X013388Y002548D03*
X015238Y002458D03*
D202*
X015237Y002450D03*
X015404Y003295D03*
X014012Y002508D03*
X013379Y002533D03*
X012249Y002718D03*
X011682Y002475D03*
X012644Y003953D03*
D203*
X012258Y002738D03*
X013373Y002518D03*
X013830Y002663D03*
X015118Y002583D03*
X016430Y002450D03*
D204*
X016312Y002618D03*
X016389Y003160D03*
X014012Y003205D03*
X014017Y002520D03*
X013389Y002550D03*
X010672Y002453D03*
D205*
X010670Y002455D03*
X011683Y002488D03*
X012453Y002485D03*
X013390Y002553D03*
X014018Y002523D03*
D206*
X014018Y002525D03*
X013393Y002558D03*
X012453Y002488D03*
X011683Y002490D03*
X010670Y002460D03*
X010670Y002458D03*
X015238Y002460D03*
D207*
X016414Y002458D03*
X013392Y002555D03*
D208*
X015267Y002560D03*
X016304Y002460D03*
X016307Y002463D03*
D209*
X014020Y002530D03*
X011683Y002493D03*
X010670Y002465D03*
X010670Y002463D03*
D210*
X012454Y002490D03*
X013397Y002563D03*
X014112Y003353D03*
X015239Y002463D03*
X012624Y003958D03*
D211*
X012257Y002735D03*
X011679Y002465D03*
X011579Y002630D03*
X013374Y002520D03*
X013829Y002660D03*
X014007Y002495D03*
X015407Y003305D03*
D212*
X016403Y003150D03*
X014008Y002498D03*
X012445Y002465D03*
X012255Y002733D03*
D213*
X013397Y002565D03*
X014022Y002533D03*
X015239Y002465D03*
X016319Y002615D03*
D214*
X016308Y002465D03*
D215*
X012455Y002493D03*
X011683Y002495D03*
X010670Y002470D03*
X010670Y002468D03*
D216*
X012445Y002468D03*
X013828Y002658D03*
X014008Y002500D03*
D217*
X014023Y002538D03*
X013400Y002573D03*
X011685Y002500D03*
X010670Y002478D03*
X015240Y002468D03*
D218*
X015269Y002563D03*
X016312Y002468D03*
X016314Y002470D03*
X016317Y002473D03*
D219*
X015418Y003338D03*
X015060Y002630D03*
X013860Y002730D03*
X013350Y002470D03*
X013138Y003020D03*
X012298Y002835D03*
X012320Y002675D03*
X012320Y002673D03*
X012323Y002668D03*
X011503Y002778D03*
X011503Y002780D03*
X011503Y002783D03*
X011503Y002785D03*
X011500Y002788D03*
X011500Y002790D03*
X011500Y002793D03*
X011500Y002795D03*
X010375Y002603D03*
X012128Y003958D03*
D220*
X013404Y002578D03*
X014027Y002543D03*
X015242Y002470D03*
X010669Y002485D03*
X010669Y002488D03*
D221*
X010670Y002473D03*
X011685Y002498D03*
X013398Y002568D03*
X014023Y002535D03*
D222*
X014027Y002545D03*
X013407Y002583D03*
X012459Y002503D03*
X011687Y002508D03*
X010669Y002493D03*
X015242Y002473D03*
D223*
X013399Y002570D03*
X012457Y002495D03*
X010669Y002475D03*
D224*
X011682Y002478D03*
X012249Y002715D03*
X012449Y002475D03*
X013382Y002535D03*
X012419Y004028D03*
D225*
X013410Y002590D03*
X015243Y002475D03*
X010670Y002500D03*
D226*
X012428Y004000D03*
X016318Y002475D03*
X016320Y002478D03*
X016323Y002480D03*
D227*
X015243Y002478D03*
X014030Y002555D03*
X013413Y002595D03*
X010670Y002505D03*
D228*
X010669Y002483D03*
X010669Y002480D03*
X012457Y002498D03*
X013402Y002575D03*
X014024Y002540D03*
D229*
X013417Y002600D03*
X011689Y002518D03*
X015244Y002480D03*
D230*
X015243Y002483D03*
X014035Y002565D03*
X013420Y002608D03*
X012465Y002518D03*
X010670Y002520D03*
X010670Y002523D03*
D231*
X015269Y002565D03*
X016327Y002483D03*
D232*
X015245Y002485D03*
X014035Y002568D03*
X013230Y003033D03*
X012465Y002520D03*
X011690Y002525D03*
X010670Y002528D03*
X010670Y002530D03*
D233*
X015270Y002568D03*
X016328Y002485D03*
X016330Y002488D03*
X016333Y002490D03*
X016335Y002493D03*
D234*
X015247Y002488D03*
X014039Y002575D03*
D235*
X013405Y002580D03*
X012420Y004023D03*
X011685Y002505D03*
X010670Y002490D03*
D236*
X011692Y002533D03*
X012469Y002528D03*
X013229Y003045D03*
X015247Y002490D03*
D237*
X015248Y002493D03*
X014043Y002583D03*
X013230Y003055D03*
X012470Y002533D03*
D238*
X013408Y002585D03*
X014028Y002548D03*
X016330Y002613D03*
X010670Y002495D03*
D239*
X011693Y002540D03*
X013230Y003063D03*
X013230Y003065D03*
X014045Y002588D03*
X015248Y002495D03*
D240*
X016337Y002495D03*
X016339Y002498D03*
X016342Y002500D03*
X016344Y002503D03*
D241*
X014029Y002550D03*
X013409Y002588D03*
X012459Y002505D03*
X011687Y002510D03*
X010669Y002498D03*
D242*
X011693Y002543D03*
X012473Y002538D03*
X013230Y003070D03*
X013230Y003073D03*
X014045Y002590D03*
X015248Y002498D03*
D243*
X014028Y003208D03*
X012458Y002500D03*
X011685Y002503D03*
D244*
X011694Y002548D03*
X012474Y002543D03*
X013232Y003083D03*
X013232Y003085D03*
X014049Y002598D03*
X015249Y002500D03*
D245*
X014029Y002553D03*
X013412Y002593D03*
X012462Y002508D03*
X011687Y002513D03*
X010669Y002503D03*
D246*
X011694Y002550D03*
X012424Y004015D03*
X015249Y002503D03*
X016347Y003178D03*
X016349Y003180D03*
X016354Y003188D03*
X016357Y003190D03*
X016359Y003193D03*
X016359Y003195D03*
X016362Y003198D03*
X016364Y003200D03*
X016369Y003208D03*
X016372Y003210D03*
X016377Y003218D03*
D247*
X016413Y003268D03*
X016418Y003275D03*
X016423Y003283D03*
X016425Y003285D03*
X016425Y003288D03*
X016428Y003290D03*
X016430Y003293D03*
X016430Y003295D03*
X016433Y003298D03*
X016435Y003300D03*
X016435Y003303D03*
X016438Y003305D03*
X016440Y003310D03*
X016443Y003313D03*
X016445Y003318D03*
X015250Y002505D03*
X012478Y002550D03*
X011695Y002555D03*
D248*
X015270Y002570D03*
X016345Y002505D03*
D249*
X014032Y002558D03*
X013414Y002598D03*
X012462Y002510D03*
X010669Y002508D03*
D250*
X012478Y002553D03*
X015250Y002508D03*
X016455Y003335D03*
X016458Y003340D03*
X016460Y003345D03*
X016463Y003350D03*
D251*
X016357Y002515D03*
X016354Y002513D03*
X016352Y002510D03*
X016349Y002508D03*
X015272Y002573D03*
D252*
X012463Y002513D03*
X011688Y002515D03*
X010670Y002513D03*
X010670Y002510D03*
D253*
X011698Y002563D03*
X012480Y002558D03*
X015253Y002510D03*
D254*
X015253Y002513D03*
X012480Y002560D03*
X011698Y002565D03*
D255*
X010670Y002518D03*
X010670Y002515D03*
X013418Y002603D03*
X014033Y002560D03*
X014045Y003210D03*
D256*
X014034Y002563D03*
X013419Y002605D03*
X013232Y003025D03*
X012464Y002515D03*
X011689Y002520D03*
X012422Y004020D03*
D257*
X012483Y002563D03*
X015253Y002515D03*
D258*
X015254Y002518D03*
X012484Y002568D03*
X011699Y002573D03*
D259*
X016358Y002518D03*
X016360Y002520D03*
X016363Y002523D03*
X016365Y002525D03*
D260*
X015255Y002520D03*
X012485Y002570D03*
X011700Y002575D03*
D261*
X011689Y002523D03*
X010672Y002525D03*
X013232Y003028D03*
X013232Y003030D03*
X013422Y002610D03*
D262*
X013232Y003035D03*
X012467Y002523D03*
X014037Y002570D03*
X014052Y003213D03*
X014052Y003215D03*
X014052Y003218D03*
X014054Y003223D03*
X014054Y003225D03*
X014054Y003228D03*
X014054Y003230D03*
X014057Y003235D03*
X014057Y003238D03*
X014057Y003240D03*
X014057Y003243D03*
X014059Y003248D03*
X014059Y003250D03*
X014059Y003253D03*
X014062Y003258D03*
X014062Y003260D03*
X014062Y003263D03*
X014062Y003265D03*
X014064Y003270D03*
X014064Y003273D03*
X014064Y003275D03*
X014064Y003278D03*
X014067Y003283D03*
X014067Y003285D03*
X014067Y003288D03*
X014069Y003295D03*
X014069Y003298D03*
X014069Y003300D03*
X014072Y003308D03*
X014072Y003310D03*
X014072Y003313D03*
X014074Y003320D03*
X014074Y003323D03*
X014077Y003333D03*
X014077Y003335D03*
X014079Y003345D03*
X014079Y003348D03*
X010672Y002533D03*
D263*
X012425Y004010D03*
X015255Y002523D03*
D264*
X014040Y002578D03*
X013230Y003040D03*
X013230Y003043D03*
X012468Y002525D03*
X011690Y002530D03*
D265*
X012489Y002580D03*
X015257Y002525D03*
D266*
X014038Y002573D03*
X014053Y003220D03*
X014055Y003233D03*
X014058Y003245D03*
X014060Y003255D03*
X014063Y003268D03*
X014065Y003280D03*
X014068Y003290D03*
X014068Y003293D03*
X014070Y003303D03*
X014070Y003305D03*
X014073Y003315D03*
X014073Y003318D03*
X014075Y003325D03*
X014075Y003328D03*
X014075Y003330D03*
X014078Y003338D03*
X014078Y003340D03*
X014078Y003343D03*
X014080Y003350D03*
X013230Y003038D03*
X011690Y002528D03*
X010670Y002535D03*
D267*
X012419Y004025D03*
X013394Y002560D03*
X014019Y002528D03*
D268*
X015257Y002528D03*
X012489Y002583D03*
X011704Y002588D03*
D269*
X012429Y003998D03*
X015272Y002575D03*
X016367Y002528D03*
X016369Y002530D03*
X016372Y002533D03*
X016374Y002535D03*
X016377Y002538D03*
D270*
X014042Y002580D03*
X013229Y003053D03*
X012469Y002530D03*
X011692Y002535D03*
X012424Y004018D03*
D271*
X012490Y002585D03*
X015258Y002530D03*
D272*
X015259Y002533D03*
X012427Y004008D03*
D273*
X013229Y003068D03*
X012472Y002535D03*
D274*
X012494Y002593D03*
X011707Y002598D03*
X015259Y002535D03*
D275*
X014044Y002585D03*
X013229Y003058D03*
X013229Y003060D03*
X011692Y002538D03*
D276*
X012495Y002595D03*
X015260Y002538D03*
D277*
X014048Y002595D03*
X012473Y002540D03*
D278*
X011708Y002603D03*
X015260Y002540D03*
D279*
X016378Y002540D03*
X016380Y002543D03*
X016383Y002545D03*
X016385Y002548D03*
X016388Y002550D03*
D280*
X015262Y002543D03*
X012427Y004005D03*
X011709Y002608D03*
D281*
X011694Y002545D03*
X013232Y003075D03*
X013232Y003078D03*
X013232Y003080D03*
X014047Y002593D03*
D282*
X014050Y002600D03*
X012475Y002545D03*
X016335Y003163D03*
X016338Y003165D03*
X016340Y003168D03*
X016340Y003170D03*
X016343Y003173D03*
X016345Y003175D03*
X016350Y003183D03*
X016353Y003185D03*
D283*
X015263Y002545D03*
X011710Y002610D03*
D284*
X012477Y002548D03*
X016384Y003228D03*
X016389Y003235D03*
X016392Y003238D03*
X016397Y003245D03*
X016399Y003248D03*
X016402Y003253D03*
X016404Y003255D03*
X016407Y003258D03*
X016407Y003260D03*
X016409Y003263D03*
X016412Y003265D03*
X016414Y003270D03*
X016417Y003273D03*
X016419Y003278D03*
X016422Y003280D03*
D285*
X015263Y002548D03*
X011710Y002615D03*
D286*
X011712Y002618D03*
X015264Y002550D03*
D287*
X014050Y002603D03*
X011695Y002553D03*
X016365Y003203D03*
X016368Y003205D03*
X016373Y003213D03*
X016375Y003215D03*
X016378Y003220D03*
X016380Y003223D03*
X016383Y003225D03*
X016385Y003230D03*
X016388Y003233D03*
X016393Y003240D03*
X016395Y003243D03*
X016400Y003250D03*
D288*
X015265Y002553D03*
X012428Y004003D03*
X011713Y002623D03*
D289*
X015274Y002578D03*
X016389Y002553D03*
X016392Y002555D03*
X016394Y002558D03*
X016397Y002560D03*
X016399Y002563D03*
D290*
X012479Y002555D03*
X011697Y002560D03*
D291*
X015267Y002555D03*
D292*
X016439Y003308D03*
X016444Y003315D03*
X016447Y003320D03*
X016449Y003323D03*
X016449Y003325D03*
X016452Y003328D03*
X016452Y003330D03*
X016454Y003333D03*
X016457Y003338D03*
X016459Y003343D03*
X016462Y003348D03*
X011697Y002558D03*
D293*
X015267Y002558D03*
D294*
X012484Y002565D03*
X011699Y002570D03*
D295*
X016400Y002565D03*
X016403Y002568D03*
X016405Y002570D03*
X016408Y002573D03*
X016410Y002575D03*
D296*
X011699Y002568D03*
D297*
X011702Y002578D03*
X012487Y002573D03*
D298*
X012487Y002575D03*
X011702Y002580D03*
D299*
X011703Y002583D03*
X012488Y002578D03*
D300*
X016412Y002578D03*
X016414Y002580D03*
X016417Y002583D03*
X016419Y002585D03*
X016422Y002588D03*
X016424Y002593D03*
X016427Y002595D03*
X016429Y002598D03*
X016432Y002600D03*
D301*
X011703Y002585D03*
D302*
X011705Y002593D03*
X012493Y002588D03*
D303*
X011704Y002590D03*
D304*
X011705Y002595D03*
X012493Y002590D03*
D305*
X016423Y002590D03*
X016433Y002603D03*
X016435Y002605D03*
X016438Y002608D03*
X016440Y002610D03*
D306*
X012497Y002598D03*
X011707Y002600D03*
D307*
X011709Y002605D03*
X012497Y002600D03*
D308*
X011709Y002613D03*
D309*
X011712Y002620D03*
D310*
X011125Y003340D03*
X010133Y002738D03*
X010133Y002735D03*
X010133Y002733D03*
X010130Y002728D03*
X010130Y002725D03*
X010130Y002723D03*
X014403Y002768D03*
X014550Y002708D03*
X015445Y003033D03*
X016853Y002765D03*
D311*
X013230Y003048D03*
X013230Y003050D03*
D312*
X012415Y003960D03*
D313*
X012418Y003963D03*
D314*
X012422Y003965D03*
D315*
X012424Y003968D03*
D316*
X012428Y003970D03*
D317*
X012430Y003973D03*
D318*
X012434Y003975D03*
D319*
X012433Y003978D03*
D320*
X012433Y003980D03*
D321*
X012433Y003983D03*
D322*
X012433Y003985D03*
D323*
X012432Y003988D03*
D324*
X012430Y003990D03*
D325*
X012429Y003993D03*
D326*
X012430Y003995D03*
D327*
X012424Y004013D03*
D328*
X009624Y001215D02*
X009624Y001214D01*
X009623Y001213D01*
X009621Y001213D01*
X009619Y001215D02*
X009619Y001213D01*
X009618Y001213D02*
X009618Y001215D01*
X009619Y001216D01*
X009619Y001215D01*
X009618Y001215D02*
X009617Y001216D01*
X009616Y001216D01*
X009616Y001213D01*
X009615Y001214D02*
X009615Y001215D01*
X009614Y001216D01*
X009612Y001216D01*
X009612Y001218D02*
X009612Y001213D01*
X009614Y001213D01*
X009615Y001214D01*
X009610Y001214D02*
X009610Y001213D01*
X009609Y001213D01*
X009609Y001214D01*
X009610Y001214D01*
X009608Y001213D02*
X009606Y001213D01*
X009607Y001213D02*
X009607Y001218D01*
X009606Y001218D02*
X009608Y001218D01*
X009605Y001217D02*
X009605Y001215D01*
X009604Y001214D01*
X009602Y001214D01*
X009602Y001213D02*
X009602Y001218D01*
X009604Y001218D01*
X009605Y001217D01*
X009600Y001217D02*
X009599Y001218D01*
X009597Y001218D01*
X009597Y001213D01*
X009599Y001213D01*
X009600Y001214D01*
X009600Y001217D01*
X009596Y001217D02*
X009592Y001214D01*
X009593Y001213D01*
X009595Y001213D01*
X009596Y001214D01*
X009596Y001217D01*
X009595Y001218D01*
X009593Y001218D01*
X009592Y001217D01*
X009592Y001214D01*
X009591Y001214D02*
X009590Y001213D01*
X009589Y001213D01*
X009588Y001214D01*
X009591Y001217D01*
X009591Y001214D01*
X009591Y001217D02*
X009590Y001218D01*
X009589Y001218D01*
X009588Y001217D01*
X009588Y001214D01*
X009586Y001214D02*
X009586Y001215D01*
X009583Y001215D01*
X009583Y001214D01*
X009584Y001213D01*
X009586Y001213D01*
X009586Y001214D01*
X009586Y001214D01*
X009585Y001217D02*
X009583Y001215D01*
X009582Y001215D02*
X009579Y001215D01*
X009577Y001216D02*
X009575Y001216D01*
X009574Y001216D02*
X009573Y001216D01*
X009572Y001214D01*
X009572Y001213D02*
X009572Y001216D01*
X009570Y001216D02*
X009570Y001213D01*
X009570Y001215D02*
X009567Y001215D01*
X009567Y001216D02*
X009569Y001218D01*
X009570Y001216D01*
X009567Y001216D02*
X009567Y001213D01*
X009566Y001213D02*
X009566Y001216D01*
X009566Y001213D02*
X009563Y001213D01*
X009562Y001214D01*
X009562Y001216D01*
X009561Y001218D02*
X009558Y001213D01*
X009557Y001213D02*
X009554Y001213D01*
X009553Y001214D01*
X009554Y001214D01*
X009557Y001214D01*
X009557Y001215D02*
X009557Y001213D01*
X009557Y001215D02*
X009556Y001216D01*
X009554Y001216D01*
X009552Y001216D02*
X009549Y001216D01*
X009549Y001215D01*
X009549Y001214D01*
X009549Y001213D01*
X009552Y001213D01*
X009552Y001212D02*
X009552Y001216D01*
X009552Y001212D02*
X009551Y001211D01*
X009550Y001211D01*
X009547Y001214D02*
X009547Y001215D01*
X009547Y001216D01*
X009545Y001216D01*
X009544Y001215D01*
X009544Y001214D01*
X009545Y001213D01*
X009547Y001213D01*
X009547Y001214D01*
X009543Y001213D02*
X009541Y001213D01*
X009542Y001213D02*
X009542Y001218D01*
X009541Y001218D01*
X009540Y001218D02*
X009536Y001213D01*
X009535Y001213D02*
X009535Y001215D01*
X009534Y001216D01*
X009532Y001216D01*
X009532Y001213D01*
X009530Y001213D02*
X009529Y001213D01*
X009529Y001218D01*
X009529Y001218D01*
X009527Y001216D02*
X009527Y001215D01*
X009527Y001214D01*
X009524Y001214D01*
X009524Y001215D01*
X009525Y001216D01*
X009527Y001216D01*
X009527Y001213D02*
X009525Y001213D01*
X009524Y001214D01*
X009523Y001212D02*
X009519Y001212D01*
X009518Y001212D02*
X009517Y001211D01*
X009517Y001211D01*
X009518Y001212D02*
X009518Y001216D01*
X009515Y001216D02*
X009515Y001214D01*
X009516Y001213D01*
X009518Y001213D01*
X009514Y001213D02*
X009511Y001213D01*
X009510Y001214D01*
X009510Y001215D01*
X009511Y001216D01*
X009514Y001216D01*
X009514Y001218D02*
X009514Y001213D01*
X009509Y001213D02*
X009506Y001213D01*
X009506Y001214D01*
X009506Y001214D01*
X009509Y001214D01*
X009509Y001215D02*
X009509Y001213D01*
X009509Y001215D02*
X009508Y001216D01*
X009506Y001216D01*
X009503Y001218D02*
X009503Y001213D01*
X009504Y001213D01*
X009501Y001213D02*
X009499Y001214D01*
X009501Y001216D01*
X009503Y001218D02*
X009503Y001218D01*
X009499Y001218D02*
X009499Y001213D01*
X009497Y001213D02*
X009495Y001213D01*
X009494Y001214D01*
X009495Y001214D01*
X009497Y001214D01*
X009497Y001215D02*
X009497Y001213D01*
X009497Y001215D02*
X009497Y001216D01*
X009495Y001216D01*
X009493Y001216D02*
X009490Y001213D01*
X009493Y001213D01*
X009493Y001216D02*
X009490Y001216D01*
X009488Y001218D02*
X009485Y001213D01*
X009484Y001214D02*
X009483Y001214D01*
X009481Y001214D01*
X009480Y001215D01*
X009481Y001216D01*
X009484Y001216D01*
X009484Y001214D02*
X009483Y001213D01*
X009480Y001213D01*
X009479Y001213D02*
X009478Y001214D01*
X009478Y001217D01*
X009477Y001216D02*
X009479Y001216D01*
X009476Y001215D02*
X009476Y001213D01*
X009476Y001215D02*
X009475Y001216D01*
X009473Y001216D01*
X009473Y001213D01*
X009471Y001214D02*
X009468Y001214D01*
X009468Y001215D01*
X009469Y001216D01*
X009471Y001216D01*
X009471Y001215D01*
X009471Y001214D01*
X009471Y001213D02*
X009469Y001213D01*
X009468Y001214D01*
X009467Y001215D02*
X009467Y001213D01*
X009465Y001215D02*
X009465Y001213D01*
X009463Y001213D02*
X009463Y001216D01*
X009464Y001216D01*
X009465Y001215D01*
X009466Y001216D01*
X009467Y001215D01*
X009462Y001213D02*
X009462Y001216D01*
X009459Y001216D02*
X009459Y001214D01*
X009460Y001213D01*
X009462Y001213D01*
X009458Y001213D02*
X009455Y001213D01*
X009454Y001214D01*
X009454Y001215D01*
X009455Y001216D01*
X009458Y001216D01*
X009453Y001215D02*
X009452Y001216D01*
X009450Y001216D01*
X009450Y001215D01*
X009450Y001214D01*
X009450Y001213D01*
X009452Y001213D01*
X009453Y001214D01*
X009453Y001215D01*
X009448Y001214D02*
X009448Y001217D01*
X009448Y001218D01*
X009445Y001218D01*
X009445Y001213D01*
X009448Y001213D01*
X009448Y001214D01*
X009444Y001218D02*
X009440Y001213D01*
X009439Y001214D02*
X009439Y001215D01*
X009438Y001216D01*
X009437Y001216D01*
X009436Y001215D01*
X009436Y001214D01*
X009437Y001213D01*
X009438Y001213D01*
X009439Y001214D01*
X009435Y001213D02*
X009432Y001213D01*
X009431Y001214D01*
X009431Y001215D01*
X009432Y001216D01*
X009435Y001216D01*
X009430Y001216D02*
X009427Y001216D01*
X009427Y001215D01*
X009427Y001214D01*
X009429Y001214D01*
X009430Y001214D01*
X009429Y001213D01*
X009427Y001213D01*
X009425Y001213D02*
X009423Y001213D01*
X009422Y001214D01*
X009423Y001214D01*
X009425Y001214D01*
X009425Y001215D02*
X009425Y001213D01*
X009425Y001215D02*
X009425Y001216D01*
X009423Y001216D01*
X009421Y001216D02*
X009419Y001213D01*
X009417Y001216D01*
X009416Y001218D02*
X009413Y001213D01*
X009412Y001214D02*
X009411Y001214D01*
X009409Y001214D01*
X009408Y001215D01*
X009409Y001216D01*
X009412Y001216D01*
X009412Y001214D02*
X009411Y001213D01*
X009408Y001213D01*
X009406Y001216D02*
X009407Y001216D01*
X009406Y001216D02*
X009404Y001214D01*
X009403Y001214D02*
X009400Y001214D01*
X009400Y001215D01*
X009401Y001216D01*
X009402Y001216D01*
X009403Y001215D01*
X009403Y001214D01*
X009402Y001213D02*
X009401Y001213D01*
X009400Y001214D01*
X009398Y001214D02*
X009398Y001214D01*
X009396Y001214D01*
X009395Y001215D01*
X009396Y001216D01*
X009398Y001216D01*
X009398Y001214D02*
X009398Y001213D01*
X009395Y001213D01*
X009394Y001214D02*
X009394Y001218D01*
X009391Y001218D02*
X009391Y001214D01*
X009391Y001213D01*
X009393Y001213D01*
X009394Y001214D01*
X009389Y001218D02*
X009386Y001213D01*
X009385Y001214D02*
X009385Y001217D01*
X009384Y001218D01*
X009381Y001218D01*
X009381Y001213D01*
X009384Y001213D01*
X009385Y001214D01*
X009380Y001214D02*
X009380Y001217D01*
X009379Y001218D01*
X009377Y001218D01*
X009377Y001213D01*
X009379Y001213D01*
X009380Y001214D01*
X009375Y001215D02*
X009372Y001215D01*
X009371Y001215D02*
X009371Y001213D01*
X009368Y001213D01*
X009368Y001214D01*
X009371Y001214D01*
X009371Y001215D02*
X009370Y001216D01*
X009368Y001216D01*
X009368Y001214D02*
X009368Y001214D01*
X009366Y001213D02*
X009365Y001214D01*
X009365Y001217D01*
X009364Y001216D02*
X009366Y001216D01*
X009363Y001215D02*
X009363Y001213D01*
X009361Y001213D01*
X009360Y001214D01*
X009361Y001214D01*
X009363Y001214D01*
X009363Y001215D02*
X009362Y001216D01*
X009361Y001216D01*
X009359Y001217D02*
X009358Y001218D01*
X009355Y001218D01*
X009355Y001213D01*
X009358Y001213D01*
X009359Y001214D01*
X009359Y001217D01*
X009354Y001218D02*
X009351Y001213D01*
X009349Y001214D02*
X009349Y001214D01*
X009347Y001214D01*
X009346Y001215D01*
X009347Y001216D01*
X009349Y001216D01*
X009349Y001214D02*
X009349Y001213D01*
X009346Y001213D01*
X009345Y001214D02*
X009341Y001214D01*
X009341Y001215D01*
X009342Y001216D01*
X009344Y001216D01*
X009345Y001215D01*
X009345Y001214D01*
X009344Y001213D02*
X009342Y001213D01*
X009341Y001214D01*
X009340Y001215D02*
X009340Y001213D01*
X009339Y001213D02*
X009339Y001215D01*
X009339Y001216D01*
X009340Y001215D01*
X009339Y001215D02*
X009338Y001216D01*
X009337Y001216D01*
X009337Y001213D01*
X009336Y001213D02*
X009336Y001216D01*
X009336Y001213D02*
X009333Y001213D01*
X009332Y001214D01*
X009332Y001216D01*
X009330Y001218D02*
X009330Y001213D01*
X009329Y001213D02*
X009331Y001213D01*
X009328Y001214D02*
X009328Y001215D01*
X009327Y001216D01*
X009325Y001216D01*
X009325Y001215D01*
X009325Y001214D01*
X009325Y001213D01*
X009327Y001213D01*
X009328Y001214D01*
X009329Y001218D02*
X009330Y001218D01*
X009323Y001218D02*
X009323Y001214D01*
X009322Y001213D01*
X009320Y001214D01*
X009320Y001218D01*
X009319Y001218D02*
X009315Y001213D01*
X009372Y001213D02*
X009372Y001218D01*
X009375Y001218D02*
X009375Y001213D01*
X009404Y001213D02*
X009404Y001216D01*
X009576Y001217D02*
X009576Y001214D01*
X009577Y001213D01*
X009585Y001217D02*
X009586Y001218D01*
X009621Y001216D02*
X009623Y001216D01*
X009624Y001215D01*
X009621Y001216D02*
X009621Y001211D01*
M02*
