%
M48
M72
T01C0.0157
T02C0.0354
T03C0.0400
T04C0.1181
T05C0.1280
%
T01
X1150Y4225
X4650Y7725
X6811Y7391
X6969Y6997
X9310Y6976
X9705Y6387
X9310Y6032
X9874Y5402
X10217Y6702
X11650Y5725
X12650Y5225
X12670Y3926
X10150Y1225
X7540Y4536
X7020Y4536
X9469Y8454
X10296Y8985
X9874Y9694
X11477Y8139
X13150Y8631
X15737Y8316
X12886Y11989
X11902Y14162
X10406Y16040
X10150Y16544
X9646Y12076
X7264Y9713
X4150Y13225
X1150Y15725
X1150Y18225
X4650Y21225
X8150Y21225
X11650Y21225
X15150Y21225
X21150Y18225
X15697Y13591
X21150Y11225
T02
X7524Y2410
X7524Y1410
X6524Y1410
X6524Y2410
X5524Y2410
X5524Y1410
T03
X2174Y5406
X2174Y6406
X2174Y7406
X2174Y8406
X5900Y15540
X6900Y15540
X6400Y16540
X5400Y16540
X7400Y16540
X7900Y15540
X11400Y16540
X11900Y15540
X12400Y16540
X13400Y16540
X12900Y15540
X13900Y15540
X14650Y12225
X14650Y11225
X14650Y10225
X14650Y7225
X14650Y6225
X14650Y5225
X18150Y4225
X18150Y3225
X18150Y2225
X18150Y6725
X18150Y7725
X18150Y8725
X18150Y11225
X18150Y12225
X18150Y13225
X18150Y15725
X18150Y16725
X18150Y17725
X17756Y20745
X16756Y20745
T04
X1725Y1800
X20622Y1800
X20622Y20698
X1725Y20698
T05
X4650Y19040
X8650Y19040
X10650Y19040
X14650Y19040
M30
