G75*
G70*
%OFA0B0*%
%FSLAX24Y24*%
%IPPOS*%
%LPD*%
%AMOC8*
5,1,8,0,0,1.08239X$1,22.5*
%
%ADD10C,0.0720*%
%ADD11C,0.2380*%
%ADD12C,0.0820*%
%ADD13C,0.1360*%
%ADD14R,0.0820X0.0820*%
%ADD15OC8,0.0397*%
D10*
X005524Y001410D03*
X005524Y002410D03*
X006524Y002410D03*
X006524Y001410D03*
X007524Y001410D03*
X007524Y002410D03*
D11*
X001725Y001800D03*
X020622Y001800D03*
X020622Y020698D03*
X001725Y020698D03*
D12*
X005400Y016540D03*
X006400Y016540D03*
X007400Y016540D03*
X006900Y015540D03*
X005900Y015540D03*
X007900Y015540D03*
X011400Y016540D03*
X011900Y015540D03*
X012400Y016540D03*
X013400Y016540D03*
X012900Y015540D03*
X013900Y015540D03*
X014650Y012225D03*
X014650Y011225D03*
X018150Y012225D03*
X018150Y013225D03*
X018150Y016725D03*
X018150Y017725D03*
X017756Y020745D03*
X018150Y008725D03*
X018150Y007725D03*
X014650Y007225D03*
X014650Y006225D03*
X018150Y004225D03*
X018150Y003225D03*
X002174Y005406D03*
X002174Y006406D03*
X002174Y007406D03*
D13*
X004650Y019040D03*
X008650Y019040D03*
X010650Y019040D03*
X014650Y019040D03*
D14*
X016756Y020745D03*
X018150Y015725D03*
X018150Y011225D03*
X014650Y010225D03*
X018150Y006725D03*
X014650Y005225D03*
X018150Y002225D03*
X002174Y008406D03*
D15*
X004650Y007725D03*
X006811Y007391D03*
X006969Y006997D03*
X009310Y006976D03*
X009705Y006387D03*
X009310Y006032D03*
X009874Y005402D03*
X010217Y006702D03*
X011650Y005725D03*
X012650Y005225D03*
X012670Y003926D03*
X010150Y001225D03*
X007540Y004536D03*
X007020Y004536D03*
X009469Y008454D03*
X010296Y008985D03*
X009874Y009694D03*
X011477Y008139D03*
X013150Y008631D03*
X015737Y008316D03*
X012886Y011989D03*
X011902Y014162D03*
X010406Y016040D03*
X010150Y016544D03*
X009646Y012076D03*
X007264Y009713D03*
X004150Y013225D03*
X001150Y015725D03*
X001150Y018225D03*
X004650Y021225D03*
X008150Y021225D03*
X011650Y021225D03*
X015150Y021225D03*
X021150Y018225D03*
X015697Y013591D03*
X021150Y011225D03*
X001150Y004225D03*
M02*
