G75*
G70*
%OFA0B0*%
%FSLAX24Y24*%
%IPPOS*%
%LPD*%
%AMOC8*
5,1,8,0,0,1.08239X$1,22.5*
%
%ADD10R,0.0280X0.0660*%
%ADD11R,0.0660X0.0280*%
%ADD12R,0.0474X0.0513*%
%ADD13R,0.0513X0.0474*%
%ADD14R,0.2180X0.0840*%
%ADD15R,0.0316X0.0671*%
%ADD16R,0.0710X0.0631*%
%ADD17C,0.0720*%
%ADD18R,0.0395X0.0395*%
%ADD19R,0.0540X0.0710*%
%ADD20R,0.0060X0.0720*%
%ADD21C,0.2380*%
%ADD22C,0.0820*%
%ADD23C,0.1360*%
%ADD24R,0.0820X0.0820*%
%ADD25OC8,0.0397*%
D10*
X008050Y004605D03*
X008360Y004605D03*
X008680Y004605D03*
X008990Y004605D03*
X009310Y004605D03*
X009620Y004605D03*
X009940Y004605D03*
X010250Y004605D03*
X010250Y007845D03*
X009940Y007845D03*
X009620Y007845D03*
X009310Y007845D03*
X008990Y007845D03*
X008680Y007845D03*
X008360Y007845D03*
X008050Y007845D03*
D11*
X007530Y007325D03*
X007530Y007015D03*
X007530Y006695D03*
X007530Y006385D03*
X007530Y006065D03*
X007530Y005755D03*
X007530Y005435D03*
X007530Y005125D03*
X010770Y005125D03*
X010770Y005435D03*
X010770Y005755D03*
X010770Y006065D03*
X010770Y006385D03*
X010770Y006695D03*
X010770Y007015D03*
X010770Y007325D03*
D12*
X012292Y006954D03*
X012961Y006954D03*
X011477Y008973D03*
X010807Y008973D03*
X011315Y012804D03*
X011985Y012804D03*
X010315Y013757D03*
X009646Y013757D03*
X006489Y009150D03*
X005819Y009150D03*
X006485Y003674D03*
X007154Y003674D03*
X016292Y005229D03*
X016292Y005898D03*
X019941Y006721D03*
X019941Y007391D03*
X019941Y004556D03*
X019941Y003887D03*
X019941Y010166D03*
X019941Y010835D03*
X016311Y010894D03*
X016311Y010225D03*
X016162Y015702D03*
X016162Y016371D03*
D13*
X012650Y011241D03*
X012650Y010572D03*
X010315Y012804D03*
X009646Y012804D03*
X009461Y009150D03*
X008792Y009150D03*
X007930Y009150D03*
X007260Y009150D03*
X005044Y009150D03*
X004374Y009150D03*
X002847Y004060D03*
X002178Y004060D03*
X009000Y003461D03*
X009670Y003461D03*
X009670Y002524D03*
X009000Y002524D03*
X012296Y007871D03*
X012965Y007871D03*
D14*
X008400Y011320D03*
X004600Y011320D03*
D15*
X010309Y011989D03*
X010809Y011989D03*
X011309Y011989D03*
X011809Y011989D03*
X011809Y009824D03*
X011309Y009824D03*
X010809Y009824D03*
X010309Y009824D03*
D16*
X006906Y013757D03*
X005725Y013757D03*
X016744Y018910D03*
X017926Y018910D03*
D17*
X007524Y002410D03*
X007524Y001410D03*
X006524Y001410D03*
X006524Y002410D03*
X005524Y002410D03*
X005524Y001410D03*
D18*
X005741Y003674D03*
X005150Y003674D03*
D19*
X005350Y004725D03*
X005950Y004725D03*
X005950Y005725D03*
X005350Y005725D03*
X005350Y006725D03*
X005950Y006725D03*
X005950Y007725D03*
X005350Y007725D03*
D20*
X005650Y007725D03*
X005650Y006725D03*
X005650Y005725D03*
X005650Y004725D03*
D21*
X001725Y001800D03*
X020622Y001800D03*
X020622Y020698D03*
X001725Y020698D03*
D22*
X005400Y016540D03*
X006400Y016540D03*
X007400Y016540D03*
X006900Y015540D03*
X005900Y015540D03*
X007900Y015540D03*
X011400Y016540D03*
X011900Y015540D03*
X012400Y016540D03*
X013400Y016540D03*
X012900Y015540D03*
X013900Y015540D03*
X014650Y012225D03*
X014650Y011225D03*
X018150Y012225D03*
X018150Y013225D03*
X018150Y016725D03*
X018150Y017725D03*
X017756Y020745D03*
X018150Y008725D03*
X018150Y007725D03*
X014650Y007225D03*
X014650Y006225D03*
X018150Y004225D03*
X018150Y003225D03*
X002174Y005406D03*
X002174Y006406D03*
X002174Y007406D03*
D23*
X004650Y019040D03*
X008650Y019040D03*
X010650Y019040D03*
X014650Y019040D03*
D24*
X016756Y020745D03*
X018150Y015725D03*
X018150Y011225D03*
X014650Y010225D03*
X018150Y006725D03*
X014650Y005225D03*
X018150Y002225D03*
X002174Y008406D03*
D25*
X004650Y007725D03*
X006811Y007391D03*
X006969Y006997D03*
X009310Y006976D03*
X009705Y006387D03*
X009310Y006032D03*
X009874Y005402D03*
X010217Y006702D03*
X011650Y005725D03*
X012650Y005225D03*
X012670Y003926D03*
X010150Y001225D03*
X007540Y004536D03*
X007020Y004536D03*
X009469Y008454D03*
X010296Y008985D03*
X009874Y009694D03*
X011477Y008139D03*
X013150Y008631D03*
X015737Y008316D03*
X012886Y011989D03*
X011902Y014162D03*
X010406Y016040D03*
X010150Y016544D03*
X009646Y012076D03*
X007264Y009713D03*
X004150Y013225D03*
X001150Y015725D03*
X001150Y018225D03*
X004650Y021225D03*
X008150Y021225D03*
X011650Y021225D03*
X015150Y021225D03*
X021150Y018225D03*
X015697Y013591D03*
X021150Y011225D03*
X001150Y004225D03*
M02*
