G75*
G70*
%OFA0B0*%
%FSLAX24Y24*%
%IPPOS*%
%LPD*%
%AMOC8*
5,1,8,0,0,1.08239X$1,22.5*
%
%ADD10R,0.0200X0.0580*%
%ADD11R,0.0580X0.0200*%
%ADD12R,0.0394X0.0433*%
%ADD13R,0.0433X0.0394*%
%ADD14R,0.2100X0.0760*%
%ADD15R,0.0236X0.0591*%
%ADD16R,0.0630X0.0551*%
%ADD17C,0.0640*%
%ADD18R,0.0315X0.0315*%
%ADD19R,0.0460X0.0630*%
%ADD20C,0.2300*%
%ADD21C,0.0740*%
%ADD22R,0.0740X0.0740*%
%ADD23C,0.0100*%
%ADD24C,0.0240*%
%ADD25OC8,0.0317*%
D10*
X008050Y004605D03*
X008360Y004605D03*
X008680Y004605D03*
X008990Y004605D03*
X009310Y004605D03*
X009620Y004605D03*
X009940Y004605D03*
X010250Y004605D03*
X010250Y007845D03*
X009940Y007845D03*
X009620Y007845D03*
X009310Y007845D03*
X008990Y007845D03*
X008680Y007845D03*
X008360Y007845D03*
X008050Y007845D03*
D11*
X007530Y007325D03*
X007530Y007015D03*
X007530Y006695D03*
X007530Y006385D03*
X007530Y006065D03*
X007530Y005755D03*
X007530Y005435D03*
X007530Y005125D03*
X010770Y005125D03*
X010770Y005435D03*
X010770Y005755D03*
X010770Y006065D03*
X010770Y006385D03*
X010770Y006695D03*
X010770Y007015D03*
X010770Y007325D03*
D12*
X012292Y006954D03*
X012961Y006954D03*
X011477Y008973D03*
X010807Y008973D03*
X011315Y012804D03*
X011985Y012804D03*
X010315Y013757D03*
X009646Y013757D03*
X006489Y009150D03*
X005819Y009150D03*
X006485Y003674D03*
X007154Y003674D03*
X016292Y005229D03*
X016292Y005898D03*
X019941Y006721D03*
X019941Y007391D03*
X019941Y004556D03*
X019941Y003887D03*
X019941Y010166D03*
X019941Y010835D03*
X016311Y010894D03*
X016311Y010225D03*
X016162Y015702D03*
X016162Y016371D03*
D13*
X012650Y011241D03*
X012650Y010572D03*
X010315Y012804D03*
X009646Y012804D03*
X009461Y009150D03*
X008792Y009150D03*
X007930Y009150D03*
X007260Y009150D03*
X005044Y009150D03*
X004374Y009150D03*
X002847Y004060D03*
X002178Y004060D03*
X009000Y003461D03*
X009670Y003461D03*
X009670Y002524D03*
X009000Y002524D03*
X012296Y007871D03*
X012965Y007871D03*
D14*
X008400Y011320D03*
X004600Y011320D03*
D15*
X010309Y011989D03*
X010809Y011989D03*
X011309Y011989D03*
X011809Y011989D03*
X011809Y009824D03*
X011309Y009824D03*
X010809Y009824D03*
X010309Y009824D03*
D16*
X006906Y013757D03*
X005725Y013757D03*
X016744Y018910D03*
X017926Y018910D03*
D17*
X007524Y002410D03*
X007524Y001410D03*
X006524Y001410D03*
X006524Y002410D03*
X005524Y002410D03*
X005524Y001410D03*
D18*
X005741Y003674D03*
X005150Y003674D03*
D19*
X005350Y004725D03*
X005950Y004725D03*
X005950Y005725D03*
X005350Y005725D03*
X005350Y006725D03*
X005950Y006725D03*
X005950Y007725D03*
X005350Y007725D03*
D20*
X001725Y001800D03*
X020622Y001800D03*
X020622Y020698D03*
X001725Y020698D03*
D21*
X005400Y016540D03*
X006400Y016540D03*
X007400Y016540D03*
X006900Y015540D03*
X005900Y015540D03*
X007900Y015540D03*
X011400Y016540D03*
X011900Y015540D03*
X012400Y016540D03*
X013400Y016540D03*
X012900Y015540D03*
X013900Y015540D03*
X014650Y012225D03*
X014650Y011225D03*
X018150Y012225D03*
X018150Y013225D03*
X018150Y016725D03*
X018150Y017725D03*
X017756Y020745D03*
X018150Y008725D03*
X018150Y007725D03*
X014650Y007225D03*
X014650Y006225D03*
X018150Y004225D03*
X018150Y003225D03*
X002174Y005406D03*
X002174Y006406D03*
X002174Y007406D03*
D22*
X002174Y008406D03*
X014650Y010225D03*
X018150Y011225D03*
X018150Y006725D03*
X014650Y005225D03*
X018150Y002225D03*
X018150Y015725D03*
X016756Y020745D03*
D23*
X017074Y020165D02*
X017213Y020165D01*
X017336Y020288D01*
X017336Y020438D01*
X017360Y020406D01*
X017418Y020348D01*
X017484Y020300D01*
X017557Y020263D01*
X017635Y020238D01*
X017706Y020226D01*
X017706Y020695D01*
X017806Y020695D01*
X017806Y020226D01*
X017878Y020238D01*
X017956Y020263D01*
X018029Y020300D01*
X018095Y020348D01*
X018153Y020406D01*
X018201Y020472D01*
X018238Y020545D01*
X018263Y020623D01*
X018275Y020695D01*
X017806Y020695D01*
X017806Y020795D01*
X017706Y020795D01*
X017706Y021263D01*
X017635Y021252D01*
X017557Y021227D01*
X017484Y021190D01*
X017418Y021142D01*
X017360Y021084D01*
X017336Y021051D01*
X017336Y021202D01*
X017213Y021325D01*
X016299Y021325D01*
X016176Y021202D01*
X016176Y020288D01*
X016299Y020165D01*
X016414Y020165D01*
X016414Y019396D01*
X016343Y019396D01*
X016220Y019273D01*
X016220Y019240D01*
X016171Y019240D01*
X016050Y019190D01*
X015810Y018950D01*
X015734Y018874D01*
X015740Y018897D01*
X015740Y019184D01*
X015666Y019461D01*
X015522Y019709D01*
X015319Y019912D01*
X015071Y020056D01*
X014794Y020130D01*
X014506Y020130D01*
X014229Y020056D01*
X013981Y019912D01*
X013778Y019709D01*
X013634Y019461D01*
X013560Y019184D01*
X013560Y018897D01*
X013634Y018619D01*
X013778Y018371D01*
X013981Y018168D01*
X014229Y018024D01*
X014506Y017950D01*
X014794Y017950D01*
X015071Y018024D01*
X015319Y018168D01*
X015522Y018371D01*
X015666Y018619D01*
X015666Y018622D01*
X015666Y018295D01*
X014265Y016894D01*
X013867Y016894D01*
X013729Y017032D01*
X013515Y017120D01*
X013285Y017120D01*
X013071Y017032D01*
X012908Y016869D01*
X012867Y016769D01*
X012845Y016813D01*
X012797Y016879D01*
X012739Y016937D01*
X012673Y016985D01*
X012600Y017022D01*
X012522Y017047D01*
X012450Y017059D01*
X012450Y016590D01*
X012350Y016590D01*
X012350Y017059D01*
X012278Y017047D01*
X012200Y017022D01*
X012127Y016985D01*
X012061Y016937D01*
X012003Y016879D01*
X011955Y016813D01*
X011933Y016769D01*
X011892Y016869D01*
X011729Y017032D01*
X011515Y017120D01*
X011285Y017120D01*
X011071Y017032D01*
X010908Y016869D01*
X010820Y016656D01*
X010820Y016425D01*
X010908Y016212D01*
X011071Y016048D01*
X011285Y015960D01*
X011500Y015960D01*
X011408Y015869D01*
X011344Y015714D01*
X011297Y015761D01*
X011202Y015800D01*
X010730Y015800D01*
X010709Y015822D01*
X010775Y015887D01*
X010775Y016193D01*
X010559Y016409D01*
X010519Y016409D01*
X010519Y016697D01*
X010303Y016913D01*
X009997Y016913D01*
X009781Y016697D01*
X009781Y016500D01*
X009772Y016478D01*
X007980Y016478D01*
X007980Y016425D02*
X007980Y016656D01*
X007892Y016869D01*
X007729Y017032D01*
X007515Y017120D01*
X007285Y017120D01*
X007071Y017032D01*
X006908Y016869D01*
X006867Y016769D01*
X006845Y016813D01*
X006797Y016879D01*
X006739Y016937D01*
X006673Y016985D01*
X006600Y017022D01*
X006522Y017047D01*
X006450Y017059D01*
X006450Y016590D01*
X006350Y016590D01*
X006350Y017059D01*
X006278Y017047D01*
X006200Y017022D01*
X006127Y016985D01*
X006061Y016937D01*
X006003Y016879D01*
X005955Y016813D01*
X005933Y016769D01*
X005892Y016869D01*
X005729Y017032D01*
X005515Y017120D01*
X005285Y017120D01*
X005071Y017032D01*
X004908Y016869D01*
X004820Y016656D01*
X004820Y016425D01*
X004908Y016212D01*
X005071Y016048D01*
X005285Y015960D01*
X005500Y015960D01*
X005408Y015869D01*
X005320Y015656D01*
X005320Y015425D01*
X005408Y015212D01*
X005571Y015048D01*
X005785Y014960D01*
X006015Y014960D01*
X006229Y015048D01*
X006392Y015212D01*
X006400Y015232D01*
X006408Y015212D01*
X006571Y015048D01*
X006572Y015048D01*
X006572Y014925D01*
X001454Y014925D01*
X001333Y014875D01*
X000963Y014505D01*
X000870Y014412D01*
X000820Y014291D01*
X000820Y005754D01*
X000870Y005633D01*
X001400Y005103D01*
X001521Y005053D01*
X001707Y005053D01*
X001845Y004915D01*
X001918Y004885D01*
X001918Y004467D01*
X001874Y004467D01*
X001751Y004344D01*
X001751Y003776D01*
X001874Y003653D01*
X002217Y003653D01*
X002865Y003005D01*
X002960Y002965D01*
X003542Y002965D01*
X003890Y002618D01*
X003890Y001173D01*
X003930Y001078D01*
X004003Y001005D01*
X004332Y000675D01*
X002497Y000675D01*
X002560Y000712D01*
X002813Y000965D01*
X002992Y001275D01*
X003085Y001621D01*
X003085Y001979D01*
X002992Y002325D01*
X002813Y002635D01*
X002560Y002888D01*
X002250Y003067D01*
X001904Y003160D01*
X001546Y003160D01*
X001200Y003067D01*
X000890Y002888D01*
X000637Y002635D01*
X000600Y002572D01*
X000600Y019926D01*
X000637Y019863D01*
X000890Y019609D01*
X001200Y019430D01*
X001546Y019338D01*
X001904Y019338D01*
X002250Y019430D01*
X002560Y019609D01*
X002813Y019863D01*
X002992Y020173D01*
X003085Y020519D01*
X003085Y020877D01*
X002992Y021223D01*
X002813Y021533D01*
X002560Y021786D01*
X002497Y021822D01*
X019851Y021822D01*
X019787Y021786D01*
X019534Y021533D01*
X019355Y021223D01*
X019262Y020877D01*
X019262Y020519D01*
X019355Y020173D01*
X019534Y019863D01*
X019787Y019609D01*
X020098Y019430D01*
X020443Y019338D01*
X020801Y019338D01*
X021147Y019430D01*
X021458Y019609D01*
X021711Y019863D01*
X021747Y019926D01*
X021747Y002572D01*
X021711Y002635D01*
X021458Y002888D01*
X021147Y003067D01*
X020801Y003160D01*
X020443Y003160D01*
X020098Y003067D01*
X019787Y002888D01*
X019534Y002635D01*
X019355Y002325D01*
X019262Y001979D01*
X019262Y001621D01*
X019355Y001275D01*
X019534Y000965D01*
X019787Y000712D01*
X019851Y000675D01*
X007582Y000675D01*
X007748Y000842D01*
X007788Y000937D01*
X007788Y000946D01*
X007824Y000961D01*
X007973Y001110D01*
X007988Y001146D01*
X008202Y001146D01*
X008297Y001186D01*
X008580Y001469D01*
X008620Y001565D01*
X008620Y002194D01*
X008697Y002118D01*
X009304Y002118D01*
X009382Y002196D01*
X009395Y002188D01*
X009433Y002178D01*
X009621Y002178D01*
X009621Y002476D01*
X009718Y002476D01*
X009718Y002178D01*
X009906Y002178D01*
X009944Y002188D01*
X009978Y002208D01*
X010006Y002235D01*
X010026Y002270D01*
X010036Y002308D01*
X010036Y002476D01*
X009718Y002476D01*
X009718Y002573D01*
X009621Y002573D01*
X009621Y002871D01*
X009433Y002871D01*
X009395Y002861D01*
X009382Y002853D01*
X009304Y002931D01*
X008697Y002931D01*
X008620Y002854D01*
X008620Y003131D01*
X008697Y003055D01*
X009304Y003055D01*
X009382Y003133D01*
X009395Y003125D01*
X009433Y003115D01*
X009621Y003115D01*
X009621Y003413D01*
X009718Y003413D01*
X009718Y003115D01*
X009906Y003115D01*
X009944Y003125D01*
X009978Y003145D01*
X010006Y003172D01*
X010026Y003207D01*
X010036Y003245D01*
X010036Y003413D01*
X009718Y003413D01*
X009718Y003510D01*
X009621Y003510D01*
X009621Y003808D01*
X009433Y003808D01*
X009395Y003798D01*
X009382Y003790D01*
X009304Y003868D01*
X009250Y003868D01*
X009250Y004165D01*
X009310Y004165D01*
X009373Y004165D01*
X009433Y004105D01*
X009680Y004105D01*
X009680Y004045D01*
X009720Y003949D01*
X009861Y003808D01*
X009718Y003808D01*
X009718Y003510D01*
X010036Y003510D01*
X010036Y003633D01*
X010591Y003078D01*
X010664Y003005D01*
X010760Y002965D01*
X017630Y002965D01*
X017658Y002897D01*
X017750Y002805D01*
X017693Y002805D01*
X017570Y002682D01*
X017570Y001768D01*
X017693Y001645D01*
X018607Y001645D01*
X018730Y001768D01*
X018730Y002209D01*
X019981Y003460D01*
X020225Y003460D01*
X020322Y003557D01*
X020377Y003557D01*
X020498Y003607D01*
X020837Y003945D01*
X020930Y004038D01*
X020980Y004160D01*
X020980Y010791D01*
X020930Y010912D01*
X020837Y011005D01*
X020727Y011115D01*
X020605Y011165D01*
X020322Y011165D01*
X020225Y011262D01*
X019981Y011262D01*
X019831Y011412D01*
X019739Y011505D01*
X019617Y011555D01*
X018730Y011555D01*
X018730Y011682D01*
X018607Y011805D01*
X018550Y011805D01*
X018642Y011897D01*
X018730Y012110D01*
X018730Y012341D01*
X021747Y012341D01*
X021747Y012439D02*
X018689Y012439D01*
X018730Y012341D02*
X018642Y012554D01*
X018479Y012717D01*
X018379Y012758D01*
X018423Y012780D01*
X018489Y012829D01*
X018547Y012886D01*
X018595Y012953D01*
X018632Y013026D01*
X018657Y013103D01*
X018669Y013175D01*
X018200Y013175D01*
X018200Y013275D01*
X018669Y013275D01*
X018657Y013347D01*
X018632Y013425D01*
X018595Y013498D01*
X018547Y013564D01*
X018489Y013622D01*
X018423Y013670D01*
X018350Y013707D01*
X018272Y013732D01*
X018200Y013744D01*
X018200Y013275D01*
X018100Y013275D01*
X018100Y013175D01*
X017631Y013175D01*
X017643Y013103D01*
X017668Y013026D01*
X017705Y012953D01*
X017753Y012886D01*
X017811Y012829D01*
X017877Y012780D01*
X017921Y012758D01*
X017821Y012717D01*
X017658Y012554D01*
X017570Y012341D01*
X015158Y012341D01*
X015157Y012347D02*
X015132Y012425D01*
X015095Y012498D01*
X015047Y012564D01*
X014989Y012622D01*
X014923Y012670D01*
X014850Y012707D01*
X014772Y012732D01*
X014700Y012744D01*
X014700Y012275D01*
X015169Y012275D01*
X015157Y012347D01*
X015125Y012439D02*
X017611Y012439D01*
X017570Y012341D02*
X017570Y012110D01*
X017658Y011897D01*
X017750Y011805D01*
X017693Y011805D01*
X017570Y011682D01*
X017570Y010768D01*
X017648Y010690D01*
X017513Y010555D01*
X016692Y010555D01*
X016640Y010607D01*
X016648Y010620D01*
X016658Y010658D01*
X016658Y010846D01*
X016360Y010846D01*
X016360Y010943D01*
X016658Y010943D01*
X016658Y011131D01*
X016648Y011169D01*
X016628Y011203D01*
X016600Y011231D01*
X016566Y011251D01*
X016528Y011261D01*
X016360Y011261D01*
X016360Y010943D01*
X016263Y010943D01*
X016263Y011261D01*
X016095Y011261D01*
X016057Y011251D01*
X016022Y011231D01*
X015995Y011203D01*
X015975Y011169D01*
X015965Y011131D01*
X015965Y010943D01*
X016263Y010943D01*
X016263Y010846D01*
X015965Y010846D01*
X015965Y010658D01*
X015975Y010620D01*
X015983Y010607D01*
X015931Y010555D01*
X015230Y010555D01*
X015230Y010682D01*
X015107Y010805D01*
X015050Y010805D01*
X015142Y010897D01*
X015230Y011110D01*
X015230Y011341D01*
X015142Y011554D01*
X014979Y011717D01*
X014879Y011758D01*
X014923Y011780D01*
X014989Y011829D01*
X015047Y011886D01*
X015095Y011953D01*
X015132Y012026D01*
X015157Y012103D01*
X015169Y012175D01*
X014700Y012175D01*
X014700Y012275D01*
X014600Y012275D01*
X014600Y012175D01*
X014131Y012175D01*
X014143Y012103D01*
X014168Y012026D01*
X014205Y011953D01*
X014253Y011886D01*
X014311Y011829D01*
X014377Y011780D01*
X014421Y011758D01*
X014321Y011717D01*
X014158Y011554D01*
X014111Y011439D01*
X014111Y013318D01*
X014758Y013965D01*
X018702Y013965D01*
X018797Y014005D01*
X019297Y014505D01*
X019370Y014578D01*
X019410Y014673D01*
X019410Y016277D01*
X019370Y016372D01*
X018870Y016872D01*
X018797Y016946D01*
X018702Y016985D01*
X018670Y016985D01*
X018642Y017054D01*
X018479Y017217D01*
X018379Y017258D01*
X018423Y017280D01*
X018489Y017329D01*
X018547Y017386D01*
X018595Y017453D01*
X018632Y017526D01*
X018657Y017603D01*
X018669Y017675D01*
X018200Y017675D01*
X018200Y017775D01*
X018669Y017775D01*
X018657Y017847D01*
X018632Y017925D01*
X018595Y017998D01*
X018547Y018064D01*
X018489Y018122D01*
X018423Y018170D01*
X018350Y018207D01*
X018272Y018232D01*
X018200Y018244D01*
X018200Y017775D01*
X018100Y017775D01*
X018100Y017675D01*
X017631Y017675D01*
X017643Y017603D01*
X017668Y017526D01*
X017705Y017453D01*
X017753Y017386D01*
X017811Y017329D01*
X017877Y017280D01*
X017921Y017258D01*
X017821Y017217D01*
X017658Y017054D01*
X017570Y016841D01*
X017570Y016610D01*
X017658Y016397D01*
X017750Y016305D01*
X017693Y016305D01*
X017570Y016182D01*
X017570Y016032D01*
X016542Y016032D01*
X016491Y016083D01*
X016498Y016096D01*
X016509Y016135D01*
X016509Y016322D01*
X016210Y016322D01*
X016210Y016419D01*
X016509Y016419D01*
X016509Y016607D01*
X016498Y016645D01*
X016479Y016680D01*
X016451Y016707D01*
X016417Y016727D01*
X016378Y016737D01*
X016210Y016737D01*
X016210Y016419D01*
X016113Y016419D01*
X016113Y016322D01*
X015815Y016322D01*
X015815Y016135D01*
X015825Y016096D01*
X015833Y016083D01*
X015755Y016005D01*
X015755Y015398D01*
X015832Y015321D01*
X015832Y015197D01*
X014377Y015197D01*
X014392Y015212D02*
X014229Y015048D01*
X014015Y014960D01*
X013785Y014960D01*
X013571Y015048D01*
X013408Y015212D01*
X013400Y015232D01*
X013392Y015212D01*
X013256Y015076D01*
X013256Y014748D01*
X013990Y014748D01*
X014247Y015005D01*
X014368Y015055D01*
X015690Y015055D01*
X015832Y015197D01*
X015832Y015296D02*
X014427Y015296D01*
X014392Y015212D02*
X014480Y015425D01*
X014480Y015656D01*
X014392Y015869D01*
X014229Y016032D01*
X014015Y016120D01*
X013800Y016120D01*
X013892Y016212D01*
X013901Y016234D01*
X014468Y016234D01*
X014589Y016284D01*
X014682Y016377D01*
X016276Y017971D01*
X016326Y018093D01*
X016326Y018441D01*
X016343Y018425D01*
X017146Y018425D01*
X017269Y018548D01*
X017269Y019273D01*
X017146Y019396D01*
X017074Y019396D01*
X017074Y020165D01*
X017074Y020122D02*
X019384Y020122D01*
X019342Y020221D02*
X017269Y020221D01*
X017336Y020319D02*
X017457Y020319D01*
X017351Y020418D02*
X017336Y020418D01*
X017706Y020418D02*
X017806Y020418D01*
X017806Y020516D02*
X017706Y020516D01*
X017706Y020615D02*
X017806Y020615D01*
X017806Y020713D02*
X019262Y020713D01*
X019262Y020615D02*
X018261Y020615D01*
X018223Y020516D02*
X019263Y020516D01*
X019289Y020418D02*
X018161Y020418D01*
X018055Y020319D02*
X019316Y020319D01*
X019441Y020024D02*
X017074Y020024D01*
X017074Y019925D02*
X019498Y019925D01*
X019570Y019827D02*
X017074Y019827D01*
X017074Y019728D02*
X019669Y019728D01*
X019767Y019630D02*
X017074Y019630D01*
X017074Y019531D02*
X019923Y019531D01*
X020093Y019433D02*
X017074Y019433D01*
X017208Y019334D02*
X017585Y019334D01*
X017591Y019336D02*
X017553Y019326D01*
X017519Y019306D01*
X017491Y019278D01*
X017471Y019244D01*
X017461Y019206D01*
X017461Y018960D01*
X017876Y018960D01*
X017876Y019336D01*
X017591Y019336D01*
X017469Y019236D02*
X017269Y019236D01*
X017269Y019137D02*
X017461Y019137D01*
X017461Y019039D02*
X017269Y019039D01*
X017269Y018940D02*
X017876Y018940D01*
X017876Y018960D02*
X017876Y018860D01*
X017976Y018860D01*
X017976Y018960D01*
X018391Y018960D01*
X018391Y019206D01*
X018380Y019244D01*
X018361Y019278D01*
X018333Y019306D01*
X018298Y019326D01*
X018260Y019336D01*
X017976Y019336D01*
X017976Y018960D01*
X017876Y018960D01*
X017926Y018910D02*
X018150Y018686D01*
X018150Y017725D01*
X016370Y017725D01*
X016154Y017509D01*
X016154Y016379D01*
X016162Y016371D01*
X016210Y016379D02*
X017676Y016379D01*
X017669Y016281D02*
X016509Y016281D01*
X016509Y016182D02*
X017570Y016182D01*
X017570Y016084D02*
X016491Y016084D01*
X016509Y016478D02*
X017625Y016478D01*
X017584Y016576D02*
X016509Y016576D01*
X016481Y016675D02*
X017570Y016675D01*
X017570Y016773D02*
X015078Y016773D01*
X014980Y016675D02*
X015842Y016675D01*
X015845Y016680D02*
X015825Y016645D01*
X015815Y016607D01*
X015815Y016419D01*
X016113Y016419D01*
X016113Y016737D01*
X015945Y016737D01*
X015907Y016727D01*
X015873Y016707D01*
X015845Y016680D01*
X015815Y016576D02*
X014881Y016576D01*
X014783Y016478D02*
X015815Y016478D01*
X015815Y016281D02*
X014581Y016281D01*
X014684Y016379D02*
X016113Y016379D01*
X016113Y016478D02*
X016210Y016478D01*
X016210Y016576D02*
X016113Y016576D01*
X016113Y016675D02*
X016210Y016675D01*
X015815Y016182D02*
X013862Y016182D01*
X014103Y016084D02*
X015833Y016084D01*
X015755Y015985D02*
X014275Y015985D01*
X014374Y015887D02*
X015755Y015887D01*
X015755Y015788D02*
X014425Y015788D01*
X014466Y015690D02*
X015755Y015690D01*
X015755Y015591D02*
X014480Y015591D01*
X014480Y015493D02*
X015755Y015493D01*
X015759Y015394D02*
X014467Y015394D01*
X014279Y015099D02*
X015734Y015099D01*
X014650Y014225D02*
X018650Y014225D01*
X019150Y014725D01*
X019150Y016225D01*
X018650Y016725D01*
X018150Y016725D01*
X017624Y016970D02*
X015275Y016970D01*
X015177Y016872D02*
X017583Y016872D01*
X017673Y017069D02*
X015374Y017069D01*
X015472Y017167D02*
X017772Y017167D01*
X017906Y017266D02*
X015571Y017266D01*
X015669Y017364D02*
X017776Y017364D01*
X017700Y017463D02*
X015768Y017463D01*
X015866Y017561D02*
X017657Y017561D01*
X017634Y017660D02*
X015965Y017660D01*
X016063Y017758D02*
X018100Y017758D01*
X018100Y017775D02*
X017631Y017775D01*
X017643Y017847D01*
X017668Y017925D01*
X017705Y017998D01*
X017753Y018064D01*
X017811Y018122D01*
X017877Y018170D01*
X017950Y018207D01*
X018028Y018232D01*
X018100Y018244D01*
X018100Y017775D01*
X018100Y017857D02*
X018200Y017857D01*
X018200Y017955D02*
X018100Y017955D01*
X018100Y018054D02*
X018200Y018054D01*
X018200Y018152D02*
X018100Y018152D01*
X017853Y018152D02*
X016326Y018152D01*
X016326Y018251D02*
X021747Y018251D01*
X021747Y018349D02*
X016326Y018349D01*
X016310Y018054D02*
X017746Y018054D01*
X017684Y017955D02*
X016260Y017955D01*
X016162Y017857D02*
X017646Y017857D01*
X018200Y017758D02*
X021747Y017758D01*
X021747Y017660D02*
X018666Y017660D01*
X018643Y017561D02*
X021747Y017561D01*
X021747Y017463D02*
X018600Y017463D01*
X018524Y017364D02*
X021747Y017364D01*
X021747Y017266D02*
X018394Y017266D01*
X018528Y017167D02*
X021747Y017167D01*
X021747Y017069D02*
X018627Y017069D01*
X018738Y016970D02*
X021747Y016970D01*
X021747Y016872D02*
X018871Y016872D01*
X018970Y016773D02*
X021747Y016773D01*
X021747Y016675D02*
X019068Y016675D01*
X019167Y016576D02*
X021747Y016576D01*
X021747Y016478D02*
X019265Y016478D01*
X019364Y016379D02*
X021747Y016379D01*
X021747Y016281D02*
X019408Y016281D01*
X019410Y016182D02*
X021747Y016182D01*
X021747Y016084D02*
X019410Y016084D01*
X019410Y015985D02*
X021747Y015985D01*
X021747Y015887D02*
X019410Y015887D01*
X019410Y015788D02*
X021747Y015788D01*
X021747Y015690D02*
X019410Y015690D01*
X019410Y015591D02*
X021747Y015591D01*
X021747Y015493D02*
X019410Y015493D01*
X019410Y015394D02*
X021747Y015394D01*
X021747Y015296D02*
X019410Y015296D01*
X019410Y015197D02*
X021747Y015197D01*
X021747Y015099D02*
X019410Y015099D01*
X019410Y015000D02*
X021747Y015000D01*
X021747Y014902D02*
X019410Y014902D01*
X019410Y014803D02*
X021747Y014803D01*
X021747Y014705D02*
X019410Y014705D01*
X019382Y014606D02*
X021747Y014606D01*
X021747Y014508D02*
X019300Y014508D01*
X019202Y014409D02*
X021747Y014409D01*
X021747Y014311D02*
X019103Y014311D01*
X019005Y014212D02*
X021747Y014212D01*
X021747Y014114D02*
X018906Y014114D01*
X018808Y014015D02*
X021747Y014015D01*
X021747Y013917D02*
X014709Y013917D01*
X014611Y013818D02*
X021747Y013818D01*
X021747Y013720D02*
X018311Y013720D01*
X018200Y013720D02*
X018100Y013720D01*
X018100Y013744D02*
X018028Y013732D01*
X017950Y013707D01*
X017877Y013670D01*
X017811Y013622D01*
X017753Y013564D01*
X017705Y013498D01*
X017668Y013425D01*
X017643Y013347D01*
X017631Y013275D01*
X018100Y013275D01*
X018100Y013744D01*
X017989Y013720D02*
X014512Y013720D01*
X014414Y013621D02*
X017811Y013621D01*
X017723Y013523D02*
X014315Y013523D01*
X014217Y013424D02*
X017668Y013424D01*
X017639Y013326D02*
X014118Y013326D01*
X014111Y013227D02*
X018100Y013227D01*
X018150Y013225D02*
X016300Y013225D01*
X016095Y013020D01*
X016095Y012213D01*
X016311Y011997D01*
X016311Y010894D01*
X016263Y010863D02*
X015108Y010863D01*
X015147Y010765D02*
X015965Y010765D01*
X015965Y010666D02*
X015230Y010666D01*
X015230Y010568D02*
X015944Y010568D01*
X015965Y010962D02*
X015169Y010962D01*
X015209Y011060D02*
X015965Y011060D01*
X015972Y011159D02*
X015230Y011159D01*
X015230Y011257D02*
X016081Y011257D01*
X016263Y011257D02*
X016360Y011257D01*
X016360Y011159D02*
X016263Y011159D01*
X016263Y011060D02*
X016360Y011060D01*
X016360Y010962D02*
X016263Y010962D01*
X016360Y010863D02*
X017570Y010863D01*
X017573Y010765D02*
X016658Y010765D01*
X016658Y010666D02*
X017624Y010666D01*
X017526Y010568D02*
X016679Y010568D01*
X016658Y010962D02*
X017570Y010962D01*
X017570Y011060D02*
X016658Y011060D01*
X016651Y011159D02*
X017570Y011159D01*
X017570Y011257D02*
X016542Y011257D01*
X016095Y012213D02*
X016083Y012225D01*
X014650Y012225D01*
X014700Y012242D02*
X017570Y012242D01*
X017570Y012144D02*
X015164Y012144D01*
X015138Y012045D02*
X017597Y012045D01*
X017638Y011947D02*
X015090Y011947D01*
X015008Y011848D02*
X017707Y011848D01*
X017638Y011750D02*
X014899Y011750D01*
X015044Y011651D02*
X017570Y011651D01*
X017570Y011553D02*
X015142Y011553D01*
X015183Y011454D02*
X017570Y011454D01*
X017570Y011356D02*
X015224Y011356D01*
X014401Y011750D02*
X014111Y011750D01*
X014111Y011848D02*
X014292Y011848D01*
X014210Y011947D02*
X014111Y011947D01*
X014111Y012045D02*
X014162Y012045D01*
X014136Y012144D02*
X014111Y012144D01*
X014111Y012242D02*
X014600Y012242D01*
X014600Y012275D02*
X014131Y012275D01*
X014143Y012347D01*
X014168Y012425D01*
X014205Y012498D01*
X014253Y012564D01*
X014311Y012622D01*
X014377Y012670D01*
X014450Y012707D01*
X014528Y012732D01*
X014600Y012744D01*
X014600Y012275D01*
X014600Y012341D02*
X014700Y012341D01*
X014700Y012439D02*
X014600Y012439D01*
X014600Y012538D02*
X014700Y012538D01*
X014700Y012636D02*
X014600Y012636D01*
X014600Y012735D02*
X014700Y012735D01*
X014757Y012735D02*
X017865Y012735D01*
X017807Y012833D02*
X014111Y012833D01*
X014111Y012735D02*
X014543Y012735D01*
X014331Y012636D02*
X014111Y012636D01*
X014111Y012538D02*
X014234Y012538D01*
X014175Y012439D02*
X014111Y012439D01*
X014111Y012341D02*
X014142Y012341D01*
X014111Y012932D02*
X017720Y012932D01*
X017667Y013030D02*
X014111Y013030D01*
X014111Y013129D02*
X017639Y013129D01*
X018100Y013326D02*
X018200Y013326D01*
X018200Y013424D02*
X018100Y013424D01*
X018100Y013523D02*
X018200Y013523D01*
X018200Y013621D02*
X018100Y013621D01*
X018200Y013227D02*
X021747Y013227D01*
X021747Y013129D02*
X018661Y013129D01*
X018633Y013030D02*
X021747Y013030D01*
X021747Y012932D02*
X018580Y012932D01*
X018493Y012833D02*
X021747Y012833D01*
X021747Y012735D02*
X018435Y012735D01*
X018559Y012636D02*
X021747Y012636D01*
X021747Y012538D02*
X018648Y012538D01*
X018730Y012242D02*
X021747Y012242D01*
X021747Y012144D02*
X018730Y012144D01*
X018703Y012045D02*
X021747Y012045D01*
X021747Y011947D02*
X018662Y011947D01*
X018593Y011848D02*
X021747Y011848D01*
X021747Y011750D02*
X018662Y011750D01*
X018730Y011651D02*
X021747Y011651D01*
X021747Y011553D02*
X019623Y011553D01*
X019789Y011454D02*
X021747Y011454D01*
X021747Y011356D02*
X019888Y011356D01*
X019831Y011412D02*
X019831Y011412D01*
X020230Y011257D02*
X021747Y011257D01*
X021747Y011159D02*
X020622Y011159D01*
X020782Y011060D02*
X021747Y011060D01*
X021747Y010962D02*
X020880Y010962D01*
X020950Y010863D02*
X021747Y010863D01*
X021747Y010765D02*
X020980Y010765D01*
X020980Y010666D02*
X021747Y010666D01*
X021747Y010568D02*
X020980Y010568D01*
X020980Y010469D02*
X021747Y010469D01*
X021747Y010371D02*
X020980Y010371D01*
X020980Y010272D02*
X021747Y010272D01*
X021747Y010174D02*
X020980Y010174D01*
X020980Y010075D02*
X021747Y010075D01*
X021747Y009977D02*
X020980Y009977D01*
X020980Y009878D02*
X021747Y009878D01*
X021747Y009780D02*
X020980Y009780D01*
X020980Y009681D02*
X021747Y009681D01*
X021747Y009583D02*
X020980Y009583D01*
X020980Y009484D02*
X021747Y009484D01*
X021747Y009386D02*
X020980Y009386D01*
X020980Y009287D02*
X021747Y009287D01*
X021747Y009189D02*
X020980Y009189D01*
X020980Y009090D02*
X021747Y009090D01*
X021747Y008992D02*
X020980Y008992D01*
X020980Y008893D02*
X021747Y008893D01*
X021747Y008795D02*
X020980Y008795D01*
X020980Y008696D02*
X021747Y008696D01*
X021747Y008598D02*
X020980Y008598D01*
X020980Y008499D02*
X021747Y008499D01*
X021747Y008401D02*
X020980Y008401D01*
X020980Y008302D02*
X021747Y008302D01*
X021747Y008204D02*
X020980Y008204D01*
X020980Y008105D02*
X021747Y008105D01*
X021747Y008007D02*
X020980Y008007D01*
X020980Y007908D02*
X021747Y007908D01*
X021747Y007810D02*
X020980Y007810D01*
X020980Y007711D02*
X021747Y007711D01*
X021747Y007613D02*
X020980Y007613D01*
X020980Y007514D02*
X021747Y007514D01*
X021747Y007416D02*
X020980Y007416D01*
X020980Y007317D02*
X021747Y007317D01*
X021747Y007219D02*
X020980Y007219D01*
X020980Y007120D02*
X021747Y007120D01*
X021747Y007022D02*
X020980Y007022D01*
X020980Y006923D02*
X021747Y006923D01*
X021747Y006825D02*
X020980Y006825D01*
X020980Y006726D02*
X021747Y006726D01*
X021747Y006628D02*
X020980Y006628D01*
X020980Y006529D02*
X021747Y006529D01*
X021747Y006431D02*
X020980Y006431D01*
X020980Y006332D02*
X021747Y006332D01*
X021747Y006234D02*
X020980Y006234D01*
X020980Y006135D02*
X021747Y006135D01*
X021747Y006037D02*
X020980Y006037D01*
X020980Y005938D02*
X021747Y005938D01*
X021747Y005840D02*
X020980Y005840D01*
X020980Y005741D02*
X021747Y005741D01*
X021747Y005643D02*
X020980Y005643D01*
X020980Y005544D02*
X021747Y005544D01*
X021747Y005446D02*
X020980Y005446D01*
X020980Y005347D02*
X021747Y005347D01*
X021747Y005249D02*
X020980Y005249D01*
X020980Y005150D02*
X021747Y005150D01*
X021747Y005052D02*
X020980Y005052D01*
X020980Y004953D02*
X021747Y004953D01*
X021747Y004855D02*
X020980Y004855D01*
X020980Y004756D02*
X021747Y004756D01*
X021747Y004658D02*
X020980Y004658D01*
X020980Y004559D02*
X021747Y004559D01*
X021747Y004461D02*
X020980Y004461D01*
X020980Y004362D02*
X021747Y004362D01*
X021747Y004264D02*
X020980Y004264D01*
X020980Y004165D02*
X021747Y004165D01*
X021747Y004067D02*
X020942Y004067D01*
X020860Y003968D02*
X021747Y003968D01*
X021747Y003870D02*
X020761Y003870D01*
X020663Y003771D02*
X021747Y003771D01*
X021747Y003673D02*
X020564Y003673D01*
X020420Y003574D02*
X021747Y003574D01*
X021747Y003476D02*
X020241Y003476D01*
X019899Y003377D02*
X021747Y003377D01*
X021747Y003279D02*
X019800Y003279D01*
X019702Y003180D02*
X021747Y003180D01*
X021747Y003082D02*
X021094Y003082D01*
X021293Y002983D02*
X021747Y002983D01*
X021747Y002885D02*
X021461Y002885D01*
X021560Y002786D02*
X021747Y002786D01*
X021747Y002688D02*
X021658Y002688D01*
X021737Y002589D02*
X021747Y002589D01*
X020151Y003082D02*
X019603Y003082D01*
X019505Y002983D02*
X019952Y002983D01*
X019784Y002885D02*
X019406Y002885D01*
X019308Y002786D02*
X019685Y002786D01*
X019587Y002688D02*
X019209Y002688D01*
X019111Y002589D02*
X019508Y002589D01*
X019451Y002491D02*
X019012Y002491D01*
X018914Y002392D02*
X019394Y002392D01*
X019347Y002294D02*
X018815Y002294D01*
X018730Y002195D02*
X019320Y002195D01*
X019294Y002097D02*
X018730Y002097D01*
X018730Y001998D02*
X019268Y001998D01*
X019262Y001900D02*
X018730Y001900D01*
X018730Y001801D02*
X019262Y001801D01*
X019262Y001703D02*
X018664Y001703D01*
X019267Y001604D02*
X008620Y001604D01*
X008620Y001703D02*
X017636Y001703D01*
X017570Y001801D02*
X008620Y001801D01*
X008620Y001900D02*
X017570Y001900D01*
X017570Y001998D02*
X008620Y001998D01*
X008620Y002097D02*
X017570Y002097D01*
X017570Y002195D02*
X009957Y002195D01*
X010032Y002294D02*
X017570Y002294D01*
X017570Y002392D02*
X010036Y002392D01*
X010036Y002573D02*
X009718Y002573D01*
X009718Y002871D01*
X009906Y002871D01*
X009944Y002861D01*
X009978Y002841D01*
X010006Y002813D01*
X010026Y002779D01*
X010036Y002741D01*
X010036Y002573D01*
X010036Y002589D02*
X017570Y002589D01*
X017570Y002491D02*
X009718Y002491D01*
X009670Y002524D02*
X009670Y003461D01*
X009666Y003465D01*
X009666Y003828D01*
X009310Y004183D01*
X009310Y004605D01*
X009310Y004228D01*
X009310Y004165D01*
X009310Y004605D01*
X009310Y004605D01*
X009310Y006032D01*
X009310Y006976D01*
X009626Y007292D01*
X009626Y007839D01*
X009620Y007845D01*
X009620Y007405D01*
X009693Y007405D01*
X009753Y007345D01*
X010270Y007345D01*
X010270Y007070D01*
X010064Y007070D01*
X009848Y006854D01*
X009848Y006755D01*
X009552Y006755D01*
X009336Y006539D01*
X009336Y006234D01*
X009552Y006018D01*
X009858Y006018D01*
X009967Y006127D01*
X010270Y006127D01*
X010270Y006015D01*
X010176Y006015D01*
X010080Y005976D01*
X009875Y005771D01*
X009722Y005771D01*
X009506Y005555D01*
X009506Y005250D01*
X009650Y005105D01*
X009433Y005105D01*
X009373Y005045D01*
X009310Y005045D01*
X009237Y005045D01*
X009177Y005105D01*
X008620Y005105D01*
X008620Y006292D01*
X008967Y006639D01*
X009040Y006712D01*
X009079Y006807D01*
X009079Y007071D01*
X009245Y007071D01*
X009341Y007111D01*
X009459Y007229D01*
X009532Y007302D01*
X009571Y007398D01*
X009571Y007405D01*
X009620Y007405D01*
X009620Y007468D01*
X009620Y007468D01*
X009620Y007845D01*
X009620Y007845D01*
X009620Y008302D01*
X009469Y008454D01*
X009134Y008454D01*
X008996Y008316D01*
X008996Y007852D01*
X008990Y007845D01*
X008996Y007839D01*
X008990Y007845D02*
X008990Y007845D01*
X008990Y008222D01*
X008990Y008222D01*
X008990Y008285D01*
X008940Y008285D01*
X008940Y008744D01*
X009095Y008744D01*
X009173Y008821D01*
X009187Y008814D01*
X009225Y008804D01*
X009413Y008804D01*
X009413Y009102D01*
X009509Y009102D01*
X009509Y008804D01*
X009680Y008804D01*
X009680Y008285D01*
X009620Y008285D01*
X009557Y008285D01*
X009497Y008345D01*
X009123Y008345D01*
X009063Y008285D01*
X008990Y008285D01*
X008990Y007845D01*
X008990Y007908D02*
X008990Y007908D01*
X008990Y008007D02*
X008990Y008007D01*
X008990Y008105D02*
X008990Y008105D01*
X008990Y008204D02*
X008990Y008204D01*
X008940Y008302D02*
X009080Y008302D01*
X008940Y008401D02*
X009680Y008401D01*
X009680Y008499D02*
X008940Y008499D01*
X008940Y008598D02*
X009680Y008598D01*
X009680Y008696D02*
X008940Y008696D01*
X009146Y008795D02*
X009680Y008795D01*
X009509Y008893D02*
X009413Y008893D01*
X009413Y008992D02*
X009509Y008992D01*
X009509Y009090D02*
X009413Y009090D01*
X009461Y009150D02*
X009469Y009143D01*
X009469Y008454D01*
X009540Y008302D02*
X009680Y008302D01*
X009620Y008285D02*
X009620Y007845D01*
X009626Y007852D01*
X009620Y007845D02*
X009620Y007845D01*
X009620Y008222D01*
X009620Y008222D01*
X009620Y008285D01*
X009620Y008204D02*
X009620Y008204D01*
X009620Y008105D02*
X009620Y008105D01*
X009620Y008007D02*
X009620Y008007D01*
X009620Y007908D02*
X009620Y007908D01*
X009620Y007810D02*
X009620Y007810D01*
X009620Y007711D02*
X009620Y007711D01*
X009620Y007613D02*
X009620Y007613D01*
X009620Y007514D02*
X009620Y007514D01*
X009620Y007416D02*
X009620Y007416D01*
X009538Y007317D02*
X010270Y007317D01*
X010270Y007219D02*
X009448Y007219D01*
X009350Y007120D02*
X010270Y007120D01*
X010016Y007022D02*
X009079Y007022D01*
X009079Y006923D02*
X009917Y006923D01*
X009848Y006825D02*
X009079Y006825D01*
X009046Y006726D02*
X009523Y006726D01*
X009425Y006628D02*
X008956Y006628D01*
X008857Y006529D02*
X009336Y006529D01*
X009336Y006431D02*
X008759Y006431D01*
X008660Y006332D02*
X009336Y006332D01*
X009337Y006234D02*
X008620Y006234D01*
X008620Y006135D02*
X009435Y006135D01*
X009534Y006037D02*
X008620Y006037D01*
X008620Y005938D02*
X010043Y005938D01*
X009944Y005840D02*
X008620Y005840D01*
X008620Y005741D02*
X009692Y005741D01*
X009593Y005643D02*
X008620Y005643D01*
X008620Y005544D02*
X009506Y005544D01*
X009506Y005446D02*
X008620Y005446D01*
X008620Y005347D02*
X009506Y005347D01*
X009507Y005249D02*
X008620Y005249D01*
X008620Y005150D02*
X009605Y005150D01*
X009380Y005052D02*
X009230Y005052D01*
X009310Y005045D02*
X009310Y004605D01*
X009310Y004605D01*
X009310Y004982D01*
X009310Y004982D01*
X009310Y005045D01*
X009310Y004953D02*
X009310Y004953D01*
X009310Y004855D02*
X009310Y004855D01*
X009310Y004756D02*
X009310Y004756D01*
X009310Y004658D02*
X009310Y004658D01*
X009310Y004559D02*
X009310Y004559D01*
X009310Y004461D02*
X009310Y004461D01*
X009310Y004362D02*
X009310Y004362D01*
X009310Y004264D02*
X009310Y004264D01*
X009310Y004228D02*
X009310Y004228D01*
X009310Y004165D02*
X009310Y004165D01*
X009250Y004067D02*
X009680Y004067D01*
X009712Y003968D02*
X009250Y003968D01*
X009250Y003870D02*
X009799Y003870D01*
X009718Y003771D02*
X009621Y003771D01*
X009621Y003673D02*
X009718Y003673D01*
X009718Y003574D02*
X009621Y003574D01*
X009718Y003476D02*
X010193Y003476D01*
X010095Y003574D02*
X010036Y003574D01*
X010036Y003377D02*
X010292Y003377D01*
X010390Y003279D02*
X010036Y003279D01*
X010011Y003180D02*
X010489Y003180D01*
X010587Y003082D02*
X009331Y003082D01*
X009350Y002885D02*
X017670Y002885D01*
X017674Y002786D02*
X010022Y002786D01*
X010036Y002688D02*
X017576Y002688D01*
X018150Y003225D02*
X010811Y003225D01*
X009940Y004097D01*
X009940Y004605D01*
X010250Y004605D02*
X016762Y004605D01*
X017146Y004989D01*
X017146Y007351D01*
X017520Y007725D01*
X018150Y007725D01*
X018562Y007317D02*
X019594Y007317D01*
X019594Y007342D02*
X019594Y007154D01*
X019605Y007116D01*
X019612Y007103D01*
X019561Y007051D01*
X018730Y007051D01*
X018730Y007182D01*
X018607Y007305D01*
X018550Y007305D01*
X018642Y007397D01*
X018730Y007610D01*
X018730Y007841D01*
X018642Y008054D01*
X018479Y008217D01*
X018379Y008258D01*
X018423Y008280D01*
X018489Y008329D01*
X018547Y008386D01*
X018595Y008453D01*
X018632Y008526D01*
X018657Y008603D01*
X018669Y008675D01*
X018200Y008675D01*
X018200Y008775D01*
X018669Y008775D01*
X018657Y008847D01*
X018632Y008925D01*
X018595Y008998D01*
X018547Y009064D01*
X018489Y009122D01*
X018423Y009170D01*
X018350Y009207D01*
X018272Y009232D01*
X018200Y009244D01*
X018200Y008775D01*
X018100Y008775D01*
X018100Y008675D01*
X017631Y008675D01*
X017643Y008603D01*
X017668Y008526D01*
X017705Y008453D01*
X017753Y008386D01*
X017811Y008329D01*
X017877Y008280D01*
X017921Y008258D01*
X017821Y008217D01*
X017658Y008054D01*
X017630Y007985D01*
X017468Y007985D01*
X017373Y007946D01*
X017300Y007872D01*
X016926Y007498D01*
X016886Y007403D01*
X016886Y005097D01*
X016655Y004865D01*
X016638Y004865D01*
X016699Y004926D01*
X016699Y005533D01*
X016621Y005611D01*
X016628Y005624D01*
X016639Y005662D01*
X016639Y005850D01*
X016340Y005850D01*
X016340Y005947D01*
X016243Y005947D01*
X016243Y005850D01*
X015945Y005850D01*
X015945Y005662D01*
X015955Y005624D01*
X015963Y005611D01*
X015911Y005559D01*
X015230Y005559D01*
X015230Y005682D01*
X015107Y005805D01*
X015050Y005805D01*
X015142Y005897D01*
X015230Y006110D01*
X015230Y006341D01*
X015142Y006554D01*
X014979Y006717D01*
X014879Y006758D01*
X014923Y006780D01*
X014989Y006829D01*
X015047Y006886D01*
X015095Y006953D01*
X015132Y007026D01*
X015157Y007103D01*
X015169Y007175D01*
X014700Y007175D01*
X014700Y007275D01*
X015169Y007275D01*
X015157Y007347D01*
X015132Y007425D01*
X015095Y007498D01*
X015047Y007564D01*
X014989Y007622D01*
X014923Y007670D01*
X014850Y007707D01*
X014772Y007732D01*
X014700Y007744D01*
X014700Y007275D01*
X014600Y007275D01*
X014600Y007175D01*
X014131Y007175D01*
X014143Y007103D01*
X014168Y007026D01*
X014205Y006953D01*
X014253Y006886D01*
X014311Y006829D01*
X014377Y006780D01*
X014421Y006758D01*
X014321Y006717D01*
X014158Y006554D01*
X014130Y006485D01*
X013746Y006485D01*
X013998Y006737D01*
X014071Y006810D01*
X014111Y006906D01*
X014111Y009727D01*
X014193Y009645D01*
X015107Y009645D01*
X015230Y009768D01*
X015230Y009895D01*
X015931Y009895D01*
X016028Y009799D01*
X016595Y009799D01*
X016692Y009895D01*
X017716Y009895D01*
X017837Y009945D01*
X018430Y010538D01*
X018474Y010645D01*
X018607Y010645D01*
X018730Y010768D01*
X018730Y010895D01*
X019415Y010895D01*
X019534Y010776D01*
X019534Y010532D01*
X019612Y010454D01*
X019605Y010441D01*
X019594Y010402D01*
X019594Y010215D01*
X019893Y010215D01*
X019893Y010118D01*
X019594Y010118D01*
X019594Y009930D01*
X019605Y009892D01*
X019624Y009858D01*
X019652Y009830D01*
X019687Y009810D01*
X019725Y009800D01*
X019893Y009800D01*
X019893Y010118D01*
X019990Y010118D01*
X019990Y010215D01*
X020288Y010215D01*
X020288Y010402D01*
X020278Y010441D01*
X020270Y010454D01*
X020320Y010504D01*
X020320Y007053D01*
X020270Y007103D01*
X020278Y007116D01*
X020288Y007154D01*
X020288Y007342D01*
X019990Y007342D01*
X019990Y007439D01*
X020288Y007439D01*
X020288Y007627D01*
X020278Y007665D01*
X020258Y007699D01*
X020230Y007727D01*
X020196Y007747D01*
X020158Y007757D01*
X019990Y007757D01*
X019990Y007439D01*
X019893Y007439D01*
X019893Y007757D01*
X019725Y007757D01*
X019687Y007747D01*
X019652Y007727D01*
X019624Y007699D01*
X019605Y007665D01*
X019594Y007627D01*
X019594Y007439D01*
X019893Y007439D01*
X019893Y007342D01*
X019594Y007342D01*
X019594Y007219D02*
X018693Y007219D01*
X018730Y007120D02*
X019604Y007120D01*
X019941Y007391D02*
X019941Y008434D01*
X019650Y008725D01*
X018150Y008725D01*
X016906Y008725D01*
X016626Y008729D01*
X016292Y008394D01*
X016292Y006808D01*
X015874Y007225D01*
X014650Y007225D01*
X014700Y007219D02*
X016886Y007219D01*
X016886Y007317D02*
X015162Y007317D01*
X015135Y007416D02*
X016891Y007416D01*
X016941Y007514D02*
X015083Y007514D01*
X014998Y007613D02*
X017040Y007613D01*
X017138Y007711D02*
X014837Y007711D01*
X014700Y007711D02*
X014600Y007711D01*
X014600Y007744D02*
X014528Y007732D01*
X014450Y007707D01*
X014377Y007670D01*
X014311Y007622D01*
X014253Y007564D01*
X014205Y007498D01*
X014168Y007425D01*
X014143Y007347D01*
X014131Y007275D01*
X014600Y007275D01*
X014600Y007744D01*
X014600Y007613D02*
X014700Y007613D01*
X014700Y007514D02*
X014600Y007514D01*
X014600Y007416D02*
X014700Y007416D01*
X014700Y007317D02*
X014600Y007317D01*
X014600Y007219D02*
X014111Y007219D01*
X014111Y007317D02*
X014138Y007317D01*
X014111Y007416D02*
X014165Y007416D01*
X014217Y007514D02*
X014111Y007514D01*
X014111Y007613D02*
X014302Y007613D01*
X014463Y007711D02*
X014111Y007711D01*
X014111Y007810D02*
X017237Y007810D01*
X017335Y007908D02*
X014111Y007908D01*
X014111Y008007D02*
X017639Y008007D01*
X017710Y008105D02*
X014111Y008105D01*
X014111Y008204D02*
X017808Y008204D01*
X017848Y008302D02*
X014111Y008302D01*
X014111Y008401D02*
X017743Y008401D01*
X017682Y008499D02*
X014111Y008499D01*
X014111Y008598D02*
X017645Y008598D01*
X017631Y008775D02*
X018100Y008775D01*
X018100Y009244D01*
X018028Y009232D01*
X017950Y009207D01*
X017877Y009170D01*
X017811Y009122D01*
X017753Y009064D01*
X017705Y008998D01*
X017668Y008925D01*
X017643Y008847D01*
X017631Y008775D01*
X017635Y008795D02*
X014111Y008795D01*
X014111Y008893D02*
X017658Y008893D01*
X017702Y008992D02*
X014111Y008992D01*
X014111Y009090D02*
X017780Y009090D01*
X017914Y009189D02*
X014111Y009189D01*
X014111Y009287D02*
X020320Y009287D01*
X020320Y009189D02*
X018386Y009189D01*
X018520Y009090D02*
X020320Y009090D01*
X020320Y008992D02*
X018598Y008992D01*
X018642Y008893D02*
X020320Y008893D01*
X020320Y008795D02*
X018665Y008795D01*
X018655Y008598D02*
X020320Y008598D01*
X020320Y008696D02*
X018200Y008696D01*
X018200Y008795D02*
X018100Y008795D01*
X018100Y008893D02*
X018200Y008893D01*
X018200Y008992D02*
X018100Y008992D01*
X018100Y009090D02*
X018200Y009090D01*
X018200Y009189D02*
X018100Y009189D01*
X018100Y008696D02*
X014111Y008696D01*
X014111Y009386D02*
X020320Y009386D01*
X020320Y009484D02*
X014111Y009484D01*
X014111Y009583D02*
X020320Y009583D01*
X020320Y009681D02*
X015143Y009681D01*
X015230Y009780D02*
X020320Y009780D01*
X020320Y009878D02*
X020270Y009878D01*
X020278Y009892D02*
X020288Y009930D01*
X020288Y010118D01*
X019990Y010118D01*
X019990Y009800D01*
X020158Y009800D01*
X020196Y009810D01*
X020230Y009830D01*
X020258Y009858D01*
X020278Y009892D01*
X020288Y009977D02*
X020320Y009977D01*
X020320Y010075D02*
X020288Y010075D01*
X020320Y010174D02*
X019990Y010174D01*
X019941Y010166D02*
X019941Y009017D01*
X019650Y008725D01*
X020320Y008499D02*
X018618Y008499D01*
X018557Y008401D02*
X020320Y008401D01*
X020320Y008302D02*
X018452Y008302D01*
X018492Y008204D02*
X020320Y008204D01*
X020320Y008105D02*
X018590Y008105D01*
X018661Y008007D02*
X020320Y008007D01*
X020320Y007908D02*
X018702Y007908D01*
X018730Y007810D02*
X020320Y007810D01*
X020320Y007711D02*
X020246Y007711D01*
X020288Y007613D02*
X020320Y007613D01*
X020320Y007514D02*
X020288Y007514D01*
X020320Y007416D02*
X019990Y007416D01*
X019893Y007416D02*
X018650Y007416D01*
X018690Y007514D02*
X019594Y007514D01*
X019594Y007613D02*
X018730Y007613D01*
X018730Y007711D02*
X019636Y007711D01*
X019893Y007711D02*
X019990Y007711D01*
X019990Y007613D02*
X019893Y007613D01*
X019893Y007514D02*
X019990Y007514D01*
X020288Y007317D02*
X020320Y007317D01*
X020320Y007219D02*
X020288Y007219D01*
X020279Y007120D02*
X020320Y007120D01*
X020246Y006316D02*
X020225Y006295D01*
X019658Y006295D01*
X019561Y006391D01*
X018730Y006391D01*
X018730Y006268D01*
X018607Y006145D01*
X017693Y006145D01*
X017570Y006268D01*
X017570Y007182D01*
X017693Y007305D01*
X017750Y007305D01*
X017658Y007397D01*
X017630Y007465D01*
X017628Y007465D01*
X017406Y007243D01*
X017406Y004937D01*
X017366Y004842D01*
X017293Y004769D01*
X016910Y004385D01*
X016814Y004345D01*
X010560Y004345D01*
X010560Y004228D01*
X010437Y004105D01*
X010299Y004105D01*
X010919Y003485D01*
X017630Y003485D01*
X017658Y003554D01*
X017821Y003717D01*
X017921Y003758D01*
X017877Y003780D01*
X017811Y003829D01*
X017753Y003886D01*
X017705Y003953D01*
X017668Y004026D01*
X017643Y004103D01*
X017631Y004175D01*
X018100Y004175D01*
X018100Y004275D01*
X017631Y004275D01*
X017643Y004347D01*
X017668Y004425D01*
X017705Y004498D01*
X017753Y004564D01*
X017811Y004622D01*
X017877Y004670D01*
X017950Y004707D01*
X018028Y004732D01*
X018100Y004744D01*
X018100Y004275D01*
X018200Y004275D01*
X018669Y004275D01*
X018657Y004347D01*
X018632Y004425D01*
X018595Y004498D01*
X018547Y004564D01*
X018489Y004622D01*
X018423Y004670D01*
X018350Y004707D01*
X018272Y004732D01*
X018200Y004744D01*
X018200Y004275D01*
X018200Y004175D01*
X018669Y004175D01*
X018657Y004103D01*
X018632Y004026D01*
X018595Y003953D01*
X018547Y003886D01*
X018489Y003829D01*
X018423Y003780D01*
X018379Y003758D01*
X018479Y003717D01*
X018642Y003554D01*
X018730Y003341D01*
X018730Y003142D01*
X019534Y003946D01*
X019534Y004190D01*
X019612Y004268D01*
X019605Y004281D01*
X019594Y004320D01*
X019594Y004507D01*
X019893Y004507D01*
X019893Y004604D01*
X019594Y004604D01*
X019594Y004792D01*
X019605Y004830D01*
X019624Y004865D01*
X019652Y004892D01*
X019687Y004912D01*
X019725Y004922D01*
X019893Y004922D01*
X019893Y004604D01*
X019990Y004604D01*
X020288Y004604D01*
X020288Y004792D01*
X020278Y004830D01*
X020258Y004865D01*
X020230Y004892D01*
X020196Y004912D01*
X020158Y004922D01*
X019990Y004922D01*
X019990Y004604D01*
X019990Y004507D01*
X020288Y004507D01*
X020288Y004330D01*
X020320Y004362D01*
X020320Y006242D01*
X020246Y006316D01*
X020320Y006234D02*
X018695Y006234D01*
X018730Y006332D02*
X019620Y006332D01*
X020320Y006135D02*
X017406Y006135D01*
X017406Y006037D02*
X020320Y006037D01*
X020320Y005938D02*
X017406Y005938D01*
X017406Y005840D02*
X020320Y005840D01*
X020320Y005741D02*
X017406Y005741D01*
X017406Y005643D02*
X020320Y005643D01*
X020320Y005544D02*
X017406Y005544D01*
X017406Y005446D02*
X020320Y005446D01*
X020320Y005347D02*
X017406Y005347D01*
X017406Y005249D02*
X020320Y005249D01*
X020320Y005150D02*
X017406Y005150D01*
X017406Y005052D02*
X020320Y005052D01*
X020320Y004953D02*
X017406Y004953D01*
X017372Y004855D02*
X019619Y004855D01*
X019594Y004756D02*
X017281Y004756D01*
X017182Y004658D02*
X017861Y004658D01*
X017750Y004559D02*
X017084Y004559D01*
X016985Y004461D02*
X017686Y004461D01*
X017648Y004362D02*
X016855Y004362D01*
X016743Y004953D02*
X016699Y004953D01*
X016699Y005052D02*
X016841Y005052D01*
X016886Y005150D02*
X016699Y005150D01*
X016699Y005249D02*
X016886Y005249D01*
X016886Y005347D02*
X016699Y005347D01*
X016699Y005446D02*
X016886Y005446D01*
X016886Y005544D02*
X016687Y005544D01*
X016633Y005643D02*
X016886Y005643D01*
X016886Y005741D02*
X016639Y005741D01*
X016639Y005840D02*
X016886Y005840D01*
X016886Y005938D02*
X016340Y005938D01*
X016340Y005947D02*
X016639Y005947D01*
X016639Y006135D01*
X016628Y006173D01*
X016609Y006207D01*
X016581Y006235D01*
X016546Y006255D01*
X016508Y006265D01*
X016340Y006265D01*
X016340Y005947D01*
X016292Y005898D02*
X016292Y006808D01*
X016243Y006265D02*
X016075Y006265D01*
X016037Y006255D01*
X016003Y006235D01*
X015975Y006207D01*
X015955Y006173D01*
X015945Y006135D01*
X015230Y006135D01*
X015230Y006234D02*
X016002Y006234D01*
X015945Y006135D02*
X015945Y005947D01*
X016243Y005947D01*
X016243Y006265D01*
X016243Y006234D02*
X016340Y006234D01*
X016340Y006135D02*
X016243Y006135D01*
X016243Y006037D02*
X016340Y006037D01*
X016243Y005938D02*
X015159Y005938D01*
X015200Y006037D02*
X015945Y006037D01*
X015945Y005840D02*
X015085Y005840D01*
X015171Y005741D02*
X015945Y005741D01*
X015950Y005643D02*
X015230Y005643D01*
X014650Y006225D02*
X012650Y006225D01*
X011550Y005125D01*
X010770Y005125D01*
X010770Y005435D02*
X011360Y005435D01*
X011650Y005725D01*
X012132Y006065D02*
X012552Y006485D01*
X013378Y006485D01*
X013851Y006957D01*
X013851Y013426D01*
X014650Y014225D01*
X014045Y014803D02*
X013256Y014803D01*
X013256Y014902D02*
X014143Y014902D01*
X014112Y015000D02*
X014242Y015000D01*
X013688Y015000D02*
X013256Y015000D01*
X013279Y015099D02*
X013521Y015099D01*
X013423Y015197D02*
X013377Y015197D01*
X013000Y016120D02*
X012785Y016120D01*
X012571Y016032D01*
X012408Y015869D01*
X012400Y015849D01*
X012392Y015869D01*
X012229Y016032D01*
X012015Y016120D01*
X011800Y016120D01*
X011892Y016212D01*
X011933Y016311D01*
X011955Y016268D01*
X012003Y016201D01*
X012061Y016144D01*
X012127Y016095D01*
X012200Y016058D01*
X012278Y016033D01*
X012350Y016022D01*
X012350Y016490D01*
X012450Y016490D01*
X012450Y016022D01*
X012522Y016033D01*
X012600Y016058D01*
X012673Y016095D01*
X012739Y016144D01*
X012797Y016201D01*
X012845Y016268D01*
X012867Y016311D01*
X012908Y016212D01*
X013000Y016120D01*
X012938Y016182D02*
X012777Y016182D01*
X012851Y016281D02*
X012880Y016281D01*
X012697Y016084D02*
X012650Y016084D01*
X012525Y015985D02*
X012275Y015985D01*
X012350Y016084D02*
X012450Y016084D01*
X012450Y016182D02*
X012350Y016182D01*
X012350Y016281D02*
X012450Y016281D01*
X012450Y016379D02*
X012350Y016379D01*
X012350Y016478D02*
X012450Y016478D01*
X012450Y016675D02*
X012350Y016675D01*
X012350Y016773D02*
X012450Y016773D01*
X012450Y016872D02*
X012350Y016872D01*
X012350Y016970D02*
X012450Y016970D01*
X012693Y016970D02*
X013010Y016970D01*
X012911Y016872D02*
X012802Y016872D01*
X012865Y016773D02*
X012869Y016773D01*
X013160Y017069D02*
X011640Y017069D01*
X011790Y016970D02*
X012107Y016970D01*
X011998Y016872D02*
X011889Y016872D01*
X011931Y016773D02*
X011935Y016773D01*
X011920Y016281D02*
X011949Y016281D01*
X012023Y016182D02*
X011862Y016182D01*
X012103Y016084D02*
X012150Y016084D01*
X012374Y015887D02*
X012426Y015887D01*
X011902Y015538D02*
X011900Y015540D01*
X011902Y015538D02*
X011902Y014162D01*
X010809Y013566D02*
X010650Y013725D01*
X010347Y013725D01*
X010315Y013757D01*
X010315Y015454D01*
X010032Y015737D01*
X010032Y016426D01*
X010150Y016544D01*
X010519Y016576D02*
X010820Y016576D01*
X010820Y016478D02*
X010519Y016478D01*
X010588Y016379D02*
X010839Y016379D01*
X010880Y016281D02*
X010687Y016281D01*
X010775Y016182D02*
X010938Y016182D01*
X011036Y016084D02*
X010775Y016084D01*
X010775Y015985D02*
X011224Y015985D01*
X011230Y015788D02*
X011375Y015788D01*
X011426Y015887D02*
X010774Y015887D01*
X010622Y015540D02*
X010406Y015757D01*
X010406Y016040D01*
X010622Y015540D02*
X011150Y015540D01*
X011315Y015375D01*
X011315Y012804D01*
X011315Y011995D01*
X011309Y011989D01*
X011309Y011456D01*
X011536Y011229D01*
X012638Y011229D01*
X012650Y011241D01*
X013077Y011257D02*
X013264Y011257D01*
X013264Y011159D02*
X013077Y011159D01*
X013077Y011060D02*
X013264Y011060D01*
X013264Y010962D02*
X013077Y010962D01*
X013077Y010957D02*
X013077Y011525D01*
X012954Y011648D01*
X012346Y011648D01*
X012223Y011525D01*
X012223Y011489D01*
X011644Y011489D01*
X011582Y011551D01*
X011603Y011572D01*
X011633Y011554D01*
X011672Y011544D01*
X011800Y011544D01*
X011800Y011980D01*
X011819Y011980D01*
X011819Y011998D01*
X012078Y011998D01*
X012078Y012304D01*
X012067Y012342D01*
X012048Y012376D01*
X012047Y012377D01*
X012268Y012377D01*
X012391Y012500D01*
X012391Y012544D01*
X012964Y012544D01*
X013264Y012243D01*
X013264Y008193D01*
X013239Y008207D01*
X013201Y008218D01*
X013013Y008218D01*
X013013Y007919D01*
X012917Y007919D01*
X012917Y008218D01*
X012729Y008218D01*
X012691Y008207D01*
X012677Y008200D01*
X012599Y008278D01*
X012069Y008278D01*
X012069Y009373D01*
X012138Y009441D01*
X012138Y010206D01*
X012044Y010300D01*
X012223Y010300D01*
X012223Y010288D01*
X012346Y010165D01*
X012954Y010165D01*
X013077Y010288D01*
X013077Y010855D01*
X013026Y010906D01*
X013077Y010957D01*
X013069Y010863D02*
X013264Y010863D01*
X013264Y010765D02*
X013077Y010765D01*
X013077Y010666D02*
X013264Y010666D01*
X013264Y010568D02*
X013077Y010568D01*
X013077Y010469D02*
X013264Y010469D01*
X013264Y010371D02*
X013077Y010371D01*
X013061Y010272D02*
X013264Y010272D01*
X013264Y010174D02*
X012962Y010174D01*
X013264Y010075D02*
X012138Y010075D01*
X012138Y009977D02*
X013264Y009977D01*
X013264Y009878D02*
X012138Y009878D01*
X012138Y009780D02*
X013264Y009780D01*
X013264Y009681D02*
X012138Y009681D01*
X012138Y009583D02*
X013264Y009583D01*
X013264Y009484D02*
X012138Y009484D01*
X012082Y009386D02*
X013264Y009386D01*
X013264Y009287D02*
X012069Y009287D01*
X012069Y009189D02*
X013264Y009189D01*
X013264Y009090D02*
X012069Y009090D01*
X012069Y008992D02*
X013264Y008992D01*
X013264Y008893D02*
X012069Y008893D01*
X012069Y008795D02*
X013264Y008795D01*
X013264Y008696D02*
X012069Y008696D01*
X012069Y008598D02*
X013264Y008598D01*
X013264Y008499D02*
X012069Y008499D01*
X012069Y008401D02*
X013264Y008401D01*
X013264Y008302D02*
X012069Y008302D01*
X012296Y007871D02*
X012292Y007867D01*
X012292Y006954D01*
X012284Y006946D01*
X012284Y006564D01*
X012105Y006385D01*
X010770Y006385D01*
X010769Y006387D01*
X009705Y006387D01*
X009877Y006037D02*
X010270Y006037D01*
X010227Y005755D02*
X009874Y005402D01*
X010227Y005755D02*
X010770Y005755D01*
X010770Y006065D02*
X012132Y006065D01*
X012534Y005741D02*
X014129Y005741D01*
X014070Y005682D02*
X014070Y004865D01*
X011197Y004865D01*
X011197Y004865D01*
X011602Y004865D01*
X011697Y004905D01*
X012758Y005965D01*
X014130Y005965D01*
X014158Y005897D01*
X014250Y005805D01*
X014193Y005805D01*
X014070Y005682D01*
X014070Y005643D02*
X012435Y005643D01*
X012337Y005544D02*
X014070Y005544D01*
X014070Y005446D02*
X012238Y005446D01*
X012140Y005347D02*
X014070Y005347D01*
X014070Y005249D02*
X012041Y005249D01*
X011943Y005150D02*
X014070Y005150D01*
X014070Y005052D02*
X011844Y005052D01*
X011746Y004953D02*
X014070Y004953D01*
X014215Y005840D02*
X012632Y005840D01*
X012731Y005938D02*
X014141Y005938D01*
X014148Y006529D02*
X013790Y006529D01*
X013889Y006628D02*
X014232Y006628D01*
X014344Y006726D02*
X013987Y006726D01*
X014077Y006825D02*
X014317Y006825D01*
X014227Y006923D02*
X014111Y006923D01*
X014111Y007022D02*
X014170Y007022D01*
X014140Y007120D02*
X014111Y007120D01*
X013524Y007154D02*
X013524Y012351D01*
X013071Y012804D01*
X011985Y012804D01*
X012068Y012341D02*
X013167Y012341D01*
X013264Y012242D02*
X012078Y012242D01*
X012078Y012144D02*
X013264Y012144D01*
X013264Y012045D02*
X012078Y012045D01*
X012078Y011980D02*
X011819Y011980D01*
X011819Y011544D01*
X011947Y011544D01*
X011985Y011554D01*
X012020Y011574D01*
X012048Y011602D01*
X012067Y011636D01*
X012078Y011674D01*
X012078Y011980D01*
X012078Y011947D02*
X013264Y011947D01*
X013264Y011848D02*
X012078Y011848D01*
X012078Y011750D02*
X013264Y011750D01*
X013264Y011651D02*
X012071Y011651D01*
X011981Y011553D02*
X012251Y011553D01*
X011819Y011553D02*
X011800Y011553D01*
X011800Y011651D02*
X011819Y011651D01*
X011819Y011750D02*
X011800Y011750D01*
X011800Y011848D02*
X011819Y011848D01*
X011819Y011947D02*
X011800Y011947D01*
X011809Y011989D02*
X012886Y011989D01*
X013150Y011725D01*
X013150Y008631D01*
X013150Y008225D01*
X012965Y008040D01*
X012965Y007871D01*
X013013Y007822D02*
X013013Y007524D01*
X013201Y007524D01*
X013239Y007534D01*
X013264Y007548D01*
X013264Y007361D01*
X013245Y007380D01*
X012677Y007380D01*
X012626Y007329D01*
X012576Y007380D01*
X012552Y007380D01*
X012552Y007464D01*
X012599Y007464D01*
X012677Y007542D01*
X012691Y007534D01*
X012729Y007524D01*
X012917Y007524D01*
X012917Y007822D01*
X013013Y007822D01*
X013013Y007810D02*
X012917Y007810D01*
X012917Y007711D02*
X013013Y007711D01*
X013013Y007613D02*
X012917Y007613D01*
X012649Y007514D02*
X013264Y007514D01*
X013264Y007416D02*
X012552Y007416D01*
X012961Y006954D02*
X013323Y006954D01*
X013524Y007154D01*
X013013Y008007D02*
X012917Y008007D01*
X012917Y008105D02*
X013013Y008105D01*
X013013Y008204D02*
X012917Y008204D01*
X012684Y008204D02*
X012673Y008204D01*
X013246Y008204D02*
X013264Y008204D01*
X011809Y007211D02*
X011615Y007017D01*
X010771Y007017D01*
X010770Y007015D01*
X010770Y007325D02*
X010807Y007363D01*
X010807Y008973D01*
X010809Y008975D01*
X010809Y009398D01*
X010829Y009379D01*
X011221Y009379D01*
X011309Y009467D01*
X011309Y009824D01*
X010809Y009824D02*
X010809Y009398D01*
X011428Y008925D02*
X011525Y008925D01*
X011525Y008607D01*
X011549Y008607D01*
X011549Y007319D01*
X011507Y007277D01*
X011270Y007277D01*
X011270Y007512D01*
X011147Y007635D01*
X011067Y007635D01*
X011067Y008547D01*
X011091Y008547D01*
X011185Y008640D01*
X011188Y008637D01*
X011222Y008617D01*
X011260Y008607D01*
X011428Y008607D01*
X011428Y008925D01*
X011428Y008893D02*
X011525Y008893D01*
X011477Y008973D02*
X011477Y008139D01*
X011549Y008105D02*
X011067Y008105D01*
X011067Y008007D02*
X011549Y008007D01*
X011549Y007908D02*
X011067Y007908D01*
X011067Y007810D02*
X011549Y007810D01*
X011549Y007711D02*
X011067Y007711D01*
X011169Y007613D02*
X011549Y007613D01*
X011549Y007514D02*
X011268Y007514D01*
X011270Y007416D02*
X011549Y007416D01*
X011548Y007317D02*
X011270Y007317D01*
X011809Y007211D02*
X011809Y009824D01*
X012138Y010174D02*
X012338Y010174D01*
X012239Y010272D02*
X012071Y010272D01*
X012638Y010560D02*
X012650Y010572D01*
X012638Y010560D02*
X011044Y010560D01*
X010809Y010794D01*
X010809Y011989D01*
X010809Y013566D01*
X010549Y013330D02*
X010549Y013211D01*
X010012Y013211D01*
X009934Y013133D01*
X009920Y013141D01*
X009882Y013151D01*
X009694Y013151D01*
X009694Y012852D01*
X009598Y012852D01*
X009598Y012756D01*
X009280Y012756D01*
X009280Y012587D01*
X009290Y012549D01*
X009309Y012515D01*
X009337Y012487D01*
X009372Y012467D01*
X009410Y012457D01*
X009598Y012457D01*
X009598Y012756D01*
X009694Y012756D01*
X009694Y012457D01*
X009882Y012457D01*
X009920Y012467D01*
X009934Y012475D01*
X010010Y012399D01*
X009981Y012371D01*
X009981Y011607D01*
X010041Y011547D01*
X009715Y011221D01*
X009660Y011166D01*
X009660Y011787D01*
X009537Y011910D01*
X007263Y011910D01*
X007140Y011787D01*
X007140Y010853D01*
X007263Y010730D01*
X008100Y010730D01*
X008100Y010308D01*
X006602Y010308D01*
X006507Y010268D01*
X006434Y010195D01*
X006268Y010030D01*
X006229Y009934D01*
X006229Y009577D01*
X006205Y009577D01*
X006154Y009526D01*
X006103Y009577D01*
X005535Y009577D01*
X005431Y009473D01*
X005347Y009557D01*
X005304Y009557D01*
X005304Y010730D01*
X005737Y010730D01*
X005860Y010853D01*
X005860Y011787D01*
X005737Y011910D01*
X003463Y011910D01*
X003340Y011787D01*
X003340Y010853D01*
X003463Y010730D01*
X004784Y010730D01*
X004784Y009557D01*
X004740Y009557D01*
X004662Y009479D01*
X004649Y009487D01*
X004611Y009497D01*
X004423Y009497D01*
X004423Y009199D01*
X004326Y009199D01*
X004326Y009497D01*
X004138Y009497D01*
X004100Y009487D01*
X004066Y009467D01*
X004038Y009439D01*
X004018Y009405D01*
X004008Y009367D01*
X004008Y009199D01*
X004326Y009199D01*
X004326Y009102D01*
X004008Y009102D01*
X004008Y008934D01*
X004018Y008896D01*
X004038Y008861D01*
X004066Y008834D01*
X004100Y008814D01*
X004138Y008804D01*
X004326Y008804D01*
X004326Y009102D01*
X004423Y009102D01*
X004423Y008804D01*
X004611Y008804D01*
X004649Y008814D01*
X004662Y008821D01*
X004740Y008744D01*
X004784Y008744D01*
X004784Y008457D01*
X004823Y008361D01*
X005026Y008158D01*
X005000Y008132D01*
X004980Y008098D01*
X004970Y008060D01*
X004970Y007775D01*
X005300Y007775D01*
X005300Y007675D01*
X005400Y007675D01*
X005400Y007260D01*
X005573Y007260D01*
X005608Y007225D01*
X005573Y007190D01*
X005400Y007190D01*
X005400Y006775D01*
X005300Y006775D01*
X005300Y006675D01*
X005400Y006675D01*
X005400Y006260D01*
X005573Y006260D01*
X005608Y006225D01*
X005573Y006190D01*
X005400Y006190D01*
X005400Y005775D01*
X005300Y005775D01*
X005300Y005675D01*
X005400Y005675D01*
X005400Y005260D01*
X005573Y005260D01*
X005608Y005225D01*
X005573Y005190D01*
X005400Y005190D01*
X005400Y004775D01*
X005300Y004775D01*
X005300Y004675D01*
X005400Y004675D01*
X005400Y004260D01*
X005573Y004260D01*
X005633Y004200D01*
X006267Y004200D01*
X006390Y004323D01*
X006390Y004493D01*
X006509Y004493D01*
X006604Y004532D01*
X006651Y004579D01*
X006651Y004383D01*
X006867Y004167D01*
X007173Y004167D01*
X007280Y004275D01*
X007387Y004167D01*
X007693Y004167D01*
X007747Y004222D01*
X007790Y004178D01*
X007790Y003930D01*
X007561Y003930D01*
X007561Y003978D01*
X007438Y004101D01*
X006870Y004101D01*
X006819Y004050D01*
X006768Y004101D01*
X006201Y004101D01*
X006078Y003978D01*
X006078Y003949D01*
X005985Y004041D01*
X005496Y004041D01*
X005403Y003948D01*
X005400Y003952D01*
X005365Y003971D01*
X005327Y003981D01*
X005179Y003981D01*
X005179Y003703D01*
X005121Y003703D01*
X005121Y003981D01*
X004973Y003981D01*
X004935Y003971D01*
X004900Y003952D01*
X004872Y003924D01*
X004853Y003889D01*
X004843Y003851D01*
X004843Y003703D01*
X005121Y003703D01*
X005121Y003645D01*
X005179Y003645D01*
X005179Y003367D01*
X005327Y003367D01*
X005365Y003377D01*
X005400Y003397D01*
X005403Y003400D01*
X005496Y003307D01*
X005985Y003307D01*
X006078Y003399D01*
X006078Y003370D01*
X006201Y003247D01*
X006768Y003247D01*
X006819Y003298D01*
X006870Y003247D01*
X006906Y003247D01*
X006906Y003148D01*
X006678Y002920D01*
X006629Y002940D01*
X006419Y002940D01*
X006224Y002860D01*
X006075Y002710D01*
X006024Y002588D01*
X005973Y002710D01*
X005824Y002860D01*
X005629Y002940D01*
X005419Y002940D01*
X005224Y002860D01*
X005075Y002710D01*
X004994Y002516D01*
X004994Y002305D01*
X005075Y002110D01*
X005224Y001961D01*
X005419Y001880D01*
X005629Y001880D01*
X005824Y001961D01*
X005973Y002110D01*
X006024Y002232D01*
X006075Y002110D01*
X006224Y001961D01*
X006346Y001910D01*
X006224Y001860D01*
X006075Y001710D01*
X005994Y001516D01*
X005994Y001305D01*
X006075Y001110D01*
X006168Y001017D01*
X005782Y001017D01*
X005830Y001052D01*
X005883Y001104D01*
X005926Y001164D01*
X005960Y001230D01*
X005982Y001300D01*
X005994Y001372D01*
X005563Y001372D01*
X005563Y001449D01*
X005994Y001449D01*
X005982Y001520D01*
X005960Y001591D01*
X005926Y001657D01*
X005883Y001716D01*
X005830Y001769D01*
X005770Y001812D01*
X005704Y001846D01*
X005634Y001869D01*
X005563Y001880D01*
X005563Y001449D01*
X005485Y001449D01*
X005485Y001372D01*
X005054Y001372D01*
X005066Y001300D01*
X005088Y001230D01*
X005122Y001164D01*
X005166Y001104D01*
X005218Y001052D01*
X005266Y001017D01*
X004726Y001017D01*
X004410Y001333D01*
X004410Y002777D01*
X004370Y002872D01*
X003870Y003372D01*
X003797Y003446D01*
X003702Y003485D01*
X003120Y003485D01*
X002798Y003807D01*
X002798Y004011D01*
X002895Y004011D01*
X002895Y003713D01*
X003083Y003713D01*
X003121Y003723D01*
X003155Y003743D01*
X003183Y003771D01*
X003203Y003805D01*
X003213Y003843D01*
X003213Y004011D01*
X002895Y004011D01*
X002895Y004108D01*
X002798Y004108D01*
X002798Y004407D01*
X002611Y004407D01*
X002572Y004396D01*
X002559Y004389D01*
X002481Y004467D01*
X002438Y004467D01*
X002438Y004888D01*
X002502Y004915D01*
X002665Y005078D01*
X002754Y005291D01*
X002754Y005522D01*
X002665Y005735D01*
X002502Y005898D01*
X002482Y005906D01*
X002502Y005915D01*
X002665Y006078D01*
X002754Y006291D01*
X002754Y006522D01*
X002665Y006735D01*
X002502Y006898D01*
X002482Y006906D01*
X002502Y006915D01*
X002665Y007078D01*
X002754Y007291D01*
X002754Y007522D01*
X002665Y007735D01*
X002514Y007886D01*
X002563Y007886D01*
X002602Y007897D01*
X002636Y007916D01*
X002664Y007944D01*
X002683Y007978D01*
X002694Y008017D01*
X002694Y008356D01*
X002224Y008356D01*
X002224Y008456D01*
X002694Y008456D01*
X002694Y008796D01*
X002683Y008834D01*
X002664Y008868D01*
X002636Y008896D01*
X002602Y008916D01*
X002563Y008926D01*
X002224Y008926D01*
X002224Y008456D01*
X002124Y008456D01*
X002124Y008356D01*
X001654Y008356D01*
X001654Y008017D01*
X001664Y007978D01*
X001684Y007944D01*
X001712Y007916D01*
X001746Y007897D01*
X001784Y007886D01*
X001833Y007886D01*
X001682Y007735D01*
X001594Y007522D01*
X001594Y007291D01*
X001682Y007078D01*
X001845Y006915D01*
X001865Y006906D01*
X001845Y006898D01*
X001682Y006735D01*
X001594Y006522D01*
X001594Y006291D01*
X001682Y006078D01*
X001845Y005915D01*
X001865Y005906D01*
X001845Y005898D01*
X001692Y005745D01*
X001480Y005956D01*
X001480Y014089D01*
X001657Y014265D01*
X006572Y014265D01*
X006572Y014242D01*
X006504Y014242D01*
X006381Y014119D01*
X006381Y013394D01*
X006504Y013271D01*
X007308Y013271D01*
X007431Y013394D01*
X007431Y014119D01*
X007308Y014242D01*
X007232Y014242D01*
X007232Y015052D01*
X007392Y015212D01*
X007400Y015232D01*
X007408Y015212D01*
X007571Y015048D01*
X007785Y014960D01*
X008015Y014960D01*
X008229Y015048D01*
X008392Y015212D01*
X008480Y015425D01*
X008480Y015656D01*
X008392Y015869D01*
X008229Y016032D01*
X008015Y016120D01*
X007800Y016120D01*
X007892Y016212D01*
X007980Y016425D01*
X007961Y016379D02*
X009772Y016379D01*
X009772Y016281D02*
X007920Y016281D01*
X007862Y016182D02*
X009772Y016182D01*
X009772Y016084D02*
X008103Y016084D01*
X008275Y015985D02*
X009772Y015985D01*
X009772Y015887D02*
X008374Y015887D01*
X008425Y015788D02*
X009772Y015788D01*
X009772Y015690D02*
X008466Y015690D01*
X008480Y015591D02*
X009811Y015591D01*
X009811Y015590D02*
X009885Y015517D01*
X010055Y015346D01*
X010055Y014183D01*
X010032Y014183D01*
X009938Y014090D01*
X009935Y014093D01*
X009901Y014113D01*
X009863Y014123D01*
X009694Y014123D01*
X009694Y013805D01*
X009598Y013805D01*
X009598Y014123D01*
X009429Y014123D01*
X009391Y014113D01*
X009357Y014093D01*
X009329Y014065D01*
X009309Y014031D01*
X009299Y013993D01*
X009299Y013805D01*
X009598Y013805D01*
X009598Y013708D01*
X009694Y013708D01*
X009694Y013390D01*
X009863Y013390D01*
X009901Y013400D01*
X009935Y013420D01*
X009938Y013423D01*
X010032Y013330D01*
X010549Y013330D01*
X010549Y013326D02*
X007362Y013326D01*
X007431Y013424D02*
X009353Y013424D01*
X009357Y013420D02*
X009391Y013400D01*
X009429Y013390D01*
X009598Y013390D01*
X009598Y013708D01*
X009299Y013708D01*
X009299Y013520D01*
X009309Y013482D01*
X009329Y013448D01*
X009357Y013420D01*
X009299Y013523D02*
X007431Y013523D01*
X007431Y013621D02*
X009299Y013621D01*
X009299Y013818D02*
X007431Y013818D01*
X007431Y013720D02*
X009598Y013720D01*
X009598Y013818D02*
X009694Y013818D01*
X009694Y013917D02*
X009598Y013917D01*
X009598Y014015D02*
X009694Y014015D01*
X009694Y014114D02*
X009598Y014114D01*
X009394Y014114D02*
X007431Y014114D01*
X007431Y014015D02*
X009305Y014015D01*
X009299Y013917D02*
X007431Y013917D01*
X007338Y014212D02*
X010055Y014212D01*
X010055Y014311D02*
X007232Y014311D01*
X007232Y014409D02*
X010055Y014409D01*
X010055Y014508D02*
X007232Y014508D01*
X007232Y014606D02*
X010055Y014606D01*
X010055Y014705D02*
X007232Y014705D01*
X007232Y014803D02*
X010055Y014803D01*
X010055Y014902D02*
X007232Y014902D01*
X007232Y015000D02*
X007688Y015000D01*
X007521Y015099D02*
X007279Y015099D01*
X007377Y015197D02*
X007423Y015197D01*
X008112Y015000D02*
X010055Y015000D01*
X010055Y015099D02*
X008279Y015099D01*
X008377Y015197D02*
X010055Y015197D01*
X010055Y015296D02*
X008427Y015296D01*
X008467Y015394D02*
X010007Y015394D01*
X009908Y015493D02*
X008480Y015493D01*
X007980Y016576D02*
X009781Y016576D01*
X009772Y016478D02*
X009772Y015685D01*
X009811Y015590D01*
X009781Y016675D02*
X007972Y016675D01*
X007931Y016773D02*
X009858Y016773D01*
X009956Y016872D02*
X007889Y016872D01*
X007790Y016970D02*
X011010Y016970D01*
X010911Y016872D02*
X010344Y016872D01*
X010442Y016773D02*
X010869Y016773D01*
X010828Y016675D02*
X010519Y016675D01*
X011160Y017069D02*
X007640Y017069D01*
X007160Y017069D02*
X005640Y017069D01*
X005790Y016970D02*
X006107Y016970D01*
X005998Y016872D02*
X005889Y016872D01*
X005931Y016773D02*
X005935Y016773D01*
X006350Y016773D02*
X006450Y016773D01*
X006450Y016675D02*
X006350Y016675D01*
X006350Y016490D02*
X006450Y016490D01*
X006450Y016022D01*
X006522Y016033D01*
X006600Y016058D01*
X006673Y016095D01*
X006739Y016144D01*
X006797Y016201D01*
X006845Y016268D01*
X006867Y016311D01*
X006908Y016212D01*
X007000Y016120D01*
X006785Y016120D01*
X006571Y016032D01*
X006408Y015869D01*
X006400Y015849D01*
X006392Y015869D01*
X006229Y016032D01*
X006015Y016120D01*
X005800Y016120D01*
X005892Y016212D01*
X005933Y016311D01*
X005955Y016268D01*
X006003Y016201D01*
X006061Y016144D01*
X006127Y016095D01*
X006200Y016058D01*
X006278Y016033D01*
X006350Y016022D01*
X006350Y016490D01*
X006350Y016478D02*
X006450Y016478D01*
X006450Y016379D02*
X006350Y016379D01*
X006350Y016281D02*
X006450Y016281D01*
X006450Y016182D02*
X006350Y016182D01*
X006350Y016084D02*
X006450Y016084D01*
X006525Y015985D02*
X006275Y015985D01*
X006374Y015887D02*
X006426Y015887D01*
X006650Y016084D02*
X006697Y016084D01*
X006777Y016182D02*
X006938Y016182D01*
X006880Y016281D02*
X006851Y016281D01*
X006865Y016773D02*
X006869Y016773D01*
X006911Y016872D02*
X006802Y016872D01*
X006693Y016970D02*
X007010Y016970D01*
X006450Y016970D02*
X006350Y016970D01*
X006350Y016872D02*
X006450Y016872D01*
X005949Y016281D02*
X005920Y016281D01*
X005862Y016182D02*
X006023Y016182D01*
X006103Y016084D02*
X006150Y016084D01*
X005426Y015887D02*
X000600Y015887D01*
X000600Y015985D02*
X005224Y015985D01*
X005036Y016084D02*
X000600Y016084D01*
X000600Y016182D02*
X004938Y016182D01*
X004880Y016281D02*
X000600Y016281D01*
X000600Y016379D02*
X004839Y016379D01*
X004820Y016478D02*
X000600Y016478D01*
X000600Y016576D02*
X004820Y016576D01*
X004828Y016675D02*
X000600Y016675D01*
X000600Y016773D02*
X004869Y016773D01*
X004911Y016872D02*
X000600Y016872D01*
X000600Y016970D02*
X005010Y016970D01*
X005160Y017069D02*
X000600Y017069D01*
X000600Y017167D02*
X014539Y017167D01*
X014637Y017266D02*
X000600Y017266D01*
X000600Y017364D02*
X014736Y017364D01*
X014834Y017463D02*
X000600Y017463D01*
X000600Y017561D02*
X014933Y017561D01*
X015031Y017660D02*
X000600Y017660D01*
X000600Y017758D02*
X015130Y017758D01*
X015228Y017857D02*
X000600Y017857D01*
X000600Y017955D02*
X004488Y017955D01*
X004506Y017950D02*
X004229Y018024D01*
X003981Y018168D01*
X003778Y018371D01*
X003634Y018619D01*
X003560Y018897D01*
X003560Y019184D01*
X003634Y019461D01*
X003778Y019709D01*
X003981Y019912D01*
X004229Y020056D01*
X004506Y020130D01*
X004794Y020130D01*
X005071Y020056D01*
X005319Y019912D01*
X005522Y019709D01*
X005666Y019461D01*
X005740Y019184D01*
X005740Y018897D01*
X005666Y018619D01*
X005522Y018371D01*
X005319Y018168D01*
X005071Y018024D01*
X004794Y017950D01*
X004506Y017950D01*
X004812Y017955D02*
X008488Y017955D01*
X008506Y017950D02*
X008794Y017950D01*
X009071Y018024D01*
X009319Y018168D01*
X009522Y018371D01*
X009650Y018592D01*
X009778Y018371D01*
X009981Y018168D01*
X010229Y018024D01*
X010506Y017950D01*
X010794Y017950D01*
X011071Y018024D01*
X011319Y018168D01*
X011522Y018371D01*
X011666Y018619D01*
X011740Y018897D01*
X011740Y019184D01*
X011666Y019461D01*
X011522Y019709D01*
X011319Y019912D01*
X011071Y020056D01*
X010794Y020130D01*
X010506Y020130D01*
X010229Y020056D01*
X009981Y019912D01*
X009778Y019709D01*
X009650Y019488D01*
X009522Y019709D01*
X009319Y019912D01*
X009071Y020056D01*
X008794Y020130D01*
X008506Y020130D01*
X008229Y020056D01*
X007981Y019912D01*
X007778Y019709D01*
X007634Y019461D01*
X007560Y019184D01*
X007560Y018897D01*
X007634Y018619D01*
X007778Y018371D01*
X007981Y018168D01*
X008229Y018024D01*
X008506Y017950D01*
X008179Y018054D02*
X005121Y018054D01*
X005292Y018152D02*
X008008Y018152D01*
X007898Y018251D02*
X005402Y018251D01*
X005501Y018349D02*
X007799Y018349D01*
X007733Y018448D02*
X005567Y018448D01*
X005623Y018546D02*
X007677Y018546D01*
X007627Y018645D02*
X005672Y018645D01*
X005699Y018743D02*
X007601Y018743D01*
X007575Y018842D02*
X005725Y018842D01*
X005740Y018940D02*
X007560Y018940D01*
X007560Y019039D02*
X005740Y019039D01*
X005740Y019137D02*
X007560Y019137D01*
X007574Y019236D02*
X005726Y019236D01*
X005700Y019334D02*
X007600Y019334D01*
X007627Y019433D02*
X005673Y019433D01*
X005625Y019531D02*
X007675Y019531D01*
X007732Y019630D02*
X005568Y019630D01*
X005503Y019728D02*
X007797Y019728D01*
X007895Y019827D02*
X005405Y019827D01*
X005297Y019925D02*
X008003Y019925D01*
X008174Y020024D02*
X005126Y020024D01*
X004823Y020122D02*
X008477Y020122D01*
X008823Y020122D02*
X010477Y020122D01*
X010174Y020024D02*
X009126Y020024D01*
X009297Y019925D02*
X010003Y019925D01*
X009895Y019827D02*
X009405Y019827D01*
X009503Y019728D02*
X009797Y019728D01*
X009732Y019630D02*
X009568Y019630D01*
X009625Y019531D02*
X009675Y019531D01*
X009677Y018546D02*
X009623Y018546D01*
X009567Y018448D02*
X009733Y018448D01*
X009799Y018349D02*
X009501Y018349D01*
X009402Y018251D02*
X009898Y018251D01*
X010008Y018152D02*
X009292Y018152D01*
X009121Y018054D02*
X010179Y018054D01*
X010488Y017955D02*
X008812Y017955D01*
X010812Y017955D02*
X014488Y017955D01*
X014812Y017955D02*
X015327Y017955D01*
X015425Y018054D02*
X015121Y018054D01*
X015292Y018152D02*
X015524Y018152D01*
X015622Y018251D02*
X015402Y018251D01*
X015501Y018349D02*
X015666Y018349D01*
X015666Y018448D02*
X015567Y018448D01*
X015623Y018546D02*
X015666Y018546D01*
X015740Y018940D02*
X015800Y018940D01*
X015740Y019039D02*
X015898Y019039D01*
X015997Y019137D02*
X015740Y019137D01*
X015726Y019236D02*
X016160Y019236D01*
X016281Y019334D02*
X015700Y019334D01*
X015673Y019433D02*
X016414Y019433D01*
X016414Y019531D02*
X015625Y019531D01*
X015568Y019630D02*
X016414Y019630D01*
X016414Y019728D02*
X015503Y019728D01*
X015405Y019827D02*
X016414Y019827D01*
X016414Y019925D02*
X015297Y019925D01*
X015126Y020024D02*
X016414Y020024D01*
X016414Y020122D02*
X014823Y020122D01*
X014477Y020122D02*
X010823Y020122D01*
X011126Y020024D02*
X014174Y020024D01*
X014003Y019925D02*
X011297Y019925D01*
X011405Y019827D02*
X013895Y019827D01*
X013797Y019728D02*
X011503Y019728D01*
X011568Y019630D02*
X013732Y019630D01*
X013675Y019531D02*
X011625Y019531D01*
X011673Y019433D02*
X013627Y019433D01*
X013600Y019334D02*
X011700Y019334D01*
X011726Y019236D02*
X013574Y019236D01*
X013560Y019137D02*
X011740Y019137D01*
X011740Y019039D02*
X013560Y019039D01*
X013560Y018940D02*
X011740Y018940D01*
X011725Y018842D02*
X013575Y018842D01*
X013601Y018743D02*
X011699Y018743D01*
X011672Y018645D02*
X013627Y018645D01*
X013677Y018546D02*
X011623Y018546D01*
X011567Y018448D02*
X013733Y018448D01*
X013799Y018349D02*
X011501Y018349D01*
X011402Y018251D02*
X013898Y018251D01*
X014008Y018152D02*
X011292Y018152D01*
X011121Y018054D02*
X014179Y018054D01*
X014440Y017069D02*
X013640Y017069D01*
X013790Y016970D02*
X014342Y016970D01*
X017170Y018448D02*
X021747Y018448D01*
X021747Y018546D02*
X018363Y018546D01*
X018361Y018543D02*
X018380Y018577D01*
X018391Y018615D01*
X018391Y018860D01*
X017976Y018860D01*
X017976Y018485D01*
X018260Y018485D01*
X018298Y018495D01*
X018333Y018515D01*
X018361Y018543D01*
X018391Y018645D02*
X021747Y018645D01*
X021747Y018743D02*
X018391Y018743D01*
X018391Y018842D02*
X021747Y018842D01*
X021747Y018940D02*
X017976Y018940D01*
X017926Y018910D02*
X017756Y019080D01*
X017756Y020745D01*
X017806Y020795D02*
X017806Y021263D01*
X017878Y021252D01*
X017956Y021227D01*
X018029Y021190D01*
X018095Y021142D01*
X018153Y021084D01*
X018201Y021017D01*
X018238Y020944D01*
X018263Y020867D01*
X018275Y020795D01*
X017806Y020795D01*
X017806Y020812D02*
X017706Y020812D01*
X017706Y020910D02*
X017806Y020910D01*
X017806Y021009D02*
X017706Y021009D01*
X017706Y021107D02*
X017806Y021107D01*
X017806Y021206D02*
X017706Y021206D01*
X017515Y021206D02*
X017332Y021206D01*
X017336Y021107D02*
X017383Y021107D01*
X017234Y021304D02*
X019402Y021304D01*
X019351Y021206D02*
X017997Y021206D01*
X018129Y021107D02*
X019324Y021107D01*
X019298Y021009D02*
X018205Y021009D01*
X018249Y020910D02*
X019271Y020910D01*
X019262Y020812D02*
X018272Y020812D01*
X017806Y020319D02*
X017706Y020319D01*
X017876Y019334D02*
X017976Y019334D01*
X017976Y019236D02*
X017876Y019236D01*
X017876Y019137D02*
X017976Y019137D01*
X017976Y019039D02*
X017876Y019039D01*
X017876Y018860D02*
X017461Y018860D01*
X017461Y018615D01*
X017471Y018577D01*
X017491Y018543D01*
X017519Y018515D01*
X017553Y018495D01*
X017591Y018485D01*
X017876Y018485D01*
X017876Y018860D01*
X017876Y018842D02*
X017976Y018842D01*
X017976Y018743D02*
X017876Y018743D01*
X017876Y018645D02*
X017976Y018645D01*
X017976Y018546D02*
X017876Y018546D01*
X017488Y018546D02*
X017268Y018546D01*
X017269Y018645D02*
X017461Y018645D01*
X017461Y018743D02*
X017269Y018743D01*
X017269Y018842D02*
X017461Y018842D01*
X018266Y019334D02*
X021747Y019334D01*
X021747Y019236D02*
X018382Y019236D01*
X018391Y019137D02*
X021747Y019137D01*
X021747Y019039D02*
X018391Y019039D01*
X018447Y018152D02*
X021747Y018152D01*
X021747Y018054D02*
X018554Y018054D01*
X018616Y017955D02*
X021747Y017955D01*
X021747Y017857D02*
X018654Y017857D01*
X016243Y020221D02*
X003005Y020221D01*
X003031Y020319D02*
X016176Y020319D01*
X016176Y020418D02*
X003058Y020418D01*
X003084Y020516D02*
X016176Y020516D01*
X016176Y020615D02*
X003085Y020615D01*
X003085Y020713D02*
X016176Y020713D01*
X016176Y020812D02*
X003085Y020812D01*
X003076Y020910D02*
X016176Y020910D01*
X016176Y021009D02*
X003049Y021009D01*
X003023Y021107D02*
X016176Y021107D01*
X016180Y021206D02*
X002997Y021206D01*
X002945Y021304D02*
X016279Y021304D01*
X019459Y021403D02*
X002888Y021403D01*
X002831Y021501D02*
X019516Y021501D01*
X019601Y021600D02*
X002746Y021600D01*
X002648Y021698D02*
X019700Y021698D01*
X019806Y021797D02*
X002541Y021797D01*
X002963Y020122D02*
X004477Y020122D01*
X004174Y020024D02*
X002906Y020024D01*
X002849Y019925D02*
X004003Y019925D01*
X003895Y019827D02*
X002777Y019827D01*
X002679Y019728D02*
X003797Y019728D01*
X003732Y019630D02*
X002580Y019630D01*
X002425Y019531D02*
X003675Y019531D01*
X003627Y019433D02*
X002254Y019433D01*
X001196Y019433D02*
X000600Y019433D01*
X000600Y019531D02*
X001025Y019531D01*
X000869Y019630D02*
X000600Y019630D01*
X000600Y019728D02*
X000771Y019728D01*
X000672Y019827D02*
X000600Y019827D01*
X000600Y019925D02*
X000600Y019925D01*
X000600Y019334D02*
X003600Y019334D01*
X003574Y019236D02*
X000600Y019236D01*
X000600Y019137D02*
X003560Y019137D01*
X003560Y019039D02*
X000600Y019039D01*
X000600Y018940D02*
X003560Y018940D01*
X003575Y018842D02*
X000600Y018842D01*
X000600Y018743D02*
X003601Y018743D01*
X003627Y018645D02*
X000600Y018645D01*
X000600Y018546D02*
X003677Y018546D01*
X003733Y018448D02*
X000600Y018448D01*
X000600Y018349D02*
X003799Y018349D01*
X003898Y018251D02*
X000600Y018251D01*
X000600Y018152D02*
X004008Y018152D01*
X004179Y018054D02*
X000600Y018054D01*
X000600Y015788D02*
X005375Y015788D01*
X005334Y015690D02*
X000600Y015690D01*
X000600Y015591D02*
X005320Y015591D01*
X005320Y015493D02*
X000600Y015493D01*
X000600Y015394D02*
X005333Y015394D01*
X005373Y015296D02*
X000600Y015296D01*
X000600Y015197D02*
X005423Y015197D01*
X005521Y015099D02*
X000600Y015099D01*
X000600Y015000D02*
X005688Y015000D01*
X006112Y015000D02*
X006572Y015000D01*
X006521Y015099D02*
X006279Y015099D01*
X006377Y015197D02*
X006423Y015197D01*
X006474Y014212D02*
X001604Y014212D01*
X001505Y014114D02*
X005284Y014114D01*
X005290Y014124D02*
X005270Y014090D01*
X005260Y014052D01*
X005260Y013807D01*
X005675Y013807D01*
X005675Y014182D01*
X005390Y014182D01*
X005352Y014172D01*
X005318Y014152D01*
X005290Y014124D01*
X005260Y014015D02*
X001480Y014015D01*
X001480Y013917D02*
X005260Y013917D01*
X005260Y013818D02*
X001480Y013818D01*
X001480Y013720D02*
X005675Y013720D01*
X005675Y013707D02*
X005260Y013707D01*
X005260Y013461D01*
X005270Y013423D01*
X005290Y013389D01*
X005318Y013361D01*
X005352Y013341D01*
X005390Y013331D01*
X005675Y013331D01*
X005675Y013707D01*
X005675Y013807D01*
X005775Y013807D01*
X005775Y014182D01*
X006060Y014182D01*
X006098Y014172D01*
X006132Y014152D01*
X006160Y014124D01*
X006180Y014090D01*
X006190Y014052D01*
X006190Y013807D01*
X005775Y013807D01*
X005775Y013707D01*
X006190Y013707D01*
X006190Y013461D01*
X006180Y013423D01*
X006160Y013389D01*
X006132Y013361D01*
X006098Y013341D01*
X006060Y013331D01*
X005775Y013331D01*
X005775Y013707D01*
X005675Y013707D01*
X005675Y013621D02*
X005775Y013621D01*
X005775Y013523D02*
X005675Y013523D01*
X005675Y013424D02*
X005775Y013424D01*
X005775Y013720D02*
X006381Y013720D01*
X006381Y013818D02*
X006190Y013818D01*
X006190Y013917D02*
X006381Y013917D01*
X006381Y014015D02*
X006190Y014015D01*
X006166Y014114D02*
X006381Y014114D01*
X006381Y013621D02*
X006190Y013621D01*
X006190Y013523D02*
X006381Y013523D01*
X006381Y013424D02*
X006180Y013424D01*
X006449Y013326D02*
X001480Y013326D01*
X001480Y013424D02*
X005270Y013424D01*
X005260Y013523D02*
X001480Y013523D01*
X001480Y013621D02*
X005260Y013621D01*
X005675Y013818D02*
X005775Y013818D01*
X005775Y013917D02*
X005675Y013917D01*
X005675Y014015D02*
X005775Y014015D01*
X005775Y014114D02*
X005675Y014114D01*
X005799Y011848D02*
X007202Y011848D01*
X007140Y011750D02*
X005860Y011750D01*
X005860Y011651D02*
X007140Y011651D01*
X007140Y011553D02*
X005860Y011553D01*
X005860Y011454D02*
X007140Y011454D01*
X007140Y011356D02*
X005860Y011356D01*
X005860Y011257D02*
X007140Y011257D01*
X007140Y011159D02*
X005860Y011159D01*
X005860Y011060D02*
X007140Y011060D01*
X007140Y010962D02*
X005860Y010962D01*
X005860Y010863D02*
X007140Y010863D01*
X007228Y010765D02*
X005772Y010765D01*
X005304Y010666D02*
X008100Y010666D01*
X008100Y010568D02*
X005304Y010568D01*
X005304Y010469D02*
X008100Y010469D01*
X008100Y010371D02*
X005304Y010371D01*
X005304Y010272D02*
X006516Y010272D01*
X006412Y010174D02*
X005304Y010174D01*
X005304Y010075D02*
X006313Y010075D01*
X006246Y009977D02*
X005304Y009977D01*
X005304Y009878D02*
X006229Y009878D01*
X006229Y009780D02*
X005304Y009780D01*
X005304Y009681D02*
X006229Y009681D01*
X006229Y009583D02*
X005304Y009583D01*
X005420Y009484D02*
X005443Y009484D01*
X005819Y009150D02*
X005044Y009150D01*
X005044Y010876D01*
X004600Y011320D01*
X004784Y010666D02*
X001480Y010666D01*
X001480Y010568D02*
X004784Y010568D01*
X004784Y010469D02*
X001480Y010469D01*
X001480Y010371D02*
X004784Y010371D01*
X004784Y010272D02*
X001480Y010272D01*
X001480Y010174D02*
X004784Y010174D01*
X004784Y010075D02*
X001480Y010075D01*
X001480Y009977D02*
X004784Y009977D01*
X004784Y009878D02*
X001480Y009878D01*
X001480Y009780D02*
X004784Y009780D01*
X004784Y009681D02*
X001480Y009681D01*
X001480Y009583D02*
X004784Y009583D01*
X004667Y009484D02*
X004654Y009484D01*
X004423Y009484D02*
X004326Y009484D01*
X004326Y009386D02*
X004423Y009386D01*
X004423Y009287D02*
X004326Y009287D01*
X004326Y009189D02*
X001480Y009189D01*
X001480Y009287D02*
X004008Y009287D01*
X004013Y009386D02*
X001480Y009386D01*
X001480Y009484D02*
X004095Y009484D01*
X004008Y009090D02*
X001480Y009090D01*
X001480Y008992D02*
X004008Y008992D01*
X004019Y008893D02*
X002639Y008893D01*
X002694Y008795D02*
X004689Y008795D01*
X004784Y008696D02*
X002694Y008696D01*
X002694Y008598D02*
X004784Y008598D01*
X004784Y008499D02*
X002694Y008499D01*
X002694Y008302D02*
X004882Y008302D01*
X004807Y008401D02*
X002224Y008401D01*
X002224Y008499D02*
X002124Y008499D01*
X002124Y008456D02*
X002124Y008926D01*
X001784Y008926D01*
X001746Y008916D01*
X001712Y008896D01*
X001684Y008868D01*
X001664Y008834D01*
X001654Y008796D01*
X001654Y008456D01*
X002124Y008456D01*
X002124Y008401D02*
X001480Y008401D01*
X001480Y008499D02*
X001654Y008499D01*
X001654Y008598D02*
X001480Y008598D01*
X001480Y008696D02*
X001654Y008696D01*
X001654Y008795D02*
X001480Y008795D01*
X001480Y008893D02*
X001708Y008893D01*
X002124Y008893D02*
X002224Y008893D01*
X002224Y008795D02*
X002124Y008795D01*
X002124Y008696D02*
X002224Y008696D01*
X002224Y008598D02*
X002124Y008598D01*
X001654Y008302D02*
X001480Y008302D01*
X001480Y008204D02*
X001654Y008204D01*
X001654Y008105D02*
X001480Y008105D01*
X001480Y008007D02*
X001656Y008007D01*
X001725Y007908D02*
X001480Y007908D01*
X001480Y007810D02*
X001757Y007810D01*
X001672Y007711D02*
X001480Y007711D01*
X001480Y007613D02*
X001631Y007613D01*
X001594Y007514D02*
X001480Y007514D01*
X001480Y007416D02*
X001594Y007416D01*
X001594Y007317D02*
X001480Y007317D01*
X001480Y007219D02*
X001624Y007219D01*
X001664Y007120D02*
X001480Y007120D01*
X001480Y007022D02*
X001738Y007022D01*
X001836Y006923D02*
X001480Y006923D01*
X001480Y006825D02*
X001772Y006825D01*
X001678Y006726D02*
X001480Y006726D01*
X001480Y006628D02*
X001638Y006628D01*
X001597Y006529D02*
X001480Y006529D01*
X001480Y006431D02*
X001594Y006431D01*
X001594Y006332D02*
X001480Y006332D01*
X001480Y006234D02*
X001617Y006234D01*
X001658Y006135D02*
X001480Y006135D01*
X001480Y006037D02*
X001723Y006037D01*
X001821Y005938D02*
X001498Y005938D01*
X001597Y005840D02*
X001787Y005840D01*
X002174Y005406D02*
X002178Y005402D01*
X002178Y004060D01*
X003012Y003225D01*
X003650Y003225D01*
X004150Y002725D01*
X004150Y001225D01*
X004619Y000757D01*
X007296Y000757D01*
X007528Y000989D01*
X007528Y001406D01*
X007524Y001410D01*
X007528Y001406D02*
X008150Y001406D01*
X008360Y001616D01*
X008360Y002725D01*
X008561Y002524D01*
X009000Y002524D01*
X008650Y002885D02*
X008620Y002885D01*
X008620Y002983D02*
X010716Y002983D01*
X010830Y003574D02*
X017679Y003574D01*
X017777Y003673D02*
X010732Y003673D01*
X010633Y003771D02*
X017896Y003771D01*
X017770Y003870D02*
X010535Y003870D01*
X010436Y003968D02*
X017697Y003968D01*
X017655Y004067D02*
X010338Y004067D01*
X010497Y004165D02*
X017633Y004165D01*
X018100Y004264D02*
X010560Y004264D01*
X009718Y003377D02*
X009621Y003377D01*
X009621Y003279D02*
X009718Y003279D01*
X009718Y003180D02*
X009621Y003180D01*
X009621Y002786D02*
X009718Y002786D01*
X009718Y002688D02*
X009621Y002688D01*
X009621Y002589D02*
X009718Y002589D01*
X009718Y002392D02*
X009621Y002392D01*
X009621Y002294D02*
X009718Y002294D01*
X009718Y002195D02*
X009621Y002195D01*
X009382Y002195D02*
X009382Y002195D01*
X008596Y001506D02*
X019293Y001506D01*
X019320Y001407D02*
X008519Y001407D01*
X008420Y001309D02*
X019346Y001309D01*
X019393Y001210D02*
X008322Y001210D01*
X007974Y001112D02*
X019449Y001112D01*
X019506Y001013D02*
X007877Y001013D01*
X007779Y000915D02*
X019584Y000915D01*
X019683Y000816D02*
X007723Y000816D01*
X007624Y000718D02*
X019781Y000718D01*
X018768Y003180D02*
X018730Y003180D01*
X018730Y003279D02*
X018867Y003279D01*
X018965Y003377D02*
X018715Y003377D01*
X018674Y003476D02*
X019064Y003476D01*
X019162Y003574D02*
X018621Y003574D01*
X018523Y003673D02*
X019261Y003673D01*
X019359Y003771D02*
X018404Y003771D01*
X018530Y003870D02*
X019458Y003870D01*
X019534Y003968D02*
X018603Y003968D01*
X018645Y004067D02*
X019534Y004067D01*
X019534Y004165D02*
X018667Y004165D01*
X018652Y004362D02*
X019594Y004362D01*
X019594Y004461D02*
X018614Y004461D01*
X018550Y004559D02*
X019893Y004559D01*
X019941Y004556D02*
X018481Y004556D01*
X018150Y004225D01*
X018200Y004264D02*
X019608Y004264D01*
X019594Y004658D02*
X018439Y004658D01*
X018200Y004658D02*
X018100Y004658D01*
X018100Y004559D02*
X018200Y004559D01*
X018200Y004461D02*
X018100Y004461D01*
X018100Y004362D02*
X018200Y004362D01*
X016886Y006037D02*
X016639Y006037D01*
X016638Y006135D02*
X016886Y006135D01*
X016886Y006234D02*
X016582Y006234D01*
X016886Y006332D02*
X015230Y006332D01*
X015193Y006431D02*
X016886Y006431D01*
X016886Y006529D02*
X015152Y006529D01*
X015068Y006628D02*
X016886Y006628D01*
X016886Y006726D02*
X014956Y006726D01*
X014983Y006825D02*
X016886Y006825D01*
X016886Y006923D02*
X015073Y006923D01*
X015130Y007022D02*
X016886Y007022D01*
X016886Y007120D02*
X015160Y007120D01*
X017406Y007120D02*
X017570Y007120D01*
X017570Y007022D02*
X017406Y007022D01*
X017406Y006923D02*
X017570Y006923D01*
X017570Y006825D02*
X017406Y006825D01*
X017406Y006726D02*
X017570Y006726D01*
X017570Y006628D02*
X017406Y006628D01*
X017406Y006529D02*
X017570Y006529D01*
X017570Y006431D02*
X017406Y006431D01*
X017406Y006332D02*
X017570Y006332D01*
X017604Y006234D02*
X017406Y006234D01*
X017406Y007219D02*
X017607Y007219D01*
X017480Y007317D02*
X017738Y007317D01*
X017650Y007416D02*
X017578Y007416D01*
X017868Y009977D02*
X019594Y009977D01*
X019594Y010075D02*
X017967Y010075D01*
X018065Y010174D02*
X019893Y010174D01*
X019893Y010075D02*
X019990Y010075D01*
X019990Y009977D02*
X019893Y009977D01*
X019893Y009878D02*
X019990Y009878D01*
X019612Y009878D02*
X016675Y009878D01*
X015948Y009878D02*
X015230Y009878D01*
X014157Y009681D02*
X014111Y009681D01*
X013264Y011356D02*
X013077Y011356D01*
X013077Y011454D02*
X013264Y011454D01*
X013264Y011553D02*
X013049Y011553D01*
X013068Y012439D02*
X012330Y012439D01*
X012391Y012538D02*
X012970Y012538D01*
X014111Y011651D02*
X014256Y011651D01*
X014158Y011553D02*
X014111Y011553D01*
X014111Y011454D02*
X014117Y011454D01*
X015066Y012538D02*
X017652Y012538D01*
X017741Y012636D02*
X014969Y012636D01*
X018164Y010272D02*
X019594Y010272D01*
X019594Y010371D02*
X018262Y010371D01*
X018361Y010469D02*
X019597Y010469D01*
X019534Y010568D02*
X018442Y010568D01*
X018628Y010666D02*
X019534Y010666D01*
X019534Y010765D02*
X018727Y010765D01*
X018730Y010863D02*
X019447Y010863D01*
X020285Y010469D02*
X020320Y010469D01*
X020320Y010371D02*
X020288Y010371D01*
X020288Y010272D02*
X020320Y010272D01*
X021747Y013326D02*
X018661Y013326D01*
X018632Y013424D02*
X021747Y013424D01*
X021747Y013523D02*
X018577Y013523D01*
X018489Y013621D02*
X021747Y013621D01*
X021747Y019433D02*
X021152Y019433D01*
X021322Y019531D02*
X021747Y019531D01*
X021747Y019630D02*
X021478Y019630D01*
X021576Y019728D02*
X021747Y019728D01*
X021747Y019827D02*
X021675Y019827D01*
X021747Y019925D02*
X021747Y019925D01*
X011638Y011553D02*
X011584Y011553D01*
X010307Y011446D02*
X010307Y011987D01*
X010309Y011989D01*
X010315Y011995D01*
X010315Y012804D01*
X010549Y013227D02*
X001480Y013227D01*
X001480Y013129D02*
X009351Y013129D01*
X009337Y013121D02*
X009309Y013093D01*
X009290Y013059D01*
X009280Y013021D01*
X009280Y012852D01*
X009598Y012852D01*
X009598Y013151D01*
X009410Y013151D01*
X009372Y013141D01*
X009337Y013121D01*
X009282Y013030D02*
X001480Y013030D01*
X001480Y012932D02*
X009280Y012932D01*
X009280Y012735D02*
X001480Y012735D01*
X001480Y012833D02*
X009598Y012833D01*
X009646Y012804D02*
X009646Y012076D01*
X009599Y011848D02*
X009981Y011848D01*
X009981Y011750D02*
X009660Y011750D01*
X009660Y011651D02*
X009981Y011651D01*
X010035Y011553D02*
X009660Y011553D01*
X009660Y011454D02*
X009948Y011454D01*
X009850Y011356D02*
X009660Y011356D01*
X009660Y011257D02*
X009751Y011257D01*
X009715Y011221D02*
X009715Y011221D01*
X009863Y011001D02*
X010307Y011446D01*
X009981Y011947D02*
X001480Y011947D01*
X001480Y012045D02*
X009981Y012045D01*
X009981Y012144D02*
X001480Y012144D01*
X001480Y012242D02*
X009981Y012242D01*
X009981Y012341D02*
X001480Y012341D01*
X001480Y012439D02*
X009970Y012439D01*
X009694Y012538D02*
X009598Y012538D01*
X009598Y012636D02*
X009694Y012636D01*
X009694Y012735D02*
X009598Y012735D01*
X009598Y012932D02*
X009694Y012932D01*
X009694Y013030D02*
X009598Y013030D01*
X009598Y013129D02*
X009694Y013129D01*
X009694Y013424D02*
X009598Y013424D01*
X009598Y013523D02*
X009694Y013523D01*
X009694Y013621D02*
X009598Y013621D01*
X009898Y014114D02*
X009962Y014114D01*
X009280Y012636D02*
X001480Y012636D01*
X001480Y012538D02*
X009296Y012538D01*
X008400Y011320D02*
X008360Y011279D01*
X008360Y010048D01*
X006654Y010048D01*
X006489Y009883D01*
X006489Y009150D01*
X006154Y008775D02*
X006205Y008724D01*
X006772Y008724D01*
X006895Y008847D01*
X006895Y008927D01*
X006904Y008896D01*
X006924Y008861D01*
X006952Y008834D01*
X006986Y008814D01*
X007024Y008804D01*
X007212Y008804D01*
X007212Y009102D01*
X007309Y009102D01*
X007309Y008804D01*
X007497Y008804D01*
X007535Y008814D01*
X007548Y008821D01*
X007626Y008744D01*
X008100Y008744D01*
X008100Y008537D01*
X008061Y008576D01*
X007965Y008615D01*
X005305Y008615D01*
X005304Y008616D01*
X005304Y008744D01*
X005347Y008744D01*
X005431Y008828D01*
X005535Y008724D01*
X006103Y008724D01*
X006154Y008775D01*
X006843Y008795D02*
X007575Y008795D01*
X007309Y008893D02*
X007212Y008893D01*
X007212Y008992D02*
X007309Y008992D01*
X007309Y009090D02*
X007212Y009090D01*
X007260Y009150D02*
X007260Y009650D01*
X007264Y009713D01*
X007309Y009497D02*
X007309Y009199D01*
X007212Y009199D01*
X007212Y009497D01*
X007024Y009497D01*
X006986Y009487D01*
X006952Y009467D01*
X006924Y009439D01*
X006904Y009405D01*
X006895Y009373D01*
X006895Y009454D01*
X006772Y009577D01*
X006749Y009577D01*
X006749Y009775D01*
X006762Y009788D01*
X008100Y009788D01*
X008100Y009557D01*
X007626Y009557D01*
X007548Y009479D01*
X007535Y009487D01*
X007497Y009497D01*
X007309Y009497D01*
X007309Y009484D02*
X007212Y009484D01*
X007212Y009386D02*
X007309Y009386D01*
X007309Y009287D02*
X007212Y009287D01*
X006981Y009484D02*
X006865Y009484D01*
X006895Y009386D02*
X006899Y009386D01*
X006749Y009583D02*
X008100Y009583D01*
X008100Y009681D02*
X006749Y009681D01*
X006753Y009780D02*
X008100Y009780D01*
X008360Y010048D02*
X008360Y009143D01*
X008352Y009150D01*
X007930Y009150D01*
X008360Y009143D02*
X008360Y007845D01*
X008680Y007845D02*
X008680Y009039D01*
X008792Y009150D01*
X008792Y009627D01*
X009075Y009910D01*
X009587Y009910D01*
X009863Y010186D01*
X009863Y011001D01*
X010309Y009824D02*
X010296Y009810D01*
X010296Y008985D01*
X009940Y009628D02*
X009874Y009694D01*
X009940Y009628D02*
X009940Y007845D01*
X009311Y007844D02*
X009311Y007450D01*
X009193Y007331D01*
X008819Y007331D01*
X008819Y006859D01*
X008360Y006400D01*
X008360Y004605D01*
X008360Y002725D01*
X008620Y003082D02*
X008670Y003082D01*
X009000Y003461D02*
X008990Y003472D01*
X008990Y004605D01*
X008050Y004605D02*
X008050Y003787D01*
X007933Y003670D01*
X007158Y003670D01*
X007154Y003674D01*
X007166Y003662D01*
X007166Y003040D01*
X006536Y002410D01*
X006524Y002410D01*
X006150Y002786D02*
X005898Y002786D01*
X005983Y002688D02*
X006065Y002688D01*
X006024Y002589D02*
X006024Y002589D01*
X005764Y002885D02*
X006285Y002885D01*
X006170Y003279D02*
X003964Y003279D01*
X003866Y003377D02*
X004934Y003377D01*
X004935Y003377D02*
X004973Y003367D01*
X005121Y003367D01*
X005121Y003645D01*
X004843Y003645D01*
X004843Y003497D01*
X004853Y003459D01*
X004872Y003424D01*
X004900Y003397D01*
X004935Y003377D01*
X004848Y003476D02*
X003725Y003476D01*
X003642Y003670D02*
X005146Y003670D01*
X005150Y003674D01*
X005150Y003032D01*
X004941Y002824D01*
X004941Y001623D01*
X005158Y001406D01*
X005520Y001406D01*
X005524Y001410D01*
X005485Y001407D02*
X004410Y001407D01*
X004410Y001506D02*
X005063Y001506D01*
X005066Y001520D02*
X005054Y001449D01*
X005485Y001449D01*
X005485Y001880D01*
X005414Y001869D01*
X005344Y001846D01*
X005278Y001812D01*
X005218Y001769D01*
X005166Y001716D01*
X005122Y001657D01*
X005088Y001591D01*
X005066Y001520D01*
X005095Y001604D02*
X004410Y001604D01*
X004410Y001703D02*
X005156Y001703D01*
X005263Y001801D02*
X004410Y001801D01*
X004410Y001900D02*
X005372Y001900D01*
X005485Y001801D02*
X005563Y001801D01*
X005563Y001703D02*
X005485Y001703D01*
X005485Y001604D02*
X005563Y001604D01*
X005563Y001506D02*
X005485Y001506D01*
X005563Y001407D02*
X005994Y001407D01*
X005984Y001309D02*
X005994Y001309D01*
X006033Y001210D02*
X005950Y001210D01*
X005888Y001112D02*
X006074Y001112D01*
X005994Y001506D02*
X005985Y001506D01*
X005953Y001604D02*
X006031Y001604D01*
X006071Y001703D02*
X005892Y001703D01*
X005786Y001801D02*
X006165Y001801D01*
X006321Y001900D02*
X005676Y001900D01*
X005862Y001998D02*
X006187Y001998D01*
X006088Y002097D02*
X005960Y002097D01*
X006009Y002195D02*
X006039Y002195D01*
X005187Y001998D02*
X004410Y001998D01*
X004410Y002097D02*
X005088Y002097D01*
X005039Y002195D02*
X004410Y002195D01*
X004410Y002294D02*
X004999Y002294D01*
X004994Y002392D02*
X004410Y002392D01*
X004410Y002491D02*
X004994Y002491D01*
X005024Y002589D02*
X004410Y002589D01*
X004410Y002688D02*
X005065Y002688D01*
X005150Y002786D02*
X004406Y002786D01*
X004358Y002885D02*
X005285Y002885D01*
X005366Y003377D02*
X005425Y003377D01*
X005179Y003377D02*
X005121Y003377D01*
X005121Y003476D02*
X005179Y003476D01*
X005179Y003574D02*
X005121Y003574D01*
X005121Y003673D02*
X002932Y003673D01*
X002895Y003771D02*
X002834Y003771D01*
X002798Y003870D02*
X002895Y003870D01*
X002895Y003968D02*
X002798Y003968D01*
X002847Y004060D02*
X003252Y004060D01*
X003642Y003670D01*
X003184Y003771D02*
X004843Y003771D01*
X004847Y003870D02*
X003213Y003870D01*
X003213Y003968D02*
X004929Y003968D01*
X005121Y003968D02*
X005179Y003968D01*
X005158Y004005D02*
X005158Y003682D01*
X005150Y003674D01*
X005121Y003771D02*
X005179Y003771D01*
X005179Y003870D02*
X005121Y003870D01*
X005158Y004005D02*
X005350Y004197D01*
X005350Y004725D01*
X005350Y005725D01*
X005350Y006725D01*
X005350Y007725D01*
X004650Y007725D01*
X004374Y008001D01*
X003993Y008383D01*
X004374Y008001D02*
X004374Y009150D01*
X004326Y009090D02*
X004423Y009090D01*
X004423Y008992D02*
X004326Y008992D01*
X004326Y008893D02*
X004423Y008893D01*
X005044Y009150D02*
X005044Y008509D01*
X005197Y008355D01*
X007914Y008355D01*
X008050Y008219D01*
X008050Y007845D01*
X008680Y007845D02*
X008680Y007471D01*
X008819Y007331D01*
X009311Y007844D02*
X009310Y007845D01*
X009489Y009123D02*
X009461Y009150D01*
X009413Y009199D02*
X009413Y009497D01*
X009225Y009497D01*
X009187Y009487D01*
X009173Y009479D01*
X009095Y009557D01*
X009090Y009557D01*
X009183Y009650D01*
X009506Y009650D01*
X009506Y009541D01*
X009549Y009497D01*
X009509Y009497D01*
X009509Y009199D01*
X009413Y009199D01*
X009413Y009287D02*
X009509Y009287D01*
X009509Y009386D02*
X009413Y009386D01*
X009413Y009484D02*
X009509Y009484D01*
X009506Y009583D02*
X009115Y009583D01*
X009168Y009484D02*
X009182Y009484D01*
X008100Y008696D02*
X005304Y008696D01*
X005398Y008795D02*
X005465Y008795D01*
X004981Y008204D02*
X002694Y008204D01*
X002694Y008105D02*
X004984Y008105D01*
X004970Y008007D02*
X002691Y008007D01*
X002622Y007908D02*
X004970Y007908D01*
X004970Y007810D02*
X002590Y007810D01*
X002675Y007711D02*
X005300Y007711D01*
X005300Y007675D02*
X004970Y007675D01*
X004970Y007390D01*
X004980Y007352D01*
X005000Y007318D01*
X005028Y007290D01*
X005062Y007270D01*
X005100Y007260D01*
X005300Y007260D01*
X005300Y007675D01*
X005300Y007613D02*
X005400Y007613D01*
X005400Y007514D02*
X005300Y007514D01*
X005300Y007416D02*
X005400Y007416D01*
X005400Y007317D02*
X005300Y007317D01*
X005300Y007190D02*
X005100Y007190D01*
X005062Y007180D01*
X005028Y007160D01*
X005000Y007132D01*
X004980Y007098D01*
X004970Y007060D01*
X004970Y006775D01*
X005300Y006775D01*
X005300Y007190D01*
X005300Y007120D02*
X005400Y007120D01*
X005400Y007022D02*
X005300Y007022D01*
X005300Y006923D02*
X005400Y006923D01*
X005400Y006825D02*
X005300Y006825D01*
X005300Y006726D02*
X002669Y006726D01*
X002710Y006628D02*
X004970Y006628D01*
X004970Y006675D02*
X004970Y006390D01*
X004980Y006352D01*
X005000Y006318D01*
X005028Y006290D01*
X005062Y006270D01*
X005100Y006260D01*
X005300Y006260D01*
X005300Y006675D01*
X004970Y006675D01*
X004970Y006529D02*
X002750Y006529D01*
X002754Y006431D02*
X004970Y006431D01*
X004992Y006332D02*
X002754Y006332D01*
X002730Y006234D02*
X005599Y006234D01*
X005400Y006332D02*
X005300Y006332D01*
X005300Y006431D02*
X005400Y006431D01*
X005400Y006529D02*
X005300Y006529D01*
X005300Y006628D02*
X005400Y006628D01*
X005300Y006190D02*
X005100Y006190D01*
X005062Y006180D01*
X005028Y006160D01*
X005000Y006132D01*
X004980Y006098D01*
X004970Y006060D01*
X004970Y005775D01*
X005300Y005775D01*
X005300Y006190D01*
X005300Y006135D02*
X005400Y006135D01*
X005400Y006037D02*
X005300Y006037D01*
X005300Y005938D02*
X005400Y005938D01*
X005400Y005840D02*
X005300Y005840D01*
X005300Y005741D02*
X002659Y005741D01*
X002703Y005643D02*
X004970Y005643D01*
X004970Y005675D02*
X004970Y005390D01*
X004980Y005352D01*
X005000Y005318D01*
X005028Y005290D01*
X005062Y005270D01*
X005100Y005260D01*
X005300Y005260D01*
X005300Y005675D01*
X004970Y005675D01*
X004970Y005544D02*
X002744Y005544D01*
X002754Y005446D02*
X004970Y005446D01*
X004983Y005347D02*
X002754Y005347D01*
X002736Y005249D02*
X005585Y005249D01*
X005400Y005347D02*
X005300Y005347D01*
X005300Y005446D02*
X005400Y005446D01*
X005400Y005544D02*
X005300Y005544D01*
X005300Y005643D02*
X005400Y005643D01*
X005300Y005190D02*
X005100Y005190D01*
X005062Y005180D01*
X005028Y005160D01*
X005000Y005132D01*
X004980Y005098D01*
X004970Y005060D01*
X004970Y004775D01*
X005300Y004775D01*
X005300Y005190D01*
X005300Y005150D02*
X005400Y005150D01*
X005400Y005052D02*
X005300Y005052D01*
X005300Y004953D02*
X005400Y004953D01*
X005400Y004855D02*
X005300Y004855D01*
X005300Y004756D02*
X002438Y004756D01*
X002438Y004658D02*
X004970Y004658D01*
X004970Y004675D02*
X004970Y004390D01*
X004980Y004352D01*
X005000Y004318D01*
X005028Y004290D01*
X005062Y004270D01*
X005100Y004260D01*
X005300Y004260D01*
X005300Y004675D01*
X004970Y004675D01*
X004970Y004559D02*
X002438Y004559D01*
X002487Y004461D02*
X004970Y004461D01*
X004978Y004362D02*
X003170Y004362D01*
X003183Y004349D02*
X003155Y004377D01*
X003121Y004396D01*
X003083Y004407D01*
X002895Y004407D01*
X002895Y004108D01*
X003213Y004108D01*
X003213Y004276D01*
X003203Y004315D01*
X003183Y004349D01*
X003213Y004264D02*
X005087Y004264D01*
X005300Y004264D02*
X005400Y004264D01*
X005400Y004362D02*
X005300Y004362D01*
X005300Y004461D02*
X005400Y004461D01*
X005400Y004559D02*
X005300Y004559D01*
X005300Y004658D02*
X005400Y004658D01*
X004970Y004855D02*
X002438Y004855D01*
X002541Y004953D02*
X004970Y004953D01*
X004970Y005052D02*
X002639Y005052D01*
X002695Y005150D02*
X005018Y005150D01*
X004970Y005840D02*
X002560Y005840D01*
X002526Y005938D02*
X004970Y005938D01*
X004970Y006037D02*
X002624Y006037D01*
X002689Y006135D02*
X005003Y006135D01*
X004970Y006825D02*
X002575Y006825D01*
X002511Y006923D02*
X004970Y006923D01*
X004970Y007022D02*
X002609Y007022D01*
X002683Y007120D02*
X004993Y007120D01*
X005001Y007317D02*
X002754Y007317D01*
X002754Y007416D02*
X004970Y007416D01*
X004970Y007514D02*
X002754Y007514D01*
X002716Y007613D02*
X004970Y007613D01*
X005602Y007219D02*
X002724Y007219D01*
X000959Y005544D02*
X000600Y005544D01*
X000600Y005446D02*
X001057Y005446D01*
X001156Y005347D02*
X000600Y005347D01*
X000600Y005249D02*
X001254Y005249D01*
X001353Y005150D02*
X000600Y005150D01*
X000600Y005052D02*
X001708Y005052D01*
X001806Y004953D02*
X000600Y004953D01*
X000600Y004855D02*
X001918Y004855D01*
X001918Y004756D02*
X000600Y004756D01*
X000600Y004658D02*
X001918Y004658D01*
X001918Y004559D02*
X000600Y004559D01*
X000600Y004461D02*
X001868Y004461D01*
X001770Y004362D02*
X000600Y004362D01*
X000600Y004264D02*
X001751Y004264D01*
X001751Y004165D02*
X000600Y004165D01*
X000600Y004067D02*
X001751Y004067D01*
X001751Y003968D02*
X000600Y003968D01*
X000600Y003870D02*
X001751Y003870D01*
X001756Y003771D02*
X000600Y003771D01*
X000600Y003673D02*
X001854Y003673D01*
X002296Y003574D02*
X000600Y003574D01*
X000600Y003476D02*
X002394Y003476D01*
X002493Y003377D02*
X000600Y003377D01*
X000600Y003279D02*
X002591Y003279D01*
X002690Y003180D02*
X000600Y003180D01*
X000600Y003082D02*
X001254Y003082D01*
X001054Y002983D02*
X000600Y002983D01*
X000600Y002885D02*
X000886Y002885D01*
X000788Y002786D02*
X000600Y002786D01*
X000600Y002688D02*
X000689Y002688D01*
X000610Y002589D02*
X000600Y002589D01*
X002196Y003082D02*
X002788Y003082D01*
X002917Y002983D02*
X002395Y002983D01*
X002563Y002885D02*
X003623Y002885D01*
X003721Y002786D02*
X002662Y002786D01*
X002760Y002688D02*
X003820Y002688D01*
X003890Y002589D02*
X002840Y002589D01*
X002896Y002491D02*
X003890Y002491D01*
X003890Y002392D02*
X002953Y002392D01*
X003000Y002294D02*
X003890Y002294D01*
X003890Y002195D02*
X003027Y002195D01*
X003053Y002097D02*
X003890Y002097D01*
X003890Y001998D02*
X003080Y001998D01*
X003085Y001900D02*
X003890Y001900D01*
X003890Y001801D02*
X003085Y001801D01*
X003085Y001703D02*
X003890Y001703D01*
X003890Y001604D02*
X003080Y001604D01*
X003054Y001506D02*
X003890Y001506D01*
X003890Y001407D02*
X003028Y001407D01*
X003001Y001309D02*
X003890Y001309D01*
X003890Y001210D02*
X002955Y001210D01*
X002898Y001112D02*
X003916Y001112D01*
X003994Y001013D02*
X002841Y001013D01*
X002763Y000915D02*
X004093Y000915D01*
X004191Y000816D02*
X002664Y000816D01*
X002566Y000718D02*
X004290Y000718D01*
X004631Y001112D02*
X005160Y001112D01*
X005098Y001210D02*
X004533Y001210D01*
X004434Y001309D02*
X005064Y001309D01*
X004260Y002983D02*
X006741Y002983D01*
X006840Y003082D02*
X004161Y003082D01*
X004063Y003180D02*
X006906Y003180D01*
X006839Y003279D02*
X006800Y003279D01*
X006485Y003674D02*
X005741Y003674D01*
X006056Y003377D02*
X006078Y003377D01*
X006058Y003968D02*
X006078Y003968D01*
X006167Y004067D02*
X002895Y004067D01*
X002895Y004165D02*
X002798Y004165D01*
X002798Y004264D02*
X002895Y004264D01*
X002895Y004362D02*
X002798Y004362D01*
X003213Y004165D02*
X007790Y004165D01*
X007790Y004067D02*
X007472Y004067D01*
X007561Y003968D02*
X007790Y003968D01*
X007291Y004264D02*
X007269Y004264D01*
X007020Y004536D02*
X007020Y005343D01*
X007112Y005435D01*
X007530Y005435D01*
X007530Y005755D02*
X006889Y005755D01*
X006654Y005520D01*
X006654Y004950D01*
X006457Y004753D01*
X005978Y004753D01*
X005950Y004725D01*
X006390Y004461D02*
X006651Y004461D01*
X006651Y004559D02*
X006631Y004559D01*
X006673Y004362D02*
X006390Y004362D01*
X006330Y004264D02*
X006771Y004264D01*
X006802Y004067D02*
X006836Y004067D01*
X007530Y004546D02*
X007540Y004536D01*
X007530Y004546D02*
X007530Y005125D01*
X007530Y006065D02*
X006805Y006065D01*
X006457Y005717D01*
X005958Y005717D01*
X005950Y005725D01*
X006773Y006385D02*
X006437Y006721D01*
X005954Y006721D01*
X005950Y006725D01*
X006496Y006957D02*
X006496Y007548D01*
X006319Y007725D01*
X005950Y007725D01*
X006496Y006957D02*
X006759Y006695D01*
X007530Y006695D01*
X007530Y006385D02*
X006773Y006385D01*
X006969Y006997D02*
X006987Y007015D01*
X007530Y007015D01*
X007530Y007325D02*
X006877Y007325D01*
X006811Y007391D01*
X008008Y008598D02*
X008100Y008598D01*
X007553Y009484D02*
X007540Y009484D01*
X006905Y008893D02*
X006895Y008893D01*
X003428Y010765D02*
X001480Y010765D01*
X001480Y010863D02*
X003340Y010863D01*
X003340Y010962D02*
X001480Y010962D01*
X001480Y011060D02*
X003340Y011060D01*
X003340Y011159D02*
X001480Y011159D01*
X001480Y011257D02*
X003340Y011257D01*
X003340Y011356D02*
X001480Y011356D01*
X001480Y011454D02*
X003340Y011454D01*
X003340Y011553D02*
X001480Y011553D01*
X001480Y011651D02*
X003340Y011651D01*
X003340Y011750D02*
X001480Y011750D01*
X001480Y011848D02*
X003402Y011848D01*
X000820Y011848D02*
X000600Y011848D01*
X000600Y011750D02*
X000820Y011750D01*
X000820Y011651D02*
X000600Y011651D01*
X000600Y011553D02*
X000820Y011553D01*
X000820Y011454D02*
X000600Y011454D01*
X000600Y011356D02*
X000820Y011356D01*
X000820Y011257D02*
X000600Y011257D01*
X000600Y011159D02*
X000820Y011159D01*
X000820Y011060D02*
X000600Y011060D01*
X000600Y010962D02*
X000820Y010962D01*
X000820Y010863D02*
X000600Y010863D01*
X000600Y010765D02*
X000820Y010765D01*
X000820Y010666D02*
X000600Y010666D01*
X000600Y010568D02*
X000820Y010568D01*
X000820Y010469D02*
X000600Y010469D01*
X000600Y010371D02*
X000820Y010371D01*
X000820Y010272D02*
X000600Y010272D01*
X000600Y010174D02*
X000820Y010174D01*
X000820Y010075D02*
X000600Y010075D01*
X000600Y009977D02*
X000820Y009977D01*
X000820Y009878D02*
X000600Y009878D01*
X000600Y009780D02*
X000820Y009780D01*
X000820Y009681D02*
X000600Y009681D01*
X000600Y009583D02*
X000820Y009583D01*
X000820Y009484D02*
X000600Y009484D01*
X000600Y009386D02*
X000820Y009386D01*
X000820Y009287D02*
X000600Y009287D01*
X000600Y009189D02*
X000820Y009189D01*
X000820Y009090D02*
X000600Y009090D01*
X000600Y008992D02*
X000820Y008992D01*
X000820Y008893D02*
X000600Y008893D01*
X000600Y008795D02*
X000820Y008795D01*
X000820Y008696D02*
X000600Y008696D01*
X000600Y008598D02*
X000820Y008598D01*
X000820Y008499D02*
X000600Y008499D01*
X000600Y008401D02*
X000820Y008401D01*
X000820Y008302D02*
X000600Y008302D01*
X000600Y008204D02*
X000820Y008204D01*
X000820Y008105D02*
X000600Y008105D01*
X000600Y008007D02*
X000820Y008007D01*
X000820Y007908D02*
X000600Y007908D01*
X000600Y007810D02*
X000820Y007810D01*
X000820Y007711D02*
X000600Y007711D01*
X000600Y007613D02*
X000820Y007613D01*
X000820Y007514D02*
X000600Y007514D01*
X000600Y007416D02*
X000820Y007416D01*
X000820Y007317D02*
X000600Y007317D01*
X000600Y007219D02*
X000820Y007219D01*
X000820Y007120D02*
X000600Y007120D01*
X000600Y007022D02*
X000820Y007022D01*
X000820Y006923D02*
X000600Y006923D01*
X000600Y006825D02*
X000820Y006825D01*
X000820Y006726D02*
X000600Y006726D01*
X000600Y006628D02*
X000820Y006628D01*
X000820Y006529D02*
X000600Y006529D01*
X000600Y006431D02*
X000820Y006431D01*
X000820Y006332D02*
X000600Y006332D01*
X000600Y006234D02*
X000820Y006234D01*
X000820Y006135D02*
X000600Y006135D01*
X000600Y006037D02*
X000820Y006037D01*
X000820Y005938D02*
X000600Y005938D01*
X000600Y005840D02*
X000820Y005840D01*
X000825Y005741D02*
X000600Y005741D01*
X000600Y005643D02*
X000866Y005643D01*
X003031Y003574D02*
X004843Y003574D01*
X005371Y003968D02*
X005423Y003968D01*
X010217Y006702D02*
X010223Y006695D01*
X010770Y006695D01*
X011067Y008204D02*
X011549Y008204D01*
X011549Y008302D02*
X011067Y008302D01*
X011067Y008401D02*
X011549Y008401D01*
X011549Y008499D02*
X011067Y008499D01*
X011142Y008598D02*
X011549Y008598D01*
X011525Y008696D02*
X011428Y008696D01*
X011428Y008795D02*
X011525Y008795D01*
X019893Y004855D02*
X019990Y004855D01*
X019990Y004756D02*
X019893Y004756D01*
X019893Y004658D02*
X019990Y004658D01*
X019990Y004559D02*
X020320Y004559D01*
X020320Y004461D02*
X020288Y004461D01*
X020288Y004362D02*
X020320Y004362D01*
X020320Y004658D02*
X020288Y004658D01*
X020288Y004756D02*
X020320Y004756D01*
X020320Y004855D02*
X020264Y004855D01*
X001398Y014902D02*
X000600Y014902D01*
X000600Y014803D02*
X001261Y014803D01*
X001163Y014705D02*
X000600Y014705D01*
X000600Y014606D02*
X001064Y014606D01*
X000966Y014508D02*
X000600Y014508D01*
X000600Y014409D02*
X000869Y014409D01*
X000828Y014311D02*
X000600Y014311D01*
X000600Y014212D02*
X000820Y014212D01*
X000820Y014114D02*
X000600Y014114D01*
X000600Y014015D02*
X000820Y014015D01*
X000820Y013917D02*
X000600Y013917D01*
X000600Y013818D02*
X000820Y013818D01*
X000820Y013720D02*
X000600Y013720D01*
X000600Y013621D02*
X000820Y013621D01*
X000820Y013523D02*
X000600Y013523D01*
X000600Y013424D02*
X000820Y013424D01*
X000820Y013326D02*
X000600Y013326D01*
X000600Y013227D02*
X000820Y013227D01*
X000820Y013129D02*
X000600Y013129D01*
X000600Y013030D02*
X000820Y013030D01*
X000820Y012932D02*
X000600Y012932D01*
X000600Y012833D02*
X000820Y012833D01*
X000820Y012735D02*
X000600Y012735D01*
X000600Y012636D02*
X000820Y012636D01*
X000820Y012538D02*
X000600Y012538D01*
X000600Y012439D02*
X000820Y012439D01*
X000820Y012341D02*
X000600Y012341D01*
X000600Y012242D02*
X000820Y012242D01*
X000820Y012144D02*
X000600Y012144D01*
X000600Y012045D02*
X000820Y012045D01*
X000820Y011947D02*
X000600Y011947D01*
D24*
X001150Y014225D02*
X001150Y005820D01*
X001587Y005383D01*
X002150Y005383D01*
X002174Y005406D01*
X005906Y012922D02*
X005709Y013119D01*
X005709Y013741D01*
X005906Y012922D02*
X008248Y012922D01*
X008465Y013139D01*
X008465Y013552D01*
X008670Y013757D01*
X009646Y013757D01*
X009646Y017036D01*
X009154Y017528D01*
X006843Y017528D01*
X006400Y017085D01*
X006400Y016540D01*
X006900Y015540D02*
X006902Y015538D01*
X006902Y014595D01*
X006902Y013761D01*
X006906Y013757D01*
X006902Y014595D02*
X001520Y014595D01*
X001150Y014225D01*
X009646Y013757D02*
X009646Y012804D01*
X011985Y012804D02*
X011985Y013477D01*
X012926Y014418D01*
X014126Y014418D01*
X014433Y014725D01*
X015827Y014725D01*
X016162Y015060D01*
X016162Y015702D01*
X018126Y015702D01*
X018150Y015725D01*
X015996Y018158D02*
X014402Y016564D01*
X013424Y016564D01*
X013400Y016540D01*
X012414Y016554D02*
X012400Y016540D01*
X012414Y016554D02*
X012414Y017154D01*
X012028Y017540D01*
X010150Y017540D01*
X009646Y017036D01*
X012900Y015540D02*
X012926Y015515D01*
X012926Y014418D01*
X015996Y018158D02*
X015996Y018670D01*
X016237Y018910D01*
X016744Y018910D01*
X016744Y020733D01*
X016756Y020745D01*
X018150Y011225D02*
X019552Y011225D01*
X019941Y010835D01*
X020540Y010835D01*
X020650Y010725D01*
X020650Y006379D01*
X020307Y006721D01*
X019941Y006721D01*
X018154Y006721D01*
X018150Y006725D01*
X016292Y005229D02*
X014654Y005229D01*
X014650Y005225D01*
X018150Y002225D02*
X018280Y002225D01*
X019941Y003887D01*
X020311Y003887D01*
X020650Y004225D01*
X020650Y006379D01*
X017650Y010225D02*
X016311Y010225D01*
X014650Y010225D01*
X017650Y010225D02*
X018150Y010725D01*
X018150Y011225D01*
D25*
X015697Y013591D03*
X012886Y011989D03*
X011902Y014162D03*
X010406Y016040D03*
X010150Y016544D03*
X009646Y012076D03*
X009874Y009694D03*
X010296Y008985D03*
X009469Y008454D03*
X009310Y006976D03*
X009705Y006387D03*
X009310Y006032D03*
X009874Y005402D03*
X010217Y006702D03*
X011650Y005725D03*
X012650Y005225D03*
X012670Y003926D03*
X010150Y001225D03*
X007540Y004536D03*
X007020Y004536D03*
X006969Y006997D03*
X006811Y007391D03*
X004650Y007725D03*
X007264Y009713D03*
X004150Y013225D03*
X001150Y015725D03*
X001150Y018225D03*
X004650Y021225D03*
X008150Y021225D03*
X011650Y021225D03*
X015150Y021225D03*
X021150Y018225D03*
X021150Y011225D03*
X015737Y008316D03*
X013150Y008631D03*
X011477Y008139D03*
X001150Y004225D03*
M02*
