<?xml version="1.0" encoding="UTF-8" standalone="no"?>
<svg width="30px" height="30px" viewBox="0 0 30 30" version="1.1" xmlns="http://www.w3.org/2000/svg" xmlns:xlink="http://www.w3.org/1999/xlink">
    <!-- Generator: Sketch 3.6 (26304) - http://www.bohemiancoding.com/sketch -->
    <title>Shape</title>
    <desc>Created with Sketch.</desc>
    <defs></defs>
    <g id="Page-1" stroke="none" stroke-width="1" fill="none" fill-rule="evenodd">
        <path d="M18.5997584,15.0016544 L28.8016193,4.79850663 C30.1277647,3.47686537 30.3954389,1.59413784 29.4013124,0.600011381 C28.4020384,-0.395401976 26.5251019,-0.122580216 25.2028172,1.20356518 L15.0009563,11.3989916 L4.79845196,1.20292173 C3.47809759,-0.123223663 1.59408317,-0.395401976 0.602530495,0.599367933 C-0.394169757,1.5934944 -0.126495577,3.47686537 1.20222361,4.79786318 L11.4015107,15.001011 L1.20158016,25.1990111 C-0.126495577,26.5264434 -0.394169757,28.4072406 0.601887047,29.4000802 C1.59343972,30.3948501 3.47809759,30.1239587 4.79780851,28.7991002 L15.0009563,18.5978827 L25.2028172,28.7991002 C26.5257453,30.1239587 28.4026818,30.3942066 29.4013124,29.4000802 C30.3954389,28.4072406 30.1277647,26.5264434 28.8016193,25.1990111 L18.5997584,15.0016544 L18.5997584,15.0016544 Z" id="Shape" fill="#000000"></path>
    </g>
</svg>