<?xml version="1.0" encoding="UTF-8" standalone="no"?>
<svg width="40px" height="29px" viewBox="0 0 40 29" version="1.1" xmlns="http://www.w3.org/2000/svg" xmlns:xlink="http://www.w3.org/1999/xlink">
    <!-- Generator: Sketch 3.6 (26304) - http://www.bohemiancoding.com/sketch -->
    <title>hlavni-mesta</title>
    <desc>Created with Sketch.</desc>
    <defs></defs>
    <g id="Page-1" stroke="none" stroke-width="1" fill="none" fill-rule="evenodd">
        <g id="ikony" transform="translate(-1.000000, -1.000000)" fill="#FFFFFF">
            <g id="hlavni-mesta" transform="translate(1.000000, 1.000000)">
                <path d="M28.2875368,16.7466103 L20.7800778,9.31884164 L20.7800778,6.99353345 L26.1956275,4.50325076 C26.440684,4.39065689 26.5969447,4.14686669 26.5959526,3.88006817 C26.5939683,3.61278011 26.4352273,3.37094806 26.1891787,3.26080188 L20.3737999,0.660862559 C20.1585074,0.564913 19.9099785,0.583515466 19.7125443,0.708837339 C19.5146141,0.83464875 19.3950622,1.05151433 19.3950622,1.28355562 L19.3950622,9.32912195 L11.9193514,16.7485684 C11.7903743,16.8768276 11.7179487,17.0501242 11.7179487,17.2307639 L11.7179487,27.9100478 C11.7179487,28.287482 12.0279898,28.5939331 12.4109526,28.5939331 L16.7912131,28.5939331 C17.1736798,28.5939331 17.484217,28.287482 17.484217,27.9100478 L17.484217,20.5307434 C17.484217,18.6440618 18.3215759,17.7653401 20.1183261,17.7653401 C21.9200369,17.7653401 22.7231673,18.6181162 22.7231673,20.5307434 L22.7231673,27.9095582 C22.7231673,28.2869924 23.0332084,28.5934436 23.4161712,28.5934436 L27.7964317,28.5934436 C28.1788984,28.5934436 28.4889395,28.2869924 28.4889395,27.9095582 L28.4889395,17.2292953 C28.4894355,17.0481661 28.41701,16.8748694 28.2875368,16.7466103 L28.2875368,16.7466103 Z M20.7800778,2.34389615 L24.2426167,3.89230663 L20.7800778,5.48477559 L20.7800778,2.34389615 L20.7800778,2.34389615 Z M27.1039239,27.2261624 L24.109175,27.2261624 L24.109175,20.5307434 C24.109175,17.8652059 22.6919152,16.3975693 20.1183261,16.3975693 C17.5258865,16.3975693 16.0982093,17.8652059 16.0982093,20.5307434 L16.0982093,27.2261624 L13.1039564,27.2261624 L13.1039564,17.5127382 L20.0920346,10.5759767 L27.1039239,17.5127382 L27.1039239,27.2261624 L27.1039239,27.2261624 Z"></path>
            </g>
        </g>
    </g>
</svg>