<?xml version="1.0" encoding="UTF-8" standalone="no"?>
<svg width="40px" height="29px" viewBox="0 0 40 29" version="1.1" xmlns="http://www.w3.org/2000/svg" xmlns:xlink="http://www.w3.org/1999/xlink">
    <!-- Generator: Sketch 3.6 (26304) - http://www.bohemiancoding.com/sketch -->
    <title>hra</title>
    <desc>Created with Sketch.</desc>
    <defs></defs>
    <g id="Page-1" stroke="none" stroke-width="1" fill="none" fill-rule="evenodd">
        <g id="ikony" transform="translate(-1.000000, -1.000000)" fill="#FFFFFF">
            <g id="hra" transform="translate(1.000000, 1.000000)">
                <path d="M12.4779487,28.1607601 C12.3553354,28.1607601 12.2327221,28.1312601 12.1202421,28.0722601 C11.8724821,27.9417601 11.7179487,27.6872601 11.7179487,27.4107601 L11.7179487,7.14976007 C11.7179487,6.87276007 11.8724821,6.61826007 12.1202421,6.48776007 C12.3680021,6.35826007 12.6684554,6.37276007 12.9015221,6.52676007 L28.1982954,16.6572601 C28.4085621,16.7967601 28.5347221,17.0302601 28.5347221,17.2802601 C28.5347221,17.5302601 28.4085621,17.7637601 28.1982954,17.9027601 L12.9015221,28.0332601 C12.7738421,28.1177601 12.6258954,28.1607601 12.4779487,28.1607601 L12.4779487,28.1607601 Z M13.2379487,8.55626007 L13.2379487,26.0042601 L26.4112821,17.2807601 L13.2379487,8.55626007 L13.2379487,8.55626007 Z"></path>
            </g>
        </g>
    </g>
</svg>