<?xml version="1.0" encoding="UTF-8" standalone="no"?>
<svg width="40px" height="29px" viewBox="0 0 40 29" version="1.1" xmlns="http://www.w3.org/2000/svg" xmlns:xlink="http://www.w3.org/1999/xlink">
    <!-- Generator: Sketch 3.6 (26304) - http://www.bohemiancoding.com/sketch -->
    <title>jazyk</title>
    <desc>Created with Sketch.</desc>
    <defs></defs>
    <g id="Page-1" stroke="none" stroke-width="1" fill="none" fill-rule="evenodd">
        <g id="ikony" transform="translate(-1.000000, -1.000000)" fill="#FFFFFF">
            <g id="jazyk" transform="translate(0.897436, 0.833333)">
                <path d="M15.6415724,28.8703636 C9.83988966,28.8703636 5.11950345,23.7695909 5.11950345,17.5 C5.11950345,11.2304091 9.83936552,6.12963636 15.6415724,6.12963636 C19.1532966,6.12963636 22.4192,8.01197727 24.3789517,11.1645455 C24.5802207,11.4881136 24.497931,11.9120455 24.1902621,12.1373409 L16.8732966,17.5026136 L24.254731,22.9734773 C24.5608276,23.2008636 24.6410207,23.6242727 24.4387034,23.9467955 C22.5056828,27.0293182 19.2172414,28.8703636 15.6415724,28.8703636 L15.6415724,28.8703636 Z M15.6415724,7.59013636 C10.6470621,7.59013636 6.58394483,12.0354091 6.58394483,17.5 C6.58394483,22.9645909 10.6470621,27.4098636 15.6415724,27.4098636 C18.4881655,27.4098636 21.1251034,26.0465909 22.8196414,23.7298636 L15.2044414,18.0859773 C15.0183724,17.9479773 14.9088276,17.7294773 14.9093517,17.4979091 C14.9098759,17.2663409 15.020469,17.0483636 15.2075862,16.9114091 L22.7593655,11.3736364 C21.0464828,8.99261364 18.4305103,7.59013636 15.6415724,7.59013636 L15.6415724,7.59013636 Z" id="Shape"></path>
                <ellipse id="Oval" cx="16.3916138" cy="11.4771364" rx="1.08286897" ry="1.11079545"></ellipse>
                <path d="M33.5,18.3442045 L25.1966069,18.3442045 C24.7924966,18.3442045 24.4643862,18.0175 24.4643862,17.6139545 C24.4643862,17.2104091 24.7919724,16.8837045 25.1966069,16.8837045 L33.5,16.8837045 C33.9041103,16.8837045 34.2316966,17.2104091 34.2316966,17.6139545 C34.2316966,18.0175 33.9041103,18.3442045 33.5,18.3442045 L33.5,18.3442045 Z" id="Shape"></path>
                <path d="M25.197131,16.0321818 C24.915669,16.0321818 24.6473103,15.8696136 24.5267586,15.5962273 C24.3637517,15.2271818 24.5314759,14.7959318 24.9015172,14.6333636 L32.6252138,11.2387727 C32.9952552,11.0756818 33.4271448,11.2434773 33.5906759,11.6125227 C33.7542069,11.9815682 33.5859586,12.4128182 33.2159172,12.5753864 L25.4922207,15.9699773 C25.3963034,16.0123182 25.2961931,16.0321818 25.197131,16.0321818 L25.197131,16.0321818 Z" id="Shape"></path>
                <path d="M32.9203034,24.0502955 C32.8217655,24.0502955 32.7216552,24.0304318 32.6252138,23.9880909 L24.9015172,20.5940227 C24.5314759,20.4314545 24.3637517,20.0002045 24.5267586,19.6311591 C24.6892414,19.2621136 25.1206069,19.0937955 25.4922207,19.2574091 L33.2159172,22.6514773 C33.5859586,22.8140455 33.7536828,23.2452955 33.5906759,23.6143409 C33.4701241,23.8877273 33.2017655,24.0502955 32.9203034,24.0502955 L32.9203034,24.0502955 Z" id="Shape"></path>
            </g>
        </g>
    </g>
</svg>