<?xml version="1.0" encoding="UTF-8" standalone="no"?>
<svg width="40px" height="29px" viewBox="0 0 40 29" version="1.1" xmlns="http://www.w3.org/2000/svg" xmlns:xlink="http://www.w3.org/1999/xlink">
    <!-- Generator: Sketch 3.6 (26304) - http://www.bohemiancoding.com/sketch -->
    <title>kultura</title>
    <desc>Created with Sketch.</desc>
    <defs></defs>
    <g id="Page-1" stroke="none" stroke-width="1" fill="none" fill-rule="evenodd">
        <g id="ikony" transform="translate(-1.000000, -1.000000)" fill="#FFFFFF">
            <g id="kultura" transform="translate(0.717949, 0.799995)">
                <path d="M27.6871341,7.73054195 L14.6226529,7.73054195 C14.2898027,7.73054195 14.0195507,7.99681195 14.0195507,8.32528261 C14.0195507,8.65375328 14.289371,8.9204493 14.6226529,8.9204493 L27.6871341,8.9204493 C28.0199844,8.9204493 28.2902364,8.65375328 28.2902364,8.32528261 C28.2902364,7.99681195 28.0199844,7.73054195 27.6871341,7.73054195 L27.6871341,7.73054195 Z" id="Shape"></path>
                <path d="M27.6871341,9.35500193 L14.6226529,9.35500193 C14.2898027,9.35500193 14.0195507,9.62169796 14.0195507,9.95016863 C14.0195507,10.2786393 14.289371,10.5449093 14.6226529,10.5449093 L27.6871341,10.5449093 C28.0199844,10.5449093 28.2902364,10.2786393 28.2902364,9.95016863 C28.2902364,9.62169796 28.0199844,9.35500193 27.6871341,9.35500193 L27.6871341,9.35500193 Z" id="Shape"></path>
                <path d="M27.6871341,10.9858524 L15.1234393,10.9858524 C14.1296374,10.9858524 13.32104,10.1576462 13.32104,9.13900372 L13.32104,9.13857768 C13.32104,8.11993519 14.1296374,7.291729 15.1234393,7.291729 L27.6871341,7.291729 C28.0199844,7.291729 28.2902364,7.02503297 28.2902364,6.69656231 C28.2902364,6.36809164 28.0199844,6.10182165 27.6871341,6.10182165 L15.1234393,6.10182165 C13.4643685,6.10182165 12.1148355,7.46384592 12.1148355,9.13900372 L12.1148355,25.8680019 C12.1148355,27.5427337 13.4643685,28.904758 15.1234393,28.904758 L27.6871341,28.904758 C28.0199844,28.904758 28.2902364,28.638488 28.2902364,28.3100173 L28.2902364,23.4251345 L28.2902364,11.5814451 C28.2902364,11.2525484 28.0199844,10.9858524 27.6871341,10.9858524 L27.6871341,10.9858524 Z M27.0836002,27.7139986 L15.1234393,27.7139986 C14.1296374,27.7139986 13.32104,26.8857924 13.32104,25.8675759 L13.32104,11.5652559 C13.8244167,11.9469806 14.446946,12.1766118 15.1234393,12.1766118 L27.0836002,12.1766118 L27.0836002,23.4255605 L27.0836002,27.7139986 L27.0836002,27.7139986 Z" id="Shape"></path>
            </g>
        </g>
    </g>
</svg>