<?xml version="1.0" encoding="UTF-8" standalone="no"?>
<svg width="200px" height="201px" viewBox="0 0 200 201" version="1.1" xmlns="http://www.w3.org/2000/svg" xmlns:xlink="http://www.w3.org/1999/xlink">
    <!-- Generator: Sketch 3.6 (26304) - http://www.bohemiancoding.com/sketch -->
    <title>Group 2</title>
    <desc>Created with Sketch.</desc>
    <defs></defs>
    <g id="Page-1" stroke="none" stroke-width="1" fill="none" fill-rule="evenodd">
        <g id="Group-2">
            <g id="Group" fill="#FFFFFF">
                <path d="M168.111755,28.6912318 C163.717047,28.1315726 159.548349,25.8087106 154.114637,23.8035633 C155.398839,25.7813943 156.121426,26.6698248 156.592962,27.6688213 C157.521398,29.6664892 158.918443,31.7005787 159.036165,33.774342 C159.298598,38.7049361 161.578878,41.9711864 165.908547,43.8927588 C166.611948,44.2072216 167.730299,43.5952061 168.658086,43.415699 C168.373539,42.5272685 168.260045,41.5338003 167.779079,40.774797 C166.924137,39.4284932 165.840256,38.2269007 164.857186,36.9644969 C165.237666,36.6789764 165.626927,36.3944315 166.009684,36.1128133 C168.952389,37.2987965 171.889566,38.4799017 173.374414,39.0824865 C174.222852,37.1557111 174.810158,35.450718 175.394211,33.9759624 C173.752293,32.1265831 172.041433,30.342893 170.26911,28.6203395 C169.512703,28.7406613 168.775157,28.7748067 168.111755,28.6912318 L168.111755,28.6912318 Z" id="Shape"></path>
                <path d="M198.658135,117.550541 C197.913435,116.955435 197.133613,116.336916 196.354116,115.718397 C192.239402,120.50493 192.573379,123.025185 197.122882,127.091413 C198.234729,123.036241 199.096826,118.881886 199.693562,114.639402 C199.306252,115.429949 199.077314,116.586015 198.658135,117.550541 L198.658135,117.550541 Z" id="Shape"></path>
                <path d="M143.09372,152.97004 C145.826348,152.617204 148.959618,152.97004 151.197622,151.724546 C155.402416,149.39388 159.069985,149.707367 163.353477,151.290737 C167.019745,152.648423 171.051534,153.339461 174.958773,153.553113 C176.392565,153.633436 178.605529,151.759667 179.217549,150.269628 C179.635102,149.262501 178.216919,146.954923 177.021496,145.934139 C173.522379,142.971945 169.728633,140.363563 166.387562,137.871925 C167.515019,136.212134 168.616135,134.714289 169.584571,133.138723 C170.376425,131.841199 171.009258,130.450343 172.024848,128.496251 C168.964421,129.510857 166.387562,130.153116 164.006146,131.230484 C162.570403,131.880547 161.445222,133.214494 160.182483,134.239831 C161.434816,135.296387 162.686173,136.357821 163.882897,137.369825 C161.679689,138.237118 159.307054,139.174327 156.630359,140.230883 C156.018339,138.100861 155.460952,136.172785 154.742917,133.677245 C154.039192,133.238233 152.239878,131.230484 150.897466,131.502997 C148.927099,131.903961 147.129086,133.77838 145.556435,135.324679 C144.451091,136.404974 143.883297,138.020538 143.013396,139.355135 C138.992013,145.487647 138.998192,148.967875 143.087216,152.969715 C143.087216,152.969715 143.073883,152.969715 143.060875,152.978495 C143.024453,153.042883 142.988681,153.110849 142.954535,153.183367 C143.057948,153.167433 143.163637,153.156051 143.265424,153.138165 C143.203636,153.082557 143.152905,153.026299 143.09372,152.97004 L143.09372,152.97004 Z" id="Shape"></path>
                <path d="M163.785338,169.876885 C163.829565,169.792985 163.873791,169.705183 163.918668,169.620307 C161.914481,169.732499 159.916147,169.921112 157.911634,169.937046 C155.869724,169.950054 153.815456,169.860951 151.786554,169.668111 C150.627878,169.559821 149.33327,168.647326 148.389223,168.956586 C142.248533,170.977667 138.405033,168.442779 137.461312,161.72817 C137.253186,160.268048 136.308165,158.906785 135.361517,156.716277 C137.53253,156.418724 139.568912,156.406367 141.389364,155.770937 C142.120731,155.518262 142.473569,154.156348 142.954535,153.184018 C137.057418,153.996678 131.147943,154.811615 124.598155,155.716305 C126.173408,158.70549 127.489805,161.205257 128.822461,163.741447 C127.810774,165.167748 126.515515,166.98786 124.877824,169.298365 C123.855406,168.020677 122.667137,166.830466 121.847316,165.424001 C120.755305,163.562915 120.030442,161.489477 119.009649,159.573108 C118.263973,158.167293 116.437993,156.76408 116.58986,155.539074 C117.444802,148.501547 111.824102,146.853788 107.632641,143.796312 C104.850908,141.763198 102.580059,139.050428 99.9986478,136.723339 C99.3863023,136.177338 98.0269799,135.453456 97.8042202,135.658003 C97.0559425,136.358146 95.9811673,137.875827 96.2562837,138.303132 C98.8055009,142.265623 101.244151,146.412499 104.456119,149.803949 C106.932493,152.423714 110.474861,154.035701 114.223078,156.550753 C111.132083,156.803754 105.744874,153.10402 109.335046,160.018949 C109.729185,160.775351 107.710688,162.868626 106.68079,164.251351 C105.664876,165.60546 104.487013,166.834694 102.879891,168.70391 C101.442196,167.931574 99.2093953,166.730957 96.9759441,165.537169 C97.0097645,165.214576 97.0351299,164.899138 97.065048,164.580122 C98.7980214,164.504352 100.599611,164.704672 102.232099,164.263058 C103.781336,163.845184 106.169581,162.936591 106.35039,161.912555 C106.626157,160.380565 105.669754,158.234608 104.550752,156.953343 C102.955987,155.136809 100.599611,154.011962 98.8055009,152.335911 C96.0049066,149.71192 92.9074077,147.204347 90.8586682,144.045411 C88.6645658,140.654286 87.1166293,139.415947 83.5280833,142.317654 C81.0809778,144.294185 78.3574552,146.605014 74.4710289,144.39532 C73.7250276,143.969316 70.1716028,146.26291 70.2805437,146.930534 C70.8623207,150.631894 68.3485499,151.520324 65.9915239,152.754111 C62.7008581,154.48642 61.4686877,157.009602 60.5942337,160.859251 C59.8846544,163.977538 55.9829439,166.771931 52.8922741,168.795615 C50.7479268,170.207608 47.5850633,170.065498 45.7083529,170.446951 C42.7275996,169.113004 40.1653745,167.960841 37.6028242,166.806077 C37.076981,167.093223 36.5514631,167.37354 36.0217176,167.663288 L36.0217176,144.185895 C39.0249095,144.037932 42.3568753,143.788833 45.6937191,143.724444 C47.270598,143.695827 48.8751188,144.265893 50.4240308,144.125734 C52.7072371,143.913707 56.8047161,143.531929 56.8964215,142.816827 C57.3552741,139.231887 57.4915316,135.245982 56.2765965,131.937456 C55.4206787,129.599635 52.1859468,128.160326 50.0861514,126.242331 C49.3876288,125.607877 48.9131668,124.724649 47.6627853,123.064858 L56.9308924,123.064858 C56.7969113,121.549453 56.6947996,120.420054 56.6398413,119.821046 C58.5123241,119.398944 60.8917887,119.579752 62.0137174,118.482547 C66.426312,114.150635 70.2737146,109.239228 74.6960651,104.919348 C76.5727754,103.084278 79.292721,101.18677 81.7333225,101.038481 C87.2779269,100.696377 87.4509316,97.5533751 85.8112896,94.0575377 C83.0009394,88.07429 86.3397343,84.6178011 89.8281197,80.9847318 C90.342581,81.1092812 90.8625706,81.2351313 91.3854869,81.3577295 C90.5676171,84.4886991 89.1787019,87.6108883 89.1156137,90.7581176 C89.0645578,93.4422703 90.5324959,96.1556905 91.3266263,98.8557778 C91.8235269,98.4863572 92.3204276,98.1084816 92.8131006,97.7312563 C95.7584075,98.0197036 98.7007876,98.3055492 101.638615,98.5910697 C106.19332,99.1861751 109.490165,91.9063782 115.337202,97.0063985 C117.287732,95.749523 119.259075,94.4793146 121.500006,93.0322005 C121.041478,88.668745 119.532566,83.7326226 124.458321,79.9766299 C125.8713,81.3148039 127.207209,82.5850123 129.871545,85.1078688 C129.871545,81.4026063 130.559987,78.883327 129.742442,77.0378501 C127.433545,71.847751 127.695004,70.953467 133.405458,70.1069866 C137.645374,69.4751343 141.892443,68.9011666 146.836409,68.2065518 C142.13569,63.1341731 137.711388,64.0827645 133.001889,65.9679151 C126.032923,68.7519025 124.062556,65.9152337 122.132188,58.9554279 C119.285091,48.7030311 127.674841,44.8338708 131.414279,38.440228 C132.923192,35.8513572 134.148533,33.7740168 131.457855,32.4634843 C129.451066,31.4830238 126.399745,32.0413822 124.028085,32.6966485 C123.024528,32.9746895 121.916908,35.2764139 121.980321,36.6077589 C122.259015,42.3776791 118.268201,44.9701271 114.73071,48.45003 C112.192875,50.9537 110.314864,55.1727692 110.138282,58.7222637 C109.983163,61.8808747 112.578233,65.1708642 114.336572,69.2829445 C113.368787,70.4360831 111.316145,72.1888797 110.199419,74.4141835 C109.009849,76.7946048 108.38352,79.5824945 108.10125,82.2549403 C107.808573,85.0324237 108.068405,87.7129993 104.178076,87.930229 C103.408986,87.9734799 102.621034,88.7090691 101.964787,89.2671023 C101.035375,90.0511454 100.223684,90.9711198 99.360937,91.8309332 C98.678349,90.3600799 97.8409674,88.9419081 97.3281321,87.4147963 C95.4143493,81.675119 93.6007271,75.905524 91.6085719,69.7216315 C85.3010559,78.6462605 82.9944355,79.4498153 78.4055843,76.0021066 C77.7473861,72.0113237 77.6686885,68.8325506 76.6540746,65.9906787 C74.6407816,60.3521369 77.6436483,52.849582 82.6968804,49.7722695 C89.4609726,45.6523845 94.1825041,39.7660447 97.1053724,32.1142257 C99.2877677,26.3784508 102.794364,21.106728 106.079176,15.8532161 C107.571504,13.4679168 107.914262,13.8207525 105.261957,12.2777061 C104.584572,11.8845464 104.42425,10.5974278 103.950113,9.54477428 C106.89542,8.74121947 113.986335,13.4545839 110.28397,5.6795163 C112.060845,3.97159648 113.558376,2.53911613 114.865667,1.28354142 C110.129177,0.596731314 105.289924,0.225684759 100.363844,0.225684759 C70.4558248,0.225684759 43.6228662,13.3264574 25.2411205,34.0826261 C25.5767236,33.9567759 25.914603,33.8348281 26.2606123,33.7132055 C27.1207577,34.722283 28.5021934,36.2126479 29.7291607,37.81553 C33.4812807,42.7152307 32.9443809,45.0140283 27.3500214,48.2643441 C25.2199827,49.5020332 23.1647393,51.0301206 20.8668992,51.7927009 C18.8064526,52.4798362 16.4133298,52.673652 14.244918,52.4076431 C13.6725717,52.3396776 13.107705,52.2004944 12.5480414,52.0235888 C4.58104647,66.4088784 0.0318692805,82.9469535 0.0318692805,100.553942 C0.0318692805,155.971907 44.9516201,200.891304 100.363519,200.891304 C129.604884,200.891304 155.914926,188.375231 174.256022,168.415788 C170.776417,168.901628 167.283479,169.386167 163.785338,169.876885 L163.785338,169.876885 Z M47.7889616,109.124109 C48.5213047,106.776532 49.1450321,104.743744 49.3144596,104.203596 C51.006133,101.616026 52.7049608,100.185172 52.761545,98.6827745 C52.8704859,96.1114641 50.5280938,94.575572 48.3141544,94.5999616 C47.3756366,92.1922239 45.923308,90.0192764 45.7831482,87.7595021 C45.5681931,84.3121186 45.8514395,80.692057 46.7717462,77.3838567 C47.1021461,76.1988491 49.9017649,75.6957737 52.2597664,75.9773919 C51.3775077,77.1663018 50.4981757,78.3617156 49.292021,79.9883368 C51.8614004,80.149308 53.8694903,80.2725566 56.4619587,80.4338529 C55.2206827,83.0539423 54.1745248,85.2688399 53.3790936,86.9520449 C56.0805029,91.6494748 58.5341123,96.1114641 61.2065791,100.44175 C62.0234733,101.760412 63.4429571,102.709329 64.5671622,103.84263 C65.049429,104.329446 65.7206351,104.766832 65.9248586,105.356735 C66.5752521,107.250665 62.4738708,113.185784 60.5763478,113.486914 C55.8483124,114.23421 51.1352361,115.102804 45.4651057,116.083264 C48.0809883,114.025436 50.1141183,112.426456 52.2753759,110.726341 C50.9199559,110.243427 49.1021061,109.590763 47.7889616,109.124109 L47.7889616,109.124109 Z M33.9219223,109.629786 C33.7157476,105.574289 33.5791649,102.973712 33.4598177,100.370857 C33.4477854,100.024851 33.5489216,99.6762427 33.5895712,99.3247078 C33.8676144,96.9394085 40.4050445,92.3453904 42.6739421,93.0042338 C43.2892144,93.1798386 44.321714,93.7043768 44.3038282,94.0003035 C44.0127771,98.0912463 44.7269091,102.894039 42.7715012,105.992164 C41.4473,108.085764 37.2610424,111.682087 33.9219223,109.629786 L33.9219223,109.629786 Z" id="Shape"></path>
            </g>
        </g>
    </g>
</svg>
