<?xml version="1.0" encoding="UTF-8" standalone="no"?>
<svg width="40px" height="29px" viewBox="0 0 40 29" version="1.1" xmlns="http://www.w3.org/2000/svg" xmlns:xlink="http://www.w3.org/1999/xlink">
    <!-- Generator: Sketch 3.6 (26304) - http://www.bohemiancoding.com/sketch -->
    <title>mix1</title>
    <desc>Created with Sketch.</desc>
    <defs></defs>
    <g id="Page-1" stroke="none" stroke-width="1" fill="none" fill-rule="evenodd">
        <g id="mix1" fill="#FFFFFF">
            <path d="M20.5,28.8738833 C20.3485833,28.8738833 20.20445,28.8098667 20.10325,28.69755 L17.1910667,25.4836833 L12.8594,25.6975833 C12.7079833,25.7048667 12.5611667,25.64775 12.4542167,25.5415667 C12.34765,25.4346167 12.2905333,25.2874167 12.2982,25.1363833 L12.5121,20.8047167 L9.29823333,17.8925333 C9.18591667,17.79095 9.1219,17.6472 9.1219,17.4957833 C9.1219,17.3443667 9.18591667,17.2002333 9.29823333,17.0990333 L12.5121,14.1872333 L12.2982,9.85556667 C12.2905333,9.70453333 12.34765,9.55733333 12.4542167,9.45038333 C12.5607833,9.34343333 12.7079833,9.2867 12.8594,9.29398333 L17.1910667,9.5075 L20.10325,6.29363333 C20.3060333,6.06938333 20.6939667,6.06938333 20.89675,6.29363333 L23.8089333,9.5075 L28.1406,9.29398333 C28.29125,9.28631667 28.4388333,9.34343333 28.5457833,9.45038333 C28.6527333,9.55733333 28.7094667,9.70453333 28.7018,9.85556667 L28.4879,14.1872333 L31.7017667,17.0990333 C31.8140833,17.2006167 31.8781,17.34475 31.8781,17.4957833 C31.8781,17.6468167 31.8140833,17.79095 31.7017667,17.8925333 L28.4879,20.8047167 L28.7018,25.1363833 C28.7094667,25.2874167 28.65235,25.4342333 28.5457833,25.5415667 C28.4392167,25.64775 28.29125,25.7048667 28.1406,25.6975833 L23.8089333,25.4836833 L20.89675,28.69755 C20.79555,28.8098667 20.6514167,28.8738833 20.5,28.8738833 L20.5,28.8738833 Z M17.418,24.4007667 C17.5690333,24.4007667 17.7131667,24.4644 17.81475,24.5771 L20.5,27.5402667 L23.18525,24.5771 C23.2925833,24.4578833 23.4489833,24.3931 23.60845,24.4015333 L27.6027833,24.5985667 L27.40575,20.6042333 C27.3977,20.444 27.4621,20.2891333 27.5813167,20.1810333 L30.5444833,17.4961667 L27.5813167,14.8109167 C27.4621,14.7032 27.3977,14.54795 27.40575,14.3877167 L27.6027833,10.3933833 L23.60845,10.5904167 C23.44975,10.5954 23.2929667,10.5336833 23.18525,10.41485 L20.5,7.4513 L17.81475,10.41485 C17.7070333,10.5336833 17.5517833,10.5950167 17.39155,10.5904167 L13.3972167,10.3933833 L13.59425,14.3877167 C13.6023,14.54795 13.5379,14.7032 13.4186833,14.8109167 L10.4555167,17.4961667 L13.4186833,20.1810333 C13.5379,20.28875 13.6023,20.444 13.59425,20.6042333 L13.3972167,24.5985667 L17.39155,24.4015333 C17.4003667,24.40115 17.4095667,24.4007667 17.418,24.4007667 L17.418,24.4007667 Z" id="Shape"></path>
            <path d="M22.2499167,22.11035 L18.72555,22.11035 C18.5634,22.11035 18.4257833,22.0517 18.3127,21.93325 C18.1992333,21.8155667 18.1428833,21.67565 18.1428833,21.5135 C18.1428833,21.3563333 18.1992333,21.2194833 18.3127,21.1044833 C18.4257833,20.9887167 18.5634,20.9308333 18.72555,20.9308333 L19.8908833,20.9308333 L19.8908833,14.0553667 L18.7113667,14.0553667 C18.5496,14.0553667 18.4119833,13.9986333 18.2989,13.88555 C18.1854333,13.7720833 18.1290833,13.6344667 18.1290833,13.4727 C18.1290833,13.3109333 18.1854333,13.1733167 18.2989,13.05985 C18.4119833,12.9467667 18.5496,12.8900333 18.7113667,12.8900333 L20.4877333,12.8900333 C20.6449,12.8900333 20.78175,12.9479167 20.8971333,13.0636833 C21.0125167,13.17945 21.0704,13.3159167 21.0704,13.4730833 L21.0704,20.9308333 L22.2499167,20.9308333 C22.4070833,20.9308333 22.5439333,20.9887167 22.6593167,21.1044833 C22.7747,21.2198667 22.8325833,21.3563333 22.8325833,21.5135 C22.8325833,21.67565 22.7762333,21.8155667 22.6627667,21.93325 C22.5496833,22.0517 22.4116833,22.11035 22.2499167,22.11035 L22.2499167,22.11035 Z" id="Shape"></path>
        </g>
    </g>
</svg>