<?xml version="1.0" encoding="UTF-8" standalone="no"?>
<svg width="40px" height="29px" viewBox="0 0 40 29" version="1.1" xmlns="http://www.w3.org/2000/svg" xmlns:xlink="http://www.w3.org/1999/xlink">
    <!-- Generator: Sketch 3.6 (26304) - http://www.bohemiancoding.com/sketch -->
    <title>nazev</title>
    <desc>Created with Sketch.</desc>
    <defs></defs>
    <g id="Page-1" stroke="none" stroke-width="1" fill="none" fill-rule="evenodd">
        <g id="nazev" fill="#FFFFFF">
            <path d="M35.0912,27.4150882 L4.9088,27.4150882 C4.41536,27.4150882 4.01472,27.0290588 4.01472,26.5528529 C4.01472,26.0766471 4.41536,25.6893824 4.9088,25.6893824 L35.0912,25.6893824 C35.58464,25.6893824 35.98464,26.0766471 35.98464,26.5528529 C35.98464,27.0290588 35.58528,27.4150882 35.0912,27.4150882 L35.0912,27.4150882 Z" id="Shape"></path>
            <g id="Group" transform="translate(4.000000, 7.000000)">
                <path d="M3.99488,1.56697059 C4.1504,1.04691176 4.36352,0.584911765 4.98496,0.584911765 C5.62496,0.584911765 5.85728,1.06605882 5.99296,1.56697059 L9.7376,14.6030294 C9.87328,15.0650294 9.34976,15.5659412 8.8064,15.5659412 C8.20544,15.5659412 7.8944,15.0650294 7.75872,14.6030294 L7.04,12.2924118 L2.9088,12.2924118 L2.17152,14.6024118 C2.03584,15.0644118 1.72544,15.5653235 1.12384,15.5653235 C0.58048,15.5653235 0.05696,15.0644118 0.19264,14.6024118 L3.99488,1.56697059 L3.99488,1.56697059 Z M5.00416,5.14808824 L4.96448,5.14808824 L3.45216,10.3665882 L6.49728,10.3665882 L5.00416,5.14808824 L5.00416,5.14808824 Z" id="Shape"></path>
                <path d="M13.43168,6.53532353 L13.76192,6.20797059 C14.38272,5.59155882 14.75072,5.18761765 15.60448,5.18761765 L17.66016,5.18761765 C18.14528,5.18761765 18.5728,5.45691176 19.03744,5.84232353 L19.67744,6.38152941 C20.41472,7.01647059 20.68608,7.53652941 20.68608,8.51920588 L20.68608,12.2355882 C20.68608,13.2176471 20.41472,13.7377059 19.67744,14.3732647 L19.03744,14.9124706 C18.59136,15.2781176 18.04864,15.5665588 17.58272,15.5665588 L15.66272,15.5665588 C14.9056,15.5665588 14.38208,15.1045588 13.85856,14.6234118 L13.43168,14.2194706 L13.43168,14.3355882 C13.43168,14.9316176 13.23776,15.5671765 12.50048,15.5671765 C11.7056,15.5671765 11.56992,14.9130882 11.56992,14.2775294 L11.56992,2.64538235 C11.56992,2.00982353 11.7056,1.37426471 12.50048,1.37426471 C13.296,1.37426471 13.43168,2.00982353 13.43168,2.64538235 L13.43168,6.53532353 L13.43168,6.53532353 Z M13.43168,11.1176471 C13.43168,11.7149118 13.50912,11.9452941 13.99424,12.3504706 L15.06112,13.2553235 C15.29408,13.4474118 15.58528,13.7173235 15.7792,13.7173235 L17.19488,13.7173235 C17.46624,13.7173235 17.64096,13.6592647 17.77728,13.5437647 L18.59072,12.8705294 C18.80448,12.6969706 18.82432,12.2541176 18.82432,11.8884706 L18.82432,8.61494118 C18.82432,8.24867647 18.72704,7.959 18.57152,7.84473529 L17.71776,7.18941176 C17.60128,7.09305882 17.46496,7.035 17.27168,7.035 L15.9712,7.035 C15.71904,7.035 15.40864,7.17026471 15.19616,7.36235294 L13.99296,8.40247059 C13.68256,8.65261765 13.4304,8.94167647 13.4304,9.50002941 L13.4304,11.1176471 L13.43168,11.1176471 Z" id="Shape"></path>
                <path d="M22.71232,9.48026471 C22.71232,8.34441176 22.9248,7.78667647 23.8176,7.05414706 L25.19488,5.91829412 C26.0672,5.20614706 26.5152,5.18638235 27.6,5.18638235 L30.54976,5.18638235 C31.16992,5.18638235 31.82976,5.32102941 31.82976,6.11038235 C31.82976,6.9195 31.09248,7.03438235 30.54976,7.03438235 L27.27104,7.03438235 C26.9024,7.03438235 26.53376,7.22770588 26.20352,7.49638235 L25.0784,8.44014706 C24.7872,8.67114706 24.57472,8.86385294 24.57472,9.2295 L24.57472,11.5203529 C24.57472,11.8872353 24.7872,12.0787059 25.0784,12.3103235 L26.20352,13.2534706 C26.53376,13.5227647 26.9024,13.7154706 27.27104,13.7154706 L30.54976,13.7154706 C31.09248,13.7154706 31.82976,13.8315882 31.82976,14.6394706 C31.82976,15.4294412 31.16992,15.5634706 30.54976,15.5634706 L27.6,15.5634706 C26.5152,15.5634706 26.0672,15.5443235 25.19488,14.8321765 L23.8176,13.6957059 C22.9248,12.9631765 22.71232,12.4060588 22.71232,11.2695882 L22.71232,9.48026471 L22.71232,9.48026471 Z" id="Shape"></path>
            </g>
        </g>
    </g>
</svg>