<?xml version="1.0" encoding="UTF-8" standalone="no"?>
<svg width="40px" height="29px" viewBox="0 0 40 29" version="1.1" xmlns="http://www.w3.org/2000/svg" xmlns:xlink="http://www.w3.org/1999/xlink">
    <!-- Generator: Sketch 3.6 (26304) - http://www.bohemiancoding.com/sketch -->
    <title>obrazky</title>
    <desc>Created with Sketch.</desc>
    <defs></defs>
    <g id="Page-1" stroke="none" stroke-width="1" fill="none" fill-rule="evenodd">
        <g id="obrazky" transform="translate(-0.152174, 0.000000)" fill="#FFFFFF">
            <path d="M33.4648043,27.6585217 L6.83954348,27.6585217 C6.48756522,27.6585217 6.20178261,27.3731957 6.20178261,27.0212174 L6.20178261,7.97923913 C6.20178261,7.62726087 6.4871087,7.34193478 6.83954348,7.34193478 L33.4648043,7.34193478 C33.8167826,7.34193478 34.1025652,7.62726087 34.1025652,7.97923913 L34.1025652,27.0212174 C34.1030217,27.3731957 33.8172391,27.6585217 33.4648043,27.6585217 L33.4648043,27.6585217 Z M7.47730435,26.383 L32.8270435,26.383 L32.8270435,8.617 L7.47730435,8.617 L7.47730435,26.383 L7.47730435,26.383 Z" id="Shape"></path>
            <path d="M30.9493696,25.0709565 L9.35452174,25.0709565 C9.00254348,25.0709565 8.71676087,24.7856304 8.71676087,24.4336522 L8.71676087,10.5668043 C8.71676087,10.2148261 9.00208696,9.9295 9.35452174,9.9295 L30.9498261,9.9295 C31.3018043,9.9295 31.587587,10.2148261 31.587587,10.5668043 L31.587587,24.4336522 C31.587587,24.7856304 31.3018043,25.0709565 30.9493696,25.0709565 L30.9493696,25.0709565 Z M9.99228261,23.7954348 L30.3116087,23.7954348 L30.3116087,11.2045652 L9.99228261,11.2045652 L9.99228261,23.7954348 L9.99228261,23.7954348 Z" id="Shape"></path>
        </g>
    </g>
</svg>