<?xml version="1.0" encoding="UTF-8" standalone="no"?>
<svg width="40px" height="29px" viewBox="0 0 40 29" version="1.1" xmlns="http://www.w3.org/2000/svg" xmlns:xlink="http://www.w3.org/1999/xlink">
    <!-- Generator: Sketch 3.6 (26304) - http://www.bohemiancoding.com/sketch -->
    <title>obrys</title>
    <desc>Created with Sketch.</desc>
    <defs></defs>
    <g id="Page-1" stroke="none" stroke-width="1" fill="none" fill-rule="evenodd">
        <g id="ikony" transform="translate(-1.000000, -1.000000)" fill="#FFFFFF">
            <g id="obrys" transform="translate(1.000000, 1.000000)">
                <path d="M15.562392,28.6080853 C15.551752,28.6080853 15.541112,28.6075853 15.530472,28.6070853 L12.1216187,28.4540853 C11.923512,28.4450853 11.7385787,28.3550853 11.6114054,28.2050853 L9.01372536,25.1465853 L5.84756536,22.3620853 L4.95937869,22.0385853 C4.80383202,21.9820853 4.67311202,21.8730853 4.59052536,21.7310853 L2.67836536,18.4450853 C2.62009869,18.3455853 2.58817869,18.2330853 2.58463202,18.1185853 L2.52535202,16.2040853 L2.04047202,15.9110853 C1.91887202,15.8375853 1.82260536,15.7290853 1.76433869,15.6005853 L1.06159202,14.0490853 C1.00383202,13.9215853 0.98609869,13.7795853 1.01092536,13.6420853 L1.14671202,12.8880853 C1.19687202,12.6080853 1.41372536,12.3865853 1.69543202,12.3270853 C1.97865869,12.2665853 2.26695202,12.3825853 2.42908536,12.6175853 L2.79844536,13.1530853 L3.18705869,12.4510853 C3.29852536,12.2500853 3.50271202,12.1155853 3.73375202,12.0910853 L6.12471202,11.8405853 L13.0199387,8.05358533 L12.814232,7.66258533 C12.6434854,7.33858533 12.7544454,6.93958533 13.0690854,6.74708533 L14.116872,6.10508533 C14.282552,6.00308533 14.483192,5.97408533 14.6721787,6.02358533 C14.8606587,6.07308533 15.0202587,6.19708533 15.1129787,6.36658533 L15.978872,7.94758533 L16.3320187,8.18208533 L16.6456454,8.05508533 L16.7044187,6.91758533 C16.716072,6.69058533 16.8386854,6.48408533 17.0327387,6.36258533 C17.2272987,6.24108533 17.4694854,6.22058533 17.6817787,6.30758533 L19.213432,6.93358533 C19.4084987,7.01308533 19.5574587,7.17458533 19.619272,7.37408533 L20.0367654,8.71758533 L22.9673254,10.0500853 L24.4903654,9.68258533 C24.7923387,9.60908533 25.1059654,9.73908533 25.2655654,10.0015853 L25.7747654,10.8395853 C25.9444987,11.1180853 25.896872,11.4750853 25.659752,11.7010853 L25.0689787,12.2650853 L26.7531387,14.4750853 L27.752792,13.8110853 L27.289192,12.2305853 C27.2152187,11.9785853 27.290712,11.7065853 27.4847654,11.5265853 C27.679832,11.3470853 27.959512,11.2895853 28.2092987,11.3790853 L29.0442854,11.6760853 C29.1324454,11.7075853 29.213512,11.7560853 29.2829254,11.8190853 L30.6418054,13.0520853 L32.229192,12.6660853 C32.413112,12.6205853 32.6086854,12.6510853 32.770312,12.7500853 C32.9324454,12.8485853 33.0474587,13.0075853 33.0890054,13.1905853 L33.267352,13.9745853 C33.334232,14.2665853 33.205032,14.5680853 32.9461254,14.7240853 L32.8138854,14.8040853 L33.4578587,15.4350853 L34.3338854,15.0760853 C34.5147654,15.0025853 34.7199654,15.0050853 34.8988187,15.0860853 L37.3054854,16.1690853 C37.474712,16.2450853 37.606952,16.3845853 37.6733254,16.5560853 L38.9389787,19.8365853 C39.0534854,20.1330853 38.9511387,20.4680853 38.6902054,20.6525853 L35.4070054,22.9750853 L35.2322054,24.0700853 C35.200792,24.2645853 35.0893254,24.4365853 34.9231387,24.5445853 L31.6444987,26.6770853 C31.504152,26.7685853 31.3344187,26.8080853 31.166712,26.7870853 L29.4800187,26.5765853 L28.2584454,27.4830853 C28.0775654,27.6185853 27.8414587,27.6595853 27.6230854,27.5920853 L25.679512,26.9955853 L25.2290854,27.3475853 C25.0431387,27.4925853 24.794872,27.5370853 24.569912,27.4630853 L18.0516454,25.3590853 L17.6458054,26.7035853 C17.612872,26.8135853 17.5530854,26.9130853 17.471512,26.9945853 L16.0675387,28.4005853 C15.933272,28.5335853 15.7513787,28.6080853 15.562392,28.6080853 L15.562392,28.6080853 Z M12.496552,27.0720853 L15.279672,27.1975853 L16.3386054,26.1375853 L16.901512,24.2720853 C16.9557254,24.0915853 17.0818854,23.9400853 17.251112,23.8525853 C17.4203387,23.7650853 17.6184454,23.7485853 17.799832,23.8075853 L24.6479387,26.0180853 L25.0932987,25.6705853 C25.276712,25.5275853 25.519912,25.4835853 25.7428454,25.5515853 L27.6960454,26.1510853 L28.857832,25.2895853 C29.0047654,25.1805853 29.189192,25.1330853 29.371592,25.1545853 L31.0836187,25.3680853 L33.881432,23.5475853 L34.0536987,22.4685853 C34.0830854,22.2835853 34.1864454,22.1185853 34.3399654,22.0095853 L37.4210054,19.8300853 L36.4527654,17.3200853 L34.5907654,16.4820853 L33.5642587,16.9030853 C33.3002854,17.0115853 32.9962854,16.9520853 32.7936187,16.7535853 L31.1753254,15.1670853 C31.020792,15.0160853 30.9458054,14.8030853 30.9711387,14.5900853 C30.979752,14.5230853 30.9969787,14.4580853 31.0233254,14.3970853 L30.6114054,14.4975853 C30.3798587,14.5540853 30.1366587,14.4920853 29.9623654,14.3335853 L29.1689254,13.6130853 L29.2565787,13.9110853 C29.3422054,14.2025853 29.227192,14.5150853 28.971832,14.6850853 L26.986712,16.0035853 C26.6740987,16.2105853 26.252552,16.1405853 26.026072,15.8440853 L23.562152,12.6110853 C23.347832,12.3295853 23.3792454,11.9340853 23.6361254,11.6890853 L24.1448187,11.2030853 L23.063592,11.4640853 C22.908552,11.5020853 22.7448987,11.4860853 22.5989787,11.4200853 L19.1561787,9.85458533 C18.973272,9.77108533 18.8344454,9.61508533 18.775672,9.42508533 L18.3632454,8.09758533 L18.0663387,7.97608533 L18.0359387,8.56708533 C18.0222587,8.83708533 17.851512,9.07508533 17.5981787,9.17758533 L16.5189787,9.61558533 C16.299592,9.70358533 16.050312,9.67908533 15.854232,9.54908533 L15.0420454,9.00958533 C14.946792,8.94658533 14.869272,8.86208533 14.814552,8.76258533 L14.656472,8.47408533 C14.6159387,8.66658533 14.4943387,8.84058533 14.3073787,8.94358533 L6.68508536,13.1300853 C6.60199202,13.1755853 6.51028536,13.2045853 6.41553869,13.2140853 L4.25004536,13.4410853 L3.48548536,14.8255853 C3.43988536,14.9085853 3.37807202,14.9800853 3.30511202,15.0370853 L3.59087202,15.2100853 C3.79404536,15.3330853 3.92121869,15.5490853 3.92831202,15.7840853 L3.99316536,17.9005853 L5.68948536,20.8150853 L6.46265869,21.0965853 C6.54575202,21.1270853 6.62225869,21.1720853 6.68863202,21.2305853 L9.99311202,24.1370853 C10.0184454,24.1595853 10.0427654,24.1840853 10.064552,24.2100853 L12.496552,27.0720853 L12.496552,27.0720853 Z"></path>
            </g>
        </g>
    </g>
</svg>