<?xml version="1.0" encoding="UTF-8" standalone="no"?>
<svg width="40px" height="29px" viewBox="0 0 40 29" version="1.1" xmlns="http://www.w3.org/2000/svg" xmlns:xlink="http://www.w3.org/1999/xlink">
    <!-- Generator: Sketch 3.6 (26304) - http://www.bohemiancoding.com/sketch -->
    <title>popis</title>
    <desc>Created with Sketch.</desc>
    <defs></defs>
    <g id="Page-1" stroke="none" stroke-width="1" fill="none" fill-rule="evenodd">
        <g id="ikony" transform="translate(-1.000000, -1.000000)" fill="#FFFFFF">
            <g id="popis" transform="translate(0.794872, 0.699997)">
                <path d="M30.4320691,7.5525 L9.81520364,7.5525 C9.40680727,7.5525 9.07521697,7.22579545 9.07521697,6.82277273 C9.07521697,6.41975 9.40627758,6.09252273 9.81520364,6.09252273 L30.4320691,6.09252273 C30.8404655,6.09252273 31.1715261,6.41975 31.1715261,6.82277273 C31.1715261,7.22579545 30.8404655,7.5525 30.4320691,7.5525 L30.4320691,7.5525 Z" id="Shape"></path>
                <path d="M30.4320691,11.8237045 L9.81520364,11.8237045 C9.40680727,11.8237045 9.07521697,11.497 9.07521697,11.0939773 C9.07521697,10.6909545 9.40627758,10.3637273 9.81520364,10.3637273 L30.4320691,10.3637273 C30.8404655,10.3637273 31.1715261,10.6909545 31.1715261,11.0939773 C31.1715261,11.497 30.8404655,11.8237045 30.4320691,11.8237045 L30.4320691,11.8237045 Z" id="Shape"></path>
                <path d="M30.4320691,16.0949091 L9.81520364,16.0949091 C9.40680727,16.0949091 9.07521697,15.7682045 9.07521697,15.3651818 C9.07521697,14.9621591 9.40627758,14.6349318 9.81520364,14.6349318 L30.4320691,14.6349318 C30.8404655,14.6349318 31.1715261,14.9621591 31.1715261,15.3651818 C31.1715261,15.7682045 30.8404655,16.0949091 30.4320691,16.0949091 L30.4320691,16.0949091 Z" id="Shape"></path>
                <path d="M30.4320691,20.3661136 L9.81520364,20.3661136 C9.40680727,20.3661136 9.07521697,20.0388864 9.07521697,19.6358636 C9.07521697,19.2328409 9.40627758,18.9061364 9.81520364,18.9061364 L30.4320691,18.9061364 C30.8404655,18.9061364 31.1715261,19.2328409 31.1715261,19.6358636 C31.1715261,20.0388864 30.8404655,20.3661136 30.4320691,20.3661136 L30.4320691,20.3661136 Z" id="Shape"></path>
                <path d="M30.4320691,24.6367955 L9.81520364,24.6367955 C9.40680727,24.6367955 9.07521697,24.3095682 9.07521697,23.9065455 C9.07521697,23.5035227 9.40627758,23.1768182 9.81520364,23.1768182 L30.4320691,23.1768182 C30.8404655,23.1768182 31.1715261,23.5035227 31.1715261,23.9065455 C31.1715261,24.3095682 30.8404655,24.6367955 30.4320691,24.6367955 L30.4320691,24.6367955 Z" id="Shape"></path>
                <path d="M25.0810703,28.908 L9.81520364,28.908 C9.40680727,28.908 9.07521697,28.5807727 9.07521697,28.17775 C9.07521697,27.7747273 9.40627758,27.4480227 9.81520364,27.4480227 L25.0810703,27.4480227 C25.4894667,27.4480227 25.821057,27.7747273 25.821057,28.17775 C25.821057,28.5807727 25.4894667,28.908 25.0810703,28.908 L25.0810703,28.908 Z" id="Shape"></path>
            </g>
        </g>
    </g>
</svg>