<?xml version="1.0" encoding="UTF-8" standalone="no"?>
<svg width="40px" height="29px" viewBox="0 0 40 29" version="1.1" xmlns="http://www.w3.org/2000/svg" xmlns:xlink="http://www.w3.org/1999/xlink">
    <!-- Generator: Sketch 3.6 (26304) - http://www.bohemiancoding.com/sketch -->
    <title>priroda</title>
    <desc>Created with Sketch.</desc>
    <defs></defs>
    <g id="Page-1" stroke="none" stroke-width="1" fill="none" fill-rule="evenodd">
        <g id="ikony" transform="translate(-1.000000, -1.000000)" fill="#FFFFFF">
            <g id="priroda" transform="translate(1.000000, 1.000000)">
                <path d="M30.2364687,17.8971418 C30.0784092,17.7426619 29.8580379,17.6701713 29.6361467,17.7016672 C29.4725147,17.7251642 25.5924591,18.3085883 22.8010886,21.14172 C21.9454399,22.0096072 21.300537,22.9814808 20.8142003,23.9158594 L20.8142003,17.4771964 L21.3430915,17.4771964 C24.4607129,17.4771964 26.9967565,14.9120299 26.9967565,11.7584399 L26.9967565,4.0984357 C26.9967565,3.80347405 26.8093142,3.54050823 26.5281508,3.44102117 C26.2464807,3.3415341 25.9323882,3.42702299 25.7429195,3.65399348 L23.152163,6.75559026 L20.6809643,3.71348575 C20.5477282,3.54950706 20.3466077,3.45351954 20.1333288,3.45201974 C19.9220762,3.45851889 19.7179161,3.54400778 19.5826537,3.70648666 L16.9214797,6.89357232 L14.4887826,3.7284838 C14.3048865,3.48901493 13.9872478,3.39252747 13.6989919,3.48851499 C13.4107361,3.58400258 13.216708,3.85046794 13.216708,4.15042894 L13.216708,11.7584399 C13.216708,14.9120299 15.7532582,17.4771964 18.8708796,17.4771964 L19.3987576,17.4771964 L19.3987576,23.9138596 C18.9129274,22.979981 18.2685312,22.0096072 17.4138957,21.1422199 C14.6225252,18.3090883 10.7424696,17.7251642 10.5788376,17.7016672 C10.3579596,17.6691715 10.1360685,17.742162 9.97851562,17.8971418 C9.82045617,18.0516217 9.74547925,18.2705933 9.7758753,18.4875651 C9.79867233,18.6535435 10.3706246,22.5790331 13.1564225,25.4066655 C15.9477929,28.2407971 19.8283551,28.8232214 19.9919872,28.8467183 C20.0259294,28.8512177 20.0598717,28.8537174 20.0933073,28.8537174 C20.0978667,28.8537174 20.1024261,28.8512177 20.1069855,28.8512177 C20.1115449,28.8512177 20.1161044,28.8537174 20.1206638,28.8537174 C20.1540994,28.8537174 20.1880417,28.8512177 20.2219839,28.8467183 C20.385616,28.8232214 24.265165,28.2407971 27.0560288,25.4066655 C29.8418266,22.5790331 30.4152988,18.6535435 30.4380958,18.488065 C30.469505,18.2700933 30.3945281,18.0516217 30.2364687,17.8971418 L30.2364687,17.8971418 Z M14.6326572,11.7584399 L14.6326572,6.22715896 L16.3343293,8.4413711 C16.4650323,8.611349 16.6676727,8.71333575 16.8839912,8.71783516 C17.1124682,8.71433562 17.3070029,8.62834679 17.4442917,8.46336824 L20.1211704,5.25778498 L22.5923691,8.2998895 C22.7256051,8.46386818 22.9267256,8.5598557 23.139498,8.5613555 C23.3634155,8.56385518 23.5549106,8.4698674 23.690173,8.30738852 L25.5818205,6.04368281 L25.5818205,11.7589398 C25.5818205,14.14213 23.6805476,16.0808779 21.3435981,16.0808779 L18.8708796,16.0808779 C16.5339301,16.080378 14.6326572,14.14163 14.6326572,11.7584399 L14.6326572,11.7584399 Z M14.1721571,24.4327922 C12.5216517,22.7565101 11.73946,20.5752936 11.4025705,19.3159574 C12.6401963,19.6589128 14.7582942,20.44931 16.3996808,22.1155934 C18.0491731,23.7903757 18.8313647,25.9695924 19.1687608,27.2294286 C17.9280955,26.8844734 15.8064513,26.0920764 14.1721571,24.4327922 L14.1721571,24.4327922 Z M26.0428272,24.4327922 C24.4080264,26.0925764 22.2848624,26.8849734 21.0452102,27.2299285 C21.3795668,25.9730919 22.1592254,23.7978747 23.8163166,22.1160933 C25.4506108,20.457309 27.5727616,19.6639121 28.8124138,19.318457 C28.4755243,20.5782933 27.692826,22.7585098 26.0428272,24.4327922 L26.0428272,24.4327922 Z"></path>
            </g>
        </g>
    </g>
</svg>