<?xml version="1.0" encoding="UTF-8" standalone="no"?>
<svg width="40px" height="29px" viewBox="0 0 40 29" version="1.1" xmlns="http://www.w3.org/2000/svg" xmlns:xlink="http://www.w3.org/1999/xlink">
    <!-- Generator: Sketch 3.6 (26304) - http://www.bohemiancoding.com/sketch -->
    <title>rekord</title>
    <desc>Created with Sketch.</desc>
    <defs></defs>
    <g id="Page-1" stroke="none" stroke-width="1" fill="none" fill-rule="evenodd">
        <g id="ikony" transform="translate(-1.000000, -1.000000)" fill="#FFFFFF">
            <g id="rekord" transform="translate(0.820513, 0.599998)">
                <path d="M20.1025641,5.49700405 C13.4292103,5.49700405 8,10.8547773 8,17.4403239 C8,24.0258704 13.4292103,29.3836437 20.1025641,29.3836437 C26.7759179,29.3836437 32.2051282,24.0258704 32.2051282,17.4403239 C32.2051282,10.8547773 26.7759179,5.49700405 20.1025641,5.49700405 L20.1025641,5.49700405 Z M20.1025641,27.9504453 C14.2299159,27.9504453 9.45230769,23.2357004 9.45230769,17.4403239 C9.45230769,11.6449474 14.2299159,6.93020243 20.1025641,6.93020243 C25.9752123,6.93020243 30.7528205,11.6449474 30.7528205,17.4403239 C30.7528205,23.2357004 25.9752123,27.9504453 20.1025641,27.9504453 L20.1025641,27.9504453 Z" id="Shape"></path>
                <path d="M27.2271015,16.7237247 L20.795799,16.7237247 L20.795799,8.33664777 C20.795799,7.95876113 20.4854892,7.65253441 20.1025641,7.65253441 C19.719639,7.65253441 19.4088451,7.95876113 19.4088451,8.33664777 L19.4088451,17.4403239 C19.4088451,17.6815789 19.5361641,17.8927368 19.7273846,18.0145587 C19.8479262,18.1029393 19.9960615,18.1569231 20.1582359,18.1569231 L27.2271015,18.1569231 C27.6279385,18.1569231 27.9532554,17.8363644 27.9532554,17.4403239 C27.9532554,17.0442834 27.6279385,16.7237247 27.2271015,16.7237247 L27.2271015,16.7237247 Z" id="Shape"></path>
                <rect id="Rectangle-path" x="18.0054318" y="2.3248583" width="4.19523282" height="2.46796761"></rect>
            </g>
        </g>
    </g>
</svg>