<?xml version="1.0" encoding="UTF-8" standalone="no"?>
<svg width="40px" height="29px" viewBox="0 0 40 29" version="1.1" xmlns="http://www.w3.org/2000/svg" xmlns:xlink="http://www.w3.org/1999/xlink">
    <!-- Generator: Sketch 3.6 (26304) - http://www.bohemiancoding.com/sketch -->
    <title>vlajka</title>
    <desc>Created with Sketch.</desc>
    <defs></defs>
    <g id="Page-1" stroke="none" stroke-width="1" fill="none" fill-rule="evenodd">
        <g id="ikony" transform="translate(-1.000000, -1.000000)" fill="#FFFFFF">
            <g id="vlajka" transform="translate(1.000000, 1.000000)">
                <path d="M28.9992574,8.28883333 C28.7682174,8.16883333 28.4870174,8.18383333 28.2701641,8.32883333 C27.9742708,8.52783333 27.1864041,8.76033333 25.9410174,8.76033333 C24.8668841,8.76033333 22.6917641,8.57333333 20.1923774,7.31883333 C17.7461908,6.09133333 15.2888574,5.83333333 13.6584041,5.83333333 C12.2589908,5.83333333 10.9649641,6.02883333 10.1973641,6.35533333 C9.93795077,6.46583333 9.76973744,6.71783333 9.76973744,6.99633333 L9.76973744,19.5588333 C9.76973744,19.5608333 9.76923077,19.5623333 9.76923077,19.5638333 L9.76923077,28.0633333 C9.76923077,28.4488333 10.0858974,28.7618333 10.4770441,28.7618333 C10.8681908,28.7618333 11.1848574,28.4488333 11.1848574,28.0633333 L11.1848574,20.0668333 C11.7259774,19.9248333 12.5746441,19.7993333 13.6573908,19.7993333 C14.8657908,19.7993333 17.2374974,19.9728333 19.5499241,21.1323333 C21.5973641,22.1598333 23.8667241,22.7258333 25.9400041,22.7263333 L25.9405108,22.7263333 C27.2897641,22.7263333 28.4292574,22.4803333 29.0661374,22.0518333 C29.2596841,21.9213333 29.3752041,21.7058333 29.3752041,21.4748333 L29.3752041,8.90683333 C29.3767241,8.64783333 29.2318174,8.41033333 28.9992574,8.28883333 L28.9992574,8.28883333 Z M27.9610974,21.0468333 C27.5567774,21.1973333 26.8788574,21.3283333 25.9420308,21.3283333 L25.9415241,21.3283333 C24.8673908,21.3283333 22.6922708,21.1413333 20.1928841,19.8863333 C17.7461908,18.6593333 15.2893641,18.4018333 13.6589108,18.4018333 C12.7524841,18.4018333 11.8901374,18.4833333 11.1868841,18.6298333 L11.1868841,7.49833333 C11.7280041,7.35583333 12.5776841,7.23083333 13.6599241,7.23083333 C14.8678174,7.23083333 17.2395241,7.40433333 19.5519508,8.56433333 C21.5993908,9.59183333 23.8692574,10.1578333 25.9420308,10.1578333 C26.6984841,10.1578333 27.3885641,10.0808333 27.9616041,9.93783333 L27.9616041,21.0468333 L27.9610974,21.0468333 Z"></path>
            </g>
        </g>
    </g>
</svg>