<?xml version="1.0" encoding="UTF-8" standalone="no"?>
<svg width="40px" height="29px" viewBox="0 0 40 29" version="1.1" xmlns="http://www.w3.org/2000/svg" xmlns:xlink="http://www.w3.org/1999/xlink">
    <!-- Generator: Sketch 3.6 (26304) - http://www.bohemiancoding.com/sketch -->
    <title>vse</title>
    <desc>Created with Sketch.</desc>
    <defs></defs>
    <g id="Page-1" stroke="none" stroke-width="1" fill="none" fill-rule="evenodd">
        <g id="ikony" transform="translate(-1.000000, -1.000000)" fill="#FFFFFF">
            <g id="vse" transform="translate(1.000000, 1.000000)">
                <path d="M19.9010944,28.506 C13.7772007,28.506 8.79487179,23.4580657 8.79487179,17.253 C8.79487179,11.0479343 13.7772007,6 19.9010944,6 C26.0249882,6 31.0067917,11.0479343 31.0067917,17.253 C31.0067917,23.4580657 26.0249882,28.506 19.9010944,28.506 L19.9010944,28.506 Z M19.9010944,7.44848807 C14.586225,7.44848807 10.262673,11.8468319 10.262673,17.253 C10.262673,22.6591681 14.5867504,27.0575119 19.9010944,27.0575119 C25.2154385,27.0575119 29.5389905,22.6591681 29.5389905,17.253 C29.5389905,11.8468319 25.2159639,7.44848807 19.9010944,7.44848807 L19.9010944,7.44848807 Z"></path>
            </g>
        </g>
    </g>
</svg>