<?xml version="1.0" encoding="UTF-8" standalone="no"?>
<svg width="40px" height="29px" viewBox="0 0 40 29" version="1.1" xmlns="http://www.w3.org/2000/svg" xmlns:xlink="http://www.w3.org/1999/xlink">
    <!-- Generator: Sketch 3.6 (26304) - http://www.bohemiancoding.com/sketch -->
    <title>vysledky</title>
    <desc>Created with Sketch.</desc>
    <defs></defs>
    <g id="Page-1" stroke="none" stroke-width="1" fill="none" fill-rule="evenodd">
        <g id="ikony" transform="translate(-1.000000, -1.000000)" fill="#FFFFFF">
            <g id="vysledky" transform="translate(0.794872, 1.000000)">
                <path d="M30.8122927,7.65488306 L10.0329304,7.65488306 C9.58255319,7.65488306 9.21702962,7.29470579 9.21702962,6.84971777 C9.21702962,6.40472975 9.58255319,6.04455248 10.0329304,6.04455248 L30.8117488,6.04455248 C31.262126,6.04455248 31.6276496,6.40472975 31.6276496,6.84971777 C31.6276496,7.29470579 31.26267,7.65488306 30.8122927,7.65488306 L30.8122927,7.65488306 Z" id="Shape"></path>
                <path d="M30.8122927,11.8240289 L10.0329304,11.8240289 C9.58255319,11.8240289 9.21702962,11.4638517 9.21702962,11.0188636 C9.21702962,10.5738756 9.58255319,10.2136983 10.0329304,10.2136983 L30.8117488,10.2136983 C31.262126,10.2136983 31.6276496,10.5738756 31.6276496,11.0188636 C31.6276496,11.4638517 31.26267,11.8240289 30.8122927,11.8240289 L30.8122927,11.8240289 Z" id="Shape"></path>
                <path d="M30.8122927,15.992638 L10.0329304,15.992638 C9.58255319,15.992638 9.21702962,15.6324607 9.21702962,15.1874727 C9.21702962,14.7424847 9.58255319,14.3823074 10.0329304,14.3823074 L30.8117488,14.3823074 C31.262126,14.3823074 31.6276496,14.7424847 31.6276496,15.1874727 C31.6276496,15.6324607 31.26267,15.992638 30.8122927,15.992638 L30.8122927,15.992638 Z" id="Shape"></path>
                <path d="M30.8122927,20.1617839 L10.0329304,20.1617839 C9.58255319,20.1617839 9.21702962,19.8016066 9.21702962,19.3566186 C9.21702962,18.9116306 9.58255319,18.5514533 10.0329304,18.5514533 L30.8117488,18.5514533 C31.262126,18.5514533 31.6276496,18.9116306 31.6276496,19.3566186 C31.6276496,19.8016066 31.26267,20.1617839 30.8122927,20.1617839 L30.8122927,20.1617839 Z" id="Shape"></path>
                <path d="M30.8122927,24.3314665 L10.0329304,24.3314665 C9.58255319,24.3314665 9.21702962,23.9707525 9.21702962,23.5257645 C9.21702962,23.0813132 9.58255319,22.7205992 10.0329304,22.7205992 L30.8117488,22.7205992 C31.262126,22.7205992 31.6276496,23.0807764 31.6276496,23.5257645 C31.6281935,23.9707525 31.26267,24.3314665 30.8122927,24.3314665 L30.8122927,24.3314665 Z" id="Shape"></path>
                <path d="M30.8122927,28.5000756 L10.0329304,28.5000756 C9.58255319,28.5000756 9.21702962,28.1393616 9.21702962,27.6949103 C9.21702962,27.2499223 9.58255319,26.889745 10.0329304,26.889745 L30.8117488,26.889745 C31.262126,26.889745 31.6276496,27.2499223 31.6276496,27.6949103 C31.6281935,28.1393616 31.26267,28.5000756 30.8122927,28.5000756 L30.8122927,28.5000756 Z" id="Shape"></path>
            </g>
        </g>
    </g>
</svg>