<?xml version="1.0" encoding="UTF-8" standalone="no"?>
<svg width="40px" height="29px" viewBox="0 0 40 29" version="1.1" xmlns="http://www.w3.org/2000/svg" xmlns:xlink="http://www.w3.org/1999/xlink">
    <!-- Generator: Sketch 3.6 (26304) - http://www.bohemiancoding.com/sketch -->
    <title>zajimavost</title>
    <desc>Created with Sketch.</desc>
    <defs></defs>
    <g id="Page-1" stroke="none" stroke-width="1" fill="none" fill-rule="evenodd">
        <g id="ikony" transform="translate(-1.000000, -1.000000)" fill="#FFFFFF">
            <g id="zajimavost" transform="translate(0.948718, 1.000000)">
                <path d="M20.1130233,25.4788394 C11.9724378,25.4788394 5.52228831,18.0458814 5.25158739,17.7291747 C5.05645159,17.500637 5.05645159,17.1672615 5.25158739,16.9387238 C5.52228831,16.6224557 11.9724378,9.18993631 20.1130233,9.18993631 C28.2540534,9.18993631 34.7037583,16.6228943 34.9740148,16.9391624 C35.1691506,17.1677001 35.1691506,17.5010756 34.9740148,17.7296133 C34.7037583,18.0458814 28.2540534,25.4788394 20.1130233,25.4788394 L20.1130233,25.4788394 Z M6.56330891,17.3343879 C8.00838064,18.8578262 13.5890868,24.2532457 20.1130233,24.2532457 C26.6476279,24.2532457 32.2207775,18.8573876 33.6631822,17.3348265 C32.218555,15.8118268 26.6378489,10.41553 20.1130233,10.41553 C13.5890868,10.41553 8.00838064,15.8109495 6.56330891,17.3343879 L6.56330891,17.3343879 Z" id="Shape"></path>
                <path d="M20.1130233,23.0324772 C16.9290649,23.0324772 14.3389594,20.4764521 14.3389594,17.3343879 C14.3389594,14.1923236 16.9295094,11.6362985 20.1130233,11.6362985 C23.2965372,11.6362985 25.8875317,14.1923236 25.8875317,17.3343879 C25.8875317,20.4764521 23.2969817,23.0324772 20.1130233,23.0324772 L20.1130233,23.0324772 Z M20.1130233,12.8618921 C17.6140405,12.8618921 15.5808943,14.8682864 15.5808943,17.3343879 C15.5808943,19.8004894 17.6140405,21.8068836 20.1130233,21.8068836 C22.6120062,21.8068836 24.6451523,19.8004894 24.6451523,17.3343879 C24.6451523,14.8682864 22.6124507,12.8618921 20.1130233,12.8618921 L20.1130233,12.8618921 Z" id="Shape"></path>
            </g>
        </g>
    </g>
</svg>