<?xml version="1.0" encoding="UTF-8" standalone="no"?>
<svg width="812px" height="580px" viewBox="0 0 812 580" version="1.1" xmlns="http://www.w3.org/2000/svg" xmlns:xlink="http://www.w3.org/1999/xlink">
    <!-- Generator: Sketch 3.6 (26304) - http://www.bohemiancoding.com/sketch -->
    <title>al</title>
    <desc>Created with Sketch.</desc>
    <defs></defs>
    <g id="Page-1" stroke="none" stroke-width="1" fill="none" fill-rule="evenodd">
        <g id="al">
            <g id="Page-1">
                <g id="al">
                    <g id="Page-1">
                        <g id="al">
                            <path d="M0,0 L812,0 L812,580 L0,580 L0,0 L0,0 L0,0 Z" id="Shape" fill="#E41E20"></path>
                            <path d="M345.214187,112.756833 C339.292931,112.660167 329.465194,114.554833 329.684687,118.883083 C313.190938,116.190917 311.47305,122.679667 312.442375,128.453083 C314.011819,126.162083 315.922556,124.9175 317.3905,124.683083 C319.590513,124.335083 321.892025,125.01175 324.24175,126.386833 C326.592744,127.761917 329.182262,129.980417 330.33175,131.353083 C324.510725,132.678625 320.013006,131.824333 315.449313,131.063083 C313.199819,130.6885 310.05205,129.482583 308.179375,128.235583 C306.307969,126.987375 305.718,125.814083 302.7745,122.943083 C299.304469,119.55975 295.609869,120.510708 296.760625,125.770583 C299.422463,130.654667 303.869431,132.833292 309.4735,133.709333 C312.170863,134.13225 316.187725,135.04575 320.74,135.050583 C325.294813,135.055417 330.405338,134.42225 333.186438,134.978083 C331.515494,135.977375 329.625056,137.69925 325.878438,138.385583 C322.06965,139.082792 316.277806,136.2275 312.746875,135.449333 C313.196013,138.276833 316.942631,140.923083 324.317875,142.300583 C336.439513,144.813917 346.51085,146.723083 353.16925,150.166833 C359.82765,153.610583 364.025944,157.918292 367.024,161.295583 C372.990931,168.013917 373.304313,173.1735 373.684938,174.309333 C374.913088,185.045375 370.9825,191.085833 363.6745,192.941833 C360.0205,193.869833 353.532112,192.122583 351.151938,189.461833 C348.773031,186.8035 346.457563,182.229958 347.117313,175.070583 C347.7593,172.261208 351.131638,164.94475 348.259187,163.434333 C335.029931,156.470708 318.96375,149.42975 307.342,145.236833 C304.166319,144.091333 301.548887,148.203292 300.528812,149.804333 C280.784525,147.514542 262.981425,134.789583 254.968,121.239333 C249.512375,112.011292 240.516937,121.258667 242.02675,129.975583 C244.469094,139.705083 252.252875,146.74 261.590875,151.725583 C271.176281,156.75225 283.157087,161.697958 295.276187,161.440583 C301.806444,162.6175 301.741737,170.662583 293.905937,172.170583 C278.583244,172.263625 266.358837,171.898708 254.81575,161.295583 C246.061375,153.683083 241.13355,162.754042 243.663437,167.893083 C247.951812,183.73675 271.68505,188.17375 295.694875,183.045583 C304.992275,181.579875 299.425,191.068917 296.798687,191.165583 C286.766681,198.016833 268.806256,204.719458 252.98875,191.093083 C245.750531,185.815083 240.856962,190.252083 243.54925,197.871833 C250.567975,217.73925 277.414725,213.568083 295.847125,203.780583 C300.59225,201.262417 304.897119,207.121625 299.1205,211.574333 C276.197994,226.828333 264.737375,227.002333 254.397063,221.144333 C241.453275,216.282 240.313938,229.956708 248.002563,234.448083 C256.548862,239.440917 278.295237,235.6975 294.2485,226.146833 C301.087063,221.303833 301.397906,228.877667 297.065125,231.874333 C278.132837,247.457 270.67005,251.5605 250.933375,249.020583 C241.147506,248.295583 241.293412,259.786833 248.992188,264.281833 C259.503781,270.420167 280.030888,260.230292 295.961313,247.643083 C302.666656,244.23075 303.767931,249.826542 300.452688,256.451833 C290.718838,268.1485 281.582569,275.044458 272.78125,278.238083 C263.9812,281.431708 255.5161,280.923 249.525062,278.963083 C242.217062,276.570583 241.301025,283.804875 245.338187,290.381833 C247.774187,294.345167 257.86075,295.616333 268.746625,291.940583 C279.635037,288.263625 291.324031,279.63975 299.348875,269.538083 C306.332075,263.713917 305.46425,271.536667 302.279687,277.041833 C286.2097,301.2375 271.5125,310.213 252.151375,308.688083 C243.568281,307.2985 241.618212,313.65675 247.089062,319.526833 C256.696037,327.115167 268.708562,326.875917 279.213812,319.381833 C288.55435,310.805083 306.422156,292.339333 315.791875,282.443083 C322.395719,277.4285 324.504381,282.370583 322.567,292.556833 C320.805975,298.38825 316.394531,304.531417 304.373125,309.014333 C296.161775,313.477917 302.3279,319.629542 308.483875,319.744333 C311.871437,319.80475 318.7506,316.03475 324.013375,310.391833 C330.936944,302.966625 331.349287,297.98225 335.165687,286.430583 C338.772744,280.79975 345.214187,283.426667 345.214187,289.330583 C342.124781,300.901583 339.470556,302.976292 333.2245,307.709333 C327.251225,313.050167 337.386,314.83125 340.798938,312.639333 C350.677425,306.295583 354.28575,298.094625 357.5845,290.635583 C359.967213,285.25125 366.878094,287.86125 363.6745,296.653083 C356.018863,317.663583 343.437938,325.935833 321.425125,330.184333 C319.194663,330.561333 317.834563,331.815583 318.6085,334.280583 C321.564688,337.201125 324.523413,339.851 327.477063,342.763083 C313.865913,346.536708 302.807488,348.657333 289.186188,352.441833 C282.503681,348.269458 277.10515,344.729042 270.421375,340.551833 C268.657813,336.628375 267.8382,330.639875 257.974938,334.860583 C251.292431,331.920708 248.209369,332.99975 244.500813,335.948083 C249.854938,336.137792 252.184363,337.503208 254.282875,339.826833 C257.023375,346.70225 263.34175,347.366833 269.812375,345.409333 C274.020819,348.785417 276.2627,351.376083 280.469875,354.761833 C272.616313,354.505667 267.142925,354.37275 259.307125,354.145583 C251.827844,346.496833 245.858375,346.916125 240.50425,352.913083 C236.42395,353.51 234.693375,353.594583 231.902125,358.314333 C236.292,356.5985 239.057875,356.08375 240.961,357.951833 C248.913525,362.342917 254.107788,361.362958 258.051063,357.951833 C265.723194,358.398917 272.636613,358.777125 280.317625,359.256833 C277.495925,361.540583 273.6237,362.752542 270.802,365.056833 C259.279213,361.917583 253.265338,366.144333 251.237875,375.098083 C249.693806,378.713417 248.970619,382.432667 249.63925,386.299333 C250.75575,382.76375 252.548494,379.723583 255.843438,377.816833 C266.113969,380.302375 269.977313,376.308833 270.535563,370.458083 C275.486225,366.611958 282.95155,365.763708 287.892063,361.866833 C293.668681,363.628583 296.462469,364.7185 302.279688,366.470583 C304.34775,372.457875 309.029438,374.827417 316.62925,373.285583 C325.675438,373.55625 324.07935,377.091833 324.812688,379.919333 C327.216969,375.859333 327.149725,371.908083 321.577375,368.319333 C319.549913,363.075167 315.058538,360.6875 309.169,363.715583 C303.624563,362.21725 302.169306,360.062792 296.646438,358.568083 C310.615375,354.326833 320.524313,353.374667 334.480563,349.143083 C337.9747,352.282333 340.743113,354.535875 344.262625,357.335583 C346.117538,358.390458 347.893788,358.656292 348.982375,357.335583 C357.729138,345.280042 361.635619,334.655167 369.7645,326.704333 C372.8704,323.41525 376.793375,318.97825 381.145188,317.895583 C383.321094,317.355458 385.989275,317.685333 387.691938,319.454333 C389.395869,321.224542 390.7344,324.485833 390.166,329.350583 C389.351463,336.33475 387.580288,338.539958 385.522375,342.726833 C383.467,346.914917 380.951069,349.489875 378.366625,352.695583 C373.199006,359.108208 366.379475,362.84075 362.342313,365.346833 C354.270525,370.361417 350.856319,368.165875 344.605188,367.848083 C336.527056,368.712042 334.379063,372.459083 340.98925,377.635583 C347.1706,380.698708 352.725188,381.076917 357.241938,380.281833 C361.119238,379.599125 365.656288,374.83225 368.889063,372.270583 C372.527838,368.267375 378.562013,373.014917 374.446188,377.671833 C366.969444,386.133792 359.496506,391.712667 350.2765,391.591833 C340.588325,392.834 342.4001,398.020167 348.830125,400.545583 C360.401125,405.094958 370.851819,396.575 376.159,390.975583 C380.254525,386.710167 383.1625,386.541 382.439313,393.150583 C378.374238,405.113083 372.818381,409.736167 363.750625,410.333083 C356.395681,409.683 356.31575,415.090292 361.69525,418.743083 C373.948838,426.820792 382.822475,413.063917 386.96875,404.750583 C389.924938,397.250458 394.454375,400.817458 394.923813,406.998083 C394.98725,415.257042 391.066813,421.999542 380.57425,430.451833 C388.6029,442.63425 397.962469,455.0245 406,467.245583 L430.366344,208.791542 L406.006344,167.957125 C403.468844,165.725333 394.888288,156.097333 392.646406,154.762125 C391.829331,153.928375 391.331981,153.341125 392.532219,152.913375 C393.694394,152.497708 396.414594,152.031292 398.241594,151.717125 C393.075244,146.787125 388.649844,145.206625 378.867781,142.509625 C381.253031,141.542958 383.569769,142.104833 390.591031,141.784625 C387.803588,138.014625 381.577831,132.243625 373.539031,129.459625 C378.847481,125.863625 379.882781,125.623167 385.148094,121.412125 C376.029588,120.795875 368.242,119.140458 360.407469,116.880875 C355.454269,114.67325 348.573838,112.800333 345.220531,112.748375 L345.214187,112.756833 L345.214187,112.756833 L345.214187,112.756833 Z M346.089625,122.870583 C350.910875,122.870583 353.892438,124.443833 353.892438,126.350583 C353.892438,128.291167 350.910875,129.866833 346.089625,129.866833 C341.291213,129.866833 338.24875,128.147375 338.24875,126.205583 C338.24875,124.298833 341.291213,122.870583 346.089625,122.870583 L346.089625,122.870583 L346.089625,122.870583 L346.089625,122.870583 Z" id="a" fill="#000000"></path>
                            <g id="a-link" transform="translate(481.087500, 289.875000) scale(-1, 1) translate(-481.087500, -289.875000) translate(381.087500, 112.375000)" fill="#000000">
                                <path d="M114.301687,0.381833333 C108.380431,0.285166667 98.5526937,2.17983333 98.7721875,6.50808333 C82.2784375,3.81591667 80.56055,10.3046667 81.529875,16.0780833 C83.0993187,13.7870833 85.0100562,12.5425 86.478,12.3080833 C88.6780125,11.9600833 90.979525,12.63675 93.32925,14.0118333 C95.6802437,15.3869167 98.2697625,17.6054167 99.41925,18.9780833 C93.598225,20.303625 89.1005062,19.4493333 84.5368125,18.6880833 C82.2873187,18.3135 79.13955,17.1075833 77.266875,15.8605833 C75.3954688,14.612375 74.8055,13.4390833 71.862,10.5680833 C68.3919687,7.18475 64.6973688,8.13570833 65.848125,13.3955833 C68.5099625,18.2796667 72.9569313,20.4582917 78.561,21.3343333 C81.2583625,21.75725 85.275225,22.67075 89.8275,22.6755833 C94.3823125,22.6804167 99.4928375,22.04725 102.273937,22.6030833 C100.602994,23.602375 98.7125562,25.32425 94.9659375,26.0105833 C91.15715,26.7077917 85.3653062,23.8525 81.834375,23.0743333 C82.2835125,25.9018333 86.0301312,28.5480833 93.405375,29.9255833 C105.527012,32.4389167 115.59835,34.3480833 122.25675,37.7918333 C128.91515,41.2355833 133.113444,45.5432917 136.1115,48.9205833 C142.078431,55.6389167 142.391812,60.7985 142.772438,61.9343333 C144.000587,72.670375 140.07,78.7108333 132.762,80.5668333 C129.108,81.4948333 122.619612,79.7475833 120.239437,77.0868333 C117.860531,74.4285 115.545063,69.8549583 116.204812,62.6955833 C116.8468,59.8862083 120.219137,52.56975 117.346687,51.0593333 C104.117431,44.0957083 88.05125,37.05475 76.4295,32.8618333 C73.2538187,31.7163333 70.6363875,35.8282917 69.6163125,37.4293333 C49.872025,35.1395417 32.068925,22.4145833 24.0555,8.86433333 C18.599875,-0.363708333 9.6044375,8.88366667 11.11425,17.6005833 C13.5565938,27.3300833 21.340375,34.365 30.678375,39.3505833 C40.2637812,44.37725 52.2445875,49.3229583 64.3636875,49.0655833 C70.8939437,50.2425 70.8292375,58.2875833 62.9934375,59.7955833 C47.6707437,59.888625 35.4463375,59.5237083 23.90325,48.9205833 C15.148875,41.3080833 10.22105,50.3790417 12.7509375,55.5180833 C17.0393125,71.36175 40.77255,75.79875 64.782375,70.6705833 C74.079775,69.204875 68.5125,78.6939167 65.8861875,78.7905833 C55.8541812,85.6418333 37.8937562,92.3444583 22.07625,78.7180833 C14.8380312,73.4400833 9.9444625,77.8770833 12.63675,85.4968333 C19.655475,105.36425 46.502225,101.193083 64.934625,91.4055833 C69.67975,88.8874167 73.9846187,94.746625 68.208,99.1993333 C45.2854937,114.453333 33.824875,114.627333 23.4845625,108.769333 C10.540775,103.907 9.4014375,117.581708 17.0900625,122.073083 C25.6363625,127.065917 47.3827375,123.3225 63.336,113.771833 C70.1745625,108.928833 70.4854062,116.502667 66.152625,119.499333 C47.2203375,135.082 39.75755,139.1855 20.020875,136.645583 C10.2350063,135.920583 10.3809125,147.411833 18.0796875,151.906833 C28.5912812,158.045167 49.1183875,147.855292 65.0488125,135.268083 C71.7541563,131.85575 72.8554312,137.451542 69.5401875,144.076833 C59.8063375,155.7735 50.6700688,162.669458 41.86875,165.863083 C33.0687,169.056708 24.6036,168.548 18.6125625,166.588083 C11.3045625,164.195583 10.388525,171.429875 14.4256875,178.006833 C16.8616875,181.970167 26.94825,183.241333 37.834125,179.565583 C48.7225375,175.888625 60.4115312,167.26475 68.436375,157.163083 C75.419575,151.338917 74.55175,159.161667 71.3671875,164.666833 C55.2972,188.8625 40.6,197.838 21.238875,196.313083 C12.6557812,194.9235 10.7057125,201.28175 16.1765625,207.151833 C25.7835375,214.740167 37.7960625,214.500917 48.3013125,207.006833 C57.64185,198.430083 75.5096562,179.964333 84.879375,170.068083 C91.4832187,165.0535 93.5918812,169.995583 91.6545,180.181833 C89.893475,186.01325 85.4820312,192.156417 73.460625,196.639333 C65.249275,201.102917 71.4154,207.254542 77.571375,207.369333 C80.9589375,207.42975 87.8381,203.65975 93.100875,198.016833 C100.024444,190.591625 100.436787,185.60725 104.253187,174.055583 C107.860244,168.42475 114.301687,171.051667 114.301687,176.955583 C111.212281,188.526583 108.558056,190.601292 102.312,195.334333 C96.338725,200.675167 106.4735,202.45625 109.886438,200.264333 C119.764925,193.920583 123.37325,185.719625 126.672,178.260583 C129.054713,172.87625 135.965594,175.48625 132.762,184.278083 C125.106363,205.288583 112.525438,213.560833 90.512625,217.809333 C88.2821625,218.186333 86.9220625,219.440583 87.696,221.905583 C90.6521875,224.826125 93.6109125,227.476 96.5645625,230.388083 C82.9534125,234.161708 71.8949875,236.282333 58.2736875,240.066833 C51.5911813,235.894458 46.19265,232.354042 39.508875,228.176833 C37.7453125,224.253375 36.9257,218.264875 27.0624375,222.485583 C20.3799313,219.545708 17.2968688,220.62475 13.5883125,223.573083 C18.9424375,223.762792 21.2718625,225.128208 23.370375,227.451833 C26.110875,234.32725 32.42925,234.991833 38.899875,233.034333 C43.1083188,236.410417 45.3502,239.001083 49.557375,242.386833 C41.7038125,242.130667 36.230425,241.99775 28.394625,241.770583 C20.9153438,234.121833 14.945875,234.541125 9.59175,240.538083 C5.51145,241.135 3.780875,241.219583 0.989625,245.939333 C5.3795,244.2235 8.145375,243.70875 10.0485,245.576833 C18.001025,249.967917 23.1952875,248.987958 27.1385625,245.576833 C34.8106938,246.023917 41.7241125,246.402125 49.405125,246.881833 C46.583425,249.165583 42.7112,250.377542 39.8895,252.681833 C28.3667125,249.542583 22.3528375,253.769333 20.325375,262.723083 C18.7813063,266.338417 18.0581188,270.057667 18.72675,273.924333 C19.84325,270.38875 21.6359938,267.348583 24.9309375,265.441833 C35.2014688,267.927375 39.0648125,263.933833 39.6230625,258.083083 C44.573725,254.236958 52.03905,253.388708 56.9795625,249.491833 C62.7561813,251.253583 65.5499688,252.3435 71.3671875,254.095583 C73.43525,260.082875 78.1169375,262.452417 85.71675,260.910583 C94.7629375,261.18125 93.16685,264.716833 93.9001875,267.544333 C96.3044688,263.484333 96.237225,259.533083 90.664875,255.944333 C88.6374125,250.700167 84.1460375,248.3125 78.2565,251.340583 C72.7120625,249.84225 71.2568063,247.687792 65.7339375,246.193083 C79.702875,241.951833 89.6118125,240.999667 103.568063,236.768083 C107.0622,239.907333 109.830613,242.160875 113.350125,244.960583 C115.205038,246.015458 116.981288,246.281292 118.069875,244.960583 C126.816638,232.905042 130.723119,222.280167 138.852,214.329333 C141.9579,211.04025 145.880875,206.60325 150.232688,205.520583 C152.408594,204.980458 155.076775,205.310333 156.779438,207.079333 C158.483369,208.849542 159.8219,212.110833 159.2535,216.975583 C158.438963,223.95975 156.667788,226.164958 154.609875,230.351833 C152.5545,234.539917 150.038569,237.114875 147.454125,240.320583 C142.286506,246.733208 135.466975,250.46575 131.429813,252.971833 C123.358025,257.986417 119.943819,255.790875 113.692688,255.473083 C105.614556,256.337042 103.466563,260.084083 110.07675,265.260583 C116.2581,268.323708 121.812688,268.701917 126.329438,267.906833 C130.206738,267.224125 134.743788,262.45725 137.976563,259.895583 C141.615338,255.892375 147.649513,260.639917 143.533688,265.296833 C136.056944,273.758792 128.584006,279.337667 119.364,279.216833 C109.675825,280.459 111.4876,285.645167 117.917625,288.170583 C129.488625,292.719958 139.939319,284.2 145.2465,278.600583 C149.342025,274.335167 152.25,274.166 151.526813,280.775583 C147.461738,292.738083 141.905881,297.361167 132.838125,297.958083 C125.483181,297.308 125.40325,302.715292 130.78275,306.368083 C143.036338,314.445792 151.909975,300.688917 156.05625,292.375583 C159.012438,284.875458 163.541875,288.442458 164.011313,294.623083 C164.07475,302.882042 160.154313,309.624542 149.66175,318.076833 C157.6904,330.25925 167.049969,342.6495 175.0875,354.870583 L199.453844,96.4165417 L175.093844,55.582125 C172.556344,53.3503333 163.975788,43.7223333 161.733906,42.387125 C160.916831,41.553375 160.419481,40.966125 161.619719,40.538375 C162.781894,40.1227083 165.502094,39.6562917 167.329094,39.342125 C162.162744,34.412125 157.737344,32.831625 147.955281,30.134625 C150.340531,29.1679583 152.657269,29.7298333 159.678531,29.409625 C156.891088,25.639625 150.665331,19.868625 142.626531,17.084625 C147.934981,13.488625 148.970281,13.2481667 154.235594,9.037125 C145.117088,8.420875 137.3295,6.76545833 129.494969,4.505875 C124.541769,2.29825 117.661338,0.425333333 114.308031,0.373375 L114.301687,0.381833333 L114.301687,0.381833333 L114.301687,0.381833333 Z M115.177125,10.4955833 C119.998375,10.4955833 122.979937,12.0688333 122.979937,13.9755833 C122.979937,15.9161667 119.998375,17.4918333 115.177125,17.4918333 C110.378713,17.4918333 107.33625,15.772375 107.33625,13.8305833 C107.33625,11.9238333 110.378713,10.4955833 115.177125,10.4955833 L115.177125,10.4955833 L115.177125,10.4955833 L115.177125,10.4955833 Z" id="a"></path>
                            </g>
                        </g>
                    </g>
                </g>
            </g>
        </g>
    </g>
</svg>