<?xml version="1.0" encoding="UTF-8" standalone="no"?>
<svg width="873px" height="439px" viewBox="0 0 873 439" version="1.1" xmlns="http://www.w3.org/2000/svg" xmlns:xlink="http://www.w3.org/1999/xlink">
    <!-- Generator: Sketch 3.6 (26304) - http://www.bohemiancoding.com/sketch -->
    <title>az</title>
    <desc>Created with Sketch.</desc>
    <defs></defs>
    <g id="Page-1" stroke="none" stroke-width="1" fill="none" fill-rule="evenodd">
        <g id="az" transform="translate(2.000000, 2.000000)">
            <g id="Page-1">
                <g id="az">
                    <g id="Group-2">
                        <path d="M0.135703528,0 L868.638285,0 L868.638285,435 L0.135703528,435 L0.135703528,0 L0.135703528,0 Z" id="Shape" fill="#3F9C35"></path>
                        <path d="M0.135703528,0 L868.638285,0 L868.638285,290 L0.135703528,290 L0.135703528,0 L0.135703528,0 Z" id="Shape" fill="#ED2939"></path>
                        <path d="M0.135703528,0 L868.638285,0 L868.638285,145 L0.135703528,145 L0.135703528,0 L0.135703528,0 Z" id="Shape" fill="#00B9E4"></path>
                    </g>
                    <g id="Group" transform="translate(348.000000, 152.000000)">
                        <circle id="Oval" fill="#FFFFFF" cx="65.25" cy="65.25" r="65.25"></circle>
                        <circle id="Oval" fill="#ED2939" cx="79.75" cy="65.25" r="54.375"></circle>
                        <path d="M137.75,29 L144.686438,48.5043125 L163.382375,39.617625 L154.495688,58.3135625 L174,65.25 L154.495688,72.1864375 L163.382375,90.882375 L144.686438,81.9956875 L137.75,101.5 L130.813562,81.9956875 L112.117625,90.882375 L121.004312,72.1864375 L101.5,65.25 L121.004312,58.3135625 L112.117625,39.617625 L130.813562,48.5043125 L137.75,29 L137.75,29 L137.75,29 Z" id="Shape" fill="#FFFFFF"></path>
                    </g>
                </g>
            </g>
            <rect id="Rectangle-1" stroke="#FFFFFF" stroke-width="3" x="0" y="0" width="869" height="435"></rect>
        </g>
    </g>
</svg>