<?xml version="1.0" encoding="UTF-8" standalone="no"?>
<svg width="876px" height="441px" viewBox="0 0 876 441" version="1.1" xmlns="http://www.w3.org/2000/svg" xmlns:xlink="http://www.w3.org/1999/xlink">
    <!-- Generator: Sketch 3.6 (26304) - http://www.bohemiancoding.com/sketch -->
    <title>Flag_of_Bosnia_and_Herzegovina</title>
    <desc>Created with Sketch.</desc>
    <defs>
        <rect id="path-1" x="0" y="0.375" width="870" height="435"></rect>
    </defs>
    <g id="Page-1" stroke="none" stroke-width="1" fill="none" fill-rule="evenodd">
        <g id="Flag_of_Bosnia_and_Herzegovina" transform="translate(3.000000, 3.000000)">
            <g id="Group">
                <mask id="mask-2" fill="white">
                    <use xlink:href="#path-1"></use>
                </mask>
                <use id="Mask" fill="#002395" xlink:href="#path-1"></use>
                <g mask="url(#mask-2)">
                    <g transform="translate(112.000000, -46.000000)">
                        <path d="M118.55,46.375 L553.55,46.375 L553.55,481.375 L118.55,46.375 Z" id="Shape" fill="#FECB00"></path>
                        <g id="g" stroke-width="1" fill="none" transform="translate(0.750000, 0.000000)">
                            <polygon id="Star-1-Copy-6" fill="#FFFFFF" points="147.893537 166.422127 123.392484 184.406489 132.925387 155.547129 108.25 137.802716 138.642711 137.951012 147.893537 109 157.144363 137.951012 187.537074 137.802716 162.861688 155.547129 172.394591 184.406489 "></polygon>
                            <polygon id="Star-1-Copy-7" fill="#FFFFFF" points="93.8935371 111.422127 69.3924838 129.406489 78.9253866 100.547129 54.25 82.8027157 84.6427113 82.9510123 93.8935371 54 103.144363 82.9510123 133.537074 82.8027157 108.861688 100.547129 118.394591 129.406489 "></polygon>
                            <polygon id="Star-1-Copy-8" fill="#FFFFFF" points="39.8935371 57.4221266 15.3924838 75.4064886 24.9253866 46.5471287 0.25 28.8027157 30.6427113 28.9510123 39.8935371 -7.10542736e-15 49.1443629 28.9510123 79.5370743 28.8027157 54.8616877 46.5471287 64.3945905 75.4064886 "></polygon>
                        </g>
                        <g id="g-link" stroke-width="1" fill="none" transform="translate(163.875000, 162.125000)">
                            <g id="g" fill="#FFFFFF">
                                <polygon id="Star-1" points="93.875 112.550638 69.3739466 130.535 78.9068494 101.67564 54.2314629 83.9312269 84.6241742 84.0795235 93.875 55.1285112 103.125826 84.0795235 133.518537 83.9312269 108.843151 101.67564 118.376053 130.535 "></polygon>
                                <polygon id="Star-1-Copy" points="148.768537 167.297127 124.267484 185.281489 133.800387 156.422129 109.125 138.677716 139.517711 138.826012 148.768537 109.875 158.019363 138.826012 188.412074 138.677716 163.736688 156.422129 173.269591 185.281489 "></polygon>
                                <polygon id="Star-1-Copy-5" points="39.7685371 58.2971266 15.2674838 76.2814886 24.8003866 47.4221287 0.125 29.6777157 30.5177113 29.8260123 39.7685371 0.875 49.0193629 29.8260123 79.4120743 29.6777157 54.7366877 47.4221287 64.2695905 76.2814886 "></polygon>
                            </g>
                        </g>
                        <g id="g-link" stroke-width="1" fill="none" transform="translate(327.000000, 325.250000)">
                            <g id="g" fill="#FFFFFF">
                                <polygon id="Star-1-Copy-2" points="39.6435371 58.1721266 15.1424838 76.1564886 24.6753866 47.2971287 -2.13162821e-14 29.5527157 30.3927113 29.7010123 39.6435371 0.75 48.8943629 29.7010123 79.2870743 29.5527157 54.6116877 47.2971287 64.1445905 76.1564886 "></polygon>
                                <polygon id="Star-1-Copy-3" points="93.6435371 112.172127 69.1424838 130.156489 78.6753866 101.297129 54 83.5527157 84.3927113 83.7010123 93.6435371 54.75 102.894363 83.7010123 133.287074 83.5527157 108.611688 101.297129 118.144591 130.156489 "></polygon>
                                <polygon id="Star-1-Copy-4" points="148.643537 167.172127 124.142484 185.156489 133.675387 156.297129 109 138.552716 139.392711 138.701012 148.643537 109.75 157.894363 138.701012 188.287074 138.552716 163.611688 156.297129 173.144591 185.156489 "></polygon>
                            </g>
                        </g>
                    </g>
                </g>
            </g>
            <rect id="Rectangle-2" stroke="#FFFFFF" stroke-width="3" x="0" y="0" width="870" height="435"></rect>
        </g>
    </g>
</svg>