<?xml version="1.0" encoding="UTF-8" standalone="no"?>
<svg width="870px" height="435px" viewBox="0 0 870 435" version="1.1" xmlns="http://www.w3.org/2000/svg" xmlns:xlink="http://www.w3.org/1999/xlink">
    <!-- Generator: Sketch 3.6 (26304) - http://www.bohemiancoding.com/sketch -->
    <title>by</title>
    <desc>Created with Sketch.</desc>
    <defs>
        <path id="path-1" d="M0,0 L869.490483,0 L869.490483,435 L0,435 L0,0 L0,0 L0,0 Z"></path>
    </defs>
    <g id="Page-1" stroke="none" stroke-width="1" fill="none" fill-rule="evenodd">
        <g id="by">
            <g id="Page-1">
                <g id="by">
                    <g id="Page-1">
                        <g id="Clipped">
                            <g id="mask-2" fill="#FFFFFF">
                                <path d="M0,0 L869.490483,0 L869.490483,435 L0,435 L0,0 L0,0 L0,0 Z" id="path-1"></path>
                            </g>
                            <g id="Shape"></g>
                            <g id="Group-Clipped">
                                <g id="mask-2" fill="#FFFFFF">
                                    <path d="M0,0 L869.490483,0 L869.490483,435 L0,435 L0,0 L0,0 L0,0 Z" id="path-1"></path>
                                </g>
                                <g id="path-1"></g>
                                <g>
                                    <mask id="mask-2" fill="white">
                                        <use xlink:href="#path-1"></use>
                                    </mask>
                                    <g id="path-1"></g>
                                    <g id="Group" mask="url(#mask-2)">
                                        <path d="M0,0 L1222.97085,0 L1222.97085,288.960645 L0,288.960645 L0,0 L0,0 L0,0 Z" id="Shape" fill="#B20000"></path>
                                        <path d="M0,288.960645 L1222.97085,288.960645 L1222.97085,435 L0,435 L0,288.960645 L0,288.960645 L0,288.960645 Z" id="Shape" fill="#429F00"></path>
                                        <path d="M0,0 L135.398638,0 L135.398638,435 L0,435 L0,0 L0,0 L0,0 Z" id="Shape" fill="#FFFFFF"></path>
                                        <g id="Shape" fill="#B20000">
                                            <path d="M6.44209448,7.37630859 L12.8889662,7.37630859 L12.8889662,14.750918 L6.44209448,14.750918 L6.44209448,7.37630859 L6.44209448,7.37630859 L6.44209448,7.37630859 Z M25.7850982,7.37630859 L45.128102,7.37630859 L45.128102,14.750918 L25.7850982,14.750918 L25.7850982,7.37630859 L25.7850982,7.37630859 L25.7850982,7.37630859 Z M32.2259984,0 L38.6728701,0 L38.6728701,7.37460937 L32.2271927,7.37460937 L32.2259984,0 L32.2259984,0 L32.2259984,0 Z M64.4687171,0 L70.9179774,0 L70.9179774,7.37460937 L64.4687171,7.37460937 L64.4687171,0 L64.4687171,0 L64.4687171,0 Z M90.2538153,7.37630859 L109.598013,7.37630859 L109.598013,14.750918 L90.2538153,14.750918 L90.2538153,7.37630859 L90.2538153,7.37630859 L90.2538153,7.37630859 Z M96.7150187,0 L103.16189,0 L103.16189,7.37460937 L96.7150187,7.37460937 L96.7150187,0 L96.7150187,0 L96.7150187,0 Z"></path>
                                            <path d="M19.3430037,14.7492187 L32.2391358,14.7492187 L32.2391358,22.1238281 L19.3430037,22.1238281 L19.3430037,14.7492187 L19.3430037,14.7492187 L19.3430037,14.7492187 Z M38.6860075,14.7492187 L51.5821395,14.7492187 L51.5821395,22.1238281 L38.6860075,22.1238281 L38.6860075,14.7492187 L38.6860075,14.7492187 L38.6860075,14.7492187 Z M83.8129151,14.7492187 L96.7090471,14.7492187 L96.7090471,22.1238281 L83.8129151,22.1238281 L83.8129151,14.7492187 L83.8129151,14.7492187 L83.8129151,14.7492187 Z M103.155919,14.7492187 L116.050857,14.7492187 L116.050857,22.1238281 L103.157113,22.1238281 L103.155919,14.7492187 L103.155919,14.7492187 L103.155919,14.7492187 Z M12.8829946,22.1238281 L25.7791267,22.1238281 L25.7791267,29.4967383 L12.8829946,29.4967383 L12.8829946,22.1238281 L12.8829946,22.1238281 L12.8829946,22.1238281 Z M45.128102,22.1238281 L58.0230397,22.1238281 L58.0230397,29.4967383 L45.128102,29.4967383 L45.128102,22.1238281 L45.128102,22.1238281 L45.128102,22.1238281 Z M77.3720149,22.1238281 L90.2657584,22.1238281 L90.2657584,29.4967383 L77.3732093,29.4967383 L77.3720149,22.1238281 L77.3720149,22.1238281 L77.3720149,22.1238281 Z M109.598013,22.1238281 L122.492951,22.1238281 L122.492951,29.4967383 L109.598013,29.4967383 L109.598013,22.1238281 L109.598013,22.1238281 L109.598013,22.1238281 Z M122.500117,7.37630859 L128.945794,7.37630859 L128.945794,14.750918 L122.498923,14.750918 L122.500117,7.37630859 L122.500117,7.37630859 L122.500117,7.37630859 Z M6.44209448,29.4967383 L19.3382265,29.4967383 L19.3382265,36.8696484 L6.44209448,36.8696484 L6.44209448,29.4967383 L6.44209448,29.4967383 L6.44209448,29.4967383 Z M51.5701964,29.4967383 L64.4651341,29.4967383 L64.4651341,36.8696484 L51.5701964,36.8696484 L51.5701964,29.4967383 L51.5701964,29.4967383 L51.5701964,29.4967383 Z M116.056828,29.4967383 L128.95296,29.4967383 L128.95296,36.8696484 L116.056828,36.8696484 L116.056828,29.4967383 L116.056828,29.4967383 L116.056828,29.4967383 Z M12.8829946,51.6137695 L25.7791267,51.6137695 L25.7791267,58.9883789 L12.8829946,58.9883789 L12.8829946,51.6137695 L12.8829946,51.6137695 L12.8829946,51.6137695 Z M19.3430037,58.9883789 L32.2391358,58.9883789 L32.2391358,66.3604395 L19.3430037,66.3604395 L19.3430037,58.9883789 L19.3430037,58.9883789 L19.3430037,58.9883789 Z M45.128102,51.6137695 L58.0230397,51.6137695 L58.0230397,58.9883789 L45.128102,58.9883789 L45.128102,51.6137695 L45.128102,51.6137695 L45.128102,51.6137695 Z M38.6860075,58.9883789 L51.5821395,58.9883789 L51.5821395,66.3604395 L38.6860075,66.3604395 L38.6860075,58.9883789 L38.6860075,58.9883789 L38.6860075,58.9883789 Z M25.7850982,66.3604395 L45.128102,66.3604395 L45.128102,73.7333496 L25.7850982,73.7333496 L25.7850982,66.3604395 L25.7850982,66.3604395 L25.7850982,66.3604395 Z"></path>
                                            <path d="M32.2259984,73.7325 L38.6728701,73.7325 L38.6728701,81.1071094 L32.2271927,81.1071094 L32.2259984,73.7325 L32.2259984,73.7325 L32.2259984,73.7325 Z M77.3720149,51.6154688 L90.2657584,51.6154688 L90.2657584,58.9883789 L77.3732093,58.9883789 L77.3720149,51.6154688 L77.3720149,51.6154688 L77.3720149,51.6154688 Z M83.8129151,58.9883789 L96.7090471,58.9883789 L96.7090471,66.3604395 L83.8129151,66.3604395 L83.8129151,58.9883789 L83.8129151,58.9883789 L83.8129151,58.9883789 Z M109.598013,51.6137695 L122.492951,51.6137695 L122.492951,58.9883789 L109.598013,58.9883789 L109.598013,51.6137695 L109.598013,51.6137695 L109.598013,51.6137695 Z M103.155919,58.9883789 L116.050857,58.9883789 L116.050857,66.3604395 L103.157113,66.3604395 L103.155919,58.9883789 L103.155919,58.9883789 L103.155919,58.9883789 Z M90.2538153,66.3604395 L109.598013,66.3604395 L109.598013,73.7333496 L90.2538153,73.7333496 L90.2538153,66.3604395 L90.2538153,66.3604395 L90.2538153,66.3604395 Z"></path>
                                            <path d="M96.7150187,73.7325 L103.16189,73.7325 L103.16189,81.1071094 L96.7150187,81.1071094 L96.7150187,73.7325 L96.7150187,73.7325 L96.7150187,73.7325 Z M64.4687171,66.3604395 L70.9179774,66.3604395 L70.9179774,73.7333496 L64.4687171,73.7333496 L64.4687171,66.3604395 L64.4687171,66.3604395 L64.4687171,66.3604395 Z M0,66.3604395 L6.44687171,66.3604395 L6.44687171,73.7333496 L0,73.7333496 L0,66.3604395 L0,66.3604395 L0,66.3604395 Z M128.941017,66.3604395 L135.387889,66.3604395 L135.387889,73.7333496 L128.942211,73.7333496 L128.941017,66.3604395 L128.941017,66.3604395 L128.941017,66.3604395 Z M32.2259984,103.22499 L38.6728701,103.22499 L38.6728701,110.5979 L32.2271927,110.5979 L32.2259984,103.22499 L32.2259984,103.22499 L32.2259984,103.22499 Z"></path>
                                            <path d="M25.7850982,110.597051 L45.128102,110.597051 L45.128102,117.969961 L25.7850982,117.969961 L25.7850982,110.597051 L25.7850982,110.597051 L25.7850982,110.597051 Z M19.3430037,117.969961 L51.5821395,117.969961 L51.5821395,125.342871 L19.3430037,125.342871 L19.3430037,117.969961 L19.3430037,117.969961 L19.3430037,117.969961 Z M96.7150187,103.22499 L103.16189,103.22499 L103.16189,110.5979 L96.7150187,110.5979 L96.7150187,103.22499 L96.7150187,103.22499 L96.7150187,103.22499 Z"></path>
                                            <path d="M90.2538153,110.597051 L109.598013,110.597051 L109.598013,117.969961 L90.2538153,117.969961 L90.2538153,110.597051 L90.2538153,110.597051 L90.2538153,110.597051 Z M83.8129151,117.969961 L116.050857,117.969961 L116.050857,125.342871 L83.8141094,125.342871 L83.8129151,117.969961 L83.8129151,117.969961 L83.8129151,117.969961 Z M90.2538153,154.834512 L122.492951,154.834512 L122.492951,162.207422 L90.2538153,162.207422 L90.2538153,154.834512 L90.2538153,154.834512 L90.2538153,154.834512 Z M77.3720149,125.342871 L122.504894,125.342871 L122.504894,132.71748 L77.3720149,132.71748 L77.3720149,125.342871 L77.3720149,125.342871 L77.3720149,125.342871 Z M12.8829946,125.342871 L58.0158738,125.342871 L58.0158738,132.71748 L12.8829946,132.71748 L12.8829946,125.342871 L12.8829946,125.342871 L12.8829946,125.342871 Z M19.3430037,162.207422 L38.6860075,162.207422 L38.6860075,169.580332 L19.3430037,169.580332 L19.3430037,162.207422 L19.3430037,162.207422 L19.3430037,162.207422 Z M12.8829946,154.834512 L45.1209361,154.834512 L45.1209361,162.207422 L12.884189,162.207422 L12.8829946,154.834512 L12.8829946,154.834512 L12.8829946,154.834512 Z M103.155919,140.088691 L135.395055,140.088691 L135.395055,147.461602 L103.155919,147.461602 L103.155919,140.088691 L103.155919,140.088691 L103.155919,140.088691 Z M96.7150187,162.207422 L116.056828,162.207422 L116.056828,169.580332 L96.7150187,169.580332 L96.7150187,162.207422 L96.7150187,162.207422 L96.7150187,162.207422 Z"></path>
                                            <path d="M25.7850982,169.579482 L32.2319699,169.579482 L32.2319699,176.954092 L25.7850982,176.954092 L25.7850982,169.579482 L25.7850982,169.579482 L25.7850982,169.579482 Z M103.155919,169.579482 L109.602791,169.579482 L109.602791,176.954092 L103.157113,176.954092 L103.155919,169.579482 L103.155919,169.579482 L103.155919,169.579482 Z M0,140.088691 L32.2391358,140.088691 L32.2391358,147.461602 L0,147.461602 L0,140.088691 L0,140.088691 L0,140.088691 Z M58.0290112,154.834512 L77.3720149,154.834512 L77.3720149,162.207422 L58.0290112,162.207422 L58.0290112,154.834512 L58.0290112,154.834512 L58.0290112,154.834512 Z M64.4687171,162.207422 L70.9179774,162.207422 L70.9179774,169.580332 L64.4687171,169.580332 L64.4687171,162.207422 L64.4687171,162.207422 L64.4687171,162.207422 Z M45.128102,140.088691 L90.2609811,140.088691 L90.2609811,147.461602 L45.128102,147.461602 L45.128102,140.088691 L45.128102,140.088691 L45.128102,140.088691 Z M70.9120059,29.4967383 L83.8081379,29.4967383 L83.8081379,36.8696484 L70.9120059,36.8696484 L70.9120059,29.4967383 L70.9120059,29.4967383 L70.9120059,29.4967383 Z"></path>
                                            <path d="M58.0290112,36.8687988 L77.3720149,36.8687988 L77.3720149,44.241709 L58.0290112,44.241709 L58.0290112,36.8687988 L58.0290112,36.8687988 L58.0290112,36.8687988 Z"></path>
                                            <path d="M51.5701964,44.241709 L64.4651341,44.241709 L64.4651341,51.6163184 L51.5701964,51.6163184 L51.5701964,44.241709 L51.5701964,44.241709 L51.5701964,44.241709 Z M70.9120059,44.241709 L83.8081379,44.241709 L83.8081379,51.6163184 L70.9120059,51.6163184 L70.9120059,44.241709 L70.9120059,44.241709 L70.9120059,44.241709 Z M0,36.8687988 L12.896132,36.8687988 L12.896132,44.241709 L0,44.241709 L0,36.8687988 L0,36.8687988 L0,36.8687988 Z"></path>
                                            <path d="M6.44209448,44.241709 L19.3382265,44.241709 L19.3382265,51.6163184 L6.44209448,51.6163184 L6.44209448,44.241709 L6.44209448,44.241709 L6.44209448,44.241709 Z M122.500117,36.8687988 L135.395055,36.8687988 L135.395055,44.241709 L122.500117,44.241709 L122.500117,36.8687988 L122.500117,36.8687988 L122.500117,36.8687988 Z"></path>
                                            <path d="M116.056828,44.241709 L128.95296,44.241709 L128.95296,51.6163184 L116.056828,51.6163184 L116.056828,44.241709 L116.056828,44.241709 L116.056828,44.241709 Z M0,110.597051 L6.44687171,110.597051 L6.44687171,117.969961 L0,117.969961 L0,110.597051 L0,110.597051 L0,110.597051 Z M128.941017,110.597051 L135.387889,110.597051 L135.387889,117.969961 L128.942211,117.969961 L128.941017,110.597051 L128.941017,110.597051 L128.941017,110.597051 Z M58.0290112,169.579482 L77.3720149,169.579482 L77.3720149,176.954092 L58.0290112,176.954092 L58.0290112,169.579482 L58.0290112,169.579482 L58.0290112,169.579482 Z"></path>
                                            <path d="M51.5701964,176.953242 L64.4651341,176.953242 L64.4651341,184.326152 L51.5701964,184.326152 L51.5701964,176.953242 L51.5701964,176.953242 L51.5701964,176.953242 Z M70.9120059,176.953242 L83.8081379,176.953242 L83.8081379,184.326152 L70.9120059,184.326152 L70.9120059,176.953242 L70.9120059,176.953242 L70.9120059,176.953242 Z M45.128102,184.326152 L58.0230397,184.326152 L58.0230397,191.699063 L45.128102,191.699063 L45.128102,184.326152 L45.128102,184.326152 L45.128102,184.326152 Z M77.3720149,184.326152 L90.2657584,184.326152 L90.2657584,191.699063 L77.3732093,191.699063 L77.3720149,184.326152 L77.3720149,184.326152 L77.3720149,184.326152 Z"></path>
                                            <path d="M38.6860075,191.697363 L51.5821395,191.697363 L51.5821395,199.071973 L38.6860075,199.071973 L38.6860075,191.697363 L38.6860075,191.697363 L38.6860075,191.697363 Z M83.8129151,191.697363 L96.7090471,191.697363 L96.7090471,199.071973 L83.8129151,199.071973 L83.8129151,191.697363 L83.8129151,191.697363 L83.8129151,191.697363 Z M32.2259984,199.071973 L45.1209361,199.071973 L45.1209361,206.444883 L32.2271927,206.444883 L32.2259984,199.071973 L32.2259984,199.071973 L32.2259984,199.071973 Z M90.2538153,199.071973 L103.152336,199.071973 L103.152336,206.444883 L90.2538153,206.444883 L90.2538153,199.071973 L90.2538153,199.071973 L90.2538153,199.071973 Z"></path>
                                            <path d="M19.3430037,206.444033 L38.6860075,206.444033 L38.6860075,213.816943 L19.3430037,213.816943 L19.3430037,206.444033 L19.3430037,206.444033 L19.3430037,206.444033 Z M96.7150187,206.444033 L116.056828,206.444033 L116.056828,213.816943 L96.7150187,213.816943 L96.7150187,206.444033 L96.7150187,206.444033 L96.7150187,206.444033 Z"></path>
                                            <path d="M109.598013,199.071973 L122.492951,199.071973 L122.492951,206.444883 L109.598013,206.444883 L109.598013,199.071973 L109.598013,199.071973 L109.598013,199.071973 Z M116.056828,191.697363 L128.95296,191.697363 L128.95296,199.071973 L116.056828,199.071973 L116.056828,191.697363 L116.056828,191.697363 L116.056828,191.697363 Z"></path>
                                            <path d="M122.500117,184.326152 L135.395055,184.326152 L135.395055,191.699062 L122.500117,191.699062 L122.500117,184.326152 L122.500117,184.326152 L122.500117,184.326152 Z M12.8829946,199.071973 L25.7791267,199.071973 L25.7791267,206.444883 L12.8829946,206.444883 L12.8829946,199.071973 L12.8829946,199.071973 L12.8829946,199.071973 Z M6.44209448,191.697363 L19.3382265,191.697363 L19.3382265,199.071973 L6.44209448,199.071973 L6.44209448,191.697363 L6.44209448,191.697363 L6.44209448,191.697363 Z"></path>
                                            <path d="M0,184.326152 L12.896132,184.326152 L12.896132,191.699063 L0,191.699063 L0,184.326152 L0,184.326152 L0,184.326152 Z M25.7850982,213.816943 L32.2319699,213.816943 L32.2319699,221.189854 L25.7850982,221.189854 L25.7850982,213.816943 L25.7850982,213.816943 L25.7850982,213.816943 Z M103.155919,213.816943 L109.602791,213.816943 L109.602791,221.189854 L103.157113,221.189854 L103.155919,213.816943 L103.155919,213.816943 L103.155919,213.816943 Z M64.4687171,191.697363 L70.9179774,191.697363 L70.9179774,199.071973 L64.4687171,199.071973 L64.4687171,191.697363 L64.4687171,191.697363 L64.4687171,191.697363 Z M45.128102,213.816943 L51.5749737,213.816943 L51.5749737,221.189854 L45.128102,221.189854 L45.128102,213.816943 L45.128102,213.816943 L45.128102,213.816943 Z M83.8129151,213.816943 L90.2597868,213.816943 L90.2597868,221.189854 L83.8129151,221.189854 L83.8129151,213.816943 L83.8129151,213.816943 L83.8129151,213.816943 Z M64.4687171,213.816943 L70.9179774,213.816943 L70.9179774,221.189854 L64.4687171,221.189854 L64.4687171,213.816943 L64.4687171,213.816943 L64.4687171,213.816943 Z M0,213.816943 L6.44687171,213.816943 L6.44687171,221.189854 L0,221.189854 L0,213.816943 L0,213.816943 L0,213.816943 Z M128.941017,213.816943 L135.387889,213.816943 L135.387889,221.189854 L128.942211,221.189854 L128.941017,213.816943 L128.941017,213.816943 L128.941017,213.816943 Z M64.4687171,110.597051 L70.9179774,110.597051 L70.9179774,117.969961 L64.4687171,117.969961 L64.4687171,110.597051 L64.4687171,110.597051 L64.4687171,110.597051 Z M32.2259984,36.8687988 L38.6728701,36.8687988 L38.6728701,44.241709 L32.2271927,44.241709 L32.2259984,36.8687988 L32.2259984,36.8687988 L32.2259984,36.8687988 Z M96.7150187,36.8687988 L103.16189,36.8687988 L103.16189,44.241709 L96.7150187,44.241709 L96.7150187,36.8687988 L96.7150187,36.8687988 L96.7150187,36.8687988 Z M58.0290112,88.4783203 L77.3720149,88.4783203 L77.3720149,95.8529297 L58.0290112,95.8529297 L58.0290112,88.4783203 L58.0290112,88.4783203 L58.0290112,88.4783203 Z"></path>
                                            <path d="M45.128102,95.8512305 L64.4687171,95.8512305 L64.4687171,103.22584 L45.1292963,103.22584 L45.128102,95.8512305 L45.128102,95.8512305 L45.128102,95.8512305 Z"></path>
                                            <path d="M51.5701964,103.22499 L58.0158738,103.22499 L58.0158738,110.5979 L51.5701964,110.5979 L51.5701964,103.22499 L51.5701964,103.22499 L51.5701964,103.22499 Z M38.6860075,88.4783203 L51.5821395,88.4783203 L51.5821395,95.8529297 L38.6860075,95.8529297 L38.6860075,88.4783203 L38.6860075,88.4783203 L38.6860075,88.4783203 Z"></path>
                                            <path d="M45.128102,81.1062598 L64.4687171,81.1062598 L64.4687171,88.4791699 L45.1292963,88.4791699 L45.128102,81.1062598 L45.128102,81.1062598 L45.128102,81.1062598 Z"></path>
                                            <path d="M51.5701964,73.7325 L58.0158738,73.7325 L58.0158738,81.1071094 L51.5701964,81.1071094 L51.5701964,73.7325 L51.5701964,73.7325 L51.5701964,73.7325 Z M70.9120059,81.1062598 L90.2538153,81.1062598 L90.2538153,88.4791699 L70.9132002,88.4791699 L70.9120059,81.1062598 L70.9120059,81.1062598 L70.9120059,81.1062598 Z"></path>
                                            <path d="M77.3720149,73.7325 L83.8188867,73.7325 L83.8188867,81.1071094 L77.3720149,81.1071094 L77.3720149,73.7325 L77.3720149,73.7325 L77.3720149,73.7325 Z M83.8129151,88.4783203 L96.7090471,88.4783203 L96.7090471,95.8529297 L83.8129151,95.8529297 L83.8129151,88.4783203 L83.8129151,88.4783203 L83.8129151,88.4783203 Z"></path>
                                            <path d="M70.9120059,95.8512305 L90.2538153,95.8512305 L90.2538153,103.22584 L70.9132002,103.22584 L70.9120059,95.8512305 L70.9120059,95.8512305 L70.9120059,95.8512305 Z"></path>
                                            <path d="M77.3720149,103.22499 L83.8188867,103.22499 L83.8188867,110.5979 L77.3720149,110.5979 L77.3720149,103.22499 L77.3720149,103.22499 L77.3720149,103.22499 Z M103.155919,88.4783203 L116.050857,88.4783203 L116.050857,95.8529297 L103.157113,95.8529297 L103.155919,88.4783203 L103.155919,88.4783203 L103.155919,88.4783203 Z"></path>
                                            <path d="M109.598013,81.1062598 L128.941017,81.1062598 L128.941017,88.4791699 L109.598013,88.4791699 L109.598013,81.1062598 L109.598013,81.1062598 L109.598013,81.1062598 Z"></path>
                                            <path d="M122.500117,88.4783203 L135.395055,88.4783203 L135.395055,95.8529297 L122.500117,95.8529297 L122.500117,88.4783203 L122.500117,88.4783203 L122.500117,88.4783203 Z"></path>
                                            <path d="M109.598013,95.8512305 L128.941017,95.8512305 L128.941017,103.22584 L109.598013,103.22584 L109.598013,95.8512305 L109.598013,95.8512305 L109.598013,95.8512305 Z"></path>
                                            <path d="M116.056828,103.22499 L122.506088,103.22499 L122.506088,110.5979 L116.056828,110.5979 L116.056828,103.22499 L116.056828,103.22499 L116.056828,103.22499 Z M116.056828,73.7325 L122.506088,73.7325 L122.506088,81.1071094 L116.056828,81.1071094 L116.056828,73.7325 L116.056828,73.7325 L116.056828,73.7325 Z M0,88.4783203 L12.896132,88.4783203 L12.896132,95.8529297 L0,95.8529297 L0,88.4783203 L0,88.4783203 L0,88.4783203 Z"></path>
                                            <path d="M6.44209448,81.1062598 L25.7850982,81.1062598 L25.7850982,88.4791699 L6.44209448,88.4791699 L6.44209448,81.1062598 L6.44209448,81.1062598 L6.44209448,81.1062598 Z"></path>
                                            <path d="M19.3430037,88.4783203 L32.2391358,88.4783203 L32.2391358,95.8529297 L19.3430037,95.8529297 L19.3430037,88.4783203 L19.3430037,88.4783203 L19.3430037,88.4783203 Z"></path>
                                            <path d="M6.44209448,95.8512305 L25.7850982,95.8512305 L25.7850982,103.22584 L6.44209448,103.22584 L6.44209448,95.8512305 L6.44209448,95.8512305 L6.44209448,95.8512305 Z"></path>
                                            <path d="M12.8829946,103.22499 L19.3298664,103.22499 L19.3298664,110.5979 L12.8829946,110.5979 L12.8829946,103.22499 L12.8829946,103.22499 L12.8829946,103.22499 Z M12.8829946,73.7325 L19.3298664,73.7325 L19.3298664,81.1071094 L12.8829946,81.1071094 L12.8829946,73.7325 L12.8829946,73.7325 L12.8829946,73.7325 Z M6.44209448,132.715781 L32.2319699,132.715781 L32.2319699,140.088691 L6.44209448,140.088691 L6.44209448,132.715781 L6.44209448,132.715781 L6.44209448,132.715781 Z M38.6860075,132.715781 L64.4758829,132.715781 L64.4758829,140.088691 L38.6860075,140.088691 L38.6860075,132.715781 L38.6860075,132.715781 L38.6860075,132.715781 Z M70.9120059,132.715781 L96.7030756,132.715781 L96.7030756,140.088691 L70.9108115,140.088691 L70.9120059,132.715781 L70.9120059,132.715781 L70.9120059,132.715781 Z M103.155919,132.715781 L128.945794,132.715781 L128.945794,140.088691 L103.155919,140.088691 L103.155919,132.715781 L103.155919,132.715781 L103.155919,132.715781 Z M51.5701964,147.460752 L83.8081379,147.460752 L83.8081379,154.835361 L51.5701964,154.835361 L51.5701964,147.460752 L51.5701964,147.460752 L51.5701964,147.460752 Z M6.44209448,147.460752 L38.6800359,147.460752 L38.6800359,154.835361 L6.44209448,154.835361 L6.44209448,147.460752 L6.44209448,147.460752 L6.44209448,147.460752 Z M96.7150187,147.460752 L128.95296,147.460752 L128.95296,154.835361 L96.7150187,154.835361 L96.7150187,147.460752 L96.7150187,147.460752 L96.7150187,147.460752 Z M128.941017,176.953242 L135.387889,176.953242 L135.387889,184.326152 L128.942211,184.326152 L128.941017,176.953242 L128.941017,176.953242 L128.941017,176.953242 Z M0,176.953242 L6.44687171,176.953242 L6.44687171,184.326152 L0,184.326152 L0,176.953242 L0,176.953242 L0,176.953242 Z M6.44209448,427.631338 L12.8889662,427.631338 L12.8889662,420.258428 L6.44209448,420.258428 L6.44209448,427.631338 L6.44209448,427.631338 L6.44209448,427.631338 Z M25.7850982,427.631338 L45.128102,427.631338 L45.128102,420.258428 L25.7850982,420.258428 L25.7850982,427.631338 L25.7850982,427.631338 L25.7850982,427.631338 Z"></path>
                                            <path d="M32.2259984,434.997451 L38.6728701,434.997451 L38.6728701,427.624541 L32.2271927,427.624541 L32.2259984,434.997451 L32.2259984,434.997451 L32.2259984,434.997451 Z M64.4687171,434.997451 L70.9179774,434.997451 L70.9179774,427.624541 L64.4687171,427.624541 L64.4687171,434.997451 L64.4687171,434.997451 L64.4687171,434.997451 Z M90.2538153,427.631338 L109.598013,427.631338 L109.598013,420.258428 L90.2538153,420.258428 L90.2538153,427.631338 L90.2538153,427.631338 L90.2538153,427.631338 Z"></path>
                                            <path d="M96.7150187,434.997451 L103.16189,434.997451 L103.16189,427.624541 L96.7150187,427.624541 L96.7150187,434.997451 L96.7150187,434.997451 L96.7150187,434.997451 Z M19.3430037,420.255029 L32.2391358,420.255029 L32.2391358,412.882119 L19.3430037,412.882119 L19.3430037,420.255029 L19.3430037,420.255029 L19.3430037,420.255029 Z M38.6860075,420.255029 L51.5821395,420.255029 L51.5821395,412.882119 L38.6860075,412.882119 L38.6860075,420.255029 L38.6860075,420.255029 L38.6860075,420.255029 Z M83.8129151,420.255029 L96.7090471,420.255029 L96.7090471,412.882119 L83.8129151,412.882119 L83.8129151,420.255029 L83.8129151,420.255029 L83.8129151,420.255029 Z M103.155919,420.255029 L116.050857,420.255029 L116.050857,412.882119 L103.157113,412.882119 L103.155919,420.255029 L103.155919,420.255029 L103.155919,420.255029 Z M45.128102,412.878721 L58.0230397,412.878721 L58.0230397,405.505811 L45.128102,405.505811 L45.128102,412.878721 L45.128102,412.878721 L45.128102,412.878721 Z M77.3720149,412.878721 L90.2657584,412.878721 L90.2657584,405.505811 L77.3732093,405.505811 L77.3720149,412.878721 L77.3720149,412.878721 L77.3720149,412.878721 Z M109.598013,412.878721 L122.492951,412.878721 L122.492951,405.505811 L109.598013,405.505811 L109.598013,412.878721 L109.598013,412.878721 L109.598013,412.878721 Z M122.500117,427.631338 L128.945794,427.631338 L128.945794,420.258428 L122.498923,420.258428 L122.500117,427.631338 L122.500117,427.631338 L122.500117,427.631338 Z M6.44209448,405.512607 L19.3382265,405.512607 L19.3382265,398.139697 L6.44209448,398.139697 L6.44209448,405.512607 L6.44209448,405.512607 L6.44209448,405.512607 Z"></path>
                                            <path d="M51.5701964,405.512607 L64.4651341,405.512607 L64.4651341,398.139697 L51.5701964,398.139697 L51.5701964,405.512607 L51.5701964,405.512607 L51.5701964,405.512607 Z M116.056828,405.512607 L128.95296,405.512607 L128.95296,398.139697 L116.056828,398.139697 L116.056828,405.512607 L116.056828,405.512607 L116.056828,405.512607 Z M12.8829946,383.394727 L25.7791267,383.394727 L25.7791267,376.020117 L12.8829946,376.020117 L12.8829946,383.394727 L12.8829946,383.394727 L12.8829946,383.394727 Z M19.3430037,376.017568 L32.2391358,376.017568 L32.2391358,368.645508 L19.3430037,368.645508 L19.3430037,376.017568 L19.3430037,376.017568 L19.3430037,376.017568 Z M45.128102,383.394727 L58.0230397,383.394727 L58.0230397,376.020117 L45.128102,376.020117 L45.128102,383.394727 L45.128102,383.394727 L45.128102,383.394727 Z M38.6860075,376.017568 L51.5821395,376.017568 L51.5821395,368.645508 L38.6860075,368.645508 L38.6860075,376.017568 L38.6860075,376.017568 L38.6860075,376.017568 Z M25.7850982,368.64126 L45.128102,368.64126 L45.128102,361.26835 L25.7850982,361.26835 L25.7850982,368.64126 L25.7850982,368.64126 L25.7850982,368.64126 Z"></path>
                                            <path d="M32.2259984,361.275146 L38.6728701,361.275146 L38.6728701,353.902236 L32.2271927,353.902236 L32.2259984,361.275146 L32.2259984,361.275146 L32.2259984,361.275146 Z M77.3720149,383.394727 L90.2657584,383.394727 L90.2657584,376.020117 L77.3732093,376.020117 L77.3720149,383.394727 L77.3720149,383.394727 L77.3720149,383.394727 Z M83.8129151,376.017568 L96.7090471,376.017568 L96.7090471,368.645508 L83.8129151,368.645508 L83.8129151,376.017568 L83.8129151,376.017568 L83.8129151,376.017568 Z M109.598013,383.394727 L122.492951,383.394727 L122.492951,376.020117 L109.598013,376.020117 L109.598013,383.394727 L109.598013,383.394727 L109.598013,383.394727 Z M103.155919,376.017568 L116.050857,376.017568 L116.050857,368.645508 L103.157113,368.645508 L103.155919,376.017568 L103.155919,376.017568 L103.155919,376.017568 Z M90.2538153,368.64126 L109.598013,368.64126 L109.598013,361.26835 L90.2538153,361.26835 L90.2538153,368.64126 L90.2538153,368.64126 L90.2538153,368.64126 Z"></path>
                                            <path d="M96.7150187,361.275146 L103.16189,361.275146 L103.16189,353.902236 L96.7150187,353.902236 L96.7150187,361.275146 L96.7150187,361.275146 L96.7150187,361.275146 Z M64.4687171,368.64126 L70.9179774,368.64126 L70.9179774,361.26835 L64.4687171,361.26835 L64.4687171,368.64126 L64.4687171,368.64126 L64.4687171,368.64126 Z M0,368.64126 L6.44687171,368.64126 L6.44687171,361.26835 L0,361.26835 L0,368.64126 L0,368.64126 L0,368.64126 Z M128.941017,368.64126 L135.387889,368.64126 L135.387889,361.26835 L128.942211,361.26835 L128.941017,368.64126 L128.941017,368.64126 L128.941017,368.64126 Z M32.2259984,331.780957 L38.6728701,331.780957 L38.6728701,324.406348 L32.2271927,324.406348 L32.2259984,331.780957 L32.2259984,331.780957 L32.2259984,331.780957 Z"></path>
                                            <path d="M25.7850982,324.414844 L45.128102,324.414844 L45.128102,317.040234 L25.7850982,317.040234 L25.7850982,324.414844 L25.7850982,324.414844 L25.7850982,324.414844 Z M19.3430037,317.038535 L51.5821395,317.038535 L51.5821395,309.663926 L19.3430037,309.663926 L19.3430037,317.038535 L19.3430037,317.038535 L19.3430037,317.038535 Z M96.7150187,331.780957 L103.16189,331.780957 L103.16189,324.406348 L96.7150187,324.406348 L96.7150187,331.780957 L96.7150187,331.780957 L96.7150187,331.780957 Z"></path>
                                            <path d="M90.2538153,324.414844 L109.598013,324.414844 L109.598013,317.040234 L90.2538153,317.040234 L90.2538153,324.414844 L90.2538153,324.414844 L90.2538153,324.414844 Z M83.8129151,317.038535 L116.050857,317.038535 L116.050857,309.663926 L83.8141094,309.663926 L83.8129151,317.038535 L83.8129151,317.038535 L83.8129151,317.038535 Z M90.2538153,280.177383 L122.492951,280.177383 L122.492951,272.802773 L90.2538153,272.802773 L90.2538153,280.177383 L90.2538153,280.177383 L90.2538153,280.177383 Z M77.3720149,309.661377 L122.504894,309.661377 L122.504894,302.288467 L77.3720149,302.288467 L77.3720149,309.661377 L77.3720149,309.661377 L77.3720149,309.661377 Z M12.8829946,309.661377 L58.0158738,309.661377 L58.0158738,302.288467 L12.8829946,302.288467 L12.8829946,309.661377 L12.8829946,309.661377 L12.8829946,309.661377 Z M19.3430037,272.801074 L38.6860075,272.801074 L38.6860075,265.424766 L19.3430037,265.424766 L19.3430037,272.801074 L19.3430037,272.801074 L19.3430037,272.801074 Z M12.8829946,280.177383 L45.1209361,280.177383 L45.1209361,272.802773 L12.884189,272.802773 L12.8829946,280.177383 L12.8829946,280.177383 L12.8829946,280.177383 Z M103.155919,294.919805 L135.395055,294.919805 L135.395055,287.545195 L103.155919,287.545195 L103.155919,294.919805 L103.155919,294.919805 L103.155919,294.919805 Z M96.7150187,272.801074 L116.056828,272.801074 L116.056828,265.426465 L96.7150187,265.426465 L96.7150187,272.801074 L96.7150187,272.801074 L96.7150187,272.801074 Z M0,294.919805 L32.2391358,294.919805 L32.2391358,287.545195 L0,287.545195 L0,294.919805 L0,294.919805 L0,294.919805 Z M58.0290112,280.177383 L77.3720149,280.177383 L77.3720149,272.802773 L58.0290112,272.802773 L58.0290112,280.177383 L58.0290112,280.177383 L58.0290112,280.177383 Z M64.4687171,272.801074 L70.9179774,272.801074 L70.9179774,265.426465 L64.4687171,265.426465 L64.4687171,272.801074 L64.4687171,272.801074 L64.4687171,272.801074 Z M45.128102,294.919805 L90.2609811,294.919805 L90.2609811,287.545195 L45.128102,287.545195 L45.128102,294.919805 L45.128102,294.919805 L45.128102,294.919805 Z M70.9120059,405.512607 L83.8081379,405.512607 L83.8081379,398.139697 L70.9120059,398.139697 L70.9120059,405.512607 L70.9120059,405.512607 L70.9120059,405.512607 Z M58.0290112,398.135449 L77.3720149,398.135449 L77.3720149,390.763389 L58.0290112,390.763389 L58.0290112,398.135449 L58.0290112,398.135449 L58.0290112,398.135449 Z M51.5701964,390.76084 L64.4651341,390.76084 L64.4651341,383.38623 L51.5701964,383.38623 L51.5701964,390.76084 L51.5701964,390.76084 L51.5701964,390.76084 Z M70.9120059,390.76084 L83.8081379,390.76084 L83.8081379,383.38623 L70.9120059,383.38623 L70.9120059,390.76084 L70.9120059,390.76084 L70.9120059,390.76084 Z M0,398.135449 L12.896132,398.135449 L12.896132,390.763389 L0,390.763389 L0,398.135449 L0,398.135449 L0,398.135449 Z M6.44209448,390.76084 L19.3382265,390.76084 L19.3382265,383.38623 L6.44209448,383.38623 L6.44209448,390.76084 L6.44209448,390.76084 L6.44209448,390.76084 Z M122.500117,398.135449 L135.395055,398.135449 L135.395055,390.763389 L122.500117,390.763389 L122.500117,398.135449 L122.500117,398.135449 L122.500117,398.135449 Z M116.056828,390.76084 L128.95296,390.76084 L128.95296,383.38623 L116.056828,383.38623 L116.056828,390.76084 L116.056828,390.76084 L116.056828,390.76084 Z M0,324.414844 L6.44687171,324.414844 L6.44687171,317.040234 L0,317.040234 L0,324.414844 L0,324.414844 L0,324.414844 Z M128.941017,324.414844 L135.387889,324.414844 L135.387889,317.040234 L128.942211,317.040234 L128.941017,324.414844 L128.941017,324.414844 L128.941017,324.414844 Z M51.5701964,258.058652 L64.4651341,258.058652 L64.4651341,250.684043 L51.5701964,250.684043 L51.5701964,258.058652 L51.5701964,258.058652 L51.5701964,258.058652 Z M70.9120059,258.058652 L83.8081379,258.058652 L83.8081379,250.684043 L70.9120059,250.684043 L70.9120059,258.058652 L70.9120059,258.058652 L70.9120059,258.058652 Z M45.128102,250.682344 L58.0230397,250.682344 L58.0230397,243.307734 L45.128102,243.307734 L45.128102,250.682344 L45.128102,250.682344 L45.128102,250.682344 Z M77.3720149,250.682344 L90.2657584,250.682344 L90.2657584,243.307734 L77.3732093,243.307734 L77.3720149,250.682344 L77.3720149,250.682344 L77.3720149,250.682344 Z M38.6860075,243.306035 L51.5821395,243.306035 L51.5821395,235.931426 L38.6860075,235.931426 L38.6860075,243.306035 L38.6860075,243.306035 L38.6860075,243.306035 Z M83.8129151,243.306035 L96.7090471,243.306035 L96.7090471,235.931426 L83.8129151,235.931426 L83.8129151,243.306035 L83.8129151,243.306035 L83.8129151,243.306035 Z"></path>
                                            <path d="M32.2259984,235.939922 L45.1209361,235.939922 L45.1209361,228.565313 L32.2271927,228.565313 L32.2259984,235.939922 L32.2259984,235.939922 L32.2259984,235.939922 Z M90.2538153,235.939922 L103.152336,235.939922 L103.152336,228.565313 L90.2538153,228.565313 L90.2538153,235.939922 L90.2538153,235.939922 L90.2538153,235.939922 Z M19.3430037,228.563613 L38.6860075,228.563613 L38.6860075,221.189004 L19.3430037,221.189004 L19.3430037,228.563613 L19.3430037,228.563613 L19.3430037,228.563613 Z M96.7150187,228.563613 L116.056828,228.563613 L116.056828,221.189004 L96.7150187,221.189004 L96.7150187,228.563613 L96.7150187,228.563613 L96.7150187,228.563613 Z M109.598013,235.939922 L122.492951,235.939922 L122.492951,228.565313 L109.598013,228.565313 L109.598013,235.939922 L109.598013,235.939922 L109.598013,235.939922 Z"></path>
                                            <path d="M116.056828,243.306035 L128.95296,243.306035 L128.95296,235.931426 L116.056828,235.931426 L116.056828,243.306035 L116.056828,243.306035 L116.056828,243.306035 Z M122.500117,250.682344 L135.395055,250.682344 L135.395055,243.307734 L122.500117,243.307734 L122.500117,250.682344 L122.500117,250.682344 L122.500117,250.682344 Z M12.8829946,235.939922 L25.7791267,235.939922 L25.7791267,228.565313 L12.8829946,228.565313 L12.8829946,235.939922 L12.8829946,235.939922 L12.8829946,235.939922 Z"></path>
                                            <path d="M6.44209448,243.306035 L19.3382265,243.306035 L19.3382265,235.931426 L6.44209448,235.931426 L6.44209448,243.306035 L6.44209448,243.306035 L6.44209448,243.306035 Z M0,250.682344 L12.896132,250.682344 L12.896132,243.307734 L0,243.307734 L0,250.682344 L0,250.682344 L0,250.682344 Z M25.7850982,221.189854 L32.2319699,221.189854 L32.2319699,213.816943 L25.7850982,213.816943 L25.7850982,221.189854 L25.7850982,221.189854 L25.7850982,221.189854 Z M64.4687171,243.306035 L70.9179774,243.306035 L70.9179774,235.931426 L64.4687171,235.931426 L64.4687171,243.306035 L64.4687171,243.306035 L64.4687171,243.306035 Z M64.4687171,324.414844 L70.9179774,324.414844 L70.9179774,317.040234 L64.4687171,317.040234 L64.4687171,324.414844 L64.4687171,324.414844 L64.4687171,324.414844 Z M32.2259984,398.135449 L38.6728701,398.135449 L38.6728701,390.763389 L32.2271927,390.763389 L32.2259984,398.135449 L32.2259984,398.135449 L32.2259984,398.135449 Z M96.7150187,398.135449 L103.16189,398.135449 L103.16189,390.763389 L96.7150187,390.763389 L96.7150187,398.135449 L96.7150187,398.135449 L96.7150187,398.135449 Z M58.0290112,346.532725 L77.3720149,346.532725 L77.3720149,339.159814 L58.0290112,339.159814 L58.0290112,346.532725 L58.0290112,346.532725 L58.0290112,346.532725 Z M45.128102,339.155566 L64.4687171,339.155566 L64.4687171,331.783506 L45.1292963,331.783506 L45.128102,339.155566 L45.128102,339.155566 L45.128102,339.155566 Z M51.5701964,331.780957 L58.0158738,331.780957 L58.0158738,324.406348 L51.5701964,324.406348 L51.5701964,331.780957 L51.5701964,331.780957 L51.5701964,331.780957 Z M38.6860075,346.532725 L51.5821395,346.532725 L51.5821395,339.159814 L38.6860075,339.159814 L38.6860075,346.532725 L38.6860075,346.532725 L38.6860075,346.532725 Z"></path>
                                            <path d="M45.128102,353.898838 L64.4687171,353.898838 L64.4687171,346.525928 L45.1292963,346.525928 L45.128102,353.898838 L45.128102,353.898838 L45.128102,353.898838 Z M51.5701964,361.275146 L58.0158738,361.275146 L58.0158738,353.902236 L51.5701964,353.902236 L51.5701964,361.275146 L51.5701964,361.275146 L51.5701964,361.275146 Z M70.9120059,353.898838 L90.2538153,353.898838 L90.2538153,346.525928 L70.9132002,346.525928 L70.9120059,353.898838 L70.9120059,353.898838 L70.9120059,353.898838 Z M77.3720149,361.275146 L83.8188867,361.275146 L83.8188867,353.902236 L77.3720149,353.902236 L77.3720149,361.275146 L77.3720149,361.275146 L77.3720149,361.275146 Z"></path>
                                            <path d="M83.8129151,346.532725 L96.7090471,346.532725 L96.7090471,339.159814 L83.8129151,339.159814 L83.8129151,346.532725 L83.8129151,346.532725 L83.8129151,346.532725 Z M70.9120059,339.155566 L90.2538153,339.155566 L90.2538153,331.783506 L70.9132002,331.783506 L70.9120059,339.155566 L70.9120059,339.155566 L70.9120059,339.155566 Z M77.3720149,331.780957 L83.8188867,331.780957 L83.8188867,324.406348 L77.3720149,324.406348 L77.3720149,331.780957 L77.3720149,331.780957 L77.3720149,331.780957 Z M103.155919,346.532725 L116.050857,346.532725 L116.050857,339.159814 L103.157113,339.159814 L103.155919,346.532725 L103.155919,346.532725 L103.155919,346.532725 Z"></path>
                                            <path d="M109.598013,353.898838 L128.941017,353.898838 L128.941017,346.525928 L109.598013,346.525928 L109.598013,353.898838 L109.598013,353.898838 L109.598013,353.898838 Z"></path>
                                            <path d="M122.500117,346.532725 L135.395055,346.532725 L135.395055,339.159814 L122.500117,339.159814 L122.500117,346.532725 L122.500117,346.532725 L122.500117,346.532725 Z M109.598013,339.155566 L128.941017,339.155566 L128.941017,331.783506 L109.598013,331.783506 L109.598013,339.155566 L109.598013,339.155566 L109.598013,339.155566 Z M116.056828,331.780957 L122.506088,331.780957 L122.506088,324.406348 L116.056828,324.406348 L116.056828,331.780957 L116.056828,331.780957 L116.056828,331.780957 Z M116.056828,361.275146 L122.506088,361.275146 L122.506088,353.902236 L116.056828,353.902236 L116.056828,361.275146 L116.056828,361.275146 L116.056828,361.275146 Z M0,346.532725 L12.896132,346.532725 L12.896132,339.159814 L0,339.159814 L0,346.532725 L0,346.532725 L0,346.532725 Z"></path>
                                            <path d="M6.44209448,353.898838 L25.7850982,353.898838 L25.7850982,346.525928 L6.44209448,346.525928 L6.44209448,353.898838 L6.44209448,353.898838 L6.44209448,353.898838 Z"></path>
                                            <path d="M19.3430037,346.532725 L32.2391358,346.532725 L32.2391358,339.159814 L19.3430037,339.159814 L19.3430037,346.532725 L19.3430037,346.532725 L19.3430037,346.532725 Z M6.44209448,339.155566 L25.7850982,339.155566 L25.7850982,331.783506 L6.44209448,331.783506 L6.44209448,339.155566 L6.44209448,339.155566 L6.44209448,339.155566 Z M12.8829946,331.780957 L19.3298664,331.780957 L19.3298664,324.406348 L12.8829946,324.406348 L12.8829946,331.780957 L12.8829946,331.780957 L12.8829946,331.780957 Z M12.8829946,361.275146 L19.3298664,361.275146 L19.3298664,353.902236 L12.8829946,353.902236 L12.8829946,361.275146 L12.8829946,361.275146 L12.8829946,361.275146 Z M6.44209448,302.296113 L32.2319699,302.296113 L32.2319699,294.921504 L6.44209448,294.921504 L6.44209448,302.296113 L6.44209448,302.296113 L6.44209448,302.296113 Z M38.6860075,302.296113 L64.4758829,302.296113 L64.4758829,294.921504 L38.6860075,294.921504 L38.6860075,302.296113 L38.6860075,302.296113 L38.6860075,302.296113 Z M70.9120059,302.296113 L96.7030756,302.296113 L96.7030756,294.921504 L70.9108115,294.921504 L70.9120059,302.296113 L70.9120059,302.296113 L70.9120059,302.296113 Z M103.155919,302.296113 L128.945794,302.296113 L128.945794,294.921504 L103.155919,294.921504 L103.155919,302.296113 L103.155919,302.296113 L103.155919,302.296113 Z M51.5701964,287.543496 L83.8081379,287.543496 L83.8081379,280.168887 L51.5701964,280.168887 L51.5701964,287.543496 L51.5701964,287.543496 L51.5701964,287.543496 Z M6.44209448,287.543496 L38.6800359,287.543496 L38.6800359,280.168887 L6.44209448,280.168887 L6.44209448,287.543496 L6.44209448,287.543496 L6.44209448,287.543496 Z M96.7150187,287.543496 L128.95296,287.543496 L128.95296,280.168887 L96.7150187,280.168887 L96.7150187,287.543496 L96.7150187,287.543496 L96.7150187,287.543496 Z M128.941017,258.058652 L135.387889,258.058652 L135.387889,250.684043 L128.942211,250.684043 L128.941017,258.058652 L128.941017,258.058652 L128.941017,258.058652 Z M0,258.058652 L6.44687171,258.058652 L6.44687171,250.684043 L0,250.684043 L0,258.058652 L0,258.058652 L0,258.058652 Z M58.0290112,221.189854 L64.4758829,221.189854 L64.4758829,228.564463 L58.0290112,228.564463 L58.0290112,221.189854 L58.0290112,221.189854 L58.0290112,221.189854 Z M70.9120059,221.189854 L77.3588776,221.189854 L77.3588776,228.564463 L70.9120059,228.564463 L70.9120059,221.189854 L70.9120059,221.189854 L70.9120059,221.189854 Z M70.9120059,206.444033 L77.3588776,206.444033 L77.3588776,213.816943 L70.9120059,213.816943 L70.9120059,206.444033 L70.9120059,206.444033 L70.9120059,206.444033 Z M58.0290112,206.444033 L64.4758829,206.444033 L64.4758829,213.816943 L58.0290112,213.816943 L58.0290112,206.444033 L58.0290112,206.444033 L58.0290112,206.444033 Z M12.8829946,405.512607 L25.7791267,405.512607 L25.7791267,412.887217 L12.8829946,412.887217 L12.8829946,405.512607 L12.8829946,405.512607 L12.8829946,405.512607 Z M103.155919,265.424766 L109.602791,265.424766 L109.602791,258.050156 L103.157113,258.050156 L103.155919,265.424766 L103.155919,265.424766 L103.155919,265.424766 Z M25.7850982,265.424766 L32.2319699,265.424766 L32.2319699,258.050156 L25.7850982,258.050156 L25.7850982,265.424766 L25.7850982,265.424766 L25.7850982,265.424766 Z M58.0254283,258.055254 L77.3672377,258.055254 L77.3672377,265.427314 L58.0254283,265.427314 L58.0254283,258.055254 L58.0254283,258.055254 L58.0254283,258.055254 Z"></path>
                                        </g>
                                    </g>
                                </g>
                            </g>
                        </g>
                    </g>
                </g>
            </g>
        </g>
    </g>
</svg>