<?xml version="1.0" encoding="UTF-8" standalone="no"?>
<svg width="876px" height="586px" viewBox="0 0 876 586" version="1.1" xmlns="http://www.w3.org/2000/svg" xmlns:xlink="http://www.w3.org/1999/xlink">
    <!-- Generator: Sketch 3.6 (26304) - http://www.bohemiancoding.com/sketch -->
    <title>cy</title>
    <desc>Created with Sketch.</desc>
    <defs></defs>
    <g id="Page-1" stroke="none" stroke-width="1" fill="none" fill-rule="evenodd">
        <g id="cy" transform="translate(3.000000, 3.000000)">
            <path d="M0,0 L870,0 L870,580 L0,580 L0,0 Z" id="Shape" fill="#FFFFFF"></path>
            <path d="M419.256341,481.641667 C419.118683,481.587227 418.994986,481.506525 418.89333,481.404833 L418.762751,481.29125 C418.423245,481.004875 417.864365,480.497375 417.110923,479.7035 C415.718947,478.241417 413.852969,476.10025 412.211587,474.208 C408.95755,470.454917 406.270228,467.221417 405.760969,466.612417 L404.933096,465.614333 L396.821509,463.299167 L390.897125,460.743542 L394.063674,457.450833 L404.935707,461.758542 L413.051212,463.299167 L428.054775,473.509583 L428.041717,473.51925 C428.012989,473.543417 425.861042,475.198833 423.722153,476.99925 C422.768924,477.800375 421.567595,478.831083 420.718829,479.689 C420.327091,480.082917 419.981056,480.474417 419.746013,480.791 C419.602376,480.984333 419.521417,481.16075 419.482243,481.246542 L420.414579,480.710042 L421.423957,481.435042 L419.368639,481.612667 L419.274622,481.632 L419.256341,481.641667 Z M342.752533,460.77375 C342.752533,460.77375 344.13116,458.87269 345.753245,457.77225 C347.781142,456.39475 351.438669,454.747792 357.348688,454.72725 C364.470484,454.72725 373.036487,456.928833 382.931787,461.271583 C382.597504,461.477 374.830647,466.159292 363.538148,466.159292 C356.455526,466.155667 349.463004,464.343167 342.752533,460.77375 Z M332.854621,459.862667 C331.546216,459.862667 330.369696,459.4035 329.543129,458.574583 C328.864117,457.891875 328.380973,456.983208 328.057137,455.791792 C327.530902,453.841542 327.675845,451.900958 327.691515,451.716083 C328.207938,451.509154 328.761406,451.392792 329.323756,451.372917 L329.441278,451.3705 C332.06331,451.3705 334.129075,453.476625 335.017014,455.563417 C335.518439,456.75 335.615067,457.746875 335.301677,458.528667 C334.988287,459.311667 334.00633,459.853 332.857232,459.853 L332.854621,459.862667 Z M386.841332,454.072333 C368.707783,451.676208 361.020579,445.609167 357.766542,440.942583 C354.293132,435.96425 355.007401,431.3605 355.01393,431.314583 L355.016542,431.300083 L355.0296,431.296458 C355.036129,431.296458 356.139524,431.020958 357.807022,431.013708 C362.633233,431.013708 374.971672,433.261208 386.847861,454.062667 L386.855696,454.07475 L386.834803,454.066292 L386.841332,454.072333 Z M349.673236,450.747 C341.925966,450.747 336.027698,449.509667 332.141658,447.070042 C329.908751,445.668375 328.815803,444.126542 328.29218,443.082542 C327.975515,442.464181 327.765774,441.803631 327.670622,441.125042 C327.875632,441.038042 331.047403,439.735458 335.782209,439.530042 C336.183087,439.513125 336.586578,439.50225 337.009655,439.501042 C342.996716,439.501042 352.102012,441.308708 361.710037,449.921708 L361.719178,449.930167 L361.70612,449.930167 C357.318655,450.461833 353.266779,450.743375 349.66279,450.743375 L349.673236,450.747 Z M312.160411,449.413 C303.991369,449.413 292.769383,447.105083 285.770332,440.628417 L285.762497,440.621167 L285.78339,440.616333 C285.856514,440.599417 293.452313,438.815917 301.998729,438.622583 C302.507988,438.6105 303.021165,438.605667 303.539565,438.605667 C311.199347,438.605667 317.061053,439.979542 320.96668,442.689833 C322.329928,443.635958 323.07423,444.516833 323.241372,445.379583 C323.381092,446.100958 322.969767,446.877917 322.137977,447.457917 C320.380379,448.686792 317.237335,449.342917 312.793721,449.408167 L312.16694,449.4275 L312.160411,449.413 Z M285.689373,436.846333 C284.683912,436.846333 283.738518,436.4355 283.099985,435.71775 C282.569833,435.125667 282.201599,434.349917 281.940441,433.280542 C281.504306,431.492208 281.636191,429.746167 281.637497,429.728042 L281.637497,429.711125 C282.018788,429.545583 282.443171,429.457375 282.909339,429.445292 L282.911951,429.445292 C284.121115,429.445292 285.040394,430.054292 285.614943,430.565417 C286.406061,431.282237 287.00988,432.156735 287.380375,433.12225 C287.761667,434.117917 287.824345,434.950458 287.568409,435.669417 C287.359482,436.23975 286.649131,436.839083 285.688067,436.839083 L285.689373,436.846333 Z M346.83183,435.570333 C345.523426,435.570333 344.346906,435.111167 343.520339,434.28225 C342.841327,433.599542 342.358183,432.690875 342.034346,431.499458 C341.508112,429.549208 341.653055,427.608625 341.668724,427.42375 C342.185148,427.216821 342.738616,427.100459 343.300966,427.080583 L343.418487,427.078167 C346.04052,427.078167 348.106285,429.184292 348.994224,431.271083 C349.495648,432.457667 349.592277,433.454542 349.278887,434.236333 C348.965496,435.029 347.973094,435.560667 346.834442,435.560667 L346.83183,435.570333 Z M287.81651,426.036583 C285.417768,424.046458 284.084553,422.07325 283.389871,420.770667 C282.731751,419.538167 282.483651,418.595667 282.439254,418.414417 C282.439254,418.414417 284.015346,417.891208 286.518551,417.845292 L286.90376,417.841667 C292.446852,417.841667 303.732822,419.997333 317.041466,434.423625 C300.609365,433.894375 292.078619,429.56975 287.81651,426.036583 Z M334.902104,432.892667 C321.67442,431.029417 314.183085,425.775583 310.225226,421.693833 C306.078027,417.416333 304.834912,413.432458 304.780068,413.247583 C304.803573,413.240333 306.420145,412.85125 308.854143,412.79325 C309.229255,412.782739 309.604625,412.782739 309.979737,412.79325 C316.631447,412.928583 328.713951,415.717417 334.899493,432.885417 L334.909939,432.885417 L334.902104,432.892667 Z M267.000862,427.015333 C262.665628,427.015333 258.460974,426.551333 254.504421,425.635417 C247.5798,424.033167 244.609121,421.5875 243.337278,419.816083 C242.613869,418.81075 242.351405,417.928667 242.259999,417.365583 C242.202026,417.022647 242.191057,416.674311 242.227354,416.328833 L242.259999,416.31675 C242.276974,416.314333 246.856391,415.124125 253.189488,415.035917 C256.444959,414.981432 259.697411,415.248781 262.891531,415.833417 C273.899367,417.867042 279.608294,425.555667 279.664443,425.633 L279.669667,425.641458 L279.656609,425.643875 C279.591319,425.653542 274.348559,427.016542 266.994333,427.016542 L267.000862,427.015333 Z M297.70267,416.691333 C296.37729,416.691333 295.20077,416.24425 294.388567,415.431042 C293.722612,414.762833 293.235551,413.842083 292.905186,412.61925 C292.377645,410.671417 292.523894,408.752583 292.539564,408.57375 C293.056074,408.367236 293.609538,408.251284 294.171805,408.231792 L294.289326,408.229375 C296.906136,408.229375 298.977124,410.3355 299.865063,412.422292 C300.35343,413.570208 300.439612,414.557417 300.118387,415.356125 C299.79455,416.168125 298.843933,416.690125 297.705281,416.690125 L297.70267,416.691333 Z M274.616247,413.762333 C274.517007,413.740583 268.371944,412.276083 262.114584,408.7115 C256.323391,405.41275 249.239463,399.5765 248.375028,390.509167 L248.375028,390.504333 L248.388086,390.500708 C248.390698,390.500708 248.928685,390.379875 249.725218,390.352083 C249.834905,390.348458 249.951121,390.346042 250.073865,390.346042 C251.804041,390.346042 255.345352,390.79675 259.628354,393.810333 C265.081346,397.657667 270.116484,404.366333 274.618859,413.772 L274.616247,413.762333 Z M289.690323,413.25 C289.651149,413.2355 285.272825,411.613917 279.79894,407.369042 C274.699818,403.412958 267.529708,396.291042 262.337874,384.816708 C262.340486,384.814292 263.531369,384.227042 265.354256,384.120708 C265.460312,384.114265 265.566589,384.111443 265.67287,384.11225 C265.829565,384.11225 265.991483,384.117083 266.156013,384.120708 C268.676194,384.187167 272.510003,385.155042 276.762971,389.401125 C281.646637,394.280375 286.007986,402.297667 289.720356,413.231875 L289.730803,413.262083 L289.699464,413.253625 L289.690323,413.25 Z M250.631439,412.196333 C245.594995,412.196333 243.871348,409.6685 243.363394,408.581 C242.530298,406.792667 242.783622,405.016417 242.784928,404.997083 L242.787539,404.97775 C243.608081,404.788997 244.449247,404.687645 245.294662,404.675667 L245.464415,404.67325 C249.434027,404.67325 252.56793,406.538917 253.910285,408.386458 C254.176667,408.752583 254.994094,410.02375 254.317693,411.017 C253.774483,411.8 252.541814,412.196333 250.630133,412.196333 L250.631439,412.196333 Z M239.474742,399.175333 C236.662064,399.175333 232.35817,399.015833 227.836208,398.254583 C223.350809,397.500583 220.808429,393.971042 219.466074,391.14475 C218.003586,388.065917 217.592261,385.12725 217.585732,385.09825 L217.59879,385.09825 C231.475454,385.47525 238.027924,389.227125 241.082174,392.307167 C244.235664,395.4875 244.422392,398.789875 244.432839,398.998917 L244.423698,398.998917 C244.4015,398.998917 242.448033,399.172917 239.470825,399.172917 L239.474742,399.175333 Z M253.922038,385.816 C252.794982,384.502228 251.737777,383.138417 250.754183,381.729417 C249.108884,379.365917 247.590247,376.899708 247.590247,374.880583 C247.590247,372.93275 247.094045,368.824417 246.800242,366.549125 C246.425479,363.664833 246.048105,361.196208 246.016766,360.985958 L246.029824,360.989583 C246.382388,361.106792 254.708125,363.998333 254.708125,371.224167 C254.708125,378.465708 253.937707,385.739875 253.929872,385.812375 L253.929872,385.824458 L253.919426,385.824458 L253.922038,385.816 Z M243.130963,385.129667 C243.043475,385.129667 242.955987,385.122417 242.869804,385.109125 C240.408384,384.730917 236.083598,382.989708 231.303089,380.453417 C225.993734,377.638 221.682005,374.617167 219.164436,371.955208 C216.86624,369.526458 215.504298,365.712958 215.111254,360.621042 C214.831814,357.005708 215.166097,353.994542 215.20266,353.697292 C215.633571,353.564375 216.090599,353.499125 216.573742,353.499125 C218.417522,353.526917 220.386658,354.294208 223.04003,355.988292 C225.109712,357.305375 227.390933,359.100958 229.819708,361.317042 C234.011304,365.142625 237.308432,368.985125 237.341076,369.022583 L237.373721,369.06125 C237.651855,369.520417 240.024481,373.478917 241.87479,377.332292 C243.050004,379.780375 243.719876,381.544542 243.990175,382.887 C244.142953,383.651875 244.186044,384.153333 243.984952,384.608875 C243.900075,384.797375 243.739463,384.971375 243.582768,385.041458 C243.437812,385.099873 243.281229,385.129511 243.123128,385.128458 L243.130963,385.129667 Z" id="a" fill="#435125"></path>
            <g id="a-link" transform="translate(488.335409, 417.479167) scale(-1, 1) translate(-488.335409, -417.479167) translate(381.260372, 352.833333)" fill="#435125">
                <path d="M204.800595,128.808333 C204.662937,128.753894 204.53924,128.673192 204.437584,128.5715 L204.307005,128.457917 C203.967499,128.171542 203.408619,127.664042 202.655177,126.870167 C201.263201,125.408083 199.397223,123.266917 197.755841,121.374667 C194.501804,117.621583 191.814482,114.388083 191.305223,113.779083 L190.47735,112.781 L182.365763,110.465833 L176.44138,107.910208 L179.607928,104.6175 L190.479962,108.925208 L198.595466,110.465833 L213.599029,120.67625 L213.585971,120.685917 C213.557244,120.710083 211.405296,122.3655 209.266407,124.165917 C208.313178,124.967042 207.111849,125.99775 206.263083,126.855667 C205.871345,127.249583 205.52531,127.641083 205.290267,127.957667 C205.14663,128.151 205.065671,128.327417 205.026497,128.413208 L205.958833,127.876708 L206.968211,128.601708 L204.912893,128.779333 L204.818876,128.798667 L204.800595,128.808333 Z M127.72019,108.43825 C132.291685,103.550638 128.743461,106.84585 131.297499,104.938917 C133.851538,103.031983 136.982923,101.914458 142.892942,101.893917 C150.014738,101.893917 158.580741,104.0955 168.476041,108.43825 C168.141758,108.643667 160.374901,113.325958 149.082402,113.325958 C141.99978,113.322333 134.430661,112.007667 127.72019,108.43825 Z M118.398875,107.029333 C117.09047,107.029333 115.913951,106.570167 115.087383,105.74125 C114.408371,105.058542 113.925228,104.149875 113.601391,102.958458 C113.075156,101.008208 113.220099,99.067625 113.235769,98.88275 C113.752192,98.6758211 114.30566,98.5594585 114.86801,98.5395833 L114.985532,98.5371667 C117.607564,98.5371667 119.673329,100.643292 120.561268,102.730083 C121.062693,103.916667 121.159322,104.913542 120.845931,105.695333 C120.532541,106.478333 119.550584,107.019667 118.401486,107.019667 L118.398875,107.029333 Z M172.385586,101.239 C154.252037,98.842875 146.564833,92.7758333 143.310796,88.10925 C139.837386,83.1309167 140.551655,78.5271667 140.558184,78.48125 L140.560796,78.46675 L140.573854,78.463125 C140.580383,78.463125 141.683778,78.187625 143.351276,78.180375 C148.177487,78.180375 160.515927,80.427875 172.392115,101.229333 L172.39995,101.241417 L172.379057,101.232958 L172.385586,101.239 Z M135.21749,97.9136667 C127.47022,97.9136667 121.571952,96.6763333 117.685912,94.2367083 C115.453006,92.8350417 114.360057,91.2932083 113.836434,90.2492083 C113.519769,89.6308472 113.310028,88.9702981 113.214876,88.2917083 C113.419886,88.2047083 116.591657,86.902125 121.326463,86.6967083 C121.727342,86.6797917 122.130832,86.6689167 122.553909,86.6677083 C128.54097,86.6677083 137.646266,88.475375 147.254291,97.088375 L147.263432,97.0968333 L147.250374,97.0968333 C142.862909,97.6285 138.811033,97.9100417 135.207044,97.9100417 L135.21749,97.9136667 Z M97.7046653,96.5796667 C89.5356235,96.5796667 78.3136373,94.27175 71.3145861,87.7950833 L71.3067513,87.7878333 L71.327644,87.783 C71.4007684,87.7660833 78.9965671,85.9825833 87.5429831,85.78925 C88.0522425,85.7771667 88.5654192,85.7723333 89.083819,85.7723333 C96.7436015,85.7723333 102.605307,87.1462083 106.510934,89.8565 C107.874182,90.802625 108.618484,91.6835 108.785626,92.54625 C108.925346,93.267625 108.514021,94.0445833 107.682231,94.6245833 C105.924633,95.8534583 102.781589,96.5095833 98.337975,96.5748333 L97.7111943,96.5941667 L97.7046653,96.5796667 Z M71.2336269,84.013 C70.2281662,84.013 69.282772,83.6021667 68.6442391,82.8844167 C68.1140871,82.2923333 67.7458535,81.5165833 67.4846948,80.4472083 C67.0485599,78.658875 67.180445,76.9128333 67.1817508,76.8947083 L67.1817508,76.8777917 C67.5630424,76.71225 67.9874252,76.6240417 68.4535933,76.6119583 L68.4562049,76.6119583 C69.6653694,76.6119583 70.5846477,77.2209583 71.1591967,77.7320833 C71.9503146,78.4489038 72.5541343,79.3234014 72.924629,80.2889167 C73.3059206,81.2845833 73.3685987,82.117125 73.1126632,82.8360833 C72.9037363,83.4064167 72.1933849,84.00575 71.2323211,84.00575 L71.2336269,84.013 Z M132.376085,82.737 C131.06768,82.737 129.89116,82.2778333 129.064593,81.4489167 C128.385581,80.7662083 127.902437,79.8575417 127.578601,78.666125 C127.052366,76.715875 127.197309,74.7752917 127.212978,74.5904167 C127.729402,74.3834878 128.28287,74.2671252 128.84522,74.24725 L128.962741,74.2448333 C131.584774,74.2448333 133.650539,76.3509583 134.538478,78.43775 C135.039903,79.6243333 135.136531,80.6212083 134.823141,81.403 C134.509751,82.1956667 133.517348,82.7273333 132.378696,82.7273333 L132.376085,82.737 Z M73.3607639,73.20325 C70.962022,71.213125 69.6288072,69.2399167 68.9341252,67.9373333 C68.2760055,66.7048333 72.0545973,65.013001 72.0628056,65.0119583 C72.254839,64.987565 72.4480145,65.0083333 72.4480145,65.0083333 C77.9911064,65.0083333 89.2770764,67.164 102.58572,81.5902917 C86.1536193,81.0610417 77.6228727,76.7364167 73.3607639,73.20325 Z M120.446358,80.0593333 C107.218674,78.1960833 99.7273389,72.94225 95.7694799,68.8605 C91.6222809,64.583 90.3791658,60.599125 90.3243225,60.41425 C90.3478268,60.407 91.9643987,60.0179167 94.3983971,59.9599167 C94.773509,59.9494058 95.1488788,59.9494058 95.5239908,59.9599167 C102.175701,60.09525 114.258205,62.8840833 120.443747,80.0520833 L120.454193,80.0520833 L120.446358,80.0593333 Z M52.5451156,74.182 C48.2098824,74.182 44.0052285,73.718 40.0486754,72.8020833 C33.1240544,71.1998333 30.153375,68.7541667 28.8815325,66.98275 C28.1581231,65.9774167 27.8956587,65.0953333 27.8042532,64.53225 C27.7462798,64.1893138 27.7353115,63.840978 27.7716083,63.4955 L27.8042532,63.4834167 C27.8212285,63.481 32.400645,62.2907917 38.7337417,62.2025833 C41.9892129,62.1480984 45.241665,62.4154473 48.4357846,63.0000833 C59.4436207,65.0337083 65.1525483,72.7223333 65.2086974,72.7996667 L65.2139206,72.808125 L65.2008627,72.8105417 C65.135573,72.8202083 59.8928136,74.1832083 52.5385867,74.1832083 L52.5451156,74.182 Z M83.2469237,63.858 C81.9215437,63.858 80.7450241,63.4109167 79.9328208,62.5977083 C79.2668663,61.9295 78.7798054,61.00875 78.4494398,59.7859167 C77.9218993,57.8380833 78.0681482,55.91925 78.0838177,55.7404167 C78.6003277,55.5339031 79.1537925,55.417951 79.7160591,55.3984583 L79.8335805,55.3960417 C82.4503899,55.3960417 84.5213778,57.5021667 85.4093172,59.5889583 C85.8976838,60.736875 85.9838661,61.7240833 85.662641,62.5227917 C85.3388043,63.3347917 84.3881869,63.8567917 83.2495353,63.8567917 L83.2469237,63.858 Z M60.1605012,60.929 C60.0612609,60.90725 53.9161984,59.44275 47.6588377,55.8781667 C41.8676452,52.5794167 34.7837174,46.7431667 33.9192824,37.6758333 L33.9192824,37.671 L33.9323403,37.667375 C33.9349519,37.667375 34.4729387,37.5465417 35.2694725,37.51875 C35.3791591,37.515125 35.4953747,37.5127083 35.6181193,37.5127083 C37.3482952,37.5127083 40.8896061,37.9634167 45.1726076,40.977 C50.6255997,44.8243333 55.660738,51.533 60.1631128,60.9386667 L60.1605012,60.929 Z M75.2345771,60.4166667 C75.1954033,60.4021667 70.8170789,58.7805833 65.3431941,54.5357083 C60.2440719,50.579625 53.0739618,43.4577083 47.8821284,31.983375 C47.8847399,31.9809583 49.0756233,31.3937083 50.8985105,31.287375 C51.0045665,31.2809315 51.1108432,31.2781101 51.217124,31.2789167 C51.3738192,31.2789167 51.5357375,31.28375 51.7002675,31.287375 C54.2204482,31.3538333 58.0542568,32.3217083 62.3072251,36.5677917 C67.1908914,41.4470417 71.5522405,49.4643333 75.2646103,60.3985417 L75.2750567,60.42875 L75.2437176,60.4202917 L75.2345771,60.4166667 Z M36.1756929,59.363 C31.1392488,59.363 29.4156019,56.8351667 28.9076484,55.7476667 C28.0745523,53.9593333 28.3278762,52.1830833 28.329182,52.16375 L28.3317936,52.1444167 C29.152335,51.9556642 29.993501,51.854312 30.8389164,51.8423333 L31.0086695,51.8399167 C34.9782806,51.8399167 38.1121841,53.7055833 39.4545395,55.553125 C39.7209213,55.91925 40.5383478,57.1904167 39.8619469,58.1836667 C39.318737,58.9666667 38.0860683,59.363 36.1743871,59.363 L36.1756929,59.363 Z M25.0189964,46.342 C22.206318,46.342 17.9024238,46.1825 13.3804622,45.42125 C8.89506281,44.66725 6.35268359,41.1377083 5.01032825,38.3114167 C3.54783994,35.2325833 3.1365151,32.2939167 3.12998614,32.2649167 L3.14304407,32.2649167 C17.0197077,32.6419167 23.5721776,36.3937917 26.6264278,39.4738333 C29.7799182,42.6541667 29.9666466,45.9565417 29.9770929,46.1655833 L29.9679524,46.1655833 C29.9457539,46.1655833 27.9922874,46.3395833 25.015079,46.3395833 L25.0189964,46.342 Z M39.4662916,32.9826667 C38.3392359,31.6688951 37.2820309,30.3050834 36.2984375,28.8960833 C34.6531381,26.5325833 33.1345007,24.066375 33.1345007,22.04725 C33.1345007,20.0994167 32.6382993,15.9910833 32.3444959,13.7157917 C31.9697332,10.8315 31.592359,8.362875 31.56102,8.152625 L31.5740779,8.15625 C31.9266421,8.27345833 40.2523791,11.165 40.2523791,18.3908333 C40.2523791,25.632375 39.4819611,32.9065417 39.4741264,32.9790417 L39.4741264,32.991125 L39.46368,32.991125 L39.4662916,32.9826667 Z M28.6752172,32.2963333 C28.587729,32.2963333 28.5002409,32.2890833 28.4140585,32.2757917 C25.9526385,31.8975833 21.6278516,30.156375 16.847343,27.6200833 C11.5379881,24.8046667 7.22625919,21.7838333 4.70869003,19.121875 C2.41049412,16.693125 1.04855188,12.879625 0.655508152,7.78770833 C0.376068422,4.172375 0.710351464,1.16120833 0.746913671,0.863958333 C1.1778254,0.731041667 1.634853,0.665791667 2.11799646,0.665791667 C3.96177636,0.693583333 5.9309124,1.460875 8.58428405,3.15495833 C10.6539662,4.47204167 12.9351868,6.267625 15.363962,8.48370833 C19.5555579,12.3092917 22.8526856,16.1517917 22.8853304,16.18925 L22.9179753,16.2279167 C23.1961092,16.6870833 25.5687353,20.6455833 27.4190442,24.4989583 C28.594258,26.9470417 29.2641299,28.7112083 29.5344291,30.0536667 C29.6872069,30.8185417 29.730298,31.32 29.5292059,31.7755417 C29.4443293,31.9640417 29.2837168,32.1380417 29.1270216,32.208125 C28.9820657,32.2665401 28.8254833,32.2961778 28.6673824,32.295125 L28.6752172,32.2963333 Z" id="a"></path>
            </g>
            <path d="M695.071189,92.2925 L692.611075,93.19875 L691.6474,93.5564167 L688.664968,93.4041667 L685.873182,94.6439167 L680.921615,97.7759167 L680.703547,97.9209167 L678.858462,98.3655833 L677.143955,97.6816667 L676.171139,98.0925 L675.834245,99.9472917 L674.907132,101.280083 L673.767174,102.022 L669.813233,102.396583 L666.480849,103.98675 L662.145615,102.911333 L660.132082,103.642375 L655.849081,107.210583 L653.661877,108.17 L652.896683,108.128917 L649.99521,107.991167 L648.767765,108.362125 L646.939654,109.998208 L643.476691,110.247125 L642.3968,110.938292 L640.707104,114.089625 L638.876382,115.836875 L637.82783,116.042292 L636.69179,115.658042 L635.839107,115.797 L635.452592,117.814917 L634.624719,118.658333 L632.305631,119.397833 L630.454016,120.826083 L628.828304,121.599417 L626.651546,121.547458 L626.151428,121.547458 L623.983811,122.656708 L619.903208,122.987792 L618.205676,124.486125 L617.83222,124.805125 L617.040909,125.247375 L615.745562,125.962708 L615.428254,126.140333 L613.866526,125.884167 L612.038416,126.553583 L611.298031,125.502333 L610.034023,126.203167 L608.357385,126.270833 L606.270727,125.4105 L604.680271,124.755583 L603.518115,124.912667 L603.113319,126.785583 L603.074146,126.986167 L601.850618,128.490542 L599.569397,129.771375 L599.258618,130.143542 L596.662701,133.245333 L591.730721,138.044833 L587.558712,140.005958 L583.236536,141.22275 L580.209708,143.523417 L572.270486,147.165333 L559.741401,152.932708 L557.179434,153.693958 L553.502321,154.237708 L546.942016,156.470708 L541.157353,158.087458 L540.834822,158.178083 L539.688335,158.4995 L531.52974,160.78325 L527.732494,160.411083 L525.483918,161.1675 L519.628741,160.56575 L515.557278,160.640667 L512.979643,161.136083 L508.13515,163.286917 L499.960885,166.924 L497.257893,169.210167 L493.05324,171.240167 L488.126482,172.684125 L488.13954,170.767708 L488.108201,170.68675 L486.401529,171.185792 L485.167555,171.548292 L481.171828,172.116208 L478.948062,172.116208 L477.569145,171.746458 L477.353689,171.812917 L469.187258,174.302083 L460.080657,175.115292 L455.523439,176.468625 L452.115319,176.417875 L449.986876,177.005125 L445.814867,177.476375 L444.326263,177.109042 L443.986757,177.024458 L431.712301,177.517458 L426.101308,176.930208 L423.424432,177.493292 L418.935116,176.096458 L412.386563,175.395625 L410.856173,174.970292 L407.414103,174.024167 L405.856292,174.853083 L404.690218,174.969083 L401.903656,174.033833 L400.900807,174.009667 L398.599999,174.779375 L397.277231,174.465208 L396.047174,173.558958 L393.161371,173.160208 L391.406385,171.794792 L381.584209,172.998292 L378.920391,172.273292 L369.983543,169.866292 L368.560228,169.93275 L366.790878,171.161625 L364.12706,172.059417 L361.818418,172.61525 L358.671457,172.71675 L355.017848,171.828625 L351.25194,170.139375 L349.858659,169.832458 L346.750871,170.122458 L345.80156,170.203417 L340.090021,167.368667 L332.734488,163.112917 L327.742441,160.893208 L325.868628,160.612875 L325.616609,161.438167 L326.546334,164.150875 L326.863642,166.833375 L326.768319,169.310458 L326.716087,170.845042 L327.182255,172.222542 L328.98425,174.071292 L329.737693,175.926083 L330.286126,181.033708 L330.279597,186.217458 L329.404715,194.482458 L329.1083,195.741542 L328.063666,200.022667 L327.107825,203.955792 L323.40329,214.427208 L322.384771,215.726167 L319.888095,217.301833 L314.227482,220.866417 L310.058084,223.08975 L308.739233,223.59725 L305.354617,223.832875 L303.247067,223.730167 L300.622423,222.413083 L298.046093,221.800458 L294.669312,219.552958 L290.915157,218.835208 L286.797991,216.633625 L285.727241,215.441 L283.485194,215.247667 L280.377406,214.3825 L280.377406,214.376458 L279.237449,214.062292 L278.44875,213.848417 L274.483056,213.746917 L270.787662,212.166417 L268.839418,211.731417 L266.178212,211.606958 L263.392955,212.803208 L263.392955,212.800792 L261.982699,213.411 L260.197679,212.754875 L258.907556,212.829792 L257.445067,214.874292 L257.228306,215.190875 L256.220233,215.683875 L254.966672,215.668167 L253.987327,215.644 L252.924412,216.072958 L251.495874,216.645708 L251.495874,216.648125 L250.234478,217.158042 L249.618143,217.404542 L249.607697,217.394875 L249.229017,217.464958 L248.553922,217.573708 L247.718214,217.721125 L246.24528,216.923625 L245.461804,216.497083 L244.149482,216.249375 L243.441742,216.720625 L243.303328,218.946375 L242.65696,220.277958 L240.606865,221.952708 L238.526737,223.649208 L237.077306,225.628458 L233.235663,233.738792 L230.830392,237.010958 L230.083478,237.772208 L227.567215,240.341125 L225.33692,241.942167 L220.196013,245.627583 L215.329322,247.312 L211.137726,248.104667 L209.098077,248.111917 L205.238152,247.637042 L201.764742,246.651042 L197.951827,244.444625 L193.773288,241.335583 L187.719632,235.801417 L186.863031,235.326542 L186.684138,235.217792 L184.77768,234.088 L183.364811,234.120625 L182.811155,234.966458 L182.508211,236.186875 L182.252276,237.269542 L181.557594,243.423583 L181.609825,243.780042 L181.975448,246.317542 L186.571839,252.262542 L187.989931,255.419917 L188.222362,255.78 L189.171674,257.254167 L189.893777,258.377917 L189.965596,258.493917 L191.536465,262.831833 L190.431764,265.281125 L190.990643,266.922042 L189.593445,267.924958 L189.338815,269.342333 L193.465121,274.12975 L194.366119,276.241917 L193.360658,279.169708 L191.754532,280.78525 L191.307951,281.2275 L191.535159,282.463625 L193.433782,284.044125 L196.659091,286.702458 L198.382738,290.653708 L199.688531,291.712208 L201.211086,291.412542 L202.05724,292.010667 L203.339529,291.990125 L204.602231,293.157375 L205.419657,293.5235 L206.712393,294.119208 L207.730911,295.349292 L207.958119,299.131375 L209.86066,303.828167 L209.890693,306.375333 L209.901139,306.737833 L211.085494,308.620417 L211.457645,310.106667 L210.825641,314.041 L212.335138,315.303708 L213.972602,314.993167 L215.030295,315.147833 L216.727826,316.457667 L218.785756,319.357667 L220.796677,319.085792 L222.073743,319.653708 L228.239698,324.809667 L229.636897,325.462167 L229.715244,325.504458 L230.720705,325.970875 L231.971655,327.139333 L233.910758,325.947917 L234.126214,325.926167 L236.233764,325.754583 L237.160877,326.330958 L238.939367,327.442625 L241.272819,327.413625 L246.332768,328.849125 L248.547393,329.375958 L252.997536,331.935208 L254.890936,333.017875 L256.010001,333.860083 L257.495993,334.983833 L260.467978,336.165583 L263.016887,336.729875 L264.398416,337.031958 L265.437827,337.406542 L265.463943,337.346125 L265.477001,337.348542 L265.453497,337.408958 L270.973084,339.366458 L273.960739,340.0105 L276.72902,340.953 L278.739942,341.633292 L280.2181,341.655042 L282.307369,340.028625 L284.331348,339.919875 L286.010598,340.308958 L287.650674,340.055208 L290.246591,338.573792 L290.753239,337.879 L292.594407,337.069417 L298.803453,336.3565 L300.618506,336.90025 L305.277576,335.024917 L308.398421,335.829667 L311.162785,334.923417 L317.199467,336.163167 L318.805592,337.208375 L320.598446,339.107875 L320.81782,339.115125 L322.815683,339.151375 L321.979976,340.43825 L324.617678,342.9975 L326.998139,346.327667 L327.158751,346.7675 L328.890233,351.467917 L330.176439,353.135417 L331.077436,355.46025 L331.120527,356.9755 L329.720717,357.963917 L329.490898,358.527 L329.41255,358.736042 L329.695907,359.369208 L330.223448,359.103375 L331.228908,358.587417 L332.447213,358.412208 L334.605689,358.624875 L336.029004,358.763833 L338.280191,357.730708 L339.771407,357.044375 L342.166232,357.998958 L344.798711,357.971167 L345.904717,358.4255 L349.033398,359.738958 L350.629077,359.877917 L351.219295,359.519042 L351.595364,358.692542 L351.402106,357.7295 L350.206,356.448667 L347.561769,353.609083 L346.477961,352.150625 L345.655311,350.036042 L345.399375,347.336625 L345.216564,345.512042 L345.545624,343.119542 L346.25467,342.264042 L346.776987,340.360917 L346.786128,340.360917 L346.920624,339.863083 L348.389642,338.06025 L352.280905,335.746292 L356.459443,332.284417 L359.7631,330.268917 L363.167303,328.9035 L363.258708,328.520458 L363.637388,328.661833 L372.30002,325.937042 L372.441045,325.921333 L376.298358,325.30025 L402.33065,326.99675 L403.296937,326.726083 L403.299549,326.720042 L404.166595,324.467708 L404.634069,324.050833 L404.943542,323.776542 L407.803229,322.6105 L409.142973,322.434083 L412.857954,323.282333 L414.380509,323.630333 L416.815813,322.366417 L418.544683,322.393 L422.114722,320.590167 L424.321512,320.640917 L425.15722,320.330375 L429.453279,317.475083 L433.592644,316.377917 L434.668617,315.84625 L435.047297,315.655333 L439.288513,313.581833 L441.982364,311.667833 L444.306676,310.523542 L446.852973,309.91575 L453.519047,309.48075 L454.860096,307.4145 L457.726312,307.061667 L459.457794,305.254 L461.437376,304.508458 L462.858079,302.615 L464.046351,301.029667 L465.709931,300.139125 L471.037567,299.831 L477.352383,300.556 L478.188091,300.08475 L479.614017,295.37225 L481.107844,294.490167 L485.129687,289.06475 L485.142745,287.086708 L485.147968,285.436125 L485.808699,283.084708 L485.359506,278.841042 L485.89227,274.543 L488.392864,269.081333 L490.597043,266.878542 L494.1488,264.655208 L495.956018,263.925375 L498.515372,263.526625 L498.515372,263.521792 L498.890135,263.461375 L499.543031,263.358667 L508.350606,263.249917 C508.472045,263.165333 511.553717,263.207625 511.553717,263.207625 L514.491751,263.171375 L521.921714,264.394208 L522.451866,264.478792 L524.962906,265.232792 L527.861767,267.319583 L530.927769,270.0915 L531.502318,270.611083 L533.491041,271.384417 L534.091706,271.626083 L535.733088,271.384417 L538.070458,270.25825 L539.833278,268.878333 L542.235938,267.663958 L542.294699,267.587833 L543.6475,265.702833 L543.690591,265.666583 L543.719319,265.672625 L543.72193,265.660542 L543.698426,265.656917 L544.23119,264.90775 L548.877202,263.231792 L554.34064,262.938167 L554.954363,262.630042 L555.296481,262.460875 L556.739382,260.892458 L558.092184,260.880375 L561.367113,261.977542 L563.671838,261.554625 L565.499948,262.231292 L566.920651,262.074208 L569.600139,261.781792 L572.476801,263.654708 L574.153439,263.852875 L580.063459,267.052542 L580.37032,267.098458 L580.529627,267.12625 L580.869133,267.177 L581.569039,266.983667 L582.613673,266.70575 L582.750781,266.6695 L582.881361,266.83625 L583.553844,267.712292 L584.475734,267.835542 L585.566071,266.489458 L585.13516,265.878042 L584.969324,265.655708 L582.859162,265.256958 L580.963151,262.260292 L582.767757,260.459875 L579.934186,257.245708 L579.4641,256.714042 L579.307405,256.484458 L578.32806,255.110583 L573.368658,248.117958 L566.910205,243.347458 L566.907593,243.351083 L564.64596,241.676333 L564.632902,241.666667 L563.838979,241.0915 L560.391686,237.844708 L557.926348,234.82025 L557.603817,234.16775 L557.094558,233.140667 L555.619012,230.168167 L553.046599,228.333917 L550.952107,226.2145 L550.847644,226.090042 L546.525468,220.652542 L545.813811,219.74025 L544.792681,219.194083 L542.634205,219.182 L542.430501,218.991083 L542.309062,218.873875 L542.382187,218.803792 L543.417681,217.851625 L544.572002,217.583375 L545.068203,216.529708 L542.866636,210.629417 L542.853578,210.424 L542.690354,208.539 L544.484514,199.979167 L544.713027,198.936375 L547.771195,193.17625 L549.667207,191.738333 L551.734277,187.978 L553.504933,185.573417 L555.202464,184.044875 L555.498879,183.88175 L558.563575,182.165917 L561.138599,181.83 L563.590879,181.509792 L567.87388,182.730208 L571.947955,182.657708 L572.744489,182.580375 L574.592186,182.383417 L577.632072,181.497708 L579.068445,180.676042 L579.812747,179.621167 L581.366641,174.799917 L581.862842,173.265333 L582.8226,171.60025 L588.365692,165.695125 L592.557288,162.106375 L601.977279,155.714292 L606.589341,153.164708 L608.943686,151.862125 L629.966955,143.214083 L635.431699,138.09075 L638.278328,135.423958 L643.314773,132.296792 L649.2039,130.061375 L654.276906,126.349375 L655.384219,125.058875 L656.778806,120.899792 L657.943573,120.64 L658.993431,118.5375 L659.293763,117.940583 L663.42921,115.241167 L663.899296,115.023667 L679.973609,107.571875 L682.308367,107.867917 L683.561929,106.133958 L688.236668,105.408958 L689.098491,105.273625 L690.251507,104.741958 L691.230852,103.195292 L691.230852,102.889583 L691.366654,98.7570833 L692.365586,97.6417917 L692.910102,94.920625 L693.419361,94.2922917 L693.957348,93.6397917 L695.281422,92.7770417 L695.051602,92.2635 L695.071189,92.2925 Z" id="Shape" fill="#D47600"></path>
        </g>
    </g>
</svg>
