<?xml version="1.0" encoding="UTF-8" standalone="no"?>
<svg width="875px" height="538px" viewBox="0 0 875 538" version="1.1" xmlns="http://www.w3.org/2000/svg" xmlns:xlink="http://www.w3.org/1999/xlink">
    <!-- Generator: Sketch 3.6 (26304) - http://www.bohemiancoding.com/sketch -->
    <title>Clipped</title>
    <desc>Created with Sketch.</desc>
    <defs></defs>
    <g id="Page-1" stroke="none" stroke-width="1" fill="none" fill-rule="evenodd">
        <g id="Clipped" transform="translate(2.000000, 3.000000)">
            <g id="Group" transform="translate(0.606738, 0.000000)">
                <path d="M0.367333333,337.875628 L241.405667,337.875628 L241.405667,531.205311 L0.367333333,531.205311 L0.367333333,337.875628 Z" id="Shape" fill="#FFFFFF"></path>
                <path d="M241.251,0 L386.193,0 L386.193,531.205311 L241.251,531.205311 L241.251,0 Z" id="Shape" fill="#0062DA"></path>
                <path d="M0.367333333,193.163681 L868.115,193.163681 L868.115,338.04163 L0.367333333,338.04163 L0.367333333,193.163681 Z" id="Shape" fill="#0062DA"></path>
                <path d="M0.367333333,0.00311253112 L241.405667,0.00311253112 L241.405667,193.332796 L0.367333333,193.332796 L0.367333333,0.00311253112 Z M386.038333,337.875628 L868.115,337.875628 L868.115,531.205311 L386.038333,531.205311 L386.038333,337.875628 Z M386.038333,0.00207502075 L868.115,0.00207502075 L868.115,193.331758 L386.038333,193.331758 L386.038333,0.00207502075 Z M0.367333333,337.875628 L241.405667,337.875628 L241.405667,531.205311 L0.367333333,531.205311 L0.367333333,337.875628 Z" id="Shape" fill="#FFFFFF"></path>
                <path d="M241.251,0 L386.193,0 L386.193,531.205311 L241.251,531.205311 L241.251,0 Z" id="Shape" fill="#0062DA"></path>
                <path d="M0.367333333,0.00311253112 L241.405667,0.00311253112 L241.405667,193.332796 L0.367333333,193.332796 L0.367333333,0.00311253112 Z M386.038333,337.875628 L868.115,337.875628 L868.115,531.205311 L386.038333,531.205311 L386.038333,337.875628 Z M386.038333,0.00207502075 L868.115,0.00207502075 L868.115,193.331758 L386.038333,193.331758 L386.038333,0.00207502075 Z" id="Shape" fill="#FFFFFF"></path>
            </g>
            <rect id="Rectangle-1" stroke="#FFFFFF" stroke-width="3" x="1" y="0" width="869" height="532"></rect>
        </g>
    </g>
</svg>