<?xml version="1.0" encoding="UTF-8" standalone="no"?>
<svg width="876px" height="441px" viewBox="0 0 876 441" version="1.1" xmlns="http://www.w3.org/2000/svg" xmlns:xlink="http://www.w3.org/1999/xlink">
    <!-- Generator: Sketch 3.6 (26304) - http://www.bohemiancoding.com/sketch -->
    <title>Clipped</title>
    <desc>Created with Sketch.</desc>
    <defs>
        <path id="path-1" d="M0.776141079,-1.13686838e-13 L869.873651,-1.13686838e-13 L869.873651,435 L0.776141079,435 L0.776141079,-1.13686838e-13 Z"></path>
    </defs>
    <g id="Page-1" stroke="none" stroke-width="1" fill="none" fill-rule="evenodd">
        <g id="Clipped" transform="translate(3.000000, 3.000000)">
            <g id="Group">
                <mask id="mask-2" fill="white">
                    <use xlink:href="#path-1"></use>
                </mask>
                <g id="Mask"></g>
                <g mask="url(#mask-2)">
                    <g transform="translate(0.324896, 0.000000)">
                        <g>
                            <path d="M0,0 L868.717382,0 L868.717382,434.358691 L0,434.358691 L0,0 Z" id="Shape" fill="#000066"></path>
                            <path d="M0,0 L0,48.5623892 L771.595148,434.360388 L868.717382,434.360388 L868.717382,385.799695 L97.1222334,0 L0,0 L0,0 Z M868.717382,0 L868.717382,48.5615409 L97.1222334,434.358691 L0,434.358691 L0,385.79715 L771.595148,0 L868.717382,0 L868.717382,0 Z" id="Shape" fill="#FFFFFF"></path>
                            <path d="M361.965576,144.78623 L361.965576,0 L361.965576,0 L506.751806,0 L506.751806,144.78623 L868.717382,144.78623 L868.717382,289.572461 L506.751806,289.572461 L506.751806,434.358691 L361.965576,434.358691 L361.965576,289.572461 L0,289.572461 L0,144.78623 L361.965576,144.78623 Z" id="Shape" fill="#FFFFFF"></path>
                            <path d="M390.92367,260.615215 L0,260.615215 L0,173.743476 L390.92367,173.743476 L390.92367,0 L390.92367,0 L477.793712,0 L477.793712,173.743476 L868.717382,173.743476 L868.717382,260.615215 L477.793712,260.615215 L477.793712,434.358691 L390.92367,434.358691 L390.92367,260.615215 Z M0,434.358691 L289.572461,289.572461 L354.321182,289.572461 L64.7487212,434.358691 L0,434.358691 Z M0,0 L289.572461,144.78623 L224.823739,144.78623 L0,32.3760573 L0,0 Z M514.3962,144.78623 L803.968661,0 L868.717382,0 L579.144921,144.78623 L514.3962,144.78623 Z M868.717382,434.358691 L579.144921,289.572461 L643.893642,289.572461 L868.717382,401.98433 L868.717382,434.358691 Z" id="Shape" fill="#CC0000"></path>
                        </g>
                    </g>
                </g>
            </g>
            <rect id="Rectangle-1" stroke="#FFFFFF" stroke-width="3" x="0" y="0" width="870" height="435"></rect>
        </g>
    </g>
</svg>