<?xml version="1.0" encoding="UTF-8" standalone="no"?>
<svg width="874px" height="584px" viewBox="0 0 874 584" version="1.1" xmlns="http://www.w3.org/2000/svg" xmlns:xlink="http://www.w3.org/1999/xlink">
    <!-- Generator: Sketch 3.6 (26304) - http://www.bohemiancoding.com/sketch -->
    <title>ge</title>
    <desc>Created with Sketch.</desc>
    <defs>
        <rect id="path-1" x="0" y="0" width="866.018307" height="580"></rect>
        <path id="path-3" d="M3.97903932e-13,603.2 C165.806751,603.2 300.21968,468.169081 300.21968,301.6 C300.21968,135.030919 165.806751,3.97903932e-13 3.97903932e-13,3.97903932e-13 L629.306636,3.97903932e-13 C463.499885,3.97903932e-13 329.086957,135.030919 329.086957,301.6 C329.086957,468.169081 463.499885,603.2 629.306636,603.2 L3.97903932e-13,603.2 L3.97903932e-13,603.2 L3.97903932e-13,603.2 Z"></path>
        <path id="path-5" d="M2.27373675e-13,603.2 C165.806751,603.2 300.21968,468.169081 300.21968,301.6 C300.21968,135.030919 165.806751,0 2.27373675e-13,0 L629.306636,0 C463.499885,0 329.086957,135.030919 329.086957,301.6 C329.086957,468.169081 463.499885,603.2 629.306636,603.2 L2.27373675e-13,603.2 L2.27373675e-13,603.2 L2.27373675e-13,603.2 Z"></path>
        <path id="path-7" d="M0,603.2 C165.806751,603.2 300.21968,468.169081 300.21968,301.6 C300.21968,135.030919 165.806751,3.41060513e-13 0,3.41060513e-13 L629.306636,3.41060513e-13 C463.499885,3.41060513e-13 329.086957,135.030919 329.086957,301.6 C329.086957,468.169081 463.499885,603.2 629.306636,603.2 L0,603.2 L0,603.2 L0,603.2 Z"></path>
        <path id="path-9" d="M3.41060513e-13,603.2 C165.806751,603.2 300.21968,468.169081 300.21968,301.6 C300.21968,135.030919 165.806751,0 3.41060513e-13,0 L629.306636,0 C463.499885,0 329.086957,135.030919 329.086957,301.6 C329.086957,468.169081 463.499885,603.2 629.306636,603.2 L3.41060513e-13,603.2 L3.41060513e-13,603.2 L3.41060513e-13,603.2 Z"></path>
        <path id="path-11" d="M0,603.2 C165.806751,603.2 300.21968,468.169081 300.21968,301.6 C300.21968,135.030919 165.806751,-1.13686838e-13 0,-1.13686838e-13 L629.306636,-1.13686838e-13 C463.499885,-1.13686838e-13 329.086957,135.030919 329.086957,301.6 C329.086957,468.169081 463.499885,603.2 629.306636,603.2 L0,603.2 L0,603.2 L0,603.2 Z"></path>
        <path id="path-13" d="M0,603.2 C165.806751,603.2 300.21968,468.169081 300.21968,301.6 C300.21968,135.030919 165.806751,0 0,0 L629.306636,0 C463.499885,0 329.086957,135.030919 329.086957,301.6 C329.086957,468.169081 463.499885,603.2 629.306636,603.2 L0,603.2 L0,603.2 L0,603.2 Z"></path>
        <path id="path-15" d="M1.13686838e-13,603.2 C165.806751,603.2 300.21968,468.169081 300.21968,301.6 C300.21968,135.030919 165.806751,0 1.13686838e-13,0 L629.306636,0 C463.499885,0 329.086957,135.030919 329.086957,301.6 C329.086957,468.169081 463.499885,603.2 629.306636,603.2 L1.13686838e-13,603.2 L1.13686838e-13,603.2 L1.13686838e-13,603.2 Z"></path>
        <path id="path-17" d="M0,603.2 C165.806751,603.2 300.21968,468.169081 300.21968,301.6 C300.21968,135.030919 165.806751,0 0,0 L629.306636,0 C463.499885,0 329.086957,135.030919 329.086957,301.6 C329.086957,468.169081 463.499885,603.2 629.306636,603.2 L0,603.2 L0,603.2 L0,603.2 Z"></path>
    </defs>
    <g id="Page-1" stroke="none" stroke-width="1" fill="none" fill-rule="evenodd">
        <g id="ge" transform="translate(2.000000, 2.000000)">
            <g id="Page-1">
                <g id="ge">
                    <g id="Page-1">
                        <g id="Flag_of_Georgia">
                            <g id="Group">
                                <g id="mask-2" fill="#FFFFFF">
                                    <rect id="path-1" x="0" y="0" width="870" height="580"></rect>
                                </g>
                                <g id="Mask" fill="#FFFFFF">
                                    <rect id="path-1" x="0" y="0" width="870" height="580"></rect>
                                </g>
                                <g id="Clipped">
                                    <g id="mask-2" fill="#FFFFFF">
                                        <rect id="path-1" x="0" y="0" width="866.018307" height="580"></rect>
                                    </g>
                                    <g id="path-1"></g>
                                    <g id="Group-Clipped">
                                        <mask id="mask-2" fill="white">
                                            <use xlink:href="#path-1"></use>
                                        </mask>
                                        <g id="path-1"></g>
                                        <g id="Group" mask="url(#mask-2)">
                                            <g transform="translate(-129.405034, -200.000000)" id="smallcross-link">
                                                <g transform="translate(0.497712, -0.000000)">
                                                    <g id="Group" transform="translate(0.303604, 0.305000)">
                                                        <g id="smallcross" transform="translate(0.000000, 0.000000)">
                                                            <g id="varm-Clipped" transform="translate(0.000000, 12.500000)">
                                                                <g id="mask-4" transform="translate(0.000000, 0.000000)" fill="#FFFFFF">
                                                                    <path d="M1.13686838e-13,603.2 C165.806751,603.2 300.21968,468.169081 300.21968,301.6 C300.21968,135.030919 165.806751,1.13686838e-13 1.13686838e-13,1.13686838e-13 L629.306636,1.13686838e-13 C463.499885,1.13686838e-13 329.086957,135.030919 329.086957,301.6 C329.086957,468.169081 463.499885,603.2 629.306636,603.2 L1.13686838e-13,603.2 L1.13686838e-13,603.2 L1.13686838e-13,603.2 Z" id="path-3"></path>
                                                                </g>
                                                                <g id="Shape" transform="translate(0.000000, 0.000000)"></g>
                                                                <g id="Group" transform="translate(0.000000, 0.000000)">
                                                                    <g id="mask-4" transform="translate(0.000000, 0.000000)" fill="#FFFFFF">
                                                                        <path d="M2.27373675e-13,603.2 C165.806751,603.2 300.21968,468.169081 300.21968,301.6 C300.21968,135.030919 165.806751,2.27373675e-13 2.27373675e-13,2.27373675e-13 L629.306636,2.27373675e-13 C463.499885,2.27373675e-13 329.086957,135.030919 329.086957,301.6 C329.086957,468.169081 463.499885,603.2 629.306636,603.2 L2.27373675e-13,603.2 L2.27373675e-13,603.2 L2.27373675e-13,603.2 Z" id="path-3"></path>
                                                                    </g>
                                                                    <g id="path-3" transform="translate(0.000000, 0.000000)"></g>
                                                                    <g id="varm-Clipped" transform="translate(0.000000, 0.000000)">
                                                                        <mask id="mask-4" fill="white">
                                                                            <use xlink:href="#path-3"></use>
                                                                        </mask>
                                                                        <g id="path-3"></g>
                                                                        <path d="M155.883295,516.2 C155.883295,428.110582 226.967055,356.7 314.653318,356.7 C402.339581,356.7 473.423341,428.110582 473.423341,516.2 L473.423341,87 C473.423341,175.089418 402.339581,246.5 314.653318,246.5 C226.967055,246.5 155.883295,175.089418 155.883295,87 L155.883295,516.2 L155.883295,516.2 L155.883295,516.2 Z" id="varm" fill="#FF0000" mask="url(#mask-4)"></path>
                                                                    </g>
                                                                </g>
                                                            </g>
                                                            <g id="varm-link" transform="translate(314.255149, 435.000000) rotate(90.000000) translate(-314.255149, -435.000000) translate(-120.744851, 133.000000)">
                                                                <g id="varm-Clipped" transform="translate(0.000000, 0.000000)">
                                                                    <g id="mask-6" transform="translate(0.000000, 0.000000)" fill="#FFFFFF">
                                                                        <path d="M1.13686838e-13,603.2 C165.806751,603.2 300.21968,468.169081 300.21968,301.6 C300.21968,135.030919 165.806751,0 1.13686838e-13,0 L629.306636,0 C463.499885,0 329.086957,135.030919 329.086957,301.6 C329.086957,468.169081 463.499885,603.2 629.306636,603.2 L1.13686838e-13,603.2 L1.13686838e-13,603.2 L1.13686838e-13,603.2 Z" id="path-5"></path>
                                                                    </g>
                                                                    <g id="Shape" transform="translate(0.000000, 0.000000)"></g>
                                                                    <g id="Group" transform="translate(0.000000, 0.000000)">
                                                                        <g id="mask-6" transform="translate(0.000000, 0.000000)" fill="#FFFFFF">
                                                                            <path d="M1.70530257e-13,603.2 C165.806751,603.2 300.21968,468.169081 300.21968,301.6 C300.21968,135.030919 165.806751,0 1.70530257e-13,0 L629.306636,0 C463.499885,0 329.086957,135.030919 329.086957,301.6 C329.086957,468.169081 463.499885,603.2 629.306636,603.2 L1.70530257e-13,603.2 L1.70530257e-13,603.2 L1.70530257e-13,603.2 Z" id="path-5"></path>
                                                                        </g>
                                                                        <g id="path-5" transform="translate(0.000000, 0.000000)"></g>
                                                                        <g id="varm-Clipped" transform="translate(0.000000, 0.000000)">
                                                                            <mask id="mask-6" fill="white">
                                                                                <use xlink:href="#path-5"></use>
                                                                            </mask>
                                                                            <g id="path-5"></g>
                                                                            <path d="M155.883295,516.2 C155.883295,428.110582 226.967055,356.7 314.653318,356.7 C402.339581,356.7 473.423341,428.110582 473.423341,516.2 L473.423341,87 C473.423341,175.089418 402.339581,246.5 314.653318,246.5 C226.967055,246.5 155.883295,175.089418 155.883295,87 L155.883295,516.2 L155.883295,516.2 L155.883295,516.2 Z" id="varm" fill="#FF0000" mask="url(#mask-6)"></path>
                                                                        </g>
                                                                    </g>
                                                                </g>
                                                            </g>
                                                        </g>
                                                    </g>
                                                    <g id="Group" transform="translate(494.222712, 351.495000)">
                                                        <g id="smallcross" transform="translate(0.000000, 0.000000)">
                                                            <g id="varm-Clipped" transform="translate(0.000000, 12.500000)">
                                                                <g id="mask-8" transform="translate(0.000000, 0.000000)" fill="#FFFFFF">
                                                                    <path d="M0,603.2 C165.806751,603.2 300.21968,468.169081 300.21968,301.6 C300.21968,135.030919 165.806751,2.27373675e-13 0,2.27373675e-13 L629.306636,2.27373675e-13 C463.499885,2.27373675e-13 329.086957,135.030919 329.086957,301.6 C329.086957,468.169081 463.499885,603.2 629.306636,603.2 L0,603.2 L0,603.2 L0,603.2 Z" id="path-7"></path>
                                                                </g>
                                                                <g id="Shape" transform="translate(0.000000, 0.000000)"></g>
                                                                <g id="Group" transform="translate(0.000000, 0.000000)">
                                                                    <g id="mask-8" transform="translate(0.000000, 0.000000)" fill="#FFFFFF">
                                                                        <path d="M0,603.2 C165.806751,603.2 300.21968,468.169081 300.21968,301.6 C300.21968,135.030919 165.806751,2.27373675e-13 0,2.27373675e-13 L629.306636,2.27373675e-13 C463.499885,2.27373675e-13 329.086957,135.030919 329.086957,301.6 C329.086957,468.169081 463.499885,603.2 629.306636,603.2 L0,603.2 L0,603.2 L0,603.2 Z" id="path-7"></path>
                                                                    </g>
                                                                    <g id="path-7" transform="translate(0.000000, 0.000000)"></g>
                                                                    <g id="varm-Clipped" transform="translate(0.000000, 0.000000)">
                                                                        <mask id="mask-8" fill="white">
                                                                            <use xlink:href="#path-7"></use>
                                                                        </mask>
                                                                        <g id="path-7"></g>
                                                                        <path d="M155.883295,516.2 C155.883295,428.110582 226.967055,356.7 314.653318,356.7 C402.339581,356.7 473.423341,428.110582 473.423341,516.2 L473.423341,87 C473.423341,175.089418 402.339581,246.5 314.653318,246.5 C226.967055,246.5 155.883295,175.089418 155.883295,87 L155.883295,516.2 L155.883295,516.2 L155.883295,516.2 Z" id="varm" fill="#FF0000" mask="url(#mask-8)"></path>
                                                                    </g>
                                                                </g>
                                                            </g>
                                                            <g id="varm-link" transform="translate(314.255149, 435.000000) rotate(90.000000) translate(-314.255149, -435.000000) translate(-120.744851, 133.000000)">
                                                                <g id="varm-Clipped" transform="translate(0.000000, -0.000000)">
                                                                    <g id="mask-10" transform="translate(0.000000, 0.000000)" fill="#FFFFFF">
                                                                        <path d="M2.27373675e-13,603.2 C165.806751,603.2 300.21968,468.169081 300.21968,301.6 C300.21968,135.030919 165.806751,0 2.27373675e-13,0 L629.306636,0 C463.499885,0 329.086957,135.030919 329.086957,301.6 C329.086957,468.169081 463.499885,603.2 629.306636,603.2 L2.27373675e-13,603.2 L2.27373675e-13,603.2 L2.27373675e-13,603.2 Z" id="path-9"></path>
                                                                    </g>
                                                                    <g id="Shape" transform="translate(0.000000, 0.000000)"></g>
                                                                    <g id="Group" transform="translate(0.000000, 0.000000)">
                                                                        <g id="mask-10" transform="translate(0.000000, 0.000000)" fill="#FFFFFF">
                                                                            <path d="M2.27373675e-13,603.2 C165.806751,603.2 300.21968,468.169081 300.21968,301.6 C300.21968,135.030919 165.806751,0 2.27373675e-13,0 L629.306636,0 C463.499885,0 329.086957,135.030919 329.086957,301.6 C329.086957,468.169081 463.499885,603.2 629.306636,603.2 L2.27373675e-13,603.2 L2.27373675e-13,603.2 L2.27373675e-13,603.2 Z" id="path-9"></path>
                                                                        </g>
                                                                        <g id="path-9" transform="translate(0.000000, 0.000000)"></g>
                                                                        <g id="varm-Clipped" transform="translate(0.000000, 0.000000)">
                                                                            <mask id="mask-10" fill="white">
                                                                                <use xlink:href="#path-9"></use>
                                                                            </mask>
                                                                            <g id="path-9"></g>
                                                                            <path d="M155.883295,516.2 C155.883295,428.110582 226.967055,356.7 314.653318,356.7 C402.339581,356.7 473.423341,428.110582 473.423341,516.2 L473.423341,87 C473.423341,175.089418 402.339581,246.5 314.653318,246.5 C226.967055,246.5 155.883295,175.089418 155.883295,87 L155.883295,516.2 L155.883295,516.2 L155.883295,516.2 Z" id="varm" fill="#FF0000" mask="url(#mask-10)"></path>
                                                                        </g>
                                                                    </g>
                                                                </g>
                                                            </g>
                                                        </g>
                                                    </g>
                                                    <g id="Group" transform="translate(494.222712, 0.305000)">
                                                        <g id="smallcross" transform="translate(0.000000, 0.000000)">
                                                            <g id="varm-Clipped" transform="translate(0.000000, 12.500000)">
                                                                <g id="mask-12" transform="translate(0.000000, -0.000000)" fill="#FFFFFF">
                                                                    <path d="M0,603.2 C165.806751,603.2 300.21968,468.169081 300.21968,301.6 C300.21968,135.030919 165.806751,-5.68434189e-14 0,-5.68434189e-14 L629.306636,-5.68434189e-14 C463.499885,-5.68434189e-14 329.086957,135.030919 329.086957,301.6 C329.086957,468.169081 463.499885,603.2 629.306636,603.2 L0,603.2 L0,603.2 L0,603.2 Z" id="path-11"></path>
                                                                </g>
                                                                <g id="Shape" transform="translate(0.000000, -0.000000)"></g>
                                                                <g id="Group" transform="translate(0.000000, -0.000000)">
                                                                    <g id="mask-12" transform="translate(0.000000, -0.000000)" fill="#FFFFFF">
                                                                        <path d="M0,603.2 C165.806751,603.2 300.21968,468.169081 300.21968,301.6 C300.21968,135.030919 165.806751,-5.68434189e-14 0,-5.68434189e-14 L629.306636,-5.68434189e-14 C463.499885,-5.68434189e-14 329.086957,135.030919 329.086957,301.6 C329.086957,468.169081 463.499885,603.2 629.306636,603.2 L0,603.2 L0,603.2 L0,603.2 Z" id="path-11"></path>
                                                                    </g>
                                                                    <g id="path-11" transform="translate(0.000000, -0.000000)"></g>
                                                                    <g id="varm-Clipped" transform="translate(0.000000, -0.000000)">
                                                                        <mask id="mask-12" fill="white">
                                                                            <use xlink:href="#path-11"></use>
                                                                        </mask>
                                                                        <g id="path-11"></g>
                                                                        <path d="M155.883295,516.2 C155.883295,428.110582 226.967055,356.7 314.653318,356.7 C402.339581,356.7 473.423341,428.110582 473.423341,516.2 L473.423341,87 C473.423341,175.089418 402.339581,246.5 314.653318,246.5 C226.967055,246.5 155.883295,175.089418 155.883295,87 L155.883295,516.2 L155.883295,516.2 L155.883295,516.2 Z" id="varm" fill="#FF0000" mask="url(#mask-12)"></path>
                                                                    </g>
                                                                </g>
                                                            </g>
                                                            <g id="varm-link" transform="translate(314.255149, 435.000000) rotate(90.000000) translate(-314.255149, -435.000000) translate(-120.744851, 133.000000)">
                                                                <g id="varm-Clipped" transform="translate(-0.000000, 0.000000)">
                                                                    <g id="mask-14" fill="#FFFFFF">
                                                                        <path d="M0,603.2 C165.806751,603.2 300.21968,468.169081 300.21968,301.6 C300.21968,135.030919 165.806751,0 0,0 L629.306636,0 C463.499885,0 329.086957,135.030919 329.086957,301.6 C329.086957,468.169081 463.499885,603.2 629.306636,603.2 L0,603.2 L0,603.2 L0,603.2 Z" id="path-13"></path>
                                                                    </g>
                                                                    <g id="Shape"></g>
                                                                    <g id="Group">
                                                                        <g id="mask-14" fill="#FFFFFF">
                                                                            <path d="M0,603.2 C165.806751,603.2 300.21968,468.169081 300.21968,301.6 C300.21968,135.030919 165.806751,0 0,0 L629.306636,0 C463.499885,0 329.086957,135.030919 329.086957,301.6 C329.086957,468.169081 463.499885,603.2 629.306636,603.2 L0,603.2 L0,603.2 L0,603.2 Z" id="path-13"></path>
                                                                        </g>
                                                                        <g id="path-13"></g>
                                                                        <g id="varm-Clipped">
                                                                            <mask id="mask-14" fill="white">
                                                                                <use xlink:href="#path-13"></use>
                                                                            </mask>
                                                                            <g id="path-13"></g>
                                                                            <path d="M155.883295,516.2 C155.883295,428.110582 226.967055,356.7 314.653318,356.7 C402.339581,356.7 473.423341,428.110582 473.423341,516.2 L473.423341,87 C473.423341,175.089418 402.339581,246.5 314.653318,246.5 C226.967055,246.5 155.883295,175.089418 155.883295,87 L155.883295,516.2 L155.883295,516.2 L155.883295,516.2 Z" id="varm" fill="#FF0000" mask="url(#mask-14)"></path>
                                                                        </g>
                                                                    </g>
                                                                </g>
                                                            </g>
                                                        </g>
                                                    </g>
                                                    <g id="Group" transform="translate(0.303604, 351.495000)">
                                                        <g id="smallcross" transform="translate(0.000000, -0.000000)">
                                                            <g id="varm-Clipped" transform="translate(-0.000000, 12.500000)">
                                                                <g id="mask-16" transform="translate(-0.000000, -0.000000)" fill="#FFFFFF">
                                                                    <path d="M0,603.2 C165.806751,603.2 300.21968,468.169081 300.21968,301.6 C300.21968,135.030919 165.806751,-1.13686838e-13 0,-1.13686838e-13 L629.306636,-1.13686838e-13 C463.499885,-1.13686838e-13 329.086957,135.030919 329.086957,301.6 C329.086957,468.169081 463.499885,603.2 629.306636,603.2 L0,603.2 L0,603.2 L0,603.2 Z" id="path-15"></path>
                                                                </g>
                                                                <g id="Shape" transform="translate(-0.000000, -0.000000)"></g>
                                                                <g id="Group" transform="translate(-0.000000, -0.000000)">
                                                                    <g id="mask-16" transform="translate(0.000000, 0.000000)" fill="#FFFFFF">
                                                                        <path d="M0,603.2 C165.806751,603.2 300.21968,468.169081 300.21968,301.6 C300.21968,135.030919 165.806751,0 0,0 L629.306636,0 C463.499885,0 329.086957,135.030919 329.086957,301.6 C329.086957,468.169081 463.499885,603.2 629.306636,603.2 L0,603.2 L0,603.2 L0,603.2 Z" id="path-15"></path>
                                                                    </g>
                                                                    <g id="path-15" transform="translate(0.000000, 0.000000)"></g>
                                                                    <g id="varm-Clipped" transform="translate(0.000000, 0.000000)">
                                                                        <mask id="mask-16" fill="white">
                                                                            <use xlink:href="#path-15"></use>
                                                                        </mask>
                                                                        <g id="path-15"></g>
                                                                        <path d="M155.883295,516.2 C155.883295,428.110582 226.967055,356.7 314.653318,356.7 C402.339581,356.7 473.423341,428.110582 473.423341,516.2 L473.423341,87 C473.423341,175.089418 402.339581,246.5 314.653318,246.5 C226.967055,246.5 155.883295,175.089418 155.883295,87 L155.883295,516.2 L155.883295,516.2 L155.883295,516.2 Z" id="varm" fill="#FF0000" mask="url(#mask-16)"></path>
                                                                    </g>
                                                                </g>
                                                            </g>
                                                            <g id="varm-link" transform="translate(314.255149, 435.000000) rotate(90.000000) translate(-314.255149, -435.000000) translate(-120.744851, 133.000000)">
                                                                <g id="varm-Clipped" transform="translate(-0.000000, 0.000000)">
                                                                    <g id="mask-18" transform="translate(-0.000000, 0.000000)" fill="#FFFFFF">
                                                                        <path d="M-1.13686838e-13,603.2 C165.806751,603.2 300.21968,468.169081 300.21968,301.6 C300.21968,135.030919 165.806751,0 -1.13686838e-13,0 L629.306636,0 C463.499885,0 329.086957,135.030919 329.086957,301.6 C329.086957,468.169081 463.499885,603.2 629.306636,603.2 L-1.13686838e-13,603.2 L-1.13686838e-13,603.2 L-1.13686838e-13,603.2 Z" id="path-17"></path>
                                                                    </g>
                                                                    <g id="Shape" transform="translate(-0.000000, 0.000000)"></g>
                                                                    <g id="Group" transform="translate(-0.000000, 0.000000)">
                                                                        <g id="mask-18" fill="#FFFFFF">
                                                                            <path d="M0,603.2 C165.806751,603.2 300.21968,468.169081 300.21968,301.6 C300.21968,135.030919 165.806751,0 0,0 L629.306636,0 C463.499885,0 329.086957,135.030919 329.086957,301.6 C329.086957,468.169081 463.499885,603.2 629.306636,603.2 L0,603.2 L0,603.2 L0,603.2 Z" id="path-17"></path>
                                                                        </g>
                                                                        <g id="path-17"></g>
                                                                        <g id="varm-Clipped">
                                                                            <mask id="mask-18" fill="white">
                                                                                <use xlink:href="#path-17"></use>
                                                                            </mask>
                                                                            <g id="path-17"></g>
                                                                            <path d="M155.883295,516.2 C155.883295,428.110582 226.967055,356.7 314.653318,356.7 C402.339581,356.7 473.423341,428.110582 473.423341,516.2 L473.423341,87 C473.423341,175.089418 402.339581,246.5 314.653318,246.5 C226.967055,246.5 155.883295,175.089418 155.883295,87 L155.883295,516.2 L155.883295,516.2 L155.883295,516.2 Z" id="varm" fill="#FF0000" mask="url(#mask-18)"></path>
                                                                        </g>
                                                                    </g>
                                                                </g>
                                                            </g>
                                                        </g>
                                                    </g>
                                                </g>
                                            </g>
                                        </g>
                                    </g>
                                </g>
                            </g>
                            <path d="M377,232 L0,232 L0,348 L377,348 L377,580 L493,580 L493,348 L870,348 L870,232 L493,232 L493,-5.68434189e-14 L377,-5.68434189e-14 L377,232 L377,232 Z" id="Shape" fill="#FF0000"></path>
                            <rect id="Rectangle-2" stroke="#FFFFFF" stroke-width="3" x="0" y="0" width="870" height="580"></rect>
                        </g>
                    </g>
                </g>
            </g>
        </g>
    </g>
</svg>