<?xml version="1.0" encoding="UTF-8" standalone="no"?>
<svg width="873px" height="584px" viewBox="0 0 873 584" version="1.1" xmlns="http://www.w3.org/2000/svg" xmlns:xlink="http://www.w3.org/1999/xlink">
    <!-- Generator: Sketch 3.6 (26304) - http://www.bohemiancoding.com/sketch -->
    <title>gr</title>
    <desc>Created with Sketch.</desc>
    <defs>
        <path id="path-1" d="M0,0 L870,0 L870,580 L0,580 L0,0 L0,0 Z"></path>
        <path id="path-3" d="M0,0 L870,0 L870,580 L0,580 L0,0 L0,0 Z"></path>
    </defs>
    <g id="Page-1" stroke="none" stroke-width="1" fill="none" fill-rule="evenodd">
        <g id="gr" transform="translate(2.000000, 2.000000)">
            <g id="Page-1">
                <g id="Clipped">
                    <g id="mask-2" fill="#FFFFFF">
                        <path d="M0,0 L870,0 L870,580 L0,580 L0,0 L0,0 Z" id="path-1"></path>
                    </g>
                    <g id="Shape"></g>
                    <g id="Group-Clipped">
                        <mask id="mask-2" fill="white">
                            <use xlink:href="#path-1"></use>
                        </mask>
                        <g id="path-1"></g>
                        <g id="Group" mask="url(#mask-2)">
                            <path d="M0,0 L869.45625,0 L869.45625,64.4041667 L0,64.4041667 L0,0 L0,0 Z" id="Shape" fill="#0D5EAF"></path>
                            <path d="M0,64.4041667 L869.45625,64.4041667 L869.45625,128.808333 L0,128.808333 L0,64.4041667 L0,64.4041667 Z" id="Shape" fill="#FFFFFF"></path>
                            <path d="M0,128.808333 L869.45625,128.808333 L869.45625,193.2125 L0,193.2125 L0,128.808333 L0,128.808333 Z" id="Shape" fill="#0D5EAF"></path>
                            <path d="M0,193.2125 L869.45625,193.2125 L869.45625,257.616667 L0,257.616667 L0,193.2125 L0,193.2125 Z" id="Shape" fill="#FFFFFF"></path>
                            <path d="M0,257.616667 L869.45625,257.616667 L869.45625,322.020833 L0,322.020833 L0,257.616667 L0,257.616667 Z" id="Shape" fill="#0D5EAF"></path>
                            <path d="M0,322.020833 L869.45625,322.020833 L869.45625,386.425 L0,386.425 L0,322.020833 L0,322.020833 Z" id="Shape" fill="#FFFFFF"></path>
                            <path d="M0,386.425 L869.45625,386.425 L869.45625,450.829167 L0,450.829167 L0,386.425 L0,386.425 Z" id="Shape" fill="#0D5EAF"></path>
                            <path d="M0,450.829167 L869.45625,450.829167 L869.45625,515.233333 L0,515.233333 L0,450.829167 L0,450.829167 Z" id="Shape" fill="#FFFFFF"></path>
                            <path d="M0,515.233333 L869.45625,515.233333 L869.45625,579.6375 L0,579.6375 L0,515.233333 L0,515.233333 Z M0,0 L322.020833,0 L322.020833,322.020833 L0,322.020833 L0,0 L0,0 Z" id="Shape" fill="#0D5EAF"></path>
                            <g id="Shape" fill="#FFFFFF">
                                <path d="M128.808333,0 L193.2125,0 L193.2125,322.020833 L128.808333,322.020833 L128.808333,0 L128.808333,0 Z"></path>
                                <path d="M0,128.808333 L322.020833,128.808333 L322.020833,193.2125 L0,193.2125 L0,128.808333 L0,128.808333 Z"></path>
                            </g>
                        </g>
                    </g>
                    <g id="Rectangle-1-Clipped">
                        <mask id="mask-4" fill="white">
                            <use xlink:href="#path-3"></use>
                        </mask>
                        <g id="path-1"></g>
                        <rect id="Rectangle-1" stroke="#FFFFFF" stroke-width="3" mask="url(#mask-4)" x="0" y="0" width="870" height="580"></rect>
                    </g>
                </g>
            </g>
            <rect id="Rectangle-2" stroke="#FFFFFF" stroke-width="3" x="0" y="0" width="869" height="580"></rect>
        </g>
    </g>
</svg>