<?xml version="1.0" encoding="UTF-8" standalone="no"?>
<svg width="874px" height="439px" viewBox="0 0 874 439" version="1.1" xmlns="http://www.w3.org/2000/svg" xmlns:xlink="http://www.w3.org/1999/xlink">
    <!-- Generator: Sketch 3.6 (26304) - http://www.bohemiancoding.com/sketch -->
    <title>kz</title>
    <desc>Created with Sketch.</desc>
    <defs></defs>
    <g id="Page-1" stroke="none" stroke-width="1" fill="none" fill-rule="evenodd">
        <g id="kz" transform="translate(2.000000, 2.000000)">
            <g id="Page-1">
                <g id="Flag_of_Kazakhstan">
                    <rect id="Rectangle-path" fill="#00AFCA" x="0" y="0" width="870" height="435"></rect>
                    <g id="sun" transform="translate(316.450146, 29.580000)" fill="#FEC50C">
                        <circle id="Oval" cx="153.555" cy="153.12" r="58.5291195"></circle>
                        <g id="r16" transform="translate(23.055000, 23.055000)">
                            <g id="r4" transform="translate(38.715000, 38.280000)">
                                <path d="M91.785,25.2735 C95.265,25.23 96.57,23.055 96.57,20.445 C96.57,16.965 91.785,0.3915 91.785,0.3915 C91.785,0.3915 87,16.965 87,20.445 C87,23.055 88.305,25.2735 91.785,25.2735 L91.785,25.2735 L91.785,25.2735 Z" id="r"></path>
                                <g id="r-link" transform="translate(170.570000, 92.000000) rotate(90.000000) translate(-170.570000, -92.000000) translate(165.570000, 79.000000)">
                                    <path d="M4.785,25.2735 C8.265,25.23 9.57,23.055 9.57,20.445 C9.57,16.965 4.785,0.3915 4.785,0.3915 C4.785,0.3915 0,16.965 0,20.445 C0,23.055 1.305,25.2735 4.785,25.2735 L4.785,25.2735 L4.785,25.2735 Z" id="r"></path>
                                </g>
                                <g id="r-link" transform="translate(91.570000, 170.570000) rotate(180.000000) translate(-91.570000, -170.570000) translate(86.570000, 157.570000)">
                                    <path d="M4.785,25.2735 C8.265,25.23 9.57,23.055 9.57,20.445 C9.57,16.965 4.785,0.3915 4.785,0.3915 C4.785,0.3915 0,16.965 0,20.445 C0,23.055 1.305,25.2735 4.785,25.2735 L4.785,25.2735 L4.785,25.2735 Z" id="r"></path>
                                </g>
                                <g id="r-link" transform="translate(13.000000, 91.570000) rotate(270.000000) translate(-13.000000, -91.570000) translate(8.000000, 78.570000)">
                                    <path d="M4.785,25.2735 C8.265,25.23 9.57,23.055 9.57,20.445 C9.57,16.965 4.785,0.3915 4.785,0.3915 C4.785,0.3915 0,16.965 0,20.445 C0,23.055 1.305,25.2735 4.785,25.2735 L4.785,25.2735 L4.785,25.2735 Z" id="r"></path>
                                </g>
                            </g>
                            <g id="r4-link" transform="translate(130.616357, 130.345911) rotate(22.500000) translate(-130.616357, -130.345911) translate(38.616357, 38.345911)">
                                <g id="r4">
                                    <path d="M91.785,25.2735 C95.265,25.23 96.57,23.055 96.57,20.445 C96.57,16.965 91.785,0.3915 91.785,0.3915 C91.785,0.3915 87,16.965 87,20.445 C87,23.055 88.305,25.2735 91.785,25.2735 L91.785,25.2735 L91.785,25.2735 Z" id="r"></path>
                                    <g id="r-link" transform="translate(170.570000, 92.000000) rotate(90.000000) translate(-170.570000, -92.000000) translate(165.570000, 79.000000)">
                                        <path d="M4.785,25.2735 C8.265,25.23 9.57,23.055 9.57,20.445 C9.57,16.965 4.785,0.3915 4.785,0.3915 C4.785,0.3915 0,16.965 0,20.445 C0,23.055 1.305,25.2735 4.785,25.2735 L4.785,25.2735 L4.785,25.2735 Z" id="r"></path>
                                    </g>
                                    <g id="r-link" transform="translate(91.570000, 170.570000) rotate(180.000000) translate(-91.570000, -170.570000) translate(86.570000, 157.570000)">
                                        <path d="M4.785,25.2735 C8.265,25.23 9.57,23.055 9.57,20.445 C9.57,16.965 4.785,0.3915 4.785,0.3915 C4.785,0.3915 0,16.965 0,20.445 C0,23.055 1.305,25.2735 4.785,25.2735 L4.785,25.2735 L4.785,25.2735 Z" id="r"></path>
                                    </g>
                                    <g id="r-link" transform="translate(13.000000, 91.570000) rotate(270.000000) translate(-13.000000, -91.570000) translate(8.000000, 78.570000)">
                                        <path d="M4.785,25.2735 C8.265,25.23 9.57,23.055 9.57,20.445 C9.57,16.965 4.785,0.3915 4.785,0.3915 C4.785,0.3915 0,16.965 0,20.445 C0,23.055 1.305,25.2735 4.785,25.2735 L4.785,25.2735 L4.785,25.2735 Z" id="r"></path>
                                    </g>
                                </g>
                            </g>
                            <g id="r4-link" transform="translate(130.500000, 130.369056) rotate(45.000000) translate(-130.500000, -130.369056) translate(38.500000, 38.369056)">
                                <g id="r4">
                                    <path d="M91.785,25.2735 C95.265,25.23 96.57,23.055 96.57,20.445 C96.57,16.965 91.785,0.3915 91.785,0.3915 C91.785,0.3915 87,16.965 87,20.445 C87,23.055 88.305,25.2735 91.785,25.2735 L91.785,25.2735 L91.785,25.2735 Z" id="r"></path>
                                    <g id="r-link" transform="translate(170.570000, 92.000000) rotate(90.000000) translate(-170.570000, -92.000000) translate(165.570000, 79.000000)">
                                        <path d="M4.785,25.2735 C8.265,25.23 9.57,23.055 9.57,20.445 C9.57,16.965 4.785,0.3915 4.785,0.3915 C4.785,0.3915 0,16.965 0,20.445 C0,23.055 1.305,25.2735 4.785,25.2735 L4.785,25.2735 L4.785,25.2735 Z" id="r"></path>
                                    </g>
                                    <g id="r-link" transform="translate(91.570000, 170.570000) rotate(180.000000) translate(-91.570000, -170.570000) translate(86.570000, 157.570000)">
                                        <path d="M4.785,25.2735 C8.265,25.23 9.57,23.055 9.57,20.445 C9.57,16.965 4.785,0.3915 4.785,0.3915 C4.785,0.3915 0,16.965 0,20.445 C0,23.055 1.305,25.2735 4.785,25.2735 L4.785,25.2735 L4.785,25.2735 Z" id="r"></path>
                                    </g>
                                    <g id="r-link" transform="translate(13.000000, 91.570000) rotate(270.000000) translate(-13.000000, -91.570000) translate(8.000000, 78.570000)">
                                        <path d="M4.785,25.2735 C8.265,25.23 9.57,23.055 9.57,20.445 C9.57,16.965 4.785,0.3915 4.785,0.3915 C4.785,0.3915 0,16.965 0,20.445 C0,23.055 1.305,25.2735 4.785,25.2735 L4.785,25.2735 L4.785,25.2735 Z" id="r"></path>
                                    </g>
                                </g>
                            </g>
                            <g id="r4-link" transform="translate(130.383643, 130.345911) rotate(67.500000) translate(-130.383643, -130.345911) translate(38.383643, 38.345911)">
                                <g id="r4">
                                    <path d="M91.785,25.2735 C95.265,25.23 96.57,23.055 96.57,20.445 C96.57,16.965 91.785,0.3915 91.785,0.3915 C91.785,0.3915 87,16.965 87,20.445 C87,23.055 88.305,25.2735 91.785,25.2735 L91.785,25.2735 L91.785,25.2735 Z" id="r"></path>
                                    <g id="r-link" transform="translate(170.570000, 92.000000) rotate(90.000000) translate(-170.570000, -92.000000) translate(165.570000, 79.000000)">
                                        <path d="M4.785,25.2735 C8.265,25.23 9.57,23.055 9.57,20.445 C9.57,16.965 4.785,0.3915 4.785,0.3915 C4.785,0.3915 0,16.965 0,20.445 C0,23.055 1.305,25.2735 4.785,25.2735 L4.785,25.2735 L4.785,25.2735 Z" id="r"></path>
                                    </g>
                                    <g id="r-link" transform="translate(91.570000, 170.570000) rotate(180.000000) translate(-91.570000, -170.570000) translate(86.570000, 157.570000)">
                                        <path d="M4.785,25.2735 C8.265,25.23 9.57,23.055 9.57,20.445 C9.57,16.965 4.785,0.3915 4.785,0.3915 C4.785,0.3915 0,16.965 0,20.445 C0,23.055 1.305,25.2735 4.785,25.2735 L4.785,25.2735 L4.785,25.2735 Z" id="r"></path>
                                    </g>
                                    <g id="r-link" transform="translate(13.000000, 91.570000) rotate(270.000000) translate(-13.000000, -91.570000) translate(8.000000, 78.570000)">
                                        <path d="M4.785,25.2735 C8.265,25.23 9.57,23.055 9.57,20.445 C9.57,16.965 4.785,0.3915 4.785,0.3915 C4.785,0.3915 0,16.965 0,20.445 C0,23.055 1.305,25.2735 4.785,25.2735 L4.785,25.2735 L4.785,25.2735 Z" id="r"></path>
                                    </g>
                                </g>
                            </g>
                        </g>
                        <g id="r16-link" transform="translate(153.470136, 153.546642) rotate(11.250000) translate(-153.470136, -153.546642) translate(22.970136, 23.046642)">
                            <g id="r16">
                                <g id="r4" transform="translate(38.715000, 38.280000)">
                                    <path d="M91.785,25.2735 C95.265,25.23 96.57,23.055 96.57,20.445 C96.57,16.965 91.785,0.3915 91.785,0.3915 C91.785,0.3915 87,16.965 87,20.445 C87,23.055 88.305,25.2735 91.785,25.2735 L91.785,25.2735 L91.785,25.2735 Z" id="r"></path>
                                    <g id="r-link" transform="translate(170.570000, 92.000000) rotate(90.000000) translate(-170.570000, -92.000000) translate(165.570000, 79.000000)">
                                        <path d="M4.785,25.2735 C8.265,25.23 9.57,23.055 9.57,20.445 C9.57,16.965 4.785,0.3915 4.785,0.3915 C4.785,0.3915 0,16.965 0,20.445 C0,23.055 1.305,25.2735 4.785,25.2735 L4.785,25.2735 L4.785,25.2735 Z" id="r"></path>
                                    </g>
                                    <g id="r-link" transform="translate(91.570000, 170.570000) rotate(180.000000) translate(-91.570000, -170.570000) translate(86.570000, 157.570000)">
                                        <path d="M4.785,25.2735 C8.265,25.23 9.57,23.055 9.57,20.445 C9.57,16.965 4.785,0.3915 4.785,0.3915 C4.785,0.3915 0,16.965 0,20.445 C0,23.055 1.305,25.2735 4.785,25.2735 L4.785,25.2735 L4.785,25.2735 Z" id="r"></path>
                                    </g>
                                    <g id="r-link" transform="translate(13.000000, 91.570000) rotate(270.000000) translate(-13.000000, -91.570000) translate(8.000000, 78.570000)">
                                        <path d="M4.785,25.2735 C8.265,25.23 9.57,23.055 9.57,20.445 C9.57,16.965 4.785,0.3915 4.785,0.3915 C4.785,0.3915 0,16.965 0,20.445 C0,23.055 1.305,25.2735 4.785,25.2735 L4.785,25.2735 L4.785,25.2735 Z" id="r"></path>
                                    </g>
                                </g>
                                <g id="r4-link" transform="translate(130.616357, 130.345911) rotate(22.500000) translate(-130.616357, -130.345911) translate(38.616357, 38.345911)">
                                    <g id="r4">
                                        <path d="M91.785,25.2735 C95.265,25.23 96.57,23.055 96.57,20.445 C96.57,16.965 91.785,0.3915 91.785,0.3915 C91.785,0.3915 87,16.965 87,20.445 C87,23.055 88.305,25.2735 91.785,25.2735 L91.785,25.2735 L91.785,25.2735 Z" id="r"></path>
                                        <g id="r-link" transform="translate(170.570000, 92.000000) rotate(90.000000) translate(-170.570000, -92.000000) translate(165.570000, 79.000000)">
                                            <path d="M4.785,25.2735 C8.265,25.23 9.57,23.055 9.57,20.445 C9.57,16.965 4.785,0.3915 4.785,0.3915 C4.785,0.3915 0,16.965 0,20.445 C0,23.055 1.305,25.2735 4.785,25.2735 L4.785,25.2735 L4.785,25.2735 Z" id="r"></path>
                                        </g>
                                        <g id="r-link" transform="translate(91.570000, 170.570000) rotate(180.000000) translate(-91.570000, -170.570000) translate(86.570000, 157.570000)">
                                            <path d="M4.785,25.2735 C8.265,25.23 9.57,23.055 9.57,20.445 C9.57,16.965 4.785,0.3915 4.785,0.3915 C4.785,0.3915 0,16.965 0,20.445 C0,23.055 1.305,25.2735 4.785,25.2735 L4.785,25.2735 L4.785,25.2735 Z" id="r"></path>
                                        </g>
                                        <g id="r-link" transform="translate(13.000000, 91.570000) rotate(270.000000) translate(-13.000000, -91.570000) translate(8.000000, 78.570000)">
                                            <path d="M4.785,25.2735 C8.265,25.23 9.57,23.055 9.57,20.445 C9.57,16.965 4.785,0.3915 4.785,0.3915 C4.785,0.3915 0,16.965 0,20.445 C0,23.055 1.305,25.2735 4.785,25.2735 L4.785,25.2735 L4.785,25.2735 Z" id="r"></path>
                                        </g>
                                    </g>
                                </g>
                                <g id="r4-link" transform="translate(130.500000, 130.369056) rotate(45.000000) translate(-130.500000, -130.369056) translate(38.500000, 38.369056)">
                                    <g id="r4">
                                        <path d="M91.785,25.2735 C95.265,25.23 96.57,23.055 96.57,20.445 C96.57,16.965 91.785,0.3915 91.785,0.3915 C91.785,0.3915 87,16.965 87,20.445 C87,23.055 88.305,25.2735 91.785,25.2735 L91.785,25.2735 L91.785,25.2735 Z" id="r"></path>
                                        <g id="r-link" transform="translate(170.570000, 92.000000) rotate(90.000000) translate(-170.570000, -92.000000) translate(165.570000, 79.000000)">
                                            <path d="M4.785,25.2735 C8.265,25.23 9.57,23.055 9.57,20.445 C9.57,16.965 4.785,0.3915 4.785,0.3915 C4.785,0.3915 0,16.965 0,20.445 C0,23.055 1.305,25.2735 4.785,25.2735 L4.785,25.2735 L4.785,25.2735 Z" id="r"></path>
                                        </g>
                                        <g id="r-link" transform="translate(91.570000, 170.570000) rotate(180.000000) translate(-91.570000, -170.570000) translate(86.570000, 157.570000)">
                                            <path d="M4.785,25.2735 C8.265,25.23 9.57,23.055 9.57,20.445 C9.57,16.965 4.785,0.3915 4.785,0.3915 C4.785,0.3915 0,16.965 0,20.445 C0,23.055 1.305,25.2735 4.785,25.2735 L4.785,25.2735 L4.785,25.2735 Z" id="r"></path>
                                        </g>
                                        <g id="r-link" transform="translate(13.000000, 91.570000) rotate(270.000000) translate(-13.000000, -91.570000) translate(8.000000, 78.570000)">
                                            <path d="M4.785,25.2735 C8.265,25.23 9.57,23.055 9.57,20.445 C9.57,16.965 4.785,0.3915 4.785,0.3915 C4.785,0.3915 0,16.965 0,20.445 C0,23.055 1.305,25.2735 4.785,25.2735 L4.785,25.2735 L4.785,25.2735 Z" id="r"></path>
                                        </g>
                                    </g>
                                </g>
                                <g id="r4-link" transform="translate(130.383643, 130.345911) rotate(67.500000) translate(-130.383643, -130.345911) translate(38.383643, 38.345911)">
                                    <g id="r4">
                                        <path d="M91.785,25.2735 C95.265,25.23 96.57,23.055 96.57,20.445 C96.57,16.965 91.785,0.3915 91.785,0.3915 C91.785,0.3915 87,16.965 87,20.445 C87,23.055 88.305,25.2735 91.785,25.2735 L91.785,25.2735 L91.785,25.2735 Z" id="r"></path>
                                        <g id="r-link" transform="translate(170.570000, 92.000000) rotate(90.000000) translate(-170.570000, -92.000000) translate(165.570000, 79.000000)">
                                            <path d="M4.785,25.2735 C8.265,25.23 9.57,23.055 9.57,20.445 C9.57,16.965 4.785,0.3915 4.785,0.3915 C4.785,0.3915 0,16.965 0,20.445 C0,23.055 1.305,25.2735 4.785,25.2735 L4.785,25.2735 L4.785,25.2735 Z" id="r"></path>
                                        </g>
                                        <g id="r-link" transform="translate(91.570000, 170.570000) rotate(180.000000) translate(-91.570000, -170.570000) translate(86.570000, 157.570000)">
                                            <path d="M4.785,25.2735 C8.265,25.23 9.57,23.055 9.57,20.445 C9.57,16.965 4.785,0.3915 4.785,0.3915 C4.785,0.3915 0,16.965 0,20.445 C0,23.055 1.305,25.2735 4.785,25.2735 L4.785,25.2735 L4.785,25.2735 Z" id="r"></path>
                                        </g>
                                        <g id="r-link" transform="translate(13.000000, 91.570000) rotate(270.000000) translate(-13.000000, -91.570000) translate(8.000000, 78.570000)">
                                            <path d="M4.785,25.2735 C8.265,25.23 9.57,23.055 9.57,20.445 C9.57,16.965 4.785,0.3915 4.785,0.3915 C4.785,0.3915 0,16.965 0,20.445 C0,23.055 1.305,25.2735 4.785,25.2735 L4.785,25.2735 L4.785,25.2735 Z" id="r"></path>
                                        </g>
                                    </g>
                                </g>
                            </g>
                        </g>
                    </g>
                    <g id="bird" transform="translate(334.080000, 190.965000)" fill="#FEC50C">
                        <path d="M125.482995,118.522997 C123.916995,118.609997 122.394495,118.812997 120.900995,119.291497 C118.856495,119.566997 116.898995,120.277497 114.868996,120.610997 L114.056996,120.741497 L112.693996,120.871997 C112.780996,121.248997 112.838996,121.625997 112.838996,122.002997 C112.838996,122.394497 112.795496,122.771497 112.693996,123.090497 C112.606996,123.394997 112.331496,123.771997 112.113996,124.003997 C111.823996,124.322997 111.519496,124.598497 111.156996,124.772497 C110.808996,124.946497 110.417496,125.018997 110.025996,125.047997 C109.634496,125.062497 109.228496,125.047997 108.851496,124.902997 C108.459996,124.772497 108.097496,124.525997 107.763996,124.235997 C107.357996,124.337497 106.937496,124.409997 106.545996,124.453497 C106.139996,124.496997 105.762996,124.496997 105.400496,124.453497 C104.994496,124.337497 104.573996,124.206997 104.182496,124.047497 C103.790996,123.887997 103.413996,123.684997 103.051496,123.452997 C101.572496,124.322997 99.9194957,125.149497 99.0204957,126.671997 C98.5129957,127.367997 98.4114957,128.165497 98.2954957,128.991997 C98.2229957,130.006997 98.4839957,131.079997 98.9189957,132.022497 C99.0784957,132.297997 99.2089957,131.021997 99.7019957,130.847997 C100.528496,130.166497 101.557996,129.673497 102.601996,129.397997 C103.486496,128.948497 103.370496,129.426997 103.007996,130.122997 C102.920996,130.485497 102.427996,131.862997 103.094996,131.166997 C106.038496,129.861997 109.300996,129.600997 112.476496,129.354497 C117.087495,128.875997 121.712995,128.774497 126.338495,128.716497 C130.688495,128.774497 135.038495,128.832497 139.388495,128.991997 C141.461995,129.049997 143.549995,129.513997 145.594495,129.165997 C146.087495,129.035497 146.855995,129.006497 147.145995,128.716497 C146.217995,128.179997 145.130495,128.165497 144.100995,128.034997 L135.806995,128.034997 C133.501495,127.802997 131.094495,127.773997 128.919495,126.903997 C128.339495,126.671997 127.802995,126.120997 127.251995,126.715497 C126.425495,127.005497 125.540995,127.208497 124.670995,127.266497 C123.148495,127.382497 121.625995,127.063497 120.219495,126.497997 C121.234495,125.091497 122.452495,123.858997 123.568995,122.553997 C122.669995,122.408997 121.799995,122.220497 120.900995,122.002997 C122.481495,120.915497 123.945995,119.682997 125.482995,118.522997 L125.482995,118.522997 L125.482995,118.522997 Z" id="Shape"></path>
                        <path d="M193.227,133.54935 C190.075338,135.44173 187.669875,132.086749 185.035515,131.080638 C183.154183,132.102366 182.978487,135.521118 181.220304,137.140188 C179.117427,139.533514 176.539704,136.471897 176.731974,134.110456 C174.216587,136.23069 172.94456,141.036526 168.877179,140.394466 C166.949781,138.821898 165.518153,135.522031 164.046069,139.279301 C162.844904,141.115914 159.648219,143.728916 157.992609,140.955486 C157.480005,138.507002 156.252261,135.626736 154.92003,139.516593 C154.005486,142.267837 151.069976,144.292023 148.230165,143.087421 C146.675606,141.816525 149.476397,137.116176 147.497582,137.450691 C144.539669,139.406364 142.820027,144.261921 138.692312,143.873031 C137.089467,142.073915 139.664972,139.025391 137.906832,137.028306 C135.831404,139.692028 133.529427,143.592021 129.939807,143.873031 C128.204853,142.467154 130.008146,138.435096 128.900462,137.838276 C125.217012,140.047249 121.330592,143.983956 116.698712,142.751166 C118.503831,135.846411 126.046862,133.423896 132.390032,132.885366 C143.303747,131.544044 154.785572,134.010407 165.286472,130.071351 C166.983146,129.038922 171.093722,127.574799 169.629816,125.180211 C168.333299,123.28957 173.002328,124.028766 173.451509,121.820358 C173.173544,119.023221 175.594536,119.408196 177.959849,119.163378 C188.563409,118.705932 199.037774,120.938961 209.609579,121.318629 C210.408152,126.469899 204.693644,130.086924 200.093519,128.496129 C197.895942,128.852081 194.600774,123.443604 195.246749,127.378266 C194.803788,129.443298 195.113813,132.170661 193.226913,133.550046 M103.007913,123.002166 C105.462836,125.249071 107.184131,122.579111 109.478538,121.603423 C117.174558,118.956448 123.889218,114.330658 130.509048,109.708783 C134.520183,106.389516 137.997138,102.085408 143.383743,101.008783 C153.891168,97.8319785 165.060663,98.217258 175.608978,95.2854885 C183.640818,84.2882535 197.282853,80.3654235 208.710738,74.0440035 C211.276847,73.2472575 212.268212,71.135289 213.087708,68.8035585 C217.449888,61.9175085 223.392423,55.8157635 230.420283,51.6475935 C233.745467,49.830729 237.712623,48.784206 241.477113,49.6153605 C241.207369,54.0989055 238.635302,58.0726305 235.529793,61.1733105 C238.071063,61.1173651 240.255198,59.512002 242.823438,59.6023515 C243.703574,64.2037815 238.734134,66.6119415 236.090508,69.4768515 C237.563201,69.8194314 243.204063,70.2461055 240.130135,71.72106 C236.212786,74.4396795 231.73942,76.306395 228.123265,79.463625 C231.459454,80.062968 231.839731,80.772192 228.447123,81.978795 C226.61077,83.2236345 223.078788,83.658591 222.737313,86.084064 C225.257659,87.633012 221.576515,89.170998 220.156458,89.674815 C217.441449,90.3070875 214.589328,91.486677 218.196043,93.5494035 C216.831666,95.6106075 213.904638,96.0500445 211.516184,95.846421 C212.240937,98.1824145 213.28994,100.795851 210.258207,101.826366 C203.461767,106.964151 195.485607,110.701236 186.941772,111.556011 C197.614932,112.376682 208.607817,110.395431 217.728027,104.591226 C218.932107,103.167601 225.245697,101.63775 221.714193,100.440499 C220.051623,99.7486755 216.487233,98.980335 216.246243,97.712745 C221.185668,94.665135 227.410083,95.749155 232.724043,93.938772 C232.861634,92.2183035 228.682284,92.6969775 227.123853,92.305173 C223.407779,92.0007817 223.625714,91.0522425 227.208852,90.700806 C231.742422,89.500641 236.877162,89.264088 240.690807,86.308176 C237.585647,84.869805 233.680347,86.1362988 230.367387,84.9616335 C235.983672,82.5039705 242.609157,82.257369 247.648197,78.5653935 C249.943388,76.0115085 244.707684,76.8099075 243.182052,76.871895 C240.071411,77.4133395 238.633692,75.9245085 242.167458,74.6321235 C248.201343,70.1833785 255.840813,67.2932385 260.079018,60.8439285 C261.082911,59.4003375 262.442286,55.0501635 259.240469,56.6150325 C255.029234,58.01508 251.324339,62.7489675 246.526289,61.2847575 C255.980144,53.9576175 264.975944,45.6160575 271.437434,35.4762075 C271.771253,32.5516155 267.180872,32.235066 265.986014,34.5313875 C259.912109,40.3838775 254.415014,47.2921125 246.638519,50.9613375 C254.086154,43.7729625 260.243579,35.2613175 265.615829,26.4395175 C266.767535,23.815554 269.863256,20.6601075 268.183242,17.7469125 C265.47515,15.5052705 262.087587,17.5572264 260.680362,20.2396365 C255.958872,26.4031515 252.373602,33.5976165 246.301872,38.6183865 C251.617137,28.4733165 257.120757,17.6740065 257.254737,5.9729415 C257.238642,3.5638245 256.754792,0.0160515 253.483592,0.4662765 C250.890035,0.9309 251.505908,4.8124485 250.436765,6.7755165 C248.082936,14.7695115 246.978166,23.4268815 242.150015,30.4269015 C243.236253,23.9306115 245.136768,17.1594015 243.677734,10.5996015 C242.99622,7.6678755 238.261984,8.9286795 238.871854,11.8301295 C233.215985,40.4792295 213.992465,65.5352295 188.851204,80.0294295 C177.339365,86.5426845 164.4812,90.7417395 151.399445,92.6452995 C147.880338,93.4160325 144.07448,92.9637108 140.710625,94.1637105 C132.560465,100.413355 127.62626,110.870755 117.306755,114.145435 C112.681835,116.443758 106.650995,116.910121 103.344125,121.20679 C103.057895,121.756282 102.996516,122.392861 103.007478,123.002166" id="Shape"></path>
                        <path d="M133.893,93.93825 C132.370239,96.70224 131.474748,99.87948 129.5169,102.354195 C123.626565,96.99456 115.087515,97.171605 107.615955,96.814905 C101.44896,96.4857971 94.742565,95.916804 89.97105,91.518345 C84.951585,87.406725 80.85432,82.068405 75.24543,78.73239 C70.125915,77.3403465 64.965075,75.598563 60.849105,72.089505 C52.053405,64.919835 47.016105,54.28191 38.421375,46.88865 C36.7827735,45.275757 34.85046,44.025828 33.01476,42.657492 C31.270584,43.0824652 32.0597175,46.8470205 29.925303,44.927931 C28.764114,44.1016485 25.858923,44.021217 25.597401,45.1756069 C28.224975,48.6382069 30.855246,52.5919219 31.219341,57.0206569 C29.427228,57.204401 26.240766,56.6419285 25.352496,57.3094012 C27.7325985,60.8765317 30.783036,64.0401562 34.249116,66.5588062 C32.5866765,66.8261312 29.310561,66.680554 28.673286,67.3504192 C32.113788,70.1545162 35.803371,73.0202092 40.308231,73.7405693 C41.230431,74.9563073 38.960166,77.3032628 40.869294,78.3411293 C41.976717,78.7934858 45.630369,79.5504727 43.113546,80.8097978 C41.3863785,81.9736403 42.0273075,84.6861263 44.2357155,84.6250088 C45.632109,85.3380173 48.7675455,85.5129308 49.0128855,86.7473738 C47.77518,88.0069597 43.9242555,89.5004018 47.201676,90.6801653 C50.263641,92.3784053 53.755821,93.4808693 57.252351,93.6019733 C55.497735,95.0781893 53.335611,95.9164343 51.529491,97.3049978 C59.598741,102.036493 68.543646,105.148048 77.382846,108.144763 C80.9023875,109.320611 84.462036,110.417072 88.110381,111.1072 C77.509866,110.495329 67.264311,107.356978 57.609921,103.061875 C52.606116,100.867213 47.568381,98.7468052 42.440166,96.8565998 C44.688768,95.6865803 47.289546,95.4006113 49.621581,94.3879312 C44.780901,93.4182727 39.492606,93.1001137 35.237436,90.4395232 C35.8898055,89.2755502 38.3619975,89.2206097 39.729246,88.6280962 C42.300705,88.0121362 43.8956325,87.2648497 40.270299,87.0414337 C36.6138195,86.0491117 32.420724,86.4943777 29.198679,84.2888407 C29.4061305,82.9664407 32.7779895,83.4269752 34.151589,82.8562117 C35.8807575,82.5591067 37.803762,82.3103737 39.185844,81.1469227 C33.533454,78.8031427 26.140194,80.4636682 21.712764,75.4719127 C20.691558,73.5704407 24.883218,75.1021366 26.077119,74.7853957 C29.1100695,74.7854088 32.370264,75.7492687 35.258664,74.5263141 C27.022374,70.9104201 18.200139,67.5249891 11.918739,60.8364291 C11.2210425,59.7612831 9.1316505,56.8235976 10.8174495,56.4603291 C15.7064145,57.1071306 19.2451395,62.4428841 24.4747095,61.6124691 C25.169535,60.6760881 21.436887,59.1412776 20.5051605,57.8026521 C12.8804805,51.2598171 5.4798255,44.1593121 0.1362855,35.5889421 C-0.2312547,32.7269901 4.267524,32.2981671 5.4519855,34.5087501 C11.2831605,40.1250351 16.5505755,46.6787451 23.8129005,50.5128351 C26.390145,51.7623291 22.3333785,49.0338351 21.793065,48.0441666 C15.08232,40.2515766 8.69391,32.0213766 4.00374,22.8437466 C3.1642335,21.1895286 1.772886,18.1953366 4.28493705,17.3148966 C6.79584405,16.0569201 9.28787205,17.7706026 10.5611171,19.9277676 C15.4948871,26.1504426 19.1253971,33.5463126 25.2715121,38.7306426 C20.0354171,28.5694776 14.4447971,17.8732626 14.3095121,6.1804626 C14.4322952,3.9137211 14.5780289,0.4854426 17.6517041,0.5785326 C20.2326026,0.1872849 19.8250511,3.4912926 20.6710391,5.0668626 C23.2136141,13.6568076 24.3226901,22.9544976 29.4236741,30.5387226 C28.2968501,24.1664076 26.6387171,17.6039976 27.7404851,11.1259776 C27.9946208,8.9989146 30.3889391,8.3550276 31.9520681,9.6409746 C33.215569,12.7338246 33.479179,16.5526896 34.6305371,19.8595596 C41.1816371,42.2703246 55.8911621,61.9814796 75.0598721,75.2089596 C90.8468921,86.0365446 109.582342,92.4997746 128.704072,93.6272946 C130.430935,93.7778046 132.164758,93.8297784 133.894492,93.9359445" id="Shape"></path>
                        <ellipse id="Oval" cx="109.62" cy="122.620845" rx="1.029645" ry="1.029645"></ellipse>
                        <ellipse id="Oval" stroke="#00AFCA" stroke-width="0.38127393" cx="109.533" cy="122.455545" rx="0.419775" ry="0.419775"></ellipse>
                    </g>
                    <g id="ornament" transform="translate(25.665000, 16.530000)" fill="#FEC50C">
                        <g id="oh">
                            <g id="oq">
                                <path d="M26.535,15.19107 C-25.665,-16.53 22.3542585,11.677923 20.93481,13.4400645 C18.651321,16.2742635 27.95571,30.3911445 27.95571,35.3623245 C27.95571,43.5224895 22.510815,45.7418595 15.787455,46.9067895 C11.27607,47.688963 3.92979,46.5796695 3.92979,46.5796695 C5.312916,44.7210885 6.212583,44.1734235 8.5434,44.024871 C5.948712,42.677763 3.306435,39.753693 3.306435,35.201331 C3.306435,28.181301 6.196314,25.288116 6.196314,17.373726 C6.196314,12.983271 2.5962975,7.394391 2.5962975,7.394391 C8.9594775,8.031231 12.1132275,13.923306 10.3188525,18.632181 C11.3317935,18.7780887 12.2514705,18.5500835 13.0413435,17.801592 C13.5070545,19.1068095 12.7718828,20.621784 11.7870645,21.9270015 C12.5802,22.3508307 13.1627085,22.0966645 14.425818,21.8359038 C14.3060364,23.1807063 13.500225,24.6093768 11.5288485,25.9540923 C17.2495335,24.4688283 20.7695535,28.4560818 20.7695535,32.6300373 C20.7695535,35.7829173 18.560145,38.0427423 16.4004135,38.0427423 C15.7024995,38.0427423 14.677335,37.755303 14.0989155,37.3236003 C13.6912117,38.1913383 13.9012994,39.3527013 14.3212919,40.2205263 C12.7384139,39.8021129 11.7337379,38.8620648 12.4489214,36.9053043 C11.2331834,36.7936181 10.2660479,36.3828258 9.60815385,35.6000868 C10.2747044,34.7464428 11.2858618,34.2547623 12.4489214,34.2948693 C11.5636964,32.4681303 12.5502068,31.4454018 13.9876469,30.6165093 C13.9876469,30.6165093 13.0734944,34.2947823 15.4080959,34.2947823 C16.4578814,34.2947823 17.4144029,33.9530419 17.4144029,32.4059688 C17.4144029,31.0587738 16.2366404,29.1926238 13.5142364,29.3112918 C10.7917454,29.4299467 8.58481635,31.1884038 8.58481635,35.5344018 C8.58481635,39.5434488 11.8183454,41.5374018 16.0794314,41.6661618 C19.9221344,41.7848168 22.8223664,39.7031808 22.8223664,35.7392868 C22.8223664,30.4636068 15.2063864,18.4380318 15.2063864,13.7365518 C15.2063864,10.2091368 18.3784934,8.2403268 21.4821314,8.2403268 C25.5066644,8.2403268 28.9023614,12.2254488 28.9023614,12.2254488 L26.5380494,15.1897998 L26.535,15.19107 L26.535,15.19107 Z" id="Shape"></path>
                                <path d="M27.4137,110.5509 C27.4137,119.36835 19.49757,123.90018 13.27707,123.90018 C4.89636,123.90018 0.43413,118.889415 0.43413,112.33005 C0.43413,108.611887 1.1153835,106.278765 2.829849,102.72003 C2.829849,102.72003 16.654149,73.970445 22.036404,62.850975 C22.707609,61.464108 22.924152,59.8853625 22.924152,57.570945 C22.924152,53.9965065 19.457202,51.07509 15.821907,50.98548 C12.508077,50.9025994 8.897577,54.074937 8.897577,57.6897 C8.897577,62.080155 11.17515,64.037655 13.513797,64.037655 C16.3916265,64.037655 17.53833,62.854542 17.53833,60.8339235 C17.53833,59.4260025 16.858338,58.816785 15.8811975,58.816785 C13.4128335,58.816785 14.105658,62.139141 14.105658,62.139141 C12.8796975,61.870746 11.8725855,60.6181635 12.4485255,59.0540775 C11.551686,58.8543951 10.711614,58.383612 10.0515885,57.630192 C10.713267,56.9886975 11.4722985,56.49345 12.4485255,56.3249745 C11.870454,54.4165425 12.642914,53.4840765 14.312805,53.0916195 C13.9758279,53.8257255 13.9642352,54.501063 14.0760737,55.1384685 C16.7050397,54.3908775 20.7341837,55.580559 20.7341837,60.1218285 C20.7341837,64.6306035 17.6050112,68.4272835 11.7379487,67.4785485 C13.1337332,68.145882 13.8436532,69.5113905 13.9869422,71.0382405 C12.9215837,70.622946 11.7379487,70.563612 11.7379487,70.563612 C12.4239437,71.77326 13.3766807,72.815868 13.3358777,75.191142 C12.2481167,74.696634 11.2380032,73.7809155 9.84404565,74.360553 C12.0318347,78.665661 9.34392615,84.587838 2.50516065,85.988973 C5.00802015,83.0552025 6.23371965,79.887228 6.23371965,76.733478 C6.23371965,66.512718 3.39295215,64.794903 3.39295215,57.689178 C3.39295215,54.7162575 4.92123765,51.505653 7.95001215,49.323693 L7.95001215,49.4423436 C5.94809865,48.9062496 4.66567515,47.9204961 3.92856765,46.5811311 C8.50259265,45.2841351 15.1511327,45.3079296 18.7211777,46.7125098 C22.8249677,47.1877473 25.6894427,50.3364078 26.5333427,51.9342498 C27.3775037,53.5310478 29.0170187,59.3088048 26.5333427,64.5109698 C23.8151582,70.2042498 10.9990577,97.3791348 7.00314765,105.9221 C6.15559365,107.734049 5.64190215,109.655574 5.64190215,111.73631 C5.64190215,116.96936 10.4356022,118.79636 13.1582672,118.79636 C16.4133287,118.79636 19.7276372,116.316512 19.7276372,113.21966 C19.7276372,111.257288 18.6622787,110.075262 17.1235532,110.075262 C13.4440187,110.075262 13.6675217,113.205392 14.4010622,115.177377 C12.1110917,114.147863 10.7799917,112.309988 11.1460007,110.371932 C9.84948315,110.194357 8.61543165,109.579362 7.47664515,108.29546 C8.37265815,107.164025 9.46555215,106.308771 11.1460007,106.278321 C10.4120252,103.271645 12.4251617,102.000009 14.4010622,101.294961 C13.7759672,103.501673 13.3656317,106.041246 17.1235532,106.041246 C19.8634441,106.041246 22.0207832,106.515875 23.2788032,108.295721 C23.3527836,105.922665 23.5747206,96.5485458 23.5747206,96.5485458 C23.732543,93.0260463 18.8597556,93.1267488 15.7625556,94.1754468 C16.9314441,90.1179408 19.3286421,87.9240618 24.8766756,88.4799918 C23.5302201,87.9163623 22.0950246,86.6493378 22.0950246,84.2083788 C22.0958946,80.9054238 24.7755381,77.2462038 26.5346346,76.1643588 L27.4142046,110.551544 L27.4137,110.5509 L27.4137,110.5509 Z" id="op"></path>
                                <g id="op-link" transform="translate(14.000000, 162.809800) scale(1, -1) translate(-14.000000, -162.809800) translate(0.000000, 123.309800)">
                                    <path d="M27.4137,65.3109 C27.4137,74.12835 19.49757,78.66018 13.27707,78.66018 C4.89636,78.66018 0.43413,73.649415 0.43413,67.09005 C0.43413,63.3718875 1.1153835,61.038765 2.829849,57.48003 C2.829849,57.48003 16.654149,28.730445 22.036404,17.610975 C22.707609,16.224108 22.924152,14.6453625 22.924152,12.330945 C22.924152,8.7565065 19.457202,5.83509 15.821907,5.74548 C12.508077,5.66259945 8.897577,8.834937 8.897577,12.4497 C8.897577,16.840155 11.17515,18.797655 13.513797,18.797655 C16.3916265,18.797655 17.53833,17.614542 17.53833,15.5939235 C17.53833,14.1860025 16.858338,13.576785 15.8811975,13.576785 C13.4128335,13.576785 14.105658,16.899141 14.105658,16.899141 C12.8796975,16.630746 11.8725855,15.3781635 12.4485255,13.8140775 C11.551686,13.6143951 10.711614,13.143612 10.0515885,12.390192 C10.713267,11.7486975 11.4722985,11.25345 12.4485255,11.0849745 C11.870454,9.1765425 12.642914,8.2440765 14.312805,7.8516195 C13.9758279,8.5857255 13.9642352,9.261063 14.0760737,9.8984685 C16.7050397,9.1508775 20.7341837,10.340559 20.7341837,14.8818285 C20.7341837,19.3906035 17.6050112,23.1872835 11.7379487,22.2385485 C13.1337332,22.905882 13.8436532,24.2713905 13.9869422,25.7982405 C12.9215837,25.382946 11.7379487,25.323612 11.7379487,25.323612 C12.4239437,26.53326 13.3766807,27.575868 13.3358777,29.951142 C12.2481167,29.456634 11.2380032,28.5409155 9.84404565,29.120553 C12.0318347,33.425661 9.34392615,39.347838 2.50516065,40.748973 C5.00802015,37.8152025 6.23371965,34.647228 6.23371965,31.493478 C6.23371965,21.272718 3.39295215,19.554903 3.39295215,12.449178 C3.39295215,9.4762575 4.92123765,6.265653 7.95001215,4.083693 L7.95001215,4.2023436 C5.94809865,3.6662496 4.66567515,2.6804961 3.92856765,1.3411311 C8.50259265,0.0441351 15.1511327,0.0679296 18.7211777,1.4725098 C22.8249677,1.9477473 25.6894427,5.0964078 26.5333427,6.6942498 C27.3775037,8.2910478 29.0170187,14.0688048 26.5333427,19.2709698 C23.8151582,24.9642498 10.9990577,52.1391348 7.00314765,60.6820998 C6.15559365,62.4940488 5.64190215,64.4155743 5.64190215,66.4963098 C5.64190215,71.7293598 10.4356022,73.5563598 13.1582672,73.5563598 C16.4133287,73.5563598 19.7276372,71.0765118 19.7276372,67.9796598 C19.7276372,66.0172878 18.6622787,64.8352623 17.1235532,64.8352623 C13.4440187,64.8352623 13.6675217,67.9653918 14.4010622,69.9373773 C12.1110917,68.9078628 10.7799917,67.0699878 11.1460007,65.1319323 C9.84948315,64.9543566 8.61543165,64.3393623 7.47664515,63.0554598 C8.37265815,61.9240248 9.46555215,61.0687713 11.1460007,61.0383213 C10.4120252,58.0316448 12.4251617,56.7600093 14.4010622,56.0549613 C13.7759672,58.2616728 13.3656317,60.8012463 17.1235532,60.8012463 C19.8634441,60.8012463 22.0207832,61.2758748 23.2788032,63.0557208 C23.3527836,60.6826653 23.5747206,51.3085458 23.5747206,51.3085458 C23.732543,47.7860463 18.8597556,47.8867488 15.7625556,48.9354468 C16.9314441,44.8779408 19.3286421,42.6840618 24.8766756,43.2399918 C23.5302201,42.6763623 22.0950246,41.4093378 22.0950246,38.9683788 C22.0958946,35.6654238 24.7755381,32.0062038 26.5346346,30.9243588 L27.4142046,65.3115438 L27.4137,65.3109 L27.4137,65.3109 Z" id="op"></path>
                                </g>
                            </g>
                            <g id="oq-link" transform="translate(38.570000, 101.500000) scale(-1, 1) translate(-38.570000, -101.500000) translate(24.070000, 0.000000)">
                                <g id="oq">
                                    <path d="M26.535,15.19107 C-25.665,-16.53 22.3542585,11.677923 20.93481,13.4400645 C18.651321,16.2742635 27.95571,30.3911445 27.95571,35.3623245 C27.95571,43.5224895 22.510815,45.7418595 15.787455,46.9067895 C11.27607,47.688963 3.92979,46.5796695 3.92979,46.5796695 C5.312916,44.7210885 6.212583,44.1734235 8.5434,44.024871 C5.948712,42.677763 3.306435,39.753693 3.306435,35.201331 C3.306435,28.181301 6.196314,25.288116 6.196314,17.373726 C6.196314,12.983271 2.5962975,7.394391 2.5962975,7.394391 C8.9594775,8.031231 12.1132275,13.923306 10.3188525,18.632181 C11.3317935,18.7780887 12.2514705,18.5500835 13.0413435,17.801592 C13.5070545,19.1068095 12.7718828,20.621784 11.7870645,21.9270015 C12.5802,22.3508307 13.1627085,22.0966645 14.425818,21.8359038 C14.3060364,23.1807063 13.500225,24.6093768 11.5288485,25.9540923 C17.2495335,24.4688283 20.7695535,28.4560818 20.7695535,32.6300373 C20.7695535,35.7829173 18.560145,38.0427423 16.4004135,38.0427423 C15.7024995,38.0427423 14.677335,37.755303 14.0989155,37.3236003 C13.6912117,38.1913383 13.9012994,39.3527013 14.3212919,40.2205263 C12.7384139,39.8021129 11.7337379,38.8620648 12.4489214,36.9053043 C11.2331834,36.7936181 10.2660479,36.3828258 9.60815385,35.6000868 C10.2747044,34.7464428 11.2858618,34.2547623 12.4489214,34.2948693 C11.5636964,32.4681303 12.5502068,31.4454018 13.9876469,30.6165093 C13.9876469,30.6165093 13.0734944,34.2947823 15.4080959,34.2947823 C16.4578814,34.2947823 17.4144029,33.9530419 17.4144029,32.4059688 C17.4144029,31.0587738 16.2366404,29.1926238 13.5142364,29.3112918 C10.7917454,29.4299467 8.58481635,31.1884038 8.58481635,35.5344018 C8.58481635,39.5434488 11.8183454,41.5374018 16.0794314,41.6661618 C19.9221344,41.7848168 22.8223664,39.7031808 22.8223664,35.7392868 C22.8223664,30.4636068 15.2063864,18.4380318 15.2063864,13.7365518 C15.2063864,10.2091368 18.3784934,8.2403268 21.4821314,8.2403268 C25.5066644,8.2403268 28.9023614,12.2254488 28.9023614,12.2254488 L26.5380494,15.1897998 L26.535,15.19107 L26.535,15.19107 Z" id="Shape"></path>
                                    <path d="M27.4137,110.5509 C27.4137,119.36835 19.49757,123.90018 13.27707,123.90018 C4.89636,123.90018 0.43413,118.889415 0.43413,112.33005 C0.43413,108.611887 1.1153835,106.278765 2.829849,102.72003 C2.829849,102.72003 16.654149,73.970445 22.036404,62.850975 C22.707609,61.464108 22.924152,59.8853625 22.924152,57.570945 C22.924152,53.9965065 19.457202,51.07509 15.821907,50.98548 C12.508077,50.9025994 8.897577,54.074937 8.897577,57.6897 C8.897577,62.080155 11.17515,64.037655 13.513797,64.037655 C16.3916265,64.037655 17.53833,62.854542 17.53833,60.8339235 C17.53833,59.4260025 16.858338,58.816785 15.8811975,58.816785 C13.4128335,58.816785 14.105658,62.139141 14.105658,62.139141 C12.8796975,61.870746 11.8725855,60.6181635 12.4485255,59.0540775 C11.551686,58.8543951 10.711614,58.383612 10.0515885,57.630192 C10.713267,56.9886975 11.4722985,56.49345 12.4485255,56.3249745 C11.870454,54.4165425 12.642914,53.4840765 14.312805,53.0916195 C13.9758279,53.8257255 13.9642352,54.501063 14.0760737,55.1384685 C16.7050397,54.3908775 20.7341837,55.580559 20.7341837,60.1218285 C20.7341837,64.6306035 17.6050112,68.4272835 11.7379487,67.4785485 C13.1337332,68.145882 13.8436532,69.5113905 13.9869422,71.0382405 C12.9215837,70.622946 11.7379487,70.563612 11.7379487,70.563612 C12.4239437,71.77326 13.3766807,72.815868 13.3358777,75.191142 C12.2481167,74.696634 11.2380032,73.7809155 9.84404565,74.360553 C12.0318347,78.665661 9.34392615,84.587838 2.50516065,85.988973 C5.00802015,83.0552025 6.23371965,79.887228 6.23371965,76.733478 C6.23371965,66.512718 3.39295215,64.794903 3.39295215,57.689178 C3.39295215,54.7162575 4.92123765,51.505653 7.95001215,49.323693 L7.95001215,49.4423436 C5.94809865,48.9062496 4.66567515,47.9204961 3.92856765,46.5811311 C8.50259265,45.2841351 15.1511327,45.3079296 18.7211777,46.7125098 C22.8249677,47.1877473 25.6894427,50.3364078 26.5333427,51.9342498 C27.3775037,53.5310478 29.0170187,59.3088048 26.5333427,64.5109698 C23.8151582,70.2042498 10.9990577,97.3791348 7.00314765,105.9221 C6.15559365,107.734049 5.64190215,109.655574 5.64190215,111.73631 C5.64190215,116.96936 10.4356022,118.79636 13.1582672,118.79636 C16.4133287,118.79636 19.7276372,116.316512 19.7276372,113.21966 C19.7276372,111.257288 18.6622787,110.075262 17.1235532,110.075262 C13.4440187,110.075262 13.6675217,113.205392 14.4010622,115.177377 C12.1110917,114.147863 10.7799917,112.309988 11.1460007,110.371932 C9.84948315,110.194357 8.61543165,109.579362 7.47664515,108.29546 C8.37265815,107.164025 9.46555215,106.308771 11.1460007,106.278321 C10.4120252,103.271645 12.4251617,102.000009 14.4010622,101.294961 C13.7759672,103.501673 13.3656317,106.041246 17.1235532,106.041246 C19.8634441,106.041246 22.0207832,106.515875 23.2788032,108.295721 C23.3527836,105.922665 23.5747206,96.5485458 23.5747206,96.5485458 C23.732543,93.0260463 18.8597556,93.1267488 15.7625556,94.1754468 C16.9314441,90.1179408 19.3286421,87.9240618 24.8766756,88.4799918 C23.5302201,87.9163623 22.0950246,86.6493378 22.0950246,84.2083788 C22.0958946,80.9054238 24.7755381,77.2462038 26.5346346,76.1643588 L27.4142046,110.551544 L27.4137,110.5509 L27.4137,110.5509 Z" id="op"></path>
                                    <g id="op-link" transform="translate(14.000000, 162.809800) scale(1, -1) translate(-14.000000, -162.809800) translate(0.000000, 123.309800)">
                                        <path d="M27.4137,65.3109 C27.4137,74.12835 19.49757,78.66018 13.27707,78.66018 C4.89636,78.66018 0.43413,73.649415 0.43413,67.09005 C0.43413,63.3718875 1.1153835,61.038765 2.829849,57.48003 C2.829849,57.48003 16.654149,28.730445 22.036404,17.610975 C22.707609,16.224108 22.924152,14.6453625 22.924152,12.330945 C22.924152,8.7565065 19.457202,5.83509 15.821907,5.74548 C12.508077,5.66259945 8.897577,8.834937 8.897577,12.4497 C8.897577,16.840155 11.17515,18.797655 13.513797,18.797655 C16.3916265,18.797655 17.53833,17.614542 17.53833,15.5939235 C17.53833,14.1860025 16.858338,13.576785 15.8811975,13.576785 C13.4128335,13.576785 14.105658,16.899141 14.105658,16.899141 C12.8796975,16.630746 11.8725855,15.3781635 12.4485255,13.8140775 C11.551686,13.6143951 10.711614,13.143612 10.0515885,12.390192 C10.713267,11.7486975 11.4722985,11.25345 12.4485255,11.0849745 C11.870454,9.1765425 12.642914,8.2440765 14.312805,7.8516195 C13.9758279,8.5857255 13.9642352,9.261063 14.0760737,9.8984685 C16.7050397,9.1508775 20.7341837,10.340559 20.7341837,14.8818285 C20.7341837,19.3906035 17.6050112,23.1872835 11.7379487,22.2385485 C13.1337332,22.905882 13.8436532,24.2713905 13.9869422,25.7982405 C12.9215837,25.382946 11.7379487,25.323612 11.7379487,25.323612 C12.4239437,26.53326 13.3766807,27.575868 13.3358777,29.951142 C12.2481167,29.456634 11.2380032,28.5409155 9.84404565,29.120553 C12.0318347,33.425661 9.34392615,39.347838 2.50516065,40.748973 C5.00802015,37.8152025 6.23371965,34.647228 6.23371965,31.493478 C6.23371965,21.272718 3.39295215,19.554903 3.39295215,12.449178 C3.39295215,9.4762575 4.92123765,6.265653 7.95001215,4.083693 L7.95001215,4.2023436 C5.94809865,3.6662496 4.66567515,2.6804961 3.92856765,1.3411311 C8.50259265,0.0441351 15.1511327,0.0679296 18.7211777,1.4725098 C22.8249677,1.9477473 25.6894427,5.0964078 26.5333427,6.6942498 C27.3775037,8.2910478 29.0170187,14.0688048 26.5333427,19.2709698 C23.8151582,24.9642498 10.9990577,52.1391348 7.00314765,60.6820998 C6.15559365,62.4940488 5.64190215,64.4155743 5.64190215,66.4963098 C5.64190215,71.7293598 10.4356022,73.5563598 13.1582672,73.5563598 C16.4133287,73.5563598 19.7276372,71.0765118 19.7276372,67.9796598 C19.7276372,66.0172878 18.6622787,64.8352623 17.1235532,64.8352623 C13.4440187,64.8352623 13.6675217,67.9653918 14.4010622,69.9373773 C12.1110917,68.9078628 10.7799917,67.0699878 11.1460007,65.1319323 C9.84948315,64.9543566 8.61543165,64.3393623 7.47664515,63.0554598 C8.37265815,61.9240248 9.46555215,61.0687713 11.1460007,61.0383213 C10.4120252,58.0316448 12.4251617,56.7600093 14.4010622,56.0549613 C13.7759672,58.2616728 13.3656317,60.8012463 17.1235532,60.8012463 C19.8634441,60.8012463 22.0207832,61.2758748 23.2788032,63.0557208 C23.3527836,60.6826653 23.5747206,51.3085458 23.5747206,51.3085458 C23.732543,47.7860463 18.8597556,47.8867488 15.7625556,48.9354468 C16.9314441,44.8779408 19.3286421,42.6840618 24.8766756,43.2399918 C23.5302201,42.6763623 22.0950246,41.4093378 22.0950246,38.9683788 C22.0958946,35.6654238 24.7755381,32.0062038 26.5346346,30.9243588 L27.4142046,65.3115438 L27.4137,65.3109 L27.4137,65.3109 Z" id="op"></path>
                                    </g>
                                </g>
                            </g>
                        </g>
                        <g id="oh-link" transform="translate(27.000000, 300.440000) scale(1, -1) translate(-27.000000, -300.440000) translate(0.000000, 198.940000)">
                            <g id="oh">
                                <g id="oq">
                                    <path d="M26.535,15.19107 C-25.665,-16.53 22.3542585,11.677923 20.93481,13.4400645 C18.651321,16.2742635 27.95571,30.3911445 27.95571,35.3623245 C27.95571,43.5224895 22.510815,45.7418595 15.787455,46.9067895 C11.27607,47.688963 3.92979,46.5796695 3.92979,46.5796695 C5.312916,44.7210885 6.212583,44.1734235 8.5434,44.024871 C5.948712,42.677763 3.306435,39.753693 3.306435,35.201331 C3.306435,28.181301 6.196314,25.288116 6.196314,17.373726 C6.196314,12.983271 2.5962975,7.394391 2.5962975,7.394391 C8.9594775,8.031231 12.1132275,13.923306 10.3188525,18.632181 C11.3317935,18.7780887 12.2514705,18.5500835 13.0413435,17.801592 C13.5070545,19.1068095 12.7718828,20.621784 11.7870645,21.9270015 C12.5802,22.3508307 13.1627085,22.0966645 14.425818,21.8359038 C14.3060364,23.1807063 13.500225,24.6093768 11.5288485,25.9540923 C17.2495335,24.4688283 20.7695535,28.4560818 20.7695535,32.6300373 C20.7695535,35.7829173 18.560145,38.0427423 16.4004135,38.0427423 C15.7024995,38.0427423 14.677335,37.755303 14.0989155,37.3236003 C13.6912117,38.1913383 13.9012994,39.3527013 14.3212919,40.2205263 C12.7384139,39.8021129 11.7337379,38.8620648 12.4489214,36.9053043 C11.2331834,36.7936181 10.2660479,36.3828258 9.60815385,35.6000868 C10.2747044,34.7464428 11.2858618,34.2547623 12.4489214,34.2948693 C11.5636964,32.4681303 12.5502068,31.4454018 13.9876469,30.6165093 C13.9876469,30.6165093 13.0734944,34.2947823 15.4080959,34.2947823 C16.4578814,34.2947823 17.4144029,33.9530419 17.4144029,32.4059688 C17.4144029,31.0587738 16.2366404,29.1926238 13.5142364,29.3112918 C10.7917454,29.4299467 8.58481635,31.1884038 8.58481635,35.5344018 C8.58481635,39.5434488 11.8183454,41.5374018 16.0794314,41.6661618 C19.9221344,41.7848168 22.8223664,39.7031808 22.8223664,35.7392868 C22.8223664,30.4636068 15.2063864,18.4380318 15.2063864,13.7365518 C15.2063864,10.2091368 18.3784934,8.2403268 21.4821314,8.2403268 C25.5066644,8.2403268 28.9023614,12.2254488 28.9023614,12.2254488 L26.5380494,15.1897998 L26.535,15.19107 L26.535,15.19107 Z" id="Shape"></path>
                                    <path d="M27.4137,110.5509 C27.4137,119.36835 19.49757,123.90018 13.27707,123.90018 C4.89636,123.90018 0.43413,118.889415 0.43413,112.33005 C0.43413,108.611887 1.1153835,106.278765 2.829849,102.72003 C2.829849,102.72003 16.654149,73.970445 22.036404,62.850975 C22.707609,61.464108 22.924152,59.8853625 22.924152,57.570945 C22.924152,53.9965065 19.457202,51.07509 15.821907,50.98548 C12.508077,50.9025994 8.897577,54.074937 8.897577,57.6897 C8.897577,62.080155 11.17515,64.037655 13.513797,64.037655 C16.3916265,64.037655 17.53833,62.854542 17.53833,60.8339235 C17.53833,59.4260025 16.858338,58.816785 15.8811975,58.816785 C13.4128335,58.816785 14.105658,62.139141 14.105658,62.139141 C12.8796975,61.870746 11.8725855,60.6181635 12.4485255,59.0540775 C11.551686,58.8543951 10.711614,58.383612 10.0515885,57.630192 C10.713267,56.9886975 11.4722985,56.49345 12.4485255,56.3249745 C11.870454,54.4165425 12.642914,53.4840765 14.312805,53.0916195 C13.9758279,53.8257255 13.9642352,54.501063 14.0760737,55.1384685 C16.7050397,54.3908775 20.7341837,55.580559 20.7341837,60.1218285 C20.7341837,64.6306035 17.6050112,68.4272835 11.7379487,67.4785485 C13.1337332,68.145882 13.8436532,69.5113905 13.9869422,71.0382405 C12.9215837,70.622946 11.7379487,70.563612 11.7379487,70.563612 C12.4239437,71.77326 13.3766807,72.815868 13.3358777,75.191142 C12.2481167,74.696634 11.2380032,73.7809155 9.84404565,74.360553 C12.0318347,78.665661 9.34392615,84.587838 2.50516065,85.988973 C5.00802015,83.0552025 6.23371965,79.887228 6.23371965,76.733478 C6.23371965,66.512718 3.39295215,64.794903 3.39295215,57.689178 C3.39295215,54.7162575 4.92123765,51.505653 7.95001215,49.323693 L7.95001215,49.4423436 C5.94809865,48.9062496 4.66567515,47.9204961 3.92856765,46.5811311 C8.50259265,45.2841351 15.1511327,45.3079296 18.7211777,46.7125098 C22.8249677,47.1877473 25.6894427,50.3364078 26.5333427,51.9342498 C27.3775037,53.5310478 29.0170187,59.3088048 26.5333427,64.5109698 C23.8151582,70.2042498 10.9990577,97.3791348 7.00314765,105.9221 C6.15559365,107.734049 5.64190215,109.655574 5.64190215,111.73631 C5.64190215,116.96936 10.4356022,118.79636 13.1582672,118.79636 C16.4133287,118.79636 19.7276372,116.316512 19.7276372,113.21966 C19.7276372,111.257288 18.6622787,110.075262 17.1235532,110.075262 C13.4440187,110.075262 13.6675217,113.205392 14.4010622,115.177377 C12.1110917,114.147863 10.7799917,112.309988 11.1460007,110.371932 C9.84948315,110.194357 8.61543165,109.579362 7.47664515,108.29546 C8.37265815,107.164025 9.46555215,106.308771 11.1460007,106.278321 C10.4120252,103.271645 12.4251617,102.000009 14.4010622,101.294961 C13.7759672,103.501673 13.3656317,106.041246 17.1235532,106.041246 C19.8634441,106.041246 22.0207832,106.515875 23.2788032,108.295721 C23.3527836,105.922665 23.5747206,96.5485458 23.5747206,96.5485458 C23.732543,93.0260463 18.8597556,93.1267488 15.7625556,94.1754468 C16.9314441,90.1179408 19.3286421,87.9240618 24.8766756,88.4799918 C23.5302201,87.9163623 22.0950246,86.6493378 22.0950246,84.2083788 C22.0958946,80.9054238 24.7755381,77.2462038 26.5346346,76.1643588 L27.4142046,110.551544 L27.4137,110.5509 L27.4137,110.5509 Z" id="op"></path>
                                    <g id="op-link" transform="translate(14.000000, 162.809800) scale(1, -1) translate(-14.000000, -162.809800) translate(0.000000, 123.309800)">
                                        <path d="M27.4137,65.3109 C27.4137,74.12835 19.49757,78.66018 13.27707,78.66018 C4.89636,78.66018 0.43413,73.649415 0.43413,67.09005 C0.43413,63.3718875 1.1153835,61.038765 2.829849,57.48003 C2.829849,57.48003 16.654149,28.730445 22.036404,17.610975 C22.707609,16.224108 22.924152,14.6453625 22.924152,12.330945 C22.924152,8.7565065 19.457202,5.83509 15.821907,5.74548 C12.508077,5.66259945 8.897577,8.834937 8.897577,12.4497 C8.897577,16.840155 11.17515,18.797655 13.513797,18.797655 C16.3916265,18.797655 17.53833,17.614542 17.53833,15.5939235 C17.53833,14.1860025 16.858338,13.576785 15.8811975,13.576785 C13.4128335,13.576785 14.105658,16.899141 14.105658,16.899141 C12.8796975,16.630746 11.8725855,15.3781635 12.4485255,13.8140775 C11.551686,13.6143951 10.711614,13.143612 10.0515885,12.390192 C10.713267,11.7486975 11.4722985,11.25345 12.4485255,11.0849745 C11.870454,9.1765425 12.642914,8.2440765 14.312805,7.8516195 C13.9758279,8.5857255 13.9642352,9.261063 14.0760737,9.8984685 C16.7050397,9.1508775 20.7341837,10.340559 20.7341837,14.8818285 C20.7341837,19.3906035 17.6050112,23.1872835 11.7379487,22.2385485 C13.1337332,22.905882 13.8436532,24.2713905 13.9869422,25.7982405 C12.9215837,25.382946 11.7379487,25.323612 11.7379487,25.323612 C12.4239437,26.53326 13.3766807,27.575868 13.3358777,29.951142 C12.2481167,29.456634 11.2380032,28.5409155 9.84404565,29.120553 C12.0318347,33.425661 9.34392615,39.347838 2.50516065,40.748973 C5.00802015,37.8152025 6.23371965,34.647228 6.23371965,31.493478 C6.23371965,21.272718 3.39295215,19.554903 3.39295215,12.449178 C3.39295215,9.4762575 4.92123765,6.265653 7.95001215,4.083693 L7.95001215,4.2023436 C5.94809865,3.6662496 4.66567515,2.6804961 3.92856765,1.3411311 C8.50259265,0.0441351 15.1511327,0.0679296 18.7211777,1.4725098 C22.8249677,1.9477473 25.6894427,5.0964078 26.5333427,6.6942498 C27.3775037,8.2910478 29.0170187,14.0688048 26.5333427,19.2709698 C23.8151582,24.9642498 10.9990577,52.1391348 7.00314765,60.6820998 C6.15559365,62.4940488 5.64190215,64.4155743 5.64190215,66.4963098 C5.64190215,71.7293598 10.4356022,73.5563598 13.1582672,73.5563598 C16.4133287,73.5563598 19.7276372,71.0765118 19.7276372,67.9796598 C19.7276372,66.0172878 18.6622787,64.8352623 17.1235532,64.8352623 C13.4440187,64.8352623 13.6675217,67.9653918 14.4010622,69.9373773 C12.1110917,68.9078628 10.7799917,67.0699878 11.1460007,65.1319323 C9.84948315,64.9543566 8.61543165,64.3393623 7.47664515,63.0554598 C8.37265815,61.9240248 9.46555215,61.0687713 11.1460007,61.0383213 C10.4120252,58.0316448 12.4251617,56.7600093 14.4010622,56.0549613 C13.7759672,58.2616728 13.3656317,60.8012463 17.1235532,60.8012463 C19.8634441,60.8012463 22.0207832,61.2758748 23.2788032,63.0557208 C23.3527836,60.6826653 23.5747206,51.3085458 23.5747206,51.3085458 C23.732543,47.7860463 18.8597556,47.8867488 15.7625556,48.9354468 C16.9314441,44.8779408 19.3286421,42.6840618 24.8766756,43.2399918 C23.5302201,42.6763623 22.0950246,41.4093378 22.0950246,38.9683788 C22.0958946,35.6654238 24.7755381,32.0062038 26.5346346,30.9243588 L27.4142046,65.3115438 L27.4137,65.3109 L27.4137,65.3109 Z" id="op"></path>
                                    </g>
                                </g>
                                <g id="oq-link" transform="translate(38.570000, 101.500000) scale(-1, 1) translate(-38.570000, -101.500000) translate(24.070000, 0.000000)">
                                    <g id="oq">
                                        <path d="M26.535,15.19107 C-25.665,-16.53 22.3542585,11.677923 20.93481,13.4400645 C18.651321,16.2742635 27.95571,30.3911445 27.95571,35.3623245 C27.95571,43.5224895 22.510815,45.7418595 15.787455,46.9067895 C11.27607,47.688963 3.92979,46.5796695 3.92979,46.5796695 C5.312916,44.7210885 6.212583,44.1734235 8.5434,44.024871 C5.948712,42.677763 3.306435,39.753693 3.306435,35.201331 C3.306435,28.181301 6.196314,25.288116 6.196314,17.373726 C6.196314,12.983271 2.5962975,7.394391 2.5962975,7.394391 C8.9594775,8.031231 12.1132275,13.923306 10.3188525,18.632181 C11.3317935,18.7780887 12.2514705,18.5500835 13.0413435,17.801592 C13.5070545,19.1068095 12.7718828,20.621784 11.7870645,21.9270015 C12.5802,22.3508307 13.1627085,22.0966645 14.425818,21.8359038 C14.3060364,23.1807063 13.500225,24.6093768 11.5288485,25.9540923 C17.2495335,24.4688283 20.7695535,28.4560818 20.7695535,32.6300373 C20.7695535,35.7829173 18.560145,38.0427423 16.4004135,38.0427423 C15.7024995,38.0427423 14.677335,37.755303 14.0989155,37.3236003 C13.6912117,38.1913383 13.9012994,39.3527013 14.3212919,40.2205263 C12.7384139,39.8021129 11.7337379,38.8620648 12.4489214,36.9053043 C11.2331834,36.7936181 10.2660479,36.3828258 9.60815385,35.6000868 C10.2747044,34.7464428 11.2858618,34.2547623 12.4489214,34.2948693 C11.5636964,32.4681303 12.5502068,31.4454018 13.9876469,30.6165093 C13.9876469,30.6165093 13.0734944,34.2947823 15.4080959,34.2947823 C16.4578814,34.2947823 17.4144029,33.9530419 17.4144029,32.4059688 C17.4144029,31.0587738 16.2366404,29.1926238 13.5142364,29.3112918 C10.7917454,29.4299467 8.58481635,31.1884038 8.58481635,35.5344018 C8.58481635,39.5434488 11.8183454,41.5374018 16.0794314,41.6661618 C19.9221344,41.7848168 22.8223664,39.7031808 22.8223664,35.7392868 C22.8223664,30.4636068 15.2063864,18.4380318 15.2063864,13.7365518 C15.2063864,10.2091368 18.3784934,8.2403268 21.4821314,8.2403268 C25.5066644,8.2403268 28.9023614,12.2254488 28.9023614,12.2254488 L26.5380494,15.1897998 L26.535,15.19107 L26.535,15.19107 Z" id="Shape"></path>
                                        <path d="M27.4137,110.5509 C27.4137,119.36835 19.49757,123.90018 13.27707,123.90018 C4.89636,123.90018 0.43413,118.889415 0.43413,112.33005 C0.43413,108.611887 1.1153835,106.278765 2.829849,102.72003 C2.829849,102.72003 16.654149,73.970445 22.036404,62.850975 C22.707609,61.464108 22.924152,59.8853625 22.924152,57.570945 C22.924152,53.9965065 19.457202,51.07509 15.821907,50.98548 C12.508077,50.9025994 8.897577,54.074937 8.897577,57.6897 C8.897577,62.080155 11.17515,64.037655 13.513797,64.037655 C16.3916265,64.037655 17.53833,62.854542 17.53833,60.8339235 C17.53833,59.4260025 16.858338,58.816785 15.8811975,58.816785 C13.4128335,58.816785 14.105658,62.139141 14.105658,62.139141 C12.8796975,61.870746 11.8725855,60.6181635 12.4485255,59.0540775 C11.551686,58.8543951 10.711614,58.383612 10.0515885,57.630192 C10.713267,56.9886975 11.4722985,56.49345 12.4485255,56.3249745 C11.870454,54.4165425 12.642914,53.4840765 14.312805,53.0916195 C13.9758279,53.8257255 13.9642352,54.501063 14.0760737,55.1384685 C16.7050397,54.3908775 20.7341837,55.580559 20.7341837,60.1218285 C20.7341837,64.6306035 17.6050112,68.4272835 11.7379487,67.4785485 C13.1337332,68.145882 13.8436532,69.5113905 13.9869422,71.0382405 C12.9215837,70.622946 11.7379487,70.563612 11.7379487,70.563612 C12.4239437,71.77326 13.3766807,72.815868 13.3358777,75.191142 C12.2481167,74.696634 11.2380032,73.7809155 9.84404565,74.360553 C12.0318347,78.665661 9.34392615,84.587838 2.50516065,85.988973 C5.00802015,83.0552025 6.23371965,79.887228 6.23371965,76.733478 C6.23371965,66.512718 3.39295215,64.794903 3.39295215,57.689178 C3.39295215,54.7162575 4.92123765,51.505653 7.95001215,49.323693 L7.95001215,49.4423436 C5.94809865,48.9062496 4.66567515,47.9204961 3.92856765,46.5811311 C8.50259265,45.2841351 15.1511327,45.3079296 18.7211777,46.7125098 C22.8249677,47.1877473 25.6894427,50.3364078 26.5333427,51.9342498 C27.3775037,53.5310478 29.0170187,59.3088048 26.5333427,64.5109698 C23.8151582,70.2042498 10.9990577,97.3791348 7.00314765,105.9221 C6.15559365,107.734049 5.64190215,109.655574 5.64190215,111.73631 C5.64190215,116.96936 10.4356022,118.79636 13.1582672,118.79636 C16.4133287,118.79636 19.7276372,116.316512 19.7276372,113.21966 C19.7276372,111.257288 18.6622787,110.075262 17.1235532,110.075262 C13.4440187,110.075262 13.6675217,113.205392 14.4010622,115.177377 C12.1110917,114.147863 10.7799917,112.309988 11.1460007,110.371932 C9.84948315,110.194357 8.61543165,109.579362 7.47664515,108.29546 C8.37265815,107.164025 9.46555215,106.308771 11.1460007,106.278321 C10.4120252,103.271645 12.4251617,102.000009 14.4010622,101.294961 C13.7759672,103.501673 13.3656317,106.041246 17.1235532,106.041246 C19.8634441,106.041246 22.0207832,106.515875 23.2788032,108.295721 C23.3527836,105.922665 23.5747206,96.5485458 23.5747206,96.5485458 C23.732543,93.0260463 18.8597556,93.1267488 15.7625556,94.1754468 C16.9314441,90.1179408 19.3286421,87.9240618 24.8766756,88.4799918 C23.5302201,87.9163623 22.0950246,86.6493378 22.0950246,84.2083788 C22.0958946,80.9054238 24.7755381,77.2462038 26.5346346,76.1643588 L27.4142046,110.551544 L27.4137,110.5509 L27.4137,110.5509 Z" id="op"></path>
                                        <g id="op-link" transform="translate(14.000000, 162.809800) scale(1, -1) translate(-14.000000, -162.809800) translate(0.000000, 123.309800)">
                                            <path d="M27.4137,65.3109 C27.4137,74.12835 19.49757,78.66018 13.27707,78.66018 C4.89636,78.66018 0.43413,73.649415 0.43413,67.09005 C0.43413,63.3718875 1.1153835,61.038765 2.829849,57.48003 C2.829849,57.48003 16.654149,28.730445 22.036404,17.610975 C22.707609,16.224108 22.924152,14.6453625 22.924152,12.330945 C22.924152,8.7565065 19.457202,5.83509 15.821907,5.74548 C12.508077,5.66259945 8.897577,8.834937 8.897577,12.4497 C8.897577,16.840155 11.17515,18.797655 13.513797,18.797655 C16.3916265,18.797655 17.53833,17.614542 17.53833,15.5939235 C17.53833,14.1860025 16.858338,13.576785 15.8811975,13.576785 C13.4128335,13.576785 14.105658,16.899141 14.105658,16.899141 C12.8796975,16.630746 11.8725855,15.3781635 12.4485255,13.8140775 C11.551686,13.6143951 10.711614,13.143612 10.0515885,12.390192 C10.713267,11.7486975 11.4722985,11.25345 12.4485255,11.0849745 C11.870454,9.1765425 12.642914,8.2440765 14.312805,7.8516195 C13.9758279,8.5857255 13.9642352,9.261063 14.0760737,9.8984685 C16.7050397,9.1508775 20.7341837,10.340559 20.7341837,14.8818285 C20.7341837,19.3906035 17.6050112,23.1872835 11.7379487,22.2385485 C13.1337332,22.905882 13.8436532,24.2713905 13.9869422,25.7982405 C12.9215837,25.382946 11.7379487,25.323612 11.7379487,25.323612 C12.4239437,26.53326 13.3766807,27.575868 13.3358777,29.951142 C12.2481167,29.456634 11.2380032,28.5409155 9.84404565,29.120553 C12.0318347,33.425661 9.34392615,39.347838 2.50516065,40.748973 C5.00802015,37.8152025 6.23371965,34.647228 6.23371965,31.493478 C6.23371965,21.272718 3.39295215,19.554903 3.39295215,12.449178 C3.39295215,9.4762575 4.92123765,6.265653 7.95001215,4.083693 L7.95001215,4.2023436 C5.94809865,3.6662496 4.66567515,2.6804961 3.92856765,1.3411311 C8.50259265,0.0441351 15.1511327,0.0679296 18.7211777,1.4725098 C22.8249677,1.9477473 25.6894427,5.0964078 26.5333427,6.6942498 C27.3775037,8.2910478 29.0170187,14.0688048 26.5333427,19.2709698 C23.8151582,24.9642498 10.9990577,52.1391348 7.00314765,60.6820998 C6.15559365,62.4940488 5.64190215,64.4155743 5.64190215,66.4963098 C5.64190215,71.7293598 10.4356022,73.5563598 13.1582672,73.5563598 C16.4133287,73.5563598 19.7276372,71.0765118 19.7276372,67.9796598 C19.7276372,66.0172878 18.6622787,64.8352623 17.1235532,64.8352623 C13.4440187,64.8352623 13.6675217,67.9653918 14.4010622,69.9373773 C12.1110917,68.9078628 10.7799917,67.0699878 11.1460007,65.1319323 C9.84948315,64.9543566 8.61543165,64.3393623 7.47664515,63.0554598 C8.37265815,61.9240248 9.46555215,61.0687713 11.1460007,61.0383213 C10.4120252,58.0316448 12.4251617,56.7600093 14.4010622,56.0549613 C13.7759672,58.2616728 13.3656317,60.8012463 17.1235532,60.8012463 C19.8634441,60.8012463 22.0207832,61.2758748 23.2788032,63.0557208 C23.3527836,60.6826653 23.5747206,51.3085458 23.5747206,51.3085458 C23.732543,47.7860463 18.8597556,47.8867488 15.7625556,48.9354468 C16.9314441,44.8779408 19.3286421,42.6840618 24.8766756,43.2399918 C23.5302201,42.6763623 22.0950246,41.4093378 22.0950246,38.9683788 C22.0958946,35.6654238 24.7755381,32.0062038 26.5346346,30.9243588 L27.4142046,65.3115438 L27.4137,65.3109 L27.4137,65.3109 Z" id="op"></path>
                                        </g>
                                    </g>
                                </g>
                            </g>
                        </g>
                    </g>
                </g>
            </g>
            <rect id="Rectangle-2" stroke="#FFFFFF" stroke-width="3" x="0" y="0" width="870" height="435"></rect>
        </g>
    </g>
</svg>