<?xml version="1.0" encoding="UTF-8" standalone="no"?>
<svg width="876px" height="528px" viewBox="0 0 876 528" version="1.1" xmlns="http://www.w3.org/2000/svg" xmlns:xlink="http://www.w3.org/1999/xlink">
    <!-- Generator: Sketch 3.6 (26304) - http://www.bohemiancoding.com/sketch -->
    <title>li</title>
    <desc>Created with Sketch.</desc>
    <defs></defs>
    <g id="Page-1" stroke="none" stroke-width="1" fill="none" fill-rule="evenodd">
        <g id="li" transform="translate(3.000000, 3.000000)">
            <path d="M0,0 L870,0 L870,261 L0,261 L0,0 Z" id="Shape" fill="#002B7F"></path>
            <path d="M0,261 L870,261 L870,522 L0,522 L0,261 Z" id="Shape" fill="#CE1126"></path>
            <g id="Group" transform="translate(105.631250, 46.110000)">
                <g id="a" transform="translate(2.729828, 40.020000)">
                    <path d="M85.8776474,20.2623 L84.205173,74.6373 L26.4966169,74.6373 C19.3963352,61.4394 13.5326655,50.23119 13.5326655,35.05404 C13.5326655,22.35204 23.9815357,12.26439 39.0410848,12.26439 C54.9832782,12.26439 72.4996721,17.40087 85.8758275,20.26143 L85.8776474,20.2623 Z" id="Shape" fill="#FFD83D"></path>
                    <g id="Group" transform="translate(16.378966, 13.920000)" stroke="#000000" stroke-width="1.2">
                        <path d="M4.05470397,8.8392 L4.05470397,40.22532 M8.68995129,5.6376 L8.68995129,47.42631 M13.3242887,3.43824 L13.3242887,53.22399 M17.958626,2.4099 L17.958626,41.45724 M22.5938733,2.21676 L22.5938733,41.65125 M27.2282107,0.83955 L27.2282107,41.6295 M31.863458,0.83955 L31.863458,41.6295 M36.4977954,1.23888 L36.4977954,42.02883 M41.1330427,1.63908 L41.1330427,42.42903 M45.7673801,4.2369 L45.7673801,45.02772 M50.4017175,4.6371 L50.4017175,50.6253 M55.0369648,4.6371 L55.0369648,45.42792 M59.6713021,4.6371 L59.6713021,45.42792" id="Shape" fill="#FFD83D"></path>
                        <path d="M33.1173589,2.54301 C42.9119804,4.08726 64.4257519,13.7112 61.9716369,26.73162 C58.4956564,45.18432 47.2232882,37.77888 32.2802117,35.12712 L20.9905546,38.72631 C16.9504097,42.66915 11.0012053,46.28052 6.98198913,41.5251 L0.291181614,41.5251 L0.291181614,66.51324 L74.307728,66.51324 L74.307728,6.1422 L33.1173589,2.54301 Z" id="Shape" fill="#000000"></path>
                    </g>
                    <ellipse id="Oval" stroke="#000000" stroke-width="1.6" fill="#FFD83D" cx="82.636432" cy="12.16521" rx="4.49511616" ry="4.2978"></ellipse>
                    <ellipse id="Oval" stroke="#000000" stroke-width="1.6" fill="#FFD83D" cx="72.5342499" cy="9.84057" rx="4.49511616" ry="4.2978"></ellipse>
                    <ellipse id="Oval" stroke="#000000" stroke-width="1.6" fill="#FFD83D" cx="62.2855671" cy="7.37934" rx="4.49511616" ry="4.2978"></ellipse>
                    <ellipse id="Oval" stroke="#000000" stroke-width="1.6" fill="#FFD83D" cx="51.9968467" cy="5.73852" rx="4.49511616" ry="4.2978"></ellipse>
                    <ellipse id="Oval" stroke="#000000" stroke-width="1.6" fill="#FFD83D" cx="41.7081264" cy="4.76847" rx="4.49511616" ry="4.2978"></ellipse>
                    <ellipse id="Oval" stroke="#000000" stroke-width="1.6" fill="#FFD83D" cx="31.6195934" cy="5.31831" rx="4.49511616" ry="4.2978"></ellipse>
                    <ellipse id="Oval" stroke="#000000" stroke-width="1.6" fill="#FFD83D" cx="22.0015007" cy="8.46684" rx="4.49511616" ry="4.2978"></ellipse>
                    <ellipse id="Oval" stroke="#000000" stroke-width="1.6" fill="#FFD83D" cx="13.9002823" cy="14.1636" rx="4.49511616" ry="4.2978"></ellipse>
                    <ellipse id="Oval" stroke="#000000" stroke-width="1.6" fill="#FFD83D" cx="8.15035536" cy="22.11018" rx="4.49511616" ry="4.2978"></ellipse>
                    <ellipse id="Oval" stroke="#000000" stroke-width="1.6" fill="#FFD83D" cx="5.37958031" cy="31.45572" rx="4.49511616" ry="4.2978"></ellipse>
                    <ellipse id="Oval" stroke="#000000" stroke-width="1.6" fill="#FFD83D" cx="5.48422371" cy="41.15187" rx="4.49511616" ry="4.2978"></ellipse>
                    <ellipse id="Oval" stroke="#000000" stroke-width="1.6" fill="#FFD83D" cx="7.41785161" cy="50.64705" rx="4.49511616" ry="4.2978"></ellipse>
                    <path d="M84.6228366,17.8611 L84.2042631,23.45955 C73.0210692,21.82134 57.1662303,15.86271 42.3878535,15.86271 C28.7332557,15.86271 18.1342449,21.08532 18.1342449,34.25451 C18.1342449,47.23491 23.881442,59.03646 31.5140401,71.03811 L23.5702417,74.63643 C16.4690501,61.43853 10.6053803,50.23032 10.6053803,35.05317 C10.6053803,22.35117 21.0551605,9.86493 39.0410848,9.86493 C54.9832782,9.86493 71.2439514,15.00141 84.6219267,17.86023 L84.6228366,17.8611 Z" id="Shape" stroke="#000000" stroke-width="1.6" fill="#FFD83D"></path>
                </g>
                <g id="a-link" transform="translate(138.661920, 80.520000) scale(-1, 1) translate(-138.661920, -80.520000) translate(92.661920, 40.020000)">
                    <g id="a" transform="translate(0.000000, 0.000000)">
                        <path d="M85.8776474,20.2623 L84.205173,74.6373 L26.4966169,74.6373 C19.3963352,61.4394 13.5326655,50.23119 13.5326655,35.05404 C13.5326655,22.35204 23.9815357,12.26439 39.0410848,12.26439 C54.9832782,12.26439 72.4996721,17.40087 85.8758275,20.26143 L85.8776474,20.2623 Z" id="Shape" fill="#FFD83D"></path>
                        <g id="Group" transform="translate(16.378966, 13.920000)" stroke="#000000" stroke-width="1.2">
                            <path d="M4.05470397,8.8392 L4.05470397,40.22532 M8.68995129,5.6376 L8.68995129,47.42631 M13.3242887,3.43824 L13.3242887,53.22399 M17.958626,2.4099 L17.958626,41.45724 M22.5938733,2.21676 L22.5938733,41.65125 M27.2282107,0.83955 L27.2282107,41.6295 M31.863458,0.83955 L31.863458,41.6295 M36.4977954,1.23888 L36.4977954,42.02883 M41.1330427,1.63908 L41.1330427,42.42903 M45.7673801,4.2369 L45.7673801,45.02772 M50.4017175,4.6371 L50.4017175,50.6253 M55.0369648,4.6371 L55.0369648,45.42792 M59.6713021,4.6371 L59.6713021,45.42792" id="Shape" fill="#FFD83D"></path>
                            <path d="M33.1173589,2.54301 C42.9119804,4.08726 64.4257519,13.7112 61.9716369,26.73162 C58.4956564,45.18432 47.2232882,37.77888 32.2802117,35.12712 L20.9905546,38.72631 C16.9504097,42.66915 11.0012053,46.28052 6.98198913,41.5251 L0.291181614,41.5251 L0.291181614,66.51324 L74.307728,66.51324 L74.307728,6.1422 L33.1173589,2.54301 Z" id="Shape" fill="#000000"></path>
                        </g>
                        <ellipse id="Oval" stroke="#000000" stroke-width="1.6" fill="#FFD83D" cx="82.636432" cy="12.16521" rx="4.49511616" ry="4.2978"></ellipse>
                        <ellipse id="Oval" stroke="#000000" stroke-width="1.6" fill="#FFD83D" cx="72.5342499" cy="9.84057" rx="4.49511616" ry="4.2978"></ellipse>
                        <ellipse id="Oval" stroke="#000000" stroke-width="1.6" fill="#FFD83D" cx="62.2855671" cy="7.37934" rx="4.49511616" ry="4.2978"></ellipse>
                        <ellipse id="Oval" stroke="#000000" stroke-width="1.6" fill="#FFD83D" cx="51.9968467" cy="5.73852" rx="4.49511616" ry="4.2978"></ellipse>
                        <ellipse id="Oval" stroke="#000000" stroke-width="1.6" fill="#FFD83D" cx="41.7081264" cy="4.76847" rx="4.49511616" ry="4.2978"></ellipse>
                        <ellipse id="Oval" stroke="#000000" stroke-width="1.6" fill="#FFD83D" cx="31.6195934" cy="5.31831" rx="4.49511616" ry="4.2978"></ellipse>
                        <ellipse id="Oval" stroke="#000000" stroke-width="1.6" fill="#FFD83D" cx="22.0015007" cy="8.46684" rx="4.49511616" ry="4.2978"></ellipse>
                        <ellipse id="Oval" stroke="#000000" stroke-width="1.6" fill="#FFD83D" cx="13.9002823" cy="14.1636" rx="4.49511616" ry="4.2978"></ellipse>
                        <ellipse id="Oval" stroke="#000000" stroke-width="1.6" fill="#FFD83D" cx="8.15035536" cy="22.11018" rx="4.49511616" ry="4.2978"></ellipse>
                        <ellipse id="Oval" stroke="#000000" stroke-width="1.6" fill="#FFD83D" cx="5.37958031" cy="31.45572" rx="4.49511616" ry="4.2978"></ellipse>
                        <ellipse id="Oval" stroke="#000000" stroke-width="1.6" fill="#FFD83D" cx="5.48422371" cy="41.15187" rx="4.49511616" ry="4.2978"></ellipse>
                        <ellipse id="Oval" stroke="#000000" stroke-width="1.6" fill="#FFD83D" cx="7.41785161" cy="50.64705" rx="4.49511616" ry="4.2978"></ellipse>
                        <path d="M84.6228366,17.8611 L84.2042631,23.45955 C73.0210692,21.82134 57.1662303,15.86271 42.3878535,15.86271 C28.7332557,15.86271 18.1342449,21.08532 18.1342449,34.25451 C18.1342449,47.23491 23.881442,59.03646 31.5140401,71.03811 L23.5702417,74.63643 C16.4690501,61.43853 10.6053803,50.23032 10.6053803,35.05317 C10.6053803,22.35117 21.0551605,9.86493 39.0410848,9.86493 C54.9832782,9.86493 71.2439514,15.00141 84.6219267,17.86023 L84.6228366,17.8611 Z" id="Shape" stroke="#000000" stroke-width="1.6" fill="#FFD83D"></path>
                    </g>
                </g>
                <path d="M93.6967837,0.10875 L89.00421,8.50947 L93.6958737,16.88409 L98.3866275,8.51034 L93.6949638,0.11049 L93.6967837,0.10875 Z M93.6967837,21.315 L89.00421,29.68875 L93.6958737,38.08947 L98.3866275,29.68962 L93.6949638,21.31587 L93.6967837,21.315 Z M76.9693099,19.09911 L84.3689627,23.58483 L91.743137,19.09824 L84.3680527,14.61252 L76.96749,19.09824 L76.9693099,19.09911 Z M95.6467905,19.09911 L103.022785,23.58483 L110.420618,19.09824 L103.022785,14.61252 L95.6458806,19.09824 L95.6467905,19.09911 Z" id="Shape" stroke="#000000" stroke-width="1.6" fill="#FFD83D"></path>
                <ellipse id="Oval" stroke="#000000" stroke-width="1.6" fill="#FFD83D" cx="93.6958737" cy="19.20003" rx="3.55423557" ry="3.39822"></ellipse>
                <ellipse id="Oval" stroke="#000000" stroke-width="1.6" fill="#FFD83D" cx="93.6958737" cy="40.89" rx="9.51344929" ry="9.09585"></ellipse>
                <path d="M91.3072745,32.08125 C91.3072745,34.79043 91.2872558,36.36513 91.2799763,37.845 C88.9851012,37.94244 86.723894,38.17299 84.5100037,38.5236 M102.881744,38.5236 C100.641392,38.1675859 98.3806369,37.9409752 96.1117712,37.845 L96.1117712,32.08125 M84.4827055,43.11981 C87.5272658,42.6320767 90.6088728,42.3864758 93.6958737,42.38553 C96.8351755,42.38553 99.9107813,42.63957 102.908132,43.11894" id="Shape" stroke="#000000" stroke-width="1.2"></path>
                <path d="M84.3971709,56.27856 C83.4945079,71.1399 81.6582438,86.27616 75.6107657,97.27644 L85.4490644,93.47019 C88.8859174,81.00483 89.6075019,64.89765 90.6539358,57.28428 L84.3971709,56.27856 L84.3971709,56.27856 Z M102.994577,56.27856 L96.7387216,57.28428 C97.7833356,64.89678 98.50583,81.00483 101.941773,93.47106 L111.781892,97.27731 C105.732594,86.27529 103.89724,71.1399 102.995487,56.27856 L102.994577,56.27856 Z" id="Shape" stroke="#000000" stroke-width="1.6" fill="#FFD83D"></path>
                <path d="M93.6813146,88.46856 C81.9312266,88.46856 73.2986017,93.76338 72.7799344,107.25447 C69.9090657,102.42249 57.756783,87.22359 46.4216288,89.25765 C39.6789545,90.46695 33.7215607,99.40707 34.7343268,109.64784 C29.1518293,94.30974 12.7983419,91.79718 0.866265301,100.86693 C11.4607263,109.19544 16.1733188,133.78338 25.0943955,144.44871 L162.268234,144.44871 C171.189311,133.78425 175.930111,109.19631 186.523662,100.8678 C174.592496,91.79805 158.239918,94.31148 152.657421,109.64958 C153.670187,99.40968 147.683675,90.46956 140.94191,89.26026 C129.605846,87.2262 117.483592,102.4251 114.610903,107.25795 C114.092236,93.76773 105.433223,88.47204 93.6822246,88.47204 L93.6813146,88.46856 Z" id="Shape" stroke="#000000" stroke-width="1.6" fill="#FFD83D"></path>
                <g transform="translate(8.189483, 49.590000)">
                    <path d="M153.877654,94.85262 C153.877654,99.70722 123.247168,105.04728 85.5063908,105.04728 C47.764704,105.04728 17.1333081,99.70809 17.1333081,94.85262 C17.1333081,89.99802 47.764704,87.45588 85.5063908,87.45588 C123.246258,87.45588 153.876744,89.99628 153.876744,94.85262 L153.877654,94.85262 Z" id="Shape" stroke="#000000" stroke-width="1.2" fill="#000000"></path>
                    <ellipse id="Oval" stroke="#000000" stroke-width="1.2" fill="#FFD83D" cx="85.5063908" cy="3.86715" rx="3.18843867" ry="3.04848"></ellipse>
                    <ellipse id="Oval" stroke="#000000" stroke-width="1.2" fill="#FFD83D" cx="85.5063908" cy="10.46349" rx="3.39772546" ry="3.24858"></ellipse>
                    <ellipse id="Oval" stroke="#000000" stroke-width="1.2" fill="#FFD83D" cx="85.5063908" cy="17.56008" rx="3.71165563" ry="3.54873"></ellipse>
                    <ellipse id="Oval" stroke="#000000" stroke-width="1.2" fill="#FFD83D" cx="85.5063908" cy="25.45707" rx="4.23396265" ry="4.04811"></ellipse>
                    <ellipse id="Oval" stroke="#000000" stroke-width="1.2" fill="#FFD83D" cx="85.5063908" cy="34.25277" rx="4.65253622" ry="4.44831"></ellipse>
                    <path d="M83.6582975,42.80922 C83.1550993,42.80313 82.6791993,43.20942 82.8047714,43.9785 C82.9530921,44.88591 83.1387203,46.58415 83.3170691,47.72994 C83.5172564,49.02885 84.3089064,48.71304 84.5109137,47.70384 C84.711101,46.6929 84.6310261,46.04475 84.6819829,44.16816 C84.7065513,43.2303 84.1605858,42.81531 83.6582975,42.80922 L83.6582975,42.80922 Z M87.3544841,42.80922 C86.8512859,42.81531 86.3053204,43.2303 86.3307988,44.16816 C86.3808456,46.04475 86.2998607,46.6929 86.501868,47.70297 C86.7020553,48.71391 87.4937053,49.02972 87.6957126,47.73081 C87.8731514,46.58502 88.0596896,44.88591 88.2080102,43.97937 C88.3335823,43.20942 87.8576824,42.80487 87.3544841,42.81009 L87.3544841,42.80922 Z M80.3597558,43.29816 C79.8993249,43.35906 79.422515,43.80276 79.4498133,44.27691 C79.4998601,45.14343 79.7500943,46.18221 79.8474582,47.48547 C79.9475518,48.83397 80.9412091,48.31023 81.0422127,47.54028 C81.1423064,46.7712 81.2560492,45.63324 81.1559555,44.14206 C81.1177379,43.58265 80.8620441,43.33731 80.5581233,43.29816 C80.4925809,43.2899974 80.4262081,43.2899974 80.3606657,43.29816 L80.3597558,43.29816 Z M90.4537484,43.29816 C90.1498276,43.33557 89.8941338,43.58178 89.8568261,44.14206 C89.7794356,45.2753573 89.8175292,46.413165 89.9705689,47.53941 C90.0706626,48.30936 91.0643199,48.83223 91.1653235,47.48547 C91.2626874,46.18221 91.5129216,45.14517 91.5629684,44.27778 C91.5902667,43.8045 91.1134568,43.3608 90.6530259,43.29903 C90.5865853,43.2906391 90.5192791,43.2906391 90.4528385,43.29903 L90.4537484,43.29816 Z M76.4069654,44.82066 C75.9847521,44.92506 75.5971165,45.40965 75.7245085,45.96297 C75.9747427,47.07048 76.206778,48.29457 76.206778,49.41687 C76.206778,50.37909 77.0666737,50.03457 77.1167206,49.36206 C77.1667674,48.68868 77.2586716,47.26275 77.2586716,45.96384 C77.2586716,44.99466 76.8273589,44.71974 76.4060555,44.8224 L76.4069654,44.82066 Z M94.3200943,44.82066 C94.0198133,44.89896 93.7513802,45.23565 93.7513802,45.96297 C93.7513802,47.26275 93.8451043,48.68868 93.8951511,49.36206 C93.945198,50.03544 94.8050937,50.37996 94.8050937,49.41687 C94.8050937,48.29457 95.0362191,47.07048 95.2873632,45.96297 C95.4147552,45.41052 95.0271197,44.92593 94.6049063,44.82153 C94.5122563,44.7953286 94.4136543,44.7953286 94.3210042,44.82153 L94.3200943,44.82066 Z M40.5488596,44.96856 C40.0438415,44.95377 39.6907838,45.60801 40.036562,46.32924 C40.589807,47.48373 41.1776299,48.21279 41.7427042,49.45602 C42.2459024,50.56092 43.0166238,49.87188 42.7663896,49.10193 C42.5143355,48.33198 42.2413527,47.47503 41.4870104,45.83943 C41.2049282,45.22521 40.8500506,44.97813 40.5497695,44.96943 L40.5488596,44.96856 Z M130.462102,44.96856 C130.160001,44.979 129.806944,45.22608 129.524861,45.83856 C128.769609,47.47416 128.496626,48.33285 128.244572,49.10106 C127.992518,49.87188 128.763239,50.56266 129.268258,49.45602 C129.832422,48.21192 130.420245,47.48373 130.9744,46.32924 C131.320178,45.60714 130.96712,44.95464 130.462102,44.96943 L130.462102,44.96856 Z M44.1886298,45.02424 C43.8173732,45.13212 43.5917075,45.58278 43.8182832,46.11174 C44.2714345,47.16966 44.9256832,48.25455 45.3833843,49.40034 C45.7837591,50.41128 46.6800525,50.12505 46.3779515,49.21068 C46.0749407,48.29718 45.9848564,47.76213 45.3815645,46.02996 C45.0794635,45.16431 44.5580664,44.91636 44.1877198,45.02424 L44.1886298,45.02424 Z M126.53843,45.02424 C126.21995,45.08862 125.854153,45.38094 125.628487,46.02996 C125.024286,47.76126 124.934201,48.29718 124.63301,49.21068 C124.329999,50.12418 125.224473,50.41128 125.627577,49.40208 C126.084369,48.25368 126.737707,47.16966 127.190859,46.11174 C127.418344,45.58278 127.193589,45.13212 126.822332,45.02424 C126.7294,44.9999684 126.631361,44.9999684 126.53843,45.02424 L126.53843,45.02424 Z M48.7383425,45.86814 C48.2697221,45.95166 47.9075649,46.63374 48.2260448,47.47068 C48.6291494,48.52947 49.2015032,49.53084 49.7047015,50.73318 C50.2078997,51.93639 51.042317,51.69366 50.8421297,50.92458 C50.6419423,50.15376 50.3944379,48.87834 49.7902361,46.95477 C49.5263527,46.11348 49.1004996,45.80202 48.7374325,45.86727 L48.7383425,45.86814 Z M122.272619,45.86814 C121.908642,45.80028 121.484609,46.11174 121.220726,46.95564 C120.615614,48.87834 120.369019,50.15376 120.167922,50.92284 C119.965915,51.69366 120.801242,51.93639 121.30535,50.73318 C121.808549,49.53084 122.380902,48.52947 122.784007,47.47068 C123.102487,46.63548 122.73851,45.95166 122.271709,45.86727 L122.272619,45.86814 Z M37.4778035,46.46496 C36.9709655,46.51455 36.5087147,47.30451 36.8226449,47.90568 C37.3267531,48.8679 37.6452329,49.19589 38.1311423,50.21727 C38.6343405,51.27606 39.1866756,50.45652 38.9846684,49.78227 C38.7826611,49.10889 38.5251474,48.32502 38.2749132,47.36367 C38.0892849,46.65897 37.7817243,46.43625 37.4778035,46.46583 L37.4778035,46.46496 Z M133.533158,46.46496 C133.229237,46.43538 132.921677,46.65636 132.736959,47.36106 C132.485814,48.32415 132.227391,49.10802 132.027203,49.78227 C131.824286,50.45652 132.375711,51.27606 132.87891,50.21727 C133.365729,49.19676 133.684209,48.86877 134.189227,47.90655 C134.502247,47.30625 134.040906,46.51455 133.534068,46.46583 L133.533158,46.46496 Z M72.5397096,48.89922 C72.0073932,48.89922 71.4386791,49.5726 71.629767,50.20422 C71.9300481,51.21342 72.3968486,52.10952 72.7380771,53.41191 C73.0383581,54.5664 73.8973439,53.99133 73.8463871,53.22225 C73.7963402,52.4523 73.658029,51.40395 73.3067912,49.76835 C73.1739395,49.15587 72.8572795,48.89835 72.5387996,48.89835 L72.5397096,48.89922 Z M98.4730721,48.89922 C98.1527723,48.89922 97.8361123,49.15587 97.7041706,49.76922 C97.3520229,51.40482 97.2146215,52.4523 97.1636647,53.22312 C97.1145279,53.99133 97.9716937,54.5664 98.2737947,53.41191 C98.6141132,52.11039 99.0809137,51.21429 99.3839246,50.20422 C99.5713727,49.5726 99.0044785,48.89922 98.473982,48.89922 L98.4730721,48.89922 Z M85.5063908,49.93191 C84.8512322,49.93191 84.7602379,50.77233 84.7374894,51.45441 C84.6619641,53.69205 83.6910555,55.86531 82.8611879,56.94672 C82.0304103,58.029 80.8083575,57.74103 79.676389,57.16422 C78.5435105,56.58654 77.8692431,56.15502 76.6617493,55.2885 C75.4542556,54.42198 74.5379434,54.92832 75.9792924,56.89191 C80.1804971,62.61651 84.7374894,67.51026 84.7374894,76.84797 C84.7374894,78.05727 84.9576955,78.42528 85.5054809,78.42528 C86.0514464,78.42528 86.3007707,78.0564 86.3007707,76.84884 C86.3007707,67.512 90.8286448,62.61912 95.0307594,56.89365 C96.4711985,54.93006 95.5557963,54.42285 94.3483025,55.29024 C93.1408088,56.15589 92.4647215,56.58828 91.3336629,57.16596 C90.2016944,57.74277 88.9787316,58.03074 88.148864,56.94846 C87.3180864,55.86618 86.3471777,53.69466 86.2725625,51.45615 C86.2489039,50.77407 86.1588196,49.93365 85.5045709,49.93365 L85.5063908,49.93191 Z M53.401798,48.53121 C53.3436757,48.5310292 53.2859058,48.5398431 53.2307288,48.55731 C52.9850443,48.63213 52.8230746,48.91401 52.9177086,49.40121 C53.0869579,50.27295 53.718458,51.9825 53.9705121,52.79943 C54.2216563,53.61723 55.2735498,53.44323 55.0224057,52.33659 C54.7694417,51.22995 54.7830908,50.89587 54.4809899,49.64481 C54.3172002,48.96099 53.8012628,48.53991 53.4008881,48.53121 L53.401798,48.53121 Z M117.609164,48.53121 C117.208789,48.54165 116.693762,48.96186 116.529062,49.64481 C116.226961,50.89761 116.2397,51.23082 115.988556,52.33746 C115.735592,53.4441 116.787486,53.6181 117.03954,52.79856 C117.290684,51.9825 117.922184,50.27295 118.091433,49.40121 C118.186977,48.91401 118.024098,48.63213 117.780233,48.55731 C117.725033,48.5399317 117.667279,48.53112 117.609164,48.53121 L117.609164,48.53121 Z M34.3221228,48.88443 C33.7943561,48.92358 33.41673,49.55607 33.9517762,50.48784 C34.5277698,51.49443 35.5168773,52.7568 35.9700287,53.4789 C36.425,54.201 37.2075506,53.7138 36.6524856,52.8003 C36.1001505,51.8868 35.9154322,50.83584 35.2602735,49.5378 C35.0145891,49.0506 34.6378728,48.86094 34.3230327,48.8853 L34.3221228,48.88443 Z M136.690659,48.88443 C136.372179,48.86007 135.996373,49.04973 135.751598,49.53693 C135.09644,50.83497 134.910811,51.88593 134.357566,52.79943 C133.804321,53.71293 134.587782,54.20013 135.040023,53.47803 C135.493174,52.75593 136.482282,51.49443 137.060096,50.48784 C137.594232,49.55694 137.216606,48.92358 136.689749,48.88356 L136.690659,48.88443 Z M5.48604359,51.77979 C4.87911192,51.74934 4.68893392,52.79769 5.25855796,53.49369 C6.09024544,54.50289 6.6689689,55.03881 7.61985886,55.85835 C8.37511117,56.50737 8.59349738,55.66521 8.21678116,55.01445 C7.84097489,54.3663 7.29500937,53.70597 6.540667,52.62195 C6.12664314,52.03035 5.76448601,51.79545 5.48786348,51.77979 L5.48604359,51.77979 Z M165.523098,51.77979 C165.247386,51.79371 164.886139,52.02948 164.471205,52.62369 C163.715952,53.70597 163.169987,54.3663 162.793271,55.01619 C162.416554,55.66521 162.635851,56.50737 163.391103,55.85835 C164.342903,55.03881 164.919806,54.50289 165.750584,53.49195 C166.321118,52.79856 166.13094,51.74934 165.523098,51.77979 L165.523098,51.77979 Z M10.0657844,52.64979 C9.58078504,52.65588 9.2613952,52.99779 9.63811142,53.7921 C10.1795272,54.92919 10.8920122,56.21679 11.3451636,57.08244 C11.7964951,57.94809 13.176878,58.23954 12.6236329,56.89104 C12.0703878,55.54515 11.9611947,54.8535 11.4589064,53.60244 C11.2059424,52.97604 10.5489639,52.64544 10.0648745,52.65066 L10.0657844,52.64979 Z M160.945177,52.64979 C160.461088,52.6437 159.803199,52.97604 159.552965,53.60157 C159.048857,54.85263 158.939664,55.54428 158.386419,56.89017 C157.831354,58.23867 159.212647,57.94722 159.665798,57.08157 C160.11804,56.21592 160.830525,54.92832 161.37103,53.79297 C161.747747,52.99779 161.428357,52.65588 160.943357,52.64979 L160.945177,52.64979 Z M1.19384462,52.94907 C0.489549088,52.95603 0.42949288,53.63115 1.05098364,54.06267 C1.88176118,54.64122 2.87086872,55.28067 3.83813765,56.02017 C4.96919623,56.88756 5.40778853,56.08977 4.80267674,55.36767 C4.20029478,54.64731 3.6124719,53.91477 2.10287722,53.19267 C1.72525106,53.01345 1.42678991,52.94733 1.19293467,52.94907 L1.19384462,52.94907 Z M169.817117,52.94907 C169.582352,52.94646 169.284801,53.01345 168.907175,53.19267 C167.39667,53.91477 166.809757,54.64731 166.204645,55.36767 C165.602263,56.08977 166.040856,56.88756 167.172824,56.02017 C168.137363,55.28067 169.129201,54.64122 169.957248,54.06267 C170.580559,53.63115 170.521413,52.95603 169.816207,52.94907 L169.817117,52.94907 Z M70.0364577,53.57547 C69.6415426,53.62767 69.3012241,54.05397 69.4668336,54.60729 C69.7671147,55.61649 70.1110729,56.68833 70.3194498,57.73407 C70.522367,58.74501 71.7444198,58.75719 71.5433225,57.84282 C71.3431351,56.92932 71.2412216,55.78527 70.8881639,54.38892 C70.7571321,53.86692 70.4814196,53.61462 70.205707,53.5746 C70.1496115,53.566463 70.0925531,53.566463 70.0364577,53.5746 L70.0364577,53.57547 Z M100.801615,53.57547 C100.528632,53.61549 100.25201,53.86692 100.119158,54.38979 C99.7688302,55.78527 99.6669167,56.93019 99.4667293,57.84369 C99.2647221,58.75719 100.487685,58.74501 100.688782,57.73407 C100.898069,56.68833 101.240207,55.61736 101.542308,54.60729 C101.706098,54.05484 101.367599,53.6268 100.973594,53.5746 C100.916307,53.5661071 100.857992,53.5661071 100.800705,53.5746 L100.801615,53.57547 Z M42.6517368,51.84765 C42.3423564,51.92943 42.1640076,52.49493 42.3969529,53.28837 C43.6799719,57.69057 44.0712472,60.00825 43.8464914,61.09227 C43.6190057,62.17368 42.9984249,62.32158 42.1685573,61.96227 C41.2753239,61.570699 40.4189488,61.10644 39.608889,60.57462 C38.8554565,60.07002 38.0710861,60.6738 39.1539177,61.5264 C44.6645297,65.85639 48.4835586,70.80495 49.9603953,76.80621 C50.2624963,78.03291 51.0687053,78.17733 50.8430396,76.80621 C49.5936885,69.24591 49.3534637,63.0315 51.2406845,59.13477 C51.9504397,57.67056 51.2352248,56.26377 50.1032563,58.64583 C49.348004,60.23358 48.1268611,60.85998 47.145943,59.48973 C46.1632051,58.11774 44.137673,54.46113 43.5334711,52.79943 C43.3078054,52.17825 43.028453,51.89028 42.7945978,51.84939 C42.7481681,51.8393704 42.6999864,51.8393704 42.6535567,51.84939 L42.6517368,51.84765 Z M128.213634,51.84765 C127.981599,51.88854 127.702246,52.17651 127.476581,52.79856 C126.871469,54.45765 124.845027,58.11426 123.864109,59.48625 C122.881371,60.85737 121.662048,60.23097 120.906796,58.64235 C119.774827,56.26203 119.059612,57.66795 119.769367,59.13303 C121.656588,63.03063 121.416363,69.24504 120.167922,76.80534 C119.940437,78.17646 120.747556,78.03204 121.048747,76.80534 C122.526493,70.80408 126.344612,65.85552 131.855224,61.5264 C132.939876,60.6738 132.155505,60.07002 131.400253,60.57549 C130.645001,61.08009 129.671362,61.60209 128.841495,61.96227 C128.011627,62.32332 127.390136,62.17542 127.16356,61.09227 C126.936075,60.00999 127.33099,57.69057 128.614009,53.29011 C128.845134,52.49667 128.666786,51.93117 128.359225,51.84939 C128.31192,51.8389737 128.262759,51.8389737 128.215454,51.84939 L128.213634,51.84765 Z M14.9558156,53.95479 C14.4580771,53.96088 14.0458731,54.29409 14.2733587,55.01619 C14.6355159,56.17155 15.3862185,57.42087 15.6382725,58.1421 C15.8894167,58.8642 16.6983556,58.52751 16.5482151,57.51744 C16.3971646,56.50824 16.3225493,55.90533 16.1205421,54.79869 C16.0204484,54.24537 15.4526443,53.94957 14.9558156,53.95479 L14.9558156,53.95479 Z M156.053326,53.95479 C155.556498,53.9487 154.988693,54.2445 154.8886,54.79869 C154.685683,55.90359 154.611977,56.5065 154.460927,57.51657 C154.309876,58.52577 155.118815,58.86333 155.370869,58.14297 C155.622013,57.42087 156.371806,56.17155 156.735783,55.01532 C156.963269,54.29322 156.550155,53.96088 156.053326,53.95392 L156.053326,53.95479 Z M32.0463565,52.44534 C31.467633,52.34616 31.3839183,53.77122 31.8734674,54.3489 C32.528626,55.11972 33.4385686,56.04975 34.3485111,57.09549 C35.1037634,57.96114 35.569654,57.19119 35.1165026,56.46909 C34.6633512,55.74699 33.9918136,54.98139 32.7843199,53.15439 C32.4840388,52.6959 32.2383544,52.47927 32.0472664,52.44621 L32.0463565,52.44534 Z M138.964605,52.44534 C138.770788,52.4784 138.526013,52.69503 138.223912,53.15265 C137.016418,54.97965 136.344881,55.74699 135.892639,56.46909 C135.439488,57.19119 135.905378,57.96027 136.660631,57.09549 C137.570573,56.04888 138.480516,55.11885 139.133855,54.3489 C139.625224,53.77209 139.541509,52.3479 138.963695,52.44621 L138.964605,52.44534 Z M18.8521896,55.88532 C18.4927623,55.86183 18.1879316,56.13936 18.338982,56.8371 C18.5500887,57.80889 18.8549194,58.61538 19.1069735,59.52975 C19.3581177,60.44325 20.0169161,60.28665 20.0169161,59.421 C20.0169161,58.55448 19.8549463,57.58878 19.7038958,56.67441 C19.6283706,56.21766 19.209797,55.91055 18.8512797,55.88619 L18.8521896,55.88532 Z M152.158772,55.88532 C151.799345,55.90968 151.379861,56.21592 151.303426,56.67354 C151.153286,57.58704 150.992226,58.55274 150.992226,59.42013 C150.992226,60.28578 151.650114,60.44238 151.902168,59.52888 C152.153313,58.61538 152.459053,57.80802 152.66925,56.8371 C152.82121,56.1411 152.51729,55.8627 152.159682,55.88619 L152.158772,55.88532 Z M30.7660673,57.12072 C30.2019029,57.20337 29.7068942,57.72363 30.3675125,58.53534 C31.4230458,59.83425 32.5804928,60.74514 32.9835973,61.22712 C33.3857919,61.70823 34.4058375,61.53162 33.7515888,60.51981 C33.082781,59.48799 32.0718349,58.24476 31.6186835,57.47481 C31.4485242,57.18771 31.103656,57.07287 30.7660673,57.12159 L30.7660673,57.12072 Z M140.015589,57.12072 C139.768085,57.14682 139.51694,57.25992 139.390458,57.47481 C138.937307,58.24476 137.925451,59.48799 137.257553,60.51981 C136.602394,61.53075 137.62153,61.70823 138.025545,61.22712 C138.427739,60.74601 139.584276,59.83512 140.641629,58.53534 C141.301338,57.72363 140.805419,57.20424 140.243075,57.12159 C140.167639,57.1111554 140.091025,57.1111554 140.015589,57.12159 L140.015589,57.12072 Z M11.9684743,60.7521 C11.5253323,60.71469 11.371552,61.0566 11.9684743,61.8396 C13.3279284,63.62049 14.8256939,66.31401 14.9257875,67.4685 C15.0277011,68.62299 14.4307788,68.60994 13.8748039,68.60994 C12.2141588,68.60994 11.4033999,67.4511 9.89380527,67.11354 C8.38330065,66.77772 8.16491444,67.53723 9.23864664,68.28369 C14.7747371,72.13257 20.3217468,76.42689 22.5474663,80.32797 C23.453769,81.91659 24.6785517,82.49688 23.9988246,80.98047 C21.917786,76.33815 21.4145878,72.40575 21.8659193,70.02456 C22.3208906,67.64337 22.9378316,66.03996 22.8623064,64.66884 C22.7867812,63.29859 21.9732925,63.39255 21.6393436,64.66884 C21.4136779,65.53536 20.9750856,66.68289 20.6748045,67.11615 C20.3717937,67.54941 19.1579303,67.79214 17.9995734,66.30096 C16.8439464,64.80978 13.9230309,61.93791 12.9675912,61.21668 C12.6090738,60.94698 12.2396371,60.77733 11.972114,60.75558 L11.9684743,60.7521 Z M159.038848,60.7521 C158.773145,60.77559 158.401888,60.9435 158.04519,61.21494 C157.089751,61.93704 154.168835,64.80804 153.011388,66.29922 C151.853941,67.7904 150.640078,67.54767 150.338887,67.11441 C150.035876,66.68115 149.597284,65.53362 149.370708,64.66797 C149.036759,63.39168 148.224181,63.29772 148.148655,64.66797 C148.07313,66.03996 148.690071,67.64337 149.143223,70.02456 C149.596374,72.40575 149.092266,76.33815 147.011227,80.98134 C146.3315,82.49775 147.555373,81.91746 148.460766,80.32884 C150.687395,76.42776 156.234405,72.13344 161.768675,68.28543 C162.844227,67.53897 162.625841,66.78033 161.116247,67.11615 C159.605742,67.45284 158.795893,68.61255 157.135248,68.61255 C156.580183,68.61255 155.981441,68.62473 156.082444,67.47024 C156.184358,66.31575 157.682123,63.62223 159.039758,61.84134 C159.6385,61.05834 159.48563,60.71643 159.039758,60.75384 L159.038848,60.7521 Z" id="Shape" fill="#000000"></path>
                    <path d="M20.1342987,89.3055 L21.9086866,94.67775 M23.7831682,88.28847 L25.355549,93.71727 M27.7259493,87.66903 L28.8060511,93.20658 M31.3839183,86.96868 L32.5395453,92.49318 M36.0755821,86.52672 L37.0146428,92.08776 M41.065707,86.53281 L42.0775631,92.08167 M45.9375393,84.95637 L46.6682232,90.54699 M50.5209199,85.23999 L51.2525137,90.82974 M54.9559799,84.67623 L55.6884836,90.26511 M59.4083288,84.23775 L59.8105234,89.85795 M64.1655084,84.23601 L64.5149263,89.85882 M68.479546,83.95152 L68.7761872,89.57781 M73.2349057,83.6679 L73.4824101,89.2968 M78.7054803,83.52696 L78.9529846,89.15586 M150.878483,89.30898 L149.104095,94.68123 M147.229613,88.29195 L145.657233,93.72075 M143.287742,87.67251 L142.207641,93.21006 M139.630683,86.97216 L138.475056,92.49666 M134.939019,86.5302 L133.999049,92.09124 M129.947075,86.53629 L128.935219,92.08515 M125.077062,84.95985 L124.344558,90.55047 M120.492772,85.24347 L119.761178,90.83322 M116.057712,84.67971 L115.326118,90.26859 M111.604453,84.24123 L111.202258,89.86143 M106.846363,84.23949 L106.498765,89.8623 M102.534146,83.955 L102.237504,89.58129 M97.7787859,83.67138 L97.5331014,89.30028 M92.3082113,83.53044 L92.0625269,89.15934 M85.5082107,83.16504 L85.5082107,89.36118" id="Shape" stroke="#000000" stroke-width="1.2" fill="#FFD83D"></path>
                </g>
            </g>
            <rect id="Rectangle-1" stroke="#FFFFFF" stroke-width="3" x="0" y="0" width="870" height="522"></rect>
        </g>
    </g>
</svg>