<?xml version="1.0" encoding="UTF-8" standalone="no"?>
<svg width="876px" height="441px" viewBox="0 0 876 441" version="1.1" xmlns="http://www.w3.org/2000/svg" xmlns:xlink="http://www.w3.org/1999/xlink">
    <!-- Generator: Sketch 3.6 (26304) - http://www.bohemiancoding.com/sketch -->
    <title>Group 2</title>
    <desc>Created with Sketch.</desc>
    <defs>
        <rect id="path-1" x="0" y="0" width="869.999988" height="435"></rect>
    </defs>
    <g id="Page-1" stroke="none" stroke-width="1" fill="none" fill-rule="evenodd">
        <g id="Group-2" transform="translate(3.000000, 3.000000)">
            <g id="Flag_of_Moldova-2">
                <mask id="mask-2" fill="white">
                    <use xlink:href="#path-1"></use>
                </mask>
                <use id="Mask" fill="#D8D8D8" xlink:href="#path-1"></use>
                <g mask="url(#mask-2)">
                    <rect id="Rectangle-path" fill="#CC092F" x="0" y="0" width="869.999988" height="434.999994"></rect>
                    <rect id="Rectangle-path" fill="#FFD200" x="0" y="0" width="579.999992" height="434.999994"></rect>
                    <rect id="Rectangle-path" fill="#0046AE" x="0" y="0" width="289.999996" height="434.999994"></rect>
                    <g id="Group" transform="translate(296.766663, 88.449999)">
                        <g>
                            <path d="M112.950165,0.115999998 C111.392382,0.115999998 110.031798,0.513299993 109.238165,1.13099998 C110.499182,1.49833331 111.416065,2.6612333 111.416065,4.07546661 L111.416065,7.66324989 L107.828765,7.66324989 C106.423715,7.66324989 105.259849,6.75941657 104.883815,5.51048326 C104.266115,6.30411658 103.869299,7.66469989 103.869299,9.22199987 C103.869299,10.7797832 104.266115,12.1408498 104.883815,12.9335165 C105.251632,11.6720165 106.414049,10.7556165 107.828765,10.7556165 L111.416065,10.7556165 L111.416065,28.0014329 C111.416065,29.3571829 110.568298,30.4818996 109.387032,30.8961162 C111.098515,31.1290829 112.571232,33.4258829 112.974815,34.6820662 C113.379365,33.4287829 114.852082,31.1290829 116.563082,30.8961162 C115.369248,30.4891496 114.508432,29.3658829 114.508432,28.0014329 L114.508432,10.7546499 L118.096698,10.7546499 C119.502232,10.7546499 120.665615,11.6584832 121.041648,12.9083832 C121.658865,12.1147498 122.055682,10.7531999 122.055682,9.19638321 C122.055682,7.63859989 121.659348,6.27801658 121.041648,5.48486659 C120.673832,6.74588324 119.510932,7.66179989 118.096698,7.66179989 L114.508432,7.66179989 L114.508432,4.07449994 C114.508432,2.66896663 115.411782,1.50558331 116.661682,1.12954998 C115.869015,0.51281666 114.507465,0.115516665 112.950165,0.115516665 L112.950165,0.115999998 Z" id="Shape" fill="#000000"></path>
                            <path d="M112.950165,0.860333321 C112.139132,0.860333321 111.424765,1.01209999 110.822532,1.20639998 C111.626798,1.90578331 112.158948,2.91933329 112.158948,4.07691661 L112.158948,7.66469989 C112.158948,7.71593323 112.143965,7.76474989 112.133815,7.81356656 L112.133815,8.38244988 L111.564448,8.38244988 C111.516115,8.39259988 111.466815,8.40709988 111.416065,8.40758322 L107.827798,8.40758322 C106.683749,8.40758322 105.682282,7.88413322 104.982899,7.0962999 C104.781832,7.70481656 104.611699,8.39984988 104.611699,9.22441654 C104.611699,10.0354499 104.763465,10.7498165 104.957765,11.3520498 C105.657149,10.5477832 106.670215,10.0165999 107.827798,10.0165999 L112.157982,10.0165999 C112.153148,10.0910332 112.132848,10.1630499 112.132848,10.2384499 L112.132848,10.6096499 C112.142998,10.6579832 112.157498,10.7067999 112.157982,10.7580332 L112.157982,28.0038496 C112.157982,29.1237329 111.580398,30.0043662 110.821565,30.7008496 C111.364348,31.0357996 111.831732,31.4572662 112.231932,31.9386662 C112.588148,32.3664162 112.729765,32.7849829 112.974332,33.2248162 C113.219382,32.7859495 113.360515,32.3664162 113.716732,31.9386662 C114.110648,31.4659662 114.571265,31.0589996 115.102448,30.7259829 C114.336848,30.0314329 113.766032,29.1285663 113.766032,28.0043329 L113.766032,10.0397999 L114.360048,10.0397999 C114.408382,10.0301332 114.457198,10.0156332 114.508432,10.0156332 L118.096215,10.0156332 C119.239782,10.0156332 120.241248,10.5390832 120.941115,11.3264332 C121.141698,10.7183999 121.312798,10.0238499 121.312798,9.19879987 C121.312798,8.38824988 121.160548,7.67339989 120.966248,7.07116657 C120.266865,7.87543322 119.253798,8.40661655 118.096215,8.40661655 L114.508432,8.40661655 C114.457682,8.40661655 114.408382,8.39163322 114.360048,8.38148322 L113.790682,8.38148322 L113.790682,7.81259989 C113.780532,7.76474989 113.766032,7.71544989 113.765548,7.66373323 L113.765548,4.07643328 C113.765548,2.93238329 114.289482,1.93139997 115.076832,1.23104998 C114.468315,1.03094999 113.773765,0.859849988 112.949198,0.859849988" id="Shape" fill="#F5D402"></path>
                            <path d="M157.861014,63.3103825 C155.669098,61.7535658 153.869648,59.9937492 152.590748,57.9405492 C149.510948,52.9994326 148.211265,46.9335993 148.211265,40.7691661 C148.211265,38.1635161 151.130598,35.2301662 151.130598,33.1228329 C151.130598,29.9376662 150.833831,28.0265663 150.833831,28.0265663 C151.869615,28.1676996 153.679215,30.0058162 153.679215,30.0058162 C153.679215,30.0058162 153.616865,24.7191163 151.946465,23.7954663 C151.946465,23.7954663 152.622165,23.100433 155.064448,23.0284163 C154.378115,21.2903497 150.982215,19.1685164 150.982215,19.1685164 C151.151865,18.8644997 151.465548,18.6015664 151.872515,18.3768164 C152.725598,17.9050831 153.924265,17.5938164 154.841148,17.4115998 C153.863848,17.2090831 152.737681,16.8987831 151.501315,16.4956831 C148.677681,15.5758998 145.353798,14.2254665 142.247415,12.7353498 C136.576948,10.0151499 132.257398,9.8401832 129.876015,9.84042486 C128.148098,9.84066653 125.603348,9.8880332 124.111298,10.8803165 C122.745882,11.7865665 122.857048,12.9654165 122.379032,13.3791498 C121.252865,14.3535498 119.323882,14.3192331 118.394915,14.3192331 C112.382248,14.3192331 112.159432,20.752883 112.159432,20.752883 C112.159432,20.752883 113.696915,18.4265997 116.415182,18.4265997 C120.934832,18.4265997 124.357798,20.8886997 124.357798,21.8162164 C124.357798,22.1917664 123.891865,22.2613664 123.863348,22.2613664 C120.911148,22.2613664 116.455782,20.5619664 114.088898,20.4797997 L114.088898,21.6426997 C119.372215,23.4808163 124.728515,26.083083 124.728515,37.5525828 C124.728515,44.7750327 123.863832,52.1444159 120.250432,57.9410325 C118.970565,59.9937492 117.148398,61.7501825 114.955515,63.3108658 L136.408265,67.1772907 L157.861014,63.3103825 Z" id="Shape" fill="#000000"></path>
                            <g id="eagle_half" transform="translate(53.166666, 25.133333)">
                                <path d="M83.2406322,33.3441995 L61.7888491,38.1777745 C60.8129992,37.8829411 56.2242325,36.4571078 53.0047493,34.6644245 C47.3371827,31.5072912 44.398516,28.3661079 37.6637495,28.0577413 L37.6637495,22.9353747 C37.6637495,20.1987414 38.6540995,17.7332581 38.6540995,15.1164915 C35.8149995,14.3552415 27.9347329,4.7199916 20.6653997,0.443458327 C9.96923319,7.37155823 1.68731664,18.7448747 1.68731664,23.9750247 C1.68731664,23.9750247 2.00873331,136.354856 1.68731664,175.504856 C1.68731664,177.761056 0.326733329,180.948639 0.326733329,180.948639 C4.23158327,179.296606 11.3892665,169.503306 12.8962998,165.780673 L12.8962998,167.562723 C18.7934497,164.873456 23.1115497,157.807123 25.0453663,154.151673 C25.079683,154.679956 25.169583,156.006706 25.169583,156.006706 C30.4379162,151.388456 37.1446495,124.08834 37.1446495,124.08834 L48.3212493,135.072331 C48.3212493,135.072331 44.2791327,143.277156 42.7044327,144.74649 C42.7044327,144.74649 43.7600327,144.880373 44.9557994,144.870223 C44.2201661,145.927756 38.6014161,154.017306 36.8401495,157.068589 C35.1919828,159.923156 34.0290829,158.652473 31.4954496,158.652473 C29.3943996,158.652473 24.6321163,161.999556 23.850083,163.353856 C23.027933,164.777273 22.4155497,166.506639 22.4155497,167.931506 C22.4155497,169.497506 24.073383,171.643023 24.073383,171.643023 C24.251733,170.893373 24.567833,170.628506 24.567833,170.628506 C24.567833,170.628506 28.9241163,176.055373 29.5659829,176.764423 C30.0657496,177.316873 32.2943995,177.675989 33.0798162,176.963073 C35.0450495,175.176189 36.9474495,173.926773 38.6966328,171.346256 C39.5970828,170.016606 39.6657161,168.492656 40.7005328,167.064889 C44.1621661,162.289556 51.051116,153.145373 52.6267826,151.056406 C52.7321493,151.637856 52.8225326,152.122156 52.9225826,152.71424 C54.7080159,149.110023 63.2905658,142.223006 63.2905658,142.223006 L72.2699323,146.355506 C72.2699323,146.355506 55.5045492,184.894089 40.6231994,190.819756 C40.6231994,190.819756 47.0974493,193.570406 55.0482826,197.698556 C56.2082825,198.300789 57.4025992,198.947489 58.6114158,199.604339 C59.6123992,198.398906 60.6660658,197.059589 61.7042658,195.669522 C66.4583324,189.308856 71.1075157,181.937056 71.1075157,181.937056 C71.431349,183.851539 68.9209157,189.764156 64.6743491,197.056206 C63.8391491,198.488806 62.9681825,199.987139 62.0019991,201.509156 C63.0793491,202.124439 64.1484824,202.746006 65.2185824,203.390289 C73.094499,208.129372 80.4909489,213.577505 83.2309655,218.582422 L85.1642988,213.744739 L83.2309655,208.907055 L83.2309655,39.7611744 L84.1976322,37.3445078 L83.2406322,33.3441995 Z" id="Shape" fill="#000000"></path>
                                <g id="Group" transform="translate(4.833333, 5.316667)" fill="#B07F55">
                                    <path d="M78.3976322,203.590147 C75.6189489,200.576081 69.8092824,196.893564 63.2799325,193.495247 C71.174699,179.325848 75.086799,156.928664 73.251099,152.469915 C73.251099,152.469915 70.010349,164.085864 66.0503991,170.705598 C62.3838325,176.836198 57.8699825,183.731431 53.5059659,188.843164 C49.915766,187.311481 46.434316,186.026297 43.4598827,185.131164 C56.5379159,175.057048 69.9107824,141.755865 69.9107824,141.755865 L56.0816492,135.346865 C56.0816492,135.346865 50.9080493,141.378381 49.2279826,142.498265 C49.2279826,142.498265 48.5102327,139.498698 48.0897327,138.440198 C48.0897327,138.440198 46.1075827,139.939498 45.0224994,139.975265 C45.0224994,139.975265 44.6981827,137.939465 44.4531327,136.609331 C43.0877161,137.519448 40.8160494,137.327081 40.8160494,137.327081 C42.8107661,136.382648 45.1708827,130.596665 45.1708827,130.596665 L31.9652496,113.030882 C31.9652496,113.030882 27.3266996,135.320281 22.043383,139.902281 L22.043383,43.9219494 L26.225183,47.806016 L32.5592662,41.8924327 L32.5592662,37.3892161 L26.9424496,42.6343494 L26.9424496,29.0502663 C27.7887663,27.7699163 28.3499163,26.8143663 28.7733163,26.0564996 C29.6824663,27.6413496 32.6206495,32.4988495 36.0721328,35.4839162 C36.6400495,33.1745495 40.3776661,30.9802162 40.3776661,30.9802162 C40.3776661,30.9802162 41.7169828,34.6090829 43.7667994,35.5080828 C44.4879327,34.2378829 48.790566,31.4258496 48.790566,31.4258496 C48.790566,31.4258496 45.1094994,31.9850662 43.6188994,33.3809329 C42.3385494,33.0943162 42.0103661,28.0362329 42.0103661,28.0362329 C42.0103661,28.0362329 36.5936495,30.6747496 35.6516328,32.5640995 C34.6187495,32.2847329 33.0106995,28.2198996 32.3847829,26.551433 C33.3296995,26.448483 34.6641829,26.3290996 36.4181995,26.3290996 C37.9629328,26.3290996 39.9392828,27.0608663 42.0098827,28.0362329 C44.2849327,29.1072996 46.664866,30.4635329 48.7900827,31.4263329 C51.5122159,32.6588329 55.6306992,32.9091995 56.8312992,32.9604329 C55.4562159,33.9270995 53.9443492,34.8096662 52.3039159,35.6327828 C52.3039159,35.6327828 58.7858992,35.5728495 63.3393825,33.3064995 C64.9638658,32.2615329 66.6497324,31.2204329 68.0900657,29.9908329 C67.4651157,31.7274496 66.4921657,33.7796829 64.9715991,35.5332162 C71.658999,34.9672328 74.9891656,31.1484162 75.9331156,29.8670996 C76.3768156,31.0150162 77.1670656,32.8574829 78.4072989,34.4442662 L80.8239655,34.4442662 L80.8239655,198.777597 L78.3976322,203.590147 Z" id="Shape"></path>
                                    <path d="M29.1193829,10.2940332 L29.2426329,13.3622331 L29.2426329,22.394283 C26.816783,21.5595664 23.7683997,17.5739998 22.2903664,15.4661831 L22.2903664,14.2288498 C22.2903664,13.0649832 22.9752497,12.2147998 23.4779163,11.7546665 L22.0182497,11.2355665 C21.4614497,11.8701832 20.8553497,12.8126832 20.8553497,14.0311665 L20.8553497,14.7489165 L16.5009998,19.4256497 L12.2205998,12.9426998 L12.2205998,11.3592998 C12.2205998,10.2920999 13.0412998,9.10213321 13.7300498,8.29109988 L12.2945498,7.77151656 C11.5700332,8.71014988 10.8097498,9.97503319 10.8097498,11.1611332 L10.8097498,12.4472832 C9.80296653,13.4893498 5.88603325,17.5203498 5.88603325,17.5203498 C5.88603325,17.5203498 3.92079995,13.2974665 3.38719995,12.1509998 C6.38628324,7.99674989 11.2490998,3.34514995 15.8324531,0.00749166656 C15.8324531,0.00749166656 25.7718163,9.13306654 29.1193829,10.2940332 L29.1193829,10.2940332 Z" id="Shape"></path>
                                    <path d="M3.92804995,19.0534831 L3.92804995,26.502133 L0.463999994,29.7182329 L0.463999994,18.6581164 C0.463999994,17.5991331 0.907699987,16.3231331 1.65130831,14.9214665 L3.92804995,19.0534831 Z" id="Shape"></path>
                                    <path d="M14.7160498,21.9235164 L14.7160498,26.5258163 L10.7328999,30.2624662 L10.7328999,15.8620331 L14.7160498,21.9235164 Z" id="Shape"></path>
                                    <path d="M9.32156654,30.2378162 L5.33744993,26.5262996 L5.33744993,21.132783 L9.32156654,16.9509831 L9.32156654,30.2378162 Z" id="Shape"></path>
                                    <path d="M27.5079496,24.6456497 C26.5828496,25.9530663 24.1598997,29.1507996 21.5450664,30.5597162 L21.5450664,17.9154748 C22.144883,18.9133164 24.8964997,23.3648163 27.5079496,24.6456497 L27.5079496,24.6456497 Z" id="Shape"></path>
                                    <path d="M20.1337331,18.5585497 L20.1337331,30.2373329 L16.1496164,26.5258163 L16.1496164,22.3937997 L20.1337331,18.5585497 Z" id="Shape"></path>
                                    <path d="M3.92756661,31.0043829 L3.92756661,42.6589994 L0.46351666,39.4172828 L0.46351666,34.2456162 L3.92756661,31.0043829 Z" id="Shape"></path>
                                    <path d="M9.31866654,34.7410328 L9.31866654,38.9223495 L5.33406659,42.6333827 L5.33406659,31.0292746 L9.31866654,34.7410328 Z" id="Shape"></path>
                                    <path d="M14.7116998,31.0299996 L14.7116998,42.6348327 L10.7285499,38.8981828 L10.7285499,34.7661662 L14.7116998,31.0299996 Z" id="Shape"></path>
                                    <path d="M20.1313164,34.7661662 L20.1313164,38.8981828 L16.1471998,42.6343494 L16.1471998,31.0297579 L20.1313164,34.7661662 Z" id="Shape"></path>
                                    <path d="M25.524833,42.6589994 L21.540233,38.9223495 L21.540233,35.0382828 C22.9143497,34.1996995 24.2961997,32.6583495 25.5245913,31.0297579 L25.524833,42.6589994 Z" id="Shape"></path>
                                    <path d="M15.4304165,47.8055327 L19.6368664,43.8958494 L19.6368664,139.900348 C19.6368664,139.900348 19.9302497,144.664081 20.1317997,147.768531 C18.2612997,149.659331 11.2244498,156.774964 11.2244498,156.774964 L11.2244498,43.8702327 L15.4304165,47.8055327 Z" id="Shape"></path>
                                    <path d="M8.82228321,153.187665 C8.82228321,156.273748 3.18709996,163.469614 0.45916666,165.113914 L0.45916666,43.9229161 L4.61583327,47.8069827 L8.82228321,43.8970577 L8.82228321,153.187665 Z" id="Shape"></path>
                                </g>
                                <g id="Group" transform="translate(25.133333, 144.033331)" fill="#D10429">
                                    <path d="M26.526783,1.95073331 C26.526783,1.95073331 26.731233,2.96573329 26.996583,4.35144994 C25.682883,6.14751658 18.1365997,16.4463831 14.4023665,21.473533 C13.4738831,22.7224663 12.6942665,25.9023163 12.6942665,25.9023163 C12.6942665,25.9023163 11.3341665,25.2589996 11.3341665,24.096583 C11.3341665,22.9549497 11.4830332,21.5972664 11.4830332,21.5972664 C11.4830332,21.5972664 10.4675499,22.7601663 8.71111655,22.7601663 C8.71111655,21.3570497 11.4245498,19.8350331 11.5318498,17.8369331 C9.46269987,19.3710331 7.66566656,18.5836831 5.27219993,19.3217331 C2.6655833,20.1245497 1.93961664,21.219783 1.14018332,21.177733 C0.669416657,21.1521164 0.243116663,20.3401164 0.422916661,19.8413164 C0.734183323,18.9775997 3.95801661,16.5870331 6.21179991,16.1549331 C6.75168324,16.0514998 10.9982498,17.0790664 11.8537498,15.7590831 C15.3782165,10.3206165 21.0999164,1.49204998 21.651883,0.641383324 C22.0153497,0.554383326 22.3498164,0.46206666 22.6163747,0.293866663 C22.6163747,0.293866663 22.5837497,3.07351662 23.458583,4.05419994 L26.526783,1.95073331 Z" id="Shape"></path>
                                    <path d="M3.73133328,21.0017997 C3.90194995,21.1989997 3.88696661,21.488033 3.70571662,21.644633 L2.3204833,22.856833 C2.1392333,23.013433 1.84826664,22.980083 1.67764998,22.7823997 C1.50654998,22.5851997 1.52104998,22.2961664 1.70278331,22.139083 L3.08801662,20.926883 C3.17839996,20.8480997 3.29488329,20.8142664 3.40967495,20.828283 C3.52446662,20.841333 3.64529995,20.9027164 3.73133328,21.0017997 L3.73133328,21.0017997 Z" id="Shape"></path>
                                    <path d="M5.83431659,22.4614664 C6.24853325,22.9389997 6.22194991,23.6156663 5.78453325,23.9960497 L2.41956663,26.940033 C1.98166664,27.3208996 1.27551665,27.244533 0.860333321,26.767483 C0.44611666,26.2899496 0.47221666,25.588633 0.910116654,25.208733 L4.27508327,22.2889164 C4.43893327,22.1458497 4.6627166,22.0583664 4.86909993,22.041208 C5.21323326,22.012933 5.57476659,22.163733 5.83431659,22.4614664 L5.83431659,22.4614664 Z" id="Shape"></path>
                                    <path d="M7.76281656,24.7379663 C8.17703322,25.2154996 8.15093322,25.891683 7.71303323,26.2720663 L4.32389994,29.2165329 C3.88599995,29.5969163 3.20449996,29.5210329 2.78931663,29.0434996 C2.37461663,28.5664496 2.40119997,27.8651329 2.83958329,27.485233 L6.20406658,24.5654163 C6.36791658,24.422833 6.56656658,24.3353497 6.77343324,24.317708 C7.11708323,24.289433 7.50326656,24.4392663 7.76281656,24.7379663 L7.76281656,24.7379663 Z" id="Shape"></path>
                                    <path d="M8.92426654,26.544183 C9.2688832,26.5161496 9.63041653,26.641333 9.8894832,26.940033 C10.3041832,27.4175663 10.2775999,28.1188829 9.8401832,28.4987829 L6.47473324,31.4190829 C6.03683325,31.7994662 5.35533326,31.7230996 4.94063326,31.2455662 C4.52593327,30.7680329 4.5278666,30.0913662 4.96528326,29.7109829 L8.35538322,26.7669996 C8.51874988,26.623933 8.71739988,26.5606163 8.92426654,26.544183 L8.92426654,26.544183 Z" id="Shape"></path>
                                </g>
                            </g>
                            <g id="eagle_half-link" transform="translate(109.911932, 134.608331) scale(-1, 1) translate(-109.911932, -134.608331) translate(0.195267, 25.133333)">
                                <g id="eagle_half">
                                    <path d="M83.2406322,33.3441995 L61.7888491,38.1777745 C60.8129992,37.8829411 56.2242325,36.4571078 53.0047493,34.6644245 C47.3371827,31.5072912 44.398516,28.3661079 37.6637495,28.0577413 L37.6637495,22.9353747 C37.6637495,20.1987414 38.6540995,17.7332581 38.6540995,15.1164915 C35.8149995,14.3552415 27.9347329,4.7199916 20.6653997,0.443458327 C9.96923319,7.37155823 1.68731664,18.7448747 1.68731664,23.9750247 C1.68731664,23.9750247 2.00873331,136.354856 1.68731664,175.504856 C1.68731664,177.761056 0.326733329,180.948639 0.326733329,180.948639 C4.23158327,179.296606 11.3892665,169.503306 12.8962998,165.780673 L12.8962998,167.562723 C18.7934497,164.873456 23.1115497,157.807123 25.0453663,154.151673 C25.079683,154.679956 25.169583,156.006706 25.169583,156.006706 C30.4379162,151.388456 37.1446495,124.08834 37.1446495,124.08834 L48.3212493,135.072331 C48.3212493,135.072331 44.2791327,143.277156 42.7044327,144.74649 C42.7044327,144.74649 43.7600327,144.880373 44.9557994,144.870223 C44.2201661,145.927756 38.6014161,154.017306 36.8401495,157.068589 C35.1919828,159.923156 34.0290829,158.652473 31.4954496,158.652473 C29.3943996,158.652473 24.6321163,161.999556 23.850083,163.353856 C23.027933,164.777273 22.4155497,166.506639 22.4155497,167.931506 C22.4155497,169.497506 24.073383,171.643023 24.073383,171.643023 C24.251733,170.893373 24.567833,170.628506 24.567833,170.628506 C24.567833,170.628506 28.9241163,176.055373 29.5659829,176.764423 C30.0657496,177.316873 32.2943995,177.675989 33.0798162,176.963073 C35.0450495,175.176189 36.9474495,173.926773 38.6966328,171.346256 C39.5970828,170.016606 39.6657161,168.492656 40.7005328,167.064889 C44.1621661,162.289556 51.051116,153.145373 52.6267826,151.056406 C52.7321493,151.637856 52.8225326,152.122156 52.9225826,152.71424 C54.7080159,149.110023 63.2905658,142.223006 63.2905658,142.223006 L72.2699323,146.355506 C72.2699323,146.355506 55.5045492,184.894089 40.6231994,190.819756 C40.6231994,190.819756 47.0974493,193.570406 55.0482826,197.698556 C56.2082825,198.300789 57.4025992,198.947489 58.6114158,199.604339 C59.6123992,198.398906 60.6660658,197.059589 61.7042658,195.669522 C66.4583324,189.308856 71.1075157,181.937056 71.1075157,181.937056 C71.431349,183.851539 68.9209157,189.764156 64.6743491,197.056206 C63.8391491,198.488806 62.9681825,199.987139 62.0019991,201.509156 C63.0793491,202.124439 64.1484824,202.746006 65.2185824,203.390289 C73.094499,208.129372 80.4909489,213.577505 83.2309655,218.582422 L85.1642988,213.744739 L83.2309655,208.907055 L83.2309655,39.7611744 L84.1976322,37.3445078 L83.2406322,33.3441995 Z" id="Shape" fill="#000000"></path>
                                    <g id="Group" transform="translate(4.833333, 5.316667)" fill="#B07F55">
                                        <path d="M78.3976322,203.590147 C75.6189489,200.576081 69.8092824,196.893564 63.2799325,193.495247 C71.174699,179.325848 75.086799,156.928664 73.251099,152.469915 C73.251099,152.469915 70.010349,164.085864 66.0503991,170.705598 C62.3838325,176.836198 57.8699825,183.731431 53.5059659,188.843164 C49.915766,187.311481 46.434316,186.026297 43.4598827,185.131164 C56.5379159,175.057048 69.9107824,141.755865 69.9107824,141.755865 L56.0816492,135.346865 C56.0816492,135.346865 50.9080493,141.378381 49.2279826,142.498265 C49.2279826,142.498265 48.5102327,139.498698 48.0897327,138.440198 C48.0897327,138.440198 46.1075827,139.939498 45.0224994,139.975265 C45.0224994,139.975265 44.6981827,137.939465 44.4531327,136.609331 C43.0877161,137.519448 40.8160494,137.327081 40.8160494,137.327081 C42.8107661,136.382648 45.1708827,130.596665 45.1708827,130.596665 L31.9652496,113.030882 C31.9652496,113.030882 27.3266996,135.320281 22.043383,139.902281 L22.043383,43.9219494 L26.225183,47.806016 L32.5592662,41.8924327 L32.5592662,37.3892161 L26.9424496,42.6343494 L26.9424496,29.0502663 C27.7887663,27.7699163 28.3499163,26.8143663 28.7733163,26.0564996 C29.6824663,27.6413496 32.6206495,32.4988495 36.0721328,35.4839162 C36.6400495,33.1745495 40.3776661,30.9802162 40.3776661,30.9802162 C40.3776661,30.9802162 41.7169828,34.6090829 43.7667994,35.5080828 C44.4879327,34.2378829 48.790566,31.4258496 48.790566,31.4258496 C48.790566,31.4258496 45.1094994,31.9850662 43.6188994,33.3809329 C42.3385494,33.0943162 42.0103661,28.0362329 42.0103661,28.0362329 C42.0103661,28.0362329 36.5936495,30.6747496 35.6516328,32.5640995 C34.6187495,32.2847329 33.0106995,28.2198996 32.3847829,26.551433 C33.3296995,26.448483 34.6641829,26.3290996 36.4181995,26.3290996 C37.9629328,26.3290996 39.9392828,27.0608663 42.0098827,28.0362329 C44.2849327,29.1072996 46.664866,30.4635329 48.7900827,31.4263329 C51.5122159,32.6588329 55.6306992,32.9091995 56.8312992,32.9604329 C55.4562159,33.9270995 53.9443492,34.8096662 52.3039159,35.6327828 C52.3039159,35.6327828 58.7858992,35.5728495 63.3393825,33.3064995 C64.9638658,32.2615329 66.6497324,31.2204329 68.0900657,29.9908329 C67.4651157,31.7274496 66.4921657,33.7796829 64.9715991,35.5332162 C71.658999,34.9672328 74.9891656,31.1484162 75.9331156,29.8670996 C76.3768156,31.0150162 77.1670656,32.8574829 78.4072989,34.4442662 L80.8239655,34.4442662 L80.8239655,198.777597 L78.3976322,203.590147 Z" id="Shape"></path>
                                        <path d="M29.1193829,10.2940332 L29.2426329,13.3622331 L29.2426329,22.394283 C26.816783,21.5595664 23.7683997,17.5739998 22.2903664,15.4661831 L22.2903664,14.2288498 C22.2903664,13.0649832 22.9752497,12.2147998 23.4779163,11.7546665 L22.0182497,11.2355665 C21.4614497,11.8701832 20.8553497,12.8126832 20.8553497,14.0311665 L20.8553497,14.7489165 L16.5009998,19.4256497 L12.2205998,12.9426998 L12.2205998,11.3592998 C12.2205998,10.2920999 13.0412998,9.10213321 13.7300498,8.29109988 L12.2945498,7.77151656 C11.5700332,8.71014988 10.8097498,9.97503319 10.8097498,11.1611332 L10.8097498,12.4472832 C9.80296653,13.4893498 5.88603325,17.5203498 5.88603325,17.5203498 C5.88603325,17.5203498 3.92079995,13.2974665 3.38719995,12.1509998 C6.38628324,7.99674989 11.2490998,3.34514995 15.8324531,0.00749166656 C15.8324531,0.00749166656 25.7718163,9.13306654 29.1193829,10.2940332 L29.1193829,10.2940332 Z" id="Shape"></path>
                                        <path d="M3.92804995,19.0534831 L3.92804995,26.502133 L0.463999994,29.7182329 L0.463999994,18.6581164 C0.463999994,17.5991331 0.907699987,16.3231331 1.65130831,14.9214665 L3.92804995,19.0534831 Z" id="Shape"></path>
                                        <path d="M14.7160498,21.9235164 L14.7160498,26.5258163 L10.7328999,30.2624662 L10.7328999,15.8620331 L14.7160498,21.9235164 Z" id="Shape"></path>
                                        <path d="M9.32156654,30.2378162 L5.33744993,26.5262996 L5.33744993,21.132783 L9.32156654,16.9509831 L9.32156654,30.2378162 Z" id="Shape"></path>
                                        <path d="M27.5079496,24.6456497 C26.5828496,25.9530663 24.1598997,29.1507996 21.5450664,30.5597162 L21.5450664,17.9154748 C22.144883,18.9133164 24.8964997,23.3648163 27.5079496,24.6456497 L27.5079496,24.6456497 Z" id="Shape"></path>
                                        <path d="M20.1337331,18.5585497 L20.1337331,30.2373329 L16.1496164,26.5258163 L16.1496164,22.3937997 L20.1337331,18.5585497 Z" id="Shape"></path>
                                        <path d="M3.92756661,31.0043829 L3.92756661,42.6589994 L0.46351666,39.4172828 L0.46351666,34.2456162 L3.92756661,31.0043829 Z" id="Shape"></path>
                                        <path d="M9.31866654,34.7410328 L9.31866654,38.9223495 L5.33406659,42.6333827 L5.33406659,31.0292746 L9.31866654,34.7410328 Z" id="Shape"></path>
                                        <path d="M14.7116998,31.0299996 L14.7116998,42.6348327 L10.7285499,38.8981828 L10.7285499,34.7661662 L14.7116998,31.0299996 Z" id="Shape"></path>
                                        <path d="M20.1313164,34.7661662 L20.1313164,38.8981828 L16.1471998,42.6343494 L16.1471998,31.0297579 L20.1313164,34.7661662 Z" id="Shape"></path>
                                        <path d="M25.524833,42.6589994 L21.540233,38.9223495 L21.540233,35.0382828 C22.9143497,34.1996995 24.2961997,32.6583495 25.5245913,31.0297579 L25.524833,42.6589994 Z" id="Shape"></path>
                                        <path d="M15.4304165,47.8055327 L19.6368664,43.8958494 L19.6368664,139.900348 C19.6368664,139.900348 19.9302497,144.664081 20.1317997,147.768531 C18.2612997,149.659331 11.2244498,156.774964 11.2244498,156.774964 L11.2244498,43.8702327 L15.4304165,47.8055327 Z" id="Shape"></path>
                                        <path d="M8.82228321,153.187665 C8.82228321,156.273748 3.18709996,163.469614 0.45916666,165.113914 L0.45916666,43.9229161 L4.61583327,47.8069827 L8.82228321,43.8970577 L8.82228321,153.187665 Z" id="Shape"></path>
                                    </g>
                                    <g id="Group" transform="translate(25.133333, 144.033331)" fill="#D10429">
                                        <path d="M26.526783,1.95073331 C26.526783,1.95073331 26.731233,2.96573329 26.996583,4.35144994 C25.682883,6.14751658 18.1365997,16.4463831 14.4023665,21.473533 C13.4738831,22.7224663 12.6942665,25.9023163 12.6942665,25.9023163 C12.6942665,25.9023163 11.3341665,25.2589996 11.3341665,24.096583 C11.3341665,22.9549497 11.4830332,21.5972664 11.4830332,21.5972664 C11.4830332,21.5972664 10.4675499,22.7601663 8.71111655,22.7601663 C8.71111655,21.3570497 11.4245498,19.8350331 11.5318498,17.8369331 C9.46269987,19.3710331 7.66566656,18.5836831 5.27219993,19.3217331 C2.6655833,20.1245497 1.93961664,21.219783 1.14018332,21.177733 C0.669416657,21.1521164 0.243116663,20.3401164 0.422916661,19.8413164 C0.734183323,18.9775997 3.95801661,16.5870331 6.21179991,16.1549331 C6.75168324,16.0514998 10.9982498,17.0790664 11.8537498,15.7590831 C15.3782165,10.3206165 21.0999164,1.49204998 21.651883,0.641383324 C22.0153497,0.554383326 22.3498164,0.46206666 22.6163747,0.293866663 C22.6163747,0.293866663 22.5837497,3.07351662 23.458583,4.05419994 L26.526783,1.95073331 Z" id="Shape"></path>
                                        <path d="M3.73133328,21.0017997 C3.90194995,21.1989997 3.88696661,21.488033 3.70571662,21.644633 L2.3204833,22.856833 C2.1392333,23.013433 1.84826664,22.980083 1.67764998,22.7823997 C1.50654998,22.5851997 1.52104998,22.2961664 1.70278331,22.139083 L3.08801662,20.926883 C3.17839996,20.8480997 3.29488329,20.8142664 3.40967495,20.828283 C3.52446662,20.841333 3.64529995,20.9027164 3.73133328,21.0017997 L3.73133328,21.0017997 Z" id="Shape"></path>
                                        <path d="M5.83431659,22.4614664 C6.24853325,22.9389997 6.22194991,23.6156663 5.78453325,23.9960497 L2.41956663,26.940033 C1.98166664,27.3208996 1.27551665,27.244533 0.860333321,26.767483 C0.44611666,26.2899496 0.47221666,25.588633 0.910116654,25.208733 L4.27508327,22.2889164 C4.43893327,22.1458497 4.6627166,22.0583664 4.86909993,22.041208 C5.21323326,22.012933 5.57476659,22.163733 5.83431659,22.4614664 L5.83431659,22.4614664 Z" id="Shape"></path>
                                        <path d="M7.76281656,24.7379663 C8.17703322,25.2154996 8.15093322,25.891683 7.71303323,26.2720663 L4.32389994,29.2165329 C3.88599995,29.5969163 3.20449996,29.5210329 2.78931663,29.0434996 C2.37461663,28.5664496 2.40119997,27.8651329 2.83958329,27.485233 L6.20406658,24.5654163 C6.36791658,24.422833 6.56656658,24.3353497 6.77343324,24.317708 C7.11708323,24.289433 7.50326656,24.4392663 7.76281656,24.7379663 L7.76281656,24.7379663 Z" id="Shape"></path>
                                        <path d="M8.92426654,26.544183 C9.2688832,26.5161496 9.63041653,26.641333 9.8894832,26.940033 C10.3041832,27.4175663 10.2775999,28.1188829 9.8401832,28.4987829 L6.47473324,31.4190829 C6.03683325,31.7994662 5.35533326,31.7230996 4.94063326,31.2455662 C4.52593327,30.7680329 4.5278666,30.0913662 4.96528326,29.7109829 L8.35538322,26.7669996 C8.51874988,26.623933 8.71739988,26.5606163 8.92426654,26.544183 L8.92426654,26.544183 Z" id="Shape"></path>
                                    </g>
                                </g>
                            </g>
                            <path d="M146.108281,16.2738331 C147.481431,16.8828331 148.742448,17.3763164 149.868131,17.7581498 C149.162948,18.3830997 148.614365,19.0109497 148.457765,19.5401997 C148.457765,19.5401997 150.806281,19.9751997 151.872031,21.9409164 C151.872031,21.9409164 149.639031,22.194183 149.274115,23.499183 C150.524981,23.593433 151.767631,25.1700663 151.773431,26.6915996 L148.606148,25.7012496 C148.606148,25.7012496 149.373198,29.2576163 149.373198,33.1242829 C149.373198,35.0991828 146.528298,37.4230495 146.528298,40.7701328 C146.528298,51.2748993 149.174548,55.3126659 151.056648,58.5601825 C151.792765,59.8308658 152.391131,61.2929491 153.629915,62.3954325 C148.207881,59.5084825 144.177848,55.8999159 144.177848,52.5479993 L144.177848,39.8546994 L142.767481,39.8546994 L142.767481,52.5479993 C142.767481,54.9786826 143.361015,56.1111326 143.361015,56.1111326 C144.212165,58.8003992 145.932831,62.9512658 146.998581,64.6226324 C142.010098,61.9265991 139.475981,58.5505159 139.475981,57.2986825 L139.475981,39.8542161 L138.065615,39.8542161 L138.065615,57.5456659 L138.337731,58.7578658 C137.733081,59.6665325 136.947181,60.7424325 136.407781,61.1083158 C135.869831,60.7429158 135.107615,59.6650825 134.501998,58.7578658 L134.774598,57.5456659 L134.774598,39.8542161 L133.364231,39.8542161 L133.364231,57.2986825 C133.364231,58.5500325 130.830115,61.9265991 125.842115,64.6226324 C126.907865,62.9507825 128.628048,58.8003992 129.478715,56.1111326 C129.478715,56.1111326 130.072732,54.9791659 130.072732,52.5479993 L130.072732,39.8546994 L128.662365,39.8546994 L128.662365,52.5479993 C128.662365,55.8960492 124.647315,59.5104158 119.234948,62.3954325 C120.461165,61.2919825 121.050832,59.8236158 121.783082,58.5601825 C123.841115,55.0086492 126.385382,50.4967326 126.385382,37.6521495 C126.385382,32.8313829 125.672465,29.5538996 124.430782,27.2599996 C124.053298,26.5030996 123.544832,24.4885663 126.434682,24.4885663 C127.931565,24.4885663 131.358882,27.1362663 131.358882,27.1362663 C131.358882,27.1362663 131.217748,25.0236163 129.478232,23.8205997 C129.189682,23.620983 128.711665,22.993133 128.711665,22.4097497 C128.711665,21.9728164 129.461315,20.8944997 130.047115,20.628183 C130.449732,20.445483 124.158665,19.3492831 124.158665,16.4961664 C124.158665,15.9021498 124.532282,15.5062998 125.840182,15.5062998 C127.553598,15.5062998 130.340982,17.5599831 132.818548,17.5599831 C134.649898,17.5599831 135.371998,17.1143498 137.247331,17.1143498 C139.539298,17.1143498 144.320915,21.4541997 145.956515,21.2956664 C144.128065,20.1477497 141.174415,15.8025831 136.703098,15.8025831 C135.151115,15.8025831 133.746548,16.1491331 132.297998,16.1491331 C130.441515,16.1491331 128.613548,14.4415165 126.607232,14.4415165 C125.262598,14.4415165 123.760882,14.5164331 123.538548,14.1689165 C123.149465,13.5623331 123.499882,13.2104665 123.860448,12.7092498 C124.541465,11.7633665 126.454015,11.4888332 128.339498,11.4230998 C128.904998,11.4032832 129.469532,11.3936165 129.99854,11.3986915 C130.525615,11.4042498 131.013298,11.4245498 131.434765,11.4245498 C136.972798,11.4245498 140.867981,13.9494831 146.108281,16.2738331 Z" id="Shape" fill="#B07F55"></path>
                            <path d="M117.577598,16.0026831 C118.812998,16.0026831 122.890398,15.9171331 122.890398,15.9171331 C123.433665,17.3289498 125.910748,19.6880997 125.910748,22.1414997 C125.910748,22.1414997 123.396448,17.6092831 116.377965,17.6092831 C114.614282,17.6092831 113.451865,18.2163497 113.451865,18.2163497 C113.451865,18.2163497 114.622015,16.0026831 117.577598,16.0026831 Z" id="Shape" fill="#CC092F"></path>
                            <path d="M123.044582,25.421883 C121.565098,24.8612163 118.985065,22.2023997 118.985065,22.2023997 L124.863848,23.0066663 C124.863848,23.0066663 123.369382,24.5813663 123.044582,25.421883 Z" id="Shape" fill="#D10429"></path>
                            <path d="M120.771465,17.7035331 C120.771465,16.9659664 121.609082,16.9659664 122.109815,17.5406498 C122.454432,17.9364997 122.495515,18.8359831 122.495515,18.8359831 C122.495515,18.8359831 120.771465,18.2825664 120.771465,17.7035331 Z" id="Shape" fill="#000000"></path>
                            <ellipse id="Oval" fill="#000000" cx="129.919032" cy="18.8789997" rx="2.47079997" ry="1.95411664"></ellipse>
                            <ellipse id="Oval" fill="#F5D402" cx="129.919998" cy="18.8789997" rx="1.72066664" ry="1.72066664"></ellipse>
                            <ellipse id="Oval" fill="#000000" cx="129.919515" cy="18.8789997" rx="0.730316656" ry="0.730316656"></ellipse>
                        </g>
                        <g transform="translate(41.083333, 100.049999)">
                            <g fill="#000000">
                                <rect id="Rectangle-path" transform="translate(52.446736, 104.102842) rotate(28.615032) translate(-52.446736, -104.102842) " x="47.9866089" y="99.6436666" width="8.92025406" height="8.91835001"></rect>
                                <path d="M13.0016665,13.8861665 L10.1809332,15.1732831 L42.0499994,84.9762821 L45.4400994,84.9762821 L13.0016665,13.8861665 Z M50.5866326,96.2074987 L48.285966,98.583082 L49.7209826,101.750365 L52.5165826,100.463732 L50.5866326,96.2074987 Z" id="Shape"></path>
                                <path d="M22.9051663,68.9233324 C22.9051663,68.9233324 25.5895996,74.4681323 27.6297496,75.2284156 C26.574633,74.9408323 23.1487663,76.1979823 23.1487663,76.1979823 C23.1487663,76.1979823 29.1899496,81.5943989 34.3137662,81.9486822 C38.6589328,82.2478655 40.7686828,80.0791489 40.7686828,80.0791489 L39.8981994,75.4758823 C39.8981994,75.4758823 37.2398661,72.2655823 32.9855662,70.7841657 C28.6867996,69.286799 22.9051663,68.9233324 22.9051663,68.9233324 Z" id="Shape"></path>
                                <path d="M38.4211328,65.8391824 C37.4061328,69.5149324 39.0823328,73.691899 39.0823328,73.691899 L42.1969327,79.5020489 C42.1969327,79.5020489 46.5135827,77.2047656 48.349766,73.7697156 C50.1859493,70.3341824 49.512666,65.6990158 49.512666,65.6990158 C49.512666,65.6990158 46.0930827,66.9721157 45.6580827,67.5356824 C46.3796994,63.7250824 43.1418494,58.9908325 43.1418494,58.9908325 C43.1418494,58.9908325 39.4356495,62.1639158 38.4211328,65.8391824 Z" id="Shape"></path>
                                <path d="M22.9186997,58.6853658 C19.0191664,58.4499825 15.7764831,55.1753992 15.7764831,55.1753992 C15.7764831,55.1753992 19.0090164,52.9878326 20.6044997,53.2792826 C18.8495164,52.6378993 16.3047664,48.2414993 16.3047664,48.2414993 C16.3047664,48.2414993 19.9210664,47.1486827 23.1274997,48.3574993 C26.333933,49.5672826 29.1300163,53.0796659 29.1300163,53.0796659 L31.2286496,57.5069992 C31.2286496,57.5069992 27.012533,58.9318658 22.9186997,58.6853658 Z" id="Shape"></path>
                                <path d="M34.2866995,42.7996494 L37.4157995,40.2162328 C37.4157995,40.2162328 38.9121995,47.2844993 37.4810495,51.6499659 C36.0503828,56.0149492 31.6936162,57.6771325 31.6936162,57.6771325 L26.887833,48.330916 C26.887833,48.330916 26.1724996,44.868316 27.6708329,42.1263661 C29.1696496,39.3844161 32.6781662,36.9165162 32.6781662,36.9165162 L34.2866995,42.7996494 Z" id="Shape"></path>
                                <path d="M13.9736498,26.6089496 C17.4584831,28.0555663 18.5266497,30.6848996 18.5266497,30.6848996 L20.2429664,35.2862328 C20.2429664,35.2862328 15.2834831,37.1460995 11.3650998,35.7241328 C7.44623323,34.3007162 4.5670166,29.5954663 4.5670166,29.5954663 C4.5670166,29.5954663 7.30558323,28.5567829 8.34813322,28.9463496 C6.8294999,28.2745163 5.24996659,25.3604996 5.24996659,25.3604996 C5.24996659,25.3604996 9.8053832,24.8819997 13.9736498,26.6089496 Z" id="Shape"></path>
                                <path d="M21.6393164,22.3415997 C22.172433,20.7712497 24.6688497,19.0355997 24.6688497,19.0355997 C24.6688497,19.0355997 27.2363163,25.2488496 26.6727496,29.6602329 C26.109183,34.0720995 22.4150664,36.6816162 22.4150664,36.6816162 L17.8084164,27.9371496 C17.8084164,27.9371496 16.3071831,24.353233 16.7494331,21.5730997 C17.1921664,18.7939331 19.5798331,16.8190331 19.5798331,16.8190331 C19.5798331,16.8190331 21.579383,19.3879497 21.6393164,22.3415997 Z" id="Shape"></path>
                                <path d="M3.79899995,0.0966666653 C3.79899995,0.0966666653 2.97298329,4.85943327 4.37851661,7.60283323 C5.63421659,10.0509165 6.43364991,10.5878999 6.43364991,10.5878999 C4.03921661,9.00788321 0.419049994,8.87158321 0.419049994,8.87158321 C0.419049994,8.87158321 1.70761664,14.0533998 4.78693327,16.4173831 C7.86624989,18.7813664 12.6145165,18.2289164 12.6145165,18.2289164 C12.6145165,18.2289164 15.7368498,14.0722498 15.5193498,9.59416653 C15.3023331,5.11608326 11.7454832,0.315616662 11.7454832,0.315616662 C11.7454832,0.315616662 10.3428499,3.22528329 10.2191165,5.39738326 C9.31141654,3.15809996 3.79899995,0.0966666653 3.79899995,0.0966666653 Z" id="Shape"></path>
                                <path d="M41.0156661,79.8804989 L41.1437494,81.5900489 C43.9833327,81.6166322 44.4062494,81.3338822 45.1341494,82.2290155 C45.6189327,82.8254488 46.772166,83.3459988 47.9311993,82.8162655 C49.0911993,82.2870155 49.6107826,80.8940489 49.0815326,79.7345322 C48.5522827,78.5750156 47.473966,78.3231989 46.4352827,78.5281322 C45.797766,78.6537989 45.3782327,79.1627489 44.8373827,79.4421156 C43.8088494,79.9747489 41.0146994,79.8809822 41.0146994,79.8809822 L41.0156661,79.8804989 Z" id="Shape"></path>
                                <path d="M40.7691661,78.5754989 L42.1510161,79.5880822 C40.6686328,82.0115155 40.2060828,82.2203155 40.5796994,83.3121655 C40.8286161,84.0390988 40.6599328,85.2923821 39.5961161,85.9961155 C38.5327828,86.6993655 37.0760161,86.4025988 36.3727662,85.3397488 C35.6699995,84.2764155 36.0271828,83.2295155 36.7512162,82.4566655 C37.1958828,81.9820322 37.8483828,81.8959989 38.3718328,81.5852155 C39.3684661,80.9940989 40.7686828,78.5750156 40.7686828,78.5750156 L40.7691661,78.5754989 Z" id="Shape"></path>
                                <path d="M31.1508329,58.2754992 L31.2784329,59.9850492 C34.1184995,60.0111492 34.5409329,59.7288825 35.2688328,60.6235325 C35.7531328,61.2194825 36.9068495,61.7405158 38.0658828,61.2107825 C39.2263661,60.6815325 39.7459494,59.2890492 39.2157328,58.1295325 C38.6864828,56.9695325 37.6086495,56.7181992 36.5699662,56.9231325 C35.9319662,57.0492825 35.5129162,57.5577492 34.9725495,57.8371159 C33.9435329,58.3692659 31.1498662,58.2759825 31.1498662,58.2759825 L31.1508329,58.2754992 Z" id="Shape"></path>
                                <path d="M31.7259996,58.8796658 L32.9343329,60.0962158 C31.0933162,62.2586491 30.6027329,62.3934991 30.8023496,63.5298158 C30.9357496,64.2871991 30.5737329,65.4993991 29.4132496,66.0286491 C28.2537329,66.5578991 26.861733,66.0387991 26.3315163,64.8787991 C25.8022663,63.7192824 26.317983,62.7400491 27.1536663,62.0894825 C27.6664829,61.6907325 28.3257496,61.7061991 28.8902829,61.4814491 C29.9666662,61.0527325 31.7259996,58.8801492 31.7259996,58.8801492 L31.7259996,58.8796658 Z" id="Shape"></path>
                                <path d="M21.5904997,38.0479995 L21.718583,39.7575494 C24.5586497,39.7836494 24.981083,39.5013828 25.7094663,40.3969994 C26.1942496,40.9919828 27.3469996,41.5130161 28.5069996,40.9832828 C29.6660329,40.4540328 30.1860996,39.0620328 29.6568496,37.9010661 C29.1266329,36.7415495 28.0492829,36.4902162 27.0101163,36.6951495 C26.3721163,36.8212995 25.9530663,37.3297661 25.4122163,37.6091328 C24.383683,38.1417661 21.5900164,38.0475161 21.5900164,38.0475161 L21.5904997,38.0479995 Z" id="Shape"></path>
                                <path d="M22.378333,37.6903328 L23.586183,38.9063995 C21.7451664,41.0693161 21.2555497,41.2041661 21.4541997,42.3404827 C21.5875997,43.0973827 21.225583,44.3095827 20.0655831,44.8388327 C18.9060664,45.3675994 17.5135831,44.8484994 16.9838498,43.6889827 C16.4550831,42.5289827 16.9707998,41.5497494 17.8059998,40.8996661 C18.3188164,40.4999494 18.9775997,40.5163828 19.5430997,40.2906661 C20.619483,39.8619494 22.378333,37.6903328 22.378333,37.6903328 L22.378333,37.6903328 Z" id="Shape"></path>
                                <path d="M11.4066665,16.6943331 L11.5342665,18.4033997 C14.3743331,18.4299831 14.7972498,18.1472331 15.5246665,19.0418831 C16.0099331,19.6383164 17.1631664,20.1588664 18.3221997,19.6300997 C19.4821997,19.0998831 20.0017831,17.7078831 19.4725331,16.5478831 C18.9432831,15.3878831 17.8649664,15.1360665 16.8257998,15.3414831 C16.1887664,15.4676331 15.7692331,15.9765831 15.2283831,16.2554664 C14.1998498,16.7876164 11.4056998,16.6943331 11.4056998,16.6943331 L11.4066665,16.6943331 Z" id="Shape"></path>
                                <path d="M12.1944998,16.3366664 L13.4018665,17.5532164 C11.5613332,19.7161331 11.0707498,19.8504997 11.2703665,20.9872997 C11.4037665,21.7441997 11.0412665,22.9563997 9.88174986,23.4856497 C8.72174988,24.0148997 7.3297499,23.4957997 6.80049991,22.3357997 C6.27076658,21.176283 6.78696657,20.1960831 7.62168323,19.5464831 C8.13498322,19.1477331 8.79376654,19.1631997 9.3587832,18.9374831 C10.4346832,18.5092497 12.1940165,16.3371498 12.1940165,16.3371498 L12.1944998,16.3366664 Z" id="Shape"></path>
                            </g>
                            <g transform="translate(13.533333, 20.300000)" fill="#F5D402">
                                <rect id="Rectangle-path" transform="translate(38.915381, 83.807488) rotate(28.615032) translate(-38.915381, -83.807488) " x="36.1489845" y="81.0414641" width="5.53279378" height="5.53204777"></rect>
                                <path d="M15.8146664,32.9101662 C14.7967665,33.3325995 13.2868331,28.9009163 12.1780665,26.473133 C11.0407832,23.9815497 8.73141654,20.1414664 9.38729987,19.8417997 C10.1069832,19.5131331 11.0552832,21.5295997 12.2191498,24.079183 C13.3830165,26.6277996 16.7682831,32.5128662 15.8146664,32.9091995 L15.8146664,32.9101662 Z" id="Shape"></path>
                                <path d="M5.36016659,9.56999987 C4.34274994,9.99388319 3.22866662,7.0919499 2.1203833,4.66368327 C0.983099986,2.1725833 -0.124699998,0.412766661 0.531183326,0.113099998 C1.25134998,-0.215566664 2.3146833,1.96764997 3.24558329,4.00634994 C4.14748328,5.98221658 6.31378325,9.17318321 5.35968326,9.5704832 L5.36016659,9.56999987 Z" id="Shape"></path>
                                <path d="M29.5461663,62.4901658 C28.7472163,62.7037991 25.259483,55.4035326 22.4397164,49.2265326 C19.6204331,43.0500161 17.5208331,38.0523495 18.1767164,37.7541328 C18.8968831,37.4249828 21.1796664,43.2597827 24.0003997,49.437266 C26.8206496,55.6147492 30.1450162,62.3292158 29.5466496,62.4901658 L29.5461663,62.4901658 Z" id="Shape"></path>
                            </g>
                            <g transform="translate(2.416667, 2.900000)" id="Shape" fill="#097754">
                                <path d="M2.78399996,0.0918333321 C2.78399996,0.0918333321 2.66074996,3.57231662 3.81204995,5.54624992 C4.96383326,7.5211499 7.53564989,8.30849988 7.53564989,8.30849988 C7.53564989,8.30849988 7.65841656,4.82898327 6.50711658,2.85504996 C5.35533326,0.880149988 2.78399996,0.0918333321 2.78399996,0.0918333321 Z"></path>
                                <path d="M0.376999995,7.96533322 C0.376999995,7.96533322 3.40024995,8.14319989 5.14653326,9.48106653 C6.89136657,10.8189332 7.56754989,13.6063165 7.56754989,13.6063165 C7.56754989,13.6063165 5.56364992,13.8097998 3.81881661,12.4719332 C2.07349997,11.1335832 0.376999995,7.96533322 0.376999995,7.96533322 Z"></path>
                                <path d="M8.97549987,5.72846659 C9.09101654,8.21424989 10.5414999,11.0146832 10.5414999,11.0146832 C10.5414999,11.0146832 11.8527832,8.03058322 11.7372665,5.54431659 C11.6222332,3.05853329 10.2162165,1.64139998 9.8648332,0.937666654 C9.8648332,0.937666654 8.85949988,3.24316662 8.97549987,5.72846659 Z"></path>
                                <path d="M8.54484988,26.5475663 C10.8300498,27.6771163 14.2351331,27.7191663 14.2351331,27.7191663 C14.2351331,27.7191663 12.5357332,25.5141996 10.2500499,24.3841663 C7.96484989,23.2546163 4.77533327,23.344033 4.77533327,23.344033 C4.77533327,23.344033 6.25964991,25.417533 8.54484988,26.5475663 Z"></path>
                                <path d="M8.59559988,31.2117329 C10.5912832,32.1281329 14.6730331,32.0527329 14.6730331,32.0527329 C14.6730331,32.0527329 13.1070332,30.0560829 11.1118332,29.1396829 C9.11663321,28.2227996 5.50951659,28.1589996 5.50951659,28.1589996 C5.50951659,28.1589996 6.60088324,30.2958162 8.59559988,31.2117329 Z"></path>
                                <path d="M15.9108498,20.9505664 C16.0292664,23.1473163 17.4705664,25.5475496 17.4705664,25.5475496 C17.4705664,25.5475496 18.4841164,22.795933 18.3656997,20.5996664 C18.2477664,18.4029164 16.9983498,16.7619998 16.9983498,16.7619998 C16.9983498,16.7619998 15.7929164,18.7547831 15.9108498,20.9505664 Z"></path>
                                <path d="M21.4406664,19.5798331 C21.4406664,19.5798331 19.3773164,22.349333 19.0810331,25.1966496 C18.7847497,28.0434829 20.2545664,30.9686162 20.2545664,30.9686162 C20.2545664,30.9686162 22.7471163,28.4659163 23.0433997,25.619083 C23.339683,22.771283 21.4406664,19.5798331 21.4406664,19.5798331 Z"></path>
                                <path d="M15.7518331,45.873166 C15.7518331,45.873166 15.9997831,46.896866 16.8620498,47.9838827 C17.7238331,49.071866 19.1994497,50.2226826 19.1994497,50.2226826 C19.1994497,50.2226826 20.6247997,49.7644826 22.3966997,50.147766 C24.1681163,50.532016 26.5243663,52.1100993 26.5243663,52.1100993 C26.5243663,52.1100993 23.9883163,48.325116 21.3551164,46.853366 C18.7219164,45.3825827 15.7518331,45.873166 15.7518331,45.873166 Z"></path>
                                <path d="M21.477883,51.338216 C24.182133,51.7002326 26.6200663,53.8375326 26.6200663,53.8375326 C26.6200663,53.8375326 22.965583,55.1019326 20.2618164,54.7403992 C17.5570831,54.3783826 15.4903498,52.3788326 15.4903498,52.3788326 C15.4903498,52.3788326 18.7741164,50.9761993 21.477883,51.338216 Z"></path>
                                <path d="M26.2203496,42.8605494 C25.977233,45.529516 28.5746663,48.0172327 28.5746663,48.0172327 C28.5746663,48.0172327 28.4470663,46.305266 28.8941496,45.1781327 C29.3417163,44.0509994 30.2924329,42.8474994 30.2924329,42.8474994 C30.2924329,42.8474994 30.6974662,41.4733828 30.5408662,40.3713828 C30.3219162,38.8314828 29.3673329,37.1151661 29.3673329,37.1151661 C29.3673329,37.1151661 26.4639496,40.1910994 26.2203496,42.8605494 Z"></path>
                                <path d="M30.0739662,46.4115994 C29.3504163,49.3768493 30.6394662,52.5383326 30.6394662,52.5383326 C30.6394662,52.5383326 33.1281495,50.5750326 33.8516995,47.610266 C34.5752495,44.645016 33.5331829,40.6773328 33.5331829,40.6773328 C33.5331829,40.6773328 30.7970329,43.4463494 30.0739662,46.4115994 Z"></path>
                                <path d="M41.9412494,63.3036158 C42.2563827,65.4674991 41.9644494,66.2166657 41.9644494,66.2166657 C41.9644494,66.2166657 40.6826494,67.4767157 40.1079661,68.2176657 C39.3694328,69.1698324 39.2611661,70.9127323 39.2611661,70.9127323 C39.2611661,70.9127323 36.6874162,67.0866657 37.0842328,64.2896158 C37.4805661,61.4930491 40.3873328,58.5505159 40.3873328,58.5505159 C40.3873328,58.5505159 41.6270828,61.1392491 41.9412494,63.3036158 Z"></path>
                                <path d="M41.2075494,68.948949 C39.8986828,71.180499 40.5772828,73.4676323 40.5772828,73.4676323 C40.5772828,73.4676323 42.9253161,73.2607656 44.2341827,71.0287323 C45.5420827,68.796699 45.8098494,64.5390158 45.8098494,64.5390158 C45.8098494,64.5390158 42.5149661,66.7159491 41.2075494,68.948949 Z"></path>
                                <path d="M31.8091329,74.316849 C34.7120328,75.0297656 35.7685995,76.5860989 35.7685995,76.5860989 C35.7685995,76.5860989 32.5046495,78.1143989 29.6017496,77.4009989 C26.6988496,76.6880823 24.1565163,73.7320156 24.1565163,73.7320156 C24.1565163,73.7320156 28.9062329,73.6029656 31.8091329,74.316849 Z"></path>
                                <path d="M28.2672663,72.6242157 C32.0846329,74.2844656 36.5047162,73.4797156 36.5047162,73.4797156 C36.5047162,73.4797156 34.1035162,70.536699 30.7994496,69.237499 C27.4944163,67.9387824 23.3546663,68.0973157 23.3546663,68.0973157 C23.3546663,68.0973157 25.497283,71.4187823 28.2672663,72.6242157 Z"></path>
                            </g>
                            <path d="M188.374331,5.77293325 L188.993481,7.08373323 C188.993481,7.08373323 187.988147,7.42883323 187.532847,8.32058322 C187.078514,9.21329987 187.830097,10.4738332 187.830097,10.4738332 C187.830097,10.4738332 182.608164,10.0180499 181.792781,10.5482665 C181.054247,11.0267665 182.105497,14.6440331 181.619264,17.6991831 C180.941631,21.9573497 179.263014,21.599683 179.194381,22.424733 C179.127681,23.226583 179.837697,24.4784163 179.837697,24.4784163 C179.837697,24.4784163 178.858464,24.786783 178.649664,25.1961663 C178.313748,25.8544663 178.883598,27.069083 178.476631,27.8680329 C176.204964,32.3258162 172.850631,38.9054328 170.633098,43.2588161 C170.323281,43.8663661 169.490981,44.0983661 169.073864,44.9166494 C168.689131,45.671616 168.999914,46.772166 168.999914,46.772166 C168.999914,46.772166 167.530098,46.8601327 167.020181,47.861116 C166.478364,48.9244493 166.797364,50.3599493 166.797364,50.3599493 C166.797364,50.3599493 165.867914,50.4788493 165.411164,51.374466 C164.923481,52.3319493 165.749498,52.8341326 165.536348,53.2551159 C162.554664,59.1044158 159.043248,65.9996491 156.900631,70.204649 C156.112314,71.7508323 153.353931,72.060649 151.753131,75.202799 C150.199698,78.2506989 152.421098,80.4977155 152.421098,80.4977155 C152.421098,80.4977155 150.114631,80.7065155 149.501765,81.9085655 C148.877298,83.1338155 149.371265,84.9941655 151.035865,85.8424155 C152.700465,86.6901821 154.519248,86.0038488 155.144198,84.7785988 C155.756581,83.5765488 154.525048,81.5866655 154.525048,81.5866655 C154.525048,81.5866655 157.648831,82.0366489 159.201298,78.9882656 C160.802581,75.8461156 159.452631,73.458449 160.240464,71.9117823 C162.383564,67.7067824 165.895464,60.8120325 168.876181,54.9622492 C169.091264,54.5412659 169.971898,54.9056992 170.459581,53.9482159 C170.915848,53.0525993 170.459581,52.2410826 170.459581,52.2410826 C170.459581,52.2410826 171.823548,51.6465826 172.365364,50.582766 C172.875764,49.5817826 172.093248,48.3313993 172.093248,48.3313993 C172.093248,48.3313993 173.167698,47.9485993 173.552914,47.1936327 C173.969548,46.3753494 173.663114,45.574466 173.972931,44.9659494 C176.191431,40.6130494 179.546247,34.0329495 181.816947,29.5761329 C182.224397,28.7762163 183.535197,28.5026496 183.870631,27.8433829 C184.079431,27.434483 183.747381,26.4581496 183.747381,26.4581496 C183.747381,26.4581496 185.191581,26.315083 185.800581,25.7896996 C186.427947,25.249333 185.154364,24.0902997 188.201297,21.0390164 C190.386931,18.8504831 193.912847,17.5628831 193.866931,16.6841831 C193.816181,15.7126831 190.378231,11.7604665 190.378231,11.7604665 C190.378231,11.7604665 191.828714,11.6381832 192.283531,10.7464332 C192.738347,9.85419986 192.432397,8.81599988 192.432397,8.81599988 L193.866931,8.56853321 L193.867172,1.76416664 L188.374331,5.77293325 Z M140.941931,100.542032 C140.725398,100.965915 140.685765,101.545432 140.941931,102.050515 C140.941931,102.050515 139.210148,101.509182 138.616131,101.803049 C138.056431,102.079999 138.616131,110.241082 138.616131,110.241082 C138.616131,110.241082 145.525381,105.882382 145.420015,105.267582 C145.308848,104.614115 143.861265,103.510665 143.861265,103.510665 C144.420965,103.420765 144.857415,103.069865 145.073948,102.645015 C145.301115,102.197932 145.331565,100.920482 143.762181,100.120565 C143.174448,99.8208986 142.650998,99.7319653 142.22784,99.7744986 C141.524348,99.8455486 141.084515,100.262665 140.941931,100.542032 L140.941931,100.542032 Z" id="Shape" fill="#000000"></path>
                            <g transform="translate(139.199998, 3.383333)" id="Shape" fill="#F5D402">
                                <path d="M50.4309993,2.66316663 L53.6968826,4.32148327 L53.6480659,0.386908328 L50.4309993,2.66316663 Z"></path>
                                <path d="M49.1694993,5.03874993 C48.749966,5.86234992 49.157416,6.91698324 50.0849326,7.3891999 C51.0129326,7.86141656 52.0897993,7.56948323 52.5102993,6.74636657 C52.9298326,5.92276658 52.5214159,4.8686166 51.5943826,4.39591661 C51.2463826,4.21853327 50.8809826,4.14893328 50.5303243,4.17285828 C49.9466993,4.21273327 49.4319493,4.52399994 49.1694993,5.03874993 L49.1694993,5.03874993 Z"></path>
                                <path d="M43.5778161,13.6986331 C43.4840494,16.0582664 42.7290827,16.7228498 42.3158327,17.5338831 C41.9344827,18.2825664 40.5593994,19.1670664 40.5593994,19.1670664 L41.6971661,20.3053164 C41.6971661,20.3053164 42.4376327,19.1520831 43.6024661,16.8649498 C44.9765827,14.1684331 44.932116,9.28241654 45.335216,9.02189987 C45.6856327,8.79521654 48.5517993,8.08133322 48.5517993,8.08133322 C48.551316,8.08133322 45.9214994,7.93923322 44.4690827,7.95832489 C43.9842994,7.96436656 43.6329161,7.98128322 43.5531661,8.03299989 C43.2095161,8.25533322 43.6768994,11.1964165 43.5778161,13.6986331 Z"></path>
                                <path d="M43.8528327,21.617083 C43.8528327,21.617083 44.2332161,20.5595497 45.5604494,17.9548664 C47.160766,14.8136831 50.576966,12.5352498 50.656716,11.9668498 C50.7398493,11.3810498 49.4694076,8.62677488 49.4694076,8.62677488 C49.4694076,8.62677488 46.4555827,9.20459987 46.0292827,9.6168832 C45.6174827,10.0146665 45.799216,14.0959331 44.1984161,17.2375998 C42.8721494,19.8417997 42.2196494,20.800733 42.2196494,20.800733 L43.8528327,21.617083 Z"></path>
                                <path d="M46.2274494,18.2018497 C45.062616,20.4884997 44.569616,21.7654664 44.569616,21.7654664 L46.1534994,22.012933 C46.1534994,22.012933 46.044266,20.3855497 46.425616,19.6373497 C46.8383827,18.8267997 46.9471327,17.8340331 48.8011993,16.3714664 C50.7673993,14.8204498 53.4252493,13.4646998 53.4034993,13.0553165 C53.3836826,12.6773498 50.434141,9.02238321 50.434141,9.02238321 C50.434141,9.02238321 51.5247826,11.7735165 51.5474993,12.1896665 C51.5726326,12.6676832 47.6020493,15.5058165 46.2274494,18.2018497 Z"></path>
                                <path d="M39.9184994,29.8313329 C42.3042327,25.1487996 43.0330994,24.8297997 43.3332494,24.2396497 C43.6565994,23.6055163 43.5792661,22.7519497 42.5168994,22.210133 C42.1186327,22.0076164 41.7769161,21.9558997 41.4779744,21.988283 C40.9784494,22.041933 40.6154661,22.3589997 40.4139161,22.7548497 C40.1132828,23.345483 40.2761661,24.1347663 37.8894661,28.8177829 L32.4703329,39.4322661 C32.4703329,39.4322661 31.9024162,40.4743328 32.9652662,41.0156661 C34.0281162,41.5565161 34.4993662,40.4709494 34.4993662,40.4709494 L39.9184994,29.8313329 Z"></path>
                                <path d="M30.3436662,42.0055327 C30.0483496,42.5860161 30.5543996,43.4381327 31.4819162,43.9113161 C32.4094329,44.3830494 33.4133162,44.2936327 33.7086329,43.7131494 C34.0039495,43.1331494 33.4737329,42.2805494 32.5457329,41.8073661 C32.0822162,41.5710161 31.6104829,41.4753161 31.2095579,41.5110828 C30.8086329,41.5458828 30.4915662,41.7160161 30.3436662,42.0055327 L30.3436662,42.0055327 Z"></path>
                                <path d="M28.3378329,45.0239494 C27.9550329,45.774566 28.5519496,46.8523993 29.6742496,47.4251493 C30.7965496,47.9969327 32.0135829,47.8533827 32.3958995,47.102766 C32.7786995,46.351666 32.1812996,45.2747994 31.0594829,44.7020494 C30.6384996,44.488416 30.2218662,44.3748327 29.8223913,44.3559827 C29.1580496,44.324566 28.5770829,44.5546327 28.3378329,45.0239494 L28.3378329,45.0239494 Z"></path>
                                <path d="M27.076333,48.3898827 C26.7810163,48.9693993 27.2875496,49.8219993 28.2145829,50.2946993 C29.1420996,50.7673993 30.1454996,50.677016 30.4417829,50.097016 C30.7370996,49.517016 30.2305662,48.664416 29.3035329,48.191716 C28.8395329,47.9548827 28.3436329,47.8591827 27.9427079,47.894466 C27.5422663,47.9297493 27.2247163,48.0993993 27.076333,48.3898827 L27.076333,48.3898827 Z"></path>
                                <path d="M18.1201664,67.6149491 C17.4415664,68.946049 14.5860331,69.775449 13.4680831,71.9702657 C12.3419165,74.1781323 13.1365165,76.2448656 14.6058498,76.9930656 C16.0746998,77.7417489 18.2318164,77.1975156 19.3570164,74.9891656 C20.4749664,72.7948323 19.4705997,69.9852157 20.1482331,68.654599 C22.2715164,64.4863324 28.2890163,52.6456326 28.2890163,52.6456326 C28.2890163,52.6456326 28.8815829,51.6035659 27.8187329,51.0622326 C27.5528996,50.9268993 27.3218663,50.913366 27.1261163,50.938741 C26.5403163,51.0138993 26.2594996,51.6064659 26.2594996,51.6064659 C26.2594996,51.6064659 20.2429664,63.4481324 18.1201664,67.6149491 Z"></path>
                                <path d="M11.0393332,79.0955656 C10.5883832,79.9800656 11.1040998,81.1589155 12.2017498,81.7181322 C13.2998831,82.2778322 14.5720165,82.0086155 15.0229665,81.1245989 C15.4739165,80.2400989 14.9330665,79.0607656 13.8354165,78.5015489 C13.4236165,78.2912989 13.0035998,78.1936656 12.5980832,78.2050239 C11.9218998,78.2241156 11.3206332,78.5431156 11.0393332,79.0955656 L11.0393332,79.0955656 Z"></path>
                                <path d="M3.02421662,97.1833486 C2.68104996,97.1949486 2.39684997,97.3036986 2.28229997,97.5298986 C2.05174997,97.9818153 2.5278333,98.696182 3.34611662,99.1132986 C4.16439994,99.5299319 5.02038326,99.4912653 5.25141659,99.0388653 C5.48196659,98.585982 5.0049166,97.8720986 4.18759994,97.4554653 C3.77821661,97.2466653 3.36834995,97.1712653 3.02421662,97.1828653 L3.02421662,97.1833486 Z"></path>
                                <path d="M0.20348333,105.249215 L4.95464993,101.834465 C4.95464993,101.834465 4.31036661,100.696699 2.90048329,99.9784653 C1.49059998,99.2607153 0.20348333,99.4090986 0.20348333,99.4090986 L0.20348333,105.249215 Z"></path>
                            </g>
                        </g>
                        <g transform="translate(85.066665, 66.216666)">
                            <path d="M98.4274486,6.57188324 C98.4274486,3.36931662 102.633899,0.212666664 102.633899,0.212666664 L0.0483333327,0.212666664 C0.0483333327,0.212666664 4.25478327,3.36883329 4.25478327,6.57188324 L4.25478327,82.9317822 C4.25478327,84.9434155 4.87634993,86.2532488 5.86331658,87.5335988 C6.8497999,88.9125488 8.95181654,90.8178487 11.1330998,92.234982 C17.8707664,96.6105987 29.1353329,101.224499 37.6584328,105.101799 C44.7605327,108.332398 47.649416,109.635948 51.341116,114.207315 C55.0332992,109.635948 57.9468325,108.332882 65.0489324,105.101799 C73.5705823,101.224982 84.8356322,96.6105987 91.5737821,92.234982 C93.756032,90.8178487 95.8580487,88.9130321 96.8440487,87.5335988 C97.8310153,86.2532488 98.4274486,84.9434155 98.4274486,82.9317822 L98.4274486,6.57188324 Z" id="Shape" fill="#F5D402"></path>
                            <path d="M6.67966657,49.7741493 L6.67966657,6.57139991 C6.67966657,4.12621661 5.44209159,2.63754996 5.44209159,2.63754996 L97.2406236,2.63754996 C97.2406236,2.63754996 96.0032903,4.12669994 96.0032903,6.57139991 L96.0293903,49.7741493 L51.3546493,63.3074825 L6.67966657,49.7741493 Z" id="Shape" fill="#D10429"></path>
                            <path d="M96.0291487,49.7741493 L68.366049,49.254566 L34.3427662,49.254566 L6.67966657,49.7741493 L6.67966657,82.9312988 C6.67966657,84.5978322 8.40903322,88.5017154 18.3835831,93.4713487 C34.8705662,101.687049 47.5430827,105.522782 51.3415993,110.198065 C55.1396326,105.522782 67.8121491,101.686565 84.2996155,93.4713487 C94.273682,88.5017154 96.0030487,84.5978322 96.0030487,82.9312988 L96.0291487,49.7741493 Z" id="Shape" fill="#0B45BB"></path>
                            <g transform="translate(6.283333, 3.383333)" id="Shape" fill="#000000">
                                <path d="M61.4137825,44.6604827 C61.4137825,44.6604827 77.3729656,40.6362494 77.3729656,23.578933 C77.3729656,10.2568165 61.3731825,3.64771662 60.9183658,0.468833327 C59.3547825,5.96964992 66.2630657,13.5671665 66.2630657,22.5644164 C66.2630657,34.2059829 57.6771325,34.7632662 57.6771325,34.7632662 C55.6679159,34.7632662 54.8539826,36.1977995 54.0642159,36.1977995 C52.3739993,36.0213828 51.5784326,33.8715162 49.907066,33.8715162 C48.3376827,33.8715162 47.1327327,36.2963995 45.0577827,36.2963995 C42.9833161,36.2963995 41.8025328,33.8715162 40.2326661,33.8715162 C38.5622661,33.8715162 37.7662161,36.0213828 36.0759995,36.1977995 C35.2862328,36.1977995 34.4718162,34.7632662 32.4625995,34.7632662 C32.4625995,34.7632662 23.8771497,34.2059829 23.8771497,22.5644164 C23.8771497,13.5671665 30.7863996,5.96868325 29.2218496,0.468833327 C28.7684829,3.64771662 12.7686998,10.2563332 12.7686998,23.578933 C12.7686998,40.6362494 28.7278829,44.6604827 28.7278829,44.6604827 L24.174883,52.9491659 C24.174883,52.9491659 30.7699662,53.2792826 34.2702662,56.2653159 C38.4912161,59.8651825 38.0803828,67.4926657 38.0803828,73.0413323 C38.0803828,77.4130823 37.5279328,82.0264989 35.2847828,83.9279322 C32.2726496,86.4818655 30.2363662,86.6708488 30.2363662,89.6689654 C30.2363662,92.169732 32.1585829,92.6709487 35.2847828,94.3210487 C39.2901661,96.4346653 39.1035995,99.2694153 45.0577827,99.2694153 C51.0129326,99.2694153 50.8505326,96.4351487 54.8563992,94.3210487 C57.9825992,92.6709487 59.9043325,92.169732 59.9043325,89.6689654 C59.9043325,86.6708488 57.8675659,86.4818655 54.8563992,83.9279322 C52.6132493,82.0255322 52.0607993,77.4125989 52.0607993,73.0413323 C52.0607993,67.4926657 51.6504493,59.8651825 55.8709159,56.2653159 C59.3716992,53.2797659 65.9658157,52.9491659 65.9662991,52.9491659 L61.4137825,44.6604827 Z"></path>
                                <path d="M45.0563327,1.65299998 L42.2844161,9.52214987 L34.7376495,5.93388325 L38.3254328,13.4811331 L30.4572496,16.2767331 L38.3254328,19.0728164 L34.7376495,26.594933 L42.2844161,23.0071497 L45.0563327,30.8753329 L47.852416,23.0071497 L55.3991826,26.594933 L51.8118826,19.0728164 L59.6800658,16.2767331 L51.8118826,13.4811331 L55.3991826,5.93388325 L47.852416,9.52214987 L45.0563327,1.65299998 L45.0563327,1.65299998 Z"></path>
                                <path d="M14.5231998,38.5985161 C8.08858322,44.386916 0.394399995,46.3927494 0.394399995,46.3927494 C0.394399995,46.3927494 8.42111655,50.0167826 14.5231998,54.6326159 C17.3347498,50.6035493 28.0574996,45.873166 28.0574996,45.873166 C28.0574996,45.873166 18.2037831,43.4642327 14.5231998,38.5985161 Z"></path>
                                <path d="M75.6145989,54.6326159 C81.7157155,50.0167826 89.7419487,46.3927494 89.7419487,46.3927494 C89.7419487,46.3927494 82.0487322,44.3864327 75.6145989,38.5985161 C71.9340157,43.4637494 62.0793325,45.873166 62.0793325,45.873166 C62.0793325,45.873166 72.8025657,50.603066 75.6145989,54.6326159 Z"></path>
                                <path d="M32.0933329,56.3614992 L28.2580829,60.1962658 L32.0933329,64.0315158 L35.9285828,60.1962658 L32.0933329,56.3614992 L32.0933329,56.3614992 Z"></path>
                                <path d="M58.0483325,56.3614992 L54.2135659,60.1962658 L58.0483325,64.0315158 L61.8835825,60.1962658 L58.0483325,56.3614992 L58.0483325,56.3614992 Z"></path>
                                <path d="M31.1281162,78.7543322 C31.1281162,83.5997488 30.6583162,86.1527155 30.6583162,86.1527155 C30.6583162,86.1527155 36.0648828,84.5610988 37.1417495,79.0762322 C37.6463495,76.5048989 38.2084661,67.0325324 35.6071662,65.4177158 L28.5555746,64.0319991 C29.3170663,65.9165157 31.1281162,71.7542157 31.1281162,78.7543322 L31.1281162,78.7543322 Z"></path>
                                <path d="M54.5340159,65.4181991 C51.9331993,67.0325324 52.4953159,76.5048989 52.9999159,79.0767156 C54.0762992,84.5615822 59.4828658,86.1531988 59.4828658,86.1531988 C59.4828658,86.1531988 59.0130658,83.6002322 59.0130658,78.7548156 C59.0130658,71.754699 60.8241158,65.9165157 61.5865741,64.0322408 L54.5340159,65.4181991 Z"></path>
                                <path d="M14.5024165,65.6922491 C12.0707665,66.3022157 10.6014332,68.7783324 11.2118832,71.2099823 C11.3051665,71.582149 11.4588665,71.925799 11.6323832,72.249149 C11.2780998,72.1312157 10.9083498,72.0529157 10.5187832,72.0263323 C10.3626665,72.015699 10.2021999,72.0210157 10.0489832,72.0263323 C7.74783323,72.1036657 5.82948325,73.9127823 5.66949992,76.2579156 C5.49839992,78.7586822 7.3993499,80.9119322 9.9010832,81.0830322 C10.2742165,81.1081655 10.6371999,81.0946322 10.9890665,81.0332489 C10.7739832,81.3285655 10.5878999,81.6436989 10.4453165,81.9979822 C9.50909987,84.3242655 10.6429999,87.0009655 12.9692832,87.9371821 C15.2950831,88.8724321 17.9466497,87.7143654 18.8823831,85.3885655 C19.0254497,85.0333155 19.1051997,84.6867655 19.1549831,84.3242655 C19.3690997,84.6215155 19.6267164,84.8941155 19.9215497,85.1406155 C21.844733,86.7491488 24.721533,86.4944321 26.3300663,84.5717322 C27.9390829,82.6490322 27.6838829,79.7959156 25.7606996,78.1878656 C25.469733,77.9442656 25.1468663,77.7528656 24.8206163,77.5943323 C25.1700663,77.4821989 25.5098496,77.3275323 25.8346496,77.1245323 C27.9588996,75.7929489 28.6017329,72.9635156 27.2696663,70.8392657 C26.354233,69.3791157 24.7456997,68.628499 23.1376497,68.7362824 C22.4063664,68.785099 21.673633,69.012749 21.009533,69.4293824 C20.6852164,69.6328657 20.3971497,69.8585824 20.1438831,70.121999 C20.1443664,69.756599 20.1129497,69.3805657 20.0201497,69.0088824 C19.4865497,66.8807657 17.5304998,65.4781324 15.4180915,65.5689991 C15.1162498,65.5820491 14.8064331,65.6163658 14.5024165,65.6922491 L14.5024165,65.6922491 Z"></path>
                                <path d="M62.7487491,78.9041656 C63.2402991,83.5378822 67.0059491,87.4200154 71.656099,88.5292654 C70.8619823,87.2305488 70.3341824,85.7829655 70.171299,84.2488655 C69.5888824,78.7533656 73.8388323,74.3013823 79.6480156,74.3013823 C80.5634489,74.3013823 81.4503655,74.4144823 82.3198822,74.6237656 C80.2719989,71.266049 76.4159656,68.9325157 72.224499,68.9327574 C66.4157991,68.932999 62.1648825,73.4096323 62.7487491,78.9041656 L62.7487491,78.9041656 Z"></path>
                            </g>
                            <g transform="translate(11.116667, 8.216667)" fill="#FFD200">
                                <path d="M27.6311996,31.6607496 C28.8211663,31.6607496 30.1227829,33.2692829 31.2441162,33.2692829 C33.0720829,33.2692829 34.2881495,31.2402496 35.4012662,31.2402496 C36.8159828,31.2402496 37.7695995,33.4669662 40.2258994,33.4669662 C42.6826827,33.4669662 43.6609494,31.2402496 45.075666,31.2402496 C46.1882994,31.2402496 47.404366,33.2692829 49.2323326,33.2692829 C50.3541493,33.2692829 51.6547993,31.6607496 52.8452493,31.6607496 C59.0845992,31.6607496 63.7574658,26.4924663 63.7574658,17.7305998 C63.7574658,10.5849999 57.7563992,1.87243331 58.4127659,0.45916666 C58.4127659,0.45916666 70.116199,8.85418321 70.116199,18.7446331 C70.116199,34.6767495 53.9588492,38.6139828 53.9588492,38.6139828 L57.5959325,46.8035827 C57.5959325,46.8035827 52.5876326,47.5546827 49.5295826,50.0206493 C45.4507327,53.3097326 45.3970827,62.1962991 45.3970827,68.206549 C45.3970827,75.2864156 45.6604994,78.2864656 48.2182993,80.2072322 C50.9152993,82.2338489 52.9438493,82.6702988 52.9438493,84.7355822 C52.9438493,86.5350321 50.843766,87.2711488 48.1187327,88.4717488 C45.019116,89.8381321 44.710266,92.2083987 40.2258994,92.2083987 C35.7410495,92.2083987 35.4568495,89.8381321 32.3572329,88.4717488 C29.6326829,87.2711488 27.5321163,86.5355155 27.5321163,84.7355822 C27.5321163,82.6702988 29.5606663,82.2338489 32.2576662,80.2072322 C34.8154662,78.2864656 35.0783995,75.2864156 35.0783995,68.206549 C35.0783995,62.1962991 35.0252328,53.3097326 30.9463829,50.0206493 C27.8878496,47.553716 22.880033,46.8035827 22.880033,46.8035827 L26.516633,38.6139828 C26.516633,38.6139828 10.3597665,34.6772328 10.3597665,18.7446331 C10.3597665,8.85418321 22.063683,0.45916666 22.063683,0.45916666 C22.7200497,1.87243331 16.7194664,10.5849999 16.7194664,17.7305998 C16.7194664,26.4924663 21.3918497,31.6607496 27.6311996,31.6607496 Z M34.1136662,83.5248322 C30.9396162,83.5248322 28.9178329,84.1947322 28.9178329,85.1580155 C28.9178329,86.1217821 30.9400996,86.7665488 34.1136662,86.7665488 C34.9594995,86.7665488 35.9198828,86.2740321 35.9198828,85.1580155 C35.9198828,84.0419988 34.9590162,83.5248322 34.1136662,83.5248322 L34.1136662,83.5248322 Z M46.3613327,83.5248322 C45.5154994,83.5248322 44.555116,84.0424822 44.555116,85.1580155 C44.5546327,86.2740321 45.5154994,86.7665488 46.3613327,86.7665488 C49.535866,86.7665488 51.5571659,86.1222655 51.5571659,85.1580155 C51.5571659,84.1942488 49.5353826,83.5248322 46.3613327,83.5248322 L46.3613327,83.5248322 Z" id="Shape"></path>
                                <path d="M40.2519994,2.11699997 L42.0335661,7.14076657 L46.8335493,4.8396166 L44.5570494,9.66424987 L49.5556826,11.4462998 L44.5570494,13.2278665 L46.8335493,18.0278497 L42.0335661,15.7513498 L40.2273494,20.7494997 L38.4457828,15.7513498 L33.6457995,18.0278497 L35.9222995,13.2278665 L30.9241496,11.4462998 L35.9222995,9.66424987 L33.6457995,4.8396166 L38.4457828,7.14076657 L40.2519994,2.11699997 L40.2519994,2.11699997 Z" id="Shape"></path>
                                <path d="M9.68986653,47.4749327 L0.262449996,41.7092494 C0.262449996,41.7092494 6.10449991,39.6951994 9.54124153,36.1917578 C12.7933498,39.9151161 17.9543831,41.3385328 17.9543831,41.3385328 C17.9534164,41.3385328 9.68986653,47.4749327 9.68986653,47.4749327 Z" id="Shape"></path>
                                <path d="M71.0524157,47.4497993 C67.8880324,44.1539494 62.5172325,41.3385328 62.5172325,41.3385328 C62.5172325,41.3385328 67.6772991,39.9151161 70.9294073,36.1919995 C74.3666323,39.6951994 80.2081989,41.7092494 80.2081989,41.7092494 C80.2081989,41.7092494 74.113849,44.7445827 71.0524157,47.4497993 Z" id="Shape"></path>
                                <path d="M27.2599996,53.3599993 L29.2643829,55.3634159 L27.2599996,57.3929325 L25.2309663,55.3634159 L27.2599996,53.3599993 L27.2599996,53.3599993 Z" id="Shape"></path>
                                <path d="M53.2149993,53.3599993 L55.2445159,55.3634159 L53.2149993,57.3929325 L51.2110993,55.3634159 L53.2149993,53.3599993 L53.2149993,53.3599993 Z" id="Shape"></path>
                                <path d="M29.9826162,62.1175158 C31.3828329,64.0498824 31.1450329,67.1741491 31.1450329,71.5207657 C31.1450329,75.9031489 27.8544996,77.5822489 27.8544996,77.5822489 C27.8544996,67.0484824 26.7684496,64.5158158 26.1966663,61.3255741 L29.9826162,62.1175158 Z" id="Shape"></path>
                                <path d="M54.2783326,61.3253325 C53.7055826,64.5162991 52.6209826,67.0484824 52.6209826,77.5817656 C52.6209826,77.5817656 49.329966,75.9026656 49.329966,71.5202823 C49.329966,67.1736657 49.092166,64.0503658 50.492866,62.1175158 L54.2783326,61.3253325 L54.2783326,61.3253325 Z" id="Shape"></path>
                                <path d="M14.4187998,65.3118658 C14.5173998,65.7062658 14.5280331,66.0938991 14.4927498,66.4752491 C14.4637498,66.7913491 14.3796498,67.0784491 14.2704165,67.3655491 C13.7227998,67.1654491 13.1302332,67.0682991 12.5134998,67.0682991 C10.9866498,67.0682991 9.6197832,67.7401324 8.67824988,68.801049 C8.43126655,68.5825824 8.21666655,68.3409157 8.03541655,68.0586491 C7.83241656,67.7449657 7.66083323,67.4017991 7.56513323,67.0194824 C7.0904999,65.1281991 8.24711655,63.2127491 10.1383999,62.7385991 C10.3742665,62.6786658 10.6217332,62.6491825 10.8559082,62.6397575 C12.4956165,62.5694325 14.0031331,63.6574158 14.4187998,65.3118658 L14.4187998,65.3118658 Z" id="leaf"></path>
                                <g id="leaf-link" transform="translate(5.862607, 71.422925) rotate(-72.000000) translate(-5.862607, -71.422925) translate(1.995940, 68.039592)">
                                    <path d="M7.1687999,2.96186663 C7.2673999,3.35626662 7.27803323,3.74389995 7.2427499,4.12524994 C7.2137499,4.44134994 7.1296499,4.72844993 7.02041657,5.01554993 C6.47279991,4.81544993 5.88023325,4.71829993 5.26349993,4.71829993 C3.73664995,4.71829993 2.3697833,5.39013326 1.42824998,6.45104991 C1.18126665,6.23258325 0.966666653,5.99091658 0.785416656,5.70864992 C0.582416659,5.39496659 0.410833328,5.05179993 0.315133329,4.66948327 C-0.159499998,2.77819996 0.997116653,0.862749988 2.88839996,0.388599995 C3.12426662,0.328666662 3.37173329,0.299183329 3.60590828,0.289758329 C5.24561659,0.21943333 6.75313324,1.30741665 7.1687999,2.96186663 L7.1687999,2.96186663 Z" id="leaf"></path>
                                </g>
                                <ellipse id="Oval" cx="12.5134998" cy="72.2428657" rx="3.41474995" ry="3.41474995"></ellipse>
                                <path d="M72.463749,67.6386324 C66.7947324,68.7348324 62.7149158,73.7421656 63.3084491,79.5900156 C61.5017491,78.0936156 60.1798325,76.0781156 59.9434825,73.8494656 C59.4838325,69.5096157 62.6361325,66.1538324 67.3914074,66.1538324 C69.2094657,66.1538324 70.9562323,66.7106324 72.463749,67.6386324 L72.463749,67.6386324 Z" id="Shape"></path>
                                <g id="leaf-link" transform="translate(17.683539, 76.639145) rotate(144.000000) translate(-17.683539, -76.639145) translate(13.816872, 73.255811)">
                                    <path d="M7.1687999,2.96186663 C7.2673999,3.35626662 7.27803323,3.74389995 7.2427499,4.12524994 C7.2137499,4.44134994 7.1296499,4.72844993 7.02041657,5.01554993 C6.47279991,4.81544993 5.88023325,4.71829993 5.26349993,4.71829993 C3.73664995,4.71829993 2.3697833,5.39013326 1.42824998,6.45104991 C1.18126665,6.23258325 0.966666653,5.99091658 0.785416656,5.70864992 C0.582416659,5.39496659 0.410833328,5.05179993 0.315133329,4.66948327 C-0.159499998,2.77819996 0.997116653,0.862749988 2.88839996,0.388599995 C3.12426662,0.328666662 3.37173329,0.299183329 3.60590828,0.289758329 C5.24561659,0.21943333 6.75313324,1.30741665 7.1687999,2.96186663 L7.1687999,2.96186663 Z" id="leaf"></path>
                                </g>
                                <g id="leaf-link" transform="translate(9.950206, 78.476609) rotate(216.000000) translate(-9.950206, -78.476609) translate(6.083539, 75.093276)">
                                    <path d="M7.1687999,2.96186663 C7.2673999,3.35626662 7.27803323,3.74389995 7.2427499,4.12524994 C7.2137499,4.44134994 7.1296499,4.72844993 7.02041657,5.01554993 C6.47279991,4.81544993 5.88023325,4.71829993 5.26349993,4.71829993 C3.73664995,4.71829993 2.3697833,5.39013326 1.42824998,6.45104991 C1.18126665,6.23258325 0.966666653,5.99091658 0.785416656,5.70864992 C0.582416659,5.39496659 0.410833328,5.05179993 0.315133329,4.66948327 C-0.159499998,2.77819996 0.997116653,0.862749988 2.88839996,0.388599995 C3.12426662,0.328666662 3.37173329,0.299183329 3.60590828,0.289758329 C5.24561659,0.21943333 6.75313324,1.30741665 7.1687999,2.96186663 L7.1687999,2.96186663 Z" id="leaf"></path>
                                </g>
                                <g id="leaf-link" transform="translate(18.429273, 69.102127) rotate(72.000000) translate(-18.429273, -69.102127) translate(14.562607, 65.718794)">
                                    <path d="M7.1687999,2.96186663 C7.2673999,3.35626662 7.27803323,3.74389995 7.2427499,4.12524994 C7.2137499,4.44134994 7.1296499,4.72844993 7.02041657,5.01554993 C6.47279991,4.81544993 5.88023325,4.71829993 5.26349993,4.71829993 C3.73664995,4.71829993 2.3697833,5.39013326 1.42824998,6.45104991 C1.18126665,6.23258325 0.966666653,5.99091658 0.785416656,5.70864992 C0.582416659,5.39496659 0.410833328,5.05179993 0.315133329,4.66948327 C-0.159499998,2.77819996 0.997116653,0.862749988 2.88839996,0.388599995 C3.12426662,0.328666662 3.37173329,0.299183329 3.60590828,0.289758329 C5.24561659,0.21943333 6.75313324,1.30741665 7.1687999,2.96186663 L7.1687999,2.96186663 Z" id="leaf"></path>
                                </g>
                            </g>
                        </g>
                    </g>
                </g>
            </g>
        </g>
    </g>
</svg>
