<?xml version="1.0" encoding="UTF-8" standalone="no"?>
<svg width="876px" height="586px" viewBox="0 0 876 586" version="1.1" xmlns="http://www.w3.org/2000/svg" xmlns:xlink="http://www.w3.org/1999/xlink">
    <!-- Generator: Sketch 3.6 (26304) - http://www.bohemiancoding.com/sketch -->
    <title>mt</title>
    <desc>Created with Sketch.</desc>
    <defs></defs>
    <g id="Page-1" stroke="none" stroke-width="1" fill="none" fill-rule="evenodd">
        <g id="mt" transform="translate(3.000000, 3.000000)">
            <g id="flag">
                <g id="g6866" transform="translate(0.000000, -0.000015)">
                    <rect id="rect706" fill="#CE0000" x="435" y="3.12565625e-05" width="435" height="580"></rect>
                    <rect id="rect708" fill="#FFFFFF" x="0" y="1.37183593e-05" width="435" height="580"></rect>
                </g>
                <g id="g6673" transform="translate(38.000000, 32.000000)">
                    <path d="M68.6179542,60.9969382 C68.6179542,61.862454 67.6376315,62.5640795 66.4282948,62.5640795 C65.2190076,62.5640795 64.2386354,61.8624319 64.2386354,60.9969382 C64.2386354,60.1314225 65.2189582,59.429797 66.4282948,59.429797 C67.637582,59.429797 68.6179542,60.1314446 68.6179542,60.9969382 L68.6179542,60.9969382 Z" id="path606" fill="#F1EEEE"></path>
                    <path d="M0.108437435,53.4210119 L0.108437435,93.1917689 L39.8813321,93.1917689 C39.8813321,99.8184113 46.5104329,106.447619 53.1393199,106.447619 L53.1393199,146.216238 L92.909008,146.216238 L92.909008,106.447619 C99.5381088,106.447619 106.166996,99.818732 106.166996,93.1917689 L145.939891,93.1917689 L145.939891,53.4210119 L106.166996,53.4210119 C106.166996,46.7943695 99.5378951,40.1651618 92.909008,40.1651618 L92.909008,0.396542525 L53.1393199,0.396542525 L53.1393199,40.1651618 C46.5102191,40.1651618 39.8813321,46.7940488 39.8813321,53.4210119 L0.108437435,53.4210119 L0.108437435,53.4210119 Z" id="path552" fill="#CC0000"></path>
                    <path d="M1.43594637,54.7463832 L1.43594637,91.8642599 L41.208841,91.8642599 C41.208841,98.4909024 47.8356972,105.122248 54.4646912,105.122248 L54.4646912,144.890867 L91.5857745,144.890867 L91.5857745,105.122248 C98.2148753,105.122248 104.841625,98.4911162 104.841625,91.8642599 L144.614519,91.8642599 L144.614519,54.7463832 L104.841625,54.7463832 C104.841625,48.1197407 98.2147684,41.4883953 91.5857745,41.4883953 L91.5857745,1.71977607 L54.4646912,1.71977607 L54.4646912,41.4883953 C47.8355904,41.4883953 41.208841,48.1195269 41.208841,54.7463832 L1.43594637,54.7463832 L1.43594637,54.7463832 Z" id="path553" fill="#FFE600"></path>
                    <path d="M2.76131762,56.0717544 L2.76131762,90.5410264 L42.5310057,90.5410264 C42.5310057,97.1676688 49.1601065,103.796877 55.7889936,103.796877 L55.7889936,143.565496 L90.2571967,143.565496 L90.2571967,103.796877 C96.8862975,103.796877 103.515185,97.1679895 103.515185,90.5410264 L143.284873,90.5410264 L143.284873,56.0717544 L103.515185,56.0717544 C103.515185,49.445112 96.8860837,42.8159043 90.2571967,42.8159043 L90.2571967,3.04728501 L55.7889936,3.04728501 L55.7889936,42.8159043 C49.1598928,42.8159043 42.5310057,49.4447913 42.5310057,56.0717544 L2.76131762,56.0717544 L2.76131762,56.0717544 Z" id="path554" fill="#707070"></path>
                    <path d="M4.08775771,57.3971257 L4.08775771,89.2124486 L43.8574458,89.2124486 C43.8574458,95.8390911 50.4865466,102.470436 57.1154336,102.470436 L57.1154336,142.239056 L88.9318254,142.239056 L88.9318254,102.470436 C95.5609262,102.470436 102.189813,95.8393048 102.189813,89.2124486 L141.959501,89.2124486 L141.959501,57.3971257 L102.189813,57.3971257 C102.189813,50.7704832 95.5607125,44.1412755 88.9318254,44.1412755 L88.9318254,4.37265626 L57.1154336,4.37265626 L57.1154336,44.1412755 C50.4863328,44.1412755 43.8574458,50.7701625 43.8574458,57.3971257 L4.08775771,57.3971257 L4.08775771,57.3971257 Z" id="path555" fill="#A0A0A0"></path>
                    <g id="g562" transform="translate(49.541893, 49.272200) rotate(-44.998843) translate(-49.541893, -49.272200) translate(37.041893, 42.772200)">
                        <path d="M24.0396919,6.13492372 C24.0396919,9.42962461 18.6978555,12.1005618 12.1087087,12.1005618 C5.51956184,12.1005618 0.177725395,9.42966202 0.177725395,6.13492372 C0.177725395,2.84022284 5.51956184,0.169285627 12.1087087,0.169285627 C18.6978555,0.169285627 24.0396919,2.84018542 24.0396919,6.13492372 L24.0396919,6.13492372 Z" id="path556" fill="#D0D0D0"></path>
                        <path d="M20.0651633,6.13492372 C20.0651633,9.42962461 16.5038698,12.1005618 12.1110198,12.1005618 C7.71816981,12.1005618 4.15687627,9.42966202 4.15687627,6.13492372 C4.15687627,2.84022284 7.71816981,0.169285627 12.1110198,0.169285627 C16.5038698,0.169285627 20.0651633,2.84018542 20.0651633,6.13492372 L20.0651633,6.13492372 Z" id="path557" fill="#808080"></path>
                        <path d="M6.80696685,2.8181245 L8.132494,2.8181245 L9.45828839,6.79529757 L10.7838155,2.8181245 L12.1096099,2.8181245 L9.45828839,10.77219 L6.80696685,2.8181245 L6.80696685,2.8181245 Z" id="path560" fill="#D0D0D0"></path>
                        <rect id="rect561" fill="#D0D0D0" x="14.7617688" y="2.81885953" width="1.32568488" height="7.95418413"></rect>
                    </g>
                    <g id="g567" transform="translate(97.074459, 49.825222) rotate(44.998843) translate(-97.074459, -49.825222) translate(84.574459, 43.325222)">
                        <path d="M24.0283012,6.14679503 C24.0283012,9.44149592 18.6864648,12.1124331 12.0973179,12.1124331 C5.50817111,12.1124331 0.166334665,9.44153333 0.166334665,6.14679503 C0.166334665,2.85209415 5.50817111,0.181156938 12.0973179,0.181156938 C18.6864648,0.181156938 24.0283012,2.85205673 24.0283012,6.14679503 L24.0283012,6.14679503 Z" id="path568" fill="#D0D0D0"></path>
                        <path d="M20.0537726,6.14679503 C20.0537726,9.44149592 16.492479,12.1124331 12.0996291,12.1124331 C7.70677908,12.1124331 4.14548554,9.44153333 4.14548554,6.14679503 C4.14548554,2.85209415 7.70677908,0.181156938 12.0996291,0.181156938 C16.492479,0.181156938 20.0537726,2.85205673 20.0537726,6.14679503 L20.0537726,6.14679503 Z" id="path569" fill="#808080"></path>
                        <path d="M6.79557612,2.82999581 L8.12110327,2.82999581 L9.44689766,6.80716888 L10.7724248,2.82999581 L12.0982192,2.82999581 L9.44689766,10.7840614 L6.79557612,2.82999581 L6.79557612,2.82999581 Z" id="path570" fill="#D0D0D0"></path>
                        <rect id="rect571" fill="#D0D0D0" x="14.7503781" y="2.83073084" width="1.32568488" height="7.95418413"></rect>
                    </g>
                    <g id="g572" transform="translate(96.504396, 97.349885) rotate(135.001157) translate(-96.504396, -97.349885) translate(84.004396, 90.849885)">
                        <path d="M24.0339382,6.14081661 C24.0339382,9.4355175 18.6921018,12.1064547 12.102955,12.1064547 C5.51380813,12.1064547 0.171971691,9.43555491 0.171971691,6.14081661 C0.171971691,2.84611572 5.51380813,0.175178516 12.102955,0.175178516 C18.6921018,0.175178516 24.0339382,2.84607831 24.0339382,6.14081661 L24.0339382,6.14081661 Z" id="path573" fill="#D0D0D0"></path>
                        <path d="M20.0594096,6.14081661 C20.0594096,9.4355175 16.498116,12.1064547 12.1052661,12.1064547 C7.71241611,12.1064547 4.15112256,9.43555491 4.15112256,6.14081661 C4.15112256,2.84611572 7.71241611,0.175178516 12.1052661,0.175178516 C16.498116,0.175178516 20.0594096,2.84607831 20.0594096,6.14081661 L20.0594096,6.14081661 Z" id="path574" fill="#808080"></path>
                        <path d="M6.80121315,2.82401738 L8.1267403,2.82401738 L9.45253469,6.80119046 L10.7780618,2.82401738 L12.1038562,2.82401738 L9.45253469,10.7780829 L6.80121315,2.82401738 L6.80121315,2.82401738 Z" id="path575" fill="#D0D0D0"></path>
                        <rect id="rect576" fill="#D0D0D0" x="14.7560151" y="2.82475242" width="1.32568488" height="7.95418413"></rect>
                    </g>
                    <g id="g577" transform="translate(48.974938, 96.784352) rotate(224.998843) translate(-48.974938, -96.784352) translate(36.474938, 90.284352)">
                        <path d="M24.0283012,6.14679503 C24.0283012,9.44149592 18.6864648,12.1124331 12.0973179,12.1124331 C5.50817111,12.1124331 0.166334665,9.44153333 0.166334665,6.14679503 C0.166334665,2.85209415 5.50817111,0.181156938 12.0973179,0.181156938 C18.6864648,0.181156938 24.0283012,2.85205673 24.0283012,6.14679503 L24.0283012,6.14679503 Z" id="path578" fill="#D0D0D0"></path>
                        <path d="M20.0537726,6.14679503 C20.0537726,9.44149592 16.492479,12.1124331 12.0996291,12.1124331 C7.70677908,12.1124331 4.14548554,9.44153333 4.14548554,6.14679503 C4.14548554,2.85209415 7.70677908,0.181156938 12.0996291,0.181156938 C16.492479,0.181156938 20.0537726,2.85205673 20.0537726,6.14679503 L20.0537726,6.14679503 Z" id="path579" fill="#808080"></path>
                        <path d="M6.79557612,2.82999581 L8.12110327,2.82999581 L9.44689766,6.80716888 L10.7724248,2.82999581 L12.0982192,2.82999581 L9.44689766,10.7840614 L6.79557612,2.82999581 L6.79557612,2.82999581 Z" id="path580" fill="#D0D0D0"></path>
                        <rect id="rect581" fill="#D0D0D0" x="14.7503781" y="2.83073084" width="1.32568488" height="7.95418413"></rect>
                    </g>
                    <path d="M100.865451,73.3068576 C100.865451,88.6816801 88.4010565,101.145407 73.025124,101.145407 C57.6491915,101.145407 45.1847971,88.6816801 45.1847971,73.3068576 C45.1847971,57.9320351 57.6491915,45.4683086 73.025124,45.4683086 C88.4010565,45.4683086 100.865451,57.9320351 100.865451,73.3068576 L100.865451,73.3068576 Z" id="path582" stroke="#707070" stroke-width="0.7993"></path>
                    <path d="M94.2354962,73.3070032 C94.2354962,85.0211746 84.7389189,94.5173641 73.0240512,94.5173641 C61.3091835,94.5173641 51.8126062,85.0211746 51.8126062,73.3070032 C51.8126062,61.5928318 61.3091835,52.0966423 73.0240512,52.0966423 C84.7389189,52.0966423 94.2354962,61.5928318 94.2354962,73.3070032 L94.2354962,73.3070032 Z" id="path583" stroke="#707070" stroke-width="0.7993"></path>
                    <path d="M63.7449663,95.8406345 C63.7449663,96.5727671 63.1514144,97.166285 62.41924,97.166285 C61.6870655,97.166285 61.0935137,96.5727671 61.0935137,95.8406345 C61.0935137,95.1085018 61.6870655,94.5149839 62.41924,94.5149839 C63.1514144,94.5149839 63.7449663,95.1085018 63.7449663,95.8406345 L63.7449663,95.8406345 Z" id="path584" fill="#D0D0D0"></path>
                    <path d="M84.9573193,95.8406345 C84.9573193,96.5727671 84.3637674,97.166285 83.631593,97.166285 C82.8994185,97.166285 82.3058667,96.5727671 82.3058667,95.8406345 C82.3058667,95.1085018 82.8994185,94.5149839 83.631593,94.5149839 C84.3637674,94.5149839 84.9573193,95.1085018 84.9573193,95.8406345 L84.9573193,95.8406345 Z" id="path585" fill="#D0D0D0"></path>
                    <path d="M72.1412957,95.8435802 L72.1412957,97.2258142 L70.3735284,97.2258142 C68.605761,97.2258142 68.605761,98.6080481 70.3735284,98.6080481 L72.1412957,98.6080481 L72.1412957,99.9901752 C72.1477088,101.423179 73.6840706,101.595798 73.7965134,100.101934 L73.9087531,98.6081122 L75.6765204,98.6081122 C77.4439671,98.6081122 77.4439671,97.2258783 75.6765204,97.2258783 L73.9087531,97.2258783 L73.9087531,95.8436443 C73.9087531,94.4615173 72.1413064,94.4615173 72.1413064,95.8436443 L72.1412957,95.8435802 Z" id="path586" fill="#D0D0D0"></path>
                    <path d="M66.4229601,77.0459467 L63.3575047,77.8294977 L60.2920492,77.8294977 C60.3611396,78.5129724 60.87688,79.8083624 60.7299348,81.3558403 C60.8331321,83.1572763 60.2228414,84.788338 60.2228414,84.788338 C60.2920492,84.882076 59.9734364,84.9297679 59.4161712,84.882076 C59.8540461,84.4901936 59.8035003,83.3566164 59.8540461,81.747573 C59.9045919,80.1383158 58.1822613,77.7164136 58.5403253,77.0459254 C58.8983679,76.3755013 66.4228639,76.2622675 66.4228639,76.2622675 L66.4229601,77.0459467 Z" id="path590" stroke="#707070" stroke-width="0.5" fill="#D0D0D0"></path>
                    <path d="M76.9404222,73.4191538 C79.5182693,73.3000628 83.8440031,73.3259503 83.8440031,73.3259503 C83.8440031,73.3259503 84.8639939,75.3718318 84.8216034,76.5020315 C84.7791701,77.6322311 84.4284598,78.5939804 83.9469546,78.1131057 C83.4654493,77.6321991 84.1700338,77.7226556 84.2556805,76.5020315 C84.3411884,75.2814073 83.432454,74.0163191 83.432454,74.0163191 C83.432454,74.0163191 81.5833473,74.8237481 78.8019916,74.6607595 C76.0208497,74.4977709 77.2520555,73.4674978 76.9403795,73.419079 L76.9404222,73.4191538 Z" id="path591" stroke="#707070" stroke-width="0.5" fill="#D0D0D0"></path>
                    <path d="M77.8168774,75.4392761 C80.3947245,75.3201851 82.0870312,75.7154985 82.0870312,75.7154985 C82.0870312,75.7154985 83.1070219,77.76138 83.0646314,78.8915796 C83.0221981,80.0217793 82.6714878,80.9835285 82.1899826,80.5026539 C81.7084773,80.0217472 82.4130618,80.1122038 82.4987086,78.8915796 C82.5842164,77.6709555 81.6754713,76.4058672 81.6754713,76.4058672 C81.6754713,76.4058672 79.8263647,77.2132962 77.045009,77.0503076 C74.2638671,76.887319 75.0571659,76.7213377 74.7454899,76.6729082 C74.4337925,76.6244894 74.3585242,77.4423076 70.1509408,77.5566422 C65.9434215,77.67087 63.7974959,76.6729082 63.7974959,76.6729082 C63.7974959,76.6729082 63.381992,77.2725638 60.7321473,77.4564591 C58.0822599,77.6403437 57.6666919,77.4564591 57.6666919,77.4564591 C57.7357822,78.1399338 58.2515226,79.4353239 58.1045668,80.9828017 C58.207764,82.7842377 57.5974733,84.4152994 57.5974733,84.4152994 C57.6666812,84.5090374 57.3480684,84.5567294 56.7908032,84.5090374 C57.2286888,84.117155 57.1781323,82.9835778 57.2286888,81.3745344 C57.2792346,79.7652772 55.556904,77.343375 55.914968,76.6728868 C56.2730106,76.0024627 58.1807115,76.6291709 58.5425164,76.2810045 C58.9041397,75.9327952 56.8432623,73.4797682 57.2287956,71.1875173 C57.6143932,68.8951594 59.7985195,69.5414917 62.4838926,69.6203726 C65.1691589,69.6991467 71.1184725,70.3947422 72.5559659,69.6203726 C73.9935662,68.8460031 73.3714112,65.9792358 74.7456074,64.1350458 C75.6213679,62.9596339 76.9351421,62.5679012 78.2488629,62.5679012 C79.1247409,62.5679012 80.4385045,65.7022973 80.4385045,66.4859765 L80.0005013,66.877752 L79.5626158,66.877752 L79.5626158,67.2695275 C78.5630293,67.3697854 78.4236516,66.4145454 77.8109881,65.702276 C77.5477415,66.8062888 78.6867485,70.4040305 78.6867485,72.7548543 C78.6867485,74.7138385 77.8683317,75.5773606 77.8169202,75.4391586 L77.8168774,75.4392761 Z" id="path588" stroke="#707070" stroke-width="0.5" fill="#D0D0D0"></path>
                    <path d="M69.3836684,72.0403402 C69.4200093,72.8212404 65.9992688,74.5720131 65.720834,75.2651608 C65.4423885,75.9583727 66.5904165,76.3426663 66.2353452,76.73814 C65.8803916,77.1337847 65.5877304,76.9870425 65.5150594,77.0603548 C65.4423778,77.1337847 64.228808,74.3446264 64.228808,74.3446264 C64.228808,74.3446264 67.4372753,72.897834 67.3157473,72.2731994 C67.1941338,71.6485434 64.9464324,71.2686107 64.5375981,69.6954592 C64.1286356,68.122329 64.3554237,65.083381 64.0230976,64.4478441 C63.6907607,63.8123821 59.7528369,63.2060568 59.7495235,62.2451626 C59.7462101,61.2842151 63.7971431,58.6468866 64.2349432,58.255047 C64.6728287,57.8632395 65.1108319,58.6468545 64.6728287,59.0386621 C64.2349432,59.4304696 61.0632229,61.8533658 61.0632229,62.2452054 C61.0632229,62.6370129 63.6907714,63.0288205 64.5665853,63.0288205 C65.4423457,63.0288205 65.8803061,62.6370129 65.8803061,62.2452054 C65.8856503,61.9062417 65.0044281,61.8534086 65.0044281,61.0697935 C65.0044281,60.2861784 65.4423029,59.8943816 66.3181489,59.8943816 C66.7560238,59.8943816 67.5979872,60.3960881 67.6318697,61.0697935 C67.6657522,61.7434989 66.8526262,61.8005647 66.755981,62.2452054 C66.659464,62.6898675 67.6318697,63.0288205 68.5076087,63.0288205 C69.3834974,63.0288205 72.373738,65.3076039 72.811645,65.6994435 C73.2496481,66.0912617 73.6875337,66.091251 73.2496481,66.4830693 C72.8117732,66.8748768 73.0682219,67.3387247 72.6302187,66.9469171 C72.2573512,66.5684168 72.1923332,66.1632914 72.1923332,66.1632914 C72.154496,65.8072689 68.9456012,64.2043072 68.5075874,64.5960399 C68.0697125,64.9878474 68.5075874,69.689634 68.5075874,70.0813667 C68.5075874,70.8649069 69.4198062,70.8622562 69.383476,72.0403509 L69.3836684,72.0403402 Z" id="path592" stroke="#707070" stroke-width="0.5" fill="#D0D0D0"></path>
                    <rect id="rect604" fill="#A7A7A7" x="63.804283" y="62.9551341" width="5.2549901" height="5.48532679"></rect>
                    <rect id="rect593" fill="#808080" transform="translate(71.760456, 69.632743) rotate(56.329002) translate(-71.760456, -69.632743) " x="55.3820633" y="69.3543315" width="32.7567864" height="0.556818182" rx="0.44451"></rect>
                    <path d="M65.1141531,58.6462816 C65.1141531,59.0790395 64.722024,59.4298633 64.2383141,59.4298633 C63.7546041,59.4298633 63.362475,59.0790395 63.362475,58.6462816 C63.362475,58.2135238 63.7546041,57.8627 64.2383141,57.8627 C64.722024,57.8627 65.1141531,58.2135238 65.1141531,58.6462816 L65.1141531,58.6462816 Z" id="path594" stroke="#707070" stroke-width="0.7993" fill="#D0D0D0"></path>
                    <path d="M80.4355545,65.7768922 C80.4355545,66.1015334 78.4024991,66.4826204 76.0562713,66.4826204 C73.7101505,66.4826204 71.6770951,66.1015334 71.6770951,65.7768922 C71.6770951,65.4522618 73.7100436,66.2473776 76.0562713,66.2473776 C78.4023922,66.2473776 80.4355545,65.4522618 80.4355545,65.7768922 L80.4355545,65.7768922 Z" id="path596" fill="#808080"></path>
                    <rect id="rect603" fill="#A7A7A7" x="64.2425106" y="68.4383232" width="4.37917623" height="1.5672515"></rect>
                    <path d="M78.6626795,64.4538742 C78.6626795,65.3553715 78.5380342,66.0862356 78.3842704,66.0862356 C78.2305113,66.0862356 78.1058613,65.3554242 78.1058613,64.4538742 C78.1058613,63.5523769 78.2305066,62.8215128 78.3842704,62.8215128 C78.5380279,62.8215128 78.6626795,63.5523242 78.6626795,64.4538742 L78.6626795,64.4538742 Z" id="path597" fill="#808080" transform="translate(78.384282, 64.453874) rotate(52.769378) translate(-78.384282, -64.453874) "></path>
                    <path id="path598" fill="#808080" transform="translate(79.572968, 66.567709) rotate(80.970092) translate(-79.572968, -66.567709) " d="M79.8175183,66.5674327 C79.8175183,67.210643 79.7080176,67.7321081 79.5729363,67.7321081 C79.4378591,67.7321081 79.3283542,67.2106806 79.3283542,66.5674327 C79.3283542,65.9242223 79.4378549,65.4027573 79.5729363,65.4027573 C79.708012,65.4027573 79.8175183,65.9241848 79.8175183,66.5674327 L79.8175183,66.5674327 Z"></path>
                    <path id="path599" fill="#808080" transform="translate(78.967941, 65.667646) rotate(-23.105161) translate(-78.967941, -65.667646) " d="M79.1643036,65.6676869 C79.1643036,66.4077645 79.0763908,67.007762 78.9679407,67.007762 C78.8594939,67.007762 78.7715777,66.4078077 78.7715777,65.6676869 C78.7715777,64.9276093 78.8594905,64.3276119 78.9679407,64.3276119 C79.0763864,64.3276119 79.1643036,64.9275661 79.1643036,65.6676869 L79.1643036,65.6676869 Z"></path>
                    <path d="M78.6872252,69.111529 C78.6872252,69.2652865 77.3147709,69.3899381 75.6218289,69.3899381 C73.9288869,69.3899381 72.5565658,69.2652928 72.5565658,69.111529 C72.5565658,68.9577715 73.92902,68.8331199 75.6218289,68.8331199 C77.3147709,68.8331199 78.6872252,68.9577652 78.6872252,69.111529 L78.6872252,69.111529 Z" id="path600" fill="#808080"></path>
                    <path d="M68.6179542,68.7189973 C68.6179542,68.8727548 67.6376315,68.9974064 66.4282948,68.9974064 C65.2190076,68.9974064 64.2386354,68.8727611 64.2386354,68.7189973 C64.2386354,68.5652398 65.2189582,68.4405882 66.4282948,68.4405882 C67.637582,68.4405882 68.6179542,68.5652335 68.6179542,68.7189973 L68.6179542,68.7189973 Z" id="path601" fill="#808080"></path>
                    <path d="M62.7882363,84.0387978 C65.8671593,84.0630607 66.9268149,83.5121124 65.6811797,82.582279 C64.4355445,81.6524348 62.118817,81.9416864 62.4182012,82.7441025 C62.7175962,83.5465293 61.5493563,83.814126 61.2744272,83.2498492 C60.9996051,82.6855938 59.8970031,81.0148885 61.8799188,80.9031939 C63.8628452,80.7914673 68.0626688,80.1831325 69.1122773,81.3482835 C70.1620461,82.5133276 67.9263907,83.5694561 69.6168376,83.816253 C71.3073272,84.063082 71.5476042,83.5339596 74.456901,83.3743165 C77.3663046,83.2146307 78.4764099,83.9138388 79.4731105,83.816253 C80.4698003,83.7186672 80.3288728,82.0056249 79.540341,81.5708176 C78.7518199,81.1358821 77.2372947,81.0563705 76.8491961,80.5795468 C76.4611509,80.1027231 75.4051827,80.4908324 75.5036236,79.9524111 C75.6021714,79.4139576 77.0009725,80.3229592 77.0174327,80.0479661 C77.0179137,80.0394153 77.2483786,79.8569736 77.294927,79.8109063 C77.1189305,79.7707176 77.0184802,79.8358105 76.8863599,79.9056062 C77.0297993,79.7909188 77.0209065,79.7380429 77.0689939,79.6442516 C77.0439829,79.6088727 76.8701241,79.77712 76.8407094,79.7419442 C76.8113161,79.7067792 77.0431278,79.4682444 76.9381883,79.5547462 C76.9018475,79.5796504 76.6253045,79.716527 76.6222369,79.6222974 C76.6265123,79.5840327 76.7667986,79.4856025 76.7173644,79.4321922 C76.6774964,79.3877281 76.467425,79.4839244 76.4403511,79.4949335 C76.5605217,79.3341254 76.552035,79.3360707 76.4360757,79.2169155 C76.3351765,79.0977604 76.2615329,79.1005287 76.0966845,79.2350859 C76.1653045,79.0417207 76.1839025,79.0008052 76.0183379,78.927525 C75.8821774,78.8535607 75.8761171,78.7838718 75.7067474,79.1297831 C75.771199,78.7595769 75.5982166,78.7434373 75.670086,78.5678898 C75.7128399,78.4069534 75.9386126,78.3390388 76.3106571,78.3745887 C77.0334868,78.3810017 77.4200142,79.2470891 77.6562296,79.2444704 C77.8925198,79.2423327 78.1569206,78.3268539 79.1700387,78.6982678 C80.1831247,79.0696711 80.3082547,79.145431 80.8184157,79.3658595 C81.3285554,79.5862452 80.4600311,79.922633 80.7510783,80.3571303 C81.042147,80.7915848 83.0322133,82.2428984 82.4666859,83.7557455 C81.9011051,85.2685927 80.4444259,85.5079077 80.3138127,86.1631114 C80.1831461,86.8183365 84.9252495,86.5494999 86.1333682,86.7700352 C87.34138,86.9905065 88.1030409,87.8930736 88.1516735,88.0444224 C88.200306,88.1958033 86.0323621,88.1860341 86.0323621,88.1860341 C86.0323621,88.1860341 84.9191571,87.6108016 82.2647805,87.5589518 C79.6105109,87.5070058 78.5997015,86.4359134 77.6061006,86.3016661 C76.612489,86.1674509 74.4948985,86.5266693 73.3112565,86.4738468 C72.1275076,86.4210457 70.9283672,86.233634 70.1616827,86.1294961 C69.394902,86.0253904 65.5803874,87.8514099 65.5936411,88.2767044 C64.7984932,88.2465629 62.9262246,88.1450651 63.0033954,88.1957927 C63.0805662,88.246456 63.3389067,87.3678097 64.7984184,87.2133719 C66.25793,87.0588807 67.6788562,86.3593839 67.63172,85.9000786 C67.5845839,85.4407841 67.9135004,83.8650994 68.0353597,83.1892669 C68.1572191,82.5134879 68.7036461,82.1874038 68.5736208,81.833861 C68.4435954,81.4803717 66.7761395,81.1157022 65.1760743,81.1258028 C63.5760092,81.1364913 61.8007599,81.2257401 61.5430607,81.6113376 C61.2854471,81.9969031 61.4799453,83.1160615 61.8122287,82.9869447 C62.1444266,82.8578279 61.7319048,82.1262123 62.0813218,81.9754086 C62.4307388,81.824669 63.3262088,81.6914691 64.1668576,81.6719734 C65.007656,81.6525203 66.4693695,82.3877593 66.4544056,82.6227669 C66.4393348,82.8578279 66.9247841,83.6400855 66.252543,83.9377703 C65.5803767,84.2353696 64.2054857,84.3684305 62.8886653,84.3019054 C61.5717379,84.2354231 60.2393123,83.7831829 59.7601478,83.4927235 C59.2811223,83.2022641 58.9864944,82.3193424 58.9864944,82.2586318 C58.9864944,82.2586318 59.7092493,84.0144281 62.7882363,84.0387978 Z" id="path609" stroke="#808080" stroke-width="0.5" fill="#D0D0D0"></path>
                    <path d="M78.4831763,79.6617512 C78.4831763,79.8557955 78.3258651,80.0131041 78.1318242,80.0131041 C77.9377714,80.0131041 77.7804722,79.8558014 77.7804722,79.6617512 C77.7804722,79.4677088 77.9377813,79.3103982 78.1318242,79.3103982 C78.325875,79.3103982 78.4831763,79.4677009 78.4831763,79.6617512 L78.4831763,79.6617512 Z" id="path610" fill="#000000"></path>
                    <path d="M95.0039497,74.5735094 L96.7091894,74.9411503 L99.5573481,72.9919995 L99.3366845,74.0153999 L97.85291,75.0065317 C97.5763242,75.1885031 97.3026137,75.3548479 97.0327296,75.5057371 C97.201971,75.7420166 97.3893079,76.0240107 97.5939495,76.3531089 L98.5121646,77.8396624 L98.3009282,78.8194003 L96.5278166,75.78259 L94.8225769,75.4149599 L95.0039924,74.5735949 L95.0039497,74.5735094 Z" id="path615" fill="#D0D0D0"></path>
                    <path d="M92.0966837,62.035925 L95.3953617,60.5166648 L94.4991222,58.5708274 L94.9406311,58.3674898 L97.0967109,63.0484018 L96.6552019,63.2517394 L95.7554672,61.2983132 L92.4567892,62.8175734 L92.0967051,62.0358181 L92.0966837,62.035925 Z" id="path618" fill="#D0D0D0"></path>
                    <path d="M86.9875913,55.8259194 L90.0245085,53.0450982 L90.6206263,53.6960585 L90.5426004,58.3977061 L92.9268792,56.2144777 L93.4841443,56.8230048 L90.4472271,59.603826 L89.8511094,58.9528657 L89.9308454,54.2487597 L87.544429,56.4339121 L86.9876768,55.8259408 L86.9875913,55.8259194 Z" id="path619" fill="#D0D0D0"></path>
                    <path d="M73.7125019,50.464579 L74.2104461,46.3771982 L75.0641134,46.4811864 L74.6249559,50.0860893 L77.8044574,50.4733756 L77.7456708,50.9558748 L73.7124806,50.4646003 L73.7125019,50.464579 Z" id="path622" fill="#D0D0D0"></path>
                    <path d="M67.181842,51.0503076 L66.4448608,46.9991607 L67.2917089,46.8451184 L67.9416859,50.4180627 L71.0922216,49.8449786 L71.1792258,50.3231918 L67.181842,51.0503182 L67.181842,51.0503076 Z" id="path623" fill="#D0D0D0"></path>
                    <path d="M55.1231014,57.001652 L54.8210771,56.624477 L56.9696749,54.9004255 L57.9248721,56.0933665 C57.7278727,56.524358 57.4881622,56.9226107 57.2057513,57.2881246 C56.9212454,57.6522382 56.5943383,57.982758 56.2249979,58.2784655 C55.7268401,58.6773167 55.2190625,58.9733341 54.7031725,59.1659405 C54.1875496,59.3552548 53.7241507,59.4051165 53.311212,59.3157181 C52.8991498,59.2262555 52.5662358,59.0236127 52.3133571,58.7078002 C52.0628726,58.3949806 51.9322915,58.0211617 51.9207159,57.586472 C51.9112031,57.1482765 52.0475347,56.708125 52.3297212,56.2660175 C52.6122069,55.8242948 53.006227,55.4007532 53.5120806,54.9957988 C53.8790481,54.7019832 54.2402438,54.474821 54.5965335,54.3142053 C54.9542876,54.150586 55.2713078,54.0680924 55.5472843,54.0675793 C55.8235601,54.0674404 56.0920226,54.1399403 56.3529604,54.2865221 L55.8314482,54.876633 C55.6239848,54.7738098 55.4266648,54.7211263 55.2383018,54.7184221 C55.0505266,54.7152156 54.8286873,54.7700475 54.574558,54.8826399 C54.3192317,54.9937252 54.0627403,55.1517971 53.8062702,55.3571442 C53.4995751,55.6027013 53.2585071,55.8454473 53.0824893,56.084634 C52.9052636,56.3223244 52.7858733,56.5450295 52.7248956,56.7522898 C52.6656921,56.9581178 52.6447106,57.1487041 52.6607647,57.3249891 C52.6907459,57.6276761 52.798924,57.8947812 52.984989,58.1271487 C53.2145027,58.4137709 53.4830827,58.5917447 53.7925142,58.6608564 C54.1040085,58.7276594 54.4462749,58.6888603 54.8184263,58.5444269 C55.1911656,58.3995125 55.5453604,58.1926797 55.8798349,57.9248906 C56.1705722,57.6921063 56.4266575,57.4293514 56.6471821,57.1379514 C56.8671082,56.8445848 57.0163515,56.599808 57.0952431,56.4052349 L56.6158435,55.8065412 L55.1230907,57.0017268 L55.1231014,57.001652 Z" id="path626" fill="#D0D0D0"></path>
                    <path d="M54.9841512,86.6087354 L51.6266865,88.9928004 L49.0867836,85.4162219 L49.4831123,85.1347943 L51.5248253,88.009888 L52.5644936,87.2716348 L50.7975813,84.7835709 L51.1939101,84.5021433 L52.9608223,86.9902072 L54.4859612,85.9072506 L54.9841832,86.6088209 L54.9841512,86.6087354 Z" id="path631" fill="#D0D0D0"></path>
                    <path d="M50.0385925,81.253808 C50.5160789,81.1190477 50.8360919,80.8109951 50.9973062,80.3287096 C51.1564897,79.8443505 51.1497132,79.2963202 50.9769554,78.6842873 C50.8011726,78.0615231 50.517757,77.5886114 50.1271572,77.2653919 C49.735339,76.9395323 49.284809,76.8486268 48.7745304,76.992654 C48.4520376,77.0837198 48.1950866,77.2498401 48.0046393,77.490876 C47.8111993,77.7301162 47.6958385,78.0343423 47.6582899,78.4042919 C47.6182829,78.7726169 47.6560453,79.1623295 47.77271,79.5754284 C47.9380287,80.1611143 48.2089923,80.6306164 48.5842648,80.9823528 C48.9572713,81.3317271 49.442122,81.422205 50.038646,81.2538508 L50.0385925,81.253808 Z M50.2717082,82.1095596 C49.6137897,82.2952506 49.0203012,82.1619332 48.4918629,81.7085814 C47.9612869,81.2564267 47.5715208,80.5885358 47.3227572,79.7070571 C47.1596831,79.1293448 47.0997849,78.583698 47.1436611,78.0703304 C47.1875373,77.5569629 47.3321524,77.1356231 47.5775278,76.8049216 C47.8203486,76.4723389 48.1400623,76.2497407 48.5363377,76.1378964 C48.9381817,76.024481 49.3338157,76.0514266 49.7234,76.2174187 C50.1127919,76.3844689 50.4560524,76.6793747 50.7521874,77.1020612 C51.0472535,77.5263724 51.2713909,78.0097588 51.4247705,78.553129 C51.591126,79.1424917 51.6493996,79.6948722 51.6002005,80.2087742 C51.5509052,80.7239909 51.4042593,81.1452559 51.1597925,81.4720454 C50.9154111,81.7991235 50.619212,82.0114394 50.2718151,82.1094955 L50.2717082,82.1095596 Z" id="path634" fill="#D0D0D0"></path>
                    <path d="M50.6157703,73.7504966 L46.4989962,73.6576138 L46.564057,70.7750382 C46.5771397,70.1952738 46.6244683,69.755817 46.7065237,69.4562938 C46.7861208,69.155798 46.9214262,68.9180328 47.1129317,68.742389 C47.3043623,68.5664139 47.5130014,68.4803396 47.7396826,68.4854594 C48.0314995,68.4918725 48.2745127,68.6472402 48.4681131,68.9500768 C48.6617028,69.2535441 48.7787844,69.717424 48.8188662,70.3420373 C48.8929801,70.1165852 48.9654266,69.944939 49.0356178,69.828349 C49.1869987,69.5804405 49.3750304,69.3461063 49.5990609,69.1262764 L50.7450795,68.0209809 L50.7206563,69.1030824 L49.844789,69.944319 C49.5918035,70.1899296 49.3983206,70.3922945 49.2633786,70.5520231 C49.128832,70.7117517 49.0340466,70.8558217 48.978349,70.9845217 C48.9232499,71.1106992 48.8839163,71.2400939 48.860284,71.3727058 C48.8446361,71.4701847 48.8348561,71.6295072 48.8298646,71.8504594 L48.8073333,72.8488701 L50.6351699,72.8901276 L50.6157489,73.7503684 L50.6157703,73.7504966 Z M48.3352767,72.8383633 L48.3770259,70.9886154 C48.3858973,70.595739 48.3678338,70.2879536 48.3221085,70.0652164 C48.274812,69.8421372 48.1961768,69.6715384 48.0862031,69.5540613 C47.9747009,69.4356009 47.852382,69.3754996 47.7196418,69.3725068 C47.525026,69.3682314 47.3624649,69.4772539 47.2317662,69.6991467 C47.1012171,69.9178971 47.0305556,70.2676455 47.0196747,70.7496638 L46.9732226,72.8076233 L48.3352553,72.8384061 L48.3352767,72.8383633 Z" id="path637" fill="#D0D0D0"></path>
                    <path d="M59.7747269,54.7250062 L59.8028376,49.9093125 L60.5985734,49.4330554 L64.9969889,51.599396 L64.1558912,52.102802 L62.8646162,51.4225659 L60.5315353,52.8189086 L60.5592291,54.25544 L59.7746949,54.7249848 L59.7747269,54.7250062 Z M60.5164645,52.3106928 L62.4080044,51.1785693 L61.240502,50.5482697 C60.8843299,50.3575125 60.6063653,50.1920014 60.4057853,50.0528481 C60.4704292,50.3214496 60.5048141,50.6064471 60.5086833,50.907456 L60.5164859,52.3106394 L60.5164645,52.3106928 Z" id="path640" fill="#D0D0D0"></path>
                    <path d="M80.403489,51.0203798 L84.8467961,49.1629361 L85.5955667,49.708444 L85.32207,54.6037668 L84.5298079,54.0265676 L84.6508977,52.5721865 L82.4532398,50.9711594 L81.1419773,51.5584271 L80.4034997,51.0204226 L80.403489,51.0203798 Z M82.9159226,50.7590038 L84.697585,52.0570125 L84.8203742,50.7354891 C84.8574632,50.3336558 84.9007516,50.0129267 84.9504209,49.7739109 C84.7277158,49.9378828 84.4791018,50.0811726 84.2040766,50.2028395 L82.9159012,50.7589396 L82.9159226,50.7590038 Z" id="path643" fill="#D0D0D0"></path>
                    <path d="M93.9244134,66.0868581 L97.9291723,65.1286147 L98.6001842,67.9327368 C98.734998,68.4961051 98.8011169,68.9331356 98.7982417,69.2445337 C98.7975576,69.5544568 98.7272702,69.8188363 98.5870053,70.0383776 C98.446687,70.2572883 98.2666823,70.3930213 98.0461683,70.4457796 C97.7622931,70.5137584 97.4878557,70.4257922 97.2233693,70.1816139 C96.9591181,69.9383655 96.7276377,69.5189604 96.5297619,68.9248627 C96.5156531,69.1623607 96.4893595,69.347111 96.4512016,69.4777242 C96.3679384,69.7560094 96.2455339,70.0295596 96.0848647,70.2991872 L95.2580789,71.6600442 L95.0063118,70.6079559 L95.6391231,69.5714622 C95.8212334,69.269534 95.9566778,69.0239556 96.0466534,68.8357636 C96.136116,68.6470371 96.1909265,68.482969 96.21194,68.3440081 C96.233317,68.208895 96.2384475,68.0737606 96.2275452,67.9394919 C96.2179256,67.8412648 96.1867152,67.6843687 96.1350899,67.4688141 L95.9028934,66.4984927 L94.1247582,66.9239476 L93.9244241,66.0868046 L93.9244134,66.0868581 Z M96.3620277,66.3886686 L96.7923992,68.1871119 C96.8839995,68.569909 96.9798003,68.8629764 97.0808385,69.0670301 C97.183341,69.2704105 97.3026244,69.4147477 97.4391162,69.5012816 C97.57688,69.5865757 97.7105501,69.6138099 97.839667,69.5829416 C98.028992,69.5376224 98.1585577,69.3913827 98.2284496,69.1434848 C98.2988867,68.8983873 98.2780442,68.5415632 98.1658152,68.0727131 L97.6869714,66.0716163 L96.3620277,66.3886579 L96.3620277,66.3886686 Z" id="path646" fill="#D0D0D0"></path>
                </g>
            </g>
        </g>
    </g>
</svg>
