<?xml version="1.0" encoding="UTF-8" standalone="no"?>
<svg width="874px" height="584px" viewBox="0 0 874 584" version="1.1" xmlns="http://www.w3.org/2000/svg" xmlns:xlink="http://www.w3.org/1999/xlink">
    <!-- Generator: Sketch 3.6 (26304) - http://www.bohemiancoding.com/sketch -->
    <title>pt</title>
    <desc>Created with Sketch.</desc>
    <defs>
        <rect id="path-1" x="0" y="0" width="870" height="580"></rect>
    </defs>
    <g id="Page-1" stroke="none" stroke-width="1" fill="none" fill-rule="evenodd">
        <g id="pt" transform="translate(2.000000, 2.000000)">
            <g id="Page-1">
                <g id="pt">
                    <g id="mask-2" fill="#FFFFFF">
                        <rect id="path-1" x="0" y="0" width="870" height="580"></rect>
                    </g>
                    <g id="Mask">
                        <rect id="path-1" x="0" y="0" width="870" height="580"></rect>
                    </g>
                    <g id="Clipped">
                        <mask id="mask-2" fill="white">
                            <use xlink:href="#path-1"></use>
                        </mask>
                        <g id="path-1"></g>
                        <g id="Group" mask="url(#mask-2)">
                            <g transform="translate(0.000000, -36.000000)">
                                <path d="M348,0 L870,0 L870,652.5 L348,652.5 L348,0 L348,0 Z" id="Shape" fill="#FF0000"></path>
                                <path d="M0,0 L348,0 L348,652.5 L0,652.5 L0,0 L0,0 Z" id="Shape" fill="#006600"></path>
                                <g id="Group-2" stroke-width="1" fill="none" transform="translate(217.000000, 194.000000)">
                                    <g id="Group" transform="translate(0.168942, 0.394492)" stroke="#000000" fill="#FFFF00">
                                        <path d="M233.449135,212.494756 C193.980234,211.305787 12.9921005,98.2495171 11.7513484,80.2458255 L21.7459559,63.5659349 C39.6982797,89.6705521 224.721002,199.620793 242.895019,195.725386 L233.449135,212.489853" id="Shape" stroke-width="0.61120191"></path>
                                        <path d="M19.6429239,61.3007645 C16.1031671,70.8370336 66.8723437,102.247886 127.954583,139.425852 C189.036823,176.602593 241.704485,199.576666 245.606792,196.281873 C245.845633,195.855315 247.529774,192.960113 247.37422,192.982177 C246.641772,194.085344 244.860871,194.433455 242.082958,193.63182 C225.579607,188.868588 182.539104,169.097377 129.235755,136.750058 C75.9336312,104.400288 29.5591423,74.5878026 22.3510216,61.9222155 C21.8488416,61.0445845 21.493641,59.4425404 21.5646811,58.1959612 L21.3895306,58.1959612 L19.8548194,60.8803352 L19.6429239,61.2995388 L19.6429239,61.3007645 L19.6429239,61.3007645 Z M234.376331,213.018148 C233.707574,214.231632 232.459473,214.273307 230.089429,214.01345 C215.32656,212.37831 170.528427,190.577272 117.520262,158.82076 C55.8403057,121.872008 4.90087782,88.205791 10.4273079,79.4049668 L11.9313983,76.7451077 L12.227807,76.8382641 C7.25744949,91.7494097 112.758126,152.119631 118.969235,155.96846 C180.01473,193.815681 231.47716,215.917026 236.032301,210.173201 L234.375106,213.024276 L234.375106,213.021825 L234.376331,213.018148 L234.376331,213.018148 Z" id="Shape" stroke-width="0.61120191"></path>
                                        <path d="M131.450246,91.1512479 C170.955892,90.8374581 219.705325,85.7457278 247.760042,74.5583849 L241.714284,64.7303893 C225.132544,73.9148706 176.116098,79.954099 131.118318,80.8574706 C77.8958079,80.3671739 40.3290668,75.4078237 21.508339,62.7692029 L15.8006342,73.234584 C50.4020634,87.8870982 85.8584235,90.9992559 131.451471,91.1500221" id="Shape" stroke-width="0.61120191"></path>
                                        <path d="M249.389065,74.7802441 C248.421449,76.3246784 230.126173,82.6396987 203.173804,87.299968 C184.89935,90.0873042 161.060496,92.4725972 131.313066,92.4995636 C103.048903,92.5265299 79.9608701,90.5138623 62.4813305,88.1420524 C34.1877724,83.7024166 19.5878066,77.5271308 14.1887588,75.3428594 C14.7031871,74.315688 15.0363407,73.594952 15.5336214,72.6339707 C31.0742562,78.8276426 45.7452622,82.562477 62.9320677,85.2076272 C80.2964734,87.561051 103.10647,89.6043621 131.228552,89.5786215 C160.840027,89.547978 184.415542,86.9837267 202.584661,84.2785151 C230.222935,79.816816 245.321406,74.0754427 247.441586,71.4082291 L249.392739,74.7814698 L249.39029,74.7814698 L249.389065,74.7802441 L249.389065,74.7802441 Z M244.083104,64.8149655 C241.087171,67.2210961 226.161401,72.518751 199.899835,76.7169157 C182.372527,79.2296858 160.087981,81.4801472 131.615598,81.5071136 C104.566467,81.5340799 82.466871,79.7101765 65.6585378,77.2599192 C38.9878787,73.7739103 24.7921065,67.4858563 19.6747695,65.6521469 C20.1842985,64.769613 20.7036261,63.8968851 21.2352021,63.0192541 C25.2158974,65.0245673 38.9156137,70.5894338 65.951272,74.4223275 C82.5697567,76.7806542 104.702423,78.5383676 131.618048,78.5101755 C159.9557,78.4819835 181.986705,76.1886211 199.400104,73.6881084 C225.798851,70.0537847 240.003197,63.2974975 242.158897,61.6059742 L244.084329,64.8100625 L244.084329,64.8137397 L244.083104,64.8149655 L244.083104,64.8149655 Z M1.73101946,138.779886 C26.0291841,151.858548 79.997615,158.449361 131.06565,158.902885 C177.563847,158.976429 238.140232,151.710234 260.794676,139.695515 L260.170013,126.607047 C253.084375,137.690202 188.167194,148.322284 130.56102,147.88592 C72.9536214,147.452008 19.4604243,138.548221 1.62813379,127.021348 L1.73101946,138.776209 L1.73101946,138.779886 L1.73101946,138.779886 Z" id="Shape" stroke-width="0.61120191"></path>
                                        <path d="M262.035428,136.895922 L262.035428,140.019111 C258.630402,144.093476 237.284076,150.250376 210.511756,154.587049 C190.13672,157.71269 163.572621,160.071017 130.472833,160.071017 C99.0277887,160.071017 73.9506325,157.82791 54.5040169,154.839552 C23.7608002,150.358241 4.09983942,142.513495 0.152214424,140.172329 L0.170586864,136.531876 C12.026935,144.419523 44.1480847,150.189088 54.9327072,151.956608 C74.2543902,154.922902 99.1821172,157.1513 130.470383,157.1513 C163.415843,157.1513 189.829288,154.810134 210.076942,151.704105 C229.282266,148.926575 256.644954,141.705731 262.031753,136.897147 L262.035428,136.895922 L262.035428,136.895922 Z M262.047676,125.794381 L262.047676,128.916344 C258.6451,132.985806 237.296324,139.145157 210.525229,143.480605 C190.150193,146.606246 163.587319,148.964573 130.487531,148.964573 C99.0412618,148.964573 73.9653305,146.723917 54.51749,143.733108 C23.776723,139.255474 4.11576221,131.410728 0.166912376,129.068336 L0.184059987,125.427884 C12.0404081,133.314305 44.1615579,139.086322 54.94863,140.850164 C74.2690881,143.820135 99.1968151,146.047308 130.483856,146.047308 C163.429316,146.047308 189.843986,143.706142 210.090415,140.597661 C229.295739,137.821356 256.658427,130.600513 262.045226,125.790703 L262.045226,125.794381 L262.047676,125.794381 L262.047676,125.794381 Z M130.955415,210.244294 C75.0750259,209.913344 27.192772,195.002199 17.0830306,192.537232 L24.4565032,204.088621 C42.3145152,211.606093 89.027057,222.810597 131.491891,221.570146 C173.956724,220.332147 211.069054,217.03858 237.222835,204.296997 L244.782481,192.327631 C226.95754,200.727637 166.302766,210.159718 130.952966,210.24552 L130.955415,210.244294 L130.955415,210.244294 Z" id="Shape" stroke-width="0.61120191"></path>
                                        <path d="M240.05954,201.615074 C238.95749,203.303943 237.826396,204.973652 236.666762,206.623454 C224.332731,210.974836 204.894689,215.546852 196.693231,216.879233 C179.937566,220.333373 154.016502,222.885367 131.011758,222.897624 C81.5090544,222.171985 40.9868002,212.473918 21.924781,204.201389 L20.3851705,201.553787 L20.6362605,201.157873 L23.245147,202.170335 C57.1459738,214.307628 95.221019,219.150532 131.287344,220.019583 C154.203901,220.100482 177.140056,217.391593 195.688871,214.072285 C224.131859,208.36891 235.633006,204.070234 239.16174,202.121305 L240.060764,201.618751 L240.05954,201.615074 L240.05954,201.615074 Z M246.614826,190.796679 C246.642997,190.831 246.672393,190.862869 246.700564,190.898416 C245.856096,192.326304 245.001552,193.748199 244.136996,195.163997 C237.557213,197.51742 219.701651,202.745208 193.628708,206.39424 C176.450477,208.735407 165.772415,211.003028 131.598451,211.66738 C67.5619226,210.037144 26.1014491,197.506389 16.2513714,194.415068 L14.7913748,191.613023 C51.9037042,201.308639 89.8121726,208.078409 131.60335,208.769727 C162.867119,208.102924 176.168766,205.79853 193.204917,203.474524 C223.608856,198.743162 238.927797,193.734782 243.524582,192.288407 C243.461741,192.198678 243.394709,192.111962 243.32371,192.02855 L246.62095,190.796679 L246.618501,190.799131 L246.614826,190.796679 L246.614826,190.796679 Z" id="Shape" stroke-width="0.5866685"></path>
                                        <path d="M247.284808,128.450562 C247.466083,165.238743 228.655153,198.251639 213.501565,212.814674 C192.064601,233.41939 163.642436,246.673333 130.449561,247.282526 C93.3862247,247.965264 58.4369439,223.785061 49.0621001,213.160334 C30.7349785,192.390143 15.8141073,166.015863 15.3351991,130.47181 C17.6048079,90.3201951 33.3548885,62.3524507 56.1857076,43.1744988 C79.0165267,23.9953212 109.416791,14.653945 134.734014,15.3219742 C163.942519,16.0941913 198.063816,30.4353672 221.641781,58.9019883 C237.086879,77.5577744 243.776897,97.7984442 247.283583,128.450562 L247.284808,128.450562 L247.284808,128.450562 Z M130.764342,2.48968612 C201.948974,2.48968612 260.493368,60.4599058 260.493368,131.539431 C260.493368,202.616505 201.948974,260.589176 130.764342,260.589176 C59.5809346,260.589176 1.52034881,202.617731 1.52034881,131.538205 C1.52034881,60.4574543 59.5809346,2.48723464 130.764342,2.48723464 L130.764342,2.48968612 L130.764342,2.48968612 Z" id="Shape" stroke-width="0.61120191"></path>
                                        <path d="M131.112194,2.04596769 C202.360517,2.04596769 260.468871,60.2074031 260.468871,131.513691 C260.468871,202.818752 202.359292,260.97651 131.112194,260.97651 C59.8638701,260.97651 1.75551605,202.819978 1.75551605,131.513691 C1.75551605,60.2049516 59.865095,2.04474195 131.112194,2.04474195 L131.112194,2.04596769 L131.112194,2.04596769 Z M4.60324429,131.514916 C4.60324429,201.149292 61.7415335,258.130339 131.112194,258.130339 C200.482854,258.130339 257.624817,201.149292 257.624817,131.513691 C257.624817,61.8744115 200.481629,4.894591 131.112194,4.894591 C61.7427584,4.894591 4.60324429,61.8793145 4.60324429,131.513691 L4.60324429,131.514916 L4.60324429,131.514916 Z" id="Shape" stroke-width="0.61120191"></path>
                                        <path d="M131.217529,12.8067525 C196.189827,12.8067525 249.70752,66.17799 249.70752,131.397245 C249.70752,196.618952 196.188602,249.987738 131.217529,249.987738 C66.2452311,249.987738 12.7275374,196.618952 12.7275374,131.397245 C12.7275374,66.17799 66.2464559,12.8067525 131.217529,12.8067525 L131.217529,12.8067525 L131.217529,12.8067525 Z M15.572816,131.397245 C15.572816,195.050003 67.8056637,247.139114 131.216304,247.139114 C194.62572,247.139114 246.858567,195.051228 246.858567,131.397245 C246.858567,67.7444877 194.628169,15.6553758 131.215079,15.6553758 C67.803214,15.6553758 15.5703663,67.743262 15.5703663,131.397245 L15.572816,131.397245 L15.572816,131.397245 Z" id="Shape" stroke-width="0.61120191"></path>
                                        <path d="M136.429178,1.52502754 L125.344472,1.52502754 L125.35672,261.655571 L136.480621,261.655571 L136.429178,1.52502754 L136.429178,1.52502754 Z" id="Shape" stroke-width="0.61120191"></path>
                                        <path d="M135.320707,0.0418802966 L138.140264,0.0418802966 L138.164761,263.166911 L135.340304,263.166911 L135.320707,0.0406545551 L135.320707,0.0418802966 L135.320707,0.0418802966 Z M124.31684,0.0418802966 L127.160894,0.0418802966 L127.164569,263.169362 L124.31929,263.169362 L124.31929,0.0418802966 L124.31684,0.0418802966 L124.31684,0.0418802966 Z" id="Shape" stroke-width="0.61120191"></path>
                                        <path d="M260.559508,136.524522 L260.559508,126.90858 L252.732849,119.612966 L208.311963,107.845847 L144.295032,101.307742 L67.2116214,105.230115 L12.3392665,118.3051 L1.26068499,126.517568 L1.26068499,136.134736 L29.3239751,123.535339 L95.9546918,113.074861 L159.972848,113.074861 L207.006295,118.3051 L239.667594,126.149846 L260.559508,136.524522 L260.559508,136.524522 Z" id="Shape" stroke-width="0.61120191"></path>
                                        <path d="M131.164861,111.467914 C161.714555,111.41153 191.352976,114.364341 214.8648,118.944937 C239.124995,123.798873 256.197891,129.869971 262.035428,136.688771 L262.028079,140.066915 C254.98776,131.581106 232.013635,125.360468 214.317301,121.803366 C190.984302,117.261994 161.544304,114.328794 131.163636,114.38763 C99.1049529,114.44524 69.2534119,117.483853 46.2621402,121.97497 C27.8162102,125.63626 3.21306297,132.913487 0.14119096,140.09143 L0.14119096,136.576003 C1.82778098,131.608073 20.1475536,124.183756 45.846923,119.035642 C69.0108957,114.512656 98.9187788,111.526749 131.164861,111.469139 L131.164861,111.467914 L131.164861,111.467914 Z M131.177109,100.362695 C161.726803,100.308763 191.367673,103.2628 214.877048,107.84217 C239.137243,112.698558 256.210139,118.767204 262.047676,125.586005 L262.041552,128.961697 C255.001233,120.479565 232.027109,114.256476 214.330774,110.701825 C191.000225,106.158001 161.559002,103.224802 131.177109,103.283638 C99.118426,103.341247 69.4126398,106.382312 46.4189183,110.868526 C28.6172486,114.24667 3.01096613,121.811946 0.154664083,128.989889 L0.154664083,125.472011 C1.8412541,120.556787 20.5309252,112.866485 45.861621,107.931649 C69.023144,103.408663 98.9310271,100.425208 131.177109,100.365147 L131.177109,100.362695 L131.177109,100.362695 Z M130.549997,43.7273083 C178.693139,43.4870629 220.685189,50.4639837 239.896637,60.3115911 L246.902661,72.4464322 C230.205787,63.4396835 184.904249,54.0750182 130.621037,55.4760408 C86.3924491,55.7481554 39.1311837,60.3483633 15.4197123,73.0090476 L23.7852968,59.0061764 C43.2478352,48.9060662 89.1397413,43.7824666 130.553671,43.7297597 L130.549997,43.7273083 L130.549997,43.7273083 Z" id="Shape" stroke-width="0.61120191"></path>
                                        <path d="M131.190583,53.7416165 C158.648807,53.6705235 185.18106,55.2198608 206.28242,59.0306912 C225.932358,62.6907554 244.673472,68.1833032 247.350949,71.1373403 L249.430709,74.8121133 C242.914617,70.5526615 226.697876,65.8114933 205.873327,61.8597026 C184.961816,57.9250724 158.447935,56.6233349 131.142814,56.6956536 C100.148508,56.5890141 76.0708121,58.2278305 55.4054913,61.8315106 C33.5508612,65.9254873 18.3874738,71.7722744 14.646845,74.5485789 L16.6825114,70.6654298 C23.9506487,66.9538844 35.4836419,62.4811536 54.8628919,58.9902417 C76.2324896,55.0838035 100.567399,53.9119946 131.190583,53.744068 L131.190583,53.7416165 L131.190583,53.7416165 Z M131.178334,42.6486557 C157.455823,42.5812399 183.401383,44.0460011 203.62699,47.6864534 C219.576718,50.7924824 235.350071,55.6439674 241.127591,59.961029 L244.165167,64.7929021 C239.000062,59.0466258 219.558346,53.601882 202.392362,50.5497856 C182.323534,47.0870658 157.455823,45.7166868 131.178334,45.497279 C103.601301,45.5745007 78.1150523,47.2647983 58.3377328,50.8684784 C39.4716863,54.4599011 27.2968825,58.7156756 22.1440254,62.0374352 L24.8178279,58.0022941 C31.9279623,54.256428 43.4131871,50.8169972 57.8759721,48.0039204 C77.7990463,44.373274 103.442074,42.7258774 131.182009,42.64743 L131.178334,42.6486557 L131.178334,42.6486557 Z M195.443906,185.324969 C171.641797,180.879205 147.798044,180.233239 131.142814,180.429358 C50.9140421,181.370727 24.996653,196.915581 21.8341436,201.622429 L15.8386039,191.841011 C36.265083,177.024248 79.9522963,168.716172 131.576404,169.56561 C158.383019,170.004426 181.516371,171.786654 200.975235,175.559487 L195.441456,185.328647 L195.443906,185.324969 L195.443906,185.324969 Z" id="Shape" stroke-width="0.61120191"></path>
                                        <path d="M130.681054,179.049173 C152.997444,179.3838 174.904742,180.305558 196.050196,184.25122 L194.51671,186.956431 C174.879021,183.330688 153.944237,181.943148 130.756993,182.053465 C101.147968,181.823026 71.2008906,184.59075 45.129173,192.080031 C36.9019943,194.369716 23.2831167,199.662468 21.8941602,204.037139 L20.3704725,201.524369 C20.8114111,198.938055 29.0422643,193.571758 44.4285707,189.246116 C74.2923599,180.687989 102.225818,179.244066 130.681054,179.047947 L130.681054,179.051624 L130.681054,179.049173 L130.681054,179.049173 Z M131.693987,167.809123 C154.815091,168.243035 178.693139,169.313108 201.903656,173.913316 L200.310153,176.732521 C179.350873,172.568677 159.327362,171.179912 131.829944,170.757031 C102.127832,170.810964 70.6203215,172.930271 41.9727878,181.265313 C32.7253262,183.961945 16.7621253,189.790346 16.2293245,194.405263 L14.7056368,191.704954 C15.0522635,187.512918 28.8707882,182.046111 41.3028061,178.426496 C70.172034,170.026489 101.760383,167.866733 131.695212,167.811574 L131.693987,167.809123 L131.693987,167.809123 Z" id="Shape" stroke-width="0.5866685"></path>
                                        <path d="M245.653335,193.329061 L236.011479,208.295365 L208.311963,183.678798 L136.456124,135.302458 L55.4532596,90.8484897 L13.397519,76.4533813 L22.3608202,59.8200688 L25.4045212,58.1616405 L51.5338057,64.69852 L137.761792,109.152488 L187.409025,140.531471 L229.216125,170.603814 L246.200834,190.215678 L245.653335,193.329061 L245.653335,193.329061 Z" id="Shape" stroke-width="0.61120191"></path>
                                        <path d="M11.8824051,76.8468443 C19.2583275,71.8396901 73.4692746,96.0051843 130.191122,130.235242 C186.76354,164.560908 240.820159,203.350724 235.940438,210.607114 L234.335912,213.134593 L233.601014,213.715594 C233.757792,213.602826 234.571079,212.607524 233.520176,209.915796 C231.109711,201.979119 192.763979,171.357645 129.140218,132.914713 C67.1148599,95.9009963 15.4221619,73.5925005 10.2533821,79.9688079 L11.8824051,76.8456185 L11.8824051,76.8468443 L11.8824051,76.8468443 Z M247.62531,193.114557 C252.288236,183.894529 202.007766,145.988472 139.668851,109.081395 C75.891987,72.9097625 29.9302656,51.6186322 21.5340604,57.9679733 L19.6698701,61.3632773 C19.6527225,61.5508158 19.7372358,61.1328379 20.1316308,60.828854 C21.6577682,59.4952472 24.1882656,59.5847264 25.3298066,59.5663403 C39.7852426,59.780845 81.0717904,78.7957733 139.001319,112.030529 C164.383458,126.825229 246.22533,179.351931 245.912999,194.124568 C245.935046,195.391984 246.018334,195.654293 245.540651,196.281873 L247.622861,193.114557 L247.622861,193.110879 L247.62531,193.114557 L247.62531,193.114557 Z" id="Shape" stroke-width="0.61120191"></path>
                                    </g>
                                    <g id="Group" transform="translate(53.010376, 42.478488)">
                                        <path d="M0.783893235,103.692467 C0.783893235,124.964869 9.48902761,144.206783 23.5912669,158.268534 C37.7209425,172.360356 56.9224072,181.253711 78.2155605,181.253711 C99.6158458,181.253711 119.038107,172.553861 133.107684,158.516952 C147.178568,144.48135 155.896767,125.10869 155.900687,103.760455 L155.898074,103.760455 L155.898074,0.222562246 L0.765602392,0.0395176063 L0.781280257,103.692467 L0.783893235,103.692467 L0.783893235,103.692467 L0.783893235,103.692467 Z" id="Shape" stroke="#000000" stroke-width="0.7146689" fill="#FFFFFF"></path>
                                        <path d="M3.6842982,103.836288 L3.6842982,103.895124 C3.6842982,124.235306 12.0980856,142.758116 25.6006466,156.206667 C39.1280308,169.678752 57.75856,178.054352 78.1397841,178.054352 C98.6255273,178.054352 117.216862,169.738896 130.686761,156.317801 C144.156659,142.896707 152.502509,124.372589 152.505122,103.961804 L152.502509,103.961804 L152.502509,3.51475084 L3.77183295,3.4886016 L3.68037874,103.836288 L3.6842982,103.836288 L3.6842982,103.836288 Z M122.599595,33.5628359 L122.604821,97.4846391 L122.552562,104.248139 C122.552562,106.026286 122.44543,108.055467 122.239005,109.782624 C121.029196,119.889303 116.385935,128.697673 109.505965,135.550079 C101.452769,143.572664 90.3397758,148.548864 78.0888311,148.548864 C65.9045172,148.548864 55.0449829,143.40008 46.9578177,135.3435 C38.6616143,127.080342 33.8537358,115.749879 33.8537358,104.033715 L33.8367515,33.4020181 L122.599595,33.5615285 L122.599595,33.5641434 L122.599595,33.5628359 L122.599595,33.5628359 Z" id="Shape" stroke="#000000" stroke-width="0.54080169" fill="#FF0000"></path>
                                        <g id="e" transform="translate(6.532444, 4.954350)">
                                            <g id="d" transform="translate(0.000000, 0.409336)">
                                                <path d="M6.78067648,24.3525977 C6.95705246,17.135409 12.0745688,15.4252491 12.1111505,15.4004073 C12.1503451,15.3742581 17.6402108,17.240006 17.6219199,24.4192782 L6.78067648,24.3539051" id="Shape" fill="#FFFF00"></path>
                                                <path d="M2.36474459,15.5403057 L1.47371928,23.8361503 L6.8825826,23.8492249 C6.93484215,16.9850509 12.0758753,15.8423294 12.1999917,15.8684786 C12.3175757,15.8632488 17.4128817,17.3851342 17.5474501,23.8492249 L22.9719912,23.8492249 L21.9921247,15.4893147 L2.36605108,15.5389983 L2.36605108,15.5416132 L2.36474459,15.5403057 L2.36474459,15.5403057 Z M1.11051542,23.8688368 L23.2502733,23.8688368 C23.7166898,23.8688368 24.099491,24.3303708 24.099491,24.8938868 C24.099491,25.4560954 23.7166898,25.913707 23.2502733,25.913707 L1.11051542,25.913707 C0.644098941,25.913707 0.261297745,25.4560954 0.261297745,24.8938868 C0.261297745,24.3316783 0.644098941,23.8688368 1.11051542,23.8688368 L1.11051542,23.8688368 L1.11051542,23.8688368 Z" id="Shape" stroke="#000000" stroke-width="0.533335" fill="#FFFF00"></path>
                                                <path d="M9.15848596,23.829613 C9.18200276,19.4979923 12.1137635,18.2729007 12.1294413,18.2755156 C12.1294413,18.2755156 15.1892379,19.5385237 15.2127547,23.829613 L9.15848596,23.829613 L9.15848596,23.829613 L9.15848596,23.829613 Z M1.58085136,12.0886068 L22.8047607,12.0886068 C23.2515798,12.0886068 23.6187032,12.5043796 23.6187032,13.0103673 C23.6187032,13.516355 23.2528863,13.9308204 22.8047607,13.9308204 L1.58085136,13.9308204 C1.13403221,13.9308204 0.766908881,13.5176625 0.766908881,13.0090599 C0.766908881,12.5030722 1.13272572,12.0872994 1.58085136,12.0872994 L1.58085136,12.0886068 L1.58085136,12.0886068 Z M2.02505752,13.9452024 L22.3252793,13.9452024 C22.7525011,13.9452024 23.1026401,14.3596678 23.1026401,14.8656555 C23.1026401,15.3729506 22.7525011,15.7861085 22.3252793,15.7861085 L2.02505752,15.7861085 C1.59783571,15.7861085 1.24769673,15.3729506 1.24769673,14.8656555 C1.24769673,14.3596678 1.59783571,13.9452024 2.02505752,13.9452024 L2.02505752,13.9452024 L2.02505752,13.9452024 Z M8.58363092,0.0991829082 L10.1866926,0.101797832 L10.1866926,1.23928952 L11.356,1.23928952 L11.356,0.0756485973 L12.9982563,0.0821859059 L12.9982563,1.24190445 L14.1688702,1.24190445 L14.1688702,0.0782635208 L15.812433,0.0782635208 L15.8098201,2.70626156 C15.8098201,3.12072693 15.4779719,3.38614165 15.0912513,3.38614165 L9.32963598,3.38614165 C8.94291532,3.38614165 8.58493741,3.07758069 8.58493741,2.69972426 L8.57971145,0.0978754465 L8.58363092,0.0991829082 L8.58363092,0.0991829082 Z M14.6196088,3.61625492 L14.9815062,12.049383 L9.35968522,12.029771 L9.73203451,3.59402807 L14.6183023,3.61625492 L14.6196088,3.61625492 L14.6196088,3.61625492 Z" id="Shape" stroke="#000000" stroke-width="0.533335" fill="#FFFF00"></path>
                                                <path d="M7.76054302,7.52556544 L7.93038656,12.0729173 L2.54242706,12.0729173 L2.69397975,7.52556544 L7.763156,7.52556544 L7.76054302,7.52556544 L7.76054302,7.52556544 L7.76054302,7.52556544 Z" id="a" stroke="#000000" stroke-width="0.533335" fill="#FFFF00"></path>
                                                <g id="a-link" transform="translate(16.218820, 6.793387)" stroke="#000000" stroke-width="0.533335" fill="#FFFF00">
                                                    <path d="M5.40226147,0.732178559 L5.572105,5.2795304 L0.184145505,5.2795304 L0.335698197,0.732178559 L5.40487445,0.732178559 L5.40226147,0.732178559 L5.40226147,0.732178559 L5.40226147,0.732178559 Z" id="a"></path>
                                                </g>
                                                <path d="M1.69843534,4.23076192 L3.26622181,4.23468431 L3.26622181,5.37479092 L4.41201242,5.37479092 L4.41201242,4.20853507 L6.01899355,4.21376492 L6.01899355,5.37740584 L7.16870363,5.37740584 L7.16870363,4.20853507 L8.77568476,4.21115 L8.7717653,6.84176296 C8.7717653,7.25230594 8.44514311,7.51902813 8.07148734,7.51902813 L2.43137552,7.51902813 C2.05249379,7.51902813 1.70235481,7.21177463 1.70235481,6.83261073 L1.69843534,4.23076192 L1.69843534,4.23076192 L1.69843534,4.23076192 Z" id="b" stroke="#000000" stroke-width="0.533335" fill="#FFFF00"></path>
                                                <g id="b-link" transform="translate(15.167028, 4.178463)" stroke="#000000" stroke-width="0.533335" fill="#FFFF00">
                                                    <path d="M0.391946617,0.0522984685 L1.95973309,0.0562208537 L1.95973309,1.19632747 L3.1055237,1.19632747 L3.1055237,0.0300716194 L4.71250483,0.0353014662 L4.71250483,1.19894239 L5.86221491,1.19894239 L5.86221491,0.0300716194 L7.46919604,0.0326865428 L7.46527657,2.66329951 C7.46527657,3.07384249 7.13865439,3.34056468 6.76499861,3.34056468 L1.12488679,3.34056468 C0.746005062,3.34056468 0.395866083,3.03331117 0.395866083,2.65414728 L0.391946617,0.0522984685 L0.391946617,0.0522984685 L0.391946617,0.0522984685 Z" id="b"></path>
                                                </g>
                                                <path d="M11.6277496,6.28347681 C11.5937809,5.46369832 12.7735403,5.45454608 12.7591689,6.28347681 L12.7591689,8.291738 L11.6277496,8.291738 L11.6277496,6.28347681" id="Shape" fill="#000000"></path>
                                                <path d="M4.66416475,9.19911643 C4.66024528,8.40679463 5.75769581,8.39110509 5.74332443,9.19911643 L5.74332443,10.7510735 L4.66416475,10.7510735 L4.66416475,9.19911643" id="c" fill="#000000"></path>
                                                <g id="c-link" transform="translate(17.821813, 8.100849)" fill="#000000">
                                                    <path d="M0.744698573,1.09826784 C0.740779107,0.305946041 1.83822964,0.2902565 1.82385826,1.09826784 L1.82385826,2.65022489 L0.744698573,2.65022489 L0.744698573,1.09826784" id="c"></path>
                                                </g>
                                            </g>
                                            <g id="d-link" transform="translate(0.000000, 60.970963)">
                                                <g id="d">
                                                    <path d="M6.78067648,24.3525977 C6.95705246,17.135409 12.0745688,15.4252491 12.1111505,15.4004073 C12.1503451,15.3742581 17.6402108,17.240006 17.6219199,24.4192782 L6.78067648,24.3539051" id="Shape" fill="#FFFF00"></path>
                                                    <path d="M2.36474459,15.5403057 L1.47371928,23.8361503 L6.8825826,23.8492249 C6.93484215,16.9850509 12.0758753,15.8423294 12.1999917,15.8684786 C12.3175757,15.8632488 17.4128817,17.3851342 17.5474501,23.8492249 L22.9719912,23.8492249 L21.9921247,15.4893147 L2.36605108,15.5389983 L2.36605108,15.5416132 L2.36474459,15.5403057 L2.36474459,15.5403057 Z M1.11051542,23.8688368 L23.2502733,23.8688368 C23.7166898,23.8688368 24.099491,24.3303708 24.099491,24.8938868 C24.099491,25.4560954 23.7166898,25.913707 23.2502733,25.913707 L1.11051542,25.913707 C0.644098941,25.913707 0.261297745,25.4560954 0.261297745,24.8938868 C0.261297745,24.3316783 0.644098941,23.8688368 1.11051542,23.8688368 L1.11051542,23.8688368 L1.11051542,23.8688368 Z" id="Shape" stroke="#000000" stroke-width="0.533335" fill="#FFFF00"></path>
                                                    <path d="M9.15848596,23.829613 C9.18200276,19.4979923 12.1137635,18.2729007 12.1294413,18.2755156 C12.1294413,18.2755156 15.1892379,19.5385237 15.2127547,23.829613 L9.15848596,23.829613 L9.15848596,23.829613 L9.15848596,23.829613 Z M1.58085136,12.0886068 L22.8047607,12.0886068 C23.2515798,12.0886068 23.6187032,12.5043796 23.6187032,13.0103673 C23.6187032,13.516355 23.2528863,13.9308204 22.8047607,13.9308204 L1.58085136,13.9308204 C1.13403221,13.9308204 0.766908881,13.5176625 0.766908881,13.0090599 C0.766908881,12.5030722 1.13272572,12.0872994 1.58085136,12.0872994 L1.58085136,12.0886068 L1.58085136,12.0886068 Z M2.02505752,13.9452024 L22.3252793,13.9452024 C22.7525011,13.9452024 23.1026401,14.3596678 23.1026401,14.8656555 C23.1026401,15.3729506 22.7525011,15.7861085 22.3252793,15.7861085 L2.02505752,15.7861085 C1.59783571,15.7861085 1.24769673,15.3729506 1.24769673,14.8656555 C1.24769673,14.3596678 1.59783571,13.9452024 2.02505752,13.9452024 L2.02505752,13.9452024 L2.02505752,13.9452024 Z M8.58363092,0.0991829082 L10.1866926,0.101797832 L10.1866926,1.23928952 L11.356,1.23928952 L11.356,0.0756485973 L12.9982563,0.0821859059 L12.9982563,1.24190445 L14.1688702,1.24190445 L14.1688702,0.0782635208 L15.812433,0.0782635208 L15.8098201,2.70626156 C15.8098201,3.12072693 15.4779719,3.38614165 15.0912513,3.38614165 L9.32963598,3.38614165 C8.94291532,3.38614165 8.58493741,3.07758069 8.58493741,2.69972426 L8.57971145,0.0978754465 L8.58363092,0.0991829082 L8.58363092,0.0991829082 Z M14.6196088,3.61625492 L14.9815062,12.049383 L9.35968522,12.029771 L9.73203451,3.59402807 L14.6183023,3.61625492 L14.6196088,3.61625492 L14.6196088,3.61625492 Z" id="Shape" stroke="#000000" stroke-width="0.533335" fill="#FFFF00"></path>
                                                    <path d="M7.76054302,7.52556544 L7.93038656,12.0729173 L2.54242706,12.0729173 L2.69397975,7.52556544 L7.763156,7.52556544 L7.76054302,7.52556544 L7.76054302,7.52556544 L7.76054302,7.52556544 Z" id="a" stroke="#000000" stroke-width="0.533335" fill="#FFFF00"></path>
                                                    <g id="a-link" transform="translate(16.218820, 6.793387)" stroke="#000000" stroke-width="0.533335" fill="#FFFF00">
                                                        <path d="M5.40226147,0.732178559 L5.572105,5.2795304 L0.184145505,5.2795304 L0.335698197,0.732178559 L5.40487445,0.732178559 L5.40226147,0.732178559 L5.40226147,0.732178559 L5.40226147,0.732178559 Z" id="a"></path>
                                                    </g>
                                                    <path d="M1.69843534,4.23076192 L3.26622181,4.23468431 L3.26622181,5.37479092 L4.41201242,5.37479092 L4.41201242,4.20853507 L6.01899355,4.21376492 L6.01899355,5.37740584 L7.16870363,5.37740584 L7.16870363,4.20853507 L8.77568476,4.21115 L8.7717653,6.84176296 C8.7717653,7.25230594 8.44514311,7.51902813 8.07148734,7.51902813 L2.43137552,7.51902813 C2.05249379,7.51902813 1.70235481,7.21177463 1.70235481,6.83261073 L1.69843534,4.23076192 L1.69843534,4.23076192 L1.69843534,4.23076192 Z" id="b" stroke="#000000" stroke-width="0.533335" fill="#FFFF00"></path>
                                                    <g id="b-link" transform="translate(15.167028, 4.178463)" stroke="#000000" stroke-width="0.533335" fill="#FFFF00">
                                                        <path d="M0.391946617,0.0522984685 L1.95973309,0.0562208537 L1.95973309,1.19632747 L3.1055237,1.19632747 L3.1055237,0.0300716194 L4.71250483,0.0353014662 L4.71250483,1.19894239 L5.86221491,1.19894239 L5.86221491,0.0300716194 L7.46919604,0.0326865428 L7.46527657,2.66329951 C7.46527657,3.07384249 7.13865439,3.34056468 6.76499861,3.34056468 L1.12488679,3.34056468 C0.746005062,3.34056468 0.395866083,3.03331117 0.395866083,2.65414728 L0.391946617,0.0522984685 L0.391946617,0.0522984685 L0.391946617,0.0522984685 Z" id="b"></path>
                                                    </g>
                                                    <path d="M11.6277496,6.28347681 C11.5937809,5.46369832 12.7735403,5.45454608 12.7591689,6.28347681 L12.7591689,8.291738 L11.6277496,8.291738 L11.6277496,6.28347681" id="Shape" fill="#000000"></path>
                                                    <path d="M4.66416475,9.19911643 C4.66024528,8.40679463 5.75769581,8.39110509 5.74332443,9.19911643 L5.74332443,10.7510735 L4.66416475,10.7510735 L4.66416475,9.19911643" id="c" fill="#000000"></path>
                                                    <g id="c-link" transform="translate(17.821813, 8.100849)" fill="#000000">
                                                        <path d="M0.744698573,1.09826784 C0.740779107,0.305946041 1.83822964,0.2902565 1.82385826,1.09826784 L1.82385826,2.65022489 L0.744698573,2.65022489 L0.744698573,1.09826784" id="c"></path>
                                                    </g>
                                                </g>
                                            </g>
                                            <g id="d-link" transform="translate(24.207714, 132.036169) rotate(-45.202000) translate(-24.207714, -132.036169) translate(11.207714, 118.536169)">
                                                <g id="d" transform="translate(0.002724, 0.049314)">
                                                    <path d="M6.78067648,24.3525977 C6.95705246,17.135409 12.0745688,15.4252491 12.1111505,15.4004073 C12.1503451,15.3742581 17.6402108,17.240006 17.6219199,24.4192782 L6.78067648,24.3539051" id="Shape" fill="#FFFF00"></path>
                                                    <path d="M2.36474459,15.5403057 L1.47371928,23.8361503 L6.8825826,23.8492249 C6.93484215,16.9850509 12.0758753,15.8423294 12.1999917,15.8684786 C12.3175757,15.8632488 17.4128817,17.3851342 17.5474501,23.8492249 L22.9719912,23.8492249 L21.9921247,15.4893147 L2.36605108,15.5389983 L2.36605108,15.5416132 L2.36474459,15.5403057 L2.36474459,15.5403057 Z M1.11051542,23.8688368 L23.2502733,23.8688368 C23.7166898,23.8688368 24.099491,24.3303708 24.099491,24.8938868 C24.099491,25.4560954 23.7166898,25.913707 23.2502733,25.913707 L1.11051542,25.913707 C0.644098941,25.913707 0.261297745,25.4560954 0.261297745,24.8938868 C0.261297745,24.3316783 0.644098941,23.8688368 1.11051542,23.8688368 L1.11051542,23.8688368 L1.11051542,23.8688368 Z" id="Shape" stroke="#000000" stroke-width="0.533335" fill="#FFFF00"></path>
                                                    <path d="M9.15848596,23.829613 C9.18200276,19.4979923 12.1137635,18.2729007 12.1294413,18.2755156 C12.1294413,18.2755156 15.1892379,19.5385237 15.2127547,23.829613 L9.15848596,23.829613 L9.15848596,23.829613 L9.15848596,23.829613 Z M1.58085136,12.0886068 L22.8047607,12.0886068 C23.2515798,12.0886068 23.6187032,12.5043796 23.6187032,13.0103673 C23.6187032,13.516355 23.2528863,13.9308204 22.8047607,13.9308204 L1.58085136,13.9308204 C1.13403221,13.9308204 0.766908881,13.5176625 0.766908881,13.0090599 C0.766908881,12.5030722 1.13272572,12.0872994 1.58085136,12.0872994 L1.58085136,12.0886068 L1.58085136,12.0886068 Z M2.02505752,13.9452024 L22.3252793,13.9452024 C22.7525011,13.9452024 23.1026401,14.3596678 23.1026401,14.8656555 C23.1026401,15.3729506 22.7525011,15.7861085 22.3252793,15.7861085 L2.02505752,15.7861085 C1.59783571,15.7861085 1.24769673,15.3729506 1.24769673,14.8656555 C1.24769673,14.3596678 1.59783571,13.9452024 2.02505752,13.9452024 L2.02505752,13.9452024 L2.02505752,13.9452024 Z M8.58363092,0.0991829082 L10.1866926,0.101797832 L10.1866926,1.23928952 L11.356,1.23928952 L11.356,0.0756485973 L12.9982563,0.0821859059 L12.9982563,1.24190445 L14.1688702,1.24190445 L14.1688702,0.0782635208 L15.812433,0.0782635208 L15.8098201,2.70626156 C15.8098201,3.12072693 15.4779719,3.38614165 15.0912513,3.38614165 L9.32963598,3.38614165 C8.94291532,3.38614165 8.58493741,3.07758069 8.58493741,2.69972426 L8.57971145,0.0978754465 L8.58363092,0.0991829082 L8.58363092,0.0991829082 Z M14.6196088,3.61625492 L14.9815062,12.049383 L9.35968522,12.029771 L9.73203451,3.59402807 L14.6183023,3.61625492 L14.6196088,3.61625492 L14.6196088,3.61625492 Z" id="Shape" stroke="#000000" stroke-width="0.533335" fill="#FFFF00"></path>
                                                    <path d="M7.76054302,7.52556544 L7.93038656,12.0729173 L2.54242706,12.0729173 L2.69397975,7.52556544 L7.763156,7.52556544 L7.76054302,7.52556544 L7.76054302,7.52556544 L7.76054302,7.52556544 Z" id="a" stroke="#000000" stroke-width="0.533335" fill="#FFFF00"></path>
                                                    <g id="a-link" transform="translate(16.218820, 6.793387)" stroke="#000000" stroke-width="0.533335" fill="#FFFF00">
                                                        <path d="M5.40226147,0.732178559 L5.572105,5.2795304 L0.184145505,5.2795304 L0.335698197,0.732178559 L5.40487445,0.732178559 L5.40226147,0.732178559 L5.40226147,0.732178559 L5.40226147,0.732178559 Z" id="a"></path>
                                                    </g>
                                                    <path d="M1.69843534,4.23076192 L3.26622181,4.23468431 L3.26622181,5.37479092 L4.41201242,5.37479092 L4.41201242,4.20853507 L6.01899355,4.21376492 L6.01899355,5.37740584 L7.16870363,5.37740584 L7.16870363,4.20853507 L8.77568476,4.21115 L8.7717653,6.84176296 C8.7717653,7.25230594 8.44514311,7.51902813 8.07148734,7.51902813 L2.43137552,7.51902813 C2.05249379,7.51902813 1.70235481,7.21177463 1.70235481,6.83261073 L1.69843534,4.23076192 L1.69843534,4.23076192 L1.69843534,4.23076192 Z" id="b" stroke="#000000" stroke-width="0.533335" fill="#FFFF00"></path>
                                                    <g id="b-link" transform="translate(15.167028, 4.178463)" stroke="#000000" stroke-width="0.533335" fill="#FFFF00">
                                                        <path d="M0.391946617,0.0522984685 L1.95973309,0.0562208537 L1.95973309,1.19632747 L3.1055237,1.19632747 L3.1055237,0.0300716194 L4.71250483,0.0353014662 L4.71250483,1.19894239 L5.86221491,1.19894239 L5.86221491,0.0300716194 L7.46919604,0.0326865428 L7.46527657,2.66329951 C7.46527657,3.07384249 7.13865439,3.34056468 6.76499861,3.34056468 L1.12488679,3.34056468 C0.746005062,3.34056468 0.395866083,3.03331117 0.395866083,2.65414728 L0.391946617,0.0522984685 L0.391946617,0.0522984685 L0.391946617,0.0522984685 Z" id="b"></path>
                                                    </g>
                                                    <path d="M11.6277496,6.28347681 C11.5937809,5.46369832 12.7735403,5.45454608 12.7591689,6.28347681 L12.7591689,8.291738 L11.6277496,8.291738 L11.6277496,6.28347681" id="Shape" fill="#000000"></path>
                                                    <path d="M4.66416475,9.19911643 C4.66024528,8.40679463 5.75769581,8.39110509 5.74332443,9.19911643 L5.74332443,10.7510735 L4.66416475,10.7510735 L4.66416475,9.19911643" id="c" fill="#000000"></path>
                                                    <g id="c-link" transform="translate(17.821813, 8.100849)" fill="#000000">
                                                        <path d="M0.744698573,1.09826784 C0.740779107,0.305946041 1.83822964,0.2902565 1.82385826,1.09826784 L1.82385826,2.65022489 L0.744698573,2.65022489 L0.744698573,1.09826784" id="c"></path>
                                                    </g>
                                                </g>
                                            </g>
                                        </g>
                                        <g id="d-link" transform="translate(66.257269, 5.363686)">
                                            <g id="d">
                                                <path d="M6.78067648,24.3525977 C6.95705246,17.135409 12.0745688,15.4252491 12.1111505,15.4004073 C12.1503451,15.3742581 17.6402108,17.240006 17.6219199,24.4192782 L6.78067648,24.3539051" id="Shape" fill="#FFFF00"></path>
                                                <path d="M2.36474459,15.5403057 L1.47371928,23.8361503 L6.8825826,23.8492249 C6.93484215,16.9850509 12.0758753,15.8423294 12.1999917,15.8684786 C12.3175757,15.8632488 17.4128817,17.3851342 17.5474501,23.8492249 L22.9719912,23.8492249 L21.9921247,15.4893147 L2.36605108,15.5389983 L2.36605108,15.5416132 L2.36474459,15.5403057 L2.36474459,15.5403057 Z M1.11051542,23.8688368 L23.2502733,23.8688368 C23.7166898,23.8688368 24.099491,24.3303708 24.099491,24.8938868 C24.099491,25.4560954 23.7166898,25.913707 23.2502733,25.913707 L1.11051542,25.913707 C0.644098941,25.913707 0.261297745,25.4560954 0.261297745,24.8938868 C0.261297745,24.3316783 0.644098941,23.8688368 1.11051542,23.8688368 L1.11051542,23.8688368 L1.11051542,23.8688368 Z" id="Shape" stroke="#000000" stroke-width="0.533335" fill="#FFFF00"></path>
                                                <path d="M9.15848596,23.829613 C9.18200276,19.4979923 12.1137635,18.2729007 12.1294413,18.2755156 C12.1294413,18.2755156 15.1892379,19.5385237 15.2127547,23.829613 L9.15848596,23.829613 L9.15848596,23.829613 L9.15848596,23.829613 Z M1.58085136,12.0886068 L22.8047607,12.0886068 C23.2515798,12.0886068 23.6187032,12.5043796 23.6187032,13.0103673 C23.6187032,13.516355 23.2528863,13.9308204 22.8047607,13.9308204 L1.58085136,13.9308204 C1.13403221,13.9308204 0.766908881,13.5176625 0.766908881,13.0090599 C0.766908881,12.5030722 1.13272572,12.0872994 1.58085136,12.0872994 L1.58085136,12.0886068 L1.58085136,12.0886068 Z M2.02505752,13.9452024 L22.3252793,13.9452024 C22.7525011,13.9452024 23.1026401,14.3596678 23.1026401,14.8656555 C23.1026401,15.3729506 22.7525011,15.7861085 22.3252793,15.7861085 L2.02505752,15.7861085 C1.59783571,15.7861085 1.24769673,15.3729506 1.24769673,14.8656555 C1.24769673,14.3596678 1.59783571,13.9452024 2.02505752,13.9452024 L2.02505752,13.9452024 L2.02505752,13.9452024 Z M8.58363092,0.0991829082 L10.1866926,0.101797832 L10.1866926,1.23928952 L11.356,1.23928952 L11.356,0.0756485973 L12.9982563,0.0821859059 L12.9982563,1.24190445 L14.1688702,1.24190445 L14.1688702,0.0782635208 L15.812433,0.0782635208 L15.8098201,2.70626156 C15.8098201,3.12072693 15.4779719,3.38614165 15.0912513,3.38614165 L9.32963598,3.38614165 C8.94291532,3.38614165 8.58493741,3.07758069 8.58493741,2.69972426 L8.57971145,0.0978754465 L8.58363092,0.0991829082 L8.58363092,0.0991829082 Z M14.6196088,3.61625492 L14.9815062,12.049383 L9.35968522,12.029771 L9.73203451,3.59402807 L14.6183023,3.61625492 L14.6196088,3.61625492 L14.6196088,3.61625492 Z" id="Shape" stroke="#000000" stroke-width="0.533335" fill="#FFFF00"></path>
                                                <path d="M7.76054302,7.52556544 L7.93038656,12.0729173 L2.54242706,12.0729173 L2.69397975,7.52556544 L7.763156,7.52556544 L7.76054302,7.52556544 L7.76054302,7.52556544 L7.76054302,7.52556544 Z" id="a" stroke="#000000" stroke-width="0.533335" fill="#FFFF00"></path>
                                                <g id="a-link" transform="translate(16.218820, 6.793387)" stroke="#000000" stroke-width="0.533335" fill="#FFFF00">
                                                    <path d="M5.40226147,0.732178559 L5.572105,5.2795304 L0.184145505,5.2795304 L0.335698197,0.732178559 L5.40487445,0.732178559 L5.40226147,0.732178559 L5.40226147,0.732178559 L5.40226147,0.732178559 Z" id="a"></path>
                                                </g>
                                                <path d="M1.69843534,4.23076192 L3.26622181,4.23468431 L3.26622181,5.37479092 L4.41201242,5.37479092 L4.41201242,4.20853507 L6.01899355,4.21376492 L6.01899355,5.37740584 L7.16870363,5.37740584 L7.16870363,4.20853507 L8.77568476,4.21115 L8.7717653,6.84176296 C8.7717653,7.25230594 8.44514311,7.51902813 8.07148734,7.51902813 L2.43137552,7.51902813 C2.05249379,7.51902813 1.70235481,7.21177463 1.70235481,6.83261073 L1.69843534,4.23076192 L1.69843534,4.23076192 L1.69843534,4.23076192 Z" id="b" stroke="#000000" stroke-width="0.533335" fill="#FFFF00"></path>
                                                <g id="b-link" transform="translate(15.167028, 4.178463)" stroke="#000000" stroke-width="0.533335" fill="#FFFF00">
                                                    <path d="M0.391946617,0.0522984685 L1.95973309,0.0562208537 L1.95973309,1.19632747 L3.1055237,1.19632747 L3.1055237,0.0300716194 L4.71250483,0.0353014662 L4.71250483,1.19894239 L5.86221491,1.19894239 L5.86221491,0.0300716194 L7.46919604,0.0326865428 L7.46527657,2.66329951 C7.46527657,3.07384249 7.13865439,3.34056468 6.76499861,3.34056468 L1.12488679,3.34056468 C0.746005062,3.34056468 0.395866083,3.03331117 0.395866083,2.65414728 L0.391946617,0.0522984685 L0.391946617,0.0522984685 L0.391946617,0.0522984685 Z" id="b"></path>
                                                </g>
                                                <path d="M11.6277496,6.28347681 C11.5937809,5.46369832 12.7735403,5.45454608 12.7591689,6.28347681 L12.7591689,8.291738 L11.6277496,8.291738 L11.6277496,6.28347681" id="Shape" fill="#000000"></path>
                                                <path d="M4.66416475,9.19911643 C4.66024528,8.40679463 5.75769581,8.39110509 5.74332443,9.19911643 L5.74332443,10.7510735 L4.66416475,10.7510735 L4.66416475,9.19911643" id="c" fill="#000000"></path>
                                                <g id="c-link" transform="translate(17.821813, 8.100849)" fill="#000000">
                                                    <path d="M0.744698573,1.09826784 C0.740779107,0.305946041 1.83822964,0.2902565 1.82385826,1.09826784 L1.82385826,2.65022489 L0.744698573,2.65022489 L0.744698573,1.09826784" id="c"></path>
                                                </g>
                                            </g>
                                        </g>
                                        <g id="e-link" transform="translate(128.474454, 80.454350) scale(-1, 1) translate(-128.474454, -80.454350) translate(106.974454, 4.954350)">
                                            <g id="e">
                                                <g id="d" transform="translate(0.000000, 0.409336)">
                                                    <path d="M6.78067648,24.3525977 C6.95705246,17.135409 12.0745688,15.4252491 12.1111505,15.4004073 C12.1503451,15.3742581 17.6402108,17.240006 17.6219199,24.4192782 L6.78067648,24.3539051" id="Shape" fill="#FFFF00"></path>
                                                    <path d="M2.36474459,15.5403057 L1.47371928,23.8361503 L6.8825826,23.8492249 C6.93484215,16.9850509 12.0758753,15.8423294 12.1999917,15.8684786 C12.3175757,15.8632488 17.4128817,17.3851342 17.5474501,23.8492249 L22.9719912,23.8492249 L21.9921247,15.4893147 L2.36605108,15.5389983 L2.36605108,15.5416132 L2.36474459,15.5403057 L2.36474459,15.5403057 Z M1.11051542,23.8688368 L23.2502733,23.8688368 C23.7166898,23.8688368 24.099491,24.3303708 24.099491,24.8938868 C24.099491,25.4560954 23.7166898,25.913707 23.2502733,25.913707 L1.11051542,25.913707 C0.644098941,25.913707 0.261297745,25.4560954 0.261297745,24.8938868 C0.261297745,24.3316783 0.644098941,23.8688368 1.11051542,23.8688368 L1.11051542,23.8688368 L1.11051542,23.8688368 Z" id="Shape" stroke="#000000" stroke-width="0.533335" fill="#FFFF00"></path>
                                                    <path d="M9.15848596,23.829613 C9.18200276,19.4979923 12.1137635,18.2729007 12.1294413,18.2755156 C12.1294413,18.2755156 15.1892379,19.5385237 15.2127547,23.829613 L9.15848596,23.829613 L9.15848596,23.829613 L9.15848596,23.829613 Z M1.58085136,12.0886068 L22.8047607,12.0886068 C23.2515798,12.0886068 23.6187032,12.5043796 23.6187032,13.0103673 C23.6187032,13.516355 23.2528863,13.9308204 22.8047607,13.9308204 L1.58085136,13.9308204 C1.13403221,13.9308204 0.766908881,13.5176625 0.766908881,13.0090599 C0.766908881,12.5030722 1.13272572,12.0872994 1.58085136,12.0872994 L1.58085136,12.0886068 L1.58085136,12.0886068 Z M2.02505752,13.9452024 L22.3252793,13.9452024 C22.7525011,13.9452024 23.1026401,14.3596678 23.1026401,14.8656555 C23.1026401,15.3729506 22.7525011,15.7861085 22.3252793,15.7861085 L2.02505752,15.7861085 C1.59783571,15.7861085 1.24769673,15.3729506 1.24769673,14.8656555 C1.24769673,14.3596678 1.59783571,13.9452024 2.02505752,13.9452024 L2.02505752,13.9452024 L2.02505752,13.9452024 Z M8.58363092,0.0991829082 L10.1866926,0.101797832 L10.1866926,1.23928952 L11.356,1.23928952 L11.356,0.0756485973 L12.9982563,0.0821859059 L12.9982563,1.24190445 L14.1688702,1.24190445 L14.1688702,0.0782635208 L15.812433,0.0782635208 L15.8098201,2.70626156 C15.8098201,3.12072693 15.4779719,3.38614165 15.0912513,3.38614165 L9.32963598,3.38614165 C8.94291532,3.38614165 8.58493741,3.07758069 8.58493741,2.69972426 L8.57971145,0.0978754465 L8.58363092,0.0991829082 L8.58363092,0.0991829082 Z M14.6196088,3.61625492 L14.9815062,12.049383 L9.35968522,12.029771 L9.73203451,3.59402807 L14.6183023,3.61625492 L14.6196088,3.61625492 L14.6196088,3.61625492 Z" id="Shape" stroke="#000000" stroke-width="0.533335" fill="#FFFF00"></path>
                                                    <path d="M7.76054302,7.52556544 L7.93038656,12.0729173 L2.54242706,12.0729173 L2.69397975,7.52556544 L7.763156,7.52556544 L7.76054302,7.52556544 L7.76054302,7.52556544 L7.76054302,7.52556544 Z" id="a" stroke="#000000" stroke-width="0.533335" fill="#FFFF00"></path>
                                                    <g id="a-link" transform="translate(16.218820, 6.793387)" stroke="#000000" stroke-width="0.533335" fill="#FFFF00">
                                                        <path d="M5.40226147,0.732178559 L5.572105,5.2795304 L0.184145505,5.2795304 L0.335698197,0.732178559 L5.40487445,0.732178559 L5.40226147,0.732178559 L5.40226147,0.732178559 L5.40226147,0.732178559 Z" id="a"></path>
                                                    </g>
                                                    <path d="M1.69843534,4.23076192 L3.26622181,4.23468431 L3.26622181,5.37479092 L4.41201242,5.37479092 L4.41201242,4.20853507 L6.01899355,4.21376492 L6.01899355,5.37740584 L7.16870363,5.37740584 L7.16870363,4.20853507 L8.77568476,4.21115 L8.7717653,6.84176296 C8.7717653,7.25230594 8.44514311,7.51902813 8.07148734,7.51902813 L2.43137552,7.51902813 C2.05249379,7.51902813 1.70235481,7.21177463 1.70235481,6.83261073 L1.69843534,4.23076192 L1.69843534,4.23076192 L1.69843534,4.23076192 Z" id="b" stroke="#000000" stroke-width="0.533335" fill="#FFFF00"></path>
                                                    <g id="b-link" transform="translate(15.167028, 4.178463)" stroke="#000000" stroke-width="0.533335" fill="#FFFF00">
                                                        <path d="M0.391946617,0.0522984685 L1.95973309,0.0562208537 L1.95973309,1.19632747 L3.1055237,1.19632747 L3.1055237,0.0300716194 L4.71250483,0.0353014662 L4.71250483,1.19894239 L5.86221491,1.19894239 L5.86221491,0.0300716194 L7.46919604,0.0326865428 L7.46527657,2.66329951 C7.46527657,3.07384249 7.13865439,3.34056468 6.76499861,3.34056468 L1.12488679,3.34056468 C0.746005062,3.34056468 0.395866083,3.03331117 0.395866083,2.65414728 L0.391946617,0.0522984685 L0.391946617,0.0522984685 L0.391946617,0.0522984685 Z" id="b"></path>
                                                    </g>
                                                    <path d="M11.6277496,6.28347681 C11.5937809,5.46369832 12.7735403,5.45454608 12.7591689,6.28347681 L12.7591689,8.291738 L11.6277496,8.291738 L11.6277496,6.28347681" id="Shape" fill="#000000"></path>
                                                    <path d="M4.66416475,9.19911643 C4.66024528,8.40679463 5.75769581,8.39110509 5.74332443,9.19911643 L5.74332443,10.7510735 L4.66416475,10.7510735 L4.66416475,9.19911643" id="c" fill="#000000"></path>
                                                    <g id="c-link" transform="translate(17.821813, 8.100849)" fill="#000000">
                                                        <path d="M0.744698573,1.09826784 C0.740779107,0.305946041 1.83822964,0.2902565 1.82385826,1.09826784 L1.82385826,2.65022489 L0.744698573,2.65022489 L0.744698573,1.09826784" id="c"></path>
                                                    </g>
                                                </g>
                                                <g id="d-link" transform="translate(0.000000, 60.970963)">
                                                    <g id="d">
                                                        <path d="M6.78067648,24.3525977 C6.95705246,17.135409 12.0745688,15.4252491 12.1111505,15.4004073 C12.1503451,15.3742581 17.6402108,17.240006 17.6219199,24.4192782 L6.78067648,24.3539051" id="Shape" fill="#FFFF00"></path>
                                                        <path d="M2.36474459,15.5403057 L1.47371928,23.8361503 L6.8825826,23.8492249 C6.93484215,16.9850509 12.0758753,15.8423294 12.1999917,15.8684786 C12.3175757,15.8632488 17.4128817,17.3851342 17.5474501,23.8492249 L22.9719912,23.8492249 L21.9921247,15.4893147 L2.36605108,15.5389983 L2.36605108,15.5416132 L2.36474459,15.5403057 L2.36474459,15.5403057 Z M1.11051542,23.8688368 L23.2502733,23.8688368 C23.7166898,23.8688368 24.099491,24.3303708 24.099491,24.8938868 C24.099491,25.4560954 23.7166898,25.913707 23.2502733,25.913707 L1.11051542,25.913707 C0.644098941,25.913707 0.261297745,25.4560954 0.261297745,24.8938868 C0.261297745,24.3316783 0.644098941,23.8688368 1.11051542,23.8688368 L1.11051542,23.8688368 L1.11051542,23.8688368 Z" id="Shape" stroke="#000000" stroke-width="0.533335" fill="#FFFF00"></path>
                                                        <path d="M9.15848596,23.829613 C9.18200276,19.4979923 12.1137635,18.2729007 12.1294413,18.2755156 C12.1294413,18.2755156 15.1892379,19.5385237 15.2127547,23.829613 L9.15848596,23.829613 L9.15848596,23.829613 L9.15848596,23.829613 Z M1.58085136,12.0886068 L22.8047607,12.0886068 C23.2515798,12.0886068 23.6187032,12.5043796 23.6187032,13.0103673 C23.6187032,13.516355 23.2528863,13.9308204 22.8047607,13.9308204 L1.58085136,13.9308204 C1.13403221,13.9308204 0.766908881,13.5176625 0.766908881,13.0090599 C0.766908881,12.5030722 1.13272572,12.0872994 1.58085136,12.0872994 L1.58085136,12.0886068 L1.58085136,12.0886068 Z M2.02505752,13.9452024 L22.3252793,13.9452024 C22.7525011,13.9452024 23.1026401,14.3596678 23.1026401,14.8656555 C23.1026401,15.3729506 22.7525011,15.7861085 22.3252793,15.7861085 L2.02505752,15.7861085 C1.59783571,15.7861085 1.24769673,15.3729506 1.24769673,14.8656555 C1.24769673,14.3596678 1.59783571,13.9452024 2.02505752,13.9452024 L2.02505752,13.9452024 L2.02505752,13.9452024 Z M8.58363092,0.0991829082 L10.1866926,0.101797832 L10.1866926,1.23928952 L11.356,1.23928952 L11.356,0.0756485973 L12.9982563,0.0821859059 L12.9982563,1.24190445 L14.1688702,1.24190445 L14.1688702,0.0782635208 L15.812433,0.0782635208 L15.8098201,2.70626156 C15.8098201,3.12072693 15.4779719,3.38614165 15.0912513,3.38614165 L9.32963598,3.38614165 C8.94291532,3.38614165 8.58493741,3.07758069 8.58493741,2.69972426 L8.57971145,0.0978754465 L8.58363092,0.0991829082 L8.58363092,0.0991829082 Z M14.6196088,3.61625492 L14.9815062,12.049383 L9.35968522,12.029771 L9.73203451,3.59402807 L14.6183023,3.61625492 L14.6196088,3.61625492 L14.6196088,3.61625492 Z" id="Shape" stroke="#000000" stroke-width="0.533335" fill="#FFFF00"></path>
                                                        <path d="M7.76054302,7.52556544 L7.93038656,12.0729173 L2.54242706,12.0729173 L2.69397975,7.52556544 L7.763156,7.52556544 L7.76054302,7.52556544 L7.76054302,7.52556544 L7.76054302,7.52556544 Z" id="a" stroke="#000000" stroke-width="0.533335" fill="#FFFF00"></path>
                                                        <g id="a-link" transform="translate(16.218820, 6.793387)" stroke="#000000" stroke-width="0.533335" fill="#FFFF00">
                                                            <path d="M5.40226147,0.732178559 L5.572105,5.2795304 L0.184145505,5.2795304 L0.335698197,0.732178559 L5.40487445,0.732178559 L5.40226147,0.732178559 L5.40226147,0.732178559 L5.40226147,0.732178559 Z" id="a"></path>
                                                        </g>
                                                        <path d="M1.69843534,4.23076192 L3.26622181,4.23468431 L3.26622181,5.37479092 L4.41201242,5.37479092 L4.41201242,4.20853507 L6.01899355,4.21376492 L6.01899355,5.37740584 L7.16870363,5.37740584 L7.16870363,4.20853507 L8.77568476,4.21115 L8.7717653,6.84176296 C8.7717653,7.25230594 8.44514311,7.51902813 8.07148734,7.51902813 L2.43137552,7.51902813 C2.05249379,7.51902813 1.70235481,7.21177463 1.70235481,6.83261073 L1.69843534,4.23076192 L1.69843534,4.23076192 L1.69843534,4.23076192 Z" id="b" stroke="#000000" stroke-width="0.533335" fill="#FFFF00"></path>
                                                        <g id="b-link" transform="translate(15.167028, 4.178463)" stroke="#000000" stroke-width="0.533335" fill="#FFFF00">
                                                            <path d="M0.391946617,0.0522984685 L1.95973309,0.0562208537 L1.95973309,1.19632747 L3.1055237,1.19632747 L3.1055237,0.0300716194 L4.71250483,0.0353014662 L4.71250483,1.19894239 L5.86221491,1.19894239 L5.86221491,0.0300716194 L7.46919604,0.0326865428 L7.46527657,2.66329951 C7.46527657,3.07384249 7.13865439,3.34056468 6.76499861,3.34056468 L1.12488679,3.34056468 C0.746005062,3.34056468 0.395866083,3.03331117 0.395866083,2.65414728 L0.391946617,0.0522984685 L0.391946617,0.0522984685 L0.391946617,0.0522984685 Z" id="b"></path>
                                                        </g>
                                                        <path d="M11.6277496,6.28347681 C11.5937809,5.46369832 12.7735403,5.45454608 12.7591689,6.28347681 L12.7591689,8.291738 L11.6277496,8.291738 L11.6277496,6.28347681" id="Shape" fill="#000000"></path>
                                                        <path d="M4.66416475,9.19911643 C4.66024528,8.40679463 5.75769581,8.39110509 5.74332443,9.19911643 L5.74332443,10.7510735 L4.66416475,10.7510735 L4.66416475,9.19911643" id="c" fill="#000000"></path>
                                                        <g id="c-link" transform="translate(17.821813, 8.100849)" fill="#000000">
                                                            <path d="M0.744698573,1.09826784 C0.740779107,0.305946041 1.83822964,0.2902565 1.82385826,1.09826784 L1.82385826,2.65022489 L0.744698573,2.65022489 L0.744698573,1.09826784" id="c"></path>
                                                        </g>
                                                    </g>
                                                </g>
                                                <g id="d-link" transform="translate(24.207714, 132.036169) rotate(-45.202000) translate(-24.207714, -132.036169) translate(11.207714, 118.536169)">
                                                    <g id="d" transform="translate(0.002724, 0.049314)">
                                                        <path d="M6.78067648,24.3525977 C6.95705246,17.135409 12.0745688,15.4252491 12.1111505,15.4004073 C12.1503451,15.3742581 17.6402108,17.240006 17.6219199,24.4192782 L6.78067648,24.3539051" id="Shape" fill="#FFFF00"></path>
                                                        <path d="M2.36474459,15.5403057 L1.47371928,23.8361503 L6.8825826,23.8492249 C6.93484215,16.9850509 12.0758753,15.8423294 12.1999917,15.8684786 C12.3175757,15.8632488 17.4128817,17.3851342 17.5474501,23.8492249 L22.9719912,23.8492249 L21.9921247,15.4893147 L2.36605108,15.5389983 L2.36605108,15.5416132 L2.36474459,15.5403057 L2.36474459,15.5403057 Z M1.11051542,23.8688368 L23.2502733,23.8688368 C23.7166898,23.8688368 24.099491,24.3303708 24.099491,24.8938868 C24.099491,25.4560954 23.7166898,25.913707 23.2502733,25.913707 L1.11051542,25.913707 C0.644098941,25.913707 0.261297745,25.4560954 0.261297745,24.8938868 C0.261297745,24.3316783 0.644098941,23.8688368 1.11051542,23.8688368 L1.11051542,23.8688368 L1.11051542,23.8688368 Z" id="Shape" stroke="#000000" stroke-width="0.533335" fill="#FFFF00"></path>
                                                        <path d="M9.15848596,23.829613 C9.18200276,19.4979923 12.1137635,18.2729007 12.1294413,18.2755156 C12.1294413,18.2755156 15.1892379,19.5385237 15.2127547,23.829613 L9.15848596,23.829613 L9.15848596,23.829613 L9.15848596,23.829613 Z M1.58085136,12.0886068 L22.8047607,12.0886068 C23.2515798,12.0886068 23.6187032,12.5043796 23.6187032,13.0103673 C23.6187032,13.516355 23.2528863,13.9308204 22.8047607,13.9308204 L1.58085136,13.9308204 C1.13403221,13.9308204 0.766908881,13.5176625 0.766908881,13.0090599 C0.766908881,12.5030722 1.13272572,12.0872994 1.58085136,12.0872994 L1.58085136,12.0886068 L1.58085136,12.0886068 Z M2.02505752,13.9452024 L22.3252793,13.9452024 C22.7525011,13.9452024 23.1026401,14.3596678 23.1026401,14.8656555 C23.1026401,15.3729506 22.7525011,15.7861085 22.3252793,15.7861085 L2.02505752,15.7861085 C1.59783571,15.7861085 1.24769673,15.3729506 1.24769673,14.8656555 C1.24769673,14.3596678 1.59783571,13.9452024 2.02505752,13.9452024 L2.02505752,13.9452024 L2.02505752,13.9452024 Z M8.58363092,0.0991829082 L10.1866926,0.101797832 L10.1866926,1.23928952 L11.356,1.23928952 L11.356,0.0756485973 L12.9982563,0.0821859059 L12.9982563,1.24190445 L14.1688702,1.24190445 L14.1688702,0.0782635208 L15.812433,0.0782635208 L15.8098201,2.70626156 C15.8098201,3.12072693 15.4779719,3.38614165 15.0912513,3.38614165 L9.32963598,3.38614165 C8.94291532,3.38614165 8.58493741,3.07758069 8.58493741,2.69972426 L8.57971145,0.0978754465 L8.58363092,0.0991829082 L8.58363092,0.0991829082 Z M14.6196088,3.61625492 L14.9815062,12.049383 L9.35968522,12.029771 L9.73203451,3.59402807 L14.6183023,3.61625492 L14.6196088,3.61625492 L14.6196088,3.61625492 Z" id="Shape" stroke="#000000" stroke-width="0.533335" fill="#FFFF00"></path>
                                                        <path d="M7.76054302,7.52556544 L7.93038656,12.0729173 L2.54242706,12.0729173 L2.69397975,7.52556544 L7.763156,7.52556544 L7.76054302,7.52556544 L7.76054302,7.52556544 L7.76054302,7.52556544 Z" id="a" stroke="#000000" stroke-width="0.533335" fill="#FFFF00"></path>
                                                        <g id="a-link" transform="translate(16.218820, 6.793387)" stroke="#000000" stroke-width="0.533335" fill="#FFFF00">
                                                            <path d="M5.40226147,0.732178559 L5.572105,5.2795304 L0.184145505,5.2795304 L0.335698197,0.732178559 L5.40487445,0.732178559 L5.40226147,0.732178559 L5.40226147,0.732178559 L5.40226147,0.732178559 Z" id="a"></path>
                                                        </g>
                                                        <path d="M1.69843534,4.23076192 L3.26622181,4.23468431 L3.26622181,5.37479092 L4.41201242,5.37479092 L4.41201242,4.20853507 L6.01899355,4.21376492 L6.01899355,5.37740584 L7.16870363,5.37740584 L7.16870363,4.20853507 L8.77568476,4.21115 L8.7717653,6.84176296 C8.7717653,7.25230594 8.44514311,7.51902813 8.07148734,7.51902813 L2.43137552,7.51902813 C2.05249379,7.51902813 1.70235481,7.21177463 1.70235481,6.83261073 L1.69843534,4.23076192 L1.69843534,4.23076192 L1.69843534,4.23076192 Z" id="b" stroke="#000000" stroke-width="0.533335" fill="#FFFF00"></path>
                                                        <g id="b-link" transform="translate(15.167028, 4.178463)" stroke="#000000" stroke-width="0.533335" fill="#FFFF00">
                                                            <path d="M0.391946617,0.0522984685 L1.95973309,0.0562208537 L1.95973309,1.19632747 L3.1055237,1.19632747 L3.1055237,0.0300716194 L4.71250483,0.0353014662 L4.71250483,1.19894239 L5.86221491,1.19894239 L5.86221491,0.0300716194 L7.46919604,0.0326865428 L7.46527657,2.66329951 C7.46527657,3.07384249 7.13865439,3.34056468 6.76499861,3.34056468 L1.12488679,3.34056468 C0.746005062,3.34056468 0.395866083,3.03331117 0.395866083,2.65414728 L0.391946617,0.0522984685 L0.391946617,0.0522984685 L0.391946617,0.0522984685 Z" id="b"></path>
                                                        </g>
                                                        <path d="M11.6277496,6.28347681 C11.5937809,5.46369832 12.7735403,5.45454608 12.7591689,6.28347681 L12.7591689,8.291738 L11.6277496,8.291738 L11.6277496,6.28347681" id="Shape" fill="#000000"></path>
                                                        <path d="M4.66416475,9.19911643 C4.66024528,8.40679463 5.75769581,8.39110509 5.74332443,9.19911643 L5.74332443,10.7510735 L4.66416475,10.7510735 L4.66416475,9.19911643" id="c" fill="#000000"></path>
                                                        <g id="c-link" transform="translate(17.821813, 8.100849)" fill="#000000">
                                                            <path d="M0.744698573,1.09826784 C0.740779107,0.305946041 1.83822964,0.2902565 1.82385826,1.09826784 L1.82385826,2.65022489 L0.744698573,2.65022489 L0.744698573,1.09826784" id="c"></path>
                                                        </g>
                                                    </g>
                                                </g>
                                            </g>
                                        </g>
                                        <g id="f" transform="translate(67.937414, 77.530158)">
                                            <path d="M0.830926829,14.9129083 L0.830926829,14.9194456 C0.820097784,17.6756576 1.85265657,20.3337205 3.72087989,22.3589028 C5.504237,24.2769491 7.9604358,25.4680467 10.6478831,25.4680467 C13.3483953,25.4680467 15.8006746,24.2847939 17.5761928,22.3758998 C19.3504045,20.4670057 20.453081,17.8363927 20.453081,14.9325202 L20.453081,0.853772499 L0.866202024,0.836775496 L0.82962034,14.9116008" id="Shape" fill="#003399"></path>
                                            <ellipse id="Oval" fill="#FFFFFF" cx="5.32263506" cy="6.19083121" rx="1.94144224" ry="1.94288811"></ellipse>
                                            <ellipse id="Oval" fill="#FFFFFF" cx="16.1900083" cy="6.19998344" rx="1.94144224" ry="1.94288811"></ellipse>
                                            <ellipse id="Oval" fill="#FFFFFF" cx="10.7458698" cy="11.4206781" rx="1.94144224" ry="1.94288811"></ellipse>
                                            <ellipse id="Oval" fill="#FFFFFF" cx="5.32263506" cy="16.8871755" rx="1.94144224" ry="1.94288811"></ellipse>
                                            <ellipse id="Oval" fill="#FFFFFF" cx="16.1782499" cy="16.8727934" rx="1.94144224" ry="1.94288811"></ellipse>
                                        </g>
                                        <g id="f-link" transform="translate(67.937414, 43.515234)">
                                            <g id="f">
                                                <path d="M0.830926829,14.9129083 L0.830926829,14.9194456 C0.820097784,17.6756576 1.85265657,20.3337205 3.72087989,22.3589028 C5.504237,24.2769491 7.9604358,25.4680467 10.6478831,25.4680467 C13.3483953,25.4680467 15.8006746,24.2847939 17.5761928,22.3758998 C19.3504045,20.4670057 20.453081,17.8363927 20.453081,14.9325202 L20.453081,0.853772499 L0.866202024,0.836775496 L0.82962034,14.9116008" id="Shape" fill="#003399"></path>
                                                <ellipse id="Oval" fill="#FFFFFF" cx="5.32263506" cy="6.19083121" rx="1.94144224" ry="1.94288811"></ellipse>
                                                <ellipse id="Oval" fill="#FFFFFF" cx="16.1900083" cy="6.19998344" rx="1.94144224" ry="1.94288811"></ellipse>
                                                <ellipse id="Oval" fill="#FFFFFF" cx="10.7458698" cy="11.4206781" rx="1.94144224" ry="1.94288811"></ellipse>
                                                <ellipse id="Oval" fill="#FFFFFF" cx="5.32263506" cy="16.8871755" rx="1.94144224" ry="1.94288811"></ellipse>
                                                <ellipse id="Oval" fill="#FFFFFF" cx="16.1782499" cy="16.8727934" rx="1.94144224" ry="1.94288811"></ellipse>
                                            </g>
                                        </g>
                                        <g id="f-link" transform="translate(40.763755, 77.530158)">
                                            <g id="f">
                                                <path d="M0.830926829,14.9129083 L0.830926829,14.9194456 C0.820097784,17.6756576 1.85265657,20.3337205 3.72087989,22.3589028 C5.504237,24.2769491 7.9604358,25.4680467 10.6478831,25.4680467 C13.3483953,25.4680467 15.8006746,24.2847939 17.5761928,22.3758998 C19.3504045,20.4670057 20.453081,17.8363927 20.453081,14.9325202 L20.453081,0.853772499 L0.866202024,0.836775496 L0.82962034,14.9116008" id="Shape" fill="#003399"></path>
                                                <ellipse id="Oval" fill="#FFFFFF" cx="5.32263506" cy="6.19083121" rx="1.94144224" ry="1.94288811"></ellipse>
                                                <ellipse id="Oval" fill="#FFFFFF" cx="16.1900083" cy="6.19998344" rx="1.94144224" ry="1.94288811"></ellipse>
                                                <ellipse id="Oval" fill="#FFFFFF" cx="10.7458698" cy="11.4206781" rx="1.94144224" ry="1.94288811"></ellipse>
                                                <ellipse id="Oval" fill="#FFFFFF" cx="5.32263506" cy="16.8871755" rx="1.94144224" ry="1.94288811"></ellipse>
                                                <ellipse id="Oval" fill="#FFFFFF" cx="16.1782499" cy="16.8727934" rx="1.94144224" ry="1.94288811"></ellipse>
                                            </g>
                                        </g>
                                        <g id="f-link" transform="translate(95.040522, 77.530158)">
                                            <g id="f">
                                                <path d="M0.830926829,14.9129083 L0.830926829,14.9194456 C0.820097784,17.6756576 1.85265657,20.3337205 3.72087989,22.3589028 C5.504237,24.2769491 7.9604358,25.4680467 10.6478831,25.4680467 C13.3483953,25.4680467 15.8006746,24.2847939 17.5761928,22.3758998 C19.3504045,20.4670057 20.453081,17.8363927 20.453081,14.9325202 L20.453081,0.853772499 L0.866202024,0.836775496 L0.82962034,14.9116008" id="Shape" fill="#003399"></path>
                                                <ellipse id="Oval" fill="#FFFFFF" cx="5.32263506" cy="6.19083121" rx="1.94144224" ry="1.94288811"></ellipse>
                                                <ellipse id="Oval" fill="#FFFFFF" cx="16.1900083" cy="6.19998344" rx="1.94144224" ry="1.94288811"></ellipse>
                                                <ellipse id="Oval" fill="#FFFFFF" cx="10.7458698" cy="11.4206781" rx="1.94144224" ry="1.94288811"></ellipse>
                                                <ellipse id="Oval" fill="#FFFFFF" cx="5.32263506" cy="16.8871755" rx="1.94144224" ry="1.94288811"></ellipse>
                                                <ellipse id="Oval" fill="#FFFFFF" cx="16.1782499" cy="16.8727934" rx="1.94144224" ry="1.94288811"></ellipse>
                                            </g>
                                        </g>
                                        <g id="f-link" transform="translate(67.937414, 111.241751)">
                                            <g id="f">
                                                <path d="M0.830926829,14.9129083 L0.830926829,14.9194456 C0.820097784,17.6756576 1.85265657,20.3337205 3.72087989,22.3589028 C5.504237,24.2769491 7.9604358,25.4680467 10.6478831,25.4680467 C13.3483953,25.4680467 15.8006746,24.2847939 17.5761928,22.3758998 C19.3504045,20.4670057 20.453081,17.8363927 20.453081,14.9325202 L20.453081,0.853772499 L0.866202024,0.836775496 L0.82962034,14.9116008" id="Shape" fill="#003399"></path>
                                                <ellipse id="Oval" fill="#FFFFFF" cx="5.32263506" cy="6.19083121" rx="1.94144224" ry="1.94288811"></ellipse>
                                                <ellipse id="Oval" fill="#FFFFFF" cx="16.1900083" cy="6.19998344" rx="1.94144224" ry="1.94288811"></ellipse>
                                                <ellipse id="Oval" fill="#FFFFFF" cx="10.7458698" cy="11.4206781" rx="1.94144224" ry="1.94288811"></ellipse>
                                                <ellipse id="Oval" fill="#FFFFFF" cx="5.32263506" cy="16.8871755" rx="1.94144224" ry="1.94288811"></ellipse>
                                                <ellipse id="Oval" fill="#FFFFFF" cx="16.1782499" cy="16.8727934" rx="1.94144224" ry="1.94288811"></ellipse>
                                            </g>
                                        </g>
                                    </g>
                                </g>
                            </g>
                        </g>
                    </g>
                </g>
            </g>
            <rect id="Rectangle-4" stroke="#FFFFFF" stroke-width="3" x="0" y="0" width="870" height="580"></rect>
        </g>
    </g>
</svg>