<?xml version="1.0" encoding="UTF-8" standalone="no"?>
<svg width="875px" height="441px" viewBox="0 0 875 441" version="1.1" xmlns="http://www.w3.org/2000/svg" xmlns:xlink="http://www.w3.org/1999/xlink">
    <!-- Generator: Sketch 3.6 (26304) - http://www.bohemiancoding.com/sketch -->
    <title>si</title>
    <desc>Created with Sketch.</desc>
    <defs>
        <rect id="path-1" x="0" y="-1.46894063e-05" width="869.135235" height="435"></rect>
    </defs>
    <g id="Page-1" stroke="none" stroke-width="1" fill="none" fill-rule="evenodd">
        <g id="si" transform="translate(3.000000, 3.000000)">
            <g id="flag-Clipped">
                <mask id="mask-2" fill="white">
                    <use xlink:href="#path-1"></use>
                </mask>
                <g id="rect9828"></g>
                <g id="flag" mask="url(#mask-2)">
                    <g transform="translate(0.000000, 0.000014)">
                        <rect id="rect555" fill="#FFFFFF" x="0" y="-1.45784473e-05" width="869.135235" height="435"></rect>
                        <rect id="rect556" fill="#DE2918" x="0" y="289.997168" width="869.135235" height="145.002832"></rect>
                        <rect id="rect563" fill="#08399C" x="0" y="145.002832" width="869.135235" height="145.002832"></rect>
                        <path d="M246.455858,78.9932813 C243.044587,131.372549 241.090051,160.076602 233.12261,173.359395 C224.507647,187.623486 216.126094,198.066885 182.510761,210.641953 C148.891184,198.059238 140.513874,187.617539 131.896365,173.352598 C123.929009,160.073203 121.974303,131.373398 118.563117,78.9949805 L123.530938,77.3199756 C133.531934,74.2670742 140.993427,71.8113633 146.512945,70.7214844 C154.417662,69.0469043 161.135466,67.1535498 182.379202,66.7092041 C203.622938,67.0749949 210.374014,69.0861563 218.278561,70.7607363 C223.752331,71.9291191 231.533722,74.2278223 241.460028,77.3401113 L246.45433,78.9949805 L246.455858,78.9932813 Z" id="path694" fill="#DE2918"></path>
                        <path d="M241.558484,77.2762207 C238.33148,129.54249 235.631729,153.477686 231.421685,164.989893 C223.251305,184.694883 210.316298,195.498516 182.477659,205.803428 C154.638171,195.48917 141.702994,184.682139 133.534481,164.979697 C129.323758,153.475986 126.663729,129.601963 123.52924,77.2150488 C133.318894,74.154416 140.994275,71.7626807 146.513793,70.672377 C154.41851,68.9973721 161.136315,67.024834 182.380051,66.6589922 C203.623787,67.024885 210.420696,68.9973721 218.325243,70.672377 C223.844761,71.7625957 231.678012,74.1543311 241.558484,77.2674697 L241.558484,77.2762207 Z" id="path675" fill="#08399C"></path>
                        <path d="M182.450498,93.2786133 L183.785266,96.4413691 L189.650486,97.2462636 L185.849802,99.5402089 L189.524529,101.999063 L184.179517,102.895741 L182.552859,105.761728 L180.723686,102.81027 L175.635341,102.087474 L179.098216,99.5751788 L175.532895,97.2887101 L181.165044,96.4244874 L182.450413,93.2786388 L182.450498,93.2786133 Z" id="path651" fill="#FFCC00"></path>
                        <path d="M229.404171,152.606836 L226.152723,150.034389 L223.803172,146.164843 L219.200829,142.16845 L216.802474,138.130087 L212.200132,134.007782 L209.948358,129.970269 L207.501115,127.992633 L205.885576,126.436573 L201.728071,130.08573 L199.462038,134.048818 L196.638112,136.61158 L193.536301,134.186115 L191.190824,130.051576 L182.484194,114.574242 L173.776715,130.051576 L171.431238,134.186115 L168.329427,136.61158 L165.505502,134.048818 L163.239469,130.08573 L159.081964,126.436573 L157.466425,127.992633 L155.019181,129.970269 L152.767408,134.007782 L148.165065,138.130087 L145.76671,142.16845 L141.164368,146.164843 L138.814817,150.034389 L135.571516,152.667158 C137.255296,167.013662 146.391571,178.253994 151.369577,183.39583 C156.924743,188.795183 168.377977,196.019326 182.383446,200.800928 C196.428807,196.121449 208.040759,188.795098 213.595925,183.39583 C218.573931,178.253654 227.710037,167.013662 229.404171,152.606836 L229.404171,152.606836 Z" id="path627" fill="#FFFFFF"></path>
                        <path d="M196.446631,71.2737305 L197.781399,74.4364863 L203.646619,75.2413808 L199.845934,77.5353261 L203.520662,79.9941806 L198.17565,80.8908583 L196.548992,83.7568456 L194.719819,80.8053876 L189.631474,80.0825824 L193.094349,77.5702875 L189.529028,75.2838188 L195.161177,74.4195961 L196.446546,71.2737475 L196.446631,71.2737305 Z" id="path654" fill="#FFCC00"></path>
                        <path d="M168.454365,71.2261523 L169.789133,74.3889082 L175.654353,75.1938026 L171.853669,77.4877479 L175.528396,79.9466024 L170.183384,80.8432802 L168.556726,83.7092675 L166.727553,80.7578095 L161.639208,80.0350043 L165.102084,77.5227094 L161.536762,75.2362406 L167.168911,74.372018 L168.454281,71.2261693 L168.454365,71.2261523 Z" id="path655" fill="#FFCC00"></path>
                        <path d="M222.138744,172.496191 L215.799743,172.515393 L209.950395,172.079806 L202.865161,168.601251 L194.879047,168.649339 L187.962802,172.031718 L182.507365,172.514534 L177.051929,172.031718 L170.135684,168.649339 L162.14957,168.601251 L155.064336,172.079806 L149.214988,172.515393 L142.796543,172.42705 L139.696768,167.171197 L139.811802,167.050493 L149.294203,168.620571 L155.143551,168.184985 L162.228785,164.706429 L170.214899,164.754517 L177.131144,168.136897 L182.586581,168.619713 L188.042017,168.136897 L194.958262,164.754517 L202.944376,164.706429 L210.029611,168.184985 L215.878959,168.620571 L225.108428,167.000706 L225.230591,167.243864 L222.138965,172.496234 L222.138744,172.496191 Z" id="path664" fill="#08399C"></path>
                        <path d="M148.746045,180.575977 L155.020964,180.14039 L162.106198,176.661835 L170.092312,176.709923 L177.008557,180.092302 L182.463994,180.575118 L187.91943,180.092302 L194.835675,176.709923 L202.821789,176.661835 L209.907024,180.14039 L216.267413,180.575977 L220.370936,175.512475 L220.232494,175.397888 L215.835807,176.681053 L209.986459,176.245467 L202.901225,172.766911 L194.915111,172.814999 L187.998866,176.197379 L182.54343,176.680203 L177.087993,176.197379 L170.171748,172.814999 L162.185634,172.766911 L155.1004,176.245467 L149.251052,176.681053 L144.941872,175.593808 L144.889928,175.805479 L148.746036,180.575951 L148.746045,180.575977 Z" id="path665" fill="#08399C"></path>
                    </g>
                </g>
            </g>
            <rect id="Rectangle-5" stroke="#FFFFFF" stroke-width="3" x="0" y="0" width="868.989547" height="435"></rect>
        </g>
    </g>
</svg>