<?xml version="1.0" encoding="UTF-8" standalone="no"?>
<svg width="876px" height="586px" viewBox="0 0 876 586" version="1.1" xmlns="http://www.w3.org/2000/svg" xmlns:xlink="http://www.w3.org/1999/xlink">
    <!-- Generator: Sketch 3.6 (26304) - http://www.bohemiancoding.com/sketch -->
    <title>sk</title>
    <desc>Created with Sketch.</desc>
    <defs>
        <rect id="path-1" x="0.00060332871" y="4.0767958e-06" width="868.793343" height="580"></rect>
    </defs>
    <g id="Page-1" stroke="none" stroke-width="1" fill="none" fill-rule="evenodd">
        <g id="sk" transform="translate(3.000000, 3.000000)">
            <g id="flag-Clipped">
                <mask id="mask-2" fill="white">
                    <use xlink:href="#path-1"></use>
                </mask>
                <g id="rect9630"></g>
                <g id="flag" mask="url(#mask-2)">
                    <g transform="translate(0.000603, -0.000004)">
                        <rect id="rect171" fill="#FFFFFF" x="0" y="2.73189063e-06" width="868.793343" height="580"></rect>
                        <rect id="rect403" fill="#01017E" x="0" y="193.337109" width="868.793343" height="386.662891"></rect>
                        <rect id="rect135" fill="#FE0101" x="0" y="386.662891" width="868.793343" height="193.337109"></rect>
                        <path d="M151.287691,131.632812 L151.287691,294.270703 C162.4113,357.765977 191.891336,422.380469 291.448492,455.232031 C390.453602,422.370273 422.152115,360.544766 433.837838,293.149219 L433.837838,131.621484 L151.287691,131.621484 L151.287691,131.632812 Z" id="path150" fill="#FFFFFF"></path>
                        <path d="M162.411187,144.444922 L162.411187,286.476953 C172.422446,338.275937 191.890205,409.013281 291.451885,441.876172 C390.456995,409.014414 413.263952,338.278203 422.155509,286.476953 L422.155509,144.444922 L162.411187,144.444922 L162.411187,144.444922 Z" id="path140" fill="#FE0101"></path>
                        <path d="M307.03021,230.221484 L307.03021,253.057852 L352.639598,253.057852 C358.754749,253.057852 364.505188,250.086937 370.438549,248.601367 L370.438549,291.488516 C364.320117,290.18884 358.338792,287.590281 352.083027,287.590281 L307.586781,287.590281 L307.586781,339.946609 L276.994621,338.832704 L276.994621,287.591063 L233.611516,287.591063 C227.091041,287.591063 221.004963,290.932746 214.700555,292.603192 L214.700555,246.93159 C220.633463,248.787817 226.283335,252.501063 232.499506,252.501063 L276.995752,252.501063 L276.995752,229.664696 L244.179573,229.664696 C238.42902,229.664696 233.426219,233.749618 228.049202,235.791625 L228.049202,192.348266 C234.167634,194.947618 239.75755,200.145641 246.404724,200.145641 L277.552323,200.145641 L277.552323,180.651071 C277.552323,171.545864 272.36083,163.198961 269.764971,154.472907 L313.704647,154.472907 C311.479948,163.384969 307.030549,172.022438 307.030549,181.208414 L307.030549,200.145641 L336.509567,200.145641 C344.201329,200.145641 351.342403,196.061625 358.758822,194.019618 L358.758822,236.906766 C352.083819,234.678977 345.769909,230.222493 338.734719,230.222493 L307.03168,230.222493 L307.03021,230.221484 Z" id="path153" fill="#FFFFFF"></path>
                        <path d="M250.852765,346.074219 C224.709778,332.98457 199.738757,340.294383 187.792848,361.251641 C206.356519,396.758516 241.676136,425.443594 291.45641,441.873906 C340.959531,425.442461 376.97373,396.758516 396.718416,362.922539 C381.336928,333.537383 352.083027,337.439922 333.172066,346.631563 C319.823418,313.769805 265.314554,315.440703 250.853896,346.074196 L250.852765,346.074219 Z" id="path152" fill="#01017E"></path>
                    </g>
                </g>
            </g>
            <rect id="Rectangle-5" stroke="#FFFFFF" stroke-width="3" x="0" y="0" width="870" height="580"></rect>
        </g>
    </g>
</svg>