<?xml version="1.0" encoding="UTF-8" standalone="no"?>
<svg width="876px" height="586px" viewBox="0 0 876 586" version="1.1" xmlns="http://www.w3.org/2000/svg" xmlns:xlink="http://www.w3.org/1999/xlink">
    <!-- Generator: Sketch 3.6 (26304) - http://www.bohemiancoding.com/sketch -->
    <title>Group</title>
    <desc>Created with Sketch.</desc>
    <defs></defs>
    <g id="Page-1" stroke="none" stroke-width="1" fill="none" fill-rule="evenodd">
        <g id="Group" transform="translate(3.000000, 3.000000)">
            <path d="M0,0 L870,0 L870,580 L0,580 L0,0 Z" id="Shape" fill="#F31930"></path>
            <g id="Group-2" transform="translate(186.000000, 154.000000)">
                <path d="M294.984595,145.029875 C294.984595,225.039667 228.97273,289.896958 147.538029,289.896958 C66.1033282,289.896958 0.0950897666,225.03725 0.0950897666,145.028667 C0.0950897666,65.0200833 66.1069548,0.161583333 147.539238,0.161583333 C228.971521,0.161583333 294.985804,65.0212917 294.985804,145.028667 L294.984595,145.029875 Z" id="Shape" fill="#FFFFFF"></path>
                <path d="M302.358736,145.022625 C302.358736,209.028042 249.547794,260.913875 184.402693,260.913875 C119.257592,260.913875 66.4478577,209.028042 66.4478577,145.022625 C66.4478577,81.0172083 119.2588,29.131375 184.402693,29.131375 C249.546585,29.131375 302.358736,81.0172083 302.358736,145.022625 L302.358736,145.022625 Z" id="Shape" fill="#F31830"></path>
                <path d="M323.694183,77.3535417 L322.503441,130.904458 L272.522476,144.468 L321.791413,162.00575 L320.601879,211.114833 L352.733795,172.76475 L401.287077,189.601667 L373.201269,148.445833 L407.475312,107.522 L354.873505,122.019583 L323.692974,77.35475 L323.694183,77.3535417 Z" id="Shape" fill="#FFFFFF"></path>
            </g>
            <rect id="Rectangle-1" stroke="#FFFFFF" stroke-width="3" x="0" y="0" width="870" height="580"></rect>
        </g>
    </g>
</svg>