<?xml version="1.0" encoding="UTF-8" standalone="no"?>
<svg width="816px" height="584px" viewBox="0 0 816 584" version="1.1" xmlns="http://www.w3.org/2000/svg" xmlns:xlink="http://www.w3.org/1999/xlink">
    <!-- Generator: Sketch 3.6 (26304) - http://www.bohemiancoding.com/sketch -->
    <title>xk</title>
    <desc>Created with Sketch.</desc>
    <defs></defs>
    <g id="Page-1" stroke="none" stroke-width="1" fill="none" fill-rule="evenodd">
        <g id="xk" transform="translate(2.000000, 2.000000)">
            <g id="Group">
                <rect id="Rectangle-path" fill="#244AA5" x="0" y="0" width="812" height="580"></rect>
                <path d="M321.0242,275.1085 C321.0242,275.1085 322.530267,274.0935 323.081267,273.958167 C323.632267,273.822833 325.579133,273.213833 325.579133,273.213833 C325.579133,273.213833 326.828067,272.571 327.489267,272.571 C328.1872,272.571 329.546333,273.315333 329.987133,273.958167 C330.3912,274.601 332.5952,275.7175 332.5952,275.7175 C332.5952,275.7175 334.101267,276.225 334.395133,275.7175 C334.689,275.21 335.3502,274.837833 336.048133,274.837833 C336.746067,274.837833 336.856267,274.195 336.856267,273.6875 C336.856267,273.18 337.150133,272.537167 337.6644,271.928167 C338.2154,271.285333 339.3174,270.913167 339.3174,270.913167 C339.3174,270.913167 340.823467,270.270333 340.9704,269.390667 C341.117333,268.511 342.6234,267.868167 343.468267,267.732833 C344.2764,267.5975 343.468267,267.225333 345.672267,267.462167 C347.876267,267.732833 348.170133,266.954667 348.280333,266.311833 C348.427267,265.669 348.280333,265.026167 349.6762,265.1615 C351.072067,265.296833 351.733267,265.296833 351.733267,264.518667 C351.733267,263.774333 352.9822,263.368333 350.7782,262.759333 C348.5742,262.1165 348.721133,262.624 348.5742,261.609 C348.427267,260.594 348.5742,260.729333 347.068133,260.594 C345.562067,260.458667 346.3702,259.714333 346.26,258.936167 C346.113067,258.191833 345.709,257.785833 345.451867,257.278333 C345.158,256.770833 344.349867,256.770833 344.349867,256.0265 C344.349867,255.282167 344.202933,254.876167 343.3948,254.876167 C342.586667,254.876167 342.2928,254.876167 342.2928,254.131833 C342.2928,253.3875 342.439733,252.744667 343.247867,252.744667 C344.056,252.744667 344.4968,252.101833 344.349867,251.3575 C344.202933,250.613167 344.202933,248.955333 344.202933,248.955333 L345.304933,247.669667 C345.304933,247.669667 348.610933,244.996833 348.9048,244.489333 C349.198667,243.981833 350.300667,243.609667 350.814933,244.624667 C351.365933,245.639667 351.623067,245.910333 352.063867,246.384 C352.467933,246.8915 353.716867,246.519333 353.974,246.011833 C354.267867,245.504333 354.378067,243.6435 355.112733,242.6285 C355.8474,241.647333 356.361667,241.139833 356.545333,240.327833 C356.729,239.515833 357.096333,238.839167 357.977933,238.839167 C358.859533,238.839167 359.410533,237.688833 359.410533,237.012167 C359.410533,236.3355 359.777867,235.692667 360.843133,235.5235 C361.9084,235.354333 362.4594,234.7115 362.826733,235.692667 C363.194067,236.673833 363.5614,236.673833 364.259333,237.012167 C364.994,237.3505 366.059267,237.824167 366.573533,237.3505 C367.124533,236.843 367.381667,236.031 368.1898,236.5385 C368.9612,237.046 369.5122,236.5385 369.695867,235.557333 C369.879533,234.576167 370.0632,233.256667 370.0632,233.256667 C370.0632,233.256667 370.246867,232.58 371.4958,232.58 C372.744733,232.58 371.863133,231.768 372.561067,231.2605 C373.295733,230.753 373.295733,230.279333 374.177333,230.583833 C375.058933,230.922167 376.491533,230.177833 375.7936,229.365833 C375.058933,228.553833 373.4794,227.234333 374.361,226.219333 C375.2426,225.238167 375.609933,223.580333 374.728333,223.411167 C373.846733,223.242 372.561067,223.580333 372.414133,222.599167 C372.230467,221.618 371.863133,220.941333 372.965133,220.772167 C374.0304,220.603 375.830333,220.603 376.381333,220.0955 C376.932333,219.588 378.695533,219.2835 378.695533,217.794833 C378.695533,216.306167 379.246533,216.137 379.4302,215.325 C379.613867,214.513 379.613867,212.7875 378.8792,211.9755 C378.144533,211.1635 377.079267,209.979333 376.8956,209.505667 C376.711933,208.998167 376.014,208.186167 374.912,207.847833 C373.846733,207.5095 372.9284,207.340333 372.9284,206.528333 C372.9284,205.716333 373.663067,206.6975 373.663067,204.532167 C373.663067,202.400667 372.230467,202.062333 372.230467,202.062333 L370.0632,200.742833 C370.0632,200.742833 366.242933,199.727833 365.2144,199.727833 C364.185867,199.727833 363.0104,198.645167 364.185867,197.9685 C365.361333,197.291833 365.6552,196.073833 365.2144,195.1265 C364.7736,194.179167 364.479733,193.5025 362.863467,193.0965 C361.2472,192.6905 360.8064,192.2845 361.541067,191.337167 C362.275733,190.389833 362.422667,189.713167 363.304267,190.389833 C364.185867,191.0665 365.6552,191.337167 366.830667,190.795833 C368.006133,190.2545 368.446933,189.8485 369.034667,190.389833 C369.6224,190.931167 370.357067,191.4725 371.238667,190.6605 C372.120267,189.8485 373.736533,189.713167 374.4712,190.119167 C375.205867,190.525167 376.969067,190.389833 377.5568,190.119167 C378.144533,189.8485 379.32,188.901167 379.32,188.359833 C379.32,187.8185 380.054667,186.871167 380.789333,186.465167 C381.524,186.059167 382.4056,184.705833 383.140267,184.705833 C383.874933,184.705833 384.1688,183.893833 384.1688,183.3525 C384.1688,182.811167 384.756533,181.7285 384.903467,181.3225 C385.0504,180.9165 386.519733,180.341333 387.548267,181.187167 C388.5768,181.999167 389.8992,182.269833 389.8992,182.269833 C389.8992,182.269833 391.368533,182.5405 392.1032,182.269833 C392.837867,181.999167 393.8664,181.7285 394.894933,182.405167 C395.923467,183.081833 397.3928,183.081833 397.3928,183.081833 C397.3928,183.081833 397.686667,181.999167 397.686667,181.457833 C397.686667,180.9165 397.980533,179.969167 397.3928,179.563167 C396.805067,179.157167 396.0704,178.615833 397.245867,177.803833 C398.421333,176.991833 398.421333,177.127167 399.5968,177.127167 C400.772267,177.127167 401.506933,177.2625 402.388533,177.2625 C403.270133,177.2625 404.739467,178.0745 404.739467,178.8865 C404.739467,179.6985 405.3272,180.239833 406.061867,180.645833 C406.796533,181.051833 407.678133,181.457833 407.384267,182.1345 C407.0904,182.811167 407.0904,183.3525 407.972,183.217167 C408.8536,183.081833 409.147467,183.623167 409.147467,184.299833 C409.147467,184.9765 409.441333,185.3825 410.322933,185.653167 C411.204533,185.923833 411.645333,186.465167 411.645333,187.141833 C411.645333,187.8185 411.4984,188.2245 411.792267,188.901167 C412.086133,189.577833 412.967733,190.6605 412.967733,190.6605 C412.967733,190.6605 414.584,192.555167 412.526933,191.607833 C410.469867,190.6605 410.029067,190.2545 409.2944,190.389833 C408.559733,190.525167 408.118933,190.931167 408.118933,190.931167 C408.118933,190.931167 407.0904,191.201833 406.355733,191.201833 C405.621067,191.201833 404.8864,192.6905 406.061867,192.961167 C407.237333,193.231833 407.678133,193.5025 407.678133,194.449833 C407.678133,195.397167 407.237333,195.1265 406.6496,195.803167 C406.061867,196.479833 405.621067,196.073833 404.592533,196.073833 C403.564,196.073833 403.270133,196.885833 403.270133,197.697833 C403.270133,198.509833 403.710933,198.3745 404.151733,199.051167 C404.592533,199.727833 405.3272,199.863167 406.061867,199.1865 C406.796533,198.509833 407.384267,198.103833 407.825067,199.321833 C408.265867,200.539833 408.8536,200.539833 409.7352,200.539833 C410.6168,200.539833 410.910667,200.539833 411.645333,200.133833 C412.38,199.727833 413.2616,200.133833 413.408533,201.2165 C413.555467,202.299167 414.290133,202.4345 415.0248,202.8405 C415.759467,203.2465 416.200267,203.517167 416.3472,204.193833 C416.494133,204.8705 416.934933,205.141167 417.6696,204.735167 C418.404267,204.329167 419.579733,204.0585 420.020533,204.599833 C420.461333,205.141167 421.196,206.223833 421.196,206.223833 L421.342933,207.577167 L424.134667,208.5245 C424.134667,208.5245 424.428533,209.201167 424.428533,209.7425 C424.428533,210.283833 424.869333,210.5545 425.604,210.419167 C426.338667,210.283833 427.661067,210.419167 427.661067,210.419167 C427.661067,210.419167 428.6896,210.013167 428.6896,209.201167 C428.6896,208.389167 429.1304,208.1185 429.865067,208.1185 C430.599733,208.1185 432.216,208.659833 432.6568,207.847833 C433.0976,207.035833 434.42,206.765167 435.448533,207.171167 C436.477067,207.577167 439.121867,208.659833 439.121867,208.659833 C439.121867,208.659833 438.828,208.795167 439.7096,210.1485 C440.5912,211.501833 442.207467,211.501833 442.207467,211.501833 C442.207467,211.501833 442.3544,212.719833 442.648267,213.261167 C442.942133,213.8025 444.264533,214.073167 444.9992,213.531833 C445.733867,212.9905 446.7624,212.313833 447.644,212.313833 C448.5256,212.313833 449.113333,212.313833 449.113333,211.7725 C449.113333,211.231167 448.231733,210.825167 448.231733,210.013167 C448.231733,209.201167 449.113333,209.201167 449.260267,208.389167 C449.4072,207.577167 450.2888,208.389167 450.876533,208.795167 C451.464267,209.201167 452.198933,209.877833 452.198933,210.419167 C452.198933,210.9605 453.3744,212.855167 454.109067,213.125833 C454.843733,213.3965 456.753867,213.531833 457.3416,212.855167 C457.929333,212.1785 459.398667,211.907833 459.251733,213.531833 C459.1048,215.155833 458.810933,215.291167 459.839467,215.8325 C460.868,216.373833 461.014933,218.2685 460.133333,218.809833 C459.251733,219.351167 458.957867,219.4865 458.957867,220.433833 C458.957867,221.381167 458.664,222.463833 459.398667,223.005167 C460.133333,223.5465 460.574133,223.9525 460.574133,224.493833 C460.574133,225.035167 461.455733,227.471167 461.455733,227.471167 C461.455733,227.471167 461.896533,229.907167 461.7496,230.4485 C461.602667,230.989833 461.3088,231.937167 462.6312,231.801833 C463.9536,231.6665 464.247467,231.6665 464.247467,232.749167 C464.247467,233.831833 464.688267,234.237833 463.9536,234.643833 C463.218933,235.049833 462.778133,236.403167 463.5128,236.673833 C464.247467,236.9445 464.8352,237.3505 464.982133,237.891833 C465.129067,238.433167 466.304533,239.3805 467.0392,238.839167 C467.773867,238.297833 467.9208,238.027167 468.508533,237.891833 C469.096267,237.7565 469.537067,237.3505 468.949333,236.673833 C468.3616,235.997167 468.214667,235.3205 468.8024,234.9145 C469.390133,234.5085 469.684,233.155167 469.684,233.155167 C469.684,233.155167 470.5656,231.937167 471.594133,233.155167 C472.622667,234.373167 472.7696,233.967167 473.504267,233.967167 C474.238933,233.967167 474.5328,234.643833 474.5328,235.3205 C474.5328,235.997167 476.002133,235.861833 476.002133,236.9445 C476.002133,238.027167 476.296,240.5985 476.296,240.5985 C476.296,240.5985 476.296,242.087167 477.1776,242.6285 C478.0592,243.169833 477.912267,243.305167 477.471467,243.981833 C477.030667,244.6585 477.1776,245.741167 477.1776,246.2825 C477.1776,246.823833 477.471467,247.0945 476.7368,247.635833 C476.002133,248.177167 475.708267,248.853833 476.149067,249.665833 C476.589867,250.477833 476.442933,251.019167 477.6184,251.9665 C478.793867,252.913833 478.646933,253.319833 478.646933,253.9965 C478.646933,254.673167 479.8224,255.6205 479.8224,256.297167 C479.8224,256.973833 480.704,257.785833 481.438667,257.921167 C482.173333,258.0565 483.054933,259.2745 483.054933,259.951167 C483.054933,260.627833 483.201867,262.387167 483.201867,262.387167 C483.201867,262.387167 483.054933,262.793167 483.936533,262.793167 C484.818133,262.793167 485.405867,263.7405 485.699733,262.657833 C485.9936,261.575167 486.8752,261.439833 487.462933,261.169167 C488.050667,260.8985 489.226133,260.357167 489.813867,260.763167 C490.4016,261.169167 491.136267,261.169167 491.724,261.169167 C492.311733,261.169167 495.103467,261.3045 495.103467,261.3045 C495.103467,261.3045 495.838133,261.169167 496.278933,262.251833 C496.719733,263.3345 498.042133,264.5525 497.307467,265.093833 C496.5728,265.635167 496.5728,266.717833 497.4544,266.717833 C498.336,266.717833 499.2176,266.717833 499.2176,267.3945 C499.2176,268.071167 499.364533,268.6125 500.0992,268.2065 C500.833867,267.8005 501.274667,267.665167 501.568533,268.2065 C501.8624,268.747833 502.450133,268.747833 503.1848,269.153833 C503.919467,269.559833 504.213333,269.289167 504.654133,268.747833 C505.094933,268.2065 506.858133,267.665167 506.858133,267.665167 C506.858133,267.665167 509.209067,267.123833 510.090667,267.3945 C510.972267,267.665167 512.147733,268.2065 512.147733,268.2065 C512.147733,268.2065 512.735467,269.559833 512.4416,270.371833 C512.147733,271.183833 511.853867,271.0485 512.147733,272.2665 C512.4416,273.4845 511.853867,273.619833 511.266133,273.4845 C510.6784,273.349167 510.090667,273.349167 510.090667,274.431833 C510.090667,275.5145 509.502933,275.785167 509.502933,276.7325 C509.502933,277.679833 509.502933,277.5445 508.9152,277.9505 C508.327467,278.3565 508.180533,279.033167 509.062133,279.1685 C509.943733,279.303833 509.649867,280.251167 509.649867,280.7925 C509.649867,281.333833 509.502933,282.551833 509.502933,282.551833 C509.502933,282.551833 509.649867,283.2285 508.621333,283.2285 C507.5928,283.2285 506.7112,283.093167 506.564267,283.769833 C506.417333,284.4465 505.241867,285.529167 506.2704,286.205833 C507.298933,286.8825 507.005067,287.2885 506.417333,287.559167 C505.8296,287.829833 505.3888,289.183167 506.564267,289.589167 C507.739733,289.995167 507.5928,290.401167 506.858133,290.9425 C506.123467,291.483833 504.654133,291.889833 504.654133,292.701833 C504.654133,293.513833 504.360267,293.513833 503.478667,293.649167 C502.597067,293.7845 502.156267,294.867167 503.1848,296.2205 C504.213333,297.573833 504.5072,297.303167 505.241867,297.303167 C505.976533,297.303167 505.976533,296.2205 505.976533,296.2205 C505.976533,296.2205 508.4744,296.355833 509.209067,296.355833 C509.943733,296.355833 510.972267,296.355833 511.56,295.949833 C512.147733,295.543833 513.764,294.867167 513.764,296.085167 C513.764,297.303167 514.057867,297.167833 514.792533,297.709167 C515.5272,298.2505 515.674133,297.8445 516.261867,298.6565 C516.8496,299.4685 516.996533,298.791833 517.437333,297.8445 C517.878133,296.897167 518.759733,295.949833 519.4944,297.0325 C520.229067,298.115167 520.229067,297.8445 521.110667,297.8445 C521.992267,297.8445 522.286133,298.2505 522.286133,298.927167 C522.286133,299.603833 523.167733,299.603833 524.196267,299.4685 C525.2248,299.333167 525.371733,300.009833 525.812533,300.6865 C526.253333,301.363167 526.400267,301.227833 526.988,301.227833 C527.575733,301.227833 528.163467,301.227833 528.604267,300.6865 C529.045067,300.145167 529.6328,299.4685 530.220533,300.2805 C530.808267,301.0925 531.983733,300.957167 532.2776,300.009833 C532.571467,299.0625 533.893867,298.2505 534.628533,299.333167 C535.3632,300.415833 535.950933,300.415833 536.6856,300.551167 C537.420267,300.6865 538.4488,300.6865 538.8896,301.363167 C539.3304,302.039833 540.799733,303.1225 539.7712,303.9345 C538.742667,304.7465 537.5672,305.829167 538.4488,306.099833 C539.3304,306.3705 539.918133,306.641167 540.505867,307.317833 C541.0936,307.9945 543.003733,308.265167 543.885333,308.4005 C544.766933,308.535833 545.5016,308.671167 546.530133,307.859167 C547.558667,307.047167 548.5872,307.047167 548.440267,308.129833 C548.293333,309.2125 548.881067,310.4305 548.881067,310.4305 C548.881067,310.4305 549.615733,312.189833 549.615733,312.8665 C549.615733,313.543167 549.4688,313.6785 550.7912,314.4905 C552.1136,315.3025 551.966667,315.843833 552.9952,315.031833 C554.023733,314.219833 554.3176,313.813833 554.3176,313.137167 L554.3176,310.971833 C554.3176,310.971833 555.786933,310.701167 556.374667,310.295167 C556.9624,309.889167 559.313333,308.671167 559.901067,309.2125 C560.4888,309.753833 561.223467,309.6185 561.8112,309.347833 C562.398933,309.077167 563.5744,309.077167 564.162133,309.077167 C564.749867,309.077167 565.7784,309.2125 566.953867,308.265167 C568.129333,307.317833 568.129333,307.5885 568.864,308.265167 C569.598667,308.941833 569.598667,309.753833 569.157867,310.295167 C568.717067,310.8365 569.157867,312.0545 570.1864,312.0545 C571.214933,312.0545 571.5088,312.595833 571.5088,313.2725 C571.5088,313.949167 571.655733,314.8965 571.802667,315.437833 C571.9496,315.979167 571.9496,316.249833 573.565867,316.655833 C575.182133,317.061833 574.888267,318.009167 575.182133,318.685833 C575.476,319.3625 575.476,319.903833 574.5944,319.903833 C573.7128,319.903833 573.418933,320.309833 573.272,320.9865 C573.125067,321.663167 571.802667,321.933833 571.802667,321.933833 L570.480267,321.663167 C570.480267,321.663167 569.598667,321.663167 569.157867,322.2045 C568.717067,322.745833 567.835467,323.8285 568.4232,324.775833 C569.010933,325.723167 569.010933,326.2645 568.4232,326.6705 C567.835467,327.0765 567.5416,329.1065 566.953867,328.7005 C566.366133,328.2945 565.631467,328.835833 565.043733,329.1065 C564.456,329.377167 564.602933,331.271833 565.7784,331.9485 C566.953867,332.625167 567.247733,333.5725 567.247733,333.5725 L568.570133,335.6025 C568.570133,335.6025 568.129333,336.0085 567.835467,336.685167 C567.5416,337.361833 566.66,338.715167 567.5416,338.985833 C568.4232,339.2565 567.9824,340.745167 567.1008,340.745167 C566.2192,340.745167 565.190667,340.339167 565.043733,341.421833 C564.8968,342.5045 564.456,342.233833 563.5744,342.0985 C562.6928,341.963167 560.4888,341.421833 559.901067,342.5045 C559.313333,343.587167 559.1664,343.993167 558.137867,343.857833 C557.109333,343.7225 557.550133,345.481833 557.844,346.1585 C558.137867,346.835167 559.1664,347.7825 559.1664,347.7825 C559.1664,347.7825 560.048,348.459167 560.048,349.8125 C560.048,351.165833 559.460267,351.0305 558.872533,350.083167 C558.2848,349.135833 557.109333,349.271167 556.9624,350.353833 C556.815467,351.4365 556.668533,353.0605 555.64,353.0605 C554.611467,353.0605 554.170667,353.331167 553.729867,353.8725 C553.289067,354.413833 552.5544,355.361167 552.5544,355.9025 C552.5544,356.443833 552.407467,356.985167 551.6728,357.1205 C550.938133,357.255833 550.7912,358.7445 550.7912,358.7445 C550.7912,358.7445 549.028,359.015167 548.881067,359.691833 C548.734133,360.3685 549.028,361.451167 547.558667,361.5865 C546.089333,361.721833 545.207733,362.669167 544.766933,363.345833 C544.326133,364.0225 544.1792,364.563833 544.766933,365.2405 C545.354667,365.917167 545.795467,368.0825 546.530133,368.4885 C547.2648,368.8945 547.852533,369.029833 547.7056,370.1125 C547.558667,371.195167 546.677067,372.007167 547.852533,372.007167 C549.028,372.007167 549.762667,372.277833 549.321867,373.225167 C548.881067,374.1725 548.881067,374.307833 547.999467,374.713833 C547.117867,375.119833 546.677067,375.119833 546.677067,376.2025 C546.677067,377.285167 546.970933,377.285167 546.236267,377.691167 C545.5016,378.097167 545.5016,378.6385 545.5016,379.4505 C545.5016,380.2625 545.207733,379.991833 544.326133,380.939167 C543.444533,381.8865 542.269067,381.8865 541.5344,381.615833 C540.799733,381.345167 540.6528,381.345167 540.505867,380.533167 C540.358933,379.721167 539.036533,379.721167 538.301867,379.8565 C537.5672,379.991833 536.538667,380.803833 536.538667,380.803833 C536.538667,380.803833 535.216267,381.615833 535.804,382.2925 C536.391733,382.969167 536.097867,384.051833 535.069333,383.9165 C534.0408,383.781167 531.689867,384.999167 530.9552,383.781167 C530.220533,382.563167 528.163467,381.751167 527.8696,383.375167 C527.575733,384.999167 528.7512,384.863833 528.604267,386.487833 C528.457333,388.111833 528.163467,388.111833 527.575733,388.653167 C526.988,389.1945 526.988,389.6005 526.841067,390.277167 C526.694133,390.953833 526.5472,392.4425 527.575733,392.983833 C528.604267,393.525167 529.045067,395.013833 529.045067,395.825833 C529.045067,396.637833 529.045067,397.449833 530.0736,397.449833 C531.102133,397.449833 531.983733,397.3145 532.130667,396.367167 C532.2776,395.419833 534.334667,394.8785 534.4816,396.773167 C534.628533,398.667833 534.628533,399.615167 535.3632,400.427167 C536.097867,401.239167 536.6856,402.321833 537.273333,402.727833 C537.861067,403.133833 538.852867,406.584833 538.852867,406.584833 C537.420267,406.889333 537.052933,408.750167 536.1346,409.122333 C535.620333,409.325333 535.069333,409.156167 534.5918,409.4945 C534.224467,409.765167 534.224467,410.272667 533.7102,410.5095 C532.644933,410.983167 532.8286,409.325333 531.542933,409.934333 C530.367467,410.475667 530.257267,411.829 528.567533,411.253833 C527.685933,410.949333 527.134933,407.498333 526.8778,406.686333 C526.730867,406.212667 525.812533,404.791667 525.518667,404.351833 C524.526867,402.863167 522.543267,404.351833 521.9188,403.912 C520.927,403.235333 521.3678,402.085 519.861733,401.949667 C516.812867,401.746667 518.980133,403.8105 517.694467,404.284167 C515.233333,405.163833 515.233333,401.9835 513.396667,403.438333 C512.698733,403.979667 514.498667,404.318 514.057867,405.265333 C513.690533,406.0435 511.8906,407.227667 512.0008,408.141167 C512.147733,409.393 513.506867,409.765167 513.910933,410.814 C515.012933,413.588333 513.176267,415.516833 510.421267,413.3515 C508.878467,412.1335 508.5846,409.866667 506.196933,410.035833 C505.645933,410.069667 505.462267,410.644833 504.911267,410.7125 C504.360267,410.746333 503.919467,410.205 503.331733,410.374167 C502.450133,410.678667 503.221533,411.287667 503.037867,411.795167 C503.037867,411.795167 501.8624,412.776333 501.678733,413.047 C501.017533,413.926667 501.237933,414.704833 500.282867,415.415333 C499.474733,416.024333 498.850267,415.652167 497.968667,416.5995 C497.050333,417.580667 496.976867,419.0355 495.8014,419.982833 C495.213667,420.4565 494.8096,418.561833 494.074933,419.813667 C493.964733,419.982833 493.854533,420.152 493.781067,420.321167 C493.5974,420.693333 493.560667,420.8625 493.744333,421.2685 C495.287133,424.245833 492.0546,425.362333 491.0628,427.46 C490.622,428.339667 491.8342,429.151667 491.356667,429.828333 C491.026067,430.335833 489.593467,431.723 489.483267,432.0275 C489.373067,432.332 489.226133,433.008667 488.969,433.2455 C488.711867,433.516167 487.830267,433.380833 487.7568,433.786833 C487.683333,434.2605 488.675133,434.632667 488.932267,434.937167 C489.262867,435.309333 488.785333,435.816833 488.895533,435.918333 C490.548533,437.576167 489.556733,437.068667 490.4016,438.5235 C490.5118,438.7265 491.026067,438.354333 491.209733,438.895667 C491.3934,439.403167 490.805667,439.369333 491.026067,439.9445 C491.0628,440.113667 492.238267,441.636167 492.238267,441.67 C492.311733,442.1775 489.997533,443.226333 489.483267,443.226333 C488.0874,443.260167 490.695467,440.3505 488.418,440.3505 C487.4262,440.3505 487.352733,442.617333 487.0956,442.854167 C486.9854,442.955667 486.067067,442.854167 485.846667,442.854167 C484.377333,442.854167 483.422267,444.681167 482.834533,444.850333 C482.4672,444.985667 481.659067,444.647333 481.0346,444.748833 C480.446867,444.850333 479.748933,445.4255 479.197933,445.4255 C478.8306,445.4255 478.646933,445.188667 478.353067,445.0195 C477.691867,444.647333 476.479667,444.478167 475.745,444.241333 C475.340933,444.106 474.569533,444.748833 474.3124,444.579667 C473.834867,444.275167 474.643,443.429333 473.541,442.820333 C473.394067,442.752667 472.585933,440.790333 472.622667,440.688833 C472.99,439.403167 473.394067,438.016 473.2104,436.662667 C472.99,435.2755 470.822733,434.091333 470.235,432.974833 C469.7942,432.129 469.390133,429.896 468.545267,429.320833 C467.626933,428.711833 466.782067,427.527667 466.304533,426.614167 C466.1576,426.3435 466.5984,425.869833 466.2678,425.396167 C465.900467,424.888667 465.202533,424.685667 465.018867,424.009 C464.871933,423.467667 465.018867,421.708333 464.3944,421.336167 C463.696467,420.930167 459.215,420.388833 458.113,420.287333 C457.525267,420.2535 457.084467,420.2535 456.643667,419.813667 C456.46,419.6445 456.166133,418.934 456.0192,418.934 C455.5784,418.900167 455.064133,419.137 454.623333,419.170833 C454.292733,419.204667 453.741733,418.967833 453.447867,419.170833 C452.015267,420.152 451.647933,421.403833 450.2888,422.452667 C448.892933,423.5015 447.350133,423.467667 445.954267,424.685667 C445.072667,425.463833 444.484933,427.324667 443.603333,428.204333 C443.236,428.5765 442.648267,428.204333 442.501333,428.3735 C441.766667,429.287 440.738133,429.828333 440.003467,430.674167 C439.856533,430.843333 439.893267,431.181667 439.7096,431.317 L438.130067,431.723 C437.726,431.790667 436.9546,431.689167 436.624,431.790667 C435.889333,432.0275 435.926067,432.805667 433.4282,433.313167 C433.244533,433.347 432.913933,433.516167 432.767,433.617667 C432.473133,433.820667 432.252733,434.125167 431.958867,434.328167 C431.7752,434.4635 431.2242,434.226667 430.8936,434.2605 C430.269133,434.362 429.9018,434.903333 429.314067,434.971 C427.991667,435.140167 425.861133,434.362 424.8326,434.768 C424.208133,435.004833 422.481667,436.933333 421.8572,437.136333 C421.453133,437.271667 421.159267,437.1025 420.718467,436.933333 C420.498067,437.204 419.9838,439.301667 419.800133,439.775333 C419.800133,439.809167 416.971667,442.1775 416.751267,442.448167 C416.383933,442.854167 416.237,443.294 415.7962,443.733833 C415.502333,444.038333 415.0248,444.309 414.547267,444.309 C413.959533,444.309 413.077933,443.869167 412.526933,443.767667 C411.461667,443.5985 408.265867,443.463167 407.3108,443.666167 C406.319,443.869167 406.612867,446.711167 404.151733,446.981833 C402.719133,447.151 401.396733,447.421667 399.9274,447.557 C399.780467,447.557 398.898867,446.948 398.017267,447.184833 C397.686667,447.286333 396.6214,448.369 396.6214,448.707333 L396.6214,449.316333 C396.6214,449.417833 396.915267,449.79 396.878533,449.823833 C396.327533,450.466667 395.0786,451.481667 394.674533,452.226 C394.564333,452.429 394.4174,452.665833 394.233733,452.801167 C393.903133,453.038 392.2134,453.680833 392.066467,453.985333 C391.6624,455.000333 393.241933,455.947667 393.095,456.353667 C392.6542,457.673167 390.891,458.925 390.34,460.143 C390.1196,460.6505 390.927733,462.342167 390.891,462.917333 C390.707333,464.5075 390.156333,466.5375 390.2298,468.093833 C390.2298,468.398333 390.4502,469.9885 390.5604,470.157667 C390.744067,470.462167 391.148133,470.631333 391.405267,470.902 C391.6624,471.172667 393.609267,474.962 393.682733,475.368 C394.050067,478.176167 389.972667,477.195 392.3236,480.003167 C392.690933,480.443 392.9848,480.916667 393.388867,481.288833 C393.903133,481.796333 396.915267,483.9955 396.952,484.232333 C397.025467,484.638333 394.5276,485.044333 394.0868,485.484167 C392.911333,486.6345 391.919533,488.766 390.7808,489.950167 C390.082867,490.6945 389.4584,489.8825 388.540067,491.608 C388.209467,492.250833 388.540067,493.705667 388.136,494.111667 C387.548267,494.720667 387.070733,493.908667 386.483,494.179333 C386.225867,494.280833 386.078933,495.025167 385.8218,495.228167 C385.1606,495.803333 379.283267,498.916 378.732267,498.645333 C378.4384,498.51 378.1078,497.528833 378.071067,497.224333 C377.9976,496.886 377.630267,496.141667 377.3364,495.904833 C375.830333,494.619167 373.516133,494.382333 372.0468,495.938667 C371.679467,496.344667 371.642733,496.953667 371.1652,497.359667 C370.357067,498.036333 369.438733,498.645333 368.667333,499.322 C368.5204,499.457333 368.0796,499.964833 367.895933,499.931 C367.3082,499.863333 365.8756,498.239333 365.508267,497.7995 C364.847067,497.021333 362.936933,495.1605 362.753267,494.280833 C362.753267,491.269667 360.402333,488.123167 359.410533,485.179667 L360.879867,485.2135 C362.532867,484.097 362.055333,481.3565 365.030733,482.439167 C365.398067,481.931667 365.361333,481.390333 366.059267,481.018167 C366.3164,480.882833 366.793933,480.7475 366.940867,480.510667 C367.932667,478.988167 369.108133,473.168833 368.0796,471.680167 C367.161267,470.326833 366.2062,470.3945 365.471533,468.1615 C365.251133,467.5525 365.6552,466.842 365.471533,466.165333 C365.3246,465.624 364.3328,462.409833 364.185867,462.173 C364.0022,461.902333 363.377733,461.564 363.341,461.394833 C363.304267,461.124167 363.083867,457.639333 363.194067,457.368667 C362.202267,454.662 358.859533,452.9365 358.675867,452.632 C358.2718,451.989167 357.867733,451.143333 357.426933,450.432833 C356.912667,449.587 356.912667,449.147167 356.6188,448.335167 C356.5086,447.963 355.9576,447.6585 355.920867,447.2525 C355.8474,446.542 357.867733,445.053333 357.794267,443.8015 C357.757533,443.3955 356.5086,442.1775 356.765733,441.500833 C357.022867,440.790333 358.308533,439.200167 358.2718,438.422 C358.198333,437.373167 356.251467,435.106333 355.994333,433.989833 C355.884133,433.4485 356.765733,433.008667 356.545333,432.6365 C356.2882,432.162833 354.231133,430.302 353.900533,429.760667 C353.6434,429.354667 354.671933,428.813333 353.937267,428.069 C353.276067,427.392333 353.827067,427.629167 353.6434,427.054 C353.423,426.411167 352.688333,425.836 352.394467,425.159333 C352.137333,424.584167 350.374133,418.2235 350.410867,417.851333 C350.117,417.4115 349.602733,417.039333 349.3456,416.5995 C349.088467,416.159667 348.978267,415.313833 348.757867,414.9755 C348.721133,414.941667 346.774267,414.3665 346.406933,413.791333 C346.113067,413.317667 346.0396,411.761333 345.525333,410.983167 C345.2682,410.611 344.864133,410.678667 344.570267,410.408 C344.313133,410.205 344.349867,409.832833 344.1662,409.596 C343.578467,408.784 342.403,409.528333 341.594867,406.551 C340.5296,405.806667 339.5378,405.163833 338.619467,404.250333 C338.4358,404.081167 338.3256,403.878167 338.1052,403.776667 C337.370533,403.472167 336.268533,403.370667 335.644067,402.829333 C335.276733,402.829333 333.329867,402.761667 333.109467,402.626333 C332.889067,402.491 332.668667,401.645167 332.521733,401.611333 C331.4932,401.408333 329.803467,401.509833 328.921867,400.7655 C328.223933,400.1565 328.077,397.213 326.828067,397.619 C326.681133,397.551333 326.497467,397.483667 326.3138,397.5175 C325.505667,396.468667 322.713933,396.333333 321.5752,395.656667 C321.2446,395.453667 320.179333,395.622833 320.179333,395.318333 C320.436467,394.743167 320.363,394.2695 320.399733,393.694333 C319.775267,393.085333 319.3712,392.374833 318.9304,391.935 C317.865133,391.698167 318.2692,391.596667 317.608,391.190667 C315.771333,391.055333 315.587667,391.359833 314.4122,392.4425 C314.118333,392.713167 313.5306,392.780833 313.163267,392.983833 C312.5388,393.322167 312.355133,394.438667 311.473533,393.931167 C311.179667,393.762 310.996,393.491333 310.7756,393.288333 C310.261333,392.8485 309.967467,393.085333 309.710333,392.273333 C308.204267,391.461333 304.0534,394.2695 303.0616,392.307167 C302.363667,391.935 301.8494,392.408667 301.261667,391.799667 C300.9678,391.495167 302.0698,388.111833 299.057667,386.724667 C299.7556,386.183333 300.490267,385.811167 301.151467,385.303667 C301.335133,384.9315 301.114733,384.356333 301.114733,383.984167 C301.114733,383.409 301.482067,382.2925 301.371867,381.8865 C301.261667,381.4805 300.820867,381.142167 300.673933,380.6685 C300.490267,380.194833 300.710667,379.585833 300.453533,379.078333 C300.269867,378.943 299.718867,378.604667 299.498467,378.604667 C298.727067,377.961833 297.8822,377.555833 297.257733,376.777667 C297.1108,376.6085 297.0006,376.304 296.816933,376.168667 C296.265933,375.762667 294.466,375.221333 294.539467,374.3755 C294.5762,374.104833 294.943533,374.071 295.053733,373.800333 C295.163933,373.462 295.090467,373.022167 295.3476,372.717667 C296.192467,371.567333 298.065867,372.074833 297.772,369.943333 C297.625067,368.996 296.963867,368.184 296.7802,367.169 C296.4496,366.932167 296.412867,366.526167 296.119,366.289333 C294.282333,366.120167 294.539467,364.2255 293.878267,363.785667 C291.9314,362.466167 290.425333,363.278167 292.5926,360.673 C292.886467,359.827167 290.7192,358.473833 290.2784,358.000167 C289.507,357.255833 289.874333,355.6995 289.580467,354.8875 C289.433533,354.4815 288.147867,353.771 287.7438,353.195833 C287.6336,353.026667 287.303,352.147 287.119333,352.0455 L287.156067,351.774833 C287.560133,351.470333 287.339733,350.861333 287.229533,350.455333 C286.9724,350.2185 286.4214,350.286167 286.237733,350.117 C284.474533,348.526833 282.344,347.816333 280.0298,346.902833 C279.405333,346.666 279.589,346.1585 279.074733,345.921667 C278.633933,345.718667 275.5116,344.3315 275.2912,344.399167 C274.923867,344.297667 274.666733,342.9105 274.4096,342.470667 C274.1892,342.064667 273.3076,341.320333 273.3076,341.2865 C273.381067,340.000833 272.572933,339.831667 271.581133,339.155 C271.6546,338.985833 271.470933,338.579833 271.470933,338.376833 C271.470933,338.207667 272.132133,335.974667 272.242333,335.670167 C272.426,335.1965 273.050467,334.756667 272.940267,334.215333 C272.793333,333.3695 272.683133,332.05 272.389267,331.305667 C271.397467,328.666667 270.222,329.005 270.846467,325.554 C270.9934,324.8435 270.736267,324.4375 271.287267,323.794667 C271.2138,323.760833 271.5444,323.4225 271.581133,323.354833 C271.911733,323.050333 272.830067,322.542833 273.013733,322.306 C273.564733,321.561667 273.895333,319.87 274.593267,319.328667 C275.107533,318.922667 276.576867,318.1445 276.834,317.806167 C277.0544,317.5355 277.385,316.689667 277.201333,316.351333 C276.687067,316.046833 276.1728,316.182167 275.658533,316.1145 C275.474867,316.080667 274.813667,315.607 274.2994,315.5055 C274.152467,315.336333 273.895333,315.133333 273.895333,314.8965 L273.674933,314.6935 C273.0872,314.625833 272.426,314.253667 271.911733,314.0845 C271.250533,313.813833 270.3322,313.78 269.707733,313.407833 C268.532267,312.731167 267.209867,310.870333 266.071133,310.599667 C264.528333,310.261333 263.536533,310.735 262.0672,310.802667 C261.112133,310.870333 261.112133,310.295167 260.340733,310.058333 C259.3122,309.753833 260.0836,310.599667 257.732667,309.855333 C257.4388,309.6185 257.8796,308.8065 257.916333,308.502 C257.549,308.4005 257.1082,308.6035 256.6674,308.502 C254.720533,308.028333 255.4552,306.269 254.940933,305.118667 C254.720533,304.848 253.9124,304.915667 253.545067,304.881833 C253.434867,304.848 253.398133,304.678833 253.434867,304.611167 L253.618533,304.475833 C253.949133,303.968333 252.773667,302.682667 252.8104,302.5135 C252.883867,302.1075 255.271533,301.735333 255.602133,301.7015 C255.712333,301.397 255.381733,301.126333 255.345,300.821833 C255.271533,300.145167 255.712333,299.2655 255.932733,298.6565 L255.859267,298.4535 C255.198067,298.081333 254.977667,297.54 254.389933,297.100167 C254.426667,296.795667 254.830733,296.592667 254.9042,296.288167 C256.042933,293.141667 257.806133,295.645333 259.348933,292.735667 C259.495867,292.465 259.936667,291.7545 260.0836,291.280833 L260.377467,291.213167 C260.671333,291.280833 261.0754,291.517667 261.369267,291.416167 C261.589667,291.111667 262.0672,291.010167 262.434533,290.908667 L262.985533,291.044 C265.850733,290.435 265.189533,289.386167 266.842533,288.202 C267.283333,287.8975 268.569,287.762167 269.156733,287.559167 C269.7812,287.829833 270.6628,288.811 271.838267,289.250833 C272.683133,289.589167 275.585067,290.198167 276.0626,290.468833 C276.687067,290.807167 276.797267,291.619167 277.348267,291.923667 C279.001267,292.803333 278.0462,291.314667 279.625733,291.619167 C281.242,291.9575 282.5644,293.277 284.070467,293.919833 C284.3276,294.021333 284.952067,293.886 285.245933,293.818333 C285.723467,293.716833 288.2948,293.243167 288.551933,293.344667 C288.8458,293.446167 289.2866,293.716833 289.580467,293.7845 C289.9478,293.852167 290.241667,293.074 290.4988,293.107833 C291.6008,293.277 291.637533,293.716833 293.106867,293.5815 C293.180333,293.5815 293.878267,289.453833 294.5762,289.250833 C294.980267,289.149333 296.082267,290.232 296.412867,290.299667 C296.963867,290.435 296.376133,289.453833 296.3394,289.386167 C296.192467,289.047833 295.421067,286.510333 295.4578,286.2735 C295.494533,286.138167 296.192467,286.4765 296.523067,286.375 C297.3312,286.104333 298.4332,285.901333 299.020933,285.2585 C299.0944,285.190833 300.343333,283.397667 300.380067,283.33 C300.453533,283.0255 300.049467,282.315 300.233133,282.078167 C300.4168,281.875167 301.114733,281.6045 301.445333,281.266167 C301.922867,280.7925 301.996333,279.9805 302.657533,279.642167 C305.2656,279.405333 306.183933,277.375333 308.534867,277.104667 C308.6818,277.104667 309.196067,277.003167 309.306267,277.037 L309.7838,277.815167 C309.930733,278.018167 311.510267,278.9655 311.7674,278.897833 C311.9878,278.864 312.098,278.491833 312.3184,278.424167 C312.795933,278.491833 314.118333,277.679833 314.265267,277.273833 C314.302,277.206167 313.9714,276.800167 314.118333,276.5295 C314.228533,276.3265 315.881533,275.1085 316.138667,274.973167 C316.7264,274.973167 317.350867,274.837833 317.901867,275.040833 C318.232467,275.176167 318.2692,275.683667 318.636533,275.751333 C319.0406,275.785167 319.775267,275.616 320.069133,275.683667 C320.399733,275.751333 320.546667,275.074667 320.950733,275.040833 L321.0242,275.1085 Z" id="Shape" fill="#D0A650"></path>
                <g id="h" transform="translate(412.766667, 82.166667)" fill="#FFFFFF">
                    <g id="star-link" transform="translate(0.807167, 0.798467)">
                        <polygon id="Star-1-Copy-3" points="33.1180334 48.5131333 12.6631067 63.0949247 20.2102944 39.135112 0.0212666667 24.1873419 25.140612 23.9611547 33.1180334 0.141133333 41.0954549 23.9611547 66.2148002 24.1873419 46.0257725 39.135112 53.5729602 63.0949247 "></polygon>
                    </g>
                    <g id="star-link" transform="translate(79.491900, 13.877467)">
                        <polygon id="Star-1-Copy-2" points="33.6999668 48.9674667 13.24504 63.5492581 20.7922277 39.5894453 0.6032 24.6416753 25.7225453 24.415488 33.6999668 0.595466667 41.6773882 24.415488 66.7967335 24.6416753 46.6077058 39.5894453 54.1548935 63.5492581 "></polygon>
                    </g>
                    <g id="star-link" transform="translate(156.461767, 42.506267)">
                        <polygon id="Star-1-Copy" points="33.0967668 48.372 12.64184 62.9537914 20.1890277 38.9939786 0 24.0462086 25.1193453 23.8200214 33.0967668 0 41.0741882 23.8200214 66.1935335 24.0462086 46.0045058 38.9939786 53.5516935 62.9537914 "></polygon>
                    </g>
                </g>
                <g id="h-link" transform="translate(287.583333, 135.333333) scale(-1, 1) translate(-287.583333, -135.333333) translate(175.933333, 82.166667)" fill="#FFFFFF">
                    <g id="h">
                        <g id="star-link" transform="translate(0.807167, 0.798467)">
                            <polygon id="Star-1-Copy" points="33.0967668 48.372 12.64184 62.9537914 20.1890277 38.9939786 0 24.0462086 25.1193453 23.8200214 33.0967668 0 41.0741882 23.8200214 66.1935335 24.0462086 46.0045058 38.9939786 53.5516935 62.9537914 "></polygon>
                        </g>
                        <g id="star-link" transform="translate(80.458567, 14.844133)">
                            <polygon id="Star-1" points="33.0967668 48.372 12.64184 62.9537914 20.1890277 38.9939786 0 24.0462086 25.1193453 23.8200214 33.0967668 0 41.0741882 23.8200214 66.1935335 24.0462086 46.0045058 38.9939786 53.5516935 62.9537914 "></polygon>
                        </g>
                        <g id="star-link" transform="translate(156.461767, 42.506267)">
                            <polygon id="Star-1" points="33.0967668 48.372 12.64184 62.9537914 20.1890277 38.9939786 0 24.0462086 25.1193453 23.8200214 33.0967668 0 41.0741882 23.8200214 66.1935335 24.0462086 46.0045058 38.9939786 53.5516935 62.9537914 "></polygon>
                        </g>
                    </g>
                </g>
            </g>
            <rect id="Rectangle-2" stroke="#FFFFFF" stroke-width="3" x="0" y="0" width="812" height="580"></rect>
        </g>
    </g>
</svg>