<?xml version="1.0" encoding="UTF-8" standalone="no"?>
<svg width="1638px" height="780px" viewBox="0 0 1638 780" version="1.1" xmlns="http://www.w3.org/2000/svg" xmlns:xlink="http://www.w3.org/1999/xlink">
    <!-- Generator: Sketch 3.6 (26304) - http://www.bohemiancoding.com/sketch -->
    <title>Blank_political_map_Europe_in_2008_WF_(with_Kosovo)</title>
    <desc>Created with Sketch.</desc>
    <defs>
        <rect id="path-1" x="0" y="0" width="1637.41055" height="779.396415"></rect>
    </defs>
    <g id="Page-1" stroke="none" stroke-width="1" fill="none" fill-rule="evenodd">
        <g id="Blank_political_map_Europe_in_2008_WF_(with_Kosovo)">
            <g id="Group">
                <mask id="mask-2" fill="white">
                    <use xlink:href="#path-1"></use>
                </mask>
                <use id="maska" xlink:href="#path-1"></use>
                <rect id="ocean" fill="#2096BD" mask="url(#mask-2)" x="-5230.82848" y="-6953.68664" width="13982.4387" height="8956.9863"></rect>
                <g id="outlines" mask="url(#mask-2)" stroke="#FFFFFF" stroke-width="3">
                    <g transform="translate(-3097.637491, -6960.173661)">
                        <path d="M3935.80513,7368.68187 C3947.13024,7373.53503 3960.07315,7376.7705 3968.16245,7383.24157 C3971.39827,7386.47705 3973.01595,7404.27245 3982.72338,7402.65465 C3995.66618,7401.03686 4006.9913,7392.94811 4021.55211,7392.94811 C4037.73083,7392.94811 4065.23444,7425.30332 4081.41317,7420.45005 C4087.88468,7418.83226 4081.41317,7405.89013 4086.26677,7402.65465 C4110.5348,7386.47705 4139.65631,7401.03686 4165.54225,7407.50792 L4172.01376,7407.50792 C4180.10306,7415.59678 4186.57457,7423.68553 4183.33887,7433.39207 C4180.10306,7446.33398 4159.07085,7443.0985 4150.98143,7451.18725 C4144.51003,7457.65831 4170.39585,7494.86679 4154.21724,7522.36851 C4146.12782,7540.16391 4076.55956,7567.66563 4057.14525,7575.7546 C4039.34863,7582.22567 4011.8449,7588.6965 3998.90188,7600.02084 C3989.19467,7606.49191 3974.63397,7630.75826 3960.07315,7633.99373 C3905.0657,7650.17123 3806.37569,7638.84689 3762.69336,7674.43758 C3751.36824,7684.14412 3728.71812,7692.23298 3731.95382,7706.79279 C3736.80743,7718.11713 3761.07545,7716.49922 3759.45766,7727.82356 C3759.45766,7732.67683 3709.30382,7744.00116 3706.06789,7745.61885 C3686.65358,7760.17866 3680.18207,7787.68049 3664.00347,7803.85809 C3618.70323,7850.77289 3558.84195,7896.07012 3529.72043,7955.92716 C3516.77752,7980.19352 3534.57403,8057.84562 3549.13485,8078.8765 C3553.98845,8085.34756 3613.84951,8119.32046 3599.28869,8129.02689 C3587.96369,8138.73343 3560.45997,8141.96902 3549.13485,8150.05776 C3545.89915,8153.29335 3545.89915,8161.3821 3542.66345,8162.99989 C3539.42764,8166.23537 3534.57403,8161.3821 3531.33833,8161.3821 C3518.39531,8164.61758 3503.8345,8166.23537 3492.50938,8174.32412 C3487.65578,8179.17739 3490.8917,8190.50172 3484.42019,8195.35499 C3479.56658,8198.59058 3471.47728,8192.11952 3468.24147,8195.35499 C3461.77007,8203.44385 3466.62368,8216.38576 3461.77007,8222.85682 C3455.29856,8229.32789 3442.35554,8222.85682 3437.50193,8230.94557 C3431.03065,8240.65211 3440.73774,8255.21192 3435.88414,8264.91858 C3422.94112,8297.27356 3393.8196,8260.06508 3392.20169,8311.83338 C3392.20169,8324.77551 3418.08762,8329.62878 3414.85193,8340.95289 C3409.99832,8352.27722 3392.20169,8350.65965 3379.25878,8349.04175 C3371.16937,8349.04175 3363.08006,8340.95289 3354.99087,8339.33532 C3321.01552,8329.62878 3280.56878,8345.80638 3251.44726,8365.21935 C3201.29341,8397.57445 3201.29341,8460.66697 3149.52155,8486.55112 C3130.10724,8497.87523 3123.63573,8444.48936 3075.09979,8457.43138 C3065.39258,8460.66697 3060.53898,8473.60899 3049.21386,8476.84458 C3034.65305,8481.69785 3000.67792,8454.19591 2986.11711,8452.57811 C2966.70258,8447.72484 2945.67048,8459.04918 2924.63815,8455.8137 C2913.31303,8452.57811 2906.84152,8442.87157 2895.51652,8439.63609 C2874.4843,8431.54735 2779.03011,8416.98742 2761.23348,8420.22301 C2741.81906,8425.07628 2732.11185,8449.34264 2714.31534,8457.43138 C2688.42952,8467.13804 2656.07219,8438.0183 2620.47905,8455.8137 C2591.35753,8470.37351 2594.59311,8483.31542 2580.03241,8504.34629 C2578.41451,8505.96409 2568.7073,8496.25755 2562.23579,8501.11082 C2552.52857,8509.19956 2544.43927,8522.14169 2531.49636,8526.99496 C2526.64287,8528.61265 2526.64287,8517.28842 2521.78904,8514.05283 C2515.31775,8509.19956 2505.61054,8507.58188 2500.75694,8502.7285 C2494.28543,8494.63975 2492.66752,8483.31542 2484.57822,8476.84458 C2479.72461,8471.99131 2470.0174,8476.84458 2465.1638,8471.99131 C2453.83868,8460.66697 2437.66007,8407.28088 2434.42437,8391.1035 C2434.42437,8389.48571 2458.69228,8413.75195 2455.4567,8399.19225 C2455.4567,8394.33898 2445.74949,8399.19225 2444.13158,8395.95677 C2442.51368,8392.72118 2450.60309,8389.48571 2448.98519,8386.25023 C2444.13158,8358.74829 2419.86356,8391.1035 2421.48135,8344.18859 C2421.48135,8344.18859 2484.57822,8315.06896 2470.0174,8311.83338 C2457.07438,8308.5979 2448.98519,8336.09962 2436.04205,8332.86425 C2424.71716,8331.24646 2429.57077,8311.83338 2424.71716,8302.12683 C2419.86356,8292.42029 2413.39205,8284.33155 2406.92053,8276.24269 L2363.2382,8234.18116 L2363.2382,8230.94557 C2361.6203,8234.18116 2360.00239,8235.79884 2356.76669,8235.79884 C2347.05948,8237.41664 2342.20588,8224.47462 2334.11657,8219.62123 C2327.64506,8216.38576 2298.52354,8211.53249 2277.49122,8211.53249 C2280.72692,8143.58692 2264.54819,8132.26259 2317.93785,8085.34756 C2327.64506,8077.25882 2326.02715,8059.46342 2335.73436,8054.61026 C2338.97018,8052.99235 2418.24565,8051.37478 2398.83123,8019.01957 C2393.97763,8010.93082 2377.79902,8023.87284 2369.70971,8019.01957 C2361.6203,8012.5485 2363.2382,7999.60649 2360.00239,7989.90006 C2356.76669,7980.19352 2356.76669,7968.86918 2350.29518,7960.78044 C2348.67739,7957.54485 2338.97018,7960.78044 2338.97018,7957.54485 C2343.82378,7946.22062 2355.14878,7938.13176 2360.00239,7926.80743 C2369.70971,7907.39446 2342.20588,7921.95416 2369.70971,7899.30571 C2393.97763,7879.89263 2426.33496,7883.12811 2429.57077,7841.06646 C2429.57077,7837.83099 2398.83123,7816.80011 2392.35972,7803.85809 C2382.65251,7782.82733 2393.97763,7748.85444 2393.97763,7745.61885 C2392.35972,7744.00116 2366.4739,7693.85066 2366.4739,7692.23298 C2364.85611,7688.99739 2371.32739,7693.85066 2374.56332,7693.85066 C2389.12402,7698.70405 2398.83123,7700.32173 2413.39205,7703.55732 C2450.60309,7713.26386 2458.69228,7716.49922 2478.10671,7679.29085 C2500.75694,7633.99373 2476.4888,7650.17123 2471.63519,7616.19845 C2466.78159,7585.46103 2516.93543,7600.02084 2518.55334,7577.37239 C2520.17136,7561.19479 2502.37473,7575.7546 2512.08183,7556.34152 C2513.69985,7553.10593 2520.17136,7553.10593 2521.78904,7548.25266 C2526.64287,7536.92844 2526.64287,7525.6041 2528.26055,7514.27976 C2529.87846,7501.33786 2539.58567,7488.39573 2537.96776,7475.45371 L2523.40694,7436.62743 C2528.26055,7431.77416 2539.58567,7441.4807 2546.05718,7438.24523 L2580.03241,7402.65465 C2604.30032,7389.71264 2649.60068,7388.09484 2662.5437,7352.50426 C2672.2508,7320.14905 2630.18626,7323.38464 2618.86114,7321.76685 C2610.77184,7320.14905 2625.33265,7258.67444 2618.86114,7255.43885 C2588.1216,7239.26125 2581.65032,7253.82117 2544.43927,7239.26125 C2537.96776,7236.02577 2539.58567,7219.84816 2525.02485,7229.5547 C2521.78904,7232.79041 2528.26055,7240.87904 2525.02485,7244.11452 C2502.37473,7263.52771 2478.10671,7240.87904 2471.63519,7239.26125 C2465.1638,7236.02577 2457.07438,7244.11452 2452.22077,7240.87904 C2448.98519,7239.26125 2461.92798,7236.02577 2458.69228,7232.79041 C2457.07438,7226.31934 2448.98519,7224.70143 2442.51368,7224.70143 C2432.80647,7223.08387 2421.48135,7226.31934 2411.77414,7224.70143 C2410.15635,7223.08387 2413.39205,7219.84816 2413.39205,7216.6128 C2413.39205,7214.99501 2415.00995,7208.52394 2413.39205,7210.14173 C2405.30274,7211.75953 2385.88821,7234.40798 2371.32739,7224.70143 C2332.49867,7197.19972 2408.53844,7190.72865 2389.12402,7171.31557 C2385.88821,7168.07998 2379.41692,7171.31557 2376.181,7168.07998 C2374.56332,7164.8445 2382.65251,7158.37344 2379.41692,7156.75587 C2350.29518,7150.28481 2309.84843,7159.99123 2285.58052,7172.93336 C2288.81633,7159.99123 2271.0197,7148.6669 2271.0197,7135.72499 C2269.4018,7130.87172 2279.10901,7142.19606 2282.34482,7138.96047 C2285.58052,7137.34279 2279.10901,7130.87172 2280.72692,7127.63613 C2283.96273,7113.07632 2308.23075,7117.92959 2319.55564,7108.22305 C2322.79145,7106.60537 2329.26297,7098.51651 2324.40936,7100.13431 C2314.70204,7101.7521 2304.99483,7111.45864 2295.28773,7113.07632 C2287.19843,7114.69412 2283.96273,7100.13431 2290.43413,7093.66324 C2300.14122,7087.19217 2321.17355,7092.04567 2324.40936,7080.72134 C2326.02715,7071.01479 2303.37715,7083.9567 2295.28773,7080.72134 C2288.81633,7077.48563 2283.96273,7069.397 2282.34482,7062.92593 C2280.72692,7046.74833 2296.90564,7067.77921 2298.52354,7066.16152 C2301.75924,7059.69046 2298.52354,7051.60171 2303.37715,7045.13065 C2308.23075,7037.04179 2322.79145,7035.42411 2324.40936,7025.71768 C2332.49867,6946.44744 2267.78401,7037.04179 2254.84098,6959.38957 C2245.13377,6906.00359 2290.43413,6922.1812 2292.05203,6914.09245 C2293.66994,6909.23918 2279.10901,6914.09245 2274.2554,6910.85686 C2272.63761,6907.62139 2279.10901,6904.38591 2280.72692,6904.38591 C2298.52354,6901.15032 2308.23075,6906.00359 2321.17355,6904.38591 C2363.2382,6901.15032 2419.86356,6865.55975 2458.69228,6849.38225 C2473.2531,6842.91119 2489.43182,6821.88031 2503.99264,6831.58685 C2510.46415,6836.44012 2494.28543,6855.85321 2502.37473,6857.471 C2515.31775,6859.08879 2523.40694,6836.44012 2536.34997,6836.44012 C2580.03241,6836.44012 2576.79671,6912.47466 2617.24335,6922.1812 C2625.33265,6923.79899 2628.56835,6906.00359 2636.65777,6907.62139 C2681.95801,6918.94572 2657.69009,6920.5634 2702.99033,6927.03447 C2714.31534,6928.65226 2735.34755,6923.79899 2745.05476,6925.41668 C2754.76197,6928.65226 2759.61558,6938.35881 2769.3229,6938.35881 C2782.26581,6938.35881 2793.59092,6922.1812 2806.53372,6925.41668 C2817.85884,6928.65226 2819.47674,6948.06523 2829.18395,6956.15398 C2838.89116,6964.24284 2858.30558,6954.5363 2868.01268,6964.24284 C2871.24838,6967.47832 2861.54117,6972.33159 2864.77709,6973.94938 C2868.01268,6978.80265 2877.71989,6967.47832 2882.5735,6970.71391 C2923.02024,6998.21573 3028.18154,7049.98392 3081.5713,7033.80631 C3084.80689,7032.18852 3084.80689,7025.71768 3088.04259,7024.09977 C3094.5141,7022.48198 3100.98561,7024.09977 3107.45712,7024.09977 C3120.40003,7025.71768 3154.37516,7022.48198 3164.08237,7041.89506 C3164.08237,7043.51285 3162.46457,7046.74833 3160.84667,7048.36612 C3173.78969,7051.60171 3209.3826,7085.57461 3222.32563,7085.57461 C3227.17923,7085.57461 3219.09004,7074.25027 3222.32563,7071.01479 C3225.56133,7066.16152 3232.03284,7064.54373 3238.50435,7062.92593 C3285.42238,7056.45498 3254.68307,7061.30825 3274.09749,7083.9567 C3280.56878,7090.42776 3293.5118,7080.72134 3299.98331,7085.57461 C3309.69052,7090.42776 3314.54412,7101.7521 3322.63343,7106.60537 C3343.66575,7117.92959 3388.96599,7116.31191 3419.70553,7108.22305 C3429.41263,7117.92959 3447.20914,7134.1072 3447.20914,7134.1072 C3450.44495,7135.72499 3448.82705,7127.63613 3450.44495,7127.63613 C3458.53426,7129.25393 3468.24147,7132.48952 3473.09507,7138.96047 C3487.65578,7155.13796 3440.73774,7174.55105 3461.77007,7184.25759 C3471.47728,7187.49318 3481.18449,7169.69778 3484.42019,7172.93336 C3486.0381,7176.16884 3481.18449,7184.25759 3484.42019,7187.49318 C3507.07042,7208.52394 3542.66345,7200.43519 3563.69555,7216.6128 C3565.31346,7218.23059 3581.49218,7255.43885 3583.11008,7255.43885 C3604.1423,7271.61646 3625.17462,7242.49683 3647.82474,7261.90992 C3659.14986,7271.61646 3651.06044,7292.64734 3672.09277,7292.64734 C3681.79998,7294.26513 3688.27149,7284.55836 3697.9787,7286.17627 C3707.68591,7287.79406 3712.5394,7299.1184 3722.24661,7300.73597 C3727.10022,7300.73597 3727.10022,7291.02943 3731.95382,7291.02943 C3748.13255,7289.41163 3762.69336,7302.35376 3780.48999,7303.97167 C3780.48999,7303.97167 3772.40046,7266.76319 3791.81488,7269.99866 C3819.31872,7274.85193 3835.49744,7294.26513 3853.29384,7310.44251 C3854.91174,7312.06031 3859.76535,7310.44251 3863.00105,7310.44251 C3871.09047,7312.06031 3880.79768,7312.06031 3885.65128,7316.91358 C3893.74059,7323.38464 3888.88698,7337.94445 3896.97628,7342.79772 L3896.97628,7344.41552 C3888.88698,7360.5929 3885.65128,7383.24157 3935.80513,7368.68187 L3935.80513,7368.68187 Z M2526.64287,8565.82102 L2537.96776,8612.73604 L2573.5609,8612.73604 C2573.5609,8607.88277 2571.94311,8604.64718 2571.94311,8599.79391 C2570.3252,8590.08737 2567.0895,8580.38083 2570.3252,8570.67429 C2571.94311,8565.82102 2586.50392,8564.20322 2584.88602,8559.34995 C2575.17881,8536.70151 2529.87846,8564.20322 2526.64287,8565.82102 L2526.64287,8565.82102 L2526.64287,8565.82102 Z M2944.05246,8761.56941 L2968.32048,8777.74702 C2968.32048,8763.18732 2971.55629,8747.00971 2969.93839,8734.06769 C2966.70258,8721.12556 2953.75967,8753.48078 2944.05246,8761.56941 L2944.05246,8761.56941 L2944.05246,8761.56941 Z M2974.79199,8774.51154 L2978.02769,8769.65838 C2976.4099,8769.65838 2974.79199,8769.65838 2974.79199,8772.89375 L2974.79199,8774.51154 L2974.79199,8774.51154 Z M4115.3884,7925.18986 C4091.12038,8007.69523 4120.24189,7949.4561 4160.68864,7983.42899 C4172.01376,7993.13542 4089.50247,8072.40566 4083.03107,8070.78775 C4074.94165,8070.78775 4076.55956,8052.99235 4068.47037,8048.13919 C4044.20223,8033.57938 4042.58444,8059.46342 4034.49502,8035.19718 C4031.25932,8023.87284 4034.49502,8009.31303 4026.40572,8002.84196 C4019.93421,7996.37112 4010.22699,8007.69523 4003.75548,8006.07755 C3992.43059,8004.45976 3981.10548,7999.60649 3971.39827,7993.13542 C3969.78036,7991.51785 3973.01595,7988.28215 3974.63397,7986.66458 C4015.0806,7955.92716 4065.23444,7934.89629 4115.3884,7925.18986 L4115.3884,7925.18986 L4115.3884,7925.18986 Z M4285.26447,7926.80743 C4322.4754,8020.63736 4278.79296,7955.92716 4256.14272,7944.60283 C4246.43563,7941.36735 4233.49272,7949.4561 4223.78551,7942.98503 C4183.33887,7915.48332 4236.72842,7904.15898 4285.26447,7926.80743 L4285.26447,7926.80743 Z M3997.28409,8078.8765 C3987.57699,8088.58304 3973.01595,8088.58304 3973.01595,8096.6719 C3973.01595,8103.14296 3979.48757,8116.08498 3987.57699,8116.08498 C3997.28409,8116.08498 4003.75548,8116.08498 4016.69851,8104.76065 C4029.64142,8093.43631 4016.69851,8085.34756 4016.69851,8085.34756 L3998.90188,8078.8765 L3997.28409,8078.8765 L3997.28409,8078.8765 Z M3958.45524,8030.34391 C3945.51234,8033.57938 3942.27664,8041.66824 3935.80513,8049.75699 C3929.33361,8059.46342 3919.6264,8074.02323 3934.18722,8080.49429 C3942.27664,8085.34756 3966.54466,8072.40566 3971.39827,8062.69912 C3974.63397,8054.61026 3984.34106,8052.99235 3984.34106,8043.28592 C3984.34106,8035.19718 3973.01595,8028.72611 3973.01595,8028.72611 L3958.45524,8030.34391 L3958.45524,8030.34391 Z" id="es" fill="#87B024"></path>
                        <path d="M6181.40491,8303.74463 C6160.37259,8315.06896 6090.80443,8483.31542 6106.98293,8505.96409 C6113.45444,8515.67063 6145.81188,8515.67063 6136.10467,8522.14169 C6128.01526,8526.99496 6129.63316,8510.81736 6124.77956,8522.14169 C6124.77956,8525.37717 6121.54375,8528.61265 6123.16165,8533.46592 C6126.39746,8546.40805 6145.81188,8552.87911 6150.66549,8565.82102 C6152.28317,8569.05649 6145.81188,8567.43881 6142.57607,8570.67429 C6134.48677,8575.52756 6126.39746,8580.38083 6121.54375,8588.46969 C6116.69014,8596.55844 6115.07235,8606.26498 6113.45444,8614.35361 C6111.83654,8624.06015 6118.30805,8637.00228 6113.45444,8645.09103 C6110.21874,8649.9443 6105.36514,8628.91365 6074.62571,8630.53122 C6040.65037,8633.76692 6055.21129,8645.09103 6009.91105,8624.06015 C5990.49652,8615.97152 5985.64292,8580.38083 5964.6107,8567.43881 C5935.48896,8549.64341 5909.60314,8567.43881 5877.24592,8554.49668 C5872.39232,8552.87911 5867.53871,8551.26132 5862.68511,8548.02584 C5856.2136,8543.17235 5852.9779,8531.84824 5844.88848,8528.61265 C5838.41697,8523.75938 5830.32767,8528.61265 5822.23836,8525.37717 C5789.88103,8514.05283 5767.23091,8483.31542 5731.63788,8473.60899 C5717.07696,8470.37351 5700.89835,8484.93321 5686.33753,8478.46215 C5683.10172,8476.84458 5644.27299,8434.78282 5645.8909,8428.31176 C5645.8909,8421.84069 5655.59811,8418.60522 5655.59811,8413.75195 C5657.21579,8408.89879 5650.7445,8407.28088 5650.7445,8402.42772 C5650.7445,8395.95677 5653.9802,8387.86791 5658.83381,8381.39685 C5663.6873,8374.92589 5673.39451,8373.3081 5679.86602,8366.83703 C5687.95532,8360.36608 5696.04474,8336.09962 5702.51614,8344.18859 C5705.75195,8349.04175 5710.60556,8381.39685 5725.16637,8379.77916 C5780.17382,8371.69031 5725.16637,8331.24646 5794.73464,8334.48205 C5812.53126,8334.48205 5797.97022,8353.89502 5807.67766,8358.74829 C5814.14894,8361.98376 5823.85615,8353.89502 5831.94557,8357.13049 C5836.79918,8358.74829 5835.18127,8368.45483 5838.41697,8370.07262 C5848.12429,8376.54358 5861.0672,8383.01464 5872.39232,8383.01464 C5874.01,8383.01464 5914.45675,8363.60156 5914.45675,8363.60156 C5927.39977,8361.98376 5954.90338,8371.69031 5974.31791,8366.83703 C6014.76466,8358.74829 6013.14675,8342.57068 6034.17897,8331.24646 C6082.7149,8305.36242 6047.12188,8340.95289 6094.04002,8337.71752 C6126.39746,8336.09962 6103.74723,8318.30444 6116.69014,8305.36242 C6121.54375,8300.50904 6121.54375,8319.92224 6126.39746,8318.30444 C6155.51909,8311.83338 6155.51909,8285.94923 6181.40491,8303.74463 L6181.40491,8303.74463 Z M5113.61247,7706.79279 C5118.46607,7729.44124 5189.65224,7724.58797 5179.94515,7760.17866 C5178.32713,7769.8852 5150.8234,7766.64972 5154.05922,7777.97406 C5157.29491,7789.29839 5179.94515,7786.06269 5188.03434,7795.76923 C5191.27004,7799.00482 5179.94515,7800.6225 5179.94515,7805.47578 C5189.65224,7863.71502 5204.21306,7781.20942 5207.44876,7858.86187 C5209.06666,7886.36358 5179.94515,7896.07012 5171.85562,7918.71879 C5163.76643,7939.74956 5188.03434,7939.74956 5191.27004,7957.54485 C5191.27004,7964.01591 5183.18073,7970.48698 5183.18073,7978.57572 C5178.32713,8031.9617 5184.79864,8106.37844 5154.05922,8159.76431 C5152.44131,8162.99989 5154.05922,8154.91103 5150.8234,8153.29335 C5128.17328,8145.20449 5099.05177,8122.55605 5071.54793,8124.17362 C5066.69432,8124.17362 5082.87304,8130.64479 5082.87304,8135.49795 C5081.25514,8141.96902 5073.16583,8145.20449 5071.54793,8153.29335 C5061.84072,8190.50172 5087.72665,8184.03077 5042.4263,8205.06142 C4979.32943,8234.18116 5018.15839,8174.32412 4987.41885,8161.3821 C4979.32943,8158.14662 4971.24013,8171.08864 4961.53303,8171.08864 C4955.06152,8171.08864 4980.94734,8169.47085 4982.56524,8161.3821 C4982.56524,8150.05776 4966.38652,8143.58692 4963.15094,8133.88016 C4953.44373,8101.52517 4976.09373,8080.49429 4980.94734,8052.99235 C4982.56524,8041.66824 4976.09373,8031.9617 4979.32943,8020.63736 C4980.94734,8010.93082 4998.74396,8006.07755 4995.50815,7996.37112 C4993.89036,7988.28215 4976.09373,7996.37112 4971.24013,7989.90006 C4966.38652,7981.81131 4974.47583,7972.10466 4974.47583,7964.01591 C4974.47583,7962.39812 4968.00454,7962.39812 4969.62222,7960.78044 C4972.85815,7955.92716 4982.56524,7957.54485 4985.80094,7951.07389 C4992.27245,7934.89629 4968.00454,7855.62616 4958.29733,7844.30205 C4938.8828,7823.27118 4925.93989,7892.83465 4930.79349,7811.94684 C4932.4114,7800.6225 4943.7364,7792.53376 4945.35431,7781.20942 C4946.97221,7774.73836 4938.8828,7768.26752 4943.7364,7763.41425 C4945.35431,7761.79645 4956.67942,7795.76923 4985.80094,7795.76923 C5010.06897,7797.38703 5099.05177,7724.58797 5113.61247,7706.79279 L5113.61247,7706.79279 Z M5780.17382,6574.36373 C5776.93812,6606.71895 5736.49149,6600.24788 5733.25556,6626.13192 C5730.01998,6645.545 5767.23091,6642.30941 5775.32022,6648.78048 C5786.64533,6658.4869 5755.9058,6671.42915 5751.05219,6685.98885 C5744.58068,6707.01972 5770.46661,6684.37105 5773.70231,6692.45991 C5776.93812,6700.54866 5759.1415,6721.57954 5770.46661,6728.0506 C5786.64533,6737.75714 5851.35999,6776.58319 5794.73464,6773.34772 C5797.97022,6765.25886 5797.97022,6758.78779 5791.49894,6750.69905 C5760.7594,6721.57954 5762.37731,6734.52144 5744.58068,6757.17011 C5746.19859,6755.55232 5746.19859,6753.93452 5746.19859,6753.93452 C5746.19859,6737.75714 5715.45916,6734.52144 5700.89835,6740.9925 C5692.80893,6745.84578 5700.89835,6763.64106 5694.42684,6770.11213 C5687.95532,6776.58319 5676.63021,6771.72992 5666.923,6774.9654 C5644.27299,6784.67194 5623.24067,6810.55598 5597.35473,6815.40925 C5589.26554,6817.02704 5581.17613,6808.93841 5574.70473,6813.79168 C5568.23322,6815.40925 5574.70473,6825.11579 5571.46892,6831.58685 C5569.85112,6836.44012 5564.99752,6842.91119 5561.7617,6847.76446 C5563.37961,6846.14666 5563.37961,6844.52887 5564.99752,6844.52887 C5573.08682,6844.52887 5566.61531,6862.32427 5573.08682,6865.55975 C5576.32252,6867.17754 5577.94043,6855.85321 5581.17613,6859.08879 C5584.41194,6865.55975 5590.88322,6878.50188 5584.41194,6883.35503 C5581.17613,6884.97272 5579.55833,6888.20831 5581.17613,6891.44378 C5582.79403,6893.06158 5586.02962,6889.82621 5589.26554,6889.82621 C5598.97264,6897.91485 5615.15136,6902.76812 5616.76915,6914.09245 C5626.47636,6959.38957 5587.64764,6941.59417 5576.32252,6969.09611 C5573.08682,6977.18486 5594.11915,7064.54373 5598.97264,7074.25027 C5608.67985,7090.42776 5721.93067,7171.31557 5744.58068,7184.25759 C5767.23091,7197.19972 5773.70231,7189.11086 5794.73464,7206.90626 C5817.38476,7226.31934 5848.12429,7354.12206 5865.92081,7386.47705 C5883.71743,7420.45005 5920.92826,7451.18725 5950.04977,7473.83592 C5959.75698,7480.30698 5974.31791,7481.92466 5982.40722,7490.01352 C5987.26082,7493.249 5982.40722,7502.95543 5985.64292,7506.19113 C6029.32536,7551.48825 6111.83654,7536.92844 6163.60829,7528.83958 C6174.9334,7527.22178 6199.20143,7509.42649 6213.76224,7525.6041 C6254.20888,7570.90133 6132.86886,7587.07882 6194.34782,7629.14046 C6252.59108,7667.96663 6333.48446,7664.73104 6393.34552,7695.46846 C6414.37784,7706.79279 6422.46715,7724.58797 6446.73506,7732.67683 C6466.14948,7740.76558 6519.53914,7748.85444 6535.71786,7761.79645 C6542.18926,7766.64972 6535.71786,7777.97406 6540.57146,7782.82733 C6559.98588,7810.32905 6611.75764,7805.47578 6627.93624,7862.09723 C6634.40775,7883.12811 6619.84694,7876.65704 6614.99333,7891.21685 C6611.75764,7899.30571 6616.61124,7931.6607 6610.13973,7934.89629 C6603.66822,7939.74956 6592.3431,7934.89629 6582.63589,7930.04313 C6532.48205,7910.63005 6553.51437,7881.51031 6527.62844,7847.53753 C6513.06763,7828.12445 6466.14948,7847.53753 6441.88146,7839.44878 C6409.52424,7828.12445 6391.72761,7790.91596 6360.98808,7823.27118 C6357.75249,7828.12445 6317.30574,7909.01225 6317.30574,7912.24773 C6317.30574,7917.10089 6325.39505,7921.95416 6323.77714,7928.42522 C6317.30574,7959.16264 6284.94841,7957.54485 6312.45214,7993.13542 C6328.63086,8012.5485 6333.48446,7994.75333 6351.28098,7999.60649 C6370.69529,8006.07755 6383.63831,8025.49064 6401.43482,8033.57938 C6407.90633,8036.81497 6417.61354,8033.57938 6420.84924,8040.05045 C6424.08506,8044.90372 6414.37784,8051.37478 6414.37784,8057.84562 C6415.99564,8103.14296 6437.02785,8061.08132 6433.79227,8119.32046 C6432.17425,8153.29335 6367.45959,8140.35122 6338.33807,8174.32412 C6317.30574,8198.59058 6344.80947,8222.85682 6338.33807,8251.97645 C6333.48446,8276.24269 6317.30574,8269.77185 6301.12702,8282.71375 C6262.29829,8316.68665 6289.80191,8394.33898 6208.90864,8371.69031 C6192.72992,8366.83703 6174.9334,8324.77551 6184.64061,8306.98011 C6191.11212,8297.27356 6207.29084,8298.89136 6215.38015,8290.8025 C6220.23375,8284.33155 6220.23375,8274.62512 6221.85166,8266.53626 C6223.46934,8258.44751 6229.94085,8251.97645 6228.32295,8243.8877 C6226.70526,8234.18116 6210.52654,8229.32789 6212.14445,8219.62123 C6218.61573,8190.50172 6257.44469,8206.67922 6268.76969,8190.50172 C6296.27342,8158.14662 6263.91609,8153.29335 6250.97318,8135.49795 C6238.03016,8116.08498 6244.50167,8088.58304 6234.79446,8067.55239 C6229.94085,8054.61026 6223.46934,8043.28592 6215.38015,8033.57938 C6213.76224,8030.34391 6207.29084,8030.34391 6204.05503,8027.10843 C6174.9334,7983.42899 6205.67294,8009.31303 6186.25852,7960.78044 C6161.99038,7899.30571 6147.42956,7930.04313 6098.89363,7933.27849 C6097.27572,7933.27849 6100.51153,7928.42522 6098.89363,7925.18986 C6092.42212,7918.71879 6084.33292,7910.63005 6074.62571,7905.77678 C6064.9185,7900.92351 6045.50408,7905.77678 6039.03257,7894.45244 C6032.56106,7883.12811 6051.97548,7871.80377 6050.35769,7858.86187 C6048.73978,7845.91962 6039.03257,7834.59551 6032.56106,7824.88897 C5993.73233,7771.50299 5987.26082,7845.91962 5941.96058,7829.74224 C5937.10698,7828.12445 5972.70001,7802.2403 5956.52129,7790.91596 C5898.27814,7748.85444 5954.90338,7792.53376 5891.80663,7784.44512 C5886.95302,7782.82733 5891.80663,7774.73836 5890.18872,7769.8852 C5883.71743,7750.47212 5849.74209,7698.70405 5833.56336,7692.23298 C5789.88103,7676.05538 5823.85615,7706.79279 5809.29534,7703.55732 C5794.73464,7700.32173 5781.79173,7682.52644 5765.61301,7684.14412 C5751.05219,7687.37971 5739.72707,7706.79279 5726.78428,7703.55732 C5712.22335,7700.32173 5713.84126,7679.29085 5704.13405,7669.58431 C5692.80893,7659.87777 5663.6873,7663.11336 5653.9802,7656.64229 L5629.71218,7622.66951 C5618.38706,7612.96286 5600.59066,7611.34518 5590.88322,7600.02084 C5571.46892,7570.90133 5594.11915,7575.7546 5571.46892,7557.9592 C5561.7617,7549.87045 5550.43659,7543.39939 5539.11159,7536.92844 C5535.87577,7535.31064 5529.40449,7540.16391 5526.16856,7538.54612 C5508.37216,7523.98631 5508.37216,7496.48459 5490.57553,7481.92466 C5459.836,7456.04063 5440.42169,7475.45371 5408.06436,7462.51158 C5403.21076,7460.8939 5416.15366,7456.04063 5419.38936,7452.80504 C5429.09657,7439.86314 5409.68215,7418.83226 5404.82855,7413.97899 C5401.59285,7410.7434 5395.12134,7413.97899 5391.88564,7410.7434 C5387.03215,7404.27245 5387.03215,7394.56591 5380.56064,7389.71264 C5372.47133,7383.24157 5356.29261,7388.09484 5349.8211,7378.3883 C5344.96749,7371.91723 5359.52831,7358.97533 5351.43901,7354.12206 C5341.7318,7346.0332 5325.55307,7355.73963 5312.61005,7350.88647 C5304.52086,7347.65099 5317.46388,7333.09118 5317.46388,7323.38464 C5322.31749,7291.02943 5317.46388,7279.70521 5299.66726,7252.20338 C5265.69202,7203.67067 5289.96005,7159.99123 5249.5133,7122.78286 C5246.27771,7117.92959 5239.8062,7116.31191 5234.9526,7114.69412 C5233.33469,7114.69412 5231.71667,7119.54739 5230.09899,7117.92959 C5222.00957,7114.69412 5217.15597,7104.98758 5209.06666,7104.98758 C5204.21306,7104.98758 5213.92027,7119.54739 5209.06666,7117.92959 C5196.12376,7114.69412 5186.41643,7104.98758 5175.09154,7096.89894 C5170.23794,7093.66324 5129.79119,7051.60171 5116.84817,7051.60171 C5113.61247,7051.60171 5118.46607,7059.69046 5115.23049,7061.30825 C5111.99456,7062.92593 5107.14096,7061.30825 5105.52305,7058.07266 C5097.43386,7048.36612 5063.45862,7032.18852 5047.2799,7032.18852 C5040.80839,7032.18852 4998.74396,7056.45498 4995.50815,7062.92593 C4992.27245,7069.397 4997.12606,7079.10354 4992.27245,7083.9567 C4987.41885,7090.42776 4974.47583,7088.80997 4969.62222,7093.66324 C4958.29733,7104.98758 4950.20791,7130.87172 4937.265,7142.19606 C4916.23268,7163.22671 4879.02174,7161.60914 4854.75372,7164.8445 C4846.66441,7135.72499 4901.67186,7098.51651 4877.40395,7080.72134 C4869.31453,7075.86806 4857.98942,7082.3389 4848.28221,7083.9567 C4838.575,7083.9567 4827.24988,7088.80997 4817.54267,7085.57461 C4799.74627,7080.72134 4757.68162,7049.98392 4759.29952,7027.33525 C4759.29952,7024.09977 4767.38883,7024.09977 4767.38883,7020.86441 C4765.77103,7016.01114 4749.59242,7011.15787 4754.44603,7001.45121 C4760.91754,6994.98026 4769.00673,6990.12699 4773.86034,6982.03813 C4775.47824,6980.42045 4770.62464,6977.18486 4772.24243,6973.94938 C4773.86034,6969.09611 4788.42115,6977.18486 4790.03906,6972.33159 C4790.03906,6959.38957 4788.42115,6946.44744 4783.56755,6936.74101 C4775.47824,6923.79899 4722.08859,6902.76812 4725.3244,6876.88397 C4725.3244,6868.79534 4739.88521,6868.79534 4747.97452,6867.17754 C4752.82801,6867.17754 4756.06394,6876.88397 4760.91754,6875.26617 C4769.00673,6873.64861 4820.77859,6831.58685 4812.68918,6817.02704 C4807.83557,6807.32061 4791.65696,6805.7027 4786.80325,6794.37837 C4781.94964,6787.90753 4788.42115,6776.58319 4785.18545,6770.11213 C4762.53522,6731.28608 4720.47079,6750.69905 4794.89266,6707.01972 C4811.07138,6736.13935 4854.75372,6703.78413 4875.78604,6698.93086 C4890.34686,6695.69539 4901.67186,6715.10847 4916.23268,6715.10847 C4917.85058,6715.10847 4963.15094,6668.19345 4963.15094,6660.10481 C4964.76862,6652.01606 4950.20791,6648.78048 4951.82582,6642.30941 C4955.06152,6632.60287 4968.00454,6629.36739 4976.09373,6622.89633 C4984.18304,6616.42538 4990.65455,6609.95431 4998.74396,6603.48325 C5001.97966,6601.86545 5005.21536,6598.62998 5006.83327,6600.24788 C5010.06897,6609.95431 5008.45118,6619.66085 5008.45118,6629.36739 C5008.45118,6634.22066 5003.59757,6640.69173 5005.21536,6647.16279 C5016.54048,6668.19345 5042.4263,6673.04672 5060.22281,6679.51778 C5061.84072,6679.51778 5065.07642,6682.75326 5065.07642,6685.98885 C5063.45862,6692.45991 5052.13351,6697.31318 5053.75141,6703.78413 C5055.36921,6710.2552 5066.69432,6707.01972 5071.54793,6711.87299 C5078.01944,6719.96174 5081.25514,6747.46357 5090.96235,6739.37471 C5118.46607,6718.34395 5086.10874,6724.81501 5086.10874,6708.6374 C5086.10874,6673.04672 5124.93758,6663.34017 5131.40898,6634.22066 C5131.40898,6630.98519 5113.61247,6587.30564 5141.11619,6592.15891 C5162.14852,6595.39461 5136.26259,6627.7496 5178.32713,6637.45614 C5204.21306,6645.545 5183.18073,6613.18979 5226.86318,6621.27865 C5239.8062,6622.89633 5233.33469,6648.78048 5244.65981,6655.25154 C5251.13132,6658.4869 5264.07411,6652.01606 5262.45621,6645.545 C5259.22051,6640.69173 5252.749,6637.45614 5251.13132,6630.98519 C5251.13132,6624.51412 5260.83841,6619.66085 5259.22051,6613.18979 C5255.98481,6605.10104 5226.86318,6587.30564 5249.5133,6571.12826 C5278.63493,6550.09738 5267.30981,6597.01218 5301.28516,6588.92355 C5320.69947,6582.45248 5289.96005,6559.80392 5289.96005,6556.56833 C5293.19574,6550.09738 5298.04935,6545.24411 5299.66726,6538.77305 C5302.90284,6532.30198 5301.28516,6524.21335 5302.90284,6517.74228 L5302.90284,6517.74228 C5328.78877,6530.68441 5306.13877,6514.50681 5332.02458,6517.74228 C5344.96749,6519.36008 5357.91052,6553.33286 5383.79622,6538.77305 L5404.82855,6495.09372 C5417.77157,6485.38718 5474.39681,6491.85813 5488.95774,6490.24045 C5513.22577,6488.62266 5532.64007,6467.59178 5556.9081,6467.59178 C5563.37961,6467.59178 5545.58298,6475.68053 5543.96519,6482.15159 C5535.87577,6516.12437 5556.9081,6493.47593 5569.85112,6512.88901 C5573.08682,6517.74228 5564.99752,6524.21335 5568.23322,6530.68441 C5569.85112,6533.91978 5574.70473,6527.44871 5577.94043,6530.68441 C5608.67985,6553.33286 5616.76915,6556.56833 5658.83381,6563.0394 C5699.28044,6567.89267 5739.72707,6571.12826 5780.17382,6574.36373 L5780.17382,6574.36373 Z M5603.82624,7137.34279 C5607.06194,7132.48952 5607.06194,7126.01845 5611.91555,7122.78286 C5624.85857,7109.84085 5621.62276,7159.99123 5603.82624,7137.34279 L5603.82624,7137.34279 Z" id="it" fill="#87B024"></path>
                        <path d="M3935.80513,7368.68187 C3863.00105,7389.71264 3903.4478,7329.85559 3906.68361,7329.85559 C3948.74803,7326.62012 3951.98385,7347.65099 3935.80513,7368.68187 L3935.80513,7368.68187 Z" id="ad" fill="#FFFFFF"></path>
                        <path d="M4278.79296,5655.47847 C4291.73586,5655.47847 4299.82528,5632.8298 4309.53249,5637.68307 C4330.56482,5645.77193 4320.85761,5682.98019 4327.32889,5695.92243 C4337.0361,5718.57088 4372.62925,5692.68673 4377.48285,5718.57088 C4379.10076,5725.04194 4374.24715,5733.13069 4375.86506,5739.60175 C4379.10076,5752.54366 4445.43332,5736.36628 4448.66902,5763.86799 C4448.66902,5773.57453 4435.72611,5781.66339 4435.72611,5791.36993 C4434.10821,5797.841 4447.05123,5797.841 4447.05123,5802.69427 C4447.05123,5810.78302 4438.96181,5815.63629 4434.10821,5823.72492 C4429.2546,5833.43146 4482.64437,5846.37359 4505.29438,5825.34272 C4516.61949,5815.63629 4526.3267,5786.51666 4537.65182,5796.22321 C4540.88752,5799.45868 4532.79821,5804.31195 4531.18031,5809.16522 C4529.5624,5815.63629 4523.091,5822.10735 4523.091,5830.19599 C4523.091,5836.66705 4532.79821,5838.28496 4534.41589,5844.7558 C4534.41589,5852.84466 4521.4731,5862.5512 4527.94461,5869.02215 C4534.41589,5878.72881 4550.59462,5873.87542 4561.91973,5878.72881 C4568.39124,5883.58208 4570.00904,5893.28862 4576.48055,5898.14189 C4578.09845,5899.75946 4582.95206,5893.28862 4586.18776,5894.90619 C4589.42357,5896.52409 4591.04136,5899.75946 4592.65927,5902.99516 C4592.65927,5904.61273 4584.56985,5907.84832 4586.18776,5909.466 C4591.04136,5912.70159 4599.13078,5909.466 4602.36648,5914.31927 C4607.22008,5920.79033 4600.74857,5935.35015 4608.83799,5938.58573 C4618.5452,5943.43901 4629.8702,5932.11467 4641.19521,5933.73246 C4646.04881,5933.73246 4650.90242,5935.35015 4655.75602,5936.96794 C4663.84544,5940.20342 4670.31695,5943.43901 4676.78835,5946.67448 C4678.40625,5948.29228 4676.78835,5954.76312 4678.40625,5953.14555 C4688.11335,5953.14555 4696.20266,5945.05669 4704.29207,5945.05669 C4713.99928,5945.05669 4723.70649,5949.90996 4731.7958,5953.14555 C4735.03161,5957.99882 4744.73882,5953.14555 4749.59242,5957.99882 C4762.53522,5966.08745 4770.62464,6003.29593 4786.80325,6019.47354 C4806.21778,6040.50442 4773.86034,5974.17642 4822.39628,6017.85575 C4825.6322,6021.09122 4819.16069,6027.56229 4820.77859,6032.41556 C4824.01418,6037.26872 4875.78604,6016.23795 4883.87535,6022.70902 C4888.72884,6027.56229 4885.49325,6037.26872 4890.34686,6042.12199 C4896.81837,6046.97526 4993.89036,6058.29959 4987.41885,6069.62393 C4969.62222,6100.36135 4937.265,6119.77432 4924.32198,6145.65846 C4919.46838,6156.98269 4917.85058,6192.57326 4916.23268,6202.27992 L4893.58245,6239.48829 C4890.34686,6247.57715 4887.11116,6255.66578 4888.72884,6263.75453 C4888.72884,6268.6078 4895.20035,6268.6078 4895.20035,6271.84339 C4893.58245,6294.49195 4877.40395,6315.52271 4879.02174,6338.17138 C4879.02174,6359.20215 4879.02174,6365.67321 4880.63965,6365.67321 C4825.6322,6422.29466 4845.04651,6360.81994 4799.74627,6373.76207 C4796.51057,6375.37975 4802.98197,6381.85082 4802.98197,6385.08618 C4794.89266,6391.55725 4781.94964,6398.02831 4785.18545,6406.11706 C4786.80325,6414.20592 4811.07138,6398.02831 4811.07138,6406.11706 C4809.45348,6428.76573 4801.36417,6410.97033 4793.27476,6417.44139 C4778.71394,6428.76573 4765.77103,6461.12072 4754.44603,6470.82726 C4744.73882,6482.15159 4722.08859,6477.29832 4715.61719,6490.24045 C4710.76358,6501.56468 4720.47079,6516.12437 4715.61719,6525.83114 C4709.14568,6543.62632 4680.02416,6543.62632 4668.69904,6559.80392 C4649.28462,6584.07028 4670.31695,6606.71895 4662.22753,6632.60287 C4660.60963,6637.45614 4644.43102,6629.36739 4644.43102,6650.39827 C4644.43102,6653.63375 4636.3416,6656.86934 4637.95951,6656.86934 C4657.37393,6661.72261 4680.02416,6653.63375 4689.73137,6634.22066 C4691.34905,6630.98519 4683.25986,6627.7496 4681.64184,6624.51412 C4681.64184,6619.66085 4680.02416,6616.42538 4683.25986,6613.18979 C4697.82056,6590.54134 4743.12091,6590.54134 4764.15313,6600.24788 C4770.62464,6601.86545 4757.68162,6611.57211 4759.29952,6616.42538 C4759.29952,6624.51412 4769.00673,6627.7496 4770.62464,6635.83846 C4772.24243,6645.545 4749.59242,6643.92721 4759.29952,6660.10481 C4762.53522,6663.34017 4772.24243,6658.4869 4773.86034,6663.34017 C4777.09604,6668.19345 4769.00673,6676.28231 4770.62464,6681.13558 C4772.24243,6684.37105 4778.71394,6674.66451 4780.33185,6677.89999 C4788.42115,6685.98885 4788.42115,6697.31318 4794.89266,6707.01972 C4720.47079,6750.69905 4762.53522,6731.28608 4785.18545,6770.11213 C4788.42115,6776.58319 4781.94964,6787.90753 4786.80325,6794.37837 C4791.65696,6805.7027 4807.83557,6807.32061 4812.68918,6817.02704 C4820.77859,6831.58685 4769.00673,6873.64861 4760.91754,6875.26617 C4756.06394,6876.88397 4752.82801,6867.17754 4747.97452,6867.17754 C4739.88521,6868.79534 4725.3244,6868.79534 4725.3244,6876.88397 C4722.08859,6902.76812 4775.47824,6923.79899 4783.56755,6936.74101 C4788.42115,6946.44744 4790.03906,6959.38957 4790.03906,6972.33159 C4788.42115,6977.18486 4773.86034,6969.09611 4772.24243,6973.94938 C4770.62464,6977.18486 4775.47824,6980.42045 4773.86034,6982.03813 C4769.00673,6990.12699 4760.91754,6994.98026 4754.44603,7001.45121 C4749.59242,7011.15787 4765.77103,7016.01114 4767.38883,7020.86441 C4767.38883,7024.09977 4759.29952,7024.09977 4759.29952,7027.33525 C4757.68162,7049.98392 4799.74627,7080.72134 4817.54267,7085.57461 C4827.24988,7088.80997 4838.575,7083.9567 4848.28221,7083.9567 C4857.98942,7082.3389 4869.31453,7075.86806 4877.40395,7080.72134 C4901.67186,7098.51651 4846.66441,7135.72499 4854.75372,7164.8445 C4853.13581,7164.8445 4825.6322,7174.55105 4822.39628,7177.78664 C4811.07138,7179.40432 4799.74627,7181.02211 4793.27476,7187.49318 C4788.42115,7192.34645 4796.51057,7203.67067 4790.03906,7208.52394 C4783.56755,7213.37732 4772.24243,7206.90626 4764.15313,7211.75953 C4757.68162,7216.6128 4759.29952,7229.5547 4751.21033,7236.02577 C4744.73882,7239.26125 4736.6494,7231.1725 4730.178,7234.40798 C4725.3244,7236.02577 4728.5601,7244.11452 4723.70649,7248.96779 C4718.85289,7255.43885 4705.90987,7257.05665 4702.67417,7265.14539 C4701.05626,7271.61646 4715.61719,7281.323 4709.14568,7286.17627 C4701.05626,7294.26513 4684.87777,7286.17627 4673.55265,7287.79406 C4658.99183,7291.02943 4649.28462,7305.58924 4636.3416,7310.44251 C4621.78079,7315.29578 4633.1059,7292.64734 4600.74857,7291.02943 C4579.71625,7289.41163 4602.36648,7299.1184 4599.13078,7302.35376 C4595.89497,7305.58924 4589.42357,7305.58924 4584.56985,7303.97167 C4579.71625,7303.97167 4574.86264,7303.97167 4573.24485,7300.73597 C4573.24485,7297.50061 4584.56985,7289.41163 4561.91973,7278.08752 C4557.06613,7276.46973 4552.21252,7278.08752 4545.74101,7278.08752 C4534.41589,7274.85193 4521.4731,7276.46973 4513.38379,7268.38098 C4505.29438,7260.29212 4513.38379,7244.11452 4506.91228,7236.02577 C4503.67647,7231.1725 4497.20507,7242.49683 4490.73356,7242.49683 C4481.02635,7242.49683 4461.61204,7245.73231 4463.22972,7236.02577 C4464.84774,7223.08387 4493.96926,7227.93714 4495.58717,7214.99501 C4495.58717,7202.05299 4477.79076,7192.34645 4466.46565,7193.96413 C4456.75844,7195.58192 4474.55484,7213.37732 4469.70123,7219.84816 C4461.61204,7227.93714 4448.66902,7232.79041 4437.34402,7231.1725 C4411.4582,7229.5547 4419.54739,7184.25759 4414.69379,7190.72865 C4392.04378,7216.6128 4442.19762,7227.93714 4427.63681,7234.40798 C4375.86506,7255.43885 4398.51506,7221.46607 4396.89738,7214.99501 C4395.27948,7208.52394 4338.65401,7202.05299 4333.8004,7198.8174 C4320.85761,7192.34645 4304.67889,7171.31557 4288.50017,7181.02211 C4270.70376,7190.72865 4244.81783,7223.08387 4227.02121,7232.79041 C4210.84248,7240.87904 4178.48527,7234.40798 4159.07085,7261.90992 C4155.83503,7265.14539 4163.92445,7271.61646 4163.92445,7276.46973 C4160.68864,7292.64734 4139.65631,7302.35376 4138.03852,7320.14905 C4138.03852,7325.00232 4149.36364,7323.38464 4150.98143,7328.23791 C4159.07085,7357.35754 4138.03852,7349.26879 4149.36364,7381.62378 C4152.59934,7391.33032 4162.30655,7399.41918 4172.01376,7407.50792 L4165.54225,7407.50792 C4139.65631,7401.03686 4110.5348,7386.47705 4086.26677,7402.65465 C4081.41317,7405.89013 4087.88468,7418.83226 4081.41317,7420.45005 C4065.23444,7425.30332 4037.73083,7392.94811 4021.55211,7392.94811 C4006.9913,7392.94811 3995.66618,7401.03686 3982.72338,7402.65465 C3973.01595,7404.27245 3971.39827,7386.47705 3968.16245,7383.24157 C3960.07315,7376.7705 3947.13024,7373.53503 3935.80513,7368.68187 C3951.98385,7347.65099 3948.74803,7326.62012 3906.68361,7329.85559 C3905.0657,7329.85559 3900.2121,7336.32666 3896.97628,7344.41552 C3888.88698,7337.94445 3893.74059,7323.38464 3885.65128,7316.91358 C3880.79768,7312.06031 3871.09047,7312.06031 3863.00105,7310.44251 C3859.76535,7310.44251 3854.91174,7312.06031 3853.29384,7310.44251 C3835.49744,7294.26513 3819.31872,7274.85193 3791.81488,7269.99866 C3772.40046,7266.76319 3780.48999,7303.97167 3780.48999,7303.97167 C3762.69336,7302.35376 3748.13255,7289.41163 3731.95382,7291.02943 C3727.10022,7291.02943 3727.10022,7300.73597 3722.24661,7300.73597 C3712.5394,7299.1184 3707.68591,7287.79406 3697.9787,7286.17627 C3688.27149,7284.55836 3681.79998,7294.26513 3672.09277,7292.64734 C3651.06044,7292.64734 3659.14986,7271.61646 3647.82474,7261.90992 C3625.17462,7242.49683 3604.1423,7271.61646 3583.11008,7255.43885 C3581.49218,7255.43885 3565.31346,7218.23059 3563.69555,7216.6128 C3542.66345,7200.43519 3507.07042,7208.52394 3484.42019,7187.49318 C3481.18449,7184.25759 3486.0381,7176.16884 3484.42019,7172.93336 C3481.18449,7169.69778 3471.47728,7187.49318 3461.77007,7184.25759 C3440.73774,7174.55105 3487.65578,7155.13796 3473.09507,7138.96047 C3468.24147,7132.48952 3458.53426,7129.25393 3450.44495,7127.63613 C3448.82705,7127.63613 3450.44495,7135.72499 3447.20914,7134.1072 C3447.20914,7134.1072 3429.41263,7117.92959 3419.70553,7108.22305 C3429.41263,7106.60537 3435.88414,7104.98758 3442.35554,7101.7521 C3489.27379,7079.10354 3508.6881,6923.79899 3526.48473,6875.26617 C3529.72043,6867.17754 3532.95613,6855.85321 3541.04554,6852.61773 C3547.51706,6849.38225 3562.07787,6863.94206 3565.31346,6855.85321 C3570.16706,6847.76446 3558.84195,6834.82233 3549.13485,6833.20465 C3541.04554,6831.58685 3539.42764,6854.23552 3531.33833,6850.99993 C3515.15961,6846.14666 3539.42764,6820.26252 3542.66345,6804.08491 C3549.13485,6778.20099 3566.93148,6682.75326 3584.72788,6669.81124 C3591.19939,6666.57588 3613.84951,6702.16645 3620.32102,6718.34395 C3642.97125,6766.87665 3612.23172,6721.57954 3628.41044,6773.34772 C3631.64614,6783.05426 3641.35323,6791.14301 3644.58893,6800.84955 C3646.20684,6805.7027 3639.73533,6820.26252 3644.58893,6818.64483 C3652.67835,6817.02704 3657.53195,6805.7027 3655.91405,6799.23164 C3652.67835,6789.52521 3641.35323,6786.28973 3634.88172,6778.20099 C3621.93893,6757.17011 3639.73533,6718.34395 3626.79253,6694.07759 C3620.32102,6681.13558 3608.9959,6669.81124 3599.28869,6658.4869 C3592.81729,6650.39827 3584.72788,6642.30941 3575.02067,6635.83846 C3584.72788,6639.07393 3596.05299,6642.30941 3605.7602,6637.45614 C3617.08532,6630.98519 3581.49218,6614.80758 3584.72788,6601.86545 C3587.96369,6588.92355 3602.52451,6582.45248 3604.1423,6569.51046 C3605.7602,6559.80392 3594.43509,6551.71506 3594.43509,6542.00852 C3594.43509,6530.68441 3604.1423,6519.36008 3604.1423,6508.03574 C3604.1423,6504.80026 3596.05299,6504.80026 3591.19939,6506.41795 C3587.96369,6508.03574 3591.19939,6517.74228 3587.96369,6516.12437 C3579.87427,6512.88901 3578.25659,6499.94699 3571.78508,6495.09372 C3566.93148,6493.47593 3560.45997,6499.94699 3555.60636,6496.7114 C3550.75276,6493.47593 3555.60636,6482.15159 3550.75276,6478.91612 C3521.63112,6451.41417 3537.80985,6511.27122 3510.30601,6457.88524 C3508.6881,6453.03208 3507.07042,6417.44139 3500.5988,6409.35265 C3498.98089,6407.73485 3494.12729,6409.35265 3492.50938,6407.73485 C3486.0381,6398.02831 3477.94868,6386.70398 3473.09507,6375.37975 C3466.62368,6359.20215 3498.98089,6343.02465 3502.21682,6336.55359 C3508.6881,6321.99378 3469.85937,6312.28735 3469.85937,6310.66955 C3466.62368,6299.34522 3466.62368,6292.87426 3468.24147,6288.02099 C3400.29111,6281.54993 3461.77007,6265.37232 3463.38786,6229.78175 C3465.00577,6208.75087 3397.0553,6226.54627 3395.4375,6218.45741 C3392.20169,6205.51539 3411.61611,6200.66212 3421.32344,6194.19106 C3422.94112,6192.57326 3413.23402,6197.42653 3411.61611,6195.80885 C3409.99832,6194.19106 3411.61611,6189.33779 3409.99832,6187.71999 C3405.14471,6187.71999 3403.52681,6192.57326 3398.6732,6194.19106 C3385.73029,6194.19106 3372.78727,6184.48452 3361.46216,6189.33779 C3359.84448,6190.95558 3358.22646,6192.57326 3358.22646,6194.19106 C3361.46216,6171.54261 3377.64088,6150.51173 3343.66575,6147.27615 C3325.86913,6145.65846 3330.72273,6168.30702 3317.77982,6160.21828 C3308.07261,6153.74721 3295.12982,6132.71633 3285.42238,6127.86306 C3278.9511,6126.24538 3270.86168,6132.71633 3266.00807,6127.86306 C3244.97575,6111.68546 3270.86168,6092.27249 3230.41493,6095.50808 C3227.17923,6097.12576 3233.65074,6105.21462 3230.41493,6106.83219 C3219.09004,6111.68546 3202.91132,6121.39211 3193.20411,6113.30325 C3183.4969,6106.83219 3193.20411,6089.03701 3189.9683,6077.71268 C3185.11469,6058.29959 3164.08237,6063.15286 3151.13946,6055.06412 C3149.52155,6053.44632 3154.37516,6048.59305 3157.61097,6048.59305 C3173.78969,6045.35769 3189.9683,6046.97526 3206.14702,6046.97526 C3209.3826,6046.97526 3217.47213,6053.44632 3217.47213,6050.21085 C3217.47213,6046.97526 3202.91132,6024.32681 3193.20411,6008.14921 C3202.91132,6013.00248 3212.61853,6009.767 3222.32563,6011.38468 C3228.79714,6011.38468 3243.35795,6017.85575 3238.50435,6014.62027 C3227.17923,6008.14921 3207.76492,6011.38468 3202.91132,6000.06046 C3199.67551,5990.3538 3225.56133,5993.58939 3227.17923,5983.88285 C3232.03284,5964.46988 3130.10724,6038.88662 3164.08237,5951.52775 C3165.70027,5951.52775 3219.09004,5930.49688 3233.65074,5930.49688 C3251.44726,5930.49688 3211.00062,5951.52775 3249.82935,5940.20342 C3261.15447,5938.58573 3272.47958,5925.6436 3283.8047,5928.87919 C3293.5118,5932.11467 3288.65831,5951.52775 3298.3654,5954.76312 C3304.83691,5954.76312 3299.98331,5935.35015 3306.45471,5933.73246 C3317.77982,5933.73246 3325.86913,5954.76312 3337.19424,5951.52775 C3346.90145,5948.29228 3340.43006,5927.2614 3350.13727,5920.79033 C3353.37296,5917.55486 3359.84448,5927.2614 3364.69797,5927.2614 C3374.40518,5927.2614 3385.73029,5917.55486 3393.8196,5922.40813 C3401.9089,5927.2614 3395.4375,5943.43901 3403.52681,5948.29228 C3408.38041,5951.52775 3408.38041,5940.20342 3413.23402,5936.96794 C3421.32344,5930.49688 3447.20914,6000.06046 3453.68065,6013.00248 C3455.29856,6014.62027 3455.29856,6006.53141 3458.53426,6006.53141 C3468.24147,6000.06046 3477.94868,5998.44266 3489.27379,5993.58939 C3497.36321,5988.73612 3503.8345,5975.79399 3511.92391,5979.02958 C3526.48473,5985.50053 3513.54171,6042.12199 3552.37066,6025.94438 C3563.69555,6021.09122 3557.22427,6000.06046 3565.31346,5988.73612 C3573.40276,5977.41179 3575.02067,6011.38468 3584.72788,6013.00248 C3594.43509,6014.62027 3602.52451,6009.767 3612.23172,6011.38468 C3621.93893,6011.38468 3641.35323,6025.94438 3644.58893,6016.23795 C3647.82474,5998.44266 3610.61381,5985.50053 3615.46741,5967.70536 C3618.70323,5956.38102 3621.93893,5945.05669 3626.79253,5933.73246 C3623.55683,5933.73246 3620.32102,5932.11467 3621.93893,5925.6436 C3625.17462,5914.31927 3634.88172,5901.37725 3634.88172,5888.43535 C3634.88172,5885.19976 3625.17462,5890.05292 3623.55683,5886.81755 C3620.32102,5878.72881 3623.55683,5865.78668 3618.70323,5857.69793 C3617.08532,5852.84466 3607.37811,5852.84466 3604.1423,5847.99139 C3600.9066,5838.28496 3599.28869,5825.34272 3600.9066,5815.63629 C3600.9066,5810.78302 3608.9959,5809.16522 3608.9959,5805.92975 C3608.9959,5794.60541 3602.52451,5783.28107 3600.9066,5771.95685 C3600.9066,5768.72126 3604.1423,5778.4278 3605.7602,5780.0456 C3618.70323,5786.51666 3630.02812,5792.98762 3642.97125,5796.22321 C3646.20684,5797.841 3651.06044,5794.60541 3654.29614,5794.60541 C3667.23916,5794.60541 3680.18207,5788.13435 3691.50719,5794.60541 C3697.9787,5796.22321 3694.74278,5805.92975 3691.50719,5812.40081 C3689.88928,5815.63629 3685.03568,5814.01849 3681.79998,5817.25408 C3676.94637,5822.10735 3694.74278,5873.87542 3696.3608,5873.87542 C3762.69336,5883.58208 3667.23916,5843.13812 3719.01091,5862.5512 C3743.27894,5872.25774 3774.01848,5877.11101 3796.66848,5888.43535 C3804.7579,5893.28862 3809.61151,5904.61273 3817.70081,5906.23052 C3854.91174,5911.08379 3846.82233,5890.05292 3874.32616,5881.96428 C3880.79768,5880.34649 3887.26907,5880.34649 3895.35849,5880.34649 C3877.56186,5877.11101 3861.38326,5865.78668 3884.03338,5826.96062 C3900.2121,5801.07648 4008.60909,5797.841 4037.73083,5781.66339 C4049.05572,5776.81012 4057.14525,5767.10369 4068.47037,5760.63263 C4078.17747,5755.77936 4095.97398,5757.39715 4100.82759,5747.69039 C4105.68119,5737.98396 4087.88468,5733.13069 4086.26677,5723.42415 C4084.64886,5718.57088 4086.26677,5710.48213 4089.50247,5707.24654 C4092.73828,5704.01106 4099.20968,5710.48213 4099.20968,5707.24654 C4099.20968,5704.01106 4091.12038,5704.01106 4091.12038,5699.15779 C4091.12038,5687.83346 4104.0634,5610.18135 4107.2991,5602.09249 C4113.77061,5582.67941 4167.16015,5579.44393 4181.72097,5577.82614 C4201.13527,5576.20835 4220.54969,5574.59066 4238.34632,5571.35507 C4241.58202,5594.00375 4243.19993,5655.47847 4278.79296,5655.47847 Z M5145.9698,7336.32666 C5168.62003,7352.50426 5145.9698,7396.18359 5145.9698,7413.97899 C5145.9698,7420.45005 5160.53073,7435.00987 5158.91282,7428.5388 C5155.67712,7422.06773 5145.9698,7404.27245 5147.5877,7410.7434 C5150.8234,7420.45005 5157.29491,7426.92089 5160.53073,7435.00987 C5165.38433,7446.33398 5165.38433,7481.92466 5165.38433,7491.63109 C5167.00201,7519.13303 5139.4984,7540.16391 5139.4984,7559.57699 C5139.4984,7580.60776 5147.5877,7609.72738 5129.79119,7629.14046 C5128.17328,7632.37605 5120.08398,7629.14046 5120.08398,7632.37605 C5120.08398,7637.22932 5131.40898,7632.37605 5129.79119,7635.61153 C5129.79119,7642.08259 5120.08398,7642.08259 5116.84817,7646.93587 C5111.99456,7658.2602 5116.84817,7672.8199 5108.75898,7682.52644 C5086.10874,7705.175 5092.58025,7658.2602 5087.72665,7656.64229 C5066.69432,7650.17123 5053.75141,7666.34883 5039.19071,7642.08259 C5035.95479,7637.22932 5045.662,7630.75826 5042.4263,7624.28719 C5037.57281,7614.58065 5018.15839,7611.34518 5019.77618,7600.02084 C5019.77618,7587.07882 5045.662,7580.60776 5044.04432,7567.66563 C5042.4263,7557.9592 5016.54048,7577.37239 5014.92257,7567.66563 C5011.68687,7554.72372 5037.57281,7548.25266 5035.95479,7536.92844 C5034.33711,7523.98631 5010.06897,7527.22178 5006.83327,7514.27976 C5005.21536,7504.57334 5026.24769,7501.33786 5026.24769,7490.01352 C5026.24769,7480.30698 5010.06897,7475.45371 5005.21536,7465.74717 C5003.59757,7459.27611 5021.39408,7464.12938 5024.62967,7459.27611 C5027.8656,7447.95177 5026.24769,7433.39207 5032.7192,7423.68553 C5034.33711,7420.45005 5037.57281,7431.77416 5040.80839,7430.15659 C5048.89781,7428.5388 5050.5156,7417.21446 5058.60502,7413.97899 C5065.07642,7410.7434 5073.16583,7417.21446 5079.63735,7413.97899 C5087.72665,7409.12572 5087.72665,7394.56591 5095.81584,7392.94811 C5105.52305,7391.33032 5113.61247,7404.27245 5124.93758,7404.27245 C5134.64479,7404.27245 5123.31968,7383.24157 5124.93758,7371.91723 C5126.55538,7358.97533 5139.4984,7349.26879 5145.9698,7336.32666 L5145.9698,7336.32666 Z" id="fr" fill="#87B024"></path>
                    </g>
                </g>
            </g>
        </g>
    </g>
</svg>