<?xml version="1.0" encoding="UTF-8" standalone="no"?>
<svg width="68px" height="128px" viewBox="0 0 68 128" version="1.1" xmlns="http://www.w3.org/2000/svg" xmlns:xlink="http://www.w3.org/1999/xlink">
    <!-- Generator: Sketch 3.6 (26304) - http://www.bohemiancoding.com/sketch -->
    <title>al</title>
    <desc>Created with Sketch.</desc>
    <defs></defs>
    <g id="Page-1" stroke="none" stroke-width="1" fill="none" fill-rule="evenodd">
        <g id="Group" transform="translate(-491.000000, -286.000000)" fill="#FFFFFF">
            <path d="M554.303146,358.489728 C554.303146,362.784302 558.926502,364.105729 557.935786,368.069987 C554.633392,380.623462 552.65196,369.721776 550.340305,378.641333 C550.340305,378.641333 548.358873,391.85551 548.358873,392.185873 C547.698403,393.176937 537.460974,396.480493 537.130774,398.792938 L541.423861,405.40005 C542.414577,408.373243 537.791221,405.40005 537.791221,407.382179 C538.121467,415.971396 534.48885,411.346414 528.8748,412.337478 C528.544554,412.337478 529.205023,412.66784 528.8748,412.998226 C528.544554,413.328542 528.544554,413.328542 528.214307,413.658905 C527.884084,413.328542 527.884084,412.998226 527.553838,412.337478 L527.553838,410.355372 C527.553838,408.373243 528.544554,406.721477 527.884084,405.069687 C527.223592,404.078623 525.24216,405.069687 524.58169,404.078623 C522.930527,402.757219 523.260728,400.114365 521.939765,398.792938 C519.628133,395.819768 498.492852,390.203744 500.80453,384.918059 C501.795246,382.605591 506.418603,385.248445 507.409319,383.266316 C507.739519,382.605591 501.134777,378.310971 500.144061,374.677076 C499.813814,373.686011 501.465,373.355649 501.465,372.364584 C501.795246,371.043157 501.465,369.391414 501.795246,368.069987 C501.795246,366.418221 500.80453,364.766431 501.795246,363.775367 C502.455716,362.453963 505.09764,363.445027 506.088356,362.453963 C506.748826,361.462898 506.088356,358.820045 505.09764,358.820045 C503.776678,359.150407 504.767394,361.793238 503.776678,362.784302 C501.795246,364.436092 503.776678,351.552254 504.106924,348.248698 C504.767394,344.284441 499.153345,346.266569 499.153345,342.302312 C499.153345,339.329141 498.823098,336.355948 500.474284,334.043457 C501.465,332.72203 504.437148,334.043457 505.75811,332.72203 C506.418603,332.061328 504.106924,331.730965 503.776678,330.739901 C503.446432,328.427456 505.75811,325.1239 504.106924,323.47211 C502.125492,321.489982 498.823098,323.802473 496.181174,323.141771 L496.181174,316.534659 C496.181174,315.213232 496.841666,313.561466 496.181174,312.240039 C495.190458,310.588296 492.21831,310.588296 491.88811,308.936529 C491.88811,308.606167 502.455716,287.133112 503.446432,286.472387 C503.776678,286.142071 505.427841,294.400925 508.069788,294.731265 L515.004777,289.115241 C520.288603,289.115241 519.297887,297.374119 522.270012,299.025862 C523.260728,299.686564 524.251444,298.365183 525.572406,298.6955 C527.884084,299.356248 530.195739,300.347289 531.846948,301.999055 C538.121467,308.936529 533.498134,315.873957 534.158626,322.811409 C534.158626,325.1239 536.140058,327.106029 536.140058,329.088135 C535.809812,330.079199 533.16791,330.079199 533.498134,331.070263 C533.82838,333.382755 537.130774,334.704182 537.460974,337.01665 C537.791221,338.007714 535.809812,338.998756 535.809812,339.98982 C535.809812,342.632674 544.396009,354.85581 545.716948,356.837916 C547.698403,359.150407 549.019342,355.516489 550.010035,355.516489 C551.330998,355.186172 552.982183,355.516489 553.972899,356.177237 C554.633392,356.837916 553.642676,358.489728 554.303146,358.489728 L554.303146,358.489728 Z" id="al"></path>
        </g>
    </g>
</svg>