<?xml version="1.0" encoding="UTF-8" standalone="no"?>
<svg width="1638px" height="780px" viewBox="0 0 1638 780" version="1.1" xmlns="http://www.w3.org/2000/svg" xmlns:xlink="http://www.w3.org/1999/xlink">
    <!-- Generator: Sketch 3.6 (26304) - http://www.bohemiancoding.com/sketch -->
    <title>Blank_political_map_Europe_in_2008_WF_(with_Kosovo)</title>
    <desc>Created with Sketch.</desc>
    <defs>
        <rect id="path-1" x="0" y="0" width="1638" height="779.874084"></rect>
    </defs>
    <g id="Page-1" stroke="none" stroke-width="1" fill="none" fill-rule="evenodd">
        <g id="Blank_political_map_Europe_in_2008_WF_(with_Kosovo)">
            <g id="Group">
                <mask id="mask-2" fill="white">
                    <use xlink:href="#path-1"></use>
                </mask>
                <use id="maska" xlink:href="#path-1"></use>
                <rect id="ocean" fill="#2096BD" mask="url(#mask-2)" x="-7173.93636" y="-6413.92209" width="12431.6903" height="7965.60815"></rect>
                <g id="outlines" mask="url(#mask-2)" stroke="#FFFFFF" stroke-width="3">
                    <g transform="translate(-5277.330882, -6419.691120)">
                        <path d="M5495.84469,7384.66865 C5477.14499,7394.73958 5415.29242,7544.36416 5429.67661,7564.50603 C5435.43039,7573.13823 5464.19917,7573.13823 5455.56856,7578.89306 C5448.37631,7583.20916 5449.81478,7568.82213 5445.49947,7578.89306 C5445.49947,7581.77043 5442.62253,7584.6478 5444.061,7588.9639 C5446.93794,7600.47357 5464.19917,7606.2284 5468.51448,7617.73787 C5469.95274,7620.61523 5464.19917,7619.1766 5461.32223,7622.05397 C5454.13009,7626.37007 5446.93794,7630.68617 5442.62253,7637.87974 C5438.30723,7645.0732 5436.86886,7653.7054 5435.43039,7660.89877 C5433.99192,7669.53097 5439.7457,7681.04064 5435.43039,7688.23411 C5432.55355,7692.55021 5428.23824,7673.84727 5400.90803,7675.28581 C5370.70078,7678.16337 5383.64681,7688.23411 5343.37067,7669.53097 C5326.10935,7662.3376 5321.79404,7630.68617 5303.09444,7619.1766 C5277.2025,7603.35083 5254.1876,7619.1766 5225.41902,7607.66693 C5221.10371,7606.2284 5216.7884,7604.78967 5212.4731,7601.9123 C5206.71932,7597.596 5203.84248,7587.52526 5196.65024,7584.6478 C5190.89646,7580.3317 5183.70432,7584.6478 5176.51217,7581.77043 C5147.74349,7571.6995 5127.60542,7544.36416 5095.95991,7535.73206 C5083.01389,7532.85469 5068.6296,7545.80289 5055.68368,7540.04806 C5052.80674,7538.60953 5018.28438,7501.20326 5019.72285,7495.44842 C5019.72285,7489.69359 5028.35346,7486.81622 5028.35346,7482.50012 C5029.79173,7478.18412 5024.03816,7476.74529 5024.03816,7472.42929 C5024.03816,7466.67455 5026.915,7459.48099 5031.2303,7453.72615 C5035.54551,7447.97142 5044.17612,7446.53269 5049.9299,7440.77785 C5057.12204,7435.02312 5064.31429,7413.44252 5070.06797,7420.63618 C5072.9449,7424.95218 5077.26021,7453.72615 5090.20613,7452.28752 C5139.11288,7445.09395 5090.20613,7409.12652 5152.0588,7412.00398 C5167.88166,7412.00398 5154.93554,7429.26828 5163.56635,7433.58438 C5169.31993,7436.46175 5177.95054,7429.26828 5185.14278,7432.14565 C5189.45809,7433.58438 5188.01962,7442.21659 5190.89646,7443.65532 C5199.52717,7449.41005 5211.03463,7455.16489 5221.10371,7455.16489 C5222.54198,7455.16489 5258.5029,7437.90048 5258.5029,7437.90048 C5270.01046,7436.46175 5294.46373,7445.09395 5311.72506,7440.77785 C5347.68598,7433.58438 5346.24751,7419.19735 5364.94711,7409.12652 C5408.10008,7386.10738 5376.45456,7417.75862 5418.16916,7414.88135 C5446.93794,7413.44252 5426.79977,7397.61695 5438.30723,7386.10738 C5442.62253,7381.79118 5442.62253,7399.05568 5446.93794,7397.61695 C5472.82978,7391.86211 5472.82978,7368.84288 5495.84469,7384.66865 L5495.84469,7384.66865 Z M4546.47775,6853.7887 C4550.79306,6873.93037 4614.08419,6869.61427 4605.45368,6901.26571 C4604.01511,6909.89791 4579.56174,6907.02054 4582.43868,6917.09147 C4585.31552,6927.16241 4605.45368,6924.28484 4612.64573,6932.91704 C4615.52256,6935.79451 4605.45368,6937.23314 4605.45368,6941.54924 C4614.08419,6993.34245 4627.03012,6919.96874 4629.90695,6989.02645 C4631.34542,7013.48421 4605.45368,7022.11642 4598.26134,7042.25828 C4591.06929,7060.96132 4612.64573,7060.96132 4615.52256,7076.78699 C4615.52256,7082.54182 4608.33042,7088.29665 4608.33042,7095.49012 C4604.01511,7142.96723 4609.76889,7209.14737 4582.43868,7256.62437 C4581.00021,7259.50184 4582.43868,7252.30827 4579.56174,7250.86964 C4559.42367,7243.67607 4533.53193,7223.5344 4509.07846,7224.97293 C4504.76315,7224.97293 4519.14754,7230.72787 4519.14754,7235.04387 C4517.70907,7240.7987 4510.51693,7243.67607 4509.07846,7250.86964 C4500.44784,7283.95971 4523.46285,7278.20497 4483.18662,7296.90791 C4427.08763,7322.80461 4461.61018,7269.57267 4434.27987,7258.0631 C4427.08763,7255.18574 4419.89548,7266.6953 4411.26497,7266.6953 C4405.51119,7266.6953 4428.52609,7265.25657 4429.96456,7258.0631 C4429.96456,7247.99217 4415.58017,7242.23754 4412.70344,7233.60513 C4404.07282,7204.83126 4424.21079,7186.12813 4428.52609,7161.67016 C4429.96456,7151.59943 4424.21079,7142.96723 4427.08763,7132.89629 C4428.52609,7124.26409 4444.34895,7119.94799 4441.47202,7111.31589 C4440.03365,7104.12222 4424.21079,7111.31589 4419.89548,7105.56106 C4415.58017,7098.36759 4422.77232,7089.73529 4422.77232,7082.54182 C4422.77232,7081.10309 4417.01874,7081.10309 4418.45701,7079.66445 C4421.33405,7075.34835 4429.96456,7076.78699 4432.8414,7071.03225 C4438.59518,7056.64522 4417.01874,6986.14888 4408.38813,6976.07815 C4391.1268,6957.37501 4379.61935,7019.23905 4383.93466,6947.30408 C4385.37313,6937.23314 4395.44211,6930.03967 4396.88058,6919.96874 C4398.31905,6914.21391 4391.1268,6908.45927 4395.44211,6904.14317 C4396.88058,6902.70444 4406.94966,6932.91704 4432.8414,6932.91704 C4454.41794,6934.35577 4533.53193,6869.61427 4546.47775,6853.7887 L4546.47775,6853.7887 Z M5139.11288,5846.69928 C5136.23604,5875.47335 5100.27521,5869.71852 5097.39818,5892.73765 C5094.52144,5910.00205 5127.60542,5907.12459 5134.79757,5912.87942 C5144.86665,5921.51152 5117.53634,5933.02129 5113.22103,5945.96949 C5107.46726,5964.67262 5130.48226,5944.53076 5133.3591,5951.72432 C5136.23604,5958.91779 5120.41318,5977.62093 5130.48226,5983.37576 C5144.86665,5992.00796 5202.40401,6026.53666 5152.0588,6023.6593 C5154.93554,6016.46573 5154.93554,6010.71089 5149.18196,6003.51743 C5121.85165,5977.62093 5123.29012,5989.13039 5107.46726,6009.27226 C5108.90573,6007.83353 5108.90573,6006.39479 5108.90573,6006.39479 C5108.90573,5992.00796 5081.57552,5989.13039 5068.6296,5994.88523 C5061.43735,5999.20133 5068.6296,6015.02699 5062.87582,6020.78183 C5057.12204,6026.53666 5047.05296,6022.22056 5038.42235,6025.09793 C5018.28438,6033.73013 4999.58468,6056.74926 4976.56968,6061.06537 C4969.37764,6062.5041 4962.18539,6055.31073 4956.43172,6059.62683 C4950.67794,6061.06537 4956.43172,6069.69757 4953.55478,6075.4524 C4952.11641,6079.7685 4947.8011,6085.52333 4944.92416,6089.83943 C4946.36263,6088.4007 4946.36263,6086.96197 4947.8011,6086.96197 C4954.99325,6086.96197 4949.23947,6102.78774 4954.99325,6105.6651 C4957.87008,6107.10384 4959.30855,6097.0329 4962.18539,6099.91037 C4965.06233,6105.6651 4970.8159,6117.17477 4965.06233,6121.49077 C4962.18539,6122.9294 4960.74702,6125.80687 4962.18539,6128.68424 C4963.62386,6130.12297 4966.5006,6127.24571 4969.37764,6127.24571 C4978.00815,6134.43907 4992.39254,6138.75517 4993.83091,6148.82611 C5002.46152,6189.10964 4967.93917,6173.28387 4957.87008,6197.74184 C4954.99325,6204.93531 4973.69294,6282.62512 4978.00815,6291.25732 C4986.63876,6305.64425 5087.32929,6377.57923 5107.46726,6389.08879 C5127.60542,6400.59846 5133.3591,6393.40489 5152.0588,6409.23066 C5172.19686,6426.49506 5199.52717,6540.15231 5215.34993,6568.92618 C5231.17279,6599.13898 5264.25668,6626.47411 5290.14842,6646.61598 C5298.77903,6652.37082 5311.72506,6653.80945 5318.9172,6661.00302 C5323.23251,6663.88038 5318.9172,6672.51248 5321.79404,6675.39005 C5360.6318,6715.67359 5433.99192,6702.72529 5480.02183,6695.53172 C5490.09091,6694.09299 5511.66745,6678.26732 5524.61337,6692.65435 C5560.57419,6732.93799 5452.69162,6747.32493 5507.35214,6784.73109 C5559.13582,6819.2599 5631.05757,6816.38243 5684.27962,6843.71777 C5702.97932,6853.7887 5710.17147,6869.61427 5731.7479,6876.80784 C5749.00913,6884.0013 5796.47751,6891.19487 5810.8619,6902.70444 C5816.61557,6907.02054 5810.8619,6917.09147 5815.1772,6921.40757 C5832.43843,6945.86534 5878.46834,6941.54924 5892.85263,6991.90371 C5898.6064,7010.60685 5885.66048,7004.85201 5881.34518,7017.80032 C5878.46834,7024.99388 5882.78365,7053.76775 5877.02987,7056.64522 C5871.27609,7060.96132 5861.20701,7056.64522 5852.5764,7052.32922 C5807.98496,7035.06482 5826.68465,7009.16811 5803.66965,6978.95551 C5790.72373,6961.69111 5749.00913,6978.95551 5727.43259,6971.76204 C5698.66401,6961.69111 5682.84116,6928.60094 5655.51084,6957.37501 C5652.63411,6961.69111 5616.67318,7033.62608 5616.67318,7036.50345 C5616.67318,7040.81945 5623.86533,7045.13555 5622.42686,7050.89038 C5616.67318,7078.22572 5587.9045,7076.78699 5612.35787,7108.43832 C5626.74227,7125.70272 5631.05757,7109.87716 5646.88033,7114.19316 C5664.14146,7119.94799 5675.64901,7137.21239 5691.47177,7144.40586 C5697.22555,7147.28333 5705.85616,7144.40586 5708.733,7150.16069 C5711.60994,7154.47679 5702.97932,7160.23163 5702.97932,7165.98626 C5704.41769,7206.27 5723.11729,7168.86383 5720.24055,7220.65693 C5718.80198,7250.86964 5661.26462,7239.35997 5635.37288,7269.57267 C5616.67318,7291.15327 5641.12655,7312.73367 5635.37288,7338.63028 C5631.05757,7360.21068 5616.67318,7354.45604 5602.28879,7365.96551 C5567.76644,7396.17821 5592.21971,7465.23582 5520.29806,7445.09395 C5505.91367,7440.77785 5490.09091,7403.37178 5498.72152,7387.54601 C5504.4753,7378.91381 5518.85969,7380.35255 5526.05184,7373.15898 C5530.36714,7367.40425 5530.36714,7358.77215 5531.80561,7351.57858 C5533.24388,7344.38511 5538.99766,7338.63028 5537.55919,7331.43681 C5536.12092,7322.80461 5521.73653,7318.48851 5523.175,7309.85621 C5528.92857,7283.95971 5563.45113,7298.34664 5573.52011,7283.95971 C5597.97348,7255.18574 5569.20481,7250.86964 5557.69735,7235.04387 C5546.1898,7217.77957 5551.94358,7193.3216 5543.31296,7174.61866 C5538.99766,7163.10899 5533.24388,7153.03806 5526.05184,7144.40586 C5524.61337,7141.52849 5518.85969,7141.52849 5515.98275,7138.65113 C5490.09091,7099.80622 5517.42122,7122.82536 5500.15999,7079.66445 C5478.58336,7024.99388 5465.63744,7052.32922 5422.48447,7055.20648 C5421.046,7055.20648 5423.92294,7050.89038 5422.48447,7048.01312 C5416.73069,7042.25828 5409.53865,7035.06482 5400.90803,7030.74872 C5392.27742,7026.43262 5375.01619,7030.74872 5369.26242,7020.67778 C5363.50864,7010.60685 5380.76987,7000.53591 5379.3315,6989.02645 C5377.89303,6977.51668 5369.26242,6967.44594 5363.50864,6958.81374 C5328.98628,6911.33664 5323.23251,6977.51668 5282.95638,6963.12984 C5278.64107,6961.69111 5310.28659,6938.67187 5295.9022,6928.60094 C5244.11861,6891.19487 5294.46373,6930.03967 5238.36484,6922.84631 C5234.04953,6921.40757 5238.36484,6914.21391 5236.92637,6909.89791 C5231.17279,6892.6335 5200.96554,6846.59523 5186.58115,6840.8404 C5147.74349,6826.45337 5177.95054,6853.7887 5165.00462,6850.91133 C5152.0588,6848.03387 5140.55135,6832.2082 5126.16696,6833.64683 C5113.22103,6836.5243 5103.15195,6853.7887 5091.6446,6850.91133 C5078.69858,6848.03387 5080.13705,6829.33073 5071.50643,6820.69853 C5061.43735,6812.06633 5035.54551,6814.9438 5026.915,6809.18896 L5005.33846,6778.97636 C4995.26938,6770.34406 4979.44672,6768.90543 4970.8159,6758.83449 C4953.55478,6732.93799 4973.69294,6737.25409 4953.55478,6721.42832 C4944.92416,6714.23486 4934.85508,6708.48002 4924.7861,6702.72529 C4921.90916,6701.28655 4916.15558,6705.60265 4913.27854,6704.16392 C4897.45589,6691.21562 4897.45589,6666.75785 4881.63303,6653.80945 C4854.30272,6630.79032 4837.04159,6648.05472 4808.27291,6636.54505 C4803.9576,6635.10642 4815.46505,6630.79032 4818.34189,6627.91285 C4826.97251,6616.40338 4809.71128,6597.70025 4805.39597,6593.38415 C4802.51913,6590.50668 4796.76536,6593.38415 4793.88852,6590.50668 C4789.57331,6584.75194 4789.57331,6576.11974 4783.81954,6571.80364 C4776.62739,6566.04881 4762.243,6570.36491 4756.48922,6561.73271 C4752.17392,6555.97787 4765.11984,6544.46841 4757.92769,6540.15231 C4749.29708,6532.95874 4734.91269,6541.59084 4723.40514,6537.27484 C4716.21309,6534.39747 4727.72065,6521.44917 4727.72065,6512.81697 C4732.03595,6484.0429 4727.72065,6473.97207 4711.89779,6449.5142 C4681.69064,6406.3532 4703.26717,6367.50829 4667.30625,6334.41822 C4664.42951,6330.10212 4658.67573,6328.66349 4654.36043,6327.22476 C4652.92196,6327.22476 4651.48339,6331.54086 4650.04512,6330.10212 C4642.85287,6327.22476 4638.53757,6318.59255 4631.34542,6318.59255 C4627.03012,6318.59255 4635.66073,6331.54086 4631.34542,6330.10212 C4619.83797,6327.22476 4611.20726,6318.59255 4601.13837,6311.39919 C4596.82307,6308.52162 4560.86214,6271.11555 4549.35459,6271.11555 C4546.47775,6271.11555 4550.79306,6278.30902 4547.91632,6279.74775 C4545.03928,6281.18638 4540.72398,6279.74775 4539.28551,6276.87028 C4532.09346,6268.23808 4501.88631,6253.85105 4487.50192,6253.85105 C4481.74815,6253.85105 4444.34895,6275.43165 4441.47202,6281.18638 C4438.59518,6286.94122 4442.91048,6295.57342 4438.59518,6299.88942 C4434.27987,6305.64425 4422.77232,6304.20552 4418.45701,6308.52162 C4408.38813,6318.59255 4401.19588,6341.61179 4389.68843,6351.68272 C4370.98874,6370.38566 4337.90475,6368.94713 4316.32821,6371.82439 C4309.13607,6345.92789 4358.04281,6312.83772 4336.46638,6297.01215 C4329.27413,6292.69605 4319.20505,6298.45069 4310.57444,6299.88942 C4301.94382,6299.88942 4291.87474,6304.20552 4283.24413,6301.32825 C4267.42147,6297.01215 4230.02207,6269.67682 4231.46054,6249.53495 C4231.46054,6246.65758 4238.65269,6246.65758 4238.65269,6243.78032 C4237.21432,6239.46421 4222.83003,6235.14811 4227.14534,6226.51581 C4232.89911,6220.76108 4240.09116,6216.44498 4244.40646,6209.25141 C4245.84493,6207.81278 4241.52963,6204.93531 4242.96799,6202.05794 C4244.40646,6197.74184 4257.35238,6204.93531 4258.79085,6200.61921 C4258.79085,6189.10964 4257.35238,6177.59998 4253.03708,6168.96787 C4245.84493,6157.45831 4198.37656,6138.75517 4201.25349,6115.73594 C4201.25349,6108.54257 4214.19942,6108.54257 4221.39156,6107.10384 C4225.70677,6107.10384 4228.58381,6115.73594 4232.89911,6114.2972 C4240.09116,6112.85867 4286.12117,6075.4524 4278.92892,6062.5041 C4274.61361,6053.872 4260.22932,6052.43316 4255.91392,6042.36223 C4251.59861,6036.6076 4257.35238,6026.53666 4254.47555,6020.78183 C4234.33738,5986.25313 4196.93819,6003.51743 4263.10616,5964.67262 C4277.49055,5990.56923 4316.32821,5961.79516 4335.02791,5957.47906 C4347.97383,5954.60169 4358.04281,5971.86609 4370.98874,5971.86609 C4372.4272,5971.86609 4412.70344,5930.14372 4412.70344,5922.95035 C4414.1417,5915.75689 4401.19588,5912.87942 4402.63435,5907.12459 C4405.51119,5898.49238 4417.01874,5895.61502 4424.21079,5889.86018 C4431.40293,5884.10545 4437.15671,5878.35062 4444.34895,5872.59578 C4447.22579,5871.15705 4450.10263,5868.27968 4451.5411,5869.71852 C4454.41794,5878.35062 4452.97957,5886.98282 4452.97957,5895.61502 C4452.97957,5899.93112 4448.66426,5905.68595 4450.10263,5911.44079 C4460.17171,5930.14372 4483.18662,5934.45982 4499.00938,5940.21465 C4500.44784,5940.21465 4503.32468,5943.09202 4503.32468,5945.96949 C4501.88631,5951.72432 4491.81723,5956.04042 4493.2557,5961.79516 C4494.69407,5967.54999 4504.76315,5964.67262 4509.07846,5968.98872 C4514.83223,5976.18219 4517.70907,6000.64006 4526.33969,5993.44649 C4550.79306,5974.74346 4522.02438,5980.49829 4522.02438,5966.11126 C4522.02438,5934.45982 4556.54684,5925.82762 4562.30051,5899.93112 C4562.30051,5897.05375 4546.47775,5858.20875 4570.93112,5862.52485 C4589.63082,5865.40242 4566.61582,5894.17628 4604.01511,5902.80848 C4627.03012,5910.00205 4608.33042,5881.22798 4647.16818,5888.42155 C4658.67573,5889.86018 4652.92196,5912.87942 4662.99104,5918.63425 C4668.74482,5921.51152 4680.25217,5915.75689 4678.8137,5910.00205 C4675.93686,5905.68595 4670.18309,5902.80848 4668.74482,5897.05375 C4668.74482,5891.29892 4677.37533,5886.98282 4675.93686,5881.22798 C4673.06002,5874.03452 4647.16818,5858.20875 4667.30625,5843.82191 C4693.19809,5825.11878 4683.12901,5866.84095 4713.33626,5859.64758 C4730.59738,5853.89275 4703.26717,5833.75098 4703.26717,5830.87351 C4706.14401,5825.11878 4710.45932,5820.80268 4711.89779,5815.04784 C4714.77452,5809.29301 4713.33626,5802.09964 4714.77452,5796.34481 L4714.77452,5796.34481 C4737.78953,5807.85448 4717.65156,5793.46744 4740.66647,5796.34481 C4752.17392,5797.78354 4763.68147,5827.99615 4786.69627,5815.04784 L4805.39597,5776.20304 C4816.90352,5767.57084 4867.24864,5773.32557 4880.19466,5771.88694 C4901.77119,5770.44821 4919.03232,5751.74507 4940.60886,5751.74507 C4946.36263,5751.74507 4930.53977,5758.93854 4929.1014,5764.69337 C4921.90916,5794.90598 4940.60886,5774.76431 4952.11641,5792.02871 C4954.99325,5796.34481 4947.8011,5802.09964 4950.67794,5807.85448 C4952.11641,5810.73174 4956.43172,5804.97691 4959.30855,5807.85448 C4986.63876,5827.99615 4993.83091,5830.87351 5031.2303,5836.62835 C5067.19113,5840.94445 5103.15195,5843.82191 5139.11288,5846.69928 L5139.11288,5846.69928 Z M4982.32346,6347.36662 C4985.20029,6343.05052 4985.20029,6337.29569 4989.5156,6334.41822 C5001.02315,6322.90865 4998.14622,6367.50829 4982.32346,6347.36662 L4982.32346,6347.36662 Z" id="it" fill="#87B024"></path>
                        <path d="M6955.85591,6505.6234 C6948.66367,6504.18477 6941.47152,6504.18477 6937.15622,6504.18477 C6881.05723,6515.69434 6971.67857,6555.97787 6940.03305,6580.43584 C6940.03305,6580.43584 6895.44152,6594.82288 6894.00325,6594.82288 C6873.86508,6602.01635 6840.78099,6627.91285 6819.20456,6626.47411 C6814.88925,6626.47411 6817.76619,6619.28065 6814.88925,6617.84191 C6800.50486,6610.64855 6781.80537,6602.01635 6765.98251,6606.33245 C6760.22873,6607.77118 6760.22873,6619.28065 6754.47505,6620.71938 C6750.15975,6622.15801 6747.28281,6612.08728 6742.9675,6610.64855 C6740.09066,6609.20971 6735.77536,6614.96455 6734.33689,6612.08728 C6724.26781,6606.33245 6721.39097,6590.50668 6709.88362,6589.06804 C6701.2528,6586.19058 6696.93759,6600.57761 6688.30698,6602.01635 C6682.5533,6604.89361 6675.36106,6593.38415 6671.04575,6596.26151 C6645.15401,6612.08728 6635.08493,6629.35158 6594.8087,6643.73862 C6577.54757,6649.49335 6555.97103,6643.73862 6540.14817,6653.80945 C6534.3946,6656.68692 6534.3946,6668.19648 6528.64082,6671.07395 C6524.32552,6675.39005 6517.13317,6671.07395 6511.37959,6671.07395 L6492.6799,6671.07395 C6491.24143,6672.51248 6492.6799,6675.39005 6492.6799,6675.39005 C6495.55674,6666.75785 6492.6799,6591.94541 6491.24143,6591.94541 C6481.17235,6581.87448 6465.34969,6553.10061 6452.40377,6544.46841 C6445.21152,6540.15231 6435.14254,6544.46841 6426.51192,6540.15231 C6423.63499,6538.71357 6384.79732,6508.50087 6384.79732,6505.6234 C6391.98947,6492.6751 6412.12753,6489.79784 6404.93529,6471.0947 C6403.49702,6465.33987 6399.18171,6462.4625 6394.86641,6459.58513 C6391.98947,6458.1464 6387.67416,6461.02377 6386.23579,6458.1464 C6384.79732,6450.95293 6386.23579,6443.75937 6386.23579,6436.5659 C6384.79732,6427.9338 6374.72824,6419.3016 6379.04355,6412.10803 C6420.75815,6343.05052 6373.28977,6427.9338 6419.31968,6391.96626 C6423.63499,6387.65016 6453.84224,6334.41822 6445.21152,6325.78602 C6433.70407,6317.15382 6379.04355,6291.25732 6376.16671,6288.37995 C6358.90548,6273.99292 6331.57527,6213.56751 6341.64415,6191.98701 C6345.95966,6181.91608 6361.78232,6183.35481 6367.5361,6174.72271 C6371.8514,6164.65177 6366.09763,6151.70347 6370.41293,6141.63254 C6389.11263,6150.26474 6412.12753,6156.01957 6422.19662,6161.77441 C6435.14254,6167.52924 6380.48202,6199.18058 6404.93529,6209.25141 C6439.45785,6223.63845 6449.52683,6197.74184 6481.17235,6194.86438 C6521.44848,6190.54828 6568.91695,6213.56751 6609.19309,6199.18058 C6617.8237,6196.30311 6620.70054,6184.79354 6629.33115,6181.91608 C6650.90779,6174.72271 6675.36106,6176.16144 6698.37606,6177.59998 C6727.14474,6179.03871 6748.72128,6190.54828 6777.49006,6173.28387 C6809.13548,6153.14221 6813.45088,6122.9294 6837.90416,6098.47164 C6859.48069,6076.89113 6909.82591,6053.872 6937.15622,6042.36223 C7001.88582,6017.90446 6981.74765,6052.43316 7006.20113,6049.5559 C7017.70858,6048.11716 7026.33909,6035.16886 7037.84665,6035.16886 C7075.24594,6033.73013 7029.21613,6062.5041 7063.73849,6043.80106 C7068.05379,6042.36223 7070.93063,6036.6076 7075.24594,6035.16886 C7083.87645,6030.85276 7085.31492,6050.99443 7092.50707,6056.74926 C7114.0837,6075.4524 7151.4829,6062.5041 7174.4979,6058.188 L7177.37484,6058.188 C7183.12851,6094.15554 7186.00545,6127.24571 7175.93637,6133.00034 C7170.18259,6135.87781 7162.99045,6125.80687 7155.7982,6127.24571 C7102.57615,6141.63254 7137.09871,6140.19391 7121.27585,6171.84534 C7119.83738,6177.59998 7109.7684,6177.59998 7106.89146,6181.91608 C7106.89146,6184.79354 7115.52207,6183.35481 7115.52207,6186.23218 C7118.39901,6209.25141 7116.96054,6223.63845 7122.71432,6246.65758 C7124.15268,6255.28978 7132.7833,6266.79935 7128.46799,6273.99292 C7124.15268,6281.18638 7111.20676,6276.87028 7104.01462,6281.18638 C7102.57615,6281.18638 7108.32993,6284.06385 7108.32993,6285.50248 C7105.45309,6291.25732 7098.26084,6292.69605 7096.82237,6298.45069 C7095.38401,6302.76679 7104.01462,6307.08309 7101.13778,6309.96035 C7095.38401,6318.59255 7082.43818,6321.46992 7076.68441,6330.10212 C7050.79257,6364.63103 7114.0837,6312.83772 7129.90646,6351.68272 C7131.34493,6354.56009 7127.02962,6358.87619 7127.02962,6361.75346 C7128.46799,6363.19219 7160.11351,6381.89533 7167.30575,6387.65016 C7171.62106,6393.40489 7175.93637,6397.72099 7177.37484,6402.03709 L7174.4979,6402.03709 C7165.86729,6403.47583 7157.23667,6402.03709 7148.60616,6404.91456 C7137.09871,6409.23066 7128.46799,6419.3016 7118.39901,6426.49506 C7115.52207,6427.9338 7118.39901,6433.68843 7116.96054,6432.2499 C7083.87645,6425.05623 7073.80757,6399.15973 7040.72348,6416.42413 L7016.27001,6443.75937 C7006.20113,6448.07547 6993.25521,6440.882 6986.06296,6448.07547 C6977.43235,6455.26903 6986.06296,6469.65597 6980.30919,6478.28807 C6971.67857,6488.359 6942.90999,6484.0429 6955.85591,6505.6234 L6955.85591,6505.6234 Z" id="bg" fill="#87B024"></path>
                        <path d="M6246.7076,6852.34997 C6232.32321,6907.02054 6223.6926,6859.54354 6213.62361,6898.38834 C6213.62361,6898.38834 6204.993,6955.93628 6204.993,6957.37501 C6202.11616,6961.69111 6157.52452,6976.07815 6156.08625,6986.14888 L6174.78585,7014.92295 C6179.10116,7027.87125 6158.96299,7014.92295 6158.96299,7023.55515 C6160.40146,7060.96132 6144.5787,7040.81945 6120.12533,7045.13555 C6118.68686,7045.13555 6121.5637,7046.57428 6120.12533,7048.01312 C6118.68686,7049.45165 6118.68686,7049.45165 6117.24839,7050.89038 C6115.81002,7049.45165 6115.81002,7048.01312 6114.37155,7045.13555 L6114.37155,7036.50345 C6114.37155,7027.87125 6118.68686,7020.67778 6115.81002,7013.48421 C6112.93308,7009.16811 6104.30247,7013.48421 6101.42563,7009.16811 C6094.23359,7003.41338 6095.67186,6991.90371 6089.91808,6986.14888 C6079.8492,6973.20068 5987.78928,6948.74281 5997.85836,6925.72357 C6002.17367,6915.65274 6022.31184,6927.16241 6026.62714,6918.53021 C6028.06541,6915.65274 5999.29683,6896.9496 5994.98153,6881.12394 C5993.54306,6876.80784 6000.7352,6875.3691 6000.7352,6871.053 C6002.17367,6865.29817 6000.7352,6858.1048 6002.17367,6852.34997 C6002.17367,6845.1565 5997.85836,6837.96293 6002.17367,6833.64683 C6005.05051,6827.8921 6016.55806,6832.2082 6020.87337,6827.8921 C6023.75021,6823.576 6020.87337,6812.06633 6016.55806,6812.06633 C6010.80429,6813.50506 6015.11959,6825.01463 6010.80429,6829.33073 C6002.17367,6836.5243 6010.80429,6780.41499 6012.24275,6766.02796 C6015.11959,6748.76356 5990.66622,6757.39576 5990.66622,6740.13136 C5990.66622,6727.18316 5989.22775,6714.23486 5996.4199,6704.16392 C6000.7352,6698.40909 6013.68112,6704.16392 6019.4349,6698.40909 C6022.31184,6695.53172 6012.24275,6694.09299 6010.80429,6689.77689 C6009.36582,6679.70615 6019.4349,6665.31912 6012.24275,6658.12555 C6003.61214,6649.49335 5989.22775,6659.56428 5977.7202,6656.68692 L5977.7202,6627.91285 C5977.7202,6622.15801 5980.59714,6614.96455 5977.7202,6609.20971 C5973.40489,6602.01635 5960.45897,6602.01635 5959.0207,6594.82288 C5959.0207,6593.38415 6005.05051,6499.86867 6009.36582,6496.9912 C6010.80429,6495.55267 6017.99633,6531.52011 6029.50398,6532.95874 L6059.71103,6508.50087 C6082.72604,6508.50087 6078.41073,6544.46841 6091.35655,6551.66177 C6095.67186,6554.53914 6099.98716,6548.78451 6105.74094,6550.22304 C6115.81002,6553.10061 6125.879,6557.41661 6133.07125,6564.61008 C6160.40146,6594.82288 6140.26339,6625.03548 6143.14033,6655.24818 C6143.14033,6665.31912 6151.77095,6673.95132 6151.77095,6682.58342 C6150.33248,6686.89952 6138.82503,6686.89952 6140.26339,6691.21562 C6141.70186,6701.28655 6156.08625,6707.04139 6157.52452,6717.11222 C6158.96299,6721.42832 6150.33248,6725.74432 6150.33248,6730.06042 C6150.33248,6741.57009 6187.73177,6794.80203 6193.48545,6803.43413 C6202.11616,6813.50506 6207.86984,6797.6793 6212.18504,6797.6793 C6217.93882,6796.24076 6225.13097,6797.6793 6229.44627,6800.55686 C6232.32321,6803.43413 6228.0079,6810.6278 6230.88474,6810.6278 C6230.88474,6829.33073 6251.02291,6835.08557 6246.7076,6852.34997 Z" id="al" fill="#FFFFFF"></path>
                        <path d="M5874.15293,6384.77269 C5854.01487,6407.79193 5856.8917,6440.882 5851.13813,6448.07547 C5839.63048,6462.4625 5835.31527,6440.882 5830.99996,6462.4625 C5823.80782,6504.18477 5868.0545,6505.62339 5836.45186,6536.43005 L5836.45186,6543.74076 L5843.94578,6558.85544 C5826.68465,6517.13307 5797.91587,6531.52011 5761.95505,6505.6234 C5753.32444,6498.42994 5750.4476,6485.48174 5740.37852,6482.60417 C5733.18637,6479.7269 5724.55586,6488.359 5715.92524,6488.359 C5711.60994,6488.359 5701.54085,6486.92047 5702.97932,6482.60417 C5705.85616,6476.84954 5718.80198,6478.28807 5720.24055,6471.0947 C5727.43259,6452.39157 5665.57993,6427.9338 5659.82615,6417.86286 C5654.07238,6409.23066 5658.38768,6396.28236 5652.63411,6387.65016 C5648.3188,6381.89533 5638.24972,6383.33406 5631.05757,6380.45659 C5600.85032,6361.75346 5582.15073,6327.22476 5556.25888,6305.64425 C5547.62827,6299.88942 5514.54428,6266.79935 5504.4753,6262.48325 C5500.15999,6261.04462 5494.40622,6266.79935 5490.09091,6263.92198 C5482.89887,6256.72852 5500.15999,6240.90275 5500.15999,6238.02548 C5498.72152,6232.27065 5491.52938,6230.83181 5487.21407,6226.51581 C5475.70652,6209.25141 5471.39121,6186.23218 5455.56856,6171.84534 C5449.81478,6164.65177 5438.30723,6164.65177 5431.11508,6158.89694 C5425.36131,6154.58084 5415.29242,6071.1363 5446.93794,6072.57503 C5461.32223,6072.57503 5485.7756,6104.22647 5498.72152,6111.41994 L5510.22898,6109.9811 L5498.72152,6111.41994 C5515.98275,6109.9811 5513.10591,6082.64587 5521.73653,6071.1363 C5537.55919,6052.43316 5544.75143,6075.4524 5564.8895,6071.1363 C5570.64327,6069.69757 5570.64327,6058.188 5576.39705,6053.872 C5576.39705,6053.872 5585.02766,6062.5041 5609.48094,6069.69757 C5612.35787,6071.1363 5616.67318,6072.57503 5620.98849,6071.1363 C5623.86533,6071.1363 5625.3038,6065.38147 5629.6191,6063.94283 C5646.88033,6062.5041 5685.71799,6084.0846 5704.41769,6081.20723 C5708.733,6081.20723 5713.0482,6078.32977 5714.48677,6074.01367 C5718.80198,6071.1363 5717.36351,6061.06537 5723.11729,6061.06537 C5731.7479,6059.62683 5737.50168,6068.25893 5746.13229,6071.1363 C5761.95505,6075.4524 5743.25545,6063.94283 5751.88607,6061.06537 C5760.51668,6058.188 5770.58576,6058.188 5779.21638,6061.06537 C5784.96995,6062.5041 5789.28526,6071.1363 5795.03904,6071.1363 C5799.35434,6071.1363 5795.03904,6061.06537 5799.35434,6061.06537 C5832.43843,6062.5041 5823.80782,6098.47164 5839.63048,6101.349 C5866.96079,6104.22647 5881.34518,6084.0846 5907.23692,6085.52333 C5907.23692,6130.12297 5881.34518,6160.33567 5885.66048,6187.67091 C5891.41426,6219.32235 5900.04487,6196.30311 5920.18284,6204.93531 C5933.12876,6210.69015 5936.0057,6229.39328 5948.95162,6236.58665 C5953.26693,6238.02548 5967.65132,6233.70938 5963.33601,6246.65758 C5954.7054,6275.43165 5918.74447,6243.78032 5911.55222,6253.85105 C5911.55222,6253.85105 5976.28183,6314.27645 5959.0207,6332.97959 C5953.26693,6337.29569 5946.07468,6322.90865 5938.88254,6325.78602 C5930.25192,6328.66349 5928.81345,6340.17306 5923.05978,6347.36662 C5912.99069,6350.24399 5885.66048,6344.48916 5884.22201,6351.68272 C5879.90671,6371.82439 5915.86753,6373.26313 5904.36018,6403.47583 L5898.6064,6403.47583 L5904.36018,6403.47583 C5889.97579,6393.40489 5889.97579,6383.33406 5874.15293,6384.77269 Z" id="ba" fill="#87B024"></path>
                        <path d="M6144.5787,6626.47411 C6143.14033,6636.54505 6141.70186,6646.61598 6143.14033,6655.24818 C6143.14033,6665.31912 6151.77095,6673.95132 6151.77095,6682.58342 C6150.33248,6686.89952 6138.82503,6686.89952 6140.26339,6691.21562 C6141.70186,6701.28655 6156.08625,6707.04139 6157.52452,6717.11222 C6158.96299,6721.42832 6150.33248,6725.74432 6150.33248,6730.06042 C6150.33248,6741.57009 6187.73177,6794.80203 6193.48545,6803.43413 C6202.11616,6813.50506 6207.86984,6797.6793 6212.18504,6797.6793 C6217.93882,6796.24076 6225.13097,6797.6793 6229.44627,6800.55686 C6232.32321,6803.43413 6228.0079,6810.6278 6230.88474,6810.6278 C6240.95382,6812.06633 6337.32885,6781.85373 6343.08262,6777.53763 C6358.90548,6760.27323 6347.39793,6737.25409 6376.16671,6727.18316 C6386.23579,6722.86706 6442.33468,6730.06042 6450.9653,6724.30579 C6455.2806,6721.42832 6453.84224,6712.79612 6458.15754,6709.91876 C6461.03438,6708.48002 6465.34969,6717.11222 6468.22642,6714.23486 C6485.48765,6702.72529 6446.64999,6679.70615 6492.6799,6671.07395 L6492.6799,6671.07395 L6494.11837,6671.07395 C6495.55674,6652.37082 6492.6799,6591.94541 6491.24143,6591.94541 C6481.17235,6581.87448 6465.34969,6553.10061 6452.40377,6544.46841 C6445.21152,6540.15231 6435.14254,6544.46841 6426.51192,6540.15231 C6423.63499,6538.71357 6384.79732,6508.50087 6384.79732,6505.6234 C6366.09763,6488.359 6320.06772,6532.95874 6297.05271,6537.27484 C6269.7224,6541.59084 6258.21505,6522.88791 6245.26913,6554.53914 C6243.83066,6558.85544 6249.58444,6564.61008 6248.14597,6570.36491 C6245.26913,6577.55838 6232.32321,6560.29398 6225.13097,6560.29398 C6206.43147,6561.73271 6189.17014,6574.68101 6173.34738,6584.75194 C6164.71677,6590.50668 6184.85483,6650.93208 6148.89391,6626.47411 L6144.5787,6626.47411 L6144.5787,6626.47411 Z" id="mk" fill="#87B024"></path>
                        <path d="M5838.19201,6548.78451 C5820.93088,6520.01044 5793.60057,6530.08137 5761.95505,6505.6234 C5753.32444,6498.42994 5750.4476,6485.48174 5740.37852,6482.60417 C5734.62484,6479.7269 5727.43259,6485.48174 5720.24055,6486.92047 C5723.11729,6488.359 5724.55586,6488.359 5727.43259,6489.79784 C5730.30943,6491.23657 5733.18637,6499.86867 5730.30943,6499.86867 C5707.29463,6498.42994 5690.0333,6476.84954 5667.0185,6473.97207 C5656.94941,6472.53343 5645.44186,6475.4108 5635.37288,6473.97207 C5632.49594,6473.97207 5629.6191,6466.7786 5628.18063,6468.21733 C5625.3038,6469.65597 5625.3038,6476.84954 5628.18063,6478.28807 C5636.81125,6481.16564 5646.88033,6476.84954 5656.94941,6478.28807 C5665.57993,6479.7269 5675.64901,6482.60417 5685.71799,6488.359 C5688.59493,6489.79784 5687.15646,6495.55267 5690.0333,6496.9912 C5738.94015,6522.88791 5728.87106,6481.16564 5805.10812,6541.59084 C5815.1772,6548.78451 5828.12312,6555.97787 5841.06904,6558.85544 L5838.19201,6548.78451 Z M5865.52232,6097.0329 C5852.5764,6082.64587 5874.15293,6089.83943 5879.90671,6079.7685 C5881.34518,6078.32977 5881.34518,6075.4524 5879.90671,6074.01367 C5861.20701,6055.31073 5874.15293,6048.11716 5875.5914,6029.41403 C5877.02987,6022.22056 5912.99069,6050.99443 5908.67549,6022.22056 C5888.53732,6022.22056 5865.52232,6016.46573 5848.26109,6004.95616 C5841.06904,5999.20133 5854.01487,5996.32406 5854.01487,5994.88523 C5854.01487,5990.56923 5839.63048,5987.69186 5848.26109,5979.05946 C5849.69956,5977.62093 5859.76864,5986.25313 5861.20701,5977.62093 C5862.64548,5961.79516 5832.43843,5980.49829 5832.43843,5966.11126 C5835.31527,5933.02129 5841.06904,5941.65339 5816.61557,5907.12459 L5815.1772,5904.24722 C5810.8619,5905.68595 5806.54659,5905.68595 5799.35434,5907.12459 C5789.28526,5907.12459 5787.84699,5927.26645 5784.96995,5930.14372 C5766.27036,5945.96949 5702.97932,5947.40822 5682.84116,5938.77592 C5672.77207,5934.45982 5664.14146,5924.38909 5652.63411,5920.07299 C5649.75707,5918.63425 5620.98849,5922.95035 5616.67318,5917.19552 C5586.46593,5878.35062 5553.38205,5861.08632 5514.54428,5829.43488 C5504.4753,5827.99615 5480.02183,5822.24131 5474.26805,5823.68004 C5458.44539,5826.55741 5480.02183,5846.69928 5471.39121,5852.45411 C5464.19917,5855.33148 5455.56856,5851.01538 5448.37631,5853.89275 C5445.49947,5855.33148 5449.81478,5861.08632 5446.93794,5863.96358 C5432.55355,5875.47335 5409.53865,5876.91188 5395.15426,5889.86018 C5377.89303,5905.68595 5426.79977,5945.96949 5405.22334,5961.79516 C5354.87803,5997.76259 5386.52364,5937.33729 5353.43956,5984.81439 C5349.12425,5990.56923 5366.38548,5992.00796 5369.26242,5999.20133 C5372.13925,6004.95616 5354.87803,6003.51743 5354.87803,6009.27226 C5354.87803,6012.14963 5369.26242,6030.85276 5363.50864,6038.04623 C5347.68598,6053.872 5324.67098,6029.41403 5310.28659,6029.41403 C5288.71015,6029.41403 5330.42465,6049.5559 5294.46373,6039.48496 C5284.39485,6036.6076 5271.44892,6020.78183 5267.13362,6012.14963 C5264.25668,6009.27226 5261.37984,6000.64006 5259.94137,6003.51743 C5254.1876,6012.14963 5255.62607,6022.22056 5249.87229,6029.41403 C5231.17279,6053.872 5205.28085,6029.41403 5183.70432,6036.6076 C5180.82748,6038.04623 5186.58115,6043.80106 5183.70432,6046.67833 C5170.75839,6053.872 5144.86665,6052.43316 5131.92073,6046.67833 C5127.60542,6046.67833 5118.97471,6042.36223 5118.97471,6046.67833 C5120.41318,6058.188 5130.48226,6066.8202 5134.79757,6076.89113 C5134.79757,6078.32977 5131.92073,6078.32977 5131.92073,6079.7685 C5133.3591,6091.27817 5130.48226,6102.78774 5136.23604,6111.41994 C5136.23604,6111.41994 5137.67441,6111.41994 5137.67441,6112.85867 C5131.92073,6121.49077 5154.93554,6131.56171 5162.12788,6141.63254 C5167.88166,6150.26474 5172.19686,6187.67091 5179.38901,6179.03871 C5186.58115,6170.40661 5190.89646,6158.89694 5196.65024,6148.82611 C5198.08871,6144.51001 5199.52717,6140.19391 5199.52717,6135.87781 C5199.52717,6134.43907 5195.21187,6135.87781 5195.21187,6133.00034 C5195.21187,6131.56171 5195.21187,6125.80687 5196.65024,6127.24571 C5202.40401,6128.68424 5198.08871,6161.77441 5213.91136,6135.87781 C5216.7884,6128.68424 5216.7884,6121.49077 5216.7884,6112.85867 C5216.7884,6111.41994 5213.91136,6109.9811 5213.91136,6107.10384 C5213.91136,6105.6651 5215.34993,6111.41994 5216.7884,6109.9811 C5228.29575,6104.22647 5218.22667,6065.38147 5231.17279,6065.38147 C5272.88729,6062.5041 5258.5029,6078.32977 5284.39485,6099.91037 C5290.14842,6104.22647 5298.77903,6099.91037 5303.09444,6104.22647 C5328.98628,6134.43907 5298.77903,6171.84534 5327.54781,6203.49668 C5336.17843,6213.56751 5360.6318,6235.14811 5370.70078,6242.34148 C5382.20834,6248.09642 5418.16916,6253.85105 5406.66161,6258.16715 C5386.52364,6263.92198 5349.12425,6222.19971 5354.87803,6276.87028 C5356.31649,6294.13459 5422.48447,6331.54086 5432.55355,6344.48916 C5435.43039,6345.92789 5421.046,6340.17306 5423.92294,6341.61179 C5432.55355,6347.36662 5469.95274,6358.87619 5471.39121,6363.19219 C5474.26805,6373.26313 5465.63744,6389.08879 5472.82978,6397.72099 C5477.14499,6400.59846 5521.73653,6384.77269 5523.175,6383.33406 C5551.94358,6377.57923 5531.80561,6389.08879 5567.76644,6402.03709 C5579.27389,6404.91456 5592.21971,6400.59846 5603.72736,6404.91456 C5619.55002,6410.6693 5629.6191,6436.5659 5646.88033,6445.1981 C5667.0185,6453.8303 5679.96432,6459.58513 5685.71799,6465.33987 C5685.71799,6466.7786 5687.15646,6465.33987 5687.15646,6465.33987 C5690.0333,6465.33987 5692.91024,6462.4625 5694.34861,6465.33987 C5700.10238,6475.4108 5691.47177,6475.4108 5704.41769,6481.16564 C5708.733,6476.84954 5718.80198,6476.84954 5720.24055,6471.0947 C5727.43259,6452.39157 5665.57993,6427.9338 5659.82615,6417.86286 C5654.07238,6409.23066 5658.38768,6396.28236 5652.63411,6387.65016 C5648.3188,6381.89533 5638.24972,6383.33406 5631.05757,6380.45659 C5600.85032,6361.75346 5582.15073,6327.22476 5556.25888,6305.64425 C5547.62827,6299.88942 5514.54428,6266.79935 5504.4753,6262.48325 C5500.15999,6261.04462 5494.40622,6266.79935 5490.09091,6263.92198 C5482.89887,6256.72852 5500.15999,6240.90275 5500.15999,6238.02548 C5498.72152,6232.27065 5491.52938,6230.83181 5487.21407,6226.51581 C5475.70652,6209.25141 5471.39121,6186.23218 5455.56856,6171.84534 C5449.81478,6164.65177 5438.30723,6164.65177 5431.11508,6158.89694 C5425.36131,6154.58084 5415.29242,6071.1363 5446.93794,6072.57503 C5461.32223,6072.57503 5485.7756,6104.22647 5498.72152,6111.41994 L5510.22898,6109.9811 L5498.72152,6111.41994 C5515.98275,6109.9811 5513.10591,6082.64587 5521.73653,6071.1363 C5537.55919,6052.43316 5544.75143,6075.4524 5564.8895,6071.1363 C5570.64327,6069.69757 5570.64327,6058.188 5576.39705,6053.872 C5576.39705,6053.872 5585.02766,6062.5041 5609.48094,6069.69757 C5612.35787,6071.1363 5616.67318,6072.57503 5620.98849,6071.1363 C5623.86533,6071.1363 5625.3038,6065.38147 5629.6191,6063.94283 C5646.88033,6062.5041 5685.71799,6084.0846 5704.41769,6081.20723 C5708.733,6081.20723 5713.0482,6078.32977 5714.48677,6074.01367 C5718.80198,6071.1363 5717.36351,6061.06537 5723.11729,6061.06537 C5731.7479,6059.62683 5737.50168,6068.25893 5746.13229,6071.1363 C5761.95505,6075.4524 5743.25545,6063.94283 5751.88607,6061.06537 C5760.51668,6058.188 5770.58576,6058.188 5779.21638,6061.06537 C5784.96995,6062.5041 5789.28526,6071.1363 5795.03904,6071.1363 C5799.35434,6071.1363 5795.03904,6061.06537 5799.35434,6061.06537 C5832.43843,6062.5041 5823.80782,6098.47164 5839.63048,6101.349 C5849.69956,6102.78774 5858.33017,6099.91037 5865.52232,6097.0329 L5865.52232,6097.0329 Z" id="hr" fill="#87B024"></path>
                        <path d="M5842.91265,6558.87008 C5850.10379,6560.30781 5854.0211,6560.35594 5861.21335,6560.35594 C5858.33691,6563.2315 5855.45937,6566.10696 5856.89874,6570.42035 C5877.0361,6614.99147 5881.35191,6573.29591 5901.48938,6583.36042 C5905.80519,6586.23598 5902.92875,6591.9871 5905.80519,6596.30039 C5917.31324,6610.67829 5931.69663,6607.80273 5941.76641,6623.61825 C5944.64295,6627.93154 5941.76641,6636.55832 5946.08112,6640.87161 C5954.71163,6649.49839 5966.21968,6653.81158 5977.72663,6656.68734 L5977.72663,6627.93154 C5977.72663,6622.18032 5980.60417,6614.99147 5977.72663,6609.24036 C5973.41193,6602.05161 5960.46561,6602.05161 5959.02744,6594.86276 C5959.02744,6593.42493 6005.05745,6499.96908 6009.37326,6497.09352 C6010.81142,6495.65579 6018.00367,6531.60034 6029.51062,6533.03807 L6062.60003,6507.87579 C6059.57755,6492.73697 6062.13958,6492.28621 6066.6669,6477.40646 C6068.89019,6470.09926 6065.60202,6474.78934 6073.44385,6468.32588 C6076.89208,6465.48435 6084.21848,6456.25939 6084.21848,6456.25939 C6084.21848,6456.25939 6104.4898,6448.77964 6096.53506,6442.69464 C6080.75677,6430.62371 6057.26609,6411.53957 6041.90903,6404.40212 C6031.99673,6399.7955 6044.42706,6380.1672 6034.76015,6370.65683 C6016.65904,6352.84763 5972.74188,6342.00483 5959.02744,6333.18651 C5953.27336,6337.4998 5946.08112,6323.122 5938.88887,6325.99756 C5930.25836,6328.87312 5928.82019,6340.37536 5923.06611,6347.56441 C5912.99743,6350.43987 5885.66662,6344.68875 5884.22835,6351.8778 C5879.91375,6372.00652 5915.87387,6373.44435 5904.36692,6403.63778 C5889.98243,6393.57327 5889.76121,6383.77637 5875.27768,6383.77637 C5861.21335,6389.71618 5856.89874,6441.02005 5851.14466,6448.209 C5839.63661,6462.5868 5835.32191,6441.02005 5831.0061,6462.5868 C5823.81385,6504.28247 5868.32699,6505.7202 5835.24331,6537.35136 L5835.24331,6542.73143 L5842.91265,6558.87008 Z" id="me" fill="#87B024"></path>
                        <path d="M6149.32982,6409.3392 C6152.65068,6398.42292 6144.59798,6401.7712 6147.47492,6380.82724 C6170.04018,6370.37213 6180.8018,6369.91216 6187.99404,6377.10101 C6207.19929,6392.92407 6214.19512,6400.54398 6221.8078,6412.01369 C6227.49935,6420.58877 6232.68635,6436.49375 6232.68635,6436.49375 C6268.64768,6460.93615 6238.27753,6455.80632 6246.90805,6450.05531 C6250.86374,6447.53923 6250.75112,6450.83049 6248.64933,6457.16023 C6246.54753,6463.48998 6283.3138,6459.44954 6279.31275,6469.08741 C6275.31159,6478.72527 6304.59696,6480.33205 6302.85488,6487.74015 C6302.41939,6489.59227 6305.79013,6495.19893 6298.71572,6498.73052 C6291.64131,6502.2621 6301.98519,6511.91021 6292.96515,6515.678 C6283.94511,6519.44589 6269.73055,6541.66505 6297.06015,6537.35176 C6320.07516,6533.03837 6366.10517,6488.46704 6384.80557,6505.7205 C6391.99781,6492.78043 6412.13517,6489.90497 6404.94293,6471.21378 C6403.50476,6465.46276 6399.19006,6462.5871 6394.87425,6459.71164 C6391.99781,6458.27371 6387.682,6461.14937 6386.24373,6458.27371 C6384.80557,6451.08486 6386.24373,6443.89592 6386.24373,6436.70707 C6384.80557,6428.08049 6374.73568,6419.45371 6379.05149,6412.26476 C6420.76569,6343.25132 6373.29751,6428.08049 6419.32742,6392.13584 C6423.64333,6387.82255 6453.85058,6334.62454 6445.22006,6325.99796 C6433.71201,6317.37118 6379.05149,6291.49114 6376.17505,6288.61568 C6358.91292,6274.23778 6331.58331,6213.85093 6341.65199,6192.28428 C6345.9678,6182.21977 6361.79056,6183.6575 6367.54343,6175.03102 C6371.85924,6164.96641 6366.10517,6152.02634 6370.42098,6141.96193 C6350.28251,6133.33515 6331.58331,6120.39518 6334.45975,6100.26636 C6335.89792,6087.32619 6383.3673,6085.88856 6368.98281,6078.69951 C6216.50829,6002.49713 6353.16005,6071.51066 6291.30618,6107.45521 C6281.2375,6114.64396 6275.48342,6088.76402 6265.41474,6084.45073 C6258.22249,6080.13734 6248.15371,6084.45073 6240.96146,6084.45073 C6232.33095,6084.45073 6223.70054,6088.76402 6215.07002,6085.88856 C6210.75422,6083.0128 6213.63065,6075.82395 6210.75422,6070.07283 C6203.56197,6055.69524 6141.7092,6078.69951 6176.23116,6054.25741 C6184.86278,6048.50619 6206.43841,6042.75497 6199.24616,6037.00395 C6192.05502,6032.69056 6177.67053,6037.00395 6174.79289,6028.37737 C6173.35472,6019.75059 6203.56197,6003.93496 6183.4234,5992.43282 C6156.09369,5976.61719 6101.43327,5983.80614 6082.73287,5950.73715 C6078.41827,5943.5481 6078.41827,5909.04138 6078.41827,5900.4148 L6078.41827,5897.53914 C6074.10246,5898.97687 6071.22602,5907.60365 6068.34838,5904.72799 C6058.2797,5898.97687 6056.84143,5883.16134 6048.21102,5875.97259 C6039.58051,5870.22137 6026.63418,5871.659 6018.00367,5864.47015 C6009.37326,5860.15686 6005.05745,5850.09246 5999.30337,5842.90351 C5992.11113,5842.90351 5984.91888,5835.71456 5977.72663,5835.71456 C5976.28837,5835.71456 5938.88887,5847.2168 5937.4506,5847.2168 C5912.99743,5845.77907 5940.32824,5824.21232 5907.24335,5845.77907 C5891.4206,5854.40564 5882.79018,5871.659 5869.84386,5881.72351 C5856.89874,5891.78802 5851.14466,5877.41012 5846.82886,5881.72351 C5828.12966,5903.29026 5826.69139,5904.72799 5815.18334,5904.72799 L5816.62161,5907.60365 C5841.07598,5942.11037 5835.32191,5933.48379 5832.44437,5966.55258 C5832.44437,5980.93048 5862.65161,5962.23919 5861.21335,5978.05502 C5859.77518,5986.6816 5849.7064,5978.05502 5848.26712,5979.49255 C5839.63661,5988.11943 5854.0211,5990.99499 5854.0211,5995.30828 C5854.0211,5996.74621 5841.07598,5999.62157 5848.26712,6005.37269 C5865.52915,6016.87493 5888.54416,6022.62615 5908.68162,6022.62615 C5912.99743,6051.38164 5877.0361,6022.62615 5875.59794,6029.815 C5874.15967,6048.50619 5861.21335,6055.69524 5879.91375,6074.38612 C5881.35191,6075.82395 5881.35191,6078.69951 5879.91375,6080.13734 C5874.15967,6090.20175 5852.58293,6083.0128 5865.52915,6097.3908 C5879.91375,6093.07741 5891.4206,6084.45073 5907.24335,6085.88856 C5907.24335,6130.45969 5881.35191,6160.65312 5885.66662,6187.97089 C5891.4206,6219.60215 5900.05111,6196.59757 5920.18968,6205.22435 C5933.136,6210.97547 5936.01244,6229.66656 5948.95876,6236.85551 C5953.27336,6238.29334 5967.65785,6233.97995 5963.34325,6246.91992 C5954.71163,6275.67571 5918.75141,6244.04456 5911.55916,6254.10876 C5911.55916,6254.10876 5976.28837,6314.49562 5959.02744,6333.18691 C5992.84622,6350.80427 5975.88429,6344.00321 6028.60661,6366.21022 C6046.51822,6371.97429 6029.80058,6402.56415 6045.65184,6408.85675 C6070.74085,6418.81686 6071.22291,6430.40914 6088.36179,6439.45564 C6104.34654,6447.89349 6101.86992,6444.36987 6111.78802,6446.57255 C6134.80302,6446.57255 6146.00895,6420.25549 6149.32982,6409.3392 Z" id="sr" fill="#87B024"></path>
                        <path d="M6137.85081,6570.4059 C6141.34266,6576.05408 6144.51822,6585.47467 6145.15842,6597.21791 C6145.68294,6606.83932 6143.76643,6618.86821 6145.15842,6624.50721 C6151.18353,6629.7354 6159.83356,6632.85648 6165.30471,6632.55564 C6170.77586,6632.2548 6168.44576,6626.15888 6173.0753,6627.31588 C6173.0753,6617.25127 6169.8009,6582.71775 6178.1824,6580.68171 C6201.85803,6574.93049 6201.38242,6566.16646 6209.89763,6564.26503 C6209.89763,6562.8272 6220.01581,6563.89726 6232.63071,6562.29871 C6241.41904,6570.4059 6241.41904,6575.5227 6246.25078,6572.30718 C6251.08252,6569.09165 6249.36595,6541.02097 6255.06402,6537.29324 C6266.46017,6529.83766 6294.28178,6543.05449 6287.97227,6534.57398 C6286.39489,6532.45382 6306.2445,6493.52731 6304.21717,6489.81412 C6302.18984,6486.10084 6309.29447,6477.14881 6307.03158,6472.8551 C6304.76859,6468.56128 6286.45029,6474.97595 6284.16592,6471.1143 C6282.59995,6468.467 6280.24026,6464.32603 6275.06599,6462.44917 C6272.69227,6461.58816 6267.70049,6464.76024 6265.52233,6462.44917 C6258.59626,6455.10041 6267.84634,6451.54052 6265.85766,6450.01917 C6257.96846,6443.98385 6252.99956,6434.15746 6241.41904,6428.28056 C6229.83842,6422.40375 6220.80975,6395.4808 6213.13112,6391.91218 C6203.21891,6387.30546 6186.13689,6375.15124 6180.27208,6373.25873 C6175.84502,6371.83017 6166.24337,6364.94847 6148.91972,6379.88582 C6131.59596,6394.82317 6155.47402,6397.07534 6149.72055,6412.172 L6122.65109,6442.35338 C6110.18182,6452.72126 6101.40376,6438.46603 6095.64969,6445.65498 C6084.14163,6460.03278 6068.97417,6460.17543 6064.65837,6481.74218 C6052.325,6525.85816 6077.91171,6503.60548 6077.91171,6525.85815 C6077.91171,6525.85815 6082.2685,6544.77988 6091.48403,6551.2705 C6100.69957,6557.76112 6114.30874,6551.72916 6125.47574,6558.43144 L6137.85081,6570.4059 Z" id="path2228" fill="#87B024"></path>
                        <path d="M7187.44383,7685.35676 C7171.62107,7715.56947 7200.38965,7695.4277 7184.567,7740.02734 C7183.12853,7744.34344 7066.61534,7770.24004 7055.10789,7774.55614 C7046.47727,7777.43351 6965.92501,7814.83968 6957.29439,7807.64621 C6931.40245,7778.87224 6977.43236,7781.74971 6895.44153,7771.67877 C6812.01243,7761.60784 6915.57969,7781.74971 6845.09631,7781.74971 C6840.78101,7781.74971 6839.34274,7774.55614 6835.02743,7774.55614 C6826.39682,7773.11741 6816.32773,7774.55614 6806.25865,7775.99487 C6796.18957,7778.87224 6784.68212,7784.62707 6774.61303,7786.06581 C6753.0366,7786.06581 6761.66721,7758.73047 6763.10568,7750.09827 C6763.10568,7738.5886 6758.79037,7725.6404 6763.10568,7715.56947 C6778.92834,7670.96973 6793.31273,7721.3243 6803.38181,7725.6404 C6813.4509,7729.9565 6824.95835,7724.20157 6835.02743,7719.88557 C6842.21948,7717.0082 6846.53478,7698.30507 6852.28856,7704.0599 C6859.4807,7709.81473 6835.02743,7715.56947 6837.90417,7722.76303 C6839.34274,7729.9565 6852.28856,7725.6404 6859.4807,7728.51767 C6866.67295,7731.39524 6872.42662,7741.46597 6881.05724,7742.9047 C6888.24948,7744.34344 6894.00326,7738.5886 6901.1953,7735.71134 C6915.57969,7731.39524 6925.64878,7719.88557 6938.5947,7715.56947 C6954.41746,7711.25337 6970.24032,7712.6921 6986.06297,7709.81473 C6996.13206,7706.93727 6987.50144,7718.44693 6996.13206,7719.88557 C7011.95482,7724.20157 7027.77768,7711.25337 7045.0388,7712.6921 C7049.35411,7712.6921 7052.23095,7721.3243 7056.54625,7719.88557 C7063.7385,7718.44693 7089.63024,7696.86633 7102.57616,7699.7438 C7105.4531,7701.18243 7080.99973,7731.39524 7115.52208,7741.46597 C7122.71433,7744.34344 7122.71433,7728.51767 7128.468,7724.20157 C7158.67515,7693.98897 7154.35995,7732.83377 7187.44383,7685.35676 L7187.44383,7685.35676 Z M6891.12632,6596.26154 L6892.56479,6594.8229 L6892.56479,6594.8229 L6894.00326,6594.8229 L6894.00326,6594.8229 L6894.00326,6594.8229 L6894.00326,6594.8229 L6894.00326,6594.8229 L6894.00326,6594.8229 L6894.00326,6594.8229 L6894.00326,6594.8229 L6894.00326,6594.8229 L6894.00326,6594.8229 L6894.00326,6594.8229 L6894.00326,6594.8229 L6894.00326,6594.8229 L6894.00326,6594.8229 L6894.00326,6594.8229 L6894.00326,6594.8229 L6894.00326,6594.8229 L6894.00326,6594.8229 L6894.00326,6594.8229 L6894.00326,6594.8229 C6895.44153,6594.8229 6940.03307,6580.43587 6940.03307,6580.43587 C6971.67858,6555.9779 6881.05724,6515.69436 6937.15623,6504.1848 L6937.15623,6504.1848 L6937.15623,6504.1848 L6937.15623,6504.1848 L6938.5947,6504.1848 L6938.5947,6504.1848 L6938.5947,6504.1848 L6938.5947,6504.1848 L6938.5947,6504.1848 L6938.5947,6504.1848 L6942.91,6504.1848 L6942.91,6504.1848 L6944.34837,6504.1848 L6944.34837,6504.1848 L6945.78684,6504.1848 L6945.78684,6504.1848 L6945.78684,6504.1848 L6945.78684,6504.1848 C6948.66368,6504.1848 6951.54062,6504.1848 6952.97889,6505.62343 L6952.97889,6505.62343 L6955.85593,6505.62343 L6955.85593,6505.62343 C6987.50144,6512.817 7030.65441,6543.0297 7009.07798,6568.9262 C6993.25522,6586.1906 6977.43236,6577.5584 6971.67858,6606.33247 L6983.18614,6648.05474 C6981.74767,6658.12558 6961.6097,6691.21564 6951.54062,6696.97048 L6950.10215,6712.79615 C6925.64878,6699.84785 6971.67858,6698.40911 6948.66368,6678.26734 C6937.15623,6669.63524 6891.12632,6689.77691 6876.74193,6688.33828 C6830.71212,6685.46081 6824.95835,6655.24821 6794.7512,6692.65438 C6787.55895,6701.28658 6780.36681,6708.48005 6771.73629,6714.23488 C6731.46006,6735.81528 6753.0366,6685.46081 6712.76047,6709.91878 C6696.93761,6719.98971 6708.44516,6744.44748 6676.79954,6758.83452 C6649.46933,6770.34408 6646.59249,6735.81528 6620.70055,6768.90545 C6610.63157,6781.85375 6627.8928,6780.41502 6632.2081,6783.29249 C6645.15402,6790.48595 6643.71545,6812.06636 6655.22311,6823.57602 C6658.09984,6826.45339 6663.85362,6825.01466 6669.6074,6823.57602 C6671.04577,6823.57602 6672.48423,6822.13729 6673.9227,6819.25992 C6673.9227,6816.38246 6668.16893,6810.62782 6672.48423,6810.62782 C6678.23801,6809.18899 6678.23801,6822.13729 6683.99169,6823.57602 C6699.81455,6827.89212 6732.89843,6833.64686 6738.65221,6855.22746 C6750.15976,6896.94963 6701.25281,6836.52432 6701.25281,6836.52432 C6685.43016,6827.89212 6639.40025,6822.13729 6635.08494,6849.47263 C6630.76963,6866.73693 6668.16893,6860.98209 6679.67638,6872.49176 C6688.30699,6881.12396 6686.86862,6909.89793 6676.79954,6905.58183 C6653.78454,6896.94963 6652.34607,6871.05303 6629.33116,6859.54356 C6623.57749,6858.10483 6617.82371,6860.98209 6612.06994,6859.54356 C6604.87779,6859.54356 6596.24718,6852.34999 6591.93197,6858.10483 C6558.84788,6894.07226 6655.22311,6904.1432 6648.03076,6917.0915 C6645.15402,6921.4076 6607.75463,6919.96876 6596.24718,6917.0915 C6591.93197,6915.65276 6581.86289,6869.61429 6581.86289,6869.61429 C6570.35544,6855.22746 6530.0793,6863.85966 6514.25645,6852.34999 C6484.0493,6829.33076 6514.25645,6833.64686 6514.25645,6804.87289 C6514.25645,6799.11805 6498.43369,6814.94382 6489.80307,6822.13729 C6482.61083,6829.33076 6471.10348,6835.08559 6469.66491,6845.15653 C6468.22644,6852.34999 6482.61083,6853.78873 6484.0493,6860.98209 L6473.98021,6904.1432 C6478.29552,6931.47853 6511.37961,6944.42673 6527.20227,6961.69114 L6545.90196,6999.09731 C6555.97105,7009.16814 6629.33116,7045.13558 6617.82371,7062.40008 C6614.94687,7066.71618 6558.84788,7037.94221 6554.53258,7039.38094 C6550.21727,7039.38094 6554.53258,7048.01314 6554.53258,7052.32924 C6551.65574,7062.40008 6535.83288,7083.98058 6545.90196,7082.54185 C6548.7788,7081.10311 6547.34043,7073.90964 6550.21727,7075.34838 C6554.53258,7076.78701 6553.09411,7083.98058 6557.40941,7086.85795 C6567.4785,7094.05141 6599.12402,7094.05141 6574.67074,7115.63202 C6554.53258,7132.89632 6534.39461,7134.33505 6507.0643,7145.84462 C6502.74899,7147.28335 6515.69491,7151.59945 6520.01022,7150.16072 C6524.32553,7148.72198 6527.20227,7141.52852 6532.95604,7141.52852 C6538.70982,7141.52852 6538.70982,7150.16072 6543.02513,7153.03808 C6545.90196,7154.47682 6548.7788,7151.59945 6551.65574,7150.16072 C6563.16319,7150.16072 6574.67074,7147.28335 6584.73963,7151.59945 C6593.37024,7154.47682 6591.93197,7168.86385 6600.56248,7170.30259 C6610.63157,7173.17995 6620.70055,7157.35419 6629.33116,7161.67019 C6637.96188,7165.98629 6627.8928,7184.68942 6636.52341,7189.00552 C6648.03076,7196.19909 6662.41515,7176.05722 6672.48423,7183.25079 C6678.23801,7186.12815 6672.48423,7209.14739 6695.49924,7210.58612 C6724.26782,7212.02476 6732.89843,7201.95382 6753.0366,7224.97296 C6768.85926,7242.23756 6744.40598,7235.04389 6744.40598,7245.11483 C6744.40598,7252.30829 6753.0366,7256.62439 6754.47507,7262.37923 C6757.3519,7269.57269 6753.0366,7278.205 6755.91344,7283.95973 C6763.10568,7296.90793 6781.80538,7302.66276 6765.98252,7327.12073 C6763.10568,7331.43683 6757.3519,7328.55937 6753.0366,7327.12073 C6750.15976,7324.24327 6753.0366,7319.92717 6751.59813,7317.0498 C6750.15976,7314.17243 6732.89843,7302.66276 6731.46006,7302.66276 C6728.58312,7301.22403 6727.14476,7308.4176 6724.26782,7306.97886 C6714.19894,7299.7855 6698.37608,7271.01143 6683.99169,7266.69533 C6665.29199,7260.94049 6675.36107,7282.5211 6665.29199,7285.39846 C6648.03076,7291.1533 6599.12402,7305.54013 6603.43932,7312.7337 C6607.75463,7322.80463 6625.01586,7318.48853 6635.08494,7322.80463 C6639.40025,7324.24327 6626.45433,7327.12073 6626.45433,7331.43683 C6626.45433,7335.75293 6633.64657,7335.75293 6635.08494,7338.6303 C6637.96188,7344.38514 6633.64657,7353.01734 6637.96188,7357.33344 C6653.78454,7373.159 6681.11485,7364.5268 6695.49924,7381.7912 C6704.12985,7391.86214 6672.48423,7394.73961 6659.53831,7394.73961 C6639.40025,7396.17824 6623.57749,7394.73961 6617.82371,7393.30087 C6613.50841,7391.86214 6616.38524,7384.66867 6613.50841,7380.35257 C6612.06994,7378.91384 6607.75463,7378.91384 6606.31626,7378.91384 C6594.80871,7378.91384 6578.98605,7370.28164 6571.7938,7378.91384 C6560.28635,7394.73961 6607.75463,7430.70714 6613.50841,7440.77788 C6614.94687,7446.53271 6610.63157,7452.28754 6612.06994,7456.60364 C6614.94687,7460.91975 6623.57749,7456.60364 6626.45433,7460.91975 C6632.2081,7470.99068 6649.46933,7502.64202 6655.22311,7515.59032 C6660.97668,7528.53862 6643.71545,7519.90642 6643.71545,7524.22252 C6643.71545,7528.53862 6649.46933,7529.97735 6650.9078,7532.85472 C6650.9078,7535.73208 6645.15402,7540.04808 6646.59249,7542.92565 C6648.03076,7545.80292 6681.11485,7564.50605 6678.23801,7576.01562 C6675.36107,7580.33172 6665.29199,7580.33172 6659.53831,7578.89309 C6655.22311,7576.01562 6656.66138,7567.38342 6652.34607,7564.50605 C6649.46933,7561.62859 6643.71545,7568.82215 6639.40025,7565.94479 C6614.94687,7547.24175 6604.87779,7489.69361 6568.91697,7540.04808 C6567.4785,7542.92565 6570.35544,7573.13825 6573.23227,7590.40266 C6574.67074,7594.71876 6574.67074,7604.78969 6570.35544,7603.35086 C6534.39461,7599.03486 6557.40941,7563.06732 6545.90196,7547.24175 C6544.46349,7545.80292 6540.14819,7547.24175 6538.70982,7545.80292 C6530.0793,7537.17082 6525.764,7527.09988 6518.57175,7517.02895 C6514.25645,7509.83548 6511.37961,7496.88718 6502.74899,7495.44845 C6433.70408,7479.62288 6495.55675,7545.80292 6471.10348,7557.31249 C6429.38877,7576.01562 6440.89623,7528.53862 6439.45786,7518.46768 C6439.45786,7515.59032 6435.14255,7515.59032 6433.70408,7515.59032 C6420.75816,7517.02895 6413.56592,7499.76455 6410.68908,7483.93898 C6407.81234,7462.35848 6425.07347,7486.81625 6427.95031,7453.72618 C6429.38877,7430.70714 6391.98948,7401.93307 6373.28978,7396.17824 C6368.97448,7394.73961 6364.65917,7404.81044 6361.78233,7400.49434 C6356.02856,7393.30087 6361.78233,7380.35257 6354.59019,7373.159 C6345.95967,7364.5268 6307.12181,7376.03647 6327.25998,7348.70124 C6328.69835,7347.2625 6334.45212,7350.13997 6335.89059,7347.2625 C6358.90549,7331.43683 6347.39794,7318.48853 6354.59019,7291.1533 C6354.59019,7288.27583 6357.46703,7296.90793 6360.34386,7296.90793 C6361.78233,7296.90793 6357.46703,7291.1533 6358.90549,7291.1533 C6373.28978,7291.1533 6387.67417,7305.54013 6399.18173,7294.03066 C6415.00438,7278.205 6393.42795,7276.76626 6422.19663,7258.06313 C6442.3347,7245.11483 6456.71909,7266.69533 6472.54174,7272.45016 C6495.55675,7281.08236 6522.88696,7278.205 6547.34043,7285.39846 C6561.72482,7288.27583 6570.35544,7305.54013 6584.73963,7306.97886 C6590.4934,7308.4176 6602.00095,7301.22403 6600.56248,7294.03066 C6597.68575,7288.27583 6581.86289,7295.4694 6578.98605,7288.27583 C6564.60166,7255.18576 6614.94687,7304.1015 6632.2081,7256.62439 C6633.64657,7252.30829 6622.13902,7259.50186 6616.38524,7256.62439 C6613.50841,7255.18576 6616.38524,7247.99219 6613.50841,7247.99219 C6610.63157,7247.99219 6609.1931,7265.25659 6602.00095,7256.62439 C6590.4934,7242.23756 6581.86289,7262.37923 6563.16319,7253.74703 C6553.09411,7247.99219 6550.21727,7230.72789 6538.70982,7229.28906 C6531.51757,7227.85053 6535.83288,7250.86966 6527.20227,7250.86966 C6501.31052,7249.43093 6518.57175,7190.44425 6499.87206,7223.53442 C6496.99522,7229.28906 6507.0643,7240.79873 6501.31052,7245.11483 C6491.24144,7255.18576 6445.21153,7236.48273 6435.14255,7240.79873 C6416.44285,7247.99219 6402.05846,7265.25659 6374.72825,7272.45016 C6358.90549,7276.76626 6354.59019,7252.30829 6345.95967,7247.99219 C6341.64417,7246.55356 6347.39794,7258.06313 6344.5212,7260.94049 C6338.76733,7269.57269 6328.69835,7276.76626 6320.06773,7281.08236 C6317.19089,7282.5211 6318.62936,7275.32753 6317.19089,7275.32753 C6301.36803,7268.13406 6317.19089,7255.18576 6307.12181,7239.35999 C6301.36803,7230.72789 6294.17589,7222.09569 6285.54528,7216.34086 C6282.66854,7214.90222 6278.35323,7220.65696 6276.91476,7217.77959 C6269.72242,7212.02476 6272.59945,7199.07646 6265.40721,7194.76036 C6251.02292,7184.68942 6225.13098,7223.53442 6246.70761,7170.30259 C6243.83067,7168.86385 6240.95384,7167.42502 6236.63853,7164.54775 C6232.32322,7160.23165 6235.20006,7153.03808 6232.32322,7148.72198 C6216.50036,7128.58022 6176.22423,7109.87718 6158.963,7095.49015 C6153.20923,7092.61278 6161.83984,7078.22575 6157.52453,7073.90964 C6153.20923,7069.59354 6131.63279,7085.41921 6117.2484,7050.89041 C6118.68687,7049.45168 6118.68687,7049.45168 6120.12534,7048.01314 C6121.56371,7046.57431 6118.68687,7045.13558 6120.12534,7045.13558 C6144.57871,7040.81947 6160.40147,7060.96134 6158.963,7023.55517 C6158.963,7014.92297 6179.10117,7027.87127 6174.78586,7014.92297 L6156.08627,6986.1489 C6157.52453,6976.07817 6202.11617,6961.69114 6204.99301,6957.37503 C6204.99301,6955.9363 6213.62363,6898.38836 6213.62363,6898.38836 C6223.69261,6859.54356 6232.32322,6907.02056 6246.70761,6852.34999 C6251.02292,6835.08559 6230.88475,6829.33076 6230.88475,6810.62782 C6240.95384,6812.06636 6337.32886,6781.85375 6343.08263,6777.53765 C6358.90549,6760.27325 6347.39794,6737.25412 6376.16672,6727.18318 C6386.23581,6722.86708 6442.3347,6730.06045 6450.96531,6724.30581 C6455.28062,6721.42835 6453.84225,6712.79615 6458.15755,6709.91878 C6461.03439,6708.48005 6465.3497,6717.11225 6468.22644,6714.23488 C6485.48767,6702.72531 6446.65,6679.70618 6492.67991,6671.07398 L6492.67991,6671.07398 C6491.24144,6672.51251 6492.67991,6675.39008 6492.67991,6675.39008 C6494.11838,6672.51251 6494.11838,6663.88041 6494.11838,6652.37084 L6494.11838,6671.07398 L6492.67991,6671.07398 L6511.37961,6671.07398 C6517.13318,6671.07398 6524.32553,6675.39008 6528.64084,6671.07398 C6534.39461,6668.19651 6534.39461,6656.68694 6540.14819,6653.80947 C6555.97105,6643.73864 6577.54758,6649.49337 6594.80871,6643.73864 C6635.08494,6629.35161 6645.15402,6612.08731 6671.04577,6596.26154 C6675.36107,6593.38417 6682.55332,6604.89364 6688.30699,6602.01637 C6696.93761,6600.57764 6701.25281,6586.1906 6709.88363,6589.06807 C6721.39098,6590.5067 6724.26782,6606.33247 6734.3369,6612.08731 C6735.77537,6614.96457 6740.09068,6609.20974 6742.96751,6610.64857 C6747.28282,6612.08731 6750.15976,6622.15804 6754.47507,6620.71941 C6760.22874,6619.28067 6760.22874,6607.7712 6765.98252,6606.33247 C6781.80538,6602.01637 6800.50487,6610.64857 6814.88926,6617.84194 C6817.7662,6619.28067 6814.88926,6626.47414 6819.20457,6626.47414 C6839.34274,6627.91287 6870.98826,6603.4551 6891.12632,6596.26154 L6891.12632,6596.26154 L6891.12632,6596.26154 L6891.12632,6596.26154 Z M6305.68334,7153.03808 C6322.94467,7121.38665 6279.7915,7155.91555 6278.35323,7154.47682 C6268.28415,7150.16072 6259.65353,7131.45758 6251.02292,7137.21242 C6248.14598,7137.21242 6258.21506,7158.79292 6256.7766,7167.42502 C6271.16099,7167.42502 6297.05273,7167.42502 6305.68334,7153.03808 L6305.68334,7153.03808 Z M6281.22997,7324.24327 C6269.72242,7334.3142 6265.40721,7319.92717 6255.33823,7318.48853 C6249.58445,7318.48853 6243.83067,7325.682 6238.077,7324.24327 C6228.00792,7321.3659 6232.32322,7288.27583 6223.69261,7295.4694 C6219.3774,7298.34666 6226.56945,7308.4176 6223.69261,7314.17243 C6212.18506,7338.6303 6204.99301,7296.90793 6236.63853,7255.18576 C6240.95384,7262.37923 6246.70761,7269.57269 6249.58445,7278.205 C6249.58445,7279.64363 6245.26914,7292.59183 6252.46129,7294.03066 C6259.65353,7295.4694 6297.05273,7311.29497 6281.22997,7324.24327 L6281.22997,7324.24327 Z M6773.17456,7201.95382 C6765.98252,7193.32162 6755.91344,7186.12815 6744.40598,7181.81205 C6727.14476,7176.05722 6702.69138,7203.39256 6683.99169,7184.68942 C6681.11485,7180.37332 6689.74546,7174.61869 6686.86862,7170.30259 C6682.55332,7157.35419 6597.68575,7117.07055 6581.86289,7119.94802 C6573.23227,7122.82538 6568.91697,7132.89632 6561.72482,7137.21242 C6557.40941,7138.65115 6564.60166,7128.58022 6567.4785,7125.70275 C6571.7938,7121.38665 6577.54758,7117.07055 6581.86289,7112.75445 C6587.61666,7106.99981 6591.93197,7102.68371 6597.68575,7098.36761 C6606.31626,7092.61278 6614.94687,7088.29668 6623.57749,7083.98058 C6648.03076,7096.92888 6645.15402,7109.87718 6669.6074,7122.82538 C6673.9227,7125.70275 6679.67638,7127.14148 6685.43016,7127.14148 C6688.30699,7127.14148 6689.74546,7121.38665 6692.6223,7122.82538 C6699.81455,7125.70275 6705.56832,7134.33505 6714.19894,7137.21242 C6722.82945,7138.65115 6753.0366,7121.38665 6758.79037,7131.45758 C6760.22874,7132.89632 6757.3519,7134.33505 6757.3519,7135.77368 C6755.91344,7137.21242 6754.47507,7140.08978 6755.91344,7141.52852 C6761.66721,7147.28335 6771.73629,7147.28335 6776.0516,7154.47682 C6776.0516,7155.91555 6773.17456,7199.07646 6787.55895,7209.14739 C6803.38181,7220.65696 6868.11132,7199.07646 6842.21948,7242.23756 C6827.83519,7265.25659 6788.99742,7236.48273 6780.36681,7226.41179 C6778.92834,7223.53442 6784.68212,7222.09569 6784.68212,7219.21832 C6783.24365,7214.90222 6778.92834,7210.58612 6774.61303,7207.70866 C6771.73629,7207.70866 6768.85926,7214.90222 6767.42099,7212.02476 C6767.42099,7209.14739 6776.0516,7204.83129 6773.17456,7201.95382 L6773.17456,7201.95382 Z M6755.71099,6726.60044 C6755.69835,6726.52174 6745.97473,6735.4037 6744.20966,6735.70727 C6747.34796,6740.00369 6743.38053,6740.8889 6739.89677,6743.85551 C6741.17916,6745.4129 6742.02065,6747.09627 6742.29284,6749.12788 C6739.13718,6751.43134 6739.0587,6756.02712 6739.41751,6758.23471 C6745.38055,6757.20927 6756.38125,6758.8808 6755.23174,6765.90361 C6763.32539,6761.60076 6756.7775,6768.07998 6763.85774,6766.86229 C6763.28735,6763.72854 6764.4225,6761.73256 6767.21222,6760.63123 C6770.56922,6762.1066 6766.31755,6761.04753 6771.52522,6760.15198 C6771.27571,6759.20926 6771.07126,6758.25469 6771.04597,6757.27612 C6772.35958,6756.6453 6772.73054,6756.78443 6772.48363,6758.23471 C6776.72667,6757.505 6769.86705,6757.27723 6778.2343,6755.83819 C6776.25254,6753.1091 6779.92108,6749.08392 6776.31738,6748.64854 C6772.77319,6748.22019 6774.57168,6743.36191 6777.27579,6742.89692 C6776.92329,6739.15322 6775.41678,6738.12376 6772.48363,6739.54171 C6772.72873,6737.72171 6773.72147,6736.94613 6773.44204,6735.22792 C6774.9328,6735.45419 6776.26438,6735.4809 6777.75504,6735.70727 C6776.94778,6734.06856 6776.11754,6733.59093 6775.83822,6731.87282 C6770.24714,6735.95361 6769.23172,6725.84102 6764.81615,6726.60044 C6763.29889,6732.61407 6757.79804,6726.4352 6755.71099,6726.60044 L6755.71099,6726.60044 Z M7039.40878,6940.85088 C7037.14639,6941.81499 7034.1717,6943.38693 7034.61663,6946.12326 C7033.17786,6946.03823 7029.16927,6941.13477 7029.82437,6945.16467 C7023.7993,6946.20086 7018.75794,6948.74434 7014.4894,6949.47836 C7023.15143,6952.3222 7004.54467,6968.01526 7003.94658,6964.33691 C7000.23549,6965.36828 7001.03472,6969.03869 6997.71676,6969.60929 C6999.92846,6962.57443 6993.09694,6968.68092 6993.40376,6970.56788 C6988.06451,6974.12265 6983.78413,6972.29773 6979.98561,6969.60929 C6980.36681,6971.95481 6974.86295,6977.49944 6973.27654,6982.55056 C6974.61434,6981.83752 6975.43725,6982.02193 6975.19346,6983.50925 C6968.31858,6982.46574 6969.02256,6988.23432 6975.19346,6984.94718 C6974.05368,6993.48 6982.07005,6990.55555 6983.3401,6998.3678 C6986.19506,6996.28961 6989.17758,6997.14118 6991.00769,7001.24356 C6996.26113,7000.27383 7006.27059,7003.27447 7009.21799,7000.76432 C7013.61851,6997.0154 7018.24064,6988.89727 7017.36473,6983.50925 C7019.78871,6982.32319 7022.62691,6979.68976 7022.15689,6976.79894 C7023.46779,6975.89998 7030.85033,6975.5142 7031.74129,6975.36101 C7033.10599,6983.7551 7043.22014,6977.66166 7032.6997,6988.30229 C7032.75772,6988.65936 7023.3354,6994.10219 7022.63614,6998.3678 C7015.36471,6996.17246 7023.64213,7002.6326 7014.4894,7001.24356 C7014.3261,7001.9566 7013.67813,7002.77555 7013.05173,7003.16083 C7014.42727,7004.86117 7021.561,7011.56124 7020.24007,7011.78832 C7021.64591,7020.43588 7028.39795,7010.98744 7030.30363,7010.35039 C7030.84883,7013.70238 7039.31403,7013.25777 7042.28411,7012.747 C7046.19413,7014.3324 7046.19253,7017.2184 7050.43085,7018.49863 C7050.28833,7017.62115 7066.11109,7014.23302 7069.12041,7015.14352 C7068.58164,7011.83088 7070.12188,7014.9041 7071.51649,7014.66418 C7070.88237,7010.76368 7081.35724,7012.0706 7080.14249,7004.59876 C7076.59038,7006.41244 7074.09263,7005.53808 7072.4749,7001.7229 C7074.605,7001.35649 7083.13154,7004.81961 7083.01772,7004.11942 C7088.0357,7000.46687 7085.26084,7007.60954 7089.24764,6998.84704 C7081.91659,6997.73456 7076.91597,6982.26607 7072.4749,6983.02991 C7074.05931,6980.48823 7073.38383,6977.98641 7071.03724,6975.84025 C7064.42953,6980.6627 7056.93859,6955.24263 7047.07627,6962.41974 C7046.15068,6956.72503 7053.13044,6953.33419 7052.34768,6948.51978 C7047.60872,6951.04609 7044.67086,6948.34139 7040.84645,6948.99912 C7042.28642,6944.42412 7040.50971,6947.62253 7039.40878,6940.85088 L7039.40878,6940.85088 Z M6102.05585,7022.81242 C6101.78115,7023.68066 6095.27341,7023.13395 6096.30519,7023.29176 C6096.71569,7025.81697 6088.74038,7032.62325 6088.15845,7029.04338 C6083.81172,7028.38344 6079.34767,7032.25022 6075.69871,7032.87793 C6075.62594,7031.71405 6074.95819,7030.54837 6073.78189,7030.00207 C6073.38885,7031.30408 6069.30298,7035.48305 6073.30263,7034.7951 C6072.93709,7036.8728 6071.62669,7037.86592 6069.46889,7038.15031 C6071.74492,7041.20446 6074.34906,7044.94344 6078.09488,7045.33986 C6077.61884,7048.90517 6077.00469,7050.43446 6079.05329,7053.96744 C6093.11721,7051.54844 6082.31103,7060.41022 6089.11686,7059.23982 C6093.70928,7063.98568 6093.98419,7069.44819 6098.22201,7063.55351 C6099.89263,7067.21229 6103.71644,7071.23385 6106.84801,7072.1811 C6108.6476,7074.82577 6106.25343,7080.29189 6108.76493,7083.68444 C6111.53668,7082.77725 6113.37,7084.30794 6114.03634,7088.47758 C6112.54578,7088.25131 6111.8977,7088.59061 6112.59867,7089.91551 C6120.96572,7088.47627 6114.10619,7088.24869 6118.34924,7087.51889 C6119.63143,7089.89734 6117.03201,7090.10443 6117.39082,7092.31202 C6121.43685,7092.19417 6133.38682,7091.84784 6134.16346,7096.62581 C6135.77587,7097.26196 6147.51768,7100.07438 6148.06087,7099.98092 C6149.01406,7094.16555 6143.49685,7084.08398 6137.0388,7087.51889 C6130.47134,7091.01293 6122.83597,7081.31001 6117.39082,7082.24651 C6116.87423,7078.0313 6115.92576,7063.29592 6111.64016,7064.03286 C6111.93614,7060.79079 6113.25879,7058.75355 6113.07783,7055.40537 C6109.99815,7055.86856 6101.31594,7055.86223 6100.61819,7051.57083 L6106.36875,7050.61224 C6105.38555,7044.56327 6097.8359,7056.29921 6100.61819,7046.29845 C6101.47181,7043.23185 6103.41001,7040.91996 6105.8896,7039.1089 C6105.6456,7040.59602 6106.46842,7041.25967 6107.80642,7040.54683 C6108.31207,7037.46788 6117.76439,7033.17708 6112.11942,7029.52273 C6109.10377,7027.57273 6103.00091,7026.6044 6102.05585,7022.81242 L6102.05585,7022.81242 Z M7014.4894,7092.31202 C7008.23961,7094.89887 7001.9041,7096.23692 6996.75825,7099.98092 C6997.00224,7098.4936 6996.65909,7097.83306 6995.32058,7098.54299 C6995.7065,7100.91622 6992.28677,7105.09378 6990.52843,7106.69123 C6991.82729,7108.32963 6992.98312,7110.07755 6993.88292,7111.96361 C6996.30268,7117.92162 6998.88956,7118.35288 7005.38425,7117.23598 C7010.82327,7124.68373 7016.23881,7130.89863 7020.24007,7136.40832 C7012.46378,7134.05979 7021.1784,7142.03617 7021.19848,7142.15995 C7016.79133,7142.91816 7015.64303,7154.69325 7011.61407,7151.26677 C7008.30314,7148.44803 7006.14313,7158.54205 7006.82191,7160.3737 C7008.88397,7160.01903 7005.42429,7163.35406 7012.09332,7164.68739 C7018.52729,7165.96872 7021.94652,7172.0229 7028.86596,7172.35639 C7028.08731,7167.56737 7030.96254,7170.19939 7030.78288,7166.12532 C7029.44488,7166.83826 7029.10132,7166.65405 7029.34522,7165.16673 C7032.1526,7164.17502 7039.224,7162.18476 7038.92963,7160.3737 C7041.31416,7158.10487 7042.82238,7155.70484 7037.97111,7156.53925 C7037.98637,7156.45302 7037.29283,7150.13231 7037.0127,7150.78753 C7047.96562,7148.90358 7044.77714,7130.92935 7037.49196,7128.73933 C7036.61153,7128.47451 7039.17753,7126.29794 7038.92963,7125.86357 C7041.46692,7125.42699 7033.7629,7113.08693 7033.65822,7112.44295 C7039.9589,7114.33703 7037.2312,7104.43997 7037.49196,7099.98092 C7035.44546,7099.61019 7030.19764,7097.81941 7030.78288,7101.41885 C7029.13926,7101.70164 7014.53557,7092.59602 7014.4894,7092.31202 L7014.4894,7092.31202 Z M7175.98626,7216.45259 C7177.75946,7227.35833 7177.24949,7217.63242 7178.38244,7224.60083 C7170.07923,7222.71337 7143.15199,7211.36552 7140.04481,7221.24572 C7132.76936,7222.49693 7133.40218,7224.29776 7129.98125,7230.35255 C7123.73547,7229.40601 7126.98036,7229.53822 7122.79292,7234.187 C7118.33198,7239.14005 7123.51034,7241.19595 7124.23058,7247.12827 C7132.19987,7245.5494 7129.65365,7239.8036 7138.60724,7238.50079 C7146.55476,7237.34183 7148.23762,7240.23104 7151.54614,7246.64903 C7161.25059,7248.80442 7167.80771,7247.08249 7169.27719,7238.02144 C7178.57505,7236.42269 7179.45828,7231.09812 7189.40441,7229.8732 C7184.04548,7219.69707 7189.79715,7229.96355 7188.92526,7224.60083 C7182.87189,7225.64183 7185.43849,7221.46286 7185.09152,7219.32845 C7180.60016,7218.44184 7179.07237,7215.92195 7175.98626,7216.45259 L7175.98626,7216.45259 Z M7394.98957,7430.22378 C7394.00657,7430.29456 7393.05368,7430.39986 7392.11424,7430.70303 C7390.17434,7432.2565 7395.42657,7431.89632 7394.03106,7433.57889 C7391.04091,7434.09307 7390.45376,7438.63734 7387.80124,7436.93409 C7387.02159,7435.57346 7385.97576,7434.92446 7384.44676,7435.01682 C7382.04355,7440.30084 7379.61004,7440.03442 7375.3415,7440.76854 C7373.71414,7445.97998 7366.27459,7448.41565 7363.36102,7448.91678 C7364.53923,7456.16355 7355.5479,7456.11617 7352.8182,7456.58568 C7353.1179,7458.42756 7342.03912,7473.26372 7342.75464,7474.31998 C7342.46528,7473.34373 7342.38769,7471.97768 7342.27538,7470.96488 C7337.065,7471.86123 7337.14067,7486.93219 7337.96248,7489.17853 C7334.98166,7488.7287 7334.16718,7489.88364 7335.56631,7492.53374 C7332.70633,7493.02573 7332.25377,7493.52304 7327.41956,7495.4096 C7330.20226,7501.40064 7332.79395,7506.04942 7338.92089,7504.99567 C7339.9054,7511.05046 7343.96086,7531.68151 7337.48323,7532.79549 C7336.64988,7537.93707 7345.46476,7543.9509 7350.90138,7541.42307 C7354.28056,7539.85303 7353.97935,7535.46476 7358.08961,7533.27483 C7360.00071,7527.19917 7361.88732,7533.1107 7361.92335,7525.60594 C7360.50947,7522.0074 7361.48294,7520.43204 7364.79868,7520.8128 C7365.08584,7520.55822 7369.06802,7510.66798 7369.59094,7509.7888 C7372.02164,7505.67347 7387.72306,7501.00221 7386.84283,7497.80612 C7386.57796,7498.92974 7374.95418,7493.0428 7383.48824,7491.57505 C7384.12036,7488.61336 7379.04015,7485.1657 7386.36358,7483.90615 C7383.96288,7480.60425 7386.86331,7480.25441 7388.75965,7479.11312 C7390.11863,7478.24358 7391.12341,7476.92259 7389.23891,7473.3614 C7398.38682,7471.78805 7389.68143,7464.89473 7391.15573,7459.94078 C7399.93138,7450.78276 7390.73419,7456.91805 7396.42724,7446.04092 C7392.52073,7446.7125 7396.40285,7443.88041 7397.38565,7443.16506 C7397.14196,7444.65238 7397.48532,7444.83659 7398.82332,7444.12364 C7399.62806,7440.13199 7398.61766,7438.78501 7395.46873,7440.2892 C7395.23507,7434.09377 7397.79766,7435.5309 7394.98957,7430.22378 L7394.98957,7430.22378 Z" id="gr" fill="#87B024"></path>
                    </g>
                </g>
            </g>
        </g>
    </g>
</svg>