<?xml version="1.0" encoding="UTF-8" standalone="no"?>
<svg width="132px" height="78px" viewBox="0 0 132 78" version="1.1" xmlns="http://www.w3.org/2000/svg" xmlns:xlink="http://www.w3.org/1999/xlink">
    <!-- Generator: Sketch 3.6 (26304) - http://www.bohemiancoding.com/sketch -->
    <title>am</title>
    <desc>Created with Sketch.</desc>
    <defs></defs>
    <g id="Page-1" stroke="none" stroke-width="1" fill="none" fill-rule="evenodd">
        <g id="Group" transform="translate(-459.000000, -311.000000)" fill="#FFFFFF">
            <path d="M527.901237,327.701984 C532.194532,328.362709 526.250006,332.326966 526.910637,329.353773 C526.910637,328.693048 527.571037,328.362709 527.901237,327.701984 L527.901237,327.701984 Z M505.775286,372.29986 L506.105486,372.29986 L506.435917,372.29986 L506.435917,372.29986 L506.435917,372.29986 L506.766117,372.29986 L507.096318,372.29986 L507.096318,372.29986 L507.096318,372.29986 L507.096318,372.29986 L507.426518,372.29986 L507.426518,372.29986 L507.426518,372.29986 L507.426518,372.29986 L507.426518,372.29986 C508.086918,372.29986 508.747549,372.630223 509.40795,372.630223 L509.40795,372.630223 L509.40795,372.630223 L510.06835,372.630223 L510.06835,372.630223 C510.06835,372.630223 510.398781,372.630223 510.398781,372.960539 L510.398781,372.960539 L510.398781,372.960539 L510.728981,372.960539 L511.059181,372.960539 L511.059181,372.960539 L511.389382,372.960539 L511.389382,372.960539 L511.389382,372.960539 C511.389382,373.290925 511.719582,373.290925 511.719582,373.290925 L512.049782,373.290925 L512.049782,373.290925 L512.380213,373.290925 L512.380213,373.290925 L512.380213,373.290925 L512.380213,373.290925 L512.710413,373.621287 L512.710413,373.621287 L512.710413,373.621287 L513.040613,373.621287 L513.040613,373.621287 L513.040613,373.621287 L513.040613,373.621287 L513.370814,373.621287 C513.370814,373.621287 513.370814,373.621287 513.701014,373.951604 L513.701014,373.951604 L513.701014,373.951604 L514.031214,373.951604 L514.031214,373.951604 L514.031214,373.951604 L514.031214,373.951604 L514.361645,373.951604 L514.361645,374.281966 L514.361645,374.281966 L514.691845,374.281966 L514.691845,374.281966 L515.022045,374.281966 L515.022045,374.281966 C515.022045,374.281966 515.352245,374.281966 515.352245,374.612352 L515.352245,374.612352 L515.682446,374.612352 L515.682446,374.612352 L515.682446,374.612352 L515.682446,374.612352 L516.012646,374.612352 C516.012646,374.942668 516.343077,374.942668 516.343077,374.942668 L516.343077,374.942668 L516.673277,374.942668 L516.673277,374.942668 L516.673277,374.942668 L517.003477,375.27303 L517.003477,375.27303 L517.333677,375.27303 L517.333677,375.27303 L517.333677,375.27303 C518.654709,375.933732 519.64531,376.264095 520.636141,376.594457 L520.636141,376.594457 L520.966341,376.924797 L520.966341,376.924797 C521.296541,376.924797 521.626741,376.924797 521.626741,377.255159 L521.956942,377.255159 C522.287142,377.585522 522.617573,377.585522 523.277973,377.915884 C525.259405,375.27303 526.580436,371.308796 529.552469,370.648094 C537.808397,368.665942 534.836364,380.558715 538.138597,376.594457 C538.799228,375.933732 538.138597,373.951604 539.129428,373.621287 C541.771261,373.290925 544.082893,375.933732 546.724956,375.27303 L553.329652,367.674877 C559.604148,364.040982 558.283347,375.27303 558.943747,375.27303 C561.25538,375.603393 563.897212,374.942668 566.539275,375.27303 C566.869475,375.27303 567.860076,375.603393 567.860076,375.933732 C568.190506,377.255159 567.199675,378.576586 567.860076,379.567651 C567.860076,379.567651 576.776635,386.505102 579.418467,388.487208 C580.078867,387.496143 581.069699,385.8444 584.041731,383.862271 C585.692963,382.540844 588.995426,384.19261 590.316458,382.540844 C590.316458,382.540844 590.646658,381.219417 590.976858,379.567651 C590.646658,380.889078 590.646658,381.880142 590.316458,382.540844 L589.986257,381.880142 C587.344195,379.567651 587.674395,374.942668 584.702362,373.290925 C583.711531,372.630223 580.739498,373.951604 580.739498,371.639158 C580.739498,370.978433 581.069699,370.648094 581.399899,370.317731 C582.72093,369.326667 586.353594,369.326667 586.353594,367.674877 C586.023163,361.067789 575.455603,368.00524 575.455603,362.719555 C575.125403,359.085683 580.078867,360.076748 578.097436,355.451765 C576.446434,352.478572 569.181107,359.085683 567.199675,359.085683 C561.25538,359.416 554.650683,353.139297 548.376187,352.808934 C546.394755,352.808934 544.413324,354.130361 542.101461,353.799998 C541.44106,353.799998 542.101461,352.478572 542.431892,352.148209 C544.413324,350.16608 547.715556,349.835741 549.696988,348.183951 C550.68782,347.523249 550.027189,339.264394 549.366788,338.27333 C548.706388,336.621564 528.892069,337.942967 523.608173,331.005516 C520.636141,327.041282 531.203701,321.755597 526.580436,319.443106 C524.268574,318.452041 521.626741,319.443106 519.315109,318.452041 C518.654709,318.121679 519.64531,315.478871 518.654709,315.478871 C516.343077,315.809234 508.417349,320.103831 506.766117,318.782404 C505.114886,317.130614 514.691845,313.16638 506.766117,313.16638 C505.445086,313.16638 504.784685,314.818169 503.793854,314.487807 C502.473053,314.157444 502.142623,312.505678 501.152022,311.514613 C500.821822,312.175315 500.491621,313.16638 499.83099,313.496742 C498.510189,314.157444 494.547326,314.818169 495.868127,315.478871 C496.528758,315.809234 498.84039,316.13955 498.179759,316.800298 C492.565894,320.764533 483.319135,322.08596 478.69587,326.380557 C472.421374,331.335902 467.79788,337.612628 459.872152,341.576886 L459.541952,341.907225 C459.541952,341.576886 459.211752,341.246523 459.211752,340.916161 C459.872152,341.907225 459.541952,343.559015 460.532783,344.550079 C463.174615,346.86257 473.411975,346.201822 475.393407,354.791063 C476.384238,359.416 473.411975,367.014176 477.044639,370.978433 C479.026071,372.960539 481.998103,373.621287 483.319135,375.933732 C483.979535,376.594457 481.337703,378.906949 482.328304,378.906949 C493.226294,378.576586 498.179759,372.630223 505.775286,372.29986 L505.775286,372.29986 Z M505.445086,319.443106 C506.105486,319.773468 506.766117,319.773468 507.096318,320.103831 C507.756718,321.755597 501.482222,321.755597 505.445086,319.443106 L505.445086,319.443106 Z" id="am"></path>
        </g>
    </g>
</svg>