<?xml version="1.0" encoding="UTF-8" standalone="no"?>
<svg width="1638px" height="779px" viewBox="0 0 1638 779" version="1.1" xmlns="http://www.w3.org/2000/svg" xmlns:xlink="http://www.w3.org/1999/xlink">
    <!-- Generator: Sketch 3.6 (26304) - http://www.bohemiancoding.com/sketch -->
    <title>Blank_political_map_Europe_in_2008_WF_(with_Kosovo)</title>
    <desc>Created with Sketch.</desc>
    <defs>
        <rect id="path-1" x="0" y="0" width="1637.39979" height="778.95304"></rect>
    </defs>
    <g id="Page-1" stroke="none" stroke-width="1" fill="none" fill-rule="evenodd">
        <g id="Blank_political_map_Europe_in_2008_WF_(with_Kosovo)">
            <g id="Group">
                <mask id="mask-2" fill="white">
                    <use xlink:href="#path-1"></use>
                </mask>
                <use id="maska" xlink:href="#path-1"></use>
                <rect id="ocean" fill="#2096BD" mask="url(#mask-2)" x="-7166.57553" y="-6045.00363" width="14237.5569" height="9115.28356"></rect>
                <g id="outlines" mask="url(#mask-2)">
                    <g transform="translate(-4994.463158, -6051.605302)">
                        <path d="M6294.18844,8450.49711 C6272.77237,8462.02158 6201.9349,8633.24146 6218.40858,8656.2904 C6224.99817,8666.16849 6257.946,8666.16849 6248.06167,8672.75392 C6239.82466,8677.69296 6241.47208,8661.22945 6236.52992,8672.75392 C6236.52992,8676.04658 6233.23507,8679.33923 6234.8825,8684.27828 C6238.17735,8697.44913 6257.946,8704.03456 6262.88816,8717.20519 C6264.53535,8720.49785 6257.946,8718.85157 6254.65114,8722.14423 C6246.41425,8727.08327 6238.17735,8732.02232 6233.23507,8740.25413 C6228.29291,8748.48583 6226.6456,8758.36392 6224.99817,8766.5955 C6223.35075,8776.47359 6229.94033,8789.64444 6224.99817,8797.87614 C6221.70344,8802.81519 6216.76127,8781.41286 6185.46099,8783.05901 C6150.86574,8786.3519 6165.69234,8797.87614 6119.56557,8776.47359 C6099.79681,8768.242 6094.85465,8732.02232 6073.43869,8718.85157 C6043.7856,8700.74167 6017.42748,8718.85157 5984.47988,8705.68072 C5979.53772,8704.03456 5974.59556,8702.38817 5969.6534,8699.09552 C5963.06381,8694.15625 5959.76907,8682.632 5951.53206,8679.33923 C5944.94247,8674.40019 5936.70557,8679.33923 5928.46868,8676.04658 C5895.52097,8664.5221 5872.45758,8633.24146 5836.21514,8623.36349 C5821.38853,8620.07083 5804.91474,8634.88785 5790.08825,8628.30242 C5786.7934,8626.65626 5747.25622,8583.85115 5748.90364,8577.26572 C5748.90364,8570.68029 5758.78797,8567.38764 5758.78797,8562.44859 C5760.43516,8557.50967 5753.84581,8555.86316 5753.84581,8550.92424 C5753.84581,8544.33892 5757.14054,8536.10711 5762.0827,8529.52168 C5767.02475,8522.93637 5776.90908,8521.28998 5783.49866,8514.70455 C5791.73556,8508.11924 5799.97258,8483.42391 5806.56205,8491.65584 C5809.8569,8496.59477 5814.79906,8529.52168 5829.62555,8527.87541 C5885.63664,8519.64359 5829.62555,8478.48498 5900.46313,8481.77775 C5918.58447,8481.77775 5903.75775,8501.53381 5913.6423,8506.47285 C5920.23166,8509.76551 5930.11599,8501.53381 5938.353,8504.82647 C5943.29516,8506.47285 5941.64774,8516.35094 5944.94247,8517.99732 C5954.82691,8524.58264 5968.00597,8531.16807 5979.53772,8531.16807 C5981.18492,8531.16807 6022.36964,8511.4119 6022.36964,8511.4119 C6035.54882,8509.76551 6063.55425,8519.64359 6083.32301,8514.70455 C6124.50773,8506.47285 6122.86031,8490.00934 6144.27627,8478.48498 C6193.69777,8452.1435 6157.45533,8488.36295 6205.22952,8485.07041 C6238.17735,8483.42391 6215.11385,8465.31424 6228.29291,8452.1435 C6233.23507,8447.20434 6233.23507,8466.96063 6238.17735,8465.31424 C6267.83032,8458.72881 6267.83032,8432.38721 6294.18844,8450.49711 L6294.18844,8450.49711 Z M5206.91347,7842.99532 C5211.85563,7866.04403 5284.34064,7861.10499 5274.45643,7897.32467 C5272.80889,7907.20276 5244.80334,7903.9101 5248.09819,7915.43457 C5251.39293,7926.95904 5274.45643,7923.66616 5282.69321,7933.54424 C5285.98795,7936.83701 5274.45643,7938.48329 5274.45643,7943.42233 C5284.34064,8002.69084 5299.16712,7918.72711 5302.46186,7997.75191 C5304.10928,8025.73967 5274.45643,8035.61775 5266.2193,8058.6667 C5257.98251,8080.06914 5282.69321,8080.06914 5285.98795,8098.17892 C5285.98795,8104.76435 5277.75105,8111.34978 5277.75105,8119.58148 C5272.80889,8173.91095 5279.39847,8249.64286 5248.09819,8303.97222 C5246.45076,8307.26499 5248.09819,8299.03317 5244.80334,8297.3869 C5221.73995,8289.15509 5192.0871,8266.10638 5164.08143,8267.75253 C5159.13927,8267.75253 5175.61318,8274.33807 5175.61318,8279.277 C5173.96576,8285.86243 5165.72886,8289.15509 5164.08143,8297.3869 C5154.19711,8335.25286 5180.55535,8328.66754 5134.42846,8350.06987 C5070.18035,8379.70424 5109.71777,8318.78934 5078.41737,8305.6186 C5070.18035,8302.32595 5061.94346,8315.49669 5052.05925,8315.49669 C5045.46966,8315.49669 5071.82778,8313.8503 5073.47521,8305.6186 C5073.47521,8294.09413 5057.00129,8287.50893 5053.70667,8277.63062 C5043.82235,8244.70382 5066.88562,8223.30126 5071.82778,8195.31328 C5073.47521,8183.78904 5066.88562,8173.91095 5070.18035,8162.38648 C5071.82778,8152.50839 5089.94912,8147.56935 5086.65427,8137.69138 C5085.00696,8129.45945 5066.88562,8137.69138 5061.94346,8131.10595 C5057.00129,8122.87425 5065.23819,8112.99605 5065.23819,8104.76435 C5065.23819,8103.11797 5058.64883,8103.11797 5060.29603,8101.47169 C5063.591,8096.53265 5073.47521,8098.17892 5076.76994,8091.59361 C5083.35953,8075.1301 5058.64883,7994.45903 5048.76451,7982.93478 C5028.99575,7961.53223 5015.81669,8032.3251 5020.75885,7950.00776 C5022.40627,7938.48329 5033.93791,7930.25159 5035.58533,7918.72711 C5037.23276,7912.14169 5028.99575,7905.55649 5033.93791,7900.61744 C5035.58533,7898.97106 5047.11708,7933.54424 5076.76994,7933.54424 C5101.48075,7935.19063 5192.0871,7861.10499 5206.91347,7842.99532 L5206.91347,7842.99532 Z M5885.63664,6690.55278 C5882.34191,6723.47981 5841.1573,6716.89438 5837.86233,6743.23587 C5834.56771,6762.99204 5872.45758,6759.69927 5880.69448,6766.2847 C5892.22623,6776.16267 5860.92583,6789.33364 5855.98367,6804.15065 C5849.39408,6825.55321 5875.75232,6802.50427 5879.04705,6810.73608 C5882.34191,6818.96778 5864.22057,6840.37034 5875.75232,6846.95577 C5892.22623,6856.83385 5958.12165,6896.34608 5900.46313,6893.05342 C5903.75775,6884.82161 5903.75775,6878.23618 5897.16839,6870.00448 C5865.86799,6840.37034 5867.51542,6853.54096 5849.39408,6876.58991 C5851.04151,6874.94352 5851.04151,6873.29714 5851.04151,6873.29714 C5851.04151,6856.83385 5819.74122,6853.54096 5804.91474,6860.12639 C5796.67772,6865.06544 5804.91474,6883.17522 5798.32515,6889.76065 C5791.73556,6896.34608 5780.20381,6891.40704 5770.31949,6894.69969 C5747.25622,6904.57778 5725.84014,6930.91926 5699.48191,6935.8583 C5691.24512,6937.50469 5683.00811,6929.27311 5676.41864,6934.21215 C5669.82905,6935.8583 5676.41864,6945.73639 5673.12379,6952.32182 C5671.47648,6957.26086 5666.53431,6963.84629 5663.23946,6968.78533 C5664.88689,6967.13895 5664.88689,6965.49256 5666.53431,6965.49256 C5674.77121,6965.49256 5668.18162,6983.60246 5674.77121,6986.89512 C5678.06595,6988.5415 5679.71337,6977.01703 5683.00811,6980.3098 C5686.30296,6986.89512 5692.89232,7000.06597 5686.30296,7005.0049 C5683.00811,7006.65117 5681.3608,7009.94395 5683.00811,7013.2366 C5684.65554,7014.88299 5687.95016,7011.59045 5691.24512,7011.59045 C5701.12933,7019.82203 5717.60325,7024.76107 5719.25056,7036.28554 C5729.13488,7082.3832 5689.5977,7064.2733 5678.06595,7092.26129 C5674.77121,7100.49298 5696.18729,7189.39575 5701.12933,7199.27384 C5711.01366,7215.73724 5826.33081,7298.05458 5849.39408,7311.22532 C5872.45758,7324.39618 5879.04705,7316.16436 5900.46313,7334.27426 C5923.52651,7354.03043 5954.82691,7484.09182 5972.94813,7517.01861 C5991.06947,7551.59203 6028.95923,7582.87244 6058.61209,7605.92138 C6068.49641,7612.50681 6083.32301,7614.15308 6091.55991,7622.3849 C6096.50207,7625.67755 6091.55991,7635.55552 6094.85465,7638.84841 C6139.33411,7684.94607 6223.35075,7670.12894 6276.0671,7661.89712 C6287.59885,7660.25074 6312.30966,7642.14095 6327.13615,7658.60447 C6368.32076,7704.70224 6244.76682,7721.16564 6307.3675,7763.97063 C6366.67345,7803.48298 6449.04278,7800.1902 6509.99603,7831.47085 C6531.41211,7842.99532 6539.64901,7861.10499 6564.3597,7869.3368 C6584.12835,7877.5685 6638.49213,7885.80032 6654.96605,7898.97106 C6661.55552,7903.9101 6654.96605,7915.43457 6659.90821,7920.37362 C6679.67686,7948.36137 6732.39321,7943.42233 6748.86701,8001.04445 C6755.4566,8022.44701 6740.63011,8015.86158 6735.68795,8030.67871 C6732.39321,8038.91053 6737.33538,8071.83732 6730.74579,8075.1301 C6724.1562,8080.06914 6712.62445,8075.1301 6702.74013,8070.19117 C6651.67119,8050.435 6673.08727,8020.80063 6646.72903,7986.22744 C6631.90255,7966.47127 6584.12835,7986.22744 6559.41754,7977.99574 C6526.46995,7966.47127 6508.34861,7928.6052 6477.04821,7961.53223 C6473.75359,7966.47127 6432.56887,8048.78861 6432.56887,8052.08127 C6432.56887,8057.0202 6440.80576,8061.95924 6439.15834,8068.54467 C6432.56887,8099.82531 6399.62116,8098.17892 6427.6267,8134.39849 C6444.10062,8154.15466 6449.04278,8136.04499 6467.164,8140.98392 C6486.93253,8147.56935 6500.11171,8167.32552 6518.23293,8175.55722 C6524.82252,8178.84999 6534.70684,8175.55722 6538.00158,8182.14265 C6541.29643,8187.08169 6531.41211,8193.66712 6531.41211,8200.25232 C6533.05942,8246.3502 6554.47538,8203.54521 6551.18076,8262.8136 C6549.53322,8297.3869 6483.6378,8284.21605 6453.98494,8318.78934 C6432.56887,8343.48467 6460.57441,8368.17977 6453.98494,8397.81403 C6449.04278,8422.50913 6432.56887,8415.92393 6416.09495,8429.09455 C6376.55777,8463.66785 6404.5632,8542.69254 6322.19399,8519.64359 C6305.72008,8514.70455 6287.59885,8471.89967 6297.48318,8453.78977 C6304.07277,8443.91168 6320.54668,8445.55807 6328.78358,8437.32625 C6333.72574,8430.74094 6333.72574,8420.86297 6335.37316,8412.63116 C6337.02036,8404.39946 6343.60995,8397.81403 6341.96252,8389.58233 C6340.31533,8379.70424 6323.84141,8374.7652 6325.48884,8364.887 C6332.0782,8335.25286 6371.61561,8351.71626 6383.14724,8335.25286 C6411.15279,8302.32595 6378.20508,8297.3869 6365.02602,8279.277 C6351.84685,8259.52095 6358.43643,8231.53296 6348.55211,8210.13063 C6343.60995,8196.95978 6337.02036,8185.43531 6328.78358,8175.55722 C6327.13615,8172.26456 6320.54668,8172.26456 6317.25183,8168.97191 C6287.59885,8124.52052 6318.89925,8150.86201 6299.1306,8101.47169 C6274.41968,8038.91053 6259.59319,8070.19117 6210.17169,8073.48371 C6208.52426,8073.48371 6211.81911,8068.54467 6210.17169,8065.25212 C6203.5821,8058.6667 6195.34531,8050.435 6185.46099,8045.49595 C6175.57667,8040.55691 6155.80802,8045.49595 6149.21843,8033.97148 C6142.62884,8022.44701 6162.39749,8010.92254 6160.75018,7997.75191 C6159.10275,7984.58094 6149.21843,7973.0567 6142.62884,7963.17861 C6103.09166,7908.84914 6096.50207,7984.58094 6050.3753,7968.11766 C6045.43314,7966.47127 6081.67559,7940.12967 6065.20167,7928.6052 C6005.89584,7885.80032 6063.55425,7930.25159 5999.30626,7922.02 C5994.36409,7920.37362 5999.30626,7912.14169 5997.65883,7907.20276 C5991.06947,7887.44659 5956.47422,7834.76362 5940.00031,7828.17819 C5895.52097,7811.71468 5930.11599,7842.99532 5915.2895,7839.70266 C5900.46313,7836.40989 5887.28407,7818.3001 5870.81016,7819.94638 C5855.98367,7823.23915 5844.45192,7842.99532 5831.27297,7839.70266 C5816.44637,7836.40989 5818.0938,7815.00733 5808.20947,7805.12925 C5796.67772,7795.25116 5767.02475,7798.54393 5757.14054,7791.9585 L5732.42973,7757.38532 C5720.89798,7747.50712 5702.77687,7745.86085 5692.89232,7734.33638 C5673.12379,7704.70224 5696.18729,7709.64128 5673.12379,7691.53138 C5663.23946,7683.29968 5651.70771,7676.71425 5640.17608,7670.12894 C5636.88123,7668.48255 5630.29187,7673.42159 5626.9969,7671.77521 C5608.87579,7656.95808 5608.87579,7628.97033 5590.75446,7614.15308 C5559.45406,7587.8116 5539.68552,7607.56777 5506.73782,7594.39691 C5501.79565,7592.75064 5514.97471,7587.8116 5518.26945,7584.51883 C5528.15377,7571.3482 5508.38513,7549.94564 5503.44296,7545.0066 C5500.14823,7541.71383 5493.55864,7545.0066 5490.2639,7541.71383 C5485.32186,7535.12851 5485.32186,7525.25043 5478.73227,7520.31139 C5470.49537,7513.72596 5454.02146,7518.665 5447.43187,7508.78691 C5442.48971,7502.20149 5457.31619,7489.03086 5449.0793,7484.09182 C5439.19497,7475.86 5422.72106,7485.73797 5409.54188,7480.79904 C5401.3051,7477.50639 5414.48428,7462.68926 5414.48428,7452.81117 C5419.42644,7419.88415 5414.48428,7408.35979 5396.36294,7380.37192 C5361.7678,7330.98149 5386.47861,7286.53011 5345.29389,7248.66415 C5341.99927,7243.72511 5335.40968,7242.07884 5330.46752,7240.43245 C5328.82009,7240.43245 5327.17255,7245.37149 5325.52536,7243.72511 C5317.28834,7240.43245 5312.34618,7230.55437 5304.10928,7230.55437 C5299.16712,7230.55437 5309.05145,7245.37149 5304.10928,7243.72511 C5290.93022,7240.43245 5281.04578,7230.55437 5269.51426,7222.32278 C5264.5721,7219.0299 5223.38738,7176.22501 5210.2082,7176.22501 C5206.91347,7176.22501 5211.85563,7184.45671 5208.56101,7186.1031 C5205.26604,7187.74937 5200.32388,7186.1031 5198.67645,7182.81033 C5190.43967,7172.93224 5155.84454,7156.46873 5139.37062,7156.46873 C5132.78104,7156.46873 5089.94912,7181.16405 5086.65427,7187.74937 C5083.35953,7194.3348 5088.30169,7204.21288 5083.35953,7209.15181 C5078.41737,7215.73724 5065.23819,7214.09085 5060.29603,7219.0299 C5048.76451,7230.55437 5040.5275,7256.89597 5027.34844,7268.42044 C5005.93236,7289.82276 4968.04249,7288.17661 4943.33168,7291.46915 C4935.09478,7261.83501 4991.10588,7223.96894 4966.39518,7205.85927 C4958.15817,7200.92023 4946.62642,7207.50542 4936.74209,7209.15181 C4926.85777,7209.15181 4915.32602,7214.09085 4905.44169,7210.79831 C4887.32059,7205.85927 4844.48844,7174.57863 4846.13586,7151.52968 C4846.13586,7148.23703 4854.37276,7148.23703 4854.37276,7144.94448 C4852.72545,7140.00544 4836.25165,7135.0664 4841.19382,7125.1882 C4847.7834,7118.60288 4856.02019,7113.66384 4860.96235,7105.43203 C4862.60978,7103.78576 4857.66761,7100.49298 4859.31492,7097.20033 C4860.96235,7092.26129 4875.78884,7100.49298 4877.43626,7095.55394 C4877.43626,7082.3832 4875.78884,7069.21234 4870.84667,7059.33437 C4862.60978,7046.16363 4808.24599,7024.76107 4811.54084,6998.41947 C4811.54084,6990.18789 4826.36733,6990.18789 4834.60423,6988.5415 C4839.54628,6988.5415 4842.84124,6998.41947 4847.7834,6996.77309 C4856.02019,6995.12693 4908.73666,6952.32182 4900.49965,6937.50469 C4895.55749,6927.62672 4879.08369,6925.98022 4874.14141,6914.45575 C4869.19925,6907.87055 4875.78884,6896.34608 4872.4941,6889.76065 C4849.4306,6850.24842 4806.59868,6870.00448 4882.37842,6825.55321 C4898.85234,6855.18747 4943.33168,6822.26044 4964.74775,6817.32139 C4979.57424,6814.02874 4991.10588,6833.78491 5005.93236,6833.78491 C5007.57979,6833.78491 5053.70667,6786.04075 5053.70667,6777.80917 C5055.35387,6769.57747 5040.5275,6766.2847 5042.17492,6759.69927 C5045.46966,6749.82118 5058.64883,6746.52853 5066.88562,6739.9431 C5075.12252,6733.35778 5081.7121,6726.77235 5089.94912,6720.18693 C5093.24385,6718.54054 5096.53859,6715.24788 5098.18602,6716.89438 C5101.48075,6726.77235 5099.83344,6736.65044 5099.83344,6746.52853 C5099.83344,6751.46757 5094.89128,6758.053 5096.53859,6764.63843 C5108.07034,6786.04075 5134.42846,6790.97979 5152.54968,6797.56522 C5154.19711,6797.56522 5157.49185,6800.85788 5157.49185,6804.15065 C5155.84454,6810.73608 5144.31279,6815.67512 5145.96021,6822.26044 C5147.60752,6828.84587 5159.13927,6825.55321 5164.08143,6830.49225 C5170.67102,6838.72395 5173.96576,6866.71182 5183.85008,6858.48001 C5211.85563,6837.07757 5178.90792,6843.66299 5178.90792,6827.19948 C5178.90792,6790.97979 5218.44522,6781.10171 5225.03469,6751.46757 C5225.03469,6748.17491 5206.91347,6703.72341 5234.91901,6708.66245 C5256.33509,6711.95534 5229.97685,6744.88214 5272.80889,6754.76023 C5299.16712,6762.99204 5277.75105,6730.06501 5322.23051,6738.29683 C5335.40968,6739.9431 5328.82009,6766.2847 5340.35184,6772.87012 C5346.94143,6776.16267 5360.12038,6769.57747 5358.47295,6762.99204 C5355.17822,6758.053 5348.58863,6754.76023 5346.94143,6748.17491 C5346.94143,6741.58948 5356.82564,6736.65044 5355.17822,6730.06501 C5351.88348,6721.83331 5322.23051,6703.72341 5345.29389,6687.26013 C5374.94686,6665.85757 5363.41511,6713.6015 5398.01036,6705.36991 C5417.7789,6698.78448 5386.47861,6675.73566 5386.47861,6672.44288 C5389.77335,6665.85757 5394.71551,6660.91853 5396.36294,6654.3331 C5399.65756,6647.74767 5398.01036,6639.51609 5399.65756,6632.93066 L5399.65756,6632.93066 C5426.0158,6646.10152 5402.95253,6629.638 5429.31065,6632.93066 C5442.48971,6634.57704 5455.66888,6669.15023 5482.02689,6654.3331 L5503.44296,6609.88183 C5516.62214,6600.00374 5574.28054,6606.58906 5589.10715,6604.94279 C5613.81796,6603.2964 5633.58649,6581.89385 5658.2973,6581.89385 C5664.88689,6581.89385 5646.76555,6590.12554 5645.11824,6596.71097 C5636.88123,6631.28416 5658.2973,6608.23544 5671.47648,6627.99162 C5674.77121,6632.93066 5666.53431,6639.51609 5669.82905,6646.10152 C5671.47648,6649.39406 5676.41864,6642.80863 5679.71337,6646.10152 C5711.01366,6669.15023 5719.25056,6672.44288 5762.0827,6679.02831 C5803.26731,6683.96736 5844.45192,6687.26013 5885.63664,6690.55278 L5885.63664,6690.55278 Z M5706.0715,7263.48139 C5709.36623,7258.54235 5709.36623,7251.95692 5714.30839,7248.66415 C5727.48757,7235.49341 5724.19272,7286.53011 5706.0715,7263.48139 L5706.0715,7263.48139 Z" id="it" stroke="#FFFFFF" stroke-width="3" fill="#87B024"></path>
                        <path d="M5874.10489,5136.40175 C5877.39974,5162.74324 5903.75775,5213.78005 5907.05272,5230.24345 C5911.99488,5269.75579 5859.27841,5296.09727 5870.81016,5327.37792 C5877.39974,5347.13409 5940.00031,5355.36567 5940.00031,5380.061 C5940.00031,5404.75621 5920.23166,5412.98791 5935.05815,5431.09781 C5940.00031,5439.3294 5951.53206,5442.62205 5954.82691,5452.50025 C5959.76907,5460.73195 5953.17949,5472.25643 5954.82691,5480.48812 C5956.47422,5485.42717 5963.06381,5483.78078 5964.71124,5487.07355 C5972.94813,5498.59802 5953.17949,5526.58578 5948.23732,5536.46387 C5938.353,5551.28099 5963.06381,5559.51281 5968.00597,5574.32994 C5971.30059,5582.56152 5959.76907,5592.43961 5964.71124,5599.02504 C5971.30059,5608.90312 5986.12708,5605.61046 5992.71667,5612.19589 C6015.78017,5633.59833 6005.89584,5753.78163 5986.12708,5757.07429 C5964.71124,5762.01333 5930.11599,5671.46429 5911.99488,5722.50099 C5908.70014,5730.73269 5938.353,5737.31812 5931.76341,5742.25716 C5911.99488,5758.72067 5883.98922,5760.36706 5864.22057,5771.89142 C5860.92583,5773.5378 5864.22057,5781.76962 5860.92583,5783.41577 C5847.74666,5790.0012 5829.62555,5780.12323 5819.74122,5788.35481 C5811.50421,5794.94024 5814.79906,5808.11098 5806.56205,5814.69641 C5803.26731,5817.98919 5799.97258,5806.46471 5795.03041,5808.11098 C5780.20381,5811.40376 5778.5565,5831.15993 5768.67229,5837.74536 C5763.73013,5842.6844 5753.84581,5834.45258 5748.90364,5839.39163 C5743.96148,5842.6844 5748.90364,5852.56248 5743.96148,5857.50153 C5737.37189,5865.73311 5719.25056,5850.9161 5714.30839,5850.9161 C5673.12379,5857.50153 5666.53431,5888.78205 5653.35514,5915.12365 C5650.0604,5921.70885 5650.0604,5898.66014 5643.47081,5893.7211 C5638.52865,5887.13567 5628.64433,5885.48928 5620.40754,5883.84301 C5605.58094,5880.55024 5636.88123,5933.23332 5669.82905,5954.63588 C5673.12379,5956.28227 5684.65554,5957.92854 5686.30296,5967.80662 C5691.24512,5990.85557 5669.82905,5982.62387 5666.53431,6000.73365 C5664.88689,6005.67258 5701.12933,6066.58736 5706.0715,6071.5264 C5734.07704,6099.51439 5740.66663,6079.75833 5758.78797,6097.868 C5770.31949,6109.39248 5771.96691,6127.50226 5783.49866,6137.38023 C5809.8569,6155.49013 5880.69448,6180.18534 5879.04705,6222.99034 C5877.39974,6267.44173 5867.51542,6257.56364 5832.92017,6249.33194 C5829.62555,6249.33194 5826.33081,6250.97821 5824.68339,6254.27098 C5821.38853,6270.7345 5831.27297,6288.84417 5814.79906,6302.01491 C5799.97258,6313.53938 5730.78231,6330.0029 5729.13488,6356.3445 C5729.13488,6356.3445 5768.67229,6410.67385 5768.67229,6412.32024 C5770.31949,6413.96662 5747.25622,6433.72268 5755.49312,6440.30822 C5773.61445,6456.77151 5791.73556,6432.07629 5776.90908,6486.40588 C5776.90908,6489.69853 5773.61445,6494.63758 5770.31949,6494.63758 C5717.60325,6479.82045 5758.78797,6453.47885 5734.07704,6451.83246 C5720.89798,6451.83246 5709.36623,6463.35693 5696.18729,6461.71055 C5689.5977,6460.06428 5691.24512,6448.53981 5686.30296,6446.89342 C5676.41864,6443.60076 5666.53431,6451.83246 5658.2973,6448.53981 C5655.00256,6446.89342 5661.59215,6437.01534 5658.2973,6437.01534 C5638.52865,6438.66172 5656.64987,6465.00332 5651.70771,6466.64959 C5628.64433,6473.23502 5590.75446,6463.35693 5569.33838,6471.58863 C5562.74891,6474.88141 5566.04365,6486.40588 5559.45406,6489.69853 C5552.8647,6494.63758 5544.62769,6486.40588 5538.03821,6491.34492 C5533.09594,6492.99108 5539.68552,6501.22301 5536.39079,6504.51555 C5534.74336,6506.16205 5478.73227,6520.97906 5472.14257,6517.6864 C5468.84794,6514.39363 5472.14257,6506.16205 5468.84794,6502.86916 C5467.20052,6499.5765 5458.96362,6499.5765 5457.31619,6496.28396 C5455.66888,6492.99108 5465.55321,6494.63758 5463.90578,6491.34492 C5457.31619,6469.94236 5411.18931,6496.28396 5398.01036,6481.46683 C5398.01036,6481.46683 5401.3051,6479.82045 5401.3051,6478.17406 C5391.42078,6471.58863 5401.3051,6499.5765 5398.01036,6511.10098 C5398.01036,6517.6864 5366.70997,6555.55236 5355.17822,6544.02789 C5348.58863,6537.44258 5366.70997,6527.56449 5361.7678,6520.97906 C5360.12038,6519.33268 5355.17822,6525.9181 5351.88348,6525.9181 C5348.58863,6525.9181 5343.64647,6524.27172 5341.99927,6520.97906 C5338.7043,6516.04002 5350.23605,6509.45459 5341.99927,6502.86916 C5335.40968,6497.93012 5332.11495,6489.69853 5325.52536,6486.40588 C5320.5832,6483.11311 5313.99361,6491.34492 5307.40402,6489.69853 C5304.10928,6486.40588 5307.40402,6478.17406 5304.10928,6474.88141 C5295.87239,6468.29598 5297.5197,6497.93012 5271.16146,6489.69853 C5253.04035,6483.11311 5241.5086,6465.00332 5223.38738,6460.06428 C5221.73995,6460.06428 5167.37629,6463.35693 5167.37629,6463.35693 C5160.7867,6460.06428 5160.7867,6448.53981 5154.19711,6445.24715 C5152.54968,6441.95438 5157.49185,6453.47885 5154.19711,6455.12524 C5150.90237,6456.77151 5144.31279,6455.12524 5142.66536,6451.83246 C5141.01805,6446.89342 5149.25495,6440.30822 5145.96021,6437.01534 C5121.24929,6412.32024 5093.24385,6456.77151 5098.18602,6458.41789 C5108.07034,6460.06428 5117.95466,6456.77151 5127.83887,6458.41789 C5134.42846,6460.06428 5116.30712,6461.71055 5111.36508,6465.00332 C5108.07034,6466.64959 5113.0125,6474.88141 5111.36508,6476.52779 C5070.18035,6497.93012 5099.83344,6466.64959 5066.88562,6468.29598 C5061.94346,6468.29598 4986.16383,6486.40588 4981.22167,6476.52779 C4979.57424,6473.23502 4991.10588,6471.58863 4989.45845,6469.94236 C4974.63208,6458.41789 4968.04249,6507.8082 4968.04249,6450.18619 C4966.39518,6427.13725 4982.86886,6405.73481 4984.51629,6382.68598 C4984.51629,6379.39321 4977.9267,6379.39321 4977.9267,6374.45417 C4976.2795,6366.22247 4979.57424,6357.99088 4982.86886,6349.75907 L5005.93236,6311.89311 C5007.57979,6302.01491 5009.2271,6265.79534 5014.16926,6254.27098 C5027.34844,6227.92939 5060.29603,6208.17333 5078.41737,6176.89269 C5085.00696,6165.36822 4986.16383,6153.84374 4979.57424,6148.9047 C4974.63208,6143.96566 4977.9267,6134.08769 4972.98465,6129.14865 C4964.74775,6122.56322 4912.03128,6143.96566 4908.73666,6139.02673 C4907.08923,6134.08769 4913.67882,6127.50226 4910.38386,6124.2096 C4860.96235,6079.75833 4893.91017,6147.25855 4874.14141,6125.85599 C4857.66761,6109.39248 4849.4306,6071.5264 4836.25165,6063.29482 C4831.30949,6058.35578 4821.42517,6063.29482 4818.13032,6058.35578 C4800.00909,6025.42875 4865.90451,6012.25801 4842.84124,5984.27014 C4839.54628,5979.33109 4800.00909,5976.03844 4791.77208,5941.46525 C4776.94559,5880.55024 4852.72545,5883.84301 4829.66207,5845.97706 C4824.7199,5837.74536 4809.89342,5839.39163 4806.59868,5829.51354 C4804.95126,5822.92823 4818.13032,5816.3428 4816.48301,5809.75737 C4816.48301,5804.81833 4806.59868,5811.40376 4803.30383,5808.11098 C4801.65652,5806.46471 4778.59302,5771.89142 4780.24045,5766.95237 C4781.88776,5760.36706 4793.41951,5760.36706 4795.06693,5753.78163 C4800.00909,5725.79364 4752.2349,5715.91556 4767.06127,5712.62302 C4772.00343,5710.97652 4775.2984,5717.56195 4778.59302,5717.56195 L4809.89342,5689.57407 C4811.54084,5681.34238 4790.12477,5691.22046 4796.71436,5678.04972 C4801.65652,5666.52525 4813.18815,5658.29366 4818.13032,5646.76919 C4832.95669,5610.54951 4796.71436,5584.20791 4786.82992,5566.09801 C4785.18261,5562.80547 4788.47734,5557.86642 4790.12477,5554.57377 C4790.12477,5551.28099 4786.82992,5546.34195 4790.12477,5544.69568 C4798.36167,5539.75664 4808.24599,5544.69568 4818.13032,5541.40291 C4821.42517,5539.75664 4814.83558,5529.87855 4818.13032,5531.52482 C4828.01453,5534.81759 4834.60423,5546.34195 4846.13586,5546.34195 C4857.66761,5547.98834 4902.14707,5533.17121 4907.08923,5521.64674 C4912.03128,5510.12227 4875.78884,5508.47611 4890.61532,5498.59802 C4916.97344,5480.48812 4948.27384,5473.9027 4941.68425,5432.74397 C4940.03694,5409.69526 4879.08369,5419.57334 4893.91017,5394.87813 C4895.55749,5389.93909 4903.7945,5394.87813 4903.7945,5391.58536 C4905.44169,5386.64631 4897.20491,5381.70727 4898.85234,5376.76823 C4898.85234,5373.47557 4903.7945,5373.47557 4907.08923,5373.47557 C4918.62087,5373.47557 4928.50519,5378.41461 4940.03694,5378.41461 C4953.216,5378.41461 4941.68425,5352.07313 4946.62642,5338.90239 C4949.92127,5327.37792 4977.9267,5274.69483 4974.63208,5246.70696 C4979.57424,5245.06058 4984.51629,5241.76792 4989.45845,5235.18249 C4996.04804,5228.59706 4981.22167,5231.88972 4966.39518,5231.88972 L4966.39518,5231.88972 C4963.10033,5228.59706 4958.15817,5230.24345 4954.86343,5230.24345 C4951.56858,5230.24345 4949.92127,5228.59706 4948.27384,5226.95068 C4935.09478,5210.48739 4971.33734,5159.45069 4984.51629,5152.86526 C4992.75319,5147.92622 5002.63763,5157.80419 5010.87452,5157.80419 C5134.42846,5152.86526 4882.37842,5142.98718 5070.18035,5147.92622 C5071.82778,5147.92622 5076.76994,5149.57238 5078.41737,5151.21876 C5088.30169,5169.32866 5094.89128,5245.06058 5136.076,5228.59706 C5149.25495,5223.65802 5122.89671,5110.06015 5160.7867,5110.06015 C5164.08143,5110.06015 5164.08143,5119.93824 5169.0236,5121.58462 C5173.96576,5124.87728 5182.20277,5124.87728 5188.79213,5124.87728 C5205.26604,5128.17005 5223.38738,5111.70654 5238.21387,5118.29197 C5249.74562,5123.23101 5249.74562,5139.69429 5256.33509,5149.57238 C5264.5721,5162.74324 5309.05145,5246.70696 5309.05145,5190.73111 C5309.05145,5179.20675 5284.34064,5182.49941 5274.45643,5172.62132 C5257.98251,5157.80419 5261.27714,5119.93824 5229.97685,5114.99919 C5225.03469,5114.99919 5187.14493,5123.23101 5190.43967,5100.18207 C5192.0871,5085.36494 5215.15037,5039.26728 5200.32388,5021.15738 C5195.38172,5016.21834 5159.13927,5034.32824 5154.19711,5016.21834 C5152.54968,5012.92568 5164.08143,5016.21834 5165.72886,5012.92568 C5169.0236,5009.63314 5154.19711,5003.04771 5157.49185,5003.04771 C5173.96576,4998.10867 5201.97142,5014.57218 5206.91347,4981.64516 C5206.91347,4978.3525 5169.0236,4937.19389 5165.72886,4930.60846 C5160.7867,4919.08399 5159.13927,4905.91324 5159.13927,4894.38877 C5170.67102,4896.03516 5190.43967,4894.38877 5195.38172,4894.38877 C5216.79779,4897.68143 5238.21387,4909.2059 5259.62994,4912.49867 C5257.98251,4917.43772 5257.98251,4919.08399 5261.27714,4917.43772 C5267.86684,4912.49867 5271.16146,4904.26686 5277.75105,4902.62047 C5281.04578,4902.62047 5276.10362,4910.85229 5277.75105,4914.14494 C5282.69321,4917.43772 5289.2828,4915.79133 5294.22496,4917.43772 C5305.75671,4919.08399 5317.28834,4919.08399 5325.52536,4924.02303 C5330.46752,4927.3158 5332.11495,4933.901 5332.11495,4938.84004 C5332.11495,4940.48643 5328.82009,4938.84004 5328.82009,4938.84004 C5325.52536,4940.48643 5318.93577,4943.77909 5322.23051,4945.42547 C5323.87793,4948.71813 5332.11495,4942.13281 5333.76214,4945.42547 C5338.7043,4953.65729 5337.05711,4963.53537 5333.76214,4971.76707 C5330.46752,4979.99877 5307.40402,4984.93781 5313.99361,4993.16963 C5322.23051,5004.6941 5353.53079,4975.05973 5355.17822,4989.87686 C5356.82564,4999.75506 5338.7043,5017.86473 5348.58863,5021.15738 C5360.12038,5026.09643 5360.12038,4998.10867 5371.65213,4996.46228 C5381.53645,4994.81601 5419.42644,5027.74281 5427.66322,5024.45015 C5429.31065,5024.45015 5462.25836,4986.5842 5473.79011,5006.34025 C5496.85349,5049.14537 5381.53645,5093.59664 5444.13713,5100.18207 C5457.31619,5101.82845 5467.20052,5085.36494 5480.37969,5085.36494 C5496.85349,5087.01144 5478.73227,5134.75536 5514.97471,5110.06015 C5523.21161,5105.12111 5528.15377,5063.9625 5542.98038,5055.7308 C5564.39622,5044.20633 5587.45972,5039.26728 5597.34404,5062.31611 C5595.69662,5057.37707 5594.04931,5049.14537 5595.69662,5047.49898 C5605.58094,5035.97463 5618.76012,5031.03547 5626.9969,5021.15738 C5636.88123,5009.63314 5638.52865,4991.52324 5648.41298,4979.99877 C5651.70771,4976.70611 5673.12379,4984.93781 5692.89232,4991.52324 C5701.12933,4989.87686 5709.36623,4988.23058 5712.66108,4988.23058 C5724.19272,4988.23058 5717.60325,5011.2793 5724.19272,5021.15738 C5729.13488,5027.74281 5740.66663,5024.45015 5745.60879,5031.03547 C5755.49312,5039.26728 5760.43516,5062.31611 5775.26165,5060.66984 C5786.7934,5060.66984 5799.97258,5052.43802 5813.15164,5055.7308 C5818.0938,5057.37707 5806.56205,5065.60888 5806.56205,5070.54792 C5808.20947,5083.71855 5813.15164,5096.88941 5818.0938,5110.06015 C5823.03596,5123.23101 5839.50976,5128.17005 5852.68882,5133.10909 C5862.57314,5136.40175 5869.16273,5138.04814 5874.10489,5136.40175 L5874.10489,5136.40175 Z M5724.19272,5009.63314 C5727.48757,4994.81601 5720.89798,4976.70611 5725.84014,4961.88898 C5730.78231,4947.07186 5780.20381,4989.87686 5770.31949,4975.05973 C5763.73013,4965.18164 5742.31406,4970.12068 5737.37189,4958.59633 C5735.72447,4948.71813 5750.55095,4940.48643 5757.14054,4932.25484 C5763.73013,4927.3158 5752.19838,4952.0109 5758.78797,4953.65729 C5770.31949,4956.94994 5781.85124,4952.0109 5791.73556,4955.30356 C5801.61989,4958.59633 5778.5565,4971.76707 5781.85124,4981.64516 C5785.14609,4993.16963 5799.97258,4994.81601 5804.91474,5006.34025 C5808.20947,5009.63314 5786.7934,5026.09643 5760.43516,5032.68185 C5747.25622,5037.6209 5735.72447,5017.86473 5724.19272,5009.63314 L5724.19272,5009.63314 Z" id="de" stroke="#FFFFFF" stroke-width="3" fill="#87B024"></path>
                        <path d="M5399.65756,6632.93066 C5398.01036,6639.51609 5399.65756,6647.74767 5396.36294,6654.3331 C5394.71551,6660.91853 5389.77335,6665.85757 5386.47861,6672.44288 C5386.47861,6675.73566 5417.7789,6698.78448 5398.01036,6705.36991 C5363.41511,6713.6015 5374.94686,6665.85757 5345.29389,6687.26013 C5322.23051,6703.72341 5351.88348,6721.83331 5355.17822,6730.06501 C5356.82564,6736.65044 5346.94143,6741.58948 5346.94143,6748.17491 C5348.58863,6754.76023 5355.17822,6758.053 5358.47295,6762.99204 C5360.12038,6769.57747 5346.94143,6776.16267 5340.35184,6772.87012 C5328.82009,6766.2847 5335.40968,6739.9431 5322.23051,6738.29683 C5277.75105,6730.06501 5299.16712,6762.99204 5272.80889,6754.76023 C5229.97685,6744.88214 5256.33509,6711.95534 5234.91901,6708.66245 C5206.91347,6703.72341 5225.03469,6748.17491 5225.03469,6751.46757 C5218.44522,6781.10171 5178.90792,6790.97979 5178.90792,6827.19948 C5178.90792,6843.66299 5211.85563,6837.07757 5183.85008,6858.48001 C5173.96576,6866.71182 5170.67102,6838.72395 5164.08143,6830.49225 C5159.13927,6825.55321 5147.60752,6828.84587 5145.96021,6822.26044 C5144.31279,6815.67512 5155.84454,6810.73608 5157.49185,6804.15065 C5157.49185,6800.85788 5154.19711,6797.56522 5152.54968,6797.56522 C5134.42846,6790.97979 5108.07034,6786.04075 5096.53859,6764.63843 C5094.89128,6758.053 5099.83344,6751.46757 5099.83344,6746.52853 C5099.83344,6736.65044 5101.48075,6726.77235 5098.18602,6716.89438 C5096.53859,6715.24788 5093.24385,6718.54054 5089.94912,6720.18693 C5081.7121,6726.77235 5075.12252,6733.35778 5066.88562,6739.9431 C5058.64883,6746.52853 5045.46966,6749.82118 5042.17492,6759.69927 C5040.5275,6766.2847 5055.35387,6769.57747 5053.70667,6777.80917 C5053.70667,6786.04075 5007.57979,6833.78491 5005.93236,6833.78491 C4991.10588,6833.78491 4979.57424,6814.02874 4964.74775,6817.32139 C4943.33168,6822.26044 4898.85234,6855.18747 4882.37842,6825.55321 C4875.78884,6815.67512 4875.78884,6804.15065 4867.55194,6795.91884 C4865.90451,6792.62618 4859.31492,6802.50427 4857.66761,6799.21161 C4856.02019,6794.27257 4864.25709,6786.04075 4860.96235,6781.10171 C4859.31492,6776.16267 4849.4306,6781.10171 4846.13586,6777.80917 C4836.25165,6761.34565 4859.31492,6762.99204 4857.66761,6753.11395 C4856.02019,6744.88214 4846.13586,6741.58948 4846.13586,6733.35778 C4844.48844,6728.41874 4857.66761,6718.54054 4851.07803,6716.89438 C4829.66207,6707.0163 4783.53518,6707.0163 4768.70881,6730.06501 C4765.41407,6733.35778 4767.06127,6736.65044 4767.06127,6741.58948 C4768.70881,6744.88214 4776.94559,6748.17491 4775.2984,6751.46757 C4765.41407,6771.22374 4742.35057,6779.45555 4722.58193,6774.51651 C4720.9345,6774.51651 4729.17151,6771.22374 4729.17151,6767.93108 C4729.17151,6746.52853 4745.64531,6754.76023 4747.29274,6749.82118 C4755.52975,6723.47981 4734.11368,6700.43087 4753.88232,6675.73566 C4765.41407,6659.27214 4795.06693,6659.27214 4801.65652,6641.16247 C4806.59868,6631.28416 4796.71436,6616.46714 4801.65652,6604.94279 C4808.24599,6591.77193 4831.30949,6596.71097 4841.19382,6585.1865 C4852.72545,6575.30842 4865.90451,6542.38162 4880.731,6530.85715 C4888.96801,6524.27172 4897.20491,6542.38162 4898.85234,6519.33268 C4898.85234,6511.10098 4874.14141,6527.56449 4872.4941,6519.33268 C4869.19925,6511.10098 4882.37842,6504.51555 4887.32059,6497.93012 C4887.32059,6497.93012 4890.61532,6499.5765 4890.61532,6497.93012 C4890.61532,6494.63758 4884.02585,6488.05215 4887.32059,6486.40588 C4933.44736,6473.23502 4913.67882,6535.79619 4969.68992,6478.17406 C4971.33734,6478.17406 4974.63208,6474.88141 4976.2795,6471.58863 L4979.57424,6468.29598 C4982.86886,6466.64959 4986.16383,6466.64959 4989.45845,6469.94236 C4991.10588,6471.58863 4979.57424,6473.23502 4981.22167,6476.52779 C4986.16383,6486.40588 5061.94346,6468.29598 5066.88562,6468.29598 C5099.83344,6466.64959 5070.18035,6497.93012 5111.36508,6476.52779 C5113.0125,6474.88141 5108.07034,6466.64959 5111.36508,6465.00332 C5116.30712,6461.71055 5134.42846,6460.06428 5127.83887,6458.41789 C5117.95466,6456.77151 5108.07034,6460.06428 5098.18602,6458.41789 C5093.24385,6456.77151 5121.24929,6412.32024 5145.96021,6437.01534 C5149.25495,6440.30822 5141.01805,6446.89342 5142.66536,6451.83246 C5144.31279,6455.12524 5150.90237,6456.77151 5154.19711,6455.12524 C5157.49185,6453.47885 5152.54968,6441.95438 5154.19711,6445.24715 C5160.7867,6448.53981 5160.7867,6460.06428 5167.37629,6463.35693 C5167.37629,6463.35693 5221.73995,6460.06428 5223.38738,6460.06428 C5239.86118,6463.35693 5251.39293,6479.82045 5266.2193,6488.05215 L5266.2193,6489.69853 C5266.2193,6501.22301 5287.63537,6504.51555 5281.04578,6520.97906 C5279.39847,6524.27172 5272.80889,6522.62545 5271.16146,6524.27172 C5266.2193,6532.50353 5249.74562,6591.77193 5253.04035,6593.41832 C5256.33509,6595.06459 5310.69887,6600.00374 5312.34618,6600.00374 C5315.64103,6603.2964 5307.40402,6608.23544 5310.69887,6611.5281 C5318.93577,6621.40619 5328.82009,6627.99162 5340.35184,6632.93066 C5366.70997,6646.10152 5371.65213,6601.65002 5389.77335,6604.94279 C5394.71551,6604.94279 5398.01036,6606.58906 5401.3051,6608.23544 L5399.65756,6623.05257 C5398.01036,6627.99162 5396.36294,6631.28416 5399.65756,6632.93066 L5399.65756,6632.93066 Z" id="ch" stroke="#FFFFFF" stroke-width="3" fill="#87B024"></path>
                        <path d="M5266.2193,6489.69853 C5266.2193,6501.22301 5287.63537,6504.51555 5281.04578,6520.97906 C5279.39847,6524.27172 5272.80889,6522.62545 5271.16146,6524.27172 C5269.51426,6529.21076 5264.5721,6542.38162 5259.62994,6557.19875 L5267.86684,6575.30842 L5267.86684,6595.06459 C5284.34064,6596.71097 5310.69887,6600.00374 5312.34618,6600.00374 C5315.64103,6603.2964 5307.40402,6608.23544 5310.69887,6611.5281 C5318.93577,6621.40619 5328.82009,6627.99162 5340.35184,6632.93066 C5366.70997,6646.10152 5371.65213,6601.65002 5389.77335,6604.94279 C5424.36849,6609.88183 5388.12604,6627.99162 5399.65756,6632.93066 C5426.0158,6646.10152 5402.95253,6629.638 5429.31065,6632.93066 C5442.48971,6634.57704 5455.66888,6669.15023 5482.02689,6654.3331 L5503.44296,6609.88183 C5516.62214,6600.00374 5574.28054,6606.58906 5589.10715,6604.94279 C5613.81796,6603.2964 5633.58649,6581.89385 5658.2973,6581.89385 C5664.88689,6581.89385 5646.76555,6590.12554 5645.11824,6596.71097 C5636.88123,6631.28416 5658.2973,6608.23544 5671.47648,6627.99162 C5674.77121,6632.93066 5666.53431,6639.51609 5669.82905,6646.10152 C5671.47648,6649.39406 5676.41864,6642.80863 5679.71337,6646.10152 C5711.01366,6669.15023 5719.25056,6672.44288 5762.0827,6679.02831 C5811.50421,6685.61374 5862.57314,6687.26013 5913.6423,6695.49183 C5926.82125,6697.13821 5940.00031,6707.0163 5953.17949,6708.66245 C5966.35855,6710.30884 5979.53772,6700.43087 5992.71667,6702.07726 C6000.95368,6703.72341 6005.89584,6715.24788 6014.13274,6715.24788 C6017.42748,6716.89438 6015.78017,6707.0163 6019.0749,6705.36991 C6027.3118,6697.13821 6040.49098,6693.84544 6048.72776,6683.96736 C6055.31735,6679.02831 6050.3753,6667.50384 6055.31735,6662.5648 C6086.61775,6637.86959 6119.56557,6669.15023 6149.21843,6655.97949 C6159.10275,6651.04056 6160.75018,6636.2232 6170.6345,6632.93066 C6172.28181,6631.28416 6226.6456,6639.51609 6228.29291,6637.86959 C6233.23507,6636.2232 6223.35075,6629.638 6221.70344,6624.69896 C6218.40858,6608.23544 6224.99817,6598.35736 6236.52992,6595.06459 L6236.52992,6595.06459 C6266.18278,6562.13779 6279.36207,6557.19875 6294.18844,6532.50353 C6297.48318,6525.9181 6267.83032,6491.34492 6276.0671,6474.88141 C6287.59885,6451.83246 6315.6044,6476.52779 6312.30966,6443.60076 C6310.66224,6415.61289 6261.24073,6418.90567 6271.12494,6410.67385 C6294.18844,6390.91768 6353.49427,6417.25928 6363.3786,6399.14949 C6365.02602,6392.56407 6341.96252,6339.88098 6365.02602,6330.0029 C6345.25737,6308.60034 6328.78358,6287.19778 6313.95709,6262.50268 C6300.77791,6241.10013 6348.55211,6206.52694 6313.95709,6181.83173 C6309.01493,6178.53896 6302.42534,6188.41716 6297.48318,6188.41716 C6289.24628,6186.77077 6272.77237,6165.36822 6261.24073,6168.66087 C6253.00383,6171.95364 6249.70898,6185.12439 6239.82466,6190.06343 C6233.23507,6191.70982 6224.99817,6188.41716 6218.40858,6188.41716 C6173.92924,6183.478 6136.03925,6147.25855 6088.26517,6147.25855 C6080.02816,6147.25855 6073.43869,6157.13652 6065.20167,6157.13652 C6061.90694,6155.49013 6065.20167,6147.25855 6061.90694,6145.61216 C6055.31735,6142.31927 6045.43314,6139.02673 6040.49098,6143.96566 C6038.84355,6147.25855 6042.1384,6195.00247 6038.84355,6198.29524 C6035.54882,6203.23429 6024.01707,6191.70982 6017.42748,6196.64886 L6004.24842,6239.45386 C5992.71667,6242.74651 5981.18492,6227.92939 5969.6534,6227.92939 C5963.06381,6227.92939 5964.71124,6241.10013 5958.12165,6242.74651 C5923.52651,6255.91726 5903.75775,6221.34396 5877.39974,6208.17333 L5875.75232,6208.17333 C5877.39974,6213.11237 5879.04705,6218.05142 5879.04705,6222.99034 C5877.39974,6267.44173 5867.51542,6257.56364 5832.92017,6249.33194 C5829.62555,6249.33194 5826.33081,6250.97821 5824.68339,6254.27098 C5821.38853,6270.7345 5831.27297,6288.84417 5814.79906,6302.01491 C5799.97258,6313.53938 5730.78231,6330.0029 5729.13488,6356.3445 C5729.13488,6356.3445 5768.67229,6410.67385 5768.67229,6412.32024 C5770.31949,6413.96662 5747.25622,6433.72268 5755.49312,6440.30822 C5773.61445,6456.77151 5791.73556,6432.07629 5776.90908,6486.40588 C5776.90908,6489.69853 5773.61445,6494.63758 5770.31949,6494.63758 C5717.60325,6479.82045 5758.78797,6453.47885 5734.07704,6451.83246 C5720.89798,6451.83246 5709.36623,6463.35693 5696.18729,6461.71055 C5689.5977,6460.06428 5691.24512,6448.53981 5686.30296,6446.89342 C5676.41864,6443.60076 5666.53431,6451.83246 5658.2973,6448.53981 C5655.00256,6446.89342 5661.59215,6437.01534 5658.2973,6437.01534 C5638.52865,6438.66172 5656.64987,6465.00332 5651.70771,6466.64959 C5628.64433,6473.23502 5590.75446,6463.35693 5569.33838,6471.58863 C5562.74891,6474.88141 5566.04365,6486.40588 5559.45406,6489.69853 C5552.8647,6494.63758 5544.62769,6486.40588 5538.03821,6491.34492 C5533.09594,6492.99108 5539.68552,6501.22301 5536.39079,6504.51555 C5534.74336,6506.16205 5478.73227,6520.97906 5472.14257,6517.6864 C5468.84794,6514.39363 5472.14257,6506.16205 5468.84794,6502.86916 C5467.20052,6499.5765 5458.96362,6499.5765 5457.31619,6496.28396 C5455.66888,6492.99108 5465.55321,6494.63758 5463.90578,6491.34492 C5457.31619,6469.94236 5411.18931,6496.28396 5398.01036,6481.46683 C5398.01036,6481.46683 5401.3051,6479.82045 5401.3051,6478.17406 C5391.42078,6471.58863 5401.3051,6499.5765 5398.01036,6511.10098 C5398.01036,6517.6864 5366.70997,6555.55236 5355.17822,6544.02789 C5348.58863,6537.44258 5366.70997,6527.56449 5361.7678,6520.97906 C5360.12038,6519.33268 5355.17822,6525.9181 5351.88348,6525.9181 C5348.58863,6525.9181 5343.64647,6524.27172 5341.99927,6520.97906 C5338.7043,6516.04002 5350.23605,6509.45459 5341.99927,6502.86916 C5335.40968,6497.93012 5332.11495,6489.69853 5325.52536,6486.40588 C5320.5832,6483.11311 5313.99361,6491.34492 5307.40402,6489.69853 C5304.10928,6486.40588 5307.40402,6478.17406 5304.10928,6474.88141 C5295.87239,6468.29598 5297.5197,6497.93012 5271.16146,6489.69853 C5269.51426,6488.05215 5267.86684,6488.05215 5266.2193,6488.05215 L5266.2193,6489.69853 L5266.2193,6489.69853 Z" id="at" stroke="#FFFFFF" stroke-width="3" fill="#FFFFFF"></path>
                        <path d="M6325.48884,6201.5879 C6350.19954,6104.45343 6404.5632,6186.77077 6453.98494,6124.2096 C6457.27968,6119.27056 6452.33751,6111.03886 6455.63225,6106.09982 C6460.57441,6099.51439 6472.10616,6102.80705 6477.04821,6096.22162 C6477.04821,6096.22162 6490.2275,6045.18492 6490.2275,6043.53865 C6505.05387,6017.19705 6544.59117,5995.79461 6572.59671,5982.62387 C6566.00713,5974.39205 6570.94929,5959.57492 6564.3597,5951.34322 C6557.77011,5944.75779 6544.59117,5949.69684 6538.00158,5944.75779 C6536.35427,5943.11141 6521.52767,5903.59918 6519.88036,5901.9528 C6511.64334,5895.36737 6496.81686,5900.30653 6486.93253,5897.01375 C6478.69575,5895.36737 6460.57441,5890.42833 6453.98494,5885.48928 C6450.69009,5883.84301 6450.69009,5877.25758 6447.39535,5878.90397 C6419.38969,5890.42833 6473.75359,5893.7211 6425.97928,5898.66014 C6422.68454,5898.66014 6417.74249,5897.01375 6414.44753,5893.7211 C6409.50537,5888.78205 6411.15279,5880.55024 6406.21074,5875.6112 C6399.62116,5870.67215 6376.55777,5869.026 6383.14724,5864.08696 C6404.5632,5844.33067 6417.74249,5869.026 6397.97362,5829.51354 C6397.97362,5827.86727 6394.67899,5827.86727 6393.03157,5829.51354 C6391.38426,5832.80631 6393.03157,5839.39163 6389.73683,5841.03801 C6383.14724,5844.33067 6374.91035,5841.03801 6368.32076,5841.03801 C6361.73128,5841.03801 6353.49427,5844.33067 6346.90468,5842.6844 C6332.0782,5837.74536 6304.07277,5813.05003 6279.36207,5816.3428 C6269.47752,5817.98919 6305.72008,5854.20864 6304.07277,5857.50153 C6299.1306,5867.3795 6282.65669,5864.08696 6274.41968,5870.67215 C6269.47752,5875.6112 6271.12494,5887.13567 6264.53535,5890.42833 C6239.82466,5900.30653 6229.94033,5857.50153 6224.99817,5850.9161 L6187.10819,5827.86727 C6183.81356,5806.46471 6246.41425,5798.2329 6201.9349,5776.83057 C6193.69777,5771.89142 6157.45533,5791.6477 6157.45533,5791.6477 C6152.51317,5786.70866 6157.45533,5778.47684 6152.51317,5773.5378 C6150.86574,5770.24514 6145.92358,5773.5378 6140.98142,5775.18419 C6139.33411,5775.18419 6137.68668,5780.12323 6134.39194,5778.47684 C6131.09709,5773.5378 6132.74452,5765.3061 6126.15493,5760.36706 C6104.73897,5747.1962 6083.32301,5762.01333 6056.96489,5740.61089 C6038.84355,5727.44003 6063.55425,5714.2694 6033.90139,5710.97652 C5987.77451,5702.74493 6040.49098,5738.9645 5996.01152,5745.54993 C5992.71667,5752.13524 5991.06947,5757.07429 5986.12708,5757.07429 C5964.71124,5762.01333 5930.11599,5671.46429 5911.99488,5722.50099 C5908.70014,5730.73269 5938.353,5737.31812 5931.76341,5742.25716 C5911.99488,5758.72067 5883.98922,5760.36706 5864.22057,5771.89142 C5860.92583,5773.5378 5864.22057,5781.76962 5860.92583,5783.41577 C5847.74666,5790.0012 5829.62555,5780.12323 5819.74122,5788.35481 C5811.50421,5794.94024 5814.79906,5808.11098 5806.56205,5814.69641 C5803.26731,5817.98919 5799.97258,5806.46471 5795.03041,5808.11098 C5780.20381,5811.40376 5778.5565,5831.15993 5768.67229,5837.74536 C5763.73013,5842.6844 5753.84581,5834.45258 5748.90364,5839.39163 C5743.96148,5842.6844 5748.90364,5852.56248 5743.96148,5857.50153 C5737.37189,5865.73311 5719.25056,5850.9161 5714.30839,5850.9161 C5673.12379,5857.50153 5666.53431,5888.78205 5653.35514,5915.12365 C5650.0604,5921.70885 5650.0604,5898.66014 5643.47081,5893.7211 C5638.52865,5887.13567 5628.64433,5885.48928 5620.40754,5883.84301 C5605.58094,5880.55024 5636.88123,5933.23332 5669.82905,5954.63588 C5673.12379,5956.28227 5684.65554,5957.92854 5686.30296,5967.80662 C5691.24512,5990.85557 5669.82905,5982.62387 5666.53431,6000.73365 C5664.88689,6005.67258 5701.12933,6066.58736 5706.0715,6071.5264 C5734.07704,6099.51439 5740.66663,6079.75833 5758.78797,6097.868 C5770.31949,6109.39248 5771.96691,6127.50226 5783.49866,6137.38023 C5806.56205,6153.84374 5864.22057,6175.2463 5875.75232,6208.17333 L5877.39974,6208.17333 C5903.75775,6221.34396 5923.52651,6255.91726 5958.12165,6242.74651 C5964.71124,6241.10013 5963.06381,6227.92939 5969.6534,6227.92939 C5981.18492,6227.92939 5992.71667,6242.74651 6004.24842,6239.45386 L6017.42748,6196.64886 C6024.01707,6191.70982 6035.54882,6203.23429 6038.84355,6198.29524 C6042.1384,6195.00247 6038.84355,6147.25855 6040.49098,6143.96566 C6045.43314,6139.02673 6055.31735,6142.31927 6061.90694,6145.61216 C6065.20167,6147.25855 6061.90694,6155.49013 6065.20167,6157.13652 C6073.43869,6157.13652 6080.02816,6147.25855 6088.26517,6147.25855 C6136.03925,6147.25855 6173.92924,6183.478 6218.40858,6188.41716 C6224.99817,6188.41716 6233.23507,6191.70982 6239.82466,6190.06343 C6249.70898,6185.12439 6253.00383,6171.95364 6261.24073,6168.66087 C6272.77237,6165.36822 6289.24628,6186.77077 6297.48318,6188.41716 C6302.42534,6188.41716 6309.01493,6178.53896 6313.95709,6181.83173 C6322.19399,6188.41716 6325.48884,6195.00247 6325.48884,6201.5879 L6325.48884,6201.5879 Z" id="cz" stroke="#FFFFFF" stroke-width="3" fill="#87B024"></path>
                        <path d="M7103.05514,5999.08715 C7104.70245,6015.55066 7093.1707,6038.59961 7091.52339,6055.06301 C7089.87597,6066.58736 7091.52339,6078.11183 7086.58123,6087.98992 C7081.63907,6099.51439 7066.81258,6102.80705 7065.16515,6114.33152 C7061.87053,6125.85599 7070.10732,6137.38023 7070.10732,6150.55109 C7070.10732,6163.72183 7045.39662,6163.72183 7032.21745,6167.0146 C7025.62797,6168.66087 7019.03839,6176.89269 7014.09622,6173.59992 C6982.79582,6163.72183 7007.50664,6132.44119 6966.32203,6130.79503 C6949.84812,6130.79503 6939.96379,6153.84374 6923.48988,6155.49013 C6895.48445,6160.42917 6859.24189,6130.79503 6834.53119,6162.07556 C6824.64687,6175.2463 6831.23623,6219.69757 6813.11512,6227.92939 C6806.52553,6229.57577 6796.64121,6222.99034 6790.05162,6226.283 C6763.69338,6242.74651 6801.58337,6254.27098 6760.39876,6260.8563 C6747.2197,6262.50268 6717.56661,6226.283 6704.38755,6249.33194 C6699.44539,6257.56364 6707.68229,6272.38077 6701.09293,6278.9662 C6682.97159,6297.07587 6631.90255,6285.55163 6608.83928,6302.01491 C6587.4232,6315.18577 6610.48659,6338.2346 6617.07617,6348.11257 C6623.66576,6359.63704 6483.6378,6384.33225 6463.86926,6381.03959 C6432.56887,6374.45417 6409.50537,6331.64928 6379.85251,6328.35651 C6373.26292,6326.71024 6368.32076,6328.35651 6365.02602,6330.0029 C6345.25737,6308.60034 6328.78358,6287.19778 6313.95709,6262.50268 C6304.07277,6246.03917 6328.78358,6222.99034 6327.13615,6201.5879 C6350.19954,6104.45343 6404.5632,6185.12439 6453.98494,6124.2096 C6457.27968,6119.27056 6452.33751,6111.03886 6455.63225,6106.09982 C6460.57441,6099.51439 6472.10616,6102.80705 6477.04821,6096.22162 C6477.04821,6096.22162 6490.2275,6045.18492 6490.2275,6043.53865 C6505.05387,6017.19705 6544.59117,5995.79461 6572.59671,5982.62387 C6575.89145,5987.56291 6587.4232,5979.33109 6592.36536,5984.27014 C6597.30753,5989.20918 6589.07051,6000.73365 6594.01267,6005.67258 C6620.3708,6027.07514 6641.78687,5943.11141 6658.26078,5954.63588 C6668.14511,5961.22131 6668.14511,5976.03844 6676.382,5984.27014 C6678.02943,5985.91652 6684.61902,5980.97748 6686.26621,5982.62387 C6687.91364,5985.91652 6681.32405,5992.50195 6684.61902,5994.14811 C6692.8558,5995.79461 6701.09293,5987.56291 6707.68229,5990.85557 C6719.21404,5995.79461 6709.32971,6027.07514 6709.32971,6030.36779 C6709.32971,6038.59961 6724.1562,6025.42875 6732.39321,6023.78248 C6738.98269,6022.13609 6745.57227,6035.30683 6752.16186,6032.01418 C6753.80906,6030.36779 6773.57794,5979.33109 6796.64121,5974.39205 C6803.23079,5972.74567 6809.82027,5979.33109 6816.40985,5979.33109 C6822.99944,5977.68471 6826.29406,5967.80662 6832.88377,5969.45301 C6846.06271,5971.09939 6854.29972,5989.20918 6867.47879,5989.20918 C6877.36311,5989.20918 6885.60012,5979.33109 6890.54229,5971.09939 C6892.18948,5967.80662 6882.30527,5967.80662 6882.30527,5964.51397 C6887.24743,5941.46525 6897.13187,5964.51397 6903.72123,5961.22131 C6908.66339,5959.57492 6908.66339,5949.69684 6913.60556,5949.69684 C6938.31648,5943.11141 6994.32757,5944.75779 7015.74353,5961.22131 C7020.68581,5966.16035 7019.03839,5977.68471 7025.62797,5980.97748 C7035.5123,5987.56291 7047.04382,5987.56291 7058.57557,5990.85557 C7073.40205,5995.79461 7088.22854,5997.44099 7103.05514,5999.08715 L7103.05514,5999.08715 Z" id="sk" stroke="#FFFFFF" stroke-width="3" fill="#87B024"></path>
                        <path d="M6261.24073,6591.77193 L6261.24073,6591.77193 L6261.24073,6591.77193 L6261.24073,6591.77193 C6267.83032,6591.77193 6281.00927,6642.80863 6315.6044,6670.79661 C6360.08386,6707.0163 6397.97362,6726.77235 6432.56887,6771.22374 C6437.51103,6777.80917 6470.45862,6772.87012 6473.75359,6774.51651 C6486.93253,6779.45555 6496.81686,6790.97979 6508.34861,6795.91884 C6531.41211,6805.79704 6603.897,6804.15065 6625.31296,6786.04075 C6628.60792,6782.74821 6630.25512,6759.69927 6641.78687,6759.69927 C6673.08727,6754.76023 6668.14511,6761.34565 6696.15077,6730.06501 C6701.09293,6725.12597 6707.68229,6741.58948 6722.50877,6730.06501 C6737.33538,6718.54054 6747.2197,6698.78448 6765.34081,6688.9064 C6803.23079,6664.21119 6771.93039,6688.9064 6799.93594,6690.55278 C6801.58337,6690.55278 6844.4154,6677.38193 6846.06271,6677.38193 C6854.29972,6677.38193 6862.53662,6685.61374 6870.77364,6685.61374 C6874.06837,6683.96736 6875.7158,6677.38193 6879.01054,6675.73566 C6888.89486,6672.44288 6938.31648,6667.50384 6941.61122,6655.97949 C6944.90595,6649.39406 6920.19514,6641.16247 6949.84812,6636.2232 C6961.37987,6634.57704 6972.91162,6646.10152 6982.79582,6642.80863 C7014.09622,6631.28416 7004.2119,6572.01576 7012.4488,6553.90597 C7015.74353,6548.96693 7023.98055,6548.96693 7027.27528,6544.02789 L7045.39662,6486.40588 C7048.69124,6478.17406 7053.63341,6471.58863 7053.63341,6463.35693 C7053.63341,6460.06428 7045.39662,6460.06428 7045.39662,6456.77151 C7047.04382,6441.95438 7065.16515,6395.85672 7073.40205,6382.68598 C7076.6969,6379.39321 7084.9338,6382.68598 7084.9338,6377.74694 C7093.1707,6346.46641 7081.63907,6323.41747 7117.88163,6288.84417 C7129.41315,6275.67354 7142.59232,6283.90524 7160.71355,6277.31981 C7178.83488,6269.08811 7180.48208,6244.3929 7193.66125,6231.22204 C7173.89272,6214.75853 7200.25096,6218.05142 7178.83488,6203.23429 C7175.54003,6201.5879 7170.59787,6198.29524 7165.65571,6198.29524 C7159.06623,6199.94152 7154.12407,6208.17333 7147.53449,6206.52694 C7137.65016,6199.94152 7136.00274,6183.478 7126.11841,6176.89269 C7121.17625,6173.59992 7114.58666,6181.83173 7109.64461,6180.18534 C7083.28638,6170.30726 7107.9973,6152.19759 7070.10732,6150.55109 C7070.10732,6163.72183 7045.39662,6163.72183 7032.21745,6167.0146 C7025.62797,6168.66087 7019.03839,6176.89269 7014.09622,6173.59992 C6982.79582,6163.72183 7007.50664,6132.44119 6966.32203,6130.79503 C6949.84812,6130.79503 6939.96379,6153.84374 6923.48988,6155.49013 C6895.48445,6160.42917 6859.24189,6130.79503 6834.53119,6162.07556 C6824.64687,6175.2463 6831.23623,6219.69757 6813.11512,6227.92939 C6806.52553,6229.57577 6796.64121,6222.99034 6790.05162,6226.283 C6763.69338,6242.74651 6801.58337,6254.27098 6760.39876,6260.8563 C6747.2197,6262.50268 6717.56661,6226.283 6704.38755,6249.33194 C6699.44539,6257.56364 6707.68229,6272.38077 6701.09293,6278.9662 C6682.97159,6297.07587 6631.90255,6285.55163 6608.83928,6302.01491 C6587.4232,6315.18577 6610.48659,6338.2346 6617.07617,6348.11257 C6623.66576,6359.63704 6483.6378,6384.33225 6463.86926,6381.03959 C6432.56887,6374.45417 6409.50537,6331.64928 6379.85251,6328.35651 C6373.26292,6326.71024 6368.32076,6328.35651 6365.02602,6330.0029 L6365.02602,6330.0029 C6341.96252,6339.88098 6365.02602,6392.56407 6363.3786,6399.14949 C6353.49427,6417.25928 6294.18844,6390.91768 6271.12494,6410.67385 C6261.24073,6418.90567 6310.66224,6415.61289 6312.30966,6443.60076 C6315.6044,6476.52779 6287.59885,6451.83246 6276.0671,6474.88141 C6267.83032,6491.34492 6297.48318,6525.9181 6294.18844,6532.50353 C6279.36207,6557.19875 6266.18278,6562.13779 6236.52992,6595.06459 L6236.52992,6595.06459 C6236.52992,6595.06459 6236.52992,6595.06459 6234.8825,6596.71097 C6238.17735,6595.06459 6239.82466,6593.41832 6243.11951,6593.41832 L6261.24073,6591.77193 L6261.24073,6591.77193 Z" id="hu" stroke="#FFFFFF" stroke-width="3" fill="#87B024"></path>
                        <path d="M4356.86216,5755.42802 C4370.04122,5755.42802 4378.27823,5732.37907 4388.16256,5737.31812 C4409.57863,5745.54993 4399.69431,5783.41577 4406.28367,5796.58674 C4416.16799,5819.63546 4452.41055,5793.29386 4457.35271,5819.63546 C4459.00014,5826.22088 4454.05798,5834.45258 4455.7054,5841.03801 C4459.00014,5854.20864 4526.54298,5837.74536 4529.83772,5865.73311 C4529.83772,5875.6112 4516.65866,5883.84301 4516.65866,5893.7211 C4515.01123,5900.30653 4528.19041,5900.30653 4528.19041,5905.24557 C4528.19041,5913.47727 4519.95339,5918.41631 4515.01123,5926.6479 C4510.06907,5936.52598 4564.43297,5949.69684 4587.49624,5928.29428 C4599.02799,5918.41631 4608.91231,5888.78205 4620.44406,5898.66014 C4623.7388,5901.9528 4615.5019,5906.89184 4613.85447,5911.83088 C4612.20705,5918.41631 4605.61758,5925.00174 4605.61758,5933.23332 C4605.61758,5939.81875 4615.5019,5941.46525 4617.1491,5948.05045 C4617.1491,5956.28227 4603.97015,5966.16035 4610.55974,5972.74567 C4617.1491,5982.62387 4633.62301,5977.68471 4645.15476,5982.62387 C4651.74435,5987.56291 4653.39166,5997.44099 4659.98124,6002.38004 C4661.62867,6004.02619 4666.57083,5997.44099 4669.86557,5999.08715 C4673.16042,6000.73365 4674.80773,6004.02619 4676.45516,6007.31908 C4676.45516,6008.96524 4668.21814,6012.25801 4669.86557,6013.90428 C4674.80773,6017.19705 4683.04474,6013.90428 4686.33948,6018.84332 C4691.28164,6025.42875 4684.69206,6040.24588 4692.92907,6043.53865 C4702.81339,6048.47769 4714.34503,6036.95322 4725.87666,6038.59961 C4730.81882,6038.59961 4735.76099,6040.24588 4740.70315,6041.89226 C4748.94016,6045.18492 4755.52975,6048.47769 4762.11922,6051.77035 C4763.76665,6053.41673 4762.11922,6060.00193 4763.76665,6058.35578 C4773.65086,6058.35578 4781.88776,6050.12396 4790.12477,6050.12396 C4800.00909,6050.12396 4809.89342,6055.06301 4818.13032,6058.35578 C4821.42517,6063.29482 4831.30949,6058.35578 4836.25165,6063.29482 C4849.4306,6071.5264 4857.66761,6109.39248 4874.14141,6125.85599 C4893.91017,6147.25855 4860.96235,6079.75833 4910.38386,6124.2096 C4913.67882,6127.50226 4907.08923,6134.08769 4908.73666,6139.02673 C4912.03128,6143.96566 4964.74775,6122.56322 4972.98465,6129.14865 C4977.9267,6134.08769 4974.63208,6143.96566 4979.57424,6148.9047 C4986.16383,6153.84374 5085.00696,6165.36822 5078.41737,6176.89269 C5060.29603,6208.17333 5027.34844,6227.92939 5014.16926,6254.27098 C5009.2271,6265.79534 5007.57979,6302.01491 5005.93236,6311.89311 L4982.86886,6349.75907 C4979.57424,6357.99088 4976.2795,6366.22247 4977.9267,6374.45417 C4977.9267,6379.39321 4984.51629,6379.39321 4984.51629,6382.68598 C4982.86886,6405.73481 4966.39518,6427.13725 4968.04249,6450.18619 C4968.04249,6471.58863 4968.04249,6478.17406 4969.68992,6478.17406 C4913.67882,6535.79619 4933.44736,6473.23502 4887.32059,6486.40588 C4884.02585,6488.05215 4890.61532,6494.63758 4890.61532,6497.93012 C4882.37842,6504.51555 4869.19925,6511.10098 4872.4941,6519.33268 C4874.14141,6527.56449 4898.85234,6511.10098 4898.85234,6519.33268 C4897.20491,6542.38162 4888.96801,6524.27172 4880.731,6530.85715 C4865.90451,6542.38162 4852.72545,6575.30842 4841.19382,6585.1865 C4831.30949,6596.71097 4808.24599,6591.77193 4801.65652,6604.94279 C4796.71436,6616.46714 4806.59868,6631.28416 4801.65652,6641.16247 C4795.06693,6659.27214 4765.41407,6659.27214 4753.88232,6675.73566 C4734.11368,6700.43087 4755.52975,6723.47981 4747.29274,6749.82118 C4745.64531,6754.76023 4729.17151,6746.52853 4729.17151,6767.93108 C4729.17151,6771.22374 4720.9345,6774.51651 4722.58193,6774.51651 C4742.35057,6779.45555 4765.41407,6771.22374 4775.2984,6751.46757 C4776.94559,6748.17491 4768.70881,6744.88214 4767.06127,6741.58948 C4767.06127,6736.65044 4765.41407,6733.35778 4768.70881,6730.06501 C4783.53518,6707.0163 4829.66207,6707.0163 4851.07803,6716.89438 C4857.66761,6718.54054 4844.48844,6728.41874 4846.13586,6733.35778 C4846.13586,6741.58948 4856.02019,6744.88214 4857.66761,6753.11395 C4859.31492,6762.99204 4836.25165,6761.34565 4846.13586,6777.80917 C4849.4306,6781.10171 4859.31492,6776.16267 4860.96235,6781.10171 C4864.25709,6786.04075 4856.02019,6794.27257 4857.66761,6799.21161 C4859.31492,6802.50427 4865.90451,6792.62618 4867.55194,6795.91884 C4875.78884,6804.15065 4875.78884,6815.67512 4882.37842,6825.55321 C4806.59868,6870.00448 4849.4306,6850.24842 4872.4941,6889.76065 C4875.78884,6896.34608 4869.19925,6907.87055 4874.14141,6914.45575 C4879.08369,6925.98022 4895.55749,6927.62672 4900.49965,6937.50469 C4908.73666,6952.32182 4856.02019,6995.12693 4847.7834,6996.77309 C4842.84124,6998.41947 4839.54628,6988.5415 4834.60423,6988.5415 C4826.36733,6990.18789 4811.54084,6990.18789 4811.54084,6998.41947 C4808.24599,7024.76107 4862.60978,7046.16363 4870.84667,7059.33437 C4875.78884,7069.21234 4877.43626,7082.3832 4877.43626,7095.55394 C4875.78884,7100.49298 4860.96235,7092.26129 4859.31492,7097.20033 C4857.66761,7100.49298 4862.60978,7103.78576 4860.96235,7105.43203 C4856.02019,7113.66384 4847.7834,7118.60288 4841.19382,7125.1882 C4836.25165,7135.0664 4852.72545,7140.00544 4854.37276,7144.94448 C4854.37276,7148.23703 4846.13586,7148.23703 4846.13586,7151.52968 C4844.48844,7174.57863 4887.32059,7205.85927 4905.44169,7210.79831 C4915.32602,7214.09085 4926.85777,7209.15181 4936.74209,7209.15181 C4946.62642,7207.50542 4958.15817,7200.92023 4966.39518,7205.85927 C4991.10588,7223.96894 4935.09478,7261.83501 4943.33168,7291.46915 C4941.68425,7291.46915 4913.67882,7301.34724 4910.38386,7304.64001 C4898.85234,7306.28628 4887.32059,7307.93266 4880.731,7314.51809 C4875.78884,7319.45714 4884.02585,7330.98149 4877.43626,7335.92053 C4870.84667,7340.85969 4859.31492,7334.27426 4851.07803,7339.21331 C4844.48844,7344.15235 4846.13586,7357.32298 4837.89908,7363.9084 C4831.30949,7367.20106 4823.07248,7358.96936 4816.48301,7362.26202 C4811.54084,7363.9084 4814.83558,7372.1401 4809.89342,7377.07915 C4804.95126,7383.66458 4791.77208,7385.31096 4788.47734,7393.54266 C4786.82992,7400.12809 4801.65652,7410.00617 4795.06693,7414.94522 C4786.82992,7423.17703 4770.35624,7414.94522 4758.82449,7416.5916 C4743.998,7419.88415 4734.11368,7434.70127 4720.9345,7439.64032 C4706.10801,7444.57936 4717.63976,7421.53065 4684.69206,7419.88415 C4663.27598,7418.23776 4686.33948,7428.11607 4683.04474,7431.40862 C4679.74989,7434.70127 4673.16042,7434.70127 4668.21814,7433.05512 C4663.27598,7433.05512 4658.33382,7433.05512 4656.68651,7429.76223 C4656.68651,7426.46969 4668.21814,7418.23776 4645.15476,7406.71352 C4640.2126,7405.06713 4635.27043,7406.71352 4628.68085,7406.71352 C4617.1491,7403.42075 4603.97015,7405.06713 4595.73325,7396.83543 C4587.49624,7388.60362 4595.73325,7372.1401 4589.14366,7363.9084 C4585.84881,7358.96936 4579.25934,7370.49383 4572.66975,7370.49383 C4562.78543,7370.49383 4543.01689,7373.78649 4544.66409,7363.9084 C4546.31163,7350.73778 4575.96449,7355.67682 4577.61191,7342.50596 C4577.61191,7329.33522 4559.49081,7319.45714 4547.95906,7321.10341 C4538.07473,7322.74979 4556.19584,7340.85969 4551.25368,7347.44489 C4543.01689,7355.67682 4529.83772,7360.61586 4518.30608,7358.96936 C4491.94796,7357.32298 4500.18475,7311.22532 4495.24258,7317.81075 C4472.17931,7344.15235 4523.24825,7355.67682 4508.42176,7362.26202 C4455.7054,7383.66458 4478.76867,7349.09139 4477.12148,7342.50596 C4475.47405,7335.92053 4417.81542,7329.33522 4412.87325,7326.04245 C4399.69431,7319.45714 4383.2204,7298.05458 4366.74648,7307.93266 C4348.62538,7317.81075 4322.26714,7350.73778 4304.1458,7360.61586 C4287.67189,7368.84745 4254.7243,7362.26202 4234.95565,7390.25 C4231.6608,7393.54266 4239.89781,7400.12809 4239.89781,7405.06713 C4236.60296,7421.53065 4215.18689,7431.40862 4213.53957,7449.5184 C4213.53957,7454.45744 4225.07132,7452.81117 4226.71863,7457.75022 C4234.95565,7487.38447 4213.53957,7479.15277 4225.07132,7512.07957 C4228.36606,7521.95766 4238.25038,7530.18947 4248.13471,7538.42117 L4241.54512,7538.42117 C4215.18689,7531.83574 4185.53403,7517.01861 4160.82322,7533.48213 C4155.88105,7536.77478 4162.47064,7549.94564 4155.88105,7551.59203 C4139.40714,7556.53107 4111.40171,7523.60404 4094.9278,7523.60404 C4080.10131,7523.60404 4068.56956,7531.83574 4055.39062,7533.48213 C4045.50606,7535.12851 4043.85887,7517.01861 4040.56402,7513.72596 C4032.32712,7507.14053 4019.14806,7503.84787 4007.61631,7498.90894 C4024.09022,7477.50639 4020.79537,7456.10383 3977.96345,7459.39649 C3976.31602,7459.39649 3971.37386,7465.98192 3968.07901,7474.21373 C3959.84211,7467.6283 3964.78427,7452.81117 3956.54737,7446.22574 C3951.60521,7441.2867 3941.72089,7441.2867 3933.48387,7439.64032 C3930.18914,7439.64032 3925.24698,7441.2867 3923.59955,7439.64032 C3905.47844,7423.17703 3889.00453,7403.42075 3860.99887,7398.4817 C3841.23022,7395.18905 3849.46735,7433.05512 3849.46735,7433.05512 C3831.34601,7431.40862 3816.51953,7418.23776 3800.04561,7419.88415 C3795.10345,7419.88415 3795.10345,7429.76223 3790.16129,7429.76223 C3780.27696,7428.11607 3775.33492,7416.5916 3765.45059,7414.94522 C3755.56627,7413.29872 3748.97668,7423.17703 3739.09236,7421.53065 C3717.67628,7421.53065 3725.9133,7400.12809 3714.38155,7390.25 C3691.31816,7370.49383 3669.90209,7400.12809 3648.48613,7383.66458 C3646.8387,7383.66458 3630.36479,7345.79873 3628.71737,7344.15235 C3607.30152,7327.68883 3571.05908,7335.92053 3547.99558,7314.51809 C3544.70084,7311.22532 3549.643,7302.99362 3547.99558,7299.70096 C3544.70084,7296.40819 3534.81651,7314.51809 3524.93219,7311.22532 C3503.51612,7301.34724 3551.2902,7281.59106 3536.46383,7265.12767 C3531.52166,7258.54235 3521.63734,7255.24958 3513.40044,7253.60319 C3511.75302,7253.60319 3513.40044,7261.83501 3510.10559,7260.18862 C3510.10559,7260.18862 3491.98437,7243.72511 3482.10016,7233.84702 C3491.98437,7232.20075 3498.57395,7230.55437 3505.16343,7227.26171 C3552.93774,7204.21288 3572.70627,7046.16363 3590.82761,6996.77309 C3594.12235,6988.5415 3597.41708,6977.01703 3605.6541,6973.72438 C3612.24368,6970.43172 3627.07017,6985.24885 3630.36479,6977.01703 C3635.30695,6968.78533 3623.7752,6955.61448 3613.89099,6953.9682 C3605.6541,6952.32182 3604.00667,6975.37076 3595.76977,6972.07799 C3579.29586,6967.13895 3604.00667,6940.79735 3607.30152,6924.33383 C3613.89099,6897.99246 3632.01233,6800.85788 3650.13344,6787.68714 C3656.72303,6784.3946 3679.78641,6820.61417 3686.376,6837.07757 C3709.4395,6886.46799 3678.1391,6840.37034 3694.61301,6893.05342 C3697.90775,6902.93151 3707.79196,6911.16321 3711.0867,6921.04129 C3712.73412,6925.98022 3706.14453,6940.79735 3711.0867,6939.15108 C3719.32371,6937.50469 3724.26587,6925.98022 3722.61845,6919.39479 C3719.32371,6909.51682 3707.79196,6906.22416 3701.20237,6897.99246 C3688.02343,6876.58991 3706.14453,6837.07757 3692.96559,6812.38235 C3686.376,6799.21161 3674.84425,6787.68714 3664.95993,6776.16267 C3658.37045,6767.93108 3650.13344,6759.69927 3640.24911,6753.11395 C3650.13344,6756.40661 3661.66519,6759.69927 3671.54951,6754.76023 C3683.08126,6748.17491 3646.8387,6731.7114 3650.13344,6718.54054 C3653.42829,6705.36991 3668.25478,6698.78448 3669.90209,6685.61374 C3671.54951,6675.73566 3660.01776,6667.50384 3660.01776,6657.62576 C3660.01776,6646.10152 3669.90209,6634.57704 3669.90209,6623.05257 C3669.90209,6619.75992 3661.66519,6619.75992 3656.72303,6621.40619 C3653.42829,6623.05257 3656.72303,6632.93066 3653.42829,6631.28416 C3645.19128,6627.99162 3643.54408,6614.82087 3636.95449,6609.88183 C3632.01233,6608.23544 3625.42274,6614.82087 3620.48058,6611.5281 C3615.53842,6608.23544 3620.48058,6596.71097 3615.53842,6593.41832 C3585.88545,6565.43033 3602.35936,6626.34523 3574.3537,6572.01576 C3572.70627,6567.07683 3571.05908,6530.85715 3564.46937,6522.62545 C3562.82195,6520.97906 3557.87978,6522.62545 3556.23236,6520.97906 C3549.643,6511.10098 3541.40599,6499.5765 3536.46383,6488.05215 C3529.87435,6471.58863 3562.82195,6455.12524 3566.11691,6448.53981 C3572.70627,6433.72268 3533.16909,6423.84471 3533.16909,6422.19832 C3529.87435,6410.67385 3529.87435,6404.08854 3531.52166,6399.14949 C3462.33151,6392.56407 3524.93219,6376.10055 3526.5795,6339.88098 C3528.22693,6318.47843 3459.03666,6336.58833 3457.38935,6328.35651 C3454.0945,6315.18577 3473.86314,6310.24673 3483.74758,6303.6613 C3485.39478,6302.01491 3475.51057,6306.95395 3473.86314,6305.30768 C3472.21583,6303.6613 3473.86314,6298.72225 3472.21583,6297.07587 C3467.27367,6297.07587 3465.62625,6302.01491 3460.68408,6303.6613 C3447.50502,6303.6613 3434.32585,6293.78321 3422.7941,6298.72225 C3421.1469,6300.36864 3419.49936,6302.01491 3419.49936,6303.6613 C3422.7941,6280.61258 3439.26801,6259.21003 3404.67299,6255.91726 C3386.55165,6254.27098 3391.49381,6277.31981 3378.31475,6269.08811 C3368.43043,6262.50268 3355.25148,6241.10013 3345.36693,6236.16109 C3338.77757,6234.51481 3330.54056,6241.10013 3325.5984,6236.16109 C3304.18232,6219.69757 3330.54056,6199.94152 3289.35584,6203.23429 C3286.0611,6204.88056 3292.65069,6213.11237 3289.35584,6214.75853 C3277.82432,6219.69757 3261.3504,6229.57577 3251.46608,6221.34396 C3241.58175,6214.75853 3251.46608,6196.64886 3248.17123,6185.12439 C3243.22907,6165.36822 3221.81299,6170.30726 3208.63393,6162.07556 C3206.98651,6160.42917 3211.92867,6155.49013 3215.22352,6155.49013 C3231.69743,6152.19759 3248.17123,6153.84374 3264.64514,6153.84374 C3267.93976,6153.84374 3276.17689,6160.42917 3276.17689,6157.13652 C3276.17689,6153.84374 3261.3504,6130.79503 3251.46608,6114.33152 C3261.3504,6119.27056 3271.23473,6115.9779 3281.11894,6117.62417 C3287.70852,6117.62417 3302.53501,6124.2096 3297.59285,6120.91695 C3286.0611,6114.33152 3266.29257,6117.62417 3261.3504,6106.09982 C3258.05555,6096.22162 3284.41367,6099.51439 3286.0611,6089.6363 C3291.00326,6069.88025 3187.21797,6145.61216 3221.81299,6056.70939 C3223.46042,6056.70939 3277.82432,6035.30683 3292.65069,6035.30683 C3310.77191,6035.30683 3269.5873,6056.70939 3309.12448,6045.18492 C3320.65623,6043.53865 3332.18798,6030.36779 3343.71973,6033.66056 C3353.60394,6036.95322 3348.6619,6056.70939 3358.5461,6060.00193 C3365.13569,6060.00193 3360.19353,6040.24588 3366.783,6038.59961 C3378.31475,6038.59961 3386.55165,6060.00193 3398.0834,6056.70939 C3407.96773,6053.41673 3401.37825,6032.01418 3411.26258,6025.42875 C3414.55731,6022.13609 3421.1469,6032.01418 3426.08895,6032.01418 C3435.97327,6032.01418 3447.50502,6022.13609 3455.74192,6027.07514 C3463.97882,6032.01418 3457.38935,6048.47769 3465.62625,6053.41673 C3470.56841,6056.70939 3470.56841,6045.18492 3475.51057,6041.89226 C3483.74758,6035.30683 3510.10559,6106.09982 3516.69518,6119.27056 C3518.3426,6120.91695 3518.3426,6112.68513 3521.63734,6112.68513 C3531.52166,6106.09982 3541.40599,6104.45343 3552.93774,6099.51439 C3561.17475,6094.57535 3567.76411,6081.40449 3576.00112,6084.69726 C3590.82761,6091.28258 3577.64843,6148.9047 3617.18584,6132.44119 C3628.71737,6127.50226 3622.12801,6106.09982 3630.36479,6094.57535 C3638.60169,6083.05088 3640.24911,6117.62417 3650.13344,6119.27056 C3660.01776,6120.91695 3668.25478,6115.9779 3678.1391,6117.62417 C3688.02343,6117.62417 3707.79196,6132.44119 3711.0867,6122.56322 C3714.38155,6104.45343 3676.49168,6091.28258 3681.43384,6073.17291 C3684.72869,6061.64843 3688.02343,6050.12396 3692.96559,6038.59961 C3689.67085,6038.59961 3686.376,6036.95322 3688.02343,6030.36779 C3691.31816,6018.84332 3701.20237,6005.67258 3701.20237,5992.50195 C3701.20237,5989.20918 3691.31816,5994.14811 3689.67085,5990.85557 C3686.376,5982.62387 3689.67085,5969.45301 3684.72869,5961.22131 C3683.08126,5956.28227 3673.19694,5956.28227 3669.90209,5951.34322 C3666.60735,5941.46525 3664.95993,5928.29428 3666.60735,5918.41631 C3666.60735,5913.47727 3674.84425,5911.83088 3674.84425,5908.53823 C3674.84425,5897.01375 3668.25478,5885.48928 3666.60735,5873.96493 C3666.60735,5870.67215 3669.90209,5880.55024 3671.54951,5882.19663 C3684.72869,5888.78205 3696.26021,5895.36737 3709.4395,5898.66014 C3712.73412,5900.30653 3717.67628,5897.01375 3720.97102,5897.01375 C3734.15019,5897.01375 3747.32926,5890.42833 3758.86101,5897.01375 C3765.45059,5898.66014 3762.15563,5908.53823 3758.86101,5915.12365 C3757.21358,5918.41631 3752.27142,5916.76992 3748.97668,5920.0627 C3744.03452,5925.00174 3762.15563,5977.68471 3763.80317,5977.68471 C3831.34601,5987.56291 3734.15019,5946.40418 3786.86655,5966.16035 C3811.57736,5976.03844 3842.87776,5980.97748 3865.94103,5992.50195 C3874.17804,5997.44099 3879.12021,6008.96524 3887.35711,6010.61162 C3925.24698,6015.55066 3917.00996,5994.14811 3945.01562,5985.91652 C3951.60521,5984.27014 3958.19469,5984.27014 3966.4317,5984.27014 C3948.31036,5980.97748 3931.83656,5969.45301 3954.89995,5929.94078 C3971.37386,5903.59918 4081.74862,5900.30653 4111.40171,5883.84301 C4122.93323,5878.90397 4131.17036,5869.026 4142.70211,5862.44057 C4152.58632,5857.50153 4170.70754,5859.14791 4175.6497,5849.2696 C4180.59187,5839.39163 4162.47064,5834.45258 4160.82322,5824.5745 C4159.17579,5819.63546 4160.82322,5811.40376 4164.11795,5808.11098 C4167.4128,5804.81833 4174.00228,5811.40376 4174.00228,5808.11098 C4174.00228,5804.81833 4165.76538,5804.81833 4165.76538,5799.87929 C4165.76538,5788.35481 4178.94455,5709.33036 4182.23929,5701.09855 C4188.82888,5681.34238 4243.19255,5678.04972 4258.01903,5676.40333 C4277.78757,5674.75695 4297.55622,5673.11068 4315.67755,5669.8179 C4318.97229,5692.86685 4320.61971,5755.42802 4356.86216,5755.42802 Z M5239.86118,7465.98192 C5262.92468,7482.44543 5239.86118,7526.8967 5239.86118,7545.0066 C5239.86118,7551.59203 5254.68778,7566.40916 5253.04035,7559.82373 C5249.74562,7553.2383 5239.86118,7535.12851 5241.5086,7541.71383 C5244.80334,7551.59203 5251.39293,7558.17723 5254.68778,7566.40916 C5259.62994,7577.9334 5259.62994,7614.15308 5259.62994,7624.03105 C5261.27714,7652.01904 5233.2717,7673.42159 5233.2717,7693.17777 C5233.2717,7714.58021 5241.5086,7744.21446 5223.38738,7763.97063 C5221.73995,7767.26341 5213.50306,7763.97063 5213.50306,7767.26341 C5213.50306,7772.20245 5225.03469,7767.26341 5223.38738,7770.55606 C5223.38738,7777.14149 5213.50306,7777.14149 5210.2082,7782.08053 C5205.26604,7793.60501 5210.2082,7808.42202 5201.97142,7818.3001 C5178.90792,7841.34893 5185.49751,7793.60501 5180.55535,7791.9585 C5159.13927,7785.37308 5145.96021,7801.83659 5131.13384,7777.14149 C5127.83887,7772.20245 5137.7232,7765.61702 5134.42846,7759.03159 C5129.48641,7749.15351 5109.71777,7745.86085 5111.36508,7734.33638 C5111.36508,7721.16564 5137.7232,7714.58021 5136.076,7701.40935 C5134.42846,7691.53138 5108.07034,7711.28767 5106.42291,7701.40935 C5103.12818,7688.23872 5129.48641,7681.65329 5127.83887,7670.12894 C5126.19168,7656.95808 5101.48075,7660.25074 5098.18602,7647.08 C5096.53859,7637.20202 5117.95466,7633.90937 5117.95466,7622.3849 C5117.95466,7612.50681 5101.48075,7607.56777 5096.53859,7597.68968 C5094.89128,7591.10425 5113.0125,7596.0433 5116.30712,7591.10425 C5119.60209,7579.57978 5117.95466,7564.76277 5124.54425,7554.88468 C5126.19168,7551.59203 5129.48641,7563.11627 5132.78104,7561.47011 C5141.01805,7559.82373 5142.66536,7548.29926 5150.90237,7545.0066 C5157.49185,7541.71383 5165.72886,7548.29926 5172.31845,7545.0066 C5180.55535,7540.06756 5180.55535,7525.25043 5188.79213,7523.60404 C5198.67645,7521.95766 5206.91347,7535.12851 5218.44522,7535.12851 C5228.32954,7535.12851 5216.79779,7513.72596 5218.44522,7502.20149 C5220.09253,7489.03086 5233.2717,7479.15277 5239.86118,7465.98192 L5239.86118,7465.98192 Z" id="fr" stroke="#FFFFFF" stroke-width="3" fill="#87B024"></path>
                        <path d="M5259.62994,6557.19875 L5267.86684,6575.30842 L5267.86684,6595.06459 C5259.62994,6595.06459 5254.68778,6593.41832 5253.04035,6593.41832 C5251.39293,6591.77193 5256.33509,6575.30842 5259.62994,6557.19875 L5259.62994,6557.19875 Z" id="li" stroke="#FFFFFF" stroke-width="3" fill="#87B024"></path>
                        <path d="M6315.6044,6670.79661 C6304.07277,6669.15023 6276.0671,6662.5648 6269.47752,6664.21119 C6251.35641,6667.50384 6276.0671,6690.55278 6266.18278,6697.13821 C6257.946,6700.43087 6248.06167,6695.49183 6239.82466,6698.78448 C6236.52992,6700.43087 6241.47208,6707.0163 6238.17735,6710.30884 C6221.70344,6723.47981 6195.34531,6725.12597 6178.8714,6739.9431 C6159.10275,6758.053 6215.11385,6804.15065 6190.40315,6822.26044 C6132.74452,6863.41905 6168.98708,6794.27257 6131.09709,6848.60204 C6126.15493,6855.18747 6145.92358,6856.83385 6149.21843,6865.06544 C6152.51317,6871.65086 6132.74452,6870.00448 6132.74452,6876.58991 C6132.74452,6879.88256 6149.21843,6901.28512 6142.62884,6909.51682 C6124.50773,6927.62672 6098.1495,6899.63873 6081.67559,6899.63873 C6056.96489,6899.63873 6104.73897,6922.68768 6063.55425,6911.16321 C6052.02273,6907.87055 6037.19624,6889.76065 6032.25408,6879.88256 C6028.95923,6876.58991 6025.66449,6866.71182 6024.01707,6870.00448 C6017.42748,6879.88256 6019.0749,6891.40704 6012.48532,6899.63873 C5991.06947,6927.62672 5961.41638,6899.63873 5936.70557,6907.87055 C5933.41084,6909.51682 5940.00031,6916.10225 5936.70557,6919.39479 C5921.87909,6927.62672 5892.22623,6925.98022 5877.39974,6919.39479 C5877.39974,6919.39479 5877.39974,6917.74863 5879.04705,6917.74863 C5887.28407,6909.51682 5897.16839,6901.28512 5900.46313,6893.05342 C5958.12165,6896.34608 5892.22623,6856.83385 5875.75232,6846.95577 C5864.22057,6840.37034 5882.34191,6818.96778 5879.04705,6810.73608 C5875.75232,6802.50427 5849.39408,6825.55321 5855.98367,6804.15065 C5860.92583,6789.33364 5892.22623,6776.16267 5880.69448,6766.2847 C5872.45758,6759.69927 5834.56771,6762.99204 5837.86233,6743.23587 C5841.1573,6716.89438 5882.34191,6723.47981 5885.63664,6690.55278 L5882.34191,6690.55278 C5892.22623,6692.19917 5902.11055,6693.84544 5913.6423,6695.49183 C5926.82125,6697.13821 5940.00031,6707.0163 5953.17949,6708.66245 C5966.35855,6710.30884 5979.53772,6700.43087 5992.71667,6702.07726 C6000.95368,6703.72341 6005.89584,6715.24788 6014.13274,6715.24788 C6017.42748,6716.89438 6015.78017,6707.0163 6019.0749,6705.36991 C6027.3118,6697.13821 6040.49098,6693.84544 6048.72776,6683.96736 C6055.31735,6679.02831 6050.3753,6667.50384 6055.31735,6662.5648 C6086.61775,6637.86959 6119.56557,6669.15023 6149.21843,6655.97949 C6159.10275,6651.04056 6160.75018,6636.2232 6170.6345,6632.93066 C6172.28181,6631.28416 6226.6456,6639.51609 6228.29291,6637.86959 C6233.23507,6636.2232 6223.35075,6629.638 6221.70344,6624.69896 C6216.76127,6598.35736 6236.52992,6591.77193 6261.24073,6591.77193 C6267.83032,6591.77193 6281.00927,6642.80863 6315.6044,6670.79661 L6315.6044,6670.79661 Z" id="si" stroke="#FFFFFF" stroke-width="3" fill="#87B024"></path>
                        <path d="M6686.26621,7493.9699 C6666.49768,7461.04287 6635.19728,7472.56734 6598.95484,7444.57936 C6589.07051,7436.34766 6585.77578,7421.53065 6574.24403,7418.23776 C6567.65455,7414.94522 6559.41754,7421.53065 6551.18076,7423.17703 C6554.47538,7424.82319 6556.12292,7424.82319 6559.41754,7426.46969 C6562.71228,7428.11607 6566.00713,7437.99405 6562.71228,7437.99405 C6536.35427,7436.34766 6516.58551,7411.65256 6490.2275,7408.35979 C6478.69575,7406.71352 6465.51657,7410.00617 6453.98494,7408.35979 C6450.69009,7408.35979 6447.39535,7400.12809 6445.74793,7401.77448 C6442.45319,7403.42075 6442.45319,7411.65256 6445.74793,7413.29872 C6455.63225,7416.5916 6467.164,7411.65256 6478.69575,7413.29872 C6488.57996,7414.94522 6500.11171,7418.23776 6511.64334,7424.82319 C6514.9382,7426.46969 6513.29077,7433.05512 6516.58551,7434.70127 C6572.59671,7464.33564 6561.06496,7416.5916 6648.37646,7485.73797 C6659.90821,7493.9699 6674.73469,7502.20149 6689.56118,7505.49437 L6686.26621,7493.9699 Z M6717.56661,6977.01703 C6702.74013,6960.55352 6727.45094,6968.78533 6734.04052,6957.26086 C6735.68795,6955.61448 6735.68795,6952.32182 6734.04052,6950.67543 C6712.62445,6929.27311 6727.45094,6921.04129 6729.09836,6899.63873 C6730.74579,6891.40704 6771.93039,6924.33383 6766.98835,6891.40704 C6743.92485,6891.40704 6717.56661,6884.82161 6697.79796,6871.65086 C6689.56118,6865.06544 6704.38755,6861.77289 6704.38755,6860.12639 C6704.38755,6855.18747 6687.91364,6851.89481 6697.79796,6842.01649 C6699.44539,6840.37034 6710.97714,6850.24842 6712.62445,6840.37034 C6714.27188,6822.26044 6679.67686,6843.66299 6679.67686,6827.19948 C6682.97159,6789.33364 6689.56118,6799.21161 6661.55552,6759.69927 L6659.90821,6756.40661 C6654.96604,6758.053 6650.02388,6758.053 6641.78687,6759.69927 C6630.25512,6759.69927 6628.60792,6782.74821 6625.31296,6786.04075 C6603.897,6804.15065 6531.41211,6805.79704 6508.34861,6795.91884 C6496.81686,6790.97979 6486.93253,6779.45555 6473.75359,6774.51651 C6470.45862,6772.87012 6437.51103,6777.80917 6432.56887,6771.22374 C6397.97362,6726.77235 6360.08386,6707.0163 6315.6044,6670.79661 C6304.07277,6669.15023 6276.0671,6662.5648 6269.47752,6664.21119 C6251.35641,6667.50384 6276.0671,6690.55278 6266.18278,6697.13821 C6257.946,6700.43087 6248.06167,6695.49183 6239.82466,6698.78448 C6236.52992,6700.43087 6241.47208,6707.0163 6238.17735,6710.30884 C6221.70344,6723.47981 6195.34531,6725.12597 6178.8714,6739.9431 C6159.10275,6758.053 6215.11385,6804.15065 6190.40315,6822.26044 C6132.74452,6863.41905 6168.98708,6794.27257 6131.09709,6848.60204 C6126.15493,6855.18747 6145.92358,6856.83385 6149.21843,6865.06544 C6152.51317,6871.65086 6132.74452,6870.00448 6132.74452,6876.58991 C6132.74452,6879.88256 6149.21843,6901.28512 6142.62884,6909.51682 C6124.50773,6927.62672 6098.1495,6899.63873 6081.67559,6899.63873 C6056.96489,6899.63873 6104.73897,6922.68768 6063.55425,6911.16321 C6052.02273,6907.87055 6037.19624,6889.76065 6032.25408,6879.88256 C6028.95923,6876.58991 6025.66449,6866.71182 6024.01707,6870.00448 C6017.42748,6879.88256 6019.0749,6891.40704 6012.48532,6899.63873 C5991.06947,6927.62672 5961.41638,6899.63873 5936.70557,6907.87055 C5933.41084,6909.51682 5940.00031,6916.10225 5936.70557,6919.39479 C5921.87909,6927.62672 5892.22623,6925.98022 5877.39974,6919.39479 C5872.45758,6919.39479 5862.57314,6914.45575 5862.57314,6919.39479 C5864.22057,6932.56565 5875.75232,6942.44373 5880.69448,6953.9682 C5880.69448,6955.61448 5877.39974,6955.61448 5877.39974,6957.26086 C5879.04705,6970.43172 5875.75232,6983.60246 5882.34191,6993.48055 C5882.34191,6993.48055 5883.98922,6993.48055 5883.98922,6995.12693 C5877.39974,7005.0049 5903.75775,7016.52937 5911.99488,7028.05373 C5918.58447,7037.93182 5923.52651,7080.73681 5931.76341,7070.85873 C5940.00031,7060.98076 5944.94247,7047.8099 5951.53206,7036.28554 C5953.17949,7031.3465 5954.82691,7026.40746 5954.82691,7021.46842 C5954.82691,7019.82203 5949.88475,7021.46842 5949.88475,7018.17564 C5949.88475,7016.52937 5949.88475,7009.94395 5951.53206,7011.59045 C5958.12165,7013.2366 5953.17949,7051.10267 5971.30059,7021.46842 C5974.59556,7013.2366 5974.59556,7005.0049 5974.59556,6995.12693 C5974.59556,6993.48055 5971.30059,6991.83405 5971.30059,6988.5415 C5971.30059,6986.89512 5972.94813,6993.48055 5974.59556,6991.83405 C5987.77451,6985.24885 5976.24276,6940.79735 5991.06947,6940.79735 C6038.84355,6937.50469 6022.36964,6955.61448 6052.02273,6980.3098 C6058.61209,6985.24885 6068.49641,6980.3098 6073.43869,6985.24885 C6103.09166,7019.82203 6068.49641,7062.62714 6101.44423,7098.84671 C6111.32856,7110.37107 6139.33411,7135.0664 6150.86574,7143.29798 C6164.04492,7149.88353 6205.22952,7156.46873 6192.05035,7161.40777 C6168.98708,7167.9932 6126.15493,7120.24916 6132.74452,7182.81033 C6134.39194,7202.56638 6210.17169,7245.37149 6221.70344,7260.18862 C6224.99817,7261.83501 6208.52426,7255.24958 6211.81911,7256.89597 C6221.70344,7263.48139 6264.53535,7276.65214 6266.18278,7281.59106 C6269.47752,7293.11554 6259.59319,7311.22532 6267.83032,7321.10341 C6272.77237,7324.39618 6323.84141,7306.28628 6325.48884,7304.64001 C6358.43643,7298.05458 6335.37316,7311.22532 6376.55777,7326.04245 C6389.73683,7329.33522 6404.5632,7324.39618 6417.74249,7329.33522 C6435.8636,7335.92053 6447.39535,7365.55479 6467.164,7375.43288 C6490.2275,7385.31096 6505.05387,7391.89639 6511.64334,7398.4817 C6511.64334,7400.12809 6513.29077,7398.4817 6513.29077,7398.4817 C6516.58551,7398.4817 6519.88036,7395.18905 6521.52767,7398.4817 C6528.11726,7410.00617 6518.23293,7410.00617 6533.05942,7416.5916 C6538.00158,7411.65256 6549.53322,7411.65256 6551.18076,7405.06713 C6559.41754,7383.66458 6488.57996,7355.67682 6481.99037,7344.15235 C6475.40078,7334.27426 6480.34295,7319.45714 6473.75359,7309.57905 C6468.81143,7302.99362 6457.27968,7304.64001 6449.04278,7301.34724 C6414.44753,7279.94468 6393.03157,7240.43245 6363.3786,7215.73724 C6353.49427,7209.15181 6315.6044,7171.28585 6304.07277,7166.34681 C6299.1306,7164.70054 6292.54102,7171.28585 6287.59885,7167.9932 C6279.36207,7159.7615 6299.1306,7141.6516 6299.1306,7138.35906 C6297.48318,7131.77363 6289.24628,7130.12713 6284.30412,7125.1882 C6271.12494,7105.43203 6266.18278,7079.09043 6248.06167,7062.62714 C6241.47208,7054.39533 6228.29291,7054.39533 6220.05601,7047.8099 C6213.46642,7042.87086 6201.9349,6947.38278 6238.17735,6949.02916 C6254.65114,6949.02916 6282.65669,6985.24885 6297.48318,6993.48055 L6310.66224,6991.83405 L6297.48318,6993.48055 C6317.25183,6991.83405 6313.95709,6960.55352 6323.84141,6947.38278 C6341.96252,6925.98022 6350.19954,6952.32182 6373.26292,6947.38278 C6379.85251,6945.73639 6379.85251,6932.56565 6386.4421,6927.62672 C6386.4421,6927.62672 6396.32642,6937.50469 6424.33185,6945.73639 C6427.6267,6947.38278 6432.56887,6949.02916 6437.51103,6947.38278 C6440.80576,6947.38278 6442.45319,6940.79735 6447.39535,6939.15108 C6467.164,6937.50469 6511.64334,6962.1999 6533.05942,6958.90725 C6538.00158,6958.90725 6542.94363,6955.61448 6544.59117,6950.67543 C6549.53322,6947.38278 6547.88579,6935.8583 6554.47538,6935.8583 C6564.3597,6934.21215 6570.94929,6944.09012 6580.83361,6947.38278 C6598.95484,6952.32182 6577.53888,6939.15108 6587.4232,6935.8583 C6597.30753,6932.56565 6608.83928,6932.56565 6618.7236,6935.8583 C6625.31296,6937.50469 6630.25512,6947.38278 6636.84471,6947.38278 C6641.78687,6947.38278 6636.84471,6935.8583 6641.78687,6935.8583 C6679.67686,6937.50469 6669.79253,6978.66342 6687.91364,6981.95607 C6699.44539,6983.60246 6709.32971,6980.3098 6717.56661,6977.01703 L6717.56661,6977.01703 Z" id="hr" stroke="#FFFFFF" stroke-width="3" fill="#87B024"></path>
                        <g id="ru" stroke="none" stroke-width="1" fill="none" transform="translate(6538.674726, 13.987652)"></g>
                    </g>
                </g>
            </g>
        </g>
    </g>
</svg>