<?xml version="1.0" encoding="UTF-8" standalone="no"?>
<svg width="222px" height="116px" viewBox="0 0 222 116" version="1.1" xmlns="http://www.w3.org/2000/svg" xmlns:xlink="http://www.w3.org/1999/xlink">
    <!-- Generator: Sketch 3.6 (26304) - http://www.bohemiancoding.com/sketch -->
    <title>at</title>
    <desc>Created with Sketch.</desc>
    <defs></defs>
    <g id="Page-1" stroke="none" stroke-width="1" fill="none" fill-rule="evenodd">
        <g id="Group" transform="translate(-414.000000, -292.000000)" fill="#FFFFFF">
            <path d="M415.439294,362.224345 C415.439294,364.536836 419.732404,365.197515 418.411442,368.501071 C418.081218,369.161773 416.760256,368.831434 416.43001,369.161773 C416.099809,370.152837 415.109093,372.795691 414.118378,375.768885 L415.769563,379.402757 L415.769563,383.367015 C419.071934,383.697377 424.35576,384.358102 424.685984,384.358102 C425.346476,385.018804 423.695268,386.009868 424.35576,386.67057 C426.006946,388.652699 427.988378,389.974126 430.300056,390.965191 C435.583859,393.608044 436.574575,384.688441 440.207193,385.349166 C447.142204,386.340231 439.876969,389.974126 442.188601,390.965191 C447.472428,393.608044 442.849117,390.304489 448.13292,390.965191 C450.774822,391.295553 453.416746,398.232981 458.700526,395.259788 L462.993636,386.340231 C465.635561,384.358102 477.193883,385.679506 480.166054,385.349166 C485.119634,385.018804 489.082474,380.724184 494.036054,380.724184 C495.357017,380.724184 491.724376,382.37595 491.394153,383.697377 C489.742944,390.634805 494.036054,386.009868 496.677979,389.974126 C497.338448,390.965191 495.687263,392.286618 496.347732,393.608044 C496.677979,394.268723 497.668695,392.947296 498.329164,393.608044 C504.603683,398.232981 506.254869,398.893683 514.841089,400.21511 C524.748226,401.536537 534.985609,401.866899 545.223037,403.518666 C547.864916,403.849028 550.506817,405.831157 553.148742,406.161474 C555.790644,406.491836 558.432568,404.50973 561.074447,404.840093 C562.725655,405.170409 563.716371,407.4829 565.367557,407.4829 C566.028026,407.813286 565.697803,405.831157 566.358273,405.500795 C568.009458,403.849028 570.651383,403.188303 572.302545,401.206174 C573.623508,400.21511 572.632815,397.902619 573.623508,396.911554 C579.89805,391.956232 586.502838,398.232981 592.447111,395.59015 C594.428543,394.599109 594.758789,391.625869 596.740221,390.965191 C597.070444,390.634805 607.96832,392.286618 608.298543,391.956232 C609.289259,391.625869 607.307827,390.304489 606.977604,389.313424 C606.317111,386.009868 607.638073,384.02774 609.949752,383.367015 L609.949752,383.367015 C615.894024,376.759949 618.535972,375.768885 621.508097,370.813562 C622.168566,369.492136 616.224294,362.554708 617.875456,359.251152 C620.187134,354.626169 625.801184,359.581514 625.140714,352.974403 C624.810468,347.358379 614.903331,348.019103 616.88474,346.367314 C621.508097,342.403056 633.396665,347.688741 635.378097,344.054846 C635.708343,342.733419 631.084987,332.162073 635.708343,330.179944 C631.74548,325.885323 628.443108,321.590703 625.470961,316.635404 C622.829036,312.340784 632.405949,305.403356 625.470961,300.448034 C624.480245,299.787309 623.159282,301.769461 622.168566,301.769461 C620.517381,301.439098 617.214987,297.144478 614.903331,297.80518 C613.252146,298.465905 612.591653,301.108736 610.610221,302.0998 C609.289259,302.430163 607.638073,301.769461 606.317111,301.769461 C597.400691,300.778373 589.805186,293.510606 580.228296,293.510606 C578.577087,293.510606 577.256148,295.492711 575.60494,295.492711 C574.94447,295.162349 575.60494,293.510606 574.94447,293.180243 C573.623508,292.519495 571.642099,291.858816 570.651383,292.849858 C570.321137,293.510606 570.981629,303.090864 570.321137,303.751589 C569.660667,304.742654 567.348989,302.430163 566.028026,303.421227 L563.386125,312.010444 C561.074447,312.671146 558.762768,309.697953 556.451136,309.697953 C555.130174,309.697953 555.46042,312.340784 554.139458,312.671146 C547.204446,315.313977 543.241559,308.376526 537.957779,305.733718 L537.627533,305.733718 C537.957779,306.724783 538.288003,307.715847 538.288003,308.706889 C537.957779,317.626468 535.976348,315.64434 529.041313,313.992573 C528.380866,313.992573 527.720397,314.322913 527.39015,314.983638 C526.729658,318.287193 528.711113,321.921066 525.408718,324.563896 C522.436571,326.876388 508.566547,330.179944 508.236301,335.465628 C508.236301,335.465628 516.162052,346.367314 516.162052,346.697677 C516.492252,347.028039 511.868941,350.992274 513.520127,352.313724 C517.152767,355.617233 520.785362,350.661911 517.813214,361.563643 C517.813214,362.224345 517.152767,363.215409 516.492252,363.215409 C505.924646,360.242216 514.18062,354.956531 509.227017,354.626169 C506.585115,354.626169 504.273437,356.93866 501.631559,356.608298 C500.310596,356.277958 500.640843,353.965467 499.650127,353.635105 C497.668695,352.974403 495.687263,354.626169 494.036054,353.965467 C493.375585,353.635105 494.696547,351.652976 494.036054,351.652976 C490.07319,351.983338 493.705808,357.269023 492.715092,357.599362 C488.091759,358.920789 480.496277,356.93866 476.203167,358.590427 C474.882228,359.251152 475.542697,361.563643 474.221735,362.224345 C472.900819,363.215409 471.24961,361.563643 469.928671,362.554708 C468.937932,362.885024 470.258894,364.536836 469.598425,365.197515 C469.268178,365.527901 458.04008,368.501071 456.719094,367.840369 C456.058648,367.179644 456.719094,365.527901 456.058648,364.867153 C455.728401,364.206451 454.077216,364.206451 453.74697,363.545772 C453.416746,362.885024 455.398178,363.215409 455.067932,362.554708 C453.74697,358.260087 444.50028,363.545772 441.858401,360.572579 C441.858401,360.572579 442.518871,360.242216 442.518871,359.911854 C440.537439,358.590427 442.518871,364.206451 441.858401,366.518942 C441.858401,367.840369 435.583859,375.438522 433.272181,373.126031 C431.951219,371.804627 435.583859,369.822498 434.593143,368.501071 C434.262897,368.170709 433.272181,369.492136 432.611711,369.492136 C431.951219,369.492136 430.960503,369.161773 430.630302,368.501071 C429.969787,367.510007 432.281465,366.18858 430.630302,364.867153 C429.30934,363.876088 428.64887,362.224345 427.327908,361.563643 C426.337192,360.902918 425.01623,362.554708 423.695268,362.224345 C423.034798,361.563643 423.695268,359.911854 423.034798,359.251152 C421.383612,357.929725 421.713836,363.876088 416.43001,362.224345 C416.099809,361.893983 415.769563,361.893983 415.439294,361.893983 L415.439294,362.224345 L415.439294,362.224345 Z" id="at"></path>
        </g>
    </g>
</svg>