<?xml version="1.0" encoding="UTF-8" standalone="no"?>
<svg width="174px" height="164px" viewBox="0 0 174 164" version="1.1" xmlns="http://www.w3.org/2000/svg" xmlns:xlink="http://www.w3.org/1999/xlink">
    <!-- Generator: Sketch 3.6 (26304) - http://www.bohemiancoding.com/sketch -->
    <title>az</title>
    <desc>Created with Sketch.</desc>
    <defs></defs>
    <g id="Page-1" stroke="none" stroke-width="1" fill="none" fill-rule="evenodd">
        <g id="Group" transform="translate(-438.000000, -268.000000)" fill="#FFFFFF">
            <path d="M442.809789,355.820462 C443.470189,356.150825 444.13082,356.150825 444.461021,356.481187 C445.121421,358.132953 438.846925,358.132953 442.809789,355.820462 L442.809789,355.820462 Z M438.516725,347.89197 C439.507326,348.883034 439.837756,350.5348 441.158557,350.865163 C442.149388,351.195525 442.809789,349.543736 444.13082,349.543736 C452.056548,349.543736 442.479589,353.507971 444.13082,355.15976 C445.782052,356.481187 453.70778,352.18659 456.019412,351.856227 C457.010013,351.856227 456.019412,354.499035 456.679812,354.829398 C458.991444,355.820462 461.633277,354.829398 463.945139,355.820462 C468.568404,358.132953 458.000844,363.418638 460.972876,367.382873 C466.256772,374.320324 486.071091,372.99892 486.731491,374.650686 C487.391892,375.641751 488.052523,383.900606 487.061691,384.561308 C485.080259,386.213097 481.778027,386.543436 479.796595,388.525565 C479.466164,388.855928 478.805763,390.177355 479.466164,390.177355 C481.778027,390.507717 483.759458,389.18629 485.74089,389.18629 C492.015386,389.516653 498.620083,395.793356 504.564378,395.463039 C506.54581,395.463039 513.811137,388.855928 515.462139,391.829121 C517.44357,396.454104 512.490106,395.463039 512.820306,399.096912 C512.820306,404.382596 523.387866,397.445145 523.718297,404.052234 C523.718297,405.704023 520.085633,405.704023 518.764602,406.695088 C518.434402,407.02545 518.104201,407.35579 518.104201,408.016515 C518.104201,410.32896 521.076234,409.007579 522.067065,409.668281 C525.039098,411.320024 524.708898,415.945007 527.35096,418.257498 L527.681161,418.9182 C528.341561,416.936071 531.313594,403.061169 531.313594,403.061169 C532.304425,400.748701 535.606888,400.418339 536.597489,398.43621 C537.257889,396.454104 535.937088,394.471975 536.267289,392.489846 C536.927689,389.18629 539.569752,386.543436 540.890553,383.239927 C542.211584,380.266687 551.127913,361.766849 553.769976,361.436509 C556.411808,361.106147 559.05364,363.088276 561.695703,364.07934 C564.007335,364.740065 566.979368,365.400767 569.291231,366.391831 C569.951631,366.722194 571.602863,367.05251 571.272663,368.043575 C570.281831,370.686429 564.997936,372.668557 566.318968,376.632815 C567.970199,381.588114 574.574895,376.632815 576.886528,382.248862 C578.537759,387.204161 566.318968,390.838057 571.602863,394.471975 C576.226127,398.105847 575.235296,393.480911 580.519191,395.132654 C584.151855,396.123718 578.867959,401.079041 585.803086,398.766572 C586.793687,398.43621 586.793687,395.793356 588.114719,395.793356 C590.756551,395.793356 597.031047,404.052234 599.67311,401.409403 C601.324341,399.757637 602.645142,397.775531 603.966174,395.793356 C599.67311,388.855928 596.040446,382.248862 595.049615,379.936371 C594.389214,378.284582 596.370646,376.632815 596.370646,374.981049 C596.040446,371.677493 591.086751,368.704323 592.737983,365.731129 C594.059014,364.07934 597.691678,363.748978 599.342909,365.070404 C601.324341,366.722194 599.012479,369.695364 599.67311,371.677493 C600.33351,373.329259 602.645142,369.365002 602.645142,367.382873 C602.645142,366.722194 601.654542,366.061446 601.324341,365.070404 C600.993911,364.07934 601.324341,362.757913 600.993911,361.766849 C600.00331,359.124018 597.361478,356.811526 598.021878,354.168719 C598.682279,352.516906 601.654542,354.829398 602.975343,353.838333 C603.635974,353.177654 601.324341,352.516906 600.66371,351.856227 C599.012479,350.204461 596.700847,349.213397 595.380046,347.561607 C591.086751,341.615221 595.710246,343.266987 595.049615,337.320623 C594.389214,331.374237 585.472886,321.133253 588.775119,314.856504 C593.068183,306.928011 589.76595,320.472528 594.389214,307.919076 C594.719415,306.597649 593.728814,304.61552 594.389214,303.624456 C595.049615,302.633391 596.370646,302.633391 597.031047,302.633391 C597.691678,302.633391 598.021878,303.954795 598.352078,303.624456 C599.67311,302.633391 600.00331,300.981602 601.324341,299.990537 C602.645142,298.999473 604.296374,298.008408 605.947606,298.008408 C607.929038,298.008408 611.561701,301.311964 611.561701,299.329835 C612.222102,294.044174 598.352078,290.740618 595.049615,292.062045 C586.793687,295.035238 588.444919,299.660198 578.537759,298.008408 C576.886528,297.678046 576.226127,293.713811 576.226127,293.713811 C575.565727,292.722747 571.272663,293.383472 570.942232,293.383472 L562.356104,289.419191 C556.742008,286.115658 555.421207,281.160313 549.146481,277.856803 C543.532616,274.88361 533.295026,268.9372 527.35096,267.946136 C527.681161,267.946136 528.011361,268.276498 528.341561,268.276498 L528.341561,269.267563 C523.057666,288.097787 526.690329,277.856803 521.406434,292.062045 C520.415833,295.035238 522.727466,303.624456 521.736865,304.61552 C518.434402,308.249415 506.54581,314.195779 501.592346,310.561884 C493.996818,304.945859 512.159906,307.919076 493.005987,302.963731 C492.015386,302.633391 492.015386,304.945859 491.024555,304.945859 C490.364155,304.945859 482.768627,302.303029 480.787195,301.311964 L474.512699,298.669133 L474.182499,298.669133 C472.861468,299.329835 471.870867,299.990537 471.210236,300.3209 L471.210236,300.3209 L471.210236,300.3209 C470.549836,299.990537 468.898604,300.651262 467.577803,300.981602 L467.577803,301.642327 C467.247372,304.285158 467.908003,306.928011 466.917172,309.570842 C466.586972,310.561884 464.60554,310.231521 463.945139,311.222586 C463.284508,312.544012 466.586972,317.168995 468.238203,317.168995 C469.228804,317.168995 471.210236,315.186866 471.210236,316.177931 C471.540667,316.838633 470.219635,317.168995 470.219635,317.499335 C469.889435,319.151124 490.364155,316.838633 488.382723,327.409979 C485.41046,340.624156 482.438427,329.722447 474.8429,332.365301 C468.238203,334.677793 472.531268,337.981302 466.256772,337.981302 C463.614709,338.311665 461.303077,337.650986 458.661244,337.320623 C458.331044,337.320623 458.000844,337.320623 458.000844,336.990238 C458.000844,335.999196 459.982276,334.34743 458.991444,334.017068 C454.03798,332.365301 449.084285,334.677793 444.461021,335.999196 C440.167957,337.320623 440.498157,343.927712 438.516725,347.89197 L438.516725,347.89197 Z M516.78317,424.864564 C514.141338,422.882458 505.224779,415.945007 505.224779,415.945007 C504.564378,414.953943 505.555209,413.632516 505.224779,412.311089 C505.224779,411.980749 504.234178,411.650387 503.903978,411.650387 C501.261915,411.320024 498.620083,411.980749 496.30845,411.650387 C495.64805,411.650387 496.968851,400.418339 490.694355,404.052234 L484.089659,411.650387 C481.447596,412.311089 479.135964,409.668281 476.494131,409.998643 C475.5033,410.32896 476.163931,412.311089 475.5033,412.971814 C472.201067,416.936071 475.1731,405.043298 466.917172,407.02545 C463.945139,407.686152 462.624108,411.650387 460.642676,414.293241 C462.954308,415.284305 464.93574,416.27537 465.596141,416.605709 C467.577803,418.257498 468.238203,420.900329 470.549836,422.221756 C472.531268,423.543183 475.1731,423.212821 477.484732,424.203885 C478.805763,424.864564 479.796595,426.846693 481.447596,427.177055 C483.098828,427.507418 485.080259,426.185991 486.731491,426.846693 C489.043123,427.837757 490.033954,431.141313 492.675787,431.802038 L507.536641,429.159184 C515.462139,427.507418 516.122769,426.516353 516.78317,424.864564 L516.78317,424.864564 Z M465.26594,364.07934 C469.559235,364.740065 463.614709,368.704323 464.27534,365.731129 C464.27534,365.070404 464.93574,364.740065 465.26594,364.07934 L465.26594,364.07934 Z M526.029929,267.946136 L526.360129,267.946136 L526.029929,267.946136 L526.029929,267.946136 Z M526.360129,267.946136 L526.360129,267.946136 L526.360129,267.946136 L526.360129,267.946136 L526.360129,267.946136 L526.360129,267.946136 L526.360129,267.946136 L526.690329,267.946136 L526.690329,267.946136 L526.690329,267.946136 L526.690329,267.946136 L526.360129,267.946136 L526.360129,267.946136 Z M526.690329,267.946136 L526.690329,267.946136 L526.690329,267.946136 L526.690329,267.946136 L527.02053,267.946136 L526.690329,267.946136 L526.690329,267.946136 Z" id="az"></path>
        </g>
    </g>
</svg>