<?xml version="1.0" encoding="UTF-8" standalone="no"?>
<svg width="1638px" height="780px" viewBox="0 0 1638 780" version="1.1" xmlns="http://www.w3.org/2000/svg" xmlns:xlink="http://www.w3.org/1999/xlink">
    <!-- Generator: Sketch 3.6 (26304) - http://www.bohemiancoding.com/sketch -->
    <title>Blank_political_map_Europe_in_2008_WF_(with_Kosovo)</title>
    <desc>Created with Sketch.</desc>
    <defs>
        <rect id="path-1" x="0" y="0" width="1637.27884" height="779.058994"></rect>
    </defs>
    <g id="Page-1" stroke="none" stroke-width="1" fill="none" fill-rule="evenodd">
        <g id="Blank_political_map_Europe_in_2008_WF_(with_Kosovo)">
            <g id="Group">
                <mask id="mask-2" fill="white">
                    <use xlink:href="#path-1"></use>
                </mask>
                <use id="maska" xlink:href="#path-1"></use>
                <rect id="ocean" fill="#2096BD" mask="url(#mask-2)" x="-9657.65104" y="-8264.2079" width="17106.6767" height="10954.4735"></rect>
                <g id="outlines" mask="url(#mask-2)" stroke="#FFFFFF" stroke-width="3">
                    <g transform="translate(-7047.819562, -8272.141593)">
                        <path d="M7562.57886,10155.5532 C7536.84707,10169.4029 7451.7346,10375.1698 7471.52802,10402.8694 C7479.44553,10414.7405 7519.03292,10414.7405 7507.15673,10422.6547 C7497.25981,10428.5903 7499.23922,10408.8049 7493.30113,10422.6547 C7493.30113,10426.6117 7489.34231,10430.5687 7491.32172,10436.5043 C7495.28054,10452.3327 7519.03292,10460.2468 7524.97102,10476.0749 C7526.95015,10480.0319 7519.03292,10478.0535 7515.0741,10482.0105 C7505.17732,10487.9461 7495.28054,10493.8817 7489.34231,10503.7744 C7483.40421,10513.667 7481.42494,10525.5382 7479.44553,10535.4307 C7477.46612,10547.3019 7485.38362,10563.1302 7479.44553,10573.0228 C7475.48684,10578.9584 7469.54875,10553.2378 7431.9409,10555.2161 C7390.3741,10559.1733 7408.18852,10573.0228 7352.76639,10547.3019 C7329.01387,10537.4094 7323.07578,10493.8817 7297.34412,10478.0535 C7261.71541,10456.2896 7230.04566,10478.0535 7190.45855,10462.2251 C7184.52045,10460.2468 7178.58235,10458.2683 7172.64426,10454.3113 C7164.72675,10448.3754 7160.76807,10434.5259 7150.87115,10430.5687 C7142.95365,10424.6331 7133.05687,10430.5687 7123.16009,10426.6117 C7083.57283,10412.762 7055.86177,10375.1698 7012.31583,10363.2988 C6994.5014,10359.3418 6974.70784,10377.1484 6956.89356,10369.2342 C6952.93473,10367.2559 6905.43011,10315.814 6907.40952,10307.8999 C6907.40952,10299.9857 6919.28571,10296.0287 6919.28571,10290.0931 C6921.26485,10284.1576 6913.34762,10282.1789 6913.34762,10276.2435 C6913.34762,10268.3294 6917.3063,10258.4367 6923.2444,10250.5225 C6929.18235,10242.6085 6941.05854,10240.6299 6948.97605,10232.7157 C6958.87283,10224.8017 6968.76975,10195.1236 6976.68712,10205.0165 C6980.64594,10210.9519 6986.58403,10250.5225 7004.39832,10248.5441 C7071.69664,10238.6513 7004.39832,10189.1881 7089.51093,10193.1453 C7111.28403,10193.1453 7093.46947,10216.8875 7105.34594,10222.8231 C7113.26317,10226.7801 7125.13936,10216.8875 7135.03628,10220.8446 C7140.97437,10222.8231 7138.99496,10234.6943 7142.95365,10236.6729 C7154.82997,10244.5869 7170.66485,10252.5011 7184.52045,10252.5011 C7186.49959,10252.5011 7235.98376,10228.7587 7235.98376,10228.7587 C7251.81877,10226.7801 7285.46779,10238.6513 7309.22031,10232.7157 C7358.70449,10222.8231 7356.72508,10203.0378 7382.45673,10189.1881 C7441.83754,10157.5317 7398.2916,10201.0592 7455.69315,10197.1023 C7495.28054,10195.1236 7467.56934,10173.3599 7483.40421,10157.5317 C7489.34231,10151.596 7489.34231,10175.3385 7495.28054,10173.3599 C7530.90911,10165.4458 7530.90911,10133.7892 7562.57886,10155.5532 L7562.57886,10155.5532 Z M6256.19873,9425.47579 C6262.13682,9453.17504 6349.22884,9447.23945 6337.35279,9490.76717 C6335.37324,9502.63836 6301.72408,9498.68134 6305.6829,9512.53111 C6309.64159,9526.38087 6337.35279,9522.42358 6347.24943,9534.29476 C6351.20811,9538.25192 6337.35279,9540.23036 6337.35279,9546.16595 C6349.22884,9617.39306 6367.04313,9516.48798 6371.00181,9611.45761 C6372.98122,9645.09245 6337.35279,9656.96364 6327.45573,9684.66316 C6317.55909,9710.38397 6347.24943,9710.38397 6351.20811,9732.14777 C6351.20811,9740.06194 6341.31134,9747.97611 6341.31134,9757.86872 C6335.37324,9823.16024 6343.29075,9914.17257 6305.6829,9979.46396 C6303.70349,9983.42111 6305.6829,9973.52836 6301.72408,9971.54992 C6274.01301,9961.65718 6238.38458,9933.95793 6204.73528,9935.93623 C6198.79719,9935.93623 6218.59088,9943.85054 6218.59088,9949.78599 C6216.61147,9957.70016 6206.71469,9961.65718 6204.73528,9971.54992 C6192.85909,10017.0561 6224.52898,10009.1421 6169.10671,10034.8627 C6091.91147,10070.4764 6139.41637,9997.27073 6101.80839,9981.44253 C6091.91147,9977.48552 6082.01469,9993.31372 6070.13864,9993.31372 C6062.22113,9993.31372 6093.89088,9991.33514 6095.87029,9981.44253 C6095.87029,9967.59277 6076.0766,9959.67888 6072.11805,9947.80741 C6060.24186,9908.23698 6087.95279,9882.51603 6093.89088,9848.88091 C6095.87029,9835.03142 6087.95279,9823.16024 6091.91147,9809.31048 C6093.89088,9797.43929 6115.66399,9791.5037 6111.70517,9779.63265 C6109.7259,9769.73976 6087.95279,9779.63265 6082.01469,9771.71848 C6076.0766,9761.82587 6085.97338,9749.95455 6085.97338,9740.06194 C6085.97338,9738.08336 6078.05615,9738.08336 6080.03528,9736.10492 C6083.99424,9730.16933 6095.87029,9732.14777 6099.82898,9724.23374 C6107.74648,9704.44838 6078.05615,9607.50032 6066.17996,9593.65083 C6042.42744,9567.92988 6026.59256,9653.00662 6032.53066,9554.08012 C6034.51007,9540.23036 6048.36553,9530.33775 6050.34494,9516.48798 C6052.32435,9508.57381 6042.42744,9500.65992 6048.36553,9494.72433 C6050.34494,9492.74575 6064.20054,9534.29476 6099.82898,9534.29476 C6129.51945,9536.27334 6238.38458,9447.23945 6256.19873,9425.47579 L6256.19873,9425.47579 Z M7071.69664,8040.50503 C7067.73796,8080.07574 7018.25392,8072.16157 7014.29496,8103.81797 C7010.33641,8127.56034 7055.86177,8123.60319 7065.75854,8131.51736 C7079.61415,8143.38841 7042.00616,8159.21689 7036.06807,8177.02353 C7028.15056,8202.74448 7059.82045,8175.04495 7063.77913,8184.9377 C7067.73796,8194.83031 7045.96485,8220.55125 7059.82045,8228.46542 C7079.61415,8240.33661 7158.78866,8287.82122 7089.51093,8283.8642 C7093.46947,8273.97145 7093.46947,8266.05728 7085.55224,8256.16467 C7047.94426,8220.55125 7049.92367,8236.37932 7028.15056,8264.07884 C7030.12997,8262.10027 7030.12997,8260.12169 7030.12997,8260.12169 C7030.12997,8240.33661 6992.52213,8236.37932 6974.70784,8244.29349 C6964.81092,8250.22908 6974.70784,8271.99288 6966.79034,8279.90705 C6958.87283,8287.82122 6945.01723,8281.88562 6933.14104,8285.84264 C6905.43011,8297.71382 6879.69832,8329.37023 6848.02843,8335.30582 C6838.13179,8337.2844 6828.23487,8327.39193 6820.3175,8333.32752 C6812.4,8335.30582 6820.3175,8347.17701 6816.35868,8355.09118 C6814.37941,8361.02677 6808.44131,8368.94094 6804.48249,8374.87653 C6806.4619,8372.89796 6806.4619,8370.91938 6808.44131,8370.91938 C6818.33809,8370.91938 6810.42059,8392.68331 6818.33809,8396.64033 C6822.29678,8398.6189 6824.27619,8384.76914 6828.23487,8388.7263 C6832.19369,8396.64033 6840.11092,8412.46867 6832.19369,8418.40412 C6828.23487,8420.38256 6826.2556,8424.33971 6828.23487,8428.29673 C6830.21428,8430.27531 6834.17283,8426.31843 6838.13179,8426.31843 C6850.00784,8436.2109 6869.80154,8442.14649 6871.78081,8455.99626 C6883.657,8511.39503 6836.15238,8489.6311 6822.29678,8523.26622 C6818.33809,8533.15883 6844.06988,8639.9995 6850.00784,8651.87068 C6861.88403,8671.6559 7000.43963,8770.5824 7028.15056,8786.41061 C7055.86177,8802.23895 7063.77913,8792.3462 7089.51093,8814.11013 C7117.22199,8837.8525 7154.82997,8994.15636 7176.60294,9033.72679 C7198.37605,9075.27608 7243.90126,9112.86794 7279.5297,9140.56747 C7291.40589,9148.48164 7309.22031,9150.46008 7319.11709,9160.35282 C7325.05519,9164.30984 7319.11709,9176.18089 7323.07578,9180.13818 C7376.51863,9235.53695 7477.46612,9217.73017 7540.80575,9207.83743 C7554.66135,9205.85885 7584.35183,9184.09506 7602.16612,9203.88041 C7651.65015,9259.27933 7503.19791,9279.06454 7578.41374,9330.5063 C7649.67088,9377.99105 7748.63909,9374.03389 7821.8755,9411.62603 C7847.6073,9425.47579 7857.50408,9447.23945 7887.19441,9457.13219 C7910.94679,9467.0248 7976.26584,9476.91755 7996.05954,9492.74575 C8003.97691,9498.68134 7996.05954,9512.53111 8001.99764,9518.4667 C8025.75002,9552.10154 8089.08965,9546.16595 8108.88321,9615.41449 C8116.80072,9641.13544 8098.98643,9633.22127 8093.04834,9651.02804 C8089.08965,9660.92079 8095.02775,9700.49123 8087.11024,9704.44838 C8079.19274,9710.38397 8065.33713,9704.44838 8053.46094,9698.51293 C7992.10072,9674.77055 8017.83251,9639.15686 7986.16262,9597.60785 C7968.34834,9573.86547 7910.94679,9597.60785 7881.25632,9587.71524 C7841.6692,9573.86547 7819.89609,9528.35917 7782.28811,9567.92988 C7778.32956,9573.86547 7728.84539,9672.79198 7728.84539,9676.74899 C7728.84539,9682.68445 7738.74217,9688.62004 7736.76276,9696.53421 C7728.84539,9734.12634 7689.25813,9732.14777 7722.9073,9775.67536 C7742.70099,9799.41773 7748.63909,9777.65407 7770.41206,9783.58953 C7794.1643,9791.5037 7809.99931,9815.24607 7831.77228,9825.13868 C7839.68979,9829.09583 7851.56598,9825.13868 7855.52466,9833.05285 C7859.48349,9838.98844 7847.6073,9846.90261 7847.6073,9854.8165 C7849.58657,9910.21556 7875.31822,9858.7738 7871.35968,9930.00077 C7869.38013,9971.54992 7790.20562,9955.72158 7754.57718,9997.27073 C7728.84539,10026.9488 7762.49455,10056.6267 7754.57718,10092.2402 C7748.63909,10121.918 7728.84539,10114.0042 7709.05169,10129.8322 C7661.54707,10171.3814 7695.19609,10266.3509 7596.22802,10238.6513 C7576.43432,10232.7157 7554.66135,10181.2741 7566.53754,10159.5102 C7574.45505,10147.639 7594.24875,10149.6176 7604.14553,10139.7248 C7610.08362,10131.8108 7610.08362,10119.9397 7612.06303,10110.047 C7614.04217,10100.1544 7621.95968,10092.2402 7619.98026,10082.3476 C7618.00113,10070.4764 7598.20743,10064.5408 7600.18684,10052.6695 C7608.10407,10017.0561 7655.60897,10036.8413 7669.46444,10017.0561 C7703.1136,9977.48552 7663.52634,9971.54992 7647.69147,9949.78599 C7631.85645,9926.04376 7639.77396,9892.40864 7627.89777,9866.68797 C7621.95968,9850.85963 7614.04217,9837.00986 7604.14553,9825.13868 C7602.16612,9821.18166 7594.24875,9821.18166 7590.28993,9817.22465 C7554.66135,9763.80431 7592.26934,9795.46071 7568.51696,9736.10492 C7538.82634,9660.92079 7521.01206,9698.51293 7461.63124,9702.4698 C7459.65183,9702.4698 7463.61065,9696.53421 7461.63124,9692.57733 C7453.71373,9684.66316 7443.81709,9674.77055 7431.9409,9668.83496 C7420.06471,9662.89937 7396.31233,9668.83496 7388.39482,9654.9852 C7380.47732,9641.13544 7404.2297,9627.28567 7402.25043,9611.45761 C7400.27102,9595.62913 7388.39482,9581.77964 7380.47732,9569.90846 C7332.97269,9504.61694 7325.05519,9595.62913 7269.63306,9575.84405 C7263.69496,9573.86547 7307.2409,9542.20893 7287.4472,9528.35917 C7216.1902,9476.91755 7285.46779,9530.33775 7208.27269,9520.44528 C7202.3346,9518.4667 7208.27269,9508.57381 7206.29328,9502.63836 C7198.37605,9478.89599 7156.80925,9415.58318 7137.01555,9407.66901 C7083.57283,9387.88365 7125.13936,9425.47579 7107.32507,9421.51877 C7089.51093,9417.56162 7073.67605,9395.79782 7053.88235,9397.77626 C7036.06807,9401.73342 7022.21247,9425.47579 7006.37773,9421.51877 C6988.56331,9417.56162 6990.54272,9391.84067 6978.66653,9379.96948 C6964.81092,9368.0983 6929.18235,9372.05545 6917.3063,9364.14128 L6887.61582,9322.59227 C6873.76022,9310.72095 6851.98739,9308.74251 6840.11092,9294.89274 C6816.35868,9259.27933 6844.06988,9265.21492 6816.35868,9243.45099 C6804.48249,9233.55838 6790.62689,9225.64421 6776.77143,9217.73017 C6772.8126,9215.7516 6764.89537,9221.68719 6760.93641,9219.70861 C6739.16358,9201.90184 6739.16358,9168.26699 6717.39047,9150.46008 C6679.78249,9118.80367 6656.03025,9142.54604 6616.44299,9126.7177 C6610.5049,9124.73927 6626.33977,9118.80367 6630.29845,9114.84652 C6642.17464,9099.01845 6618.42226,9073.29751 6612.48417,9067.36191 C6608.52548,9063.40476 6600.60798,9067.36191 6596.64929,9063.40476 C6590.71134,9055.49073 6590.71134,9043.61954 6582.79383,9037.68395 C6572.89705,9029.76978 6553.10335,9035.70537 6545.18585,9023.83419 C6539.24775,9015.92002 6557.06204,9000.09195 6547.16526,8994.15636 C6535.28907,8984.26361 6515.49537,8996.13466 6499.66036,8990.1992 C6489.76372,8986.24219 6505.59873,8968.43541 6505.59873,8956.56422 C6511.53683,8916.99351 6505.59873,8903.14389 6483.82562,8869.50891 C6442.25895,8810.15298 6471.94943,8756.73264 6422.46526,8711.22648 C6418.50671,8705.29088 6410.58921,8703.31244 6404.65111,8701.33387 C6402.6717,8701.33387 6400.69215,8707.26946 6398.71301,8705.29088 C6388.8161,8701.33387 6382.878,8689.46268 6372.98122,8689.46268 C6367.04313,8689.46268 6378.91932,8707.26946 6372.98122,8705.29088 C6357.14635,8701.33387 6345.27002,8689.46268 6331.41469,8679.57021 C6325.4766,8675.61292 6275.99243,8624.1713 6260.15741,8624.1713 C6256.19873,8624.1713 6262.13682,8634.06391 6258.17828,8636.04248 C6254.21932,8638.02092 6248.28122,8636.04248 6246.30181,8632.08533 C6236.40517,8620.21414 6194.8385,8600.42879 6175.04481,8600.42879 C6167.1273,8600.42879 6115.66399,8630.10689 6111.70517,8638.02092 C6107.74648,8645.93509 6113.68458,8657.80628 6107.74648,8663.74173 C6101.80839,8671.6559 6085.97338,8669.67733 6080.03528,8675.61292 C6066.17996,8689.46268 6056.28304,8721.11922 6040.44816,8734.96899 C6014.71637,8760.68966 5969.19102,8758.71136 5939.50054,8762.66824 C5929.60376,8727.05482 5996.90209,8681.54851 5967.21175,8659.78485 C5957.31483,8653.84926 5943.45923,8661.76316 5931.58304,8663.74173 C5919.70685,8663.74173 5905.85124,8669.67733 5893.97505,8665.72045 C5872.20222,8659.78485 5820.73864,8622.19272 5822.71805,8594.49319 C5822.71805,8590.53618 5832.61483,8590.53618 5832.61483,8586.5793 C5830.63556,8580.64371 5810.842,8574.70811 5816.78009,8562.83679 C5824.6976,8554.92276 5834.59424,8548.98717 5840.53233,8539.09442 C5842.51175,8537.11598 5836.57365,8533.15883 5838.55292,8529.20181 C5840.53233,8523.26622 5858.34662,8533.15883 5860.32603,8527.22323 C5860.32603,8511.39503 5858.34662,8495.56669 5852.40853,8483.69564 C5842.51175,8467.86744 5777.1927,8442.14649 5781.15152,8410.48995 C5781.15152,8400.59748 5798.96581,8400.59748 5808.86259,8398.6189 C5814.80054,8398.6189 5818.7595,8410.48995 5824.6976,8408.51137 C5834.59424,8406.53307 5897.93401,8355.09118 5888.0371,8337.2844 C5882.099,8325.41335 5862.30544,8323.43464 5856.36721,8309.58487 C5850.42911,8301.67098 5858.34662,8287.82122 5854.38794,8279.90705 C5826.67673,8232.42244 5775.21342,8256.16467 5866.26413,8202.74448 C5886.05782,8238.35803 5939.50054,8198.78732 5965.23234,8192.85173 C5983.04662,8188.89471 5996.90209,8212.63708 6014.71637,8212.63708 C6016.69578,8212.63708 6072.11805,8155.25959 6072.11805,8145.36712 C6074.09719,8135.47451 6056.28304,8131.51736 6058.26245,8123.60319 C6062.22113,8111.732 6078.05615,8107.77499 6087.95279,8099.86082 C6097.84957,8091.94679 6105.76707,8084.03262 6115.66399,8076.11845 C6119.62267,8074.13987 6123.58136,8070.18285 6125.56077,8072.16157 C6129.51945,8084.03262 6127.54018,8095.9038 6127.54018,8107.77499 C6127.54018,8113.71058 6121.60209,8121.62475 6123.58136,8129.53892 C6137.43696,8155.25959 6169.10671,8161.19519 6190.87968,8169.10936 C6192.85909,8169.10936 6196.81778,8173.06637 6196.81778,8177.02353 C6194.8385,8184.9377 6180.9829,8190.87329 6182.96231,8198.78732 C6184.94158,8206.70149 6198.79719,8202.74448 6204.73528,8208.68007 C6212.65279,8218.57268 6216.61147,8252.20766 6228.48766,8242.31491 C6262.13682,8216.5941 6222.54957,8224.50827 6222.54957,8204.72291 C6222.54957,8161.19519 6270.05433,8149.324 6277.9717,8113.71058 C6277.9717,8109.75357 6256.19873,8056.33309 6289.84789,8062.26868 C6315.57968,8066.22598 6283.90979,8105.79641 6335.37324,8117.6676 C6367.04313,8127.56034 6341.31134,8087.98963 6394.75419,8097.88238 C6410.58921,8099.86082 6402.6717,8131.51736 6416.5273,8139.43153 C6424.44481,8143.38841 6440.27954,8135.47451 6438.30013,8127.56034 C6434.34145,8121.62475 6426.42394,8117.6676 6424.44481,8109.75357 C6424.44481,8101.8394 6436.32086,8095.9038 6434.34145,8087.98963 C6430.38276,8078.09702 6394.75419,8056.33309 6422.46526,8036.54801 C6458.09383,8010.82706 6444.23823,8068.20428 6485.80503,8058.31181 C6509.55728,8050.39764 6471.94943,8022.69825 6471.94943,8018.7411 C6475.90812,8010.82706 6481.84621,8004.89147 6483.82562,7996.9773 C6487.78417,7989.06313 6485.80503,7979.17066 6487.78417,7971.25649 L6487.78417,7971.25649 C6519.45406,7987.08483 6491.74313,7967.29947 6523.41288,7971.25649 C6539.24775,7973.23507 6555.08277,8014.78408 6586.75238,7996.9773 L6612.48417,7943.5571 C6628.31918,7931.68592 6697.59678,7939.59995 6715.4112,7937.62151 C6745.10168,7935.64293 6768.85392,7909.92198 6798.5444,7909.92198 C6806.4619,7909.92198 6784.68879,7919.81459 6782.70952,7927.72876 C6772.8126,7969.27777 6798.5444,7941.57853 6814.37941,7965.3209 C6818.33809,7971.25649 6808.44131,7979.17066 6812.4,7987.08483 C6814.37941,7991.04171 6820.3175,7983.12754 6824.27619,7987.08483 C6861.88403,8014.78408 6871.78081,8018.7411 6923.2444,8026.65527 C6972.72843,8032.59086 7022.21247,8036.54801 7071.69664,8040.50503 L7071.69664,8040.50503 Z M6855.94594,8729.03339 C6859.90462,8723.0978 6859.90462,8715.18363 6865.84272,8711.22648 C6881.67773,8695.39827 6877.71891,8756.73264 6855.94594,8729.03339 L6855.94594,8729.03339 Z" id="it" fill="#87B024"></path>
                        <path d="M9759.67246,8329.37023 C9749.77568,8321.45606 9747.79627,8293.75681 9735.92021,8299.6924 C9729.98212,8301.67098 9726.02343,8309.58487 9720.08534,8311.56359 C9672.58071,8337.2844 9735.92021,8297.71382 9684.45677,8299.6924 C9668.62175,8299.6924 9656.7457,8317.49918 9640.91083,8319.47776 C9607.26153,8323.43464 9634.97273,8275.95003 9545.9013,8309.58487 C9508.29332,8325.41335 9439.01559,8357.06975 9409.32511,8386.74772 C9375.67609,8420.38256 9369.73786,8461.93185 9326.19205,8489.6311 C9286.60466,8513.37347 9256.91418,8497.54527 9217.32693,8495.56669 C9185.65704,8493.58839 9152.00802,8491.60981 9122.3174,8501.50228 C9110.44121,8505.45944 9106.48253,8521.28764 9094.60634,8525.24479 C9039.18421,8545.03001 8973.86502,8513.37347 8918.44289,8519.30906 C8874.89695,8523.26622 8861.04149,8558.87977 8813.53659,8539.09442 C8779.88756,8525.24479 8855.10339,8481.7172 8837.28911,8473.80304 C8805.61936,8459.95327 8710.60983,8440.16792 8716.54793,8388.7263 C8718.52734,8370.91938 8783.84625,8368.94094 8764.05255,8359.04819 C8554.23994,8254.1861 8742.27958,8349.15558 8657.16697,8398.6189 C8643.31137,8408.51137 8635.39387,8372.89796 8621.5384,8366.96236 C8611.64162,8361.02677 8597.78602,8366.96236 8587.88924,8366.96236 C8576.01305,8366.96236 8564.13686,8372.89796 8552.26081,8368.94094 C8546.32271,8364.98379 8550.2814,8355.09118 8546.32271,8347.17701 C8536.4258,8327.39193 8451.31319,8359.04819 8498.81781,8325.41335 C8510.694,8317.49918 8540.38462,8309.58487 8530.4877,8301.67098 C8520.59092,8295.73539 8500.79722,8301.67098 8496.83854,8289.79979 C8494.85913,8277.92861 8536.4258,8256.16467 8508.71473,8240.33661 C8471.10689,8218.57268 8395.89092,8228.46542 8370.15927,8182.95912 C8364.22117,8173.06637 8364.22117,8125.58177 8364.22117,8113.71058 L8364.22117,8109.75357 C8358.28308,8111.732 8354.32439,8123.60319 8350.36557,8119.64617 C8336.51011,8111.732 8334.53069,8089.96821 8322.6545,8080.07574 C8310.77831,8072.16157 8292.96417,8074.13987 8281.0877,8064.24726 C8269.21165,8058.31181 8263.27355,8044.46204 8255.35618,8034.56944 C8259.31487,8032.59086 8261.29428,8024.67669 8265.25296,8022.69825 C8277.12915,8018.7411 8336.51011,8012.8055 8340.46879,7998.95588 C8344.42747,7991.04171 8314.737,7981.14924 8350.36557,7975.21337 C8364.22117,7973.23507 8378.07677,7987.08483 8389.95282,7983.12754 C8427.56081,7969.27777 8415.68462,7898.0508 8425.5814,7876.287 C8429.54008,7870.35141 8439.437,7870.35141 8443.39568,7864.41582 L8465.16879,7795.16742 C8469.12734,7785.27467 8475.06543,7777.3605 8475.06543,7767.46789 C8475.06543,7763.51088 8465.16879,7763.51088 8465.16879,7759.55372 C8467.14793,7741.74694 8488.92103,7686.34817 8498.81781,7670.51997 C8502.77664,7666.56281 8512.67341,7670.51997 8512.67341,7664.58437 C8522.57019,7626.99238 8508.71473,7599.29285 8552.26081,7557.7437 C8566.11613,7541.91564 8581.95115,7551.80825 8603.72412,7543.89408 C8625.49722,7534.00147 8627.47636,7504.3235 8643.31137,7488.49516 C8649.24947,7492.45232 8661.12566,7484.53815 8674.98126,7446.94615 C8676.96053,7442.98913 8676.96053,7437.05354 8680.91936,7437.05354 C8686.85745,7437.05354 8736.34149,7460.79591 8742.27958,7460.79591 C8746.23827,7460.79591 8748.21768,7450.90317 8752.17636,7448.92473 C8777.90815,7439.03198 8843.2272,7464.75293 8874.89695,7456.83876 C8892.71137,7450.90317 8904.58756,7435.07496 8922.40171,7433.09639 C8954.0716,7431.11781 8975.84443,7472.6671 8997.61754,7478.60255 C9027.30802,7488.49516 9037.2048,7433.09639 9045.1223,7425.18222 C9080.75074,7387.59036 9171.80144,7391.54724 9199.51264,7363.84785 C9252.95536,7312.40609 9175.76026,7355.93382 9213.36824,7306.47064 C9223.26502,7294.59945 9239.10004,7284.7067 9254.93477,7280.74969 L9256.91418,7274.81409 C9256.91418,7274.81409 9258.74895,7274.07048 9262.85228,7272.83552 C9264.82947,7272.24045 9277.42541,7265.51293 9290.35858,7267.16641 C9304.26603,7268.94446 9318.86895,7279.43721 9330.1506,7288.66386 C9371.71727,7318.34168 9379.63477,7367.805 9413.2838,7401.43985 C9468.70606,7454.86032 9619.13772,7549.82953 9636.952,7626.99238 C9650.80761,7676.45556 9632.99332,7731.85433 9644.86951,7781.31765 C9648.8282,7803.08131 9684.45677,7852.54463 9682.47736,7874.30856 C9682.47736,7882.22273 9666.64234,7884.20117 9668.62175,7892.11534 C9670.6013,7900.02951 9682.47736,7896.07222 9688.41545,7900.02951 C9694.35355,7903.98639 9694.35355,7917.83615 9702.27105,7917.83615 C9706.22974,7919.81459 9712.16783,7915.85758 9716.12652,7919.81459 C9722.06475,7925.75019 9720.08534,7937.62151 9728.00284,7943.5571 C9735.92021,7951.47113 9821.03296,7955.42829 9819.05355,7945.53554 C9819.05355,7943.5571 9791.34234,7937.62151 9811.13604,7925.75019 C9823.01223,7919.81459 9836.86783,7921.79317 9848.74389,7915.85758 C9868.53758,7905.96511 9876.45509,7878.26558 9898.22806,7870.35141 C9941.774,7854.52321 9963.54697,7870.35141 9973.44389,7907.94341 C9971.46448,7909.92198 9965.52638,7907.94341 9965.52638,7909.92198 C9965.52638,7915.85758 9969.4852,7919.81459 9973.44389,7921.79317 C9977.40257,7923.77175 9981.36139,7915.85758 9983.34067,7919.81459 C9987.29949,7927.72876 9989.27876,7994.99872 9989.27876,8002.91289 C9987.29949,8028.63384 9927.9184,8030.61242 9912.08366,8042.4836 C9902.18674,8050.39764 9902.18674,8078.09702 9890.31055,8076.11845 C9888.33128,8074.13987 9904.16615,8008.84849 9876.45509,7993.02042 C9866.55817,7989.06313 9854.68198,8004.89147 9848.74389,8014.78408 C9840.82638,8028.63384 9876.45509,8040.50503 9874.47568,8056.33309 C9874.47568,8072.16157 9844.78534,8082.05404 9852.70257,8093.92523 C9860.62008,8105.79641 9876.45509,8076.11845 9890.31055,8076.11845 C9894.26937,8074.13987 9888.33128,8086.01119 9884.37246,8089.96821 C9882.39318,8091.94679 9880.41377,8093.92523 9876.45509,8095.9038 C9878.43436,8093.92523 9880.41377,8093.92523 9882.39318,8095.9038 C9894.26937,8105.79641 9846.76447,8182.95912 9846.76447,8184.9377 C9848.74389,8198.78732 9866.55817,8268.03586 9876.45509,8331.3488 C9840.82638,8337.2844 9789.36307,8355.09118 9759.67246,8329.37023 Z" id="ro" fill="#87B024"></path>
                        <path d="M8595.80675,9423.49721 C8576.01305,9498.68134 8564.13686,9433.38996 8550.2814,9486.81016 C8550.2814,9486.81016 8538.40521,9565.9513 8538.40521,9567.92988 C8534.44652,9573.86547 8473.08602,9593.65083 8471.10689,9607.50032 L8496.83854,9647.07103 C8502.77664,9664.87781 8475.06543,9647.07103 8475.06543,9658.94221 C8477.04484,9710.38397 8455.27187,9682.68445 8421.62271,9688.62004 C8419.6433,9688.62004 8423.60199,9690.59862 8421.62271,9692.57733 C8419.6433,9694.55563 8419.6433,9694.55563 8417.66389,9696.53421 C8415.68462,9694.55563 8415.68462,9692.57733 8413.70521,9688.62004 L8413.70521,9676.74899 C8413.70521,9664.87781 8419.6433,9654.9852 8415.68462,9645.09245 C8411.72579,9639.15686 8399.8496,9645.09245 8395.89092,9639.15686 C8385.99428,9631.24283 8387.97341,9615.41449 8380.05591,9607.50032 C8366.20058,9589.69368 8239.52117,9556.0587 8253.37677,9524.40215 C8259.31487,9510.55253 8287.02607,9526.38087 8292.96417,9514.50968 C8294.9433,9510.55253 8255.35618,9484.83158 8249.41809,9463.06779 C8247.43868,9457.13219 8257.33546,9455.15362 8257.33546,9449.21802 C8259.31487,9441.30385 8257.33546,9431.41138 8259.31487,9423.49721 C8259.31487,9413.6046 8253.37677,9403.71186 8259.31487,9397.77626 C8263.27355,9389.86223 8279.10856,9395.79782 8285.04666,9389.86223 C8289.00534,9383.92664 8285.04666,9368.0983 8279.10856,9368.0983 C8271.19106,9370.07688 8277.12915,9385.90508 8271.19106,9391.84067 C8259.31487,9401.73342 8271.19106,9324.57071 8273.17047,9304.78535 C8277.12915,9281.04298 8243.47999,9292.91417 8243.47999,9269.1718 C8243.47999,9251.36516 8241.50058,9233.55838 8251.39736,9219.70861 C8257.33546,9211.79444 8275.14974,9219.70861 8283.06725,9211.79444 C8287.02607,9207.83743 8273.17047,9205.85885 8271.19106,9199.92326 C8269.21165,9186.07377 8283.06725,9166.28842 8273.17047,9156.39567 C8261.29428,9144.52448 8241.50058,9158.37425 8225.66557,9154.41723 L8225.66557,9114.84652 C8225.66557,9106.93235 8229.62439,9097.03974 8225.66557,9089.12557 C8219.72747,9079.2331 8201.91319,9079.2331 8199.93405,9069.34049 C8199.93405,9067.36191 8263.27355,8938.75745 8269.21165,8934.80029 C8271.19106,8932.82199 8281.0877,8982.28517 8296.92285,8984.26361 L8338.48938,8950.62863 C8370.15927,8950.62863 8364.22117,9000.09195 8382.03532,9009.98442 C8387.97341,9013.94144 8393.91151,9006.02754 8401.82902,9008.00585 C8415.68462,9011.96314 8429.54008,9017.89859 8439.437,9027.7912 C8477.04484,9069.34049 8449.33378,9110.8895 8453.2926,9152.43865 C8453.2926,9166.28842 8465.16879,9178.1596 8465.16879,9190.03065 C8463.18938,9195.96624 8447.3545,9195.96624 8449.33378,9201.90184 C8451.31319,9215.7516 8471.10689,9223.66577 8473.08602,9237.51539 C8475.06543,9243.45099 8463.18938,9249.38644 8463.18938,9255.32203 C8463.18938,9271.15037 8514.65283,9344.35607 8522.57019,9356.22711 C8534.44652,9370.07688 8542.36389,9348.31294 8548.30185,9348.31294 C8556.21935,9346.33464 8566.11613,9348.31294 8572.05423,9352.27024 C8576.01305,9356.22711 8570.07496,9366.12 8574.03364,9366.12 C8574.03364,9391.84067 8601.74484,9399.75484 8595.80675,9423.49721 Z" id="al" fill="#87B024"></path>
                        <path d="M8083.15142,8780.47501 C8055.44035,8812.13156 8059.39904,8857.63772 8051.48181,8867.53033 C8035.64666,8887.31569 8029.7087,8857.63772 8023.7706,8887.31569 C8013.87383,8944.69304 8074.75964,8946.67146 8031.27271,8989.03743 L8031.27271,8999.09127 L8041.58475,9019.87731 C8017.83251,8962.49982 7978.24512,8982.28517 7928.76108,8946.67148 C7916.88489,8936.77887 7912.92621,8918.97223 7899.0706,8915.01494 C7889.17382,8911.05806 7877.29777,8922.92911 7865.42158,8922.92911 C7859.48349,8922.92911 7845.62788,8920.9508 7847.6073,8915.01494 C7851.56598,8907.10104 7869.38013,8909.07934 7871.35968,8899.18687 C7881.25632,8873.46592 7796.14371,8839.83108 7788.2262,8825.98132 C7780.3087,8814.11013 7786.24679,8796.30335 7778.32956,8784.43217 C7772.39147,8776.518 7758.53587,8778.49657 7748.63909,8774.53942 C7707.07228,8748.81847 7681.34063,8701.33387 7645.71206,8671.6559 C7633.83587,8663.74173 7588.31051,8618.23557 7574.45505,8612.29997 C7568.51696,8610.32153 7560.59945,8618.23557 7554.66135,8614.27855 C7544.76471,8604.38594 7568.51696,8582.62201 7568.51696,8578.66513 C7566.53754,8570.75096 7556.64077,8568.77225 7550.70267,8562.83679 C7534.86766,8539.09442 7528.92956,8507.43788 7507.15673,8487.6528 C7499.23922,8477.76005 7483.40421,8477.76005 7473.50743,8469.84588 C7465.58993,8463.91029 7451.7346,8349.15558 7495.28054,8351.13416 C7515.0741,8351.13416 7548.72326,8394.66189 7566.53754,8404.5545 L7582.37242,8402.57578 L7566.53754,8404.5545 C7590.28993,8402.57578 7586.33124,8364.98379 7598.20743,8349.15558 C7619.98026,8323.43464 7629.87718,8355.09118 7657.58825,8349.15558 C7665.50575,8347.17701 7665.50575,8331.3488 7673.42326,8325.41335 C7673.42326,8325.41335 7685.29945,8337.2844 7718.94847,8347.17701 C7722.9073,8349.15558 7728.84539,8351.13416 7734.78349,8349.15558 C7738.74217,8349.15558 7740.72158,8341.24141 7746.65968,8339.26297 C7770.41206,8337.2844 7823.85478,8366.96236 7849.58657,8363.00535 C7855.52466,8363.00535 7861.46262,8359.04819 7863.44217,8353.1126 C7869.38013,8349.15558 7867.40072,8335.30582 7875.31822,8335.30582 C7887.19441,8333.32752 7895.11192,8345.19857 7906.98811,8349.15558 C7928.76108,8355.09118 7903.02943,8339.26297 7914.90562,8335.30582 C7926.78181,8331.3488 7940.63741,8331.3488 7952.5136,8335.30582 C7960.43083,8337.2844 7966.36893,8349.15558 7974.28643,8349.15558 C7980.22453,8349.15558 7974.28643,8335.30582 7980.22453,8335.30582 C8025.75002,8337.2844 8013.87383,8386.74772 8035.64666,8390.70473 C8073.25464,8394.66189 8093.04834,8366.96236 8128.67677,8368.94094 C8128.67677,8430.27531 8093.04834,8471.82446 8098.98643,8509.41645 C8106.90394,8552.94418 8118.78013,8521.28764 8146.49106,8533.15883 C8164.30534,8541.073 8168.26416,8566.79394 8186.07845,8576.68642 C8192.01655,8578.66513 8211.81024,8572.72954 8205.87215,8590.53618 C8193.99596,8630.10689 8144.51178,8586.5793 8134.61487,8600.42879 C8134.61487,8600.42879 8223.6863,8683.52709 8199.93405,8709.24804 C8192.01655,8715.18363 8182.11963,8695.39827 8172.22285,8699.35529 C8160.34666,8703.31244 8158.36725,8719.14065 8150.44988,8729.03339 C8136.59428,8732.99041 8098.98643,8725.07624 8097.00702,8734.96899 C8091.06893,8762.66824 8140.55296,8764.64681 8124.71822,8806.19596 L8116.80072,8806.19596 L8124.71822,8806.19596 C8104.92453,8792.3462 8104.92453,8778.49657 8083.15142,8780.47501 Z" id="ba" fill="#FFFFFF"></path>
                        <path d="M7588.31051,8016.76266 C7574.45505,8014.78408 7540.80575,8006.86991 7532.88825,8008.84849 C7511.11541,8012.8055 7540.80575,8040.50503 7528.92956,8048.4192 C7519.03292,8052.37621 7507.15673,8046.44062 7497.25981,8050.39764 C7493.30113,8052.37621 7499.23922,8060.29038 7495.28054,8064.24726 C7475.48684,8080.07574 7443.81709,8082.05404 7424.0234,8099.86082 C7400.27102,8121.62475 7467.56934,8177.02353 7437.879,8198.78732 C7368.60113,8248.2505 7412.14721,8165.15234 7366.62172,8230.44386 C7360.68362,8238.35803 7384.436,8240.33661 7388.39482,8250.22908 C7392.35351,8258.14325 7368.60113,8256.16467 7368.60113,8264.07884 C7368.60113,8268.03586 7388.39482,8293.75681 7380.47732,8303.64942 C7358.70449,8325.41335 7327.0346,8291.77823 7307.2409,8291.77823 C7277.55056,8291.77823 7334.95197,8319.47776 7285.46779,8305.62799 C7271.61247,8301.67098 7253.79818,8279.90705 7247.86009,8268.03586 C7243.90126,8264.07884 7239.94258,8252.20766 7237.96317,8256.16467 C7230.04566,8268.03586 7232.02507,8281.88562 7224.10757,8291.77823 C7198.37605,8325.41335 7162.74734,8291.77823 7133.05687,8301.67098 C7129.09818,8303.64942 7137.01555,8311.56359 7133.05687,8315.52047 C7115.24258,8325.41335 7079.61415,8323.43464 7061.79986,8315.52047 C7061.79986,8315.52047 7061.79986,8313.54216 7063.77913,8313.54216 C7073.67605,8303.64942 7085.55224,8293.75681 7089.51093,8283.8642 C7158.78866,8287.82122 7079.61415,8240.33661 7059.82045,8228.46542 C7045.96485,8220.55125 7067.73796,8194.83031 7063.77913,8184.9377 C7059.82045,8175.04495 7028.15056,8202.74448 7036.06807,8177.02353 C7042.00616,8159.21689 7079.61415,8143.38841 7065.75854,8131.51736 C7055.86177,8123.60319 7010.33641,8127.56034 7014.29496,8103.81797 C7018.25392,8072.16157 7067.73796,8080.07574 7071.69664,8040.50503 L7067.73796,8040.50503 C7079.61415,8042.4836 7091.49034,8044.46204 7105.34594,8046.44062 C7121.18068,8048.4192 7137.01555,8060.29038 7152.85056,8062.26868 C7168.68544,8064.24726 7184.52045,8052.37621 7200.35519,8054.35479 C7210.2521,8056.33309 7216.1902,8070.18285 7226.08698,8070.18285 C7230.04566,8072.16157 7228.06639,8060.29038 7232.02507,8058.31181 C7241.92185,8048.4192 7257.75687,8044.46204 7267.65351,8032.59086 C7275.57101,8026.65527 7269.63306,8012.8055 7275.57101,8006.86991 C7313.179,7977.19194 7352.76639,8014.78408 7388.39482,7998.95588 C7400.27102,7993.02042 7402.25043,7975.21337 7414.12662,7971.25649 C7416.10589,7969.27777 7481.42494,7979.17066 7483.40421,7977.19194 C7489.34231,7975.21337 7477.46612,7967.29947 7475.48684,7961.36388 C7469.54875,7929.70734 7493.30113,7921.79317 7522.9916,7921.79317 C7530.90911,7921.79317 7546.74385,7983.12754 7588.31051,8016.76266 L7588.31051,8016.76266 Z" id="si" fill="#87B024"></path>
                        <path d="M8455.27187,9112.86794 C8453.2926,9126.7177 8451.31319,9140.56747 8453.2926,9152.43865 C8453.2926,9166.28842 8465.16879,9178.1596 8465.16879,9190.03065 C8463.18938,9195.96624 8447.3545,9195.96624 8449.33378,9201.90184 C8451.31319,9215.7516 8471.10689,9223.66577 8473.08602,9237.51539 C8475.06543,9243.45099 8463.18938,9249.38644 8463.18938,9255.32203 C8463.18938,9271.15037 8514.65283,9344.35607 8522.57019,9356.22711 C8534.44652,9370.07688 8542.36389,9348.31294 8548.30185,9348.31294 C8556.21935,9346.33464 8566.11613,9348.31294 8572.05423,9352.27024 C8576.01305,9356.22711 8570.07496,9366.12 8574.03364,9366.12 C8587.88924,9368.0983 8720.50647,9326.54929 8728.42398,9320.61369 C8750.19709,9296.87132 8734.36207,9265.21492 8773.94947,9251.36516 C8787.80507,9245.42956 8865.00017,9255.32203 8876.87636,9247.40814 C8882.81446,9243.45099 8880.83518,9231.5798 8886.77328,9227.62278 C8890.73196,9225.64421 8896.67006,9237.51539 8900.6286,9233.55838 C8924.38099,9217.73017 8870.93827,9186.07377 8934.2779,9174.20259 L8934.2779,9174.20259 L8936.25731,9174.20259 C8938.23659,9148.48164 8934.2779,9065.38334 8932.29849,9065.38334 C8918.44289,9051.53357 8896.67006,9011.96314 8878.85577,9000.09195 C8868.95886,8994.15636 8855.10339,9000.09195 8843.2272,8994.15636 C8839.26838,8992.17778 8785.82566,8950.62863 8785.82566,8946.67148 C8760.09387,8922.92911 8696.75423,8984.26361 8665.08434,8990.1992 C8627.47636,8996.13466 8611.64162,8970.41399 8593.82734,9013.94144 C8591.84793,9019.87731 8599.76543,9027.7912 8597.78602,9035.70537 C8593.82734,9045.59798 8576.01305,9021.85561 8566.11613,9021.85561 C8540.38462,9023.83419 8516.6321,9041.64096 8494.85913,9055.49073 C8482.98294,9063.40476 8510.694,9146.50306 8461.20983,9112.86794 L8455.27187,9112.86794 L8455.27187,9112.86794 Z" id="mk" fill="#87B024"></path>
                        <path d="M8033.66725,9006.02754 C8009.915,8966.45683 7972.30702,8980.3066 7928.76108,8946.67148 C7916.88489,8936.77887 7912.92621,8918.97223 7899.0706,8915.01494 C7891.15324,8911.05806 7881.25632,8918.97223 7871.35968,8920.9508 C7875.31822,8922.92911 7877.29777,8922.92911 7881.25632,8924.90782 C7885.215,8926.8864 7889.17382,8938.75745 7885.215,8938.75745 C7853.54539,8936.77887 7829.79287,8907.10104 7798.12326,8903.14389 C7784.26766,8901.16545 7768.43265,8905.12247 7754.57718,8903.14389 C7750.61836,8903.14389 7746.65968,8893.25128 7744.68027,8895.22986 C7740.72158,8897.2083 7740.72158,8907.10104 7744.68027,8909.07934 C7756.55646,8913.03664 7770.41206,8907.10104 7784.26766,8909.07934 C7796.14371,8911.05806 7809.99931,8915.01494 7823.85478,8922.92911 C7827.8136,8924.90782 7825.83419,8932.82199 7829.79287,8934.80029 C7897.09133,8970.41399 7883.23573,8913.03664 7988.14203,8996.13466 C8001.99764,9006.02754 8019.81192,9015.92002 8037.62621,9019.87731 L8033.66725,9006.02754 Z M8071.27523,8384.76914 C8053.46094,8364.98379 8083.15142,8374.87653 8091.06893,8361.02677 C8093.04834,8359.04819 8093.04834,8355.09118 8091.06893,8353.1126 C8065.33713,8327.39193 8083.15142,8317.49918 8085.13083,8291.77823 C8087.11024,8281.88562 8136.59428,8321.45606 8130.65632,8281.88562 C8102.94512,8281.88562 8071.27523,8273.97145 8047.52285,8258.14325 C8037.62621,8250.22908 8055.44035,8246.2722 8055.44035,8244.29349 C8055.44035,8238.35803 8035.64666,8234.40102 8047.52285,8222.52956 C8049.50226,8220.55125 8063.35786,8232.42244 8065.33713,8220.55125 C8067.31654,8198.78732 8025.75002,8224.50827 8025.75002,8204.72291 C8029.7087,8159.21689 8037.62621,8171.08793 8003.97691,8123.60319 L8001.99764,8119.64617 C7996.05954,8121.62475 7990.12144,8121.62475 7980.22453,8123.60319 C7966.36893,8123.60319 7964.38979,8151.30272 7960.43083,8155.25959 C7934.69918,8177.02353 7847.6073,8179.0021 7819.89609,8167.13078 C7806.04049,8161.19519 7794.1643,8147.3457 7778.32956,8141.41011 C7774.3706,8139.43153 7734.78349,8145.36712 7728.84539,8137.45295 C7687.27859,8084.03262 7641.75337,8060.29038 7588.31051,8016.76266 C7574.45505,8014.78408 7540.80575,8006.86991 7532.88825,8008.84849 C7511.11541,8012.8055 7540.80575,8040.50503 7528.92956,8048.4192 C7519.03292,8052.37621 7507.15673,8046.44062 7497.25981,8050.39764 C7493.30113,8052.37621 7499.23922,8060.29038 7495.28054,8064.24726 C7475.48684,8080.07574 7443.81709,8082.05404 7424.0234,8099.86082 C7400.27102,8121.62475 7467.56934,8177.02353 7437.879,8198.78732 C7368.60113,8248.2505 7412.14721,8165.15234 7366.62172,8230.44386 C7360.68362,8238.35803 7384.436,8240.33661 7388.39482,8250.22908 C7392.35351,8258.14325 7368.60113,8256.16467 7368.60113,8264.07884 C7368.60113,8268.03586 7388.39482,8293.75681 7380.47732,8303.64942 C7358.70449,8325.41335 7327.0346,8291.77823 7307.2409,8291.77823 C7277.55056,8291.77823 7334.95197,8319.47776 7285.46779,8305.62799 C7271.61247,8301.67098 7253.79818,8279.90705 7247.86009,8268.03586 C7243.90126,8264.07884 7239.94258,8252.20766 7237.96317,8256.16467 C7230.04566,8268.03586 7232.02507,8281.88562 7224.10757,8291.77823 C7198.37605,8325.41335 7162.74734,8291.77823 7133.05687,8301.67098 C7129.09818,8303.64942 7137.01555,8311.56359 7133.05687,8315.52047 C7115.24258,8325.41335 7079.61415,8323.43464 7061.79986,8315.52047 C7055.86177,8315.52047 7043.98544,8309.58487 7043.98544,8315.52047 C7045.96485,8331.3488 7059.82045,8343.21999 7065.75854,8357.06975 C7065.75854,8359.04819 7061.79986,8359.04819 7061.79986,8361.02677 C7063.77913,8376.85511 7059.82045,8392.68331 7067.73796,8404.5545 C7067.73796,8404.5545 7069.71723,8404.5545 7069.71723,8406.53307 C7061.79986,8418.40412 7093.46947,8432.25388 7103.36653,8446.10351 C7111.28403,8457.9747 7117.22199,8509.41645 7127.11877,8497.54527 C7137.01555,8485.67422 7142.95365,8469.84588 7150.87115,8455.99626 C7152.85056,8450.06066 7154.82997,8444.12507 7154.82997,8438.18948 C7154.82997,8436.2109 7148.89188,8438.18948 7148.89188,8434.23232 C7148.89188,8432.25388 7148.89188,8424.33971 7150.87115,8426.31843 C7158.78866,8428.29673 7152.85056,8473.80304 7174.62339,8438.18948 C7178.58235,8428.29673 7178.58235,8418.40412 7178.58235,8406.53307 C7178.58235,8404.5545 7174.62339,8402.57578 7174.62339,8398.6189 C7174.62339,8396.64033 7176.60294,8404.5545 7178.58235,8402.57578 C7194.41709,8394.66189 7180.56149,8341.24141 7198.37605,8341.24141 C7255.77746,8337.2844 7235.98376,8359.04819 7271.61247,8388.7263 C7279.5297,8394.66189 7291.40589,8388.7263 7297.34412,8394.66189 C7332.97269,8436.2109 7291.40589,8487.6528 7330.99328,8531.18039 C7342.86947,8545.03001 7376.51863,8574.70811 7390.3741,8584.60059 C7406.20911,8592.51489 7455.69315,8600.42879 7439.85813,8606.36438 C7412.14721,8614.27855 7360.68362,8556.9012 7368.60113,8632.08533 C7370.58054,8655.82756 7461.63124,8707.26946 7475.48684,8725.07624 C7479.44553,8727.05482 7459.65183,8719.14065 7463.61065,8721.11922 C7475.48684,8729.03339 7526.95015,8744.86159 7528.92956,8750.79705 C7532.88825,8764.64681 7521.01206,8786.41061 7530.90911,8798.28179 C7536.84707,8802.23895 7598.20743,8780.47501 7600.18684,8778.49657 C7639.77396,8770.5824 7612.06303,8786.41061 7661.54707,8804.21739 C7677.38194,8808.17454 7695.19609,8802.23895 7711.03124,8808.17454 C7732.80407,8816.08857 7746.65968,8851.70213 7770.41206,8863.57331 C7798.12326,8875.4445 7815.93741,8883.35867 7823.85478,8891.2727 C7823.85478,8893.25128 7825.83419,8891.2727 7825.83419,8891.2727 C7829.79287,8891.2727 7833.75169,8887.31569 7835.73097,8891.2727 C7843.64847,8905.12247 7831.77228,8905.12247 7849.58657,8913.03664 C7855.52466,8907.10104 7869.38013,8907.10104 7871.35968,8899.18687 C7881.25632,8873.46592 7796.14371,8839.83108 7788.2262,8825.98132 C7780.3087,8814.11013 7786.24679,8796.30335 7778.32956,8784.43217 C7772.39147,8776.518 7758.53587,8778.49657 7748.63909,8774.53942 C7707.07228,8748.81847 7681.34063,8701.33387 7645.71206,8671.6559 C7633.83587,8663.74173 7588.31051,8618.23557 7574.45505,8612.29997 C7568.51696,8610.32153 7560.59945,8618.23557 7554.66135,8614.27855 C7544.76471,8604.38594 7568.51696,8582.62201 7568.51696,8578.66513 C7566.53754,8570.75096 7556.64077,8568.77225 7550.70267,8562.83679 C7534.86766,8539.09442 7528.92956,8507.43788 7507.15673,8487.6528 C7499.23922,8477.76005 7483.40421,8477.76005 7473.50743,8469.84588 C7465.58993,8463.91029 7451.7346,8349.15558 7495.28054,8351.13416 C7515.0741,8351.13416 7548.72326,8394.66189 7566.53754,8404.5545 L7582.37242,8402.57578 L7566.53754,8404.5545 C7590.28993,8402.57578 7586.33124,8364.98379 7598.20743,8349.15558 C7619.98026,8323.43464 7629.87718,8355.09118 7657.58825,8349.15558 C7665.50575,8347.17701 7665.50575,8331.3488 7673.42326,8325.41335 C7673.42326,8325.41335 7685.29945,8337.2844 7718.94847,8347.17701 C7722.9073,8349.15558 7728.84539,8351.13416 7734.78349,8349.15558 C7738.74217,8349.15558 7740.72158,8341.24141 7746.65968,8339.26297 C7770.41206,8337.2844 7823.85478,8366.96236 7849.58657,8363.00535 C7855.52466,8363.00535 7861.46262,8359.04819 7863.44217,8353.1126 C7869.38013,8349.15558 7867.40072,8335.30582 7875.31822,8335.30582 C7887.19441,8333.32752 7895.11192,8345.19857 7906.98811,8349.15558 C7928.76108,8355.09118 7903.02943,8339.26297 7914.90562,8335.30582 C7926.78181,8331.3488 7940.63741,8331.3488 7952.5136,8335.30582 C7960.43083,8337.2844 7966.36893,8349.15558 7974.28643,8349.15558 C7980.22453,8349.15558 7974.28643,8335.30582 7980.22453,8335.30582 C8025.75002,8337.2844 8013.87383,8386.74772 8035.64666,8390.70473 C8049.50226,8392.68331 8061.37845,8388.7263 8071.27523,8384.76914 L8071.27523,8384.76914 Z" id="hr" fill="#87B024"></path>
                        <path d="M8040.16311,9019.89744 C8050.05851,9021.87464 8055.44893,9021.94082 8065.34585,9021.94082 C8061.38772,9025.89535 8057.42807,9029.84975 8059.40872,9035.78161 C8087.11882,9097.07677 8093.05761,9039.73614 8120.76784,9053.57707 C8126.70663,9057.5316 8122.7485,9065.44066 8126.70663,9071.37239 C8142.54233,9091.14518 8162.33465,9087.19065 8176.19122,9108.9405 C8180.14949,9114.87223 8176.19122,9126.73596 8182.12848,9132.66769 C8194.00454,9144.53142 8209.84024,9150.46301 8225.67442,9154.41782 L8225.67442,9114.87223 C8225.67442,9106.96303 8229.63408,9097.07677 8225.67442,9089.16771 C8219.73716,9079.28159 8201.92232,9079.28159 8199.94332,9069.39533 C8199.94332,9067.418 8263.2831,8938.89553 8269.22188,8934.941 C8271.20088,8932.96381 8281.0978,8982.39551 8296.93198,8984.37271 L8342.46479,8949.76901 C8338.30571,8928.94977 8341.83119,8928.32989 8348.06103,8907.86694 C8351.1204,8897.81792 8346.5957,8904.26781 8357.38647,8895.37913 C8362.13143,8891.47139 8372.21295,8878.78504 8372.21295,8878.78504 C8372.21295,8878.78504 8400.10738,8868.49873 8389.16123,8860.1305 C8367.44945,8843.53031 8335.125,8817.28539 8313.99287,8807.46981 C8300.353,8801.13469 8317.45781,8774.14145 8304.15562,8761.06257 C8279.24752,8736.57099 8218.81513,8721.65973 8199.94332,8709.5326 C8192.0254,8715.46433 8182.12848,8695.69167 8172.23157,8699.6462 C8160.35551,8703.60073 8158.37652,8719.41886 8150.4586,8729.30539 C8136.60355,8733.25978 8098.99487,8725.35072 8097.01574,8735.23726 C8091.07861,8762.9187 8140.56168,8764.89603 8124.7275,8806.41868 C8104.93366,8792.57775 8104.62925,8779.10485 8084.69913,8779.10485 C8065.34585,8787.2734 8059.40872,8857.82758 8051.4908,8867.71398 C8035.6551,8887.48663 8029.71783,8857.82758 8023.77905,8887.48663 C8013.88213,8944.8274 8075.13461,8946.8046 8029.60967,8990.30444 L8029.60967,8997.70322 L8040.16311,9019.89744 Z" id="me" fill="#87B024"></path>
                        <path d="M8461.80966,8814.2594 C8466.37935,8799.24709 8455.29841,8803.85172 8459.25723,8775.04915 C8490.30824,8760.67105 8505.11681,8760.0385 8515.01373,8769.92475 C8541.44119,8791.68496 8551.06782,8802.16402 8561.54329,8817.93741 C8569.37516,8829.73005 8576.51276,8851.6029 8576.51276,8851.6029 C8625.99748,8885.21662 8584.20652,8878.16197 8596.08257,8870.25305 C8601.52582,8866.79288 8601.37086,8871.31909 8598.47867,8880.02389 C8595.58648,8888.72869 8646.17886,8883.17219 8640.67319,8896.4264 C8635.16738,8909.6806 8675.46563,8911.89028 8673.06844,8922.07804 C8672.46917,8924.62512 8677.1075,8932.33553 8667.37273,8937.19223 C8657.63795,8942.04894 8671.8717,8955.31722 8659.45964,8960.49877 C8647.04758,8965.68046 8627.48756,8996.23672 8665.09458,8990.30499 C8696.76447,8984.37312 8760.10424,8923.07768 8785.837,8946.80501 C8795.73392,8929.00955 8823.44402,8925.05516 8813.5471,8899.35064 C8811.5681,8891.44171 8805.63084,8887.48704 8799.69205,8883.53265 C8795.73392,8881.55518 8789.79513,8885.50985 8787.816,8881.55518 C8785.837,8871.66892 8787.816,8861.78252 8787.816,8851.89627 C8785.837,8840.03281 8771.9803,8828.16908 8777.91908,8818.28268 C8835.32007,8723.37394 8770.0013,8840.03281 8833.34094,8790.60097 C8839.27986,8784.66924 8880.84666,8711.51021 8868.97061,8699.64675 C8853.13491,8687.78302 8777.91908,8652.19224 8773.96095,8648.23785 C8750.20733,8628.46506 8712.60031,8545.41977 8726.45536,8515.76086 C8732.39414,8501.91993 8754.16711,8503.89713 8762.08338,8492.03381 C8768.02216,8478.19274 8760.10424,8460.39728 8766.04303,8446.5565 C8738.33141,8434.69276 8712.60031,8416.89744 8716.55844,8389.21587 C8718.53744,8371.42027 8783.85787,8369.44321 8764.06403,8359.55668 C8554.25087,8254.76154 8742.29106,8349.67042 8657.1768,8399.10212 C8643.32175,8408.98824 8635.40383,8373.3976 8621.54878,8367.46588 C8611.65186,8361.53401 8597.79667,8367.46588 8587.89976,8367.46588 C8576.0237,8367.46588 8564.14779,8373.3976 8552.27174,8369.44321 C8546.33295,8365.4884 8550.29108,8355.60215 8546.33295,8347.69308 C8536.43603,8327.9207 8451.32329,8359.55668 8498.82736,8325.94337 C8510.70493,8318.03417 8540.39416,8310.12497 8530.49725,8302.21605 C8520.60185,8296.28418 8500.80801,8302.21605 8496.84822,8290.35259 C8494.86923,8278.48886 8536.43603,8256.73887 8508.72428,8240.92088 C8471.11712,8219.1709 8395.90143,8229.05729 8370.16867,8183.58012 C8364.23155,8173.69358 8364.23155,8126.23921 8364.23155,8114.37576 L8364.23155,8110.42109 C8358.29276,8112.39828 8354.33463,8124.26201 8350.37484,8120.30735 C8336.51979,8112.39828 8334.54066,8090.64843 8322.66474,8080.76231 C8310.78869,8072.85311 8292.97385,8074.83017 8281.0978,8064.94391 C8269.22188,8059.01218 8263.2831,8045.17139 8255.36518,8035.285 C8245.46826,8035.285 8235.57134,8025.3986 8225.67442,8025.3986 C8223.69529,8025.3986 8172.23157,8041.21673 8170.25243,8041.21673 C8136.60355,8039.23953 8174.21222,8009.58048 8128.68563,8039.23953 C8106.91266,8051.10298 8095.03674,8074.83017 8077.2219,8088.6711 C8059.40872,8102.51202 8051.4908,8082.73923 8045.55202,8088.6711 C8019.82092,8118.33015 8017.84178,8120.30735 8002.00608,8120.30735 L8003.98521,8124.26201 C8037.63575,8171.71639 8029.71783,8159.85293 8025.75818,8205.32983 C8025.75818,8225.10262 8067.32499,8199.39796 8065.34585,8221.14823 C8063.36686,8233.01168 8049.51167,8221.14823 8047.53115,8223.12515 C8035.6551,8234.98902 8055.44893,8238.94355 8055.44893,8244.87528 C8055.44893,8246.85275 8037.63575,8250.80701 8047.53115,8258.71607 C8071.28464,8274.53419 8102.95453,8282.44339 8130.66476,8282.44339 C8136.60355,8321.98856 8087.11882,8282.44339 8085.13983,8292.32965 C8083.16069,8318.03417 8065.34585,8327.9207 8091.07861,8353.62481 C8093.05761,8355.60215 8093.05761,8359.55668 8091.07861,8361.53401 C8083.16069,8375.3748 8053.46994,8365.4884 8071.28464,8385.26133 C8091.07861,8379.32947 8106.91266,8367.46588 8128.68563,8369.44321 C8128.68563,8430.73837 8093.05761,8472.26102 8098.99487,8509.82899 C8106.91266,8553.32897 8118.78871,8521.69258 8146.50047,8533.55632 C8164.3153,8541.46538 8168.27344,8567.16976 8186.08827,8577.05616 C8192.0254,8579.03349 8211.81924,8573.10162 8205.88211,8590.89695 C8194.00454,8630.44253 8144.52133,8586.94269 8134.62441,8600.7832 C8134.62441,8600.7832 8223.69529,8683.82849 8199.94332,8709.53315 C8246.47979,8733.76092 8223.13925,8724.40796 8295.68801,8754.94751 C8320.33536,8762.87438 8297.33099,8804.9422 8319.14318,8813.59592 C8353.667,8827.29327 8354.33035,8843.23523 8377.91437,8855.67616 C8399.91025,8867.28007 8396.50228,8862.43432 8410.15013,8865.4635 C8441.82001,8865.4635 8457.23998,8829.27171 8461.80966,8814.2594 Z" id="sr" fill="#87B024"></path>
                        <path d="M8446.01393,9035.76174 C8450.8189,9043.52924 8455.18865,9056.48463 8456.06959,9072.63419 C8456.79137,9085.86576 8454.15415,9102.40814 8456.06959,9110.16302 C8464.36047,9117.35293 8476.26338,9121.64511 8483.79198,9121.23138 C8491.32057,9120.81766 8488.11423,9112.43443 8494.48473,9114.02555 C8494.48473,9100.18448 8489.97898,9052.69325 8501.51238,9049.89326 C8534.09132,9041.98406 8533.43685,9029.93158 8545.15425,9027.31669 C8545.15425,9025.33935 8559.0774,9026.81092 8576.43619,9024.61256 C8588.5294,9035.76174 8588.5294,9042.79847 8595.17814,9038.37642 C8601.82687,9033.95436 8599.46478,8995.35097 8607.30564,8990.2245 C8622.98735,8979.97144 8661.27138,8998.14751 8652.58915,8986.48492 C8650.4186,8983.56924 8677.73273,8930.03667 8674.94302,8924.93022 C8672.15331,8919.82364 8681.92966,8907.51261 8678.8158,8901.60781 C8675.7018,8895.70286 8650.49483,8904.52445 8647.35142,8899.21383 C8645.19656,8895.57321 8641.94949,8889.87845 8634.82942,8887.29736 C8631.56306,8886.11328 8624.6941,8890.47558 8621.69683,8887.29736 C8612.16619,8877.19118 8624.8948,8872.29554 8622.15826,8870.20335 C8611.3023,8861.90346 8604.46482,8848.38999 8588.52941,8840.30795 C8572.59385,8832.22605 8560.16991,8795.20103 8549.6037,8790.29338 C8535.96397,8783.95813 8512.45819,8767.24339 8504.38789,8764.64077 C8498.29602,8762.67618 8485.08363,8753.21232 8461.24534,8773.75448 C8437.40692,8794.29665 8470.26442,8797.39387 8462.34733,8818.15512 L8425.0983,8859.6612 C8407.93991,8873.91932 8395.86083,8854.31523 8387.94291,8864.20163 C8372.10721,8883.97428 8351.23596,8884.17046 8345.29718,8913.82951 C8328.3258,8974.49874 8363.5345,8943.89639 8363.5345,8974.49874 C8363.5345,8974.49874 8369.52967,9000.5203 8382.21075,9009.44634 C8394.89182,9018.37237 8413.61877,9010.07709 8428.98517,9019.29421 L8446.01393,9035.76174 Z" id="path2228" fill="#87B024"></path>
                        <path d="M9890.31057,10569.0659 C9868.5376,10610.615 9908.12472,10582.9156 9886.35189,10644.25 C9884.37247,10650.1856 9724.04404,10685.7991 9708.20917,10691.7347 C9696.33297,10695.6917 9585.48871,10747.1335 9573.61252,10737.2409 C9537.98381,10697.6703 9601.32345,10701.6275 9488.49964,10687.7777 C9373.69669,10673.9279 9516.21084,10701.6275 9419.22191,10701.6275 C9413.28381,10701.6275 9411.30468,10691.7347 9405.36658,10691.7347 C9393.49039,10689.7561 9379.63479,10691.7347 9365.77919,10693.7133 C9351.92359,10697.6703 9336.08871,10705.5845 9322.23311,10707.5631 C9292.54277,10707.5631 9304.41896,10669.9709 9306.39837,10658.0997 C9306.39837,10642.2714 9300.46028,10624.4648 9306.39837,10610.615 C9328.17121,10549.2805 9347.9649,10618.5292 9361.8205,10624.4648 C9375.67611,10630.4004 9391.51098,10622.486 9405.36658,10616.5506 C9415.26322,10612.5936 9421.20132,10586.8726 9429.11883,10594.7868 C9439.0156,10602.701 9405.36658,10610.615 9409.32513,10620.5077 C9411.30468,10630.4004 9429.11883,10624.4648 9439.0156,10628.4216 C9448.91252,10632.3789 9456.82989,10646.2284 9468.70608,10648.207 C9478.603,10650.1856 9486.52051,10642.2714 9496.41715,10638.3145 C9516.21084,10632.3789 9530.06645,10616.5506 9547.88073,10610.615 C9569.6537,10604.6794 9591.42681,10606.658 9613.19964,10602.701 C9627.05524,10598.7438 9615.17905,10614.5722 9627.05524,10616.5506 C9648.82821,10622.486 9670.60132,10604.6794 9694.35356,10606.658 C9700.29166,10606.658 9704.25034,10618.5292 9710.18844,10616.5506 C9720.08536,10614.5722 9755.71379,10584.8941 9773.52808,10588.8512 C9777.4869,10590.8296 9743.83774,10632.3789 9791.34236,10646.2284 C9801.23928,10650.1856 9801.23928,10628.4216 9809.15665,10622.486 C9850.72331,10580.937 9844.78536,10634.3572 9890.31057,10569.0659 L9890.31057,10569.0659 Z M9482.56168,9071.31896 L9484.54109,9069.34052 L9484.54109,9069.34052 L9486.52051,9069.34052 L9486.52051,9069.34052 L9486.52051,9069.34052 L9486.52051,9069.34052 L9486.52051,9069.34052 L9486.52051,9069.34052 L9486.52051,9069.34052 L9486.52051,9069.34052 L9486.52051,9069.34052 L9486.52051,9069.34052 L9486.52051,9069.34052 L9486.52051,9069.34052 L9486.52051,9069.34052 L9486.52051,9069.34052 L9486.52051,9069.34052 L9486.52051,9069.34052 L9486.52051,9069.34052 L9486.52051,9069.34052 L9486.52051,9069.34052 L9486.52051,9069.34052 C9488.49964,9069.34052 9549.86,9049.55517 9549.86,9049.55517 C9593.40594,9015.92005 9468.70608,8960.52127 9545.90132,8944.69307 L9545.90132,8944.69307 L9545.90132,8944.69307 L9545.90132,8944.69307 L9547.88073,8944.69307 L9547.88073,8944.69307 L9547.88073,8944.69307 L9547.88073,8944.69307 L9547.88073,8944.69307 L9547.88073,8944.69307 L9553.81883,8944.69307 L9553.81883,8944.69307 L9555.7981,8944.69307 L9555.7981,8944.69307 L9557.77751,8944.69307 L9557.77751,8944.69307 L9557.77751,8944.69307 L9557.77751,8944.69307 C9561.73619,8944.69307 9565.69502,8944.69307 9567.67415,8946.67151 L9567.67415,8946.67151 L9571.63311,8946.67151 L9571.63311,8946.67151 C9615.17905,8956.56426 9674.55987,8998.11341 9644.86953,9033.72683 C9623.09656,9057.4692 9601.32345,9045.59801 9593.40594,9085.16873 L9609.24096,9142.54608 C9607.26155,9156.3957 9579.55062,9201.90187 9565.69502,9209.81604 L9563.71561,9231.57983 C9530.06645,9213.77305 9593.40594,9211.79448 9561.73619,9184.09509 C9545.90132,9172.22404 9482.56168,9199.92329 9462.76799,9197.94485 C9399.42849,9193.9877 9391.51098,9152.43869 9349.94431,9203.88045 C9340.0474,9215.75163 9330.15062,9225.64424 9318.27456,9233.55841 C9262.8523,9263.23624 9292.54277,9193.9877 9237.12064,9227.62282 C9215.34753,9241.47258 9231.18255,9275.10742 9187.63647,9294.89278 C9150.02862,9310.72098 9146.06994,9263.23624 9110.44123,9308.74254 C9096.58577,9326.54932 9120.33815,9324.57074 9126.27624,9328.5279 C9144.09053,9338.42051 9142.11098,9368.09833 9157.94613,9383.92667 C9161.90468,9387.88369 9169.82218,9385.90511 9177.73969,9383.92667 C9179.71896,9383.92667 9181.69837,9381.9481 9183.67778,9377.99108 C9183.67778,9374.03393 9175.76028,9366.12003 9181.69837,9366.12003 C9189.61588,9364.14132 9189.61588,9381.9481 9197.53325,9383.92667 C9219.30636,9389.86227 9264.83157,9397.7763 9272.74908,9427.4544 C9288.58409,9484.83161 9221.28549,9401.73345 9221.28549,9401.73345 C9199.51266,9389.86227 9136.17302,9381.9481 9130.23493,9419.54023 C9124.29683,9443.28246 9175.76028,9435.36829 9191.59515,9451.19663 C9203.47134,9463.06782 9201.49207,9502.63839 9187.63647,9496.7028 C9155.96658,9484.83161 9153.98717,9449.21806 9122.31742,9433.38999 C9114.40005,9431.41142 9106.48255,9435.36829 9098.56504,9433.38999 C9088.66826,9433.38999 9076.79207,9423.49725 9070.85411,9431.41142 C9025.32862,9480.8746 9157.94613,9494.72436 9148.04907,9512.53114 C9144.09053,9518.46673 9092.62694,9516.48802 9076.79207,9512.53114 C9070.85411,9510.55256 9056.99851,9447.23948 9056.99851,9447.23948 C9041.16364,9427.4544 8985.7415,9439.32559 8963.9684,9423.49725 C8922.40173,9391.8407 8963.9684,9397.7763 8963.9684,9358.20572 C8963.9684,9350.29155 8942.19543,9372.05549 8930.31924,9381.9481 C8920.42232,9391.8407 8904.58758,9399.75487 8902.60803,9413.60464 C8900.62862,9423.49725 8920.42232,9425.47582 8922.40173,9435.36829 L8908.54613,9494.72436 C8914.48422,9532.3165 8960.00971,9550.12314 8981.78254,9573.86551 L9007.51434,9625.30727 C9021.36994,9639.15689 9122.31742,9688.62007 9106.48255,9712.36258 C9102.52386,9718.29818 9025.32862,9678.7276 9019.39053,9680.70618 C9013.45243,9680.70618 9019.39053,9692.57737 9019.39053,9698.51296 C9015.43184,9712.36258 8993.65874,9742.04055 9007.51434,9740.06197 C9011.47302,9738.08339 9009.49375,9728.19079 9013.45243,9730.16936 C9019.39053,9732.1478 9017.41112,9742.04055 9023.34921,9745.99756 C9037.20481,9755.89017 9080.75075,9755.89017 9047.10173,9785.56828 C9019.39053,9809.31051 8991.6796,9811.28909 8954.07162,9827.11729 C8948.13352,9829.09587 8965.94781,9835.03146 8971.8859,9833.05288 C8977.824,9831.0743 8981.78254,9821.1817 8989.70005,9821.1817 C8997.61756,9821.1817 8997.61756,9833.05288 9003.55565,9837.0099 C9007.51434,9838.98847 9011.47302,9835.03146 9015.43184,9833.05288 C9031.26672,9833.05288 9047.10173,9829.09587 9060.95706,9835.03146 C9072.83325,9838.98847 9070.85411,9858.77383 9082.73016,9860.75241 C9096.58577,9864.70942 9110.44123,9842.94549 9122.31742,9848.88095 C9134.19375,9854.81654 9120.33815,9880.53749 9132.21434,9886.47308 C9148.04907,9896.36583 9167.84277,9868.6663 9181.69837,9878.55905 C9189.61588,9882.51606 9181.69837,9914.17261 9213.36826,9916.15118 C9252.95538,9918.12962 9264.83157,9904.27986 9292.54277,9935.93626 C9314.3156,9959.67891 9280.66658,9949.78602 9280.66658,9963.63579 C9280.66658,9973.5284 9292.54277,9979.46399 9294.52218,9987.37816 C9298.48087,9997.27077 9292.54277,10009.1421 9296.50146,10017.0561 C9306.39837,10034.8628 9332.13017,10042.7769 9310.35706,10076.4121 C9306.39837,10082.3476 9298.48087,10078.3905 9292.54277,10076.4121 C9288.58409,10072.4549 9292.54277,10066.5193 9290.56336,10062.5623 C9288.58409,10058.6053 9264.83157,10042.7769 9262.8523,10042.7769 C9258.89347,10040.7984 9256.9142,10050.6911 9252.95538,10048.7125 C9239.10005,10038.8201 9217.32694,9999.24935 9197.53325,9993.31375 C9171.80146,9985.39958 9185.65706,10015.0777 9171.80146,10019.0347 C9148.04907,10026.9489 9080.75075,10046.734 9086.68885,10056.6267 C9092.62694,10070.4765 9116.37932,10064.5409 9130.23493,10070.4765 C9136.17302,10072.4549 9118.35874,10076.4121 9118.35874,10082.3476 C9118.35874,10088.2832 9128.25565,10088.2832 9130.23493,10092.2403 C9134.19375,10100.1544 9128.25565,10112.0256 9134.19375,10117.9612 C9155.96658,10139.7249 9193.57456,10127.8537 9213.36826,10151.596 C9225.24445,10165.4458 9181.69837,10169.403 9163.88409,10169.403 C9136.17302,10171.3814 9114.40005,10169.403 9106.48255,10167.4244 C9100.54445,10165.4458 9104.50313,10155.5532 9100.54445,10149.6176 C9098.56504,10147.639 9092.62694,10147.639 9090.64767,10147.639 C9074.81266,10147.639 9053.03983,10135.7678 9043.14291,10147.639 C9027.30803,10169.403 9092.62694,10218.8663 9100.54445,10232.7158 C9102.52386,10240.6299 9096.58577,10248.5441 9098.56504,10254.4797 C9102.52386,10260.4153 9114.40005,10254.4797 9118.35874,10260.4153 C9126.27624,10274.2651 9150.02862,10317.7926 9157.94613,10335.5994 C9165.86336,10353.4062 9142.11098,10341.535 9142.11098,10347.4706 C9142.11098,10353.4062 9150.02862,10355.3848 9152.00803,10359.3418 C9152.00803,10363.2988 9144.09053,10369.2343 9146.06994,10373.1916 C9148.04907,10377.1484 9193.57456,10402.8694 9189.61588,10418.6976 C9185.65706,10424.6332 9171.80146,10424.6332 9163.88409,10422.6547 C9157.94613,10418.6976 9159.92526,10406.8264 9153.98717,10402.8694 C9150.02862,10398.9122 9142.11098,10408.805 9136.17302,10404.848 C9102.52386,10379.1272 9088.66826,10299.9857 9039.18422,10369.2343 C9037.20481,10373.1916 9041.16364,10414.7406 9045.12232,10438.4829 C9047.10173,10444.4185 9047.10173,10458.2683 9041.16364,10456.2896 C8991.6796,10450.3541 9023.34921,10400.8908 9007.51434,10379.1272 C9005.53493,10377.1484 8999.59683,10379.1272 8997.61756,10377.1484 C8985.7415,10365.2774 8979.80341,10351.4276 8969.90649,10337.5779 C8963.9684,10327.6853 8960.00971,10309.8785 8948.13352,10307.8999 C8853.124,10286.1362 8938.2366,10377.1484 8904.58758,10392.9766 C8847.1859,10418.6976 8863.02078,10353.4062 8861.0415,10339.5564 C8861.0415,10335.5994 8855.10341,10335.5994 8853.124,10335.5994 C8835.30971,10337.5779 8825.41279,10313.8355 8821.45411,10292.0718 C8817.49556,10262.3939 8841.24781,10296.0287 8845.20649,10250.5225 C8847.1859,10218.8663 8795.72246,10179.2956 8769.99066,10171.3814 C8764.05257,10169.403 8758.11447,10183.2526 8754.15579,10177.317 C8746.23828,10167.4244 8754.15579,10149.6176 8744.25901,10139.7249 C8732.38296,10127.8537 8678.93996,10143.682 8706.65116,10106.09 C8708.63044,10104.1114 8716.54794,10108.0686 8718.52736,10104.1114 C8750.1971,10082.3476 8734.36209,10064.5409 8744.25901,10026.9489 C8744.25901,10022.9917 8748.21769,10034.8628 8752.17638,10034.8628 C8754.15579,10034.8628 8748.21769,10026.9489 8750.1971,10026.9489 C8769.99066,10026.9489 8789.78436,10046.734 8805.61937,10030.9059 C8827.39221,10009.1421 8797.70187,10007.1635 8837.28912,9981.44257 C8865.00019,9963.63579 8884.79389,9993.31375 8906.56672,10001.2279 C8938.2366,10013.0991 8975.84445,10009.1421 9009.49375,10019.0347 C9029.28744,10022.9917 9041.16364,10046.734 9060.95706,10048.7125 C9068.87456,10050.6911 9084.70958,10040.7984 9082.73016,10030.9059 C9078.77162,10022.9917 9056.99851,10032.8845 9053.03983,10022.9917 C9033.24613,9977.48555 9102.52386,10044.7555 9126.27624,9979.46399 C9128.25565,9973.5284 9112.42064,9983.42114 9104.50313,9979.46399 C9100.54445,9977.48555 9104.50313,9967.5928 9100.54445,9967.5928 C9096.58577,9967.5928 9094.60635,9991.33518 9084.70958,9979.46399 C9068.87456,9959.67891 9056.99851,9987.37816 9031.26672,9975.50697 C9017.41112,9967.5928 9013.45243,9943.85057 8997.61756,9941.87185 C8987.72064,9939.89355 8993.65874,9971.54996 8981.78254,9971.54996 C8946.15411,9969.57138 8969.90649,9888.45166 8944.1747,9933.95796 C8940.21602,9941.87185 8954.07162,9957.70019 8946.15411,9963.63579 C8932.29851,9977.48555 8868.95887,9951.76474 8855.10341,9957.70019 C8829.37162,9967.5928 8809.57792,9991.33518 8771.97007,10001.2279 C8750.1971,10007.1635 8744.25901,9973.5284 8732.38296,9967.5928 C8726.44459,9965.61436 8734.36209,9981.44257 8730.40355,9985.39958 C8722.4859,9997.27077 8708.63044,10007.1635 8696.75425,10013.0991 C8692.79556,10015.0777 8694.77497,10005.1849 8692.79556,10005.1849 C8671.02246,9995.29233 8692.79556,9977.48555 8678.93996,9955.72162 C8671.02246,9943.85057 8661.12568,9931.97938 8649.24949,9924.06521 C8645.29094,9922.08678 8639.35284,9930.00081 8637.37343,9926.04379 C8627.47638,9918.12962 8631.43534,9900.32284 8621.53842,9894.38725 C8601.74486,9880.53749 8566.11615,9933.95796 8595.80677,9860.75241 C8591.84794,9858.77383 8587.88926,9856.79512 8581.95116,9852.83824 C8576.01307,9846.90264 8579.97175,9837.0099 8576.01307,9831.0743 C8554.23996,9803.37492 8498.81783,9777.65411 8475.06545,9757.86875 C8467.14794,9753.91173 8479.02413,9734.12638 8473.08604,9728.19079 C8467.14794,9722.25519 8437.4576,9744.01899 8417.66391,9696.53424 C8419.64332,9694.55567 8419.64332,9694.55567 8421.62273,9692.57737 C8423.602,9690.59865 8419.64332,9688.62007 8421.62273,9688.62007 C8455.27189,9682.68448 8477.04486,9710.38401 8475.06545,9658.94225 C8475.06545,9647.07106 8502.77665,9664.87784 8496.83856,9647.07106 L8471.1069,9607.50035 C8473.08604,9593.65086 8534.44654,9573.86551 8538.40522,9567.92992 C8538.40522,9565.95134 8550.28141,9486.81019 8550.28141,9486.81019 C8564.13688,9433.38999 8576.01307,9498.68138 8595.80677,9423.49725 C8601.74486,9399.75487 8574.03366,9391.8407 8574.03366,9366.12003 C8587.88926,9368.09833 8720.50649,9326.54932 8728.424,9320.61373 C8750.1971,9296.87136 8734.36209,9265.21495 8773.94949,9251.36519 C8787.80509,9245.4296 8865.00019,9255.32207 8876.87638,9247.40817 C8882.81447,9243.45102 8880.8352,9231.57983 8886.7733,9227.62282 C8890.73198,9225.64424 8896.67008,9237.51543 8900.62862,9233.55841 C8924.381,9217.73021 8870.93828,9186.07381 8934.27792,9174.20262 L8934.27792,9174.20262 C8932.29851,9176.18092 8934.27792,9180.13821 8934.27792,9180.13821 C8936.25733,9176.18092 8936.25733,9164.30987 8936.25733,9148.48167 L8936.25733,9174.20262 L8934.27792,9174.20262 L8960.00971,9174.20262 C8967.92694,9174.20262 8977.824,9180.13821 8983.76209,9174.20262 C8991.6796,9170.24547 8991.6796,9154.41726 8999.59683,9150.46011 C9021.36994,9136.61048 9051.06041,9144.52452 9074.81266,9136.61048 C9130.23493,9116.82513 9144.09053,9093.0829 9179.71896,9071.31896 C9185.65706,9067.36195 9195.55397,9083.19001 9203.47134,9079.23313 C9215.34753,9077.25456 9221.28549,9057.4692 9233.16196,9061.42635 C9248.99669,9063.40479 9252.95538,9085.16873 9266.81098,9093.0829 C9268.79039,9097.03977 9274.72849,9089.1256 9278.68717,9091.10432 C9284.62527,9093.0829 9288.58409,9106.93238 9294.52218,9104.95394 C9302.43955,9102.97537 9302.43955,9087.1473 9310.35706,9085.16873 C9332.13017,9079.23313 9357.86168,9091.10432 9377.65538,9100.99679 C9381.6142,9102.97537 9377.65538,9112.86798 9383.59347,9112.86798 C9411.30468,9114.84655 9454.85062,9081.21171 9482.56168,9071.31896 L9482.56168,9071.31896 L9482.56168,9071.31896 L9482.56168,9071.31896 Z M8676.96055,9837.0099 C8700.71307,9793.48217 8641.33198,9840.96705 8639.35284,9838.98847 C8625.49724,9833.05288 8613.62105,9807.33193 8601.74486,9815.2461 C8597.78604,9815.2461 8611.64164,9844.92407 8609.66223,9856.79512 C8629.45593,9856.79512 8665.08436,9856.79512 8676.96055,9837.0099 L8676.96055,9837.0099 Z M8643.31139,10072.4549 C8627.47638,10086.3047 8621.53842,10066.5193 8607.68296,10064.5409 C8599.76545,10064.5409 8591.84794,10074.4335 8583.93058,10072.4549 C8570.07497,10068.4979 8576.01307,10022.9917 8564.13688,10032.8845 C8558.19892,10036.8413 8568.09556,10050.6911 8564.13688,10058.6053 C8548.30187,10092.2403 8538.40522,10034.8628 8581.95116,9977.48555 C8587.88926,9987.37816 8595.80677,9997.27077 8599.76545,10009.1421 C8599.76545,10011.1205 8593.82735,10028.9272 8603.72413,10030.9059 C8613.62105,10032.8845 8665.08436,10054.6481 8643.31139,10072.4549 L8643.31139,10072.4549 Z M9320.2537,9904.27986 C9310.35706,9892.40867 9296.50146,9882.51606 9280.66658,9876.58047 C9256.9142,9868.6663 9223.26504,9906.25844 9197.53325,9880.53749 C9193.57456,9874.60189 9205.45075,9866.688 9201.49207,9860.75241 C9195.55397,9842.94549 9078.77162,9787.54658 9056.99851,9791.50373 C9045.12232,9795.46075 9039.18422,9809.31051 9029.28744,9815.2461 C9023.34921,9817.22468 9033.24613,9803.37492 9037.20481,9799.41776 C9043.14291,9793.48217 9051.06041,9787.54658 9056.99851,9781.61098 C9064.91602,9773.69709 9070.85411,9767.7615 9078.77162,9761.8259 C9090.64767,9753.91173 9102.52386,9747.97614 9114.40005,9742.04055 C9148.04907,9759.84733 9144.09053,9777.65411 9177.73969,9795.46075 C9183.67778,9799.41776 9191.59515,9801.39634 9199.51266,9801.39634 C9203.47134,9801.39634 9205.45075,9793.48217 9209.40944,9795.46075 C9219.30636,9799.41776 9227.22386,9811.28909 9239.10005,9815.2461 C9250.97611,9817.22468 9292.54277,9793.48217 9300.46028,9807.33193 C9302.43955,9809.31051 9298.48087,9811.28909 9298.48087,9813.26753 C9296.50146,9815.2461 9294.52218,9819.20312 9296.50146,9821.1817 C9304.41896,9829.09587 9318.27456,9829.09587 9324.21266,9838.98847 C9324.21266,9840.96705 9320.2537,9900.32284 9340.0474,9914.17261 C9361.8205,9930.00081 9450.8918,9900.32284 9415.26322,9959.67891 C9395.46966,9991.33518 9342.02681,9951.76474 9330.15062,9937.91498 C9328.17121,9933.95796 9336.08871,9931.97938 9336.08871,9928.02237 C9334.1093,9922.08678 9328.17121,9916.15118 9322.23311,9912.19403 C9318.27456,9912.19403 9314.3156,9922.08678 9312.33647,9918.12962 C9312.33647,9914.17261 9324.21266,9908.23701 9320.2537,9904.27986 L9320.2537,9904.27986 Z M9296.22289,9250.56379 C9296.20548,9250.45556 9282.82526,9262.67022 9280.39644,9263.08769 C9284.7149,9268.99623 9279.2555,9270.21358 9274.46166,9274.29332 C9276.2263,9276.43508 9277.38423,9278.75009 9277.75879,9281.54401 C9273.41643,9284.71178 9273.30843,9291.03199 9273.80217,9294.06791 C9282.00764,9292.6577 9297.14519,9294.95642 9295.5634,9304.61434 C9306.7007,9298.69697 9297.69046,9307.60733 9307.43324,9305.93275 C9306.64836,9301.62314 9308.21039,9298.87823 9312.0492,9297.36365 C9316.66861,9299.39262 9310.81807,9297.93616 9317.98412,9296.70459 C9317.64077,9295.40813 9317.35944,9294.09538 9317.32463,9292.74964 C9319.13224,9291.88212 9319.64269,9292.07346 9319.30294,9294.06791 C9325.1416,9293.0644 9315.70238,9292.75116 9327.21617,9290.77217 C9324.48916,9287.01906 9329.53726,9281.48354 9324.57838,9280.88481 C9319.70139,9280.29573 9322.17621,9273.61452 9325.8972,9272.97505 C9325.41216,9267.82664 9323.33911,9266.41091 9319.30294,9268.36091 C9319.64021,9265.858 9321.00627,9264.79141 9320.62177,9262.42849 C9322.67313,9262.73966 9324.50546,9262.77638 9326.55668,9263.08769 C9325.44586,9260.83411 9324.3034,9260.17726 9323.91903,9257.81448 C9316.22541,9263.42647 9314.82813,9249.51942 9308.75207,9250.56379 C9306.66424,9258.83386 9299.09477,9250.33656 9296.22289,9250.56379 L9296.22289,9250.56379 Z M9686.60635,9545.20555 C9683.49318,9546.53141 9679.39984,9548.69318 9680.01209,9552.45623 C9678.03226,9552.3393 9672.51623,9545.59596 9673.41769,9551.13796 C9665.12686,9552.56295 9658.18967,9556.0608 9652.31594,9557.07024 C9664.23536,9560.98115 9638.63146,9582.56258 9637.80845,9577.50404 C9632.70178,9578.92239 9633.80157,9583.97003 9629.23588,9584.75472 C9632.2793,9575.08024 9622.87876,9583.47801 9623.30096,9586.07299 C9615.95386,9590.96159 9610.06382,9588.45192 9604.83686,9584.75472 C9605.36141,9587.98033 9597.7878,9595.60542 9595.60481,9602.55184 C9597.4457,9601.57125 9598.57807,9601.82485 9598.2426,9603.87024 C9588.78239,9602.43518 9589.7511,9610.36827 9598.2426,9605.84772 C9596.67421,9617.58223 9607.70516,9613.56047 9609.45282,9624.30404 C9613.3814,9621.44606 9617.48551,9622.61716 9620.00383,9628.25884 C9627.23285,9626.92525 9641.00642,9631.05179 9645.06219,9627.59978 C9651.11755,9622.44418 9657.47785,9611.27997 9656.27255,9603.87024 C9659.60808,9602.23915 9663.51359,9598.6176 9662.86681,9594.64208 C9664.67068,9593.40582 9674.82946,9592.87528 9676.05547,9592.66461 C9677.93337,9604.20834 9691.85099,9595.82851 9677.3743,9610.46173 C9677.45413,9610.95278 9664.48851,9618.43788 9663.52629,9624.30404 C9653.52041,9621.28495 9664.91058,9630.16908 9652.31594,9628.25884 C9652.09123,9629.23943 9651.19958,9630.36567 9650.33763,9630.89552 C9652.23045,9633.23386 9662.04684,9642.44794 9660.22916,9642.76022 C9662.16369,9654.65252 9671.45485,9641.65883 9674.07717,9640.78274 C9674.82739,9645.39247 9686.47597,9644.78104 9690.56296,9644.07862 C9695.94336,9646.2589 9695.94115,9650.22778 9701.77332,9651.98838 C9701.5772,9650.78165 9723.35017,9646.12222 9727.49116,9647.37436 C9726.74978,9642.81875 9728.86923,9647.04511 9730.78829,9646.71516 C9729.9157,9641.35111 9744.32969,9643.14842 9742.65813,9632.87299 C9737.77023,9635.3672 9734.33319,9634.16475 9732.10712,9628.91805 C9735.03825,9628.41415 9746.77122,9633.17671 9746.6146,9632.21379 C9753.51962,9627.19073 9749.70125,9637.01348 9755.18731,9624.9631 C9745.09938,9623.4332 9738.21826,9602.16059 9732.10712,9603.21104 C9734.28734,9599.71567 9733.35785,9596.27512 9730.12881,9593.32368 C9721.03625,9599.95561 9710.72832,9564.99739 9697.15722,9574.8675 C9695.88356,9567.03602 9705.4881,9562.37286 9704.41097,9555.75198 C9697.8899,9559.22622 9693.84725,9555.50665 9688.58465,9556.41118 C9690.56614,9550.11955 9688.12129,9554.51806 9686.60635,9545.20555 L9686.60635,9545.20555 Z M8396.75814,9657.92079 C8396.38013,9659.11481 8387.42513,9658.36298 8388.84491,9658.58 C8389.40979,9662.05272 8378.43533,9671.41286 8377.63456,9666.48975 C8371.65323,9665.58219 8365.51046,9670.89985 8360.48928,9671.7631 C8360.38915,9670.16251 8359.4703,9668.55944 8357.85163,9667.80816 C8357.31079,9669.5987 8351.68842,9675.34572 8357.19215,9674.39964 C8356.68915,9677.25692 8354.88597,9678.62268 8351.91671,9679.01379 C8355.04866,9683.21392 8358.6321,9688.35584 8363.78655,9688.90101 C8363.13149,9693.80411 8362.28639,9695.90721 8365.10538,9700.76585 C8384.45808,9697.43918 8369.58819,9709.6261 8378.95338,9708.01653 C8385.2728,9714.54313 8385.65109,9722.05529 8391.48256,9713.94881 C8393.78143,9718.98044 8399.04319,9724.51098 8403.3524,9725.81365 C8405.82874,9729.45066 8402.53423,9736.96779 8405.99019,9741.63329 C8409.80427,9740.38571 8412.32701,9742.49074 8413.24393,9748.22491 C8411.19284,9747.91374 8410.30106,9748.38036 8411.26563,9750.20239 C8422.77914,9748.22312 8413.34006,9747.91015 8419.17871,9746.90651 C8420.94308,9750.1774 8417.36614,9750.4622 8417.85989,9753.49813 C8423.42743,9753.33605 8439.87124,9752.85977 8440.93994,9759.43055 C8443.1587,9760.30539 8459.31607,9764.17308 8460.06352,9764.04456 C8461.37517,9756.04714 8453.78319,9742.18274 8444.89656,9746.90651 C8435.85938,9751.71158 8425.3527,9738.36792 8417.85989,9739.65582 C8417.14903,9733.85897 8415.84388,9713.59457 8409.94666,9714.60802 C8410.35395,9710.14945 8412.17398,9707.34781 8411.92497,9702.74332 C8407.68716,9703.3803 8395.73998,9703.3716 8394.77983,9697.46997 L8402.69292,9696.1517 C8401.33998,9687.83303 8390.95125,9703.97255 8394.77983,9690.21928 C8395.95447,9686.00204 8398.62154,9682.82267 8402.03358,9680.33206 C8401.69783,9682.37718 8402.83006,9683.28984 8404.67123,9682.30953 C8405.36703,9678.0753 8418.37394,9672.1745 8410.60614,9667.14895 C8406.45645,9664.46727 8398.05859,9663.13561 8396.75814,9657.92079 L8396.75814,9657.92079 Z M9652.31594,9753.49813 C9643.71588,9757.05562 9634.99789,9758.89573 9627.91692,9764.04456 C9628.25267,9761.99916 9627.78046,9761.09077 9625.93861,9762.06708 C9626.46965,9765.3308 9621.76392,9771.07588 9619.34435,9773.27272 C9621.13165,9775.52588 9622.72214,9777.92966 9623.96031,9780.5234 C9627.29003,9788.71699 9630.84971,9789.31007 9639.78676,9787.77409 C9647.27115,9798.01639 9654.72322,9806.56325 9660.22916,9814.1403 C9649.52857,9810.91055 9661.52036,9821.87983 9661.54799,9822.05005 C9655.48352,9823.09276 9653.90339,9839.28612 9648.35932,9834.57395 C9643.80331,9830.69756 9640.83102,9844.57907 9641.76506,9847.09799 C9644.60256,9846.61025 9639.84186,9851.19665 9649.01881,9853.03027 C9657.87229,9854.79238 9662.57733,9863.11822 9672.09886,9863.57684 C9671.02739,9856.99087 9674.98387,9860.61049 9674.73665,9855.00774 C9672.89549,9855.98819 9672.42273,9855.73487 9672.75834,9853.68947 C9676.62145,9852.32565 9686.35209,9849.58861 9685.94701,9847.09799 C9689.22825,9843.97785 9691.30365,9840.67728 9684.62804,9841.82478 C9684.64904,9841.70619 9683.69469,9833.01381 9683.30922,9833.91488 C9698.38103,9831.32404 9693.99351,9806.6055 9683.9687,9803.59373 C9682.75719,9803.22955 9686.28814,9800.23628 9685.94701,9799.63892 C9689.43846,9799.03853 9678.83731,9782.06822 9678.69326,9781.18261 C9687.36334,9783.78739 9683.60989,9770.17674 9683.9687,9764.04456 C9681.15261,9763.53473 9673.93132,9761.072 9674.73665,9766.02203 C9672.47494,9766.41092 9652.37947,9753.88868 9652.31594,9753.49813 L9652.31594,9753.49813 Z M9874.54434,9924.21887 C9876.98435,9939.21668 9876.28261,9925.84141 9877.84161,9935.4245 C9866.41593,9932.82882 9829.36261,9917.22303 9825.08696,9930.81049 C9815.07554,9932.53118 9815.94634,9935.00772 9811.23895,9943.33439 C9802.64442,9942.03269 9807.10956,9942.2145 9801.34742,9948.6076 C9795.20892,9955.41914 9802.33464,9958.24647 9803.32573,9966.40472 C9814.2919,9964.23342 9810.78816,9956.33167 9823.10879,9954.54002 C9834.04499,9952.9462 9836.36071,9956.9195 9840.91341,9965.74565 C9854.26725,9968.70979 9863.2902,9966.34177 9865.31229,9953.88082 C9878.10664,9951.68218 9879.32202,9944.35971 9893.00844,9942.67519 C9885.63426,9928.68074 9893.54887,9942.79943 9892.34909,9935.4245 C9884.01932,9936.85611 9887.55111,9931.1091 9887.07366,9928.17381 C9880.89331,9926.95453 9878.79098,9923.48912 9874.54434,9924.21887 L9874.54434,9924.21887 Z M10175.9047,10218.2016 C10174.552,10218.2989 10173.2408,10218.4437 10171.9481,10218.8606 C10169.2787,10220.997 10176.506,10220.5017 10174.5857,10222.8156 C10170.4711,10223.5227 10169.6632,10229.7721 10166.0132,10227.4297 C10164.9403,10225.5585 10163.5012,10224.666 10161.3972,10224.793 C10158.0903,10232.0597 10154.7416,10231.6933 10148.8679,10232.7029 C10146.6286,10239.8698 10136.3913,10243.2194 10132.3821,10243.9086 C10134.0034,10253.8745 10121.6308,10253.8093 10117.8746,10254.455 C10118.287,10256.988 10103.042,10277.391 10104.0266,10278.8436 C10103.6284,10277.501 10103.5217,10275.6224 10103.3671,10274.2296 C10096.1974,10275.4623 10096.3015,10296.1882 10097.4324,10299.2774 C10093.3306,10298.6588 10092.2098,10300.2471 10094.1351,10303.8915 C10090.1996,10304.5681 10089.5769,10305.252 10082.9247,10307.8465 C10086.7539,10316.0855 10090.3202,10322.4786 10098.7512,10321.0294 C10100.1059,10329.3561 10105.6864,10357.7284 10096.7729,10359.2603 C10095.6261,10366.3312 10107.7559,10374.6015 10115.237,10371.1252 C10119.8869,10368.966 10119.4724,10362.9312 10125.1284,10359.9196 C10127.7581,10351.5642 10130.3542,10359.6938 10130.4038,10349.3731 C10128.4582,10344.4243 10129.7978,10342.2579 10134.3604,10342.7815 C10134.7556,10342.4314 10140.2353,10328.8301 10140.9548,10327.6211 C10144.2996,10321.9616 10165.9056,10315.5376 10164.6944,10311.1422 C10164.3299,10312.6874 10148.3349,10304.5916 10160.0783,10302.5731 C10160.9481,10298.5001 10153.9574,10293.7588 10164.0349,10292.0267 C10160.7314,10287.4859 10164.7225,10287.0047 10167.332,10285.4352 C10169.202,10284.2394 10170.5847,10282.4228 10167.9915,10277.5253 C10180.5795,10275.3616 10168.6004,10265.8818 10170.6291,10259.069 C10182.7049,10246.4747 10170.0491,10254.9121 10177.883,10239.9536 C10172.5074,10240.8772 10177.8495,10236.9824 10179.2018,10235.9987 C10178.8665,10238.0441 10179.339,10238.2974 10181.1801,10237.3169 C10182.2875,10231.8275 10180.8972,10229.9751 10176.5641,10232.0437 C10176.2425,10223.5236 10179.7688,10225.5 10175.9047,10218.2016 L10175.9047,10218.2016 Z" id="gr" fill="#87B024"></path>
                    </g>
                </g>
            </g>
        </g>
    </g>
</svg>