<?xml version="1.0" encoding="UTF-8" standalone="no"?>
<svg width="124px" height="117px" viewBox="0 0 124 117" version="1.1" xmlns="http://www.w3.org/2000/svg" xmlns:xlink="http://www.w3.org/1999/xlink">
    <!-- Generator: Sketch 3.6 (26304) - http://www.bohemiancoding.com/sketch -->
    <title>ba</title>
    <desc>Created with Sketch.</desc>
    <defs></defs>
    <g id="Page-1" stroke="none" stroke-width="1" fill="none" fill-rule="evenodd">
        <g id="Group" transform="translate(-463.000000, -291.000000)" fill="#FFFFFF">
            <path d="M573.204583,372.184949 C569.902189,369.872457 569.902189,367.559989 566.269548,367.890328 L566.930041,366.899264 L566.269548,367.890328 C561.646215,373.176013 562.306685,380.774166 560.985768,382.425932 C558.343821,385.729488 557.353128,380.774166 556.362412,385.729488 C554.711226,395.30977 564.948609,395.640109 557.353128,402.907923 L559.004336,402.577584 L559.334537,407.863268 C555.371696,398.282963 548.766908,401.586519 540.510957,395.640109 C538.529525,393.988343 537.869055,391.015173 535.557377,390.354425 C533.906191,389.693746 531.924782,391.675852 529.943351,391.675852 C528.952635,391.675852 526.640956,391.345535 526.971203,390.354425 C527.631672,389.033044 530.603797,389.36336 530.934066,387.711617 C532.585229,383.416997 518.384982,377.800996 517.06402,375.488504 C515.743058,373.506375 516.733774,370.533182 515.412858,368.551053 C514.422142,367.229626 512.110463,367.559989 510.459278,366.899264 C503.524243,362.604644 499.231156,354.676151 493.28686,349.720829 C491.305428,348.399402 483.709947,340.801249 481.398292,339.810185 C480.407576,339.479845 479.086614,340.801249 478.095898,340.140547 C476.444735,338.488781 480.407576,334.854863 480.407576,334.194184 C480.07733,332.872757 478.426144,332.542371 477.435428,331.55133 C474.793503,327.587072 473.802788,322.301387 470.170193,318.997878 C468.849231,317.346088 466.207306,317.346088 464.556121,316.024661 C463.235158,315.033597 460.923526,295.873033 468.188761,296.203396 C471.491132,296.203396 477.105182,303.471209 480.07733,305.122976 L482.719231,304.79259 L480.07733,305.122976 C484.040193,304.79259 483.379724,298.515864 485.361156,295.873033 C488.99375,291.578413 490.644959,296.864098 495.268292,295.873033 C496.589254,295.542671 496.589254,292.89984 497.910217,291.908798 C497.910217,291.908798 499.891649,293.890904 505.505675,295.542671 C506.166168,295.873033 507.156884,296.203396 508.1476,295.873033 C508.808069,295.873033 509.138315,294.551606 510.129031,294.221267 C514.091895,293.890904 523.008316,298.846226 527.301426,298.185525 C528.292142,298.185525 529.282835,297.5248 529.613104,296.533735 C530.603797,295.873033 530.273551,293.560542 531.594513,293.560542 C533.575945,293.230225 534.896907,295.212331 536.878339,295.873033 C540.510957,296.864098 536.21787,294.221267 538.199301,293.560542 C540.180733,292.89984 542.492412,292.89984 544.473843,293.560542 C545.79476,293.890904 546.785476,295.873033 548.106438,295.873033 C549.097154,295.873033 548.106438,293.560542 549.097154,293.560542 C556.692658,293.890904 554.711226,302.149782 558.343821,302.810484 C564.618363,303.471209 567.920757,298.846226 573.86503,299.176589 C573.86503,309.417573 567.920757,316.355024 568.911473,322.63175 C570.232435,329.899563 572.213867,324.613879 576.837177,326.596008 C579.809325,327.917435 580.469818,332.212055 583.441966,333.863798 C584.432682,334.194184 587.735076,333.203119 586.74436,336.176289 C584.762928,342.783401 576.506954,335.515611 574.855746,337.828056 C574.855746,337.828056 589.716485,351.702958 585.753644,355.997578 C584.432682,356.988643 582.781473,353.685087 581.130288,354.345789 C579.148856,355.006514 578.818609,357.649345 577.49767,359.301134 C575.185992,359.961836 568.911473,358.640409 568.581227,360.292198 C567.590511,364.917135 575.846462,365.247498 573.204583,372.184949 L571.883621,372.184949 L573.204583,372.184949 L573.204583,372.184949 Z" id="ba"></path>
        </g>
    </g>
</svg>