<?xml version="1.0" encoding="UTF-8" standalone="no"?>
<svg width="1638px" height="780px" viewBox="0 0 1638 780" version="1.1" xmlns="http://www.w3.org/2000/svg" xmlns:xlink="http://www.w3.org/1999/xlink">
    <!-- Generator: Sketch 3.6 (26304) - http://www.bohemiancoding.com/sketch -->
    <title>Blank_political_map_Europe_in_2008_WF_(with_Kosovo)</title>
    <desc>Created with Sketch.</desc>
    <defs>
        <rect id="path-1" x="0" y="0" width="1638" height="779.835612"></rect>
    </defs>
    <g id="Page-1" stroke="none" stroke-width="1" fill="none" fill-rule="evenodd">
        <g id="Blank_political_map_Europe_in_2008_WF_(with_Kosovo)">
            <g id="Group">
                <mask id="mask-2" fill="white">
                    <use xlink:href="#path-1"></use>
                </mask>
                <use id="maska" xlink:href="#path-1"></use>
                <rect id="ocean" fill="#2096BD" mask="url(#mask-2)" x="-5613.10567" y="-5161.71958" width="13643.9264" height="8741.91742"></rect>
                <g id="outlines" mask="url(#mask-2)" stroke="#FFFFFF" stroke-width="3">
                    <g transform="translate(-3531.558843, -5168.050847)">
                        <path d="M4543.04101,5794.41363 C4538.30491,5792.83468 4533.56881,5791.25584 4528.83271,5791.25584 C4517.78189,5789.67689 4506.73106,5800.72931 4497.25886,5795.99257 C4489.36528,5792.83468 4495.68012,5778.62446 4490.94402,5772.30878 C4487.78666,5767.57204 4479.89308,5770.72994 4475.15698,5767.57204 C4473.57825,5765.9932 4481.47182,5762.8353 4481.47182,5761.25657 C4479.89308,5758.09857 4478.31446,5754.94089 4475.15698,5753.36183 C4471.99962,5751.7831 4467.26352,5758.09857 4465.68478,5756.51984 C4459.36995,5751.7831 4457.79132,5742.30963 4451.47648,5737.57289 C4440.42555,5732.83604 4424.63851,5737.57289 4418.32389,5728.0993 C4412.00905,5721.78373 4424.63851,5712.31025 4424.63851,5704.41562 C4423.05999,5698.10015 4413.58779,5696.52109 4413.58779,5690.20541 C4413.58779,5682.31099 4419.90252,5675.9953 4421.48126,5669.67962 C4423.05999,5664.94288 4430.95346,5660.20614 4427.79609,5657.04835 C4416.74516,5647.57488 4407.27295,5675.9953 4396.22202,5685.46867 C4374.12036,5705.99457 4322.02315,5693.36319 4326.75925,5683.88972 C4331.49535,5675.9953 4339.38893,5671.25857 4339.38893,5663.36404 C4339.38893,5658.6273 4326.75925,5658.6273 4328.33799,5652.31162 C4328.33799,5642.83814 4340.96755,5634.94351 4340.96755,5625.47003 C4337.81019,5598.62867 4273.08352,5614.41761 4269.92616,5601.78646 C4268.34742,5595.47077 4273.08352,5587.57624 4271.50479,5581.26056 C4266.76869,5555.99792 4232.03725,5581.26056 4222.56505,5559.15593 C4216.25043,5546.52445 4225.72263,5510.20961 4205.19949,5502.31497 C4195.72729,5497.57824 4187.83372,5519.68308 4175.20416,5519.68308 C4140.47283,5519.68308 4138.89409,5459.68445 4135.73673,5437.5796 L4137.31546,5436.00076 C4165.73195,5428.10613 4209.93559,5393.37013 4246.24566,5382.31781 L4249.40302,5388.63339 C4246.24566,5429.68507 4279.39836,5402.8436 4303.07875,5413.89591 C4306.23611,5415.47497 4299.9215,5421.79066 4303.07875,5424.94834 C4322.02315,5437.5796 4337.81019,5415.47497 4350.43975,5404.42255 C4359.91206,5412.31696 4369.38426,5418.63265 4372.54152,5417.0537 C4377.27762,5413.89591 4375.69888,5407.58023 4372.54152,5401.26476 C4377.27762,5402.8436 4380.43498,5404.42255 4385.17108,5402.8436 C4396.22202,5402.8436 4366.22668,5366.52865 4404.11559,5377.58096 C4407.27295,5377.58096 4400.95812,5385.4756 4402.53685,5387.05455 C4421.48126,5402.8436 4426.21736,5364.9497 4440.42555,5376.00213 C4445.16165,5380.73886 4427.79609,5390.21234 4432.53219,5393.37013 C4468.84215,5412.31696 4437.26829,5388.63339 4465.68478,5382.31781 C4470.42088,5380.73886 4478.31446,5426.5274 4489.36528,5428.10613 C4514.62441,5432.84286 4547.77711,5431.26402 4568.30014,5458.1055 C4569.87899,5461.2634 4561.98552,5464.42118 4560.40679,5467.57897 C4557.24942,5477.05234 4549.35585,5484.94708 4547.77711,5494.42045 C4547.77711,5497.57824 4555.67069,5495.99929 4554.09195,5499.15718 C4552.51321,5503.89392 4544.61975,5505.47287 4543.04101,5511.78845 C4531.99019,5551.26118 4558.82805,5540.20898 4584.08718,5541.78782 L4585.66592,5541.78782 C4591.98064,5552.84013 4601.45295,5570.20813 4603.03158,5570.20813 C4606.18905,5573.36603 4615.66125,5567.05035 4615.66125,5571.78708 C4617.23988,5578.10277 4604.61032,5584.41846 4606.18905,5590.73403 C4609.34642,5600.20751 4623.55472,5598.62867 4628.29082,5606.52319 C4645.65659,5634.94351 4603.03158,5639.68024 4591.98064,5669.67962 C4574.61498,5639.68024 4543.04101,5698.10015 4536.72629,5715.46804 C4531.99019,5729.67825 4579.35108,5791.25584 4544.61975,5788.09794 L4543.04101,5794.41363 L4543.04101,5794.41363 Z" id="be" fill="#FFFFFF"></path>
                        <path d="M5629.18593,4926.01241 C5632.3434,4951.27494 5657.60242,5000.22126 5660.76,5016.01031 C5665.4961,5053.90421 5614.97762,5079.16674 5626.02856,5109.16611 C5632.3434,5128.11306 5692.33385,5136.00747 5692.33385,5159.69127 C5692.33385,5183.37496 5673.38945,5191.26948 5687.59775,5208.63759 C5692.33385,5216.53201 5703.38479,5219.68979 5706.54227,5229.16338 C5711.27837,5237.05791 5704.96353,5248.11033 5706.54227,5256.00485 C5708.12089,5260.74159 5714.43573,5259.16264 5716.01447,5262.32054 C5723.90793,5273.37296 5704.96353,5300.21433 5700.22743,5309.6878 C5690.75523,5323.89802 5714.43573,5331.79265 5719.17183,5346.00286 C5722.32908,5353.89728 5711.27837,5363.37075 5716.01447,5369.68644 C5722.32908,5379.15991 5736.53738,5376.00213 5742.85222,5382.31781 C5764.95409,5402.8436 5755.48189,5518.10413 5736.53738,5521.26192 C5716.01447,5525.99866 5682.86165,5439.15855 5665.4961,5488.10476 C5662.33874,5495.99929 5690.75523,5502.31497 5684.44039,5507.05171 C5665.4961,5522.84087 5638.65813,5524.41982 5619.71373,5535.47213 C5616.55636,5537.05108 5619.71373,5544.94572 5616.55636,5546.52445 C5603.92669,5552.84013 5586.56113,5543.36677 5577.08893,5551.26118 C5569.19536,5557.57687 5572.35283,5570.20813 5564.45926,5576.52382 C5561.3019,5579.68172 5558.14453,5568.62929 5553.40843,5570.20813 C5539.20002,5573.36603 5537.6214,5592.31298 5528.1493,5598.62867 C5523.4132,5603.36541 5513.941,5595.47077 5509.2049,5600.20751 C5504.4688,5603.36541 5509.2049,5612.83888 5504.4688,5617.57562 C5498.15397,5625.47003 5480.78819,5611.25993 5476.05209,5611.25993 C5436.58466,5617.57562 5430.26994,5647.57488 5417.64026,5672.83752 C5414.4829,5679.15298 5414.4829,5657.04835 5408.16806,5652.31162 C5403.43196,5645.99593 5393.95976,5644.41698 5386.06641,5642.83814 C5371.858,5639.68024 5401.85323,5690.20541 5433.4273,5710.7313 C5436.58466,5712.31025 5447.6356,5713.88909 5449.21434,5723.36257 C5453.95044,5745.46741 5433.4273,5737.57289 5430.26994,5754.94089 C5428.6912,5759.67752 5463.42253,5818.0972 5468.15863,5822.83394 C5494.99649,5849.67552 5501.31133,5830.72868 5518.6771,5848.09657 C5529.72782,5859.149 5531.30656,5876.517 5542.3575,5885.99036 C5567.61673,5903.35847 5635.50076,5927.04216 5633.92203,5968.09385 C5632.3434,6010.72448 5622.8712,6001.25101 5589.71839,5993.35648 C5586.56113,5993.35648 5583.40377,5994.93532 5581.82503,5998.09322 C5578.66756,6013.88238 5588.13987,6031.25027 5572.35283,6043.88153 C5558.14453,6054.93396 5491.83913,6070.72312 5490.26039,6095.98575 C5490.26039,6095.98575 5528.1493,6148.08975 5528.1493,6149.6687 C5529.72782,6151.24765 5507.62617,6170.19449 5515.51963,6176.51029 C5532.88541,6192.29923 5550.25096,6168.61554 5536.04266,6220.71976 C5536.04266,6223.87755 5532.88541,6228.61429 5529.72782,6228.61429 C5479.20957,6214.40407 5518.6771,6189.14144 5494.99649,6187.56249 C5482.36693,6187.56249 5471.31599,6198.61491 5458.68654,6197.03596 C5452.3717,6195.45713 5453.95044,6184.4047 5449.21434,6182.82575 C5439.74214,6179.66796 5430.26994,6187.56249 5422.37636,6184.4047 C5419.219,6182.82575 5425.53384,6173.35228 5422.37636,6173.35228 C5403.43196,6174.93123 5420.79763,6200.19386 5416.06153,6201.7727 C5393.95976,6208.08839 5357.6497,6198.61491 5337.12656,6206.50944 C5330.81183,6209.66734 5333.9692,6220.71976 5327.65436,6223.87755 C5321.33974,6228.61429 5313.44617,6220.71976 5307.13144,6225.4565 C5302.39523,6227.03523 5308.71007,6234.92997 5305.55271,6238.08765 C5303.97397,6239.66671 5250.29824,6253.87681 5243.98329,6250.71902 C5240.82604,6247.56113 5243.98329,6239.66671 5240.82604,6236.5087 C5239.2473,6233.35091 5231.35384,6233.35091 5229.7751,6230.19324 C5228.19648,6227.03523 5237.66868,6228.61429 5236.08994,6225.4565 C5229.7751,6204.9306 5185.57146,6230.19324 5172.94201,6215.98302 C5172.94201,6215.98302 5176.09937,6214.40407 5176.09937,6212.82513 C5166.62717,6206.50944 5176.09937,6233.35091 5172.94201,6244.40334 C5172.94201,6250.71902 5142.94667,6287.03397 5131.89573,6275.98155 C5125.5809,6269.66597 5142.94667,6260.1925 5138.21057,6253.87681 C5136.63184,6252.29786 5131.89573,6258.61355 5128.73837,6258.61355 C5125.5809,6258.61355 5120.8448,6257.0346 5119.26628,6253.87681 C5116.1087,6249.14007 5127.15963,6242.82439 5119.26628,6236.5087 C5112.95144,6231.77196 5109.79408,6223.87755 5103.47924,6220.71976 C5098.74314,6217.56186 5092.42831,6225.4565 5086.11347,6223.87755 C5082.95611,6220.71976 5086.11347,6212.82513 5082.95611,6209.66734 C5075.06264,6203.35165 5076.64127,6231.77196 5051.38203,6223.87755 C5034.01648,6217.56186 5022.96554,6200.19386 5005.59988,6195.45713 C5004.02114,6195.45713 4951.92415,6198.61491 4951.92415,6198.61491 C4945.60931,6195.45713 4945.60931,6184.4047 4939.29447,6181.24691 C4937.71574,6178.08902 4942.45184,6189.14144 4939.29447,6190.72039 C4936.13711,6192.29923 4929.82227,6190.72039 4928.24354,6187.56249 C4926.66491,6182.82575 4934.55837,6176.51029 4931.40101,6173.35228 C4907.7204,6149.6687 4880.88264,6192.29923 4885.61874,6193.87818 C4895.09095,6195.45713 4904.56315,6192.29923 4914.03524,6193.87818 C4920.35007,6195.45713 4902.9843,6197.03596 4898.24831,6200.19386 C4895.09095,6201.7727 4899.82705,6209.66734 4898.24831,6211.24629 C4858.78077,6231.77196 4887.19748,6201.7727 4855.62341,6203.35165 C4850.88731,6203.35165 4778.26729,6220.71976 4773.53119,6211.24629 C4771.95245,6208.08839 4783.00328,6206.50944 4781.42454,6204.9306 C4767.21635,6193.87818 4760.90151,6241.24544 4760.90151,6185.98365 C4759.32289,6163.8788 4775.1097,6143.35302 4776.68844,6121.24828 C4776.68844,6118.09038 4770.3736,6118.09038 4770.3736,6113.35364 C4768.79509,6105.45912 4771.95245,6097.5647 4775.1097,6089.67007 L4797.21158,6053.35512 C4798.79031,6043.88153 4800.36894,6009.14553 4805.10504,5998.09322 C4817.73472,5972.83058 4849.30857,5953.88374 4866.67434,5923.88437 C4872.98918,5912.83195 4778.26729,5901.77952 4771.95245,5897.04279 C4767.21635,5892.30605 4770.3736,5882.83268 4765.63761,5878.09595 C4757.74415,5871.78026 4707.22567,5892.30605 4704.06842,5887.56942 C4702.48968,5882.83268 4708.80452,5876.517 4705.64694,5873.35921 C4658.28605,5830.72868 4689.86012,5895.46406 4670.91561,5874.93816 C4655.12868,5859.149 4647.23511,5822.83394 4634.60565,5814.93952 C4629.86955,5810.20279 4620.39735,5814.93952 4617.23988,5810.20279 C4599.87422,5778.62446 4663.02215,5765.9932 4640.92049,5739.15173 C4637.76291,5734.41499 4599.87422,5731.2572 4591.98064,5698.10015 C4577.77234,5639.68024 4650.39258,5642.83814 4628.29082,5606.52319 C4623.55472,5598.62867 4609.34642,5600.20751 4606.18905,5590.73403 C4604.61032,5584.41846 4617.23988,5578.10277 4615.66125,5571.78708 C4615.66125,5567.05035 4606.18905,5573.36603 4603.03158,5570.20813 C4601.45295,5568.62929 4579.35108,5535.47213 4580.92982,5530.7354 C4582.50844,5524.41982 4593.55938,5524.41982 4595.13812,5518.10413 C4599.87422,5491.26255 4554.09195,5481.78907 4568.30014,5478.6314 C4573.03624,5477.05234 4576.19383,5483.36802 4579.35108,5483.36802 L4609.34642,5456.52655 C4610.92515,5448.63202 4590.40202,5458.1055 4596.71685,5445.47424 C4601.45295,5434.42181 4612.50378,5426.5274 4617.23988,5415.47497 C4631.44807,5380.73886 4596.71685,5355.47623 4587.24454,5338.10812 C4585.66592,5334.95044 4588.82328,5330.2137 4590.40202,5327.05591 C4590.40202,5323.89802 4587.24454,5319.16128 4590.40202,5317.58244 C4598.29548,5312.8457 4607.76768,5317.58244 4617.23988,5314.42454 C4620.39735,5312.8457 4614.08252,5303.37223 4617.23988,5304.95107 C4626.71197,5308.10896 4633.02692,5319.16128 4644.07774,5319.16128 C4655.12868,5320.74023 4697.75358,5306.53002 4702.48968,5295.47759 C4707.22567,5284.42517 4672.49435,5282.84644 4686.70265,5273.37296 C4711.96177,5256.00485 4741.95711,5249.68917 4735.64227,5210.21632 C4734.06365,5188.11169 4675.65182,5197.58517 4689.86012,5173.90148 C4691.43875,5169.16474 4699.33232,5173.90148 4699.33232,5170.74358 C4700.91084,5166.00685 4693.01748,5161.27011 4694.59622,5156.53337 C4694.59622,5153.37558 4699.33232,5153.37558 4702.48968,5153.37558 C4713.54051,5153.37558 4723.01271,5158.11232 4734.06365,5158.11232 C4746.69321,5158.11232 4735.64227,5132.84979 4740.37838,5120.21853 C4743.53585,5109.16611 4770.3736,5058.64095 4767.21635,5031.79947 C4771.95245,5030.22052 4776.68844,5027.06274 4781.42454,5020.74705 C4787.73938,5014.43136 4773.53119,5017.58915 4759.32289,5017.58915 L4759.32289,5017.58915 C4756.16541,5014.43136 4751.42931,5016.01031 4748.27195,5016.01031 C4745.11448,5016.01031 4743.53585,5014.43136 4741.95711,5012.85241 C4729.32755,4997.06347 4764.05899,4948.11726 4776.68844,4941.80157 C4784.5819,4937.06484 4794.05421,4946.5382 4801.94768,4946.5382 C4920.35007,4941.80157 4678.80918,4932.3281 4858.78077,4937.06484 C4860.35951,4937.06484 4865.09561,4938.64357 4866.67434,4940.22252 C4876.14654,4957.59063 4882.46138,5030.22052 4921.92892,5014.43136 C4934.55837,5009.69463 4909.29914,4900.74978 4945.60931,4900.74978 C4948.76667,4900.74978 4948.76667,4910.22325 4953.50277,4911.8022 C4958.23887,4914.95999 4966.13245,4914.95999 4972.44706,4914.95999 C4988.2341,4918.11789 5005.59988,4902.32873 5019.80818,4908.64441 C5030.85911,4913.38115 5030.85911,4929.17009 5037.17384,4938.64357 C5045.06741,4951.27494 5087.69221,5031.79947 5087.69221,4978.11641 C5087.69221,4967.0641 5064.01171,4970.22189 5054.53962,4960.74841 C5038.75258,4946.5382 5041.90983,4910.22325 5011.9146,4905.48652 C5007.1785,4905.48652 4970.86855,4913.38115 4974.02591,4891.2763 C4975.60465,4877.06609 4997.7063,4832.85662 4983.498,4815.48851 C4978.7619,4810.75177 4944.03057,4828.11988 4939.29447,4810.75177 C4937.71574,4807.59398 4948.76667,4810.75177 4950.34541,4807.59398 C4953.50277,4804.4363 4939.29447,4798.12062 4942.45184,4798.12062 C4958.23887,4793.38388 4985.07685,4809.17304 4989.81284,4777.59472 C4989.81284,4774.43693 4953.50277,4734.96419 4950.34541,4728.64851 C4945.60931,4717.59608 4944.03057,4704.96482 4944.03057,4693.9124 C4955.08151,4695.49135 4974.02591,4693.9124 4978.7619,4693.9124 C4999.28504,4697.07018 5019.80818,4708.12261 5040.33131,4711.28051 C5038.75258,4716.01724 5038.75258,4717.59608 5041.90983,4716.01724 C5048.22478,4711.28051 5051.38203,4703.38587 5057.69687,4701.80692 C5060.85423,4701.80692 5056.11813,4709.70156 5057.69687,4712.85935 C5062.43297,4716.01724 5068.74781,4714.43829 5073.48391,4716.01724 C5084.53484,4717.59608 5095.58567,4717.59608 5103.47924,4722.33282 C5108.21534,4725.49072 5109.79408,4731.80618 5109.79408,4736.54292 C5109.79408,4738.12187 5106.63661,4736.54292 5106.63661,4736.54292 C5103.47924,4738.12187 5097.16441,4741.27966 5100.32177,4742.85861 C5101.90051,4746.0164 5109.79408,4739.70082 5111.3726,4742.85861 C5116.1087,4750.75324 5114.53018,4760.22672 5111.3726,4768.12124 C5108.21534,4776.01577 5086.11347,4780.75251 5092.42831,4788.64714 C5100.32177,4799.69957 5130.317,4771.27903 5131.89573,4785.48924 C5133.47447,4794.96283 5116.1087,4812.33072 5125.5809,4815.48851 C5136.63184,4820.22524 5136.63184,4793.38388 5147.68277,4791.80493 C5157.15497,4790.22609 5193.46515,4821.80419 5201.3585,4818.64641 C5202.93724,4818.64641 5234.5112,4782.33146 5245.56214,4801.27829 C5267.6639,4842.33009 5157.15497,4884.96062 5217.14554,4891.2763 C5229.7751,4892.85525 5239.2473,4877.06609 5251.87698,4877.06609 C5267.6639,4878.64515 5250.29824,4924.43346 5285.02957,4900.74978 C5292.92303,4896.01304 5297.65913,4856.5403 5311.86754,4848.64578 C5332.39046,4837.59335 5354.49233,4832.85662 5363.96453,4854.96135 C5362.3858,4850.22462 5360.80717,4842.33009 5362.3858,4840.75114 C5371.858,4829.69883 5384.48767,4824.96198 5392.38103,4815.48851 C5401.85323,4804.4363 5403.43196,4787.06819 5412.90416,4776.01577 C5416.06153,4772.85798 5436.58466,4780.75251 5455.52895,4787.06819 C5463.42253,4785.48924 5471.31599,4783.91041 5474.47347,4783.91041 C5485.52429,4783.91041 5479.20957,4806.01503 5485.52429,4815.48851 C5490.26039,4821.80419 5501.31133,4818.64641 5506.04743,4824.96198 C5515.51963,4832.85662 5520.25562,4854.96135 5534.46392,4853.38252 C5545.51486,4853.38252 5558.14453,4845.48788 5570.7741,4848.64578 C5575.5102,4850.22462 5564.45926,4858.11925 5564.45926,4862.85599 C5566.038,4875.48714 5570.7741,4888.11852 5575.5102,4900.74978 C5580.2463,4913.38115 5596.03322,4918.11789 5608.66279,4922.85463 C5618.13499,4926.01241 5624.44983,4927.59136 5629.18593,4926.01241 L5629.18593,4926.01241 Z M5485.52429,4804.4363 C5488.68177,4790.22609 5482.36693,4772.85798 5487.10303,4758.64777 C5491.83913,4744.43756 5539.20002,4785.48924 5529.72782,4771.27903 C5523.4132,4761.80556 5502.89007,4766.54229 5498.15397,4755.48998 C5496.57523,4746.0164 5510.78353,4738.12187 5517.09837,4730.22746 C5523.4132,4725.49072 5512.36227,4749.17429 5518.6771,4750.75324 C5529.72782,4753.91103 5540.77876,4749.17429 5550.25096,4752.33208 C5559.72316,4755.48998 5537.6214,4768.12124 5540.77876,4777.59472 C5543.93623,4788.64714 5558.14453,4790.22609 5562.88063,4801.27829 C5566.038,4804.4363 5545.51486,4820.22524 5520.25562,4826.54093 C5507.62617,4831.27767 5496.57523,4812.33072 5485.52429,4804.4363 L5485.52429,4804.4363 Z" id="de" fill="#87B024"></path>
                        <path d="M3347.29341,4808.26216 C3375.7099,4830.36679 3399.39041,4842.99816 3369.39507,4857.20837 L3347.29341,4808.26216 Z M3352.02951,4865.1029 C3347.29341,4868.26057 3342.55731,4869.83963 3337.82121,4869.83963 C3333.08511,4869.83963 3342.55731,4863.52384 3340.97858,4860.36616 C3331.50638,4827.209 3307.82587,4820.89331 3347.29341,4808.26216 L3352.02951,4865.1029 Z M3509.89934,3736.18124 C3519.37154,3740.91798 3539.89467,3750.39146 3541.47341,3761.44388 C3541.47341,3769.33841 3519.37154,3783.54851 3525.68637,3778.81177 C3535.15857,3772.4963 3538.31594,3753.54924 3549.36687,3755.12819 C3558.83908,3758.28598 3547.78814,3778.81177 3555.68171,3785.12746 C3561.99633,3789.86419 3565.15391,3772.4963 3571.46875,3770.91735 C3595.14914,3764.60167 3648.82487,3774.07514 3680.39883,3778.81177 C3693.02851,3780.39083 3710.39406,3769.33841 3718.28764,3778.81177 C3726.1811,3786.70652 3705.65796,3794.60093 3700.92197,3804.07441 C3697.76461,3813.54788 3700.92197,3823.02135 3697.76461,3832.49483 C3694.60724,3840.38946 3595.14914,3900.3881 3576.20485,3914.59831 C3544.63077,3938.28189 3590.41304,3911.4403 3606.19997,3924.07179 C3612.5148,3927.22946 3598.3065,3933.54515 3591.99167,3938.28189 C3587.25557,3943.01863 3584.0982,3950.91315 3576.20485,3952.4921 C3573.04727,3952.4921 3576.20485,3941.43968 3573.04727,3941.43968 C3566.73243,3939.86084 3561.99633,3946.17641 3557.26034,3947.75536 C3546.20951,3952.4921 3544.63077,3939.86084 3539.89467,3950.91315 C3527.265,3979.33368 3557.26034,3988.80716 3565.15391,3979.33368 C3566.73243,3976.17579 3558.83908,3971.43905 3561.99633,3971.43905 C3569.89001,3969.86021 3577.78337,3976.17579 3587.25557,3976.17579 C3604.62134,3974.59695 3626.7231,3955.64989 3648.82487,3960.38663 C3659.87581,3961.96557 3669.34801,3973.018 3680.39883,3976.17579 C3707.23681,3984.07042 3795.64386,3982.49147 3809.85217,4014.06968 C3813.00964,4023.54316 3814.58827,4033.01663 3811.4309,4042.49011 L3775.12073,4078.80495 C3770.38474,4085.12063 3767.22737,4093.01527 3765.64864,4100.90979 C3764.0699,4104.06758 3767.22737,4107.22548 3765.64864,4108.80432 C3753.01907,4132.48812 3686.71367,4225.6438 3666.19053,4227.22264 C3634.61668,4230.38054 3623.56574,4214.59138 3596.72777,4235.11728 C3591.99167,4238.27507 3606.19997,4239.85402 3610.93618,4238.27507 C3623.56574,4236.69612 3634.61668,4228.80159 3645.6674,4227.22264 C3667.76927,4225.6438 3650.40372,4241.43296 3651.98223,4246.1697 C3656.71833,4257.22191 3677.24147,4260.37991 3675.66273,4271.43212 C3670.92663,4306.16823 3637.77404,4276.16885 3628.30184,4277.7478 C3579.3621,4285.64244 3667.76927,4306.16823 3565.15391,4298.2737 C3563.57518,4298.2737 3563.57518,4315.6417 3565.15391,4315.6417 C3576.20485,4320.37855 3563.57518,4310.90496 3574.62611,4312.48391 C3587.25557,4315.6417 3614.09354,4336.16749 3628.30184,4326.69402 C3634.61668,4321.95739 3636.19519,4310.90496 3642.51003,4307.74718 C3645.6674,4306.16823 3705.65796,4350.3777 3711.9728,4356.69339 C3723.02374,4364.58802 3727.75984,4404.06087 3738.81077,4416.69202 C3745.1255,4423.00771 3754.5977,4424.58655 3759.3338,4430.90224 C3760.91254,4434.06002 3757.75517,4437.21792 3757.75517,4441.95466 C3756.17644,4451.42813 3756.17644,4462.48056 3756.17644,4471.95403 C3757.75517,4500.37435 3768.80611,4617.21372 3778.27831,4640.89752 C3779.85683,4644.0553 3783.01441,4634.58183 3786.17166,4636.16078 C3792.4865,4637.73962 3797.2226,4645.63425 3803.53733,4648.79204 C3831.95404,4666.15993 3825.6392,4651.94983 3852.47718,4685.10699 C3861.94927,4696.1593 3857.21328,4715.10636 3865.10663,4727.73763 C3873.00009,4745.10552 3895.10197,4729.31657 3895.10197,4760.89468 C3895.10197,4770.36815 3877.73619,4770.36815 3876.15757,4779.84163 C3869.84273,4805.10415 3899.83807,4841.41921 3906.15291,4863.52384 C3914.04626,4893.52321 3888.78713,4849.31374 3887.20851,4882.47101 C3887.20851,4890.36542 3944.0416,4950.36406 3915.62511,4980.36343 C3893.52323,5002.46817 3884.05103,4977.20553 3868.26399,5016.67827 C3866.68537,5021.41501 3879.31493,5015.09954 3882.4723,5018.25722 C3888.78713,5022.99396 3890.36587,5032.46743 3895.10197,5037.20417 C3899.83807,5041.94091 3907.73142,5049.83554 3912.46752,5046.67764 C3944.0416,5026.15174 3920.36121,5005.62607 3953.5138,5010.3628 C4007.18953,5018.25722 4094.01807,5041.94091 4078.23103,5127.20218 C4073.49493,5154.04376 4037.18487,5225.0946 4010.347,5234.56807 C4000.87469,5237.72597 3986.66639,5218.77891 3983.50903,5226.67355 C3969.30084,5255.09397 4043.4997,5247.19945 3980.35177,5264.56745 C3975.61567,5266.1464 3972.4582,5262.9885 3967.7221,5259.83071 C3966.14347,5259.83071 3966.14347,5256.67292 3964.56474,5256.67292 C3951.93506,5258.25176 3932.99066,5255.09397 3926.67604,5264.56745 C3921.93972,5274.04092 3950.35643,5261.40966 3956.67116,5269.30418 C3962.986,5275.61987 3958.2499,5288.25102 3953.5138,5296.14566 C3940.88423,5316.67156 3906.15291,5302.46124 3888.78713,5308.77692 C3884.05103,5310.35587 3871.42147,5315.09261 3876.15757,5318.2504 C3877.73619,5318.2504 3923.51846,5304.04018 3921.93972,5324.56608 C3920.36121,5332.46061 3902.99543,5322.98713 3896.68071,5327.72387 C3891.94461,5332.46061 3909.31027,5340.35524 3915.62511,5337.19735 C3918.78236,5334.03956 3918.78236,5324.56608 3923.51846,5324.56608 C3929.8333,5322.98713 3936.14813,5329.30282 3942.46286,5334.03956 C3964.56474,5354.56546 3896.68071,5343.51303 3942.46286,5351.40767 C3964.56474,5354.56546 3988.24513,5337.19735 4011.92563,5346.67093 C4018.24046,5348.24966 4002.45343,5356.14441 4000.87469,5362.45987 C3997.71733,5373.51229 3999.29606,5384.56472 3997.71733,5397.19598 C3992.98123,5412.98514 3964.56474,5406.66946 3948.7777,5414.56409 C3942.46286,5419.30083 3947.19896,5435.08988 3939.3055,5438.24767 C3910.88901,5447.72114 3925.0972,5422.45851 3907.73142,5433.51093 C3890.36587,5444.56335 3874.57883,5439.82662 3857.21328,5447.72114 C3849.31959,5450.87893 3846.16234,5463.5103 3836.69014,5463.5103 C3822.48184,5463.5103 3797.2226,5436.66872 3783.01441,5433.51093 C3771.96347,5431.93198 3693.02851,5450.87893 3688.29241,5433.51093 C3686.71367,5425.61652 3708.81554,5431.93198 3693.02851,5420.87956 C3683.55631,5414.56409 3688.29241,5428.77419 3685.13493,5433.51093 C3681.97757,5435.08988 3677.24147,5431.93198 3675.66273,5428.77419 C3675.66273,5424.03757 3686.71367,5419.30083 3681.97757,5419.30083 C3677.24147,5417.72188 3672.50537,5428.77419 3667.76927,5427.19524 C3663.03317,5425.61652 3672.50537,5417.72188 3669.34801,5412.98514 C3658.29707,5398.77493 3664.61191,5427.19524 3659.87581,5425.61652 C3640.9313,5419.30083 3626.7231,5387.72251 3621.987,5392.45924 C3615.67228,5400.35388 3634.61668,5411.40608 3633.03794,5420.87956 C3631.4592,5436.66872 3543.05204,5416.14282 3539.89467,5420.87956 C3535.15857,5428.77419 3550.94561,5439.82662 3549.36687,5449.30009 C3547.78814,5454.03683 3539.89467,5447.72114 3535.15857,5447.72114 L3533.57984,5447.72114 C3525.68637,5442.98441 3500.42725,5425.61652 3492.53378,5428.77419 C3483.06147,5433.51093 3486.21895,5447.72114 3481.48285,5455.61567 C3478.32537,5458.77357 3484.64021,5446.14219 3483.06147,5441.40546 C3479.90411,5433.51093 3472.01064,5427.19524 3464.11707,5420.87956 C3443.59393,5400.35388 3383.60348,5386.14367 3355.18688,5397.19598 C3355.18688,5397.19598 3337.82121,5472.98378 3314.14071,5484.0362 C3295.19642,5491.93062 3262.04361,5446.14219 3249.41405,5439.82662 C3241.52047,5435.08988 3265.20108,5454.03683 3244.67795,5449.30009 C3225.73365,5444.56335 3198.89568,5425.61652 3176.79403,5431.93198 C3168.90034,5433.51093 3172.05771,5447.72114 3165.74309,5450.87893 C3156.27089,5454.03683 3145.21995,5447.72114 3134.16901,5447.72114 C3132.59028,5447.72114 3131.01165,5447.72114 3129.43291,5449.30009 C3126.27555,5457.19462 3107.33126,5496.66735 3101.01631,5496.66735 C3091.54422,5495.08841 3096.28032,5474.56273 3089.96549,5466.66809 C3080.49329,5450.87893 3042.60448,5461.93135 3042.60448,5444.56335 C3042.60448,5433.51093 3105.75241,5430.35325 3107.33126,5430.35325 C3113.64588,5428.77419 3119.96071,5422.45851 3124.69681,5416.14282 C3127.85418,5414.56409 3124.69681,5408.24841 3127.85418,5406.66946 C3131.01165,5403.51167 3137.32649,5408.24841 3140.48385,5406.66946 C3151.53479,5397.19598 3154.69215,5382.98577 3165.74309,5375.09124 C3170.47919,5371.93335 3178.37254,5378.24903 3183.10864,5376.67008 C3187.84474,5373.51229 3186.26612,5367.19661 3191.00222,5364.03882 C3198.89568,5356.14441 3213.10398,5354.56546 3220.99755,5345.09198 C3225.73365,5338.77629 3224.15492,5302.46124 3235.20586,5297.7245 C3241.52047,5296.14566 3247.83531,5308.77692 3254.15015,5310.35587 C3290.4601,5313.51366 3247.83531,5258.25176 3336.24248,5274.04092 C3366.2377,5278.77755 3405.70524,5319.82935 3435.70058,5296.14566 C3445.17267,5288.25102 3442.01542,5272.46208 3446.75141,5262.9885 C3448.33003,5259.83071 3524.10764,5212.46345 3533.57984,5201.41102 C3543.05204,5190.3586 3492.53378,5223.51565 3486.21895,5228.25261 C3478.32537,5231.41029 3470.43191,5232.98924 3462.53844,5234.56807 C3457.80234,5234.56807 3454.64487,5226.67355 3449.90877,5228.25261 C3410.44134,5239.30481 3419.91354,5272.46208 3372.55265,5245.6205 C3356.76561,5234.56807 3359.92287,5207.72671 3345.71468,5193.5165 C3333.08511,5180.88513 3309.40472,5209.30544 3293.61768,5201.41102 C3290.4601,5199.83207 3287.30285,5150.88575 3285.72411,5146.14902 C3284.14548,5142.99134 3282.56675,5152.4647 3279.40938,5152.4647 C3268.35845,5154.04376 3282.56675,5141.41239 3244.67795,5152.4647 C3239.94196,5152.4647 3241.52047,5161.93818 3238.36311,5165.09596 C3228.89102,5168.25386 3216.26145,5171.41165 3206.78914,5168.25386 C3198.89568,5166.67491 3184.68738,5157.20144 3187.84474,5150.88575 C3192.58084,5141.41239 3208.36788,5147.72807 3217.84008,5146.14902 C3222.57618,5144.57007 3178.37254,5142.99134 3173.63644,5136.67565 C3167.32161,5127.20218 3170.47919,5114.57091 3170.47919,5103.51849 C3170.47919,5071.94028 3228.89102,5089.30839 3236.78437,5086.15038 C3246.25657,5082.99259 3247.83531,5067.20354 3258.88625,5065.62459 C3266.77971,5065.62459 3274.67328,5073.51923 3282.56675,5071.94028 C3307.82587,5065.62459 3358.34435,5022.99396 3367.81655,5000.88933 C3370.9738,4994.57364 3364.65897,4932.99606 3355.18688,4923.52258 C3328.34901,4890.36542 3298.35378,4985.10017 3287.30285,4920.36479 C3284.14548,4909.31237 3317.29807,4907.73342 3337.82121,4891.94437 C3340.97858,4887.20763 3339.39995,4879.313 3342.55731,4874.57626 C3345.71468,4869.83963 3348.87215,4866.68185 3352.02951,4865.1029 C3358.34435,4860.36616 3364.65897,4858.78721 3369.39507,4857.20837 C3380.446,4857.20837 3389.9182,4861.94511 3412.02008,4854.05047 C3415.17744,4852.47163 3405.70524,4841.41921 3410.44134,4842.99816 C3421.49228,4844.577 3427.80712,4857.20837 3438.85783,4858.78721 C3460.95971,4861.94511 3465.69581,4841.41921 3481.48285,4855.62942 C3489.37631,4863.52384 3492.53378,4887.20763 3502.00598,4880.89195 C3511.47818,4874.57626 3494.11241,4857.20837 3497.26988,4846.15595 C3498.8484,4839.84026 3527.265,4842.99816 3547.78814,4868.26057 C3552.52424,4872.99753 3535.15857,4868.26057 3528.84374,4865.1029 C3514.63544,4857.20837 3508.3206,4833.52468 3511.47818,4816.15657 C3513.0567,4806.68321 3522.5289,4798.78868 3530.42247,4792.473 C3536.73731,4787.73626 3552.52424,4792.473 3550.94561,4784.57836 C3547.78814,4775.10489 3528.84374,4775.10489 3525.68637,4765.63141 C3505.16335,4721.42194 3558.83908,4756.15794 3558.83908,4737.2111 C3560.41781,4727.73763 3547.78814,4732.47436 3552.52424,4721.42194 C3557.26034,4710.36952 3571.46875,4702.47499 3569.89001,4689.84373 C3568.31128,4666.15993 3549.36687,4708.79068 3527.265,4710.36952 C3513.0567,4710.36952 3532.00121,4680.37036 3527.265,4667.73888 C3524.10764,4661.42319 3516.21417,4680.37036 3509.89934,4678.7913 C3490.95505,4672.47562 3506.74208,4655.10773 3505.16335,4645.63425 L3486.21895,4606.16152 C3484.64021,4587.21446 3536.73731,4535.11035 3538.31594,4535.11035 C3541.47341,4536.68941 3539.89467,4544.58382 3543.05204,4543.00487 C3555.68171,4539.84708 3573.04727,4536.68941 3576.20485,4525.63698 C3579.3621,4516.16351 3557.26034,4525.63698 3547.78814,4524.05803 C3541.47341,4522.47919 3535.15857,4514.58456 3527.265,4516.16351 C3517.7928,4519.32129 3513.0567,4531.95267 3503.5845,4535.11035 C3495.69115,4538.26813 3486.21895,4531.95267 3478.32537,4533.5314 C3468.85317,4536.68941 3464.11707,4544.58382 3456.22361,4547.74161 C3453.06624,4549.32056 3448.33003,4549.32056 3446.75141,4546.16277 C3445.17267,4541.42614 3454.64487,4533.5314 3449.90877,4531.95267 C3445.17267,4530.37372 3446.75141,4541.42614 3443.59393,4544.58382 C3442.01542,4546.16277 3438.85783,4544.58382 3437.27932,4543.00487 C3429.38563,4533.5314 3429.38563,4509.84782 3412.02008,4506.69003 C3389.9182,4501.95329 3419.91354,4528.79466 3404.12651,4554.05729 C3397.81178,4563.53077 3389.9182,4538.26813 3383.60348,4528.79466 C3337.82121,4468.79602 3385.1821,4538.26813 3323.61291,4501.95329 C3307.82587,4492.47982 3345.71468,4500.37435 3344.13605,4492.47982 C3342.55731,4456.16487 3348.87215,4459.32255 3370.9738,4434.06002 C3412.02008,4388.27171 3342.55731,4441.95466 3393.07568,4396.16613 C3397.81178,4391.4295 3408.86261,4391.4295 3412.02008,4385.11381 C3418.33492,4374.0615 3388.33958,4337.74644 3386.76084,4334.58876 C3385.1821,4329.85202 3394.6543,4329.85202 3396.23304,4325.11529 C3400.96914,4314.06286 3396.23304,4299.85265 3400.96914,4287.22128 C3407.28398,4273.01107 3419.91354,4288.80023 3434.12173,4295.11591 C3486.21895,4318.7996 3407.28398,4280.9057 3407.28398,4277.7478 C3402.54788,4268.27433 3407.28398,4255.64318 3408.86261,4243.0118 C3408.86261,4235.11728 3415.17744,4225.6438 3410.44134,4219.32812 C3408.86261,4217.74917 3345.71468,4252.48528 3340.97858,4257.22191 C3328.34901,4268.27433 3348.87215,4290.37918 3345.71468,4307.74718 C3344.13605,4314.06286 3331.50638,4312.48391 3326.77028,4317.22065 C3323.61291,4320.37855 3320.45544,4325.11529 3320.45544,4329.85202 C3318.87681,4334.58876 3322.03418,4340.90423 3320.45544,4344.06213 C3315.71934,4356.69339 3303.08988,4363.00907 3298.35378,4375.64034 C3296.77494,4378.79824 3306.24714,4385.11381 3303.08988,4386.69276 C3292.03895,4393.00845 3277.83065,4397.74518 3265.20108,4393.00845 C3255.72888,4388.27171 3277.83065,4375.64034 3282.56675,4367.74581 C3292.03895,4355.11444 3288.88158,4334.58876 3298.35378,4321.95739 L3331.50638,4293.53696 C3328.34901,4285.64244 3310.98324,4296.69475 3307.82587,4288.80023 C3304.66862,4282.48454 3350.45078,4255.64318 3328.34901,4250.90644 C3318.87681,4247.74854 3314.14071,4271.43212 3306.24714,4266.69538 C3296.77494,4258.80096 3328.34901,4252.48528 3334.66385,4241.43296 C3340.97858,4228.80159 3336.24248,4200.38117 3340.97858,4189.32885 C3344.13605,4179.85538 3352.02951,4170.38191 3359.92287,4168.80296 C3367.81655,4167.22412 3382.02474,4184.59212 3382.02474,4176.69759 C3382.02474,4168.80296 3364.65897,4168.80296 3359.92287,4160.90843 C3348.87215,4138.80358 3413.59882,4127.75138 3415.17744,4127.75138 C3419.91354,4123.01464 3394.6543,4129.33011 3394.6543,4123.01464 C3394.6543,4113.54095 3410.44134,4111.96222 3413.59882,4102.48874 C3416.75618,4097.75201 3404.12651,4105.64653 3399.39041,4110.38327 C3388.33958,4118.27768 3389.9182,4121.43569 3380.446,4126.17243 C3359.92287,4137.22474 3340.97858,4154.59274 3326.77028,4148.27706 C3328.34901,4151.43496 3329.92764,4153.01379 3333.08511,4154.59274 C3334.66385,4157.75053 3340.97858,4160.90843 3337.82121,4164.06622 C3325.19154,4175.11864 3262.04361,4197.22327 3250.99267,4175.11864 C3249.41405,4173.53969 3250.99267,4168.80296 3252.57141,4168.80296 C3284.14548,4156.17169 3258.88625,4203.53896 3298.35378,4149.85601 C3323.61291,4116.69896 3224.15492,4134.06685 3295.19642,4110.38327 C3298.35378,4116.69896 3301.51104,4123.01464 3306.24714,4127.75138 C3307.82587,4130.90906 3310.98324,4134.06685 3314.14071,4135.64579 C3310.98324,4130.90906 3307.82587,4124.59337 3306.24714,4116.69896 C3304.66862,4111.96222 3317.29807,4116.69896 3322.03418,4116.69896 C3334.66385,4116.69896 3347.29341,4123.01464 3358.34435,4118.27768 C3372.55265,4111.96222 3273.09455,4113.54095 3285.72411,4094.59411 C3295.19642,4081.96285 3336.24248,4099.33085 3339.39995,4093.01527 C3345.71468,4077.22611 3299.93252,4058.27927 3344.13605,4047.22685 C3355.18688,4044.06906 3366.2377,4058.27927 3378.86749,4055.12126 C3421.49228,4045.6479 3367.81655,4017.22747 3367.81655,4017.22747 C3372.55265,4006.17505 3396.23304,4020.38526 3404.12651,4010.91179 C3412.02008,4001.43831 3405.70524,3985.64915 3405.70524,3973.018 C3405.70524,3963.54452 3407.28398,3954.07105 3404.12651,3947.75536 C3402.54788,3944.59757 3350.45078,3889.33568 3385.1821,3875.12546 C3393.07568,3870.38873 3394.6543,3900.3881 3404.12651,3897.2302 C3416.75618,3894.07241 3399.39041,3857.75735 3418.33492,3868.80978 C3443.59393,3883.01999 3445.17267,3884.59894 3445.17267,3883.01999 C3449.90877,3862.49409 3432.54322,3860.91536 3434.12173,3840.38946 C3434.12173,3832.49483 3454.64487,3849.86294 3457.80234,3841.96819 C3464.11707,3830.91599 3449.90877,3816.70578 3451.48751,3805.65335 C3451.48751,3800.91662 3456.22361,3813.54788 3460.95971,3813.54788 C3472.01064,3818.28462 3489.37631,3827.75809 3497.26988,3818.28462 C3503.5845,3810.39009 3481.48285,3802.49546 3478.32537,3793.02198 C3470.43191,3766.18062 3494.11241,3786.70652 3494.11241,3786.70652 C3497.26988,3783.54851 3489.37631,3777.23304 3490.95505,3774.07514 C3494.11241,3772.4963 3502.00598,3780.39083 3502.00598,3777.23304 C3502.00598,3772.4963 3490.95505,3769.33841 3492.53378,3764.60167 C3494.11241,3753.54924 3503.5845,3745.65472 3509.89934,3736.18124 L3509.89934,3736.18124 Z M3977.19419,3437.76691 C3977.19419,3442.50364 3980.35177,3445.66165 3978.77304,3448.81933 C3977.19419,3451.97734 3969.30084,3447.24038 3969.30084,3450.39828 C3967.7221,3458.2928 3983.50903,3442.50364 3991.40249,3444.08259 C3996.13859,3445.66165 3983.50903,3451.97734 3980.35177,3456.71396 C3980.35177,3458.2928 3986.66639,3463.02954 3985.08787,3464.60849 C3981.93029,3466.18744 3975.61567,3458.2928 3974.03694,3463.02954 C3974.03694,3466.18744 3983.50903,3466.18744 3983.50903,3470.92418 C3985.08787,3485.13439 3964.56474,3480.39765 3966.14347,3485.13439 C3967.7221,3505.66029 3969.30084,3521.44923 3937.72676,3554.6065 C3936.14813,3557.76429 3939.3055,3548.29081 3940.88423,3545.13302 C3950.35643,3524.60713 3967.7221,3489.87113 3959.82864,3485.13439 C3953.5138,3478.8187 3947.19896,3502.50239 3939.3055,3497.76565 C3928.25456,3493.02891 3923.51846,3478.8187 3920.36121,3467.76628 C3918.78236,3464.60849 3925.0972,3466.18744 3928.25456,3464.60849 C3940.88423,3463.02954 3953.5138,3466.18744 3964.56474,3461.4507 C3972.4582,3456.71396 3972.4582,3445.66165 3977.19419,3437.76691 L3977.19419,3437.76691 Z M3767.22737,3721.97103 C3746.70424,3763.02272 3651.98223,3674.60366 3718.28764,3669.86692 C3727.75984,3669.86692 3737.23204,3680.91935 3737.23204,3691.97177 C3738.81077,3698.28746 3718.28764,3696.70851 3721.445,3701.44524 C3726.1811,3710.91872 3740.3894,3710.91872 3749.8616,3714.0764 C3754.5977,3717.23441 3760.91254,3718.81313 3767.22737,3721.97103 L3767.22737,3721.97103 Z M3092.32291,4417.09205 C3101.79511,4412.35531 3104.95247,4396.56615 3114.42467,4391.82952 C3123.89698,4385.51395 3134.94781,4399.72416 3144.4199,4398.14521 C3155.47084,4398.14521 3163.36452,4390.25068 3172.83661,4391.82952 C3183.88744,4393.40847 3190.20227,4404.4609 3199.67447,4407.61857 C3204.41057,4410.77658 3213.88266,4404.4609 3215.46151,4409.19752 C3221.77635,4420.24995 3224.9336,4436.039 3221.77635,4448.67037 C3221.77635,4453.40711 3215.46151,4454.98606 3215.46151,4458.14385 C3232.82706,4526.03701 3224.9336,4437.61795 3243.878,4497.61658 C3250.19284,4514.98458 3209.14667,4538.66838 3209.14667,4538.66838 C3235.98454,4532.35269 3264.40114,4511.82679 3259.66504,4574.98322 C3253.3502,4636.5608 3209.14667,4603.40375 3196.51711,4617.61396 C3185.46617,4628.66617 3193.35964,4653.9288 3164.94304,4649.19207 C3158.6282,4649.19207 3153.8921,4642.87649 3149.156,4638.13964 L3142.84138,4630.24512 C3131.7867,4624.62459 3152.31358,4652.34996 3098.63774,4633.40291 C3090.74417,4631.82407 3101.79511,4617.61396 3104.95247,4609.71922 C3106.53121,4598.66679 3090.74417,4601.8248 3087.58681,4595.50912 C3079.69323,4579.71996 3092.3228,4544.80476 3074.95713,4547.96255 C3057.15896,4550.44635 3050.7824,4556.78492 3048.59233,4561.45404 C3044.94773,4569.22413 3055.87543,4579.07831 3052.10223,4585.08301 C3049.49486,4589.23239 3038.44048,4590.44714 3016.5453,4592.35133 C2992.86491,4593.93017 2931.29572,4511.82679 2937.61045,4503.93227 C2939.18918,4503.93227 3000.75838,4488.14311 3000.75838,4488.14311 C3003.91585,4478.66974 2983.39271,4473.93301 2981.81397,4464.45953 C2978.65661,4454.98606 3019.70289,4467.61732 3024.43888,4464.45953 C3049.69811,4448.67037 3040.2258,4409.19752 3074.95713,4409.19752 C3079.69323,4415.51332 3086.00807,4420.24995 3092.32291,4417.09205 Z M3375.7099,3755.12819 C3367.81655,3767.75957 3345.71468,3780.39083 3342.55731,3789.86419 C3340.97858,3797.75872 3339.39995,3841.96819 3318.87681,3841.96819 C3307.82587,3840.38946 3309.40472,3823.02135 3301.51104,3815.12683 C3292.03895,3808.81114 3304.66862,3841.96819 3295.19642,3846.70515 C3290.4601,3848.28388 3284.14548,3840.38946 3280.98801,3843.54725 C3269.93718,3849.86294 3268.35845,3871.96757 3255.72888,3871.96757 C3244.67795,3871.96757 3235.20586,3853.02062 3241.52047,3843.54725 C3247.83531,3832.49483 3274.67328,3851.44189 3279.40938,3838.81052 C3284.14548,3827.75809 3257.30751,3826.17925 3252.57141,3813.54788 C3250.99267,3808.81114 3263.62235,3810.39009 3266.77971,3807.2323 C3268.35845,3805.65335 3262.04361,3807.2323 3262.04361,3805.65335 C3258.88625,3799.33767 3257.30751,3793.02198 3258.88625,3786.70652 C3273.09455,3747.23367 3284.14548,3783.54851 3306.24714,3788.28524 C3307.82587,3788.28524 3298.35378,3764.60167 3303.08988,3759.86493 C3318.87681,3740.91798 3318.87681,3758.28598 3334.66385,3756.70714 C3336.24248,3755.12819 3336.24248,3750.39146 3337.82121,3750.39146 C3347.29341,3742.49693 3356.76561,3729.86556 3367.81655,3731.44451 C3375.7099,3733.02346 3372.55265,3747.23367 3375.7099,3755.12819 L3375.7099,3755.12819 Z" id="uk" fill="#87B024"></path>
                        <path d="M5046.64593,6223.87755 C5046.64593,6234.92997 5067.16907,6238.08765 5060.85423,6253.87681 C5059.27561,6257.0346 5052.96077,6255.45576 5051.38203,6257.0346 C5049.80351,6261.77134 5045.06741,6274.40271 5040.33131,6288.61292 L5048.22478,6305.98081 L5048.22478,6324.92776 C5064.01171,6326.50671 5089.27094,6329.66461 5090.84957,6329.66461 C5094.00704,6332.8224 5086.11347,6337.55913 5089.27094,6340.71692 C5097.16441,6350.1904 5106.63661,6356.50608 5117.68754,6361.24282 C5142.94667,6373.87419 5147.68277,6331.24345 5165.04844,6334.40135 C5198.20114,6339.13808 5163.46981,6356.50608 5174.52053,6361.24282 C5199.77976,6373.87419 5177.67811,6358.08503 5202.93724,6361.24282 C5215.5668,6362.82177 5228.19648,6395.97882 5253.45549,6381.76861 L5273.97863,6339.13808 C5286.6083,6329.66461 5341.86266,6335.98018 5356.07107,6334.40135 C5379.75157,6332.8224 5398.69586,6312.2965 5422.37636,6312.2965 C5428.6912,6312.2965 5411.32543,6320.19102 5409.7468,6326.50671 C5401.85323,6359.66376 5422.37636,6337.55913 5435.00604,6356.50608 C5438.1634,6361.24282 5430.26994,6367.55851 5433.4273,6373.87419 C5435.00604,6377.03187 5439.74214,6370.71618 5442.8995,6373.87419 C5472.89473,6395.97882 5480.78819,6399.13661 5521.83447,6405.45229 C5569.19536,6411.76798 5618.13499,6413.34693 5667.07484,6421.24146 C5679.70429,6422.82041 5692.33385,6432.29388 5704.96353,6433.87261 C5717.59309,6435.45156 5730.22277,6425.97819 5742.85222,6427.55714 C5750.74579,6429.13587 5755.48189,6440.18829 5763.37536,6440.18829 C5766.53272,6441.76735 5764.95409,6432.29388 5768.11146,6430.71493 C5776.00492,6422.82041 5788.6346,6419.66251 5796.52795,6410.18903 C5802.84279,6405.45229 5798.1068,6394.39987 5802.84279,6389.66313 C5832.83812,6365.97945 5864.4122,6395.97882 5892.82869,6383.34756 C5902.30089,6378.61093 5903.87963,6364.4005 5913.35183,6361.24282 C5914.93045,6359.66376 5967.02756,6367.55851 5968.60618,6365.97945 C5973.34228,6364.4005 5963.87008,6358.08503 5962.29146,6353.34829 C5959.13398,6337.55913 5965.44882,6328.08566 5976.49976,6324.92776 L5976.49976,6324.92776 C6004.91625,6293.34966 6017.54603,6288.61292 6031.75422,6264.92924 C6034.91159,6258.61355 6006.49509,6225.4565 6014.38845,6209.66734 C6025.43939,6187.56249 6052.27725,6211.24629 6049.11989,6179.66796 C6047.54115,6152.82649 6000.18026,6155.98439 6009.65235,6148.08975 C6031.75422,6129.1428 6088.58731,6154.40544 6098.05952,6137.03744 C6099.63825,6130.72175 6077.53638,6080.19659 6099.63825,6070.72312 C6080.69385,6050.19722 6064.90692,6029.67132 6050.69862,6005.98774 C6038.06895,5985.46185 6083.85121,5952.30479 6050.69862,5928.62111 C6045.96252,5925.46321 6039.64769,5934.93679 6034.91159,5934.93679 C6027.01812,5933.35785 6011.23108,5912.83195 6000.18026,5915.98974 C5992.28679,5919.14763 5989.12932,5931.7789 5979.65712,5936.51563 C5973.34228,5938.09458 5965.44882,5934.93679 5959.13398,5934.93679 C5916.50919,5930.19995 5880.19902,5895.46406 5834.41686,5895.46406 C5826.52329,5895.46406 5820.20856,5904.93742 5812.31499,5904.93742 C5809.15762,5903.35847 5812.31499,5895.46406 5809.15762,5893.88511 C5802.84279,5890.7271 5793.3707,5887.56942 5788.6346,5892.30605 C5787.05586,5895.46406 5790.21333,5941.25237 5787.05586,5944.41027 C5783.8985,5949.14701 5772.84756,5938.09458 5766.53272,5942.83132 L5753.90316,5983.88301 C5742.85222,5987.04079 5731.80128,5972.83058 5720.75057,5972.83058 C5714.43573,5972.83058 5716.01447,5985.46185 5709.69963,5987.04079 C5676.54693,5999.67206 5657.60242,5966.5149 5632.3434,5953.88374 L5630.76466,5953.88374 C5632.3434,5958.62048 5633.92203,5963.35722 5633.92203,5968.09385 C5632.3434,6010.72448 5622.8712,6001.25101 5589.71839,5993.35648 C5586.56113,5993.35648 5583.40377,5994.93532 5581.82503,5998.09322 C5578.66756,6013.88238 5588.13987,6031.25027 5572.35283,6043.88153 C5558.14453,6054.93396 5491.83913,6070.72312 5490.26039,6095.98575 C5490.26039,6095.98575 5528.1493,6148.08975 5528.1493,6149.6687 C5529.72782,6151.24765 5507.62617,6170.19449 5515.51963,6176.51029 C5532.88541,6192.29923 5550.25096,6168.61554 5536.04266,6220.71976 C5536.04266,6223.87755 5532.88541,6228.61429 5529.72782,6228.61429 C5479.20957,6214.40407 5518.6771,6189.14144 5494.99649,6187.56249 C5482.36693,6187.56249 5471.31599,6198.61491 5458.68654,6197.03596 C5452.3717,6195.45713 5453.95044,6184.4047 5449.21434,6182.82575 C5439.74214,6179.66796 5430.26994,6187.56249 5422.37636,6184.4047 C5419.219,6182.82575 5425.53384,6173.35228 5422.37636,6173.35228 C5403.43196,6174.93123 5420.79763,6200.19386 5416.06153,6201.7727 C5393.95976,6208.08839 5357.6497,6198.61491 5337.12656,6206.50944 C5330.81183,6209.66734 5333.9692,6220.71976 5327.65436,6223.87755 C5321.33974,6228.61429 5313.44617,6220.71976 5307.13144,6225.4565 C5302.39523,6227.03523 5308.71007,6234.92997 5305.55271,6238.08765 C5303.97397,6239.66671 5250.29824,6253.87681 5243.98329,6250.71902 C5240.82604,6247.56113 5243.98329,6239.66671 5240.82604,6236.5087 C5239.2473,6233.35091 5231.35384,6233.35091 5229.7751,6230.19324 C5228.19648,6227.03523 5237.66868,6228.61429 5236.08994,6225.4565 C5229.7751,6204.9306 5185.57146,6230.19324 5172.94201,6215.98302 C5172.94201,6215.98302 5176.09937,6214.40407 5176.09937,6212.82513 C5166.62717,6206.50944 5176.09937,6233.35091 5172.94201,6244.40334 C5172.94201,6250.71902 5142.94667,6287.03397 5131.89573,6275.98155 C5125.5809,6269.66597 5142.94667,6260.1925 5138.21057,6253.87681 C5136.63184,6252.29786 5131.89573,6258.61355 5128.73837,6258.61355 C5125.5809,6258.61355 5120.8448,6257.0346 5119.26628,6253.87681 C5116.1087,6249.14007 5127.15963,6242.82439 5119.26628,6236.5087 C5112.95144,6231.77196 5109.79408,6223.87755 5103.47924,6220.71976 C5098.74314,6217.56186 5092.42831,6225.4565 5086.11347,6223.87755 C5082.95611,6220.71976 5086.11347,6212.82513 5082.95611,6209.66734 C5075.06264,6203.35165 5076.64127,6231.77196 5051.38203,6223.87755 C5049.80351,6222.2986 5048.22478,6222.2986 5046.64593,6222.2986 L5046.64593,6223.87755 L5046.64593,6223.87755 Z" id="at" fill="#87B024"></path>
                        <path d="M4617.23988,5810.20279 C4609.34642,5807.04489 4599.87422,5802.30815 4590.40202,5802.30815 C4582.50844,5802.30815 4574.61498,5810.20279 4565.14289,5810.20279 C4563.56415,5811.78152 4565.14289,5805.46605 4563.56415,5803.8871 C4557.24942,5800.72931 4550.93459,5797.57141 4543.04101,5794.41363 L4544.61975,5788.09794 C4579.35108,5791.25584 4531.99019,5729.67825 4536.72629,5715.46804 C4543.04101,5698.10015 4574.61498,5639.68024 4591.98064,5669.67962 C4590.40202,5677.57425 4588.82328,5685.46867 4591.98064,5698.10015 C4599.87422,5731.2572 4637.76291,5734.41499 4640.92049,5739.15173 C4663.02215,5765.9932 4599.87422,5778.62446 4617.23988,5810.20279 L4617.23988,5810.20279 Z" id="lu" fill="#87B024"></path>
                        <path d="M4175.20416,5519.68308 C4187.83372,5519.68308 4195.72729,5497.57824 4205.19949,5502.31497 C4225.72263,5510.20961 4216.25043,5546.52445 4222.56505,5559.15593 C4232.03725,5581.26056 4266.76869,5555.99792 4271.50479,5581.26056 C4273.08352,5587.57624 4268.34742,5595.47077 4269.92616,5601.78646 C4273.08352,5614.41761 4337.81019,5598.62867 4340.96755,5625.47003 C4340.96755,5634.94351 4328.33799,5642.83814 4328.33799,5652.31162 C4326.75925,5658.6273 4339.38893,5658.6273 4339.38893,5663.36404 C4339.38893,5671.25857 4331.49535,5675.9953 4326.75925,5683.88972 C4322.02315,5693.36319 4374.12036,5705.99457 4396.22202,5685.46867 C4407.27295,5675.9953 4416.74516,5647.57488 4427.79609,5657.04835 C4430.95346,5660.20614 4423.05999,5664.94288 4421.48126,5669.67962 C4419.90252,5675.9953 4413.58779,5682.31099 4413.58779,5690.20541 C4413.58779,5696.52109 4423.05999,5698.10015 4424.63851,5704.41562 C4424.63851,5712.31025 4412.00905,5721.78373 4418.32389,5728.0993 C4424.63851,5737.57289 4440.42555,5732.83604 4451.47648,5737.57289 C4457.79132,5742.30963 4459.36995,5751.7831 4465.68478,5756.51984 C4467.26352,5758.09857 4471.99962,5751.7831 4475.15698,5753.36183 C4478.31446,5754.94089 4479.89308,5758.09857 4481.47182,5761.25657 C4481.47182,5762.8353 4473.57825,5765.9932 4475.15698,5767.57204 C4479.89308,5770.72994 4487.78666,5767.57204 4490.94402,5772.30878 C4495.68012,5778.62446 4489.36528,5792.83468 4497.25886,5795.99257 C4506.73106,5800.72931 4517.78189,5789.67689 4528.83271,5791.25584 C4533.56881,5791.25584 4538.30491,5792.83468 4543.04101,5794.41363 C4550.93459,5797.57141 4557.24942,5800.72931 4563.56415,5803.8871 C4565.14289,5805.46605 4563.56415,5811.78152 4565.14289,5810.20279 C4574.61498,5810.20279 4582.50844,5802.30815 4590.40202,5802.30815 C4599.87422,5802.30815 4609.34642,5807.04489 4617.23988,5810.20279 C4620.39735,5814.93952 4629.86955,5810.20279 4634.60565,5814.93952 C4647.23511,5822.83394 4655.12868,5859.149 4670.91561,5874.93816 C4689.86012,5895.46406 4658.28605,5830.72868 4705.64694,5873.35921 C4708.80452,5876.517 4702.48968,5882.83268 4704.06842,5887.56942 C4707.22567,5892.30605 4757.74415,5871.78026 4765.63761,5878.09595 C4770.3736,5882.83268 4767.21635,5892.30605 4771.95245,5897.04279 C4778.26729,5901.77952 4872.98918,5912.83195 4866.67434,5923.88437 C4849.30857,5953.88374 4817.73472,5972.83058 4805.10504,5998.09322 C4800.36894,6009.14553 4798.79031,6043.88153 4797.21158,6053.35512 L4775.1097,6089.67007 C4771.95245,6097.5647 4768.79509,6105.45912 4770.3736,6113.35364 C4770.3736,6118.09038 4776.68844,6118.09038 4776.68844,6121.24828 C4775.1097,6143.35302 4759.32289,6163.8788 4760.90151,6185.98365 C4760.90151,6206.50944 4760.90151,6212.82513 4762.48025,6212.82513 C4708.80452,6268.08702 4727.74881,6208.08839 4683.54528,6220.71976 C4680.38792,6222.2986 4686.70265,6228.61429 4686.70265,6231.77196 C4678.80918,6238.08765 4666.17951,6244.40334 4669.33698,6252.29786 C4670.91561,6260.1925 4694.59622,6244.40334 4694.59622,6252.29786 C4693.01748,6274.40271 4685.12402,6257.0346 4677.23045,6263.35029 C4663.02215,6274.40271 4650.39258,6305.98081 4639.34175,6315.45429 C4629.86955,6326.50671 4607.76768,6321.76997 4601.45295,6334.40135 C4596.71685,6345.45366 4606.18905,6359.66376 4601.45295,6369.13746 C4595.13812,6386.50535 4566.72162,6386.50535 4555.67069,6402.29451 C4536.72629,6425.97819 4557.24942,6448.08304 4549.35585,6473.34546 C4547.77711,6478.08219 4531.99019,6470.18767 4531.99019,6490.71357 C4531.99019,6493.87135 4524.09661,6497.02925 4525.67535,6497.02925 C4544.61975,6501.76599 4566.72162,6493.87135 4576.19383,6474.92441 C4577.77234,6471.76662 4569.87899,6468.60872 4568.30014,6465.45093 C4568.30014,6460.71419 4566.72162,6457.55641 4569.87899,6454.39851 C4584.08718,6432.29388 4628.29082,6432.29388 4648.81384,6441.76735 C4655.12868,6443.34608 4642.49901,6452.81967 4644.07774,6457.55641 C4644.07774,6465.45093 4653.54994,6468.60872 4655.12868,6476.50335 C4656.70731,6485.97683 4634.60565,6484.39788 4644.07774,6500.18704 C4647.23511,6503.34472 4656.70731,6498.60798 4658.28605,6503.34472 C4661.44341,6508.08146 4653.54994,6515.97609 4655.12868,6520.71283 C4656.70731,6523.87062 4663.02215,6514.39714 4664.60088,6517.55493 C4672.49435,6525.44957 4672.49435,6536.50199 4678.80918,6545.97546 C4606.18905,6588.60599 4647.23511,6569.65915 4669.33698,6607.55294 C4672.49435,6613.86863 4666.17951,6624.92105 4670.91561,6631.23652 C4675.65182,6642.28894 4691.43875,6643.868 4696.17485,6653.34136 C4704.06842,6667.55157 4653.54994,6708.60337 4645.65659,6710.1821 C4640.92049,6711.76105 4637.76291,6702.28768 4633.02692,6702.28768 C4625.13345,6703.86663 4610.92515,6703.86663 4610.92515,6711.76105 C4607.76768,6737.02368 4659.86478,6757.54958 4667.75825,6770.18085 C4672.49435,6779.65421 4674.07308,6792.28558 4674.07308,6804.91685 C4672.49435,6809.65358 4658.28605,6801.75906 4656.70731,6806.49579 C4655.12868,6809.65358 4659.86478,6812.81148 4658.28605,6814.39032 C4653.54994,6822.28496 4645.65659,6827.02169 4639.34175,6833.33727 C4634.60565,6842.81085 4650.39258,6847.54759 4651.97121,6852.28433 C4651.97121,6855.44201 4644.07774,6855.44201 4644.07774,6858.59979 C4642.49901,6880.70464 4683.54528,6910.70402 4700.91084,6915.44075 C4710.38304,6918.59843 4721.43397,6913.86169 4730.90617,6913.86169 C4740.37838,6912.28274 4751.42931,6905.96728 4759.32289,6910.70402 C4783.00328,6928.07191 4729.32755,6964.38696 4737.22101,6992.80728 C4735.64228,6992.80728 4708.80452,7002.28075 4705.64694,7005.43865 C4694.59622,7007.01749 4683.54528,7008.59644 4677.23045,7014.91213 C4672.49435,7019.64886 4680.38792,7030.70118 4674.07308,7035.43791 C4667.75825,7040.17476 4656.70731,7033.85907 4648.81384,7038.59581 C4642.49901,7043.33255 4644.07774,7055.9637 4636.18439,7062.27939 C4629.86955,7065.43718 4621.97598,7057.54265 4615.66125,7060.70044 C4610.92515,7062.27939 4614.08252,7070.17391 4609.34642,7074.91065 C4604.61032,7081.22634 4591.98064,7082.80529 4588.82328,7090.69981 C4587.24454,7097.0155 4601.45295,7106.48897 4595.13812,7111.22571 C4587.24454,7119.12035 4571.45773,7111.22571 4560.40679,7112.80466 C4546.19849,7115.96234 4536.72629,7130.17255 4524.09661,7134.90929 C4509.88831,7139.64602 4520.93925,7117.5414 4489.36528,7115.96234 C4468.84215,7114.38339 4490.94402,7123.85708 4487.78666,7127.01476 C4484.62918,7130.17255 4478.31446,7130.17255 4473.57825,7128.59382 C4468.84215,7128.59382 4464.10605,7128.59382 4462.52742,7125.43581 C4462.52742,7122.27813 4473.57825,7114.38339 4451.47648,7103.33118 C4446.74038,7101.75224 4442.00428,7103.33118 4435.68945,7103.33118 C4424.63851,7100.17329 4412.00905,7101.75224 4404.11559,7093.85771 C4396.22202,7085.96307 4404.11559,7070.17391 4397.80075,7062.27939 C4394.64328,7057.54265 4388.32855,7068.59507 4382.01372,7068.59507 C4372.54152,7068.59507 4353.59723,7071.75286 4355.17574,7062.27939 C4356.75459,7049.64824 4385.17108,7054.38497 4386.74982,7041.7536 C4386.74982,7029.12234 4369.38426,7019.64886 4358.33333,7021.2277 C4348.86113,7022.80665 4366.22668,7040.17476 4361.49058,7046.49023 C4353.59723,7054.38497 4340.96755,7059.12171 4329.91672,7057.54265 C4304.6576,7055.9637 4312.55095,7011.75423 4307.81485,7018.06991 C4285.7132,7043.33255 4334.65283,7054.38497 4320.44452,7060.70044 C4269.92616,7081.22634 4292.02781,7048.06929 4290.4493,7041.7536 C4288.87056,7035.43791 4233.61598,7029.12234 4228.87988,7025.96444 C4216.25043,7019.64886 4200.46339,6999.12296 4184.67636,7008.59644 C4167.3108,7018.06991 4142.05156,7049.64824 4124.68579,7059.12171 C4108.89875,7067.01613 4077.3249,7060.70044 4058.3805,7087.54202 C4055.22302,7090.69981 4063.1166,7097.0155 4063.1166,7101.75224 C4059.95912,7117.5414 4039.43599,7127.01476 4037.85736,7144.38276 C4037.85736,7149.1195 4048.9083,7147.54066 4050.48692,7152.2774 C4058.3805,7180.69782 4037.85736,7172.80329 4048.9083,7204.3814 C4052.06566,7213.85487 4061.53786,7221.74951 4071.01006,7229.64403 L4064.69522,7229.64403 C4039.43599,7223.32835 4011.01949,7209.11813 3987.33899,7224.90729 C3982.60289,7228.06508 3988.91773,7240.69646 3982.60289,7242.27541 C3966.81586,7247.01214 3939.9781,7215.43382 3924.19106,7215.43382 C3909.98276,7215.43382 3898.93183,7223.32835 3886.30237,7224.90729 C3876.82995,7226.48624 3875.25144,7209.11813 3872.09396,7205.96035 C3864.2005,7199.64466 3851.57093,7196.48687 3840.52,7191.75024 C3856.30704,7171.22435 3853.14956,7150.69845 3812.10351,7153.85624 C3810.52477,7153.85624 3805.78867,7160.17192 3802.6312,7168.06656 C3794.73773,7161.75087 3799.47383,7147.54066 3791.58037,7141.22497 C3786.84427,7136.48824 3777.37207,7136.48824 3769.47849,7134.90929 C3766.32113,7134.90929 3761.58503,7136.48824 3760.00629,7134.90929 C3742.64074,7119.12035 3726.8537,7100.17329 3700.01573,7095.43655 C3681.07133,7092.27876 3688.96501,7128.59382 3688.96501,7128.59382 C3671.59924,7127.01476 3657.39094,7114.38339 3641.6039,7115.96234 C3636.8678,7115.96234 3636.8678,7125.43581 3632.1317,7125.43581 C3622.6595,7123.85708 3617.92351,7112.80466 3608.45131,7111.22571 C3598.97911,7109.64665 3592.66427,7119.12035 3583.19207,7117.5414 C3562.66893,7117.5414 3570.56251,7097.0155 3559.51157,7087.54202 C3537.40981,7068.59507 3516.88667,7097.0155 3496.36364,7081.22634 C3494.7849,7081.22634 3478.99787,7044.9115 3477.41913,7043.33255 C3456.89621,7027.54339 3422.16488,7035.43791 3400.06301,7014.91213 C3396.90565,7011.75423 3401.64175,7003.8597 3400.06301,7000.70191 C3396.90565,6997.54402 3387.43345,7014.91213 3377.96125,7011.75423 C3357.43811,7002.28075 3403.22026,6983.3338 3389.01207,6967.54475 C3384.27597,6961.22918 3374.80377,6958.07128 3366.91031,6956.49233 C3365.33157,6956.49233 3366.91031,6964.38696 3363.75283,6962.80802 C3363.75283,6962.80802 3346.38717,6947.01885 3336.91508,6937.54538 C3346.38717,6935.96654 3352.70201,6934.38759 3359.01673,6931.2298 C3404.79911,6909.12507 3423.7434,6757.54958 3441.10917,6710.1821 C3444.26654,6702.28768 3447.4239,6691.23526 3455.31748,6688.07747 C3461.63231,6684.91968 3475.84061,6699.1299 3478.99787,6691.23526 C3483.73397,6683.34074 3472.68303,6670.70936 3463.21094,6669.13052 C3455.31748,6667.55157 3453.73874,6689.65642 3445.84527,6686.49852 C3430.05824,6681.76179 3453.73874,6656.49915 3456.89621,6640.70999 C3463.21094,6615.44757 3480.57671,6522.29167 3497.94227,6509.66041 C3504.2571,6506.50273 3526.35887,6541.23873 3532.6737,6557.02778 C3554.77558,6604.39515 3524.78024,6560.18568 3540.56728,6610.71084 C3543.72464,6620.18431 3553.19673,6628.07884 3556.3541,6637.55231 C3557.93283,6642.28894 3551.618,6656.49915 3556.3541,6654.92031 C3564.24767,6653.34136 3568.98377,6642.28894 3567.40503,6635.97325 C3564.24767,6626.49989 3553.19673,6623.3421 3546.8819,6615.44757 C3534.25244,6594.92168 3551.618,6557.02778 3538.98854,6533.34409 C3532.6737,6520.71283 3521.62277,6509.66041 3512.15057,6498.60798 C3505.83584,6490.71357 3497.94227,6482.81893 3488.47007,6476.50335 C3497.94227,6479.66114 3508.9932,6482.81893 3518.4654,6478.08219 C3529.51634,6471.76662 3494.7849,6455.97746 3497.94227,6443.34608 C3501.09974,6430.71493 3515.30804,6424.39924 3516.88667,6411.76798 C3518.4654,6402.29451 3507.41447,6394.39987 3507.41447,6384.9264 C3507.41447,6373.87419 3516.88667,6362.82177 3516.88667,6351.76935 C3516.88667,6348.61156 3508.9932,6348.61156 3504.2571,6350.1904 C3501.09974,6351.76935 3504.2571,6361.24282 3501.09974,6359.66376 C3493.20617,6356.50608 3491.62765,6343.87482 3485.31281,6339.13808 C3480.57671,6337.55913 3474.26188,6343.87482 3469.52578,6340.71692 C3464.78968,6337.55913 3469.52578,6326.50671 3464.78968,6323.34892 C3436.37307,6296.50734 3452.16011,6354.92713 3425.32214,6302.82302 C3423.7434,6298.0864 3422.16488,6263.35029 3415.84994,6255.45576 C3414.2712,6253.87681 3409.5351,6255.45576 3407.95636,6253.87681 C3401.64175,6244.40334 3393.74817,6233.35091 3389.01207,6222.2986 C3382.69735,6206.50944 3414.2712,6190.72039 3417.42878,6184.4047 C3423.7434,6170.19449 3385.85471,6160.72113 3385.85471,6159.14218 C3382.69735,6148.08975 3382.69735,6141.77418 3384.27597,6137.03744 C3317.97068,6130.72175 3377.96125,6114.93259 3379.53987,6080.19659 C3381.11861,6059.67069 3314.81321,6077.0388 3313.23458,6069.14417 C3310.07711,6056.51291 3329.02151,6051.77617 3338.49382,6045.46048 C3340.07233,6043.88153 3330.60024,6048.61827 3329.02151,6047.03943 C3327.44288,6045.46048 3329.02151,6040.72374 3327.44288,6039.14479 C3322.70678,6039.14479 3321.12804,6043.88153 3316.39194,6045.46048 C3303.76238,6045.46048 3291.1327,6035.98701 3280.08177,6040.72374 C3278.50325,6042.30269 3276.9244,6043.88153 3276.9244,6045.46048 C3280.08177,6023.35585 3295.86881,6002.82996 3262.71621,5999.67206 C3245.35044,5998.09322 3250.08654,6020.19796 3237.45698,6012.30343 C3227.98478,6005.98774 3215.35532,5985.46185 3205.8829,5980.72511 C3199.56828,5979.14627 3191.67471,5985.46185 3186.93861,5980.72511 C3166.41547,5964.93595 3191.67471,5945.98911 3152.20717,5949.14701 C3149.04981,5950.72585 3155.36465,5958.62048 3152.20717,5960.19921 C3141.15646,5964.93595 3125.36942,5974.40953 3115.89722,5966.5149 C3106.42502,5960.19921 3115.89722,5942.83132 3112.73974,5931.7789 C3108.00364,5912.83195 3087.48051,5917.56868 3074.85094,5909.67416 C3073.27221,5908.09521 3078.00831,5903.35847 3081.16578,5903.35847 C3096.95282,5900.20079 3112.73974,5901.77952 3128.52678,5901.77952 C3131.68403,5901.77952 3139.57772,5908.09521 3139.57772,5904.93742 C3139.57772,5901.77952 3125.36942,5879.6749 3115.89722,5863.88574 C3125.36942,5868.62247 3134.84162,5865.46468 3144.31371,5867.04352 C3150.62855,5867.04352 3164.83685,5873.35921 3160.10075,5870.20142 C3149.04981,5863.88574 3130.10552,5867.04352 3125.36942,5855.99121 C3122.21194,5846.51763 3147.47107,5849.67552 3149.04981,5840.20205 C3153.78591,5821.25521 3054.32792,5893.88511 3087.48051,5808.62384 C3089.05924,5808.62384 3141.15646,5788.09794 3155.36465,5788.09794 C3172.73031,5788.09794 3133.26288,5808.62384 3171.15157,5797.57141 C3182.20251,5795.99257 3193.25345,5783.3612 3204.30438,5786.5191 C3213.77647,5789.67689 3209.04048,5808.62384 3218.51258,5811.78152 C3224.82741,5811.78152 3220.09131,5792.83468 3226.40604,5791.25584 C3237.45698,5791.25584 3245.35044,5811.78152 3256.40138,5808.62384 C3265.87358,5805.46605 3259.55885,5784.94015 3269.03105,5778.62446 C3272.18841,5775.46668 3278.50325,5784.94015 3283.23924,5784.94015 C3292.71144,5784.94015 3303.76238,5775.46668 3311.65584,5780.20341 C3319.54931,5784.94015 3313.23458,5800.72931 3321.12804,5805.46605 C3325.86414,5808.62384 3325.86414,5797.57141 3330.60024,5794.41363 C3338.49382,5788.09794 3363.75283,5855.99121 3370.06767,5868.62247 C3371.64641,5870.20142 3371.64641,5862.30679 3374.80377,5862.30679 C3384.27597,5855.99121 3393.74817,5854.41226 3404.79911,5849.67552 C3412.69268,5844.93879 3419.0073,5832.30741 3426.90087,5835.46531 C3441.10917,5841.78089 3428.4795,5897.04279 3466.36841,5881.25363 C3477.41913,5876.517 3471.10451,5855.99121 3478.99787,5844.93879 C3486.89133,5833.88636 3488.47007,5867.04352 3497.94227,5868.62247 C3507.41447,5870.20142 3515.30804,5865.46468 3524.78024,5867.04352 C3534.25244,5867.04352 3553.19673,5881.25363 3556.3541,5871.78026 C3559.51157,5854.41226 3523.2015,5841.78089 3527.9376,5824.413 C3531.09508,5813.36057 3534.25244,5802.30815 3538.98854,5791.25584 C3535.83118,5791.25584 3532.6737,5789.67689 3534.25244,5783.3612 C3537.40981,5772.30878 3546.8819,5759.67752 3546.8819,5747.04636 C3546.8819,5743.88846 3537.40981,5748.62509 3535.83118,5745.46741 C3532.6737,5737.57289 3535.83118,5724.94152 3531.09508,5717.04699 C3529.51634,5712.31025 3520.04414,5712.31025 3516.88667,5707.57352 C3513.7293,5698.10015 3512.15057,5685.46867 3513.7293,5675.9953 C3513.7293,5671.25857 3521.62277,5669.67962 3521.62277,5666.52183 C3521.62277,5655.46941 3515.30804,5644.41698 3513.7293,5633.36467 C3513.7293,5630.20677 3516.88667,5639.68024 3518.4654,5641.25919 C3531.09508,5647.57488 3542.1458,5653.89046 3554.77558,5657.04835 C3557.93283,5658.6273 3562.66893,5655.46941 3565.8263,5655.46941 C3578.45597,5655.46941 3591.08553,5649.15372 3602.13647,5655.46941 C3608.45131,5657.04835 3605.29372,5666.52183 3602.13647,5672.83752 C3600.55773,5675.9953 3595.82163,5674.41635 3592.66427,5677.57425 C3587.92817,5682.31099 3605.29372,5732.83604 3606.87257,5732.83604 C3671.59924,5742.30963 3578.45597,5702.83678 3628.97434,5721.78373 C3652.65484,5731.2572 3682.65017,5735.99394 3704.75183,5747.04636 C3712.6454,5751.7831 3717.3815,5762.8353 3725.27497,5764.41425 C3761.58503,5769.15099 3753.69146,5748.62509 3780.52943,5740.73068 C3786.84427,5739.15173 3793.159,5739.15173 3801.05257,5739.15173 C3783.6868,5735.99394 3767.89987,5724.94152 3790.00163,5687.04773 C3805.78867,5661.78509 3911.56139,5658.6273 3939.9781,5642.83814 C3951.02882,5638.10141 3958.9225,5628.62804 3969.97344,5622.31235 C3979.44553,5617.57562 3996.81119,5619.15457 4001.54729,5609.68087 C4006.28339,5600.20751 3988.91773,5595.47077 3987.33899,5585.99729 C3985.76026,5581.26056 3987.33899,5573.36603 3990.49636,5570.20813 C3993.65383,5567.05035 3999.96856,5573.36603 3999.96856,5570.20813 C3999.96856,5567.05035 3992.07509,5567.05035 3992.07509,5562.31361 C3992.07509,5551.26118 4004.70477,5475.47361 4007.86213,5467.57897 C4014.17697,5448.63202 4066.27396,5445.47424 4080.48226,5443.89529 C4099.42655,5442.31634 4118.37095,5440.7375 4135.73673,5437.5796 C4138.89409,5459.68445 4140.47283,5519.68308 4175.20416,5519.68308 Z M5021.3868,7160.17192 C5043.48868,7175.96108 5021.3868,7218.59161 5021.3868,7235.95972 C5021.3868,7242.27541 5035.59521,7256.48562 5034.01648,7250.16993 C5030.85911,7243.85424 5021.3868,7226.48624 5022.96554,7232.80182 C5026.1229,7242.27541 5032.43774,7248.59087 5035.59521,7256.48562 C5040.33131,7267.53782 5040.33131,7302.27393 5040.33131,7311.74729 C5041.90983,7338.58888 5015.07208,7359.11478 5015.07208,7378.06173 C5015.07208,7398.58752 5022.96554,7427.00794 5005.59988,7445.95489 C5004.02114,7449.11279 4996.12768,7445.95489 4996.12768,7449.11279 C4996.12768,7453.84952 5007.1785,7449.11279 5005.59988,7452.27057 C5005.59988,7458.58626 4996.12768,7458.58626 4992.9702,7463.323 C4988.2341,7474.37542 4992.9702,7488.58552 4985.07685,7498.059 C4962.97497,7520.16374 4969.28981,7474.37542 4964.55371,7472.79636 C4944.03057,7466.48068 4931.40101,7482.26984 4917.19282,7458.58626 C4914.03524,7453.84952 4923.50744,7447.53384 4920.35007,7441.21815 C4915.61408,7431.74468 4896.66968,7428.58689 4898.24831,7417.53446 C4898.24831,7404.9032 4923.50744,7398.58752 4921.92892,7385.95614 C4920.35007,7376.48278 4895.09095,7395.42984 4893.51221,7385.95614 C4890.35484,7373.32499 4915.61408,7367.0093 4914.03524,7355.95699 C4912.45672,7343.32562 4888.77611,7346.48341 4885.61874,7333.85214 C4884.04001,7324.37878 4904.56315,7321.22099 4904.56315,7310.16857 C4904.56315,7300.69509 4888.77611,7295.95835 4884.04001,7286.48488 C4882.46138,7280.16919 4899.82705,7284.90593 4902.9843,7280.16919 C4906.14188,7269.11677 4904.56315,7254.90667 4910.87798,7245.43319 C4912.45672,7242.27541 4915.61408,7253.32761 4918.77134,7251.74888 C4926.66491,7250.16993 4928.24354,7239.11751 4936.13711,7235.95972 C4942.45184,7232.80182 4950.34541,7239.11751 4956.66025,7235.95972 C4964.55371,7231.22298 4964.55371,7217.01277 4972.44706,7215.43382 C4981.91927,7213.85487 4989.81284,7226.48624 5000.86378,7226.48624 C5010.33598,7226.48624 4999.28504,7205.96035 5000.86378,7194.90792 C5002.4424,7182.27677 5015.07208,7172.80329 5021.3868,7160.17192 L5021.3868,7160.17192 Z" id="fr" fill="#87B024"></path>
                        <path d="M4525.67535,5053.90421 L4497.25886,5075.69463 C4481.47182,5130.95653 4550.93459,5104.42937 4525.67535,5123.37632 C4514.62441,5131.27074 4497.25886,5128.11306 4490.94402,5139.16548 C4483.05056,5150.21791 4508.04994,5160.29698 4498.57774,5169.77046 C4495.42049,5174.5073 4475.15698,5184.95391 4478.31446,5189.69064 L4498.10297,5197.21775 C4507.57517,5197.21775 4542.45841,5133.34787 4568.19252,5148.63885 C4577.78964,5154.34133 4565.14289,5143.90222 4561.98552,5132.84979 C4558.82805,5121.79737 4584.08718,5110.74506 4579.35108,5099.69263 C4573.03624,5085.48242 4535.14755,5104.42937 4535.14755,5090.21916 C4536.72629,5079.16674 4543.04101,5069.69337 4544.61975,5058.64095 C4544.61975,5055.48316 4541.46239,5052.32526 4539.88365,5049.16747 C4538.30491,5046.00968 4520.62487,5063.3161 4526.9397,5055.42157 L4495.68012,5074.43011 C4484.62918,5077.58779 4471.99962,5072.85105 4460.94868,5072.85105 C4456.21258,5072.85105 4451.47648,5069.69337 4449.89775,5071.27232 C4429.37461,5096.53474 4435.68945,5147.0599 4426.21736,5173.90148 C4416.74516,5197.58517 4397.80075,5224.42664 4380.43498,5243.37359 C4374.12036,5251.26812 4369.38426,5260.74159 4361.49058,5265.47833 C4356.75459,5268.63623 4345.70365,5262.32054 4344.12503,5268.63623 C4340.96755,5278.1097 4355.17574,5290.74085 4350.43975,5300.21433 C4334.65283,5325.47696 4285.7132,5312.8457 4296.76391,5319.16128 C4309.39359,5327.05591 4318.86579,5338.10812 4333.07409,5344.4238 C4339.38893,5346.00286 4345.70365,5336.52939 4350.43975,5338.10812 C4356.75459,5339.68718 4367.80553,5349.16054 4363.06943,5353.89728 C4355.17574,5358.63402 4334.65283,5341.26613 4334.65283,5350.73949 C4336.23145,5364.9497 4377.27762,5363.37075 4369.38426,5374.42318 C4345.70365,5406.0015 4323.60189,5347.58181 4314.12969,5346.00286 C4284.13446,5338.10812 4255.71786,5342.84507 4260.45396,5353.89728 C4260.45396,5355.47623 4309.39359,5388.63339 4318.86579,5387.05455 C4322.02315,5387.05455 4320.44452,5380.73886 4323.60189,5377.58096 C4329.91672,5372.84423 4336.23145,5383.89665 4342.54629,5385.4756 C4348.86113,5388.63339 4358.33333,5382.31781 4364.64816,5388.63339 C4367.80553,5391.79129 4370.96278,5396.52802 4372.54152,5401.26476 C4377.27762,5402.8436 4380.43498,5404.42255 4385.17108,5402.8436 C4396.22202,5402.8436 4366.22668,5366.52865 4404.11559,5377.58096 C4407.27295,5377.58096 4400.95812,5385.4756 4402.53685,5387.05455 C4421.48126,5402.8436 4426.21736,5364.9497 4440.42555,5376.00213 C4445.16165,5380.73886 4427.79609,5390.21234 4432.53219,5393.37013 C4468.84215,5412.31696 4437.26829,5388.63339 4465.68478,5382.31781 C4470.42088,5380.73886 4478.31446,5426.5274 4489.36528,5428.10613 C4514.62441,5432.84286 4547.77711,5431.26402 4568.30014,5458.1055 C4569.87899,5461.2634 4561.98552,5464.42118 4560.40679,5467.57897 C4557.24942,5477.05234 4549.35585,5484.94708 4547.77711,5494.42045 C4547.77711,5497.57824 4555.67069,5495.99929 4554.09195,5499.15718 C4552.51321,5503.89392 4544.61975,5505.47287 4543.04101,5511.78845 C4531.99019,5551.26118 4558.82805,5540.20898 4584.08718,5541.78782 L4585.66592,5541.78782 C4582.50844,5537.05108 4580.92982,5532.31435 4580.92982,5530.7354 C4582.50844,5524.41982 4593.55938,5524.41982 4595.13812,5518.10413 C4599.87422,5491.26255 4554.09195,5481.78907 4568.30014,5478.6314 C4573.03624,5477.05234 4576.19383,5483.36802 4579.35108,5483.36802 L4609.34642,5456.52655 C4610.92515,5448.63202 4590.40202,5458.1055 4596.71685,5445.47424 C4601.45295,5434.42181 4612.50378,5426.5274 4617.23988,5415.47497 C4631.44807,5380.73886 4596.71685,5355.47623 4587.24454,5338.10812 C4585.66592,5334.95044 4588.82328,5330.2137 4590.40202,5327.05591 C4590.40202,5323.89802 4587.24454,5319.16128 4590.40202,5317.58244 C4598.29548,5312.8457 4607.76768,5317.58244 4617.23988,5314.42454 C4620.39735,5312.8457 4614.08252,5303.37223 4617.23988,5304.95107 C4626.71197,5308.10896 4633.02692,5319.16128 4644.07774,5319.16128 C4655.12868,5320.74023 4697.75358,5306.53002 4702.48968,5295.47759 C4707.22567,5284.42517 4672.49435,5282.84644 4686.70265,5273.37296 C4711.96177,5256.00485 4741.95711,5249.68917 4735.64228,5210.21632 C4734.06365,5188.11169 4675.65182,5197.58517 4689.86012,5173.90148 C4691.43875,5169.16474 4699.33232,5173.90148 4699.33232,5170.74358 C4700.91084,5166.00685 4693.01748,5161.27011 4694.59622,5156.53337 C4694.59622,5153.37558 4699.33232,5153.37558 4702.48968,5153.37558 C4713.54051,5153.37558 4723.01271,5158.11232 4734.06365,5158.11232 C4746.69321,5158.11232 4735.64228,5132.84979 4740.37838,5120.21853 C4743.53585,5109.16611 4770.3736,5058.64095 4767.21635,5031.79947 C4735.64228,5047.58852 4732.48491,4989.16884 4705.64694,4982.85315 C4681.96655,4978.11641 4557.24942,5004.958 4543.04101,5027.06274 C4535.14755,5036.53621 4531.99019,5046.00968 4525.67535,5053.90421 L4525.67535,5053.90421 Z M4249.40302,5388.63339 C4246.24566,5429.68507 4279.39836,5402.8436 4303.07875,5413.89591 C4306.23611,5415.47497 4299.9215,5421.79066 4303.07875,5424.94834 C4322.02315,5437.5796 4337.81019,5415.47497 4350.43975,5404.42255 C4342.54629,5396.52802 4333.07409,5390.21234 4329.91672,5388.63339 C4322.02315,5387.05455 4320.44452,5401.26476 4312.55095,5401.26476 C4285.7132,5401.26476 4303.07875,5385.4756 4271.50479,5380.73886 C4263.61132,5379.15991 4255.71786,5379.15991 4246.24566,5382.31781 L4249.40302,5388.63339 L4249.40302,5388.63339 Z" id="nl" fill="#87B024"></path>
                    </g>
                </g>
            </g>
        </g>
    </g>
</svg>