<?xml version="1.0" encoding="UTF-8" standalone="no"?>
<svg width="104px" height="90px" viewBox="0 0 104 90" version="1.1" xmlns="http://www.w3.org/2000/svg" xmlns:xlink="http://www.w3.org/1999/xlink">
    <!-- Generator: Sketch 3.6 (26304) - http://www.bohemiancoding.com/sketch -->
    <title>be</title>
    <desc>Created with Sketch.</desc>
    <defs></defs>
    <g id="Page-1" stroke="none" stroke-width="1" fill="none" fill-rule="evenodd">
        <g id="Group" transform="translate(-473.000000, -305.000000)" fill="#FFFFFF">
            <path d="M558.355167,393.606678 C557.364451,393.276315 556.373735,392.945976 555.383019,392.945976 C553.071364,392.615613 550.759709,394.928105 548.778277,393.93704 C547.127068,393.276315 548.448031,390.303122 547.457315,388.981695 C546.796845,387.990631 545.145637,388.651356 544.154921,387.990631 C543.824674,387.660291 545.475883,386.999566 545.475883,386.66925 C545.145637,386.008502 544.815413,385.347823 544.154921,385.017437 C543.494451,384.687121 542.503735,386.008502 542.173489,385.678185 C540.852526,384.687121 540.522303,382.704992 539.201341,381.713928 C536.889663,380.72284 533.587268,381.713928 532.266352,379.731776 C530.94539,378.410372 533.587268,376.428243 533.587268,374.776453 C533.257068,373.455073 531.275636,373.124687 531.275636,371.80326 C531.275636,370.151517 532.596575,368.83009 532.926822,367.508663 C533.257068,366.517598 534.908254,365.526534 534.247784,364.865832 C531.936106,362.883703 529.954674,368.83009 527.642996,370.812196 C523.019685,375.106816 512.121787,372.463962 513.112503,370.481833 C514.103219,368.83009 515.754427,367.839025 515.754427,366.187259 C515.754427,365.196195 513.112503,365.196195 513.442749,363.874768 C513.442749,361.892639 516.084651,360.240849 516.084651,358.258721 C515.424181,352.642719 501.884404,355.946229 501.223934,353.303421 C500.893688,351.981994 501.884404,350.330228 501.554158,349.008801 C500.563442,343.723116 493.298184,349.008801 491.316752,344.383865 C489.995836,341.740988 491.977267,334.142858 487.684157,332.491068 C485.702725,331.500004 484.051517,336.124987 481.409615,336.124987 C474.14438,336.124987 473.814134,323.571511 473.153664,318.946529 L473.483911,318.616189 C479.428183,316.9644 488.674873,309.696609 496.270355,307.384141 L496.930824,308.705545 C496.270355,317.294762 503.205366,311.678738 508.158923,313.991206 C508.819393,314.321592 507.498476,315.643019 508.158923,316.303698 C512.121787,318.946529 515.424181,314.321592 518.066083,312.009101 C520.047537,313.660844 522.028969,314.982271 522.689416,314.651908 C523.680132,313.991206 523.349886,312.66978 522.689416,311.348399 C523.680132,311.678738 524.340602,312.009101 525.331317,311.678738 C527.642996,311.678738 521.368454,304.080585 529.294204,306.393053 C529.954674,306.393053 528.633712,308.044843 528.963958,308.375205 C532.926822,311.678738 533.917538,303.750223 536.889663,306.062714 C537.880379,307.053778 534.247784,309.035907 535.2385,309.696609 C542.833958,313.660844 536.229216,308.705545 542.173489,307.384141 C543.164205,307.053778 544.815413,316.634083 547.127068,316.9644 C552.410871,317.955464 559.345883,317.625125 563.63897,323.241149 C563.96924,323.901874 562.318054,324.562576 561.987808,325.223278 C561.327338,327.205384 559.676129,328.857196 559.345883,330.839302 C559.345883,331.500004 560.997092,331.169641 560.666845,331.830366 C560.336599,332.821431 558.685414,333.151793 558.355167,334.473197 C556.043512,342.732052 561.657561,340.419607 566.941364,340.749946 L567.271611,340.749946 C568.59255,343.062415 570.574005,346.69631 570.904228,346.69631 C571.564721,347.357035 573.546153,346.035608 573.546153,347.026672 C573.876376,348.348099 571.234475,349.669526 571.564721,350.99093 C572.225191,352.973059 575.197338,352.642719 576.188054,354.294486 C579.820695,360.240849 570.904228,361.231914 568.59255,367.508663 C564.959933,361.231914 558.355167,373.455073 557.034228,377.088945 C556.043512,380.062138 565.950648,392.945976 558.685414,392.285251 L558.355167,393.606678 L558.355167,393.606678 Z" id="be"></path>
        </g>
    </g>
</svg>