<?xml version="1.0" encoding="UTF-8" standalone="no"?>
<svg width="194px" height="148px" viewBox="0 0 194 148" version="1.1" xmlns="http://www.w3.org/2000/svg" xmlns:xlink="http://www.w3.org/1999/xlink">
    <!-- Generator: Sketch 3.6 (26304) - http://www.bohemiancoding.com/sketch -->
    <title>bg</title>
    <desc>Created with Sketch.</desc>
    <defs></defs>
    <g id="Page-1" stroke="none" stroke-width="1" fill="none" fill-rule="evenodd">
        <g id="Group" transform="translate(-428.000000, -276.000000)" fill="#FFFFFF">
            <path d="M569.787464,384.621475 C568.136255,384.291136 566.485069,384.291136 565.494353,384.291136 C552.615046,386.933966 573.420058,396.183886 566.154823,401.799933 C566.154823,401.799933 555.917417,405.103489 555.587217,405.103489 C550.96386,406.755255 543.368356,412.701619 538.414799,412.371256 C537.424083,412.371256 538.084576,410.71949 537.424083,410.389127 C534.121689,408.737384 529.828625,406.755255 526.195985,407.74632 C524.875022,408.076682 524.875022,410.71949 523.554083,411.049852 C522.563367,411.380192 521.902874,409.067746 520.912159,408.737384 C520.251689,408.406998 519.260973,409.728425 518.930727,409.067746 C516.619048,407.74632 515.958579,404.112401 513.3167,403.782062 C511.335222,403.121337 510.344529,406.424893 508.363097,406.755255 C507.042158,407.415934 505.39095,404.773126 504.400234,405.433828 C498.455961,409.067746 496.144283,413.031981 486.897593,416.335537 C482.934752,417.656941 477.981172,416.335537 474.348532,418.648005 C473.027616,419.30873 473.027616,421.951561 471.706653,422.612286 C470.715937,423.603351 469.064706,422.612286 467.743789,422.612286 L463.450679,422.612286 C463.120433,422.942602 463.450679,423.603351 463.450679,423.603351 C464.111149,421.621222 463.450679,404.442764 463.120433,404.442764 C460.808755,402.130272 457.17616,395.523207 454.204012,393.541078 C452.552804,392.550014 450.241149,393.541078 448.259717,392.550014 C447.599224,392.219651 438.682804,385.2822 438.682804,384.621475 C440.333989,381.648282 444.957323,380.987603 443.306114,376.692983 C442.975914,375.371556 441.985198,374.710854 440.994482,374.050152 C440.333989,373.719789 439.343273,374.380491 439.01305,373.719789 C438.682804,372.068023 439.01305,370.416233 439.01305,368.764467 C438.682804,366.782361 436.371125,364.800232 437.361841,363.148443 C446.938754,347.291435 436.040879,366.782361 446.608508,358.523483 C447.599224,357.532419 454.534259,345.309283 452.552804,343.327154 C449.910902,341.345025 437.361841,335.398662 436.701372,334.73796 C432.738508,331.434404 426.463989,317.559502 428.775621,312.60418 C429.766383,310.291688 433.398977,310.622051 434.71994,308.639945 C435.710656,306.327454 434.389693,303.35426 435.380409,301.041769 C439.67352,303.023898 444.957323,304.345325 447.269001,305.666752 C450.241149,306.988179 437.692088,314.255969 443.306114,316.568438 C451.231865,319.871993 453.54352,313.925607 460.808755,313.264882 C470.055422,312.273817 480.95332,317.559502 490.199987,314.255969 C492.181419,313.595244 492.841889,310.952413 494.82332,310.291688 C499.776923,308.639945 505.39095,308.970308 510.674776,309.300624 C517.279541,309.630987 522.233121,312.273817 528.837909,308.30956 C536.103121,303.684623 537.09386,296.747149 542.707886,291.131148 C547.661466,286.175826 559.219811,280.890164 565.494353,278.247287 C580.355093,272.631286 575.731736,280.559778 581.345809,279.8991 C583.98771,279.568737 585.969119,276.595544 588.611044,276.595544 C597.197241,276.265181 586.629635,282.87227 594.555339,278.577673 C595.546055,278.247287 596.206525,276.925906 597.197241,276.595544 C599.17865,275.604479 599.508896,280.229416 601.160082,281.550843 C606.113684,285.845463 614.699859,282.87227 619.983685,281.881205 L620.644177,281.881205 C621.965117,290.140083 622.625609,297.738259 620.313931,299.05964 C618.992969,299.720365 617.341783,297.407874 615.690575,297.738259 C603.47176,301.041769 611.39751,300.71143 607.76487,307.979243 C607.434624,309.300624 605.122968,309.300624 604.462476,310.291688 C604.462476,310.952413 606.443908,310.622051 606.443908,311.282753 C607.1044,316.568438 606.774154,319.871993 608.095116,325.157655 C608.42534,327.139784 610.406771,329.782615 609.416056,331.434404 C608.42534,333.086171 605.453192,332.095106 603.802006,333.086171 C603.47176,333.086171 604.792722,333.746895 604.792722,334.077235 C604.132252,335.398662 602.481044,335.729024 602.150798,337.050405 C601.820574,338.04147 603.802006,339.03258 603.141537,339.693259 C601.820574,341.675388 598.848449,342.33609 597.527487,344.318219 C591.583191,352.246757 606.113684,340.353961 609.746302,349.273564 C610.076548,349.934266 609.085832,350.92533 609.085832,351.586009 C609.416056,351.916372 616.681291,356.210992 618.332499,357.532419 C619.323215,358.853823 620.313931,359.844887 620.644177,360.835952 L619.983685,360.835952 C618.002253,361.166314 616.020821,360.835952 614.039412,361.496677 C611.39751,362.487741 609.416056,364.800232 607.1044,366.451999 C606.443908,366.782361 607.1044,368.103742 606.774154,367.773426 C599.17865,366.121613 596.867018,360.17525 589.271513,364.139507 L583.657441,370.416233 C581.345809,371.407298 578.373661,369.755532 576.722452,371.407298 C574.74102,373.059087 576.722452,376.36262 575.40149,378.344726 C573.420058,380.657217 566.815316,379.666153 569.787464,384.621475 L569.787464,384.621475 Z" id="bg"></path>
        </g>
    </g>
</svg>