<?xml version="1.0" encoding="UTF-8" standalone="no"?>
<svg width="1638px" height="780px" viewBox="0 0 1638 780" version="1.1" xmlns="http://www.w3.org/2000/svg" xmlns:xlink="http://www.w3.org/1999/xlink">
    <!-- Generator: Sketch 3.6 (26304) - http://www.bohemiancoding.com/sketch -->
    <title>Blank_political_map_Europe_in_2008_WF_(with_Kosovo)</title>
    <desc>Created with Sketch.</desc>
    <defs>
        <rect id="path-1" x="0" y="0" width="1638" height="779.39622"></rect>
    </defs>
    <g id="Page-1" stroke="none" stroke-width="1" fill="none" fill-rule="evenodd">
        <g id="Blank_political_map_Europe_in_2008_WF_(with_Kosovo)">
            <g id="Group">
                <mask id="mask-2" fill="white">
                    <use xlink:href="#path-1"></use>
                </mask>
                <use id="maska" xlink:href="#path-1"></use>
                <rect id="ocean" fill="#2096BD" mask="url(#mask-2)" x="-7920.50652" y="-5970.21553" width="12439.3125" height="7965.60815"></rect>
                <g id="outlines" mask="url(#mask-2)" stroke="#FFFFFF" stroke-width="3">
                    <g transform="translate(-6022.738197, -5975.984556)">
                        <path d="M9442.94204,6545.90694 C9448.69864,6540.15231 9454.45625,6537.27484 9457.33455,6530.08137 C9460.21385,6522.88791 9458.7747,6485.48174 9467.41061,6484.0429 C9477.48566,6481.16564 9487.56072,6488.359 9496.19662,6484.0429 C9504.83253,6479.7269 9507.71083,6463.90123 9517.78589,6459.58513 C9539.37615,6448.07547 9611.3417,6462.4625 9631.49181,6436.5659 C9653.08208,6409.23066 9619.9776,6414.9855 9653.08208,6404.91456 C9696.2616,6391.96626 9671.79304,6436.5659 9696.2616,6453.8303 C9706.33666,6459.58513 9717.85086,6403.47583 9732.24438,6391.96626 C9739.44113,6387.65016 9761.03039,6390.52753 9756.71294,6383.33406 C9725.04762,6334.41822 9749.51619,6379.01796 9709.21496,6351.68272 C9687.6257,6337.29569 9691.94315,6305.64425 9690.504,6301.32825 C9687.6257,6297.01215 9645.88532,6291.25732 9641.56787,6291.25732 C9635.81026,6291.25732 9624.29606,6304.20552 9622.8559,6297.01215 C9618.53845,6278.30902 9624.29606,6249.53495 9625.73521,6229.39328 C9625.73521,6222.19971 9628.61351,6213.56751 9627.17436,6206.37404 C9614.221,6171.84534 9605.5851,6222.19971 9592.63074,6199.18058 C9592.63074,6196.30311 9558.08711,6125.80687 9558.08711,6125.80687 C9540.8153,6118.6133 9550.89036,6150.26474 9532.1794,6109.9811 C9529.3011,6102.78774 9532.1794,6091.27817 9529.3011,6084.0846 C9522.10434,6069.69757 9494.75747,6068.25893 9486.12157,6052.43316 C9477.48566,6038.04623 9529.3011,6042.36223 9532.1794,6017.90446 C9535.0577,5980.49829 9481.13898,5930.14393 9567.49804,5951.72433 C9553.10453,5940.21466 9522.10434,5931.58245 9509.14998,5927.26645 C9457.33455,5910.00205 9438.62359,5950.28559 9379.6114,5951.72432 C9375.29395,5951.72432 9386.80815,5941.65339 9383.92985,5938.77592 C9378.17225,5928.70519 9365.21889,5925.82762 9356.58298,5917.19552 C9340.75032,5899.93112 9353.70468,5866.84095 9349.38623,5846.69928 C9340.75032,5809.29301 9296.13165,5812.17058 9284.61744,5802.09964 C9280.29898,5797.78354 9281.73814,5789.15134 9277.42068,5784.83524 C9273.10223,5780.51914 9267.34563,5779.08041 9263.02717,5780.51914 C9255.83042,5783.39651 9251.51297,5792.02871 9244.31621,5793.46744 C9239.99776,5793.46744 9239.99776,5784.83524 9235.68031,5783.39651 C9231.36185,5783.39651 9227.0444,5793.46744 9225.60525,5789.15134 C9222.72595,5784.83524 9231.36185,5780.51914 9231.36185,5774.76431 C9232.80201,5764.69337 9211.21174,5770.44821 9201.13668,5767.57084 C9192.50078,5766.13211 9185.30402,5760.37727 9176.66812,5760.37727 C9173.78982,5760.37727 9176.66812,5767.57084 9175.22897,5769.00947 C9150.7604,5774.76431 9170.91051,5754.62244 9163.71476,5748.86781 C9159.39631,5745.99024 9155.07886,5753.18381 9150.7604,5756.06117 C9145.0028,5758.93854 9134.92774,5758.93854 9132.04944,5764.69337 C9127.73098,5773.32557 9136.36689,5784.83524 9132.04944,5793.46744 C9127.73098,5799.22208 9119.09508,5797.78354 9113.33848,5799.22208 C9094.62752,5804.97691 9071.5981,5803.53838 9055.76544,5816.48658 C9050.00783,5820.80268 9054.32629,5832.31225 9047.12953,5838.06708 C9041.37293,5842.38318 9032.73703,5839.50581 9025.54027,5839.50581 C9018.34352,5839.50581 9011.14676,5840.94445 9002.51086,5840.94445 C8990.99665,5875.47335 8980.92159,5902.80848 8950.69542,5931.58245 C8946.37797,5935.89855 8939.18122,5934.45982 8936.30191,5938.77592 C8917.59095,5960.35652 8896.00169,6016.46573 8867.21567,6029.41403 C8860.01892,6032.2915 8849.94386,6023.6593 8842.74711,6025.09793 C8836.9895,6026.53666 8835.55035,6036.6076 8829.79274,6038.04623 C8824.03514,6039.48496 8818.27854,6035.16886 8812.52093,6035.16886 C8806.76333,6036.6076 8802.44588,6043.80106 8795.24912,6042.36223 C8793.80997,6042.36223 8766.46311,6027.9754 8757.8272,6035.16886 C8750.63044,6040.9237 8750.63044,6050.99443 8744.87284,6055.31073 C8739.11624,6058.188 8731.91948,6052.43316 8726.16188,6055.31073 C8720.40528,6059.62683 8720.40528,6066.8202 8714.64767,6071.1363 C8706.01177,6078.32977 8693.05741,6079.7685 8684.4215,6086.96197 C8670.02899,6099.91037 8668.58984,6109.9811 8652.75718,6121.49077 C8634.04622,6135.87781 8587.98739,6143.07127 8566.39813,6143.07127 C8514.58269,6143.07127 8572.15473,6137.31644 8541.92956,6125.80687 C8524.65775,6120.05204 8520.3403,6151.70347 8514.58269,6154.58084 C8504.50764,6158.89694 8491.55328,6153.14221 8480.03897,6151.70347 C8478.59962,6150.26474 8478.59962,6145.94864 8475.72102,6145.94864 C8464.20641,6147.38737 8454.13135,6157.45831 8441.1775,6156.01957 C8436.85954,6156.01957 8438.29879,6144.51001 8433.98084,6141.63254 C8426.78429,6137.31644 8416.70903,6133.00034 8406.63377,6133.00034 C8350.50049,6134.43907 8377.84755,6190.54828 8321.71417,6166.09051 C8304.44236,6157.45831 8295.80645,6112.85867 8277.09529,6115.73594 C8269.89884,6115.73594 8269.89884,6133.00034 8262.70218,6130.12297 C8256.94498,6128.68424 8268.45948,6111.41994 8261.26293,6111.41994 C8246.86972,6112.85867 8223.84061,6166.09051 8173.46452,6147.38737 C8120.20984,6127.24571 8150.43541,6099.91037 8147.55691,6097.0329 C8140.36015,6088.4007 8127.40639,6094.15554 8117.33124,6094.15554 C8113.01328,6094.15554 8108.69523,6091.27817 8107.25598,6094.15554 C8102.93803,6101.349 8105.81663,6112.85867 8100.05933,6120.05204 C8084.22697,6148.82611 7934.53797,6168.96787 7897.11585,6184.79354 C7879.84393,6190.54828 7865.45083,6213.56751 7852.49687,6225.07718 C7840.98236,6236.58665 7820.83195,6240.90275 7807.87809,6249.53495 C7771.89511,6278.30902 7747.42685,6322.90865 7714.32248,6358.87619 C7705.68667,6368.94713 7691.29346,6384.77269 7681.21831,6391.96626 C7679.77896,6393.40489 7672.5823,6391.96626 7672.5823,6394.84363 C7666.8251,6423.6177 7688.41486,6423.6177 7661.06779,6443.75937 C7658.18929,6446.63673 7650.99254,6443.75937 7646.67458,6445.1981 C7612.13106,6458.1464 7639.47813,6462.4625 7594.85935,6463.90123 C7579.02679,6463.90123 7538.72586,6452.39157 7524.33266,6458.1464 C7520.0147,6459.58513 7521.45415,6466.7786 7517.1362,6469.65597 C7501.30374,6484.0429 7472.51732,6489.79784 7452.36691,6491.23657 C7427.89854,6494.11384 7371.76516,6495.55267 7370.32591,6498.42994 C7364.5686,6511.37824 7361.69,6525.76527 7358.8113,6540.15231 C7354.49335,6558.85544 7390.47632,6558.85544 7394.79427,6560.29398 C7397.67297,6560.29398 7401.99093,6560.29398 7403.43008,6563.17144 C7404.86943,6567.48754 7397.67297,6573.24228 7400.55158,6574.68101 C7404.86943,6576.11974 7407.74803,6567.48754 7412.06598,6567.48754 C7414.94469,6568.92618 7413.50533,6576.11974 7416.38394,6576.11974 C7443.731,6578.99711 7468.19937,6551.66177 7496.98569,6554.53914 C7521.45415,6555.97787 7453.80626,6583.31321 7448.04896,6584.75194 C7443.731,6584.75194 7443.731,6574.68101 7440.8524,6576.11974 C7437.9738,6577.55838 7354.49335,6630.79032 7348.73604,6636.54505 C7328.58573,6663.88038 7422.14124,6620.71938 7394.79427,6661.00302 C7389.03687,6668.19648 7331.46433,6672.51248 7311.31392,6675.39005 C7272.45224,6681.14469 7239.34807,6705.60265 7237.90872,6704.16392 C7232.15142,6696.97045 7252.30193,6682.58342 7245.10528,6676.82859 C7236.46937,6669.63522 7222.07636,6676.82859 7210.56175,6678.26732 C7207.68315,6685.46079 7222.07636,6689.77689 7220.63691,6699.84782 C7216.31906,6714.23486 7199.04725,6722.86706 7184.65404,6727.18316 C7154.42847,6738.69282 7147.23171,6707.04139 7140.03526,6705.60265 C7121.3241,6702.72529 7112.68819,6728.62189 7098.29498,6731.49926 C7092.53768,6732.93799 7069.50876,6731.49926 7060.87276,6741.57009 C7052.23685,6751.64103 7050.7976,6767.46669 7042.1617,6777.53763 C7037.84384,6781.85373 7030.64709,6778.97636 7027.76859,6783.29246 C7024.88978,6789.0472 7029.20774,6794.80203 7029.20774,6799.11803 C7027.76859,6806.3115 7027.76859,6814.9438 7023.45063,6820.69853 C7014.81473,6829.33073 6998.98217,6822.13726 6998.98217,6837.96293 C7000.42152,6860.98207 7011.93603,6872.49174 7011.93603,6889.75614 C7013.37538,6895.51097 6994.66421,6928.60094 7016.25398,6931.47851 C7019.13268,6931.47851 7108.37024,6888.3174 7118.44549,6885.44004 C7121.3241,6899.82707 7108.37024,6930.03967 7098.29498,6944.42671 C7096.85563,6947.30408 7083.90177,6942.98798 7092.53768,6948.74281 C7101.17358,6955.93628 7134.27795,6955.93628 7138.59591,6977.51668 C7138.59591,6984.71035 7124.2027,6994.78128 7129.96,7001.97465 C7134.27795,7004.85201 7178.89673,6989.02645 7171.70018,7007.72948 C7164.50352,7029.30998 7121.3241,7046.57428 7129.96,7059.52259 C7138.59591,7072.47089 7163.06427,7092.61276 7165.94288,7089.73529 C7171.70018,7085.41919 7178.89673,7082.54182 7184.65404,7081.10309 C7190.41134,7079.66445 7203.3652,7075.34835 7203.3652,7081.10309 C7201.92585,7083.98055 7158.74642,7111.31589 7152.98912,7111.31589 C7145.79256,7112.75442 7141.47461,7095.49012 7135.71731,7099.80622 C7128.52065,7105.56106 7145.79256,7127.14146 7138.59591,7124.26409 C7135.71731,7124.26409 7111.24884,7069.59352 7102.61293,7065.27742 C7098.29498,7062.40005 7088.21972,7060.96132 7085.34122,7066.71615 C7081.02327,7075.34835 7088.21972,7086.85792 7089.65908,7096.92886 C7089.65908,7101.24496 7085.34122,7105.56106 7088.21972,7106.99979 C7095.41648,7109.87716 7111.24884,7102.68369 7109.80959,7108.43832 C7106.93089,7119.94799 7093.97703,7125.70272 7083.90177,7131.45756 C7081.02327,7131.45756 7078.14467,7122.82536 7076.70532,7125.70272 C7075.26597,7128.58019 7082.46262,7131.45756 7081.02327,7134.33503 C7081.02327,7138.65113 7069.50876,7142.96723 7073.82672,7145.84459 C7082.46262,7151.59943 7093.97703,7145.84459 7104.05229,7148.72196 C7106.93089,7148.72196 7129.96,7167.42499 7132.8386,7164.54773 C7141.47461,7157.35416 7142.91386,7142.96723 7152.98912,7137.21239 C7164.50352,7131.45756 7163.06427,7163.10899 7174.57878,7167.42499 C7180.33608,7168.86383 7184.65404,7157.35416 7190.41134,7157.35416 C7197.6079,7157.35416 7236.46937,7168.86383 7236.46937,7168.86383 C7237.90872,7171.74109 7246.54463,7206.27 7240.78732,7213.46347 C7232.15142,7222.09567 7197.6079,7229.28903 7209.1223,7233.60513 C7220.63691,7236.4827 7233.59077,7232.1666 7243.66603,7237.92123 C7255.18053,7246.55354 7235.03012,7279.6436 7249.42333,7281.08234 C7262.37719,7282.52107 7268.13429,7260.94047 7279.649,7260.94047 C7291.16341,7262.3792 7295.48136,7278.20497 7305.55661,7283.95971 C7308.43522,7285.39844 7314.19252,7278.20497 7314.19252,7281.08234 C7335.78218,7351.57858 7212.00111,7278.20497 7266.69514,7338.63028 C7273.89169,7345.82364 7285.4063,7331.43681 7294.04211,7331.43681 C7308.43522,7331.43681 7302.67801,7347.26248 7318.51047,7338.63028 C7321.38918,7337.19154 7315.63187,7332.87544 7317.07112,7332.87544 C7327.14638,7327.12071 7338.66099,7332.87544 7348.73604,7328.55934 C7360.25065,7322.80461 7387.59772,7309.85621 7394.79427,7306.97884 C7406.30888,7302.66274 7422.14124,7288.27581 7429.33789,7298.34664 C7456.68476,7332.87544 7387.59772,7319.92714 7387.59772,7331.43681 C7387.59772,7340.06901 7401.99093,7348.70121 7396.23362,7354.45604 C7387.59772,7363.08825 7373.20451,7354.45604 7361.69,7357.33341 C7338.66099,7363.08825 7318.51047,7381.79118 7299.79931,7394.73958 C7292.60276,7400.49432 7318.51047,7391.86211 7327.14638,7390.42348 C7334.34303,7390.42348 7341.53949,7396.17821 7345.85744,7393.30085 C7351.61474,7388.98475 7344.41809,7377.47508 7350.17539,7373.15898 C7358.8113,7367.40425 7370.32591,7370.28161 7380.40106,7368.84288 C7410.62673,7360.21068 7406.30888,7345.82364 7407.74803,7348.70121 C7426.45919,7390.42348 7406.30888,7377.47508 7393.35502,7390.42348 C7390.47632,7393.30085 7401.99093,7397.61695 7404.86943,7394.73958 C7407.74803,7390.42348 7449.48831,7342.94638 7449.48831,7341.50764 C7453.80626,7334.31418 7449.48831,7322.80461 7455.24561,7319.92714 C7492.66774,7302.66274 7475.39592,7340.06901 7485.47118,7348.70121 C7494.10709,7354.45604 7508.5003,7351.57858 7518.57555,7355.89458 C7521.45415,7355.89458 7521.45415,7363.08825 7522.89351,7361.64941 C7537.28671,7348.70121 7509.93965,7329.99808 7530.08996,7327.12071 C7570.39089,7319.92714 7567.51228,7384.66865 7570.39089,7387.54601 C7600.61645,7409.12652 7623.64557,7397.61695 7655.31049,7400.49432 C7659.62844,7400.49432 7661.06779,7413.44252 7668.26435,7412.00398 C7681.21831,7410.56525 7728.71569,7364.52678 7731.59429,7363.08825 C7738.79094,7354.45604 7760.38071,7351.57858 7769.01661,7355.89458 C7771.89511,7357.33341 7769.01661,7370.28161 7771.89511,7367.40425 C7779.09187,7360.21068 7783.40972,7348.70121 7783.40972,7338.63028 C7783.40972,7332.87544 7773.33457,7332.87544 7773.33457,7328.55934 C7771.89511,7319.92714 7779.09187,7311.29494 7781.97037,7302.66274 C7787.72768,7285.39844 7758.94136,7262.3792 7774.77392,7240.7987 C7780.53102,7233.60513 7849.61826,7220.65693 7861.13287,7219.2183 C7865.45083,7219.2183 7990.67136,7232.1666 7993.54996,7233.60513 C8049.68334,7249.4309 8039.60809,7291.15327 8114.45254,7296.90791 C8151.87476,7299.78547 8120.20984,7289.71454 8150.43541,7272.45014 C8157.63216,7268.13404 8167.70722,7275.3275 8174.90387,7271.0114 C8179.22183,7268.13404 8174.90387,7259.50184 8177.78248,7256.62437 C8187.85773,7249.4309 8232.47651,7243.67607 8238.23381,7240.7987 C8243.99102,7236.4827 8245.43037,7226.41177 8251.18767,7222.09567 C8255.50563,7220.65693 8255.50563,7230.72787 8259.82358,7229.28903 C8261.26293,7229.28903 8275.65594,7186.12813 8278.53474,7187.56686 C8285.7312,7187.56686 8288.6098,7203.39253 8295.80645,7200.51516 C8324.59267,7191.88296 8301.56376,7174.61866 8303.00301,7161.67016 C8307.32096,7134.33503 8338.98588,7094.05139 8353.37909,7072.47089 C8382.16551,7033.62608 8467.08511,7082.54182 8477.16037,7075.34835 C8485.79627,7068.15479 8488.67498,7056.64522 8497.31088,7050.89038 C8500.18918,7048.01312 8540.49041,7056.64522 8520.3403,7024.99388 C8517.46099,7020.67778 8510.26424,7030.74872 8503.06849,7029.30998 C8498.75003,7027.87125 8507.38594,7022.11642 8511.70439,7019.23905 C8517.46099,7013.48421 8527.53605,7010.60685 8533.29365,7004.85201 C8541.92956,6993.34245 8539.05126,6970.32331 8553.44377,6967.44594 C8573.59488,6961.69111 8593.74499,6991.90371 8598.06345,7007.72948 C8599.5026,7014.92295 8550.56547,7079.66445 8554.88292,7089.73529 C8563.51882,7108.43832 8598.06345,7112.75442 8600.94175,7135.77366 C8602.3809,7140.08976 8599.5026,7145.84459 8595.18414,7151.59943 C8605.2592,7147.28333 8632.60607,7165.98626 8638.36367,7158.79289 C8645.56043,7151.59943 8634.04622,7138.65113 8636.92452,7128.58019 C8639.80282,7121.38662 8652.75718,7119.94799 8655.63548,7112.75442 L8646.99958,7075.34835 C8646.99958,7072.47089 8688.73995,7058.08385 8691.61826,7055.20648 C8694.49756,7050.89038 8668.58984,7035.06482 8665.71054,7032.18735 C8654.19633,7017.80032 8642.68213,6966.00721 8651.31803,6950.18144 C8654.19633,6945.86534 8707.45092,6944.42671 8713.20852,6950.18144 C8714.64767,6951.62018 8706.01177,6976.07815 8723.28358,6966.00721 C8727.60103,6963.12984 8724.72273,6955.93628 8727.60103,6954.49764 C8741.99454,6945.86534 8760.7055,6950.18144 8775.09901,6941.54924 C8815.39923,6921.40757 8838.42865,6845.1565 8891.68323,6840.8404 C8911.83435,6839.40167 8931.98446,6856.66597 8953.57372,6856.66597 C8995.3141,6856.66597 9042.81208,6820.69853 9077.35571,6799.11803 C9133.48859,6763.15059 9159.39631,6696.97045 9212.65089,6658.12555 C9245.75536,6635.10642 9293.25335,6630.79032 9327.79596,6607.77118 C9343.62862,6597.70025 9373.8548,6580.43584 9383.92985,6561.73271 C9389.68746,6551.66177 9394.00491,6512.81697 9419.91262,6538.71357 C9425.67023,6543.02967 9429.98768,6550.22304 9432.86698,6557.41661 C9435.74529,6554.53914 9440.06274,6550.22304 9442.94204,6545.90694 Z M7181.77544,6402.03709 L7178.89673,6402.03709 C7170.26083,6403.47583 7161.62492,6402.03709 7152.98912,6404.91456 C7141.47461,6409.23066 7132.8386,6419.3016 7122.76345,6426.49506 C7119.88475,6427.9338 7122.76345,6433.68843 7121.3241,6432.2499 C7088.21972,6425.05623 7078.14467,6399.15973 7045.0403,6416.42413 L7020.57183,6443.75937 C7010.49678,6448.07547 6997.54292,6440.882 6990.34626,6448.07547 C6981.71036,6455.26903 6990.34626,6469.65597 6984.58896,6478.28807 C6975.95305,6488.359 6947.16683,6484.0429 6960.12069,6505.6234 C6991.78561,6512.81697 7034.96504,6543.02967 7013.37538,6568.92618 C6997.54292,6586.19058 6981.71036,6577.55838 6975.95305,6606.33245 L6987.46766,6648.05472 C6986.02831,6658.12555 6965.878,6691.21562 6955.80274,6696.97045 L6954.36339,6712.79612 C6957.24189,6715.67359 6962.99919,6717.11222 6970.19595,6719.98969 C6991.78561,6727.18316 7076.70532,6668.19648 7070.94801,6696.97045 C7068.06941,6717.11222 6997.54292,6745.88619 6994.66421,6768.90543 C6994.66421,6773.22153 7003.30012,6774.66026 7004.73947,6778.97636 C7006.17882,6783.29246 7006.17882,6787.60856 7004.73947,6791.92466 C7003.30012,6800.55686 6993.22486,6825.01463 7000.42152,6819.2599 C7027.76859,6796.24076 7033.52589,6758.83449 7056.5548,6728.62189 C7076.70532,6699.84782 7114.12754,6694.09299 7132.8386,6662.44155 C7138.59591,6652.37082 7144.35321,6640.86115 7148.67116,6629.35158 C7150.11052,6620.71938 7144.35321,6610.64855 7150.11052,6603.45508 C7174.57878,6571.80364 7184.65404,6600.57761 7213.44046,6590.50668 C7217.75841,6589.06804 7214.87961,6580.43584 7219.19756,6576.11974 C7227.83346,6568.92618 7236.46937,6563.17144 7247.98398,6560.29398 C7281.08815,6548.78451 7296.92071,6584.75194 7289.72415,6548.78451 C7286.84545,6541.59084 7295.48136,6568.92618 7302.67801,6567.48754 C7314.19252,6566.04881 7350.17539,6558.85544 7354.49335,6547.34577 C7358.8113,6538.71357 7353.054,6528.64264 7355.9327,6518.57171 C7355.9327,6512.81697 7367.4472,6502.74604 7360.25065,6499.86867 C7330.02508,6489.79784 7260.93784,6501.3073 7223.51551,6478.28807 C7167.38223,6443.75937 7190.41134,6425.05623 7181.77544,6402.03709 L7181.77544,6402.03709 Z" id="tr" fill="#87B024"></path>
                        <path d="M7096.85563,6056.74926 C7089.65908,6050.99443 7088.21972,6030.85276 7079.58392,6035.16886 C7075.26597,6036.6076 7072.38737,6042.36223 7068.06941,6043.80106 C7033.52589,6062.5041 7079.58392,6033.73013 7042.1617,6035.16886 C7030.64709,6035.16886 7022.01128,6048.11716 7010.49678,6049.5559 C6986.02831,6052.43316 7006.17882,6017.90446 6941.40953,6042.36223 C6914.06246,6053.872 6863.68638,6076.89113 6842.09662,6098.47164 C6817.62835,6122.9294 6813.3103,6153.14221 6781.64548,6173.28387 C6752.85906,6190.54828 6731.2693,6179.03871 6702.48298,6177.59998 C6679.45386,6176.16144 6654.9856,6174.72271 6633.39573,6181.91608 C6624.75983,6184.79354 6621.88123,6196.30311 6613.24532,6199.18058 C6572.94449,6213.56751 6525.44691,6190.54828 6485.14609,6194.86438 C6453.48117,6197.74184 6443.40601,6223.63845 6408.86229,6209.25141 C6384.39402,6199.18058 6439.08806,6167.52924 6426.1342,6161.77441 C6403.10518,6151.70347 6334.01794,6137.31644 6338.33589,6099.91037 C6339.77524,6086.96197 6387.27262,6085.52333 6372.87941,6078.32977 C6220.31182,6002.07869 6357.04695,6071.1363 6295.15637,6107.10384 C6285.08111,6114.2972 6279.3238,6088.4007 6269.24865,6084.0846 C6262.05209,6079.7685 6251.97684,6084.0846 6244.78028,6084.0846 C6236.14438,6084.0846 6227.50847,6088.4007 6218.87267,6085.52333 C6214.55471,6082.64587 6217.43332,6075.4524 6214.55471,6069.69757 C6207.35806,6055.31073 6145.46747,6078.32977 6180.01099,6053.872 C6188.6469,6048.11716 6210.23676,6042.36223 6203.04011,6036.6076 C6195.84355,6032.2915 6181.45034,6036.6076 6178.57174,6027.9754 C6177.13239,6019.3432 6207.35806,6003.51743 6187.20765,5992.00796 C6159.86068,5976.18219 6105.16654,5983.37576 6086.45548,5950.28559 C6082.13753,5943.09202 6082.13753,5908.56332 6082.13753,5899.93112 L6082.13753,5897.05375 C6077.81958,5898.49238 6074.94097,5907.12459 6072.06227,5904.24722 C6061.98712,5898.49238 6060.54776,5882.66672 6051.91186,5875.47335 C6043.27595,5869.71852 6030.3222,5871.15705 6021.68609,5863.96358 C6013.05028,5859.64758 6008.73233,5849.57665 6002.97513,5842.38318 C6005.85373,5840.94445 6007.29308,5835.18961 6010.17168,5833.75098 C6018.80759,5830.87351 6061.98712,5826.55741 6064.86572,5816.48658 C6067.74432,5810.73174 6046.15455,5803.53838 6072.06227,5799.22208 C6082.13753,5797.78354 6092.21278,5807.85448 6100.84859,5804.97691 C6128.19566,5794.90598 6119.55975,5743.11287 6126.75631,5727.2872 C6129.63491,5722.9711 6136.83156,5722.9711 6139.71017,5718.655 L6155.54273,5668.30063 C6158.42123,5661.10706 6162.73918,5655.35223 6162.73918,5648.15876 C6162.73918,5645.2814 6155.54273,5645.2814 6155.54273,5642.40393 C6156.98188,5629.45563 6172.81444,5589.17209 6180.01099,5577.66252 C6182.88969,5574.78506 6190.08625,5577.66252 6190.08625,5573.34642 C6197.2828,5546.01119 6187.20765,5525.86932 6218.87267,5495.65662 C6228.94772,5484.14715 6240.46233,5491.34062 6256.29479,5485.58578 C6272.12735,5478.39232 6273.5665,5456.81181 6285.08111,5445.30215 C6289.39906,5448.17961 6298.03497,5442.42478 6308.11022,5415.08954 C6309.54947,5412.21218 6309.54947,5407.89608 6312.42818,5407.89608 C6316.74613,5407.89608 6352.729,5425.16048 6357.04695,5425.16048 C6359.92556,5425.16048 6361.36491,5417.96691 6364.24351,5416.52828 C6382.95467,5409.33471 6430.45215,5428.03784 6453.48117,5422.28301 C6466.43513,5417.96691 6475.07103,5406.45734 6488.02479,5405.01861 C6511.0539,5403.57987 6526.88626,5433.79268 6542.71882,5438.10868 C6564.30859,5445.30215 6571.50514,5405.01861 6577.26245,5399.26377 C6603.17006,5371.92864 6669.37861,5374.80591 6689.52912,5354.66414 C6728.39059,5317.25797 6672.25731,5348.9094 6699.60438,5312.94197 C6706.80093,5304.30977 6718.31554,5297.1162 6729.82994,5294.23883 L6731.2693,5289.92273 C6731.2693,5289.92273 6732.60347,5289.38201 6735.58725,5288.484 C6737.02499,5288.05129 6746.18426,5283.15934 6755.58876,5284.36168 C6765.70173,5285.65459 6776.3204,5293.28446 6784.52398,5299.99367 C6814.74965,5321.57407 6820.50695,5357.5416 6844.97522,5381.99937 C6885.27614,5420.84438 6994.66421,5489.90178 7007.61807,5546.01119 C7017.69333,5581.97862 7004.73947,5622.26216 7013.37538,5658.2297 C7016.25398,5674.05526 7042.1617,5710.0228 7040.72234,5725.84857 C7040.72234,5731.6034 7029.20774,5733.04204 7030.64709,5738.79687 C7032.08654,5744.55171 7040.72234,5741.67414 7045.0403,5744.55171 C7049.35825,5747.42897 7049.35825,5757.49991 7055.11555,5757.49991 C7057.99416,5758.93854 7062.31211,5756.06117 7065.19071,5758.93854 C7069.50876,5763.25464 7068.06941,5771.88694 7073.82672,5776.20304 C7079.58392,5781.95777 7141.47461,5784.83524 7140.03526,5777.64167 C7140.03526,5776.20304 7119.88475,5771.88694 7134.27795,5763.25464 C7142.91386,5758.93854 7152.98912,5760.37727 7161.62492,5756.06117 C7176.01813,5748.86781 7181.77544,5728.72594 7197.6079,5722.9711 C7229.27282,5711.46154 7245.10528,5722.9711 7252.30193,5750.30634 C7250.86258,5751.74507 7246.54463,5750.30634 7246.54463,5751.74507 C7246.54463,5756.06117 7249.42333,5758.93854 7252.30193,5760.37727 C7255.18053,5761.81601 7258.05923,5756.06117 7259.49849,5758.93854 C7262.37719,5764.69337 7263.81644,5813.60911 7263.81644,5819.36394 C7262.37719,5838.06708 7219.19756,5839.50581 7207.68315,5848.13801 C7200.4865,5853.89275 7200.4865,5874.03452 7191.85059,5872.59578 C7190.41134,5871.15705 7201.92585,5823.68004 7181.77544,5812.17058 C7174.57878,5809.29301 7165.94288,5820.80268 7161.62492,5827.99615 C7155.86762,5838.06708 7181.77544,5846.69928 7180.33608,5858.20875 C7180.33608,5869.71852 7158.74642,5876.91188 7164.50352,5885.54408 C7170.26083,5894.17628 7181.77544,5872.59578 7191.85059,5872.59578 C7194.72929,5871.15705 7190.41134,5879.78935 7187.53264,5882.66672 C7186.09339,5884.10545 7184.65404,5885.54408 7181.77544,5886.98282 C7183.21469,5885.54408 7184.65404,5885.54408 7186.09339,5886.98282 C7194.72929,5894.17628 7160.18557,5950.28559 7160.18557,5951.72432 C7161.62492,5961.79516 7174.57878,6012.14963 7181.77544,6058.188 C7155.86762,6062.5041 7118.44549,6075.4524 7096.85563,6056.74926 Z" id="ro" fill="#87B024"></path>
                        <path d="M6960.12069,6505.6234 C6952.92404,6504.18477 6945.72748,6504.18477 6941.40953,6504.18477 C6885.27614,6515.69434 6975.95305,6555.97787 6944.28813,6580.43584 C6944.28813,6580.43584 6899.66925,6594.82288 6898.2301,6594.82288 C6878.07959,6602.01635 6844.97522,6627.91285 6823.38555,6626.47411 C6819.0676,6626.47411 6821.9463,6619.28065 6819.0676,6617.84191 C6804.67439,6610.64855 6785.96343,6602.01635 6770.13087,6606.33245 C6764.37357,6607.77118 6764.37357,6619.28065 6758.61636,6620.71938 C6754.29841,6622.15801 6751.41971,6612.08728 6747.10176,6610.64855 C6744.22315,6609.20971 6739.9052,6614.96455 6738.46585,6612.08728 C6728.39059,6606.33245 6725.51199,6590.50668 6713.99758,6589.06804 C6705.36148,6586.19058 6701.04363,6600.57761 6692.40772,6602.01635 C6686.65052,6604.89361 6679.45386,6593.38415 6675.13591,6596.26151 C6649.22829,6612.08728 6639.15304,6629.35158 6598.85211,6643.73862 C6581.5804,6649.49335 6559.99064,6643.73862 6544.15808,6653.80945 C6538.40097,6656.68692 6538.40097,6668.19648 6532.64367,6671.07395 C6528.32572,6675.39005 6521.12896,6671.07395 6515.37186,6671.07395 L6496.66069,6671.07395 C6495.22134,6672.51248 6496.66069,6675.39005 6496.66069,6675.39005 C6499.5393,6666.75785 6496.66069,6591.94541 6495.22134,6591.94541 C6485.14609,6581.87448 6469.31373,6553.10061 6456.35987,6544.46841 C6449.16321,6540.15231 6439.08806,6544.46841 6430.45215,6540.15231 C6427.57345,6538.71357 6388.71198,6508.50087 6388.71198,6505.6234 C6395.90853,6492.6751 6416.05894,6489.79784 6408.86229,6471.0947 C6407.42314,6465.33987 6403.10518,6462.4625 6398.78723,6459.58513 C6395.90853,6458.1464 6391.59058,6461.02377 6390.15133,6458.1464 C6388.71198,6450.95293 6390.15133,6443.75937 6390.15133,6436.5659 C6388.71198,6427.9338 6378.63672,6419.3016 6382.95467,6412.10803 C6424.69485,6343.05052 6377.19737,6427.9338 6423.2555,6391.96626 C6427.57345,6387.65016 6457.79922,6334.41822 6449.16321,6325.78602 C6437.64871,6317.15382 6382.95467,6291.25732 6380.07607,6288.37995 C6362.80426,6273.99292 6335.45729,6213.56751 6345.53235,6191.98701 C6349.8505,6181.91608 6365.68286,6183.35481 6371.44016,6174.72271 C6375.75812,6164.65177 6370.00081,6151.70347 6374.31877,6141.63254 C6393.02993,6150.26474 6416.05894,6156.01957 6426.1342,6161.77441 C6439.08806,6167.52924 6384.39402,6199.18058 6408.86229,6209.25141 C6443.40601,6223.63845 6453.48117,6197.74184 6485.14609,6194.86438 C6525.44691,6190.54828 6572.94449,6213.56751 6613.24532,6199.18058 C6621.88123,6196.30311 6624.75983,6184.79354 6633.39573,6181.91608 C6654.9856,6174.72271 6679.45386,6176.16144 6702.48298,6177.59998 C6731.2693,6179.03871 6752.85906,6190.54828 6781.64548,6173.28387 C6813.3103,6153.14221 6817.62835,6122.9294 6842.09662,6098.47164 C6863.68638,6076.89113 6914.06246,6053.872 6941.40953,6042.36223 C7006.17882,6017.90446 6986.02831,6052.43316 7010.49678,6049.5559 C7022.01128,6048.11716 7030.64709,6035.16886 7042.1617,6035.16886 C7079.58392,6033.73013 7033.52589,6062.5041 7068.06941,6043.80106 C7072.38737,6042.36223 7075.26597,6036.6076 7079.58392,6035.16886 C7088.21972,6030.85276 7089.65908,6050.99443 7096.85563,6056.74926 C7118.44549,6075.4524 7155.86762,6062.5041 7178.89673,6058.188 L7181.77544,6058.188 C7187.53264,6094.15554 7190.41134,6127.24571 7180.33608,6133.00034 C7174.57878,6135.87781 7167.38223,6125.80687 7160.18557,6127.24571 C7106.93089,6141.63254 7141.47461,6140.19391 7125.64205,6171.84534 C7124.2027,6177.59998 7114.12754,6177.59998 7111.24884,6181.91608 C7111.24884,6184.79354 7119.88475,6183.35481 7119.88475,6186.23218 C7122.76345,6209.25141 7121.3241,6223.63845 7127.0814,6246.65758 C7128.52065,6255.28978 7137.15656,6266.79935 7132.8386,6273.99292 C7128.52065,6281.18638 7115.56679,6276.87028 7108.37024,6281.18638 C7106.93089,6281.18638 7112.68819,6284.06385 7112.68819,6285.50248 C7109.80959,6291.25732 7102.61293,6292.69605 7101.17358,6298.45069 C7099.73433,6302.76679 7108.37024,6307.08309 7105.49164,6309.96035 C7099.73433,6318.59255 7086.78057,6321.46992 7081.02327,6330.10212 C7055.11555,6364.63103 7118.44549,6312.83772 7134.27795,6351.68272 C7135.71731,6354.56009 7131.39935,6358.87619 7131.39935,6361.75346 C7132.8386,6363.19219 7164.50352,6381.89533 7171.70018,6387.65016 C7176.01813,6393.40489 7180.33608,6397.72099 7181.77544,6402.03709 L7178.89673,6402.03709 C7170.26083,6403.47583 7161.62492,6402.03709 7152.98912,6404.91456 C7141.47461,6409.23066 7132.8386,6419.3016 7122.76345,6426.49506 C7119.88475,6427.9338 7122.76345,6433.68843 7121.3241,6432.2499 C7088.21972,6425.05623 7078.14467,6399.15973 7045.0403,6416.42413 L7020.57183,6443.75937 C7010.49678,6448.07547 6997.54292,6440.882 6990.34626,6448.07547 C6981.71036,6455.26903 6990.34626,6469.65597 6984.58896,6478.28807 C6975.95305,6488.359 6947.16683,6484.0429 6960.12069,6505.6234 L6960.12069,6505.6234 Z" id="bg" fill="#FFFFFF"></path>
                        <path d="M6250.53759,6852.34997 C6236.14438,6907.02054 6227.50847,6859.54354 6217.43332,6898.38834 C6217.43332,6898.38834 6208.79741,6955.93628 6208.79741,6957.37501 C6205.91881,6961.69111 6161.29983,6976.07815 6159.86068,6986.14888 L6178.57174,7014.92295 C6182.88969,7027.87125 6162.73918,7014.92295 6162.73918,7023.55515 C6164.17853,7060.96132 6148.34607,7040.81945 6123.87771,7045.13555 C6122.43835,7045.13555 6125.31696,7046.57428 6123.87771,7048.01312 C6122.43835,7049.45165 6122.43835,7049.45165 6120.999,7050.89038 C6119.55975,7049.45165 6119.55975,7048.01312 6118.1204,7045.13555 L6118.1204,7036.50345 C6118.1204,7027.87125 6122.43835,7020.67778 6119.55975,7013.48421 C6116.68105,7009.16811 6108.04514,7013.48421 6105.16654,7009.16811 C6097.97009,7003.41338 6099.40924,6991.90371 6093.65194,6986.14888 C6083.57688,6973.20068 5991.46052,6948.74281 6001.53578,6925.72357 C6005.85373,6915.65274 6026.00424,6927.16241 6030.3222,6918.53021 C6031.76135,6915.65274 6002.97513,6896.9496 5998.65717,6881.12394 C5997.21782,6876.80784 6004.41438,6875.3691 6004.41438,6871.053 C6005.85373,6865.29817 6004.41438,6858.1048 6005.85373,6852.34997 C6005.85373,6845.1565 6001.53578,6837.96293 6005.85373,6833.64683 C6008.73233,6827.8921 6020.24694,6832.2082 6024.56489,6827.8921 C6027.44349,6823.576 6024.56489,6812.06633 6020.24694,6812.06633 C6014.48963,6813.50506 6018.80759,6825.01463 6014.48963,6829.33073 C6005.85373,6836.5243 6014.48963,6780.41499 6015.92899,6766.02796 C6018.80759,6748.76356 5994.33922,6757.39576 5994.33922,6740.13136 C5994.33922,6727.18316 5992.89987,6714.23486 6000.09643,6704.16392 C6004.41438,6698.40909 6017.36824,6704.16392 6023.12554,6698.40909 C6026.00424,6695.53172 6015.92899,6694.09299 6014.48963,6689.77689 C6013.05028,6679.70615 6023.12554,6665.31912 6015.92899,6658.12555 C6007.29308,6649.49335 5992.89987,6659.56428 5981.38526,6656.68692 L5981.38526,6627.91285 C5981.38526,6622.15801 5984.26397,6614.96455 5981.38526,6609.20971 C5977.06731,6602.01635 5964.11345,6602.01635 5962.6743,6594.82288 C5962.6743,6593.38415 6008.73233,6499.86867 6013.05028,6496.9912 C6014.48963,6495.55267 6021.68609,6531.52011 6033.2008,6532.95874 L6063.42637,6508.50087 C6086.45548,6508.50087 6082.13753,6544.46841 6095.09129,6551.66177 C6099.40924,6554.53914 6103.72719,6548.78451 6109.4845,6550.22304 C6119.55975,6553.10061 6129.63491,6557.41661 6136.83156,6564.61008 C6164.17853,6594.82288 6144.02812,6625.03548 6146.90682,6655.24818 C6146.90682,6665.31912 6155.54273,6673.95132 6155.54273,6682.58342 C6154.10337,6686.89952 6142.58887,6686.89952 6144.02812,6691.21562 C6145.46747,6701.28655 6159.86068,6707.04139 6161.29983,6717.11222 C6162.73918,6721.42832 6154.10337,6725.74432 6154.10337,6730.06042 C6154.10337,6741.57009 6191.5256,6794.80203 6197.2828,6803.43413 C6205.91881,6813.50506 6211.67601,6797.6793 6215.99386,6797.6793 C6221.75117,6796.24076 6228.94772,6797.6793 6233.26567,6800.55686 C6236.14438,6803.43413 6231.82642,6810.6278 6234.70503,6810.6278 C6234.70503,6829.33073 6254.85554,6835.08557 6250.53759,6852.34997 Z" id="al" fill="#87B024"></path>
                        <path d="M6148.34607,6626.47411 C6146.90682,6636.54505 6145.46747,6646.61598 6146.90682,6655.24818 C6146.90682,6665.31912 6155.54273,6673.95132 6155.54273,6682.58342 C6154.10337,6686.89952 6142.58887,6686.89952 6144.02812,6691.21562 C6145.46747,6701.28655 6159.86068,6707.04139 6161.29983,6717.11222 C6162.73918,6721.42832 6154.10337,6725.74432 6154.10337,6730.06042 C6154.10337,6741.57009 6191.5256,6794.80203 6197.2828,6803.43413 C6205.91881,6813.50506 6211.67601,6797.6793 6215.99386,6797.6793 C6221.75117,6796.24076 6228.94772,6797.6793 6233.26568,6800.55686 C6236.14438,6803.43413 6231.82642,6810.6278 6234.70503,6810.6278 C6244.78028,6812.06633 6341.21439,6781.85373 6346.9717,6777.53763 C6362.80426,6760.27323 6351.28965,6737.25409 6380.07607,6727.18316 C6390.15133,6722.86706 6446.28461,6730.06042 6454.92052,6724.30579 C6459.23847,6721.42832 6457.79922,6712.79612 6462.11717,6709.91876 C6464.99577,6708.48002 6469.31373,6717.11222 6472.19223,6714.23486 C6489.46404,6702.72529 6450.60257,6679.70615 6496.66069,6671.07395 L6496.66069,6671.07395 L6498.10005,6671.07395 C6499.5393,6652.37082 6496.66069,6591.94541 6495.22134,6591.94541 C6485.14609,6581.87448 6469.31373,6553.10061 6456.35987,6544.46841 C6449.16321,6540.15231 6439.08806,6544.46841 6430.45215,6540.15231 C6427.57345,6538.71357 6388.71198,6508.50087 6388.71198,6505.6234 C6370.00081,6488.359 6323.94268,6532.95874 6300.91357,6537.27484 C6273.5665,6541.59084 6262.05209,6522.88791 6249.09824,6554.53914 C6247.65888,6558.85544 6253.41619,6564.61008 6251.97684,6570.36491 C6249.09824,6577.55838 6236.14438,6560.29398 6228.94772,6560.29398 C6210.23676,6561.73271 6192.96485,6574.68101 6177.13239,6584.75194 C6168.49648,6590.50668 6188.6469,6650.93208 6152.66392,6626.47411 L6148.34607,6626.47411 L6148.34607,6626.47411 Z" id="mk" fill="#87B024"></path>
                        <path d="M5846.49506,6558.87008 C5853.69061,6560.30781 5857.61032,6560.35594 5864.80698,6560.35594 C5861.92878,6563.2315 5859.04947,6566.10696 5860.48973,6570.42035 C5880.63944,6614.99147 5884.95789,6573.29591 5905.1077,6583.36042 C5909.42616,6586.23598 5906.54796,6591.9871 5909.42616,6596.30039 C5920.94127,6610.67829 5935.33347,6607.80273 5945.40943,6623.61825 C5948.28773,6627.93154 5945.40943,6636.55832 5949.72678,6640.87161 C5958.36259,6649.49839 5969.8777,6653.81158 5981.3917,6656.68734 L5981.3917,6627.93154 C5981.3917,6622.18032 5984.27101,6614.99147 5981.3917,6609.24036 C5977.07435,6602.05161 5964.12009,6602.05161 5962.68104,6594.86276 C5962.68104,6593.42493 6008.73927,6499.96908 6013.05773,6497.09352 C6014.49678,6495.65579 6021.69343,6531.60034 6033.20744,6533.03807 L6066.31713,6507.87579 C6063.29281,6492.73697 6065.8564,6492.28621 6070.3865,6477.40646 C6072.61115,6470.09926 6069.32097,6474.78934 6077.1676,6468.32588 C6080.61795,6465.48435 6087.94884,6456.25939 6087.94884,6456.25939 C6087.94884,6456.25939 6108.23259,6448.77964 6100.27298,6442.69464 C6084.48501,6430.62371 6060.97992,6411.53957 6045.61345,6404.40212 C6035.69507,6399.7955 6048.13302,6380.1672 6038.46019,6370.65683 C6020.34798,6352.84763 5976.40389,6342.00483 5962.68104,6333.18651 C5956.92344,6337.4998 5949.72678,6323.122 5942.53013,6325.99756 C5933.89432,6328.87312 5932.45527,6340.37536 5926.69767,6347.56441 C5916.62281,6350.43987 5889.27524,6344.68875 5887.83609,6351.8778 C5883.51884,6372.00652 5919.50101,6373.44435 5907.98701,6403.63778 C5893.5937,6393.57327 5893.37234,6383.77637 5878.87993,6383.77637 C5864.80698,6389.71618 5860.48973,6441.02005 5854.73212,6448.209 C5843.21701,6462.5868 5838.89966,6441.02005 5834.58121,6462.5868 C5827.38455,6504.28247 5871.92498,6505.7202 5838.82101,6537.35136 L5838.82101,6542.73143 L5846.49506,6558.87008 Z" id="me" fill="#87B024"></path>
                        <path d="M6153.1001,6409.3392 C6156.423,6398.42292 6148.36537,6401.7712 6151.24407,6380.82724 C6173.82316,6370.37213 6184.59138,6369.91216 6191.78803,6377.10101 C6211.00506,6392.92407 6218.00517,6400.54398 6225.62252,6412.01369 C6231.31756,6420.58877 6236.50774,6436.49375 6236.50774,6436.49375 C6272.49112,6460.93615 6242.10235,6455.80632 6250.73816,6450.05531 C6254.69627,6447.53923 6254.58359,6450.83049 6252.4805,6457.16023 C6250.37741,6463.48998 6287.16623,6459.44954 6283.16272,6469.08741 C6279.15911,6478.72527 6308.46244,6480.33205 6306.71929,6487.74015 C6306.28353,6489.59227 6309.65634,6495.19893 6302.57759,6498.73052 C6295.49884,6502.2621 6305.84907,6511.91021 6296.8235,6515.678 C6287.79793,6519.44589 6273.57465,6541.66505 6300.92101,6537.35176 C6323.95013,6533.03837 6370.00836,6488.46704 6388.72022,6505.7205 C6395.91688,6492.78043 6416.06659,6489.90497 6408.86993,6471.21378 C6407.43088,6465.46276 6403.11353,6462.5871 6398.79508,6459.71164 C6395.91688,6458.27371 6391.59842,6461.14937 6390.15927,6458.27371 C6388.72022,6451.08486 6390.15927,6443.89592 6390.15927,6436.70707 C6388.72022,6428.08049 6378.64416,6419.45371 6382.96262,6412.26476 C6424.70239,6343.25132 6377.20511,6428.08049 6423.26324,6392.13584 C6427.5818,6387.82255 6457.80757,6334.62454 6449.17176,6325.99796 C6437.65665,6317.37118 6382.96262,6291.49114 6380.08442,6288.61568 C6362.8117,6274.23778 6335.46534,6213.85093 6345.54019,6192.28428 C6349.85865,6182.21977 6365.69111,6183.6575 6371.44751,6175.03102 C6375.76596,6164.96641 6370.00836,6152.02634 6374.32681,6141.96193 C6354.176,6133.33515 6335.46534,6120.39518 6338.34354,6100.26636 C6339.78259,6087.32619 6387.28107,6085.88856 6372.88776,6078.69951 C6220.31976,6002.49713 6357.0553,6071.51066 6295.16351,6107.45521 C6285.08865,6114.64396 6279.33105,6088.76402 6269.25619,6084.45073 C6262.05954,6080.13734 6251.98458,6084.45073 6244.78793,6084.45073 C6236.15212,6084.45073 6227.51642,6088.76402 6218.88061,6085.88856 C6214.56216,6083.0128 6217.44036,6075.82395 6214.56216,6070.07283 C6207.3655,6055.69524 6145.47481,6078.69951 6180.01793,6054.25741 C6188.65484,6048.50619 6210.2437,6042.75497 6203.04705,6037.00395 C6195.8515,6032.69056 6181.45819,6037.00395 6178.57878,6028.37737 C6177.13973,6019.75059 6207.3655,6003.93496 6187.21459,5992.43282 C6159.86812,5976.61719 6105.17419,5983.80614 6086.46232,5950.73715 C6082.14507,5943.5481 6082.14507,5909.04138 6082.14507,5900.4148 L6082.14507,5897.53914 C6077.82662,5898.97687 6074.94842,5907.60365 6072.06901,5904.72799 C6061.99416,5898.97687 6060.55501,5883.16134 6051.9193,5875.97259 C6043.2835,5870.22137 6030.32924,5871.659 6021.69343,5864.47015 C6013.05773,5860.15686 6008.73927,5850.09246 6002.98167,5842.90351 C5995.78501,5842.90351 5988.58836,5835.71456 5981.3917,5835.71456 C5979.95255,5835.71456 5942.53013,5847.2168 5941.09098,5847.2168 C5916.62281,5845.77907 5943.97038,5824.21232 5910.86521,5845.77907 C5895.03275,5854.40564 5886.39704,5871.659 5873.44278,5881.72351 C5860.48973,5891.78802 5854.73212,5877.41012 5850.41367,5881.72351 C5831.70301,5903.29026 5830.26386,5904.72799 5818.74875,5904.72799 L5820.1879,5907.60365 C5844.65727,5942.11037 5838.89966,5933.48379 5836.02036,5966.55258 C5836.02036,5980.93048 5866.24613,5962.23919 5864.80698,5978.05502 C5863.36793,5986.6816 5853.29297,5978.05502 5851.85282,5979.49255 C5843.21701,5988.11943 5857.61032,5990.99499 5857.61032,5995.30828 C5857.61032,5996.74621 5844.65727,5999.62157 5851.85282,6005.37269 C5869.12543,6016.87493 5892.15455,6022.62615 5912.30436,6022.62615 C5916.62281,6051.38164 5880.63944,6022.62615 5879.20039,6029.815 C5877.76124,6048.50619 5864.80698,6055.69524 5883.51884,6074.38612 C5884.95789,6075.82395 5884.95789,6078.69951 5883.51884,6080.13734 C5877.76124,6090.20175 5856.17127,6083.0128 5869.12543,6097.3908 C5883.51884,6093.07741 5895.03275,6084.45073 5910.86521,6085.88856 C5910.86521,6130.45969 5884.95789,6160.65312 5889.27524,6187.97089 C5895.03275,6219.60215 5903.66855,6196.59757 5923.81947,6205.22435 C5936.77373,6210.97547 5939.65193,6229.66656 5952.60619,6236.85551 C5956.92344,6238.29334 5971.31675,6233.97995 5966.9995,6246.91992 C5958.36259,6275.67571 5922.38032,6244.04456 5915.18366,6254.10876 C5915.18366,6254.10876 5979.95255,6314.49562 5962.68104,6333.18691 C5996.52056,6350.80427 5979.54822,6344.00321 6032.30287,6366.21022 C6050.22546,6371.97429 6033.49758,6402.56415 6049.35856,6408.85675 C6074.46294,6418.81686 6074.9453,6430.40914 6092.09469,6439.45564 C6108.08925,6447.89349 6105.6111,6444.36987 6115.53529,6446.57255 C6138.5644,6446.57255 6149.7772,6420.25549 6153.1001,6409.3392 Z" id="sr" fill="#87B024"></path>
                        <path d="M6141.61406,6570.4059 C6145.10804,6576.05408 6148.28555,6585.47467 6148.92614,6597.21791 C6149.45099,6606.83932 6147.5333,6618.86821 6148.92614,6624.50721 C6154.95495,6629.7354 6163.61028,6632.85648 6169.08478,6632.55564 C6174.55929,6632.2548 6172.22776,6626.15888 6176.86014,6627.31588 C6176.86014,6617.25127 6173.58374,6582.71775 6181.97038,6580.68171 C6205.66052,6574.93049 6205.18461,6566.16646 6213.70505,6564.26503 C6213.70505,6562.8272 6223.82943,6563.89726 6236.45207,6562.29871 C6245.24578,6570.4059 6245.24578,6575.5227 6250.08049,6572.30718 C6254.91519,6569.09165 6253.19757,6541.02097 6258.89913,6537.29324 C6270.30226,6529.83766 6298.14093,6543.05449 6291.82755,6534.57398 C6290.24921,6532.45382 6310.11099,6493.52731 6308.08242,6489.81412 C6306.05385,6486.10084 6313.16283,6477.14881 6310.89855,6472.8551 C6308.63418,6468.56128 6290.30464,6474.97595 6288.01888,6471.1143 C6286.45194,6468.467 6284.0908,6464.32603 6278.91336,6462.44917 C6276.53819,6461.58816 6271.54335,6464.76024 6269.36385,6462.44917 C6262.43354,6455.10041 6271.68929,6451.54052 6269.69939,6450.01917 C6261.80535,6443.98385 6256.8334,6434.15746 6245.24578,6428.28056 C6233.65806,6422.40375 6224.62386,6395.4808 6216.94052,6391.91218 C6207.02224,6387.30546 6189.92974,6375.15124 6184.06133,6373.25873 C6179.63156,6371.83017 6170.02402,6364.94847 6152.68975,6379.88582 C6135.35537,6394.82317 6159.24807,6397.07534 6153.49107,6412.172 L6126.40502,6442.35338 C6113.9281,6452.72126 6105.14466,6438.46603 6099.38706,6445.65498 C6087.87195,6460.03278 6072.69519,6460.17543 6068.37673,6481.74218 C6056.03581,6525.85816 6081.63821,6503.60548 6081.63821,6525.85815 C6081.63821,6525.85815 6085.99766,6544.77988 6095.21885,6551.2705 C6104.44004,6557.76112 6118.05755,6551.72916 6129.2314,6558.43144 L6141.61406,6570.4059 Z" id="path2228" fill="#87B024"></path>
                        <path d="M7191.8506,7685.35676 C7176.01814,7715.56947 7204.80436,7695.4277 7188.972,7740.02734 C7187.53265,7744.34344 7070.94803,7770.24004 7059.43352,7774.55614 C7050.79761,7777.43351 6970.19596,7814.83968 6961.56006,7807.64621 C6935.65224,7778.87224 6981.71037,7781.74971 6899.66927,7771.67877 C6816.18901,7761.60784 6919.81978,7781.74971 6849.29318,7781.74971 C6844.97523,7781.74971 6843.53608,7774.55614 6839.21813,7774.55614 C6830.58222,7773.11741 6820.50697,7774.55614 6810.43171,7775.99487 C6800.35645,7778.87224 6788.84195,7784.62707 6778.76669,7786.06581 C6757.17702,7786.06581 6765.81293,7758.73047 6767.25228,7750.09827 C6767.25228,7738.5886 6762.93433,7725.6404 6767.25228,7715.56947 C6783.08464,7670.96973 6797.47785,7721.3243 6807.55311,7725.6404 C6817.62836,7729.9565 6829.14287,7724.20157 6839.21813,7719.88557 C6846.41458,7717.0082 6850.73253,7698.30507 6856.48984,7704.0599 C6863.68639,7709.81473 6839.21813,7715.56947 6842.09663,7722.76303 C6843.53608,7729.9565 6856.48984,7725.6404 6863.68639,7728.51767 C6870.88305,7731.39524 6876.64025,7741.46597 6885.27616,7742.9047 C6892.47281,7744.34344 6898.23012,7738.5886 6905.42657,7735.71134 C6919.81978,7731.39524 6929.89504,7719.88557 6942.84889,7715.56947 C6958.68135,7711.25337 6974.51392,7712.6921 6990.34627,7709.81473 C7000.42153,7706.93727 6991.78563,7718.44693 7000.42153,7719.88557 C7016.25399,7724.20157 7032.08655,7711.25337 7049.35826,7712.6921 C7053.67622,7712.6921 7056.55482,7721.3243 7060.87277,7719.88557 C7068.06942,7718.44693 7093.97704,7696.86633 7106.9309,7699.7438 C7109.8096,7701.18243 7085.34124,7731.39524 7119.88476,7741.46597 C7127.08141,7744.34344 7127.08141,7728.51767 7132.83862,7724.20157 C7163.06429,7693.98897 7158.74643,7732.83377 7191.8506,7685.35676 L7191.8506,7685.35676 Z M6895.35141,6596.26154 L6896.79076,6594.8229 L6896.79076,6594.8229 L6898.23012,6594.8229 L6898.23012,6594.8229 L6898.23012,6594.8229 L6898.23012,6594.8229 L6898.23012,6594.8229 L6898.23012,6594.8229 L6898.23012,6594.8229 L6898.23012,6594.8229 L6898.23012,6594.8229 L6898.23012,6594.8229 L6898.23012,6594.8229 L6898.23012,6594.8229 L6898.23012,6594.8229 L6898.23012,6594.8229 L6898.23012,6594.8229 L6898.23012,6594.8229 L6898.23012,6594.8229 L6898.23012,6594.8229 L6898.23012,6594.8229 L6898.23012,6594.8229 C6899.66927,6594.8229 6944.28815,6580.43587 6944.28815,6580.43587 C6975.95307,6555.9779 6885.27616,6515.69436 6941.40954,6504.1848 L6941.40954,6504.1848 L6941.40954,6504.1848 L6941.40954,6504.1848 L6942.84889,6504.1848 L6942.84889,6504.1848 L6942.84889,6504.1848 L6942.84889,6504.1848 L6942.84889,6504.1848 L6942.84889,6504.1848 L6947.16685,6504.1848 L6947.16685,6504.1848 L6948.6061,6504.1848 L6948.6061,6504.1848 L6950.04545,6504.1848 L6950.04545,6504.1848 L6950.04545,6504.1848 L6950.04545,6504.1848 C6952.92405,6504.1848 6955.80275,6504.1848 6957.2419,6505.62343 L6957.2419,6505.62343 L6960.12071,6505.62343 L6960.12071,6505.62343 C6991.78563,6512.817 7034.96505,6543.0297 7013.37539,6568.9262 C6997.54293,6586.1906 6981.71037,6577.5584 6975.95307,6606.33247 L6987.46767,6648.05474 C6986.02832,6658.12558 6965.87801,6691.21564 6955.80275,6696.97048 L6954.3634,6712.79615 C6929.89504,6699.84785 6975.95307,6698.40911 6952.92405,6678.26734 C6941.40954,6669.63524 6895.35141,6689.77691 6880.9582,6688.33828 C6834.90018,6685.46081 6829.14287,6655.24821 6798.9172,6692.65438 C6791.72055,6701.28658 6784.52399,6708.48005 6775.88819,6714.23488 C6735.58726,6735.81528 6757.17702,6685.46081 6716.8762,6709.91878 C6701.04364,6719.98971 6712.55825,6744.44748 6680.89323,6758.83452 C6653.54626,6770.34408 6650.66766,6735.81528 6624.75984,6768.90545 C6614.68468,6781.85375 6631.95649,6780.41502 6636.27445,6783.29249 C6649.22831,6790.48595 6647.78885,6812.06636 6659.30356,6823.57602 C6662.18206,6826.45339 6667.93937,6825.01466 6673.69667,6823.57602 C6675.13592,6823.57602 6676.57527,6822.13729 6678.01462,6819.25992 C6678.01462,6816.38246 6672.25732,6810.62782 6676.57527,6810.62782 C6682.33258,6809.18899 6682.33258,6822.13729 6688.08978,6823.57602 C6703.92234,6827.89212 6737.02651,6833.64686 6742.78382,6855.22746 C6754.29842,6896.94963 6705.36149,6836.52432 6705.36149,6836.52432 C6689.52913,6827.89212 6643.471,6822.13729 6639.15305,6849.47263 C6634.8351,6866.73693 6672.25732,6860.98209 6683.77183,6872.49176 C6692.40773,6881.12396 6690.96848,6909.89793 6680.89323,6905.58183 C6657.86411,6896.94963 6656.42476,6871.05303 6633.39575,6859.54356 C6627.63854,6858.10483 6621.88124,6860.98209 6616.12393,6859.54356 C6608.92738,6859.54356 6600.29147,6852.34999 6595.97362,6858.10483 C6562.86925,6894.07226 6659.30356,6904.1432 6652.10681,6917.0915 C6649.22831,6921.4076 6611.80598,6919.96876 6600.29147,6917.0915 C6595.97362,6915.65276 6585.89836,6869.61429 6585.89836,6869.61429 C6574.38386,6855.22746 6534.08303,6863.85966 6518.25047,6852.34999 C6488.0248,6829.33076 6518.25047,6833.64686 6518.25047,6804.87289 C6518.25047,6799.11805 6502.41801,6814.94382 6493.78211,6822.13729 C6486.58545,6829.33076 6475.07104,6835.08559 6473.63159,6845.15653 C6472.19224,6852.34999 6486.58545,6853.78873 6488.0248,6860.98209 L6477.94955,6904.1432 C6482.2675,6931.47853 6515.37187,6944.42673 6531.20423,6961.69114 L6549.91539,6999.09731 C6559.99065,7009.16814 6633.39575,7045.13558 6621.88124,7062.40008 C6619.00264,7066.71618 6562.86925,7037.94221 6558.5513,7039.38094 C6554.23334,7039.38094 6558.5513,7048.01314 6558.5513,7052.32924 C6555.6727,7062.40008 6539.84013,7083.98058 6549.91539,7082.54185 C6552.79399,7081.10311 6551.35474,7073.90964 6554.23334,7075.34838 C6558.5513,7076.78701 6557.11195,7083.98058 6561.4299,7086.85795 C6571.50516,7094.05141 6603.17008,7094.05141 6578.70181,7115.63202 C6558.5513,7132.89632 6538.40098,7134.33505 6511.05392,7145.84462 C6506.73596,7147.28335 6519.68982,7151.59945 6524.00778,7150.16072 C6528.32573,7148.72198 6531.20423,7141.52852 6536.96153,7141.52852 C6542.71884,7141.52852 6542.71884,7150.16072 6547.03679,7153.03808 C6549.91539,7154.47682 6552.79399,7151.59945 6555.6727,7150.16072 C6567.1872,7150.16072 6578.70181,7147.28335 6588.77687,7151.59945 C6597.41277,7154.47682 6595.97362,7168.86385 6604.60943,7170.30259 C6614.68468,7173.17995 6624.75984,7157.35419 6633.39575,7161.67019 C6642.03175,7165.98629 6631.95649,7184.68942 6640.5924,7189.00552 C6652.10681,7196.19909 6666.50002,7176.05722 6676.57527,7183.25079 C6682.33258,7186.12815 6676.57527,7209.14739 6699.60439,7210.58612 C6728.39061,7212.02476 6737.02651,7201.95382 6757.17702,7224.97296 C6773.00938,7242.23756 6748.54112,7235.04389 6748.54112,7245.11483 C6748.54112,7252.30829 6757.17702,7256.62439 6758.61638,7262.37923 C6761.49498,7269.57269 6757.17702,7278.205 6760.05563,7283.95973 C6767.25228,7296.90793 6785.96344,7302.66276 6770.13088,7327.12073 C6767.25228,7331.43683 6761.49498,7328.55937 6757.17702,7327.12073 C6754.29842,7324.24327 6757.17702,7319.92717 6755.73767,7317.0498 C6754.29842,7314.17243 6737.02651,7302.66276 6735.58726,7302.66276 C6732.70856,7301.22403 6731.26931,7308.4176 6728.39061,7306.97886 C6718.31555,7299.7855 6702.48299,7271.01143 6688.08978,7266.69533 C6669.37862,7260.94049 6679.45387,7282.5211 6669.37862,7285.39846 C6652.10681,7291.1533 6603.17008,7305.54013 6607.48803,7312.7337 C6611.80598,7322.80463 6629.07779,7318.48853 6639.15305,7322.80463 C6643.471,7324.24327 6630.51714,7327.12073 6630.51714,7331.43683 C6630.51714,7335.75293 6637.7138,7335.75293 6639.15305,7338.6303 C6642.03175,7344.38514 6637.7138,7353.01734 6642.03175,7357.33344 C6657.86411,7373.159 6685.21118,7364.5268 6699.60439,7381.7912 C6708.24029,7391.86214 6676.57527,7394.73961 6663.62141,7394.73961 C6643.471,7396.17824 6627.63854,7394.73961 6621.88124,7393.30087 C6617.56328,7391.86214 6620.44189,7384.66867 6617.56328,7380.35257 C6616.12393,7378.91384 6611.80598,7378.91384 6610.36673,7378.91384 C6598.85212,7378.91384 6583.01976,7370.28164 6575.82311,7378.91384 C6564.3086,7394.73961 6611.80598,7430.70714 6617.56328,7440.77788 C6619.00264,7446.53271 6614.68468,7452.28754 6616.12393,7456.60364 C6619.00264,7460.91975 6627.63854,7456.60364 6630.51714,7460.91975 C6636.27445,7470.99068 6653.54626,7502.64202 6659.30356,7515.59032 C6665.06067,7528.53862 6647.78885,7519.90642 6647.78885,7524.22252 C6647.78885,7528.53862 6653.54626,7529.97735 6654.98561,7532.85472 C6654.98561,7535.73208 6649.22831,7540.04808 6650.66766,7542.92565 C6652.10681,7545.80292 6685.21118,7564.50605 6682.33258,7576.01562 C6679.45387,7580.33172 6669.37862,7580.33172 6663.62141,7578.89309 C6659.30356,7576.01562 6660.74271,7567.38342 6656.42476,7564.50605 C6653.54626,7561.62859 6647.78885,7568.82215 6643.471,7565.94479 C6619.00264,7547.24175 6608.92738,7489.69361 6572.94451,7540.04808 C6571.50516,7542.92565 6574.38386,7573.13825 6577.26246,7590.40266 C6578.70181,7594.71876 6578.70181,7604.78969 6574.38386,7603.35086 C6538.40098,7599.03486 6561.4299,7563.06732 6549.91539,7547.24175 C6548.47604,7545.80292 6544.15809,7547.24175 6542.71884,7545.80292 C6534.08303,7537.17082 6529.76508,7527.09988 6522.56842,7517.02895 C6518.25047,7509.83548 6515.37187,7496.88718 6506.73596,7495.44845 C6437.64872,7479.62288 6499.53931,7545.80292 6475.07104,7557.31249 C6433.33077,7576.01562 6444.84527,7528.53862 6443.40602,7518.46768 C6443.40602,7515.59032 6439.08807,7515.59032 6437.64872,7515.59032 C6424.69486,7517.02895 6417.49821,7499.76455 6414.6196,7483.93898 C6411.7411,7462.35848 6429.01281,7486.81625 6431.89142,7453.72618 C6433.33077,7430.70714 6395.90854,7401.93307 6377.19738,7396.17824 C6372.87943,7394.73961 6368.56147,7404.81044 6365.68287,7400.49434 C6359.92557,7393.30087 6365.68287,7380.35257 6358.48632,7373.159 C6349.85051,7364.5268 6310.98884,7376.03647 6331.13935,7348.70124 C6332.5786,7347.2625 6338.33591,7350.13997 6339.77526,7347.2625 C6362.80427,7331.43683 6351.28966,7318.48853 6358.48632,7291.1533 C6358.48632,7288.27583 6361.36492,7296.90793 6364.24352,7296.90793 C6365.68287,7296.90793 6361.36492,7291.1533 6362.80427,7291.1533 C6377.19738,7291.1533 6391.59059,7305.54013 6403.1052,7294.03066 C6418.93756,7278.205 6397.34789,7276.76626 6426.13421,7258.06313 C6446.28462,7245.11483 6460.67783,7266.69533 6476.51019,7272.45016 C6499.53931,7281.08236 6526.88628,7278.205 6551.35474,7285.39846 C6565.74795,7288.27583 6574.38386,7305.54013 6588.77687,7306.97886 C6594.53417,7308.4176 6606.04878,7301.22403 6604.60943,7294.03066 C6601.73093,7288.27583 6585.89836,7295.4694 6583.01976,7288.27583 C6568.62655,7255.18576 6619.00264,7304.1015 6636.27445,7256.62439 C6637.7138,7252.30829 6626.19919,7259.50186 6620.44189,7256.62439 C6617.56328,7255.18576 6620.44189,7247.99219 6617.56328,7247.99219 C6614.68468,7247.99219 6613.24533,7265.25659 6606.04878,7256.62439 C6594.53417,7242.23756 6585.89836,7262.37923 6567.1872,7253.74703 C6557.11195,7247.99219 6554.23334,7230.72789 6542.71884,7229.28906 C6535.52218,7227.85053 6539.84013,7250.86966 6531.20423,7250.86966 C6505.29661,7249.43093 6522.56842,7190.44425 6503.85726,7223.53442 C6500.97866,7229.28906 6511.05392,7240.79873 6505.29661,7245.11483 C6495.22136,7255.18576 6449.16323,7236.48273 6439.08807,7240.79873 C6420.37691,7247.99219 6405.9837,7265.25659 6378.63673,7272.45016 C6362.80427,7276.76626 6358.48632,7252.30829 6349.85051,7247.99219 C6345.53236,7246.55356 6351.28966,7258.06313 6348.41116,7260.94049 C6342.65376,7269.57269 6332.5786,7276.76626 6323.9427,7281.08236 C6321.06409,7282.5211 6322.50345,7275.32753 6321.06409,7275.32753 C6305.23153,7268.13406 6321.06409,7255.18576 6310.98884,7239.35999 C6305.23153,7230.72789 6298.03498,7222.09569 6289.39907,7216.34086 C6286.52057,7214.90222 6282.20262,7220.65696 6280.76327,7217.77959 C6273.56651,7212.02476 6276.44532,7199.07646 6269.24866,7194.76036 C6254.85555,7184.68942 6228.94773,7223.53442 6250.5376,7170.30259 C6247.6589,7168.86385 6244.7803,7167.42502 6240.46234,7164.54775 C6236.14439,7160.23165 6239.02299,7153.03808 6236.14439,7148.72198 C6220.31183,7128.58022 6180.011,7109.87718 6162.73919,7095.49015 C6156.98189,7092.61278 6165.61779,7078.22575 6161.29984,7073.90964 C6156.98189,7069.59354 6135.39222,7085.41921 6120.99902,7050.89041 C6122.43837,7049.45168 6122.43837,7049.45168 6123.87772,7048.01314 C6125.31697,7046.57431 6122.43837,7045.13558 6123.87772,7045.13558 C6148.34608,7040.81947 6164.17854,7060.96134 6162.73919,7023.55517 C6162.73919,7014.92297 6182.88971,7027.87127 6178.57175,7014.92297 L6159.86069,6986.1489 C6161.29984,6976.07817 6205.91882,6961.69114 6208.79742,6957.37503 C6208.79742,6955.9363 6217.43333,6898.38836 6217.43333,6898.38836 C6227.50848,6859.54356 6236.14439,6907.02056 6250.5376,6852.34999 C6254.85555,6835.08559 6234.70504,6829.33076 6234.70504,6810.62782 C6244.7803,6812.06636 6341.21441,6781.85375 6346.97171,6777.53765 C6362.80427,6760.27325 6351.28966,6737.25412 6380.07608,6727.18318 C6390.15134,6722.86708 6446.28462,6730.06045 6454.92053,6724.30581 C6459.23848,6721.42835 6457.79923,6712.79615 6462.11719,6709.91878 C6464.99579,6708.48005 6469.31374,6717.11225 6472.19224,6714.23488 C6489.46405,6702.72531 6450.60258,6679.70618 6496.66071,6671.07398 L6496.66071,6671.07398 C6495.22136,6672.51251 6496.66071,6675.39008 6496.66071,6675.39008 C6498.10006,6672.51251 6498.10006,6663.88041 6498.10006,6652.37084 L6498.10006,6671.07398 L6496.66071,6671.07398 L6515.37187,6671.07398 C6521.12897,6671.07398 6528.32573,6675.39008 6532.64368,6671.07398 C6538.40098,6668.19651 6538.40098,6656.68694 6544.15809,6653.80947 C6559.99065,6643.73864 6581.58041,6649.49337 6598.85212,6643.73864 C6639.15305,6629.35161 6649.22831,6612.08731 6675.13592,6596.26154 C6679.45387,6593.38417 6686.65053,6604.89364 6692.40773,6602.01637 C6701.04364,6600.57764 6705.36149,6586.1906 6713.9976,6589.06807 C6725.512,6590.5067 6728.39061,6606.33247 6738.46586,6612.08731 C6739.90521,6614.96457 6744.22317,6609.20974 6747.10177,6610.64857 C6751.41972,6612.08731 6754.29842,6622.15804 6758.61638,6620.71941 C6764.37358,6619.28067 6764.37358,6607.7712 6770.13088,6606.33247 C6785.96344,6602.01637 6804.67441,6610.64857 6819.06761,6617.84194 C6821.94632,6619.28067 6819.06761,6626.47414 6823.38557,6626.47414 C6843.53608,6627.91287 6875.201,6603.4551 6895.35141,6596.26154 L6895.35141,6596.26154 L6895.35141,6596.26154 L6895.35141,6596.26154 Z M6309.54949,7153.03808 C6326.8214,7121.38665 6283.64177,7155.91555 6282.20262,7154.47682 C6272.12736,7150.16072 6263.49146,7131.45758 6254.85555,7137.21242 C6251.97685,7137.21242 6262.05211,7158.79292 6260.61276,7167.42502 C6275.00596,7167.42502 6300.91358,7167.42502 6309.54949,7153.03808 L6309.54949,7153.03808 Z M6285.08112,7324.24327 C6273.56651,7334.3142 6269.24866,7319.92717 6259.1735,7318.48853 C6253.4162,7318.48853 6247.6589,7325.682 6241.90169,7324.24327 C6231.82644,7321.3659 6236.14439,7288.27583 6227.50848,7295.4694 C6223.19063,7298.34666 6230.38709,7308.4176 6227.50848,7314.17243 C6215.99388,7338.6303 6208.79742,7296.90793 6240.46234,7255.18576 C6244.7803,7262.37923 6250.5376,7269.57269 6253.4162,7278.205 C6253.4162,7279.64363 6249.09825,7292.59183 6256.2948,7294.03066 C6263.49146,7295.4694 6300.91358,7311.29497 6285.08112,7324.24327 L6285.08112,7324.24327 Z M6777.32734,7201.95382 C6770.13088,7193.32162 6760.05563,7186.12815 6748.54112,7181.81205 C6731.26931,7176.05722 6706.80094,7203.39256 6688.08978,7184.68942 C6685.21118,7180.37332 6693.84708,7174.61869 6690.96848,7170.30259 C6686.65053,7157.35419 6601.73093,7117.07055 6585.89836,7119.94802 C6577.26246,7122.82538 6572.94451,7132.89632 6565.74795,7137.21242 C6561.4299,7138.65115 6568.62655,7128.58022 6571.50516,7125.70275 C6575.82311,7121.38665 6581.58041,7117.07055 6585.89836,7112.75445 C6591.65567,7106.99981 6595.97362,7102.68371 6601.73093,7098.36761 C6610.36673,7092.61278 6619.00264,7088.29668 6627.63854,7083.98058 C6652.10681,7096.92888 6649.22831,7109.87718 6673.69667,7122.82538 C6678.01462,7125.70275 6683.77183,7127.14148 6689.52913,7127.14148 C6692.40773,7127.14148 6693.84708,7121.38665 6696.72569,7122.82538 C6703.92234,7125.70275 6709.67964,7134.33505 6718.31555,7137.21242 C6726.95136,7138.65115 6757.17702,7121.38665 6762.93433,7131.45758 C6764.37358,7132.89632 6761.49498,7134.33505 6761.49498,7135.77368 C6760.05563,7137.21242 6758.61638,7140.08978 6760.05563,7141.52852 C6765.81293,7147.28335 6775.88819,7147.28335 6780.20614,7154.47682 C6780.20614,7155.91555 6777.32734,7199.07646 6791.72055,7209.14739 C6807.55311,7220.65696 6872.3223,7199.07646 6846.41458,7242.23756 C6832.02147,7265.25659 6793.1599,7236.48273 6784.52399,7226.41179 C6783.08464,7223.53442 6788.84195,7222.09569 6788.84195,7219.21832 C6787.40259,7214.90222 6783.08464,7210.58612 6778.76669,7207.70866 C6775.88819,7207.70866 6773.00938,7214.90222 6771.57023,7212.02476 C6771.57023,7209.14739 6780.20614,7204.83129 6777.32734,7201.95382 L6777.32734,7201.95382 Z M6759.85306,6726.60044 C6759.84041,6726.52174 6750.11083,6735.4037 6748.34468,6735.70727 C6751.4849,6740.00369 6747.51503,6740.8889 6744.02914,6743.85551 C6745.31232,6745.4129 6746.15432,6747.09627 6746.42668,6749.12788 C6743.26909,6751.43134 6743.19055,6756.02712 6743.54959,6758.23471 C6749.51629,6757.20927 6760.52373,6758.8808 6759.37351,6765.90361 C6767.47212,6761.60076 6760.92022,6768.07998 6768.0048,6766.86229 C6767.43406,6763.72854 6768.56991,6761.73256 6771.36134,6760.63123 C6774.7204,6762.1066 6770.46612,6761.04753 6775.67698,6760.15198 C6775.42732,6759.20926 6775.22274,6758.25469 6775.19744,6757.27612 C6776.51185,6756.6453 6776.88304,6756.78443 6776.63598,6758.23471 C6780.88163,6757.505 6774.01779,6757.27723 6782.39017,6755.83819 C6780.4072,6753.1091 6784.07799,6749.08392 6780.47208,6748.64854 C6776.92572,6748.22019 6778.72531,6743.36191 6781.43107,6742.89692 C6781.07837,6739.15322 6779.57093,6738.12376 6776.63598,6739.54171 C6776.88123,6737.72171 6777.87458,6736.94613 6777.59498,6735.22792 C6779.08666,6735.45419 6780.41905,6735.4809 6781.91062,6735.70727 C6781.10287,6734.06856 6780.27212,6733.59093 6779.99263,6731.87282 C6774.39812,6735.95361 6773.38208,6725.84102 6768.9638,6726.60044 C6767.44561,6732.61407 6761.94139,6726.4352 6759.85306,6726.60044 L6759.85306,6726.60044 Z M7043.72479,6940.85088 C7041.46101,6941.81499 7038.48449,6943.38693 7038.9297,6946.12326 C7037.49004,6946.03823 7033.479,6941.13477 7034.1345,6945.16467 C7028.10574,6946.20086 7023.06128,6948.74434 7018.79013,6949.47836 C7027.45747,6952.3222 7008.8393,6968.01526 7008.24085,6964.33691 C7004.52748,6965.36828 7005.3272,6969.03869 7002.00721,6969.60929 C7004.22027,6962.57443 6997.38455,6968.68092 6997.69156,6970.56788 C6992.34903,6974.12265 6988.06603,6972.29773 6984.26519,6969.60929 C6984.64662,6971.95481 6979.13938,6977.49944 6977.552,6982.55056 C6978.89062,6981.83752 6979.71404,6982.02193 6979.4701,6983.50925 C6972.591,6982.46574 6973.29541,6988.23432 6979.4701,6984.94718 C6978.32962,6993.48 6986.3509,6990.55555 6987.62173,6998.3678 C6990.47844,6996.28961 6993.46279,6997.14118 6995.29402,7001.24356 C7000.55068,7000.27383 7010.56628,7003.27447 7013.51549,7000.76432 C7017.91871,6997.0154 7022.54367,6988.89727 7021.66722,6983.50925 C7024.09269,6982.32319 7026.93263,6979.68976 7026.46232,6976.79894 C7027.77402,6975.89998 7035.16109,6975.5142 7036.0526,6975.36101 C7037.41814,6983.7551 7047.53849,6977.66166 7037.0116,6988.30229 C7037.06965,6988.65936 7027.64156,6994.10219 7026.94187,6998.3678 C7019.66597,6996.17246 7027.94847,7002.6326 7018.79013,7001.24356 C7018.62673,7001.9566 7017.97836,7002.77555 7017.35158,7003.16083 C7018.72796,7004.86117 7025.86607,7011.56124 7024.54432,7011.78832 C7025.95103,7020.43588 7032.7072,7010.98744 7034.61405,7010.35039 C7035.15958,7013.70238 7043.62998,7013.25777 7046.60188,7012.747 C7050.5143,7014.3324 7050.5127,7017.2184 7054.75362,7018.49863 C7054.61101,7017.62115 7070.44347,7014.23302 7073.45464,7015.14352 C7072.91553,7011.83088 7074.45672,7014.9041 7075.85218,7014.66418 C7075.21767,7010.76368 7085.69896,7012.0706 7084.48347,7004.59876 C7080.92918,7006.41244 7078.4299,7005.53808 7076.81118,7001.7229 C7078.94259,7001.35649 7087.47435,7004.81961 7087.36047,7004.11942 C7092.38152,7000.46687 7089.60496,7007.60954 7093.59421,6998.84704 C7086.25866,6997.73456 7081.25497,6982.26607 7076.81118,6983.02991 C7078.39656,6980.48823 7077.72067,6977.98641 7075.37264,6975.84025 C7068.76088,6980.6627 7061.26535,6955.24263 7051.39698,6962.41974 C7050.47082,6956.72503 7057.45486,6953.33419 7056.67162,6948.51978 C7051.92975,6951.04609 7048.99009,6948.34139 7045.16334,6948.99912 C7046.60419,6944.42412 7044.8264,6947.62253 7043.72479,6940.85088 L7043.72479,6940.85088 Z M6105.79715,7022.81242 C6105.52228,7023.68066 6099.01055,7023.13395 6100.04296,7023.29176 C6100.45372,7025.81697 6092.47351,7032.62325 6091.89122,7029.04338 C6087.54184,7028.38344 6083.07505,7032.25022 6079.42384,7032.87793 C6079.35103,7031.71405 6078.68288,7030.54837 6077.50585,7030.00207 C6077.11257,7031.30408 6073.02419,7035.48305 6077.0263,7034.7951 C6076.66053,7036.8728 6075.34933,7037.86592 6073.1902,7038.15031 C6075.46764,7041.20446 6078.07337,7044.94344 6081.82149,7045.33986 C6081.34515,7048.90517 6080.73063,7050.43446 6082.78049,7053.96744 C6096.85303,7051.54844 6086.04022,7060.41022 6092.85022,7059.23982 C6097.44546,7063.98568 6097.72053,7069.44819 6101.96096,7063.55351 C6103.6326,7067.21229 6107.45875,7071.23385 6110.59224,7072.1811 C6112.39294,7074.82577 6109.9973,7080.29189 6112.51034,7083.68444 C6115.28379,7082.77725 6117.11823,7084.30794 6117.78498,7088.47758 C6116.29351,7088.25131 6115.64504,7088.59061 6116.34643,7089.91551 C6124.71861,7088.47627 6117.85488,7088.24869 6122.10052,7087.51889 C6123.38351,7089.89734 6120.78249,7090.10443 6121.14152,7092.31202 C6125.19003,7092.19417 6137.14733,7091.84784 6137.92445,7096.62581 C6139.53784,7097.26196 6151.28685,7100.07438 6151.83037,7099.98092 C6152.78415,7094.16555 6147.26356,7084.08398 6140.80154,7087.51889 C6134.23006,7091.01293 6126.59001,7081.31001 6121.14152,7082.24651 C6120.62462,7078.0313 6119.67556,7063.29592 6115.38733,7064.03286 C6115.6835,7060.79079 6117.00696,7058.75355 6116.82588,7055.40537 C6113.74431,7055.86856 6105.05679,7055.86223 6104.3586,7051.57083 L6110.11269,7050.61224 C6109.12889,7044.56327 6101.57461,7056.29921 6104.3586,7046.29845 C6105.21275,7043.23185 6107.15214,7040.91996 6109.63324,7039.1089 C6109.3891,7040.59602 6110.21242,7041.25967 6111.55124,7040.54683 C6112.0572,7037.46788 6121.51532,7033.17708 6115.86688,7029.52273 C6112.84939,7027.57273 6106.74279,7026.6044 6105.79715,7022.81242 L6105.79715,7022.81242 Z M7018.79013,7092.31202 C7012.5365,7094.89887 7006.19711,7096.23692 7001.04811,7099.98092 C7001.29225,7098.4936 7000.94888,7097.83306 6999.60956,7098.54299 C6999.99571,7100.91622 6996.57389,7105.09378 6994.81447,7106.69123 C6996.11412,7108.32963 6997.27067,7110.07755 6998.17101,7111.96361 C7000.59226,7117.92162 7003.18072,7118.35288 7009.67939,7117.23598 C7015.12175,7124.68373 7020.54061,7130.89863 7024.54432,7136.40832 C7016.76327,7134.05979 7025.48323,7142.03617 7025.50332,7142.15995 C7021.09347,7142.91816 7019.94446,7154.69325 7015.91303,7151.26677 C7012.60008,7148.44803 7010.43874,7158.54205 7011.11794,7160.3737 C7013.18126,7160.01903 7009.71947,7163.35406 7016.39258,7164.68739 C7022.8305,7165.96872 7026.25182,7172.0229 7033.17551,7172.35639 C7032.39638,7167.56737 7035.27337,7170.19939 7035.0936,7166.12532 C7033.75478,7166.83826 7033.41101,7166.65405 7033.65505,7165.16673 C7036.46416,7164.17502 7043.5399,7162.18476 7043.24534,7160.3737 C7045.63134,7158.10487 7047.14048,7155.70484 7042.28624,7156.53925 C7042.30151,7156.45302 7041.60754,7150.13231 7041.32724,7150.78753 C7052.28688,7148.90358 7049.09644,7130.92935 7041.80679,7128.73933 C7040.92583,7128.47451 7043.4934,7126.29794 7043.24534,7125.86357 C7045.78419,7125.42699 7038.07545,7113.08693 7037.9707,7112.44295 C7044.27524,7114.33703 7041.54588,7104.43997 7041.80679,7099.98092 C7039.75904,7099.61019 7034.508,7097.81941 7035.0936,7101.41885 C7033.44897,7101.70164 7018.83633,7092.59602 7018.79013,7092.31202 L7018.79013,7092.31202 Z M7180.38601,7216.45259 C7182.16029,7227.35833 7181.65001,7217.63242 7182.78366,7224.60083 C7174.47535,7222.71337 7147.53161,7211.36552 7144.42252,7221.24572 C7137.14261,7222.49693 7137.77582,7224.29776 7134.35279,7230.35255 C7128.10318,7229.40601 7131.35005,7229.53822 7127.16005,7234.187 C7122.69637,7239.14005 7127.87792,7241.19595 7128.5986,7247.12827 C7136.57277,7245.5494 7134.02499,7239.8036 7142.98407,7238.50079 C7150.93646,7237.34183 7152.62035,7240.23104 7155.9309,7246.64903 C7165.6413,7248.80442 7172.20244,7247.08249 7173.67282,7238.02144 C7182.97638,7236.42269 7183.86016,7231.09812 7193.81239,7229.8732 C7188.45017,7219.69707 7194.20537,7229.96355 7193.33294,7224.60083 C7187.27585,7225.64183 7189.84403,7221.46286 7189.49685,7219.32845 C7185.00274,7218.44184 7183.47401,7215.92195 7180.38601,7216.45259 L7180.38601,7216.45259 Z M7399.5236,7430.22378 C7398.53999,7430.29456 7397.58652,7430.39986 7396.6465,7430.70303 C7394.70541,7432.2565 7399.96086,7431.89632 7398.5645,7433.57889 C7395.57251,7434.09307 7394.985,7438.63734 7392.33086,7436.93409 C7391.55072,7435.57346 7390.50425,7434.92446 7388.97431,7435.01682 C7386.56964,7440.30084 7384.13463,7440.03442 7379.86348,7440.76854 C7378.23512,7445.97998 7370.79101,7448.41565 7367.87565,7448.91678 C7369.05459,7456.16355 7360.05774,7456.11617 7357.32637,7456.58568 C7357.62625,7458.42756 7346.54067,7473.26372 7347.25663,7474.31998 C7346.9671,7473.34373 7346.88946,7471.97768 7346.77708,7470.96488 C7341.5635,7471.86123 7341.63923,7486.93219 7342.46154,7489.17853 C7339.47889,7488.7287 7338.66391,7489.88364 7340.06389,7492.53374 C7337.20216,7493.02573 7336.74933,7493.52304 7331.91216,7495.4096 C7334.69656,7501.40064 7337.28984,7506.04942 7343.42054,7504.99567 C7344.40565,7511.05046 7348.46359,7531.68151 7341.98199,7532.79549 C7341.14813,7537.93707 7349.96842,7543.9509 7355.40837,7541.42307 C7358.78962,7539.85303 7358.48823,7535.46476 7362.60101,7533.27483 C7364.51328,7527.19917 7366.40105,7533.1107 7366.4371,7525.60594 C7365.02235,7522.0074 7365.99642,7520.43204 7369.3142,7520.8128 C7369.60152,7520.55822 7373.58615,7510.66798 7374.10939,7509.7888 C7376.54158,7505.67347 7392.25262,7501.00221 7391.37186,7497.80612 C7391.10683,7498.92974 7379.47592,7493.0428 7388.01521,7491.57505 C7388.64772,7488.61336 7383.56439,7485.1657 7390.89231,7483.90615 C7388.49014,7480.60425 7391.39235,7480.25441 7393.28986,7479.11312 C7394.64967,7478.24358 7395.65506,7476.92259 7393.76941,7473.3614 C7402.92292,7471.78805 7394.2122,7464.89473 7395.6874,7459.94078 C7404.46843,7450.78276 7395.2656,7456.91805 7400.96214,7446.04092 C7397.05324,7446.7125 7400.93774,7443.88041 7401.92114,7443.16506 C7401.6773,7444.65238 7402.02087,7444.83659 7403.35969,7444.12364 C7404.16493,7440.13199 7403.15391,7438.78501 7400.00304,7440.2892 C7399.76925,7434.09377 7402.3334,7435.5309 7399.5236,7430.22378 L7399.5236,7430.22378 Z" id="gr" fill="#87B024"></path>
                    </g>
                </g>
            </g>
        </g>
    </g>
</svg>