<?xml version="1.0" encoding="UTF-8" standalone="no"?>
<svg width="332px" height="318px" viewBox="0 0 332 318" version="1.1" xmlns="http://www.w3.org/2000/svg" xmlns:xlink="http://www.w3.org/1999/xlink">
    <!-- Generator: Sketch 3.6 (26304) - http://www.bohemiancoding.com/sketch -->
    <title>by</title>
    <desc>Created with Sketch.</desc>
    <defs></defs>
    <g id="Page-1" stroke="none" stroke-width="1" fill="none" fill-rule="evenodd">
        <g id="Group" transform="translate(-359.000000, -191.000000)" fill="#FFFFFF">
            <path d="M391.198341,507.744475 C396.76433,506.35265 385.632352,502.177206 393.053681,499.857508 C395.372833,498.929603 398.61967,498.929603 401.402632,499.393556 C402.330351,499.393556 402.330351,501.713221 403.721848,502.177206 C408.360118,503.568999 414.853794,481.76378 416.709134,480.371955 C420.419783,478.516177 425.058085,479.444083 428.768733,478.052257 C434.334722,475.732527 438.509246,471.093099 444.539014,469.237353 C446.858197,468.773401 449.177348,469.701274 451.496532,469.701274 L458.454018,469.701274 C465.411472,468.773401 471.905147,464.597925 478.39879,465.06191 C479.790287,465.06191 480.25413,466.917623 481.645627,467.381576 C493.241416,468.773401 507.620199,467.381576 518.288366,464.597925 C523.390479,463.206132 519.679863,467.845528 522.462857,470.165226 C523.390479,470.629179 525.245819,468.309448 526.173473,469.237353 C527.101128,470.165226 524.318133,472.948877 525.70963,473.412829 C537.305451,478.052257 528.956468,470.629179 534.522457,469.237353 C553.075764,464.133973 536.377797,472.021004 542.407629,475.268607 C543.335251,476.19648 544.726748,477.588305 545.190591,476.660432 C547.509742,475.268607 545.190591,466.917623 547.509742,466.917623 C549.828926,466.453703 554.003418,470.629179 556.786412,467.381576 C558.641753,465.525798 558.641753,458.566704 561.424747,459.958529 C565.599206,462.742147 555.394915,466.917623 566.990703,466.917623 C571.165195,466.917623 568.846044,457.638831 575.339687,462.27826 C587.399318,470.629179 573.020535,467.845528 582.760984,470.165226 C585.543978,470.629179 581.833362,463.670085 583.688638,461.350322 C586.471697,457.638831 590.646156,451.143626 594.356804,452.999403 C598.067485,454.855181 601.778134,467.845528 605.48875,466.917623 C611.982425,465.06191 607.807933,457.174879 615.229263,455.319101 C618.012257,454.855181 620.331408,458.102752 622.650592,457.638831 C637.957029,454.855181 612.446268,449.7518 633.782537,451.143626 C644.450704,452.071531 638.884683,463.670085 650.944315,460.886434 C662.540103,458.566704 643.986861,446.040277 643.986861,440.936896 C643.986861,437.225406 644.914483,428.410502 645.378326,425.162899 C647.697477,412.172552 650.944315,407.533123 652.799655,407.069203 C656.046493,406.141298 659.757141,407.533123 662.540103,406.141298 C664.395476,405.213426 663.467757,401.965823 665.323098,401.037982 C669.497589,398.254332 675.527421,398.718252 680.629599,397.326427 C679.238102,396.398554 680.165756,394.542776 679.238102,393.150951 C679.238102,393.150951 669.497589,387.119698 669.497589,386.655777 C669.033778,385.727872 670.889086,384.336047 670.425276,383.408175 C669.033778,380.160604 665.786941,378.304826 665.323098,375.521176 C664.859254,374.12935 667.642281,373.66543 667.642281,372.273605 C666.714595,369.026002 660.220984,369.026002 659.757141,365.314447 C659.293298,363.922621 662.07626,363.458734 662.540103,362.066908 C663.9316,356.499607 647.233666,353.252005 645.842201,349.540449 C643.986861,345.828926 647.233666,341.18953 646.769823,337.014054 C646.769823,329.590976 669.033778,339.333752 675.063578,335.622229 C679.238102,333.302531 683.876372,324.48766 683.412594,319.848232 C683.412594,319.384279 681.557253,319.848232 682.021096,319.384279 C684.340215,317.064581 688.514707,316.136676 689.906204,313.353026 C691.297701,311.49728 689.906204,307.321772 688.050864,306.393899 C680.165756,303.610249 679.238102,306.857852 675.063578,302.218456 C673.672081,300.362678 678.310416,293.867505 673.20827,294.331425 C667.642281,294.795378 664.859254,292.9396 656.974147,295.25933 C654.191152,296.187203 651.408158,298.970853 648.625163,298.04298 C646.30598,297.115075 650.480471,284.124696 646.30598,281.341045 C644.914483,280.413205 630.5357,280.413205 625.897365,277.165602 C618.476068,272.526174 623.11437,267.886778 612.446268,264.639175 C610.590928,263.711335 615.229263,255.824304 613.373922,255.360351 C606.880247,255.360351 604.561096,254.896431 597.139799,249.79305 C593.892961,247.937272 599.922793,238.194528 598.995139,236.338751 C596.212145,232.163275 602.705755,235.410878 600.85048,232.627227 C599.458982,230.307529 588.326972,221.492658 588.790816,219.172928 C590.646156,212.677754 591.57381,208.038326 587.863162,201.54312 C586.935475,199.687407 584.152481,203.398898 582.29714,203.398898 C581.833362,203.398898 566.990703,194.120106 566.990703,194.120106 C555.394915,189.480678 563.743866,193.192201 557.250255,195.975851 C556.322569,196.439804 550.75658,195.511931 549.365083,196.903757 C547.045932,200.151295 543.335251,208.966199 539.624635,210.821976 C532.203306,214.5335 532.667149,195.511931 532.667149,195.511931 C518.288366,192.264328 521.07136,194.120106 511.330847,201.54312 C509.011696,203.398898 507.156356,196.903757 504.837204,195.047979 C496.952064,189.480678 499.271248,204.790723 487.675427,195.511931 C487.675427,195.975851 478.862633,202.934945 477.934947,205.71866 C477.007293,207.110453 474.688141,221.028705 474.688141,221.028705 C472.368958,222.884483 468.658309,220.100833 465.875315,221.028705 C464.947629,221.492658 465.875315,224.740196 464.48385,224.740196 C462.62851,224.740196 461.237012,221.956546 458.917861,221.956546 C452.888029,221.492658 451.960343,234.946925 444.075235,236.802703 L444.075235,237.266656 C446.858197,244.225749 443.61136,250.257003 443.147516,257.216129 C442.683738,261.391572 457.990175,253.040653 456.134834,259.535794 C455.671024,260.92762 453.35184,260.92762 452.424186,262.319445 C451.960343,264.175223 453.815683,266.958873 452.424186,268.814651 C449.641192,272.062254 442.683738,267.422826 440.364522,270.670429 C438.509246,273.917999 440.828398,278.557427 438.509246,281.341045 C429.69642,295.25933 433.870911,277.165602 428.304923,294.331425 C428.304923,295.25933 426.449582,295.25933 426.449582,295.72325 L430.624074,308.713597 C430.624074,309.17755 425.985739,322.167897 426.449582,324.023675 C426.449582,325.879453 440.828398,323.095835 436.653906,333.302531 C435.726252,335.622229 426.449582,338.869832 426.913425,334.694356 C426.913425,333.302531 429.232577,332.374626 428.768733,330.982801 C427.841079,324.951548 417.172945,330.054928 415.781448,331.910674 C410.679302,337.014054 420.883626,336.550102 413.462296,340.725545 C410.215459,342.11737 405.577124,341.18953 403.257973,343.973148 C401.402632,345.828926 407.896308,350.932274 405.577124,351.860179 C403.257973,352.324099 400.475011,350.932274 398.155827,352.324099 C395.372833,354.179877 394.909022,358.819305 392.126027,360.675083 C387.951503,364.386574 386.096195,356.035655 382.385515,357.42748 C378.674899,359.283258 365.223737,366.706272 359.657781,362.994749 C368.006732,386.655777 388.415347,408.461029 389.806844,433.977803 C389.806844,434.905675 388.87919,435.83358 388.415347,436.297501 C385.168509,439.545104 355.947132,464.133973 369.398229,469.237353 C370.325915,469.701274 371.253569,467.381576 372.181223,467.845528 C376.355715,468.309448 380.994017,469.701274 384.704698,472.484956 C393.981336,479.90797 384.240855,495.682033 387.951503,504.032984 C388.415347,505.424777 389.806844,506.816602 390.73453,508.208427 L391.198341,507.744475 L391.198341,507.744475 Z" id="by"></path>
        </g>
    </g>
</svg>