<?xml version="1.0" encoding="UTF-8" standalone="no"?>
<svg width="1638px" height="780px" viewBox="0 0 1638 780" version="1.1" xmlns="http://www.w3.org/2000/svg" xmlns:xlink="http://www.w3.org/1999/xlink">
    <!-- Generator: Sketch 3.6 (26304) - http://www.bohemiancoding.com/sketch -->
    <title>Group</title>
    <desc>Created with Sketch.</desc>
    <defs>
        <rect id="path-1" x="0" y="0" width="1637.27884" height="779.058994"></rect>
    </defs>
    <g id="Page-1" stroke="none" stroke-width="1" fill="none" fill-rule="evenodd">
        <g id="Blank_political_map_Europe_in_2008_WF_(with_Kosovo)">
            <g id="Group">
                <mask id="mask-2" fill="white">
                    <use xlink:href="#path-1"></use>
                </mask>
                <use id="maska" xlink:href="#path-1"></use>
                <rect id="ocean" fill="#2096BD" mask="url(#mask-2)" x="-7917.44868" y="-7590.50879" width="17106.6767" height="10954.4735"></rect>
                <g id="outlines" mask="url(#mask-2)" stroke="#FFFFFF" stroke-width="3">
                    <g transform="translate(-5307.617201, -7598.442478)">
                        <path d="M7562.57886,10155.5532 C7536.84707,10169.4029 7451.7346,10375.1698 7471.52802,10402.8694 C7479.44553,10414.7405 7519.03292,10414.7405 7507.15673,10422.6547 C7497.25981,10428.5903 7499.23922,10408.8049 7493.30113,10422.6547 C7493.30113,10426.6117 7489.34231,10430.5687 7491.32172,10436.5043 C7495.28054,10452.3327 7519.03292,10460.2468 7524.97102,10476.0749 C7526.95015,10480.0319 7519.03292,10478.0535 7515.0741,10482.0105 C7505.17732,10487.9461 7495.28054,10493.8817 7489.34231,10503.7744 C7483.40421,10513.667 7481.42494,10525.5382 7479.44553,10535.4307 C7477.46612,10547.3019 7485.38362,10563.1302 7479.44553,10573.0228 C7475.48684,10578.9584 7469.54875,10553.2378 7431.9409,10555.2161 C7390.3741,10559.1733 7408.18852,10573.0228 7352.76639,10547.3019 C7329.01387,10537.4094 7323.07578,10493.8817 7297.34412,10478.0535 C7261.71541,10456.2896 7230.04566,10478.0535 7190.45855,10462.2251 C7184.52045,10460.2468 7178.58235,10458.2683 7172.64426,10454.3113 C7164.72675,10448.3754 7160.76807,10434.5259 7150.87115,10430.5687 C7142.95365,10424.6331 7133.05687,10430.5687 7123.16009,10426.6117 C7083.57283,10412.762 7055.86177,10375.1698 7012.31583,10363.2988 C6994.5014,10359.3418 6974.70784,10377.1484 6956.89356,10369.2342 C6952.93473,10367.2559 6905.43011,10315.814 6907.40952,10307.8999 C6907.40952,10299.9857 6919.28571,10296.0287 6919.28571,10290.0931 C6921.26485,10284.1576 6913.34762,10282.1789 6913.34762,10276.2435 C6913.34762,10268.3294 6917.3063,10258.4367 6923.2444,10250.5225 C6929.18235,10242.6085 6941.05854,10240.6299 6948.97605,10232.7157 C6958.87283,10224.8017 6968.76975,10195.1236 6976.68712,10205.0165 C6980.64594,10210.9519 6986.58403,10250.5225 7004.39832,10248.5441 C7071.69664,10238.6513 7004.39832,10189.1881 7089.51093,10193.1453 C7111.28403,10193.1453 7093.46947,10216.8875 7105.34594,10222.8231 C7113.26317,10226.7801 7125.13936,10216.8875 7135.03628,10220.8446 C7140.97437,10222.8231 7138.99496,10234.6943 7142.95365,10236.6729 C7154.82997,10244.5869 7170.66485,10252.5011 7184.52045,10252.5011 C7186.49959,10252.5011 7235.98376,10228.7587 7235.98376,10228.7587 C7251.81877,10226.7801 7285.46779,10238.6513 7309.22031,10232.7157 C7358.70449,10222.8231 7356.72508,10203.0378 7382.45673,10189.1881 C7441.83754,10157.5317 7398.2916,10201.0592 7455.69315,10197.1023 C7495.28054,10195.1236 7467.56934,10173.3599 7483.40421,10157.5317 C7489.34231,10151.596 7489.34231,10175.3385 7495.28054,10173.3599 C7530.90911,10165.4458 7530.90911,10133.7892 7562.57886,10155.5532 L7562.57886,10155.5532 Z M6256.19873,9425.47579 C6262.13682,9453.17504 6349.22884,9447.23945 6337.35279,9490.76717 C6335.37324,9502.63836 6301.72408,9498.68134 6305.6829,9512.53111 C6309.64159,9526.38087 6337.35279,9522.42358 6347.24943,9534.29476 C6351.20811,9538.25192 6337.35279,9540.23036 6337.35279,9546.16595 C6349.22884,9617.39306 6367.04313,9516.48798 6371.00181,9611.45761 C6372.98122,9645.09245 6337.35279,9656.96364 6327.45573,9684.66316 C6317.55909,9710.38397 6347.24943,9710.38397 6351.20811,9732.14777 C6351.20811,9740.06194 6341.31134,9747.97611 6341.31134,9757.86872 C6335.37324,9823.16024 6343.29075,9914.17257 6305.6829,9979.46396 C6303.70349,9983.42111 6305.6829,9973.52836 6301.72408,9971.54992 C6274.01301,9961.65718 6238.38458,9933.95793 6204.73528,9935.93623 C6198.79719,9935.93623 6218.59088,9943.85054 6218.59088,9949.78599 C6216.61147,9957.70016 6206.71469,9961.65718 6204.73528,9971.54992 C6192.85909,10017.0561 6224.52898,10009.1421 6169.10671,10034.8627 C6091.91147,10070.4764 6139.41637,9997.27073 6101.80839,9981.44253 C6091.91147,9977.48552 6082.01469,9993.31372 6070.13864,9993.31372 C6062.22113,9993.31372 6093.89088,9991.33514 6095.87029,9981.44253 C6095.87029,9967.59277 6076.0766,9959.67888 6072.11805,9947.80741 C6060.24186,9908.23698 6087.95279,9882.51603 6093.89088,9848.88091 C6095.87029,9835.03142 6087.95279,9823.16024 6091.91147,9809.31048 C6093.89088,9797.43929 6115.66399,9791.5037 6111.70517,9779.63265 C6109.7259,9769.73976 6087.95279,9779.63265 6082.01469,9771.71848 C6076.0766,9761.82587 6085.97338,9749.95455 6085.97338,9740.06194 C6085.97338,9738.08336 6078.05615,9738.08336 6080.03528,9736.10492 C6083.99424,9730.16933 6095.87029,9732.14777 6099.82898,9724.23374 C6107.74648,9704.44838 6078.05615,9607.50032 6066.17996,9593.65083 C6042.42744,9567.92988 6026.59256,9653.00662 6032.53066,9554.08012 C6034.51007,9540.23036 6048.36553,9530.33775 6050.34494,9516.48798 C6052.32435,9508.57381 6042.42744,9500.65992 6048.36553,9494.72433 C6050.34494,9492.74575 6064.20054,9534.29476 6099.82898,9534.29476 C6129.51945,9536.27334 6238.38458,9447.23945 6256.19873,9425.47579 L6256.19873,9425.47579 Z M7071.69664,8040.50503 C7067.73796,8080.07574 7018.25392,8072.16157 7014.29496,8103.81797 C7010.33641,8127.56034 7055.86177,8123.60319 7065.75854,8131.51736 C7079.61415,8143.38841 7042.00616,8159.21689 7036.06807,8177.02353 C7028.15056,8202.74448 7059.82045,8175.04495 7063.77913,8184.9377 C7067.73796,8194.83031 7045.96485,8220.55125 7059.82045,8228.46542 C7079.61415,8240.33661 7158.78866,8287.82122 7089.51093,8283.8642 C7093.46947,8273.97145 7093.46947,8266.05728 7085.55224,8256.16467 C7047.94426,8220.55125 7049.92367,8236.37932 7028.15056,8264.07884 C7030.12997,8262.10027 7030.12997,8260.12169 7030.12997,8260.12169 C7030.12997,8240.33661 6992.52213,8236.37932 6974.70784,8244.29349 C6964.81092,8250.22908 6974.70784,8271.99288 6966.79034,8279.90705 C6958.87283,8287.82122 6945.01723,8281.88562 6933.14104,8285.84264 C6905.43011,8297.71382 6879.69832,8329.37023 6848.02843,8335.30582 C6838.13179,8337.2844 6828.23487,8327.39193 6820.3175,8333.32752 C6812.4,8335.30582 6820.3175,8347.17701 6816.35868,8355.09118 C6814.37941,8361.02677 6808.44131,8368.94094 6804.48249,8374.87653 C6806.4619,8372.89796 6806.4619,8370.91938 6808.44131,8370.91938 C6818.33809,8370.91938 6810.42059,8392.68331 6818.33809,8396.64033 C6822.29678,8398.6189 6824.27619,8384.76914 6828.23487,8388.7263 C6832.19369,8396.64033 6840.11092,8412.46867 6832.19369,8418.40412 C6828.23487,8420.38256 6826.2556,8424.33971 6828.23487,8428.29673 C6830.21428,8430.27531 6834.17283,8426.31843 6838.13179,8426.31843 C6850.00784,8436.2109 6869.80154,8442.14649 6871.78081,8455.99626 C6883.657,8511.39503 6836.15238,8489.6311 6822.29678,8523.26622 C6818.33809,8533.15883 6844.06988,8639.9995 6850.00784,8651.87068 C6861.88403,8671.6559 7000.43963,8770.5824 7028.15056,8786.41061 C7055.86177,8802.23895 7063.77913,8792.3462 7089.51093,8814.11013 C7117.22199,8837.8525 7154.82997,8994.15636 7176.60294,9033.72679 C7198.37605,9075.27608 7243.90126,9112.86794 7279.5297,9140.56747 C7291.40589,9148.48164 7309.22031,9150.46008 7319.11709,9160.35282 C7325.05519,9164.30984 7319.11709,9176.18089 7323.07578,9180.13818 C7376.51863,9235.53695 7477.46612,9217.73017 7540.80575,9207.83743 C7554.66135,9205.85885 7584.35183,9184.09506 7602.16612,9203.88041 C7651.65015,9259.27933 7503.19791,9279.06454 7578.41374,9330.5063 C7649.67088,9377.99105 7748.63909,9374.03389 7821.8755,9411.62603 C7847.6073,9425.47579 7857.50408,9447.23945 7887.19441,9457.13219 C7910.94679,9467.0248 7976.26584,9476.91755 7996.05954,9492.74575 C8003.97691,9498.68134 7996.05954,9512.53111 8001.99764,9518.4667 C8025.75002,9552.10154 8089.08965,9546.16595 8108.88321,9615.41449 C8116.80072,9641.13544 8098.98643,9633.22127 8093.04834,9651.02804 C8089.08965,9660.92079 8095.02775,9700.49123 8087.11024,9704.44838 C8079.19274,9710.38397 8065.33713,9704.44838 8053.46094,9698.51293 C7992.10072,9674.77055 8017.83251,9639.15686 7986.16262,9597.60785 C7968.34834,9573.86547 7910.94679,9597.60785 7881.25632,9587.71524 C7841.6692,9573.86547 7819.89609,9528.35917 7782.28811,9567.92988 C7778.32956,9573.86547 7728.84539,9672.79198 7728.84539,9676.74899 C7728.84539,9682.68445 7738.74217,9688.62004 7736.76276,9696.53421 C7728.84539,9734.12634 7689.25813,9732.14777 7722.9073,9775.67536 C7742.70099,9799.41773 7748.63909,9777.65407 7770.41206,9783.58953 C7794.1643,9791.5037 7809.99931,9815.24607 7831.77228,9825.13868 C7839.68979,9829.09583 7851.56598,9825.13868 7855.52466,9833.05285 C7859.48349,9838.98844 7847.6073,9846.90261 7847.6073,9854.8165 C7849.58657,9910.21556 7875.31822,9858.7738 7871.35968,9930.00077 C7869.38013,9971.54992 7790.20562,9955.72158 7754.57718,9997.27073 C7728.84539,10026.9488 7762.49455,10056.6267 7754.57718,10092.2402 C7748.63909,10121.918 7728.84539,10114.0042 7709.05169,10129.8322 C7661.54707,10171.3814 7695.19609,10266.3509 7596.22802,10238.6513 C7576.43432,10232.7157 7554.66135,10181.2741 7566.53754,10159.5102 C7574.45505,10147.639 7594.24875,10149.6176 7604.14553,10139.7248 C7610.08362,10131.8108 7610.08362,10119.9397 7612.06303,10110.047 C7614.04217,10100.1544 7621.95968,10092.2402 7619.98026,10082.3476 C7618.00113,10070.4764 7598.20743,10064.5408 7600.18684,10052.6695 C7608.10407,10017.0561 7655.60897,10036.8413 7669.46444,10017.0561 C7703.1136,9977.48552 7663.52634,9971.54992 7647.69147,9949.78599 C7631.85645,9926.04376 7639.77396,9892.40864 7627.89777,9866.68797 C7621.95968,9850.85963 7614.04217,9837.00986 7604.14553,9825.13868 C7602.16612,9821.18166 7594.24875,9821.18166 7590.28993,9817.22465 C7554.66135,9763.80431 7592.26934,9795.46071 7568.51696,9736.10492 C7538.82634,9660.92079 7521.01206,9698.51293 7461.63124,9702.4698 C7459.65183,9702.4698 7463.61065,9696.53421 7461.63124,9692.57733 C7453.71373,9684.66316 7443.81709,9674.77055 7431.9409,9668.83496 C7420.06471,9662.89937 7396.31233,9668.83496 7388.39482,9654.9852 C7380.47732,9641.13544 7404.2297,9627.28567 7402.25043,9611.45761 C7400.27102,9595.62913 7388.39482,9581.77964 7380.47732,9569.90846 C7332.97269,9504.61694 7325.05519,9595.62913 7269.63306,9575.84405 C7263.69496,9573.86547 7307.2409,9542.20893 7287.4472,9528.35917 C7216.1902,9476.91755 7285.46779,9530.33775 7208.27269,9520.44528 C7202.3346,9518.4667 7208.27269,9508.57381 7206.29328,9502.63836 C7198.37605,9478.89599 7156.80925,9415.58318 7137.01555,9407.66901 C7083.57283,9387.88365 7125.13936,9425.47579 7107.32507,9421.51877 C7089.51093,9417.56162 7073.67605,9395.79782 7053.88235,9397.77626 C7036.06807,9401.73342 7022.21247,9425.47579 7006.37773,9421.51877 C6988.56331,9417.56162 6990.54272,9391.84067 6978.66653,9379.96948 C6964.81092,9368.0983 6929.18235,9372.05545 6917.3063,9364.14128 L6887.61582,9322.59227 C6873.76022,9310.72095 6851.98739,9308.74251 6840.11092,9294.89274 C6816.35868,9259.27933 6844.06988,9265.21492 6816.35868,9243.45099 C6804.48249,9233.55838 6790.62689,9225.64421 6776.77143,9217.73017 C6772.8126,9215.7516 6764.89537,9221.68719 6760.93641,9219.70861 C6739.16358,9201.90184 6739.16358,9168.26699 6717.39047,9150.46008 C6679.78249,9118.80367 6656.03025,9142.54604 6616.44299,9126.7177 C6610.5049,9124.73927 6626.33977,9118.80367 6630.29845,9114.84652 C6642.17464,9099.01845 6618.42226,9073.29751 6612.48417,9067.36191 C6608.52548,9063.40476 6600.60798,9067.36191 6596.64929,9063.40476 C6590.71134,9055.49073 6590.71134,9043.61954 6582.79383,9037.68395 C6572.89705,9029.76978 6553.10335,9035.70537 6545.18585,9023.83419 C6539.24775,9015.92002 6557.06204,9000.09195 6547.16526,8994.15636 C6535.28907,8984.26361 6515.49537,8996.13466 6499.66036,8990.1992 C6489.76372,8986.24219 6505.59873,8968.43541 6505.59873,8956.56422 C6511.53683,8916.99351 6505.59873,8903.14389 6483.82562,8869.50891 C6442.25895,8810.15298 6471.94943,8756.73264 6422.46526,8711.22648 C6418.50671,8705.29088 6410.58921,8703.31244 6404.65111,8701.33387 C6402.6717,8701.33387 6400.69215,8707.26946 6398.71301,8705.29088 C6388.8161,8701.33387 6382.878,8689.46268 6372.98122,8689.46268 C6367.04313,8689.46268 6378.91932,8707.26946 6372.98122,8705.29088 C6357.14635,8701.33387 6345.27002,8689.46268 6331.41469,8679.57021 C6325.4766,8675.61292 6275.99243,8624.1713 6260.15741,8624.1713 C6256.19873,8624.1713 6262.13682,8634.06391 6258.17828,8636.04248 C6254.21932,8638.02092 6248.28122,8636.04248 6246.30181,8632.08533 C6236.40517,8620.21414 6194.8385,8600.42879 6175.04481,8600.42879 C6167.1273,8600.42879 6115.66399,8630.10689 6111.70517,8638.02092 C6107.74648,8645.93509 6113.68458,8657.80628 6107.74648,8663.74173 C6101.80839,8671.6559 6085.97338,8669.67733 6080.03528,8675.61292 C6066.17996,8689.46268 6056.28304,8721.11922 6040.44816,8734.96899 C6014.71637,8760.68966 5969.19102,8758.71136 5939.50054,8762.66824 C5929.60376,8727.05482 5996.90209,8681.54851 5967.21175,8659.78485 C5957.31483,8653.84926 5943.45923,8661.76316 5931.58304,8663.74173 C5919.70685,8663.74173 5905.85124,8669.67733 5893.97505,8665.72045 C5872.20222,8659.78485 5820.73864,8622.19272 5822.71805,8594.49319 C5822.71805,8590.53618 5832.61483,8590.53618 5832.61483,8586.5793 C5830.63556,8580.64371 5810.842,8574.70811 5816.78009,8562.83679 C5824.6976,8554.92276 5834.59424,8548.98717 5840.53233,8539.09442 C5842.51175,8537.11598 5836.57365,8533.15883 5838.55292,8529.20181 C5840.53233,8523.26622 5858.34662,8533.15883 5860.32603,8527.22323 C5860.32603,8511.39503 5858.34662,8495.56669 5852.40853,8483.69564 C5842.51175,8467.86744 5777.1927,8442.14649 5781.15152,8410.48995 C5781.15152,8400.59748 5798.96581,8400.59748 5808.86259,8398.6189 C5814.80054,8398.6189 5818.7595,8410.48995 5824.6976,8408.51137 C5834.59424,8406.53307 5897.93401,8355.09118 5888.0371,8337.2844 C5882.099,8325.41335 5862.30544,8323.43464 5856.36721,8309.58487 C5850.42911,8301.67098 5858.34662,8287.82122 5854.38794,8279.90705 C5826.67673,8232.42244 5775.21342,8256.16467 5866.26413,8202.74448 C5886.05782,8238.35803 5939.50054,8198.78732 5965.23234,8192.85173 C5983.04662,8188.89471 5996.90209,8212.63708 6014.71637,8212.63708 C6016.69578,8212.63708 6072.11805,8155.25959 6072.11805,8145.36712 C6074.09719,8135.47451 6056.28304,8131.51736 6058.26245,8123.60319 C6062.22113,8111.732 6078.05615,8107.77499 6087.95279,8099.86082 C6097.84957,8091.94679 6105.76707,8084.03262 6115.66399,8076.11845 C6119.62267,8074.13987 6123.58136,8070.18285 6125.56077,8072.16157 C6129.51945,8084.03262 6127.54018,8095.9038 6127.54018,8107.77499 C6127.54018,8113.71058 6121.60209,8121.62475 6123.58136,8129.53892 C6137.43696,8155.25959 6169.10671,8161.19519 6190.87968,8169.10936 C6192.85909,8169.10936 6196.81778,8173.06637 6196.81778,8177.02353 C6194.8385,8184.9377 6180.9829,8190.87329 6182.96231,8198.78732 C6184.94158,8206.70149 6198.79719,8202.74448 6204.73528,8208.68007 C6212.65279,8218.57268 6216.61147,8252.20766 6228.48766,8242.31491 C6262.13682,8216.5941 6222.54957,8224.50827 6222.54957,8204.72291 C6222.54957,8161.19519 6270.05433,8149.324 6277.9717,8113.71058 C6277.9717,8109.75357 6256.19873,8056.33309 6289.84789,8062.26868 C6315.57968,8066.22598 6283.90979,8105.79641 6335.37324,8117.6676 C6367.04313,8127.56034 6341.31134,8087.98963 6394.75419,8097.88238 C6410.58921,8099.86082 6402.6717,8131.51736 6416.5273,8139.43153 C6424.44481,8143.38841 6440.27954,8135.47451 6438.30013,8127.56034 C6434.34145,8121.62475 6426.42394,8117.6676 6424.44481,8109.75357 C6424.44481,8101.8394 6436.32086,8095.9038 6434.34145,8087.98963 C6430.38276,8078.09702 6394.75419,8056.33309 6422.46526,8036.54801 C6458.09383,8010.82706 6444.23823,8068.20428 6485.80503,8058.31181 C6509.55728,8050.39764 6471.94943,8022.69825 6471.94943,8018.7411 C6475.90812,8010.82706 6481.84621,8004.89147 6483.82562,7996.9773 C6487.78417,7989.06313 6485.80503,7979.17066 6487.78417,7971.25649 L6487.78417,7971.25649 C6519.45406,7987.08483 6491.74313,7967.29947 6523.41288,7971.25649 C6539.24775,7973.23507 6555.08277,8014.78408 6586.75238,7996.9773 L6612.48417,7943.5571 C6628.31918,7931.68592 6697.59678,7939.59995 6715.4112,7937.62151 C6745.10168,7935.64293 6768.85392,7909.92198 6798.5444,7909.92198 C6806.4619,7909.92198 6784.68879,7919.81459 6782.70952,7927.72876 C6772.8126,7969.27777 6798.5444,7941.57853 6814.37941,7965.3209 C6818.33809,7971.25649 6808.44131,7979.17066 6812.4,7987.08483 C6814.37941,7991.04171 6820.3175,7983.12754 6824.27619,7987.08483 C6861.88403,8014.78408 6871.78081,8018.7411 6923.2444,8026.65527 C6972.72843,8032.59086 7022.21247,8036.54801 7071.69664,8040.50503 L7071.69664,8040.50503 Z M6855.94594,8729.03339 C6859.90462,8723.0978 6859.90462,8715.18363 6865.84272,8711.22648 C6881.67773,8695.39827 6877.71891,8756.73264 6855.94594,8729.03339 L6855.94594,8729.03339 Z" id="it" fill="#87B024"></path>
                        <path d="M7057.84104,6172.77308 C7061.79986,6204.42948 7093.46947,6265.76399 7097.42843,6285.5492 C7103.36653,6333.03395 7040.02675,6364.69035 7053.88235,6402.28249 C7061.79986,6426.02486 7137.01555,6435.91733 7137.01555,6465.59543 C7137.01555,6495.2734 7113.26317,6505.166 7131.07745,6526.92994 C7137.01555,6536.82241 7150.87115,6540.77942 7154.82997,6552.65075 C7160.76807,6562.54336 7152.85056,6576.39312 7154.82997,6586.28573 C7156.80925,6592.22132 7164.72675,6590.24274 7166.70616,6594.1999 C7176.60294,6608.04966 7152.85056,6641.6845 7146.91247,6653.55569 C7135.03628,6671.36247 7164.72675,6681.25522 7170.66485,6699.06199 C7174.62339,6708.95447 7160.76807,6720.82565 7166.70616,6728.73982 C7174.62339,6740.61101 7192.43768,6736.65399 7200.35519,6744.56816 C7228.06639,6770.28897 7216.1902,6914.72164 7192.43768,6918.67866 C7166.70616,6924.61425 7125.13936,6815.79514 7103.36653,6877.12951 C7099.40784,6887.02211 7135.03628,6894.93628 7127.11877,6900.87188 C7103.36653,6920.65723 7069.71723,6922.63581 7045.96485,6936.48544 C7042.00616,6938.46401 7045.96485,6948.35676 7042.00616,6950.33506 C7026.17115,6958.24923 7004.39832,6946.37818 6992.52213,6956.27065 C6982.62521,6964.18482 6986.58403,6980.01302 6976.68712,6987.92719 C6972.72843,6991.88435 6968.76975,6978.03459 6962.83165,6980.01302 C6945.01723,6983.97018 6943.03795,7007.71255 6931.1619,7015.62672 C6925.22381,7021.56231 6913.34762,7011.66957 6907.40952,7017.60516 C6901.47143,7021.56231 6907.40952,7033.4335 6901.47143,7039.36909 C6893.55392,7049.26156 6871.78081,7031.45492 6865.84272,7031.45492 C6816.35868,7039.36909 6808.44131,7076.96109 6792.6063,7108.61763 C6788.64762,7116.53152 6788.64762,7088.83227 6780.73011,7082.89668 C6774.79201,7074.98251 6762.91582,7073.00393 6753.01918,7071.0255 C6735.20476,7067.06834 6772.8126,7130.38129 6812.4,7156.10224 C6816.35868,7158.08081 6830.21428,7160.05925 6832.19369,7171.93044 C6838.13179,7199.62996 6812.4,7189.73735 6808.44131,7211.50115 C6806.4619,7217.4366 6850.00784,7290.64216 6855.94594,7296.57775 C6889.5951,7330.21287 6897.5126,7306.47064 6919.28571,7328.23429 C6933.14104,7342.08405 6935.12045,7363.84785 6948.97605,7375.7189 C6980.64594,7397.48283 7065.75854,7427.16079 7063.77913,7478.60255 C7061.79986,7532.02289 7049.92367,7520.1517 7008.35686,7510.2591 C7004.39832,7510.2591 7000.43963,7512.23753 6998.46022,7516.19469 C6994.5014,7535.98004 7006.37773,7557.7437 6986.58403,7573.5719 C6968.76975,7587.42167 6885.63641,7607.20702 6883.657,7638.86356 C6883.657,7638.86356 6931.1619,7704.15495 6931.1619,7706.13352 C6933.14104,7708.1121 6905.43011,7731.85433 6915.32689,7739.76864 C6937.1,7759.55372 6958.87283,7729.87576 6941.05854,7795.16742 C6941.05854,7799.12443 6937.1,7805.06003 6933.14104,7805.06003 C6869.80154,7787.25325 6919.28571,7755.59671 6889.5951,7753.61813 C6873.76022,7753.61813 6859.90462,7767.46789 6844.06988,7765.48931 C6836.15238,7763.51088 6838.13179,7749.66111 6832.19369,7747.68254 C6820.3175,7743.72552 6808.44131,7753.61813 6798.5444,7749.66111 C6794.58571,7747.68254 6802.50322,7735.81135 6798.5444,7735.81135 C6774.79201,7737.78993 6796.56498,7769.44647 6790.62689,7771.42491 C6762.91582,7779.33908 6717.39047,7767.46789 6691.65868,7777.3605 C6683.74131,7781.31765 6687.7,7795.16742 6679.78249,7799.12443 C6671.86526,7805.06003 6661.96834,7795.16742 6654.05097,7801.10301 C6648.11274,7803.08131 6656.03025,7812.9742 6652.07156,7816.93107 C6650.09215,7818.90979 6582.79383,7836.71643 6574.87619,7832.75941 C6570.91764,7828.80226 6574.87619,7818.90979 6570.91764,7814.9525 C6568.93823,7810.99548 6559.04145,7810.99548 6557.06204,7807.0386 C6555.08277,7803.08131 6566.95896,7805.06003 6564.97954,7801.10301 C6557.06204,7775.38206 6501.63977,7807.0386 6485.80503,7789.23182 C6485.80503,7789.23182 6489.76372,7787.25325 6489.76372,7785.27467 C6477.88753,7777.3605 6489.76372,7810.99548 6485.80503,7824.84524 C6485.80503,7832.75941 6448.19705,7878.26558 6434.34145,7864.41582 C6426.42394,7856.50179 6448.19705,7844.6306 6442.25895,7836.71643 C6440.27954,7834.73785 6434.34145,7842.65202 6430.38276,7842.65202 C6426.42394,7842.65202 6420.48585,7840.67345 6418.50671,7836.71643 C6414.54775,7830.78084 6428.40335,7822.86667 6418.50671,7814.9525 C6410.58921,7809.0169 6406.63052,7799.12443 6398.71301,7795.16742 C6392.77492,7791.21026 6384.85741,7801.10301 6376.93991,7799.12443 C6372.98122,7795.16742 6376.93991,7785.27467 6372.98122,7781.31765 C6363.08444,7773.40348 6365.06372,7809.0169 6333.39383,7799.12443 C6311.621,7791.21026 6297.7654,7769.44647 6275.99243,7763.51088 C6274.01301,7763.51088 6208.6941,7767.46789 6208.6941,7767.46789 C6200.7766,7763.51088 6200.7766,7749.66111 6192.85909,7745.7041 C6190.87968,7741.74694 6196.81778,7755.59671 6192.85909,7757.57528 C6188.90041,7759.55372 6180.9829,7757.57528 6179.00349,7753.61813 C6177.02422,7747.68254 6186.921,7739.76864 6182.96231,7735.81135 C6153.2717,7706.13352 6119.62267,7759.55372 6125.56077,7761.5323 C6137.43696,7763.51088 6149.31315,7759.55372 6161.1892,7761.5323 C6169.10671,7763.51088 6147.3336,7765.48931 6141.39564,7769.44647 C6137.43696,7771.42491 6143.37506,7781.31765 6141.39564,7783.29623 C6091.91147,7809.0169 6127.54018,7771.42491 6087.95279,7773.40348 C6082.01469,7773.40348 5990.96413,7795.16742 5985.02603,7783.29623 C5983.04662,7779.33908 5996.90209,7777.3605 5994.92267,7775.38206 C5977.10853,7761.5323 5969.19102,7820.88809 5969.19102,7751.63969 C5967.21175,7723.94016 5987.00517,7698.21935 5988.98458,7670.51997 C5988.98458,7666.56281 5981.06707,7666.56281 5981.06707,7660.62722 C5979.08794,7650.73461 5983.04662,7640.84214 5987.00517,7630.94939 L6014.71637,7585.44323 C6016.69578,7573.5719 6018.67506,7530.04431 6024.61315,7516.19469 C6040.44816,7484.53815 6080.03528,7460.79591 6101.80839,7423.20378 C6109.7259,7409.35402 5990.96413,7395.50425 5983.04662,7389.56866 C5977.10853,7383.63307 5981.06707,7371.76202 5975.12912,7365.82643 C5965.23234,7357.91226 5901.89256,7383.63307 5897.93401,7377.69761 C5895.9546,7371.76202 5903.87211,7363.84785 5899.91315,7359.89083 C5840.53233,7306.47064 5880.11973,7387.59036 5856.36721,7361.86941 C5836.57365,7342.08405 5826.67673,7296.57775 5810.842,7286.68528 C5804.9039,7280.74969 5793.02771,7286.68528 5789.06889,7280.74969 C5767.29592,7241.17897 5846.47043,7225.35077 5818.7595,7191.71579 C5814.80054,7185.7802 5767.29592,7181.82318 5757.399,7140.27417 C5739.58472,7067.06834 5830.63556,7071.0255 5802.92449,7025.51933 C5796.98639,7015.62672 5779.17211,7017.60516 5775.21342,7005.73397 C5773.23401,6997.81994 5789.06889,6989.90577 5787.08962,6981.9916 C5787.08962,6976.05601 5775.21342,6983.97018 5771.2546,6980.01302 C5769.27533,6978.03459 5741.56413,6936.48544 5743.54354,6930.54984 C5745.52281,6922.63581 5759.37841,6922.63581 5761.35782,6914.72164 C5767.29592,6881.08652 5709.89438,6869.21534 5727.70852,6865.25846 C5733.64662,6863.27974 5737.60558,6871.19391 5741.56413,6871.19391 L5779.17211,6837.55893 C5781.15152,6827.66632 5755.41973,6839.53751 5763.33723,6823.70931 C5769.27533,6809.85954 5783.13079,6799.96707 5789.06889,6786.11731 C5806.88304,6742.58958 5763.33723,6710.93304 5751.46091,6689.16911 C5749.48163,6685.21223 5753.44032,6679.27664 5755.41973,6675.31962 C5755.41973,6671.36247 5751.46091,6665.42688 5755.41973,6663.44844 C5765.31651,6657.51284 5777.1927,6663.44844 5789.06889,6659.49128 C5793.02771,6657.51284 5785.1102,6645.64166 5789.06889,6647.6201 C5800.94494,6651.57725 5808.86259,6665.42688 5822.71805,6665.42688 C5836.57365,6667.40545 5890.01651,6649.59867 5895.9546,6635.74891 C5901.89256,6621.89915 5858.34662,6619.92085 5876.16091,6608.04966 C5907.83066,6586.28573 5945.43864,6578.37156 5937.52113,6528.90824 C5935.54186,6501.20899 5862.30544,6513.08017 5880.11973,6483.40221 C5882.099,6477.46662 5891.99592,6483.40221 5891.99592,6479.44506 C5893.97505,6473.50946 5884.07841,6467.57387 5886.05782,6461.63828 C5886.05782,6457.68126 5891.99592,6457.68126 5895.9546,6457.68126 C5909.81007,6457.68126 5921.68626,6463.61685 5935.54186,6463.61685 C5951.37673,6463.61685 5937.52113,6431.96045 5943.45923,6416.13225 C5947.41805,6402.28249 5981.06707,6338.96954 5977.10853,6305.33456 C5983.04662,6303.35598 5988.98458,6299.39897 5994.92267,6291.4848 C6002.84018,6283.57063 5985.02603,6287.52764 5967.21175,6287.52764 L5967.21175,6287.52764 C5963.25292,6283.57063 5957.31483,6285.5492 5953.35615,6285.5492 C5949.39732,6285.5492 5947.41805,6283.57063 5945.43864,6281.59205 C5929.60376,6261.80697 5973.14984,6200.4726 5988.98458,6192.55843 C5998.88136,6186.62284 6010.75769,6198.49389 6020.65447,6198.49389 C6169.10671,6192.55843 5866.26413,6180.68725 6091.91147,6186.62284 C6093.89088,6186.62284 6099.82898,6188.60114 6101.80839,6190.57972 C6113.68458,6212.34365 6121.60209,6303.35598 6171.08626,6283.57063 C6186.921,6277.63504 6155.25111,6141.11654 6200.7766,6141.11654 C6204.73528,6141.11654 6204.73528,6152.98772 6210.67338,6154.9663 C6216.61147,6158.92331 6226.50839,6158.92331 6234.42562,6158.92331 C6254.21932,6162.88047 6275.99243,6143.09511 6293.80671,6151.00928 C6307.66231,6156.94488 6307.66231,6176.72996 6315.57968,6188.60114 C6325.4766,6204.42948 6378.91932,6305.33456 6378.91932,6238.06446 C6378.91932,6224.21484 6349.22884,6228.17185 6337.35279,6216.30067 C6317.55909,6198.49389 6321.51764,6152.98772 6283.90979,6147.05213 C6277.9717,6147.05213 6232.44649,6156.94488 6236.40517,6129.24535 C6238.38458,6111.43857 6266.09551,6056.0398 6248.28122,6034.27586 C6242.34313,6028.34027 6198.79719,6050.1042 6192.85909,6028.34027 C6190.87968,6024.38325 6204.73528,6028.34027 6206.71469,6024.38325 C6210.67338,6020.42638 6192.85909,6012.51221 6196.81778,6012.51221 C6216.61147,6006.57661 6250.26077,6026.36197 6256.19873,5986.79126 C6256.19873,5982.83424 6210.67338,5933.37106 6206.71469,5925.45689 C6200.7766,5911.60713 6198.79719,5895.77893 6198.79719,5881.92916 C6212.65279,5883.90774 6236.40517,5881.92916 6242.34313,5881.92916 C6268.07492,5885.88618 6293.80671,5899.73594 6319.5385,5903.6931 C6317.55909,5909.62869 6317.55909,5911.60713 6321.51764,5909.62869 C6329.43528,5903.6931 6333.39383,5893.80035 6341.31134,5891.82177 C6345.27002,5891.82177 6339.33192,5901.71452 6341.31134,5905.67153 C6347.24943,5909.62869 6355.16694,5907.65011 6361.10503,5909.62869 C6374.96063,5911.60713 6388.8161,5911.60713 6398.71301,5917.54272 C6404.65111,5921.49987 6406.63052,5929.41377 6406.63052,5935.34936 C6406.63052,5937.32794 6402.6717,5935.34936 6402.6717,5935.34936 C6398.71301,5937.32794 6390.79551,5941.28495 6394.75419,5943.26353 C6396.7336,5947.22055 6406.63052,5939.30651 6408.60966,5943.26353 C6414.54775,5953.15628 6412.56862,5965.02746 6408.60966,5974.92007 C6404.65111,5984.81268 6376.93991,5990.74827 6384.85741,6000.64102 C6394.75419,6014.49078 6432.36204,5978.87709 6434.34145,5996.68387 C6436.32086,6008.55519 6414.54775,6030.31885 6426.42394,6034.27586 C6440.27954,6040.21146 6440.27954,6006.57661 6454.13515,6004.59804 C6466.01134,6002.6196 6511.53683,6042.19003 6521.43347,6038.23302 C6523.41288,6038.23302 6563.00013,5992.72685 6576.85574,6016.46908 C6604.5668,6067.91098 6466.01134,6121.33118 6541.22716,6129.24535 C6557.06204,6131.22393 6568.93823,6111.43857 6584.77324,6111.43857 C6604.5668,6113.41729 6582.79383,6170.7945 6626.33977,6141.11654 C6636.23655,6135.18094 6642.17464,6085.71776 6659.98907,6075.82515 C6685.72058,6061.97539 6713.43179,6056.0398 6725.30798,6083.73918 C6723.32857,6077.80359 6721.34929,6067.91098 6723.32857,6065.9324 C6735.20476,6052.08278 6751.03977,6046.14705 6760.93641,6034.27586 C6772.8126,6020.42638 6774.79201,5998.66244 6786.6682,5984.81268 C6790.62689,5980.85567 6816.35868,5990.74827 6840.11092,5998.66244 C6850.00784,5996.68387 6859.90462,5994.70543 6863.86344,5994.70543 C6877.71891,5994.70543 6869.80154,6022.40468 6877.71891,6034.27586 C6883.657,6042.19003 6897.5126,6038.23302 6903.4507,6046.14705 C6915.32689,6056.0398 6921.26485,6083.73918 6939.07913,6081.76074 C6952.93473,6081.76074 6968.76975,6071.868 6984.60462,6075.82515 C6990.54272,6077.80359 6976.68712,6087.69634 6976.68712,6093.63193 C6978.66653,6109.45999 6984.60462,6125.28833 6990.54272,6141.11654 C6996.48081,6156.94488 7016.27437,6162.88047 7032.10925,6168.81606 C7043.98544,6172.77308 7051.90294,6174.75165 7057.84104,6172.77308 L7057.84104,6172.77308 Z M6877.71891,6020.42638 C6881.67773,6002.6196 6873.76022,5980.85567 6879.69832,5963.04889 C6885.63641,5945.24211 6945.01723,5996.68387 6933.14104,5978.87709 C6925.22381,5967.0059 6899.49201,5972.9415 6893.55392,5959.09187 C6891.57451,5947.22055 6909.38879,5937.32794 6917.3063,5927.43547 C6925.22381,5921.49987 6911.36821,5951.1777 6919.28571,5953.15628 C6933.14104,5957.11329 6946.99664,5951.1777 6958.87283,5955.13472 C6970.74902,5959.09187 6943.03795,5974.92007 6946.99664,5986.79126 C6950.95546,6000.64102 6968.76975,6002.6196 6974.70784,6016.46908 C6978.66653,6020.42638 6952.93473,6040.21146 6921.26485,6048.12563 C6905.43011,6054.06122 6891.57451,6030.31885 6877.71891,6020.42638 L6877.71891,6020.42638 Z" id="de" fill="#87B024"></path>
                        <path d="M6487.78417,7971.25649 C6485.80503,7979.17066 6487.78417,7989.06313 6483.82562,7996.9773 C6481.84621,8004.89147 6475.90812,8010.82706 6471.94943,8018.7411 C6471.94943,8022.69825 6509.55728,8050.39764 6485.80503,8058.31181 C6444.23823,8068.20428 6458.09383,8010.82706 6422.46526,8036.54801 C6394.75419,8056.33309 6430.38276,8078.09702 6434.34145,8087.98963 C6436.32086,8095.9038 6424.44481,8101.8394 6424.44481,8109.75357 C6426.42394,8117.6676 6434.34145,8121.62475 6438.30013,8127.56034 C6440.27954,8135.47451 6424.44481,8143.38841 6416.5273,8139.43153 C6402.6717,8131.51736 6410.58921,8099.86082 6394.75419,8097.88238 C6341.31134,8087.98963 6367.04313,8127.56034 6335.37324,8117.6676 C6283.90979,8105.79641 6315.57968,8066.22598 6289.84789,8062.26868 C6256.19873,8056.33309 6277.9717,8109.75357 6277.9717,8113.71058 C6270.05433,8149.324 6222.54957,8161.19519 6222.54957,8204.72291 C6222.54957,8224.50827 6262.13682,8216.5941 6228.48766,8242.31491 C6216.61147,8252.20766 6212.65279,8218.57268 6204.73528,8208.68007 C6198.79719,8202.74448 6184.94158,8206.70149 6182.96231,8198.78732 C6180.9829,8190.87329 6194.8385,8184.9377 6196.81778,8177.02353 C6196.81778,8173.06637 6192.85909,8169.10936 6190.87968,8169.10936 C6169.10671,8161.19519 6137.43696,8155.25959 6123.58136,8129.53892 C6121.60209,8121.62475 6127.54018,8113.71058 6127.54018,8107.77499 C6127.54018,8095.9038 6129.51945,8084.03262 6125.56077,8072.16157 C6123.58136,8070.18285 6119.62267,8074.13987 6115.66399,8076.11845 C6105.76707,8084.03262 6097.84957,8091.94679 6087.95279,8099.86082 C6078.05615,8107.77499 6062.22113,8111.732 6058.26245,8123.60319 C6056.28304,8131.51736 6074.09719,8135.47451 6072.11805,8145.36712 C6072.11805,8155.25959 6016.69578,8212.63708 6014.71637,8212.63708 C5996.90209,8212.63708 5983.04662,8188.89471 5965.23234,8192.85173 C5939.50054,8198.78732 5886.05782,8238.35803 5866.26413,8202.74448 C5858.34662,8190.87329 5858.34662,8177.02353 5848.44984,8167.13078 C5846.47043,8163.17376 5838.55292,8175.04495 5836.57365,8171.08793 C5834.59424,8165.15234 5844.49102,8155.25959 5840.53233,8149.324 C5838.55292,8143.38841 5826.67673,8149.324 5822.71805,8145.36712 C5810.842,8125.58177 5838.55292,8127.56034 5836.57365,8115.68916 C5834.59424,8105.79641 5822.71805,8101.8394 5822.71805,8091.94679 C5820.73864,8086.01119 5836.57365,8074.13987 5828.65614,8072.16157 C5802.92449,8060.29038 5747.50222,8060.29038 5729.68807,8087.98963 C5725.72939,8091.94679 5727.70852,8095.9038 5727.70852,8101.8394 C5729.68807,8105.79641 5739.58472,8109.75357 5737.60558,8113.71058 C5725.72939,8137.45295 5698.01819,8147.3457 5674.26581,8141.41011 C5672.28639,8141.41011 5682.18331,8137.45295 5682.18331,8133.49594 C5682.18331,8107.77499 5701.97687,8117.6676 5703.95628,8111.732 C5713.8532,8080.07574 5688.12141,8052.37621 5711.87379,8022.69825 C5725.72939,8002.91289 5761.35782,8002.91289 5769.27533,7981.14924 C5775.21342,7969.27777 5763.33723,7951.47113 5769.27533,7937.62151 C5777.1927,7921.79317 5804.9039,7927.72876 5816.78009,7913.879 C5830.63556,7902.00781 5846.47043,7862.43738 5864.28472,7848.58762 C5874.18163,7840.67345 5884.07841,7862.43738 5886.05782,7834.73785 C5886.05782,7824.84524 5856.36721,7844.6306 5854.38794,7834.73785 C5850.42911,7824.84524 5866.26413,7816.93107 5872.20222,7809.0169 C5872.20222,7809.0169 5876.16091,7810.99548 5876.16091,7809.0169 C5876.16091,7805.06003 5868.24354,7797.14586 5872.20222,7795.16742 C5927.62435,7779.33908 5903.87211,7854.52321 5971.17043,7785.27467 C5973.14984,7785.27467 5977.10853,7781.31765 5979.08794,7777.3605 L5983.04662,7773.40348 C5987.00517,7771.42491 5990.96413,7771.42491 5994.92267,7775.38206 C5996.90209,7777.3605 5983.04662,7779.33908 5985.02603,7783.29623 C5990.96413,7795.16742 6082.01469,7773.40348 6087.95279,7773.40348 C6127.54018,7771.42491 6091.91147,7809.0169 6141.39564,7783.29623 C6143.37506,7781.31765 6137.43696,7771.42491 6141.39564,7769.44647 C6147.3336,7765.48931 6169.10671,7763.51088 6161.1892,7761.5323 C6149.31315,7759.55372 6137.43696,7763.51088 6125.56077,7761.5323 C6119.62267,7759.55372 6153.2717,7706.13352 6182.96231,7735.81135 C6186.921,7739.76864 6177.02422,7747.68254 6179.00349,7753.61813 C6180.9829,7757.57528 6188.90041,7759.55372 6192.85909,7757.57528 C6196.81778,7755.59671 6190.87968,7741.74694 6192.85909,7745.7041 C6200.7766,7749.66111 6200.7766,7763.51088 6208.6941,7767.46789 C6208.6941,7767.46789 6274.01301,7763.51088 6275.99243,7763.51088 C6295.78598,7767.46789 6309.64159,7787.25325 6327.45573,7797.14586 L6327.45573,7799.12443 C6327.45573,7812.9742 6353.18753,7816.93107 6345.27002,7836.71643 C6343.29075,7840.67345 6335.37324,7838.69501 6333.39383,7840.67345 C6327.45573,7850.56619 6307.66231,7921.79317 6311.621,7923.77175 C6315.57968,7925.75019 6380.89873,7931.68592 6382.878,7931.68592 C6386.83682,7935.64293 6376.93991,7941.57853 6380.89873,7945.53554 C6390.79551,7957.40673 6402.6717,7965.3209 6416.5273,7971.25649 C6448.19705,7987.08483 6454.13515,7933.66436 6475.90812,7937.62151 C6481.84621,7937.62151 6485.80503,7939.59995 6489.76372,7941.57853 L6487.78417,7959.3853 C6485.80503,7965.3209 6483.82562,7969.27777 6487.78417,7971.25649 L6487.78417,7971.25649 Z" id="ch" fill="#FFFFFF"></path>
                        <path d="M6327.45573,7799.12443 C6327.45573,7812.9742 6353.18753,7816.93107 6345.27002,7836.71643 C6343.29075,7840.67345 6335.37324,7838.69501 6333.39383,7840.67345 C6331.41469,7846.60904 6325.4766,7862.43738 6319.5385,7880.24416 L6329.43528,7902.00781 L6329.43528,7925.75019 C6349.22884,7927.72876 6380.89873,7931.68592 6382.878,7931.68592 C6386.83682,7935.64293 6376.93991,7941.57853 6380.89873,7945.53554 C6390.79551,7957.40673 6402.6717,7965.3209 6416.5273,7971.25649 C6448.19705,7987.08483 6454.13515,7933.66436 6475.90812,7937.62151 C6517.47478,7943.5571 6473.92884,7965.3209 6487.78417,7971.25649 C6519.45406,7987.08483 6491.74313,7967.29947 6523.41288,7971.25649 C6539.24775,7973.23507 6555.08277,8014.78408 6586.75238,7996.9773 L6612.48417,7943.5571 C6628.31918,7931.68592 6697.59678,7939.59995 6715.4112,7937.62151 C6745.10168,7935.64293 6768.85392,7909.92198 6798.5444,7909.92198 C6806.4619,7909.92198 6784.68879,7919.81459 6782.70952,7927.72876 C6772.8126,7969.27777 6798.5444,7941.57853 6814.37941,7965.3209 C6818.33809,7971.25649 6808.44131,7979.17066 6812.4,7987.08483 C6814.37941,7991.04171 6820.3175,7983.12754 6824.27619,7987.08483 C6861.88403,8014.78408 6871.78081,8018.7411 6923.2444,8026.65527 C6982.62521,8034.56944 7043.98544,8036.54801 7105.34594,8046.44062 C7121.18068,8048.4192 7137.01555,8060.29038 7152.85056,8062.26868 C7168.68544,8064.24726 7184.52045,8052.37621 7200.35519,8054.35479 C7210.2521,8056.33309 7216.1902,8070.18285 7226.08698,8070.18285 C7230.04566,8072.16157 7228.06639,8060.29038 7232.02507,8058.31181 C7241.92185,8048.4192 7257.75687,8044.46204 7267.65351,8032.59086 C7275.57101,8026.65527 7269.63306,8012.8055 7275.57101,8006.86991 C7313.179,7977.19194 7352.76639,8014.78408 7388.39482,7998.95588 C7400.27102,7993.02042 7402.25043,7975.21337 7414.12662,7971.25649 C7416.10589,7969.27777 7481.42494,7979.17066 7483.40421,7977.19194 C7489.34231,7975.21337 7477.46612,7967.29947 7475.48684,7961.36388 C7471.52802,7941.57853 7479.44553,7929.70734 7493.30113,7925.75019 L7493.30113,7925.75019 C7528.92956,7886.17975 7544.76471,7880.24416 7562.57886,7850.56619 C7566.53754,7842.65202 7530.90911,7801.10301 7540.80575,7781.31765 C7554.66135,7753.61813 7588.31051,7783.29623 7584.35183,7743.72552 C7582.37242,7710.09054 7522.9916,7714.04769 7534.86766,7704.15495 C7562.57886,7680.41257 7633.83587,7712.06912 7645.71206,7690.30532 C7647.69147,7682.39115 7619.98026,7619.07821 7647.69147,7607.20702 C7623.93909,7581.48607 7604.14553,7555.76512 7586.33124,7526.0873 C7570.49623,7500.36635 7627.89777,7458.81734 7586.33124,7429.13937 C7580.39315,7425.18222 7572.47564,7437.05354 7566.53754,7437.05354 C7556.64077,7435.07496 7536.84707,7409.35402 7522.9916,7413.31103 C7513.09483,7417.26819 7509.136,7433.09639 7497.25981,7439.03198 C7489.34231,7441.01056 7479.44553,7437.05354 7471.52802,7437.05354 C7418.0853,7431.11781 7372.55981,7387.59036 7315.15841,7387.59036 C7305.26149,7387.59036 7297.34412,7399.46141 7287.4472,7399.46141 C7283.48852,7397.48283 7287.4472,7387.59036 7283.48852,7385.61178 C7275.57101,7381.65449 7263.69496,7377.69761 7257.75687,7383.63307 C7255.77746,7387.59036 7259.73628,7444.96757 7255.77746,7448.92473 C7251.81877,7454.86032 7237.96317,7441.01056 7230.04566,7446.94615 L7214.21079,7498.38791 C7200.35519,7502.34493 7186.49959,7484.53815 7172.64426,7484.53815 C7164.72675,7484.53815 7166.70616,7500.36635 7158.78866,7502.34493 C7117.22199,7518.17313 7093.46947,7476.62398 7061.79986,7460.79591 L7059.82045,7460.79591 C7061.79986,7466.73151 7063.77913,7472.6671 7063.77913,7478.60255 C7061.79986,7532.02289 7049.92367,7520.1517 7008.35686,7510.2591 C7004.39832,7510.2591 7000.43963,7512.23753 6998.46022,7516.19469 C6994.5014,7535.98004 7006.37773,7557.7437 6986.58403,7573.5719 C6968.76975,7587.42167 6885.63641,7607.20702 6883.657,7638.86356 C6883.657,7638.86356 6931.1619,7704.15495 6931.1619,7706.13352 C6933.14104,7708.1121 6905.43011,7731.85433 6915.32689,7739.76864 C6937.1,7759.55372 6958.87283,7729.87576 6941.05854,7795.16742 C6941.05854,7799.12443 6937.1,7805.06003 6933.14104,7805.06003 C6869.80154,7787.25325 6919.28571,7755.59671 6889.5951,7753.61813 C6873.76022,7753.61813 6859.90462,7767.46789 6844.06988,7765.48931 C6836.15238,7763.51088 6838.13179,7749.66111 6832.19369,7747.68254 C6820.3175,7743.72552 6808.44131,7753.61813 6798.5444,7749.66111 C6794.58571,7747.68254 6802.50322,7735.81135 6798.5444,7735.81135 C6774.79201,7737.78993 6796.56498,7769.44647 6790.62689,7771.42491 C6762.91582,7779.33908 6717.39047,7767.46789 6691.65868,7777.3605 C6683.74131,7781.31765 6687.7,7795.16742 6679.78249,7799.12443 C6671.86526,7805.06003 6661.96834,7795.16742 6654.05097,7801.10301 C6648.11274,7803.08131 6656.03025,7812.9742 6652.07156,7816.93107 C6650.09215,7818.90979 6582.79383,7836.71643 6574.87619,7832.75941 C6570.91764,7828.80226 6574.87619,7818.90979 6570.91764,7814.9525 C6568.93823,7810.99548 6559.04145,7810.99548 6557.06204,7807.0386 C6555.08277,7803.08131 6566.95896,7805.06003 6564.97954,7801.10301 C6557.06204,7775.38206 6501.63977,7807.0386 6485.80503,7789.23182 C6485.80503,7789.23182 6489.76372,7787.25325 6489.76372,7785.27467 C6477.88753,7777.3605 6489.76372,7810.99548 6485.80503,7824.84524 C6485.80503,7832.75941 6448.19705,7878.26558 6434.34145,7864.41582 C6426.42394,7856.50179 6448.19705,7844.6306 6442.25895,7836.71643 C6440.27954,7834.73785 6434.34145,7842.65202 6430.38276,7842.65202 C6426.42394,7842.65202 6420.48585,7840.67345 6418.50671,7836.71643 C6414.54775,7830.78084 6428.40335,7822.86667 6418.50671,7814.9525 C6410.58921,7809.0169 6406.63052,7799.12443 6398.71301,7795.16742 C6392.77492,7791.21026 6384.85741,7801.10301 6376.93991,7799.12443 C6372.98122,7795.16742 6376.93991,7785.27467 6372.98122,7781.31765 C6363.08444,7773.40348 6365.06372,7809.0169 6333.39383,7799.12443 C6331.41469,7797.14586 6329.43528,7797.14586 6327.45573,7797.14586 L6327.45573,7799.12443 L6327.45573,7799.12443 Z" id="at" fill="#87B024"></path>
                        <path d="M5234.84703,6916.70022 C5250.68191,6916.70022 5260.57882,6889.00069 5272.45501,6894.93628 C5298.18681,6904.82903 5286.31062,6950.33506 5294.22785,6966.16354 C5306.10404,6993.86279 5349.65011,6962.20625 5355.58821,6993.86279 C5357.56762,7001.77696 5351.62953,7011.66957 5353.60894,7019.58374 C5357.56762,7035.4118 5438.72154,7015.62672 5442.68023,7049.26156 C5442.68023,7061.13275 5426.84535,7071.0255 5426.84535,7082.89668 C5424.86594,7090.81085 5440.70095,7090.81085 5440.70095,7096.74644 C5440.70095,7106.63905 5430.80404,7112.57465 5424.86594,7122.46712 C5418.92785,7134.3383 5484.24703,7150.16664 5511.95796,7124.44569 C5525.81356,7112.57465 5537.68975,7076.96109 5551.54535,7088.83227 C5555.50404,7092.78929 5545.60726,7098.72488 5543.62785,7104.66048 C5541.64844,7112.57465 5533.73107,7120.48882 5533.73107,7130.38129 C5533.73107,7138.29546 5545.60726,7140.27417 5547.58639,7148.18807 C5547.58639,7158.08081 5531.75166,7169.952 5539.66916,7177.86603 C5547.58639,7189.73735 5567.38009,7183.80162 5581.23569,7189.73735 C5589.1532,7195.67295 5591.13247,7207.54413 5599.04998,7213.47973 C5601.02939,7215.45803 5606.96748,7207.54413 5610.92617,7209.52243 C5614.88499,7211.50115 5616.86426,7215.45803 5618.84367,7219.41532 C5618.84367,7221.39362 5608.94676,7225.35077 5610.92617,7227.32921 C5616.86426,7231.28637 5626.76118,7227.32921 5630.71987,7233.2648 C5636.65796,7241.17897 5628.74045,7258.98575 5638.63737,7262.94291 C5650.51356,7268.8785 5664.36903,7255.02874 5678.22449,7257.00731 C5684.16258,7257.00731 5690.10068,7258.98575 5696.03878,7260.96433 C5705.93569,7264.92135 5713.8532,7268.8785 5721.77057,7272.83552 C5723.74998,7274.81409 5721.77057,7282.72799 5723.74998,7280.74969 C5735.62603,7280.74969 5745.52281,7270.85694 5755.41973,7270.85694 C5767.29592,7270.85694 5779.17211,7276.79253 5789.06889,7280.74969 C5793.02771,7286.68528 5804.9039,7280.74969 5810.842,7286.68528 C5826.67673,7296.57775 5836.57365,7342.08405 5856.36721,7361.86941 C5880.11973,7387.59036 5840.53233,7306.47064 5899.91315,7359.89083 C5903.87211,7363.84785 5895.9546,7371.76202 5897.93401,7377.69761 C5901.89256,7383.63307 5965.23234,7357.91226 5975.12912,7365.82643 C5981.06707,7371.76202 5977.10853,7383.63307 5983.04662,7389.56866 C5990.96413,7395.50425 6109.7259,7409.35402 6101.80839,7423.20378 C6080.03528,7460.79591 6040.44816,7484.53815 6024.61315,7516.19469 C6018.67506,7530.04431 6016.69578,7573.5719 6014.71637,7585.44323 L5987.00517,7630.94939 C5983.04662,7640.84214 5979.08794,7650.73461 5981.06707,7660.62722 C5981.06707,7666.56281 5988.98458,7666.56281 5988.98458,7670.51997 C5987.00517,7698.21935 5967.21175,7723.94016 5969.19102,7751.63969 C5969.19102,7777.3605 5969.19102,7785.27467 5971.17043,7785.27467 C5903.87211,7854.52321 5927.62435,7779.33908 5872.20222,7795.16742 C5868.24354,7797.14586 5876.16091,7805.06003 5876.16091,7809.0169 C5866.26413,7816.93107 5850.42911,7824.84524 5854.38794,7834.73785 C5856.36721,7844.6306 5886.05782,7824.84524 5886.05782,7834.73785 C5884.07841,7862.43738 5874.18163,7840.67345 5864.28472,7848.58762 C5846.47043,7862.43738 5830.63556,7902.00781 5816.78009,7913.879 C5804.9039,7927.72876 5777.1927,7921.79317 5769.27533,7937.62151 C5763.33723,7951.47113 5775.21342,7969.27777 5769.27533,7981.14924 C5761.35782,8002.91289 5725.72939,8002.91289 5711.87379,8022.69825 C5688.12141,8052.37621 5713.8532,8080.07574 5703.95628,8111.732 C5701.97687,8117.6676 5682.18331,8107.77499 5682.18331,8133.49594 C5682.18331,8137.45295 5672.28639,8141.41011 5674.26581,8141.41011 C5698.01819,8147.3457 5725.72939,8137.45295 5737.60558,8113.71058 C5739.58472,8109.75357 5729.68807,8105.79641 5727.70852,8101.8394 C5727.70852,8095.9038 5725.72939,8091.94679 5729.68807,8087.98963 C5747.50222,8060.29038 5802.92449,8060.29038 5828.65614,8072.16157 C5836.57365,8074.13987 5820.73864,8086.01119 5822.71805,8091.94679 C5822.71805,8101.8394 5834.59424,8105.79641 5836.57365,8115.68916 C5838.55292,8127.56034 5810.842,8125.58177 5822.71805,8145.36712 C5826.67673,8149.324 5838.55292,8143.38841 5840.53233,8149.324 C5844.49102,8155.25959 5834.59424,8165.15234 5836.57365,8171.08793 C5838.55292,8175.04495 5846.47043,8163.17376 5848.44984,8167.13078 C5858.34662,8177.02353 5858.34662,8190.87329 5866.26413,8202.74448 C5775.21342,8256.16467 5826.67673,8232.42244 5854.38794,8279.90705 C5858.34662,8287.82122 5850.42911,8301.67098 5856.36721,8309.58487 C5862.30544,8323.43464 5882.099,8325.41335 5888.0371,8337.2844 C5897.93401,8355.09118 5834.59424,8406.53307 5824.6976,8408.51137 C5818.7595,8410.48995 5814.80054,8398.6189 5808.86259,8398.6189 C5798.96581,8400.59748 5781.15152,8400.59748 5781.15152,8410.48995 C5777.1927,8442.14649 5842.51175,8467.86744 5852.40853,8483.69564 C5858.34662,8495.56669 5860.32603,8511.39503 5860.32603,8527.22323 C5858.34662,8533.15883 5840.53233,8523.26622 5838.55292,8529.20181 C5836.57365,8533.15883 5842.51175,8537.11598 5840.53233,8539.09442 C5834.59424,8548.98717 5824.6976,8554.92276 5816.78009,8562.83679 C5810.842,8574.70811 5830.63556,8580.64371 5832.61483,8586.5793 C5832.61483,8590.53618 5822.71805,8590.53618 5822.71805,8594.49319 C5820.73864,8622.19272 5872.20222,8659.78485 5893.97505,8665.72045 C5905.85124,8669.67733 5919.70685,8663.74173 5931.58304,8663.74173 C5943.45923,8661.76316 5957.31483,8653.84926 5967.21175,8659.78485 C5996.90209,8681.54851 5929.60376,8727.05482 5939.50054,8762.66824 C5937.52113,8762.66824 5903.87211,8774.53942 5899.91315,8778.49657 C5886.05782,8780.47501 5872.20222,8782.45359 5864.28472,8790.36776 C5858.34662,8796.30335 5868.24354,8810.15298 5860.32603,8816.08857 C5852.40853,8822.0243 5838.55292,8814.11013 5828.65614,8820.04573 C5820.73864,8825.98132 5822.71805,8841.80938 5812.82141,8849.72355 C5804.9039,8853.68057 5795.00698,8843.78796 5787.08962,8847.74497 C5781.15152,8849.72355 5785.1102,8859.61616 5779.17211,8865.55175 C5773.23401,8873.46592 5757.399,8875.4445 5753.44032,8885.33711 C5751.46091,8893.25128 5769.27533,8905.12247 5761.35782,8911.05806 C5751.46091,8920.9508 5731.66748,8911.05806 5717.81188,8913.03664 C5699.9976,8916.99351 5688.12141,8934.80029 5672.28639,8940.73588 C5654.47211,8946.67148 5668.32771,8918.97223 5628.74045,8916.99351 C5603.00866,8915.01494 5630.71987,8926.8864 5626.76118,8930.84328 C5622.80236,8934.80029 5614.88499,8934.80029 5608.94676,8932.82199 C5603.00866,8932.82199 5597.07057,8932.82199 5595.09129,8928.8647 C5595.09129,8924.90782 5608.94676,8915.01494 5581.23569,8901.16545 C5575.2976,8899.18687 5569.3595,8901.16545 5561.44199,8901.16545 C5547.58639,8897.2083 5531.75166,8899.18687 5521.85488,8889.29426 C5511.95796,8879.40152 5521.85488,8859.61616 5513.93737,8849.72355 C5509.97855,8843.78796 5502.06118,8857.63772 5494.14367,8857.63772 C5482.26748,8857.63772 5458.51524,8861.59474 5460.49438,8849.72355 C5462.47392,8833.89549 5498.10236,8839.83108 5500.08177,8824.00274 C5500.08177,8808.17454 5478.30894,8796.30335 5464.45334,8798.28179 C5452.57714,8800.26037 5474.34998,8822.0243 5468.41188,8829.9382 C5458.51524,8839.83108 5442.68023,8845.76667 5428.82476,8843.78796 C5397.15501,8841.80938 5407.05166,8786.41061 5401.11356,8794.32478 C5373.40263,8825.98132 5434.76286,8839.83108 5416.94857,8847.74497 C5353.60894,8873.46592 5381.31986,8831.91691 5379.34073,8824.00274 C5377.36132,8816.08857 5308.08345,8808.17454 5302.14535,8804.21739 C5286.31062,8796.30335 5266.51692,8770.5824 5246.72322,8782.45359 C5224.95039,8794.32478 5193.2805,8833.89549 5171.50739,8845.76667 C5151.7137,8855.65914 5112.12658,8847.74497 5088.3742,8881.38009 C5084.41538,8885.33711 5094.31229,8893.25128 5094.31229,8899.18687 C5090.35347,8918.97223 5064.62168,8930.84328 5062.64241,8952.60707 C5062.64241,8958.54266 5076.49801,8956.56422 5078.47728,8962.49982 C5088.3742,8998.11337 5062.64241,8988.22077 5076.49801,9027.7912 C5080.45669,9039.66239 5092.33288,9049.55513 5104.20907,9059.44774 L5096.29157,9059.44774 C5064.62168,9051.53357 5028.99325,9033.72679 4999.30277,9053.51215 C4993.36467,9057.46917 5001.28218,9073.29751 4993.36467,9075.27608 C4973.57098,9081.21168 4939.92195,9041.64096 4920.12826,9041.64096 C4902.31397,9041.64096 4888.45837,9051.53357 4872.62363,9053.51215 C4860.74717,9055.49073 4858.76803,9033.72679 4854.80921,9029.76978 C4844.91243,9021.85561 4829.07756,9017.89859 4815.22195,9011.96314 C4835.01565,8986.24219 4831.05683,8960.52124 4779.59352,8964.47826 C4777.61411,8964.47826 4771.67601,8972.39243 4767.71719,8982.28517 C4757.82041,8974.371 4763.75851,8956.56422 4753.86173,8948.65005 C4747.92363,8942.71446 4736.04744,8942.71446 4726.15052,8940.73588 C4722.19184,8940.73588 4716.25374,8942.71446 4714.27433,8940.73588 C4692.5015,8920.9508 4672.7078,8897.2083 4639.05851,8891.2727 C4615.30613,8887.31569 4625.20318,8932.82199 4625.20318,8932.82199 C4603.43007,8930.84328 4585.61579,8915.01494 4565.82209,8916.99351 C4559.88399,8916.99351 4559.88399,8928.8647 4553.9459,8928.8647 C4542.06971,8926.8864 4536.13175,8913.03664 4524.25556,8911.05806 C4512.37937,8909.07934 4504.46186,8920.9508 4492.58567,8918.97223 C4466.85388,8918.97223 4476.7508,8893.25128 4462.8952,8881.38009 C4435.18413,8857.63772 4409.45234,8893.25128 4383.72069,8873.46592 C4381.74127,8873.46592 4361.94758,8827.9599 4359.96817,8825.98132 C4334.23665,8806.19596 4290.69071,8816.08857 4262.97951,8790.36776 C4259.02082,8786.41061 4264.95892,8776.518 4262.97951,8772.56098 C4259.02082,8768.60383 4247.14463,8790.36776 4235.26844,8786.41061 C4209.53665,8774.53942 4266.93805,8750.79705 4249.12391,8731.01183 C4243.18581,8723.0978 4231.30962,8719.14065 4221.41284,8717.16207 C4219.43343,8717.16207 4221.41284,8727.05482 4217.45402,8725.07624 C4217.45402,8725.07624 4195.68105,8705.29088 4183.805,8693.4197 C4195.68105,8691.44126 4203.59855,8689.46268 4211.51592,8685.50567 C4268.9176,8657.80628 4292.66985,8467.86744 4314.44295,8408.51137 C4318.40164,8398.6189 4322.36032,8384.76914 4332.25724,8380.81213 C4340.17475,8376.85511 4357.98903,8394.66189 4361.94758,8384.76914 C4367.88567,8374.87653 4354.03007,8359.04819 4342.15402,8357.06975 C4332.25724,8355.09118 4330.27783,8382.7907 4320.38105,8378.83355 C4300.58735,8372.89796 4330.27783,8341.24141 4334.23665,8321.45606 C4342.15402,8289.79979 4363.92713,8173.06637 4385.69996,8157.23817 C4393.61746,8153.28129 4421.32853,8196.80888 4429.24604,8216.5941 C4456.95724,8275.95003 4419.34926,8220.55125 4439.14295,8283.8642 C4443.10164,8295.73539 4454.97769,8305.62799 4458.93637,8317.49918 C4460.91579,8323.43464 4452.99828,8341.24141 4458.93637,8339.26297 C4468.83329,8337.2844 4474.77139,8323.43464 4472.79198,8315.52047 C4468.83329,8303.64942 4454.97769,8299.6924 4447.06018,8289.79979 C4431.22545,8264.07884 4452.99828,8216.5941 4437.16354,8186.91614 C4429.24604,8171.08793 4415.39043,8157.23817 4403.51424,8143.38841 C4395.59688,8133.49594 4385.69996,8123.60319 4373.82377,8115.68916 C4385.69996,8119.64617 4399.55556,8123.60319 4411.43175,8117.6676 C4425.28735,8109.75357 4381.74127,8089.96821 4385.69996,8074.13987 C4389.65878,8058.31181 4407.47307,8050.39764 4409.45234,8034.56944 C4411.43175,8022.69825 4397.57615,8012.8055 4397.57615,8000.93432 C4397.57615,7987.08483 4409.45234,7973.23507 4409.45234,7959.3853 C4409.45234,7955.42829 4399.55556,7955.42829 4393.61746,7957.40673 C4389.65878,7959.3853 4393.61746,7971.25649 4389.65878,7969.27777 C4379.76186,7965.3209 4377.78273,7949.4927 4369.86522,7943.5571 C4363.92713,7941.57853 4356.00962,7949.4927 4350.07152,7945.53554 C4344.13343,7941.57853 4350.07152,7927.72876 4344.13343,7923.77175 C4308.50486,7890.13663 4328.29855,7963.34232 4294.64926,7898.0508 C4292.66985,7892.11534 4290.69071,7848.58762 4282.77307,7838.69501 C4280.79365,7836.71643 4274.85556,7838.69501 4272.87615,7836.71643 C4264.95892,7824.84524 4255.062,7810.99548 4249.12391,7797.14586 C4241.20654,7777.3605 4280.79365,7757.57528 4284.75261,7749.66111 C4292.66985,7731.85433 4245.16522,7719.98329 4245.16522,7718.00471 C4241.20654,7704.15495 4241.20654,7696.24091 4243.18581,7690.30532 C4160.05261,7682.39115 4235.26844,7662.6058 4237.24771,7619.07821 C4239.22713,7593.35726 4156.09379,7615.12119 4154.11452,7605.22844 C4150.1557,7589.40024 4173.90808,7583.46465 4185.78441,7575.55048 C4187.76354,7573.5719 4175.88749,7579.5075 4173.90808,7577.52906 C4171.9288,7575.55048 4173.90808,7569.61489 4171.9288,7567.63631 C4165.99071,7567.63631 4164.0113,7573.5719 4158.0732,7575.55048 C4142.23833,7575.55048 4126.40332,7563.67929 4112.54771,7569.61489 C4110.56858,7571.59346 4108.58903,7573.5719 4108.58903,7575.55048 C4112.54771,7547.85123 4132.34141,7522.13028 4090.77488,7518.17313 C4069.00177,7516.19469 4074.93987,7543.89408 4059.10499,7534.00147 C4047.2288,7526.0873 4031.39407,7500.36635 4019.5176,7494.43076 C4011.60037,7492.45232 4001.70345,7500.36635 3995.76536,7494.43076 C3970.03357,7474.6454 4001.70345,7450.90317 3952.21928,7454.86032 C3948.2606,7456.83876 3956.1781,7466.73151 3952.21928,7468.70981 C3938.36395,7474.6454 3918.57026,7486.51672 3906.69407,7476.62398 C3894.81788,7468.70981 3906.69407,7446.94615 3902.73524,7433.09639 C3896.79715,7409.35402 3871.06536,7415.28961 3855.23048,7405.397 C3853.25107,7403.41842 3859.18917,7397.48283 3863.14799,7397.48283 C3882.94169,7393.52595 3902.73524,7395.50425 3922.52894,7395.50425 C3926.48749,7395.50425 3936.38454,7403.41842 3936.38454,7399.46141 C3936.38454,7395.50425 3918.57026,7367.805 3906.69407,7348.01965 C3918.57026,7353.95524 3930.44645,7349.99822 3942.3225,7351.97666 C3950.24001,7351.97666 3968.05429,7359.89083 3962.1162,7355.93382 C3948.2606,7348.01965 3924.50835,7351.97666 3918.57026,7338.12704 C3914.61143,7326.25571 3946.28118,7330.21287 3948.2606,7318.34168 C3954.19869,7294.59945 3829.49883,7385.61178 3871.06536,7278.77111 C3873.04477,7278.77111 3938.36395,7253.05016 3956.1781,7253.05016 C3977.95107,7253.05016 3928.46704,7278.77111 3975.97166,7264.92135 C3989.82726,7262.94291 4003.68286,7247.11457 4017.53847,7251.07172 C4029.41452,7255.02874 4023.47656,7278.77111 4035.35261,7282.72799 C4043.27012,7282.72799 4037.33202,7258.98575 4045.24939,7257.00731 C4059.10499,7257.00731 4069.00177,7282.72799 4082.85738,7278.77111 C4094.73357,7274.81409 4086.8162,7249.09314 4098.69239,7241.17897 C4102.65107,7237.22196 4110.56858,7249.09314 4116.50654,7249.09314 C4128.38273,7249.09314 4142.23833,7237.22196 4152.13511,7243.15755 C4162.03189,7249.09314 4154.11452,7268.8785 4164.0113,7274.81409 C4169.94939,7278.77111 4169.94939,7264.92135 4175.88749,7260.96433 C4185.78441,7253.05016 4217.45402,7338.12704 4225.37152,7353.95524 C4227.35094,7355.93382 4227.35094,7346.04107 4231.30962,7346.04107 C4243.18581,7338.12704 4255.062,7336.14846 4268.9176,7330.21287 C4278.81452,7324.27728 4286.73175,7308.44894 4296.62867,7312.40609 C4314.44295,7320.32012 4298.60794,7389.56866 4346.11284,7369.7833 C4359.96817,7363.84785 4352.05094,7338.12704 4361.94758,7324.27728 C4371.84436,7310.42751 4373.82377,7351.97666 4385.69996,7353.95524 C4397.57615,7355.93382 4407.47307,7349.99822 4419.34926,7351.97666 C4431.22545,7351.97666 4454.97769,7369.7833 4458.93637,7357.91226 C4462.8952,7336.14846 4417.36985,7320.32012 4423.30794,7298.55647 C4427.26676,7284.7067 4431.22545,7270.85694 4437.16354,7257.00731 C4433.20486,7257.00731 4429.24604,7255.02874 4431.22545,7247.11457 C4435.18413,7233.2648 4447.06018,7217.4366 4447.06018,7201.60854 C4447.06018,7197.65139 4435.18413,7203.58684 4433.20486,7199.62996 C4429.24604,7189.73735 4433.20486,7173.90901 4427.26676,7164.0164 C4425.28735,7158.08081 4413.41116,7158.08081 4409.45234,7152.14522 C4405.49366,7140.27417 4403.51424,7124.44569 4405.49366,7112.57465 C4405.49366,7106.63905 4415.39043,7104.66048 4415.39043,7100.70346 C4415.39043,7086.8537 4407.47307,7073.00393 4405.49366,7059.15431 C4405.49366,7055.19716 4409.45234,7067.06834 4411.43175,7069.04692 C4427.26676,7076.96109 4441.12209,7084.87512 4456.95724,7088.83227 C4460.91579,7090.81085 4466.85388,7086.8537 4470.81257,7086.8537 C4486.64758,7086.8537 4502.48245,7078.93953 4516.33805,7086.8537 C4524.25556,7088.83227 4520.2966,7100.70346 4516.33805,7108.61763 C4514.35864,7112.57465 4508.42055,7110.59607 4504.46186,7114.55322 C4498.52377,7120.48882 4520.2966,7183.80162 4522.27615,7183.80162 C4603.43007,7195.67295 4486.64758,7146.20963 4549.98722,7169.952 C4579.67769,7181.82318 4617.28567,7187.75878 4644.9966,7201.60854 C4654.89352,7207.54413 4660.83161,7221.39362 4670.72839,7223.3722 C4716.25374,7229.30779 4706.35683,7203.58684 4740.00613,7193.69437 C4747.92363,7191.71579 4755.841,7191.71579 4765.73792,7191.71579 C4743.96481,7187.75878 4724.17125,7173.90901 4751.88232,7126.42441 C4771.67601,7094.76787 4904.29324,7090.81085 4939.92195,7071.0255 C4953.77728,7065.0899 4963.67434,7053.21885 4977.52994,7045.30468 C4989.40599,7039.36909 5011.17896,7041.34767 5017.11705,7029.47621 C5023.05515,7017.60516 5001.28218,7011.66957 4999.30277,6999.79838 C4997.32336,6993.86279 4999.30277,6983.97018 5003.26145,6980.01302 C5007.22028,6976.05601 5015.13764,6983.97018 5015.13764,6980.01302 C5015.13764,6976.05601 5005.24086,6976.05601 5005.24086,6970.12042 C5005.24086,6956.27065 5021.07588,6861.30144 5025.03456,6851.4087 C5032.95207,6827.66632 5098.27098,6823.70931 5116.08526,6821.73073 C5139.83751,6819.75215 5163.58989,6817.77371 5185.363,6813.81656 C5189.32168,6841.51609 5191.30109,6916.70022 5234.84703,6916.70022 Z M6295.78598,8972.39243 C6323.49719,8992.17778 6295.78598,9045.59798 6295.78598,9067.36191 C6295.78598,9075.27608 6313.60041,9093.08286 6311.621,9085.16869 C6307.66231,9077.25452 6295.78598,9055.49073 6297.7654,9063.40476 C6301.72408,9075.27608 6309.64159,9083.18998 6313.60041,9093.08286 C6319.5385,9106.93235 6319.5385,9150.46008 6319.5385,9162.33112 C6321.51764,9195.96624 6287.86862,9221.68719 6287.86862,9245.42956 C6287.86862,9271.15037 6297.7654,9306.76393 6275.99243,9330.5063 C6274.01301,9334.46346 6264.11623,9330.5063 6264.11623,9334.46346 C6264.11623,9340.39905 6277.9717,9334.46346 6275.99243,9338.42047 C6275.99243,9346.33464 6264.11623,9346.33464 6260.15741,9352.27024 C6254.21932,9366.12 6260.15741,9383.92664 6250.26077,9395.79782 C6222.54957,9423.49721 6230.46707,9366.12 6224.52898,9364.14128 C6198.79719,9356.22711 6182.96231,9376.01247 6165.14816,9346.33464 C6161.1892,9340.39905 6173.06539,9332.48488 6169.10671,9324.57071 C6163.16875,9312.69952 6139.41637,9308.74251 6141.39564,9294.89274 C6141.39564,9279.06454 6173.06539,9271.15037 6171.08626,9255.32203 C6169.10671,9243.45099 6137.43696,9267.1935 6135.45755,9255.32203 C6131.49887,9239.49397 6163.16875,9231.5798 6161.1892,9217.73017 C6159.21007,9201.90184 6129.51945,9205.85885 6125.56077,9190.03065 C6123.58136,9178.1596 6149.31315,9174.20259 6149.31315,9160.35282 C6149.31315,9148.48164 6129.51945,9142.54604 6123.58136,9130.67486 C6121.60209,9122.76069 6143.37506,9128.69628 6147.3336,9122.76069 C6151.29256,9108.91093 6149.31315,9091.10428 6157.23066,9079.2331 C6159.21007,9075.27608 6163.16875,9089.12557 6167.1273,9087.14727 C6177.02422,9085.16869 6179.00349,9071.31893 6188.90041,9067.36191 C6196.81778,9063.40476 6206.71469,9071.31893 6214.6322,9067.36191 C6224.52898,9061.42632 6224.52898,9043.61954 6234.42562,9041.64096 C6246.30181,9039.66239 6256.19873,9055.49073 6270.05433,9055.49073 C6281.93052,9055.49073 6268.07492,9029.76978 6270.05433,9015.92002 C6272.0336,9000.09195 6287.86862,8988.22077 6295.78598,8972.39243 L6295.78598,8972.39243 Z" id="fr" fill="#87B024"></path>
                        <path d="M6319.5385,7880.24416 L6329.43528,7902.00781 L6329.43528,7925.75019 C6319.5385,7925.75019 6313.60041,7923.77175 6311.621,7923.77175 C6309.64159,7921.79317 6315.57968,7902.00781 6319.5385,7880.24416 L6319.5385,7880.24416 Z" id="li" fill="#87B024"></path>
                    </g>
                </g>
            </g>
        </g>
    </g>
</svg>