<?xml version="1.0" encoding="UTF-8" standalone="no"?>
<svg width="138px" height="88px" viewBox="0 0 138 88" version="1.1" xmlns="http://www.w3.org/2000/svg" xmlns:xlink="http://www.w3.org/1999/xlink">
    <!-- Generator: Sketch 3.6 (26304) - http://www.bohemiancoding.com/sketch -->
    <title>ch</title>
    <desc>Created with Sketch.</desc>
    <defs></defs>
    <g id="Page-1" stroke="none" stroke-width="1" fill="none" fill-rule="evenodd">
        <g id="Group" transform="translate(-456.000000, -306.000000)" fill="#FFFFFF">
            <path d="M592.369283,347.529687 C592.039083,348.851114 592.369283,350.502857 591.708836,351.824284 C591.37859,353.145711 590.387874,354.136776 589.727404,355.458179 C589.727404,356.118904 596.001923,360.743864 592.039083,362.065291 C585.104048,363.717034 587.415726,354.136776 581.47143,358.431396 C576.848097,361.734905 582.792393,365.368824 583.452862,367.02059 C583.783109,368.342017 581.8017,369.333081 581.8017,370.654508 C582.1319,371.975912 583.452862,372.636637 584.113332,373.627702 C584.443578,374.949129 581.8017,376.270509 580.480737,375.609831 C578.169059,374.288404 579.490021,369.002719 576.848097,368.67238 C567.931653,367.02059 572.224763,373.627702 566.940937,371.975912 C558.35474,369.993783 563.638566,363.386718 559.345456,362.72597 C553.731407,361.734905 557.364024,370.654508 557.364024,371.31521 C556.043085,377.261574 548.117357,379.243703 548.117357,386.511516 C548.117357,389.815072 554.722123,388.493645 549.108073,392.788242 C547.126641,394.440032 546.466172,388.824008 545.145209,387.172241 C544.154493,386.181177 541.842815,386.841879 541.512592,385.520452 C541.182346,384.199048 543.494024,383.207984 543.824247,381.886557 C543.824247,381.225832 543.163778,380.56513 542.833531,380.56513 C539.200914,379.243703 533.917111,378.252638 531.605432,373.958064 C531.275209,372.636637 532.265925,371.31521 532.265925,370.324146 C532.265925,368.342017 532.596148,366.359888 531.935679,364.377782 C531.605432,364.047397 530.944963,364.708099 530.284493,365.038461 C528.633285,366.359888 527.312322,367.681315 525.661137,369.002719 C524.009974,370.324146 521.36805,370.984848 520.70758,372.966977 C520.377334,374.288404 523.349458,374.949129 523.019258,376.600895 C523.019258,378.252638 513.772568,387.832943 513.442322,387.832943 C510.470174,387.832943 508.158519,383.868686 505.186371,384.529387 C500.893261,385.520452 491.97684,392.127563 488.674446,386.181177 C487.353484,384.199048 487.353484,381.886557 485.702298,380.234767 C485.372052,379.574065 484.05109,381.556194 483.720866,380.895492 C483.39062,379.904428 485.041806,378.252638 484.381336,377.261574 C484.05109,376.270509 482.069658,377.261574 481.409188,376.600895 C479.427779,373.297339 484.05109,373.627702 483.720866,371.645573 C483.39062,369.993783 481.409188,369.333081 481.409188,367.681315 C481.078942,366.690251 483.720866,364.708099 482.399904,364.377782 C478.106817,362.395653 468.860127,362.395653 465.888002,367.02059 C465.227533,367.681315 465.557733,368.342017 465.557733,369.333081 C465.888002,369.993783 467.539165,370.654508 467.208965,371.31521 C465.227533,375.279468 460.604176,376.931258 456.641312,375.940193 C456.311066,375.940193 457.962275,375.279468 457.962275,374.618766 C457.962275,370.324146 461.264646,371.975912 461.594892,370.984848 C463.246101,365.699209 458.952991,361.074227 462.915854,356.118904 C465.227533,352.815349 471.171805,352.815349 472.492768,349.181476 C473.483484,347.199301 471.502052,344.226131 472.492768,341.913663 C473.813707,339.270809 478.437063,340.261873 480.418495,337.949382 C482.730151,335.967253 485.372052,329.360188 488.3442,327.047696 C489.995409,325.726269 491.646594,329.360188 491.97684,324.735205 C491.97684,323.083439 487.023238,326.386994 486.693014,324.735205 C486.032522,323.083439 488.674446,321.762012 489.665162,320.440585 C489.665162,320.440585 490.325632,320.770947 490.325632,320.440585 C490.325632,319.779906 489.004693,318.458479 489.665162,318.128139 C498.911829,315.485286 494.948988,328.038761 506.177087,316.47635 C506.507333,316.47635 507.167803,315.815648 507.498049,315.154923 L508.158519,314.494221 C508.818966,314.163859 509.479481,314.163859 510.139928,314.824584 C510.470174,315.154923 508.158519,315.485286 508.488765,316.146011 C509.479481,318.128139 524.670421,314.494221 525.661137,314.494221 C532.265925,314.163859 526.321606,320.440585 534.57758,316.146011 C534.907827,315.815648 533.917111,314.163859 534.57758,313.833519 C535.568273,313.172794 539.200914,312.842455 537.879951,312.512092 C535.898543,312.18173 533.917111,312.842455 531.935679,312.512092 C530.944963,312.18173 536.558989,303.262173 541.512592,308.217472 C542.173062,308.87822 540.521876,310.199601 540.852099,311.190665 C541.182346,311.85139 542.503308,312.18173 543.163778,311.85139 C543.824247,311.521028 542.833531,309.208536 543.163778,309.869261 C544.48474,310.529963 544.48474,312.842455 545.805702,313.503157 C545.805702,313.503157 556.703555,312.842455 557.033801,312.842455 C560.336172,313.503157 562.64785,316.806713 565.619975,318.458479 L565.619975,318.788841 C565.619975,321.101333 569.913085,321.762012 568.592123,325.065567 C568.2619,325.726269 566.940937,325.39593 566.610691,325.726269 C565.619975,327.378059 562.317627,339.270809 562.978097,339.601171 C563.638566,339.931511 574.536442,340.922598 574.866665,340.922598 C575.527158,341.5833 573.875949,342.574365 574.536442,343.235067 C576.187627,345.217196 578.169059,346.538623 580.480737,347.529687 C585.76454,350.172541 586.755256,341.252938 590.387874,341.913663 C591.37859,341.913663 592.039083,342.244002 592.699552,342.574365 L592.369283,345.547558 C592.039083,346.538623 591.708836,347.199301 592.369283,347.529687 L592.369283,347.529687 Z" id="ch"></path>
        </g>
    </g>
</svg>