<?xml version="1.0" encoding="UTF-8" standalone="no"?>
<svg width="1638px" height="780px" viewBox="0 0 1638 780" version="1.1" xmlns="http://www.w3.org/2000/svg" xmlns:xlink="http://www.w3.org/1999/xlink">
    <!-- Generator: Sketch 3.6 (26304) - http://www.bohemiancoding.com/sketch -->
    <title>Blank_political_map_Europe_in_2008_WF_(with_Kosovo)</title>
    <desc>Created with Sketch.</desc>
    <defs>
        <rect id="path-1" x="0" y="0" width="1637.84363" height="779.74385"></rect>
    </defs>
    <g id="Page-1" stroke="none" stroke-width="1" fill="none" fill-rule="evenodd">
        <g id="Blank_political_map_Europe_in_2008_WF_(with_Kosovo)">
            <g id="Group">
                <mask id="mask-2" fill="white">
                    <use xlink:href="#path-1"></use>
                </mask>
                <use id="maska" xlink:href="#path-1"></use>
                <rect id="ocean" fill="#2096BD" mask="url(#mask-2)" x="-8461.91922" y="-6396.60078" width="11391.6444" height="7298.67634"></rect>
                <g id="outlines" mask="url(#mask-2)" stroke="#FFFFFF" stroke-width="3">
                    <g transform="translate(-6723.985401, -6401.886792)">
                        <path d="M8407.74234,7308.1742 C8368.19949,7284.44592 8303.61207,7251.4899 8286.47699,7242.26217 C8279.88728,7238.30744 8271.97872,7234.35272 8265.38809,7230.39799 C8258.79746,7226.44326 8246.93415,7227.76153 8246.93415,7221.17026 C8245.6162,7217.21553 8297.02237,7184.25952 8314.15745,7171.07715 C8356.33618,7139.43922 8530.3247,7027.38864 8527.68882,6974.65898 C8525.05201,6928.52051 8498.69042,6982.56844 8489.46391,6978.61371 C8478.91946,6973.34089 8472.32883,6962.79489 8469.69203,6952.24897 C8468.37409,6946.97597 8482.87328,6949.61243 8482.87328,6944.33952 C8482.87328,6937.74824 8407.74234,6834.92539 8395.87902,6820.42474 C8373.47126,6848.10785 8352.38235,6877.10913 8329.97458,6904.79223 C8308.88476,6932.47533 8196.84685,7089.34602 8182.34765,7097.25557 C8161.25874,7109.11976 8088.76368,7107.80149 8066.35591,7101.2103 C8065.03705,7099.89203 8038.67546,7081.43657 8037.35752,7081.43657 C8000.45055,7069.57247 8001.76942,7120.98395 7996.49673,7084.07321 L7992.54199,7086.70957 L7992.54199,7088.02793 C7992.54199,7090.6643 7989.9061,7093.30075 7989.9061,7095.9373 C7991.22404,7097.25557 7996.49673,7097.25557 7996.49673,7099.89203 C7996.49673,7102.52848 7988.58816,7103.84676 7988.58816,7107.80149 C7985.95228,7131.52986 7993.86085,7126.25686 7999.13261,7143.39395 C8000.45055,7146.03059 8000.45055,7148.66696 7999.13261,7149.98523 L7996.49673,7153.93996 L7999.13261,7149.98523 C8007.04118,7182.94133 8039.9934,7269.94527 8032.08483,7300.26483 L8032.08483,7300.26483 C8033.40369,7302.90138 8033.40369,7305.53783 8033.40369,7308.1742 L8407.74234,7308.1742 L8407.74234,7308.1742 Z" id="jo" fill="#87B024"></path>
                        <path d="M8033.40369,7308.1742 L7887.0947,7308.1742 L7896.32121,7302.90138 L7896.32121,7301.5831 C7904.22978,7262.03591 7904.22978,7219.85207 7901.5939,7181.62306 C7900.27596,7157.89469 7892.36739,7134.16641 7895.00327,7111.75622 C7896.32121,7101.2103 7905.54772,7114.39267 7909.50247,7099.89203 C7912.13835,7085.3913 7901.5939,7072.20902 7901.5939,7057.70829 C7913.45629,7053.75356 7949.04531,7049.79883 7956.95388,7037.93464 C7958.27182,7036.61637 7956.95388,7004.97863 7958.27182,7003.66036 C7959.58977,7002.34218 7963.54451,7008.93336 7966.18039,7007.61509 C7968.81628,7006.2969 7971.45308,7003.66036 7974.08896,7001.0239 L7972.77102,7004.97863 C7974.08896,7007.61509 7996.49673,7084.07321 7996.49673,7084.07321 C7996.49673,7084.07321 7974.08896,7007.61509 7972.77102,7004.97863 L7996.49673,7084.0732 C7996.49673,7086.70957 7989.9061,7093.30075 7989.9061,7095.9373 C7991.22404,7097.25557 7996.49673,7097.25557 7996.49673,7099.89203 C7996.49673,7102.52848 7988.58816,7103.84676 7988.58816,7107.80149 C7985.95228,7131.52986 7993.86085,7126.25686 7999.13261,7143.39395 C8000.45055,7146.03059 8000.45055,7148.66696 7999.13261,7149.98523 L7996.49673,7153.93996 L7999.13261,7149.98523 C8007.04118,7182.94133 8039.9934,7269.94527 8032.08483,7300.26483 C8033.40369,7302.90138 8033.40369,7305.53783 8033.40369,7308.1742 Z" id="il" fill="#87B024"></path>
                        <path d="M9652.02269,7037.93464 C9604.57219,7060.34474 9542.62158,7078.8002 9513.62226,7091.98257 C9496.48718,7098.57376 9470.12559,7115.71094 9451.67257,7115.71094 C9412.12972,7118.3474 9358.08768,7091.98257 9319.86277,7081.43657 C9240.77708,7060.34474 9163.01025,7037.93464 9083.92455,7016.84282 C9048.33553,7007.61509 9010.11063,6990.4779 8973.20458,6986.52317 C8963.97807,6985.20499 8956.0695,6986.52317 8946.84207,6986.52317 L8895.43683,6986.52317 C8886.21032,6986.52317 8878.30175,6987.84144 8869.07524,6986.52317 C8812.39639,6982.56844 8753.08258,6953.56716 8696.40466,6954.88543 C8641.04467,6956.2037 8577.77612,6981.25026 8522.41613,6993.11444 C8494.7366,7049.79883 8352.38235,7143.39395 8314.15745,7171.07715 C8297.02237,7184.25952 8245.6162,7217.21553 8246.93415,7221.17026 C8246.93415,7227.76153 8258.79746,7226.44326 8265.38809,7230.39799 C8271.97872,7234.35272 8279.88728,7238.30744 8286.47699,7242.26217 C8303.61207,7251.4899 8368.19949,7284.44592 8407.74234,7308.1742 L9652.02269,7308.1742 L9652.02269,7037.93464 L9652.02269,7037.93464 Z" id="sa" fill="#87B024"></path>
                        <path d="M7871.27756,6552.82164 C7880.50407,6548.86692 7905.54772,6566.00392 7910.82041,6559.41283 C7917.41104,6552.82164 7906.86658,6540.95746 7909.50247,6531.72973 C7912.13835,6525.13845 7924.00166,6523.82027 7926.63755,6517.22899 L7918.72898,6482.9548 C7918.72898,6480.31825 7956.95388,6467.13579 7959.58977,6464.49934 C7962.22657,6460.54461 7938.50086,6446.04406 7935.86406,6443.40751 C7925.31961,6430.22505 7914.77515,6382.7684 7922.68372,6368.26767 C7925.31961,6364.31294 7974.08896,6362.99476 7979.36165,6368.26767 C7980.67959,6369.58594 7972.77102,6391.99613 7988.58816,6382.7684 C7992.54199,6380.13194 7989.9061,6373.54067 7992.54199,6372.22249 C8005.72324,6364.31294 8022.85832,6368.26767 8036.03958,6360.35821 C8072.94562,6341.90293 8094.03545,6272.03609 8142.8048,6268.08136 C8161.25874,6266.76308 8179.71177,6282.58191 8199.48273,6282.58191 C8237.70764,6282.58191 8281.20523,6249.62589 8312.8395,6229.85225 C8364.24474,6196.89624 8387.97045,6136.25713 8436.73981,6100.66457 C8467.05615,6079.57274 8510.55374,6075.61801 8542.1871,6054.52619 C8556.68629,6045.29846 8584.36674,6029.47954 8593.59326,6012.34235 C8598.86594,6003.11462 8602.81977,5967.52215 8626.54547,5991.25053 C8633.1361,5997.84162 8638.40879,6007.06935 8639.72673,6016.29708 C8639.72673,6022.88827 8606.77451,6116.48357 8601.50182,6123.07467 C8579.09406,6153.39431 8542.1871,6148.12131 8547.45978,6195.57797 C8554.05041,6241.71644 8569.86755,6241.71644 8592.27531,6272.03609 C8613.36422,6299.7191 8600.18388,6349.8123 8610.72834,6384.08667 C8616.00102,6406.49668 8634.45404,6427.5886 8638.40879,6449.99879 C8647.6353,6519.86563 8593.59326,6569.95883 8554.05041,6618.73376 C8478.91946,6714.96534 8403.78759,6809.87874 8329.97458,6904.79223 C8308.88476,6932.47533 8196.84685,7089.34602 8182.34765,7097.25557 C8161.25874,7109.11976 8088.76368,7107.80149 8066.35591,7101.2103 C8065.03705,7099.89203 8038.67546,7081.43657 8037.35752,7081.43657 C8000.45055,7069.57247 8001.76942,7120.98395 7996.49673,7084.07321 C7996.49673,7084.07321 7974.08896,7007.61509 7972.77102,7004.97863 L7974.08896,7001.0239 L7974.08896,7001.0239 C7972.77102,7002.34218 7971.45308,7003.66036 7970.13514,7004.97863 C7985.95228,6990.4779 8005.72324,6945.6577 8010.99593,6929.83878 C8013.63181,6925.88406 7981.99753,6936.43006 7991.22404,6912.7016 C7995.17879,6903.47405 7999.13261,6894.24632 8005.72324,6886.33686 L8042.6302,6873.1544 C8042.6302,6866.56331 8025.49512,6870.51794 8024.17626,6863.92667 C8020.22244,6838.88011 8054.4926,6821.74293 8057.12848,6800.65119 C8058.44734,6796.69628 8050.53877,6799.33292 8049.22083,6798.01455 C8041.31226,6784.83218 8049.22083,6778.241 8034.72164,6766.37681 C8017.58655,6753.19435 8001.76942,6770.33154 8000.45055,6763.74027 C7999.13261,6757.14908 8009.67799,6751.87608 8009.67799,6745.2849 C8009.67799,6738.69381 7999.13261,6737.37553 7993.86085,6736.05726 C7993.86085,6734.73908 7966.18039,6754.51263 7945.09057,6759.78554 C7937.182,6746.60326 7921.36486,6734.73908 7917.41104,6721.55662 C7905.54772,6691.23697 7921.36486,6664.87214 7897.63915,6637.18904 C7887.0947,6624.00658 7867.32374,6631.91604 7868.64168,6614.77903 C7869.95962,6605.5513 7873.91437,6597.64184 7872.5955,6588.41411 C7871.27756,6581.82293 7860.73311,6579.18638 7860.73311,6572.59529 C7860.73311,6567.32219 7866.0058,6559.41283 7871.27756,6552.82164 L7871.27756,6552.82164 L7871.27756,6552.82164 Z" id="sy" fill="#87B024"></path>
                        <path d="M8647.6353,5997.84162 C8652.90707,5992.5688 8658.17975,5989.93225 8660.81564,5983.34107 C8663.45244,5976.74989 8662.1345,5942.4756 8670.04307,5941.15723 C8679.26958,5938.52087 8688.49609,5945.11196 8696.40466,5941.15723 C8704.31323,5937.2026 8706.94911,5922.70196 8716.17562,5918.74723 C8735.9475,5908.20122 8801.85194,5921.38368 8820.30496,5897.65531 C8840.07685,5872.60876 8809.76051,5877.88176 8840.07685,5868.65403 C8879.61969,5856.78984 8857.21193,5897.65531 8879.61969,5913.47422 C8888.8462,5918.74723 8899.39066,5867.33575 8912.57191,5856.78984 C8919.16254,5852.83511 8938.9335,5855.47157 8934.97968,5848.88038 C8905.98128,5804.06009 8928.38905,5844.92565 8891.48209,5819.8791 C8871.71112,5806.69664 8875.66495,5777.69527 8874.34701,5773.74063 C8871.71112,5769.7859 8833.48622,5764.5129 8829.53239,5764.5129 C8824.25971,5764.5129 8813.71526,5776.37699 8812.39639,5769.7859 C8808.44257,5752.64871 8813.71526,5726.28379 8815.0332,5707.82851 C8815.0332,5701.23724 8817.66908,5693.32778 8816.35114,5686.7366 C8804.48874,5655.09886 8796.58018,5701.23724 8784.71686,5680.14541 C8784.71686,5677.50886 8753.08258,5612.91502 8753.08258,5612.91502 C8737.26545,5606.32375 8746.49196,5635.32512 8729.35688,5598.41429 C8726.72099,5591.8232 8729.35688,5581.27728 8726.72099,5574.68601 C8720.13037,5561.50355 8695.08672,5560.18537 8687.17815,5545.68463 C8679.26958,5532.50227 8726.72099,5536.4569 8729.35688,5514.04689 C8731.99276,5479.77261 8682.6152,5433.63424 8761.7009,5453.40779 C8748.51964,5442.86178 8720.13037,5434.95232 8708.26705,5430.99768 C8660.81564,5415.17877 8643.68055,5452.08951 8589.63851,5453.40778 C8585.68469,5453.40778 8596.22914,5444.18005 8593.59326,5441.5435 C8588.32057,5432.31596 8576.45818,5429.67932 8568.54961,5421.76995 C8554.05041,5405.95104 8565.91372,5375.63139 8561.95898,5357.17611 C8554.05041,5322.90173 8513.18962,5325.53837 8502.64517,5316.31064 C8498.69042,5312.35591 8500.00837,5304.44645 8496.05454,5300.49172 C8492.0998,5296.537 8486.82803,5295.21872 8482.87328,5296.537 C8476.28266,5299.17345 8472.32883,5307.08291 8465.7382,5308.40118 C8461.78346,5308.40118 8461.78346,5300.49172 8457.82964,5299.17345 C8453.87489,5299.17345 8449.92107,5308.40118 8448.60312,5304.44645 C8445.96632,5300.49172 8453.87489,5296.537 8453.87489,5291.26399 C8455.19375,5282.03626 8435.42187,5287.30927 8426.19536,5284.67281 C8418.28679,5283.35454 8411.69616,5278.08153 8403.78759,5278.08153 C8401.15171,5278.08153 8403.78759,5284.67281 8402.46965,5285.99099 C8380.06188,5291.26399 8398.51491,5272.80853 8391.9252,5267.53571 C8387.97045,5264.89907 8384.01663,5271.49035 8380.06188,5274.12681 C8374.7892,5276.76326 8365.56269,5276.76326 8362.9268,5282.03626 C8358.97206,5289.94572 8366.88063,5300.49172 8362.9268,5308.40118 C8358.97206,5313.674 8351.06349,5312.35591 8345.79172,5313.674 C8328.65664,5318.947 8307.56682,5317.62891 8293.06762,5329.49301 C8287.79493,5333.44774 8291.74968,5343.99365 8285.15905,5349.26665 C8279.88728,5353.22138 8271.97872,5350.58493 8265.38809,5350.58493 C8258.79746,5350.58493 8252.20683,5351.90311 8244.29826,5351.90311 C8233.75381,5383.54103 8224.5273,5408.58749 8196.84685,5434.95232 C8192.89302,5438.90705 8186.30239,5437.58877 8183.66559,5441.5435 C8166.53051,5461.31724 8146.75955,5512.72862 8120.39796,5524.59281 C8113.80733,5527.22935 8104.58082,5519.3199 8097.99019,5520.63808 C8092.7175,5521.95635 8091.39956,5531.18408 8086.12688,5532.50227 C8080.85419,5533.82054 8075.58242,5529.86581 8070.30974,5529.86581 C8065.03705,5531.18408 8061.08323,5537.77527 8054.4926,5536.4569 C8053.17466,5536.4569 8028.13101,5523.27463 8020.22244,5529.86581 C8013.63181,5535.13881 8013.63181,5544.36636 8008.35912,5548.32127 C8003.08736,5550.95764 7996.49673,5545.68463 7991.22404,5548.32127 C7985.95228,5552.276 7985.95228,5558.86709 7980.67959,5562.82182 C7972.77102,5569.41301 7960.90771,5570.73128 7952.99914,5577.32246 C7939.8188,5589.18674 7938.50086,5598.41429 7924.00166,5608.96029 C7906.86658,5622.14275 7864.68693,5628.73394 7844.91597,5628.73394 C7797.46455,5628.73394 7850.18774,5623.46093 7822.5082,5612.91502 C7806.69107,5607.64202 7802.73724,5636.64339 7797.46455,5639.27985 C7788.23804,5643.23458 7776.37473,5637.96167 7765.83019,5636.64339 C7764.51206,5635.32512 7764.51206,5631.37039 7761.8759,5631.37039 C7751.33108,5632.68867 7742.10457,5641.9164 7730.24172,5640.59812 C7726.28743,5640.59812 7727.60546,5630.05221 7723.65118,5627.41566 C7717.06074,5623.46093 7707.83404,5619.50621 7698.60735,5619.50621 C7647.20174,5620.82448 7672.24557,5672.23586 7620.83987,5649.82585 C7605.02273,5641.9164 7597.11416,5601.05093 7579.9789,5603.68729 C7573.38855,5603.68729 7573.38855,5619.50621 7566.79801,5616.86975 C7561.52569,5615.55148 7572.07042,5599.73265 7565.47998,5599.73265 C7552.299,5601.05093 7531.20945,5649.82585 7485.07616,5632.68867 C7436.30671,5614.23339 7463.98661,5589.18674 7461.35054,5586.55019 C7454.75991,5578.64074 7442.89715,5583.91374 7433.67055,5583.91374 C7429.71626,5583.91374 7425.76189,5581.27728 7424.44385,5583.91374 C7420.48957,5590.50492 7423.12573,5601.05093 7417.85332,5607.64202 C7403.3544,5634.00694 7266.27256,5652.46231 7232.00221,5666.96295 C7216.18498,5672.23586 7203.0041,5693.32778 7191.14115,5703.87378 C7180.59642,5714.4196 7162.14312,5718.37433 7150.28027,5726.28379 C7117.32787,5752.64871 7094.92038,5793.51418 7064.60413,5826.47028 C7056.69566,5835.69802 7043.51468,5850.19856 7034.28807,5856.78984 C7032.96995,5858.10802 7026.37941,5856.78984 7026.37941,5859.4263 C7021.10709,5885.79122 7040.87852,5885.79122 7015.83468,5904.24649 C7013.19862,5906.88295 7006.60799,5904.24649 7002.6537,5905.56477 C6971.01952,5917.42895 6996.06335,5921.38368 6955.20247,5922.70196 C6940.70337,5922.70196 6903.79668,5912.15595 6890.6157,5917.42895 C6886.66141,5918.74723 6887.97963,5925.33841 6884.02535,5927.97487 C6869.52633,5941.15723 6843.16438,5946.43033 6824.71108,5947.7486 C6802.3035,5950.38497 6750.89779,5951.70333 6749.57976,5954.33969 C6744.30735,5966.20388 6741.67119,5979.38634 6739.03494,5992.5688 C6735.08066,6009.70599 6768.03306,6009.70599 6771.98734,6011.02408 C6774.62359,6011.02408 6778.57788,6011.02408 6779.89582,6013.66063 C6781.21395,6017.61535 6774.62359,6022.88827 6777.25975,6024.20654 C6781.21395,6025.52481 6783.85011,6017.61535 6787.80439,6017.61535 C6790.44064,6018.93354 6789.12252,6025.52481 6791.75867,6025.52481 C6816.80251,6028.16127 6839.21009,6003.11462 6865.57196,6005.75108 C6887.97963,6007.06935 6826.0292,6032.116 6820.75679,6033.43427 C6816.80251,6033.43427 6816.80251,6024.20654 6814.16635,6025.52481 C6811.53019,6026.84299 6735.08066,6075.61801 6729.80825,6080.89092 C6711.35504,6105.93757 6797.03108,6066.39028 6771.98734,6103.30111 C6766.71484,6109.8923 6713.9912,6113.84693 6695.5379,6116.48357 C6659.94925,6121.75639 6629.63319,6144.16658 6628.31506,6142.84831 C6623.04265,6136.25713 6641.49604,6123.07467 6634.90551,6117.80166 C6626.99694,6111.21057 6613.81614,6117.80166 6603.27132,6119.11994 C6600.63516,6125.71112 6613.81614,6129.66585 6612.49792,6138.89358 C6608.54373,6152.07604 6592.72659,6159.9855 6579.54561,6163.94023 C6551.86571,6174.48623 6545.27508,6145.48486 6538.68473,6144.16658 C6521.54947,6141.53013 6513.6409,6165.2585 6500.45992,6167.89496 C6495.18751,6169.21323 6474.09814,6167.89496 6466.18948,6177.1226 C6458.28091,6186.35033 6456.96288,6200.85097 6449.05431,6210.0787 C6445.10012,6214.03343 6438.50949,6211.39697 6435.87342,6215.3517 C6433.23708,6220.62461 6437.19136,6225.89761 6437.19136,6229.85225 C6435.87342,6236.44343 6435.87342,6244.35298 6431.91914,6249.62589 C6424.01057,6257.53535 6409.51146,6250.94417 6409.51146,6265.44481 C6410.82959,6286.53664 6421.37432,6297.08264 6421.37432,6312.90156 C6422.69244,6318.17456 6405.55718,6348.49402 6425.3286,6351.13066 C6427.96485,6351.13066 6509.68661,6311.58328 6518.91331,6308.94683 C6521.54947,6322.12929 6509.68661,6349.8123 6500.45992,6362.99476 C6499.14179,6365.63121 6487.27894,6361.67648 6495.18751,6366.94948 C6503.09608,6373.54067 6533.41232,6373.54067 6537.36661,6393.31422 C6537.36661,6399.90559 6524.18563,6409.13332 6529.45804,6415.72441 C6533.41232,6418.36087 6574.2732,6403.86032 6567.68276,6420.99741 C6561.09222,6440.77106 6521.54947,6456.58988 6529.45804,6468.45407 C6537.36661,6480.31825 6559.77419,6498.77372 6562.41035,6496.13717 C6567.68276,6492.18244 6574.2732,6489.54598 6579.54561,6488.22771 C6584.81802,6486.90953 6596.68088,6482.9548 6596.68088,6488.22771 C6595.36275,6490.86426 6555.82,6515.9109 6550.54759,6515.9109 C6543.95714,6517.22899 6540.00286,6501.41017 6534.73045,6505.3649 C6528.13991,6510.6379 6543.95714,6530.41145 6537.36661,6527.775 C6534.73045,6527.775 6512.32277,6477.6818 6504.4142,6473.72707 C6500.45992,6471.09061 6491.23322,6469.77234 6488.59716,6475.04534 C6484.64287,6482.9548 6491.23322,6493.50071 6492.55135,6502.72844 C6492.55135,6506.68317 6488.59716,6510.6379 6491.23322,6511.95618 C6497.82385,6514.59263 6512.32277,6508.00145 6511.00474,6513.27427 C6508.36849,6523.82027 6496.50563,6529.09318 6487.27894,6534.36618 C6484.64287,6534.36618 6482.00671,6526.45672 6480.68859,6529.09318 C6479.37046,6531.72973 6485.961,6534.36618 6484.64287,6537.00273 C6484.64287,6540.95746 6474.09814,6544.91219 6478.05243,6547.54864 C6485.961,6552.82164 6496.50563,6547.54864 6505.73233,6550.1851 C6508.36849,6550.1851 6529.45804,6567.32219 6532.0942,6564.68583 C6540.00286,6558.09456 6541.32089,6544.91219 6550.54759,6539.63918 C6561.09222,6534.36618 6559.77419,6563.36756 6570.31892,6567.32219 C6575.59133,6568.64056 6579.54561,6558.09456 6584.81802,6558.09456 C6591.40847,6558.09456 6626.99694,6568.64056 6626.99694,6568.64056 C6628.31506,6571.27692 6636.22363,6602.91485 6630.95122,6609.50603 C6623.04265,6617.41549 6591.40847,6624.00658 6601.9531,6627.96131 C6612.49792,6630.59795 6624.36078,6626.64322 6633.58747,6631.91604 C6644.1322,6639.82559 6625.6789,6670.14514 6638.85988,6671.46342 C6650.72274,6672.78169 6655.99496,6653.00795 6666.53987,6653.00795 C6677.08451,6654.32623 6681.0388,6668.82696 6690.26549,6674.09987 C6692.90165,6675.41814 6698.17406,6668.82696 6698.17406,6671.46342 C6717.94539,6736.05726 6604.58945,6668.82696 6654.67702,6724.19307 C6661.26746,6730.78416 6671.81228,6717.60189 6679.72076,6717.60189 C6692.90165,6717.60189 6687.62933,6732.10253 6702.12834,6724.19307 C6704.7646,6722.8748 6699.49219,6718.92007 6700.81022,6718.92007 C6710.03691,6713.64716 6720.58173,6718.92007 6729.80825,6714.96534 C6740.35307,6709.69243 6765.3969,6697.82815 6771.98734,6695.1917 C6782.53216,6691.23697 6797.03108,6678.0546 6803.62162,6687.28224 C6828.66527,6718.92007 6765.3969,6707.05588 6765.3969,6717.60189 C6765.3969,6725.51135 6778.57788,6733.4208 6773.30547,6738.69381 C6765.3969,6746.60326 6752.21592,6738.69381 6741.67119,6741.33026 C6720.58173,6746.60326 6702.12834,6763.74027 6684.99308,6775.60455 C6678.40264,6780.87746 6702.12834,6772.968 6710.03691,6771.64982 C6716.62745,6771.64982 6723.2178,6776.92273 6727.17209,6774.28627 C6732.4445,6770.33154 6725.85396,6759.78554 6731.12637,6755.83081 C6739.03494,6750.5579 6749.57976,6753.19435 6758.80636,6751.87608 C6786.48636,6743.96662 6782.53216,6730.78416 6783.85011,6733.4208 C6800.98537,6771.64982 6782.53216,6759.78554 6770.66931,6771.64982 C6768.03306,6774.28627 6778.57788,6778.241 6781.21395,6775.60455 C6783.85011,6771.64982 6822.07492,6728.1478 6822.07492,6726.82953 C6826.0292,6720.23834 6822.07492,6709.69243 6827.34733,6707.05588 C6861.61767,6691.23697 6845.80053,6725.51135 6855.02723,6733.4208 C6862.9358,6738.69381 6876.11678,6736.05726 6885.34347,6740.01189 C6887.97963,6740.01189 6887.97963,6746.60326 6889.29776,6745.2849 C6902.47874,6733.4208 6877.4349,6716.28361 6895.88811,6713.64716 C6932.7948,6707.05588 6930.15864,6766.37681 6932.7948,6769.01327 C6960.4747,6788.78691 6981.56425,6778.241 7010.56227,6780.87746 C7014.51656,6780.87746 7015.83468,6792.74155 7022.42513,6791.42346 C7034.28807,6790.10519 7077.78511,6747.92135 7080.42127,6746.60326 C7087.01181,6738.69381 7106.78323,6736.05726 7114.6918,6740.01189 C7117.32787,6741.33026 7114.6918,6753.19435 7117.32787,6750.5579 C7123.9185,6743.96662 7127.87269,6733.4208 7127.87269,6724.19307 C7127.87269,6718.92007 7118.64608,6718.92007 7118.64608,6714.96534 C7117.32787,6707.05588 7123.9185,6699.14643 7126.55456,6691.23697 C7131.82697,6675.41814 7105.46511,6654.32623 7119.96421,6634.55258 C7125.23644,6627.96131 7188.50499,6616.09721 7199.04981,6614.77903 C7203.0041,6614.77903 7317.67826,6626.64322 7320.31442,6627.96131 C7371.72012,6642.46204 7362.49343,6680.69115 7431.0343,6685.96397 C7465.30473,6688.6006 7436.30671,6679.37287 7463.98661,6663.55396 C7470.57724,6659.59923 7479.80375,6666.19041 7486.39428,6662.23568 C7490.34857,6659.59923 7486.39428,6651.68977 7489.03044,6649.05322 C7498.25714,6642.46204 7539.11802,6637.18904 7544.39043,6634.55258 C7549.66275,6630.59795 7550.98087,6621.37022 7556.25328,6617.41549 C7560.20757,6616.09721 7560.20757,6625.32494 7564.16185,6624.00658 C7565.47998,6624.00658 7578.66077,6584.45938 7581.29712,6585.77766 C7587.88747,6585.77766 7590.52363,6600.2783 7597.11416,6597.64184 C7623.47594,6589.73239 7602.38657,6573.91356 7603.70461,6562.04919 C7607.65889,6537.00273 7636.65692,6500.0919 7649.8379,6480.31825 C7676.19986,6444.72579 7753.96733,6489.54598 7763.19403,6482.9548 C7771.1026,6476.36352 7773.73885,6465.81761 7781.64742,6460.54461 C7784.2833,6457.90825 7821.19026,6465.81761 7802.73724,6436.81633 C7800.10044,6432.8616 7793.50981,6442.08933 7786.9201,6440.77106 C7782.96536,6439.45278 7790.87393,6434.17978 7794.82867,6431.54333 C7800.10044,6426.27032 7809.32695,6423.63387 7814.59964,6418.36087 C7822.5082,6407.81495 7819.87232,6386.72313 7833.05266,6384.08667 C7851.5066,6378.81367 7869.95962,6406.49668 7873.91437,6420.99741 C7875.23231,6427.5886 7830.41677,6486.90953 7834.3706,6496.13717 C7842.27917,6513.27427 7873.91437,6517.22899 7876.55025,6538.32091 C7877.86819,6542.27564 7875.23231,6547.54864 7871.27756,6552.82164 C7880.50407,6548.86692 7905.54772,6566.00392 7910.82041,6559.41283 C7917.41104,6552.82164 7906.86658,6540.95746 7909.50247,6531.72973 C7912.13835,6525.13845 7924.00166,6523.82027 7926.63755,6517.22899 L7918.72898,6482.9548 C7918.72898,6480.31825 7956.95388,6467.13579 7959.58977,6464.49934 C7962.22657,6460.54461 7938.50086,6446.04406 7935.86406,6443.40751 C7925.31961,6430.22505 7914.77515,6382.7684 7922.68372,6368.26767 C7925.31961,6364.31294 7974.08896,6362.99476 7979.36165,6368.26767 C7980.67959,6369.58594 7972.77102,6391.99613 7988.58816,6382.7684 C7992.54199,6380.13194 7989.9061,6373.54067 7992.54199,6372.22249 C8005.72324,6364.31294 8022.85832,6368.26767 8036.03958,6360.35821 C8072.94562,6341.90293 8094.03545,6272.03609 8142.8048,6268.08136 C8161.25874,6266.76308 8179.71177,6282.58191 8199.48273,6282.58191 C8237.70764,6282.58191 8281.20523,6249.62589 8312.8395,6229.85225 C8364.24474,6196.89624 8387.97045,6136.25713 8436.73981,6100.66457 C8467.05615,6079.57274 8510.55374,6075.61801 8542.1871,6054.52619 C8556.68629,6045.29846 8584.36674,6029.47954 8593.59326,6012.34235 C8598.86594,6003.11462 8602.81977,5967.52215 8626.54547,5991.25053 C8631.81816,5995.20526 8635.77199,6001.79635 8638.40879,6008.38762 C8641.04467,6005.75108 8644.9985,6001.79635 8647.6353,5997.84162 Z M6576.90945,5866.01748 L6574.2732,5866.01748 C6566.36463,5867.33575 6558.45606,5866.01748 6550.54759,5868.65403 C6540.00286,5872.60876 6532.0942,5881.83649 6522.86759,5888.42767 C6520.23134,5889.74594 6522.86759,5895.01876 6521.54947,5893.70067 C6491.23322,5887.10931 6482.00671,5863.38102 6451.69047,5879.19994 L6429.28279,5904.24649 C6420.05628,5908.20122 6408.19343,5901.61004 6401.60289,5908.20122 C6393.69432,5914.7925 6401.60289,5927.97487 6396.33048,5935.88423 C6388.42191,5945.11196 6362.06014,5941.15723 6373.92299,5960.93088 C6402.92102,5967.52215 6442.46377,5995.20526 6422.69244,6018.93354 C6408.19343,6034.75245 6393.69432,6026.84299 6388.42191,6053.20791 L6398.96673,6091.43693 C6397.64861,6100.66457 6379.1954,6130.98412 6369.96871,6136.25713 L6368.65058,6150.75777 C6371.28665,6153.39431 6376.55906,6154.7125 6383.14969,6157.34904 C6402.92102,6163.94023 6480.68859,6109.8923 6475.41618,6136.25713 C6472.78002,6154.7125 6408.19343,6181.07732 6405.55718,6202.16924 C6405.55718,6206.12397 6413.46575,6207.44224 6414.78387,6211.39697 C6416.102,6215.3517 6416.102,6219.30643 6414.78387,6223.26116 C6413.46575,6231.17062 6404.23905,6253.58062 6410.82959,6248.30771 C6435.87342,6227.21589 6441.14583,6192.94151 6462.2352,6165.2585 C6480.68859,6138.89358 6514.95902,6133.62058 6532.0942,6104.6192 C6537.36661,6095.39166 6542.63902,6084.84565 6546.5933,6074.29974 C6547.91143,6066.39028 6542.63902,6057.16264 6547.91143,6050.57146 C6570.31892,6021.57008 6579.54561,6047.93491 6605.90757,6038.70718 C6609.86186,6037.389 6607.22551,6029.47954 6611.1798,6025.52481 C6619.08837,6018.93354 6626.99694,6013.66063 6637.54176,6011.02408 C6667.85782,6000.47826 6682.35692,6033.43427 6675.76648,6000.47826 C6673.13023,5993.88689 6681.0388,6018.93354 6687.62933,6017.61535 C6698.17406,6016.29708 6731.12637,6009.70599 6735.08066,5999.15998 C6739.03494,5991.25053 6733.76253,5982.0228 6736.39878,5972.79506 C6736.39878,5967.52215 6746.94351,5958.29442 6740.35307,5955.65797 C6712.67317,5946.43033 6649.40461,5956.97615 6615.13408,5935.88423 C6563.72847,5904.24649 6584.81802,5887.10931 6576.90945,5866.01748 L6576.90945,5866.01748 Z" id="tr" fill="#87B024"></path>
                        <path d="M7706.51592,6660.91741 C7705.19788,6682.00924 7645.88361,6733.4208 7635.33898,6757.14908 C7623.47594,6786.15046 7682.7903,6790.10519 7676.19986,6800.65119 C7672.24557,6805.92401 7661.70075,6799.33292 7656.42834,6801.96928 C7651.15602,6803.28756 7649.8379,6811.19701 7644.56549,6813.83347 C7636.65692,6819.10647 7623.47594,6813.83347 7616.88559,6820.42474 C7611.61318,6827.01593 7618.20371,6838.88011 7614.24943,6845.47139 C7603.70461,6863.92667 7557.57132,6877.10913 7547.02659,6891.60977 C7543.0723,6896.88277 7550.98087,6906.1105 7547.02659,6912.7016 C7536.48186,6932.47533 7525.93704,6902.15577 7521.98275,6902.15577 C7514.07428,6902.15577 7508.80187,6912.7016 7500.8933,6915.33823 C7496.93901,6916.65632 7453.44197,6910.06523 7452.12385,6910.06523 C7448.16956,6907.42878 7449.48769,6900.8375 7446.85144,6896.88277 C7442.89715,6892.92804 7408.62681,6856.01721 7420.48957,6857.33558 C7427.08001,6857.33558 7431.0343,6863.92667 7437.62483,6863.92667 C7449.48769,6862.60839 7452.12385,6838.88011 7454.75991,6834.92539 C7463.98661,6820.42474 7489.03044,6830.97066 7498.25714,6823.0612 C7504.84758,6819.10647 7503.52955,6808.56065 7502.21142,6800.65119 C7500.8933,6794.05992 7489.03044,6786.15046 7494.30285,6779.55927 C7498.25714,6774.28627 7508.80187,6782.19573 7516.71034,6780.87746 C7532.52757,6779.55927 7570.7522,6770.33154 7585.25131,6762.42209 C7603.70461,6751.87608 7705.19788,6659.59923 7706.51592,6660.91741 L7706.51592,6660.91741 Z" id="cy" fill="#FFFFFF"></path>
                        <path d="M7901.5939,7057.70829 C7913.45629,7053.75356 7949.04531,7049.79883 7956.95388,7037.93464 C7958.27182,7036.61637 7956.95388,7004.97863 7958.27182,7003.66036 C7959.58977,7002.34218 7963.54451,7008.93336 7966.18039,7007.61509 C7983.31547,6997.06917 8004.4053,6946.97597 8010.99593,6929.83878 C8013.63181,6925.88406 7981.99753,6936.43006 7991.22404,6912.7016 C7995.17879,6903.47405 7999.13261,6894.24632 8005.72324,6886.33686 L8042.6302,6873.1544 C8042.6302,6866.56331 8025.49512,6870.51794 8024.17626,6863.92667 C8020.22244,6838.88011 8054.4926,6821.74293 8057.12848,6800.65119 C8058.44734,6796.69628 8050.53877,6799.33292 8049.22083,6798.01455 C8041.31226,6784.83218 8049.22083,6778.241 8034.72164,6766.37681 C8017.58655,6753.19435 8001.76942,6770.33154 8000.45055,6763.74027 C7999.13261,6757.14908 8009.67799,6751.87608 8009.67799,6745.2849 C8009.67799,6738.69381 7999.13261,6737.37553 7993.86085,6736.05726 C7993.86085,6734.73908 7966.18039,6754.51263 7945.09057,6759.78554 C7949.04531,6766.37681 7951.6812,6771.64982 7951.6812,6778.241 C7952.99914,6805.92401 7941.13674,6784.83218 7930.59229,6799.33292 C7929.27343,6800.65119 7935.86406,6803.28756 7935.86406,6805.92401 C7933.22818,6813.83347 7929.27343,6820.42474 7926.63755,6827.01593 C7925.31961,6830.97066 7918.72898,6832.28893 7920.04692,6836.24366 C7920.04692,6842.83484 7934.54612,6877.10913 7931.91023,6883.70031 C7926.63755,6892.92804 7916.0931,6898.20105 7913.45629,6908.74687 C7912.13835,6914.01987 7920.04692,6917.9746 7921.36486,6923.2476 C7922.68372,6948.29425 7910.82041,6969.38616 7908.18453,6991.79617 C7906.86658,7006.2969 7910.82041,7020.79755 7909.50247,7033.97991 C7909.50247,7041.88937 7901.5939,7048.48056 7901.5939,7057.70829 L7901.5939,7057.70829 Z" id="lb" fill="#87B024"></path>
                        <path d="M6586.13607,7041.88939 C6571.63705,7069.5725 6597.99883,7051.11712 6583.49991,7091.98259 C6582.18178,7095.93732 6475.41619,7119.6657 6464.87146,7123.62042 C6456.96289,7126.25688 6383.1497,7160.53117 6375.24113,7153.93998 C6351.51533,7127.57515 6393.69434,7130.2117 6318.56293,7120.98397 C6242.11358,7111.75624 6337.01632,7130.2117 6272.42964,7130.2117 C6268.47535,7130.2117 6267.15741,7123.62042 6263.20313,7123.62042 C6255.29456,7122.30215 6246.06786,7123.62042 6236.84117,7124.9387 C6227.61447,7127.57515 6217.06974,7132.84816 6207.84305,7134.16643 C6188.07172,7134.16643 6195.98029,7109.11978 6197.29841,7101.21033 C6197.29841,7090.66432 6193.34413,7078.80023 6197.29841,7069.5725 C6211.79733,7028.70693 6224.97831,7074.8455 6234.20501,7078.80023 C6243.4317,7082.75496 6253.97643,7077.48186 6263.20313,7073.52722 C6269.79348,7070.89077 6273.74776,7053.75358 6279.02017,7059.02658 C6285.61062,7064.29958 6263.20313,7069.5725 6265.83919,7076.16377 C6267.15741,7082.75496 6279.02017,7078.80023 6285.61062,7081.43659 C6292.20115,7084.07323 6297.47347,7093.30078 6305.38204,7094.61905 C6311.97258,7095.93732 6317.24499,7090.66432 6323.83534,7088.02796 C6337.01632,7084.07323 6346.24301,7073.52722 6358.10587,7069.5725 C6372.60488,7065.61777 6387.10398,7066.93604 6401.60291,7064.29958 C6410.8296,7061.66304 6402.92103,7072.20904 6410.8296,7073.52722 C6425.32861,7077.48186 6439.82772,7065.61777 6455.64476,7066.93604 C6459.59905,7066.93604 6462.23521,7074.8455 6466.18949,7073.52722 C6472.78003,7072.20904 6496.50565,7052.43531 6508.3685,7055.07185 C6511.00475,7056.39004 6488.59717,7084.07323 6520.23135,7093.30078 C6526.82189,7095.93732 6526.82189,7081.43659 6532.09421,7077.48186 C6559.7742,7049.79885 6555.82001,7085.39132 6586.13607,7041.88939 L6586.13607,7041.88939 Z M6314.60873,6043.98021 L6315.92686,6042.66202 L6315.92686,6042.66202 L6317.24499,6042.66202 L6317.24499,6042.66202 L6317.24499,6042.66202 L6317.24499,6042.66202 L6317.24499,6042.66202 L6317.24499,6042.66202 L6317.24499,6042.66202 L6317.24499,6042.66202 L6317.24499,6042.66202 L6317.24499,6042.66202 L6317.24499,6042.66202 L6317.24499,6042.66202 L6317.24499,6042.66202 L6317.24499,6042.66202 L6317.24499,6042.66202 L6317.24499,6042.66202 L6317.24499,6042.66202 L6317.24499,6042.66202 L6317.24499,6042.66202 L6317.24499,6042.66202 C6318.56293,6042.66202 6359.4239,6029.47956 6359.4239,6029.47956 C6388.42193,6007.06937 6305.38204,5970.15863 6356.78774,5959.61272 L6356.78774,5959.61272 L6356.78774,5959.61272 L6356.78774,5959.61272 L6358.10587,5959.61272 L6358.10587,5959.61272 L6358.10587,5959.61272 L6358.10587,5959.61272 L6358.10587,5959.61272 L6358.10587,5959.61272 L6362.06015,5959.61272 L6362.06015,5959.61272 L6363.37818,5959.61272 L6363.37818,5959.61272 L6364.69631,5959.61272 L6364.69631,5959.61272 L6364.69631,5959.61272 L6364.69631,5959.61272 C6367.33247,5959.61272 6369.96872,5959.61272 6371.28666,5960.9309 L6371.28666,5960.9309 L6373.923,5960.9309 L6373.923,5960.9309 C6402.92103,5967.52218 6442.46379,5995.20528 6422.69245,6018.93356 C6408.19344,6034.75247 6393.69434,6026.84302 6388.42193,6053.20794 L6398.96675,6091.43695 C6397.64862,6100.66459 6379.19541,6130.98415 6369.96872,6136.25715 L6368.65059,6150.75779 C6346.24301,6138.8936 6388.42193,6137.57533 6367.33247,6119.11996 C6356.78774,6111.21059 6314.60873,6129.66587 6301.42775,6128.34769 C6259.24884,6125.71114 6253.97643,6098.02813 6226.29644,6132.30242 C6219.7059,6140.21188 6213.11546,6146.80306 6205.20698,6152.07606 C6168.30029,6171.84962 6188.07172,6125.71114 6151.16512,6148.12133 C6136.66602,6157.34907 6147.21084,6179.75907 6118.21272,6192.94153 C6093.16898,6203.48745 6090.53282,6171.84962 6066.80702,6202.16926 C6057.58041,6214.03345 6073.39755,6212.71518 6077.35184,6215.35172 C6089.21469,6221.94291 6087.89647,6241.71646 6098.44139,6252.26246 C6101.07745,6254.89892 6106.34986,6253.58065 6111.62227,6252.26246 C6112.94031,6252.26246 6114.25843,6250.94419 6115.57656,6248.30774 C6115.57656,6245.67119 6110.30415,6240.39837 6114.25843,6240.39837 C6119.53084,6239.08 6119.53084,6250.94419 6124.80316,6252.26246 C6139.30227,6256.21719 6169.61833,6261.4901 6174.89074,6281.26384 C6185.43556,6319.49276 6140.62021,6264.12665 6140.62021,6264.12665 C6126.12129,6256.21719 6083.94228,6250.94419 6079.988,6275.99084 C6076.03371,6291.80966 6110.30415,6286.53666 6120.84888,6297.08266 C6128.75745,6304.99212 6127.43941,6331.35695 6118.21272,6327.40222 C6097.12317,6319.49276 6095.80504,6295.76439 6074.71559,6285.21857 C6069.44327,6283.90029 6064.17086,6286.53666 6058.89845,6285.21857 C6052.308,6285.21857 6044.39944,6278.62729 6040.44524,6283.90029 C6010.129,6316.85631 6098.44139,6326.08404 6091.85076,6337.94822 C6089.21469,6341.90295 6054.94416,6340.58459 6044.39944,6337.94822 C6040.44524,6336.62995 6031.21855,6294.44612 6031.21855,6294.44612 C6020.67382,6281.26384 5983.76722,6289.1733 5969.26812,6278.62729 C5941.58813,6257.53537 5969.26812,6261.4901 5969.26812,6235.12528 C5969.26812,6229.85227 5954.76911,6244.35301 5946.86054,6250.94419 C5940.27,6257.53537 5929.72536,6262.80838 5928.40715,6272.03611 C5927.08902,6278.62729 5940.27,6279.94557 5941.58813,6286.53666 L5932.36143,6326.08404 C5936.31572,6351.13068 5966.63196,6362.99478 5981.13088,6378.81369 L5998.26614,6413.08798 C6007.49284,6422.31562 6074.71559,6455.27163 6064.17086,6471.09064 C6061.5347,6475.04537 6010.129,6448.68054 6006.17471,6449.99881 C6002.22043,6449.99881 6006.17471,6457.90827 6006.17471,6461.863 C6003.53855,6471.09064 5989.03945,6490.86428 5998.26614,6489.54601 C6000.9023,6488.22773 5999.58427,6481.63655 6002.22043,6482.95482 C6006.17471,6484.273 6004.85659,6490.86428 6008.81087,6493.50074 C6018.03757,6500.09192 6047.03559,6500.09192 6024.6281,6519.86566 C6006.17471,6535.68448 5987.72151,6537.00275 5962.67767,6547.54867 C5958.72339,6548.86694 5970.58624,6552.82167 5974.54053,6551.50339 C5978.49481,6550.18512 5981.13088,6543.59394 5986.40329,6543.59394 C5991.6757,6543.59394 5991.6757,6551.50339 5995.62999,6554.13985 C5998.26614,6555.45812 6000.9023,6552.82167 6003.53855,6551.50339 C6014.08328,6551.50339 6024.6281,6548.86694 6033.85461,6552.82167 C6041.76318,6555.45812 6040.44524,6568.64058 6048.35372,6569.95886 C6057.58041,6572.59531 6066.80702,6558.09458 6074.71559,6562.04921 C6082.62425,6566.00394 6073.39755,6583.14113 6081.30612,6587.09586 C6091.85076,6593.68714 6105.03174,6575.23167 6114.25843,6581.82295 C6119.53084,6584.45941 6114.25843,6605.55132 6135.34798,6606.8696 C6161.70976,6608.18778 6169.61833,6598.96005 6188.07172,6620.05187 C6202.57064,6635.87097 6180.16315,6629.2796 6180.16315,6638.50733 C6180.16315,6645.09852 6188.07172,6649.05325 6189.38984,6654.32625 C6192.026,6660.91743 6188.07172,6668.82698 6190.70788,6674.09989 C6197.29841,6685.96399 6214.43368,6691.23699 6199.93457,6713.64718 C6197.29841,6717.60191 6192.026,6714.96536 6188.07172,6713.64718 C6185.43556,6711.01063 6188.07172,6707.05591 6186.75359,6704.41945 C6185.43556,6701.783 6169.61833,6691.23699 6168.30029,6691.23699 C6165.66404,6689.91872 6164.34601,6696.50999 6161.70976,6695.19172 C6152.48325,6688.60063 6137.98414,6662.23571 6124.80316,6658.28098 C6107.6679,6653.00798 6116.89459,6672.78171 6107.6679,6675.41817 C6091.85076,6680.69117 6047.03559,6693.87345 6050.98988,6700.46472 C6054.94416,6709.69245 6070.7613,6705.73772 6079.988,6709.69245 C6083.94228,6711.01063 6072.07943,6713.64718 6072.07943,6717.60191 C6072.07943,6721.55664 6078.66996,6721.55664 6079.988,6724.19309 C6082.62425,6729.4661 6078.66996,6737.37555 6082.62425,6741.33028 C6097.12317,6755.83083 6122.167,6747.92137 6135.34798,6763.74029 C6143.25655,6772.96802 6114.25843,6775.60457 6102.39558,6775.60457 C6083.94228,6776.92275 6069.44327,6775.60457 6064.17086,6774.28629 C6060.21657,6772.96802 6062.85273,6766.37684 6060.21657,6762.42211 C6058.89845,6761.10383 6054.94416,6761.10383 6053.62613,6761.10383 C6043.08131,6761.10383 6028.58239,6753.19438 6021.99185,6761.10383 C6011.44712,6775.60457 6054.94416,6808.56067 6060.21657,6817.78822 C6061.5347,6823.06122 6057.58041,6828.33422 6058.89845,6832.28895 C6061.5347,6836.24368 6069.44327,6832.28895 6072.07943,6836.24368 C6077.35184,6845.47141 6093.16898,6874.4727 6098.44139,6886.33688 C6103.71361,6898.20107 6087.89647,6890.29161 6087.89647,6894.24634 C6087.89647,6898.20107 6093.16898,6899.51934 6094.4871,6902.1558 C6094.4871,6904.79225 6089.21469,6908.74689 6090.53282,6911.38353 C6091.85076,6914.01989 6122.167,6931.15708 6119.53084,6941.70299 C6116.89459,6945.65772 6107.6679,6945.65772 6102.39558,6944.33954 C6098.44139,6941.70299 6099.75933,6933.79354 6095.80504,6931.15708 C6093.16898,6928.52053 6087.89647,6935.11181 6083.94228,6932.47535 C6061.5347,6915.33826 6052.308,6862.60842 6019.35569,6908.74689 C6018.03757,6911.38353 6020.67382,6939.06654 6023.30998,6954.88545 C6024.6281,6958.84018 6024.6281,6968.06791 6020.67382,6966.74955 C5987.72151,6962.79491 6008.81087,6929.83881 5998.26614,6915.33826 C5996.94802,6914.01989 5992.99373,6915.33826 5991.6757,6914.01989 C5983.76722,6906.11053 5979.81294,6896.88279 5973.2224,6887.65506 C5969.26812,6881.06388 5966.63196,6869.19969 5958.72339,6867.88142 C5895.45484,6853.38087 5952.13285,6914.01989 5929.72536,6924.5658 C5891.50055,6941.70299 5902.04528,6898.20107 5900.72725,6888.97334 C5900.72725,6886.33688 5896.77296,6886.33688 5895.45484,6886.33688 C5883.59198,6887.65506 5877.00145,6871.83615 5874.36529,6857.3356 C5871.72922,6837.56196 5887.54627,6859.97196 5890.18242,6829.65241 C5891.50055,6808.56067 5857.23011,6782.19575 5840.09485,6776.92275 C5836.14056,6775.60457 5832.18628,6784.83221 5829.55012,6780.87748 C5824.27771,6774.28629 5829.55012,6762.42211 5822.95968,6755.83083 C5815.0512,6747.92137 5779.46255,6758.46738 5797.91594,6733.42083 C5799.23397,6732.10255 5804.50638,6734.7391 5805.82451,6732.10255 C5826.91396,6717.60191 5816.36914,6705.73772 5822.95968,6680.69117 C5822.95968,6678.05462 5825.59584,6685.96399 5828.232,6685.96399 C5829.55012,6685.96399 5825.59584,6680.69117 5826.91396,6680.69117 C5840.09485,6680.69117 5853.27583,6693.87345 5863.82065,6683.32762 C5878.31957,6668.82698 5858.54824,6667.50871 5884.91011,6650.37152 C5903.3634,6638.50733 5916.54438,6658.28098 5931.04331,6663.55398 C5952.13285,6671.46344 5977.1766,6668.82698 5999.58427,6675.41817 C6012.76525,6678.05462 6020.67382,6693.87345 6033.85461,6695.19172 C6039.12702,6696.50999 6049.67185,6689.91872 6048.35372,6683.32762 C6045.71765,6678.05462 6031.21855,6684.6459 6028.58239,6678.05462 C6015.40141,6647.73507 6061.5347,6692.55526 6077.35184,6649.05325 C6078.66996,6645.09852 6068.12514,6651.68979 6062.85273,6649.05325 C6060.21657,6647.73507 6062.85273,6641.14379 6060.21657,6641.14379 C6057.58041,6641.14379 6056.26229,6656.96271 6049.67185,6649.05325 C6039.12702,6635.87097 6031.21855,6654.32625 6014.08328,6646.41679 C6004.85659,6641.14379 6002.22043,6625.32497 5991.6757,6624.0066 C5985.08516,6622.68851 5989.03945,6643.78034 5981.13088,6643.78034 C5957.40526,6642.46206 5973.2224,6588.41413 5956.08714,6618.73378 C5953.45098,6624.0066 5962.67767,6634.55261 5957.40526,6638.50733 C5948.17857,6647.73507 5905.99956,6630.59797 5896.77296,6634.55261 C5879.6377,6641.14379 5866.45672,6656.96271 5841.41298,6663.55398 C5826.91396,6667.50871 5822.95968,6645.09852 5815.0512,6641.14379 C5811.09673,6639.82561 5816.36914,6650.37152 5813.73307,6653.00798 C5808.46057,6660.91743 5799.23397,6667.50871 5791.3254,6671.46344 C5788.68924,6672.78171 5790.00737,6666.19044 5788.68924,6666.19044 C5774.19014,6659.59925 5788.68924,6647.73507 5779.46255,6633.23433 C5774.19014,6625.32497 5767.59969,6617.41551 5759.69112,6612.14251 C5757.05506,6610.82433 5753.10077,6616.09724 5751.78265,6613.46078 C5745.19202,6608.18778 5747.82836,6596.32359 5741.23782,6592.36886 C5728.05694,6583.14113 5704.33114,6618.73378 5724.10265,6569.95886 C5721.4664,6568.64058 5718.83024,6567.32222 5714.87596,6564.68585 C5710.92167,6560.73112 5713.55783,6554.13985 5710.92167,6550.18512 C5696.42257,6531.72975 5659.51597,6514.59265 5643.69883,6501.41019 C5638.42642,6498.77374 5646.33499,6485.59128 5642.38071,6481.63655 C5638.42642,6477.68182 5618.65509,6492.18246 5605.47411,6460.54463 C5606.79224,6459.22636 5606.79224,6459.22636 5608.11036,6457.90827 C5609.4284,6456.5899 5606.79224,6455.27163 5608.11036,6455.27163 C5630.51795,6451.3169 5645.01696,6469.77236 5643.69883,6435.49808 C5643.69883,6427.58862 5662.15222,6439.45281 5658.19794,6427.58862 L5641.06277,6401.2237 C5642.38071,6391.99615 5683.24177,6378.81369 5685.87793,6374.85896 C5685.87793,6373.54069 5693.7865,6320.81104 5693.7865,6320.81104 C5703.0131,6285.21857 5710.92167,6328.72049 5724.10265,6278.62729 C5728.05694,6262.80838 5709.60355,6257.53537 5709.60355,6240.39837 C5718.83024,6241.71646 5807.14245,6214.03345 5812.41486,6210.07872 C5826.91396,6194.25981 5816.36914,6173.16798 5842.7311,6163.94025 C5851.9578,6159.98552 5903.3634,6166.57661 5911.27197,6161.30379 C5915.22626,6158.66725 5913.90822,6150.75779 5917.86251,6148.12133 C5920.49867,6146.80306 5924.45295,6154.71252 5927.08902,6152.07606 C5942.90616,6141.53015 5907.31769,6120.43833 5949.49669,6112.52887 L5949.49669,6112.52887 C5948.17857,6113.84696 5949.49669,6116.4836 5949.49669,6116.4836 C5950.81482,6113.84696 5950.81482,6105.93759 5950.81482,6095.39168 L5950.81482,6112.52887 L5949.49669,6112.52887 L5966.63196,6112.52887 C5971.90419,6112.52887 5978.49481,6116.4836 5982.4491,6112.52887 C5987.72151,6109.89232 5987.72151,6099.34641 5992.99373,6096.70986 C6007.49284,6087.48222 6027.26426,6092.75513 6043.08131,6087.48222 C6079.988,6074.29976 6089.21469,6058.48094 6112.94031,6043.98021 C6116.89459,6041.34375 6123.48513,6051.88957 6128.75745,6049.25321 C6136.66602,6047.93493 6140.62021,6034.75247 6148.52896,6037.38902 C6159.0736,6038.7072 6161.70976,6053.20794 6170.93645,6058.48094 C6172.25458,6061.1173 6176.20886,6055.8443 6178.84502,6057.16267 C6182.79931,6058.48094 6185.43556,6067.70849 6189.38984,6066.3903 C6194.66216,6065.07203 6194.66216,6054.52621 6199.93457,6053.20794 C6214.43368,6049.25321 6231.56876,6057.16267 6244.74974,6063.75376 C6247.38599,6065.07203 6244.74974,6071.66321 6248.70402,6071.66321 C6267.15741,6072.98149 6296.15544,6050.57148 6314.60873,6043.98021 L6314.60873,6043.98021 L6314.60873,6043.98021 L6314.60873,6043.98021 Z M5778.14442,6554.13985 C5793.96165,6525.13847 5754.41871,6556.7764 5753.10077,6555.45812 C5743.87408,6551.50339 5735.96551,6534.36621 5728.05694,6539.63921 C5725.42069,6539.63921 5734.64738,6559.41285 5733.32926,6567.32222 C5746.51024,6567.32222 5770.23585,6567.32222 5778.14442,6554.13985 L5778.14442,6554.13985 Z M5755.73684,6711.01063 C5745.19202,6720.23837 5741.23782,6707.05591 5732.01122,6705.73772 C5726.73881,6705.73772 5721.4664,6712.32891 5716.19408,6711.01063 C5706.96739,6708.37418 5710.92167,6678.05462 5703.0131,6684.6459 C5699.05891,6687.28226 5705.64926,6696.50999 5703.0131,6701.783 C5692.46828,6724.19309 5685.87793,6685.96399 5714.87596,6647.73507 C5718.83024,6654.32625 5724.10265,6660.91743 5726.73881,6668.82698 C5726.73881,6670.14517 5722.78453,6682.00926 5729.37497,6683.32762 C5735.96551,6684.6459 5770.23585,6699.14645 5755.73684,6711.01063 L5755.73684,6711.01063 Z M6206.52492,6598.96005 C6199.93457,6591.05059 6190.70788,6584.45941 6180.16315,6580.50468 C6164.34601,6575.23167 6141.93843,6600.27832 6124.80316,6583.14113 C6122.167,6579.1864 6130.07557,6573.91358 6127.43941,6569.95886 C6123.48513,6558.09458 6045.71765,6521.18375 6031.21855,6523.82029 C6023.30998,6526.45675 6019.35569,6535.68448 6012.76525,6539.63921 C6008.81087,6540.95748 6015.40141,6531.72975 6018.03757,6529.0932 C6021.99185,6525.13847 6027.26426,6521.18375 6031.21855,6517.22902 C6036.49096,6511.9562 6040.44524,6508.00147 6045.71765,6504.04674 C6053.62613,6498.77374 6061.5347,6494.81901 6069.44327,6490.86428 C6091.85076,6502.72847 6089.21469,6514.59265 6111.62227,6526.45675 C6115.57656,6529.0932 6120.84888,6530.41148 6126.12129,6530.41148 C6128.75745,6530.41148 6130.07557,6525.13847 6132.71173,6526.45675 C6139.30227,6529.0932 6144.57468,6537.00275 6152.48325,6539.63921 C6160.39172,6540.95748 6188.07172,6525.13847 6193.34413,6534.36621 C6194.66216,6535.68448 6192.026,6537.00275 6192.026,6538.32093 C6190.70788,6539.63921 6189.38984,6542.27566 6190.70788,6543.59394 C6195.98029,6548.86694 6205.20698,6548.86694 6209.16127,6555.45812 C6209.16127,6556.7764 6206.52492,6596.32359 6219.7059,6605.55132 C6234.20501,6616.09724 6293.51919,6596.32359 6269.79348,6635.87097 C6256.61259,6656.96271 6221.02403,6630.59797 6213.11546,6621.37024 C6211.79733,6618.73378 6217.06974,6617.41551 6217.06974,6614.77905 C6215.75162,6610.82433 6211.79733,6606.8696 6207.84305,6604.23305 C6205.20698,6604.23305 6202.57064,6610.82433 6201.2527,6608.18778 C6201.2527,6605.55132 6209.16127,6601.59659 6206.52492,6598.96005 L6206.52492,6598.96005 Z M6190.52237,6163.4063 C6190.51078,6163.33419 6181.60065,6171.47249 6179.98325,6171.75064 C6182.859,6175.68734 6179.22348,6176.49843 6176.03118,6179.21666 C6177.20629,6180.64366 6177.97737,6182.18609 6178.22679,6184.0476 C6175.33514,6186.1582 6175.26322,6190.36919 6175.59201,6192.39195 C6181.05618,6191.45236 6191.13655,6192.98394 6190.08321,6199.41875 C6197.49974,6195.47617 6191.49965,6201.4129 6197.98755,6200.29717 C6197.46488,6197.4258 6198.50507,6195.59694 6201.0614,6194.58781 C6204.13754,6195.93966 6200.24157,6194.96926 6205.01357,6194.14869 C6204.78493,6193.2849 6204.59758,6192.41025 6204.57441,6191.51362 C6205.77812,6190.93561 6206.11804,6191.06309 6205.8918,6192.39195 C6209.77986,6191.72333 6203.49412,6191.51463 6211.16135,6190.19608 C6209.34539,6187.69548 6212.70702,6184.00731 6209.4048,6183.60839 C6206.15713,6183.21591 6207.80516,6178.76439 6210.28303,6178.33833 C6209.96003,6174.90808 6208.57955,6173.96481 6205.8918,6175.26405 C6206.11639,6173.59643 6207.02607,6172.88578 6206.77002,6171.31143 C6208.13607,6171.51876 6209.35624,6171.54323 6210.72219,6171.75064 C6209.98247,6170.24914 6209.22169,6169.8115 6208.96574,6168.23724 C6203.84241,6171.97637 6202.91194,6162.71046 6198.86578,6163.4063 C6197.47546,6168.91643 6192.43481,6163.2549 6190.52237,6163.4063 L6190.52237,6163.4063 Z M6450.48575,6359.71832 C6448.41264,6360.60171 6445.68681,6362.04204 6446.09452,6364.54926 C6444.77612,6364.47135 6441.10289,6359.97844 6441.70319,6363.67093 C6436.18218,6364.62036 6431.56258,6366.95089 6427.65115,6367.62345 C6435.58851,6370.22919 6418.53841,6384.60832 6417.99035,6381.23795 C6414.58973,6382.18296 6415.3221,6385.54607 6412.28173,6386.06889 C6414.3084,6379.62304 6408.0484,6385.21825 6408.32956,6386.94722 C6403.43699,6390.20436 6399.51471,6388.53224 6396.03398,6386.06889 C6396.38329,6388.21803 6391.33988,6393.29842 6389.88619,6397.92664 C6391.11207,6397.27329 6391.86614,6397.44226 6391.64274,6398.80506 C6385.34302,6397.84891 6385.9881,6403.13452 6391.64274,6400.12259 C6390.59832,6407.94099 6397.94403,6405.2614 6399.10783,6412.41955 C6401.72394,6410.51536 6404.45694,6411.29563 6406.13394,6415.05454 C6410.94787,6414.166 6420.11994,6416.91541 6422.82075,6414.61542 C6426.85312,6411.18038 6431.08856,6403.74196 6430.28593,6398.80506 C6432.50712,6397.7183 6435.10787,6395.30536 6434.67717,6392.65658 C6435.8784,6391.83289 6442.64331,6391.4794 6443.45974,6391.33904 C6444.71026,6399.03032 6453.97825,6393.44706 6444.33797,6403.19679 C6444.39113,6403.52396 6435.75709,6408.51109 6435.11633,6412.41955 C6428.45323,6410.40802 6436.03815,6416.32728 6427.65115,6415.05454 C6427.50152,6415.70788 6426.90775,6416.45826 6426.33376,6416.81128 C6427.59422,6418.36926 6434.13114,6424.50836 6432.92071,6424.71642 C6434.20895,6432.63995 6440.3961,6423.98259 6442.14235,6423.39888 C6442.64193,6426.47022 6450.39893,6426.06284 6453.12053,6425.59484 C6456.70344,6427.0475 6456.70197,6429.69186 6460.58571,6430.8649 C6460.45511,6430.06089 6474.95413,6426.95643 6477.71169,6427.7907 C6477.21799,6424.75542 6478.62937,6427.57133 6479.90731,6427.35149 C6479.32624,6423.77757 6488.92477,6424.97507 6487.81165,6418.12882 C6484.55671,6419.79064 6482.26792,6418.98949 6480.78554,6415.49375 C6482.73743,6415.15801 6490.55063,6418.33118 6490.44633,6417.68961 C6495.04451,6414.34288 6492.50179,6420.88752 6496.15505,6412.85867 C6489.43732,6411.83933 6484.85506,6397.66596 6480.78554,6398.36585 C6482.23739,6396.03698 6481.61842,6393.74462 6479.46815,6391.77816 C6473.41325,6396.19684 6466.54901,6372.9051 6457.51177,6379.48129 C6456.66362,6374.26339 6463.05945,6371.15645 6462.34217,6366.74512 C6457.99968,6369.05992 6455.3076,6366.58167 6451.80314,6367.18433 C6453.12265,6362.99239 6451.49458,6365.923 6450.48575,6359.71832 L6450.48575,6359.71832 Z M5591.55258,6434.81751 C5591.30086,6435.61305 5585.33756,6435.11212 5586.28302,6435.25672 C5586.65919,6437.5705 5579.35109,6443.80692 5578.81785,6440.52678 C5574.83478,6439.92209 5570.74419,6443.46512 5567.4005,6444.04027 C5567.33382,6442.97384 5566.72194,6441.90576 5565.64404,6441.4052 C5565.28388,6442.59819 5561.53984,6446.42728 5565.20488,6445.79693 C5564.86992,6447.70066 5563.66915,6448.61063 5561.69187,6448.87121 C5563.77749,6451.66965 5566.16377,6455.09558 5569.59621,6455.45881 C5569.15999,6458.72561 5568.59722,6460.12685 5570.47444,6463.36404 C5583.36176,6461.14757 5573.45963,6469.26739 5579.69608,6468.19498 C5583.90429,6472.54348 5584.1562,6477.54863 5588.03948,6472.1475 C5589.57034,6475.49994 5593.07424,6479.18479 5595.94382,6480.05273 C5597.59286,6482.47597 5595.39899,6487.48443 5597.70037,6490.59294 C5600.24024,6489.7617 5601.92018,6491.16423 5602.53077,6494.98476 C5601.16491,6494.77743 5600.57106,6495.08833 5601.21338,6496.3023 C5608.88044,6494.98356 5602.59478,6494.77504 5606.48285,6494.10634 C5607.65778,6496.28565 5605.27582,6496.47541 5605.60462,6498.49816 C5609.31215,6498.39018 5620.26237,6498.07284 5620.97404,6502.45078 C5622.45155,6503.03366 5633.21104,6505.6106 5633.70878,6505.52497 C5634.58223,6500.1965 5629.52659,6490.95902 5623.60882,6494.10634 C5617.59081,6497.30783 5610.59422,6488.41731 5605.60462,6489.2754 C5605.13125,6485.41311 5604.26212,6471.91148 5600.33506,6472.58671 C5600.60628,6469.61609 5601.81827,6467.74942 5601.65245,6464.68158 C5598.83042,6465.10598 5590.87458,6465.10018 5590.23519,6461.16808 L5595.50466,6460.28975 C5594.60372,6454.74725 5587.68567,6465.50058 5590.23519,6456.33714 C5591.01741,6453.5273 5592.79345,6451.40897 5595.06559,6449.74954 C5594.84201,6451.11215 5595.59599,6451.72024 5596.82205,6451.06708 C5597.2854,6448.24593 5605.94693,6444.31438 5600.77422,6440.96599 C5598.01087,6439.17925 5592.41858,6438.292 5591.55258,6434.81751 L5591.55258,6434.81751 Z M6427.65115,6498.49816 C6421.92422,6500.86842 6416.11875,6502.09444 6411.40341,6505.52497 C6411.62699,6504.16218 6411.31254,6503.55694 6410.08602,6504.20743 C6410.43964,6506.38196 6407.30601,6510.20975 6405.69478,6511.67345 C6406.88497,6513.17467 6407.94411,6514.77625 6408.76863,6516.50439 C6410.98595,6521.96356 6413.35641,6522.35871 6419.30774,6521.33533 C6424.29173,6528.1595 6429.2542,6533.85405 6432.92071,6538.90244 C6425.795,6536.75054 6433.78055,6544.05908 6433.79894,6544.1725 C6429.7605,6544.86723 6428.70826,6555.65643 6425.01637,6552.51684 C6421.98244,6549.9341 6420.00314,6559.18299 6420.62513,6560.86128 C6422.51467,6560.53631 6419.34444,6563.59211 6425.45553,6564.8138 C6431.35123,6565.98785 6434.4844,6571.53514 6440.82496,6571.8407 C6440.11145,6567.45265 6442.74614,6569.8643 6442.58151,6566.13134 C6441.35545,6566.78459 6441.04063,6566.6158 6441.26412,6565.25301 C6443.83663,6564.34433 6450.31644,6562.52071 6450.04669,6560.86128 C6452.23173,6558.78241 6453.61377,6556.58333 6449.16836,6557.34787 C6449.18234,6557.26886 6448.54683,6551.47736 6448.29014,6552.07772 C6458.32673,6550.35151 6455.405,6533.8822 6448.7293,6531.87554 C6447.92253,6531.63289 6450.27385,6529.63856 6450.04669,6529.24056 C6452.37171,6528.84053 6445.31221,6517.53366 6445.21629,6516.9436 C6450.98985,6518.6791 6448.49036,6509.61068 6448.7293,6505.52497 C6446.85401,6505.18528 6442.04523,6503.54443 6442.58151,6506.84251 C6441.07539,6507.10162 6427.69346,6498.75838 6427.65115,6498.49816 L6427.65115,6498.49816 Z M6575.63705,6612.24488 C6577.2619,6622.23753 6576.79459,6613.32594 6577.83276,6619.7109 C6570.2242,6617.98147 6545.54972,6607.58374 6542.70249,6616.63671 C6536.03571,6617.78316 6536.61558,6619.43321 6533.48085,6624.98105 C6527.7576,6624.11376 6530.73102,6624.2349 6526.8939,6628.49445 C6522.80617,6633.0328 6527.55131,6634.91658 6528.21129,6640.3522 C6535.51387,6638.90552 6533.18066,6633.6408 6541.38519,6632.44707 C6548.66781,6631.38514 6550.20988,6634.03245 6553.24161,6639.91308 C6562.13417,6641.88801 6568.14272,6640.31026 6569.48926,6632.00786 C6578.00925,6630.54296 6578.81859,6625.66419 6587.93262,6624.54184 C6583.02203,6615.21771 6588.29251,6624.62462 6587.49356,6619.7109 C6581.94661,6620.66474 6584.29849,6616.83566 6583.98055,6614.87996 C6579.86495,6614.06758 6578.46497,6611.75867 6575.63705,6612.24488 L6575.63705,6612.24488 Z M6776.31835,6808.11778 C6775.41759,6808.18263 6774.54442,6808.27912 6773.68357,6808.5569 C6771.90596,6809.98031 6776.71879,6809.65028 6775.44003,6811.19198 C6772.70004,6811.6631 6772.16201,6815.82691 6769.7314,6814.26626 C6769.01697,6813.01955 6768.05864,6812.42489 6766.65755,6812.50951 C6764.45541,6817.35112 6762.22548,6817.10701 6758.31406,6817.77967 C6756.82284,6822.55477 6750.00569,6824.78651 6747.33587,6825.24568 C6748.41551,6831.88571 6740.1764,6831.84229 6737.67507,6832.27249 C6737.9497,6833.96016 6727.79778,6847.55414 6728.45344,6848.52197 C6728.18828,6847.62745 6728.11719,6846.37577 6728.01427,6845.44777 C6723.23979,6846.26907 6723.30914,6860.0782 6724.0622,6862.13646 C6721.33076,6861.72429 6720.58441,6862.78254 6721.86649,6865.21075 C6719.24578,6865.66155 6718.83108,6866.11722 6714.40131,6867.84582 C6716.9512,6873.33526 6719.32607,6877.59481 6724.94043,6876.62929 C6725.84257,6882.17713 6729.55874,6901.08081 6723.62304,6902.10153 C6722.8594,6906.81262 6730.93683,6912.32293 6735.91861,6910.00675 C6739.01509,6908.56817 6738.73908,6904.54731 6742.50547,6902.54074 C6744.25669,6896.97376 6745.98546,6902.39035 6746.01848,6895.51393 C6744.72289,6892.21668 6745.61491,6890.77322 6748.65326,6891.12211 C6748.91639,6890.88884 6752.56542,6881.82668 6753.04459,6881.02111 C6755.27194,6877.25034 6769.65976,6872.97018 6768.85317,6870.04169 C6768.61046,6871.07123 6757.95914,6865.67718 6765.77923,6864.33233 C6766.35847,6861.61861 6761.70327,6858.45961 6768.41401,6857.30552 C6766.21416,6854.28008 6768.87194,6853.95952 6770.60963,6852.91379 C6771.85492,6852.11705 6772.77564,6850.90667 6771.04879,6847.64364 C6779.43138,6846.20202 6771.45429,6839.88586 6772.80525,6835.34668 C6780.84672,6826.95543 6772.41897,6832.57704 6777.63574,6822.61061 C6774.05605,6823.22596 6777.61339,6820.63099 6778.51397,6819.97553 C6778.29067,6821.33832 6778.6053,6821.50711 6779.83136,6820.85386 C6780.56878,6817.19641 6779.64291,6815.96221 6776.75742,6817.34046 C6776.54331,6811.66375 6778.89151,6812.98055 6776.31835,6808.11778 L6776.31835,6808.11778 Z" id="gr" fill="#87B024"></path>
                    </g>
                </g>
            </g>
        </g>
    </g>
</svg>