<?xml version="1.0" encoding="UTF-8" standalone="no"?>
<svg width="74px" height="66px" viewBox="0 0 74 66" version="1.1" xmlns="http://www.w3.org/2000/svg" xmlns:xlink="http://www.w3.org/1999/xlink">
    <!-- Generator: Sketch 3.6 (26304) - http://www.bohemiancoding.com/sketch -->
    <title>cy</title>
    <desc>Created with Sketch.</desc>
    <defs></defs>
    <g id="Page-1" stroke="none" stroke-width="1" fill="none" fill-rule="evenodd">
        <g id="Group" transform="translate(-488.000000, -317.000000)" fill="#FFFFFF">
            <path d="M561.122314,317.617705 C560.792091,322.903367 545.931352,335.787227 543.289473,341.733591 C540.317279,349.001404 555.178042,349.992469 553.526856,352.635323 C552.53614,353.956704 549.894215,352.30496 548.573253,352.965639 C547.252314,353.296002 546.922068,355.27813 545.601105,355.938832 C543.619673,357.260259 540.317279,355.938832 538.666117,357.590622 C537.345154,359.242388 538.996363,362.215581 538.005647,363.867371 C535.363722,368.492308 523.805377,371.795863 521.163476,375.429759 C520.17276,376.751186 522.154192,379.063677 521.163476,380.71542 C518.521574,385.670765 515.87965,378.072612 514.888934,378.072612 C512.907525,378.072612 511.586563,380.71542 509.605131,381.376168 C508.614415,381.706485 497.716562,380.054741 497.386316,380.054741 C496.3956,379.394039 496.725846,377.74225 496.065354,376.751186 C495.074638,375.760121 486.488464,366.510179 489.460588,366.840564 C491.111774,366.840564 492.10249,368.492308 493.753699,368.492308 C496.725846,368.161945 497.386316,362.215581 498.046763,361.224517 C500.358441,357.590622 506.632983,360.233453 508.944661,358.251324 C510.595847,357.260259 510.265623,354.617452 509.935377,352.635323 C509.605131,350.983533 506.632983,349.001404 507.953945,347.349638 C508.944661,346.028211 511.586563,348.01034 513.567971,347.679977 C517.530858,347.349638 527.107748,345.037147 530.740389,343.055018 C535.363722,340.412164 560.792091,317.287366 561.122314,317.617705 L561.122314,317.617705 Z" id="cy"></path>
        </g>
    </g>
</svg>