<?xml version="1.0" encoding="UTF-8" standalone="no"?>
<svg width="192px" height="109px" viewBox="0 0 192 109" version="1.1" xmlns="http://www.w3.org/2000/svg" xmlns:xlink="http://www.w3.org/1999/xlink">
    <!-- Generator: Sketch 3.6 (26304) - http://www.bohemiancoding.com/sketch -->
    <title>cz</title>
    <desc>Created with Sketch.</desc>
    <defs></defs>
    <g id="Page-1" stroke="none" stroke-width="1" fill="none" fill-rule="evenodd">
        <g id="Group" transform="translate(-429.000000, -295.000000)" fill="#FFFFFF">
            <path d="M597.008781,379.576957 C597.669251,378.585893 596.678535,376.934127 597.339004,375.943062 C598.32972,374.621635 600.641398,375.282337 601.632091,373.96091 C601.632091,373.96091 604.274039,363.719926 604.274039,363.389587 C607.246164,358.103902 615.171891,353.809305 620.785941,351.166474 C619.464979,349.514685 620.455694,346.541492 619.134732,344.889725 C617.81377,343.568298 615.171891,344.559363 613.850929,343.568298 C613.520706,343.237936 610.548535,335.309443 610.218312,334.979081 C608.567103,333.657654 605.594955,334.648741 603.613523,333.988016 C601.962361,333.657654 598.32972,332.66659 597.008781,331.675525 C596.348288,331.345186 596.348288,330.023759 595.687819,330.354121 C590.073746,332.66659 600.971645,333.327315 591.394709,334.318379 C590.734239,334.318379 589.743546,333.988016 589.08303,333.327315 C588.092314,332.33625 588.422561,330.684461 587.431868,329.693396 C586.110905,328.702332 581.487572,328.372015 582.808511,327.380951 C587.101598,323.41667 589.743546,328.372015 585.780636,320.443477 C585.780636,320.113137 585.12019,320.113137 584.789943,320.443477 C584.45972,321.104202 584.789943,322.425606 584.129474,322.755968 C582.808511,323.41667 581.157326,322.755968 579.836363,322.755968 C578.515424,322.755968 576.864216,323.41667 575.543253,323.086331 C572.571105,322.095266 566.957079,317.139921 562.003522,317.800646 C560.022044,318.131009 567.287302,325.398776 566.957079,326.059524 C565.966363,328.04163 562.663969,327.380951 561.01276,328.702332 C560.022044,329.693396 560.352291,332.005888 559.031328,332.66659 C554.077772,334.648741 552.09634,326.059524 551.105624,324.738097 L543.51012,320.113137 C542.849673,315.818517 555.398734,314.166728 546.482313,309.872154 C544.831082,308.881066 537.565847,312.845347 537.565847,312.845347 C536.575131,311.854282 537.565847,310.202493 536.575131,309.211429 C536.244885,308.550727 535.254169,309.211429 534.263453,309.541791 C533.933229,309.541791 533.602983,310.532856 532.942513,310.202493 C532.282021,309.211429 532.612267,307.559662 531.291305,306.568598 C526.998218,303.925744 522.705131,306.898937 517.421328,302.60434 C513.788687,299.961486 518.742244,297.318678 512.797971,296.65793 C503.551281,295.006187 514.118933,302.273978 505.20249,303.595405 C504.541997,304.916808 504.211797,305.907873 503.221035,305.907873 C498.927971,306.898937 491.992936,288.729438 488.360342,298.970422 C487.699872,300.622188 493.644145,301.943615 492.323182,302.93468 C488.360342,306.238235 482.746269,306.568598 478.783405,308.881066 C478.122936,309.211429 478.783405,310.863218 478.122936,311.193534 C475.481011,312.514961 471.848417,310.532856 469.866985,312.184599 C468.215776,313.506026 468.876269,316.148857 467.22506,317.470284 C466.564591,318.131009 465.904121,315.818517 464.913405,316.148857 C461.941234,316.809582 461.611011,320.773839 459.629602,322.095266 C458.638886,323.086331 456.657454,321.434541 455.666738,322.425606 C454.676022,323.086331 455.666738,325.06846 454.676022,326.059524 C453.35506,327.711267 449.722419,324.738097 448.731703,324.738097 C440.475753,326.059524 439.154813,332.33625 436.512889,337.621935 C435.852419,338.943316 435.852419,334.318379 434.531457,333.327315 C433.540741,332.005888 431.559309,331.675525 429.908146,331.345186 C426.935976,330.684461 433.210495,341.255807 439.815283,345.550427 C440.475753,345.88079 442.787431,346.211129 443.117677,348.193258 C444.108393,352.818241 439.815283,351.166474 439.154813,354.80037 C438.824567,355.791411 446.089802,368.014524 447.080518,369.005588 C452.694567,374.621635 454.01553,370.657401 457.64817,374.291273 C459.959802,376.603764 460.290049,380.237659 462.601727,382.219765 C467.22506,385.523321 478.783405,389.817941 481.095084,396.425053 C486.70911,399.067861 490.671997,406.005312 497.607008,403.362481 C498.927971,403.032118 498.597724,400.389288 499.918687,400.389288 C502.230319,400.389288 504.541997,403.362481 506.853675,402.701779 L509.495577,394.112561 C510.816539,393.121497 513.128217,395.433988 513.788687,394.442924 C514.44918,393.782199 513.788687,384.20194 514.118933,383.541192 C515.109649,382.550151 517.091058,383.21083 518.41202,383.871578 C519.07249,384.20194 518.41202,385.853683 519.07249,386.184046 C520.723699,386.184046 522.044638,384.20194 523.695847,384.20194 C533.272737,384.20194 540.868241,391.469708 549.784662,392.460795 C551.105624,392.460795 552.756809,393.121497 554.077772,392.791135 C556.059204,391.80007 556.719696,389.157239 558.370882,388.496514 C560.682537,387.835812 563.984931,392.130433 565.636117,392.460795 C566.626833,392.460795 567.947795,390.478643 568.938511,391.139368 C570.589697,392.460795 571.250189,393.782199 571.250189,395.103626 C576.203746,375.6127 587.101598,392.130433 597.008781,379.576957 Z" id="cz"></path>
        </g>
    </g>
</svg>