<?xml version="1.0" encoding="UTF-8" standalone="no"?>
<svg width="1638px" height="779px" viewBox="0 0 1638 779" version="1.1" xmlns="http://www.w3.org/2000/svg" xmlns:xlink="http://www.w3.org/1999/xlink">
    <!-- Generator: Sketch 3.6 (26304) - http://www.bohemiancoding.com/sketch -->
    <title>Group</title>
    <desc>Created with Sketch.</desc>
    <defs>
        <rect id="path-1" x="0" y="0" width="1638" height="778.781715"></rect>
    </defs>
    <g id="Page-1" stroke="none" stroke-width="1" fill="none" fill-rule="evenodd">
        <g id="Group">
            <mask id="mask-2" fill="white">
                <use xlink:href="#path-1"></use>
            </mask>
            <use id="maska" xlink:href="#path-1"></use>
            <rect id="ocean" fill="#2096BD" mask="url(#mask-2)" x="-8190.82112" y="-6084.56464" width="15452.0325" height="9887.02482"></rect>
            <g id="outlines" mask="url(#mask-2)">
                <g transform="translate(-5833.425743, -6091.725240)">
                    <path d="M6507.47632,6231.99425 C6555.74992,6224.85127 6498.53669,6185.56519 6548.59823,6194.4937 C6580.78051,6198.06538 6553.96197,6212.35109 6573.62907,6226.63705 C6602.23556,6249.85152 6625.47832,6233.77991 6648.72108,6248.06587 C6655.87276,6253.42307 6654.08481,6262.3517 6657.66072,6267.70891 C6661.2365,6269.49468 6663.02445,6264.13748 6664.81228,6264.13748 C6670.17601,6262.3517 6675.53974,6258.78028 6677.32769,6262.3517 C6682.69143,6267.70891 6677.32769,6276.63767 6682.69143,6281.99487 C6682.69143,6281.99487 6722.02538,6260.56593 6730.96514,6265.92326 C6779.23861,6289.1376 6711.29804,6298.06636 6714.8737,6321.28095 L6755.99573,6346.2812 C6761.35946,6353.42418 6772.08693,6399.85324 6798.90547,6389.13871 C6806.05715,6385.56728 6804.2692,6373.0671 6809.63293,6367.70989 C6818.57257,6360.56716 6836.45172,6364.13846 6841.81545,6353.42418 C6843.60328,6349.8525 6804.2692,6310.56654 6814.99692,6308.78077 C6841.81545,6305.20922 6872.20977,6331.99536 6888.30097,6337.35257 C6895.45266,6339.13822 6904.39229,6335.56679 6911.54385,6335.56679 C6918.69554,6335.56679 6927.63505,6339.13822 6934.78674,6335.56679 C6938.36252,6333.78101 6936.57469,6326.63816 6938.36252,6323.06661 C6940.15047,6321.28095 6943.72612,6321.28095 6943.72612,6323.06661 C6965.18131,6365.92437 6950.87781,6339.13822 6927.63505,6360.56716 C6920.48349,6365.92437 6945.5142,6367.70989 6952.66589,6373.0671 C6958.0295,6378.4243 6956.24154,6387.35306 6961.60528,6392.71026 C6965.18131,6396.28169 6970.54491,6398.06747 6974.12069,6398.06747 C7025.97019,6392.71026 6966.96901,6389.13871 6997.36358,6376.63865 C7000.93936,6374.85287 7000.93936,6381.99585 7004.51526,6383.78151 C7011.66682,6389.13871 7031.33392,6394.49592 7040.27331,6396.28169 C7051.00078,6399.85324 7067.09198,6394.49592 7076.03161,6401.6389 C7077.81944,6403.42467 7093.91076,6446.28218 7095.69859,6448.06796 C7102.85028,6453.42516 7117.1534,6448.06796 7124.30508,6455.21094 C7131.45677,6464.13957 7126.09304,6480.21119 7133.24472,6489.13994 C7136.8205,6494.49715 7149.33592,6485.56839 7154.69965,6490.9256 C7160.06338,6496.2828 7151.12375,6508.78299 7156.48748,6514.14007 C7185.09397,6537.35466 7208.33685,6446.28218 7226.216,6458.78237 C7236.94347,6465.92535 7236.94347,6481.99696 7245.88298,6490.9256 C7247.67093,6492.71137 7254.82262,6487.35417 7256.61032,6489.13994 C7258.39828,6492.71137 7251.24659,6499.85435 7254.82262,6501.63988 C7263.76201,6503.42578 7272.70177,6494.49715 7279.85321,6498.06858 C7292.36862,6503.42578 7281.64116,6537.35466 7281.64116,6540.92609 C7281.64116,6549.85484 7297.73236,6535.56888 7306.67199,6533.78323 C7313.82355,6531.99745 7320.97524,6546.28329 7328.12692,6542.71186 C7329.91463,6540.92609 7351.36981,6485.56839 7376.40039,6480.21119 C7383.55208,6478.42541 7390.70364,6485.56839 7397.85532,6485.56839 C7405.00701,6483.78261 7408.58267,6473.06821 7415.73448,6474.85398 C7430.0376,6476.63976 7438.97723,6496.2828 7453.28048,6496.2828 C7464.00794,6496.2828 7472.94758,6485.56839 7478.31132,6476.63976 C7480.09902,6473.06821 7469.37168,6473.06821 7469.37168,6469.49678 C7474.73541,6444.49666 7485.463,6469.49678 7492.61444,6465.92535 C7497.97817,6464.13957 7497.97817,6453.42516 7503.3419,6453.42516 C7530.16069,6446.28218 7590.94958,6448.06796 7614.19233,6465.92535 C7619.55619,6471.28255 7617.76824,6483.78261 7624.91992,6487.35417 C7635.64739,6494.49715 7648.16256,6494.49715 7660.67798,6498.06858 C7683.92086,6505.21156 7705.37579,6506.99708 7726.8306,6510.56876 C7735.77023,6510.56876 7744.70975,6506.99708 7753.64938,6508.78299 C7757.22516,6510.56876 7764.37685,6519.49727 7762.5889,6515.92597 C7741.13397,6448.06796 7759.01312,6519.49727 7728.61855,6481.99696 C7721.46686,6474.85398 7735.77023,6462.3538 7733.98228,6453.42516 C7728.61855,6435.56777 7710.73952,6421.28206 7707.16374,6401.6389 C7701.80001,6387.35306 7810.86237,6185.56519 7825.16574,6173.065 C7857.34813,6146.27898 7877.01499,6185.56519 7882.37872,6121.27861 C7882.37872,6106.9929 7846.62067,6074.84967 7844.83272,6073.0639 C7835.8932,6055.20651 7877.01499,6056.99228 7871.65125,6051.63508 C7843.04489,6030.20638 7791.19551,5996.27738 7775.10432,5962.3485 C7771.52841,5953.41987 7778.6801,5940.91968 7775.10432,5930.20528 C7769.74058,5917.70509 7753.64938,5908.77646 7748.28553,5896.2764 C7733.98228,5864.13317 7771.52841,5803.41802 7735.77023,5774.84647 C7721.46686,5764.13194 7703.58784,5758.77473 7687.49664,5756.98908 C7683.92086,5755.2033 7680.34508,5764.13194 7676.76917,5762.34629 C7624.91992,5742.70312 7737.55806,5648.05934 7750.07348,5635.55915 C7751.86143,5633.7735 7755.43721,5630.20195 7755.43721,5626.63052 C7750.07348,5528.41519 7671.40544,5444.48569 7639.22317,5353.41322 C7628.49571,5346.27024 7639.22317,5326.62732 7628.49571,5312.34136 C7596.31331,5265.91242 7615.98029,5305.1985 7565.91887,5283.76981 C7548.03972,5276.62683 7560.55513,5253.41223 7533.73647,5262.34087 C7528.37274,5264.12664 7528.37274,5273.05515 7523.009,5276.62683 C7440.76519,5324.84154 7199.39734,5333.7703 7097.48654,5319.48434 C7065.30415,5353.41322 7015.24273,5373.05638 6974.12069,5356.98465 C6938.36252,5342.69893 6945.5142,5308.76993 6934.78674,5287.34111 C6931.21096,5281.98391 6918.69554,5267.69795 6925.84722,5269.48385 C6931.21096,5269.48385 6936.57469,5269.48385 6940.15047,5271.26962 C6931.21096,5265.91242 6920.48349,5260.55522 6909.75603,5258.76944 C6845.39123,5248.05503 6773.87488,5305.1985 6725.60141,5333.7703 C6709.50996,5342.69893 6689.84311,5339.12751 6677.32769,5349.84192 C6646.93337,5376.62781 6639.78169,5419.48545 6630.84193,5421.27122 C6564.68931,5437.34271 6502.11272,5465.91451 6439.53575,5490.91476 C6423.44468,5498.05774 6412.71721,5517.70091 6396.62589,5521.27221 C6387.68638,5524.84364 6378.74687,5515.915 6369.80723,5519.48643 C6353.71603,5528.41519 6391.26216,5567.7014 6375.17096,5571.27283 C6378.74687,5599.8445 6407.35323,5655.20232 6410.92926,5673.05959 C6416.29299,5715.91722 6359.07976,5744.4889 6371.59518,5778.4179 C6378.74687,5799.84672 6446.68731,5808.77522 6446.68731,5835.56137 C6446.68731,5862.34739 6425.23238,5871.27603 6441.32358,5890.91919 C6446.68731,5899.8477 6459.20273,5903.41913 6462.77864,5914.13366 C6468.14237,5923.0623 6460.99068,5935.56248 6462.77864,5944.49111 C6464.56646,5949.84832 6471.71815,5948.06254 6473.5061,5951.63409 C6482.44561,5964.13428 6460.99068,5994.49161 6455.62695,6005.20601 C6444.89949,6021.27763 6471.71815,6030.20638 6477.08188,6046.278 C6480.65754,6055.20651 6468.14237,6065.92092 6473.5061,6073.0639 C6480.65754,6083.7783 6496.74873,6080.20688 6503.90042,6087.34986 C6525.35535,6106.9929 6521.77957,6198.06538 6507.47632,6231.99425 L6507.47632,6231.99425 Z M6328.68544,5558.77264 L6330.47315,5558.77264 L6328.68544,5558.77264 Z M6330.47315,5558.77264 C6332.26122,5560.55842 6334.04918,5560.55842 6335.83688,5562.34419 C6334.04918,5560.55842 6332.26122,5560.55842 6330.47315,5558.77264 L6330.47315,5558.77264 Z M6339.41291,5562.34419 L6339.41291,5562.34419 L6339.41291,5562.34419 L6339.41291,5562.34419 L6339.41291,5562.34419 L6339.41291,5564.12984 L6339.41291,5564.12984 L6341.20061,5564.12984 L6339.41291,5562.34419 Z M6341.20061,5564.12984 L6342.98856,5564.12984 L6341.20061,5564.12984 L6341.20061,5564.12984 Z M6344.77664,5564.12984 C6344.77664,5564.12984 6344.77664,5565.91562 6346.56434,5565.91562 C6344.77664,5565.91562 6344.77664,5564.12984 6344.77664,5564.12984 L6344.77664,5564.12984 Z M6346.56434,5565.91562 L6346.56434,5565.91562 L6348.3523,5565.91562 L6348.3523,5565.91562 L6346.56434,5565.91562 Z M6348.3523,5565.91562 C6350.14025,5565.91562 6350.14025,5565.91562 6350.14025,5567.7014 C6350.14025,5565.91562 6350.14025,5565.91562 6348.3523,5565.91562 L6348.3523,5565.91562 Z M6350.14025,5567.7014 L6351.92808,5567.7014 L6350.14025,5567.7014 Z M6351.92808,5567.7014 L6353.71603,5567.7014 C6353.71603,5567.7014 6353.71603,5567.7014 6351.92808,5567.7014 L6351.92808,5567.7014 Z M6368.0194,5571.27283 L6369.80723,5571.27283 L6368.0194,5571.27283 L6368.0194,5571.27283 Z M6963.39323,5283.76981 C6970.54491,5287.34111 6977.69647,5290.91254 6983.06021,5298.05552 C6984.84816,5299.8413 6984.84816,5306.98415 6981.27238,5305.1985 C6968.75696,5296.26975 6965.18131,5289.12701 6963.39323,5283.76981 L6963.39323,5283.76981 Z" id="pl" stroke="#FFFFFF" stroke-width="3" fill="#87B024"></path>
                    <path d="M6375.17096,5571.27283 C6378.74687,5599.8445 6407.35323,5655.20232 6410.92926,5673.05959 C6416.29299,5715.91722 6359.07976,5744.4889 6371.59518,5778.4179 C6378.74687,5799.84672 6446.68731,5808.77522 6446.68731,5835.56137 C6446.68731,5862.34739 6425.23238,5871.27603 6441.32358,5890.91919 C6446.68731,5899.8477 6459.20273,5903.41913 6462.77864,5914.13366 C6468.14237,5923.0623 6460.99068,5935.56248 6462.77864,5944.49111 C6464.56646,5949.84832 6471.71815,5948.06254 6473.5061,5951.63409 C6482.44561,5964.13428 6460.99068,5994.49161 6455.62695,6005.20601 C6444.89949,6021.27763 6471.71815,6030.20638 6477.08188,6046.278 C6480.65754,6055.20651 6468.14237,6065.92092 6473.5061,6073.0639 C6480.65754,6083.7783 6496.74873,6080.20688 6503.90042,6087.34986 C6528.93126,6110.56433 6518.20379,6240.92289 6496.74873,6244.49431 C6473.5061,6249.85152 6435.95985,6151.63619 6416.29299,6206.99388 C6412.71721,6215.92252 6444.89949,6223.0655 6437.7478,6228.4227 C6416.29299,6246.28009 6385.89843,6248.06587 6364.4435,6260.56593 C6360.86772,6262.3517 6364.4435,6271.28046 6360.86772,6273.06599 C6346.56434,6280.20897 6326.89749,6269.49468 6316.17003,6278.42319 C6307.23039,6285.56617 6310.80629,6299.85201 6301.86666,6306.99499 C6298.29088,6310.56654 6294.7151,6298.06636 6289.35136,6299.85201 C6273.26004,6303.42356 6271.47221,6324.85238 6260.74487,6331.99536 C6255.38114,6337.35257 6244.65367,6328.42381 6239.28994,6333.78101 C6233.92621,6337.35257 6239.28994,6348.06698 6233.92621,6353.42418 C6226.77452,6362.35269 6207.10742,6346.2812 6201.74369,6346.2812 C6157.046,6353.42418 6149.89444,6387.35306 6135.59107,6415.92486 C6132.01529,6423.06759 6132.01529,6398.06747 6124.8636,6392.71026 C6119.49987,6385.56728 6108.7724,6383.78151 6099.83302,6381.99585 C6083.74169,6378.4243 6117.71192,6435.56777 6153.47022,6458.78237 C6157.046,6460.56815 6169.56142,6462.3538 6171.34937,6473.06821 C6176.7131,6498.06858 6153.47022,6489.13994 6149.89444,6508.78299 C6148.10649,6514.14007 6187.44044,6580.21217 6192.80417,6585.56938 C6223.19862,6615.92695 6230.3503,6594.49826 6250.01741,6614.14117 C6262.53257,6626.64136 6264.32053,6646.2844 6276.83594,6656.99868 C6305.44256,6676.64185 6382.32265,6703.42787 6380.53469,6749.85694 C6378.74687,6798.07178 6368.0194,6787.35737 6330.47315,6778.42874 C6326.89749,6778.42874 6323.32171,6780.21439 6321.53376,6783.78594 C6317.95785,6801.64333 6328.68544,6821.28625 6310.80629,6835.57208 C6294.7151,6848.07227 6219.62284,6865.92966 6217.83489,6894.50146 C6217.83489,6894.50146 6260.74487,6953.43058 6260.74487,6955.21636 C6262.53257,6957.00214 6237.50199,6978.43083 6246.4415,6985.57393 C6266.1086,7003.43107 6285.77546,6976.64505 6269.68426,7035.57443 C6269.68426,7039.14585 6266.1086,7044.50306 6262.53257,7044.50306 C6205.31959,7028.43145 6250.01741,6999.85965 6223.19862,6998.07387 C6208.89537,6998.07387 6196.37995,7010.57406 6182.07683,7008.78828 C6174.92515,7007.00263 6176.7131,6994.50244 6171.34937,6992.71667 C6160.6219,6989.14524 6149.89444,6998.07387 6140.9548,6994.50244 C6137.37902,6992.71667 6144.53071,6982.00226 6140.9548,6982.00226 C6119.49987,6983.78803 6139.16685,7012.35983 6133.80312,7014.14548 C6108.7724,7021.28846 6067.6505,7010.57406 6044.40761,7019.50269 C6037.25605,7023.07424 6040.83183,7035.57443 6033.68015,7039.14585 C6026.52871,7044.50306 6017.58907,7035.57443 6010.43751,7040.93163 C6005.07366,7042.71716 6012.22534,7051.64604 6008.64956,7055.21734 C6006.86161,7057.00324 5946.07272,7073.07473 5938.92091,7069.5033 C5935.34526,7065.93175 5938.92091,7057.00324 5935.34526,7053.43157 C5933.5573,7049.86014 5924.61779,7049.86014 5922.82984,7046.28884 C5921.04201,7042.71716 5931.76948,7044.50306 5929.98152,7040.93163 C5922.82984,7017.71704 5872.76829,7046.28884 5858.46517,7030.21722 C5858.46517,7030.21722 5862.04095,7028.43145 5862.04095,7026.64567 C5851.31349,7019.50269 5862.04095,7049.86014 5858.46517,7062.36032 C5858.46517,7069.5033 5824.49482,7110.57516 5811.9794,7098.07498 C5804.82772,7090.93212 5824.49482,7080.21771 5819.13109,7073.07473 C5817.34314,7071.28896 5811.9794,7078.43194 5808.40362,7078.43194 C5804.82772,7078.43194 5799.46399,7076.64616 5797.67628,7073.07473 C5794.10025,7067.71753 5806.61567,7060.57455 5797.67628,7053.43157 C5790.5246,7048.07436 5786.94882,7039.14585 5779.79713,7035.57443 C5774.4334,7032.00287 5767.28172,7040.93163 5760.13003,7039.14585 C5756.55425,7035.57443 5760.13003,7026.64567 5756.55425,7023.07424 C5747.61474,7015.93126 5749.40256,7048.07436 5720.79595,7039.14585 C5701.1291,7032.00287 5688.61368,7012.35983 5668.9467,7007.00263 C5667.15875,7007.00263 5608.15781,7010.57406 5608.15781,7010.57406 C5601.00613,7007.00263 5601.00613,6994.50244 5593.85444,6990.93101 C5592.06649,6987.35946 5597.43022,6999.85965 5593.85444,7001.64542 C5590.27866,7003.43107 5583.12698,7001.64542 5581.33902,6998.07387 C5579.5512,6992.71667 5588.49071,6985.57393 5584.91493,6982.00226 C5558.09614,6955.21636 5527.70182,7003.43107 5533.06555,7005.21685 C5543.79302,7007.00263 5554.52049,7003.43107 5565.24783,7005.21685 C5572.39951,7007.00263 5552.73241,7008.78828 5547.3688,7012.35983 C5543.79302,7014.14548 5549.15675,7023.07424 5547.3688,7024.86002 C5502.67099,7048.07436 5534.85351,7014.14548 5499.09521,7015.93126 C5493.73147,7015.93126 5411.48778,7035.57443 5406.12405,7024.86002 C5404.3361,7021.28846 5416.85139,7019.50269 5415.06344,7017.71704 C5398.97236,7005.21685 5391.82068,7058.78877 5391.82068,6996.28822 C5390.03285,6971.28785 5407.91175,6948.07338 5409.6997,6923.07313 C5409.6997,6919.50158 5402.54802,6919.50158 5402.54802,6914.14438 C5400.76032,6905.21574 5404.3361,6896.28723 5407.91175,6887.35848 L5432.94259,6846.28662 C5434.73054,6835.57208 5436.51837,6796.286 5441.8821,6783.78594 C5456.18547,6755.21414 5491.94352,6733.78545 5511.61062,6699.85645 C5518.76231,6687.35626 5411.48778,6674.85607 5404.3361,6669.49887 C5398.97236,6664.14167 5402.54802,6653.42738 5397.18441,6648.07018 C5388.2449,6640.9272 5331.03167,6664.14167 5327.45601,6658.78459 C5325.66806,6653.42738 5332.81974,6646.2844 5329.24371,6642.71297 C5275.60651,6594.49826 5311.36481,6667.71334 5289.90976,6644.49875 C5272.03073,6626.64136 5263.09109,6585.56938 5248.78797,6576.64087 C5243.42424,6571.28366 5232.69677,6576.64087 5229.12087,6571.28366 C5209.45389,6535.56888 5280.97024,6521.28305 5255.93966,6490.9256 C5252.36363,6485.56839 5209.45389,6481.99696 5200.51425,6444.49666 C5184.42306,6378.4243 5266.667,6381.99585 5241.63629,6340.92399 C5236.27255,6331.99536 5220.18136,6333.78101 5216.60558,6323.06661 C5214.81762,6315.92375 5229.12087,6308.78077 5227.33304,6301.63779 C5227.33304,6296.28058 5216.60558,6303.42356 5213.02967,6299.85201 C5211.24184,6298.06636 5186.21101,6260.56593 5187.99896,6255.20872 C5189.78679,6248.06587 5202.30221,6248.06587 5204.09016,6240.92289 C5209.45389,6210.56531 5157.60452,6199.8509 5173.69559,6196.2796 C5179.05932,6194.4937 5182.63535,6201.63668 5186.21101,6201.63668 L5220.18136,6171.27923 C5221.96931,6162.3506 5198.72643,6173.065 5205.87811,6158.77917 C5211.24184,6146.27898 5223.75714,6137.35047 5229.12087,6124.85029 C5245.21194,6085.56408 5205.87811,6056.99228 5195.15052,6037.34912 C5193.36269,6033.77781 5196.93847,6028.42061 5198.72643,6024.84918 C5198.72643,6021.27763 5195.15052,6015.92042 5198.72643,6014.13477 C5207.66594,6008.77757 5218.3934,6014.13477 5229.12087,6010.56322 C5232.69677,6008.77757 5225.54509,5998.06316 5229.12087,5999.84881 C5239.84821,6003.42036 5247.00002,6015.92042 5259.51531,6015.92042 C5272.03073,6017.7062 5320.30432,6001.63459 5325.66806,5989.1344 C5331.03167,5976.63422 5291.69771,5974.84869 5307.78891,5964.13428 C5336.3954,5944.49111 5370.36575,5937.34813 5363.21406,5892.70472 C5361.42623,5867.7046 5295.27361,5878.41901 5311.36481,5851.63299 C5313.15264,5846.27578 5322.09228,5851.63299 5322.09228,5848.06143 C5323.87998,5842.70423 5314.94059,5837.34702 5316.72854,5831.98982 C5316.72854,5828.41839 5322.09228,5828.41839 5325.66806,5828.41839 C5338.18335,5828.41839 5348.91082,5833.7756 5361.42623,5833.7756 C5375.72948,5833.7756 5363.21406,5805.20392 5368.57779,5790.91808 C5372.1537,5778.4179 5402.54802,5721.27443 5398.97236,5690.91698 C5404.3361,5689.1312 5409.6997,5685.55977 5415.06344,5678.41679 C5422.21512,5671.27381 5406.12405,5674.84524 5390.03285,5674.84524 L5390.03285,5674.84524 C5386.45694,5671.27381 5381.09321,5673.05959 5377.51743,5673.05959 C5373.94153,5673.05959 5372.1537,5671.27381 5370.36575,5669.48803 C5356.0625,5651.63089 5395.39658,5596.2732 5409.6997,5589.13022 C5418.63922,5583.77301 5429.36681,5594.4873 5438.30632,5594.4873 C5572.39951,5589.13022 5298.84939,5578.41581 5502.67099,5583.77301 C5504.45894,5583.77301 5509.82267,5585.55854 5511.61062,5587.34431 C5522.33809,5606.98748 5529.48977,5689.1312 5574.18759,5671.27381 C5588.49071,5665.91661 5559.88409,5542.70103 5601.00613,5542.70103 C5604.58191,5542.70103 5604.58191,5553.41544 5609.94564,5555.20121 C5615.30937,5558.77264 5624.24901,5558.77264 5631.40045,5558.77264 C5649.2796,5562.34419 5668.9467,5544.4868 5685.0379,5551.62978 C5697.55332,5556.98699 5697.55332,5574.84413 5704.70488,5585.55854 C5713.64451,5599.8445 5761.91798,5690.91698 5761.91798,5630.20195 C5761.91798,5617.70189 5735.09932,5621.27332 5724.37198,5610.55891 C5706.49283,5594.4873 5710.06848,5553.41544 5676.09826,5548.05823 C5670.73453,5548.05823 5629.61274,5556.98699 5633.18852,5531.98662 C5634.97648,5515.915 5660.00706,5465.91451 5643.91586,5446.27135 C5638.55213,5440.91414 5599.21817,5460.55731 5593.85444,5440.91414 C5592.06649,5437.34271 5604.58191,5440.91414 5606.36986,5437.34271 C5609.94564,5433.77141 5593.85444,5426.62843 5597.43022,5426.62843 C5615.30937,5421.27122 5645.70394,5439.12861 5651.06755,5403.41384 C5651.06755,5399.84241 5609.94564,5355.19912 5606.36986,5348.05614 C5601.00613,5335.55595 5599.21817,5321.27012 5599.21817,5308.76993 C5611.73359,5310.55571 5633.18852,5308.76993 5638.55213,5308.76993 C5661.79501,5312.34136 5685.0379,5324.84154 5708.28078,5328.4131 C5706.49283,5333.7703 5706.49283,5335.55595 5710.06848,5333.7703 C5717.22029,5328.4131 5720.79595,5319.48434 5727.94763,5317.69856 C5731.52341,5317.69856 5726.15968,5326.62732 5727.94763,5330.19875 C5733.31137,5333.7703 5740.46305,5331.98453 5745.82678,5333.7703 C5758.3422,5335.55595 5770.8575,5335.55595 5779.79713,5340.91316 C5785.16087,5344.48471 5786.94882,5351.62744 5786.94882,5356.98465 C5786.94882,5358.77042 5783.37291,5356.98465 5783.37291,5356.98465 C5779.79713,5358.77042 5772.64545,5362.34185 5776.22123,5364.12763 C5778.00918,5367.69906 5786.94882,5360.5562 5788.73652,5364.12763 C5794.10025,5373.05638 5792.31255,5383.77079 5788.73652,5392.69943 C5785.16087,5401.62806 5760.13003,5406.98526 5767.28172,5415.91402 C5776.22123,5428.41421 5810.19145,5396.27085 5811.9794,5412.34247 C5813.76736,5423.057 5794.10025,5442.69992 5804.82772,5446.27135 C5817.34314,5451.62855 5817.34314,5421.27122 5829.85855,5419.48545 C5840.58602,5417.6998 5881.70805,5453.41433 5890.64744,5449.8429 C5892.43539,5449.8429 5928.19357,5408.77104 5940.70899,5430.19973 C5965.7397,5476.62892 5840.58602,5524.84364 5908.52659,5531.98662 C5922.82984,5533.77239 5933.5573,5515.915 5947.86067,5515.915 C5965.7397,5517.70091 5946.07272,5569.48705 5985.40668,5542.70103 C5994.34619,5537.34382 5999.70992,5492.70053 6015.80125,5483.7719 C6039.04388,5471.27172 6064.07472,5465.91451 6074.80218,5490.91476 C6073.01423,5485.55755 6071.2264,5476.62892 6073.01423,5474.84315 C6083.74169,5462.34308 6098.04506,5456.98576 6106.98445,5446.27135 C6117.71192,5433.77141 6119.49987,5414.12824 6130.22733,5401.62806 C6133.80312,5398.05663 6157.046,5406.98526 6178.5008,5414.12824 C6187.44044,5412.34247 6196.37995,5410.55682 6199.95586,5410.55682 C6212.47115,5410.55682 6205.31959,5435.55694 6212.47115,5446.27135 C6217.83489,5453.41433 6230.3503,5449.8429 6235.71404,5456.98576 C6246.4415,5465.91451 6251.80511,5490.91476 6267.89631,5489.12911 C6280.41172,5489.12911 6294.7151,5480.20035 6309.01834,5483.7719 C6314.38207,5485.55755 6301.86666,5494.48631 6301.86666,5499.84352 C6303.65461,5514.12923 6309.01834,5528.41519 6314.38207,5542.70103 C6319.74581,5556.98699 6337.62483,5562.34419 6351.92808,5567.7014 C6362.65554,5571.27283 6369.80723,5573.0586 6375.17096,5571.27283 L6375.17096,5571.27283 Z M6212.47115,5433.77141 C6216.04706,5417.6998 6208.89537,5398.05663 6214.25911,5381.98502 C6219.62284,5365.9134 6273.26004,5412.34247 6262.53257,5396.27085 C6255.38114,5385.55645 6232.13826,5390.91365 6226.77452,5378.41359 C6224.98657,5367.69906 6241.07777,5358.77042 6248.22945,5349.84192 C6255.38114,5344.48471 6242.86572,5371.27061 6250.01741,5373.05638 C6262.53257,5376.62781 6275.04799,5371.27061 6285.77546,5374.84204 C6296.50292,5378.41359 6271.47221,5392.69943 6275.04799,5403.41384 C6278.6239,5415.91402 6294.7151,5417.6998 6300.07883,5430.19973 C6303.65461,5433.77141 6280.41172,5451.62855 6251.80511,5458.77153 C6237.50199,5464.12874 6224.98657,5442.69992 6212.47115,5433.77141 L6212.47115,5433.77141 Z" id="de" stroke="#FFFFFF" stroke-width="3" fill="#87B024"></path>
                    <path d="M5715.43222,7039.14585 C5715.43222,7051.64604 5738.6751,7055.21734 5731.52341,7073.07473 C5729.73559,7076.64616 5722.5839,7074.86051 5720.79595,7076.64616 C5719.00825,7082.00337 5713.64451,7096.28933 5708.28078,7112.36094 L5717.22029,7132.00386 L5717.22029,7153.43268 C5735.09932,7155.21845 5763.70593,7158.79 5765.49376,7158.79 C5769.06967,7162.36143 5760.13003,7167.71864 5763.70593,7171.29007 C5772.64545,7182.00447 5783.37291,7189.14745 5795.88833,7194.50466 C5824.49482,7208.79062 5829.85855,7160.57566 5849.52553,7164.14721 C5887.07166,7169.50441 5847.73771,7189.14745 5860.25287,7194.50466 C5888.85949,7208.79062 5863.8289,7190.93323 5892.43539,7194.50466 C5906.73864,7196.29044 5921.04201,7233.79074 5949.64838,7217.71913 L5972.89126,7169.50441 C5987.19463,7158.79 6049.77134,7165.93286 6065.86267,7164.14721 C6092.68133,7162.36143 6114.13614,7139.14684 6140.9548,7139.14684 C6148.10649,7139.14684 6128.43938,7148.07547 6126.65155,7155.21845 C6117.71192,7192.71876 6140.9548,7167.71864 6155.25817,7189.14745 C6158.83395,7194.50466 6149.89444,7201.64764 6153.47022,7208.79062 C6155.25817,7212.36192 6160.6219,7205.21894 6164.19768,7208.79062 C6198.16791,7233.79074 6207.10742,7237.36217 6253.59319,7244.50515 C6307.23039,7251.64813 6362.65554,7253.43391 6418.08095,7262.36254 C6432.38407,7264.14832 6446.68731,7274.86273 6460.99068,7276.64825 C6475.29393,7278.43403 6489.5973,7267.71975 6503.90042,7269.50552 C6512.84006,7271.29105 6518.20379,7283.79123 6527.1433,7283.79123 C6530.71908,7285.57714 6528.93126,7274.86273 6532.50704,7273.07695 C6541.44655,7264.14832 6555.74992,7260.57676 6564.68931,7249.86236 C6571.84099,7244.50515 6566.47738,7232.00497 6571.84099,7226.64776 C6605.81134,7199.86174 6641.56964,7233.79074 6673.75191,7219.50491 C6684.47938,7214.14783 6686.26733,7198.07596 6696.9948,7194.50466 C6698.78262,7192.71876 6757.78368,7201.64764 6759.57151,7199.86174 C6764.93524,7198.07596 6754.20778,7190.93323 6752.41995,7185.57603 C6748.84405,7167.71864 6755.99573,7157.00423 6768.51115,7153.43268 L6768.51115,7153.43268 C6800.69342,7117.71815 6814.99692,7112.36094 6831.08799,7085.57492 C6834.66377,7078.43194 6802.4815,7040.93163 6811.42089,7023.07424 C6823.9363,6998.07387 6854.33075,7024.86002 6850.75497,6989.14524 C6848.96701,6958.78779 6795.32981,6962.35934 6806.05715,6953.43058 C6831.08799,6932.00176 6895.45266,6960.57356 6906.18012,6940.93052 C6907.96807,6933.78754 6882.93724,6876.64407 6907.96807,6865.92966 C6886.51314,6842.71507 6868.63412,6819.50047 6852.54292,6792.71457 C6838.23955,6769.49998 6890.08892,6731.99967 6852.54292,6705.21365 C6847.17919,6701.6421 6840.0275,6712.35663 6834.66377,6712.35663 C6825.72426,6710.57085 6807.84511,6687.35626 6795.32981,6690.92769 C6786.3903,6694.49924 6782.81439,6708.78508 6772.08693,6714.14228 C6764.93524,6715.92806 6755.99573,6712.35663 6748.84405,6712.35663 C6700.57058,6706.9993 6659.44854,6667.71334 6607.59929,6667.71334 C6598.65966,6667.71334 6591.5081,6678.42763 6582.56846,6678.42763 C6578.99268,6676.64185 6582.56846,6667.71334 6578.99268,6665.92757 C6571.84099,6662.35589 6561.11365,6658.78459 6555.74992,6664.14167 C6553.96197,6667.71334 6557.53787,6719.49949 6553.96197,6723.07104 C6550.38619,6728.42824 6537.87077,6715.92806 6530.71908,6721.28526 L6516.41584,6767.71433 C6503.90042,6771.28576 6491.385,6755.21414 6478.86983,6755.21414 C6471.71815,6755.21414 6473.5061,6769.49998 6466.35442,6771.28576 C6428.80829,6785.57159 6407.35323,6748.07116 6378.74687,6733.78545 L6376.95891,6733.78545 C6378.74687,6739.14265 6380.53469,6744.49986 6380.53469,6749.85694 C6378.74687,6798.07178 6368.0194,6787.35737 6330.47315,6778.42874 C6326.89749,6778.42874 6323.32171,6780.21439 6321.53376,6783.78594 C6317.95785,6801.64333 6328.68544,6821.28625 6310.80629,6835.57208 C6294.7151,6848.07227 6219.62284,6865.92966 6217.83489,6894.50146 C6217.83489,6894.50146 6260.74487,6953.43058 6260.74487,6955.21636 C6262.53257,6957.00214 6237.50199,6978.43083 6246.4415,6985.57393 C6266.1086,7003.43107 6285.77546,6976.64505 6269.68426,7035.57443 C6269.68426,7039.14585 6266.1086,7044.50306 6262.53257,7044.50306 C6205.31959,7028.43145 6250.01741,6999.85965 6223.19862,6998.07387 C6208.89537,6998.07387 6196.37995,7010.57406 6182.07683,7008.78828 C6174.92515,7007.00263 6176.7131,6994.50244 6171.34937,6992.71667 C6160.6219,6989.14524 6149.89444,6998.07387 6140.9548,6994.50244 C6137.37902,6992.71667 6144.53071,6982.00226 6140.9548,6982.00226 C6119.49987,6983.78803 6139.16685,7012.35983 6133.80312,7014.14548 C6108.7724,7021.28846 6067.6505,7010.57406 6044.40761,7019.50269 C6037.25605,7023.07424 6040.83183,7035.57443 6033.68015,7039.14585 C6026.52871,7044.50306 6017.58907,7035.57443 6010.43751,7040.93163 C6005.07366,7042.71716 6012.22534,7051.64604 6008.64956,7055.21734 C6006.86161,7057.00324 5946.07272,7073.07473 5938.92091,7069.5033 C5935.34526,7065.93175 5938.92091,7057.00324 5935.34526,7053.43157 C5933.5573,7049.86014 5924.61779,7049.86014 5922.82984,7046.28884 C5921.04201,7042.71716 5931.76948,7044.50306 5929.98152,7040.93163 C5922.82984,7017.71704 5872.76829,7046.28884 5858.46517,7030.21722 C5858.46517,7030.21722 5862.04095,7028.43145 5862.04095,7026.64567 C5851.31349,7019.50269 5862.04095,7049.86014 5858.46517,7062.36032 C5858.46517,7069.5033 5824.49482,7110.57516 5811.9794,7098.07498 C5804.82772,7090.93212 5824.49482,7080.21771 5819.13109,7073.07473 C5817.34314,7071.28896 5811.9794,7078.43194 5808.40362,7078.43194 C5804.82772,7078.43194 5799.46399,7076.64616 5797.67628,7073.07473 C5794.10025,7067.71753 5806.61567,7060.57455 5797.67628,7053.43157 C5790.5246,7048.07436 5786.94882,7039.14585 5779.79713,7035.57443 C5774.4334,7032.00287 5767.28172,7040.93163 5760.13003,7039.14585 C5756.55425,7035.57443 5760.13003,7026.64567 5756.55425,7023.07424 C5747.61474,7015.93126 5749.40256,7048.07436 5720.79595,7039.14585 C5719.00825,7037.36008 5717.22029,7037.36008 5715.43222,7037.36008 L5715.43222,7039.14585 L5715.43222,7039.14585 Z" id="at" stroke="#FFFFFF" stroke-width="3" fill="#87B024"></path>
                    <path d="M6865.05834,6726.64247 C6891.87688,6621.28415 6950.87781,6710.57085 7004.51526,6642.71297 C7008.09104,6637.35577 7002.72731,6628.42714 7006.30309,6623.06993 C7011.66682,6615.92695 7024.18224,6619.49838 7029.54585,6612.3554 C7029.54585,6612.3554 7043.84934,6556.9977 7043.84934,6555.21205 C7059.94042,6526.64025 7102.85028,6503.42578 7133.24472,6489.13994 C7126.09304,6480.21119 7131.45677,6464.13957 7124.30508,6455.21094 C7117.1534,6448.06796 7102.85028,6453.42516 7095.69859,6448.06796 C7093.91076,6446.28218 7077.81944,6403.42467 7076.03161,6401.6389 C7067.09198,6394.49592 7051.00078,6399.85324 7040.27331,6396.28169 C7031.33392,6394.49592 7011.66682,6389.13871 7004.51526,6383.78151 C7000.93936,6381.99585 7000.93936,6374.85287 6997.36358,6376.63865 C6966.96901,6389.13871 7025.97019,6392.71026 6974.12069,6398.06747 C6970.54491,6398.06747 6965.18131,6396.28169 6961.60528,6392.71026 C6956.24154,6387.35306 6958.0295,6378.4243 6952.66589,6373.0671 C6945.5142,6367.70989 6920.48349,6365.92437 6927.63505,6360.56716 C6950.87781,6339.13822 6965.18131,6365.92437 6943.72612,6323.06661 C6943.72612,6321.28095 6940.15047,6321.28095 6938.36252,6323.06661 C6936.57469,6326.63816 6938.36252,6333.78101 6934.78674,6335.56679 C6927.63505,6339.13822 6918.69554,6335.56679 6911.54385,6335.56679 C6904.39229,6335.56679 6895.45266,6339.13822 6888.30097,6337.35257 C6872.20977,6331.99536 6841.81545,6305.20922 6814.99692,6308.78077 C6804.2692,6310.56654 6843.60328,6349.8525 6841.81545,6353.42418 C6836.45172,6364.13846 6818.57257,6360.56716 6809.63293,6367.70989 C6804.2692,6373.0671 6806.05715,6385.56728 6798.90547,6389.13871 C6772.08693,6399.85324 6761.35946,6353.42418 6755.99573,6346.2812 L6714.8737,6321.28095 C6711.29804,6298.06636 6779.23861,6289.1376 6730.96514,6265.92326 C6722.02538,6260.56593 6682.69143,6281.99487 6682.69143,6281.99487 C6677.32769,6276.63767 6682.69143,6267.70891 6677.32769,6262.3517 C6675.53974,6258.78028 6670.17601,6262.3517 6664.81228,6264.13748 C6663.02445,6264.13748 6661.2365,6269.49468 6657.66072,6267.70891 C6654.08481,6262.3517 6655.87276,6253.42307 6648.72108,6248.06587 C6625.47832,6233.77991 6602.23556,6249.85152 6573.62907,6226.63705 C6553.96197,6212.35109 6580.78051,6198.06538 6548.59823,6194.4937 C6498.53669,6185.56519 6555.74992,6224.85127 6507.47632,6231.99425 C6503.90042,6239.13711 6502.11272,6244.49431 6496.74873,6244.49431 C6473.5061,6249.85152 6435.95985,6151.63619 6416.29299,6206.99388 C6412.71721,6215.92252 6444.89949,6223.0655 6437.7478,6228.4227 C6416.29299,6246.28009 6385.89843,6248.06587 6364.4435,6260.56593 C6360.86772,6262.3517 6364.4435,6271.28046 6360.86772,6273.06599 C6346.56434,6280.20897 6326.89749,6269.49468 6316.17003,6278.42319 C6307.23039,6285.56617 6310.80629,6299.85201 6301.86666,6306.99499 C6298.29088,6310.56654 6294.7151,6298.06636 6289.35136,6299.85201 C6273.26004,6303.42356 6271.47221,6324.85238 6260.74487,6331.99536 C6255.38114,6337.35257 6244.65367,6328.42381 6239.28994,6333.78101 C6233.92621,6337.35257 6239.28994,6348.06698 6233.92621,6353.42418 C6226.77452,6362.35269 6207.10742,6346.2812 6201.74369,6346.2812 C6157.046,6353.42418 6149.89444,6387.35306 6135.59107,6415.92486 C6132.01529,6423.06759 6132.01529,6398.06747 6124.8636,6392.71026 C6119.49987,6385.56728 6108.7724,6383.78151 6099.83302,6381.99585 C6083.74169,6378.4243 6117.71192,6435.56777 6153.47022,6458.78237 C6157.046,6460.56815 6169.56142,6462.3538 6171.34937,6473.06821 C6176.7131,6498.06858 6153.47022,6489.13994 6149.89444,6508.78299 C6148.10649,6514.14007 6187.44044,6580.21217 6192.80417,6585.56938 C6223.19862,6615.92695 6230.3503,6594.49826 6250.01741,6614.14117 C6262.53257,6626.64136 6264.32053,6646.2844 6276.83594,6656.99868 C6301.86666,6674.85607 6364.4435,6698.07067 6376.95891,6733.78545 L6378.74687,6733.78545 C6407.35323,6748.07116 6428.80829,6785.57159 6466.35442,6771.28576 C6473.5061,6769.49998 6471.71815,6755.21414 6478.86983,6755.21414 C6491.385,6755.21414 6503.90042,6771.28576 6516.41584,6767.71433 L6530.71908,6721.28526 C6537.87077,6715.92806 6550.38619,6728.42824 6553.96197,6723.07104 C6557.53787,6719.49949 6553.96197,6667.71334 6555.74992,6664.14167 C6561.11365,6658.78459 6571.84099,6662.35589 6578.99268,6665.92757 C6582.56846,6667.71334 6578.99268,6676.64185 6582.56846,6678.42763 C6591.5081,6678.42763 6598.65966,6667.71334 6607.59929,6667.71334 C6659.44854,6667.71334 6700.57058,6706.9993 6748.84405,6712.35663 C6755.99573,6712.35663 6764.93524,6715.92806 6772.08693,6714.14228 C6782.81439,6708.78508 6786.3903,6694.49924 6795.32981,6690.92769 C6807.84511,6687.35626 6825.72426,6710.57085 6834.66377,6712.35663 C6840.0275,6712.35663 6847.17919,6701.6421 6852.54292,6705.21365 C6861.48243,6712.35663 6865.05834,6719.49949 6865.05834,6726.64247 L6865.05834,6726.64247 Z" id="cz" stroke="#FFFFFF" stroke-width="3" fill="#FFFFFF"></path>
                    <path d="M7708.9517,6506.99708 C7710.73952,6524.85447 7698.22411,6549.85484 7696.43628,6567.71211 C7694.64832,6580.21217 7696.43628,6592.71236 7691.07254,6603.42676 C7685.70881,6615.92695 7669.61761,6619.49838 7667.82966,6631.99856 C7664.25401,6644.49875 7673.19339,6656.99868 7673.19339,6671.28465 C7673.19339,6685.57048 7646.37486,6685.57048 7632.07149,6689.14204 C7624.91992,6690.92769 7617.76824,6699.85645 7612.40451,6696.28489 C7578.43416,6685.57048 7605.25282,6651.64148 7560.55513,6649.85595 C7542.67598,6649.85595 7531.94852,6674.85607 7514.06937,6676.64185 C7483.67505,6681.99906 7444.34097,6649.85595 7417.52243,6683.78483 C7406.79496,6698.07067 7413.9464,6746.28538 7394.27954,6755.21414 C7387.12786,6756.99992 7376.40039,6749.85694 7369.24871,6753.42837 C7340.64209,6771.28576 7381.76413,6783.78594 7337.06644,6790.9288 C7322.76319,6792.71457 7290.58067,6753.42837 7276.27743,6778.42874 C7270.91369,6787.35737 7279.85321,6803.42898 7272.70177,6810.57196 C7253.03467,6830.21488 7197.60939,6817.71494 7172.5788,6835.57208 C7149.33592,6849.85805 7174.36663,6874.85829 7181.51832,6885.57258 C7188.67,6898.07276 7036.69753,6924.85878 7015.24273,6921.28736 C6981.27238,6914.14438 6956.24154,6867.71544 6924.05927,6864.14388 C6916.90759,6862.35823 6911.54385,6864.14388 6907.96807,6865.92966 C6886.51314,6842.71507 6868.63412,6819.50047 6852.54292,6792.71457 C6841.81545,6774.85718 6868.63412,6749.85694 6866.84616,6726.64247 C6891.87688,6621.28415 6950.87781,6708.78508 7004.51526,6642.71297 C7008.09104,6637.35577 7002.72731,6628.42714 7006.30309,6623.06993 C7011.66682,6615.92695 7024.18224,6619.49838 7029.54585,6612.3554 C7029.54585,6612.3554 7043.84934,6556.9977 7043.84934,6555.21205 C7059.94042,6526.64025 7102.85028,6503.42578 7133.24472,6489.13994 C7136.8205,6494.49715 7149.33592,6485.56839 7154.69965,6490.9256 C7160.06338,6496.2828 7151.12375,6508.78299 7156.48748,6514.14007 C7185.09397,6537.35466 7208.33685,6446.28218 7226.216,6458.78237 C7236.94347,6465.92535 7236.94347,6481.99696 7245.88298,6490.9256 C7247.67093,6492.71137 7254.82262,6487.35417 7256.61032,6489.13994 C7258.39828,6492.71137 7251.24659,6499.85435 7254.82262,6501.63988 C7263.76201,6503.42578 7272.70177,6494.49715 7279.85321,6498.06858 C7292.36862,6503.42578 7281.64116,6537.35466 7281.64116,6540.92609 C7281.64116,6549.85484 7297.73236,6535.56888 7306.67199,6533.78323 C7313.82355,6531.99745 7320.97524,6546.28329 7328.12692,6542.71186 C7329.91463,6540.92609 7351.36981,6485.56839 7376.40039,6480.21119 C7383.55208,6478.42541 7390.70364,6485.56839 7397.85532,6485.56839 C7405.00701,6483.78261 7408.58267,6473.06821 7415.73448,6474.85398 C7430.0376,6476.63976 7438.97723,6496.2828 7453.28048,6496.2828 C7464.00794,6496.2828 7472.94758,6485.56839 7478.31132,6476.63976 C7480.09902,6473.06821 7469.37168,6473.06821 7469.37168,6469.49678 C7474.73541,6444.49666 7485.463,6469.49678 7492.61444,6465.92535 C7497.97817,6464.13957 7497.97817,6453.42516 7503.3419,6453.42516 C7530.16069,6446.28218 7590.94958,6448.06796 7614.19233,6465.92535 C7619.55619,6471.28255 7617.76824,6483.78261 7624.91992,6487.35417 C7635.64739,6494.49715 7648.16256,6494.49715 7660.67798,6498.06858 C7676.76917,6503.42578 7692.86037,6505.21156 7708.9517,6506.99708 L7708.9517,6506.99708 Z" id="sk" stroke="#FFFFFF" stroke-width="3" fill="#87B024"></path>
                    <path d="M6795.32981,7149.86125 L6795.32981,7149.86125 L6795.32981,7149.86125 L6795.32981,7149.86125 C6802.4815,7149.86125 6816.78462,7205.21894 6854.33075,7235.57652 C6902.60434,7274.86273 6943.72612,7296.29142 6981.27238,7344.50626 C6986.63611,7351.64924 7022.39416,7346.29204 7025.97019,7348.07781 C7040.27331,7353.43502 7051.00078,7365.93495 7063.5162,7371.29216 C7088.54703,7382.00669 7167.21494,7380.22092 7190.4577,7360.57775 C7194.03373,7357.00645 7195.82144,7332.00607 7208.33685,7332.00607 C7242.3072,7326.64887 7236.94347,7333.79185 7267.33804,7299.86285 C7272.70177,7294.50564 7279.85321,7312.36303 7295.9444,7299.86285 C7312.03573,7287.36266 7322.76319,7265.93397 7342.43005,7255.21956 C7383.55208,7228.43354 7349.58173,7255.21956 7379.97617,7257.00534 C7381.76413,7257.00534 7428.24977,7242.71938 7430.0376,7242.71938 C7438.97723,7242.71938 7447.91675,7251.64813 7456.85638,7251.64813 C7460.43216,7249.86236 7462.22012,7242.71938 7465.7959,7240.93372 C7476.52336,7237.36217 7530.16069,7232.00497 7533.73647,7219.50491 C7537.31225,7212.36192 7510.49359,7203.43342 7542.67598,7198.07596 C7555.1914,7196.29044 7567.70682,7208.79062 7578.43416,7205.21894 C7612.40451,7192.71876 7601.67704,7128.43243 7610.61655,7108.78939 C7614.19233,7103.43218 7623.13197,7103.43218 7626.70775,7098.07498 L7646.37486,7035.57443 C7649.95051,7026.64567 7655.31424,7019.50269 7655.31424,7010.57406 C7655.31424,7007.00263 7646.37486,7007.00263 7646.37486,7003.43107 C7648.16256,6987.35946 7667.82966,6937.35897 7676.76917,6923.07313 C7680.34508,6919.50158 7689.28459,6923.07313 7689.28459,6917.71593 C7698.22411,6883.78705 7685.70881,6858.78668 7725.04289,6821.28625 C7737.55806,6807.00053 7751.86143,6815.92917 7771.52841,6808.78619 C7791.19551,6799.85755 7792.98322,6773.07153 7807.28659,6758.78557 C7785.83178,6740.92818 7814.4384,6744.49986 7791.19551,6728.42824 C7787.61961,6726.64247 7782.25588,6723.07104 7776.89214,6723.07104 C7769.74058,6724.85669 7764.37685,6733.78545 7757.22516,6731.99967 C7746.4977,6724.85669 7744.70975,6706.9993 7733.98228,6699.85645 C7728.61855,6696.28489 7721.46686,6705.21365 7716.10326,6703.42787 C7687.49664,6692.71346 7714.31543,6673.07055 7673.19339,6671.28465 C7673.19339,6685.57048 7646.37486,6685.57048 7632.07149,6689.14204 C7624.91993,6690.92769 7617.76824,6699.85645 7612.40451,6696.28489 C7578.43416,6685.57048 7605.25282,6651.64148 7560.55513,6649.85595 C7542.67598,6649.85595 7531.94852,6674.85607 7514.06937,6676.64185 C7483.67505,6681.99906 7444.34097,6649.85595 7417.52243,6683.78483 C7406.79496,6698.07067 7413.9464,6746.28538 7394.27954,6755.21414 C7387.12786,6756.99992 7376.40039,6749.85694 7369.24871,6753.42837 C7340.64209,6771.28576 7381.76413,6783.78594 7337.06644,6790.9288 C7322.76319,6792.71457 7290.58067,6753.42837 7276.27743,6778.42874 C7270.91369,6787.35737 7279.85321,6803.42898 7272.70177,6810.57196 C7253.03467,6830.21488 7197.60939,6817.71494 7172.5788,6835.57208 C7149.33592,6849.85805 7174.36663,6874.85829 7181.51832,6885.57258 C7188.67,6898.07276 7036.69753,6924.85878 7015.24273,6921.28736 C6981.27238,6914.14438 6956.24154,6867.71544 6924.05927,6864.14388 C6916.90759,6862.35823 6911.54385,6864.14388 6907.96807,6865.92966 L6907.96807,6865.92966 C6882.93724,6876.64407 6907.96807,6933.78754 6906.18012,6940.93052 C6895.45266,6960.57356 6831.08799,6932.00176 6806.05715,6953.43058 C6795.32981,6962.35934 6848.96701,6958.78779 6850.75497,6989.14524 C6854.33075,7024.86002 6823.9363,6998.07387 6811.42089,7023.07424 C6802.4815,7040.93163 6834.66377,7078.43194 6831.08799,7085.57492 C6814.99692,7112.36094 6800.69342,7117.71815 6768.51115,7153.43268 L6768.51115,7153.43268 C6768.51115,7153.43268 6768.51115,7153.43268 6766.7232,7155.21845 C6770.2991,7153.43268 6772.08693,7151.64702 6775.66283,7151.64702 L6795.32981,7149.86125 L6795.32981,7149.86125 Z" id="hu" stroke="#FFFFFF" stroke-width="3" fill="#87B024"></path>
                    <path d="M8815.66758,7517.72233 C8806.72807,7510.57935 8804.94012,7485.57923 8794.21277,7490.93643 C8788.84904,7492.72221 8785.27326,7499.86494 8779.90953,7501.65084 C8736.99979,7524.86531 8794.21277,7489.15066 8747.72713,7490.93643 C8733.42376,7490.93643 8722.69642,7507.00805 8708.39318,7508.79382 C8677.99861,7512.36513 8703.02944,7469.50761 8622.57345,7499.86494 C8588.60311,7514.15103 8526.02627,7542.7227 8499.2076,7569.50872 C8468.81328,7599.86605 8463.44943,7637.36661 8424.11559,7662.36673 C8388.35729,7683.79554 8361.53863,7669.50971 8325.78045,7667.72393 C8297.17384,7665.9384 8266.77952,7664.15263 8239.96073,7673.08114 C8229.23327,7676.65269 8225.65749,7690.93853 8214.93002,7694.51008 C8164.8686,7712.36734 8105.86741,7683.79554 8055.80599,7689.15275 C8016.47204,7692.7243 8003.95674,7724.86753 7961.04676,7707.01014 C7930.65244,7694.51008 7998.59301,7655.22399 7982.50181,7648.08101 C7953.89532,7635.58083 7868.0756,7617.72344 7873.43933,7571.2945 C7875.22728,7555.22276 7934.22822,7553.43711 7916.34907,7544.50835 C7726.8306,7449.86445 7896.68209,7535.57972 7819.802,7580.22313 C7807.28659,7589.15164 7800.1349,7557.00854 7787.61961,7551.65133 C7778.6801,7546.29413 7766.16468,7551.65133 7757.22516,7551.65133 C7746.4977,7551.65133 7735.77023,7557.00854 7725.04289,7553.43711 C7719.67916,7549.86556 7723.25494,7540.93692 7719.67916,7533.79394 C7710.73952,7515.9368 7633.85944,7544.50835 7676.76917,7514.15103 C7687.49664,7507.00805 7714.31543,7499.86494 7705.37579,7492.72221 C7696.43628,7487.365 7678.55713,7492.72221 7674.98135,7482.0078 C7673.19339,7471.29339 7710.73952,7451.65022 7685.70881,7437.36451 C7651.73859,7417.72135 7583.79789,7426.6501 7560.55513,7385.57812 C7555.1914,7376.64936 7555.1914,7333.79185 7555.1914,7323.07744 L7555.1914,7319.50601 C7549.82767,7321.29167 7546.25189,7332.00607 7542.67598,7328.43465 C7530.16069,7321.29167 7528.37274,7301.64862 7517.64527,7292.72012 C7506.91781,7285.57714 7490.82673,7287.36266 7480.09902,7278.43403 C7469.37168,7273.07695 7464.00794,7260.57676 7456.85638,7251.64813 C7460.43216,7249.86236 7462.22012,7242.71938 7465.7959,7240.93372 C7476.52336,7237.36217 7530.16069,7232.00497 7533.73647,7219.50491 C7537.31225,7212.36192 7510.49359,7203.43342 7542.67598,7198.07596 C7555.1914,7196.29044 7567.70682,7208.79062 7578.43416,7205.21894 C7612.40451,7192.71876 7601.67704,7128.43243 7610.61655,7108.78939 C7614.19233,7103.43218 7623.13197,7103.43218 7626.70775,7098.07498 L7646.37486,7035.57443 C7649.95051,7026.64567 7655.31424,7019.50269 7655.31424,7010.57406 C7655.31424,7007.00263 7646.37486,7007.00263 7646.37486,7003.43107 C7648.16256,6987.35946 7667.82966,6937.35897 7676.76917,6923.07313 C7680.34508,6919.50158 7689.28459,6923.07313 7689.28459,6917.71593 C7698.22411,6883.78705 7685.70881,6858.78668 7725.04289,6821.28625 C7737.55806,6807.00053 7751.86143,6815.92917 7771.52841,6808.78619 C7791.19551,6799.85755 7792.98322,6773.07153 7807.28659,6758.78557 C7812.65032,6762.35712 7823.37778,6755.21414 7835.8932,6721.28526 C7837.68103,6717.71384 7837.68103,6712.35663 7841.25693,6712.35663 C7846.62067,6712.35663 7891.31836,6733.78545 7896.68209,6733.78545 C7900.25787,6733.78545 7902.04582,6724.85669 7905.6216,6723.07104 C7928.86449,6714.14228 7987.86554,6737.35688 8016.47204,6730.2139 C8032.56336,6724.85669 8043.29082,6710.57085 8059.3819,6708.78508 C8087.98851,6706.9993 8107.65537,6744.49986 8127.32247,6749.85694 C8154.14113,6758.78557 8163.08065,6708.78508 8170.23233,6701.6421 C8202.4146,6667.71334 8284.65842,6671.28465 8309.68926,6646.2844 C8357.96273,6599.85534 8288.23433,6639.14154 8322.20467,6594.49826 C8331.14419,6583.78385 8345.44756,6574.85509 8359.75068,6571.28366 L8361.53863,6565.92646 C8361.53863,6565.92646 8363.19593,6565.2553 8366.90236,6564.14068 C8368.68831,6563.6036 8380.0659,6557.53164 8391.74811,6559.024 C8404.31037,6560.62879 8417.50082,6570.09908 8427.69125,6578.42664 C8465.23738,6605.21254 8472.38906,6649.85595 8502.78338,6680.21328 C8552.84493,6728.42824 8688.72607,6814.14327 8704.81727,6883.78705 C8717.33269,6928.43034 8701.24149,6978.43083 8711.96896,7023.07424 C8715.54474,7042.71716 8747.72713,7087.36057 8745.93918,7107.00374 C8745.93918,7114.14672 8731.63581,7115.93237 8733.42376,7123.07535 C8735.21184,7130.21833 8745.93918,7126.64665 8751.30291,7130.21833 C8756.66665,7133.78963 8756.66665,7146.28982 8763.81833,7146.28982 C8767.39411,7148.07547 8772.75784,7144.50404 8776.33362,7148.07547 C8781.69748,7153.43268 8779.90953,7164.14721 8787.06121,7169.50441 C8794.21277,7176.64727 8871.09298,7180.21882 8869.30503,7171.29007 C8869.30503,7169.50441 8844.2742,7164.14721 8862.15335,7153.43268 C8872.88081,7148.07547 8885.39623,7149.86125 8896.12357,7144.50404 C8914.00272,7135.57553 8921.15441,7110.57516 8940.82138,7103.43218 C8980.15534,7089.14635 8999.82232,7103.43218 9008.76196,7137.36106 C9006.974,7139.14684 9001.61027,7137.36106 9001.61027,7139.14684 C9001.61027,7144.50404 9005.18618,7148.07547 9008.76196,7149.86125 C9012.33774,7151.64702 9015.91364,7144.50404 9017.70147,7148.07547 C9021.27737,7155.21845 9023.0652,7215.93335 9023.0652,7223.07633 C9021.27737,7246.29093 8967.63992,7248.0767 8953.3368,7258.79111 C8944.39716,7265.93397 8944.39716,7290.93422 8933.6697,7289.14844 C8931.88187,7287.36266 8946.18512,7228.43354 8921.15441,7214.14783 C8912.21477,7210.57615 8901.4873,7224.86211 8896.12357,7233.79074 C8888.97189,7246.29093 8921.15441,7257.00534 8919.36645,7271.29105 C8919.36645,7285.57714 8892.54792,7294.50564 8899.69935,7305.22005 C8906.85104,7315.93446 8921.15441,7289.14844 8933.6697,7289.14844 C8937.2456,7287.36266 8931.88187,7298.0772 8928.30597,7301.64862 C8926.51814,7303.4344 8924.73019,7305.22005 8921.15441,7307.00583 C8922.94223,7305.22005 8924.73019,7305.22005 8926.51814,7307.00583 C8937.2456,7315.93446 8894.33562,7385.57812 8894.33562,7387.3639 C8896.12357,7399.86396 8912.21477,7462.36463 8921.15441,7519.50811 C8888.97189,7524.86531 8842.48637,7540.93692 8815.66758,7517.72233 Z" id="ro" stroke="#FFFFFF" stroke-width="3" fill="#87B024"></path>
                    <g id="ru" stroke="none" stroke-width="1" fill="none" transform="translate(7096.429158, 15.171910)">
                        <path d="M4833.82662,6750.78799 C4826.67496,6749.00225 4801.64415,6761.50242 4794.49249,6759.71668 C4787.34082,6759.71668 4780.18916,6752.57373 4774.82542,6752.57373 C4773.0375,6752.57373 4730.12754,6774.00259 4728.33963,6774.00259 C4722.97588,6774.00259 4719.40005,6763.28816 4712.24839,6759.71668 C4705.09673,6757.93094 4696.15716,6759.71668 4689.0055,6759.71668 L4663.97469,6759.71668 C4655.03511,6749.00225 4663.97469,6690.07286 4644.30762,6690.07286 C4633.58013,6691.8586 4621.06473,6691.8586 4610.33723,6695.43008 C4601.39766,6699.00156 4596.03391,6715.07321 4585.30642,6715.07321 C4545.97229,6715.07321 4551.33604,6691.8586 4495.91067,6700.7873 C4481.60735,6702.57304 4501.27442,6734.71634 4490.54693,6743.64503 C4478.03152,6752.57373 4460.15237,6720.43043 4444.06114,6727.57338 C4390.42368,6752.57373 4406.51492,6827.57476 4336.78623,6827.57476 C4309.96751,6827.57476 4340.36206,6791.85998 4329.63457,6791.85998 C4288.51253,6790.07425 4242.02673,6804.36016 4200.90469,6800.78868 C4191.96511,6799.00294 4183.02554,6795.43146 4175.87388,6791.85998 C4143.69141,6772.21686 4109.72102,6797.2172 4109.72102,6797.2172 C4097.20562,6800.78868 4082.9023,6793.64572 4068.59897,6795.43146 C3964.8999,6818.64607 4066.81106,6802.57442 4020.32527,6832.93198 C4018.53735,6832.93198 3939.86909,6863.28954 3939.86909,6863.28954 C3925.56577,6863.28954 3913.05037,6849.00363 3898.74705,6847.21789 C3893.3833,6847.21789 3846.89751,6868.64676 3843.32168,6868.64676 C3820.07878,6872.21824 3796.83589,6849.00363 3773.59299,6854.36085 C3764.65342,6856.14659 3761.07759,6868.64676 3752.13801,6872.21824 C3698.50056,6897.21858 3677.04558,6852.57511 3677.04558,6936.50484 L3657.37851,6934.7191 L3621.62021,6916.86171 C3585.86191,6909.71876 3555.46736,6884.71841 3523.28488,6870.4325 C3492.89033,6857.93233 3412.43415,6824.00329 3380.25168,6825.78902 C3358.7967,6827.57476 3337.34172,6849.00363 3314.09882,6841.86068 C3298.00759,6836.50346 3230.06682,6786.50277 3221.12724,6790.07425 C3213.97558,6793.64572 3239.00639,6804.36016 3233.64265,6811.50311 C3231.85473,6813.28885 3181.79311,6824.00329 3180.0052,6824.00329 C3149.61064,6825.78902 3137.09523,6782.93129 3110.27651,6772.21686 C3070.94238,6757.93094 3033.39616,6786.50277 2999.42578,6765.0739 C2970.81913,6749.00225 3076.30612,6738.28782 3047.69948,6713.28747 C3038.75991,6706.14451 3029.82033,6732.9306 3020.88076,6727.57338 C3011.94118,6722.21616 3010.15327,6704.35877 3017.30493,6695.43008 C3022.66867,6688.28712 3035.18408,6697.21582 3044.12365,6697.21582 C3053.06323,6697.21582 3063.79072,6695.43008 3070.94238,6699.00156 C3085.2457,6691.8586 3095.97319,6686.50138 3106.70068,6684.71565 C3119.21608,6684.71565 3119.21608,6672.21547 3126.36774,6668.64399 C3138.88315,6663.28678 3153.18647,6670.42973 3165.70187,6668.64399 C3156.7623,6657.92956 3163.91396,6650.78661 3162.12604,6645.42939 C3160.33813,6634.71495 3122.79191,6618.6433 3115.64025,6604.35739 C3104.91276,6588.28574 3129.94357,6611.50035 3133.5194,6600.78591 C3126.36774,6581.14279 3137.09523,6572.21409 3142.45898,6559.71392 C3149.61064,6541.85653 3124.57983,6506.14175 3135.30732,6495.42731 C3162.12604,6463.28401 3149.61064,6495.42731 3171.06562,6534.71357 C3169.27771,6516.85618 3156.7623,6459.71253 3171.06562,6454.35532 C3183.58103,6448.9981 3215.7635,6477.56992 3230.06682,6454.35532 C3208.61184,6431.14071 3188.94477,6438.28367 3172.85354,6431.14071 C3162.12604,6425.78349 3154.97438,6413.28332 3142.45898,6411.49758 C3092.39736,6400.78315 3097.7611,6427.56923 3065.57863,6386.49724 C3060.21489,6379.35428 3047.69948,6373.99706 3051.27531,6368.63985 C3054.85114,6361.49689 3065.57863,6372.21132 3072.73029,6372.21132 C3081.66987,6370.42559 3090.60944,6366.85411 3097.7611,6361.49689 C3110.27651,6350.78246 3108.48859,6327.56785 3124.57983,6320.42489 C3140.67106,6332.92507 3185.36894,6334.71081 3178.21728,6318.63916 C3174.64145,6307.92472 3153.18647,6323.99637 3142.45898,6316.85342 C3104.91276,6288.28159 3154.97438,6281.13864 3156.7623,6281.13864 C3183.58103,6266.85272 3206.82392,6207.92334 3217.55141,6202.56612 C3231.85473,6207.92334 3242.58222,6206.1376 3247.94597,6198.99464 C3265.82512,6172.20856 3253.30971,6152.56543 3224.70307,6143.63674 C3215.7635,6141.851 3205.03601,6143.63674 3196.09643,6148.99395 C3162.12604,6163.27986 3187.15686,6159.70839 3183.58103,6179.35152 C3178.21728,6206.1376 3104.91276,6218.63777 3088.82153,6236.49516 C3072.73029,6222.20925 3081.66987,6216.85203 3085.2457,6200.78038 C3088.82153,6181.13725 3063.79072,6206.1376 3063.79072,6195.42317 C3065.57863,6182.92299 3054.85114,6140.06526 3060.21489,6129.35082 C3062.0028,6129.35082 3113.85234,6081.13587 3113.85234,6081.13587 C3117.42817,6073.99292 3108.48859,6065.06422 3108.48859,6057.92126 C3106.70068,6050.77831 3104.91276,6041.84961 3110.27651,6034.70666 C3137.09523,6002.56336 3221.12724,6016.84927 3246.15805,5979.34875 C3251.5218,5972.20579 3242.58222,5961.49136 3239.00639,5952.56266 C3240.79431,5929.34806 3233.64265,5925.77658 3231.85473,5920.41936 C3230.06682,5911.49067 3231.85473,5900.77623 3233.64265,5890.0618 C3246.15805,5857.9185 3213.97558,5877.56163 3213.97558,5877.56163 C3210.39975,5845.41833 3199.67226,5832.91815 3190.73269,5822.20372 C3178.21728,5809.70355 3158.55021,5840.06111 3156.7623,5820.41798 C3147.82272,5763.27433 3153.18647,5779.34598 3185.36894,5765.06007 C3187.15686,5763.27433 3201.46018,5732.91677 3190.73269,5736.48825 C3165.70187,5741.84547 3153.18647,5759.70286 3131.73149,5741.84547 C3108.48859,5722.20234 3149.61064,5716.84512 3154.97438,5707.91642 C3160.33813,5665.05869 3181.79311,5652.55852 3160.33813,5629.34391 C3153.18647,5620.41522 3140.67106,5618.62948 3133.5194,5611.48652 C3124.57983,5600.77209 3146.03481,5577.55748 3131.73149,5575.77174 C3097.7611,5573.986 3119.21608,5602.55783 3092.39736,5607.91504 C3001.21369,5622.20095 3115.64025,5595.41487 3042.33574,5582.9147 C3019.09284,5579.34322 3017.30493,5606.1293 2997.63786,5593.62913 C2990.4862,5590.05765 2985.12245,5581.12896 2979.75871,5575.77174 C2963.66747,5565.05731 2970.81913,5606.1293 2951.15207,5606.1293 C2938.63666,5606.1293 2926.12126,5602.55783 2913.60585,5597.20061 C2908.24211,5593.62913 2904.66628,5581.12896 2897.51462,5582.9147 C2888.57504,5582.9147 2884.99921,5600.77209 2874.27172,5600.77209 C2861.75632,5600.77209 2852.81674,5588.27191 2838.51342,5586.48617 C2792.02763,5579.34322 2861.75632,5648.98704 2813.48261,5640.05834 C2800.9672,5638.2726 2797.39137,5622.20095 2786.66388,5616.84374 C2779.51222,5613.27226 2768.78473,5618.62948 2759.84516,5615.058 C2733.02643,5606.1293 2713.35937,5572.20026 2690.11647,5554.34287 C2682.96481,5548.98566 2616.81195,5616.84374 2593.56906,5648.98704 C2586.4174,5659.70147 2568.53825,5640.05834 2556.02284,5638.2726 C2534.56786,5657.91573 2527.4162,5636.48687 2516.68871,5632.91539 C2473.77875,5622.20095 2464.83918,5684.70182 2434.44462,5668.63017 C2421.92921,5663.27295 2411.20172,5656.12999 2402.26215,5647.2013 C2395.11049,5640.05834 2387.95883,5631.12965 2386.17091,5620.41522 C2395.11049,5600.77209 2348.6247,5559.70009 2346.83678,5554.34287 C2337.89721,5536.48548 2332.53346,5541.8427 2325.3818,5541.8427 C2312.8664,5543.62844 2311.07848,5522.19957 2303.92682,5513.27088 C2287.83559,5515.05662 2250.28937,5538.27122 2243.13771,5538.27122 C2221.68273,5529.34253 2209.16732,5531.12827 2198.43983,5534.69974 C2194.864,5536.48548 2184.13651,5561.48583 2175.19694,5543.62844 C2182.3486,5527.55679 2182.3486,5520.41383 2178.77277,5516.84235 C2173.40902,5511.48514 2166.25736,5515.05662 2160.89362,5509.6994 C2151.95404,5504.34218 2162.68153,5486.48479 2155.52987,5479.34184 C2148.37821,5470.41314 2123.3474,5465.05592 2128.71115,5454.34149 C2135.86281,5445.4128 2176.98485,5436.4841 2166.25736,5420.41245 C2151.95404,5398.98358 2117.98366,5400.76932 2107.25617,5391.84063 C2100.10451,5386.48341 2094.74076,5379.34045 2092.95285,5372.1975 C2084.01327,5345.41141 2073.28578,5345.41141 2066.13412,5340.0542 C2055.40663,5332.91124 2050.04288,5318.62533 2037.52748,5316.83959 C2023.22416,5313.26811 2017.86041,5345.41141 2001.76918,5345.41141 C1923.10092,5327.55402 1966.01088,5366.84028 1924.88883,5384.69767 C1924.88883,5384.69767 1848.00848,5390.05489 1846.22057,5390.05489 C1842.64474,5390.05489 1855.16014,5443.62706 1839.06891,5459.69871 C1828.34142,5468.6274 1815.82601,5477.5561 1801.52269,5479.34184 C1789.00729,5463.27019 1783.64354,5472.19888 1780.06771,5470.41314 C1774.70397,5454.34149 1737.15775,5431.12688 1737.15775,5429.34114 C1735.36984,5404.3408 1722.85443,5397.19784 1721.06651,5386.48341 C1726.43026,5361.48306 1701.39945,5361.48306 1699.61153,5347.19715 C1715.70277,5313.26811 1651.33783,5300.76794 1645.97408,5286.48203 C1638.82242,5272.19611 1651.33783,5254.33872 1649.54991,5238.26707 C1649.54991,5209.69525 1735.36984,5247.19577 1758.61273,5232.90986 C1774.70397,5223.98116 1792.58312,5190.05212 1790.7952,5172.19473 C1794.37103,5161.4803 1810.46227,5157.90882 1815.82601,5147.19439 C1821.18976,5140.05143 1815.82601,5123.97978 1808.67435,5120.4083 C1778.2798,5109.69387 1774.70397,5122.19404 1758.61273,5104.33665 C1753.24899,5097.19369 1771.12814,5072.19335 1751.46107,5073.97909 C1730.00609,5075.76483 1719.2786,5068.62187 1688.88404,5077.55057 C1678.15655,5081.12204 1667.42906,5091.83648 1656.70157,5088.265 C1647.762,5084.69352 1663.85323,5034.69283 1647.762,5023.9784 C1642.39825,5020.40692 1586.97289,5020.40692 1569.09374,5007.90675 C1540.48709,4990.04936 1558.36625,4972.19197 1517.2442,4959.69179 C1510.09254,4956.12032 1527.97169,4925.76275 1520.82003,4923.97701 C1495.78922,4923.97701 1486.84964,4922.19127 1458.243,4902.54815 C1445.7276,4895.40519 1468.97049,4857.90467 1465.39466,4850.76172 C1467.18258,4827.54711 1424.27262,4793.61807 1426.06053,4784.68937 C1433.21219,4759.68903 1436.78802,4741.83164 1422.4847,4716.83129 C1418.90887,4709.68834 1408.18138,4723.97425 1401.02972,4723.97425 C1399.24181,4723.97425 1342.02852,4688.25947 1342.02852,4688.25947 C1297.33065,4670.40208 1329.51312,4684.68799 1304.48231,4695.40242 C1300.90648,4697.18816 1279.4515,4693.61669 1274.08775,4698.9739 C1265.14818,4711.47408 1250.84486,4745.40312 1236.54154,4752.54607 C1207.9349,4766.83198 1209.72281,4693.61669 1209.72281,4693.61669 C1154.29744,4681.11651 1165.02493,4688.25947 1127.47872,4716.83129 C1118.53914,4723.97425 1111.38748,4698.9739 1102.44791,4691.83095 C1072.05335,4670.40208 1080.99293,4729.33147 1036.29505,4693.61669 C1050.59837,4641.83026 998.748835,4593.6153 968.354279,4568.61496 C955.838874,4559.68626 980.869684,4543.61461 955.838874,4540.04313 C946.899298,4538.25739 939.747638,4552.54331 930.808063,4550.75757 C932.595978,4522.18574 936.171808,4509.68557 934.383893,4497.1854 C920.080573,4465.0421 962.990534,4450.75618 903.989337,4429.32732 C896.837677,4427.54158 886.110187,4427.54158 880.746442,4422.18436 C875.382697,4415.04141 884.322272,4402.54123 877.170612,4398.96975 C870.018951,4393.61254 862.867291,4402.54123 853.927716,4404.32697 C857.503546,4395.39828 844.988141,4370.39793 850.351886,4365.04071 C866.443121,4352.54054 859.291461,4350.7548 859.291461,4345.39759 C880.746442,4315.04002 882.534357,4334.68315 889.686017,4313.25428 C891.473932,4307.89707 875.382697,4311.46854 870.018951,4306.11133 C857.503546,4293.61115 864.655206,4284.68246 861.079376,4272.18229 C859.291461,4266.82507 830.68482,4250.75342 825.321075,4245.3962 C811.017755,4220.39586 827.10899,4231.11029 827.10899,4207.89568 C827.10899,4175.75238 791.350689,4141.82334 785.986944,4109.68004 C784.199029,4090.03691 805.65401,4075.751 811.017755,4061.46509 L812.80567,4016.82161 C812.80567,4007.89292 805.65401,3997.17848 811.017755,3990.03553 C828.896905,3952.53501 859.291461,3968.60666 816.3815,3941.82058 C819.95733,3915.03449 778.835284,3886.46267 800.290264,3865.0338 C823.53316,3879.31971 834.26065,3893.60562 841.412311,3886.46267 C850.351886,3879.31971 837.83648,3863.24806 839.624396,3850.74789 C841.412311,3827.53328 882.534357,3847.17641 887.898102,3845.39067 C930.808063,3836.46198 852.139801,3788.24702 948.687214,3782.88981 C980.869684,3781.10407 1084.56876,3798.96146 1034.50714,3757.88946 C1025.56756,3750.74651 1007.68841,3761.46094 996.96092,3756.10372 C970.142194,3743.60355 982.657599,3711.46025 939.747638,3729.31764 C923.656403,3734.67485 903.989337,3759.6752 880.746442,3748.96077 C864.655206,3727.5319 857.503546,3718.6032 846.776056,3715.03173 C839.624396,3711.46025 827.10899,3723.96042 821.745245,3716.81746 C805.65401,3695.3886 821.745245,3657.88808 805.65401,3636.45921 C803.866095,3632.88773 771.683624,3686.4599 769.895709,3686.4599 C755.592388,3693.60286 739.501153,3691.81712 726.985747,3698.96008 C732.349493,3663.2453 766.319878,3620.38756 787.774859,3584.67278 C843.200226,3486.45714 877.170612,3373.95558 914.716828,3268.59698 C943.323468,3191.81021 952.263044,3172.16708 955.838874,3090.02308 C957.626789,3077.52291 964.778449,3063.237 959.414704,3050.73683 C945.111383,3009.66483 785.986944,2950.73544 744.864898,2922.16362 C739.501153,2918.59214 803.866095,2820.3765 759.168218,2786.44746 C743.076983,2773.94728 709.106597,2786.44746 698.379107,2768.59007 C651.893315,2688.23181 709.106597,2725.73233 694.803277,2702.51773 C673.348296,2670.37442 650.1054,2695.37477 623.286675,2663.23147 C600.043779,2636.44538 616.135014,2634.65964 628.65042,2609.6593 C635.80208,2593.58765 592.892119,2593.58765 592.892119,2586.44469 C594.680034,2573.94452 594.680034,2509.65792 594.680034,2507.87218 C557.133818,2475.72888 601.831694,2495.372 612.559184,2482.87183 C619.710844,2472.1574 575.012968,2407.87079 569.649223,2400.72784 C539.254667,2359.65584 505.284281,2311.44089 469.52598,2275.72611 C464.162235,2270.36889 435.555594,2248.94003 430.191849,2238.22559 C403.373123,2188.2249 489.193046,2061.43743 455.22266,2031.07987 C446.283085,2020.36544 430.191849,2020.36544 419.464359,2013.22248 C399.797293,1998.93657 390.857718,1973.93622 371.190653,1961.43605 C369.402738,1961.43605 308.613626,1952.50736 306.825711,1952.50736 C296.09822,1943.57866 292.52239,1929.29275 285.37073,1916.79258 C246.036599,1852.50597 292.52239,1857.86319 272.855325,1811.43398 C263.91575,1790.00511 229.945364,1809.64824 237.097024,1797.14806 L274.64324,1757.86181 C296.09822,1765.00476 285.37073,1716.78981 280.006985,1695.36094 C281.7949,1698.93242 292.52239,1670.3606 292.52239,1670.3606 C299.674051,1657.86042 351.523587,1622.14564 321.129031,1597.1453 C303.249881,1581.07365 358.675247,1609.64547 380.130228,1602.50252 C401.585208,1595.35956 376.554398,1561.43052 365.826907,1547.14461 C390.857718,1545.35887 444.49517,1545.35887 446.283085,1543.57313 C451.64683,1536.43017 431.979764,1529.28722 430.191849,1520.35852 C426.616019,1506.07261 428.403934,1491.7867 433.767679,1477.50079 C435.555594,1470.35783 483.829301,1493.57244 490.980961,1498.92965 C501.708451,1511.42983 528.527177,1482.858 541.042582,1493.57244 C549.982158,1504.28687 546.406327,1527.50148 535.678837,1536.43017 C519.587602,1554.28756 480.253471,1502.50113 464.162235,1520.35852 C455.22266,1532.8587 460.586405,1554.28756 471.313895,1563.21626 C480.253471,1570.35921 494.556791,1545.35887 505.284281,1552.50182 C512.435941,1557.85904 508.860111,1568.57347 505.284281,1579.28791 C532.103007,1559.64478 598.255864,1540.00165 601.831694,1556.0733 C610.771269,1595.35956 576.800883,1532.8587 592.892119,1595.35956 C594.680034,1606.07399 614.347099,1606.07399 614.347099,1616.78843 C616.135014,1632.86008 567.861308,1648.93173 601.831694,1672.14634 C608.983354,1675.71781 594.680034,1656.07468 598.255864,1648.93173 C601.831694,1634.64582 616.135014,1625.71712 623.286675,1613.21695 C628.65042,1588.2166 632.22625,1570.35921 641.165825,1561.43052 C667.984551,1536.43017 678.712041,1566.78774 705.530767,1557.85904 C746.652813,1543.57313 766.319878,1523.93 814.593585,1534.64443 C870.018951,1547.14461 950.475129,1561.43052 1007.68841,1584.64513 C1020.20382,1590.00234 1029.14339,1602.50252 1041.6588,1607.85973 C1050.59837,1611.43121 1061.32586,1607.85973 1070.26544,1613.21695 C1077.4171,1616.78843 1077.4171,1629.2886 1084.56876,1631.07434 C1095.29625,1634.64582 1114.96331,1640.00303 1118.53914,1629.2886 C1123.90289,1618.57417 1098.87208,1623.93138 1089.9325,1620.35991 C1116.75123,1611.43121 1222.23822,1665.00338 1231.17779,1641.78877 C1234.75362,1631.07434 1211.51073,1625.71712 1211.51073,1615.00269 C1211.51073,1609.64547 1224.02613,1620.35991 1229.38988,1623.93138 C1241.90528,1631.07434 1250.84486,1641.78877 1261.57235,1647.14599 C1268.72401,1650.71747 1279.4515,1645.36025 1286.60316,1648.93173 C1297.33065,1656.07468 1302.69439,1668.57486 1311.63397,1675.71781 C1324.14937,1686.43225 1340.24061,1661.4319 1356.33184,1663.21764 C1374.211,1665.00338 1370.63517,1704.28964 1384.93849,1715.00407 C1409.9693,1716.78981 1408.18138,1747.14737 1417.12096,1756.07607 C1424.27262,1761.43328 1436.78802,1750.71885 1443.93968,1756.07607 C1467.18258,1773.93346 1470.75841,1852.50597 1465.39466,1881.0778 C1461.81883,1907.86388 1465.39466,1920.36405 1461.81883,1945.3644 C1445.7276,2027.50839 1358.11976,2113.22386 1279.4515,2127.50977 C1245.48111,2132.86699 1224.02613,2122.15256 1191.84366,2122.15256 C1156.08536,2123.9383 1122.11497,2140.00995 1086.35667,2143.58143 C1070.26544,2145.36716 1054.1742,2154.29586 1038.08297,2152.51012 C1016.62799,2150.72438 975.505939,2122.15256 954.050959,2131.08125 C943.323468,2134.65273 943.323468,2152.51012 932.595978,2156.0816 C925.444318,2157.86734 921.868488,2143.58143 914.716828,2141.79569 C905.777252,2138.22421 895.049762,2145.36716 887.898102,2140.00995 C880.746442,2134.65273 893.261847,2115.0096 884.322272,2115.0096 C875.382697,2116.79534 880.746442,2136.43847 873.594781,2140.00995 C862.867291,2147.1529 848.563971,2147.1529 836.048565,2145.36716 C823.53316,2145.36716 759.168218,2125.72404 750.228643,2109.65239 C746.652813,2102.50943 760.956133,2091.795 755.592388,2082.8663 C752.016558,2079.29482 666.196636,2093.58073 655.469145,2097.15221 C689.439531,2106.08091 712.682427,2088.22352 730.561578,2122.15256 C730.561578,2134.65273 721.622002,2140.00995 725.197832,2143.58143 C750.228643,2145.36716 757.380303,2166.79603 771.683624,2168.58177 C828.896905,2179.29621 798.502349,2154.29586 852.139801,2186.43916 C859.291461,2191.79638 873.594781,2191.79638 877.170612,2202.51081 C878.958527,2207.86803 832.472735,2227.51116 850.351886,2241.79707 C857.503546,2247.15429 866.443121,2229.2969 875.382697,2227.51116 C884.322272,2225.72542 993.38509,2252.5115 1004.11258,2266.79742 C1016.62799,2286.44054 1013.05216,2279.29759 1029.14339,2300.72646 C1034.50714,2307.86941 1057.75003,2311.44089 1050.59837,2316.79811 C1041.6588,2323.94106 1027.35548,2304.29793 1016.62799,2309.65515 C1013.05216,2309.65515 1043.44671,2347.15567 1043.44671,2348.94141 C1066.68961,2411.44227 1038.08297,2363.22732 1018.4159,2413.22801 C1016.62799,2418.58523 1032.71922,2411.44227 1038.08297,2415.01375 C1045.23463,2420.37097 1097.08416,2470.37166 1097.08416,2472.1574 C1091.72042,2500.72922 1122.11497,2493.58627 1125.6908,2507.87218 C1129.26663,2515.01513 1109.59957,2525.72957 1114.96331,2532.87252 C1120.32706,2540.01548 1132.84246,2516.80087 1139.99412,2522.15809 C1145.35787,2527.51531 1125.6908,2532.87252 1125.6908,2541.80122 C1123.90289,2554.30139 1125.6908,2570.37304 1134.63038,2579.30174 C1134.63038,2581.08748 1211.51073,2604.30208 1216.87447,2602.51634 C1227.60196,2600.7306 1207.9349,2566.80156 1286.60316,2595.37339 C1436.78802,2652.51703 1195.41949,2563.23009 1327.7252,2638.23112 C1331.30103,2641.8026 1460.03092,2634.65964 1463.60675,2632.87391 C1470.75841,2627.51669 1460.03092,2613.23078 1465.39466,2606.08782 C1468.97049,2600.7306 1479.69798,2607.87356 1483.27381,2602.51634 C1506.51671,2570.37304 1485.06173,2532.87252 1461.81883,2507.87218 C1449.30343,2495.372 1449.30343,2507.87218 1433.21219,2498.94348 C1408.18138,2518.58661 1392.09015,2525.72957 1375.99891,2523.94383 C1365.27142,2522.15809 1249.05694,2441.79983 1252.63277,2431.0854 C1257.99652,2418.58523 1277.66358,2416.79949 1286.60316,2407.87079 C1297.33065,2397.15636 1268.72401,2379.29897 1268.72401,2363.22732 C1270.51192,2316.79811 1395.66598,2384.65619 1401.02972,2384.65619 C1415.33304,2382.87045 1427.84845,2368.58454 1442.15177,2370.37028 C1470.75841,2359.65584 1560.15416,2393.58488 1574.45748,2386.44193 C1585.18497,2381.08471 1579.82123,2361.44158 1588.7608,2354.29862 C1604.85204,2341.79845 1631.67076,2373.94175 1663.85323,2352.51289 C1678.15655,2343.58419 1642.39825,2327.51254 1635.24659,2313.22663 C1631.67076,2270.36889 1527.97169,2236.43985 1502.94088,2206.08229 C1467.18258,2161.43882 1508.30462,2134.65273 1520.82003,2091.795 C1526.18377,2075.72334 1517.2442,2056.08022 1526.18377,2041.7943 C1542.27501,2011.43674 1570.88165,1997.15083 1583.39706,1959.65031 C1585.18497,1950.72162 1581.60914,1861.43467 1588.7608,1857.86319 C1599.48829,1854.29171 1613.79161,1856.07745 1626.30702,1856.07745 C1651.33783,1857.86319 1631.67076,1875.72058 1633.45868,1875.72058 C1688.88404,1845.36302 1651.33783,1827.50563 1706.76319,1848.93449 C1719.2786,1852.50597 1733.58192,1848.93449 1744.30941,1854.29171 C1751.46107,1861.43467 1756.82482,1857.86319 1763.97648,1857.86319 C1792.58312,1861.43467 1801.52269,1911.43536 1828.34142,1907.86388 C1831.91725,1907.86388 1817.61393,1895.36371 1781.85563,1847.14876 C1753.24899,1806.07676 1774.70397,1770.36198 1762.18856,1725.7185 C1746.09733,1725.7185 1737.15775,1720.36129 1731.79401,1711.43259 C1733.58192,1690.00373 1731.79401,1682.86077 1728.21818,1677.50355 C1715.70277,1668.57486 1678.15655,1643.57451 1669.21698,1641.78877 C1656.70157,1641.78877 1644.18617,1654.28895 1629.88285,1650.71747 C1613.79161,1645.36025 1606.63995,1588.2166 1604.85204,1575.71643 C1597.70038,1543.57313 1604.85204,1538.21591 1604.85204,1538.21591 C1597.70038,1531.07296 1574.45748,1498.92965 1570.88165,1484.64374 C1569.09374,1472.14357 1581.60914,1459.6434 1578.03331,1448.92896 C1576.2454,1441.78601 1570.88165,1468.57209 1565.51791,1465.00061 C1538.69918,1456.07192 1574.45748,1413.21418 1477.91007,1395.35679 C1476.12215,1395.35679 1404.60555,1381.07088 1424.27262,1366.78497 C1447.51551,1350.71332 1472.54632,1368.57071 1494.0013,1368.57071 C1513.66837,1368.57071 1560.15416,1318.57002 1578.03331,1311.42706 C1599.48829,1302.49837 1622.73119,1295.35541 1644.18617,1298.92689 C1649.54991,1314.99854 1658.48949,1323.92723 1667.42906,1327.49871 C1704.97528,1343.57036 1760.40065,1347.14184 1781.85563,1395.35679 C1781.85563,1395.35679 1749.67316,1414.99992 1742.5215,1425.71436 C1731.79401,1438.21453 1685.30821,1466.78635 1690.67196,1482.858 C1701.39945,1490.00096 1706.76319,1495.35818 1704.97528,1502.50113 C1704.97528,1520.35852 1671.00489,1543.57313 1704.97528,1572.14495 C1722.85443,1586.43086 1762.18856,1570.35921 1781.85563,1577.50217 C1797.94686,1584.64513 1835.49308,1640.00303 1858.73597,1627.50286 C1873.03929,1620.35991 1881.97887,1581.07365 1894.49427,1591.78808 C1903.43385,1600.71678 1889.13053,1618.57417 1896.28219,1627.50286 C1903.43385,1634.64582 1898.0701,1609.64547 1901.64593,1600.71678 C1914.16134,1579.28791 1930.25258,1557.85904 1951.70756,1541.78739 C1957.0713,1538.21591 1966.01088,1548.93035 1971.37462,1543.57313 C1978.52628,1534.64443 1940.98007,1481.07226 1937.40424,1475.71505 C1928.46466,1461.42914 1932.04049,1425.71436 1924.88883,1413.21418 C1910.58551,1388.21384 1881.97887,1398.92827 1898.0701,1368.57071 C1901.64593,1363.21349 1914.16134,1381.07088 1915.94926,1375.71367 C1917.73717,1366.78497 1910.58551,1357.85628 1912.37343,1348.92758 C1914.16134,1339.99889 1930.25258,1345.3561 1935.61632,1338.21315 C1951.70756,1314.99854 1969.58671,1325.71297 1982.10211,1316.78428 C1992.8296,1309.64132 1953.49547,1322.1415 1944.5559,1314.99854 C1937.40424,1309.64132 1939.19215,1297.14115 1932.04049,1293.56967 C1924.88883,1286.42672 1908.7976,1291.78393 1903.43385,1284.64098 C1898.0701,1277.49802 1919.52509,1289.99819 1928.46466,1286.42672 C1939.19215,1282.85524 1949.91964,1273.92654 1958.85922,1264.99785 C1973.16254,1248.9262 1973.16254,1202.49698 1983.89003,1184.63959 C1987.46586,1179.28238 1980.3142,1198.92551 1982.10211,1206.06846 C1989.25377,1163.21073 1991.04169,1125.71021 1998.19335,1091.78117 C1999.98126,1084.63821 2016.0725,1088.20969 2021.43624,1081.06673 C2026.79999,1070.3523 2026.79999,1057.85213 2032.16373,1047.13769 C2037.52748,1023.92309 2046.46705,1025.70883 2048.25497,1020.35161 C2055.40663,1007.85144 2051.8308,988.208307 2062.55829,979.279612 C2089.37702,959.636483 2092.95285,1031.06604 2109.04408,1029.2803 C2123.3474,1027.49456 2116.19574,1000.70848 2117.98366,986.422568 C2105.46825,968.565178 2091.16493,970.350917 2080.43744,964.9937 C2055.40663,929.278921 2110.832,813.205887 2143.01447,784.634064 C2146.5903,802.491453 2103.68034,845.349189 2107.25617,848.920667 C2116.19574,856.063623 2128.71115,834.634755 2141.22655,836.420494 C2141.22655,866.778057 2144.80238,879.278229 2151.95404,889.992663 C2166.25736,902.492836 2196.65192,904.278575 2205.59149,922.135965 C2218.1069,945.350572 2119.77157,988.208307 2191.28817,986.422568 C2202.01566,986.422568 2203.80358,970.350917 2212.74315,963.207961 C2219.89481,957.850744 2234.19813,961.422222 2237.77396,954.279267 C2243.13771,945.350572 2227.04647,929.278921 2235.98605,925.707443 C2244.92562,920.350226 2246.71354,950.707789 2253.8652,947.136311 C2264.59269,939.993355 2248.50145,916.778748 2259.22894,911.421531 C2271.74435,904.278575 2287.83559,923.921704 2300.35099,918.564487 C2307.50265,916.778748 2271.74435,875.706752 2271.74435,870.349535 C2259.22894,831.063277 2282.47184,827.491799 2293.19933,798.919975 C2296.77516,788.205542 2289.6235,775.705369 2294.98725,764.990935 C2357.56427,750.705023 2327.16972,745.347806 2343.26095,734.633372 C2350.41261,731.061894 2359.35219,736.419111 2368.29176,734.633372 C2379.01925,729.276155 2387.95883,722.133199 2396.8984,713.204505 C2407.62589,700.704332 2384.383,681.061203 2384.383,664.989552 C2386.17091,656.060857 2400.47423,652.489379 2402.26215,643.560684 C2405.83798,629.274773 2389.74674,609.631644 2400.47423,602.488688 C2411.20172,593.559993 2436.23253,631.060512 2436.23253,616.7746 C2436.23253,604.274427 2407.62589,607.845905 2400.47423,595.345732 C2396.8984,591.774254 2416.56547,547.13078 2421.92921,541.773563 C2436.23253,557.845213 2443.38419,550.702258 2448.74794,550.702258 C2539.93161,547.13078 2471.99084,568.559647 2495.23373,600.702949 C2522.05246,636.417729 2520.26454,638.203467 2552.44701,623.917556 C2561.38659,618.560339 2573.90199,623.917556 2579.26574,614.988861 C2606.08446,552.487997 2539.93161,582.845559 2529.20412,545.345041 C2525.62829,534.630607 2554.23493,514.987478 2561.38659,502.487305 C2570.32616,481.058437 2554.23493,459.62957 2557.81076,441.77218 C2563.1745,420.343312 2420.1413,391.771489 2395.11049,377.485577 C2368.29176,363.199665 2402.26215,348.913753 2407.62589,331.056363 C2412.98964,314.984713 2384.383,302.48454 2384.383,286.412889 C2384.383,275.698455 2441.59628,263.198282 2441.59628,263.198282 C2480.93041,238.197936 2511.32497,193.554462 2557.81076,172.125594 C2602.50863,150.696727 2654.35817,134.625076 2704.41979,132.839337 C2727.66269,136.410815 2740.17809,132.839337 2749.11767,129.267859 C2761.63307,123.910642 2772.36056,113.196208 2784.87597,106.053252 C2795.60346,122.124903 2804.54303,113.196208 2815.27053,107.838991 C2831.36176,98.9102962 2849.24091,104.267513 2865.33215,97.1245573 C2872.48381,93.5530793 2890.36296,68.5527336 2901.09045,70.3384726 C2927.90917,95.3388183 2958.30373,77.4814285 2979.75871,77.4814285 C2986.91037,75.6956895 2995.84995,75.6956895 3003.00161,79.2671675 C3017.30493,77.4814285 3026.2445,66.7669946 3038.75991,66.7669946 C3047.69948,66.7669946 3054.85114,82.8386454 3063.79072,79.2671675 C3074.51821,75.6956895 3079.88195,61.4097777 3081.66987,48.9096049 C3060.21489,39.98091 3058.42697,29.2664761 3053.06323,18.5520422 C3051.27531,14.9805643 3047.69948,9.62334735 3044.12365,0.694652462 L3491.10241,0.694652462 C3500.04199,7.83760837 3508.98156,13.1948253 3505.40573,20.3377812 C3498.25407,34.623693 3487.52658,45.3381269 3483.95075,57.8382997 C3507.19365,54.2668218 3550.10361,72.1242116 3555.46736,82.8386454 C3546.52778,102.481774 3542.95195,91.7673403 3539.37612,91.7673403 C3535.80029,114.981947 3546.52778,107.838991 3546.52778,111.410469 C3541.16404,139.982293 3548.3157,156.053944 3541.16404,166.768377 C3534.01238,181.054289 3510.76948,189.982984 3496.46616,182.840028 C3496.46616,156.053944 3507.19365,127.48212 3492.89033,129.267859 C3480.37492,131.053598 3494.67824,159.625421 3485.73867,170.339855 C3475.01118,179.26855 3458.91994,175.697072 3444.61662,177.482811 C3428.52539,193.554462 3417.7979,195.340201 3417.7979,200.697418 C3403.49458,241.769414 3398.13083,164.982638 3390.97917,250.698109 C3444.61662,259.626804 3426.73747,284.62715 3471.43535,264.984021 C3478.58701,261.412543 3551.89153,220.340547 3557.25527,214.98333 C3576.92234,195.340201 3578.71025,163.196899 3600.16523,141.768032 C3616.25647,123.910642 3650.22685,129.267859 3664.53017,111.410469 C3700.28847,64.9812557 3618.04438,50.6953438 3610.89272,22.1235202 C3609.10481,14.9805643 3612.68064,7.83760837 3616.25647,0.694652462 L5995.97158,0.694652462 L5995.97158,1881.0778 C5985.24409,1881.0778 5967.36494,1872.1491 5949.48579,1902.50666 C5945.90996,1909.64962 5970.94077,1918.57831 5965.57702,1936.4357 C5953.06162,1979.29344 5929.81872,1913.2211 5920.87915,1954.29309 C5919.09123,1966.79327 5942.33413,1984.65066 5931.60664,1990.00787 C5926.24289,1991.79361 5872.60544,1977.5077 5874.39335,1972.15048 C5876.18127,1963.22179 5886.90876,1957.86457 5890.48459,1948.93588 C5894.06042,1940.00718 5863.66586,1947.15014 5838.63505,1913.2211 C5820.7559,1890.00649 5860.09003,1900.72092 5831.48339,1886.43501 C5810.02823,1877.50632 5808.24032,1918.57831 5767.11827,1886.43501 C5767.11827,1886.43501 5743.87538,1856.07745 5731.35997,1854.29171 C5717.05665,1850.72023 5702.75333,1854.29171 5690.23792,1848.93449 C5661.29122,1853.14892 5660.07894,1883.76241 5661.63128,1913.2211 C5636.99297,1950.72157 5601.9076,1938.89567 5582.96302,1950.72162 C5484.62769,2011.43674 5604.418,1948.93588 5543.62889,2000.72231 C5523.96183,1997.15083 5513.23433,2000.72231 5506.08267,2007.86526 C5498.93101,2016.79396 5540.05306,2025.72265 5540.05306,2031.07987 C5543.62889,2036.43709 5525.74974,2029.29413 5518.59808,2031.07987 C5511.44642,2032.86561 5507.87059,2041.7943 5502.50684,2045.36578 C5491.77935,2054.29448 5523.96183,2068.58039 5523.96183,2082.8663 C5525.74974,2100.72369 5493.56727,2109.65239 5493.56727,2127.50977 C5510.05593,2137.84823 5518.26034,2131.86151 5523.96163,2135.41692 C5529.32605,2138.76227 5532.51416,2151.33334 5531.11349,2163.22455 C5529.32557,2195.36786 5500.71893,2175.72473 5500.71893,2200.72507 C5502.50684,2268.58315 5498.93101,2218.58246 5473.9002,2270.36889 C5473.22107,2316.47915 5445.94045,2354.79216 5436.35399,2373.94175 C5427.41441,2391.79914 5416.68692,2409.65653 5407.74735,2427.51392 C5400.59495,2448.09441 5390.98517,2429.29966 5384.50445,2429.29966 C5370.20113,2431.0854 5391.65611,2457.87149 5386.29237,2470.37166 C5380.92862,2481.08609 5366.6253,2482.87183 5357.68573,2490.01479 C5350.53437,2523.94383 5343.16572,2523.85885 5352.32198,2538.22974 C5361.26156,2550.72991 5391.65611,2556.08713 5386.29237,2572.15878 C5379.14071,2593.58765 5366.6253,2577.516 5350.53407,2581.08748 C5330.867,2584.65895 5350.53407,2618.58799 5320.13951,2622.15947 C5306.61851,2641.8805 5288.46143,2671.33575 5277.22955,2695.37477 C5273.65372,2704.30346 5318.35159,2698.94625 5286.16912,2722.16085 C5279.01746,2727.51807 5266.50206,2720.37512 5259.3504,2725.73233 C5246.83499,2738.23251 5253.98665,2761.44711 5245.04708,2775.73302 C5230.74376,2786.44746 5223.5921,2793.59041 5220.01627,2802.51911 C5218.22387,2836.25002 5177.88519,2860.85239 5187.8338,2879.30588 C5191.40963,2886.44884 5209.28878,2897.16327 5212.86461,2906.09197 C5216.44044,2915.02066 5191.40963,2913.23492 5184.25797,2907.87771 C5165.70852,2895.78624 5137.38325,2917.50786 5135.98426,2932.87805 C5135.98426,2940.02101 5153.86341,2940.02101 5153.86341,2948.9497 C5153.86341,2957.8784 5141.348,2961.44988 5134.19634,2963.23562 C5111.19358,2943.23609 5109.16553,2984.66448 5105.5897,2984.66448 C5100.22596,2986.45022 5080.55889,2979.30727 5076.98306,2979.30727 C5039.43685,2988.23596 5080.55889,3029.30796 5075.19515,3031.0937 C5057.316,3038.23665 5069.8314,2995.37892 5053.74017,3040.02239 C5043.01268,3072.16569 5093.0743,3027.52222 5096.65013,3050.73683 C5096.65013,3061.45126 5094.86221,3072.16569 5096.65013,3082.88013 C5102.5792,3101.02642 5086.22556,3113.77914 5091.41257,3112.48397 C5093.20049,3112.48397 5148.49966,3082.88013 5148.49966,3082.88013 C5132.4085,3058.51845 5169.95465,3041.80813 5177.10631,3066.80848 C5178.89422,3075.73717 5177.10631,3088.23734 5169.95465,3095.3803 C5164.5909,3100.73752 5157.43924,3090.02308 5150.28758,3091.80882 C5135.98426,3095.3803 5153.86341,3138.23804 5168.16673,3141.80951 C5198.56129,3152.52395 5223.5921,3107.88047 5228.95584,3104.309 C5237.89542,3100.73752 5246.83499,3109.66621 5255.77457,3106.09473 C5262.92623,3104.309 5289.74495,3073.95143 5304.04827,3091.80882 C5332.65491,3129.30934 5298.68453,3129.30934 5287.95704,3136.4523 C5279.01746,3143.59525 5279.01746,3159.6669 5270.07789,3165.02412 C5262.92623,3170.38134 5250.41082,3159.6669 5241.47125,3165.02412 C5232.53167,3170.38134 5228.95584,3182.88151 5223.5921,3191.81021 C5216.44044,3200.7389 5203.92503,3207.88186 5203.92503,3218.59629 C5209.58698,3221.07038 5220.31322,3216.21234 5221.80419,3222.30653 C5227.84626,3247.00289 5200.29353,3302.87946 5221.80418,3304.31176 C5228.95584,3306.0975 5234.31959,3295.38307 5241.47125,3298.95454 C5248.62291,3300.74028 5248.62291,3313.24046 5257.56248,3316.81193 C5262.92623,3318.59767 5270.07789,3307.88324 5275.44163,3309.66898 C5289.74495,3313.24046 5305.83619,3318.59767 5311.19993,3331.09785 C5311.19993,3331.09785 5302.26036,3400.74167 5300.47244,3400.74167 C5296.89661,3409.67036 5284.38121,3413.24184 5279.01746,3422.17053 C5271.8658,3438.24218 5284.38121,3457.88531 5275.44163,3473.95696 C5270.07789,3486.45714 5243.25916,3488.24288 5262.92623,3502.52879 C5293.32078,3522.17192 5304.04827,3490.02861 5332.65491,3481.09992 C5348.74615,3475.7427 5327.29117,3527.52913 5346.95824,3516.8147 C5370.20113,3504.31453 5386.29237,3481.09992 5411.32318,3472.17122 C5422.05067,3470.38549 5429.20233,3493.60009 5439.92982,3490.02861 C5498.93101,3475.7427 5438.1419,3441.81366 5529.32557,3466.81401 C5540.05336,3510.56963 5594.41701,3553.71208 5586.53885,3575.74409 C5574.02345,3618.60182 5534.68932,3688.24564 5489.99144,3706.10303 C5464.96063,3715.03173 5452.44522,3684.67416 5436.35399,3693.60286 C5414.89901,3707.88877 5481.05186,3772.17537 5436.35399,3820.39033 C5397.01986,3859.67658 5454.23314,3770.38963 5404.17152,3800.7472 C5384.50445,3813.24737 5366.6253,3834.67624 5338.01866,3841.81919 C5330.867,3845.39067 5323.71534,3843.60493 5314.77576,3841.81919 C5296.03587,3826.87029 5296.89661,3847.17641 5291.53287,3845.39067 C5277.54021,3832.2793 5272.57429,3841.81933 5270.07785,3841.81933 C5253.98662,3825.74768 5261.13831,3798.96146 5239.68333,3807.89015 C5232.53167,3809.67589 5227.16793,3818.60459 5218.22835,3820.39033 C5202.13712,3813.24737 5202.13712,3813.24737 5200.3492,3813.24737 C5178.89422,3823.9618 5202.13712,3831.10476 5200.3492,3840.03345 C5193.19754,3854.31937 5153.86341,3865.0338 5150.28758,3868.60528 C5137.77217,3879.31971 5166.57166,3904.89457 5173.72332,3915.60901 C5178.2198,3922.34552 5168.16671,3918.05722 5153.86343,3925.25887 C5150.28746,3925.25887 5153.86343,3942.90099 5150.28746,3950.29003 C5146.71148,3957.67906 5110.77784,3941.82047 5088.31721,3929.98645 C5075.19505,3934.84788 5075.19515,3940.03484 5069.8314,3945.39205 C5064.46766,3948.96353 5050.16434,3957.89223 5044.80059,3965.03518 C5050.16434,3961.4637 5055.52808,3957.89223 5060.89183,3954.32075 C5048.37642,3961.4637 5032.28519,3973.96388 5034.0731,3981.10683 C5037.64893,3986.46405 5048.37642,3986.46405 5050.16434,3993.60701 C5044.80065,4010.49045 5011.05352,3991.82126 5011.05352,3993.607 C4998.31482,4022.7321 5044.60325,4034.08519 5019.57238,4049.31924 C5005.26906,4056.4622 5000.10272,4052.53639 4998.3148,4057.89361 C4991.16314,4068.60804 5014.40604,4086.46543 5014.40604,4095.39413 C5014.40604,4095.39413 5004.76348,4141.96555 4998.31482,4168.98575 C4982.15195,4181.10959 4967.53348,4168.98575 4956.80599,4168.98575 C4948.64282,4171.38372 4947.72001,4186.63487 4933.42952,4182.89533 C4895.38032,4176.6008 4837.45991,4163.01803 4813.99913,4166.82379 C4802.61875,4168.66989 4800.28338,4177.77575 4799.85623,4182.89534 C4798.06832,4190.03829 4798.06832,4200.75273 4805.21998,4204.32421 C4810.58372,4207.89568 4824.88704,4191.82403 4833.82662,4202.53847 C4842.76619,4215.03864 4876.73658,4250.75342 4871.37283,4268.61081 C4864.15596,4277.53949 4860.51328,4286.12586 4845.96208,4283.53468 C4826.05772,4274.87652 4820.98616,4256.11055 4817.41033,4245.39611 C4815.62241,4238.25316 4821.15079,4222.18164 4813.99913,4222.18164 C4813.99913,4222.18164 4785.55276,4228.58142 4760.20328,4224.43029 C4748.39308,4220.03368 4743.75045,4215.51677 4742.0761,4209.97315 C4739.48655,4201.3994 4740.22721,4193.16113 4703.30882,4200.75273 C4689.0055,4204.32421 4680.06592,4218.61012 4667.55052,4218.61012 C4612.12515,4216.82438 4663.97469,4170.39517 4592.45808,4193.60977 C4571.0031,4200.75273 4513.78982,4275.75376 4497.69859,4268.61081 C4476.24361,4256.11064 4461.94029,4232.89603 4438.69739,4222.1816 C4435.12156,4243.61046 4433.33365,4256.11064 4424.39407,4266.82507 C4419.03032,4273.96803 4406.51492,4272.18229 4401.15117,4277.5395 C4377.90828,4306.11133 4420.81824,4315.04002 4406.51492,4343.61185 C4399.36326,4356.11202 4388.63577,4315.04002 4379.69619,4332.89741 C4368.9687,4354.32628 4386.84785,4366.82645 4354.66538,4368.61219 C4320.695,4372.18367 4368.9687,4345.39759 4349.30164,4334.68315 C4309.96751,4313.25428 4317.11917,4350.7548 4286.72461,4357.89776 C4275.99712,4359.6835 4265.26963,4352.54054 4254.54214,4356.11202 C4249.17839,4356.11202 4283.14878,4379.32663 4281.36087,4384.68384 C4268.84546,4440.04175 4270.63338,4357.89776 4252.75423,4391.8268 C4240.23882,4411.46993 4267.05755,4416.82714 4267.05755,4432.89879 C4267.05755,4434.68453 4256.33006,4495.39966 4254.54214,4498.97114 C4247.39048,4509.68557 4234.87507,4515.04279 4227.72341,4525.75722 C4222.35967,4538.25739 4227.72341,4552.54331 4220.57175,4565.04348 C4211.63218,4577.54365 4183.02554,4572.18644 4177.66179,4588.25809 C4163.35847,4634.6873 4209.84426,4634.6873 4206.26843,4645.40173 C4202.6926,4654.33043 4197.32886,4665.04486 4190.1772,4673.97356 C4177.66191,4693.6168 4170.21053,4737.0729 4168.72222,4740.0459 C4161.57056,4754.33181 4127.60017,4750.76033 4127.60017,4756.11755 C4127.60017,4766.83198 4145.47932,4757.90329 4145.47932,4757.90329 C4157.99473,4766.83198 4200.90469,4818.61841 4211.63218,4829.33285 C4220.69718,4850.85641 4220.57177,4855.20095 4227.72341,4848.25513 C4234.87505,4841.30932 4238.23684,4838.47738 4243.81465,4856.11893 C4245.60256,4863.26189 4245.60256,4872.19058 4243.81465,4879.33354 C4200.90469,4982.9064 4174.08596,4923.97701 4111.50894,4897.19093 C4104.35728,4893.61945 4031.05276,4863.26189 4025.68901,4873.97632 C4018.53735,4893.61945 4002.44612,4929.33423 4018.53735,4952.54884 C4022.11318,4956.12032 4038.20442,4959.69179 4038.20442,4968.62049 C4039.99233,5007.90675 4011.38569,5018.62118 4011.38569,5040.05005 C4009.59778,5045.40726 4054.29565,5166.83751 4054.29565,5166.83751 C4065.02314,5175.76621 4097.20562,5159.69456 4107.93311,5181.12343 C4120.44851,5211.48099 4100.78145,5225.7669 4097.20562,5250.76725 C4093.62979,5277.55333 4107.93311,5322.19681 4111.50894,5348.98289 C4113.29685,5359.69732 4109.72102,5373.98324 4116.87268,5381.12619 C4122.23643,5384.69767 4208.05635,5363.2688 4220.57175,5366.84028 C4233.08716,5370.41176 4224.14758,5393.62636 4234.87507,5398.98358 C4254.8989,5399.0846 4250.309,5410.53831 4249.17839,5415.05523 C4243.6834,5434.24749 4263.20091,5436.20364 4270.63338,5443.62706 C4286.72469,5459.6987 4318.90708,5465.05592 4318.90708,5465.05592 C4322.48291,5461.48445 4304.60376,5427.55541 4306.39168,5425.76967 C4318.90708,5423.98393 4333.2104,5429.34114 4347.51372,5425.76967 C4370.75662,5418.62671 4383.27202,5382.91193 4411.87866,5390.05489 C4479.81944,5407.91228 4510.21399,5441.84132 4565.63936,5477.5561 C4590.67017,5493.62775 4626.42847,5493.62775 4644.30762,5515.05662 C4655.03511,5529.34253 4630.0043,5557.91435 4621.06473,5559.70009 C4610.33723,5559.70009 4588.88225,5532.91401 4579.94268,5565.05731 C4567.42727,5613.27226 4676.49009,5591.84339 4714.03631,5590.05765 C4721.18797,5611.48652 4722.97588,5615.058 4724.7638,5618.62948 L4730.12754,5640.05834 C4722.97588,5732.91677 4696.15716,5645.41556 4685.42967,5672.20165 C4683.64175,5677.55886 4706.88465,5682.91608 4699.73299,5686.48756 C4680.06592,5698.98773 4676.49009,5665.05869 4672.91426,5684.70182 C4667.55052,5707.91642 4708.67256,5709.70216 4719.40005,5729.34529 C4733.70337,5761.48859 4683.64175,5720.4166 4676.49009,5723.98808 C4662.18677,5731.13103 4674.70218,5752.5599 4667.55052,5766.84581 C4665.7626,5772.20303 4655.03511,5770.41729 4651.45928,5775.77451 C4647.88345,5806.13207 4638.94388,5816.8465 4628.21639,5827.56094 C4608.54932,5845.41833 4606.7614,5815.06076 4604.97349,5836.48963 C4603.18557,5847.20407 4621.06473,5857.9185 4613.91307,5863.27572 C4597.82183,5875.77589 4581.73059,5852.56128 4569.21519,5848.9898 C4565.63936,5861.48998 4579.94268,5865.06146 4587.09434,5873.99015 C4569.21519,5888.27606 4560.27561,5884.70458 4549.54812,5879.34737 C4545.97229,5875.77589 4560.27561,5873.99015 4572.79102,5879.34737 C4583.51851,5893.63328 4583.51851,5895.41902 4583.51851,5897.20476 C4587.09434,5913.27641 4587.09434,5916.84789 4587.09434,5920.41936 C4585.30642,5936.49101 4571.0031,5932.91954 4572.79102,5938.27675 C4592.45808,5945.41971 4583.51851,5954.3484 4585.30642,5963.2771 C4587.09434,5972.20579 4597.82183,5977.56301 4597.82183,5988.27744 C4583.51851,6011.49205 4599.60974,6031.13518 4596.03391,6048.99257 C4583.51851,6073.99292 4613.91307,6097.20752 4599.60974,6097.20752 C4588.88225,6095.42178 4581.73059,6068.6357 4572.79102,6075.77865 C4563.85144,6082.92161 4585.30642,6097.20752 4585.30642,6109.70769 C4585.30642,6138.27952 4540.60855,6150.77969 4571.0031,6186.49447 C4606.7614,6227.56647 4587.09434,6184.70873 4635.36805,6190.06595 C4647.88345,6190.06595 4651.45928,6207.92334 4662.18677,6209.70908 C4669.33843,6213.28056 4676.49009,6200.78038 4683.64175,6202.56612 C4694.36924,6206.1376 4696.15716,6220.42351 4705.09673,6225.78073 C4721.18797,6238.2809 4771.24959,6268.63846 4771.24959,6273.99568 C4774.82542,6316.85342 4753.37044,6313.28194 4785.55291,6338.28228 C4787.34082,6318.63916 4764.09793,6252.56681 4765.88584,6250.78107 C4769.46167,6241.85238 4783.76499,6229.35221 4789.12874,6236.49516 C4798.06832,6247.2096 4787.34082,6263.28125 4789.12874,6277.56716 C4790.91665,6290.06733 4794.49249,6302.5675 4798.06832,6313.28194 C4803.43206,6331.13933 4801.64415,6361.49689 4819.5233,6373.99706 C4837.40245,6397.21167 4815.94747,6402.56889 4848.12994,6434.71219 C4857.06951,6443.64088 4871.37283,6443.64088 4882.10032,6445.42662 C4901.76739,6448.9981 4916.07071,6488.28436 4928.58611,6491.85584 C4937.52569,6493.64158 4944.67735,6484.71288 4951.82901,6486.49862 C4969.70816,6491.85584 5053.74017,6540.07079 5071.61932,6552.57096 C5082.34681,6561.49966 5089.49847,6575.78557 5102.01387,6581.14279 C5112.74136,6584.71426 5121.68094,6575.78557 5132.40843,6575.78557 C5114.52928,6684.71565 5134.19634,6629.35774 5105.5897,6706.14451 C5100.22596,6722.21616 5112.74136,6768.64538 5107.37762,6774.00259 C5089.49847,6793.64572 5025.13353,6825.78902 4998.3148,6806.1459 C4957.19275,6775.78833 5055.52808,6791.85998 4951.82901,6765.0739 C4937.52569,6775.78833 4896.40364,6761.50242 4885.67615,6756.1452 L4851.70577,6741.85929 C4842.76619,6745.43077 4837.40245,6749.00225 4833.82662,6750.78799 Z M979.081769,3338.2408 C993.38509,3340.02654 1032.71922,3347.1695 1036.29505,3348.95524 C1055.96212,3356.09819 1070.26544,3381.09854 1091.72042,3390.02723 C1127.47872,3404.31314 1173.96451,3397.17019 1204.35907,3425.74201 C1220.4503,3440.02792 1234.75362,3452.5281 1249.05694,3468.59975 C1254.42069,3475.7427 1250.84486,3488.24288 1257.99652,3495.38583 C1263.36026,3500.74305 1275.87567,3497.17157 1279.4515,3504.31453 C1283.02733,3518.60044 1281.23941,3534.67209 1274.08775,3547.17226 C1270.51192,3554.31522 1252.63277,3543.60078 1250.84486,3550.74374 C1249.05694,3559.67243 1265.14818,3561.45817 1270.51192,3570.38687 C1272.29984,3573.95835 1270.51192,3581.1013 1272.29984,3586.45852 C1272.29984,3598.95869 1277.66358,3613.2446 1274.08775,3625.74478 C1257.99652,3672.17399 1200.78324,3609.67313 1179.32825,3641.81643 C1157.87327,3673.95973 1190.05575,3716.81746 1179.32825,3723.96042 C1159.66119,3736.46059 1127.47872,3738.24633 1125.6908,3738.24633 C1122.11497,3731.10338 1132.84246,3722.17468 1131.05455,3715.03173 C1129.26663,3706.10303 1125.6908,3697.17434 1118.53914,3690.03138 C1113.1754,3684.67416 1102.44791,3686.4599 1097.08416,3681.10269 C1070.26544,3654.3166 1066.68961,3632.88773 1052.38629,3616.81608 C1047.02254,3611.45887 1018.4159,3593.60148 1013.05216,3588.24426 C1005.9005,3579.31556 1011.26424,3565.02965 1005.9005,3556.10096 C979.081769,3522.17192 936.171808,3518.60044 905.777252,3493.60009 C900.413507,3488.24288 929.020148,3506.10027 925.444318,3498.95731 C921.868488,3490.02861 900.413507,3491.81435 900.413507,3482.88566 C900.413507,3456.09957 955.838874,3415.02758 962.990534,3388.24149 C964.778449,3384.67002 952.263044,3388.24149 952.263044,3384.67002 C950.475129,3375.74132 957.626789,3366.81263 959.414704,3359.66967 C961.202619,3350.74097 961.202619,3340.02654 966.566364,3334.66932 C970.142194,3331.09785 984.445515,3336.45506 979.081769,3338.2408 L979.081769,3338.2408 Z M1640.61034,0.694652462 L1613.79161,0.694652462 C1608.42787,7.83760837 1603.06412,16.7663033 1590.54872,9.62334735 C1585.18497,7.83760837 1581.60914,4.26613042 1579.82123,0.694652462 L1470.75841,0.694652462 L1470.75841,6.0518694 C1465.39466,32.8379541 1411.75721,41.7666489 1433.21219,82.8386454 C1440.36385,97.1245573 1449.30343,109.62473 1461.81883,116.767686 C1467.18258,120.339164 1474.33424,109.62473 1479.69798,113.196208 C1483.27381,113.196208 1477.91007,120.339164 1479.69798,123.910642 C1481.4859,125.696381 1490.42547,120.339164 1486.84964,122.124903 C1477.91007,127.48212 1467.18258,125.696381 1460.03092,134.625076 C1454.66717,138.196554 1440.36385,186.411506 1456.45509,191.768723 C1476.12215,197.12594 1497.57713,161.41116 1515.45628,172.125594 C1519.03211,173.911333 1517.2442,181.054289 1515.45628,186.411506 C1515.45628,198.911679 1504.72879,213.197591 1510.09254,225.697764 C1515.45628,236.412198 1538.69918,231.054981 1542.27501,241.769414 C1545.85084,252.483848 1526.18377,261.412543 1527.97169,273.912716 C1527.97169,284.62715 1538.69918,291.770106 1545.85084,298.913062 C1547.63876,304.270279 1561.94208,307.841757 1558.36625,309.627496 C1545.85084,316.770452 1526.18377,309.627496 1513.66837,318.55619 C1490.42547,336.41358 1536.91126,397.128705 1545.85084,409.628878 C1565.51791,427.486268 1637.03451,493.55861 1651.33783,423.91479 C1653.12574,411.414617 1620.94327,397.128705 1631.67076,388.200011 C1642.39825,379.271316 1651.33783,407.843139 1663.85323,413.200356 C1678.15655,420.343312 1701.39945,423.91479 1701.39945,400.700183 C1699.61153,388.200011 1688.88404,375.699838 1690.67196,363.199665 C1690.67196,354.27097 1696.0357,381.057055 1703.18736,388.200011 C1710.33902,397.128705 1719.2786,402.485922 1730.00609,407.843139 C1733.58192,409.628878 1740.73358,413.200356 1742.5215,407.843139 C1742.5215,402.485922 1742.5215,395.342967 1740.73358,388.200011 C1742.5215,391.771489 1744.30941,395.342967 1746.09733,400.700183 C1746.09733,406.0574 1738.94567,414.986095 1744.30941,416.771834 C1758.61273,418.557573 1774.70397,416.771834 1787.21937,407.843139 C1789.00729,406.0574 1789.00729,404.271661 1787.21937,402.485922 C1794.37103,407.843139 1817.61393,395.342967 1810.46227,404.271661 C1801.52269,420.343312 1760.40065,427.486268 1769.34022,441.77218 C1778.2798,454.272353 1799.73478,445.343658 1808.67435,456.058092 C1817.61393,466.772526 1803.31061,486.415654 1812.25018,495.344349 C1821.18976,500.701566 1826.5535,479.272698 1835.49308,475.701221 C1844.43265,473.915482 1851.58431,482.844176 1860.52389,482.844176 C1865.88763,481.058437 1874.82721,477.486959 1874.82721,470.344004 C1873.03929,468.558265 1865.88763,464.986787 1869.46346,464.986787 C1881.97887,463.201048 1948.13173,470.344004 1955.28339,461.415309 C1964.22296,447.129397 1923.10092,422.129051 1937.40424,413.200356 C1958.85922,398.914444 2001.76918,395.342967 2026.79999,386.414272 C2017.86041,382.842794 2008.92084,382.842794 1998.19335,381.057055 C1996.40543,379.271316 1991.04169,384.628533 1991.04169,382.842794 C1992.8296,338.199319 2125.13532,352.485231 2066.13412,304.270279 C2057.19454,297.127323 2021.43624,309.627496 2010.70875,309.627496 C1976.73837,311.413235 1944.5559,298.913062 1910.58551,291.770106 C1873.03929,284.62715 1812.25018,250.698109 1780.06771,225.697764 C1772.91605,220.340547 1769.34022,209.626113 1760.40065,206.054635 C1753.24899,204.268896 1746.09733,218.554808 1738.94567,214.98333 C1715.70277,198.911679 1726.43026,166.768377 1713.91485,147.125249 C1704.97528,136.410815 1692.45987,132.839337 1681.73238,125.696381 C1678.15655,122.124903 1676.36864,111.410469 1669.21698,111.410469 C1660.2774,111.410469 1651.33783,131.053598 1647.762,123.910642 C1642.39825,111.410469 1658.48949,100.696035 1660.2774,88.1958624 C1662.06532,73.9099505 1662.06532,59.6240387 1656.70157,48.9096049 C1653.12574,41.7666489 1644.18617,38.195171 1637.03451,38.195171 C1626.30702,39.98091 1615.57953,59.6240387 1610.21578,50.6953438 C1594.12455,25.6949981 1678.15655,29.2664761 1640.61034,0.694652462 L1640.61034,0.694652462 Z M2185.92443,273.912716 C2198.43983,259.626804 2252.07728,293.555845 2262.80477,293.555845 C2289.6235,295.341584 2396.8984,270.341238 2396.8984,323.913407 C2396.8984,336.41358 2353.98844,373.914099 2346.83678,375.699838 C2332.53346,375.699838 2323.59389,354.27097 2309.29057,354.27097 C2296.77516,356.056709 2291.41142,372.12836 2282.47184,381.057055 C2275.32018,379.271316 2194.864,363.199665 2191.28817,347.128014 C2189.50026,336.41358 2216.31898,334.627841 2210.95524,327.484885 C2207.37941,318.55619 2191.28817,332.842102 2182.3486,327.484885 C2176.98485,325.699146 2189.50026,320.341929 2189.50026,314.984713 C2189.50026,300.698801 2176.98485,284.62715 2185.92443,273.912716 L2185.92443,273.912716 Z M1787.21937,938.207616 C1819.40184,939.993355 1837.28099,934.636138 1862.3118,956.065005 C1867.67555,961.422222 1874.82721,984.636829 1873.03929,993.565524 C1867.67555,1004.27996 1865.88763,961.422222 1855.16014,961.422222 C1842.64474,963.207961 1856.94806,1036.42326 1856.94806,1038.209 C1856.94806,1061.42361 1837.28099,1097.13838 1819.40184,1113.21004 C1815.82601,1114.99577 1812.25018,1107.85282 1808.67435,1109.63856 C1767.55231,1125.71021 1753.24899,1102.4956 1730.00609,1066.78082 C1690.67196,995.351263 1690.67196,932.850399 1787.21937,938.207616 L1787.21937,938.207616 Z M1529.65072,3364.85528 C1499.33751,3368.84622 1532.59935,3334.8454 1479.24993,3283.48129 C1455.03298,3260.16704 1282.31341,3252.64962 1348.6844,3190.66501 C1249.93356,3147.85549 1340.54026,3150.17874 1308.04115,3096.683 C1329.38439,3098.09677 1357.53815,3159.47047 1399.26702,3181.95275 C1399.71185,3148.85354 1373.10857,3116.26059 1382.44166,3110.70801 C1449.36708,3009.3759 1306.78246,3036.24002 1250.06962,2982.25338 C1308.47758,2975.19703 1344.68483,2999.92487 1407.38522,3021.03659 C1427.06606,3136.00426 1454.32979,3149.84373 1506.12802,3193.43219 C1595.70775,3237.5178 1588.8822,3303.84158 1566.83685,3303.08103 C1543.80225,3302.28727 1560.07478,3360.84861 1529.65072,3364.85528 L1529.65072,3364.85528 Z" id="ru-main" stroke="#FFFFFF" stroke-width="3" fill="#87B024"></path>
                    </g>
                </g>
            </g>
        </g>
    </g>
</svg>