<?xml version="1.0" encoding="UTF-8" standalone="no"?>
<svg width="268px" height="356px" viewBox="0 0 268 356" version="1.1" xmlns="http://www.w3.org/2000/svg" xmlns:xlink="http://www.w3.org/1999/xlink">
    <!-- Generator: Sketch 3.6 (26304) - http://www.bohemiancoding.com/sketch -->
    <title>de</title>
    <desc>Created with Sketch.</desc>
    <defs></defs>
    <g id="Page-1" stroke="none" stroke-width="1" fill="none" fill-rule="evenodd">
        <g id="Group" transform="translate(-391.000000, -172.000000)" fill="#FFFFFF">
            <path d="M629.993721,224.359002 C630.701819,230.023824 636.366426,240.999456 637.074548,244.539963 C638.13667,253.03722 626.807357,258.702041 629.285649,265.429045 C630.701819,269.677673 644.155325,271.447902 644.155325,276.758713 C644.155325,282.069498 639.906839,283.839752 643.093204,287.734344 C644.155325,289.504573 646.633617,290.21267 647.341715,292.337009 C648.403836,294.107262 646.987666,296.585637 647.341715,298.355891 C647.695739,299.418048 649.111909,299.063987 649.465958,299.772109 C651.236152,302.250484 646.987666,308.269341 645.925545,310.393655 C643.801301,313.580127 649.111909,315.350405 650.174031,318.536876 C650.882079,320.307105 648.403836,322.431419 649.465958,323.847637 C650.882079,325.971951 654.068443,325.263855 655.484614,326.680073 C660.441197,331.282737 658.316954,357.128544 654.068443,357.83664 C649.465958,358.898798 642.031082,339.425933 638.13667,350.401541 C637.428597,352.171794 643.801301,353.588012 642.385131,354.650169 C638.13667,358.190701 632.117964,358.544762 627.869478,361.023112 C627.161405,361.377172 627.869478,363.147451 627.161405,363.501462 C624.329065,364.91768 620.434652,362.79339 618.310409,364.563619 C616.54019,365.979837 617.248288,368.812248 615.478068,370.228465 C614.769996,370.936586 614.061923,368.458212 612.999801,368.812248 C609.813412,369.520369 609.459388,373.768997 607.33517,375.185215 C606.273048,376.247372 604.148805,374.477094 603.086683,375.539251 C602.024562,376.247372 603.086683,378.371686 602.024562,379.433843 C600.608392,381.204072 596.713929,378.017626 595.651808,378.017626 C586.800812,379.433843 585.384666,386.160822 582.552325,391.825668 C581.844253,393.241837 581.844253,388.285136 580.428082,387.222979 C579.365961,385.806761 577.241718,385.452701 575.471548,385.098665 C572.285159,384.390544 579.011912,395.720211 586.092739,400.322901 C586.800812,400.676961 589.279103,401.030997 589.633152,403.155311 C590.695274,408.112061 586.092739,406.341807 585.384666,410.236375 C585.030617,411.298508 592.819492,424.398429 593.881614,425.460586 C599.900294,431.479493 601.316464,427.230889 605.210927,431.125432 C607.689169,433.603807 608.043218,437.498375 610.52151,439.622665 C616.186166,443.517257 631.409892,448.828043 631.055843,458.033396 C630.701819,467.592811 628.577576,465.468496 621.1427,463.698243 C620.434652,463.698243 619.726579,464.052279 619.372531,464.7604 C618.664433,468.300932 620.788701,472.195475 617.248288,475.027886 C614.061923,477.506261 599.192221,481.046792 598.838173,486.711639 C598.838173,486.711639 607.33517,498.395342 607.33517,498.749403 C607.689169,499.103464 602.732635,503.352067 604.502829,504.76831 C608.397291,508.308792 612.291704,502.998007 609.105339,514.68176 C609.105339,515.389856 608.397291,516.452013 607.689169,516.452013 C596.359905,513.265542 605.210927,507.600696 599.900294,507.246635 C597.067978,507.246635 594.589686,509.72501 591.757395,509.370949 C590.341225,509.016914 590.695274,506.538539 589.633152,506.184478 C587.508909,505.476382 585.384666,507.246635 583.614447,506.538539 C582.906374,506.184478 584.322544,504.060164 583.614447,504.060164 C579.365961,504.414224 583.260398,510.079071 582.198277,510.433107 C577.241718,511.849324 569.098794,509.72501 564.496259,511.495264 C563.080114,512.203385 563.788186,514.68176 562.372016,515.389856 C560.955895,516.452013 559.185676,514.68176 557.76953,515.743917 C556.707384,516.097928 558.123555,517.868231 557.415482,518.576303 C557.061433,518.930388 545.024072,522.116835 543.607877,521.408738 C542.899829,520.700617 543.607877,518.930388 542.899829,518.222242 C542.54578,517.514146 540.775586,517.514146 540.421537,516.806074 C540.067513,516.097928 542.191756,516.452013 541.837707,515.743917 C540.421537,511.141228 530.508394,516.806074 527.676103,513.619603 C527.676103,513.619603 528.384176,513.265542 528.384176,512.911481 C526.259933,511.495264 528.384176,517.514146 527.676103,519.992521 C527.676103,521.408738 520.949325,529.551935 518.471033,527.07356 C517.054863,525.657367 520.949325,523.533053 519.887204,522.116835 C519.533155,521.762774 518.471033,523.178992 517.762961,523.178992 C517.054863,523.178992 515.992742,522.824931 515.638742,522.116835 C514.93062,521.054678 517.408912,519.63846 515.638742,518.222242 C514.222572,517.160085 513.514499,515.389856 512.098329,514.68176 C511.036207,513.973639 509.620037,515.743917 508.203867,515.389856 C507.495794,514.68176 508.203867,512.911481 507.495794,512.203385 C505.7256,510.787167 506.079624,517.160085 500.414967,515.389856 C496.520554,513.973639 494.042263,510.079071 490.147825,509.016914 C489.793776,509.016914 478.110464,509.72501 478.110464,509.72501 C476.694294,509.016914 476.694294,506.538539 475.278124,505.830442 C474.924075,505.122321 475.986196,507.600696 475.278124,507.954756 C474.570051,508.308792 473.15388,507.954756 472.799832,507.246635 C472.445808,506.184478 474.216002,504.76831 473.507929,504.060164 C468.197297,498.749403 462.178641,508.308792 463.240762,508.662853 C465.365006,509.016914 467.489249,508.308792 469.613467,508.662853 C471.029637,509.016914 467.135175,509.370949 466.073078,510.079071 C465.365006,510.433107 466.427127,512.203385 466.073078,512.557446 C457.222057,517.160085 463.594811,510.433107 456.513984,510.787167 C455.451863,510.787167 439.16604,514.68176 438.103919,512.557446 C437.74987,511.849324 440.228137,511.495264 439.874089,511.141228 C436.687749,508.662853 435.271578,519.2844 435.271578,506.892599 C434.917554,501.93585 438.457918,497.333185 438.811967,492.37646 C438.811967,491.668339 437.395797,491.668339 437.395797,490.606182 C437.041797,488.835928 437.74987,487.065699 438.457918,485.295421 L443.414502,477.152225 C443.768551,475.027886 444.122575,467.23875 445.184696,464.7604 C448.017037,459.095554 455.097814,454.84695 458.992276,448.119946 C460.408447,445.641572 439.16604,443.163197 437.74987,442.10104 C436.687749,441.038882 437.395797,438.914593 436.3337,437.852436 C434.563506,436.436218 423.234193,441.038882 422.526144,439.97675 C422.172096,438.914593 423.588266,437.498375 422.880144,436.790279 C412.258953,427.230889 419.33978,441.747028 415.091269,437.144339 C411.55088,433.603807 409.780661,425.460586 406.94837,423.690357 C405.886249,422.6282 403.762005,423.690357 403.053908,422.6282 C399.159471,415.547136 413.321075,412.714725 408.36454,406.695843 C407.656418,405.633686 399.159471,404.92559 397.389251,397.490515 C394.202887,384.390544 410.488759,385.098665 405.5322,376.955469 C404.470078,375.185215 401.283714,375.539251 400.575641,373.414937 C400.221592,371.998744 403.053908,370.582526 402.699884,369.166308 C402.699884,368.104151 400.575641,369.520369 399.867543,368.812248 C399.513519,368.458212 394.556936,361.023112 394.910984,359.960955 C395.265008,358.544762 397.7433,358.544762 398.097349,357.128544 C399.159471,351.109637 388.892304,348.985323 392.078644,348.277251 C393.140765,347.923166 393.848887,349.339383 394.556936,349.339383 L401.283714,343.320501 C401.637762,341.550248 397.035227,343.674562 398.451398,340.842151 C399.513519,338.363776 401.991786,336.593547 403.053908,334.115172 C406.240248,326.326012 398.451398,320.661166 396.32713,316.766573 C395.973106,316.058501 396.681179,314.996344 397.035227,314.288248 C397.035227,313.580127 396.32713,312.517969 397.035227,312.163934 C398.805422,311.101776 400.929665,312.163934 403.053908,311.455812 C403.762005,311.101776 402.345835,308.977462 403.053908,309.331498 C405.178126,310.039619 406.594321,312.517969 409.072588,312.517969 C411.55088,312.87203 421.109974,309.685559 422.172096,307.207184 C423.234193,304.728809 415.445318,304.374798 418.631682,302.250484 C424.296314,298.355891 431.023092,296.939673 429.606922,288.088356 C429.252898,283.131655 416.153415,285.25597 419.33978,279.945184 C419.693804,278.883027 421.464023,279.945184 421.464023,279.237063 C421.818022,278.174906 420.047853,277.112748 420.401901,276.050591 C420.401901,275.342495 421.464023,275.342495 422.172096,275.342495 C424.650363,275.342495 426.774606,276.404652 429.252898,276.404652 C432.085214,276.404652 429.606922,270.73983 430.669043,267.90742 C431.377141,265.429045 437.395797,254.099377 436.687749,248.080495 C437.74987,247.726434 438.811967,247.018338 439.874089,245.60212 C441.290259,244.185902 438.103919,244.893999 434.917554,244.893999 L434.917554,244.893999 C434.209457,244.185902 433.147335,244.539963 432.439262,244.539963 C431.731165,244.539963 431.377141,244.185902 431.023092,243.831842 C428.190776,240.291359 435.979676,229.315752 438.811967,227.899534 C440.582161,226.837377 442.706429,228.961667 444.476623,228.961667 C471.029637,227.899534 416.861488,225.77522 457.222057,226.837377 C457.576106,226.837377 458.638228,227.191388 458.992276,227.545449 C461.116519,231.440042 462.53269,247.726434 471.383711,244.185902 C474.216002,243.123745 468.551345,218.694156 476.694294,218.694156 C477.402367,218.694156 477.402367,220.81847 478.464488,221.172531 C479.52661,221.880627 481.296829,221.880627 482.71295,221.880627 C486.253363,222.588749 490.147825,219.048217 493.33419,220.464434 C495.812482,221.526592 495.812482,225.067074 497.228627,227.191388 C498.998846,230.023824 508.557915,248.080495 508.557915,236.042706 C508.557915,233.564356 503.247308,234.272452 501.123089,232.148138 C497.582676,228.961667 498.290724,220.81847 491.563971,219.756313 C490.501849,219.756313 482.35895,221.526592 483.067023,216.569842 C483.421072,213.383371 488.377606,203.469921 485.191241,199.575328 C484.12912,198.513171 476.340245,202.407763 475.278124,198.513171 C474.924075,197.805074 477.402367,198.513171 477.756415,197.805074 C478.464488,197.097002 475.278124,195.680785 475.986196,195.680785 C479.52661,194.618628 485.545315,198.15916 486.607412,191.078096 C486.607412,190.369999 478.464488,181.518706 477.756415,180.102489 C476.694294,177.624114 476.340245,174.791703 476.340245,172.313328 C478.818537,172.667389 483.067023,172.313328 484.12912,172.313328 C488.731655,173.021425 493.33419,175.499799 497.936725,176.207921 C497.582676,177.270078 497.582676,177.624114 498.290724,177.270078 C499.706919,176.207921 500.414967,174.437642 501.831137,174.083582 C502.53921,174.083582 501.477089,175.85386 501.831137,176.561957 C502.893259,177.270078 504.309429,176.916017 505.371551,177.270078 C507.849843,177.624114 510.32811,177.624114 512.098329,178.686271 C513.16045,179.394392 513.514499,180.81056 513.514499,181.872717 C513.514499,182.226778 512.806402,181.872717 512.806402,181.872717 C512.098329,182.226778 510.682159,182.934875 511.390231,183.288935 C511.74428,183.997032 513.514499,182.580839 513.868498,183.288935 C514.93062,185.059214 514.576621,187.183528 513.868498,188.953781 C513.16045,190.724035 508.203867,191.786192 509.620037,193.556471 C511.390231,196.034845 518.116985,189.661878 518.471033,192.848349 C518.825082,194.972688 514.93062,198.867231 517.054863,199.575328 C519.533155,200.637485 519.533155,194.618628 522.011447,194.264567 C524.13569,193.910531 532.278638,200.991546 534.048808,200.283449 C534.402857,200.283449 541.483659,192.140253 543.96195,196.388857 C548.918509,205.594235 524.13569,215.153624 537.589221,216.569842 C540.421537,216.923902 542.54578,213.383371 545.378121,213.383371 C548.918509,213.737456 545.024072,224.004942 552.812947,218.694156 C554.583141,217.631999 555.645263,208.780706 558.831652,207.010452 C563.434138,204.532078 568.390721,203.469921 570.514964,208.426646 C570.160916,207.364488 569.806892,205.594235 570.160916,205.240174 C572.285159,202.761824 575.117499,201.699642 576.887669,199.575328 C579.011912,197.097002 579.365961,193.20241 581.490204,190.724035 C582.198277,190.015939 586.800812,191.786192 591.049273,193.20241 C592.819492,192.848349 594.589686,192.494313 595.297784,192.494313 C597.776051,192.494313 596.359905,197.451014 597.776051,199.575328 C598.838173,200.991546 601.316464,200.283449 602.378586,201.699642 C604.502829,203.469921 605.564926,208.426646 608.75129,208.07261 C611.229582,208.07261 614.061923,206.302331 616.894239,207.010452 C617.95636,207.364488 615.478068,209.134767 615.478068,210.196924 C615.832117,213.02931 616.894239,215.861745 617.95636,218.694156 C619.018482,221.526592 622.558871,222.588749 625.391186,223.650906 C627.51543,224.359002 628.9316,224.713063 629.993721,224.359002 L629.993721,224.359002 Z M597.776051,197.097002 C598.484148,193.910531 597.067978,190.015939 598.1301,186.829467 C599.192221,183.642996 609.813412,192.848349 607.689169,189.661878 C606.273048,187.537564 601.670513,188.599721 600.608392,186.121371 C600.254343,183.997032 603.440707,182.226778 604.856878,180.456549 C606.273048,179.394392 603.794756,184.705153 605.210927,185.059214 C607.689169,185.76731 610.167461,184.705153 612.291704,185.413249 C614.415947,186.121371 609.459388,188.953781 610.167461,191.078096 C610.875558,193.556471 614.061923,193.910531 615.124044,196.388857 C615.832117,197.097002 611.229582,200.637485 605.564926,202.053703 C602.732635,203.11586 600.254343,198.867231 597.776051,197.097002 L597.776051,197.097002 Z" id="de"></path>
        </g>
    </g>
</svg>