<?xml version="1.0" encoding="UTF-8" standalone="no"?>
<svg width="1638px" height="780px" viewBox="0 0 1638 780" version="1.1" xmlns="http://www.w3.org/2000/svg" xmlns:xlink="http://www.w3.org/1999/xlink">
    <!-- Generator: Sketch 3.6 (26304) - http://www.bohemiancoding.com/sketch -->
    <title>Blank_political_map_Europe_in_2008_WF_(with_Kosovo)</title>
    <desc>Created with Sketch.</desc>
    <defs>
        <rect id="path-1" x="0" y="-4.46167212e-13" width="1638" height="779.030158"></rect>
    </defs>
    <g id="Page-1" stroke="none" stroke-width="1" fill="none" fill-rule="evenodd">
        <g id="Blank_political_map_Europe_in_2008_WF_(with_Kosovo)">
            <g id="Group">
                <mask id="mask-2" fill="white">
                    <use xlink:href="#path-1"></use>
                </mask>
                <use id="maska" xlink:href="#path-1"></use>
                <rect id="ocean" fill="#2096BD" mask="url(#mask-2)" x="-5550.99169" y="-3554.88989" width="12163.3805" height="7785.25476"></rect>
                <g id="outlines" mask="url(#mask-2)" stroke="#FFFFFF" stroke-width="3">
                    <g transform="translate(-3695.320144, -3560.528302)">
                        <path d="M5122.49186,4907.20554 C5160.49139,4901.581 5115.45484,4870.6463 5154.8618,4877.6768 C5180.19473,4880.48921 5159.08397,4891.73809 5174.56533,4902.98716 C5197.08351,4921.26673 5215.37952,4908.6116 5233.67552,4919.86067 C5239.30512,4924.07905 5237.8977,4931.10964 5240.71254,4935.32802 C5243.52729,4936.73418 5244.93471,4932.5158 5246.34204,4932.5158 C5250.56421,4931.10964 5254.78638,4928.29742 5256.1938,4931.10964 C5260.41597,4935.32802 5256.1938,4942.35872 5260.41597,4946.57709 C5260.41597,4946.57709 5291.37849,4929.70349 5298.41561,4933.92196 C5336.41505,4952.20143 5282.93425,4959.23213 5285.7489,4977.51179 L5318.11894,4997.19752 C5322.34111,5002.82206 5330.78545,5039.3813 5351.89621,5030.94444 C5357.5258,5028.13222 5356.11838,5018.28931 5360.34055,5014.07093 C5367.37757,5008.44659 5381.4515,5011.25872 5385.67368,5002.82206 C5387.081,5000.00964 5356.11838,4969.07504 5364.56292,4967.66888 C5385.67368,4964.85656 5409.59918,4985.94855 5422.26569,4990.16693 C5427.89529,4991.57299 5434.9323,4988.76077 5440.5618,4988.76077 C5446.19139,4988.76077 5453.22831,4991.57299 5458.8579,4988.76077 C5461.67265,4987.35461 5460.26533,4981.73017 5461.67265,4978.91786 C5463.08008,4977.51179 5465.89473,4977.51179 5465.89473,4978.91786 C5482.78361,5012.66497 5471.52432,4991.57299 5453.22831,5008.44659 C5447.59882,5012.66497 5467.30225,5014.07093 5472.93184,5018.28931 C5477.15391,5022.50769 5475.74649,5029.53838 5479.96866,5033.75676 C5482.78361,5036.56898 5487.00568,5037.97514 5489.82043,5037.97514 C5530.63481,5033.75676 5484.19083,5030.94444 5508.11653,5021.10163 C5510.93128,5019.69547 5510.93128,5025.32001 5513.74613,5026.72607 C5519.37562,5030.94444 5534.85698,5035.16282 5541.8938,5036.56898 C5550.33814,5039.3813 5563.00466,5035.16282 5570.04167,5040.78736 C5571.449,5042.19352 5584.11561,5075.94044 5585.52293,5077.34659 C5591.15253,5081.56497 5602.41152,5077.34659 5608.04111,5082.97113 C5613.67071,5090.00173 5609.44853,5102.65686 5615.07813,5109.68755 C5617.89288,5113.90593 5627.74464,5106.87524 5631.96681,5111.09361 C5636.18898,5115.31199 5629.15197,5125.1549 5633.37414,5129.37318 C5655.89232,5147.65285 5674.18842,5075.94044 5688.26236,5085.78335 C5696.7067,5091.40789 5696.7067,5104.06302 5703.74362,5111.09361 C5705.15104,5112.49977 5710.78064,5108.28139 5712.18786,5109.68755 C5713.59529,5112.49977 5707.96569,5118.12431 5710.78064,5119.53027 C5717.81746,5120.93653 5724.85457,5113.90593 5730.48397,5116.71815 C5740.33573,5120.93653 5731.89139,5147.65285 5731.89139,5150.46507 C5731.89139,5157.49576 5744.5579,5146.24669 5751.59492,5144.84063 C5757.22442,5143.43447 5762.85401,5154.68345 5768.4836,5151.87123 C5769.89083,5150.46507 5786.77971,5106.87524 5806.48304,5102.65686 C5812.11264,5101.2507 5817.74213,5106.87524 5823.37173,5106.87524 C5829.00132,5105.46908 5831.81597,5097.03232 5837.44566,5098.43848 C5848.70465,5099.84464 5855.74167,5115.31199 5867.00076,5115.31199 C5875.4451,5115.31199 5882.48212,5106.87524 5886.70429,5099.84464 C5888.11152,5097.03232 5879.66727,5097.03232 5879.66727,5094.2201 C5883.88944,5074.53447 5892.33388,5094.2201 5897.96328,5091.40789 C5902.18545,5090.00173 5902.18545,5081.56497 5906.40762,5081.56497 C5927.51858,5075.94044 5975.36978,5077.34659 5993.66579,5091.40789 C5997.88806,5095.62626 5996.48063,5105.46908 6002.11023,5108.28139 C6010.55457,5113.90593 6020.40614,5113.90593 6030.2579,5116.71815 C6048.55401,5122.34269 6065.44269,5123.74865 6082.33128,5126.56106 C6089.3683,5126.56106 6096.40521,5123.74865 6103.44223,5125.1549 C6106.25698,5126.56106 6111.88657,5133.59156 6110.47915,5130.77944 C6093.59047,5077.34659 6107.6644,5133.59156 6083.7387,5104.06302 C6078.10911,5098.43848 6089.3683,5088.59557 6087.96087,5081.56497 C6083.7387,5067.50368 6069.66486,5056.25481 6066.85012,5040.78736 C6062.62795,5029.53838 6148.47859,4870.6463 6159.73778,4860.80339 C6185.0708,4839.7115 6200.55196,4870.6463 6204.77414,4820.02567 C6204.77414,4808.7768 6176.62646,4783.46653 6175.21904,4782.06038 C6168.18212,4767.99909 6200.55196,4769.40524 6196.32979,4765.18687 C6173.81171,4748.31346 6132.99743,4721.59703 6120.33091,4694.88071 C6117.51607,4687.85011 6123.14566,4678.0072 6120.33091,4669.57044 C6116.10874,4659.72753 6103.44223,4652.69693 6099.21996,4642.85412 C6087.96087,4617.54386 6117.51607,4569.73545 6089.3683,4547.2376 C6078.10911,4538.80075 6064.03527,4534.58237 6051.36876,4533.17631 C6048.55401,4531.77015 6045.73926,4538.80075 6042.92442,4537.39469 C6002.11023,4521.92724 6090.77562,4447.4027 6100.62739,4437.55979 C6102.03481,4436.15373 6104.84956,4433.34141 6104.84956,4430.52919 C6100.62739,4353.19234 6038.70225,4287.10446 6013.36932,4215.39204 C6004.92498,4209.76751 6013.36932,4194.30026 6004.92498,4183.05118 C5979.59195,4146.49204 5995.07321,4177.42675 5955.66635,4160.55333 C5941.59241,4154.9288 5951.44418,4136.64913 5930.33332,4143.67973 C5926.11115,4145.08589 5926.11115,4152.11638 5921.88898,4154.9288 C5857.14909,4192.8941 5667.1515,4199.92479 5586.93036,4188.67572 C5561.59733,4215.39204 5522.19047,4230.85949 5489.82043,4218.20426 C5461.67265,4206.95539 5467.30225,4180.23896 5458.8579,4163.36546 C5456.04316,4159.14708 5446.19139,4147.89801 5451.82099,4149.30426 C5456.04316,4149.30426 5460.26533,4149.30426 5463.08008,4150.71042 C5456.04316,4146.49204 5447.59882,4142.27367 5439.15447,4140.86751 C5388.48842,4132.43075 5332.19288,4177.42675 5294.19344,4199.92479 C5281.52673,4206.95539 5266.04557,4204.14317 5256.1938,4212.57992 C5232.2683,4233.67171 5226.6387,4267.41873 5219.60159,4268.82489 C5167.52821,4281.47992 5118.26978,4303.97797 5069.01106,4323.6637 C5056.34464,4329.28823 5047.9003,4344.75568 5035.23369,4347.5678 C5028.19677,4350.38002 5021.15985,4343.34942 5014.12284,4346.16164 C5001.45632,4353.19234 5031.01152,4384.12714 5018.34501,4386.93936 C5021.15985,4409.4373 5043.67793,4453.02724 5046.49288,4467.08843 C5050.71505,4500.83545 5005.67849,4523.33339 5015.53026,4550.04982 C5021.15985,4566.92333 5074.64055,4573.95382 5074.64055,4595.04581 C5074.64055,4616.1377 5057.75187,4623.16829 5070.41838,4638.63574 C5074.64055,4645.66624 5084.49232,4648.47846 5087.30716,4656.91531 C5091.52933,4663.94591 5085.89974,4673.78882 5087.30716,4680.81942 C5088.71449,4685.03779 5094.34408,4683.63164 5095.75151,4686.44395 C5102.78842,4696.28687 5085.89974,4720.19087 5081.67757,4728.62763 C5073.23323,4741.28276 5094.34408,4748.31346 5098.56625,4760.96859 C5101.3809,4767.99909 5091.52933,4776.43584 5095.75151,4782.06038 C5101.3809,4790.49713 5114.04742,4787.68491 5119.67701,4793.30945 C5136.56569,4808.7768 5133.75094,4880.48921 5122.49186,4907.20554 L5122.49186,4907.20554 Z M4981.75299,4377.09644 L4983.16022,4377.09644 L4981.75299,4377.09644 Z M4983.16022,4377.09644 C4984.56774,4378.5026 4985.97516,4378.5026 4987.38239,4379.90876 C4985.97516,4378.5026 4984.56774,4378.5026 4983.16022,4377.09644 L4983.16022,4377.09644 Z M4990.19733,4379.90876 L4990.19733,4379.90876 L4990.19733,4379.90876 L4990.19733,4379.90876 L4990.19733,4379.90876 L4990.19733,4381.31482 L4990.19733,4381.31482 L4991.60456,4381.31482 L4990.19733,4379.90876 Z M4991.60456,4381.31482 L4993.01198,4381.31482 L4991.60456,4381.31482 L4991.60456,4381.31482 Z M4994.4195,4381.31482 C4994.4195,4381.31482 4994.4195,4382.72098 4995.82673,4382.72098 C4994.4195,4382.72098 4994.4195,4381.31482 4994.4195,4381.31482 L4994.4195,4381.31482 Z M4995.82673,4382.72098 L4995.82673,4382.72098 L4997.23415,4382.72098 L4997.23415,4382.72098 L4995.82673,4382.72098 Z M4997.23415,4382.72098 C4998.64158,4382.72098 4998.64158,4382.72098 4998.64158,4384.12714 C4998.64158,4382.72098 4998.64158,4382.72098 4997.23415,4382.72098 L4997.23415,4382.72098 Z M4998.64158,4384.12714 L5000.0489,4384.12714 L4998.64158,4384.12714 Z M5000.0489,4384.12714 L5001.45632,4384.12714 C5001.45632,4384.12714 5001.45632,4384.12714 5000.0489,4384.12714 L5000.0489,4384.12714 Z M5012.71551,4386.93936 L5014.12284,4386.93936 L5012.71551,4386.93936 L5012.71551,4386.93936 Z M5481.37608,4160.55333 C5487.00568,4163.36546 5492.63517,4166.17767 5496.85734,4171.80221 C5498.26477,4173.20837 5498.26477,4178.83281 5495.45002,4177.42675 C5485.59825,4170.39605 5482.78361,4164.77171 5481.37608,4160.55333 L5481.37608,4160.55333 Z" id="pl" fill="#87B024"></path>
                        <path d="M5018.34501,4386.93936 C5021.15985,4409.4373 5043.67793,4453.02724 5046.49288,4467.08843 C5050.71505,4500.83545 5005.67849,4523.33339 5015.53026,4550.04982 C5021.15985,4566.92333 5074.64055,4573.95382 5074.64055,4595.04581 C5074.64055,4616.1377 5057.75187,4623.16829 5070.41838,4638.63574 C5074.64055,4645.66624 5084.49232,4648.47846 5087.30716,4656.91531 C5091.52933,4663.94591 5085.89974,4673.78882 5087.30716,4680.81942 C5088.71449,4685.03779 5094.34408,4683.63164 5095.75151,4686.44395 C5102.78842,4696.28687 5085.89974,4720.19087 5081.67757,4728.62763 C5073.23323,4741.28276 5094.34408,4748.31346 5098.56625,4760.96859 C5101.3809,4767.99909 5091.52933,4776.43584 5095.75151,4782.06038 C5101.3809,4790.49713 5114.04742,4787.68491 5119.67701,4793.30945 C5139.38054,4811.58902 5130.9362,4914.23613 5114.04742,4917.04835 C5095.75151,4921.26673 5066.19621,4843.92988 5050.71505,4887.51971 C5047.9003,4894.55031 5073.23323,4900.17484 5067.60363,4904.39322 C5050.71505,4918.45451 5026.78935,4919.86067 5009.90067,4929.70349 C5007.08592,4931.10964 5009.90067,4938.14034 5007.08592,4939.5463 C4995.82673,4945.17084 4980.34557,4936.73418 4971.90123,4943.76468 C4964.86421,4949.38921 4967.67905,4960.63819 4960.64204,4966.26272 C4957.82729,4969.07504 4955.01254,4959.23213 4950.79037,4960.63819 C4938.12376,4963.4505 4936.71644,4980.32401 4928.27219,4985.94855 C4924.05002,4990.16693 4915.60568,4983.13623 4911.38351,4987.35461 C4907.16134,4990.16693 4911.38351,4998.60368 4907.16134,5002.82206 C4901.53174,5009.85256 4886.05039,4997.19752 4881.82821,4997.19752 C4846.64352,5002.82206 4841.01403,5029.53838 4829.75484,5052.03643 C4826.94009,5057.66077 4826.94009,5037.97514 4821.3105,5033.75676 C4817.08833,5028.13222 4808.64398,5026.72607 4801.60716,5025.32001 C4788.94055,5022.50769 4815.6809,5067.50368 4843.82877,5085.78335 C4846.64352,5087.18951 4856.49529,5088.59557 4857.90271,5097.03232 C4862.12488,5116.71815 4843.82877,5109.68755 4841.01403,5125.1549 C4839.6066,5129.37318 4870.56912,5181.39977 4874.7913,5185.61815 C4898.7169,5209.52235 4904.34649,5192.64894 4919.82785,5208.11619 C4929.67942,5217.95911 4931.08684,5233.42646 4940.93861,5241.86312 C4963.45688,5257.33056 5023.9746,5278.42245 5022.56718,5314.98169 C5021.15985,5352.94709 5012.71551,5344.51033 4983.16022,5337.47973 C4980.34557,5337.47973 4977.53082,5338.88579 4976.1234,5341.69811 C4973.30855,5355.7594 4981.75299,5371.22666 4967.67905,5382.47563 C4955.01254,5392.31854 4895.90215,5406.37983 4894.49473,5428.87788 C4894.49473,5428.87788 4928.27219,5475.27993 4928.27219,5476.68609 C4929.67942,5478.09225 4909.97609,5494.96566 4917.013,5500.59029 C4932.49436,5514.65139 4947.97553,5493.5595 4935.30901,5539.96175 C4935.30901,5542.77397 4932.49436,5546.99235 4929.67942,5546.99235 C4884.64306,5534.33721 4919.82785,5511.83917 4898.7169,5510.43301 C4887.45781,5510.43301 4877.60604,5520.27592 4866.34705,5518.86976 C4860.71746,5517.4637 4862.12488,5507.62079 4857.90271,5506.21463 C4849.45837,5503.40241 4841.01403,5510.43301 4833.97701,5507.62079 C4831.16226,5506.21463 4836.79186,5497.77788 4833.97701,5497.77788 C4817.08833,5499.18404 4832.56959,5521.68208 4828.34742,5523.08814 C4808.64398,5528.71268 4776.27404,5520.27592 4757.97793,5527.30652 C4752.34844,5530.11884 4755.16319,5539.96175 4749.53359,5542.77397 C4743.9042,5546.99235 4736.86718,5539.96175 4731.23768,5544.18013 C4727.01541,5545.58609 4732.64501,5552.61688 4729.83026,5555.429 C4728.42284,5556.83526 4680.57163,5569.49029 4674.94194,5566.67807 C4672.12729,5563.86576 4674.94194,5556.83526 4672.12729,5554.02284 C4670.71987,5551.21062 4663.68295,5551.21062 4662.27553,5548.3985 C4660.8682,5545.58609 4669.31254,5546.99235 4667.90512,5544.18013 C4662.27553,5525.90046 4622.86857,5548.3985 4611.60957,5535.74337 C4611.60957,5535.74337 4614.42432,5534.33721 4614.42432,5532.93106 C4605.97998,5527.30652 4614.42432,5551.21062 4611.60957,5561.05354 C4611.60957,5566.67807 4584.86913,5599.01893 4575.01736,5589.17602 C4569.38777,5583.55158 4584.86913,5575.11483 4580.64695,5569.49029 C4579.23953,5568.08413 4575.01736,5573.70867 4572.20261,5573.70867 C4569.38777,5573.70867 4565.1656,5572.30251 4563.75837,5569.49029 C4560.94343,5565.27192 4570.79519,5559.64738 4563.75837,5554.02284 C4558.12878,5549.80447 4555.31403,5542.77397 4549.68443,5539.96175 C4545.46226,5537.14943 4539.83267,5544.18013 4534.20308,5542.77397 C4531.38833,5539.96175 4534.20308,5532.93106 4531.38833,5530.11884 C4524.35141,5524.4943 4525.75873,5549.80447 4503.24046,5542.77397 C4487.75929,5537.14943 4477.90753,5521.68208 4462.42627,5517.4637 C4461.01885,5517.4637 4414.57506,5520.27592 4414.57506,5520.27592 C4408.94547,5517.4637 4408.94547,5507.62079 4403.31588,5504.80857 C4401.90845,5501.99626 4406.13062,5511.83917 4403.31588,5513.24533 C4400.50113,5514.65139 4394.87153,5513.24533 4393.46411,5510.43301 C4392.05679,5506.21463 4399.09371,5500.59029 4396.27896,5497.77788 C4375.16801,5476.68609 4351.2425,5514.65139 4355.46467,5516.05755 C4363.90901,5517.4637 4372.35336,5514.65139 4380.7976,5516.05755 C4386.42719,5517.4637 4370.94583,5518.86976 4366.72376,5521.68208 C4363.90901,5523.08814 4368.13118,5530.11884 4366.72376,5531.52499 C4331.53897,5549.80447 4356.8721,5523.08814 4328.72422,5524.4943 C4324.50205,5524.4943 4259.76226,5539.96175 4255.54009,5531.52499 C4254.13267,5528.71268 4263.98434,5527.30652 4262.57691,5525.90046 C4249.9105,5516.05755 4244.2809,5558.24122 4244.2809,5509.02695 C4242.87358,5489.34112 4256.94732,5471.06155 4258.35474,5451.37582 C4258.35474,5448.56351 4252.72515,5448.56351 4252.72515,5444.34513 C4251.31792,5437.31453 4254.13267,5430.28404 4256.94732,5423.25334 L4276.65085,5390.91248 C4278.05827,5382.47563 4279.4656,5351.54093 4283.68777,5341.69811 C4294.94696,5319.20007 4323.09463,5302.32666 4338.57599,5275.61023 C4344.20558,5265.76732 4259.76226,5255.92441 4254.13267,5251.70603 C4249.9105,5247.48765 4252.72515,5239.05099 4248.50308,5234.83262 C4241.46616,5229.20808 4196.4296,5247.48765 4193.61495,5243.26937 C4192.20753,5239.05099 4197.83712,5233.42646 4195.02218,5230.61424 C4152.80057,5192.64894 4180.94844,5250.30007 4164.05966,5232.0204 C4149.98582,5217.95911 4142.9488,5185.61815 4131.68981,5178.58765 C4127.46764,5174.36927 4119.0233,5178.58765 4116.20845,5174.36927 C4100.72719,5146.24669 4157.02274,5134.99772 4137.31941,5111.09361 C4134.50446,5106.87524 4100.72719,5104.06302 4093.69018,5074.53447 C4081.02366,5022.50769 4145.76365,5025.32001 4126.06022,4992.97915 C4121.83805,4985.94855 4109.17154,4987.35461 4106.35679,4978.91786 C4104.94936,4973.29342 4116.20845,4967.66888 4114.80113,4962.04435 C4114.80113,4957.82597 4106.35679,4963.4505 4103.54194,4960.63819 C4102.13462,4959.23213 4082.43109,4929.70349 4083.83851,4925.48511 C4085.24584,4919.86067 4095.0976,4919.86067 4096.50502,4914.23613 C4100.72719,4890.33193 4059.91291,4881.89518 4072.57932,4879.08306 C4076.80149,4877.6768 4079.61644,4883.30133 4082.43109,4883.30133 L4109.17154,4859.39723 C4110.57896,4852.36663 4092.28285,4860.80339 4097.91245,4849.55441 C4102.13462,4839.7115 4111.98628,4832.681 4116.20845,4822.83809 C4128.87487,4791.90329 4097.91245,4769.40524 4089.46801,4753.93779 C4088.06068,4751.12567 4090.87543,4746.9073 4092.28285,4744.09508 C4092.28285,4741.28276 4089.46801,4737.06438 4092.28285,4735.65832 C4099.31977,4731.43995 4107.76411,4735.65832 4116.20845,4732.84601 C4119.0233,4731.43995 4113.39371,4723.00319 4116.20845,4724.40925 C4124.6527,4727.22157 4130.28239,4737.06438 4140.13406,4737.06438 C4149.98582,4738.47054 4187.98536,4725.81541 4192.20753,4715.9725 C4196.4296,4706.12958 4165.46708,4704.72362 4178.13359,4696.28687 C4200.65177,4680.81942 4227.39222,4675.19488 4221.76263,4640.0417 C4220.3553,4620.35607 4168.28193,4628.79283 4180.94844,4607.70094 C4182.35577,4603.48256 4189.39278,4607.70094 4189.39278,4604.88862 C4190.80001,4600.67025 4183.76319,4596.45187 4185.17061,4592.23349 C4185.17061,4589.42127 4189.39278,4589.42127 4192.20753,4589.42127 C4202.0592,4589.42127 4210.50354,4593.63965 4220.3553,4593.63965 C4231.61439,4593.63965 4221.76263,4571.1417 4225.9848,4559.89273 C4228.79964,4550.04982 4252.72515,4505.05382 4249.9105,4481.14972 C4254.13267,4479.74356 4258.35474,4476.93134 4262.57691,4471.30681 C4268.20651,4465.68227 4255.54009,4468.49449 4242.87358,4468.49449 L4242.87358,4468.49449 C4240.05873,4465.68227 4235.83656,4467.08843 4233.02182,4467.08843 C4230.20697,4467.08843 4228.79964,4465.68227 4227.39222,4464.27611 C4216.13313,4450.21502 4247.09575,4406.62518 4258.35474,4401.00065 C4265.39166,4396.78227 4273.8361,4405.21893 4280.87302,4405.21893 C4386.42719,4401.00065 4171.09668,4392.56389 4331.53897,4396.78227 C4332.94639,4396.78227 4337.16857,4398.18823 4338.57599,4399.59439 C4347.02033,4415.06184 4352.64992,4479.74356 4387.83471,4465.68227 C4399.09371,4461.46389 4376.57543,4364.44131 4408.94547,4364.44131 C4411.76022,4364.44131 4411.76022,4372.87807 4415.98239,4374.28422 C4420.20456,4377.09644 4427.24158,4377.09644 4432.87097,4377.09644 C4446.94491,4379.90876 4462.42627,4365.84747 4475.09278,4371.47201 C4484.94455,4375.69038 4484.94455,4389.75148 4490.57404,4398.18823 C4497.61106,4409.4373 4535.6105,4481.14972 4535.6105,4433.34141 C4535.6105,4423.49859 4514.49964,4426.31081 4506.0554,4417.87406 C4491.98146,4405.21893 4494.79611,4372.87807 4468.05576,4368.65969 C4463.83359,4368.65969 4431.46375,4375.69038 4434.2785,4356.00456 C4435.68592,4343.34942 4455.38925,4303.97797 4442.72274,4288.51052 C4438.50057,4284.29214 4407.53805,4299.75959 4403.31588,4284.29214 C4401.90845,4281.47992 4411.76022,4284.29214 4413.16764,4281.47992 C4415.98239,4278.6678 4403.31588,4273.04327 4406.13062,4273.04327 C4420.20456,4268.82489 4444.13026,4282.88618 4448.35233,4254.7636 C4448.35233,4251.95138 4415.98239,4216.7983 4413.16764,4211.17376 C4408.94547,4201.33085 4407.53805,4190.08188 4407.53805,4180.23896 C4417.38981,4181.64512 4434.2785,4180.23896 4438.50057,4180.23896 C4456.79667,4183.05118 4475.09278,4192.8941 4493.38889,4195.70641 C4491.98146,4199.92479 4491.98146,4201.33085 4494.79611,4199.92479 C4500.42581,4195.70641 4503.24046,4188.67572 4508.87005,4187.26956 C4511.6848,4187.26956 4507.46263,4194.30026 4508.87005,4197.11247 C4513.09222,4199.92479 4518.72181,4198.51863 4522.94399,4199.92479 C4532.79575,4201.33085 4542.64742,4201.33085 4549.68443,4205.54923 C4553.9066,4208.36155 4555.31403,4213.98589 4555.31403,4218.20426 C4555.31403,4219.61042 4552.49918,4218.20426 4552.49918,4218.20426 C4549.68443,4219.61042 4544.05484,4222.42264 4546.86959,4223.8288 C4548.27701,4226.64102 4555.31403,4221.01658 4556.72125,4223.8288 C4560.94343,4230.85949 4559.5362,4239.29625 4556.72125,4246.32684 C4553.9066,4253.35744 4534.20308,4257.57582 4539.83267,4264.60651 C4546.86959,4274.44942 4573.60994,4249.13906 4575.01736,4261.79419 C4576.42478,4270.23105 4560.94343,4285.6983 4569.38777,4288.51052 C4579.23953,4292.7289 4579.23953,4268.82489 4589.0913,4267.41873 C4597.53564,4266.01267 4629.90568,4294.13506 4636.9425,4291.32284 C4638.34992,4291.32284 4666.4977,4258.98198 4676.34946,4275.85539 C4696.05289,4312.41472 4597.53564,4350.38002 4651.01644,4356.00456 C4662.27553,4357.41072 4670.71987,4343.34942 4681.97906,4343.34942 C4696.05289,4344.75568 4680.57163,4385.5332 4711.53415,4364.44131 C4718.57107,4360.22293 4722.79324,4325.06986 4735.45985,4318.03926 C4753.75576,4308.19635 4773.45929,4303.97797 4781.90363,4323.6637 C4780.49621,4319.44532 4779.08889,4312.41472 4780.49621,4311.00856 C4788.94055,4301.16575 4800.19974,4296.94727 4807.23656,4288.51052 C4815.6809,4278.6678 4817.08833,4263.20035 4825.53267,4253.35744 C4828.34742,4250.54522 4846.64352,4257.57582 4863.53211,4263.20035 C4870.56912,4261.79419 4877.60604,4260.38813 4880.42089,4260.38813 C4890.27256,4260.38813 4884.64306,4280.07376 4890.27256,4288.51052 C4894.49473,4294.13506 4904.34649,4291.32284 4908.56866,4296.94727 C4917.013,4303.97797 4921.23508,4323.6637 4933.90159,4322.25764 C4943.75335,4322.25764 4955.01254,4315.22694 4966.27163,4318.03926 C4970.4938,4319.44532 4960.64204,4326.47601 4960.64204,4330.69439 C4962.04946,4341.94327 4966.27163,4353.19234 4970.4938,4364.44131 C4974.71597,4375.69038 4988.78981,4379.90876 5000.0489,4384.12714 C5008.49324,4386.93936 5014.12284,4388.34552 5018.34501,4386.93936 L5018.34501,4386.93936 Z M4890.27256,4278.6678 C4893.0874,4266.01267 4887.45781,4250.54522 4891.67998,4237.89009 C4895.90215,4225.23496 4938.12376,4261.79419 4929.67942,4249.13906 C4924.05002,4240.70231 4905.75391,4244.92069 4901.53174,4235.07787 C4900.12432,4226.64102 4912.79083,4219.61042 4918.42043,4212.57992 C4924.05002,4208.36155 4914.19826,4229.45333 4919.82785,4230.85949 C4929.67942,4233.67171 4939.53118,4229.45333 4947.97553,4232.26555 C4956.41987,4235.07787 4936.71644,4246.32684 4939.53118,4254.7636 C4942.34603,4264.60651 4955.01254,4266.01267 4959.23471,4275.85539 C4962.04946,4278.6678 4943.75335,4292.7289 4921.23508,4298.35343 C4909.97609,4302.57181 4900.12432,4285.6983 4890.27256,4278.6678 L4890.27256,4278.6678 Z" id="de" fill="#87B024"></path>
                        <path d="M4938.12376,3356.24991 C4939.53118,3409.68256 4939.53118,3440.61726 4897.30957,3475.77044 C4887.45781,3484.20709 4881.82821,3495.45616 4870.56912,3499.67454 C4860.71746,3501.0807 4850.86569,3489.83163 4841.01403,3491.23779 C4825.53267,3494.05001 4819.90307,3551.70113 4790.34798,3533.42156 C4781.90363,3529.20318 4805.82934,3505.29908 4805.82934,3487.01951 C4805.82934,3477.17659 4773.45929,3415.30709 4814.27368,3409.68256 C4824.12525,3408.2765 4833.97701,3422.33779 4842.42135,3416.71325 L4849.45837,3364.68666 C4871.97665,3335.15792 4912.79083,3346.40699 4938.12376,3356.24991 L4938.12376,3356.24991 Z M5026.78935,3440.61726 C5029.60419,3467.33368 5039.45576,3488.42547 5018.34501,3509.51746 C5014.12284,3513.73583 5008.49324,3516.54805 5005.67849,3522.17259 C4998.64158,3537.63994 5000.0489,3555.91951 4994.4195,3572.79302 L4976.1234,3613.57063 C4939.53118,3600.9156 4994.4195,3458.89693 5026.78935,3440.61726 L5026.78935,3440.61726 Z M4821.3105,3953.85294 C4821.3105,3953.85294 4803.01439,3921.51198 4805.82934,3918.69986 C4811.45873,3906.04453 4831.16226,3934.16712 4843.82877,3928.54258 C4855.08786,3924.3242 4815.6809,3907.45069 4821.3105,3896.20182 C4825.53267,3886.3589 4845.2362,3897.60788 4849.45837,3889.17112 C4856.49529,3879.32831 4852.27312,3865.26702 4846.64352,3855.4241 C4843.82877,3849.79957 4835.38443,3854.01795 4829.75484,3852.61198 C4818.49575,3848.39361 4821.3105,3828.70778 4812.86616,3818.86487 C4807.23656,3811.83427 4795.97757,3811.83427 4790.34798,3804.80358 C4787.53323,3799.17914 4791.7554,3792.14844 4788.94055,3786.5241 C4786.12581,3779.49341 4769.23712,3756.99536 4769.23712,3755.5893 C4769.23712,3752.77699 4774.86672,3751.37093 4773.45929,3749.96477 C4772.05187,3747.15255 4766.42237,3748.55861 4763.60753,3747.15255 C4756.57061,3741.52801 4750.94102,3733.09136 4746.71884,3726.06056 C4739.68202,3713.40553 4748.12637,3679.65851 4738.2746,3664.19106 C4735.45985,3659.97269 4725.60809,3665.59722 4721.38592,3661.37894 C4717.16375,3655.75441 4718.57107,3645.91159 4718.57107,3637.47484 C4715.75632,3616.38285 4755.16319,3567.16858 4736.86718,3544.67063 C4711.53415,3512.32967 4725.60809,3599.50944 4672.12729,3546.07659 C4663.68295,3537.63994 4677.75688,3512.32967 4677.75688,3502.48676 C4676.34946,3485.61325 4659.46078,3422.33779 4659.46078,3422.33779 C4665.09037,3415.30709 4679.16411,3427.96213 4687.60845,3426.55616 C4691.83062,3440.61726 4697.46022,3454.67855 4710.12673,3436.39888 C4741.08925,3392.80905 4701.68239,3336.56408 4710.12673,3311.25382 C4712.94158,3301.411 4727.01541,3300.00475 4731.23768,3291.56809 C4734.05243,3285.94365 4731.23768,3278.91296 4728.42284,3273.28842 C4728.42284,3269.07004 4721.38592,3267.66398 4722.79324,3264.85167 C4725.60809,3255.00885 4770.64455,3252.19653 4783.31106,3219.85577 L4781.90363,3179.07816 C4797.3848,3098.92899 4760.79278,3114.39644 4753.75576,3053.9329 C4752.34844,3039.8718 4780.49621,3046.9024 4791.7554,3037.05949 L4807.23656,2980.81452 C4801.60716,2945.66134 4748.12637,2948.47356 4739.68202,2916.1328 C4732.64501,2886.60406 4755.16319,2847.2326 4752.34844,2816.2978 C4749.53359,2795.20601 4727.01541,2776.92635 4725.60809,2755.83446 C4724.20067,2747.3978 4731.23768,2737.55489 4731.23768,2729.11813 C4729.83026,2719.27532 4724.20067,2710.83847 4725.60809,2700.99575 C4725.60809,2692.55899 4735.45985,2686.93446 4735.45985,2678.4977 C4735.45985,2508.35665 4714.3489,2803.64277 4714.3489,2633.50171 C4714.3489,2618.03436 4734.05243,2608.19145 4735.45985,2592.724 C4736.86718,2587.09956 4728.42284,2581.47502 4729.83026,2574.44433 C4734.05243,2551.94648 4765.01495,2504.13807 4783.31106,2492.8892 C4841.01403,2456.32986 4879.01347,2522.41774 4888.86523,2456.32986 C4898.7169,2387.42986 4839.6066,2401.49106 4848.05095,2376.18089 C4860.71746,2336.80943 4880.42089,2297.43788 4893.0874,2259.47248 C4894.49473,2253.84795 4901.53174,2252.44189 4902.93907,2246.81735 L4898.7169,2194.79076 C4898.7169,2193.3846 4905.75391,2151.20093 4905.75391,2151.20093 L4891.67998,2096.36192 C4897.30957,2083.70679 4919.82785,2096.36192 4931.08684,2090.73758 L4962.04946,2064.02116 C4966.27163,2051.36603 4947.97553,2040.11696 4950.79037,2027.46192 C4959.23471,2002.15166 5005.67849,1947.31275 5014.12284,1923.40865 C5029.60419,1885.44325 4993.01198,1882.63103 4987.38239,1851.69623 C4983.16022,1826.38607 4998.64158,1841.85332 5007.08592,1832.0105 C5018.34501,1817.94931 5018.34501,1798.26349 5021.15985,1782.79623 C5022.56718,1771.54716 5049.30753,1722.33269 5057.75187,1722.33269 L5102.78842,1742.01852 C5130.9362,1730.76945 5095.75151,1650.62047 5104.19585,1639.3714 C5123.89918,1614.06114 5221.00911,1661.86935 5233.67552,1653.43269 C5280.1195,1623.90405 5230.86087,1626.71627 5229.45335,1614.06114 C5225.23128,1597.18773 5249.15688,1584.53259 5249.15688,1567.65909 C5249.15688,1557.81617 5246.34204,1547.97326 5242.11987,1539.5366 C5237.8977,1532.50601 5219.60159,1528.28763 5223.82396,1521.25693 C5229.45335,1511.41402 5244.93471,1518.44472 5256.1938,1515.6324 C5263.23082,1518.44472 5270.26774,1518.44472 5275.89733,1522.66309 C5292.78601,1533.91197 5270.26774,1532.50601 5281.52673,1539.5366 C5305.45243,1557.81617 5346.26681,1591.56319 5371.59974,1602.81226 C5401.15494,1615.4673 5425.08054,1604.21822 5451.82099,1630.93465 C5457.45048,1635.15302 5453.22831,1647.80816 5458.8579,1650.62047 C5463.08008,1652.02644 5465.89473,1644.99594 5468.70967,1646.4021 C5479.96866,1650.62047 5484.19083,1664.68176 5492.63517,1673.11842 C5495.45002,1675.93064 5503.89436,1675.93064 5502.48694,1680.14902 C5487.00568,1709.67766 5503.89436,1711.08382 5508.11653,1744.83074 C5509.52396,1750.45527 5503.89436,1756.07981 5503.89436,1761.70425 C5501.07952,1778.57786 5522.19047,1765.92262 5529.22739,1771.54716 C5547.52339,1785.60835 5517.9683,1805.29418 5526.41264,1819.35537 C5534.85698,1839.0412 5568.63425,1857.32077 5571.449,1879.81881 C5572.85642,1896.69232 5560.18991,1950.12507 5561.59733,1957.15567 C5574.26384,2002.15166 5605.22636,2017.61901 5622.11505,2054.17825 C5617.89288,2059.80278 5613.67071,2066.83338 5608.04111,2069.6456 C5602.41152,2072.45792 5598.18935,2058.39662 5591.15253,2059.80278 C5588.33778,2061.20884 5586.93036,2068.23954 5584.11561,2068.23954 C5572.85642,2069.6456 5560.18991,2059.80278 5550.33814,2065.42722 C5543.30122,2069.6456 5554.56031,2086.51921 5547.52339,2090.73758 C5517.9683,2109.01706 5508.11653,2075.27013 5487.00568,2071.05176 C5484.19083,2071.05176 5489.82043,2079.48851 5489.82043,2083.70679 C5489.82043,2086.51921 5491.22785,2089.33142 5489.82043,2092.14355 C5488.413,2101.98646 5479.96866,2110.42321 5482.78361,2118.85997 C5482.78361,2120.26613 5484.19083,2121.67229 5485.59825,2123.07835 C5475.74649,2120.26613 5465.89473,2118.85997 5457.45048,2114.64159 C5453.22831,2113.23543 5449.00614,2101.98646 5447.59882,2106.20484 C5444.78397,2121.67229 5482.78361,2116.04775 5485.59825,2131.5151 C5488.413,2139.95176 5468.70967,2134.32742 5460.26533,2138.54579 C5458.8579,2139.95176 5464.4875,2139.95176 5467.30225,2139.95176 C5468.70967,2141.35801 5484.19083,2151.20093 5475.74649,2158.23142 C5474.33926,2159.63758 5472.93184,2151.20093 5470.11709,2152.60689 C5468.70967,2154.01305 5474.33926,2159.63758 5471.52432,2161.04374 C5460.26533,2168.07434 5427.89529,2161.04374 5422.26569,2182.13563 C5422.26569,2186.35401 5430.71003,2182.13563 5433.52488,2183.54169 C5443.37664,2190.57238 5451.82099,2200.4153 5456.04316,2211.66417 C5464.4875,2236.97444 5422.26569,2248.22351 5420.85837,2276.34589 C5419.45094,2310.09301 5465.89473,2312.90523 5477.15391,2338.21539 C5478.56143,2339.62155 5449.00614,2376.18089 5443.37664,2388.83602 C5434.9323,2405.70943 5432.11746,2474.60953 5415.22877,2477.42185 C5412.41412,2477.42185 5412.41412,2467.57893 5409.59918,2468.98499 C5399.74761,2470.39115 5413.82135,2492.8892 5403.96978,2497.10758 C5399.74761,2499.91979 5401.15494,2480.23407 5396.93277,2483.04629 C5395.52534,2485.8586 5394.11802,2485.8586 5394.11802,2485.8586 C5391.30317,2490.07698 5396.93277,2498.51373 5392.71059,2501.32595 C5388.48842,2506.95049 5371.59974,2504.13807 5367.37757,2512.57502 C5363.1554,2518.19936 5364.56292,2529.44844 5357.5258,2532.26066 C5349.08156,2535.07287 5336.41505,2519.60552 5330.78545,2526.63612 C5325.15586,2535.07287 5346.26681,2546.32195 5342.04464,2556.16486 C5337.82247,2563.19546 5327.97071,2542.10357 5322.34111,2546.32195 C5315.30419,2551.94648 5323.74854,2563.19546 5322.34111,2571.63211 C5320.93369,2581.47502 5319.52636,2595.53632 5309.6746,2601.16075 C5301.23026,2605.37913 5291.37849,2591.31794 5281.52673,2592.724 C5275.89733,2592.724 5294.19344,2596.94238 5295.60066,2602.56691 C5297.00809,2605.37913 5289.97107,2606.78529 5287.15642,2606.78529 C5284.34167,2606.78529 5291.37849,2599.75469 5288.56384,2596.94238 C5285.7489,2595.53632 5280.1195,2595.53632 5278.71208,2598.34853 C5277.30466,2602.56691 5287.15642,2606.78529 5284.34167,2611.00367 C5281.52673,2613.81598 5273.08249,2605.37913 5268.86031,2609.59751 C5266.04557,2612.40982 5275.89733,2613.81598 5277.30466,2618.03436 C5277.30466,2619.44042 5271.67516,2616.6282 5270.26774,2618.03436 C5267.45299,2623.6588 5270.26774,2633.50171 5266.04557,2637.71999 C5260.41597,2643.34453 5239.30512,2639.12625 5244.93471,2643.34453 C5253.37905,2650.37512 5278.71208,2639.12625 5275.89733,2648.96906 C5271.67516,2660.21804 5259.00865,2667.24863 5251.97163,2677.09155 C5249.15688,2679.90376 5246.34204,2685.5283 5242.11987,2686.93446 C5237.8977,2688.34062 5229.45335,2686.93446 5229.45335,2682.71608 C5230.86087,2678.4977 5240.71254,2681.30992 5242.11987,2677.09155 C5246.34204,2668.65479 5230.86087,2679.90376 5225.23128,2681.30992 C5226.6387,2685.5283 5229.45335,2689.74658 5232.2683,2693.96496 C5236.49047,2703.80787 5243.52729,2730.52429 5232.2683,2727.71207 C5229.45335,2727.71207 5230.86087,2713.65078 5228.04613,2716.463 C5223.82396,2723.4937 5229.45335,2734.74267 5223.82396,2741.77327 C5222.41653,2745.99155 5215.37952,2740.36721 5211.15735,2740.36721 C5201.30568,2741.77327 5188.63917,2740.36721 5180.19473,2745.99155 C5157.67665,2762.86525 5195.67608,2769.89575 5212.56477,2789.58158 C5213.97219,2790.98764 5206.93517,2792.39379 5205.52785,2790.98764 C5205.52785,2789.58158 5201.30568,2789.58158 5201.30568,2790.98764 C5199.89826,2802.23671 5202.713,2813.48568 5201.30568,2824.73475 C5199.89826,2831.76525 5194.26866,2837.38979 5192.86134,2844.42038 C5191.45391,2852.85714 5191.45391,2861.29389 5194.26866,2869.73065 C5194.26866,2871.13681 5198.49083,2866.91843 5199.89826,2868.32459 C5205.52785,2878.1673 5221.00911,2892.22859 5212.56477,2900.66535 C5204.12043,2909.1021 5191.45391,2885.198 5180.19473,2889.41638 C5147.82488,2900.66535 5202.713,2930.19409 5198.49083,2961.12869 C5198.49083,2966.75323 5184.4169,2958.31647 5184.4169,2962.53485 C5183.00957,2969.56555 5194.26866,2970.97161 5195.67608,2976.59614 C5197.08351,2979.40836 5190.04649,2978.0023 5190.04649,2980.81452 C5190.04649,2986.43906 5190.04649,2993.46965 5192.86134,2999.09419 C5194.26866,3004.71872 5192.86134,3011.74922 5195.67608,3017.37376 C5197.08351,3020.18598 5202.713,3014.56144 5202.713,3017.37376 C5204.12043,3018.77982 5197.08351,3018.77982 5195.67608,3020.18598 C5194.26866,3022.99819 5194.26866,3027.21657 5195.67608,3030.02889 C5198.49083,3037.05949 5208.3426,3041.27786 5209.75002,3049.71462 C5211.15735,3058.15127 5202.713,3066.58803 5204.12043,3075.02488 C5204.12043,3077.8371 5208.3426,3073.61872 5211.15735,3075.02488 C5215.37952,3076.43094 5212.56477,3086.27386 5216.78694,3086.27386 C5232.2683,3086.27386 5261.8234,3077.8371 5275.89733,3086.27386 C5281.52673,3089.08607 5275.89733,3098.92899 5278.71208,3104.55352 C5282.93425,3112.99028 5291.37849,3118.61481 5299.82284,3124.23915 C5301.23026,3125.64531 5306.85985,3120.02078 5308.26718,3122.83319 C5311.08202,3125.64531 5304.04501,3131.26985 5306.85985,3132.67591 C5308.26718,3132.67591 5380.04408,3104.55352 5342.04464,3146.7372 C5336.41505,3153.76789 5323.74854,3134.08207 5315.30419,3136.89429 C5308.26718,3139.7066 5325.15586,3145.33114 5329.37813,3150.95558 C5335.00763,3159.39233 5336.41505,3172.04736 5344.85939,3177.6719 C5349.08156,3179.07816 5351.89621,3163.61071 5357.5258,3166.42302 C5364.56292,3169.23524 5360.34055,3181.89028 5365.97015,3186.10866 C5387.081,3210.01286 5402.56236,3194.54541 5398.34019,3232.5109 C5396.93277,3246.57219 5384.26625,3231.10475 5382.85883,3231.10475 C5375.82191,3232.5109 5374.41449,3240.94766 5368.78499,3245.16604 C5356.11838,3259.22723 5368.78499,3271.88236 5329.37813,3290.16203 C5327.97071,3291.56809 5336.41505,3304.22312 5336.41505,3305.62928 C5333.6003,3309.84766 5326.56328,3302.81716 5320.93369,3304.22312 C5311.08202,3305.62928 5301.23026,3314.06604 5289.97107,3314.06604 C5278.71208,3314.06604 5288.56384,3292.97425 5288.56384,3283.13133 C5289.97107,3273.28842 5281.52673,3274.69458 5277.30466,3269.07004 C5271.67516,3253.60269 5270.26774,3240.94766 5260.41597,3236.72928 C5253.37905,3233.91687 5243.52729,3240.94766 5239.30512,3247.97816 C5237.8977,3252.19653 5250.56421,3246.57219 5251.97163,3249.38432 C5257.60122,3259.22723 5253.37905,3271.88236 5259.00865,3280.31912 C5263.23082,3287.34971 5284.34167,3285.94365 5280.1195,3292.97425 C5263.23082,3325.31511 5222.41653,3276.10074 5213.97219,3278.91296 C5202.713,3281.72527 5197.08351,3297.19262 5184.4169,3297.19262 C5175.97256,3297.19262 5174.56533,3278.91296 5166.12099,3280.31912 C5159.08397,3281.72527 5166.12099,3295.78637 5161.89882,3302.81716 C5160.49139,3305.62928 5156.26922,3300.00475 5152.04705,3300.00475 C5140.78786,3301.411 5128.12135,3301.411 5118.26978,3307.03554 C5115.45484,3308.4415 5122.49186,3312.65988 5125.3066,3315.47219 C5136.56569,3322.50279 5150.63963,3311.25382 5159.08397,3308.4415 C5173.15781,3307.03554 5187.23174,3325.31511 5199.89826,3321.09673 C5205.52785,3318.28441 5188.63917,3301.411 5195.67608,3302.81716 C5204.12043,3302.81716 5206.93517,3318.28441 5215.37952,3322.50279 C5223.82396,3325.31511 5236.49047,3315.47219 5243.52729,3322.50279 C5247.74946,3326.72117 5232.2683,3335.15792 5235.08295,3342.18862 C5237.8977,3346.40699 5249.15688,3343.59468 5253.37905,3339.3763 C5256.1938,3336.56408 5244.93471,3329.53349 5247.74946,3328.12733 C5254.78638,3325.31511 5260.41597,3333.75186 5266.04557,3335.15792 C5277.30466,3337.97024 5287.15642,3345.00084 5297.00809,3340.78246 C5304.04501,3337.97024 5298.41561,3322.50279 5304.04501,3318.28441 C5311.08202,3314.06604 5320.93369,3322.50279 5327.97071,3318.28441 C5337.82247,3314.06604 5339.2298,3295.78637 5350.48898,3294.38041 C5358.93323,3292.97425 5373.00716,3307.03554 5368.78499,3314.06604 C5361.74798,3323.90895 5344.85939,3314.06604 5333.6003,3318.28441 C5332.19288,3318.28441 5336.41505,3322.50279 5337.82247,3323.90895 C5342.04464,3332.3457 5350.48898,3340.78246 5350.48898,3350.62537 C5351.89621,3353.43759 5343.45197,3349.21921 5340.63722,3352.03153 C5330.78545,3357.65587 5319.52636,3363.2805 5313.89677,3373.12332 C5308.26718,3382.96613 5312.48935,3395.62136 5308.26718,3405.46418 C5305.45243,3411.08872 5301.23026,3384.37229 5294.19344,3387.18461 C5289.97107,3389.99683 5301.23026,3405.46418 5297.00809,3402.65196 C5282.93425,3397.02742 5302.63768,3349.21921 5280.1195,3352.03153 C5280.1195,3352.03153 5284.34167,3413.90084 5259.00865,3432.1805 C5250.56421,3437.80504 5237.8977,3433.58666 5228.04613,3434.99282 C5223.82396,3436.39888 5239.30512,3439.2112 5239.30512,3443.42958 C5244.93471,3460.30309 5223.82396,3449.05401 5221.00911,3451.86633 C5218.19436,3453.27239 5229.45335,3453.27239 5229.45335,3457.49087 C5230.86087,3458.89693 5225.23128,3456.08471 5222.41653,3457.49087 C5221.00911,3458.89693 5219.60159,3461.70924 5218.19436,3461.70924 C5215.37952,3461.70924 5143.60271,3451.86633 5149.23221,3464.52146 C5150.63963,3467.33368 5154.8618,3467.33368 5159.08397,3467.33368 C5160.49139,3467.33368 5161.89882,3463.1153 5163.30604,3463.1153 C5166.12099,3464.52146 5166.12099,3472.95822 5170.34316,3471.55206 C5173.15781,3471.55206 5168.93573,3463.1153 5173.15781,3463.1153 C5195.67608,3457.49087 5213.97219,3463.1153 5223.82396,3485.61325 C5223.82396,3488.42547 5216.78694,3484.20709 5215.37952,3485.61325 C5209.75002,3491.23779 5222.41653,3499.67454 5206.93517,3499.67454 C5195.67608,3499.67454 5181.60215,3484.20709 5174.56533,3492.64404 C5167.52821,3501.0807 5195.67608,3496.86232 5204.12043,3502.48676 C5209.75002,3506.70514 5221.00911,3532.0155 5216.78694,3539.0461 C5213.97219,3544.67063 5199.89826,3534.82772 5198.49083,3540.45226 C5197.08351,3547.48275 5228.04613,3585.44815 5218.19436,3598.10338 C5211.15735,3606.54013 5194.26866,3593.8849 5184.4169,3598.10338 C5180.19473,3598.10338 5185.82432,3603.72772 5188.63917,3606.54013 C5194.26866,3613.57063 5216.78694,3620.60123 5216.78694,3631.8503 C5216.78694,3641.69321 5198.49083,3647.31765 5199.89826,3658.56672 C5199.89826,3667.00348 5213.97219,3667.00348 5219.60159,3674.03398 C5221.00911,3676.84639 5213.97219,3676.84639 5212.56477,3678.25235 C5206.93517,3688.09527 5201.30568,3699.34424 5199.89826,3710.59331 C5197.08351,3719.03007 5216.78694,3749.96477 5215.37952,3752.77699 C5212.56477,3755.5893 5205.52785,3749.96477 5201.30568,3754.18315 C5190.04649,3765.43212 5213.97219,3787.93007 5209.75002,3806.20973 C5209.75002,3810.42811 5198.49083,3806.20973 5197.08351,3810.42811 C5194.26866,3814.64649 5204.12043,3820.27102 5201.30568,3824.4894 C5185.82432,3870.89146 5192.86134,3790.74248 5185.82432,3838.55069 C5181.60215,3868.07924 5180.19473,3914.48149 5156.26922,3936.97933 C5154.8618,3938.38549 5150.63963,3936.97933 5149.23221,3934.16712 C5149.23221,3931.3549 5153.45447,3928.54258 5152.04705,3925.73036 C5152.04705,3921.51198 5128.12135,3924.3242 5128.12135,3924.3242 C5126.71403,3922.91814 5130.9362,3917.29361 5129.52877,3917.29361 C5115.45484,3918.69986 5114.04742,3925.73036 5107.0105,3932.76096 C5094.34408,3942.60387 5102.78842,3921.51198 5098.56625,3922.91814 C5088.71449,3928.54258 5076.04798,3931.3549 5073.23323,3931.3549 C5066.19621,3932.76096 5060.56672,3929.94874 5053.5297,3929.94874 C5047.9003,3929.94874 5039.45576,3925.73036 5038.04854,3931.3549 C5035.23369,3939.79165 5050.71505,3948.22841 5046.49288,3955.259 C5039.45576,3962.2897 5026.78935,3953.85294 5016.93768,3956.66516 C5008.49324,3959.47738 5007.08592,3969.32029 5002.86375,3976.35079 C4966.27163,4029.78354 5012.71551,4012.91013 5011.30809,4049.46936 C5009.90067,4060.71834 5002.86375,4070.56125 4994.4195,4078.99801 C4987.38239,4086.0285 4964.86421,4071.96741 4960.64204,4071.96741 C4926.86467,4069.15509 4936.71644,4093.0593 4901.53174,4093.0593 C4890.27256,4093.0593 4880.42089,4086.0285 4870.56912,4084.62254 C4864.93953,4084.62254 4856.49529,4088.84092 4850.86569,4086.0285 C4841.01403,4080.40416 4866.34705,4076.18579 4866.34705,4076.18579 C4866.34705,4067.74903 4857.90271,4060.71834 4859.30994,4052.28158 C4859.30994,4043.84483 4870.56912,4039.62645 4873.38387,4032.59595 L4821.3105,3953.85294 Z M5257.60122,3692.31364 C5260.41597,3688.09527 5266.04557,3689.50142 5270.26774,3688.09527 C5260.41597,3710.59331 5240.71254,3807.61589 5236.49047,3837.14453 C5235.08295,3844.17523 5240.71254,3899.01404 5222.41653,3900.42019 C5219.60159,3900.42019 5213.97219,3837.14453 5213.97219,3832.92616 C5216.78694,3792.14844 5244.93471,3771.05666 5251.97163,3733.09136 C5254.78638,3716.21785 5244.93471,3709.18715 5257.60122,3692.31364 L5257.60122,3692.31364 Z M5447.59882,3654.34835 C5447.59882,3662.7851 5436.33963,3664.19106 5430.71003,3669.8156 C5412.41412,3690.90749 5444.78397,3675.44013 5418.04352,3696.53202 C5396.93277,3711.99947 5409.59918,3711.99947 5398.34019,3733.09136 C5394.11802,3740.12186 5384.26625,3761.21374 5380.04408,3752.77699 C5375.82191,3744.34023 5387.081,3733.09136 5391.30317,3723.24844 C5389.89585,3724.6546 5388.48842,3727.46672 5387.081,3727.46672 C5385.67368,3727.46672 5385.67368,3723.24844 5385.67368,3721.84219 C5384.26625,3711.99947 5370.19232,3695.12586 5370.19232,3692.31364 C5370.19232,3683.87689 5375.82191,3675.44013 5375.82191,3667.00348 C5374.41449,3657.16056 5365.97015,3650.12997 5365.97015,3640.28706 C5364.56292,3633.25646 5406.78453,3565.76242 5412.41412,3562.9502 C5422.26569,3558.73173 5433.52488,3562.9502 5443.37664,3561.54404 C5458.8579,3584.04209 5440.5618,3586.85431 5427.89529,3616.38285 C5412.41412,3652.94219 5447.59882,3641.69321 5447.59882,3654.34835 L5447.59882,3654.34835 Z M5495.45002,2127.29672 C5498.26477,2128.70288 5499.67219,2130.10904 5502.48694,2131.5151 C5503.89436,2132.92126 5499.67219,2130.10904 5495.45002,2127.29672 L5495.45002,2127.29672 Z M5398.34019,2501.32595 C5398.34019,2504.13807 5398.34019,2499.91979 5396.93277,2495.70142 C5398.34019,2497.10758 5398.34019,2499.91979 5398.34019,2501.32595 L5398.34019,2501.32595 Z" id="se" fill="#87B024"></path>
                        <path d="M4891.67998,2.64212528 L4891.67998,8.26662189 C4886.05039,13.8911185 4873.38387,5.45437358 4869.1617,11.0788702 C4852.27312,30.7646279 4866.34705,39.201363 4866.34705,57.4809917 C4866.34705,68.7299849 4867.75428,82.7912362 4863.53211,94.0402392 C4862.12488,96.8524875 4852.27312,91.2279909 4852.27312,95.4463585 C4853.68054,101.070865 4863.53211,102.476984 4863.53211,109.5076 C4864.93953,122.162742 4846.64352,132.005606 4850.86569,144.660728 C4855.08786,155.909731 4881.82821,157.31586 4857.90271,177.001608 C4850.86569,182.626105 4839.6066,189.656721 4831.16226,185.438353 C4824.12525,182.626105 4831.16226,168.564854 4825.53267,161.534228 C4800.19974,119.350484 4818.49575,214.966906 4788.94055,132.005606 C4783.31106,116.538226 4815.6809,112.319858 4829.75484,106.695362 C4833.97701,105.289232 4822.71792,112.319858 4818.49575,110.913729 C4812.86616,108.101491 4814.27368,94.0402392 4807.23656,94.0402392 C4795.97757,94.0402392 4790.34798,108.101491 4780.49621,110.913729 C4769.23712,113.725987 4769.23712,94.0402392 4765.01495,91.2279909 C4757.97793,87.0096136 4748.12637,88.4157328 4741.08925,84.1973653 C4728.42284,75.7606106 4714.3489,29.3584989 4712.94158,19.5156151 C4711.53415,11.0788702 4727.01541,6.86049283 4735.45985,8.26662189 C4749.53359,11.0788702 4735.45985,20.9217442 4738.2746,26.5462408 C4743.9042,33.5768664 4746.71884,9.67275094 4756.57061,9.67275094 C4783.31106,11.0788702 4787.53323,15.2972475 4808.64398,29.3584989 C4810.05151,30.7646279 4805.82934,25.1401117 4807.23656,23.7340023 C4810.05151,16.7033766 4800.19974,9.67275094 4793.16272,6.86049283 C4786.12581,4.04824453 4779.08889,4.04824453 4770.64455,2.64212528 L4891.67998,2.64212528 Z M5085.89974,2.64212528 C5080.27015,15.2972475 5076.04798,30.7646279 5066.19621,26.5462408 C5063.38146,23.7340023 5061.97404,13.8911185 5063.38146,2.64212528 L5085.89974,2.64212528 Z M5274.48991,1521.25693 C5275.89733,1521.25693 5275.89733,1521.25693 5275.89733,1522.66309 L5274.48991,1521.25693 Z M5503.89436,1761.70425 L5502.48694,1761.70425 L5503.89436,1761.70425 Z M5874.03778,1230.18899 C5882.48212,1241.43807 5902.18545,1268.15449 5885.29687,1273.77893 C5868.40818,1279.40346 5824.77915,1256.90542 5838.85309,1269.56055 C5865.59344,1292.0585 5812.11264,1324.39946 5805.07562,1341.27296 C5805.07562,1342.67912 5821.9644,1403.14247 5802.26087,1396.11187 C5748.78008,1375.01989 5812.11264,1339.86681 5793.81653,1308.93201 C5765.66876,1259.71773 5722.03963,1277.9974 5685.44761,1238.62575 L5684.04019,1231.59525 C5682.63276,1231.59525 5681.22544,1231.59525 5679.81802,1233.00141 C5679.81802,1231.59525 5678.41059,1231.59525 5678.41059,1230.18899 L5678.41059,1233.00141 C5650.26292,1238.62575 5655.89232,1270.96671 5631.96681,1277.9974 C5610.85596,1283.62184 5619.3003,1254.0932 5595.3746,1280.80962 C5592.55995,1285.028 5595.3746,1292.0585 5593.96718,1297.68303 C5592.55995,1299.08929 5577.07859,1328.61783 5577.07859,1330.02399 C5572.85642,1341.27296 5581.30076,1377.8322 5582.70818,1387.67512 C5582.70818,1391.89349 5579.89344,1394.70571 5579.89344,1398.92409 C5579.89344,1407.36084 5581.30076,1414.39134 5582.70818,1422.82829 C5586.93036,1434.07717 5596.78212,1442.51392 5598.18935,1453.76299 C5605.22636,1502.97727 5592.55995,1469.23035 5575.67127,1484.6976 C5555.96774,1504.38342 5574.26384,1510.00796 5568.63425,1533.91197 C5567.22683,1539.5366 5561.59733,1542.34872 5560.18991,1547.97326 C5560.18991,1549.37942 5541.8938,1532.50601 5539.07905,1531.09985 C5534.85698,1528.28763 5482.78361,1510.00796 5478.56143,1515.6324 C5472.93184,1521.25693 5477.15391,1532.50601 5472.93184,1538.13035 C5456.04316,1567.65909 5433.52488,1549.37942 5409.59918,1553.59779 C5402.56236,1553.59779 5392.71059,1560.62839 5387.081,1556.41001 C5380.04408,1550.78548 5382.85883,1539.5366 5378.63666,1532.50601 C5368.78499,1515.6324 5336.41505,1472.04247 5319.52636,1462.19975 C5263.23082,1429.85879 5288.56384,1514.22634 5288.56384,1514.22634 C5280.1195,1515.6324 5273.08249,1505.78958 5264.63814,1505.78958 C5260.41597,1505.78958 5253.37905,1510.00796 5254.78638,1512.82018 C5256.1938,1514.22634 5257.60122,1515.6324 5259.00865,1515.6324 L5256.1938,1515.6324 C5244.93471,1518.44472 5229.45335,1511.41402 5223.82396,1521.25693 C5219.60159,1528.28763 5237.8977,1532.50601 5242.11987,1539.5366 C5246.34204,1547.97326 5249.15688,1557.81617 5249.15688,1567.65909 C5249.15688,1584.53259 5225.23128,1597.18773 5229.45335,1614.06114 C5230.86087,1626.71627 5280.1195,1623.90405 5233.67552,1653.43269 C5221.00911,1661.86935 5123.89918,1614.06114 5104.19585,1639.3714 C5095.75151,1650.62047 5130.9362,1730.76945 5102.78842,1742.01852 L5057.75187,1722.33269 C5049.30753,1722.33269 5022.56718,1771.54716 5021.15985,1782.79623 C5018.34501,1798.26349 5018.34501,1817.94931 5007.08592,1832.0105 C4998.64158,1841.85332 4983.16022,1826.38607 4987.38239,1851.69623 C4993.01198,1882.63103 5029.60419,1885.44325 5014.12284,1923.40865 C5005.67849,1947.31275 4959.23471,2002.15166 4950.79037,2027.46192 C4947.97553,2040.11696 4966.27163,2051.36603 4962.04946,2064.02116 L4931.08684,2090.73758 C4919.82785,2096.36192 4897.30957,2083.70679 4891.67998,2096.36192 L4905.75391,2151.20093 C4905.75391,2151.20093 4898.7169,2193.3846 4898.7169,2194.79076 L4902.93907,2246.81735 C4901.53174,2252.44189 4894.49473,2253.84795 4893.0874,2259.47248 C4880.42089,2297.43788 4860.71746,2336.80943 4848.05095,2376.18089 C4839.6066,2401.49106 4898.7169,2387.42986 4888.86523,2456.32986 C4879.01347,2522.41774 4841.01403,2456.32986 4783.31106,2492.8892 C4765.01495,2504.13807 4734.05243,2551.94648 4729.83026,2574.44433 C4728.42284,2581.47502 4736.86718,2587.09956 4735.45985,2592.724 C4734.05243,2608.19145 4714.3489,2618.03436 4714.3489,2633.50171 C4714.3489,2803.64277 4735.45985,2508.35665 4735.45985,2678.4977 C4735.45985,2686.93446 4725.60809,2692.55899 4725.60809,2700.99575 C4724.20067,2710.83847 4729.83026,2719.27532 4731.23768,2729.11813 C4731.23768,2737.55489 4724.20067,2747.3978 4725.60809,2755.83446 C4727.01541,2776.92635 4749.53359,2795.20601 4752.34844,2816.2978 C4755.16319,2847.2326 4732.64501,2886.60406 4739.68202,2916.1328 C4748.12637,2948.47356 4801.60716,2945.66134 4807.23656,2980.81452 L4791.7554,3037.05949 C4780.49621,3046.9024 4752.34844,3039.8718 4753.75576,3053.9329 C4760.79278,3114.39644 4797.3848,3098.92899 4781.90363,3179.07816 L4783.31106,3219.85577 C4770.64455,3252.19653 4725.60809,3255.00885 4722.79324,3264.85167 C4721.38592,3267.66398 4728.42284,3269.07004 4728.42284,3273.28842 C4731.23768,3278.91296 4734.05243,3285.94365 4731.23768,3291.56809 C4727.01541,3300.00475 4712.94158,3301.411 4710.12673,3311.25382 C4701.68239,3336.56408 4741.08925,3392.80905 4710.12673,3436.39888 C4697.46022,3454.67855 4691.83062,3440.61726 4687.60845,3426.55616 C4689.01588,3426.55616 4689.01588,3426.55616 4690.4233,3425.15001 C4696.05289,3420.93163 4687.60845,3409.68256 4683.38628,3404.05812 C4653.83118,3357.65587 4669.31254,3426.55616 4622.86857,3382.96613 C4618.64649,3378.74776 4627.09074,3370.311 4627.09074,3364.68666 C4627.09074,3356.24991 4618.64649,3364.68666 4618.64649,3364.68666 C4610.20215,3352.03153 4613.0168,3330.93955 4615.83174,3333.75186 C4615.83174,3330.93955 4614.42432,3329.53349 4614.42432,3328.12733 C4611.60957,3314.06604 4607.3874,3301.411 4604.57256,3287.34971 C4603.16523,3278.91296 4615.83174,3260.63329 4605.97998,3260.63329 C4570.79519,3260.63329 4631.31291,3304.22312 4596.12822,3328.12733 C4594.72089,3328.12733 4593.31347,3326.72117 4593.31347,3325.31511 C4591.90604,3316.87835 4596.12822,3307.03554 4593.31347,3300.00475 C4589.0913,3292.97425 4575.01736,3280.31912 4573.60994,3287.34971 C4572.20261,3298.59878 4586.27645,3305.62928 4590.49872,3315.47219 C4593.31347,3321.09673 4584.86913,3333.75186 4587.68387,3340.78246 C4598.94306,3370.311 4607.3874,3354.84375 4598.94306,3374.52938 C4598.94306,3375.93554 4598.94306,3380.15392 4596.12822,3380.15392 C4593.31347,3380.15392 4590.49872,3371.71716 4587.68387,3374.52938 C4577.83211,3392.80905 4590.49872,3416.71325 4579.23953,3416.71325 C4573.60994,3416.71325 4580.64695,3398.43358 4576.42478,3401.2458 C4552.49918,3416.71325 4597.53564,3432.1805 4538.42525,3432.1805 C4531.38833,3432.1805 4538.42525,3418.11921 4532.79575,3413.90084 C4525.75873,3409.68256 4513.09222,3394.21521 4508.87005,3401.2458 C4504.64788,3411.08872 4522.94399,3416.71325 4527.16616,3426.55616 C4528.57358,3430.77454 4490.57404,3433.58666 4486.35187,3447.64795 C4484.94455,3453.27239 4500.42581,3458.89693 4496.20364,3463.1153 C4489.16672,3471.55206 4470.87061,3464.52146 4463.83359,3471.55206 C4459.61142,3477.17659 4477.90753,3478.58275 4476.50011,3484.20709 C4468.05576,3541.85822 4456.79667,3467.33368 4449.75985,3496.86232 C4448.35233,3499.67454 4453.98193,3502.48676 4452.5745,3505.29908 C4445.53749,3515.14189 4408.94547,3558.73173 4407.53805,3560.13789 C4404.7233,3562.9502 4400.50113,3554.51335 4397.68628,3557.32567 C4389.24194,3564.35626 4390.64936,3582.63593 4379.39037,3584.04209 C4370.94583,3586.85431 4369.53861,3562.9502 4359.68684,3565.76242 C4349.83508,3568.57464 4354.05725,3586.85431 4347.02033,3592.47884 C4341.39074,3596.69722 4331.53897,3589.66653 4325.90957,3592.47884 C4321.6874,3593.8849 4320.27988,3599.50944 4316.05781,3600.9156 C4301.98387,3609.35226 4306.20604,3596.69722 4286.50261,3596.69722 C4276.65085,3596.69722 4265.39166,3612.16447 4259.76226,3605.13398 C4254.13267,3598.10338 4278.05827,3592.47884 4275.24343,3584.04209 C4271.02125,3577.01139 4262.57691,3595.29106 4254.13267,3595.29106 C4242.87358,3596.69722 4231.61439,3592.47884 4220.3553,3588.26047 C4196.4296,3577.01139 4242.87358,3561.54404 4247.09575,3551.70113 C4248.50308,3546.07659 4238.65141,3540.45226 4233.02182,3541.85822 C4227.39222,3543.26447 4228.79964,3555.91951 4221.76263,3557.32567 C4213.31829,3558.73173 4204.87394,3553.10729 4196.4296,3548.88901 C4179.54102,3541.85822 4169.68925,3516.54805 4161.24491,3510.92352 C4157.02274,3506.70514 4148.5784,3509.51746 4142.9488,3506.70514 C4133.09724,3501.0807 4116.20845,3464.52146 4117.61588,3454.67855 C4117.61588,3446.24179 4127.46764,3440.61726 4130.28239,3430.77454 C4131.68981,3422.33779 4120.43063,3401.2458 4130.28239,3404.05812 C4141.54158,3406.87034 4133.09724,3430.77454 4144.35623,3434.99282 C4149.98582,3439.2112 4151.39315,3420.93163 4158.43016,3418.11921 C4161.24491,3415.30709 4164.05966,3418.11921 4166.8745,3420.93163 C4164.05966,3413.90084 4162.65233,3406.87034 4159.83749,3399.83974 C4158.43016,3389.99683 4179.54102,3392.80905 4185.17061,3385.77845 C4187.98536,3382.96613 4172.5041,3385.77845 4173.91142,3381.56007 C4176.72627,3374.52938 4183.76319,3370.311 4190.80001,3367.49878 C4199.24435,3361.87425 4216.13313,3366.09262 4220.3553,3356.24991 C4225.9848,3343.59468 4186.57794,3361.87425 4178.13359,3353.43759 C4172.5041,3360.46829 4169.68925,3360.46829 4169.68925,3347.81306 C4171.09668,3336.56408 4195.02218,3333.75186 4192.20753,3323.90895 C4187.98536,3312.65988 4171.09668,3309.84766 4159.83749,3312.65988 C4141.54158,3318.28441 4148.5784,3361.87425 4130.28239,3360.46829 C4120.43063,3360.46829 4127.46764,3342.18862 4123.24547,3335.15792 C4120.43063,3330.93955 4114.80113,3328.12733 4109.17154,3325.31511 C4109.17154,3325.31511 4109.17154,3326.72117 4110.57896,3326.72117 C4109.17154,3326.72117 4109.17154,3326.72117 4107.76411,3328.12733 C4107.76411,3326.72117 4109.17154,3325.31511 4109.17154,3325.31511 C4104.94936,3322.50279 4100.72719,3319.69057 4100.72719,3315.47219 C4100.72719,3308.4415 4117.61588,3321.09673 4123.24547,3316.87835 C4131.68981,3309.84766 4128.87487,3291.56809 4138.72663,3287.34971 C4145.76365,3283.13133 4149.98582,3298.59878 4157.02274,3300.00475 C4159.83749,3301.411 4155.61532,3292.97425 4158.43016,3291.56809 C4161.24491,3288.75587 4165.46708,3292.97425 4168.28193,3291.56809 C4173.91142,3290.16203 4154.20799,3290.16203 4155.61532,3284.53749 C4155.61532,3283.13133 4213.31829,3257.82107 4209.09612,3257.82107 C4164.05966,3255.00885 4192.20753,3292.97425 4148.5784,3253.60269 C4147.17098,3252.19653 4155.61532,3253.60269 4157.02274,3250.79057 C4159.83749,3247.97816 4157.02274,3240.94766 4161.24491,3239.5414 C4166.8745,3235.32312 4173.91142,3240.94766 4179.54102,3236.72928 C4182.35577,3235.32312 4178.13359,3231.10475 4178.13359,3228.29253 C4180.94844,3222.66799 4183.76319,3218.44961 4186.57794,3215.63739 C4193.61495,3211.41902 4209.09612,3215.63739 4210.50354,3208.6067 C4211.91096,3200.16995 4192.20753,3201.5761 4192.20753,3194.54541 C4190.80001,3191.73319 4193.61495,3187.51481 4196.4296,3183.29653 C4193.61495,3183.29653 4189.39278,3176.26594 4186.57794,3179.07816 C4179.54102,3183.29653 4175.31885,3190.32703 4171.09668,3195.95157 C4165.46708,3207.20054 4168.28193,3221.26183 4159.83749,3229.69859 C4155.61532,3233.91687 4157.02274,3218.44961 4155.61532,3214.23124 C4147.17098,3198.76379 4140.13406,3202.98216 4145.76365,3188.92107 C4151.39315,3177.6719 4173.91142,3152.36173 4161.24491,3155.17395 C4147.17098,3159.39233 4137.31941,3221.26183 4120.43063,3190.32703 C4116.20845,3180.48432 4111.98628,3169.23524 4109.17154,3157.98627 C4107.76411,3146.7372 4128.87487,3157.98627 4154.20799,3149.54952 C4159.83749,3148.14336 4162.65233,3142.51882 4164.05966,3135.48822 C4154.20799,3145.33114 4135.91198,3124.23915 4135.91198,3118.61481 C4135.91198,3105.95968 4155.61532,3103.14736 4166.8745,3097.52283 C4164.05966,3082.05548 4151.39315,3096.11677 4140.13406,3108.7719 C4140.13406,3108.7719 4138.72663,3108.7719 4138.72663,3107.36574 C4137.31941,3105.95968 4135.91198,3103.14736 4133.09724,3100.33515 C4137.31941,3104.55352 4138.72663,3110.17806 4140.13406,3108.7719 C4133.09724,3115.8024 4127.46764,3121.42693 4123.24547,3122.83319 C4116.20845,3122.83319 4119.0233,3108.7719 4116.20845,3103.14736 C4114.80113,3100.33515 4089.46801,3075.02488 4096.50502,3073.61872 C4106.35679,3073.61872 4114.80113,3082.05548 4123.24547,3089.08607 C4123.24547,3087.68001 4121.83805,3084.8677 4123.24547,3082.05548 C4126.06022,3072.21256 4142.9488,3072.21256 4151.39315,3065.18197 C4152.80057,3063.77581 4149.98582,3058.15127 4147.17098,3059.55743 C4135.91198,3060.96369 4117.61588,3075.02488 4107.76411,3069.40035 C4095.0976,3062.36965 4104.94936,3030.02889 4111.98628,3025.81051 C4121.83805,3018.77982 4133.09724,3039.8718 4145.76365,3039.8718 C4147.17098,3041.27786 4175.31885,3007.53084 4206.28137,3022.99819 C4216.13313,3027.21657 4217.54046,3041.27786 4227.39222,3045.49624 C4237.24399,3049.71462 4218.94788,3024.40435 4251.31792,3015.9676 C4292.13211,3004.71872 4249.9105,3076.43094 4293.53953,3073.61872 C4320.27988,3070.8066 4283.68777,3048.30856 4285.09519,3030.02889 C4286.50261,3010.34306 4358.27942,3056.74531 4348.42775,3007.53084 C4347.02033,2997.68793 4328.72422,3015.9676 4320.27988,3013.15538 C4314.65029,3011.74922 4313.24306,3003.31247 4313.24306,2997.68793 C4313.24306,2982.22068 4352.64992,2966.75323 4338.57599,2961.12869 C4303.3913,2947.0675 4314.65029,3011.74922 4311.83564,3018.77982 C4311.83564,3020.18598 4294.94696,3024.40435 4280.87302,3025.81051 C4278.05827,3027.21657 4279.4656,3021.59213 4278.05827,3020.18598 C4268.20651,3014.56144 4256.94732,3011.74922 4247.09575,3006.12469 C4247.09575,3006.12469 4247.09575,3006.12469 4245.68833,3004.71872 C4241.46616,3014.56144 4237.24399,3021.59213 4234.42914,3024.40435 C4233.02182,3025.81051 4189.39278,3006.12469 4178.13359,3006.12469 C4173.91142,3004.71872 4176.72627,3013.15538 4173.91142,3014.56144 C4158.43016,3021.59213 4140.13406,3024.40435 4124.6527,3020.18598 C4121.83805,3020.18598 4100.72719,2996.28177 4103.54194,2992.06339 C4110.57896,2982.22068 4123.24547,2978.0023 4133.09724,2975.18998 C4144.35623,2972.37776 4165.46708,2985.0329 4165.46708,2973.78392 C4166.8745,2963.94101 4144.35623,2970.97161 4133.09724,2972.37776 C4126.06022,2972.37776 4120.43063,2982.22068 4113.39371,2979.40836 C4083.83851,2968.15939 4119.0233,2952.69194 4127.46764,2952.69194 C4141.54158,2954.0981 4165.46708,2970.97161 4182.35577,2959.72263 C4199.24435,2947.0675 4133.09724,2963.94101 4124.6527,2944.25518 C4121.83805,2935.81843 4157.02274,2937.22469 4149.98582,2933.00631 C4141.54158,2928.78793 4128.87487,2934.41247 4121.83805,2927.38177 C4099.31977,2909.1021 4133.09724,2872.54296 4154.20799,2871.13681 C4169.68925,2871.13681 4189.39278,2873.94893 4197.83712,2886.60406 C4202.0592,2892.22859 4189.39278,2902.07151 4193.61495,2907.69604 C4197.83712,2913.32048 4195.02218,2890.82244 4200.65177,2889.41638 C4207.68889,2888.01022 4210.50354,2902.07151 4217.54046,2903.47767 C4223.17005,2903.47767 4206.28137,2893.63475 4209.09612,2890.82244 C4216.13313,2882.38568 4249.9105,2911.91442 4275.24343,2888.01022 C4279.4656,2883.79184 4268.20651,2880.97972 4262.57691,2880.97972 C4213.31829,2878.1673 4286.50261,2892.22859 4245.68833,2895.04091 C4238.65141,2896.44697 4195.02218,2875.35518 4175.31885,2872.54296 C4168.28193,2872.54296 4162.65233,2868.32459 4155.61532,2868.32459 C4147.17098,2868.32459 4131.68981,2880.97972 4130.28239,2872.54296 C4128.87487,2862.70005 4151.39315,2862.70005 4154.20799,2852.85714 C4157.02274,2840.20201 4128.87487,2834.57747 4128.87487,2820.51618 C4128.87487,2814.89184 4142.9488,2820.51618 4145.76365,2824.73475 C4149.98582,2831.76525 4149.98582,2848.63876 4158.43016,2847.2326 C4166.8745,2845.82654 4148.5784,2823.3285 4157.02274,2821.92234 C4168.28193,2820.51618 4173.91142,2843.01422 4185.17061,2843.01422 C4193.61495,2843.01422 4190.80001,2816.2978 4196.4296,2821.92234 C4203.46672,2827.54687 4193.61495,2840.20201 4193.61495,2850.04492 C4193.61495,2851.45098 4190.80001,2855.66936 4192.20753,2855.66936 C4200.65177,2852.85714 4196.4296,2834.57747 4204.87394,2834.57747 C4209.09612,2834.57747 4206.28137,2844.42038 4210.50354,2847.2326 C4218.94788,2851.45098 4233.02182,2859.88783 4237.24399,2851.45098 C4240.05873,2844.42038 4218.94788,2847.2326 4214.72571,2841.60816 C4207.68889,2833.17141 4204.87394,2823.3285 4204.87394,2813.48568 C4203.46672,2800.83055 4224.57747,2790.98764 4237.24399,2793.79995 C4242.87358,2795.20601 4240.05873,2806.45509 4242.87358,2812.07942 C4247.09575,2820.51618 4254.13267,2826.14072 4256.94732,2834.57747 C4256.94732,2837.38979 4249.9105,2843.01422 4252.72515,2843.01422 C4256.94732,2843.01422 4258.35474,2837.38979 4258.35474,2834.57747 C4252.72515,2806.45509 4221.76263,2788.17542 4271.02125,2779.73866 C4287.90994,2776.92635 4290.72478,2800.83055 4290.72478,2823.3285 C4292.13211,2820.51618 4293.53953,2816.2978 4296.35428,2814.89184 C4304.79862,2807.86105 4328.72422,2823.3285 4325.90957,2813.48568 C4323.09463,2802.23671 4303.3913,2812.07942 4293.53953,2805.04893 C4286.50261,2799.42439 4289.31736,2786.76926 4283.68777,2779.73866 C4276.65085,2769.89575 4238.65141,2757.24072 4233.02182,2753.02234 C4231.61439,2751.61618 4237.24399,2747.3978 4241.46616,2747.3978 C4247.09575,2745.99155 4254.13267,2745.99155 4259.76226,2748.80396 C4262.57691,2750.20992 4261.16949,2757.24072 4263.98434,2757.24072 C4268.20651,2758.64687 4285.09519,2729.11813 4304.79862,2744.58558 C4310.42822,2748.80396 4301.98387,2762.86525 4309.02089,2765.67737 C4314.65029,2768.48959 4306.20604,2750.20992 4311.83564,2747.3978 C4321.6874,2741.77327 4342.79816,2772.70797 4342.79816,2774.11413 C4351.2425,2775.52029 4368.13118,2768.48959 4363.90901,2761.45899 C4359.68684,2753.02234 4342.79816,2767.08353 4335.76114,2761.45899 C4325.90957,2753.02234 4345.61291,2737.55489 4361.09427,2731.93045 C4349.83508,2736.14883 4339.98331,2738.96105 4330.13165,2738.96105 C4245.68833,2740.36721 4320.27988,2730.52429 4317.46523,2713.65078 C4316.05781,2702.40171 4297.7617,2703.80787 4290.72478,2693.96496 C4280.87302,2682.71608 4285.09519,2672.87317 4323.09463,2677.09155 C4331.53897,2678.4977 4331.53897,2693.96496 4339.98331,2696.77737 C4345.61291,2698.18333 4349.83508,2688.34062 4355.46467,2688.34062 C4363.90901,2686.93446 4370.94583,2686.93446 4379.39037,2688.34062 C4377.98295,2686.93446 4376.57543,2684.12224 4375.16801,2682.71608 C4373.76078,2674.27933 4385.01977,2665.84257 4393.46411,2664.43641 C4397.68628,2663.03026 4393.46411,2672.87317 4396.27896,2677.09155 C4400.50113,2682.71608 4410.3528,2682.71608 4413.16764,2689.74658 C4415.98239,2695.37121 4407.53805,2703.80787 4413.16764,2708.02625 C4420.20456,2715.05684 4438.50057,2727.71207 4444.13026,2717.86916 C4448.35233,2708.02625 4421.61198,2703.80787 4420.20456,2692.55899 C4420.20456,2685.5283 4435.68592,2691.15284 4441.31532,2686.93446 C4444.13026,2684.12224 4431.46375,2689.74658 4428.6489,2686.93446 C4427.24158,2685.5283 4437.09315,2679.90376 4434.2785,2681.30992 C4427.24158,2682.71608 4421.61198,2692.55899 4415.98239,2689.74658 C4406.13062,2684.12224 4403.31588,2671.46701 4400.50113,2661.62419 C4397.68628,2657.40582 4407.53805,2665.84257 4411.76022,2667.24863 C4415.98239,2670.06095 4397.68628,2653.18744 4411.76022,2655.99966 C4413.16764,2655.99966 4469.46319,2685.5283 4463.83359,2647.5629 C4458.2041,2601.16075 4418.79724,2688.34062 4427.24158,2627.87708 C4428.6489,2615.22204 4462.42627,2592.724 4472.27794,2598.34853 C4480.72228,2602.56691 4470.87061,2620.84658 4477.90753,2629.28333 C4480.72228,2633.50171 4484.94455,2622.25274 4489.16672,2619.44042 C4496.20364,2616.6282 4515.90697,2616.6282 4510.27747,2611.00367 C4506.0554,2605.37913 4486.35187,2625.06496 4487.75929,2616.6282 C4487.75929,2606.78529 4503.24046,2603.97307 4510.27747,2595.53632 C4518.72181,2587.09956 4518.72181,2570.22595 4529.9809,2568.81999 C4538.42525,2566.00758 4534.20308,2582.88128 4538.42525,2589.91178 C4541.24009,2595.53632 4551.09166,2598.34853 4551.09166,2605.37913 C4551.09166,2613.81598 4538.42525,2618.03436 4539.83267,2626.47112 C4541.24009,2632.09546 4548.27701,2619.44042 4553.9066,2620.84658 C4562.35095,2622.25274 4572.20261,2643.34453 4576.42478,2636.31383 C4580.64695,2625.06496 4559.5362,2616.6282 4560.94343,2605.37913 C4560.94343,2594.13016 4618.64649,2608.19145 4620.05392,2608.19145 C4629.90568,2601.16075 4631.31291,2585.6934 4629.90568,2574.44433 C4628.49816,2568.81999 4611.60957,2580.06887 4613.0168,2574.44433 C4617.23897,2556.16486 4674.94194,2553.35254 4672.12729,2539.29125 C4670.71987,2528.04228 4636.9425,2528.04228 4643.97942,2518.19936 C4649.60901,2508.35665 4674.94194,2511.16887 4676.34946,2499.91979 C4680.57163,2443.67483 4629.90568,2512.57502 4618.64649,2522.41774 C4613.0168,2526.63612 4596.12822,2530.8545 4600.35039,2537.88519 C4605.97998,2547.7281 4622.86857,2542.10357 4632.72033,2546.32195 C4634.12775,2546.32195 4629.90568,2547.7281 4628.49816,2549.13416 C4621.46114,2553.35254 4613.0168,2556.16486 4605.97998,2561.7893 C4598.94306,2567.41383 4563.75837,2598.34853 4552.49918,2595.53632 C4545.46226,2594.13016 4548.27701,2582.88128 4545.46226,2577.25675 C4542.64742,2571.63211 4532.79575,2567.41383 4535.6105,2561.7893 C4539.83267,2551.94648 4553.9066,2550.54032 4562.35095,2543.50973 C4563.75837,2542.10357 4556.72125,2547.7281 4553.9066,2546.32195 C4551.09166,2546.32195 4558.12878,2539.29125 4556.72125,2540.69741 C4546.86959,2544.91579 4531.38833,2567.41383 4517.31439,2561.7893 C4496.20364,2553.35254 4527.16616,2535.07287 4542.64742,2525.23006 C4551.09166,2521.01178 4562.35095,2521.01178 4567.98054,2512.57502 C4572.20261,2508.35665 4555.31403,2516.7934 4549.68443,2515.38715 C4546.86959,2515.38715 4548.27701,2512.57502 4548.27701,2509.76261 C4549.68443,2499.91979 4548.27701,2490.07698 4553.9066,2481.64022 C4556.72125,2477.42185 4565.1656,2484.45244 4569.38777,2481.64022 C4572.20261,2481.64022 4563.75837,2481.64022 4563.75837,2478.82791 C4563.75837,2474.60953 4565.1656,2470.39115 4566.57302,2466.17278 C4570.79519,2461.9544 4580.64695,2471.79731 4583.4617,2466.17278 C4586.27645,2461.9544 4582.05428,2453.51764 4586.27645,2447.89311 C4590.49872,2442.26877 4603.16523,2443.67483 4605.97998,2435.23807 C4607.3874,2429.61354 4587.68387,2422.58294 4593.31347,2421.17678 C4603.16523,2418.36456 4611.60957,2435.23807 4621.46114,2432.42586 C4628.49816,2431.0197 4610.20215,2423.9891 4605.97998,2416.95841 C4598.94306,2407.11559 4620.05392,2395.86652 4631.31291,2388.83602 C4642.57209,2381.80533 4646.79427,2414.14619 4660.8682,2419.77072 C4669.31254,2422.58294 4680.57163,2419.77072 4686.20123,2412.74003 C4689.01588,2408.52165 4666.4977,2412.74003 4669.31254,2407.11559 C4673.53471,2398.67874 4691.83062,2400.0849 4696.05289,2391.64814 C4703.08981,2371.96251 4652.42376,2423.9891 4665.09037,2370.55635 C4666.4977,2362.1196 4669.31254,2356.49506 4670.71987,2353.68284 C4665.09037,2357.90122 4659.46078,2362.1196 4652.42376,2364.93182 C4631.31291,2374.77473 4691.83062,2338.21539 4687.60845,2332.59106 C4686.20123,2329.77864 4683.38628,2329.77864 4679.16411,2331.1849 L4679.16411,2329.77864 C4679.16411,2326.96652 4669.31254,2329.77864 4670.71987,2326.96652 C4674.94194,2317.12361 4718.57107,2319.93582 4725.60809,2317.12361 C4728.42284,2314.31139 4722.79324,2307.28069 4725.60809,2304.46847 C4746.71884,2284.78265 4774.86672,2297.43788 4781.90363,2256.66026 C4781.90363,2249.62957 4770.64455,2263.69086 4765.01495,2266.50318 C4757.97793,2267.90914 4750.94102,2266.50318 4743.9042,2266.50318 C4738.2746,2267.90914 4728.42284,2276.34589 4728.42284,2270.72155 C4731.23768,2252.44189 4781.90363,2252.44189 4767.8297,2228.53768 C4766.42237,2224.3193 4753.75576,2227.13162 4743.9042,2227.13162 C4745.31142,2229.94384 4748.12637,2232.75606 4750.94102,2238.38059 C4743.9042,2245.41119 4738.2746,2253.84795 4731.23768,2260.87864 C4728.42284,2262.2848 4722.79324,2270.72155 4721.38592,2266.50318 C4719.97849,2259.47248 4719.97849,2220.10093 4731.23768,2218.69477 C4731.23768,2214.47639 4731.23768,2211.66417 4734.05243,2206.03964 C4738.2746,2194.79076 4756.57061,2200.4153 4766.42237,2194.79076 C4769.23712,2193.3846 4759.38536,2194.79076 4757.97793,2193.3846 C4753.75576,2187.76007 4749.53359,2180.72947 4748.12637,2175.10493 C4746.71884,2166.66818 4759.38536,2134.32742 4767.8297,2134.32742 C4779.08889,2132.92126 4784.71838,2151.20093 4795.97757,2154.01305 C4800.19974,2155.41921 4791.7554,2144.17013 4790.34798,2138.54579 C4787.53323,2131.5151 4788.94055,2118.85997 4781.90363,2114.64159 C4774.86672,2110.42321 4762.20011,2121.67229 4755.16319,2116.04775 C4732.64501,2097.76808 4779.08889,2104.79868 4786.12581,2101.98646 C4798.79232,2096.36192 4800.19974,2078.08226 4819.90307,2082.30063 C4828.34742,2085.11305 4832.56959,2096.36192 4841.01403,2096.36192 C4848.05095,2096.36192 4829.75484,2087.92517 4828.34742,2082.30063 L4828.34742,2080.89467 C4826.94009,2080.89467 4825.53267,2082.30063 4824.12525,2082.30063 C4821.3105,2082.30063 4824.12525,2073.86398 4821.3105,2072.45792 C4807.23656,2069.6456 4797.3848,2094.95596 4781.90363,2093.5497 C4732.64501,2086.51921 4808.64398,2076.67629 4817.08833,2069.6456 C4819.90307,2068.23954 4811.45873,2068.23954 4807.23656,2068.23954 C4797.3848,2066.83338 4788.94055,2071.05176 4779.08889,2069.6456 C4766.42237,2066.83338 4770.64455,2044.33533 4773.45929,2033.08646 C4783.31106,1981.05977 4804.42191,2003.55772 4839.6066,1989.49653 C4859.30994,1981.05977 4817.08833,1966.99858 4811.45873,1957.15567 C4808.64398,1951.53113 4824.12525,1955.74951 4829.75484,1952.93729 C4835.38443,1950.12507 4805.82934,1929.03309 4841.01403,1940.28216 C4843.82877,1940.28216 4836.79186,1945.90669 4836.79186,1948.71891 C4838.19918,1968.40454 4845.2362,1938.876 4845.2362,1936.06378 C4845.2362,1934.65762 4848.05095,1927.62702 4849.45837,1930.43924 C4853.68054,1934.65762 4848.05095,1947.31275 4855.08786,1948.71891 C4866.34705,1950.12507 4881.82821,1944.50053 4884.64306,1934.65762 C4888.86523,1924.81471 4869.1617,1920.59633 4867.75428,1910.75361 C4867.75428,1909.34746 4901.53174,1889.66163 4912.79083,1895.28616 C4919.82785,1898.09829 4905.75391,1920.59633 4914.19826,1919.19027 C4922.6426,1919.19027 4912.79083,1899.50454 4919.82785,1895.28616 C4921.23508,1893.88001 4921.23508,1893.88001 4922.6426,1892.47395 C4921.23508,1891.06779 4919.82785,1889.66163 4918.42043,1888.25557 C4914.19826,1885.44325 4926.86467,1877.0065 4922.6426,1875.60044 C4918.42043,1874.19428 4915.60568,1884.03719 4909.97609,1886.84941 C4895.90215,1892.47395 4879.01347,1903.72282 4864.93953,1895.28616 C4859.30994,1891.06779 4876.19882,1882.63103 4880.42089,1875.60044 C4888.86523,1857.32077 4891.67998,1815.13699 4912.79083,1830.60444 C4919.82785,1836.22878 4891.67998,1844.66573 4898.7169,1850.29007 C4904.34649,1855.91461 4912.79083,1840.44736 4922.6426,1839.0412 C4929.67942,1839.0412 4936.71644,1841.85332 4942.34603,1847.47786 C4950.79037,1855.91461 4966.27163,1886.84941 4962.04946,1875.60044 C4959.23471,1865.75752 4945.16078,1857.32077 4947.97553,1846.0717 C4949.38295,1836.22878 4966.27163,1834.82282 4971.90123,1826.38607 C4974.71597,1822.16769 4963.45688,1829.19829 4959.23471,1830.60444 C4938.12376,1837.63504 4931.08684,1847.47786 4921.23508,1820.76153 C4915.60568,1806.70024 4928.27219,1815.13699 4929.67942,1808.1064 C4931.08684,1806.70024 4925.45725,1809.51256 4925.45725,1808.1064 C4921.23508,1795.45127 4960.64204,1815.13699 4966.27163,1808.1064 C4976.1234,1791.23299 4932.49436,1777.1717 4929.67942,1777.1717 C4926.86467,1777.1717 4932.49436,1782.79623 4931.08684,1785.60835 C4926.86467,1794.04511 4902.93907,1823.57375 4894.49473,1819.35537 C4884.64306,1815.13699 4883.23564,1799.66964 4887.45781,1789.82673 C4890.27256,1781.39007 4904.34649,1787.01461 4909.97609,1781.39007 C4914.19826,1777.1717 4897.30957,1787.01461 4894.49473,1782.79623 C4888.86523,1774.35948 4912.79083,1768.73494 4919.82785,1774.35948 C4922.6426,1775.76554 4917.013,1782.79623 4918.42043,1781.39007 C4940.93861,1758.89203 4977.53082,1772.95332 4974.71597,1742.01852 C4974.71597,1737.80014 4966.27163,1746.2369 4962.04946,1743.42468 C4959.23471,1742.01852 4963.45688,1736.39398 4960.64204,1734.98802 C4959.23471,1733.58176 4959.23471,1740.61236 4957.82729,1740.61236 C4952.1977,1743.42468 4947.97553,1742.01852 4943.75335,1742.01852 C4935.30901,1743.42468 4924.05002,1750.45527 4921.23508,1743.42468 C4902.93907,1706.86544 4957.82729,1732.17561 4959.23471,1732.17561 C4967.67905,1725.14511 4960.64204,1709.67766 4964.86421,1699.83484 C4966.27163,1695.61637 4969.08638,1709.67766 4970.4938,1715.30219 C4971.90123,1716.70835 4976.1234,1713.89604 4976.1234,1715.30219 C4976.1234,1723.73885 4970.4938,1732.17561 4973.30855,1739.2063 C4973.30855,1742.01852 5004.27107,1787.01461 5011.30809,1778.57786 C5028.19677,1758.89203 4957.82729,1697.02253 4978.93814,1687.17961 C4985.97516,1682.96124 5000.0489,1694.21031 5011.30809,1704.05322 C5009.90067,1699.83484 5009.90067,1695.61637 5007.08592,1692.80415 C5000.0489,1687.17961 4978.93814,1689.99193 4981.75299,1680.14902 C4983.16022,1668.90014 5001.45632,1670.3061 5012.71551,1668.90014 C5073.23323,1659.05723 5022.56718,1688.58577 5060.56672,1706.86544 C5087.30716,1719.52057 5029.60419,1663.27561 5054.93712,1663.27561 C5061.97404,1663.27561 5066.19621,1671.71226 5071.8258,1671.71226 C5080.27015,1670.3061 5092.93666,1670.3061 5091.52933,1663.27561 C5083.08499,1604.21822 5047.9003,1663.27561 5033.82637,1660.46319 C5031.01152,1659.05723 5039.45576,1656.24481 5038.04854,1653.43269 C5038.04854,1650.62047 5033.82637,1646.4021 5031.01152,1647.80816 C5026.78935,1649.21432 5026.78935,1657.65107 5021.15985,1657.65107 C5012.71551,1659.05723 4998.64158,1660.46319 4994.4195,1652.02644 C4991.60456,1646.4021 4993.01198,1639.3714 4995.82673,1633.74696 C4988.78981,1635.15302 4980.34557,1636.55918 4976.1234,1640.77756 C4969.08638,1647.80816 4976.1234,1666.08773 4967.67905,1671.71226 C4962.04946,1675.93064 4967.67905,1654.83885 4962.04946,1650.62047 C4955.01254,1646.4021 4946.5682,1647.80816 4939.53118,1649.21432 C4933.90159,1650.62047 4936.71644,1661.86935 4932.49436,1666.08773 C4928.27219,1670.3061 4922.6426,1674.52448 4918.42043,1678.74286 C4912.79083,1684.36739 4908.56866,1689.99193 4904.34649,1695.61637 L4904.34649,1689.99193 C4908.56866,1680.14902 4917.013,1670.3061 4918.42043,1660.46319 C4919.82785,1654.83885 4912.79083,1647.80816 4915.60568,1642.18372 C4922.6426,1635.15302 4936.71644,1637.96534 4943.75335,1630.93465 C4973.30855,1602.81226 4897.30957,1611.24892 4938.12376,1567.65909 C4967.67905,1533.91197 4962.04946,1597.18773 4955.01254,1628.12243 C4957.82729,1622.49789 4962.04946,1618.27952 4966.27163,1616.87336 C4969.08638,1615.4673 4971.90123,1625.31011 4973.30855,1622.49789 C4977.53082,1615.4673 4970.48604,1547.97326 4994.4195,1580.31422 C5007.08592,1597.18773 5011.30809,1609.84276 5011.30809,1616.87336 C5016.93768,1614.06114 5021.15985,1611.24892 5025.38202,1611.24892 C5031.01152,1611.24892 5033.82637,1622.49789 5039.45576,1622.49789 C5050.71505,1623.90405 5063.38146,1621.09173 5073.23323,1615.4673 C5087.30716,1607.03064 5043.67793,1618.27952 5040.86328,1599.99985 C5040.86328,1594.37551 5047.9003,1587.34481 5054.93712,1587.34481 L5057.75187,1587.34481 C5056.34464,1585.93866 5054.93712,1585.93866 5054.93712,1583.12644 C5054.93712,1574.68968 5071.8258,1577.5019 5078.86272,1571.87746 C5080.27015,1570.4713 5073.23323,1570.4713 5071.8258,1569.06515 C5061.97404,1562.03455 5057.75187,1546.5671 5060.56672,1533.91197 C5061.97404,1522.66309 5090.12191,1532.50601 5092.93666,1521.25693 C5095.75151,1512.82018 5088.71449,1504.38342 5085.89974,1495.94667 C5085.89974,1505.78958 5084.49232,1511.41402 5083.08499,1512.82018 C5073.23323,1512.82018 5063.38146,1504.38342 5054.93712,1510.00796 C5040.86328,1515.6324 5038.04854,1533.91197 5029.60419,1546.5671 C5022.56718,1542.34872 5009.90067,1542.34872 5009.90067,1535.31822 C5012.71551,1524.06925 5031.01152,1522.66309 5033.82637,1511.41402 C5036.64111,1505.78958 5018.34501,1518.44472 5016.93768,1512.82018 C5014.12284,1504.38342 5029.60419,1497.35283 5028.19677,1487.50992 C5028.19677,1481.88538 5008.49324,1488.91617 5012.71551,1486.10376 C5032.41894,1476.26084 5064.78889,1484.6976 5050.71505,1466.41813 C5045.08536,1460.79359 5023.9746,1463.60581 5029.60419,1459.38743 C5036.64111,1455.16906 5047.9003,1467.82419 5056.34464,1463.60581 C5064.78889,1457.98137 5060.56672,1439.7017 5069.01106,1436.88939 C5083.08499,1432.67101 5085.89974,1459.38743 5087.30716,1481.88538 C5087.30716,1473.44872 5090.12191,1466.41813 5092.93666,1459.38743 C5099.97368,1448.13846 5102.78842,1487.50992 5112.64019,1493.13445 C5122.49186,1498.75889 5135.15837,1493.13445 5145.01003,1488.91617 C5146.41746,1488.91617 5102.78842,1473.44872 5105.60307,1463.60581 C5108.41802,1453.76299 5118.26978,1441.10776 5128.12135,1442.51392 C5137.97312,1442.51392 5136.56569,1460.79359 5143.60271,1467.82419 C5150.63963,1474.85488 5160.49139,1473.44872 5168.93573,1480.47922 C5173.15781,1484.6976 5177.37998,1502.97727 5180.19473,1497.35283 C5191.45391,1463.60581 5108.41802,1472.04247 5139.38054,1405.95469 C5145.01003,1394.70571 5168.93573,1380.64442 5180.19473,1389.08118 C5190.04649,1394.70571 5177.37998,1460.79359 5177.37998,1463.60581 C5180.19473,1466.41813 5184.4169,1459.38743 5185.82432,1455.16906 C5187.23174,1446.7323 5180.19473,1435.48333 5185.82432,1428.45263 C5190.04649,1421.42213 5208.3426,1432.67101 5209.75002,1424.23426 C5209.75002,1415.7975 5190.04649,1417.20376 5187.23174,1408.767 C5184.4169,1401.73631 5198.49083,1341.27296 5219.60159,1366.58313 C5225.23128,1375.01989 5219.60159,1453.76299 5219.60159,1456.57521 C5216.78694,1466.41813 5198.49083,1483.29164 5208.3426,1486.10376 C5233.67552,1494.54051 5221.00911,1445.32614 5229.45335,1439.7017 C5237.8977,1434.07717 5250.56421,1439.7017 5259.00865,1435.48333 C5263.23082,1432.67101 5251.97163,1429.85879 5249.15688,1427.04667 C5239.30512,1418.60992 5218.19436,1407.36084 5226.6387,1387.67512 C5263.23082,1306.11979 5226.6387,1398.92409 5268.86031,1370.80151 C5280.1195,1363.77091 5268.86031,1342.67912 5277.30466,1332.83621 C5280.1195,1330.02399 5284.34167,1334.24237 5287.15642,1337.05459 C5289.97107,1339.86681 5288.56384,1345.49134 5291.37849,1348.30366 C5298.41561,1353.928 5306.85985,1355.33426 5313.89677,1360.95879 C5319.52636,1365.17717 5323.74854,1373.61382 5330.78545,1376.42604 C5337.82247,1377.8322 5318.11894,1366.58313 5315.30419,1359.55263 C5315.30419,1358.14638 5320.93369,1358.14638 5320.93369,1355.33426 C5323.74854,1335.64843 5319.52636,1306.11979 5316.71152,1307.52595 C5309.6746,1307.52595 5268.86031,1342.67912 5257.60122,1301.90141 C5251.97163,1279.40346 5292.78601,1269.56055 5304.04501,1272.37287 C5313.89677,1273.77893 5319.52636,1286.43416 5329.37813,1289.24638 C5332.19288,1289.24638 5327.97071,1280.80962 5330.78545,1279.40346 C5333.6003,1276.59124 5339.2298,1279.40346 5342.04464,1280.80962 C5350.48898,1280.80962 5360.34055,1279.40346 5367.37757,1282.21578 C5385.67368,1287.84022 5361.74798,1328.61783 5399.74761,1325.80561 C5406.78453,1324.39946 5411.0067,1314.55654 5409.59918,1307.52595 C5409.59918,1303.30767 5401.15494,1308.93201 5396.93277,1307.52595 C5392.71059,1306.11979 5385.67368,1304.71363 5385.67368,1300.49525 C5385.67368,1294.87091 5402.56236,1297.68303 5396.93277,1287.84022 C5391.30317,1279.40346 5389.89585,1270.96671 5395.52534,1244.25029 L5395.52534,1241.43807 C5392.71059,1247.0627 5388.48842,1252.68704 5384.26625,1259.71773 C5377.22933,1252.68704 5364.56292,1248.46866 5361.74798,1240.03191 C5354.71115,1214.72174 5439.15447,1154.2584 5406.78453,1221.75234 C5419.45094,1210.50336 5437.74705,1223.1585 5441.96922,1218.94012 C5449.00614,1214.72174 5426.48786,1214.72174 5423.67312,1207.69115 C5413.82135,1183.78694 5456.04316,1188.00532 5458.8579,1183.78694 C5464.4875,1171.13191 5420.85837,1155.66446 5420.85837,1151.44608 C5422.26569,1143.00933 5441.96922,1162.69515 5444.78397,1155.66446 C5450.41356,1145.82164 5432.11746,1134.57257 5434.9323,1123.3236 C5439.15447,1112.07453 5516.56087,1119.10532 5517.9683,1123.3236 C5520.78304,1127.54198 5482.78361,1196.44207 5484.19083,1200.66045 C5484.19083,1202.06661 5485.59825,1202.06661 5487.00568,1202.06661 C5484.19083,1202.06661 5482.78361,1202.06661 5482.78361,1203.47267 C5485.59825,1207.69115 5494.0426,1200.66045 5498.26477,1203.47267 C5516.56087,1216.1279 5474.33926,1221.75234 5498.26477,1228.78303 C5506.70911,1231.59525 5492.63517,1244.25029 5491.22785,1252.68704 C5491.22785,1255.49936 5488.413,1296.27687 5512.3387,1272.37287 C5516.56087,1268.15449 5512.3387,1259.71773 5513.74613,1254.0932 C5515.15345,1245.65644 5519.37562,1240.03191 5522.19047,1233.00141 C5525.00522,1224.56466 5509.52396,1234.40737 5513.74613,1221.75234 C5522.19047,1197.84823 5544.70875,1105.04403 5560.18991,1096.60727 C5560.18991,1096.60727 5570.04167,1133.16641 5570.04167,1135.97873 C5567.22683,1144.41549 5553.15299,1148.63386 5554.56031,1158.47678 C5555.96774,1164.10121 5568.63425,1148.63386 5572.85642,1154.2584 C5578.48601,1161.28899 5567.22683,1179.56856 5575.67127,1183.78694 C5585.52293,1190.81754 5599.59677,1183.78694 5608.04111,1176.75644 C5613.67071,1171.13191 5595.3746,1166.91353 5595.3746,1159.88284 C5595.3746,1150.04002 5591.15253,1137.38489 5596.78212,1128.94804 C5601.00429,1119.10532 5615.07813,1117.69906 5622.11505,1109.26241 C5624.9298,1106.45019 5615.07813,1109.26241 5612.26328,1107.85625 C5602.41152,1103.63787 5585.52293,1100.82565 5585.52293,1089.57658 C5584.11561,1081.13982 5606.63369,1090.98274 5610.85596,1083.95214 C5616.48545,1074.10923 5603.81894,1062.86016 5606.63369,1053.01744 C5608.04111,1045.98675 5617.89288,1067.07873 5624.9298,1062.86016 C5636.18898,1058.64178 5644.63332,1048.79906 5667.1515,1064.26632 C5684.04019,1075.51539 5637.59631,1135.97873 5633.37414,1144.41549 C5631.96681,1147.2277 5641.81848,1140.19711 5643.2259,1137.38489 C5651.67015,1130.35419 5655.89232,1114.88694 5665.74408,1112.07453 C5672.781,1110.66856 5668.55883,1124.72966 5667.1515,1131.76035 C5662.92943,1141.60327 5646.04075,1151.44608 5651.67015,1161.28899 C5657.29974,1169.72575 5671.37367,1144.41549 5679.81802,1150.04002 C5681.22544,1151.44608 5682.63276,1152.85224 5682.63276,1154.2584 C5685.44761,1152.85224 5691.07711,1157.07062 5693.89195,1155.66446 C5702.33629,1147.2277 5681.22544,1140.19711 5681.22544,1140.19711 C5679.81802,1134.57257 5678.41059,1086.76436 5684.04019,1078.32761 C5709.37321,1045.98675 5726.2618,1107.85625 5727.66922,1107.85625 C5819.14956,1112.07453 5681.22544,1053.01744 5771.29835,1081.13982 C5817.74213,1095.20112 5783.96477,1096.60727 5776.92795,1114.88694 C5775.52052,1117.69906 5783.96477,1116.2929 5786.77971,1114.88694 C5795.22395,1112.07453 5802.26087,1105.04403 5810.70522,1103.63787 C5813.51996,1103.63787 5810.70522,1109.26241 5812.11264,1110.66856 C5816.33481,1113.48078 5821.9644,1113.48078 5826.18657,1114.88694 C5827.5939,1116.2929 5829.00132,1119.10532 5831.81597,1120.51128 C5838.85309,1126.13582 5850.11208,1130.35419 5855.74167,1138.79095 C5857.14909,1141.60327 5850.11208,1141.60327 5847.29733,1144.41549 C5840.26031,1148.63386 5830.40874,1150.04002 5826.18657,1157.07062 C5817.74213,1168.31949 5824.77915,1188.00532 5813.51996,1193.62986 C5782.55734,1209.09721 5744.5579,1188.00532 5719.22498,1216.1279 C5715.00281,1218.94012 5727.66922,1211.90952 5733.29881,1211.90952 C5740.33573,1211.90952 5745.96533,1213.31558 5753.00225,1214.72174 C5754.40967,1216.1279 5755.81709,1217.53396 5757.22442,1217.53396 C5768.4836,1218.94012 5783.96477,1210.50336 5791.00178,1220.34628 C5796.63128,1227.37687 5774.113,1237.21979 5778.33517,1245.65644 C5782.55734,1252.68704 5788.18694,1225.97072 5796.63128,1227.37687 C5806.48304,1230.18899 5803.6683,1252.68704 5799.44613,1266.74833 C5800.85345,1263.93611 5802.26087,1262.52995 5803.6683,1261.12379 C5813.51996,1256.90542 5827.5939,1263.93611 5838.85309,1259.71773 C5841.66774,1258.31158 5830.40874,1254.0932 5830.40874,1249.87482 C5829.00132,1240.03191 5830.40874,1231.59525 5833.22349,1223.1585 C5834.63092,1220.34628 5831.81597,1231.59525 5836.03814,1231.59525 C5847.29733,1234.40737 5858.55642,1231.59525 5869.81561,1230.18899 L5874.03778,1230.18899 L5874.03778,1230.18899 Z M5270.26774,1519.85078 L5271.67516,1519.85078 L5270.26774,1519.85078 L5270.26774,1519.85078 Z M5526.41264,1089.57658 C5527.81987,1100.82565 5508.11653,1103.63787 5501.07952,1112.07453 C5444.78397,1057.23582 5520.78304,1057.23582 5526.41264,1089.57658 L5526.41264,1089.57658 Z M5312.48935,1199.25429 C5318.11894,1199.25429 5320.93369,1209.09721 5325.15586,1206.28499 C5330.78545,1202.06661 5315.30419,1186.59916 5320.93369,1188.00532 C5323.74854,1189.41148 5323.74854,1196.44207 5327.97071,1196.44207 C5330.78545,1195.03592 5325.15586,1188.00532 5327.97071,1186.59916 C5340.63722,1180.97482 5335.00763,1216.1279 5347.67404,1197.84823 C5350.48898,1195.03592 5340.63722,1189.41148 5343.45197,1186.59916 C5351.89621,1175.35029 5365.97015,1171.13191 5378.63666,1162.69515 C5378.63666,1164.10121 5377.22933,1164.10121 5377.22933,1164.10121 C5377.22933,1165.50737 5382.85883,1165.50737 5382.85883,1166.91353 C5381.4515,1172.53807 5375.82191,1178.16241 5373.00716,1183.78694 C5361.74798,1214.72174 5346.26681,1227.37687 5312.48935,1233.00141 C5315.30419,1224.56466 5325.15586,1214.72174 5320.93369,1206.28499 C5319.52636,1204.87883 5316.71152,1203.47267 5313.89677,1203.47267 C5313.89677,1202.06661 5311.08202,1199.25429 5312.48935,1199.25429 L5312.48935,1199.25429 Z M5302.63768,1204.87883 L5297.00809,1204.87883 C5294.19344,1203.47267 5297.00809,1204.87883 5302.63768,1204.87883 L5302.63768,1204.87883 Z M5218.19436,1304.71363 C5221.00911,1299.08929 5229.45335,1296.27687 5236.49047,1293.46475 C5237.8977,1292.0585 5242.11987,1293.46475 5240.71254,1294.87091 C5236.49047,1306.11979 5229.45335,1315.9627 5223.82396,1325.80561 C5222.41653,1318.77492 5215.37952,1311.74432 5218.19436,1304.71363 L5218.19436,1304.71363 Z M5191.45391,1339.86681 L5192.86134,1342.67912 C5192.86134,1344.08518 5191.45391,1345.49134 5191.45391,1346.8975 C5191.45391,1344.08518 5190.04649,1342.67912 5191.45391,1339.86681 L5191.45391,1339.86681 Z M5116.86226,1366.58313 C5128.12135,1335.64843 5240.71254,1342.67912 5143.60271,1387.67512 C5136.56569,1379.23826 5114.04742,1376.42604 5116.86226,1366.58313 L5116.86226,1366.58313 Z M4921.23508,1595.78157 C4924.05002,1598.59389 4915.60568,1601.4061 4917.013,1605.62438 C4919.82785,1621.09173 4956.41987,1619.68567 4905.75391,1640.77756 C4900.12432,1642.18372 4894.49473,1635.15302 4887.45781,1632.34081 C4924.05002,1602.81226 4902.93907,1598.59389 4902.93907,1607.03064 C4904.34649,1623.90405 4886.05039,1612.65498 4877.60604,1618.27952 C4870.56912,1621.09173 4864.93953,1644.99594 4863.53211,1636.55918 C4859.30994,1612.65498 4895.90215,1571.87746 4921.23508,1595.78157 L4921.23508,1595.78157 Z M4808.64398,1723.73885 C4811.45873,1715.30219 4805.82934,1699.83484 4814.27368,1698.42869 C4866.34705,1688.58577 4819.90307,1737.80014 4803.01439,1742.01852 C4803.01439,1740.61236 4800.19974,1740.61236 4800.19974,1739.2063 C4803.01439,1733.58176 4807.23656,1729.36339 4808.64398,1723.73885 L4808.64398,1723.73885 Z M4461.01885,2526.63612 C4468.05576,2528.04228 4463.83359,2537.88519 4465.24102,2544.91579 C4463.83359,2546.32195 4461.01885,2547.7281 4459.61142,2547.7281 C4453.98193,2549.13416 4446.94491,2549.13416 4441.31532,2550.54032 C4382.20512,2558.97708 4459.61142,2525.23006 4461.01885,2526.63612 L4461.01885,2526.63612 Z M4199.24435,2789.58158 C4204.87394,2786.76926 4211.91096,2789.58158 4218.94788,2790.98764 C4218.94788,2789.58158 4218.94788,2788.17542 4220.3553,2788.17542 C4220.3553,2786.76926 4221.76263,2789.58158 4221.76263,2790.98764 C4220.3553,2792.39379 4218.94788,2792.39379 4217.54046,2793.79995 L4218.94788,2792.39379 C4213.31829,2795.20601 4207.68889,2802.23671 4202.0592,2802.23671 C4197.83712,2802.23671 4196.4296,2792.39379 4199.24435,2789.58158 L4199.24435,2789.58158 Z M4107.76411,3329.53349 C4109.17154,3328.12733 4109.17154,3328.12733 4110.57896,3326.72117 C4113.39371,3340.78246 4119.0233,3356.24991 4111.98628,3370.311 C4096.50502,3398.43358 4104.94936,3346.40699 4107.76411,3329.53349 L4107.76411,3329.53349 Z M4130.28239,3225.48021 L4130.28239,3224.07415 L4130.28239,3222.66799 C4133.09724,3225.48021 4137.31941,3226.88637 4137.31941,3229.69859 C4145.76365,3290.16203 4114.80113,3246.57219 4127.46764,3226.88637 C4127.46764,3226.88637 4127.46764,3228.29253 4126.06022,3229.69859 C4127.46764,3228.29253 4130.28239,3226.88637 4130.28239,3225.48021 L4130.28239,3225.48021 Z M4670.71987,2333.99702 C4665.09037,2335.40318 4660.8682,2336.80943 4656.64593,2336.80943 C4646.79427,2335.40318 4659.46078,2335.40318 4670.71987,2333.99702 L4670.71987,2333.99702 Z M5496.85734,1200.66045 C5494.0426,1202.06661 5489.82043,1202.06661 5487.00568,1202.06661 C5491.22785,1202.06661 5499.67219,1199.25429 5496.85734,1200.66045 L5496.85734,1200.66045 Z M5259.00865,1517.03856 L5260.41597,1517.03856 L5259.00865,1517.03856 L5259.00865,1517.03856 Z M5263.23082,1518.44472 L5266.04557,1518.44472 L5263.23082,1518.44472 L5263.23082,1518.44472 Z M5267.45299,1518.44472 C5267.45299,1519.85078 5267.45299,1519.85078 5268.86031,1519.85078 C5267.45299,1519.85078 5267.45299,1519.85078 5267.45299,1518.44472 L5267.45299,1518.44472 Z" id="no" fill="#87B024"></path>
                        <path d="M4493.38889,4195.70641 C4475.09278,4192.8941 4456.79667,4183.05118 4438.50057,4180.23896 C4434.2785,4180.23896 4417.38981,4181.64512 4407.53805,4180.23896 C4407.53805,4173.20837 4407.53805,4166.17767 4408.94547,4157.74092 C4408.94547,4150.71042 4420.20456,4142.27367 4414.57506,4136.64913 C4420.20456,4129.61853 4411.76022,4118.36946 4411.76022,4108.52655 C4410.3528,4100.08979 4414.57506,4087.43476 4408.94547,4081.81013 C4396.27896,4069.15509 4359.68684,4083.21638 4352.64992,4057.90612 C4348.42775,4042.43867 4362.50159,4025.56526 4362.50159,4007.28559 C4363.90901,4008.69175 4363.90901,4008.69175 4365.31644,4010.09791 C4408.94547,4031.18979 4380.7976,3974.94483 4377.98295,3969.32029 C4376.57543,3966.50807 4375.16801,3958.07132 4370.94583,3960.88354 C4363.90901,3963.69566 4365.31644,3976.35079 4358.27942,3977.75695 C4354.05725,3979.16311 4356.8721,3967.91404 4356.8721,3963.69566 C4358.27942,3953.85294 4361.09427,3944.01003 4361.09427,3935.57327 C4362.50159,3927.13652 4354.05725,3915.88745 4361.09427,3910.26291 C4362.50159,3908.85695 4365.31644,3907.45069 4366.72376,3907.45069 C4365.31644,3904.63857 4359.68684,3844.17523 4373.76078,3849.79957 C4382.20512,3852.61198 4376.57543,3866.67308 4380.7976,3873.70377 C4393.46411,3903.23241 4453.98193,3830.11394 4456.79667,3830.11394 C4486.35187,3821.67718 4452.5745,3868.07924 4458.2041,3875.10983 C4463.83359,3882.14053 4475.09278,3876.51599 4484.94455,3873.70377 C4482.1297,3873.70377 4480.72228,3873.70377 4480.72228,3872.29761 C4477.90753,3865.26702 4486.35187,3856.83036 4482.1297,3851.20582 C4479.31495,3846.98745 4470.87061,3858.23632 4469.46319,3854.01795 C4466.64844,3848.39361 4477.90753,3844.17523 4477.90753,3838.55069 C4479.31495,3806.20973 4458.2041,3816.05265 4484.94455,3796.36682 C4490.57404,3790.74248 4507.46263,3792.14844 4511.6848,3796.36682 C4514.49964,3799.17914 4507.46263,3811.83427 4510.27747,3809.02205 C4515.90697,3803.39752 4515.90697,3790.74248 4522.94399,3786.5241 C4528.57358,3783.71169 4535.6105,3786.5241 4541.24009,3786.5241 C4548.27701,3790.74248 4582.05428,3799.17914 4582.05428,3799.17914 C4584.86913,3807.61589 4577.83211,3817.45881 4579.23953,3827.30162 C4579.23953,3834.33232 4590.49872,3841.36291 4587.68387,3848.39361 C4584.86913,3854.01795 4575.01736,3846.98745 4569.38777,3848.39361 C4560.94343,3849.79957 4590.49872,3855.4241 4589.0913,3863.86086 C4589.0913,3866.67308 4587.68387,3868.07924 4587.68387,3869.48539 C4593.31347,3870.89146 4594.72089,3883.54669 4601.75781,3884.95275 C4618.64649,3889.17112 4643.97942,3865.26702 4651.01644,3897.60788 C4653.83118,3908.85695 4620.05392,3965.10192 4608.79473,3959.47738 C4598.94306,3953.85294 4598.94306,3935.57327 4587.68387,3931.3549 C4575.01736,3927.13652 4576.42478,4000.25499 4572.20261,4008.69175 C4565.1656,4026.97142 4553.9066,4039.62645 4534.20308,4039.62645 C4524.35141,4039.62645 4503.24046,4024.1592 4506.0554,4034.00192 C4510.27747,4043.84483 4532.79575,4038.22029 4538.42525,4049.46936 L4538.42525,4053.68774 L4541.24009,4053.68774 C4546.86959,4053.68774 4548.27701,4063.53066 4552.49918,4063.53066 C4567.98054,4059.31228 4579.23953,4035.40807 4594.72089,4041.03261 C4603.16523,4045.25099 4607.3874,4057.90612 4617.23897,4059.31228 C4622.86857,4060.71834 4624.27609,4050.87542 4628.49816,4048.06321 C4653.83118,4100.08979 4622.86857,4055.0939 4632.72033,4074.77963 C4641.16467,4090.24708 4667.90512,4154.9288 4615.83174,4149.30426 C4604.57256,4147.89801 4594.72089,4139.46135 4583.4617,4136.64913 C4579.23953,4136.64913 4572.20261,4143.67973 4567.98054,4139.46135 C4556.72125,4131.02459 4596.12822,4133.83691 4573.60994,4121.18168 C4538.42525,4102.90211 4573.60994,4133.83691 4562.35095,4133.83691 C4558.12878,4133.83691 4548.27701,4091.65304 4548.27701,4090.24708 C4544.05484,4080.40416 4529.9809,4074.77963 4527.16616,4063.53066 C4527.16616,4062.1245 4528.57358,4062.1245 4528.57358,4062.1245 C4517.31439,4066.34287 4501.83323,4069.15509 4501.83323,4070.56125 C4499.01829,4076.18579 4515.90697,4070.56125 4518.72181,4076.18579 C4520.12924,4080.40416 4510.27747,4081.81013 4510.27747,4086.0285 C4508.87005,4094.46546 4510.27747,4102.90211 4513.09222,4109.93271 C4514.49964,4114.15109 4521.53656,4115.55724 4521.53656,4119.77562 C4521.53656,4135.24297 4496.20364,4140.86751 4493.38889,4156.33476 C4493.38889,4161.9593 4504.64788,4153.52254 4508.87005,4156.33476 C4518.72181,4163.36546 4527.16616,4173.20837 4528.57358,4184.45734 C4529.9809,4190.08188 4518.72181,4173.20837 4513.09222,4174.61443 C4506.0554,4177.42675 4497.61106,4190.08188 4493.38889,4195.70641 L4493.38889,4195.70641 Z M3094.44389,2769.89575 C3093.03647,2782.55088 3090.22172,2805.04893 3090.22172,2805.04893 C3090.22172,2805.04893 3093.03647,2782.55088 3094.44389,2769.89575 L3094.44389,2769.89575 Z M3115.55465,2632.09546 C3098.66606,2667.24863 3122.59157,2623.6588 3126.81374,2644.75059 C3126.81374,2647.5629 3119.77682,2647.5629 3119.77682,2648.96906 C3122.59157,2654.5935 3133.85075,2653.18744 3133.85075,2658.81188 C3133.85075,2668.65479 3131.03591,2685.5283 3121.18424,2685.5283 C3112.74,2684.12224 3122.59157,2667.24863 3121.18424,2658.81188 C3116.96207,2644.75059 3074.74036,2629.28333 3115.55465,2632.09546 L3115.55465,2632.09546 Z M4759.38536,3963.69566 C4774.86672,3952.44678 4798.79232,3958.07132 4815.6809,3960.88354 C4817.08833,3963.69566 4822.71792,3966.50807 4822.71792,3969.32029 C4821.3105,3977.75695 4812.86616,3983.38149 4812.86616,3991.81824 C4814.27368,4019.94082 4836.79186,4018.53466 4817.08833,4041.03261 C4810.05151,4048.06321 4798.79232,4049.46936 4791.7554,4056.49996 C4779.08889,4070.56125 4794.57015,4074.77963 4807.23656,4081.81013 L4815.6809,4102.90211 C4804.42191,4112.74493 4773.45929,4108.52655 4773.45929,4121.18168 C4774.86672,4136.64913 4808.64398,4157.74092 4773.45929,4159.14708 C4760.79278,4159.14708 4750.94102,4150.71042 4739.68202,4145.08589 C4745.31142,4147.89801 4752.34844,4150.71042 4753.75576,4146.49204 C4756.57061,4136.64913 4748.12637,4125.40016 4741.08925,4116.9633 C4738.2746,4114.15109 4736.86718,4122.58784 4734.05243,4122.58784 C4725.60809,4122.58784 4719.97849,4115.55724 4712.94158,4114.15109 C4705.90456,4112.74493 4698.86764,4118.36946 4693.23805,4116.9633 C4690.4233,4116.9633 4690.4233,4112.74493 4690.4233,4111.33887 C4698.86764,4088.84092 4673.53471,4094.46546 4674.94194,4090.24708 C4676.34946,4084.62254 4686.20123,4086.0285 4687.60845,4080.40416 C4693.23805,4039.62645 4680.57163,4050.87542 4658.05335,4031.18979 C4655.23861,4028.37758 4646.79427,4021.34688 4651.01644,4019.94082 C4663.68295,4012.91013 4731.23768,4028.37758 4718.57107,3984.78764 C4715.75632,3974.94483 4700.27506,3977.75695 4691.83062,3972.13241 C4687.60845,3969.32029 4701.68239,3974.94483 4705.90456,3974.94483 C4712.94158,3977.75695 4719.97849,3980.56917 4727.01541,3980.56917 C4748.12637,3980.56917 4781.90363,3970.72645 4774.86672,4014.31629 C4773.45929,4021.34688 4755.16319,4028.37758 4760.79278,4032.59595 C4786.12581,4053.68774 4777.68146,4003.06721 4773.45929,3983.38149 C4772.05187,3974.94483 4749.53359,3981.97533 4752.34844,3974.94483 C4753.75576,3969.32029 4759.38536,3963.69566 4759.38536,3963.69566 Z M4780.49621,4187.26956 L4780.49621,4190.08188 C4781.90363,4192.8941 4780.49621,4194.30026 4780.49621,4195.70641 C4776.27404,4198.51863 4770.64455,4202.73701 4769.23712,4205.54923 C4765.01495,4208.36155 4759.38536,4216.7983 4759.38536,4216.7983 L4759.38536,4218.20426 C4759.38536,4218.20426 4741.08925,4213.98589 4736.86718,4215.39204 C4729.83026,4216.7983 4724.20067,4229.45333 4715.75632,4228.04718 C4704.49723,4226.64102 4698.86764,4212.57992 4689.01588,4206.95539 C4681.97906,4202.73701 4672.12729,4199.92479 4666.4977,4194.30026 C4662.27553,4191.48794 4677.75688,4188.67572 4691.83062,4163.36546 C4711.53415,4180.23896 4741.08925,4184.45734 4757.97793,4198.51863 L4759.38536,4199.92479 C4750.94102,4187.26956 4732.64501,4177.42675 4739.68202,4166.17767 C4742.49677,4160.55333 4750.94102,4163.36546 4755.16319,4161.9593 C4765.01495,4171.80221 4786.12581,4170.39605 4788.94055,4183.05118 C4788.94055,4184.45734 4788.94055,4185.8635 4787.53323,4187.26956 L4780.49621,4187.26956 Z M4362.50159,3981.97533 L4362.50159,3993.2244 C4361.09427,3984.78764 4361.09427,3976.35079 4362.50159,3981.97533 L4362.50159,3981.97533 Z M4608.79473,3713.40553 C4613.0168,3728.87298 4598.94306,3804.80358 4573.60994,3796.36682 C4565.1656,3793.5546 4558.12878,3783.71169 4548.27701,3783.71169 C4558.12878,3771.05666 4515.90697,3780.89957 4504.64788,3783.71169 C4494.79611,3786.5241 4486.35187,3794.96086 4476.50011,3796.36682 C4472.27794,3796.36682 4469.46319,3789.33622 4465.24102,3789.33622 C4453.98193,3787.93007 4442.72274,3789.33622 4432.87097,3792.14844 C4428.6489,3793.5546 4431.46375,3801.99136 4427.24158,3804.80358 C4407.53805,3813.24043 4428.6489,3756.99536 4400.50113,3831.52 C4399.09371,3832.92616 4407.53805,3872.29761 4406.13062,3872.29761 C4359.68684,3870.89146 4385.01977,3783.71169 4411.76022,3773.86897 C4435.68592,3762.6199 4469.46319,3775.27503 4493.38889,3765.43212 C4525.75873,3749.96477 4518.72181,3704.96878 4548.27701,3688.09527 C4558.12878,3683.87689 4570.79519,3686.68911 4580.64695,3682.47073 C4590.49872,3676.84639 4596.12822,3657.16056 4607.3874,3657.16056 C4628.49816,3657.16056 4596.12822,3672.62801 4594.72089,3685.28305 C4591.90604,3704.96878 4601.75781,3692.31364 4608.79473,3713.40553 L4608.79473,3713.40553 Z M4738.2746,4191.48794 L4725.60809,4192.8941 C4735.45985,4195.70641 4743.9042,4199.92479 4750.94102,4206.95539 L4752.34844,4206.95539 C4748.12637,4201.33085 4742.49677,4197.11247 4738.2746,4191.48794 L4738.2746,4191.48794 Z" id="dk" fill="#FFFFFF"></path>
                    </g>
                </g>
            </g>
        </g>
    </g>
</svg>