<?xml version="1.0" encoding="UTF-8" standalone="no"?>
<svg width="112px" height="136px" viewBox="0 0 112 136" version="1.1" xmlns="http://www.w3.org/2000/svg" xmlns:xlink="http://www.w3.org/1999/xlink">
    <!-- Generator: Sketch 3.6 (26304) - http://www.bohemiancoding.com/sketch -->
    <title>dk</title>
    <desc>Created with Sketch.</desc>
    <defs></defs>
    <g id="Page-1" stroke="none" stroke-width="1" fill="none" fill-rule="evenodd">
        <g id="Group" transform="translate(-469.000000, -282.000000)" fill="#FFFFFF">
            <path d="M502.659602,409.503077 C498.366492,408.842352 494.073382,406.52986 489.780272,405.869158 C488.789579,405.869158 484.826715,406.199521 482.515037,405.869158 C482.515037,404.217392 482.515037,402.565603 482.845283,400.583474 C482.845283,398.93173 485.487185,396.949601 484.166246,395.628175 C485.487185,393.976408 483.505753,391.333554 483.505753,389.021063 C483.175507,387.038934 484.166246,384.065764 482.845283,382.744314 C479.873135,379.771144 471.286938,383.074699 469.635753,377.128313 C468.645037,373.494394 471.947408,369.53016 471.947408,365.23554 C472.277654,365.565902 472.277654,365.565902 472.6079,365.896265 C482.845283,370.851587 476.240495,357.63741 475.580048,356.315983 C475.249779,355.655281 474.919533,353.673152 473.928817,354.333854 C472.277654,354.994533 472.6079,357.967726 470.956692,358.298089 C469.965976,358.628451 470.626469,355.985597 470.626469,354.994533 C470.956692,352.682087 471.617185,350.369596 471.617185,348.387467 C471.947408,346.405338 469.965976,343.762484 471.617185,342.441058 C471.947408,342.110741 472.6079,341.780356 472.938124,341.780356 C472.6079,341.119677 471.286938,326.914435 474.589332,328.235816 C476.570764,328.896564 475.249779,332.200074 476.240495,333.851863 C479.212643,340.789314 493.412912,323.610879 494.073382,323.610879 C501.008394,321.628751 493.082666,332.530436 494.403628,334.182203 C495.724568,335.833992 498.366492,334.512565 500.67817,333.851863 C500.017678,333.851863 499.687431,333.851863 499.687431,333.521501 C499.026962,331.869734 501.008394,329.887629 500.017678,328.566202 C499.357208,327.575137 497.375776,330.217945 497.04553,329.22688 C496.38506,327.9055 499.026962,326.914435 499.026962,325.593008 C499.357208,317.994832 494.403628,320.307324 500.67817,315.682341 C501.99911,314.36096 505.96195,314.691276 506.952666,315.682341 C507.613159,316.343066 505.96195,319.316259 506.622443,318.655557 C507.943382,317.33413 507.943382,314.36096 509.594591,313.369896 C510.915553,312.709148 512.566739,313.369896 513.887701,313.369896 C515.538887,314.36096 523.464591,316.343066 523.464591,316.343066 C524.125084,318.325195 522.473875,320.637686 522.804122,322.950154 C522.804122,324.601944 525.446046,326.25371 524.785554,327.9055 C524.125084,329.22688 521.813406,327.575137 520.492443,327.9055 C518.511011,328.235816 525.446046,329.557243 525.1158,331.539372 C525.1158,332.200074 524.785554,332.530436 524.785554,332.860799 C526.106516,333.191138 526.436762,336.164355 528.087948,336.494694 C532.050812,337.485758 537.995084,331.869734 539.646293,339.467887 C540.306762,342.110741 532.381058,355.324918 529.739133,354.003491 C527.427478,352.682087 527.427478,348.387467 524.785554,347.396403 C521.813406,346.405338 522.143652,363.583773 521.152936,365.565902 C519.501727,369.860522 516.859849,372.833693 512.236492,372.833693 C509.924837,372.833693 504.971234,369.19982 505.63175,371.512266 C506.622443,373.824757 511.906269,372.50333 513.227208,375.146184 L513.227208,376.137248 L513.887701,376.137248 C515.20864,376.137248 515.538887,378.44974 516.529603,378.44974 C520.162243,377.458675 522.804122,371.842628 526.436762,373.164055 C528.418194,374.155119 529.40891,377.128313 531.720542,377.458675 C533.041504,377.789015 533.371774,375.476523 534.362467,374.815821 C540.306762,387.038934 533.041504,376.467611 535.353183,381.092571 C537.334615,384.726489 543.609157,399.922795 531.390342,398.601368 C528.748417,398.270982 526.436762,396.288877 523.794838,395.628175 C522.804122,395.628175 521.152936,397.279941 520.162243,396.288877 C517.520296,394.306748 526.766985,394.967473 521.483159,391.994256 C513.227208,387.699659 521.483159,394.967473 518.841281,394.967473 C517.850565,394.967473 515.538887,385.056805 515.538887,384.726489 C514.548171,382.413997 511.245777,381.092571 510.585307,378.44974 C510.585307,378.119377 510.915553,378.119377 510.915553,378.119377 C508.273629,379.110442 504.641034,379.771144 504.641034,380.101506 C503.980519,381.422933 507.943382,380.101506 508.603875,381.422933 C508.934121,382.413997 506.622443,382.744314 506.622443,383.735378 C506.292197,385.717553 506.622443,387.699659 507.282913,389.351425 C507.613159,390.34249 509.264345,390.672852 509.264345,391.663917 C509.264345,395.297812 503.320072,396.619239 502.659602,400.253111 C502.659602,401.574538 505.301481,399.592409 506.292197,400.253111 C508.603875,401.904901 510.585307,404.217392 510.915553,406.860223 C511.245777,408.18165 508.603875,404.217392 507.282913,404.547731 C505.63175,405.208456 503.650318,408.18165 502.659602,409.503077 L502.659602,409.503077 Z M565.074638,354.664216 L565.074638,354.994533 C568.707279,352.351725 574.321328,353.673152 578.284169,354.333854 C578.614415,354.994533 579.935378,355.655281 579.935378,356.315983 C579.605131,358.298089 577.623699,359.619515 577.623699,361.601644 C577.953969,368.208756 583.237772,367.878393 578.614415,373.164055 C576.963253,374.815821 574.321328,375.146184 572.670143,376.79795 C569.697995,380.101506 573.330612,381.092571 576.302737,382.744314 L578.284169,387.699659 C575.64229,390.012127 568.377032,389.021063 568.377032,391.994256 C568.707279,395.628175 576.632983,400.583474 568.377032,400.913836 C565.404885,400.913836 563.093206,398.93173 560.451328,397.610303 C561.772244,398.270982 563.423453,398.93173 563.753676,397.940666 C564.414169,395.628175 562.43276,392.985344 560.781528,391.003192 C560.121082,390.34249 559.790835,392.324619 559.130366,392.324619 C557.148934,392.324619 555.827971,390.672852 554.176786,390.34249 C552.525577,390.012127 550.874392,391.333554 549.553429,391.003192 C548.89296,391.003192 548.89296,390.012127 548.89296,389.681788 C550.874392,384.396126 544.930119,385.717553 545.260319,384.726489 C545.590589,383.405062 547.902267,383.735378 548.232467,382.413997 C549.553429,372.833693 546.581305,375.476523 541.297478,370.851587 C540.637009,370.190885 538.655577,368.539095 539.646293,368.208756 C542.618441,366.556967 558.469896,370.190885 555.497725,359.949878 C554.837255,357.63741 551.204638,358.298089 549.223183,356.976662 C548.232467,356.315983 551.534861,357.63741 552.525577,357.63741 C554.176786,358.298089 555.827971,358.95879 557.479157,358.95879 C562.43276,358.95879 570.358464,356.646345 568.707279,366.887329 C568.377032,368.539095 564.083922,370.190885 565.404885,371.181949 C571.34918,376.137248 569.367748,364.244475 568.377032,359.619515 C568.046786,357.63741 562.76296,359.289153 563.423453,357.63741 C563.753676,356.315983 564.414169,355.655281 565.074638,354.664216 L565.074638,354.664216 Z M571.679427,407.520925 L570.028218,407.520925 L570.028218,408.18165 C570.358464,408.842352 570.028218,409.172714 570.028218,409.503077 C569.037502,410.163779 567.716563,411.154843 567.386316,411.815545 C566.395601,412.47627 565.735108,413.136972 565.404885,414.128013 L565.074638,414.458399 L565.074638,414.788715 L565.074638,414.128013 C563.093206,414.128013 560.781528,413.797651 559.790835,414.128013 C558.13965,414.458399 556.818687,417.431569 554.837255,417.101207 C552.195354,416.770844 550.874392,413.467334 548.562713,412.145907 C546.911551,411.154843 544.599873,410.494141 543.27891,409.172714 C542.288194,408.511989 545.920835,407.851287 549.223183,401.904901 C553.846539,405.869158 560.781528,406.860223 564.744392,410.163779 L565.074638,410.494141 C563.093206,407.520925 558.800119,405.208456 560.451328,402.565603 C561.111797,401.244222 563.093206,401.904901 564.083922,401.574538 C566.395601,403.887029 571.34918,403.556667 572.00965,406.52986 C572.00965,406.860223 572.00965,407.190585 571.679427,407.520925 L571.679427,407.520925 Z M471.947408,359.289153 L471.947408,361.932007 C471.617185,359.949878 471.617185,357.967726 471.947408,359.289153 L471.947408,359.289153 Z M529.739133,296.191438 C530.729826,299.825356 527.427478,317.66447 521.483159,315.682341 C519.501727,315.021639 517.850565,312.709148 515.538887,312.709148 C517.850565,309.735977 507.943382,312.048469 505.301481,312.709148 C502.989803,313.369896 501.008394,315.352024 498.696715,315.682341 C497.706,315.682341 497.04553,314.030574 496.054814,314.030574 C493.412912,313.700212 490.770988,314.030574 488.45931,314.691276 C487.468617,315.021639 488.129109,317.003768 487.138393,317.66447 C482.515037,319.646622 487.468617,306.432421 480.863851,323.941219 C480.533605,324.271581 482.515037,333.521501 482.184791,333.521501 C471.286938,333.191138 477.231211,312.709148 483.505753,310.396702 C489.119825,307.753848 497.04553,310.727042 502.659602,308.41455 C510.255061,304.780655 508.603875,294.209309 515.538887,290.245051 C517.850565,289.253987 520.82269,289.914689 523.134368,288.923624 C525.446046,287.602243 526.766985,282.977261 529.40891,282.977261 C534.362467,282.977261 526.766985,286.611179 526.436762,289.584349 C525.77627,294.209309 528.087948,291.236116 529.739133,296.191438 L529.739133,296.191438 Z M560.121082,408.511989 L557.148934,408.842352 C559.460612,409.503077 561.442044,410.494141 563.093206,412.145907 L563.423453,412.145907 C562.43276,410.824481 561.111797,409.833416 560.121082,408.511989 L560.121082,408.511989 Z" id="dk"></path>
        </g>
    </g>
</svg>