<?xml version="1.0" encoding="UTF-8" standalone="no"?>
<svg width="140px" height="96px" viewBox="0 0 140 96" version="1.1" xmlns="http://www.w3.org/2000/svg" xmlns:xlink="http://www.w3.org/1999/xlink">
    <!-- Generator: Sketch 3.6 (26304) - http://www.bohemiancoding.com/sketch -->
    <title>ee</title>
    <desc>Created with Sketch.</desc>
    <defs></defs>
    <g id="Page-1" stroke="none" stroke-width="1" fill="none" fill-rule="evenodd">
        <g id="Group" transform="translate(-455.000000, -302.000000)" fill="#FFFFFF">
            <path d="M516.177993,389.691354 C518.819918,389.030652 529.057301,379.45037 532.029448,377.137902 C534.010857,375.816475 537.643475,382.093224 536.652759,377.798604 C536.652759,377.468242 536.322536,377.468242 536.322536,377.137902 C536.322536,376.477177 535.662043,375.486113 536.322536,375.486113 C539.294683,375.486113 542.927301,380.441435 544.908733,381.10216 C545.899426,381.432499 546.890142,379.45037 547.880858,379.45037 C548.871574,379.780733 548.54135,381.762862 549.532066,382.093224 C551.513498,382.753926 553.49493,380.771797 555.476362,381.432499 C556.467078,381.762862 555.146116,383.744991 555.806608,384.405716 C557.127547,386.387845 567.695177,393.325273 570.006855,392.99491 C570.337101,392.99491 576.611643,386.057482 576.611643,386.057482 C577.932559,385.72712 587.839742,389.361038 588.169942,387.709225 C588.830458,386.057482 586.51878,381.432499 587.509496,380.441435 C588.169942,379.780733 589.821174,379.780733 590.151374,378.789669 C590.48162,378.128967 589.160658,377.798604 589.160658,376.80754 C588.830458,376.146861 588.830458,375.155796 589.160658,374.495048 C593.123545,371.191516 593.453768,374.825434 594.774731,370.861176 C595.104977,369.870112 592.132806,370.530814 591.14209,369.539749 C588.830458,367.227258 590.151374,365.575491 589.490905,363.263 C589.160658,362.271936 583.876855,359.298765 582.886139,358.307701 C580.244238,353.682718 583.216386,355.664847 583.216386,351.37025 C583.216386,345.42384 576.611643,339.147114 575.620881,333.200728 C575.290681,329.566855 579.253522,326.924002 580.244238,324.281171 L580.574484,316.022316 C580.574484,314.370526 579.253522,312.388397 580.244238,311.066994 C583.546632,304.12952 589.160658,307.102713 581.234954,302.147391 C580.904707,303.468818 580.244238,304.790268 577.932559,306.111648 C574.960412,308.0938 543.918017,308.42414 538.634191,307.763438 C537.643475,307.763438 536.983005,306.111648 535.662043,306.442011 C529.387524,307.763438 543.587794,311.397333 533.020164,310.075929 C531.368933,309.745567 531.038732,306.111648 529.387524,306.442011 C528.066585,306.772373 530.37824,309.415204 529.71777,310.736631 C528.727054,312.71876 526.745622,314.700889 524.76419,315.691953 C521.461796,317.343743 517.829156,318.004445 514.196561,317.343743 C512.875599,317.01338 511.884883,314.370526 510.894167,315.031251 C509.242981,316.022316 513.205845,319.656188 511.55466,319.98655 C508.252266,320.977615 498.345106,321.307977 496.363674,326.2633 C495.703204,327.915066 499.335822,329.566855 498.345106,330.888236 C496.69392,333.53109 486.786784,332.870411 485.465822,335.843581 C480.842465,348.397034 489.428685,340.468541 491.410094,345.754226 C492.40081,348.727396 487.447254,352.361314 488.768216,355.334508 C490.089132,358.96838 495.372958,362.602298 496.033451,363.923702 C498.014883,366.896918 494.712489,370.200451 499.005599,372.512942 C500.656784,373.173621 502.638216,371.521878 504.289425,372.182557 C505.940587,372.512942 506.931303,375.816475 508.582489,374.825434 C510.894167,373.504007 510.894167,360.950509 517.829156,369.209387 C518.489671,370.200451 516.177993,371.191516 516.177993,372.512942 C516.177993,375.155796 517.498955,377.798604 517.498955,380.441435 C517.498955,387.048547 514.857031,383.414651 515.517524,389.361038 L516.177993,389.691354 L516.177993,389.691354 Z M480.181996,364.254065 C484.475106,367.227258 484.144859,367.55762 489.428685,369.870112 C491.740341,371.191516 485.465822,366.896918 486.786784,369.539749 C488.1077,372.512942 487.117007,368.218322 484.805329,368.548685 C482.823897,368.879047 484.805329,373.173621 483.154143,374.825434 C482.823897,375.155796 481.502958,373.173621 481.172712,373.834369 C480.512242,374.495048 481.502958,376.146861 481.172712,377.468242 C479.521526,381.762862 476.219155,380.441435 475.228439,380.771797 C474.567923,380.771797 474.567923,382.093224 473.907477,382.423587 C471.926045,383.414651 469.614366,384.075353 467.963181,385.066418 C467.632935,385.066418 467.632935,385.39678 467.632935,385.72712 C467.632935,388.369973 468.293404,391.343144 467.632935,393.985975 C466.972465,395.637764 464.660787,398.94132 463.339824,397.619893 C459.376984,392.99491 466.972465,390.352079 466.311972,386.718184 C465.981749,385.72712 464.33054,387.048547 463.339824,386.387845 C461.358392,385.39678 458.386268,384.736055 457.395552,382.423587 C456.735082,381.10216 460.367677,380.441435 460.03743,379.120031 C459.70723,376.477177 454.423404,375.486113 455.41412,373.173621 C456.074589,371.191516 459.376984,375.816475 461.688662,375.816475 C463.670071,375.816475 460.697946,370.530814 462.679355,369.539749 C463.670071,369.209387 464.991033,372.512942 465.321256,371.521878 C467.632935,363.593363 472.586514,366.566556 480.181996,364.254065 L480.181996,364.254065 Z M468.293404,345.093524 C468.953897,345.093524 469.944613,344.763161 470.274859,345.42384 C470.935329,346.084588 469.944613,347.736332 470.935329,348.397034 C472.256291,349.057759 474.567923,347.405969 475.888885,348.066694 C487.117007,354.673783 476.549355,353.352379 475.888885,354.673783 C473.247007,360.950509 482.493674,355.664847 470.274859,362.602298 C466.642219,364.584427 466.311972,356.655912 466.311972,356.655912 C464.991033,353.022016 459.046714,354.343443 456.735082,353.682718 C454.423404,353.352379 461.688662,352.361314 464.000317,351.700589 C466.972465,351.039887 467.632935,347.075653 468.293404,345.093524 L468.293404,345.093524 Z" id="ee"></path>
        </g>
    </g>
</svg>