<?xml version="1.0" encoding="UTF-8" standalone="no"?>
<svg width="448px" height="392px" viewBox="0 0 448 392" version="1.1" xmlns="http://www.w3.org/2000/svg" xmlns:xlink="http://www.w3.org/1999/xlink">
    <!-- Generator: Sketch 3.6 (26304) - http://www.bohemiancoding.com/sketch -->
    <title>es</title>
    <desc>Created with Sketch.</desc>
    <defs></defs>
    <g id="Page-1" stroke="none" stroke-width="1" fill="none" fill-rule="evenodd">
        <g id="Group" transform="translate(-301.000000, -154.000000)" fill="#FFFFFF">
            <path d="M669.204125,272.982434 C671.682417,274.044566 674.514733,274.752663 676.284927,276.168881 C676.993025,276.876977 677.347024,280.77157 679.471317,280.417509 C682.303608,280.063449 684.7819,278.293195 687.968264,278.293195 C691.508678,278.293195 697.527333,285.374259 701.067747,284.312102 C702.483917,283.958041 701.067747,281.125606 702.129868,280.417509 C707.440476,276.876977 713.813181,280.063449 719.477837,281.479666 L720.894007,281.479666 C722.664202,283.249945 724.080372,285.020198 723.372299,287.144513 C722.664202,289.976899 718.061692,289.268802 716.291472,291.039056 C714.875327,292.455273 720.539959,300.598495 716.99957,306.617352 C715.229351,310.511945 700.005625,316.530802 695.757164,318.301105 C691.862702,319.717323 685.844021,321.133491 683.011681,323.611866 C680.887437,325.028084 677.701098,330.338869 674.514733,331.046966 C662.477372,334.587473 640.880892,332.109098 631.321823,339.898259 C628.843531,342.022573 623.886972,343.792851 624.595045,346.979323 C625.657167,349.457697 630.967774,349.103612 630.61375,351.581987 C630.61375,352.644144 619.638511,355.122519 618.930389,355.476555 C614.681927,358.663026 613.265757,364.681908 609.725368,368.22244 C599.81225,378.489926 586.712718,388.403401 580.340014,401.503347 C577.507698,406.814133 581.402135,423.808597 584.5885,428.411286 C585.650621,429.827504 598.750104,437.262604 595.563739,439.386893 C593.085472,441.511208 587.066792,442.219329 584.5885,443.989583 C583.880427,444.697704 583.880427,446.467957 583.172354,446.822018 C582.464257,447.530115 581.402135,446.467957 580.694062,446.467957 C577.861722,447.176054 574.675357,447.530115 572.197065,449.300368 C571.134944,450.362525 571.843066,452.8409 570.426896,453.903057 C569.364774,454.611179 567.59458,453.194961 566.886482,453.903057 C565.470337,455.673336 566.532458,458.505722 565.470337,459.921939 C564.054166,461.338157 561.221826,459.921939 560.159704,461.692193 C558.743583,463.816507 560.867802,467.002979 559.80568,469.127318 C556.97334,476.208332 550.600635,468.065111 550.246586,479.394804 C550.246586,482.227239 555.911243,483.289396 555.20317,485.767722 C554.141049,488.246096 550.246586,487.892085 547.414271,487.538 C545.644051,487.538 543.873857,485.767722 542.103687,485.41371 C534.668812,483.289396 525.817791,486.829928 519.445086,491.078532 C508.469847,498.159571 508.469847,511.967614 497.140534,517.63246 C492.892072,520.110785 491.475902,508.427082 480.854711,511.259493 C478.730468,511.967614 477.668347,514.800024 475.190055,515.508146 C472.00369,516.570303 464.568864,510.551396 461.3825,510.197335 C457.133989,509.135178 452.531503,511.613553 447.928968,510.905457 C445.450676,510.197335 444.034506,508.073021 441.556239,507.364925 C436.953729,505.594671 416.065347,502.408175 412.170884,503.116296 C407.922398,504.178453 405.798155,509.489239 401.903718,511.259493 C396.239086,513.383831 389.158284,507.010864 381.369384,510.905457 C374.99668,514.091928 375.704728,516.924314 372.518388,521.527003 C372.164339,521.881064 370.040096,519.756749 368.623926,520.818907 C366.499683,522.58916 364.729488,525.421596 361.897173,526.483753 C360.835076,526.837789 360.835076,524.359439 359.772905,523.651317 C358.356784,522.58916 356.232541,522.235124 355.170419,521.172943 C353.754249,519.402689 353.4002,516.924314 351.630006,515.508146 C350.567884,514.445989 348.443641,515.508146 347.38152,514.445989 C344.903228,511.967614 341.362839,500.283861 340.654766,496.743378 C340.654766,496.389317 345.965349,501.700078 345.257301,498.513632 C345.257301,497.451475 343.133058,498.513632 342.77901,497.805535 C342.424961,497.097414 344.19518,496.389317 343.841131,495.681221 C342.77901,489.662314 337.468402,496.743378 337.822426,486.475867 C337.822426,486.475867 351.630006,480.102925 348.443641,479.394804 C345.611301,478.686707 343.841131,484.705564 341.008766,483.997493 C338.530523,483.643432 339.592645,479.394804 338.530523,477.270489 C337.468402,475.146175 336.052231,473.375921 334.636061,471.605643 L325.076992,462.400314 L325.076992,461.692193 C324.722943,462.400314 324.368895,462.75435 323.660822,462.75435 C321.536579,463.108411 320.474457,460.276 318.704263,459.213818 C317.288092,458.505722 310.915388,457.443565 306.312853,457.443565 C307.020926,442.573414 303.480512,440.095039 315.163849,429.827504 C317.288092,428.05725 316.934044,424.162658 319.058287,423.100525 C319.766384,422.74644 337.114353,422.392429 332.865867,415.311365 C331.803745,413.541111 328.263357,416.373522 326.493162,415.311365 C324.722943,413.895147 325.076992,411.062736 324.368895,408.938447 C323.660822,406.814133 323.660822,404.335758 322.244651,402.565504 C321.890627,401.857383 319.766384,402.565504 319.766384,401.857383 C320.828506,399.379033 323.306773,397.608754 324.368895,395.13038 C326.493162,390.881776 320.474457,394.068223 326.493162,389.111522 C331.803745,384.862894 338.884547,385.57099 339.592645,376.365637 C339.592645,375.65754 332.865867,371.054851 331.449697,368.22244 C329.325453,363.619776 331.803745,356.184676 331.803745,355.476555 C331.449697,355.122519 325.785065,344.146887 325.785065,343.792851 C325.431041,343.08473 326.847162,344.146887 327.555284,344.146887 C330.741624,345.209069 332.865867,345.563105 336.052231,346.271226 C344.19518,348.39554 345.965349,349.103612 350.213836,340.960416 C355.170419,331.046966 349.859787,334.587473 348.797665,327.152398 C347.735544,320.425395 358.710783,323.611866 359.064832,318.655166 C359.418905,315.114634 355.524443,318.301105 357.648662,314.052477 C358.002735,313.344355 359.418905,313.344355 359.772905,312.282198 C360.835076,309.803848 360.835076,307.325473 361.189075,304.847098 C361.543124,302.014712 363.667367,299.182277 363.313318,296.349866 L360.126954,287.852584 C361.189075,286.790427 363.667367,288.914741 365.083537,288.206645 L372.518388,280.417509 C377.828971,277.585098 387.742114,277.231038 390.574454,269.441902 C392.698673,262.360838 383.493628,263.068959 381.015336,262.714899 C379.245141,262.360838 382.431506,248.906881 381.015336,248.19876 C374.288558,244.658228 372.872437,247.844724 364.729488,244.658228 C363.313318,243.950131 363.667367,240.409599 360.481002,242.533913 C359.772905,243.242059 361.189075,245.012288 360.481002,245.720385 C355.524443,249.969038 350.213836,245.012288 348.797665,244.658228 C347.38152,243.950131 345.611301,245.720385 344.549179,245.012288 C343.841131,244.658228 346.673422,243.950131 345.965349,243.242059 C345.611301,241.825842 343.841131,241.471756 342.424961,241.471756 C340.300718,241.117745 337.822426,241.825842 335.698183,241.471756 C335.344159,241.117745 336.052231,240.409599 336.052231,239.701527 C336.052231,239.347467 336.40628,237.931249 336.052231,238.28531 C334.282037,238.63937 330.033526,243.596071 326.847162,241.471756 C318.350214,235.452899 334.99011,234.036681 330.741624,229.788053 C330.033526,229.079931 328.617405,229.788053 327.909283,229.079931 C327.555284,228.371835 329.325453,226.955617 328.617405,226.601606 C322.244651,225.185388 313.39363,227.309678 308.083047,230.142113 C308.791145,227.309678 304.896683,224.831303 304.896683,221.998917 C304.542634,220.93676 306.666877,223.415135 307.374975,222.707013 C308.083047,222.352977 306.666877,220.93676 307.020926,220.228639 C307.729023,217.042167 313.039631,218.104324 315.517873,215.98001 C316.225971,215.625974 317.642141,213.855696 316.58002,214.209756 C314.455752,214.563817 312.331509,216.688131 310.20729,217.042167 C308.437096,217.396228 307.729023,214.209756 309.145169,212.793539 C311.269387,211.377321 315.871922,212.439527 316.58002,209.961153 C316.934044,207.836838 311.977509,210.669224 310.20729,209.961153 C308.791145,209.253007 307.729023,207.482778 307.374975,206.06656 C307.020926,202.526028 310.561339,207.128717 310.915388,206.774681 C311.623461,205.358464 310.915388,203.58821 311.977509,202.171992 C313.039631,200.401714 316.225971,200.047678 316.58002,197.923388 C318.350214,180.574789 304.18861,200.401714 301.356269,183.407225 C299.232026,171.723496 309.145169,175.264028 309.499218,173.493775 C309.853266,172.431617 306.666877,173.493775 305.604755,172.785653 C305.250731,172.077557 306.666877,171.36946 307.020926,171.36946 C310.915388,170.661339 313.039631,171.723496 315.871922,171.36946 C325.076992,170.661339 337.468402,162.872203 345.965349,159.331696 C349.151714,157.915478 352.692127,153.312789 355.878492,155.437103 C357.294662,156.499261 353.754249,160.747889 355.524443,161.10195 C358.356784,161.45601 360.126954,156.499261 362.959294,156.499261 C372.518388,156.499261 371.810315,173.139714 380.661312,175.264028 C382.431506,175.618089 383.139579,171.723496 384.909798,172.077557 C394.822916,174.555932 389.512333,174.909968 399.425451,176.326185 C401.903718,176.680246 406.506228,175.618089 408.630471,175.972125 C410.754714,176.680246 411.816836,178.80456 413.941104,178.80456 C416.773419,178.80456 419.251711,175.264028 422.084002,175.972125 C424.562294,176.680246 424.916343,180.92885 427.040586,182.699103 C429.164829,184.469382 433.413315,182.345067 435.537534,184.469382 C436.245607,185.177478 434.121363,186.239635 434.829486,186.593696 C435.537534,187.655853 437.661777,185.177478 438.723898,185.885599 C447.574919,191.904482 470.58752,203.234149 482.270882,199.693617 C482.97893,199.339557 482.97893,197.923388 483.687003,197.569303 C485.103173,197.215242 486.519343,197.569303 487.935513,197.569303 C490.767829,197.923388 498.202655,197.215242 500.326899,201.463871 C500.326899,201.817932 499.972874,202.526028 499.618826,202.880089 C502.451166,203.58821 510.240016,211.02331 513.072357,211.02331 C514.134479,211.02331 512.364309,208.544935 513.072357,207.836838 C513.78043,206.774681 515.1966,206.420621 516.61277,206.06656 C526.879912,204.650367 520.153184,205.712524 524.40167,210.669224 C525.817791,212.085442 528.650131,209.961153 530.066302,211.02331 C532.190545,212.085442 533.252666,214.563817 535.022861,215.625974 C539.625396,218.104324 549.538514,217.750288 556.265292,215.98001 C558.38951,218.104324 562.283947,221.644856 562.283947,221.644856 C562.992045,221.998917 562.637996,220.228639 562.992045,220.228639 C564.762239,220.582699 566.886482,221.29082 567.948604,222.707013 C571.134944,226.247521 560.867802,230.496149 565.470337,232.620463 C567.59458,233.328585 569.718823,229.433992 570.426896,230.142113 C570.780944,230.85021 569.718823,232.620463 570.426896,233.328585 C575.383479,237.931249 583.172354,236.160995 587.77484,239.701527 C588.128889,240.055588 591.669302,248.19876 592.023351,248.19876 C596.625861,251.739292 601.228396,245.366349 606.184955,249.614977 C608.663247,251.739292 606.893028,256.341981 611.495562,256.341981 C613.619806,256.696041 615.035976,254.571678 617.160219,254.925763 C619.284462,255.279824 620.346559,257.758198 622.470802,258.11221 C623.532924,258.11221 623.532924,255.987895 624.595045,255.987895 C628.135458,255.633835 631.321823,258.46627 635.216285,258.820356 C635.216285,258.820356 633.446041,250.677134 637.694528,251.385231 C643.713233,252.447388 647.253646,256.696041 651.148059,260.236524 C651.502108,260.590584 652.564229,260.236524 653.272302,260.236524 C655.042521,260.590584 657.166764,260.590584 658.228886,261.652742 C659.99908,263.068959 658.936959,266.255431 660.707153,267.317588 L660.707153,267.671648 C658.936959,271.212131 658.228886,276.168881 669.204125,272.982434 L669.204125,272.982434 Z M360.835076,534.980985 L363.313318,545.24852 L371.102218,545.24852 C371.102218,544.186363 370.748194,543.478242 370.748194,542.416085 C370.394145,540.291771 369.686072,538.167456 370.394145,536.043142 C370.748194,534.980985 373.934558,534.626925 373.58051,533.564767 C371.456266,528.608067 361.543124,534.626925 360.835076,534.980985 L360.835076,534.980985 L360.835076,534.980985 Z M708.502598,394.776368 C703.19199,412.83299 709.564694,400.087129 718.415716,407.522229 C720.894007,409.646519 702.837941,426.995118 701.421796,426.641033 C699.651577,426.641033 700.005625,422.74644 698.235456,421.684308 C692.924823,418.497836 692.570799,424.162658 690.80058,418.851897 C690.092507,416.373522 690.80058,413.187051 689.030386,411.770833 C687.614215,410.354665 685.489972,412.83299 684.073802,412.478954 C681.59556,412.124894 679.117268,411.062736 676.993025,409.646519 C676.638976,409.292508 677.347024,408.584362 677.701098,408.23035 C686.552094,401.503347 697.527333,396.900658 708.502598,394.776368 L708.502598,394.776368 L708.502598,394.776368 Z M745.676827,395.13038 C753.819751,415.665426 744.260657,401.503347 739.304073,399.024972 C737.179855,398.316876 734.347539,400.087129 732.223296,398.670912 C723.372299,392.652054 735.055612,390.173679 745.676827,395.13038 L745.676827,395.13038 Z M682.657657,428.411286 C680.533438,430.535601 677.347024,430.535601 677.347024,432.305879 C677.347024,433.722097 678.763219,436.554507 680.533438,436.554507 C682.657657,436.554507 684.073802,436.554507 686.906143,434.076133 C689.738459,431.597758 686.906143,429.827504 686.906143,429.827504 L683.011681,428.411286 L682.657657,428.411286 L682.657657,428.411286 Z M674.160684,417.78974 C671.328368,418.497836 670.620295,420.268115 669.204125,422.038368 C667.787955,424.162658 665.663712,427.349129 668.850076,428.765347 C670.620295,429.827504 675.930903,426.995118 676.993025,424.870804 C677.701098,423.100525 679.825316,422.74644 679.825316,420.622151 C679.825316,418.851897 677.347024,417.435679 677.347024,417.435679 L674.160684,417.78974 L674.160684,417.78974 Z" id="es"></path>
        </g>
    </g>
</svg>