<?xml version="1.0" encoding="UTF-8" standalone="no"?>
<svg width="1638px" height="780px" viewBox="0 0 1638 780" version="1.1" xmlns="http://www.w3.org/2000/svg" xmlns:xlink="http://www.w3.org/1999/xlink">
    <!-- Generator: Sketch 3.6 (26304) - http://www.bohemiancoding.com/sketch -->
    <title>Blank_political_map_Europe_in_2008_WF_(with_Kosovo)</title>
    <desc>Created with Sketch.</desc>
    <defs>
        <rect id="path-1" x="0" y="0" width="1638" height="779.833578"></rect>
    </defs>
    <g id="Page-1" stroke="none" stroke-width="1" fill="none" fill-rule="evenodd">
        <g id="Blank_political_map_Europe_in_2008_WF_(with_Kosovo)">
            <g id="Group">
                <mask id="mask-2" fill="white">
                    <use xlink:href="#path-1"></use>
                </mask>
                <use id="maska" xlink:href="#path-1"></use>
                <rect id="ocean" fill="#2096BD" mask="url(#mask-2)" x="-1143.98948" y="-2543.21189" width="5351.75906" height="3428.96262"></rect>
                <g id="outlines" mask="url(#mask-2)" stroke="#FFFFFF" stroke-width="3">
                    <g transform="translate(-327.513585, -2545.695291)">
                        <path d="M871.706609,3143.58391 C872.945068,3117.57261 866.752685,3113.23737 887.187502,3095.2771 C890.902923,3092.18052 890.283672,3085.36799 893.999093,3083.51008 C895.237596,3082.8907 925.580174,3082.27145 918.149331,3069.88505 C916.291621,3066.78848 910.099281,3071.74301 907.003111,3069.88505 C903.906898,3067.40777 904.526149,3062.45323 903.287646,3058.73736 C902.049187,3055.02145 902.049187,3050.68621 899.572225,3047.58963 C898.953017,3046.35096 895.237596,3047.58963 895.237596,3046.35096 C897.095306,3042.01576 901.429936,3038.91914 903.287646,3034.5839 C907.003111,3027.15212 896.476055,3032.72594 907.003111,3024.05554 C916.291621,3016.62372 928.676344,3017.86234 929.914847,3001.76007 C929.914847,3000.52145 918.149331,2992.47029 915.67237,2987.51576 C911.956948,2979.46465 916.291621,2966.45896 916.291621,2965.22029 C915.67237,2964.601 905.764608,2945.40211 905.764608,2944.78282 C905.1454,2943.54415 907.622276,2945.40211 908.860822,2945.40211 C914.43391,2947.26011 918.149331,2947.8794 923.722463,2949.11806 C937.96494,2952.83398 941.061067,2954.07256 948.49191,2939.82824 C957.161255,2922.48735 947.872658,2928.68051 946.014948,2915.67486 C944.157237,2903.9078 963.353551,2909.48166 963.972803,2900.81126 C964.592097,2894.61806 957.780463,2900.19193 961.495841,2892.7601 C962.115135,2891.52144 964.592097,2891.52144 965.211262,2889.66348 C967.069059,2885.32828 967.069059,2880.99304 967.688224,2876.65779 C968.307475,2871.7033 972.022897,2866.74873 971.403645,2861.79419 L965.830513,2846.9305 C967.688224,2845.07255 972.022897,2848.78846 974.499858,2847.54984 L987.503833,2833.92486 C996.792343,2828.97032 1014.13099,2828.35099 1019.08491,2814.72601 C1022.80029,2802.33961 1006.70015,2803.57828 1002.36547,2802.95894 C999.269305,2802.33961 1004.84244,2778.80556 1002.36547,2777.5669 C990.59996,2771.3737 988.123084,2776.94761 973.880607,2771.3737 C971.403645,2770.13507 972.022897,2763.94187 966.449765,2767.65778 C965.211262,2768.89649 967.688224,2771.99303 966.449765,2773.23165 C957.780463,2780.66352 948.49191,2771.99303 946.014948,2771.3737 C943.538029,2770.13507 940.441816,2773.23165 938.584105,2771.99303 C937.345689,2771.3737 942.299526,2770.13507 941.061067,2768.89649 C940.441816,2766.4192 937.345689,2765.79983 934.868727,2765.79983 C931.153306,2765.18058 926.818633,2766.4192 923.103212,2765.79983 C922.484004,2765.18058 923.722463,2763.94187 923.722463,2762.70329 C923.722463,2762.08396 924.341715,2759.60667 923.722463,2760.226 C920.626293,2760.84534 913.195408,2769.51574 907.622276,2765.79983 C892.760634,2755.27147 921.864753,2752.79418 914.43391,2745.36236 C913.195408,2744.12369 910.718532,2745.36236 909.479986,2744.12369 C908.860822,2742.88507 911.956948,2740.40778 910.718532,2739.78854 C899.572225,2737.31125 884.091289,2741.02712 874.802779,2745.98169 C873.56432,2752.17485 858.083426,2755.27147 861.798804,2760.84534 C864.275766,2763.94187 871.706609,2762.70329 872.945068,2766.4192 C874.183571,2769.51574 866.133477,2765.79983 864.275766,2768.27712 C860.560388,2773.85098 861.179553,2800.48165 862.418056,2807.29419 C862.418056,2809.15214 865.514226,2809.77148 865.514226,2812.24872 C864.894974,2822.77712 860.560388,2828.97032 856.225716,2837.64077 C854.368005,2841.35668 846.317911,2849.40779 850.652584,2848.78846 C854.98717,2847.54984 854.98717,2838.2601 859.321843,2837.02143 C862.418056,2836.40214 864.275766,2842.59534 863.037264,2845.07255 C859.941094,2849.40779 851.271792,2847.54984 848.175622,2852.50437 C843.840949,2859.93624 841.363988,2868.60668 836.410107,2876.03846 C834.552396,2879.13508 830.836975,2880.99304 831.45627,2884.08962 C831.45627,2887.18624 837.029358,2888.42486 838.267818,2891.52144 C838.887069,2892.7601 835.171648,2887.80553 833.31398,2889.04419 C830.217724,2890.90215 828.979308,2895.85668 826.502346,2899.57255 C820.309963,2909.48166 813.498371,2921.86806 806.067572,2930.53846 C804.209861,2933.01575 800.49444,2933.63509 798.017478,2936.73166 C797.398227,2937.351 801.113605,2939.20895 799.875189,2939.82824 C794.921265,2941.06691 788.728925,2936.73166 785.632712,2939.82824 C782.536542,2942.92486 788.109674,2947.8794 786.871214,2951.59527 C785.013504,2957.78847 766.436397,2983.79989 768.294108,2989.993 C769.532611,2994.32825 772.628781,2998.04416 775.105743,3002.3794 C781.298126,3012.9078 778.821121,3017.86234 778.821121,3017.86234 C783.775001,3019.10096 789.348133,3018.48167 794.302057,3017.86234 C796.779019,3017.86234 798.017478,3014.76576 800.49444,3015.38505 C802.971316,3015.38505 804.209861,3019.10096 807.305988,3019.72029 C809.163699,3020.33963 809.163699,3011.66914 810.402158,3013.52709 C812.259912,3016.62372 809.163699,3020.95892 810.402158,3023.43621 C812.259912,3025.91349 820.929214,3027.15212 818.452252,3028.39078 C801.732899,3036.44185 811.640661,3015.38505 798.017478,3017.24301 C794.302057,3017.86234 802.352151,3022.81687 803.590567,3025.91349 C804.209861,3029.62941 803.590567,3033.96465 802.971316,3038.29981 C801.732899,3046.35096 791.205844,3053.78279 791.205844,3059.97594 C791.205844,3062.45323 794.921265,3064.31119 794.921265,3066.78848 C795.540516,3071.12372 788.728925,3079.17483 793.063554,3080.4135 C794.302057,3080.4135 798.636729,3078.55554 797.398227,3079.79417 C796.159768,3081.65212 792.444346,3080.4135 791.205844,3082.27145 C788.109674,3088.46465 789.967384,3095.89643 786.871214,3102.08963 C784.394252,3107.04417 769.532611,3127.48164 770.77107,3134.29417 C771.390321,3136.77146 775.724907,3131.81688 778.201869,3131.81688 C781.917291,3131.19755 785.632712,3132.43621 789.348133,3131.81688 C791.205844,3131.81688 793.063554,3129.95893 794.921265,3130.57826 C804.829026,3133.05555 837.029358,3154.11235 841.363988,3153.49302 C843.221741,3153.49302 862.418056,3144.20324 863.656515,3143.58391 L871.706609,3143.58391 L871.706609,3143.58391 Z" id="pt" fill="#87B024"></path>
                        <path d="M1210.42894,3433.42477 C1210.42894,3433.42477 1210.42894,3433.42477 1210.42894,3432.80553 C1209.80968,3427.85095 1200.52117,3426.61233 1200.52117,3421.65775 C1199.90192,3417.32255 1207.95197,3415.46459 1208.57123,3411.12935 C1208.57123,3408.65206 1183.18253,3386.35664 1181.32482,3379.54415 L1176.99019,3374.58961 C1174.51318,3373.35095 1172.03631,3372.73166 1168.32089,3372.11232 C1166.46313,3371.49299 1165.22467,3375.2089 1163.36696,3375.2089 C1160.27079,3375.82824 1156.55537,3374.58961 1153.45916,3373.35095 C1147.88607,3371.49299 1142.31294,3357.86797 1139.83597,3357.24872 L1138.59752,3359.10663 C1138.59752,3363.44184 1146.02836,3366.53846 1146.02836,3370.8737 C1146.02836,3373.35095 1139.83597,3370.25437 1138.59752,3368.39641 C1136.7398,3365.91912 1136.7398,3363.44184 1136.12055,3360.34526 L1126.832,3354.15206 C1125.59358,3354.77143 1108.87415,3358.4873 1108.25494,3358.4873 C1102.68176,3358.4873 1089.67783,3346.72028 1087.20087,3346.72028 C1083.48545,3346.72028 1080.38928,3351.05552 1076.05461,3351.67485 C1074.19689,3351.67485 1072.33918,3350.43619 1071.10077,3349.19757 C1069.86222,3347.9589 1071.71993,3344.86232 1070.48147,3344.86232 C1062.43142,3344.24299 1048.8082,3350.43619 1040.13894,3348.57823 C1017.84637,3344.24299 991.219211,3320.08961 985.026871,3297.17485 L971.403645,3297.17485 L967.069059,3279.21458 C963.353551,3279.21458 947.872658,3276.11805 946.014948,3277.35663 C944.157237,3277.976 923.722463,3315.75436 921.245501,3319.47028 C905.764608,3347.33961 885.329835,3379.54415 861.179553,3400.60095 C834.552396,3425.37366 783.775001,3419.7998 750.336296,3429.08962 C749.09775,3429.70891 747.859334,3429.70891 746.620789,3430.94757 L724.328304,3430.94757 L721.851342,3433.42477 L1210.42894,3433.42477 L1210.42894,3433.42477 Z" id="ma" fill="#87B024"></path>
                        <path d="M1506.42396,2820.91921 C1510.75863,2822.77712 1515.71251,2824.01574 1518.80868,2826.49303 C1520.04719,2827.73166 1520.66635,2834.54419 1524.38186,2833.92486 C1529.3357,2833.30552 1533.67037,2830.20894 1539.2435,2830.20894 C1545.43588,2830.20894 1555.96285,2842.59534 1562.15524,2840.73739 C1564.6322,2840.11806 1562.15524,2835.16348 1564.01295,2833.92486 C1573.3015,2827.73166 1584.44772,2833.30552 1594.35553,2835.78281 L1596.83249,2835.78281 C1599.92866,2838.87943 1602.40562,2841.97601 1601.16716,2845.69192 C1599.92866,2850.64641 1591.87861,2849.40779 1588.78239,2852.50437 C1586.30548,2854.98166 1596.21324,2869.22601 1590.0209,2879.75437 C1586.92468,2886.5669 1560.29753,2897.09526 1552.86673,2900.19193 C1546.05509,2902.66922 1535.52808,2905.14642 1530.57416,2909.48166 C1526.85873,2911.95895 1521.28565,2921.24873 1515.71251,2922.48735 C1494.65849,2928.68051 1456.88503,2924.34526 1440.16567,2937.97029 C1435.831,2941.6862 1427.1617,2944.78282 1428.40016,2950.35669 C1430.25787,2954.69193 1439.54642,2954.07256 1438.92721,2958.4078 C1438.92721,2960.26576 1419.7309,2964.601 1418.49235,2965.22029 C1411.06155,2970.79416 1408.58459,2981.32256 1402.39225,2987.51576 C1385.05365,3005.47594 1362.14183,3022.81687 1350.99561,3045.73167 C1346.04173,3055.02145 1352.85332,3084.74866 1358.42645,3092.79981 C1360.28416,3095.2771 1383.19589,3108.28279 1377.62276,3111.99866 C1373.28813,3115.71457 1362.76112,3116.95324 1358.42645,3120.04981 C1357.18799,3121.28848 1357.18799,3124.38506 1355.94953,3125.00439 C1354.71103,3126.24301 1352.85332,3124.38506 1351.61486,3124.38506 C1346.66093,3125.62368 1341.0878,3126.24301 1336.75313,3129.33959 C1334.89542,3131.19755 1336.13396,3135.53279 1333.657,3137.39075 C1331.79929,3138.62941 1328.70312,3136.15213 1327.46462,3137.39075 C1324.9877,3140.48737 1326.84541,3145.44186 1324.9877,3147.91915 C1322.51074,3150.39644 1317.55681,3147.91915 1315.6991,3151.01573 C1313.22223,3154.73164 1316.93761,3160.30551 1315.0799,3164.02146 C1310.12597,3176.40777 1298.97975,3162.16342 1298.3605,3181.98164 C1298.3605,3186.93622 1308.2683,3188.79417 1307.02985,3193.12933 C1305.17213,3197.46458 1298.3605,3196.84533 1293.40662,3196.22595 C1290.31041,3196.22595 1287.21424,3193.12933 1284.11811,3192.51009 C1271.11409,3188.79417 1255.63316,3194.98737 1244.48694,3202.41915 C1225.29062,3214.80551 1225.29062,3238.95893 1205.47501,3248.86805 C1198.04421,3253.2032 1195.56725,3232.76573 1176.99019,3237.72027 C1173.27477,3238.95893 1171.41706,3243.91347 1167.08238,3245.15213 C1161.50925,3247.01009 1148.50532,3236.48165 1142.93219,3235.86231 C1135.5013,3234.00436 1127.45129,3238.3396 1119.4012,3237.10098 C1115.06653,3235.86231 1112.58957,3232.1464 1108.25494,3230.90778 C1100.20489,3227.8112 1063.66993,3222.23729 1056.85829,3223.47596 C1049.42745,3225.33391 1045.71203,3234.62369 1038.90044,3237.72027 C1028.99267,3241.43622 1016.60795,3230.28845 1002.98473,3237.10098 C991.838505,3242.67485 993.076922,3247.62934 987.503833,3255.68049 C986.884582,3256.29983 983.16916,3252.58391 980.692198,3254.44187 C976.976777,3257.53845 973.880607,3262.49303 968.926727,3264.35098 C967.069059,3264.97027 967.069059,3260.63507 965.211262,3259.3964 C962.734387,3257.53845 959.018965,3256.91916 957.161255,3255.06116 C954.684293,3251.96458 954.065041,3247.62934 950.968872,3245.15213 C949.111161,3243.29418 945.39574,3245.15213 943.538029,3243.29418 C939.203356,3238.95893 933.011016,3218.52138 931.772557,3212.32827 C931.772557,3211.70893 941.061067,3220.99867 939.822651,3215.42484 C939.822651,3213.56689 936.10723,3215.42484 935.487978,3214.18622 C934.868727,3212.94756 937.96494,3211.70893 937.345689,3210.47031 C935.487978,3199.94187 926.199425,3212.32827 926.818633,3194.36804 C926.818633,3194.36804 950.968872,3183.22031 945.39574,3181.98164 C940.441816,3180.74302 937.345689,3191.27138 932.391722,3190.0328 C928.057136,3189.41346 929.914847,3181.98164 928.057136,3178.26573 C926.199425,3174.54982 923.722463,3171.45324 921.245501,3168.35662 L904.526149,3152.25439 L904.526149,3151.01573 C903.906898,3152.25439 903.287646,3152.87368 902.049187,3152.87368 C898.333766,3153.49302 896.476055,3148.53848 893.379885,3146.68048 C890.902923,3145.44186 879.756703,3143.58391 871.706609,3143.58391 C872.945068,3117.57261 866.752685,3113.23737 887.187502,3095.2771 C890.902923,3092.18052 890.283672,3085.36799 893.999093,3083.51008 C895.237596,3082.8907 925.580174,3082.27145 918.149331,3069.88505 C916.291621,3066.78848 910.099281,3071.74301 907.003111,3069.88505 C903.906898,3067.40777 904.526149,3062.45323 903.287646,3058.73736 C902.049187,3055.02145 902.049187,3050.68621 899.572225,3047.58963 C898.953017,3046.35096 895.237596,3047.58963 895.237596,3046.35096 C897.095306,3042.01576 901.429936,3038.91914 903.287646,3034.5839 C907.003111,3027.15212 896.476055,3032.72594 907.003111,3024.05554 C916.291621,3016.62372 928.676344,3017.86234 929.914847,3001.76007 C929.914847,3000.52145 918.149331,2992.47029 915.67237,2987.51576 C911.956948,2979.46465 916.291621,2966.45896 916.291621,2965.22029 C915.67237,2964.601 905.764608,2945.40211 905.764608,2944.78282 C905.1454,2943.54415 907.622276,2945.40211 908.860822,2945.40211 C914.43391,2947.26011 918.149331,2947.8794 923.722463,2949.11806 C937.96494,2952.83398 941.061067,2954.07256 948.49191,2939.82824 C957.161255,2922.48735 947.872658,2928.68051 946.014948,2915.67486 C944.157237,2903.9078 963.353551,2909.48166 963.972803,2900.81126 C964.592097,2894.61806 957.780463,2900.19193 961.495841,2892.7601 C962.115135,2891.52144 964.592097,2891.52144 965.211262,2889.66348 C967.069059,2885.32828 967.069059,2880.99304 967.688224,2876.65779 C968.307475,2871.7033 972.022897,2866.74873 971.403645,2861.79419 L965.830513,2846.9305 C967.688224,2845.07255 972.022897,2848.78846 974.499858,2847.54984 L987.503833,2833.92486 C996.792343,2828.97032 1014.13099,2828.35099 1019.08491,2814.72601 C1022.80029,2802.33961 1006.70015,2803.57828 1002.36547,2802.95894 C999.269305,2802.33961 1004.84244,2778.80556 1002.36547,2777.5669 C990.59996,2771.3737 988.123084,2776.94761 973.880607,2771.3737 C971.403645,2770.13507 972.022897,2763.94187 966.449765,2767.65778 C965.211262,2768.89649 967.688224,2771.99303 966.449765,2773.23165 C957.780463,2780.66352 948.49191,2771.99303 946.014948,2771.3737 C943.538029,2770.13507 940.441816,2773.23165 938.584105,2771.99303 C937.345689,2771.3737 942.299526,2770.13507 941.061067,2768.89649 C940.441816,2766.4192 937.345689,2765.79983 934.868727,2765.79983 C931.153306,2765.18058 926.818633,2766.4192 923.103212,2765.79983 C922.484004,2765.18058 923.722463,2763.94187 923.722463,2762.70329 C923.722463,2762.08396 924.341715,2759.60667 923.722463,2760.226 C920.626293,2760.84534 913.195408,2769.51574 907.622276,2765.79983 C892.760634,2755.27147 921.864753,2752.79418 914.43391,2745.36236 C913.195408,2744.12369 910.718532,2745.36236 909.479986,2744.12369 C908.860822,2742.88507 911.956948,2740.40778 910.718532,2739.78854 C899.572225,2737.31125 884.091289,2741.02712 874.802779,2745.98169 C876.041281,2741.02712 869.229647,2736.69187 869.229647,2731.73738 C868.610396,2729.87942 872.325817,2734.21467 873.56432,2732.976 C874.802779,2732.35671 872.325817,2729.87942 872.945068,2728.64076 C874.183571,2723.06689 883.472124,2724.92485 887.80671,2721.20894 C889.045213,2720.58965 891.522175,2717.49302 889.664464,2718.11236 C885.948999,2718.73169 882.233578,2722.4476 878.5182,2723.06689 C875.42203,2723.68622 874.183571,2718.11236 876.66049,2715.63507 C880.375868,2713.15778 888.425961,2715.01582 889.664464,2710.68058 C890.283672,2706.96467 881.614413,2711.91916 878.5182,2710.68058 C876.041281,2709.44187 874.183571,2706.34533 873.56432,2703.86804 C872.945068,2697.67484 879.137451,2705.726 879.756703,2705.10671 C880.995162,2702.62942 879.756703,2699.53284 881.614413,2697.05556 C883.472124,2693.95893 889.045213,2693.33964 889.664464,2689.62378 C892.760634,2659.27711 867.991188,2693.95893 863.037264,2664.23169 C859.321843,2643.79417 876.66049,2649.98737 877.279741,2646.89079 C877.898992,2645.03284 872.325817,2646.89079 870.468106,2645.65213 C869.848898,2644.41351 872.325817,2643.17488 872.945068,2643.17488 C879.756703,2641.93622 883.472124,2643.79417 888.425961,2643.17488 C904.526149,2641.93622 926.199425,2628.31124 941.061067,2622.11808 C946.634199,2619.64079 952.826582,2611.58964 958.399714,2615.30555 C960.876676,2617.1635 954.684293,2624.59533 957.780463,2625.21466 C962.734387,2625.83399 965.830513,2617.1635 970.784437,2617.1635 C987.503833,2617.1635 986.265373,2646.27146 1001.74627,2649.98737 C1004.84244,2650.60671 1006.0809,2643.79417 1009.17711,2644.41351 C1026.51571,2648.74875 1017.2272,2649.36804 1034.56581,2651.84533 C1038.90044,2652.46466 1046.95049,2650.60671 1050.66591,2651.226 C1054.38133,2652.46466 1056.23904,2656.18057 1059.9545,2656.18057 C1064.90838,2656.18057 1069.24306,2649.98737 1074.19689,2651.226 C1078.53157,2652.46466 1079.15082,2659.89644 1082.86624,2662.99302 C1086.58166,2666.08964 1094.0125,2662.37373 1097.72788,2666.08964 C1098.96634,2667.32826 1095.25092,2669.18622 1096.48947,2669.80555 C1097.72788,2671.66351 1101.4433,2667.32826 1103.30101,2668.56693 C1118.78195,2679.09533 1159.03229,2698.91351 1179.46715,2692.72031 C1180.70557,2692.10098 1180.70557,2689.62378 1181.94402,2689.0044 C1184.42099,2688.38507 1186.89795,2689.0044 1189.37491,2689.0044 C1194.32879,2689.62378 1207.33272,2688.38507 1211.04814,2695.81689 C1211.04814,2696.43622 1210.42894,2697.67484 1209.80968,2698.29418 C1214.76361,2699.53284 1228.38675,2712.53853 1233.34067,2712.53853 C1235.19838,2712.53853 1232.10226,2708.20329 1233.34067,2706.96467 C1234.57913,2705.10671 1237.05609,2704.48738 1239.53305,2703.86804 C1257.49087,2701.3908 1245.72544,2703.24876 1253.15628,2711.91916 C1255.63316,2714.39645 1260.58708,2710.68058 1263.06404,2712.53853 C1266.77946,2714.39645 1268.63717,2718.73169 1271.73334,2720.58965 C1279.78344,2724.92485 1297.12204,2724.30556 1308.88756,2721.20894 C1312.60293,2724.92485 1319.41453,2731.11805 1319.41453,2731.11805 C1320.65303,2731.73738 1320.03378,2728.64076 1320.65303,2728.64076 C1323.7492,2729.26009 1327.46462,2730.49876 1329.32233,2732.976 C1334.89542,2739.16916 1316.93761,2746.60098 1324.9877,2750.31689 C1328.70312,2751.55556 1332.41854,2744.74303 1333.657,2745.98169 C1334.27625,2747.22032 1332.41854,2750.31689 1333.657,2751.55556 C1342.32635,2759.60667 1355.94953,2756.51009 1363.99954,2762.70329 C1364.61879,2763.32263 1370.81117,2777.5669 1371.43042,2777.5669 C1379.48047,2783.7601 1387.53057,2772.61236 1396.19987,2780.04418 C1400.53454,2783.7601 1397.43833,2791.81125 1405.48842,2791.81125 C1409.20384,2792.43058 1411.68081,2788.71459 1415.39623,2789.33396 C1419.11165,2789.9533 1420.96932,2794.28854 1424.68474,2794.90779 C1426.54245,2794.90779 1426.54245,2791.19188 1428.40016,2791.19188 C1434.59254,2790.57254 1440.16567,2795.52712 1446.97731,2796.1465 C1446.97731,2796.1465 1443.88105,2781.90214 1451.31189,2783.14076 C1461.83895,2784.99872 1468.03133,2792.43058 1474.84288,2798.6237 C1475.46213,2799.24303 1477.31984,2798.6237 1478.5583,2798.6237 C1481.65451,2799.24303 1485.36994,2799.24303 1487.22765,2801.10099 C1490.32382,2803.57828 1488.46611,2809.15214 1491.56228,2811.0101 L1491.56228,2811.62943 C1488.46611,2817.82254 1487.22765,2826.49303 1506.42396,2820.91921 L1506.42396,2820.91921 Z M967.069059,3279.21458 L971.403645,3297.17485 L985.026871,3297.17485 C985.026871,3295.31689 984.407663,3294.07823 984.407663,3292.22027 C983.788412,3288.50436 982.549952,3284.78845 983.788412,3281.07254 C984.407663,3279.21458 989.980795,3278.59525 989.361543,3276.73729 C985.646122,3268.06689 968.307475,3278.59525 967.069059,3279.21458 L967.069059,3279.21458 L967.069059,3279.21458 Z M1126.832,3354.15206 L1136.12055,3360.34526 C1136.12055,3354.77143 1137.35906,3348.57823 1136.7398,3343.6237 C1135.5013,3338.66912 1130.54742,3351.05552 1126.832,3354.15206 L1126.832,3354.15206 L1126.832,3354.15206 Z M1138.59752,3359.10663 L1139.83597,3357.24872 C1139.21677,3357.24872 1138.59752,3357.24872 1138.59752,3358.4873 L1138.59752,3359.10663 L1138.59752,3359.10663 Z M1575.15921,3033.96465 C1565.87066,3065.54981 1577.01688,3043.25438 1592.49782,3056.26007 C1596.83249,3059.97594 1565.25141,3090.32261 1562.77449,3089.70323 C1559.67827,3089.70323 1560.29753,3082.8907 1557.2014,3081.03279 C1547.9128,3075.45892 1547.2936,3085.36799 1544.19738,3076.07825 C1542.95892,3071.74301 1544.19738,3066.16914 1541.10121,3063.69185 C1538.62425,3061.21465 1534.90883,3065.54981 1532.43187,3064.93052 C1528.09728,3064.31119 1523.76261,3062.45323 1520.04719,3059.97594 C1519.42794,3059.3567 1520.66635,3058.11799 1521.28565,3057.49874 C1536.76654,3045.73167 1555.96285,3037.68052 1575.15921,3033.96465 L1575.15921,3033.96465 L1575.15921,3033.96465 Z M1640.17904,3034.5839 C1654.42147,3070.50439 1637.70208,3045.73167 1629.03273,3041.39643 C1625.31736,3040.15781 1620.36347,3043.25438 1616.64805,3040.7771 C1601.16716,3030.24874 1621.60193,3025.91349 1640.17904,3034.5839 L1640.17904,3034.5839 Z M1529.95495,3092.79981 C1526.23957,3096.51572 1520.66635,3096.51572 1520.66635,3099.61235 C1520.66635,3102.08963 1523.14336,3107.04417 1526.23957,3107.04417 C1529.95495,3107.04417 1532.43187,3107.04417 1537.38579,3102.70892 C1542.33967,3098.37368 1537.38579,3095.2771 1537.38579,3095.2771 L1530.57416,3092.79981 L1529.95495,3092.79981 L1529.95495,3092.79981 Z M1515.09326,3074.2203 C1510.13938,3075.45892 1508.90092,3078.55554 1506.42396,3081.65212 C1503.947,3085.36799 1500.23158,3090.94186 1505.80471,3093.41915 C1508.90092,3095.2771 1518.18948,3090.32261 1520.04719,3086.6067 C1521.28565,3083.51008 1525.00102,3082.8907 1525.00102,3079.17483 C1525.00102,3076.07825 1520.66635,3073.60097 1520.66635,3073.60097 L1515.09326,3074.2203 L1515.09326,3074.2203 Z" id="es" fill="#FFFFFF"></path>
                        <path d="M1959.70505,3274.26009 C1967.1359,3273.02138 1988.18992,3258.15778 1993.76305,3266.20894 C1996.24001,3269.92485 1988.18992,3274.26009 1989.42838,3278.59525 C1991.90534,3290.36232 2000.57464,3277.35663 1999.33618,3276.11805 C1997.47847,3274.26009 1993.1438,3277.976 1991.28609,3276.11805 C1990.00026,3274.43636 1992.21177,3273.35847 1992.8514,3272.56052 C1996.21624,3268.36283 2019.44848,3274.95254 2021.00946,3278.59525 C2022.24792,3281.07254 2013.57862,3278.59525 2012.34012,3281.07254 C2011.72091,3283.54983 2017.29404,3282.31116 2019.15175,3283.54983 C2020.39021,3285.40778 2015.43633,3286.02707 2014.81708,3287.88507 C2011.72091,3294.07823 2025.34413,3300.89076 2026.58259,3302.74872 C2029.05955,3306.46459 2027.20184,3313.27708 2030.91726,3315.75436 C2031.53643,3316.3737 2058.78284,3290.98165 2072.40606,3286.02707 C2073.64457,3286.02707 2073.64457,3287.88507 2073.64457,3288.50436 C2074.88303,3293.45894 2077.9792,3298.41347 2077.35999,3303.36805 C2076.12148,3307.70321 2071.1676,3309.56116 2068.69064,3312.65779 C2063.73676,3318.85099 2061.87909,3331.2373 2056.92513,3335.57254 C2043.9212,3347.9589 2021.00946,3346.10094 2038.34806,3376.44757 C2045.15966,3388.83388 2053.829,3386.97593 2058.16367,3390.69184 C2060.02138,3391.9305 2057.54442,3396.26575 2059.40213,3397.50437 C2063.11751,3400.60095 2069.30989,3399.36233 2073.02531,3402.4589 C2073.64457,3403.69757 2071.1676,3423.51571 2071.78686,3425.37366 C2073.02531,3429.08962 2079.83691,3430.32824 2081.07541,3433.42477 L1899.0199,3433.42477 C1899.63915,3430.32824 1889.73134,3430.32824 1889.11209,3425.993 C1886.63513,3411.12935 1892.82751,3424.13504 1893.44676,3411.12935 C1894.68522,3397.50437 1886.63513,3393.78846 1887.87363,3380.16348 C1887.87363,3375.2089 1895.92373,3337.4305 1895.30447,3336.19188 C1892.82751,3332.47592 1880.44279,3334.33392 1882.91971,3330.61797 C1887.87363,3323.80552 1895.30447,3325.0441 1900.87756,3320.08961 C1910.78537,3312.03845 1893.44676,3312.03845 1899.0199,3309.56116 C1901.49686,3308.32254 1916.3585,3308.94187 1914.50079,3303.36805 C1913.88154,3302.12934 1912.64308,3301.51001 1912.64308,3300.27139 C1912.02383,3299.65205 1912.64308,3299.03281 1912.64308,3297.7941 C1930.60098,3294.69756 1936.17407,3278.59525 1959.70505,3274.26009 Z" id="tn" fill="#87B024"></path>
                        <path d="M1912.64308,3297.7941 C1912.64308,3299.03281 1912.02383,3299.65205 1912.64308,3300.27139 C1912.64308,3301.51001 1913.88154,3302.12934 1914.50079,3303.36805 C1916.3585,3308.94187 1901.49686,3308.32254 1899.0199,3309.56116 C1893.44676,3312.03845 1910.78537,3312.03845 1900.87756,3320.08961 C1895.30447,3325.0441 1887.87363,3323.80552 1882.91971,3330.61797 C1880.44279,3334.33392 1892.82751,3332.47592 1895.30447,3336.19188 C1895.92373,3337.4305 1887.87363,3375.2089 1887.87363,3380.16348 C1886.63513,3393.78846 1894.68522,3397.50437 1893.44676,3411.12935 C1892.82751,3424.13504 1886.63513,3411.12935 1889.11209,3425.993 C1889.73134,3430.32824 1899.63915,3430.32824 1899.0199,3433.42477 L1210.42894,3433.42477 C1210.42894,3433.42477 1210.42894,3433.42477 1210.42894,3432.80553 C1209.80968,3427.85095 1200.52117,3426.61233 1200.52117,3421.65775 C1199.90192,3417.32255 1207.95197,3415.46459 1208.57123,3411.12935 C1208.57123,3408.65206 1183.18253,3386.35664 1181.32482,3379.54415 L1176.99019,3374.58961 C1176.37089,3374.58961 1175.75173,3373.97028 1175.75173,3373.97028 C1183.18253,3377.06681 1183.80178,3382.64077 1197.42496,3383.87935 C1204.2366,3383.87935 1244.48694,3369.01575 1247.58315,3365.91912 C1256.25245,3357.24872 1253.77545,3349.8169 1266.16021,3344.24299 C1281.0219,3337.4305 1290.31041,3345.48165 1292.16816,3345.48165 C1303.93363,3341.76574 1302.07592,3330.61797 1312.60293,3333.09525 C1328.08387,3337.4305 1298.3605,3341.14641 1328.08387,3344.86232 C1339.84934,3346.72028 1341.70705,3331.2373 1347.28018,3325.66348 C1353.47257,3320.08961 1404.24996,3299.65205 1411.68081,3299.03281 C1433.35408,3297.17485 1453.78886,3299.65205 1476.70059,3299.65205 C1483.51223,3299.65205 1490.32382,3295.93618 1497.13545,3296.55552 C1498.99316,3296.55552 1500.23158,3299.03281 1502.08929,3299.65205 C1505.18546,3300.89076 1508.90092,3301.51001 1511.99709,3302.12934 C1522.52406,3303.36805 1529.95495,3290.36232 1538.005,3287.26574 C1546.67434,3282.93049 1547.9128,3299.03281 1555.96285,3292.83961 C1557.82056,3291.60098 1556.5821,3288.50436 1558.43982,3287.88507 C1559.67827,3287.26574 1560.29753,3290.36232 1561.53599,3290.98165 C1565.25141,3292.22027 1569.58608,3293.45894 1573.92075,3292.83961 C1584.44772,3292.83961 1590.0209,3283.54983 1601.16716,3283.54983 C1605.50183,3282.93049 1609.83642,3286.64641 1614.79034,3287.26574 C1629.03273,3288.50436 1645.13292,3286.02707 1659.99456,3289.12369 C1676.714,3292.83961 1680.42942,3313.89641 1694.67186,3313.27708 C1720.06051,3312.03845 1701.48345,3310.79983 1712.0105,3303.36805 C1723.77593,3295.31689 1744.21075,3305.22601 1755.35701,3293.45894 C1765.26482,3282.93049 1744.83,3283.54983 1771.45716,3281.07254 C1780.12646,3280.45321 1774.55333,3287.88507 1779.50725,3290.98165 C1784.46113,3292.83961 1790.03426,3291.60098 1794.98819,3292.83961 C1795.60735,3292.83961 1795.60735,3294.07823 1796.2266,3294.07823 C1798.08431,3295.93618 1799.94202,3298.41347 1802.41899,3298.41347 C1830.90385,3301.51001 1806.13441,3295.31689 1820.37688,3282.93049 C1827.18843,3277.35663 1860.62722,3301.51001 1867.43882,3303.36805 C1873.0119,3304.60663 1882.3005,3294.69756 1887.25438,3295.93618 C1898.4006,3299.03281 1906.4507,3299.03281 1912.64308,3297.7941 L1912.64308,3297.7941 Z" id="dz" fill="#87B024"></path>
                        <path d="M2365.92417,3178.88506 C2357.87408,3183.22031 2331.24696,3247.62934 2337.43926,3256.29983 C2339.91622,3260.01574 2352.30099,3260.01574 2348.58557,3262.49303 C2345.48935,3264.35098 2346.1086,3258.15778 2344.25089,3262.49303 C2344.25089,3263.73165 2343.01239,3264.97027 2343.63164,3266.82823 C2344.87015,3271.7828 2352.30099,3274.26009 2354.1587,3279.21458 C2354.77786,3280.45321 2352.30099,3279.83392 2351.06249,3281.07254 C2347.96632,3282.93049 2344.87015,3284.78845 2343.01239,3287.88507 C2341.15468,3290.98165 2340.53547,3294.69756 2339.91622,3297.7941 C2339.29697,3301.51001 2341.77393,3306.46459 2339.91622,3309.56116 C2338.67776,3311.41912 2336.82005,3303.36805 2325.05458,3303.9873 C2312.05056,3305.22601 2317.62374,3309.56116 2300.28513,3301.51001 C2292.85425,3298.41347 2290.99654,3284.78845 2282.94649,3279.83392 C2271.80018,3273.02138 2261.89242,3279.83392 2249.50774,3274.87934 C2247.65003,3274.26009 2245.79232,3273.64076 2243.93461,3272.40214 C2241.45764,3270.54409 2240.21918,3266.20894 2237.12297,3264.97027 C2234.64601,3263.11232 2231.54984,3264.97027 2228.45367,3263.73165 C2216.06895,3259.3964 2207.39964,3247.62934 2193.77646,3243.91347 C2188.20329,3242.67485 2182.01095,3248.24867 2176.43782,3245.77138 C2175.19931,3245.15213 2160.33767,3229.04982 2160.95692,3226.57253 C2160.95692,3224.09525 2164.67234,3222.85662 2164.67234,3220.99867 C2165.29151,3219.14076 2162.81463,3218.52138 2162.81463,3216.66347 C2162.81463,3214.18622 2164.05309,3211.0896 2165.9108,3208.61231 C2167.76847,3206.13507 2171.48389,3205.51573 2173.96085,3203.03844 C2177.05702,3200.5612 2180.15324,3191.27138 2182.63016,3194.36804 C2183.86866,3196.22595 2185.72637,3208.61231 2191.2995,3207.99302 C2212.35353,3204.8964 2191.2995,3189.41346 2217.92666,3190.65213 C2224.73829,3190.65213 2219.16507,3198.08391 2222.88058,3199.94187 C2225.35746,3201.18049 2229.07288,3198.08391 2232.16909,3199.32253 C2234.0268,3199.94187 2233.40755,3203.65778 2234.64601,3204.27711 C2238.36147,3206.75436 2243.31535,3209.23164 2247.65003,3209.23164 C2248.26919,3209.23164 2263.75013,3201.79982 2263.75013,3201.79982 C2268.70405,3201.18049 2279.23102,3204.8964 2286.66191,3203.03844 C2302.14284,3199.94187 2301.52359,3193.74867 2309.57364,3189.41346 C2328.15071,3179.5044 2314.52752,3193.12933 2332.48538,3191.89075 C2344.87015,3191.27138 2336.2008,3184.45893 2341.15468,3179.5044 C2343.01239,3177.6464 2343.01239,3185.07826 2344.87015,3184.45893 C2356.01641,3181.98164 2356.01641,3172.07253 2365.92417,3178.88506 L2365.92417,3178.88506 Z M1957.22809,2950.35669 C1959.0858,2959.02709 1986.33221,2957.16913 1982.61683,2970.79416 C1981.99754,2974.51007 1971.47052,2973.27145 1972.70903,2977.60669 C1973.94749,2981.94193 1982.61683,2980.70322 1985.71296,2984.41914 C1986.95142,2985.6578 1982.61683,2986.27709 1982.61683,2988.13505 C1986.33221,3010.43052 1991.90534,2978.84527 1993.1438,3008.5726 C1993.76305,3019.10096 1982.61683,3022.81687 1979.52057,3031.48736 C1976.42445,3039.53847 1985.71296,3039.53847 1986.95142,3046.35096 C1986.95142,3048.82825 1983.85525,3051.30554 1983.85525,3054.40212 C1981.99754,3074.83963 1984.4745,3103.32826 1972.70903,3123.76573 C1972.08978,3125.00439 1972.70903,3121.90777 1971.47052,3121.28848 C1962.80122,3118.19186 1951.655,3109.52146 1941.12795,3110.1407 C1939.27024,3110.1407 1945.46262,3112.61803 1945.46262,3114.47595 C1944.84337,3116.95324 1941.7472,3118.19186 1941.12795,3121.28848 C1937.41252,3135.53279 1947.32033,3133.05555 1929.98168,3141.10662 C1905.83144,3152.25439 1920.69317,3129.33959 1908.92766,3124.38506 C1905.83144,3123.14644 1902.73527,3128.10097 1899.0199,3128.10097 C1896.54293,3128.10097 1906.4507,3127.48164 1907.06995,3124.38506 C1907.06995,3120.04981 1900.87756,3117.57261 1899.63915,3113.85661 C1895.92373,3101.4703 1904.59298,3093.41915 1906.4507,3082.8907 C1907.06995,3078.55554 1904.59298,3074.83963 1905.83144,3070.50439 C1906.4507,3066.78848 1913.26233,3064.93052 1912.02383,3061.21465 C1911.40462,3058.11799 1904.59298,3061.21465 1902.73527,3058.73736 C1900.87756,3055.64078 1903.97373,3051.92483 1903.97373,3048.82825 C1903.97373,3048.20892 1901.49686,3048.20892 1902.11602,3047.58963 C1903.35457,3045.73167 1907.06995,3046.35096 1908.30841,3043.87372 C1910.78537,3037.68052 1901.49686,3007.33389 1897.78144,3002.99874 C1890.35055,2994.94758 1885.39667,3021.57825 1887.25438,2990.61234 C1887.87363,2986.27709 1892.20826,2983.18051 1892.82751,2978.84527 C1893.44676,2976.36798 1890.35055,2973.89078 1892.20826,2972.03282 C1892.82751,2971.41349 1897.16219,2984.41914 1908.30841,2984.41914 C1917.59696,2985.03847 1951.655,2957.16913 1957.22809,2950.35669 L1957.22809,2950.35669 Z M2212.35353,2516.83398 C2211.11507,2529.22038 2195.63417,2526.7431 2194.39563,2536.65216 C2193.15721,2544.08399 2207.39964,2542.84532 2210.49581,2545.32261 C2214.83049,2549.03848 2203.06497,2553.9931 2201.20726,2559.56692 C2198.7303,2567.61808 2208.6381,2558.94759 2209.87656,2562.04421 C2211.11507,2565.14079 2204.30343,2573.19194 2208.6381,2575.66923 C2214.83049,2579.38514 2239.59993,2594.24875 2217.92666,2593.01012 C2219.16507,2589.9135 2219.16507,2587.43621 2216.6882,2584.33963 C2204.92268,2573.19194 2205.54193,2578.14643 2198.7303,2586.81692 C2199.34955,2586.19759 2199.34955,2585.57826 2199.34955,2585.57826 C2199.34955,2579.38514 2187.58408,2578.14643 2182.01095,2580.62372 C2178.91473,2582.48168 2182.01095,2589.29417 2179.53399,2591.77146 C2177.05702,2594.24875 2172.72235,2592.39079 2169.00693,2593.62941 C2160.33767,2597.34532 2152.28758,2607.25439 2142.37977,2609.11235 C2139.28365,2609.73168 2136.18743,2606.63515 2133.71051,2608.4931 C2131.23355,2609.11235 2133.71051,2612.82826 2132.47201,2615.30555 C2131.8528,2617.1635 2129.99509,2619.64079 2128.75659,2621.49875 C2129.37584,2620.87942 2129.37584,2620.26008 2129.99509,2620.26008 C2133.09126,2620.26008 2130.6143,2627.07262 2133.09126,2628.31124 C2134.32972,2628.93057 2134.94897,2624.59533 2136.18743,2625.83399 C2137.42594,2628.31124 2139.90281,2633.26582 2137.42594,2635.12373 C2136.18743,2635.74302 2135.56822,2636.98168 2136.18743,2638.22031 C2136.80668,2638.83964 2138.0451,2637.60106 2139.28365,2637.60106 C2142.99902,2640.69759 2149.19141,2642.55555 2149.81062,2646.89079 C2153.52604,2664.23169 2138.66439,2657.41915 2134.32972,2667.9476 C2133.09126,2671.04418 2141.14136,2704.48738 2142.99902,2708.20329 C2146.71445,2714.39645 2190.06104,2745.36236 2198.7303,2750.31689 C2207.39964,2755.27147 2209.87656,2752.17485 2217.92666,2758.98738 C2226.59596,2766.4192 2238.36147,2815.34534 2245.17307,2827.73166 C2251.9847,2840.73739 2266.22709,2852.50437 2277.37331,2861.17486 C2281.08873,2863.65215 2286.66191,2864.27144 2289.75808,2867.36806 C2291.61579,2868.60668 2289.75808,2872.32255 2290.99654,2873.56126 C2307.71593,2890.90215 2339.29697,2885.32828 2359.11254,2882.23166 C2363.44721,2881.61233 2372.73576,2874.79984 2378.30889,2880.99304 C2393.78979,2898.33397 2347.34706,2904.52713 2370.87805,2920.6294 C2393.17058,2935.49304 2424.13241,2934.25438 2447.04414,2946.02144 C2455.09424,2950.35669 2458.19041,2957.16913 2467.47892,2960.26576 C2474.90976,2963.36233 2495.34458,2966.45896 2501.53696,2971.41349 C2504.01388,2973.27145 2501.53696,2977.60669 2503.39467,2979.46465 C2510.82551,2989.993 2530.64108,2988.13505 2536.83342,3009.81118 C2539.31038,3017.86234 2533.73725,3015.38505 2531.87954,3020.95892 C2530.64108,3024.05554 2532.49879,3036.44185 2530.02183,3037.68052 C2527.54487,3039.53847 2523.21019,3037.68052 2519.49477,3035.82261 C2500.29846,3028.39078 2508.34855,3017.24301 2498.44075,3004.23736 C2492.86761,2996.80554 2474.90976,3004.23736 2465.62121,3001.14078 C2453.23653,2996.80554 2446.42489,2982.56118 2434.65938,2994.94758 C2433.42096,2996.80554 2417.94002,3027.77145 2417.94002,3029.01007 C2417.94002,3030.86798 2421.03619,3032.72594 2420.41694,3035.20323 C2417.94002,3046.9703 2405.5553,3046.35096 2416.08231,3059.97594 C2422.2747,3067.40777 2424.13241,3060.59532 2430.944,3062.45323 C2438.3748,3064.93052 2443.32872,3072.36234 2450.14031,3075.45892 C2452.61728,3076.69759 2456.3327,3075.45892 2457.57116,3077.93621 C2458.80966,3079.79417 2455.09424,3082.27145 2455.09424,3084.74866 C2455.71345,3102.08963 2463.7635,3085.98737 2462.52508,3108.28279 C2461.90579,3121.28848 2437.13634,3116.3339 2425.99012,3129.33959 C2417.94002,3138.62941 2428.46704,3147.91915 2425.99012,3159.06688 C2424.13241,3168.35662 2417.94002,3165.87942 2411.74764,3170.83391 C2396.886,3183.8396 2407.41297,3213.56689 2376.45118,3204.8964 C2370.2588,3203.03844 2363.44721,3186.93622 2367.16263,3180.12369 C2369.63959,3176.40777 2375.83197,3177.02711 2378.92814,3173.93049 C2380.78586,3171.45324 2380.78586,3167.73737 2381.40511,3164.64075 C2382.02427,3161.54417 2384.50123,3159.06688 2383.88198,3155.97031 C2383.26282,3152.25439 2377.07043,3150.39644 2377.68969,3146.68048 C2380.16656,3135.53279 2395.02829,3141.72595 2399.36292,3135.53279 C2409.88993,3123.14644 2397.50521,3121.28848 2392.55133,3114.47595 C2387.5974,3107.04417 2390.07437,3096.51572 2386.35894,3088.46465 C2384.50123,3083.51008 2382.02427,3079.17483 2378.92814,3075.45892 C2378.30889,3074.2203 2375.83197,3074.2203 2374.59347,3072.98168 C2363.44721,3056.26007 2375.21272,3066.16914 2367.78188,3047.58963 C2358.49328,3024.05554 2352.92015,3035.82261 2334.34309,3037.06118 C2333.72384,3037.06118 2334.96234,3035.20323 2334.34309,3033.96465 C2331.86613,3031.48736 2328.77,3028.39078 2325.05458,3026.53283 C2321.33916,3024.67487 2313.90832,3026.53283 2311.43135,3022.19758 C2308.95439,3017.86234 2316.38523,3013.52709 2315.76603,3008.5726 C2315.14677,3003.61798 2311.43135,2999.28282 2308.95439,2995.56691 C2294.09275,2975.1294 2291.61579,3003.61798 2274.27718,2997.42487 C2272.41947,2996.80554 2286.04266,2986.89642 2279.85027,2982.56118 C2257.55779,2966.45896 2279.23102,2983.18051 2255.08083,2980.08398 C2253.22312,2979.46465 2255.08083,2976.36798 2254.46158,2974.51007 C2251.9847,2967.07825 2238.98068,2947.26011 2232.7883,2944.78282 C2216.06895,2938.58962 2229.07288,2950.35669 2223.49975,2949.11806 C2217.92666,2947.8794 2212.97278,2941.06691 2206.78039,2941.6862 C2201.20726,2942.92486 2196.87259,2950.35669 2191.91875,2949.11806 C2186.34558,2947.8794 2186.96483,2939.82824 2183.24941,2936.11233 C2178.91473,2932.39642 2167.76847,2933.63509 2164.05309,2931.1578 L2154.76454,2918.15215 C2150.42987,2914.4362 2143.61832,2913.81691 2139.90281,2909.48166 C2132.47201,2898.33397 2141.14136,2900.19193 2132.47201,2893.37939 C2128.75659,2890.28282 2124.42192,2887.80553 2120.08729,2885.32828 C2118.84879,2884.70895 2116.37191,2886.5669 2115.13336,2885.94757 C2108.32182,2880.3737 2108.32182,2869.84535 2101.51018,2864.27144 C2089.74467,2854.36237 2082.31387,2861.79419 2069.92914,2856.83961 C2068.07143,2856.22032 2073.02531,2854.36237 2074.26377,2853.1237 C2077.9792,2848.16921 2070.54835,2840.11806 2068.69064,2838.2601 C2067.45218,2837.02143 2064.97522,2838.2601 2063.73676,2837.02143 C2061.87909,2834.54419 2061.87909,2830.82828 2059.40213,2828.97032 C2056.30596,2826.49303 2050.11358,2828.35099 2047.63662,2824.63508 C2045.77891,2822.15779 2051.35204,2817.2033 2048.25587,2815.34534 C2044.54045,2812.24872 2038.34806,2815.96459 2033.39414,2814.10668 C2030.29801,2812.86805 2035.25194,2807.29419 2035.25194,2803.57828 C2037.10965,2791.19188 2035.25194,2786.85667 2028.4403,2776.32827 C2015.43633,2757.74872 2024.72488,2741.02712 2009.24395,2726.7828 C2008.00553,2724.92485 2005.52857,2724.30556 2003.67086,2723.68622 C2003.05161,2723.68622 2002.43231,2725.54418 2001.81315,2724.92485 C1998.71693,2723.68622 1996.85922,2719.97031 1993.76305,2719.97031 C1991.90534,2719.97031 1995.62076,2725.54418 1993.76305,2724.92485 C1988.80917,2723.68622 1985.09371,2719.97031 1980.75912,2716.87378 C1978.90141,2715.63507 1963.42047,2699.53284 1958.46655,2699.53284 C1957.22809,2699.53284 1959.0858,2702.62942 1957.84739,2703.24876 C1956.60884,2703.86804 1954.75113,2703.24876 1954.13188,2702.01009 C1951.03575,2698.29418 1938.03178,2692.10098 1931.83939,2692.10098 C1929.36243,2692.10098 1913.26233,2701.3908 1912.02383,2703.86804 C1910.78537,2706.34533 1912.64308,2710.06124 1910.78537,2711.91916 C1908.92766,2714.39645 1903.97373,2713.77711 1902.11602,2715.63507 C1897.78144,2719.97031 1894.68522,2729.87942 1889.73134,2734.21467 C1881.68125,2742.26574 1867.43882,2741.64649 1858.15026,2742.88507 C1855.05409,2731.73738 1876.10812,2717.49302 1866.81961,2710.68058 C1863.72339,2708.82262 1859.38872,2711.29982 1855.6733,2711.91916 C1851.95788,2711.91916 1847.62321,2713.77711 1843.90779,2712.53853 C1837.09624,2710.68058 1820.99605,2698.91351 1821.6153,2690.24302 C1821.6153,2689.0044 1824.71147,2689.0044 1824.71147,2687.76582 C1824.09226,2685.90786 1817.89992,2684.04991 1819.75763,2680.33395 C1822.2346,2677.85671 1825.33072,2675.99875 1827.18843,2672.90213 C1827.80768,2672.28284 1825.94997,2671.04418 1826.56918,2669.80555 C1827.18843,2667.9476 1832.76156,2671.04418 1833.38082,2669.18622 C1833.38082,2664.23169 1832.76156,2659.27711 1830.90385,2655.56124 C1827.80768,2650.60671 1807.37287,2642.55555 1808.61137,2632.64644 C1808.61137,2629.5499 1814.1845,2629.5499 1817.28067,2628.93057 C1819.13834,2628.93057 1820.37688,2632.64644 1822.2346,2632.02711 C1825.33072,2631.40786 1845.14633,2615.30555 1842.05012,2609.73168 C1840.19241,2606.01581 1834.00007,2605.39644 1832.14231,2601.06119 C1830.2846,2598.58399 1832.76156,2594.24875 1831.52311,2591.77146 C1822.85376,2576.90786 1806.75366,2584.33963 1835.23853,2567.61808 C1841.43091,2578.76581 1858.15026,2566.37941 1866.20036,2564.52146 C1871.77349,2563.28283 1876.10812,2570.71466 1881.68125,2570.71466 C1882.3005,2570.71466 1899.63915,2552.75439 1899.63915,2549.65785 C1900.25831,2546.56127 1894.68522,2545.32261 1895.30447,2542.84532 C1896.54293,2539.12941 1901.49686,2537.89079 1904.59298,2535.4135 C1907.68915,2532.93625 1910.16612,2530.45896 1913.26233,2527.98167 C1914.50079,2527.36234 1915.73925,2526.12372 1916.3585,2526.7431 C1917.59696,2530.45896 1916.97775,2534.17487 1916.97775,2537.89079 C1916.97775,2539.74874 1915.12004,2542.22603 1915.73925,2544.70332 C1920.07392,2552.75439 1929.98168,2554.61234 1936.79327,2557.08963 C1937.41252,2557.08963 1938.65098,2558.32826 1938.65098,2559.56692 C1938.03178,2562.04421 1933.6971,2563.90217 1934.31635,2566.37941 C1934.93556,2568.8567 1939.27024,2567.61808 1941.12795,2569.47603 C1943.60491,2572.57261 1944.84337,2583.10101 1948.55879,2580.00439 C1959.0858,2571.95328 1946.70108,2574.43057 1946.70108,2568.23737 C1946.70108,2554.61234 1961.56276,2550.89643 1964.03968,2539.74874 C1964.03968,2538.51012 1957.22809,2521.78847 1967.7551,2523.64643 C1975.8052,2524.88514 1965.89739,2537.27145 1981.99754,2540.98736 C1991.90534,2544.08399 1983.85525,2531.69759 2000.57464,2534.79421 C2005.52857,2535.4135 2003.05161,2545.32261 2007.38628,2547.7999 C2009.86324,2549.03848 2014.81708,2546.56127 2014.19783,2544.08399 C2012.95937,2542.22603 2010.4824,2540.98736 2009.86324,2538.51012 C2009.86324,2536.03283 2013.57862,2534.17487 2012.95937,2531.69759 C2011.72091,2528.60101 2000.57464,2521.78847 2009.24395,2515.59536 C2020.39021,2507.54421 2016.05554,2525.50439 2029.05955,2522.40785 C2036.49035,2519.93056 2024.72488,2511.26012 2024.72488,2510.02145 C2025.96334,2507.54421 2027.82105,2505.68625 2028.4403,2503.20896 C2029.67872,2500.73167 2029.05955,2497.63514 2029.67872,2495.15785 L2029.67872,2495.15785 C2039.58652,2500.11243 2030.91726,2493.91923 2040.82503,2495.15785 C2045.77891,2495.77718 2050.73283,2508.78283 2060.64055,2503.20896 L2068.69064,2486.4874 C2073.64457,2482.77149 2095.3178,2485.24874 2100.89097,2484.62945 C2110.17953,2484.01011 2117.61033,2475.95896 2126.89888,2475.95896 C2129.37584,2475.95896 2122.56421,2479.05554 2121.945,2481.53283 C2118.84879,2494.53847 2126.89888,2485.86807 2131.8528,2493.29989 C2133.09126,2495.15785 2129.99509,2497.63514 2131.23355,2500.11243 C2131.8528,2501.35101 2133.71051,2498.87372 2134.94897,2500.11243 C2146.71445,2508.78283 2149.81062,2510.02145 2165.9108,2512.49874 C2181.3917,2514.3567 2196.87259,2515.59536 2212.35353,2516.83398 L2212.35353,2516.83398 Z M2144.85673,2732.35671 C2146.09519,2730.49876 2146.09519,2728.02147 2147.9529,2726.7828 C2152.90683,2721.82827 2151.66833,2741.02712 2144.85673,2732.35671 L2144.85673,2732.35671 Z" id="it" fill="#87B024"></path>
                        <path d="M2029.67872,2495.15785 C2029.05955,2497.63514 2029.67872,2500.73167 2028.4403,2503.20896 C2027.82105,2505.68625 2025.96334,2507.54421 2024.72488,2510.02145 C2024.72488,2511.26012 2036.49035,2519.93056 2029.05955,2522.40785 C2016.05554,2525.50439 2020.39021,2507.54421 2009.24395,2515.59536 C2000.57464,2521.78847 2011.72091,2528.60101 2012.95937,2531.69759 C2013.57862,2534.17487 2009.86324,2536.03283 2009.86324,2538.51012 C2010.4824,2540.98736 2012.95937,2542.22603 2014.19783,2544.08399 C2014.81708,2546.56127 2009.86324,2549.03848 2007.38628,2547.7999 C2003.05161,2545.32261 2005.52857,2535.4135 2000.57464,2534.79421 C1983.85525,2531.69759 1991.90534,2544.08399 1981.99754,2540.98736 C1965.89739,2537.27145 1975.8052,2524.88514 1967.7551,2523.64643 C1957.22809,2521.78847 1964.03968,2538.51012 1964.03968,2539.74874 C1961.56276,2550.89643 1946.70108,2554.61234 1946.70108,2568.23737 C1946.70108,2574.43057 1959.0858,2571.95328 1948.55879,2580.00439 C1944.84337,2583.10101 1943.60491,2572.57261 1941.12795,2569.47603 C1939.27024,2567.61808 1934.93556,2568.8567 1934.31635,2566.37941 C1933.6971,2563.90217 1938.03178,2562.04421 1938.65098,2559.56692 C1938.65098,2558.32826 1937.41252,2557.08963 1936.79327,2557.08963 C1929.98168,2554.61234 1920.07392,2552.75439 1915.73925,2544.70332 C1915.12004,2542.22603 1916.97775,2539.74874 1916.97775,2537.89079 C1916.97775,2534.17487 1917.59696,2530.45896 1916.3585,2526.7431 C1915.73925,2526.12372 1914.50079,2527.36234 1913.26233,2527.98167 C1910.16612,2530.45896 1907.68915,2532.93625 1904.59298,2535.4135 C1901.49686,2537.89079 1896.54293,2539.12941 1895.30447,2542.84532 C1894.68522,2545.32261 1900.25831,2546.56127 1899.63915,2549.65785 C1899.63915,2552.75439 1882.3005,2570.71466 1881.68125,2570.71466 C1876.10812,2570.71466 1871.77349,2563.28283 1866.20036,2564.52146 C1858.15026,2566.37941 1841.43091,2578.76581 1835.23853,2567.61808 C1832.76156,2563.90217 1832.76156,2559.56692 1829.66539,2556.4703 C1829.04614,2555.23168 1826.56918,2558.94759 1825.94997,2557.70897 C1825.33072,2555.85101 1828.42689,2552.75439 1827.18843,2550.89643 C1826.56918,2549.03848 1822.85376,2550.89643 1821.6153,2549.65785 C1817.89992,2543.46465 1826.56918,2544.08399 1825.94997,2540.36807 C1825.33072,2537.27145 1821.6153,2536.03283 1821.6153,2532.93625 C1820.99605,2531.0783 1825.94997,2527.36234 1823.47301,2526.7431 C1815.42296,2523.02718 1798.08431,2523.02718 1792.51123,2531.69759 C1791.27277,2532.93625 1791.89193,2534.17487 1791.89193,2536.03283 C1792.51123,2537.27145 1795.60735,2538.51012 1794.98819,2539.74874 C1791.27277,2547.18056 1782.60342,2550.27719 1775.17258,2548.41923 C1774.55333,2548.41923 1777.64954,2547.18056 1777.64954,2545.94194 C1777.64954,2537.89079 1783.84188,2540.98736 1784.46113,2539.12941 C1787.55734,2529.22038 1779.50725,2520.5499 1786.93809,2511.26012 C1791.27277,2505.06692 1802.41899,2505.06692 1804.89595,2498.25447 C1806.75366,2494.53847 1803.03824,2488.96465 1804.89595,2484.62945 C1807.37287,2479.67487 1816.04221,2481.53283 1819.75763,2477.19758 C1824.09226,2473.48167 1829.04614,2461.09536 1834.61928,2456.76011 C1837.71549,2454.28282 1840.81166,2461.09536 1841.43091,2452.42487 C1841.43091,2449.32829 1832.14231,2455.52149 1831.52311,2452.42487 C1830.2846,2449.32829 1835.23853,2446.851 1837.09624,2444.37371 C1837.09624,2444.37371 1838.3347,2444.99305 1838.3347,2444.37371 C1838.3347,2443.13513 1835.85778,2440.65784 1837.09624,2440.03855 C1854.43484,2435.08398 1847.00404,2458.61807 1868.05807,2436.94193 C1868.67732,2436.94193 1869.91578,2435.70331 1870.53503,2434.46464 L1871.77349,2433.22602 C1873.0119,2432.60669 1874.25045,2432.60669 1875.48887,2433.84535 C1876.10812,2434.46464 1871.77349,2435.08398 1872.39274,2436.32264 C1874.25045,2440.03855 1902.73527,2433.22602 1904.59298,2433.22602 C1916.97775,2432.60669 1905.83144,2444.37371 1921.31238,2436.32264 C1921.93163,2435.70331 1920.07392,2432.60669 1921.31238,2431.9874 C1923.17005,2430.74873 1929.98168,2430.12944 1927.50472,2429.51011 C1923.78934,2428.89078 1920.07392,2430.12944 1916.3585,2429.51011 C1914.50079,2428.89078 1925.02776,2412.16922 1934.31635,2421.45895 C1935.55481,2422.69766 1932.45864,2425.17487 1933.07785,2427.03282 C1933.6971,2428.27149 1936.17407,2428.89078 1937.41252,2428.27149 C1938.65098,2427.65215 1936.79327,2423.31691 1937.41252,2424.55558 C1939.88949,2425.7942 1939.88949,2430.12944 1942.36645,2431.36807 C1942.36645,2431.36807 1962.80122,2430.12944 1963.42047,2430.12944 C1969.61281,2431.36807 1973.94749,2437.56127 1979.52057,2440.65784 L1979.52057,2441.27718 C1979.52057,2445.61242 1987.57067,2446.851 1985.09371,2453.0442 C1984.4745,2454.28282 1981.99754,2453.66353 1981.37829,2454.28282 C1979.52057,2457.37945 1973.32828,2479.67487 1974.56674,2480.2942 C1975.8052,2480.91349 1996.24001,2482.77149 1996.85922,2482.77149 C1998.09772,2484.01011 1995.00151,2485.86807 1996.24001,2487.10669 C1999.33618,2490.8226 2003.05161,2493.29989 2007.38628,2495.15785 C2017.29404,2500.11243 2019.15175,2483.39078 2025.96334,2484.62945 C2027.82105,2484.62945 2029.05955,2485.24874 2030.29801,2485.86807 L2029.67872,2491.44194 C2029.05955,2493.29989 2028.4403,2494.53847 2029.67872,2495.15785 L2029.67872,2495.15785 Z" id="ch" fill="#87B024"></path>
                        <path d="M1506.42396,2820.91921 C1478.5583,2828.97032 1494.03924,2806.05552 1495.27774,2806.05552 C1511.37784,2804.8169 1512.61634,2812.86805 1506.42396,2820.91921 L1506.42396,2820.91921 Z" id="ad" fill="#87B024"></path>
                        <path d="M1637.70208,2165.06129 C1642.65596,2165.06129 1645.75217,2156.3908 1649.46759,2158.24875 C1657.51769,2161.34538 1653.80227,2175.58964 1656.27914,2180.54427 C1659.99456,2189.21467 1673.61779,2179.30556 1675.4755,2189.21467 C1676.09475,2191.69196 1674.23704,2194.78853 1674.85629,2197.26582 C1676.09475,2202.22031 1701.48345,2196.0272 1702.72191,2206.55556 C1702.72191,2210.27147 1697.76803,2213.36809 1697.76803,2217.084 C1697.14878,2219.56129 1702.1027,2219.56129 1702.1027,2221.41925 C1702.1027,2224.51583 1699.00649,2226.37378 1697.14878,2229.47032 C1695.29106,2233.18623 1715.72592,2238.1408 1724.39518,2230.08965 C1728.72986,2226.37378 1732.44528,2215.22605 1736.77995,2218.94196 C1738.01841,2220.18058 1734.92224,2222.03854 1734.30299,2223.89649 C1733.68374,2226.37378 1731.20682,2228.85107 1731.20682,2231.9476 C1731.20682,2234.42489 1734.92224,2235.04427 1735.5414,2237.52147 C1735.5414,2240.61809 1730.58757,2244.334 1733.06453,2246.81125 C1735.5414,2250.5272 1741.73379,2248.66921 1746.06846,2250.5272 C1748.54542,2252.38516 1749.16463,2256.10107 1751.64159,2257.95903 C1752.26084,2258.57827 1754.11855,2256.10107 1755.35701,2256.72032 C1756.59552,2257.33969 1757.21472,2258.57827 1757.83397,2259.81698 C1757.83397,2260.43623 1754.73776,2261.6749 1755.35701,2262.29419 C1757.21472,2263.53285 1760.31094,2262.29419 1761.5494,2264.15214 C1763.40711,2266.62943 1760.93014,2272.2033 1764.02636,2273.44196 C1767.74178,2275.29992 1772.07641,2270.96467 1776.41104,2271.58401 C1778.26875,2271.58401 1780.12646,2272.2033 1781.98417,2272.82263 C1785.08038,2274.06125 1787.55734,2275.29992 1790.03426,2276.53854 C1790.65351,2277.15787 1790.03426,2279.63508 1790.65351,2279.01583 C1794.36889,2279.01583 1797.46506,2275.91921 1800.56128,2275.91921 C1804.2767,2275.91921 1807.99212,2277.77716 1811.08829,2279.01583 C1812.32679,2280.87379 1816.04221,2279.01583 1817.89992,2280.87379 C1822.85376,2283.97032 1825.94997,2298.21468 1832.14231,2304.40788 C1839.5732,2312.45903 1827.18843,2287.06699 1845.7655,2303.78854 C1847.00404,2305.02717 1844.52708,2307.50445 1845.14633,2309.36241 C1846.38475,2311.22032 1866.20036,2303.16921 1869.29653,2305.6465 C1871.15419,2307.50445 1869.91578,2311.22032 1871.77349,2313.07828 C1874.25045,2314.93623 1911.40462,2319.27148 1908.92766,2323.60672 C1902.11602,2335.37379 1889.73134,2342.80557 1884.77742,2352.71468 C1882.91971,2357.04988 1882.3005,2370.67486 1881.68125,2374.39082 L1873.0119,2388.63513 C1871.77349,2391.73175 1870.53503,2394.82829 1871.15419,2397.92486 C1871.15419,2399.78282 1873.63116,2399.78282 1873.63116,2401.02149 C1873.0119,2409.69193 1866.81961,2417.74304 1867.43882,2426.41353 C1867.43882,2434.46464 1867.43882,2436.94193 1868.05807,2436.94193 C1847.00404,2458.61807 1854.43484,2435.08398 1837.09624,2440.03855 C1835.85778,2440.65784 1838.3347,2443.13513 1838.3347,2444.37371 C1835.23853,2446.851 1830.2846,2449.32829 1831.52311,2452.42487 C1832.14231,2455.52149 1841.43091,2449.32829 1841.43091,2452.42487 C1840.81166,2461.09536 1837.71549,2454.28282 1834.61928,2456.76011 C1829.04614,2461.09536 1824.09226,2473.48167 1819.75763,2477.19758 C1816.04221,2481.53283 1807.37287,2479.67487 1804.89595,2484.62945 C1803.03824,2488.96465 1806.75366,2494.53847 1804.89595,2498.25447 C1802.41899,2505.06692 1791.27277,2505.06692 1786.93809,2511.26012 C1779.50725,2520.5499 1787.55734,2529.22038 1784.46113,2539.12941 C1783.84188,2540.98736 1777.64954,2537.89079 1777.64954,2545.94194 C1777.64954,2547.18056 1774.55333,2548.41923 1775.17258,2548.41923 C1782.60342,2550.27719 1791.27277,2547.18056 1794.98819,2539.74874 C1795.60735,2538.51012 1792.51123,2537.27145 1791.89193,2536.03283 C1791.89193,2534.17487 1791.27277,2532.93625 1792.51123,2531.69759 C1798.08431,2523.02718 1815.42296,2523.02718 1823.47301,2526.7431 C1825.94997,2527.36234 1820.99605,2531.0783 1821.6153,2532.93625 C1821.6153,2536.03283 1825.33072,2537.27145 1825.94997,2540.36807 C1826.56918,2544.08399 1817.89992,2543.46465 1821.6153,2549.65785 C1822.85376,2550.89643 1826.56918,2549.03848 1827.18843,2550.89643 C1828.42689,2552.75439 1825.33072,2555.85101 1825.94997,2557.70897 C1826.56918,2558.94759 1829.04614,2555.23168 1829.66539,2556.4703 C1832.76156,2559.56692 1832.76156,2563.90217 1835.23853,2567.61808 C1806.75366,2584.33963 1822.85376,2576.90786 1831.52311,2591.77146 C1832.76156,2594.24875 1830.2846,2598.58399 1832.14231,2601.06119 C1834.00007,2605.39644 1840.19241,2606.01581 1842.05012,2609.73168 C1845.14633,2615.30555 1825.33072,2631.40786 1822.2346,2632.02711 C1820.37688,2632.64644 1819.13834,2628.93057 1817.28067,2628.93057 C1814.1845,2629.5499 1808.61137,2629.5499 1808.61137,2632.64644 C1807.37287,2642.55555 1827.80768,2650.60671 1830.90385,2655.56124 C1832.76156,2659.27711 1833.38082,2664.23169 1833.38082,2669.18622 C1832.76156,2671.04418 1827.18843,2667.9476 1826.56918,2669.80555 C1825.94997,2671.04418 1827.80768,2672.28284 1827.18843,2672.90213 C1825.33072,2675.99875 1822.2346,2677.85671 1819.75763,2680.33395 C1817.89992,2684.04991 1824.09226,2685.90786 1824.71147,2687.76582 C1824.71147,2689.0044 1821.6153,2689.0044 1821.6153,2690.24302 C1820.99605,2698.91351 1837.09624,2710.68058 1843.90779,2712.53853 C1847.62321,2713.77711 1851.95788,2711.91916 1855.6733,2711.91916 C1859.38872,2711.29982 1863.72339,2708.82262 1866.81961,2710.68058 C1876.10812,2717.49302 1855.05409,2731.73738 1858.15026,2742.88507 C1857.53101,2742.88507 1847.00404,2746.60098 1845.7655,2747.83965 C1841.43091,2748.45894 1837.09624,2749.07827 1834.61928,2751.55556 C1832.76156,2753.41352 1835.85778,2757.74872 1833.38082,2759.60667 C1830.90385,2761.46467 1826.56918,2758.98738 1823.47301,2760.84534 C1820.99605,2762.70329 1821.6153,2767.65778 1818.51917,2770.13507 C1816.04221,2771.3737 1812.946,2768.27712 1810.46908,2769.51574 C1808.61137,2770.13507 1809.84983,2773.23165 1807.99212,2775.08961 C1806.13441,2777.5669 1801.18048,2778.18623 1799.94202,2781.28281 C1799.32277,2783.7601 1804.89595,2787.47601 1802.41899,2789.33396 C1799.32277,2792.43058 1793.13048,2789.33396 1788.7958,2789.9533 C1783.22267,2791.19188 1779.50725,2796.76574 1774.55333,2798.6237 C1768.9802,2800.48165 1773.31487,2791.81125 1760.93014,2791.19188 C1752.88005,2790.57254 1761.5494,2794.28854 1760.31094,2795.52712 C1759.07243,2796.76574 1756.59552,2796.76574 1754.73776,2796.1465 C1752.88005,2796.1465 1751.02234,2796.1465 1750.40313,2794.90779 C1750.40313,2793.66921 1754.73776,2790.57254 1746.06846,2786.23738 C1744.21075,2785.61805 1742.35304,2786.23738 1739.87608,2786.23738 C1735.5414,2784.99872 1730.58757,2785.61805 1727.4914,2782.52147 C1724.39518,2779.42485 1727.4914,2773.23165 1725.01443,2770.13507 C1723.77593,2768.27712 1721.29901,2772.61236 1718.82205,2772.61236 C1715.10663,2772.61236 1707.67583,2773.85098 1708.295,2770.13507 C1708.91429,2765.18058 1720.06051,2767.03854 1720.67976,2762.08396 C1720.67976,2757.12943 1713.86821,2753.41352 1709.53354,2754.0328 C1705.81812,2754.65214 1712.62967,2761.46467 1710.77196,2763.94187 C1707.67583,2767.03854 1702.72191,2768.89649 1698.38728,2768.27712 C1688.47952,2767.65778 1691.57564,2750.31689 1689.71793,2752.79418 C1681.04867,2762.70329 1700.24499,2767.03854 1694.67186,2769.51574 C1674.85629,2777.5669 1683.52555,2764.56125 1682.90638,2762.08396 C1682.28713,2759.60667 1660.61381,2757.12943 1658.7561,2755.89076 C1653.80227,2753.41352 1647.60988,2745.36236 1641.4175,2749.07827 C1634.60595,2752.79418 1624.69815,2765.18058 1617.88651,2768.89649 C1611.69413,2771.99303 1599.30945,2769.51574 1591.87861,2780.04418 C1590.6401,2781.28281 1593.73632,2783.7601 1593.73632,2785.61805 C1592.49782,2791.81125 1584.44772,2795.52712 1583.82851,2802.33961 C1583.82851,2804.19756 1588.16319,2803.57828 1588.78239,2805.43623 C1591.87861,2816.58396 1583.82851,2813.48739 1588.16319,2825.8737 C1589.40165,2829.58961 1593.11707,2832.68623 1596.83249,2835.78281 L1594.35553,2835.78281 C1584.44772,2833.30552 1573.3015,2827.73166 1564.01295,2833.92486 C1562.15524,2835.16348 1564.6322,2840.11806 1562.15524,2840.73739 C1555.96285,2842.59534 1545.43588,2830.20894 1539.2435,2830.20894 C1533.67037,2830.20894 1529.3357,2833.30552 1524.38186,2833.92486 C1520.66635,2834.54419 1520.04719,2827.73166 1518.80868,2826.49303 C1515.71251,2824.01574 1510.75863,2822.77712 1506.42396,2820.91921 C1512.61634,2812.86805 1511.37784,2804.8169 1495.27774,2806.05552 C1494.65849,2806.05552 1492.80078,2808.53281 1491.56228,2811.62943 C1488.46611,2809.15214 1490.32382,2803.57828 1487.22765,2801.10099 C1485.36994,2799.24303 1481.65451,2799.24303 1478.5583,2798.6237 C1477.31984,2798.6237 1475.46213,2799.24303 1474.84288,2798.6237 C1468.03133,2792.43058 1461.83895,2784.99872 1451.31189,2783.14076 C1443.88105,2781.90214 1446.97731,2796.1465 1446.97731,2796.1465 C1440.16567,2795.52712 1434.59254,2790.57254 1428.40016,2791.19188 C1426.54245,2791.19188 1426.54245,2794.90779 1424.68474,2794.90779 C1420.96932,2794.28854 1419.11165,2789.9533 1415.39623,2789.33396 C1411.68081,2788.71459 1409.20384,2792.43058 1405.48842,2791.81125 C1397.43833,2791.81125 1400.53454,2783.7601 1396.19987,2780.04418 C1387.53057,2772.61236 1379.48047,2783.7601 1371.43042,2777.5669 C1370.81117,2777.5669 1364.61879,2763.32263 1363.99954,2762.70329 C1355.94953,2756.51009 1342.32635,2759.60667 1333.657,2751.55556 C1332.41854,2750.31689 1334.27625,2747.22032 1333.657,2745.98169 C1332.41854,2744.74303 1328.70312,2751.55556 1324.9877,2750.31689 C1316.93761,2746.60098 1334.89542,2739.16916 1329.32233,2732.976 C1327.46462,2730.49876 1323.7492,2729.26009 1320.65303,2728.64076 C1320.03378,2728.64076 1320.65303,2731.73738 1319.41453,2731.11805 C1319.41453,2731.11805 1312.60293,2724.92485 1308.88756,2721.20894 C1312.60293,2720.58965 1315.0799,2719.97031 1317.55681,2718.73169 C1335.51471,2710.06124 1342.94551,2650.60671 1349.75715,2632.02711 C1350.99561,2628.93057 1352.23407,2624.59533 1355.33028,2623.3567 C1357.80724,2622.11808 1363.38037,2627.69195 1364.61879,2624.59533 C1366.4765,2621.49875 1362.14183,2616.54417 1358.42645,2615.92488 C1355.33028,2615.30555 1354.71103,2623.97604 1351.61486,2622.73737 C1345.42247,2620.87942 1354.71103,2610.9703 1355.94953,2604.7771 C1358.42645,2594.86808 1365.23808,2558.32826 1372.04963,2553.37372 C1374.52659,2552.13514 1383.19589,2565.76012 1385.67286,2571.95328 C1394.3422,2590.53283 1382.57669,2573.19194 1388.76907,2593.01012 C1390.00753,2596.72603 1393.72291,2599.82261 1394.96137,2603.53852 C1395.58062,2605.39644 1393.10366,2610.9703 1394.96137,2610.35101 C1398.05758,2609.73168 1399.91529,2605.39644 1399.29604,2602.91915 C1398.05758,2599.20328 1393.72291,2597.96466 1391.24595,2594.86808 C1386.29211,2586.81692 1393.10366,2571.95328 1388.14982,2562.6635 C1385.67286,2557.70897 1381.33818,2553.37372 1377.62276,2549.03848 C1375.14584,2545.94194 1372.04963,2542.84532 1368.33421,2540.36807 C1372.04963,2541.6067 1376.3843,2542.84532 1380.09972,2540.98736 C1384.4344,2538.51012 1370.81117,2532.31692 1372.04963,2527.36234 C1373.28813,2522.40785 1378.86127,2519.93056 1379.48047,2514.97603 C1380.09972,2511.26012 1375.76505,2508.1635 1375.76505,2504.44758 C1375.76505,2500.11243 1379.48047,2495.77718 1379.48047,2491.44194 C1379.48047,2490.20331 1376.3843,2490.20331 1374.52659,2490.8226 C1373.28813,2491.44194 1374.52659,2495.15785 1373.28813,2494.53847 C1370.19192,2493.29989 1369.57276,2488.34536 1367.09579,2486.4874 C1365.23808,2485.86807 1362.76112,2488.34536 1360.90341,2487.10669 C1359.0457,2485.86807 1360.90341,2481.53283 1359.0457,2480.2942 C1347.89944,2469.76576 1354.09182,2492.68056 1343.56476,2472.24305 C1342.94551,2470.38514 1342.32635,2456.76011 1339.84934,2453.66353 C1339.23009,2453.0442 1337.37238,2453.66353 1336.75313,2453.0442 C1334.27625,2449.32829 1331.18004,2444.99305 1329.32233,2440.65784 C1326.84541,2434.46464 1339.23009,2428.27149 1340.46864,2425.7942 C1342.94551,2420.22033 1328.08387,2416.50446 1328.08387,2415.88513 C1326.84541,2411.54989 1326.84541,2409.07264 1327.46462,2407.21469 C1301.45671,2404.7374 1324.9877,2398.5442 1325.60691,2384.91922 C1326.22616,2376.86806 1300.21821,2383.68059 1299.599,2380.58397 C1298.3605,2375.62944 1305.79134,2373.77148 1309.50681,2371.29419 C1310.12597,2370.67486 1306.41059,2372.53282 1305.79134,2371.91353 C1305.17213,2371.29419 1305.79134,2369.43624 1305.17213,2368.81691 C1303.31442,2368.81691 1302.69517,2370.67486 1300.83746,2371.29419 C1295.88358,2371.29419 1290.92966,2367.57828 1286.59499,2369.43624 C1285.97582,2370.05557 1285.35653,2370.67486 1285.35653,2371.29419 C1286.59499,2362.62379 1292.78737,2354.57264 1279.78344,2353.33397 C1272.9718,2352.71468 1274.82951,2361.38513 1269.87563,2358.28855 C1266.16021,2355.81126 1261.20637,2347.7601 1257.49087,2345.90215 C1255.01399,2345.28286 1251.91778,2347.7601 1250.06007,2345.90215 C1242.00997,2339.70895 1251.91778,2332.27717 1236.43684,2333.51583 C1235.19838,2334.13512 1237.67534,2337.23175 1236.43684,2337.85099 C1232.10226,2339.70895 1225.90987,2343.4249 1222.19445,2340.32828 C1218.47903,2337.85099 1222.19445,2331.03855 1220.95595,2326.7033 C1219.09824,2319.27148 1211.04814,2321.12943 1206.09426,2318.03286 C1205.47501,2317.41352 1207.33272,2315.55557 1208.57123,2315.55557 C1214.76361,2314.31699 1220.95595,2314.93623 1227.14833,2314.93623 C1228.38675,2314.93623 1231.483,2317.41352 1231.483,2316.1749 C1231.483,2314.93623 1225.90987,2306.26583 1222.19445,2300.07263 C1225.90987,2301.93059 1229.62529,2300.69196 1233.34067,2301.31125 C1235.81763,2301.31125 1241.39077,2303.78854 1239.53305,2302.54992 C1235.19838,2300.07263 1227.76758,2301.31125 1225.90987,2296.97605 C1224.67137,2293.2601 1234.57913,2294.49876 1235.19838,2290.78285 C1237.05609,2283.35107 1198.04421,2311.8397 1211.04814,2278.3965 C1211.6674,2278.3965 1232.10226,2270.34534 1237.67534,2270.34534 C1244.48694,2270.34534 1229.00604,2278.3965 1243.86768,2274.06125 C1248.20236,2273.44196 1252.53703,2268.48739 1256.8717,2269.72605 C1260.58708,2270.96467 1258.72941,2278.3965 1262.44479,2279.63508 C1264.92175,2279.63508 1263.06404,2272.2033 1265.54096,2271.58401 C1269.87563,2271.58401 1272.9718,2279.63508 1277.30648,2278.3965 C1281.0219,2277.15787 1278.54498,2269.10672 1282.2604,2266.62943 C1283.49886,2265.39081 1285.97582,2269.10672 1287.83349,2269.10672 C1291.54891,2269.10672 1295.88358,2265.39081 1298.97975,2267.24876 C1302.07592,2269.10672 1299.599,2275.29992 1302.69517,2277.15787 C1304.55288,2278.3965 1304.55288,2274.06125 1306.41059,2272.82263 C1309.50681,2270.34534 1319.41453,2296.97605 1321.89149,2301.93059 C1322.51074,2302.54992 1322.51074,2299.4533 1323.7492,2299.4533 C1327.46462,2296.97605 1331.18004,2296.35672 1335.51471,2294.49876 C1338.61093,2292.64081 1341.0878,2287.68623 1344.18401,2288.9249 C1349.75715,2291.40214 1344.80322,2313.07828 1359.66495,2306.88508 C1363.99954,2305.02717 1361.52266,2296.97605 1364.61879,2292.64081 C1367.71496,2288.30556 1368.33421,2301.31125 1372.04963,2301.93059 C1375.76505,2302.54992 1378.86127,2300.69196 1382.57669,2301.31125 C1386.29211,2301.31125 1393.72291,2306.88508 1394.96137,2303.16921 C1396.19987,2296.35672 1381.95744,2291.40214 1383.81515,2284.5897 C1385.05365,2280.25445 1386.29211,2275.91921 1388.14982,2271.58401 C1386.91136,2271.58401 1385.67286,2270.96467 1386.29211,2268.48739 C1387.53057,2264.15214 1391.24595,2259.19761 1391.24595,2254.24312 C1391.24595,2253.00445 1387.53057,2254.86236 1386.91136,2253.62378 C1385.67286,2250.5272 1386.91136,2245.57263 1385.05365,2242.47605 C1384.4344,2240.61809 1380.71898,2240.61809 1379.48047,2238.76014 C1378.24201,2235.04427 1377.62276,2230.08965 1378.24201,2226.37378 C1378.24201,2224.51583 1381.33818,2223.89649 1381.33818,2222.65787 C1381.33818,2218.32263 1378.86127,2213.98738 1378.24201,2209.65218 C1378.24201,2208.41351 1379.48047,2212.12943 1380.09972,2212.74876 C1385.05365,2215.22605 1389.38823,2217.70329 1394.3422,2218.94196 C1395.58062,2219.56129 1397.43833,2218.32263 1398.67679,2218.32263 C1403.63071,2218.32263 1408.58459,2215.84534 1412.91926,2218.32263 C1415.39623,2218.94196 1414.15768,2222.65787 1412.91926,2225.13516 C1412.30001,2226.37378 1410.4423,2225.75445 1409.20384,2226.99311 C1407.34613,2228.85107 1414.15768,2248.66921 1414.77698,2248.66921 C1440.16567,2252.38516 1403.63071,2236.90218 1423.44628,2244.334 C1432.73483,2248.04992 1444.50035,2249.90787 1453.1696,2254.24312 C1456.26582,2256.10107 1458.12353,2260.43623 1461.2197,2261.05556 C1475.46213,2262.91352 1472.36592,2254.86236 1482.89297,2251.76583 C1485.36994,2251.14649 1487.84685,2251.14649 1490.94307,2251.14649 C1484.13143,2249.90787 1477.93909,2245.57263 1486.6084,2230.70903 C1492.80078,2220.79991 1534.28958,2219.56129 1545.43588,2213.36809 C1549.77047,2211.51014 1552.86673,2207.79427 1557.2014,2205.31698 C1560.91678,2203.45902 1567.72837,2204.07836 1569.58608,2200.36236 C1571.44379,2196.64649 1564.6322,2194.78853 1564.01295,2191.07262 C1563.3937,2189.21467 1564.01295,2186.11809 1565.25141,2184.87942 C1566.48991,2183.6408 1568.96683,2186.11809 1568.96683,2184.87942 C1568.96683,2183.6408 1565.87066,2183.6408 1565.87066,2181.78284 C1565.87066,2177.4476 1570.82458,2147.7204 1572.06304,2144.62377 C1574.54,2137.19195 1594.97478,2135.95333 1600.54791,2135.334 C1607.97871,2134.71466 1615.40955,2134.09537 1622.22119,2132.85671 C1623.45964,2141.5272 1624.0789,2165.06129 1637.70208,2165.06129 Z M1969.61281,2808.53281 C1978.28216,2814.72601 1969.61281,2831.44757 1969.61281,2838.2601 C1969.61281,2840.73739 1975.18599,2846.31126 1974.56674,2843.83397 C1973.32828,2841.35668 1969.61281,2834.54419 1970.23207,2837.02143 C1971.47052,2840.73739 1973.94749,2843.21459 1975.18599,2846.31126 C1977.0437,2850.64641 1977.0437,2864.27144 1977.0437,2867.9873 C1977.66286,2878.51575 1967.1359,2886.5669 1967.1359,2893.99873 C1967.1359,2902.04984 1970.23207,2913.19757 1963.42047,2920.6294 C1962.80122,2921.86806 1959.70505,2920.6294 1959.70505,2921.86806 C1959.70505,2923.72602 1964.03968,2921.86806 1963.42047,2923.10669 C1963.42047,2925.58397 1959.70505,2925.58397 1958.46655,2927.44193 C1956.60884,2931.77717 1958.46655,2937.351 1955.37042,2941.06691 C1946.70108,2949.73735 1949.17804,2931.77717 1947.32033,2931.1578 C1939.27024,2928.68051 1934.31635,2934.87371 1928.74327,2925.58397 C1927.50472,2923.72602 1931.22014,2921.24873 1929.98168,2918.77144 C1928.12402,2915.05553 1920.69317,2913.81691 1921.31238,2909.48166 C1921.31238,2904.52713 1931.22014,2902.04984 1930.60098,2897.09526 C1929.98168,2893.37939 1920.07392,2900.81126 1919.45467,2897.09526 C1918.21621,2892.14077 1928.12402,2889.66348 1927.50472,2885.32828 C1926.88556,2880.3737 1917.59696,2881.61233 1916.3585,2876.65779 C1915.73925,2872.94193 1923.78934,2871.7033 1923.78934,2867.36806 C1923.78934,2863.65215 1917.59696,2861.79419 1915.73925,2858.07828 C1915.12004,2855.60099 1921.93163,2857.45895 1923.17005,2855.60099 C1924.40859,2851.26575 1923.78934,2845.69192 1926.2663,2841.97601 C1926.88556,2840.73739 1928.12402,2845.07255 1929.36243,2844.4533 C1932.45864,2843.83397 1933.07785,2839.49872 1936.17407,2838.2601 C1938.65098,2837.02143 1941.7472,2839.49872 1944.22416,2838.2601 C1947.32033,2836.40214 1947.32033,2830.82828 1950.41646,2830.20894 C1954.13188,2829.58961 1957.22809,2834.54419 1961.56276,2834.54419 C1965.27818,2834.54419 1960.94351,2826.49303 1961.56276,2822.15779 C1962.18197,2817.2033 1967.1359,2813.48739 1969.61281,2808.53281 L1969.61281,2808.53281 Z" id="fr" fill="#87B024"></path>
                    </g>
                </g>
            </g>
        </g>
    </g>
</svg>