<?xml version="1.0" encoding="UTF-8" standalone="no"?>
<svg width="270px" height="488px" viewBox="0 0 270 488" version="1.1" xmlns="http://www.w3.org/2000/svg" xmlns:xlink="http://www.w3.org/1999/xlink">
    <!-- Generator: Sketch 3.6 (26304) - http://www.bohemiancoding.com/sketch -->
    <title>fi</title>
    <desc>Created with Sketch.</desc>
    <defs></defs>
    <g id="Page-1" stroke="none" stroke-width="1" fill="none" fill-rule="evenodd">
        <g id="Group" transform="translate(-390.000000, -106.000000)" fill="#FFFFFF">
            <path d="M611.73035,534.21994 C613.854593,526.076719 620.581371,517.579487 624.829833,510.498423 C635.805097,491.025583 642.53185,468.720284 649.966701,447.831202 C655.631333,432.606966 657.401552,428.712374 658.109625,412.426006 C658.463674,409.947631 659.879819,407.11522 658.817698,404.636845 C655.985382,396.493649 624.475784,384.80992 616.332885,379.145099 C615.270764,378.437002 628.016198,358.964114 619.165201,352.23711 C615.978837,349.758785 609.252059,352.23711 607.12784,348.696628 C597.92277,332.764271 609.252059,340.199346 606.419767,335.596657 C602.171281,329.223739 597.568746,334.180489 592.258163,327.807521 C587.655628,322.496735 590.841993,322.142724 593.320285,317.185975 C594.736406,313.999503 586.239458,313.999503 586.239458,312.583285 C586.593507,310.104911 586.593507,297.35905 586.593507,297.004989 C579.158631,290.632071 588.009652,294.526614 590.13392,292.048289 C591.550066,289.923975 582.699045,277.178065 581.636923,275.761847 C575.618267,267.618675 568.891489,258.059261 561.810687,250.978222 C560.748566,249.916065 555.083909,245.667461 554.021788,243.543147 C548.71118,233.629697 565.705125,208.491962 558.978371,202.473079 C557.208152,200.34879 554.021788,200.34879 551.897545,198.932572 C548.003132,196.100137 546.232913,191.143412 542.338475,188.665037 C541.984427,188.665037 529.947066,186.894783 529.593017,186.894783 C527.468774,185.124505 526.760701,182.292119 525.344531,179.813744 C517.555631,167.067883 526.760701,168.13004 522.866239,158.924662 C521.096044,154.676058 514.369291,158.570602 515.785461,156.092276 C517.555631,152.905755 520.033923,150.781466 522.158166,147.949055 C510.828878,142.638269 525.698579,134.141012 521.096044,126.351852 C514.015242,113.960052 503.039978,118.562741 493.834958,108.649241 L493.480909,106.879013 C493.12686,106.879013 492.772836,106.879013 492.418787,107.233073 C492.418787,106.879013 492.064739,106.879013 492.064739,106.524927 L492.064739,107.233073 C484.983961,108.649241 486.400082,116.792463 480.381426,118.562741 C475.070819,119.978934 477.195062,112.543834 471.176357,119.270837 C470.468309,120.332994 471.176357,122.103223 470.822308,123.519441 C470.468309,123.873526 466.573846,131.308602 466.573846,131.662662 C465.511725,134.495073 467.635968,143.700426 467.990017,146.178801 C467.990017,147.240958 467.281944,147.949055 467.281944,149.011212 C467.281944,151.135526 467.635968,152.905755 467.990017,155.030119 C469.052138,157.862505 471.53043,159.986819 471.884429,162.819255 C473.654648,175.211055 470.468309,166.713823 466.219822,170.608366 C461.263239,175.565115 465.865774,176.981333 464.449603,183.000191 C464.095555,184.416433 462.679409,185.124505 462.32536,186.540723 C462.32536,186.894783 457.722825,182.646179 457.014752,182.292119 C455.952656,181.584022 442.853173,176.981333 441.791052,178.397526 C440.374881,179.813744 441.436978,182.646179 440.374881,184.062348 C436.126395,191.497472 430.461739,186.894783 424.443033,187.95694 C422.672864,187.95694 420.902645,189.019097 419.486499,188.665037 L418.070329,187.60288 C417.362256,186.186662 417.362256,184.062348 416.654159,182.646179 C414.175891,178.397526 406.032968,167.421894 401.784482,164.943569 C392.579436,159.632759 392.225363,167.067883 392.933485,172.732705 L390.809242,180.167805 L391.163266,180.167805 L390.809242,180.521865 L392.225363,182.292119 C391.871364,183.000191 390.455193,183.354276 392.225363,184.416433 C398.244068,189.019097 408.51126,197.516354 414.883964,200.34879 C422.318815,203.535237 428.337496,200.702801 435.064274,207.429804 C436.480419,208.491962 435.418298,211.678433 436.834468,212.386554 C437.896589,212.740565 438.604637,210.970336 439.31276,211.324397 C442.145051,212.386554 443.207172,215.927086 445.331416,218.051376 C446.039513,218.759472 448.163756,218.759472 447.809707,219.821629 C443.91527,227.256729 448.163756,227.61079 449.225878,236.108022 C449.579926,237.52424 448.163756,238.940458 448.163756,240.356651 L448.163756,240.356651 L448.163756,240.356651 L447.809707,240.710711 L447.809707,240.710711 C447.809707,244.251243 453.120315,241.418808 454.536485,242.835025 C459.138996,246.375533 451.704169,251.332282 453.828413,254.87279 C455.952656,259.829539 464.449603,264.432204 465.157676,270.09705 C465.511725,274.345678 462.32536,287.79966 462.679409,289.569914 C465.865774,300.899582 473.654648,304.79415 477.903135,313.999503 C479.319305,311.521128 481.089499,309.396814 486.046083,312.229225 C488.524325,313.645443 487.108204,318.602192 489.586447,320.018361 C491.71069,321.434578 494.543031,318.602192 497.021322,319.310289 C498.083444,319.310289 498.083444,321.434578 498.791517,322.142724 C500.915735,323.204881 500.915735,318.956228 503.039978,322.496735 C506.93444,330.639957 504.1021,337.720971 505.51827,341.261503 C506.580392,344.447974 516.139461,337.36696 511.890999,347.634446 C510.828878,350.112821 507.288464,349.404724 505.164221,350.820942 C503.039978,352.23711 500.561686,353.299267 499.145565,355.423582 C498.437468,356.131703 499.499565,357.901956 498.791517,358.610078 C498.083444,359.318174 496.313225,357.547921 495.959201,358.256017 C494.897079,360.734392 494.543031,363.920863 494.543031,366.753274 C494.543031,368.523552 495.605152,370.293781 494.897079,372.064035 C494.543031,375.250531 490.294544,376.666724 489.586447,379.499159 C488.878374,381.623474 490.648568,384.101849 489.940496,385.872078 C488.170326,389.766645 484.275864,389.058549 483.92184,394.369335 C483.567791,395.431492 485.692034,396.493649 485.692034,397.909866 C484.629913,404.636845 475.070819,403.574688 474.71677,409.59357 C474.362721,412.071945 472.592552,418.444863 472.238478,418.798924 C470.822308,418.798924 469.052138,415.258392 467.635968,416.320549 C464.449603,419.152984 469.406187,426.234023 466.219822,428.358362 C465.157676,429.066459 463.033433,424.46377 463.387482,425.879988 C463.387482,427.650241 465.865774,428.358362 466.573846,430.128591 C469.760186,441.81232 465.511725,434.023159 460.555166,439.688005 C459.493044,441.104223 461.617287,444.644755 460.201117,444.644755 C458.076874,444.29067 459.138996,440.042066 457.368826,439.688005 C454.536485,438.979909 450.996072,440.042066 449.579926,442.520441 C443.91527,452.07983 455.952656,445.352827 455.244533,451.017673 C454.536485,454.558205 445.331416,460.577063 444.977391,464.471655 C443.207172,487.839112 445.331416,463.763559 448.871829,472.614876 C449.225878,472.968912 445.685464,479.34183 448.517805,481.112109 C448.871829,481.466169 449.579926,479.695891 449.93395,480.049951 C450.642048,481.112109 449.579926,483.590483 450.996072,483.944519 C451.704169,484.29858 450.287999,480.758048 451.350121,480.758048 C452.412242,480.403987 452.766291,481.820205 453.120315,482.882362 C455.244533,488.547208 452.766291,497.752562 453.828413,499.876876 C454.536485,501.293094 456.660704,500.584973 457.722825,501.64713 C459.138996,503.417408 459.847068,505.541722 460.90919,507.311951 C461.263239,508.020097 460.555166,509.08223 460.90919,509.790326 C461.617287,510.852483 463.033433,510.852483 463.74153,511.56058 C464.095555,511.91464 462.32536,511.56058 462.32536,511.91464 C461.971311,512.622737 462.679409,513.330858 463.033433,514.038955 C464.803652,516.163269 468.698089,517.225426 468.344065,519.703801 C467.990017,521.82809 462.32536,520.057861 461.971311,522.182176 C461.263239,525.014562 465.511725,526.78484 466.219822,529.26319 C466.573846,530.325347 464.803652,531.387505 465.157676,532.803722 C465.511725,533.511794 467.635968,533.511794 467.635968,534.574001 C467.281944,539.17664 463.74153,534.21994 465.157676,538.114483 C465.511725,539.530701 467.281944,540.592858 466.927895,541.655015 C466.573846,543.071233 463.033433,541.300955 462.679409,542.363112 C462.32536,551.568465 466.219822,552.630622 469.052138,556.525215 C469.760186,557.233311 466.219822,557.941408 466.927895,559.003565 C467.281944,560.773843 467.990017,562.190061 469.052138,563.606254 C476.841013,573.873765 470.822308,563.252218 478.257183,561.836 C479.673329,561.836 476.841013,565.730544 478.257183,566.792701 C480.381426,567.854858 482.859694,566.084629 485.337961,566.084629 C487.462204,566.43869 488.524325,569.979222 490.294544,569.979222 C492.064739,569.979222 492.772836,567.854858 494.188982,567.854858 C494.897079,567.500847 494.188982,568.917015 494.543031,569.271076 C495.605152,569.625136 496.313225,569.271076 497.375346,568.917015 C497.729395,568.562979 497.729395,566.43869 498.083444,567.146761 C501.623857,574.935922 495.959201,576.35214 497.375346,576.706175 C498.083444,576.706175 506.226343,570.687293 507.288464,569.979222 C507.642513,569.625136 508.350586,567.854858 508.704635,567.500847 L508.704635,567.500847 C506.93444,572.811608 502.33193,578.830514 510.828878,582.016986 C512.245048,582.725058 515.077339,579.538611 515.785461,580.954829 C516.493534,583.079143 510.828878,586.26559 512.953121,586.973686 C515.077339,588.035843 514.72334,582.016986 516.847583,581.662925 C518.617753,581.30884 517.201582,585.203432 516.493534,586.619625 C515.431413,588.389904 513.30717,589.098 511.536975,590.514218 C510.828878,591.576375 507.996562,594.05475 509.058683,593.346629 C520.033923,589.098 515.785461,582.016986 521.450093,578.476454 C523.220288,577.414297 518.617753,583.079143 520.387972,584.1413 C522.866239,585.557468 526.052603,583.787215 528.530895,582.370997 C530.301114,581.662925 531.009187,578.830514 532.425357,577.768333 C534.549576,575.998079 544.10867,574.935922 545.170791,573.519704 C546.232913,572.457547 542.692499,570.687293 543.754621,569.625136 C545.52484,568.208918 548.357131,569.271076 550.835423,568.917015 C551.543496,568.917015 552.959666,569.271076 553.313715,568.562979 C554.021788,567.500847 552.605617,566.084629 552.959666,565.376532 C553.313715,564.668411 553.313715,567.146761 554.021788,567.500847 C554.375836,567.854858 563.580906,562.190061 564.288954,561.127904 C564.643028,560.773843 562.872784,553.692779 566.413197,554.400925 C567.12127,554.400925 580.220753,566.43869 577.034388,553.338768 C576.32634,550.860393 569.953611,550.506333 571.015732,547.673922 C571.723805,545.195547 576.32634,546.611765 578.804632,547.319861 C580.220753,547.673922 580.220753,551.568465 581.636923,550.860393 C585.177336,548.382018 579.866729,536.344254 584.115215,538.822604 C587.655628,541.300955 578.09651,550.152247 589.071774,546.611765 C606.065719,540.946919 591.550066,544.487451 595.090454,539.17664 C595.444503,538.822604 595.798527,539.884761 596.506625,539.884761 C597.214697,539.884761 598.276819,539.884761 598.630868,539.17664 C598.984917,538.468544 597.568746,535.990169 598.630868,535.990169 C598.984917,535.990169 604.649548,540.946919 606.419767,540.238797 C608.898059,539.530701 610.668229,537.406387 612.084399,535.636158 C612.438423,535.636158 612.438423,535.282097 612.438423,534.928036 L611.73035,534.21994 L611.73035,534.21994 Z" id="fi"></path>
        </g>
    </g>
</svg>