<?xml version="1.0" encoding="UTF-8" standalone="no"?>
<svg width="442px" height="464px" viewBox="0 0 442 464" version="1.1" xmlns="http://www.w3.org/2000/svg" xmlns:xlink="http://www.w3.org/1999/xlink">
    <!-- Generator: Sketch 3.6 (26304) - http://www.bohemiancoding.com/sketch -->
    <title>fr</title>
    <desc>Created with Sketch.</desc>
    <defs></defs>
    <g id="Page-1" stroke="none" stroke-width="1" fill="none" fill-rule="evenodd">
        <g id="Group" transform="translate(-304.000000, -118.000000)" fill="#FFFFFF">
            <path d="M542.52906,118.288416 C543.237133,123.245166 543.591182,136.699148 551.380057,136.699148 C554.212373,136.699148 555.982592,131.742398 558.106835,132.804555 C562.70937,134.574834 560.585127,142.718005 562.001248,145.550465 C564.125491,150.507166 571.91439,144.842319 572.976512,150.507166 C573.33056,151.923383 572.268439,153.693637 572.622488,155.109855 C573.33056,157.942241 587.846213,154.401758 588.554286,160.420616 C588.554286,162.54493 585.72197,164.315208 585.72197,166.439523 C585.367922,167.85574 588.200262,167.85574 588.200262,168.917897 C588.200262,170.688151 586.430043,171.750308 585.367922,173.520537 C584.3058,175.644851 595.989162,178.477287 600.945696,173.874598 C603.423988,171.750308 605.548231,165.377365 608.026523,167.50168 C608.734595,168.209776 606.964401,169.271933 606.610352,170.33409 C606.256304,171.750308 604.840158,173.166526 604.840158,174.936755 C604.840158,176.352973 606.964401,176.707058 607.3184,178.123226 C607.3184,179.893505 604.486109,182.017819 605.90228,183.434012 C607.3184,185.558351 610.858814,184.496169 613.337106,185.558351 C614.753276,186.620508 615.1073,188.744822 616.52347,189.806979 C616.877519,190.16099 617.939641,188.744822 618.647713,189.098833 C619.355811,189.452919 619.709835,190.16099 620.063884,190.869136 C620.063884,191.223148 618.293665,191.931269 618.647713,192.285305 C619.709835,192.993426 621.480054,192.285305 622.188127,193.347462 C623.250248,194.76368 621.834078,197.950151 623.604297,198.658272 C625.72854,199.720429 628.206807,197.242054 630.685074,197.596115 C631.747196,197.596115 632.809318,197.950151 633.871439,198.304211 C635.641658,199.012308 637.057828,199.720429 638.473974,200.428526 C638.828023,200.782586 638.473974,202.198755 638.828023,201.844743 C640.952241,201.844743 642.722435,200.074465 644.492655,200.074465 C646.616898,200.074465 648.741141,201.136622 650.511335,201.844743 C651.219433,202.906901 653.343676,201.844743 654.405797,202.906901 C657.238088,204.67713 659.008307,212.820351 662.548696,216.360883 C666.797207,220.963572 659.71638,206.447433 670.337571,216.006822 C671.045693,216.714918 669.629523,218.131136 669.983572,219.193293 C670.69162,220.255426 682.020933,215.652761 683.791127,217.068979 C684.853224,218.131136 684.145176,220.255426 685.207297,221.317583 C686.623468,222.37974 707.865874,224.858115 706.449703,227.33649 C702.555241,234.063493 695.474464,238.312097 692.642123,243.976943 C691.580002,246.455293 691.225978,254.244429 690.871929,256.368768 L685.915345,264.511964 C685.207297,266.282243 684.499224,268.052472 684.853224,269.822725 C684.853224,270.884882 686.269394,270.884882 686.269394,271.593004 C685.915345,276.549729 682.374981,281.152393 682.729005,286.109143 C682.729005,290.711807 682.729005,292.128025 683.083054,292.128025 C671.045693,304.51985 675.294155,291.065868 665.381037,293.898303 C664.672964,294.252339 666.089109,295.668557 666.089109,296.376629 C666.089109,296.730689 665.381037,296.376629 665.381037,296.376629 C664.318915,297.792846 661.486575,299.209064 662.194672,300.979318 C662.548696,302.749596 667.859328,299.209064 667.859328,300.979318 C667.50528,305.936067 665.735085,302.041475 663.964866,303.457693 C660.778502,305.936067 657.946186,313.017082 655.467919,315.141396 C653.343676,317.619771 648.387092,316.557614 646.970946,319.390049 C645.908825,321.8684 648.033068,325.054846 646.970946,327.17921 C645.554776,331.073753 639.182072,331.073753 636.70378,334.614285 C632.455294,339.925071 637.057828,344.88182 635.287609,350.546617 C634.933561,351.608774 631.393172,349.838521 631.393172,354.44121 C631.393172,355.149306 629.622953,355.857427 629.977002,355.857427 C634.225488,356.919585 639.182072,355.149306 641.306315,350.900678 C641.660314,350.192581 639.890144,349.48446 639.536071,348.776363 C639.536071,347.714206 639.182072,347.00611 639.890144,346.297989 C643.076484,341.341288 652.989627,341.341288 657.592137,343.465603 C659.008307,343.819614 656.175967,345.943953 656.530016,347.00611 C656.530016,348.776363 658.654259,349.48446 659.008307,351.254738 C659.362331,353.379053 654.405797,353.024992 656.530016,356.565524 C657.238088,357.273596 659.362331,356.211439 659.71638,357.273596 C660.424453,358.335753 658.654259,360.106031 659.008307,361.168188 C659.362331,361.876285 660.778502,359.751971 661.13255,360.460067 C662.902745,362.230345 662.902745,364.70872 664.318915,366.833035 C648.033068,376.392424 657.238088,372.14382 662.194672,380.641052 C662.902745,382.05727 661.486575,384.535645 662.548696,385.951813 C663.610842,388.430188 667.151231,388.784274 668.213353,390.908563 C669.983572,394.095034 658.654259,403.300413 656.884089,403.654424 C655.821967,404.008484 655.113845,401.884195 654.051748,401.884195 C652.281554,402.238256 649.095189,402.238256 649.095189,404.008484 C648.387092,409.673331 660.070429,414.27602 661.840623,417.108431 C662.902745,419.23272 663.256794,422.065156 663.256794,424.897566 C662.902745,425.959723 659.71638,424.18947 659.362331,425.251627 C659.008307,425.959723 660.070429,426.667845 659.71638,427.021881 C658.654259,428.792159 656.884089,429.854316 655.467919,431.270509 C654.405797,433.394848 657.946186,434.457005 658.30021,435.519162 C658.30021,436.227234 656.530016,436.227234 656.530016,436.935331 C656.175967,441.89208 665.381037,448.619084 669.275449,449.681241 C671.399692,450.389313 673.877984,449.327155 676.002227,449.327155 C678.12647,448.973095 680.604762,447.556926 682.374981,448.619084 C687.685564,452.513627 675.648203,460.656848 677.418398,467.029766 C677.064349,467.029766 671.045693,469.15408 670.337571,469.862201 C669.983572,470.216237 671.045693,471.632455 670.337571,471.632455 C669.983572,471.278394 670.337571,469.862201 669.983572,469.862201 C667.859328,470.216237 665.381037,470.570298 663.964866,471.986516 C662.902745,473.048673 664.672964,475.527023 663.256794,476.58918 C661.840623,477.651362 659.362331,476.235144 657.592137,477.297301 C656.175967,478.359458 656.530016,481.191844 654.759846,482.608062 C653.343676,483.316159 651.573457,481.545905 650.157311,482.254002 C649.095189,482.608062 649.803262,484.378316 648.741141,485.440473 C647.679019,486.856691 644.846679,487.210751 644.138606,488.981005 C643.784557,490.397223 646.970946,492.521537 645.554776,493.583694 C643.784557,495.353972 640.244193,493.583694 637.765901,493.937755 C634.579537,494.645826 632.455294,497.832298 629.622953,498.894455 C626.436588,499.956612 628.91488,494.999912 621.834078,494.645826 C617.231543,494.291766 622.188127,496.416129 621.480054,497.124201 C620.771957,497.832298 619.355811,497.832298 618.293665,497.478287 C617.231543,497.478287 616.169422,497.478287 615.815398,496.770141 C615.815398,496.062069 618.293665,494.291766 613.337106,491.81344 C612.274984,491.45938 611.212863,491.81344 609.796692,491.81344 C607.3184,491.105319 604.486109,491.45938 602.715915,489.689126 C600.945696,487.918848 602.715915,484.378316 601.299745,482.608062 C600.591647,481.545905 599.175502,484.02428 597.759331,484.02428 C595.635088,484.02428 591.386627,484.732376 591.740626,482.608062 C592.0947,479.775676 598.467404,480.837833 598.821453,478.005398 C598.821453,475.172987 594.92704,473.048673 592.448748,473.402709 C590.324505,473.756769 594.218918,477.651362 593.156796,479.06753 C591.386627,480.837833 588.554286,481.89999 586.076019,481.545905 C580.411387,481.191844 582.181557,471.278394 581.119435,472.694612 C576.162901,478.359458 587.138141,480.837833 583.951776,482.254002 C572.622488,486.856691 577.579022,479.421615 577.225023,478.005398 C576.870974,476.58918 564.479539,475.172987 563.417418,474.464866 C560.585127,473.048673 557.044713,468.445984 553.5043,470.570298 C549.609887,472.694612 543.945231,479.775676 540.050769,481.89999 C536.510355,483.670219 529.429578,482.254002 525.181092,488.272908 C524.472994,488.981005 526.243213,490.397223 526.243213,491.45938 C525.535116,494.999912 520.932581,497.124201 520.578557,501.018769 C520.578557,502.080926 523.056849,501.72689 523.410873,502.789047 C525.181092,509.16199 520.578557,507.391737 523.056849,514.472751 C523.764921,516.597065 525.889164,518.367344 528.013408,520.137597 L526.597237,520.137597 C520.932581,518.72138 514.559876,515.534908 509.249269,519.07544 C508.187147,519.783537 509.603317,522.615972 508.187147,522.970033 C504.646734,524.03219 498.628078,516.951126 495.087664,516.951126 C491.9013,516.951126 489.423008,518.72138 486.590717,519.07544 C484.466424,519.429501 484.112425,515.534908 483.404327,514.826812 C481.634133,513.410594 478.801817,512.702497 476.323525,511.640365 C479.863939,507.037676 479.155841,502.434987 469.950821,503.143083 C469.596772,503.143083 468.534651,504.559301 467.826553,506.329579 L467.826553,505.975519 C466.056359,504.913362 467.11848,501.72689 465.348286,500.310673 C464.286164,499.248515 462.161921,499.248515 460.391702,498.894455 C459.683629,498.894455 458.621508,499.248515 458.267459,498.894455 C454.373046,495.353972 450.832633,491.105319 444.813928,490.043162 C440.565442,489.335065 442.335685,497.478287 442.335685,497.478287 C438.441223,497.124201 435.254859,494.291766 431.714445,494.645826 C430.652324,494.645826 430.652324,496.770141 429.590202,496.770141 C427.465959,496.416129 426.403862,493.937755 424.279619,493.583694 C422.155376,493.229609 420.739206,495.353972 418.614963,494.999912 C414.012428,494.999912 415.782647,490.397223 413.304355,488.272908 C408.347796,484.02428 403.745261,490.397223 399.142751,486.856691 C398.788702,486.856691 395.248289,478.713519 394.89424,478.359458 C390.291754,474.818926 382.50288,476.58918 377.546296,471.986516 C376.838223,471.278394 377.900345,469.508141 377.546296,468.800044 C376.838223,468.091923 374.71398,471.986516 372.589737,471.278394 C367.987202,469.15408 378.254344,464.905452 375.068004,461.364944 C374.005882,459.948751 371.881639,459.24063 370.111445,458.88657 C369.757396,458.88657 370.111445,460.656848 369.403348,460.302787 C369.403348,460.302787 365.50891,456.762255 363.384692,454.637941 C365.50891,454.283905 366.92508,453.929845 368.341226,453.221748 C378.608417,448.265023 382.856879,414.27602 386.751341,403.654424 C387.459414,401.884195 388.167487,399.40582 389.937706,398.697724 C391.353876,397.989627 394.540241,401.176098 395.248289,399.40582 C396.31041,397.635566 393.832118,394.803131 391.7079,394.449095 C389.937706,394.095034 389.583657,399.051784 387.813463,398.343663 C384.273049,397.281506 389.583657,391.61666 390.291754,388.076128 C391.7079,382.411331 395.602362,361.522224 399.496775,358.689813 C400.912945,357.981742 405.869504,365.770877 407.285674,369.311385 C412.242258,379.932956 405.51548,370.019506 409.055893,381.349174 C409.763966,383.473488 411.888185,385.243742 412.596257,387.368056 C412.950306,388.430188 411.534136,391.61666 412.596257,391.262624 C414.366476,390.908563 415.428598,388.430188 415.074549,387.01397 C414.366476,384.889681 411.888185,384.181584 410.472014,382.411331 C407.639723,377.808642 411.534136,369.311385 408.701845,364.000599 C407.285674,361.168188 404.807383,358.689813 402.683139,356.211439 C401.266994,354.44121 399.496775,352.670931 397.372532,351.254738 L397.372532,351.254738 C399.496775,351.962835 401.975067,352.670931 404.09931,351.608774 C406.577602,350.192581 398.788702,346.652049 399.496775,343.819614 C400.204872,340.987228 403.391237,339.57101 403.745261,336.738599 C404.09931,334.614285 401.621018,332.844007 401.621018,330.719692 C401.621018,328.241367 403.745261,325.762992 403.745261,323.284617 C403.745261,322.576521 401.975067,322.576521 400.912945,322.930557 C400.204872,323.284617 400.912945,325.408931 400.204872,325.054846 C398.434653,324.346774 398.080654,321.514364 396.664484,320.452206 C395.602362,320.098146 394.186192,321.514364 393.12407,320.806242 C392.061949,320.098146 393.12407,317.619771 392.061949,316.911675 C385.689219,310.892768 389.229633,323.992714 383.210928,312.308985 C382.856879,311.246853 382.50288,303.457693 381.086685,301.687439 C380.732636,301.333378 379.670514,301.687439 379.316466,301.333378 C377.900345,299.209064 376.130126,296.730689 375.068004,294.252339 C373.651858,290.711807 380.732636,287.1713 381.440758,285.755082 C382.856879,282.568611 374.359931,280.444321 374.359931,280.090261 C373.651858,277.611886 373.651858,276.195693 374.005882,275.133536 L373.651858,275.133536 C359.136206,273.717318 372.589737,270.176786 372.943761,262.38765 C373.29781,257.784961 358.428108,261.679554 358.074084,259.909275 C357.365987,257.076864 361.614473,256.014707 363.738741,254.59849 C364.09274,254.244429 361.968521,255.306586 361.614473,254.95255 C361.260449,254.59849 361.614473,253.536332 361.260449,253.182272 C360.198327,253.182272 359.844278,254.244429 358.782157,254.59849 C355.949841,254.59849 353.1175,252.474175 350.639209,253.536332 C350.285209,253.890393 349.931136,254.244429 349.931136,254.59849 L349.931136,254.244429 C350.639209,249.641789 354.179622,245.0391 346.744796,244.330979 C342.850334,243.976943 343.912455,248.933668 341.080139,247.163414 C338.955896,245.747197 336.123605,241.144508 333.999313,240.08235 C332.583192,239.728315 330.812973,241.144508 329.750851,240.08235 C325.148316,236.541818 330.812973,232.293215 321.961952,233.001336 C321.253879,233.355372 322.670049,235.12565 321.961952,235.479661 C319.483709,236.541818 315.943296,238.666157 313.819053,236.895879 C311.69481,235.479661 313.819053,231.585118 313.110955,229.106743 C312.048834,224.858115 307.446299,225.920272 304.613983,224.150018 C304.259934,223.795958 305.322056,222.733801 306.030153,222.733801 C309.570566,222.025729 313.110955,222.37974 316.651369,222.37974 C317.359417,222.37974 319.12966,223.795958 319.12966,223.087861 C319.12966,222.37974 315.943296,217.42304 313.819053,213.882508 L314.173077,214.236568 C315.943296,214.944665 318.067539,214.236568 320.191757,214.590604 C321.607928,214.590604 324.794292,216.006822 323.732171,215.298725 C321.253879,213.882508 317.005417,214.590604 315.943296,212.112254 C315.235198,209.987915 320.89983,210.696036 321.253879,208.571722 C322.316,204.323118 300.011473,220.609511 307.446299,201.490683 C307.800347,201.490683 319.483709,196.887994 322.670049,196.887994 C326.564486,196.887994 317.71349,201.490683 326.210438,199.012308 C328.68873,198.658272 331.167021,195.825837 333.645313,196.533958 C335.769532,197.242054 334.707435,201.490683 336.831653,202.198755 C338.247823,202.198755 337.185702,197.950151 338.601848,197.596115 C341.080139,197.596115 342.850334,202.198755 345.328626,201.490683 C347.452869,200.782586 346.036723,196.179897 348.160966,194.76368 C348.869039,194.055583 350.285209,196.179897 351.347306,196.179897 C353.471549,196.179897 355.949841,194.055583 357.720035,195.11774 C359.49023,196.179897 358.074084,199.720429 359.844278,200.782586 C360.9064,201.490683 360.9064,199.012308 361.968521,198.304211 C363.738741,196.887994 369.403348,212.112254 370.819518,214.944665 C371.173567,215.298725 371.173567,213.528447 371.881639,213.528447 C374.005882,212.112254 376.130126,211.758193 378.608417,210.696036 C380.378636,209.633879 381.794757,206.801444 383.564976,207.509565 C386.751341,208.925758 383.919,221.317583 392.415997,217.777051 C394.89424,216.714918 393.478119,212.112254 395.248289,209.633879 C397.018483,207.155504 397.372532,214.590604 399.496775,214.944665 C401.621018,215.298725 403.391237,214.236568 405.51548,214.590604 C407.639723,214.590604 411.888185,217.777051 412.596257,215.652761 C413.304355,211.758193 405.161431,208.925758 406.223553,205.031215 C406.93165,202.55284 407.639723,200.074465 408.701845,197.596115 C407.993772,197.596115 407.285674,197.242054 407.639723,195.825837 C408.347796,193.347462 410.472014,190.515051 410.472014,187.682665 C410.472014,186.974544 408.347796,188.036676 407.993772,187.328604 C407.285674,185.558351 407.993772,182.725915 406.93165,180.955662 C406.577602,179.893505 404.453359,179.893505 403.745261,178.831347 C403.037188,176.707058 402.683139,173.874598 403.037188,171.750308 C403.037188,170.688151 404.807383,170.33409 404.807383,169.625994 C404.807383,167.147619 403.391237,164.669244 403.037188,162.190894 C403.037188,161.482773 403.745261,163.607087 404.09931,163.961148 C406.93165,165.377365 409.409893,166.793558 412.242258,167.50168 C412.950306,167.85574 414.012428,167.147619 414.720501,167.147619 C417.552841,167.147619 420.385157,165.731401 422.863449,167.147619 C424.279619,167.50168 423.571497,169.625994 422.863449,171.042212 C422.5094,171.750308 421.447279,171.396248 420.739206,172.104369 C419.677084,173.166526 423.571497,184.496169 423.92557,184.496169 C438.441223,186.620508 417.552841,177.76919 428.882129,182.017819 C434.192737,184.142133 440.919515,185.20429 445.876049,187.682665 C447.646268,188.744822 448.70839,191.223148 450.478584,191.577208 C458.621508,192.639365 456.851289,188.036676 462.869994,186.266447 C464.286164,185.912387 465.70231,185.912387 467.472529,185.912387 C463.578067,185.20429 460.037678,182.725915 464.994237,174.228683 C468.534651,168.563837 492.255324,167.85574 498.628078,164.315208 C501.10632,163.253051 502.876564,161.128762 505.354856,159.712544 C507.479074,158.650387 511.373512,159.004447 512.435633,156.880084 C513.497755,154.755794 509.603317,153.693637 509.249269,151.569323 C508.89522,150.507166 509.249269,148.736912 509.957341,148.028791 C510.665439,147.320694 512.081584,148.736912 512.081584,148.028791 C512.081584,147.320694 510.31139,147.320694 510.31139,146.258537 C510.31139,143.780162 513.143731,126.785698 513.851803,125.015419 C515.267974,120.766791 526.951286,120.058694 530.137651,119.704634 C534.386112,119.350573 538.634598,118.996537 542.52906,118.288416 L542.52906,118.288416 Z M741.145641,504.559301 C746.102225,508.099833 741.145641,517.659222 741.145641,521.553815 C741.145641,522.970033 744.33203,526.156504 743.977982,524.740286 C743.269909,523.324069 741.145641,519.429501 741.49969,520.845694 C742.207762,522.970033 743.623933,524.386201 744.33203,526.156504 C745.394152,528.63483 745.394152,536.42399 745.394152,538.54828 C745.748151,544.567186 739.729495,549.169876 739.729495,553.418504 C739.729495,558.021168 741.49969,564.394111 737.605252,568.64274 C737.251203,569.350861 735.481009,568.64274 735.481009,569.350861 C735.481009,570.413018 737.959276,569.350861 737.605252,570.058957 C737.605252,571.475175 735.481009,571.475175 734.772912,572.537332 C733.71079,575.015707 734.772912,578.202154 733.002742,580.326468 C728.046158,585.283193 729.462329,575.015707 728.400207,574.661622 C723.797672,573.245404 720.965356,576.785936 717.779016,571.475175 C717.070894,570.413018 719.195137,568.9968 718.487064,567.580583 C717.424968,565.456268 713.176481,564.748172 713.530505,562.269797 C713.530505,559.437386 719.195137,558.021168 718.841138,555.188733 C718.487064,553.064443 712.822433,557.313097 712.468384,555.188733 C711.760311,552.356347 717.424968,550.940129 717.070894,548.461779 C716.716895,545.629344 711.406262,546.33744 710.69819,543.505029 C710.344141,541.38074 714.946676,540.672643 714.946676,538.194268 C714.946676,536.069954 711.406262,535.007797 710.344141,532.883483 C709.990117,531.467265 713.884554,532.529422 714.592602,531.467265 C715.300725,528.98889 714.946676,525.802444 716.362846,523.678129 C716.716895,522.970033 717.424968,525.448358 718.133016,525.094347 C719.903235,524.740286 720.257259,522.261912 722.027478,521.553815 C723.443623,520.845694 725.213842,522.261912 726.630013,521.553815 C728.400207,520.491658 728.400207,517.305187 730.170377,516.951126 C732.29462,516.597065 734.064839,519.429501 736.543131,519.429501 C738.667374,519.429501 736.189082,514.826812 736.543131,512.348437 C736.897155,509.516051 739.729495,507.391737 741.145641,504.559301 L741.145641,504.559301 Z M659.362331,474.11083 C662.194672,474.11083 664.672964,471.632455 664.672964,469.15408 C664.672964,466.675705 662.194672,464.551391 659.362331,464.551391 C656.530016,464.551391 654.051748,466.675705 654.051748,469.15408 C654.051748,471.632455 656.530016,474.11083 659.362331,474.11083 C662.194672,474.11083 656.530016,474.11083 659.362331,474.11083 L659.362331,474.11083 Z" id="fr"></path>
        </g>
    </g>
</svg>