<?xml version="1.0" encoding="UTF-8" standalone="no"?>
<svg width="258px" height="410px" viewBox="0 0 258 410" version="1.1" xmlns="http://www.w3.org/2000/svg" xmlns:xlink="http://www.w3.org/1999/xlink">
    <!-- Generator: Sketch 3.6 (26304) - http://www.bohemiancoding.com/sketch -->
    <title>gb</title>
    <desc>Created with Sketch.</desc>
    <defs></defs>
    <g id="Page-1" stroke="none" stroke-width="1" fill="none" fill-rule="evenodd">
        <g id="Group" transform="translate(-396.000000, -145.000000)" fill="#FFFFFF">
            <path d="M488.885979,400.354652 C495.258684,405.311352 500.569291,408.143787 493.842513,411.330259 L488.885979,400.354652 Z M489.948101,413.100512 C488.885979,413.808584 487.823857,414.162669 486.761736,414.162669 C485.699614,414.162669 487.823857,412.746427 487.469809,412.038355 C485.345566,404.603255 480.034958,403.187038 488.885979,400.354652 L489.948101,413.100512 Z M525.352111,159.953229 C527.476354,161.015387 532.078889,163.139701 532.432938,165.618076 C532.432938,167.388329 527.476354,170.574776 528.892524,169.512619 C531.016767,168.09645 531.72484,163.847797 534.203132,164.201858 C536.327375,164.909954 533.849083,169.512619 535.619302,170.928837 C537.035423,171.990994 537.743545,168.09645 539.159716,167.74239 C544.470299,166.326172 556.50766,168.450486 563.588462,169.512619 C566.420802,169.866704 570.315215,167.388329 572.085434,169.512619 C573.855628,171.282922 569.253093,173.053151 568.190997,175.177465 C567.482924,177.301779 568.190997,179.426094 567.482924,181.550408 C566.774851,183.320686 544.470299,196.774668 540.221837,199.961139 C533.14101,205.2719 543.408177,199.252994 546.948566,202.085454 C548.364736,202.793526 545.178371,204.209743 543.762201,205.2719 C542.70008,206.334057 541.992007,208.104311 540.221837,208.458372 C539.513715,208.458372 540.221837,205.979997 539.513715,205.979997 C538.097545,205.625961 537.035423,207.042154 535.973326,207.396215 C533.495059,208.458372 533.14101,205.625961 532.078889,208.104311 C529.246548,214.477279 535.973326,216.601593 537.743545,214.477279 C538.097545,213.769157 536.327375,212.707 537.035423,212.707 C538.805667,212.352964 540.575836,213.769157 542.70008,213.769157 C546.594542,213.415121 551.551101,209.166468 556.50766,210.228625 C558.985951,210.582686 561.110195,213.061061 563.588462,213.769157 C569.607167,215.539436 589.433403,215.185375 592.619767,222.266414 C593.327865,224.390729 593.681889,226.515043 592.973816,228.639357 L584.830868,236.782529 C583.768771,238.198746 583.060698,239.969025 582.706649,241.739278 C582.352601,242.447375 583.060698,243.155496 582.706649,243.509532 C579.874334,248.820342 565.004632,269.7094 560.402097,270.063435 C553.32132,270.771557 550.843028,267.231025 544.824323,271.833714 C543.762201,272.54181 546.948566,272.895871 548.010712,272.54181 C550.843028,272.18775 553.32132,270.417496 555.799562,270.063435 C560.756146,269.7094 556.861733,273.249932 557.215732,274.312089 C558.277854,276.790414 562.880389,277.49856 562.52634,279.976885 C561.464219,287.766046 554.029392,281.039043 551.905149,281.393103 C540.929885,283.163382 560.756146,287.766046 537.743545,285.995792 C537.389497,285.995792 537.389497,289.89036 537.743545,289.89036 C540.221837,290.952542 537.389497,288.828203 539.867788,289.182264 C542.70008,289.89036 548.718785,294.493025 551.905149,292.36871 C553.32132,291.306578 553.675319,288.828203 555.091489,288.120107 C555.799562,287.766046 569.253093,297.679496 570.669264,299.095714 C573.147556,300.865992 574.209677,309.71731 576.687969,312.549696 C578.104115,313.965913 580.228358,314.319949 581.290479,315.736167 C581.644528,316.444264 580.936455,317.152385 580.936455,318.214542 C580.582406,320.338856 580.582406,322.817231 580.582406,324.941545 C580.936455,331.314463 583.414747,357.514306 585.53899,362.825116 C585.892989,363.533213 586.601112,361.408899 587.30916,361.762959 C588.72533,362.116995 589.787452,363.887273 591.203597,364.59537 C597.576351,368.489913 596.160181,365.303466 602.178886,372.738566 C604.303104,375.216916 603.241008,379.46557 605.011177,382.29798 C606.781372,386.192524 611.737955,382.652041 611.737955,389.733056 C611.737955,391.85737 607.843493,391.85737 607.489469,393.981684 C606.073299,399.646506 612.800077,407.789727 614.216247,412.746427 C615.986417,419.47343 610.321785,409.55998 609.967761,416.995105 C609.967761,418.765334 622.713195,432.219316 616.34049,438.946319 C611.383906,443.903044 609.259663,438.238198 605.71925,447.089491 C605.365226,448.151648 608.197542,446.73548 608.905615,447.443551 C610.321785,448.505709 610.675834,450.630023 611.737955,451.69218 C612.800077,452.754337 614.570246,454.524615 615.632368,453.816494 C622.713195,449.213805 617.402612,444.611165 624.837438,445.673322 C636.874799,447.443551 656.347035,452.754337 652.806622,471.873165 C651.7445,477.892072 643.601577,493.824379 637.582896,495.948694 C635.458629,496.656815 632.272264,492.408162 631.564191,494.17844 C628.377851,500.551383 645.017747,498.781129 630.856143,502.675697 C629.794021,503.029758 629.085924,502.321636 628.023802,501.61354 C627.669778,501.61354 627.669778,500.905443 627.31573,500.905443 C624.483389,501.259479 620.234903,500.551383 618.818782,502.675697 C617.756611,504.800011 624.129365,501.967601 625.545511,503.737854 C626.961681,505.154072 625.899559,507.986458 624.837438,509.756736 C622.005122,514.359425 614.216247,511.172929 610.321785,512.589147 C609.259663,512.943208 606.427347,514.005365 607.489469,514.713461 C607.843493,514.713461 618.11066,511.52699 617.756611,516.129679 C617.402612,517.899933 613.50815,515.775618 612.092004,516.837776 C611.029882,517.899933 614.92432,519.670211 616.34049,518.96209 C617.048538,518.253993 617.048538,516.129679 618.11066,516.129679 C619.52683,515.775618 620.943,517.191836 622.359146,518.253993 C627.31573,522.856682 612.092004,520.378308 622.359146,522.148586 C627.31573,522.856682 632.626313,518.96209 637.93692,521.086429 C639.353091,521.44044 635.812677,523.210743 635.458629,524.626911 C634.750556,527.105286 635.104604,529.583661 634.750556,532.416072 C633.688434,535.956604 627.31573,534.540386 623.775316,536.310664 C622.359146,537.372822 623.421267,540.913329 621.651073,541.621425 C615.278369,543.74574 618.464709,538.080893 614.570246,540.559268 C610.675834,543.037643 607.13542,541.975486 603.241008,543.74574 C601.470764,544.453836 600.762716,547.286272 598.638473,547.286272 C595.452108,547.286272 589.787452,541.267365 586.601112,540.559268 C584.12282,540.205208 566.420802,544.453836 565.358681,540.559268 C565.004632,538.789039 569.961216,540.205208 566.420802,537.726833 C564.296559,536.310664 565.358681,539.497111 564.650583,540.559268 C563.94251,540.913329 562.880389,540.205208 562.52634,539.497111 C562.52634,538.434979 565.004632,537.372822 563.94251,537.372822 C562.880389,537.018761 561.818267,539.497111 560.756146,539.14305 C559.694024,538.789039 561.818267,537.018761 561.110195,535.956604 C558.631903,532.770132 560.048073,539.14305 558.985951,538.789039 C554.737441,537.372822 551.551101,530.291758 550.488979,531.353915 C549.072834,533.124193 553.32132,535.602518 552.967271,537.726833 C552.613222,541.267365 532.786962,536.664676 532.078889,537.726833 C531.016767,539.497111 534.557181,541.975486 534.203132,544.0998 C533.849083,545.161957 532.078889,543.74574 531.016767,543.74574 L530.662719,543.74574 C528.892524,542.683582 523.227892,538.789039 521.457698,539.497111 C519.33343,540.559268 520.041528,543.74574 518.979406,545.515993 C518.271309,546.224114 519.687479,543.391679 519.33343,542.329522 C518.625357,540.559268 516.855163,539.14305 515.084944,537.726833 C510.482409,533.124193 497.028903,529.937722 490.656173,532.416072 C490.656173,532.416072 486.761736,549.410586 481.451128,551.888961 C477.202667,553.65919 469.767791,543.391679 466.935475,541.975486 C465.165256,540.913329 470.475889,545.161957 465.873354,544.0998 C461.624892,543.037643 455.606187,538.789039 450.649653,540.205208 C448.879409,540.559268 449.587482,543.74574 448.171361,544.453836 C446.047118,545.161957 443.568826,543.74574 441.090534,543.74574 C440.736485,543.74574 440.382461,543.74574 440.028413,544.0998 C439.32034,545.870054 435.071878,554.721347 433.655683,554.721347 C431.531465,554.367286 432.593587,549.764646 431.177416,547.994368 C429.053173,544.453836 420.556201,546.932211 420.556201,543.037643 C420.556201,540.559268 434.717805,539.851196 435.071878,539.851196 C436.487999,539.497111 437.90417,538.080893 438.966291,536.664676 C439.674364,536.310664 438.966291,534.894447 439.674364,534.540386 C440.382461,533.83229 441.798632,534.894447 442.506704,534.540386 C444.984996,532.416072 445.693069,529.2296 448.171361,527.459347 C449.233482,526.751226 451.003652,528.167443 452.065774,527.813383 C453.127895,527.105286 452.773871,525.689068 453.835993,524.980972 C455.606187,523.210743 458.792552,522.856682 460.562771,520.732368 C461.624892,519.31615 461.270844,511.172929 463.749135,510.110772 C465.165256,509.756736 466.581427,512.589147 467.997597,512.943208 C476.140496,513.651304 466.581427,501.259479 486.407687,504.800011 C493.13444,505.862144 501.985462,515.067522 508.71224,509.756736 C510.836458,507.986458 510.12841,504.445975 511.190507,502.321636 C511.544531,501.61354 528.538475,490.991993 530.662719,488.513619 C532.786962,486.035244 521.457698,493.470319 520.041528,494.532525 C518.271309,495.240597 516.501114,495.594658 514.73092,495.948694 C513.668799,495.948694 512.960701,494.17844 511.898579,494.532525 C503.047583,497.010851 505.171826,504.445975 494.550635,498.427069 C491.010222,495.948694 491.71827,489.929836 488.53193,486.743365 C485.699614,483.910929 480.389031,490.283848 476.848618,488.513619 C476.140496,488.159558 475.432448,477.183926 475.078399,476.121769 C474.724375,475.413697 474.370326,477.537987 473.662253,477.537987 C471.183961,477.892072 474.370326,475.059637 465.873354,477.537987 C464.811257,477.537987 465.165256,479.662301 464.457183,480.370397 C462.332965,481.078519 459.500649,481.786615 457.376381,481.078519 C455.606187,480.724458 452.419822,478.600144 453.127895,477.183926 C454.190017,475.059637 457.73043,476.475854 459.854673,476.121769 C460.916795,475.767708 451.003652,475.413697 449.941531,473.997479 C448.52536,471.873165 449.233482,469.040754 449.233482,466.56238 C449.233482,459.48134 462.332965,463.375933 464.103135,462.667787 C466.227378,461.959691 466.581427,458.419183 469.059718,458.065123 C470.829913,458.065123 472.600132,459.835401 474.370326,459.48134 C480.034958,458.065123 491.364271,448.505709 493.488514,443.549008 C494.196562,442.13279 492.780392,428.324748 490.656173,426.200434 C484.637493,418.765334 477.910739,440.008476 475.432448,425.492337 C474.724375,423.013962 482.159201,422.659902 486.761736,419.119394 C487.469809,418.057237 487.115785,416.286959 487.823857,415.224802 C488.53193,414.162669 489.240028,413.454573 489.948101,413.100512 C491.364271,412.038355 492.780392,411.684295 493.842513,411.330259 C496.320805,411.330259 498.445048,412.392416 503.401632,410.622137 C504.109705,410.268102 501.985462,407.789727 503.047583,408.143787 C505.525875,408.497823 506.942045,411.330259 509.420288,411.684295 C514.376871,412.392416 515.438993,407.789727 518.979406,410.976198 C520.749601,412.746427 521.457698,418.057237 523.581941,416.64102 C525.706184,415.224802 521.811722,411.330259 522.51982,408.851884 C522.873819,407.435666 529.246548,408.143787 533.849083,413.808584 C534.911205,414.870791 531.016767,413.808584 529.600597,413.100512 C526.414232,411.330259 524.998062,406.019473 525.706184,402.12488 C526.060184,400.000591 528.184427,398.230337 529.954646,396.81412 C531.370816,395.751962 534.911205,396.81412 534.557181,395.043841 C533.849083,392.919527 529.600597,392.919527 528.892524,390.795213 C524.290014,380.881763 536.327375,388.670898 536.327375,384.422295 C536.681424,382.29798 533.849083,383.360138 534.911205,380.881763 C535.973326,378.403388 539.159716,376.633134 538.805667,373.800723 C538.451618,368.489913 534.203132,378.049352 529.246548,378.403388 C526.060184,378.403388 530.308694,371.676434 529.246548,368.843974 C528.538475,367.427756 526.768281,371.676434 525.352111,371.322349 C521.103649,369.906131 524.644063,366.011588 524.290014,363.887273 L520.041528,355.035981 C519.687479,350.787327 531.370816,339.103599 531.72484,339.103599 C532.432938,339.457684 532.078889,341.227913 532.786962,340.873853 C535.619302,340.165756 539.513715,339.457684 540.221837,336.979309 C540.929885,334.854995 535.973326,336.979309 533.849083,336.625249 C532.432938,336.271213 531.016767,334.500935 529.246548,334.854995 C527.122305,335.563092 526.060184,338.395527 523.935941,339.103599 C522.165771,339.811696 520.041528,338.395527 518.271309,338.749538 C516.147066,339.457684 515.084944,341.227913 513.31475,341.93601 C512.606677,342.29007 511.544531,342.29007 511.190507,341.581974 C510.836458,340.519841 512.960701,338.749538 511.898579,338.395527 C510.836458,338.041467 511.190507,340.519841 510.482409,341.227913 C510.12841,341.581974 509.420288,341.227913 509.066288,340.873853 C507.296045,338.749538 507.296045,333.438777 503.401632,332.730681 C498.445048,331.668524 505.171826,337.687381 501.631413,343.352227 C500.215267,345.476542 498.445048,339.811696 497.028903,337.687381 C486.761736,324.233399 497.382927,339.811696 483.575371,331.668524 C480.034958,329.54421 488.53193,331.314463 488.177906,329.54421 C487.823857,321.401013 489.240028,322.109085 494.196562,316.444264 C503.401632,306.176778 487.823857,318.214542 499.153146,307.947007 C500.215267,306.884874 502.693534,306.884874 503.401632,305.468656 C504.817802,302.990306 498.091024,294.847085 497.736975,294.139013 C497.382927,293.076856 499.50717,293.076856 499.861218,292.014699 C500.92334,289.536324 499.861218,286.349853 500.92334,283.517417 C502.33951,280.330946 505.171826,283.871478 508.358166,285.287696 C520.041528,290.598481 502.33951,282.101224 502.33951,281.393103 C501.277389,279.268789 502.33951,276.436403 502.693534,273.603967 C502.693534,271.833714 504.109705,269.7094 503.047583,268.293182 C502.693534,267.939121 488.53193,275.728282 487.469809,276.790414 C484.637493,279.268789 489.240028,284.225539 488.53193,288.120107 C488.177906,289.536324 485.345566,289.182264 484.283444,290.244421 C483.575371,290.952542 482.867274,292.014699 482.867274,293.076856 C482.51325,294.139013 483.221322,295.555182 482.867274,296.263303 C481.805152,299.095714 478.972861,300.511931 477.910739,303.344342 C477.556666,304.052463 479.680909,305.468656 478.972861,305.822717 C476.494569,307.238935 473.308205,308.301092 470.475889,307.238935 C468.351646,306.176778 473.308205,303.344342 474.370326,301.574089 C476.494569,298.741653 475.786496,294.139013 477.910739,291.306578 L485.345566,284.933635 C484.637493,283.163382 480.743031,285.641732 480.034958,283.871478 C479.32691,282.45526 489.594052,276.436403 484.637493,275.374246 C482.51325,274.666125 481.451128,279.976885 479.680909,278.914728 C477.556666,277.144499 484.637493,275.728282 486.053663,273.249932 C487.469809,270.417496 486.407687,264.044553 487.469809,261.566203 C488.177906,259.441889 489.948101,257.317575 491.71827,256.963514 C493.488514,256.609478 496.674854,260.504046 496.674854,258.733792 C496.674854,256.963514 492.780392,256.963514 491.71827,255.19326 C489.240028,250.236511 503.755681,247.758185 504.109705,247.758185 C505.171826,246.696028 499.50717,248.112196 499.50717,246.696028 C499.50717,244.571664 503.047583,244.217653 503.755681,242.093339 C504.463753,241.031182 501.631413,242.801436 500.569291,243.863593 C498.091024,245.633822 498.445048,246.341968 496.320805,247.404125 C491.71827,249.882475 487.469809,253.777043 484.283444,252.360825 C484.637493,253.068946 484.991517,253.422982 485.699614,253.777043 C486.053663,254.485139 487.469809,255.19326 486.761736,255.901357 C483.929395,258.379732 469.767791,263.336432 467.289499,258.379732 C466.935475,258.025671 467.289499,256.963514 467.643548,256.963514 C474.724375,254.131103 469.059718,264.75265 477.910739,252.714886 C483.575371,245.27981 461.270844,249.174354 477.202667,243.863593 C477.910739,245.27981 478.618788,246.696028 479.680909,247.758185 C480.034958,248.466257 480.743031,249.174354 481.451128,249.528414 C480.743031,248.466257 480.034958,247.050039 479.680909,245.27981 C479.32691,244.217653 482.159201,245.27981 483.221322,245.27981 C486.053663,245.27981 488.885979,246.696028 491.364271,245.633822 C494.550635,244.217653 472.246083,244.571664 475.078399,240.323061 C477.202667,237.49065 486.407687,241.385218 487.115785,239.969025 C488.53193,236.428493 478.264788,232.179889 488.177906,229.701514 C490.656173,228.993418 493.13444,232.179889 495.966806,231.471743 C505.525875,229.347454 493.488514,222.974511 493.488514,222.974511 C494.550635,220.496136 499.861218,223.682607 501.631413,221.558293 C503.401632,219.433979 501.985462,215.893447 501.985462,213.061061 C501.985462,210.936747 502.33951,208.812432 501.631413,207.396215 C501.277389,206.688118 489.594052,194.296293 497.382927,191.109822 C499.153146,190.047665 499.50717,196.774668 501.631413,196.066547 C504.463753,195.35845 500.569291,187.215229 504.817802,189.693604 C510.482409,192.880075 510.836458,193.234136 510.836458,192.880075 C511.898579,188.277386 508.004167,187.923375 508.358166,183.320686 C508.358166,181.550408 512.960701,185.445 513.668799,183.674697 C515.084944,181.196372 511.898579,178.0099 512.252628,175.531526 C512.252628,174.469369 513.31475,177.301779 514.376871,177.301779 C516.855163,178.363936 520.749601,180.488251 522.51982,178.363936 C523.935941,176.593683 518.979406,174.823404 518.271309,172.69909 C516.501114,166.680233 521.811722,171.282922 521.811722,171.282922 C522.51982,170.574776 520.749601,169.158608 521.103649,168.450486 C521.811722,168.09645 523.581941,169.866704 523.581941,169.158608 C523.581941,168.09645 521.103649,167.388329 521.457698,166.326172 C521.811722,163.847797 523.935941,162.077544 525.352111,159.953229 L525.352111,159.953229 Z M583.060698,156.766758 C578.458163,165.972112 557.215732,146.145187 572.085434,145.08303 C574.209677,145.08303 576.33392,147.561405 576.33392,150.039779 C576.687969,151.455997 572.085434,151.101937 572.793507,152.164094 C573.855628,154.288408 577.041993,154.288408 579.166236,154.99648 C580.228358,155.704626 581.644528,156.058637 583.060698,156.766758 L583.060698,156.766758 Z M427.811631,310.869143 C428.873753,312.285385 430.289923,313.347518 431.706093,312.639397 C433.830336,311.577239 434.538409,308.036707 436.662652,306.974575 C438.78692,305.558382 441.265187,308.744853 443.389405,308.390793 C445.867697,308.390793 447.637941,306.620539 449.762159,306.974575 C452.240427,307.328636 453.656597,309.807011 455.78084,310.515082 C456.842961,311.223228 458.96718,309.807011 459.321253,310.869143 C460.737424,313.347518 461.445472,316.888025 460.737424,319.720461 C460.737424,320.782618 459.321253,321.136678 459.321253,321.844775 C463.215666,337.06901 461.445472,317.242086 465.693958,330.696068 C467.110128,334.590636 457.905083,339.901446 457.905083,339.901446 C463.923764,338.485228 470.296493,333.882539 469.234371,348.044618 C467.818201,361.85266 457.905083,354.417585 455.072767,357.604056 C452.594475,360.082382 454.36467,365.747228 447.99194,364.685071 C446.57577,364.685071 445.513649,363.268878 444.451527,362.206696 L443.035406,360.436442 C437.724774,357.249971 445.159649,365.393192 433.122263,361.144539 C431.352044,360.790503 433.830336,357.604056 434.538409,355.833753 C434.892458,353.355378 431.352044,354.063524 430.643972,352.647307 C428.873753,349.106775 430.643972,340.609518 426.749534,341.317614 C411.525809,343.441928 430.998045,350.522992 414.712148,351.93921 C409.401565,352.293246 395.59401,333.882539 397.010156,332.112285 C397.364204,332.112285 411.17176,328.571753 411.17176,328.571753 C411.879857,326.447464 407.277322,325.385307 406.923274,323.260993 C406.215201,321.136678 415.420271,323.969089 416.482367,323.260993 C422.147024,319.720461 420.022756,310.869143 427.811631,310.869143 L427.811631,310.869143 L427.811631,310.869143 Z M495.258684,164.201858 C493.488514,167.034293 488.53193,169.866704 487.823857,171.990994 C487.469809,173.761247 487.115785,183.674697 482.51325,183.674697 C480.034958,183.320686 480.389031,179.426094 478.618788,177.65584 C476.494569,176.239622 479.32691,183.674697 477.202667,184.736904 C476.140496,185.090915 474.724375,183.320686 474.016277,184.028783 C471.53801,185.445 471.183961,190.401701 468.351646,190.401701 C465.873354,190.401701 463.749135,186.153072 465.165256,184.028783 C466.581427,181.550408 472.600132,185.799061 473.662253,182.966625 C474.724375,180.488251 468.70567,180.134215 467.643548,177.301779 C467.289499,176.239622 470.12184,176.593683 470.829913,175.885586 C471.183961,175.531526 469.767791,175.885586 469.767791,175.531526 C469.059718,174.115308 468.70567,172.69909 469.059718,171.282922 C472.246083,162.431604 474.724375,170.574776 479.680909,171.636933 C480.034958,171.636933 477.910739,166.326172 478.972861,165.264015 C482.51325,161.015387 482.51325,164.909954 486.053663,164.555919 C486.407687,164.201858 486.407687,163.139701 486.761736,163.139701 C488.885979,161.369447 491.010222,158.537012 493.488514,158.891072 C495.258684,159.245133 494.550635,162.431604 495.258684,164.201858 L495.258684,164.201858 Z M499.861218,355.744052 C498.091024,356.098138 496.320805,356.098138 494.550635,357.16027 C493.13444,358.222427 492.780392,360.700777 491.364271,362.116995 C476.140496,375.925038 500.569291,372.384506 499.861218,355.744052 L499.861218,355.744052 Z" id="gb"></path>
        </g>
    </g>
</svg>