<?xml version="1.0" encoding="UTF-8" standalone="no"?>
<svg width="236px" height="102px" viewBox="0 0 236 102" version="1.1" xmlns="http://www.w3.org/2000/svg" xmlns:xlink="http://www.w3.org/1999/xlink">
    <!-- Generator: Sketch 3.6 (26304) - http://www.bohemiancoding.com/sketch -->
    <title>ge</title>
    <desc>Created with Sketch.</desc>
    <defs></defs>
    <g id="Page-1" stroke="none" stroke-width="1" fill="none" fill-rule="evenodd">
        <g id="Group" transform="translate(-407.000000, -299.000000)" fill="#FFFFFF">
            <path d="M621.465394,312.086757 C621.134963,314.729588 621.795594,317.372442 620.804763,320.015273 C620.474563,321.006314 618.493131,320.675952 617.83273,321.667016 C617.172099,322.988443 620.474563,327.613426 622.125794,327.613426 C623.116395,327.613426 625.097827,325.631297 625.097827,326.622361 C625.428258,327.283063 624.107226,327.613426 624.107226,327.943765 C623.777026,329.595555 644.251746,327.283063 642.270314,337.854409 C639.298051,351.068587 636.326018,340.166878 628.730491,342.809732 C622.125794,345.122223 626.418858,348.425733 620.144362,348.425733 C617.5023,348.756095 615.190667,348.095416 612.548835,347.765054 C612.218635,347.765054 611.888435,347.765054 611.888435,347.434668 C611.888435,346.443627 613.869866,344.79186 612.879035,344.461498 C607.925571,342.809732 602.971876,345.122223 598.348611,346.443627 C593.064716,348.095416 594.715948,357.675675 591.083284,360.318529 C589.762483,360.979231 585.79962,361.639956 587.120421,362.300658 C587.781051,362.63102 590.092684,362.961337 589.432053,363.622085 C583.818188,367.586319 574.571429,368.907746 569.948164,373.202344 C563.673668,378.157689 559.050174,384.434415 551.124446,388.398673 L550.794246,388.729012 C550.794246,388.06831 550.464046,387.737948 550.133845,387.407608 C549.143014,386.416544 547.822213,386.086181 546.831382,386.416544 C545.18015,387.077246 544.18955,389.059375 542.538318,389.389737 C541.547487,389.389737 541.547487,387.407608 540.556886,387.077246 C539.566055,387.077246 538.575454,389.389737 538.245254,388.398673 C537.584623,387.407608 539.566055,386.416544 539.566055,385.095117 C539.896485,382.782625 534.942791,384.104052 532.631158,383.44335 C530.649726,383.112988 528.998495,381.791561 527.017063,381.791561 C526.356662,381.791561 527.017063,383.44335 526.686863,383.77369 C521.072767,385.095117 525.696031,380.470134 524.04503,379.148753 C523.054199,378.488005 522.063598,380.139795 521.072767,380.800497 C519.751736,381.461198 517.440104,381.461198 516.779703,382.782625 C515.788872,384.764754 517.770304,387.407608 516.779703,389.389737 C515.788872,390.711118 513.80744,390.380801 512.486639,390.711118 C508.193575,392.032545 502.90968,391.702228 499.277016,394.675399 C497.955985,395.666463 498.946816,398.309294 497.295584,399.630721 C495.974783,400.621785 493.993351,399.961083 492.34212,399.961083 C490.690888,399.961083 489.039656,400.291423 487.058225,400.291423 L486.397824,400.291423 C486.728024,398.309294 487.058225,396.657528 487.718625,394.675399 C489.039656,388.729012 491.351289,390.380801 489.039656,384.104052 C486.728024,376.17556 478.141896,371.88094 473.188201,365.273828 C470.546369,362.300658 469.555538,355.693546 465.262474,353.711417 C462.950841,352.720353 460.309009,353.050715 457.666946,353.381078 C456.676345,353.381078 456.015945,354.702482 454.694914,354.702482 C452.053081,354.372142 451.06225,350.077522 448.420418,348.756095 C440.49469,345.122223 440.49469,348.095416 433.559563,350.077522 C432.568962,350.407908 431.908331,349.74716 430.917731,349.74716 C429.266499,349.74716 427.615267,349.086481 425.964036,349.74716 C425.303635,349.74716 425.964036,351.068587 425.633835,351.398972 C422.992003,352.720353 422.001172,346.443627 419.029139,345.452562 C416.717507,344.79186 414.405875,345.452562 411.763812,345.782925 C410.773211,345.782925 410.11258,346.443627 409.12198,346.113287 C408.461579,345.782925 408.131149,345.452562 407.800948,344.79186 L411.433612,345.122223 C411.433612,329.595555 415.396476,337.854409 425.303635,333.22945 C426.954867,332.568748 427.615267,330.256256 429.266499,329.925894 C433.559563,328.93483 437.852627,333.22945 442.145691,332.568748 C442.806322,332.568748 451.39245,328.60449 452.383281,328.60449 C455.025114,328.93483 457.336746,331.577683 459.978578,331.577683 C459.978578,331.577683 474.509233,325.961636 474.839433,325.961636 C483.425561,320.345635 464.602073,323.318805 483.755761,319.024208 C486.397824,318.693846 489.039656,320.015273 491.351289,319.354571 C491.351289,319.354571 497.625785,314.729588 502.57948,316.051015 C503.23988,316.381354 502.90968,317.702781 503.57008,318.363506 C504.891112,319.024208 506.542343,319.684887 508.193575,320.015273 C515.788872,320.675952 524.37523,318.033144 531.970758,318.363506 C533.95219,318.363506 528.338094,324.970572 533.291559,324.970572 C546.170981,324.970572 543.198718,311.095693 553.105878,306.47071 C556.078141,305.149283 559.380374,311.095693 561.692006,309.443903 C563.673668,307.792137 560.041005,301.845773 562.682837,301.515411 C572.920197,299.863621 571.929596,304.158242 579.194693,304.158242 C581.176125,304.158242 582.166956,301.185048 583.818188,300.524346 C585.79962,299.863621 588.111252,299.863621 590.092684,299.533282 C593.725347,299.533282 592.074116,310.434968 592.734516,312.417097 C592.734516,312.747459 593.394917,312.417097 593.725347,312.417097 L598.348611,312.417097 C599.669643,312.417097 601.320644,312.086757 602.641676,312.417097 C603.962707,313.077822 604.623107,315.05995 605.613939,315.05995 C605.944139,315.05995 613.869866,311.095693 614.200067,311.095693 C615.190667,311.095693 616.511699,312.417097 617.83273,312.417097 C618.493131,312.417097 619.814162,312.086757 621.465394,311.426032 L621.465394,312.086757 L621.465394,312.086757 Z" id="ge"></path>
        </g>
    </g>
</svg>