<?xml version="1.0" encoding="UTF-8" standalone="no"?>
<svg width="1638px" height="780px" viewBox="0 0 1638 780" version="1.1" xmlns="http://www.w3.org/2000/svg" xmlns:xlink="http://www.w3.org/1999/xlink">
    <!-- Generator: Sketch 3.6 (26304) - http://www.bohemiancoding.com/sketch -->
    <title>Group</title>
    <desc>Created with Sketch.</desc>
    <defs>
        <rect id="path-1" x="-4.92480106e-13" y="0" width="1638" height="779.988572"></rect>
    </defs>
    <g id="Page-1" stroke="none" stroke-width="1" fill="none" fill-rule="evenodd">
        <g id="Blank_political_map_Europe_in_2008_WF_(with_Kosovo)">
            <g id="Group">
                <mask id="mask-2" fill="white">
                    <use xlink:href="#path-1"></use>
                </mask>
                <use id="maska" xlink:href="#path-1"></use>
                <rect id="ocean" fill="#2096BD" mask="url(#mask-2)" x="-3805.93128" y="-3452.72046" width="6706.9483" height="4298.1094"></rect>
                <g id="outlines" mask="url(#mask-2)" stroke="#FFFFFF" stroke-width="3">
                    <g transform="translate(-2782.704793, -3455.833333)">
                        <path d="M2965.03092,3984.64412 C2954.94235,3990.07823 2921.57264,4070.81316 2929.33297,4081.68138 C2932.43716,4086.33917 2947.95803,4086.33917 2943.30178,4089.44438 C2939.42153,4091.77328 2940.19759,4084.01027 2937.86947,4089.44438 C2937.86947,4090.99696 2936.31735,4092.54954 2937.09341,4094.87844 C2938.64553,4101.08886 2947.95803,4104.19407 2950.28616,4110.40439 C2951.06211,4111.95697 2947.95803,4111.18071 2946.40591,4112.73329 C2942.52572,4115.06218 2938.64553,4117.39108 2936.31735,4121.27261 C2933.98922,4125.15408 2933.21322,4129.81187 2932.43716,4133.69329 C2931.6611,4138.35109 2934.76528,4144.56151 2932.43716,4148.44299 C2930.88509,4150.77188 2928.55696,4140.68009 2913.8122,4141.4563 C2897.51527,4143.00899 2904.4997,4148.44299 2882.77056,4138.35109 C2873.458,4134.46967 2871.12987,4117.39108 2861.04137,4111.18071 C2847.07256,4102.64139 2834.65592,4111.18071 2819.13515,4104.97028 C2816.80703,4104.19407 2814.4789,4103.41776 2812.15077,4101.86518 C2809.04659,4099.53617 2807.49452,4094.10217 2803.61428,4092.54954 C2800.51009,4090.22064 2796.6299,4092.54954 2792.74971,4090.99696 C2777.22888,4085.56285 2766.36432,4070.81316 2749.29143,4066.15542 C2742.307,4064.60284 2734.54661,4071.58948 2727.56223,4068.48427 C2726.01011,4067.70806 2707.38516,4047.52426 2708.16122,4044.41904 C2708.16122,4041.31383 2712.81747,4039.76125 2712.81747,4037.43236 C2713.59342,4035.10352 2710.48935,4034.32714 2710.48935,4031.9983 C2710.48935,4028.89314 2712.04141,4025.01162 2714.36954,4021.9064 C2716.69761,4018.80124 2721.35386,4018.02493 2724.45805,4014.91972 C2728.33824,4011.81456 2732.21849,4000.17002 2735.32262,4004.05161 C2736.87474,4006.38045 2739.20286,4021.9064 2746.18724,4021.13014 C2772.57263,4017.24861 2746.18724,3997.84118 2779.55701,3999.39382 C2788.09351,3999.39382 2781.10902,4008.70934 2785.76538,4011.03824 C2788.86946,4012.59082 2793.52571,4008.70934 2797.40596,4010.26192 C2799.73408,4011.03824 2798.95802,4015.69603 2800.51009,4016.47235 C2805.1664,4019.57751 2811.37471,4022.68272 2816.80703,4022.68272 C2817.58298,4022.68272 2836.98405,4013.36714 2836.98405,4013.36714 C2843.19242,4012.59082 2856.38506,4017.24861 2865.69762,4014.91972 C2885.09868,4011.03824 2884.32262,4003.27524 2894.41113,3997.84118 C2917.69234,3985.42044 2900.61945,4002.49892 2923.12465,4000.94639 C2938.64553,4000.17002 2927.7809,3991.63081 2933.98922,3985.42044 C2936.31735,3983.09149 2936.31735,3992.40713 2938.64553,3991.63081 C2952.61428,3988.5256 2952.61428,3976.1048 2965.03092,3984.64412 L2965.03092,3984.64412 Z M2452.84353,3698.19015 C2455.17166,3709.05826 2489.31749,3706.72937 2484.66129,3723.80795 C2483.88518,3728.46574 2470.69248,3726.91317 2472.2446,3732.34727 C2473.79667,3737.78138 2484.66129,3736.22869 2488.54143,3740.88649 C2490.0935,3742.43912 2484.66129,3743.21538 2484.66129,3745.54428 C2489.31749,3773.49103 2496.30187,3733.8998 2497.85393,3771.16219 C2498.62999,3784.35919 2484.66129,3789.01698 2480.78099,3799.8852 C2476.90085,3809.97704 2488.54143,3809.97704 2490.0935,3818.51631 C2490.0935,3821.62152 2486.2133,3824.72674 2486.2133,3828.60821 C2483.88518,3854.22607 2486.98936,3889.93577 2472.2446,3915.55357 C2471.46854,3917.1062 2472.2446,3913.22467 2470.69248,3912.44841 C2459.82791,3908.56688 2445.85921,3897.69877 2432.66646,3898.47498 C2430.33833,3898.47498 2438.09877,3901.58024 2438.09877,3903.90909 C2437.32271,3907.0143 2433.44252,3908.56688 2432.66646,3912.44841 C2428.01021,3930.30326 2440.4269,3927.1981 2418.69771,3937.28989 C2388.43207,3951.26332 2407.05713,3922.54025 2392.31231,3916.32988 C2388.43207,3914.7773 2384.55188,3920.98767 2379.89568,3920.98767 C2376.79149,3920.98767 2389.20813,3920.21136 2389.98419,3916.32988 C2389.98419,3910.89577 2382.22375,3907.79067 2380.67174,3903.13277 C2376.01549,3887.60687 2386.88,3877.51497 2389.20813,3864.31786 C2389.98419,3858.88386 2386.88,3854.22607 2388.43207,3848.79196 C2389.20813,3844.13417 2397.74463,3841.80527 2396.19251,3837.14753 C2395.4165,3833.26595 2386.88,3837.14753 2384.55188,3834.04232 C2382.22375,3830.16084 2386.10394,3825.503 2386.10394,3821.62152 C2386.10394,3820.84521 2382.99986,3820.84521 2383.77582,3820.06894 C2385.32799,3817.74005 2389.98419,3818.51631 2391.53625,3815.41115 C2394.64044,3807.64815 2382.99986,3769.6095 2378.34361,3764.1755 C2369.03105,3754.0836 2362.82274,3787.4644 2365.15086,3748.64949 C2365.92692,3743.21538 2371.35918,3739.33391 2372.13524,3733.8998 C2372.9113,3730.79459 2369.03105,3727.68948 2371.35918,3725.36059 C2372.13524,3724.58427 2377.56755,3740.88649 2391.53625,3740.88649 C2403.17688,3741.6628 2445.85921,3706.72937 2452.84353,3698.19015 L2452.84353,3698.19015 Z M2772.57263,3154.78149 C2771.02057,3170.30749 2751.61955,3167.20228 2750.06738,3179.62302 C2748.51537,3188.93861 2766.36432,3187.38597 2770.24451,3190.49119 C2775.67682,3195.14892 2760.932,3201.3594 2758.60388,3208.34604 C2755.49969,3218.43794 2767.91638,3207.56972 2769.46845,3211.45125 C2771.02057,3215.33272 2762.48407,3225.42462 2767.91638,3228.52984 C2775.67682,3233.18763 2806.71846,3251.81874 2779.55701,3250.26616 C2781.10902,3246.38463 2781.10902,3243.27942 2778.00494,3239.39794 C2763.26013,3225.42462 2764.03619,3231.63494 2755.49969,3242.50316 C2756.27575,3241.72684 2756.27575,3240.95052 2756.27575,3240.95052 C2756.27575,3233.18763 2741.53099,3231.63494 2734.54661,3234.74015 C2730.66637,3237.06905 2734.54661,3245.60832 2731.44243,3248.71353 C2728.33824,3251.81874 2722.90593,3249.48984 2718.24968,3251.04242 C2707.38516,3255.70022 2697.2966,3268.12096 2684.87991,3270.44985 C2680.99977,3271.22617 2677.11952,3267.34475 2674.01539,3269.67364 C2670.91121,3270.44985 2674.01539,3275.10764 2672.46327,3278.21286 C2671.68727,3280.54175 2669.35914,3283.64697 2667.80702,3285.97586 C2668.58308,3285.19954 2668.58308,3284.42323 2669.35914,3284.42323 C2673.23933,3284.42323 2670.13515,3292.96255 2673.23933,3294.51513 C2674.7914,3295.29144 2675.56746,3289.85734 2677.11952,3291.40997 C2678.67164,3294.51513 2681.77572,3300.72555 2678.67164,3303.05439 C2677.11952,3303.83066 2676.34352,3305.38329 2677.11952,3306.93587 C2677.89558,3307.71219 2679.4476,3306.15966 2680.99977,3306.15966 C2685.65597,3310.04108 2693.4164,3312.36998 2694.19241,3317.80409 C2698.84866,3339.54041 2680.22371,3331.00109 2674.7914,3344.1982 C2673.23933,3348.07968 2683.3279,3389.9998 2685.65597,3394.65759 C2690.31222,3402.42054 2744.63518,3441.23546 2755.49969,3447.44583 C2766.36432,3453.65625 2769.46845,3449.77472 2779.55701,3458.31404 C2790.42158,3467.62963 2805.1664,3528.95718 2813.70284,3544.48308 C2822.23934,3560.78541 2840.08823,3575.53499 2854.05693,3586.40321 C2858.71318,3589.50842 2865.69762,3590.28468 2869.57781,3594.16621 C2871.90593,3595.71879 2869.57781,3600.37653 2871.12987,3601.92922 C2892.08301,3623.66554 2931.6611,3616.67885 2956.49442,3612.79732 C2961.92673,3612.02101 2973.56736,3603.48174 2980.55174,3611.24474 C2999.95275,3632.98112 2941.74966,3640.74407 2971.23924,3660.92782 C2999.17675,3679.55899 3037.97883,3678.00635 3066.69235,3692.75604 C3076.78091,3698.19015 3080.6611,3706.72937 3092.30168,3710.61089 C3101.61418,3714.49237 3127.22357,3718.3739 3134.984,3724.58427 C3138.08814,3726.91317 3134.984,3732.34727 3137.31213,3734.67617 C3146.62463,3747.87317 3171.45796,3745.54428 3179.21834,3772.71471 C3182.32253,3782.80661 3175.33815,3779.7014 3173.01003,3786.68809 C3171.45796,3790.56962 3173.78609,3806.09552 3170.6819,3807.64815 C3167.57771,3809.97704 3162.1454,3807.64815 3157.48915,3805.31931 C3133.43188,3796.00372 3143.52045,3782.03029 3131.10376,3765.72808 C3124.11938,3756.41249 3101.61418,3765.72808 3089.97355,3761.8466 C3074.45278,3756.41249 3065.91629,3738.55759 3051.17147,3754.0836 C3049.61946,3756.41249 3030.21839,3795.22741 3030.21839,3796.77999 C3030.21839,3799.10883 3034.09858,3801.43772 3033.32252,3804.54294 C3030.21839,3819.29263 3014.69757,3818.51631 3027.89027,3835.59484 C3035.6507,3844.91043 3037.97883,3836.37122 3046.51527,3838.70006 C3055.82772,3841.80527 3062.03609,3851.12085 3070.57254,3855.00233 C3073.67672,3856.55496 3078.33298,3855.00233 3079.88504,3858.10754 C3081.43716,3860.43644 3076.78091,3863.54165 3076.78091,3866.64675 C3077.55692,3888.38319 3087.64543,3868.19944 3086.09341,3896.14614 C3085.3173,3912.44841 3054.27566,3906.23798 3040.30695,3922.54025 C3030.21839,3934.18479 3043.41109,3945.82921 3040.30695,3959.80259 C3037.97883,3971.44701 3030.21839,3968.34191 3022.45795,3974.55222 C3003.833,3990.85449 3017.02564,4028.11683 2978.22361,4017.24861 C2970.46318,4014.91972 2961.92673,3994.73602 2966.58298,3986.1967 C2969.68717,3981.53891 2977.44761,3982.31523 2981.3278,3978.4337 C2983.65593,3975.32854 2983.65593,3970.6708 2984.43199,3966.78927 C2985.20794,3962.9078 2988.31212,3959.80259 2987.53606,3955.92111 C2986.76011,3951.26332 2978.99967,3948.93442 2979.77573,3944.27658 C2982.87981,3930.30326 3001.50487,3938.06621 3006.93713,3930.30326 C3020.12983,3914.7773 3004.60901,3912.44841 2998.40069,3903.90909 C2992.19232,3894.59356 2995.2965,3881.39644 2990.64025,3871.30465 C2988.31212,3865.09423 2985.20794,3859.66012 2981.3278,3855.00233 C2980.55174,3853.44975 2977.44761,3853.44975 2975.89549,3851.89717 C2961.92673,3830.93711 2976.67155,3843.35785 2967.35904,3820.06894 C2955.71836,3790.56962 2948.73398,3805.31931 2925.45278,3806.87183 C2924.67672,3806.87183 2926.22884,3804.54294 2925.45278,3802.99041 C2922.34859,3799.8852 2918.46845,3796.00372 2913.8122,3793.67483 C2909.15595,3791.34593 2899.84345,3793.67483 2896.73926,3788.24072 C2893.63507,3782.80661 2902.94758,3777.3725 2902.17157,3771.16219 C2901.39551,3764.95171 2896.73926,3759.51771 2893.63507,3754.85992 C2875.01012,3729.24206 2871.90593,3764.95171 2850.1768,3757.18881 C2847.84867,3756.41249 2864.92156,3743.9917 2857.16112,3738.55759 C2829.22366,3718.3739 2856.38506,3739.33391 2826.11948,3735.45249 C2823.79135,3734.67617 2826.11948,3730.79459 2825.34342,3728.46574 C2822.23934,3719.15016 2805.9424,3694.30868 2798.18196,3691.20347 C2777.22888,3683.44046 2793.52571,3698.19015 2786.54133,3696.63757 C2779.55701,3695.08494 2773.34869,3686.54567 2765.58826,3687.32194 C2758.60388,3688.87457 2753.17157,3698.19015 2746.9633,3696.63757 C2739.97887,3695.08494 2740.75493,3684.99304 2736.09868,3680.33525 C2730.66637,3675.67746 2716.69761,3677.23009 2712.04141,3674.12488 L2700.40078,3657.82266 C2694.96847,3653.16482 2686.43208,3652.38855 2681.77572,3646.95444 C2672.46327,3632.98112 2683.3279,3635.31002 2672.46327,3626.7707 C2667.80702,3622.88922 2662.37471,3619.78401 2656.94245,3616.67885 C2655.39033,3615.90254 2652.28625,3618.23143 2650.73408,3617.45512 C2642.19769,3610.46843 2642.19769,3597.27142 2633.66119,3590.28468 C2618.91637,3577.86394 2609.60392,3587.17952 2594.0831,3580.9691 C2591.75498,3580.19284 2597.9633,3577.86394 2599.51536,3576.31131 C2604.17161,3570.10099 2594.85911,3560.00909 2592.53098,3557.68019 C2590.97892,3556.12756 2587.87473,3557.68019 2586.32267,3556.12756 C2583.99459,3553.0224 2583.99459,3548.36461 2580.89041,3546.03572 C2577.01022,3542.9305 2569.24978,3545.2594 2566.14559,3540.60161 C2563.81747,3537.49639 2570.80184,3531.28608 2566.92165,3528.95718 C2562.2654,3525.07565 2554.50496,3529.73339 2548.29659,3527.40455 C2544.41645,3525.85197 2550.62482,3518.86528 2550.62482,3514.20749 C2552.95295,3498.68148 2550.62482,3493.24743 2542.08833,3480.05037 C2525.79144,3456.76141 2537.43207,3435.80135 2518.03101,3417.9465 C2516.479,3415.6176 2513.37481,3414.84134 2511.04668,3414.06502 C2510.27062,3414.06502 2509.49451,3416.39392 2508.71856,3415.6176 C2504.83831,3414.06502 2502.51019,3409.40723 2498.62999,3409.40723 C2496.30187,3409.40723 2500.95812,3416.39392 2498.62999,3415.6176 C2492.42168,3414.06502 2487.76537,3409.40723 2482.33317,3405.52581 C2480.00504,3403.97312 2460.60397,3383.78943 2454.3956,3383.78943 C2452.84353,3383.78943 2455.17166,3387.67091 2453.61965,3388.44722 C2452.06747,3389.22349 2449.73935,3388.44722 2448.96329,3386.89459 C2445.08315,3382.2368 2428.78627,3374.47379 2421.02583,3374.47379 C2417.92165,3374.47379 2397.74463,3386.11833 2396.19251,3389.22349 C2394.64044,3392.3287 2396.96857,3396.98649 2394.64044,3399.31533 C2392.31231,3402.42054 2386.10394,3401.64423 2383.77582,3403.97312 C2378.34361,3409.40723 2374.46337,3421.82803 2368.25505,3427.26214 C2358.16648,3437.35393 2340.31754,3436.57772 2328.67691,3438.13024 C2324.79672,3424.15692 2351.18211,3406.30202 2339.54153,3397.76281 C2335.66129,3395.43391 2330.22897,3398.53902 2325.57272,3399.31533 C2320.91647,3399.31533 2315.48416,3401.64423 2310.82791,3400.0917 C2302.29152,3397.76281 2282.11439,3383.01312 2282.89045,3372.1449 C2282.89045,3370.59232 2286.77064,3370.59232 2286.77064,3369.03979 C2285.99463,3366.7109 2278.23425,3364.382 2280.56238,3359.72416 C2283.66656,3356.619 2287.5467,3354.2901 2289.87483,3350.40857 C2290.65089,3349.63231 2288.32276,3348.07968 2289.09877,3346.5271 C2289.87483,3344.1982 2296.8592,3348.07968 2297.63526,3345.75078 C2297.63526,3339.54041 2296.8592,3333.32999 2294.53108,3328.67225 C2290.65089,3322.46188 2265.0415,3312.36998 2266.59362,3299.94918 C2266.59362,3296.06776 2273.578,3296.06776 2277.45819,3295.29144 C2279.78626,3295.29144 2281.33844,3299.94918 2283.66656,3299.17287 C2287.5467,3298.39666 2312.38008,3278.21286 2308.49983,3271.22617 C2306.17171,3266.56843 2298.41132,3265.79206 2296.08314,3260.35795 C2293.75502,3257.25285 2296.8592,3251.81874 2295.30714,3248.71353 C2284.44251,3230.08242 2264.26549,3239.39794 2299.96339,3218.43794 C2307.72383,3232.41131 2328.67691,3216.8853 2338.76547,3214.55641 C2345.74985,3213.00383 2351.18211,3222.31941 2358.16648,3222.31941 C2358.94254,3222.31941 2380.67174,3199.80672 2380.67174,3195.92529 C2381.44769,3192.04382 2374.46337,3190.49119 2375.23943,3187.38597 C2376.79149,3182.72818 2382.99986,3181.1756 2386.88,3178.07039 C2390.76019,3174.96523 2393.86438,3171.86002 2397.74463,3168.75481 C2399.29669,3167.97849 2400.84876,3166.42591 2401.62482,3167.20228 C2403.17688,3171.86002 2402.40088,3176.51781 2402.40088,3181.1756 C2402.40088,3183.5045 2400.07275,3186.60971 2400.84876,3189.71492 C2406.28107,3199.80672 2418.69771,3202.13561 2427.23415,3205.24082 C2428.01021,3205.24082 2429.56227,3206.7934 2429.56227,3208.34604 C2428.78627,3211.45125 2423.35396,3213.78014 2424.13002,3216.8853 C2424.90602,3219.99052 2430.33833,3218.43794 2432.66646,3220.76683 C2435.77065,3224.64831 2437.32271,3237.84537 2441.97896,3233.96384 C2455.17166,3223.87199 2439.65084,3226.9772 2439.65084,3219.2142 C2439.65084,3202.13561 2458.27585,3197.47782 2461.37998,3183.5045 C2461.37998,3181.95192 2452.84353,3160.9918 2466.03623,3163.3207 C2476.12479,3164.87339 2463.7081,3180.39929 2483.88518,3185.05708 C2496.30187,3188.93861 2486.2133,3173.4126 2507.16644,3177.29413 C2513.37481,3178.07039 2510.27062,3190.49119 2515.70294,3193.5964 C2518.80712,3195.14892 2525.01538,3192.04382 2524.23932,3188.93861 C2522.68726,3186.60971 2519.58307,3185.05708 2518.80712,3181.95192 C2518.80712,3178.84671 2523.46332,3176.51781 2522.68726,3173.4126 C2521.13519,3169.53112 2507.16644,3160.9918 2518.03101,3153.22891 C2531.99976,3143.13701 2526.56745,3165.64959 2542.86439,3161.76817 C2552.17684,3158.66296 2537.43207,3147.7948 2537.43207,3146.24217 C2538.98414,3143.13701 2541.31227,3140.80811 2542.08833,3137.7029 C2543.64034,3134.59769 2542.86439,3130.71627 2543.64034,3127.61105 L2543.64034,3127.61105 C2556.05703,3133.82148 2545.19251,3126.05847 2557.60915,3127.61105 C2563.81747,3128.38737 2570.02584,3144.68959 2582.44242,3137.7029 L2592.53098,3116.74289 C2598.73936,3112.0851 2625.90075,3115.19026 2632.88518,3114.41399 C2644.52581,3113.63768 2653.83826,3103.54578 2665.47889,3103.54578 C2668.58308,3103.54578 2660.04658,3107.42725 2659.27058,3110.53247 C2655.39033,3126.83468 2665.47889,3115.96657 2671.68727,3125.28216 C2673.23933,3127.61105 2669.35914,3130.71627 2670.91121,3133.82148 C2671.68727,3135.374 2674.01539,3132.26879 2675.56746,3133.82148 C2690.31222,3144.68959 2694.19241,3146.24217 2714.36954,3149.34738 C2733.77055,3151.67627 2753.17157,3153.22891 2772.57263,3154.78149 L2772.57263,3154.78149 Z M2687.98409,3424.93324 C2689.53616,3422.60434 2689.53616,3419.49913 2691.86428,3417.9465 C2698.07266,3411.73613 2696.52054,3435.80135 2687.98409,3424.93324 L2687.98409,3424.93324 Z" id="it" fill="#87B024"></path>
                        <path d="M5091.38462,3532.06229 C5094.48842,3528.95718 5097.59277,3527.40455 5099.14468,3523.52307 C5100.69712,3519.6416 5099.92117,3499.45785 5104.57742,3498.68148 C5110.00963,3497.12896 5115.44183,3501.01038 5120.09808,3498.68148 C5124.75433,3496.35264 5126.30624,3487.81337 5131.73844,3485.48448 C5143.37934,3479.27405 5182.18126,3487.03706 5193.04567,3473.06368 C5204.68657,3458.31404 5186.83751,3461.41926 5204.68657,3455.98515 C5227.96783,3448.99846 5214.77502,3473.06368 5227.96783,3482.37927 C5233.40003,3485.48448 5239.60819,3455.20883 5247.36879,3448.99846 C5251.24909,3446.66957 5262.88944,3448.22214 5260.56159,3444.34067 C5243.48849,3417.9465 5256.68129,3442.01177 5234.95193,3427.26214 C5223.31157,3419.49913 5225.63943,3402.42054 5224.86348,3400.0917 C5223.31157,3397.76281 5200.80627,3394.65759 5198.47841,3394.65759 C5195.37406,3394.65759 5189.16591,3401.64423 5188.38941,3397.76281 C5186.06156,3387.67091 5189.16591,3372.1449 5189.94186,3361.27679 C5189.94186,3357.39526 5191.49376,3352.73747 5190.71781,3348.85599 C5183.7337,3330.22488 5179.07745,3357.39526 5172.0928,3344.97452 C5172.0928,3343.42189 5153.4678,3305.38329 5153.4678,3305.38329 C5144.15529,3301.50176 5149.5875,3318.58035 5139.49904,3296.84397 C5137.94714,3292.96255 5139.49904,3286.75218 5137.94714,3282.87065 C5134.06684,3275.10764 5119.32213,3274.33138 5114.66588,3265.79206 C5110.00963,3258.02911 5137.94714,3260.35795 5139.49904,3247.16095 C5141.05094,3226.9772 5111.9794,3199.80683 5158.54192,3211.45125 C5150.78132,3205.24083 5134.06684,3200.58303 5127.08219,3198.25419 C5099.14468,3188.93861 5089.05622,3210.67493 5057.23841,3211.45125 C5054.91055,3211.45125 5061.11871,3206.01714 5059.56681,3204.46451 C5056.46246,3199.03051 5049.47835,3197.47782 5044.8221,3192.82008 C5036.28555,3183.5045 5043.2702,3165.64959 5040.9418,3154.78149 C5036.28555,3134.59769 5012.22834,3136.15037 5006.02018,3130.71627 C5003.69178,3128.38737 5004.46773,3123.72958 5002.13988,3121.40068 C4999.81148,3119.07179 4996.70768,3118.29547 4994.37928,3119.07179 C4990.49898,3120.62437 4988.17112,3125.28216 4984.29082,3126.05847 C4981.96243,3126.05847 4981.96243,3121.40068 4979.63457,3120.62437 C4977.30618,3120.62437 4974.97832,3126.05847 4974.20237,3123.72958 C4972.64992,3121.40068 4977.30618,3119.07179 4977.30618,3115.96657 C4978.08267,3110.53247 4966.44177,3113.63768 4961.00956,3112.0851 C4956.35331,3111.30878 4952.47301,3108.20357 4947.81676,3108.20357 C4946.26486,3108.20357 4947.81676,3112.0851 4947.04081,3112.86136 C4933.848,3115.96657 4944.71241,3105.09836 4940.83265,3101.99325 C4938.50426,3100.44057 4936.1764,3104.32209 4933.848,3105.87467 C4930.74366,3107.42725 4925.31145,3107.42725 4923.75955,3110.53247 C4921.43115,3115.19026 4926.0874,3121.40068 4923.75955,3126.05847 C4921.43115,3129.16358 4916.7749,3128.38737 4913.67109,3129.16358 C4903.58264,3132.26879 4891.16579,3131.49258 4882.62923,3138.47922 C4879.52489,3140.80811 4881.85328,3147.01848 4877.97298,3150.12369 C4874.86917,3152.45259 4870.21292,3150.90001 4866.33262,3150.90001 C4862.45232,3150.90001 4858.57202,3151.67627 4853.91577,3151.67627 C4847.70762,3170.30749 4842.27541,3185.05708 4825.97826,3200.58303 C4823.6504,3202.91193 4819.7701,3202.13561 4818.21766,3204.46451 C4808.1292,3216.10904 4796.48884,3246.38463 4780.96819,3253.37132 C4777.08789,3254.92395 4771.65568,3250.26616 4767.77538,3251.04242 C4764.67103,3251.81874 4763.89508,3257.25285 4760.79073,3258.02911 C4757.68638,3258.80543 4754.58258,3256.47653 4751.47823,3256.47653 C4748.37388,3257.25285 4746.04603,3261.13432 4742.16573,3260.35795 C4741.38977,3260.35795 4726.64507,3252.59506 4721.98881,3256.47653 C4718.10851,3259.58174 4718.10851,3265.01574 4715.00417,3267.34475 C4711.90036,3268.89727 4708.02006,3265.79206 4704.91571,3267.34475 C4701.8119,3269.67364 4701.8119,3273.55507 4698.70755,3275.88396 C4694.0513,3279.76544 4687.06665,3280.54175 4682.4104,3284.42323 C4674.65034,3291.40997 4673.87439,3296.84397 4665.33784,3303.05439 C4655.24938,3310.8174 4630.41568,3314.69887 4618.77532,3314.69887 C4590.83781,3314.69887 4621.87913,3311.59366 4605.58252,3305.38329 C4596.27001,3302.27808 4593.94216,3319.35667 4590.83781,3320.90924 C4585.40561,3323.23814 4578.42096,3320.13298 4572.21275,3319.35667 C4571.43669,3318.58035 4571.43669,3316.25145 4569.88462,3316.25145 C4563.67625,3317.02777 4558.24405,3322.46188 4551.25967,3321.68556 C4548.93154,3321.68556 4549.70755,3315.47519 4547.37942,3313.92256 C4543.49923,3311.59366 4538.06692,3309.26477 4532.63461,3309.26477 C4502.36902,3310.04108 4517.11384,3340.31667 4486.8482,3327.11967 C4477.5357,3322.46188 4472.87945,3298.39666 4462.79088,3299.94918 C4458.91074,3299.94918 4458.91074,3309.26477 4455.0305,3307.71219 C4451.92637,3306.93587 4458.13468,3297.62034 4454.25449,3297.62034 C4446.49405,3298.39666 4434.07736,3327.11967 4406.91591,3317.02777 C4378.2024,3306.15966 4394.49922,3291.40997 4392.94721,3289.85734 C4389.06691,3285.19954 4382.08259,3288.30476 4376.65033,3288.30476 C4374.3222,3288.30476 4371.99402,3286.75218 4371.21802,3288.30476 C4368.88989,3292.18623 4370.44196,3298.39666 4367.33777,3302.27808 C4358.80138,3317.80409 4278.09303,3328.67225 4257.91601,3337.21152 C4248.60346,3340.31667 4240.84307,3352.73747 4233.85864,3358.94789 C4227.65032,3365.15821 4216.78575,3367.48711 4209.80138,3372.1449 C4190.40031,3387.67091 4177.20767,3411.73613 4159.35866,3431.14361 C4154.70247,3436.57772 4146.94203,3445.11693 4141.50977,3448.99846 C4140.73371,3449.77472 4136.85347,3448.99846 4136.85347,3450.55104 C4133.74933,3466.07705 4145.38996,3466.07705 4130.64515,3476.94516 C4129.09314,3478.49774 4125.21284,3476.94516 4122.88471,3477.72147 C4104.25976,3484.70816 4119.00457,3487.03706 4094.94731,3487.81337 C4086.41081,3487.81337 4064.68161,3481.60295 4056.92118,3484.70816 C4054.59305,3485.48448 4055.36917,3489.36595 4053.04104,3490.91853 C4044.5046,3498.68148 4028.98372,3501.78675 4018.11915,3502.56307 C4004.92645,3504.11559 3974.66082,3504.89196 3973.88481,3506.44449 C3970.78063,3513.43117 3969.22856,3521.19418 3967.67644,3528.95718 C3965.34831,3539.04908 3984.74938,3539.04908 3987.07751,3539.82529 C3988.62963,3539.82529 3990.95775,3539.82529 3991.7337,3541.37792 C3992.50976,3543.70682 3988.62963,3546.81198 3990.18169,3547.58829 C3992.50976,3548.36461 3994.06183,3543.70682 3996.38996,3543.70682 C3997.94208,3544.48308 3997.16602,3548.36461 3998.71808,3548.36461 C4013.4629,3549.91719 4026.65559,3535.1675 4042.17642,3536.72008 C4055.36917,3537.49639 4018.89521,3552.24609 4015.79102,3553.0224 C4013.4629,3553.0224 4013.4629,3547.58829 4011.91083,3548.36461 C4010.35877,3549.14087 3965.34831,3577.86394 3962.24413,3580.9691 C3951.37961,3595.71879 4001.82227,3572.42983 3987.07751,3594.16621 C3983.97327,3598.04769 3952.93168,3600.37653 3942.06711,3601.92922 C3921.11392,3605.03432 3903.26503,3618.23143 3902.48897,3617.45512 C3899.38478,3613.57364 3910.2494,3605.81064 3906.36916,3602.70542 C3901.71291,3598.824 3893.95258,3602.70542 3887.74421,3603.48174 C3886.19214,3607.36322 3893.95258,3609.69211 3893.17646,3615.12622 C3890.84839,3622.88922 3881.53589,3627.54702 3873.77545,3629.87591 C3857.47862,3636.08634 3853.59832,3619.00775 3849.71818,3618.23143 C3839.62962,3616.67885 3834.97337,3630.65223 3827.21293,3632.20481 C3824.10874,3632.98112 3811.69216,3632.20481 3807.03586,3637.63886 C3802.37961,3643.07297 3801.6036,3651.61224 3796.94735,3657.04634 C3794.61928,3659.37524 3790.73898,3657.82266 3789.18696,3660.15156 C3787.63479,3663.25672 3789.96292,3666.36193 3789.96292,3668.69077 C3789.18696,3672.57224 3789.18696,3677.23009 3786.85884,3680.33525 C3782.20259,3684.99304 3773.66609,3681.11157 3773.66609,3689.65083 C3774.44215,3702.07157 3780.65047,3708.282 3780.65047,3717.59758 C3781.42653,3720.70279 3771.33796,3738.55759 3782.97859,3740.11028 C3784.53071,3740.11028 3832.64524,3716.82127 3838.07755,3715.26869 C3839.62962,3723.03169 3832.64524,3739.33391 3827.21293,3747.09691 C3826.43687,3748.64949 3819.45249,3746.32059 3824.10874,3749.42581 C3828.765,3753.30728 3846.614,3753.30728 3848.94212,3764.95171 C3848.94212,3768.83329 3841.18169,3774.2674 3844.28587,3778.14882 C3846.614,3779.7014 3870.67126,3771.16219 3866.79107,3781.25403 C3862.91083,3792.89851 3839.62962,3802.21404 3844.28587,3809.20073 C3848.94212,3816.18742 3862.13482,3827.05563 3863.68689,3825.503 C3866.79107,3823.1741 3870.67126,3821.62152 3873.77545,3820.84521 C3876.87964,3820.06894 3883.86401,3817.74005 3883.86401,3820.84521 C3883.08795,3822.39784 3859.80675,3837.14753 3856.70256,3837.14753 C3852.82237,3837.92374 3850.49424,3828.60821 3847.39006,3830.93711 C3843.50981,3834.04232 3852.82237,3845.68674 3848.94212,3844.13417 C3847.39006,3844.13417 3834.19731,3814.63484 3829.54106,3812.30594 C3827.21293,3810.75336 3821.78062,3809.97704 3820.22861,3813.08226 C3817.90048,3817.74005 3821.78062,3823.95042 3822.55668,3829.38453 C3822.55668,3831.71342 3820.22861,3834.04232 3821.78062,3834.81864 C3825.66092,3836.37122 3834.19731,3832.48974 3833.4213,3835.59484 C3831.86918,3841.80527 3824.8848,3844.91043 3819.45249,3848.01564 C3817.90048,3848.01564 3816.34841,3843.35785 3815.57235,3844.91043 C3814.79629,3846.46306 3818.67654,3848.01564 3817.90048,3849.56827 C3817.90048,3851.89717 3811.69216,3854.22607 3814.02029,3855.77864 C3818.67654,3858.88386 3824.8848,3855.77864 3830.31712,3857.33122 C3831.86918,3857.33122 3844.28587,3867.42307 3845.83794,3865.87054 C3850.49424,3861.98902 3851.27025,3854.22607 3856.70256,3851.12085 C3862.91083,3848.01564 3862.13482,3865.09423 3868.34314,3867.42307 C3871.44732,3868.19944 3873.77545,3861.98902 3876.87964,3861.98902 C3880.75983,3861.98902 3901.71291,3868.19944 3901.71291,3868.19944 C3902.48897,3869.75197 3907.14522,3888.38319 3904.04103,3892.26466 C3899.38478,3896.92245 3880.75983,3900.80387 3886.96809,3903.13277 C3893.17646,3904.68546 3900.16084,3902.35656 3905.59315,3905.46167 C3911.80147,3910.11951 3900.9369,3927.97436 3908.69734,3928.75068 C3915.68172,3929.52699 3918.78579,3917.88246 3924.99422,3917.88246 C3931.20248,3918.65878 3933.53061,3927.1981 3938.96292,3930.30326 C3940.51499,3931.07957 3943.61917,3927.1981 3943.61917,3928.75068 C3955.25975,3966.78927 3888.52027,3927.1981 3918.00984,3959.80259 C3921.89003,3963.68401 3928.09841,3955.92111 3932.7546,3955.92111 C3940.51499,3955.92111 3937.41086,3964.46038 3945.9473,3959.80259 C3947.49942,3959.02627 3944.39523,3956.69737 3945.17124,3956.69737 C3950.60355,3953.59222 3956.81192,3956.69737 3962.24413,3954.36848 C3968.4525,3951.26332 3983.19732,3944.27658 3987.07751,3942.724 C3993.28588,3940.3951 4001.82227,3932.63215 4005.70251,3938.06621 C4020.44722,3956.69737 3983.19732,3949.71069 3983.19732,3955.92111 C3983.19732,3960.5789 3990.95775,3965.23669 3987.85357,3968.34191 C3983.19732,3972.9997 3975.43688,3968.34191 3969.22856,3969.89449 C3956.81192,3972.9997 3945.9473,3983.09149 3935.85874,3990.07823 C3931.97854,3993.18339 3945.9473,3988.5256 3950.60355,3987.74934 C3954.4838,3987.74934 3958.36394,3990.85449 3960.69206,3989.30192 C3963.79625,3986.97302 3959.916,3980.76259 3963.02019,3978.4337 C3967.67644,3975.32854 3973.88481,3976.88112 3979.31707,3976.1048 C3995.61395,3971.44701 3993.28588,3963.68401 3994.06183,3965.23669 C4004.15039,3987.74934 3993.28588,3980.76259 3986.3015,3987.74934 C3984.74938,3989.30192 3990.95775,3991.63081 3992.50976,3990.07823 C3994.06183,3987.74934 4016.56708,3962.13148 4016.56708,3961.35517 C4018.89521,3957.47369 4016.56708,3951.26332 4019.67127,3949.71069 C4039.84829,3940.3951 4030.53579,3960.5789 4035.9681,3965.23669 C4040.62435,3968.34191 4048.38479,3966.78927 4053.8171,3969.11812 C4055.36917,3969.11812 4055.36917,3972.9997 4056.14523,3972.22333 C4063.90566,3965.23669 4049.16085,3955.14479 4060.02536,3953.59222 C4081.75456,3949.71069 4080.20249,3984.64412 4081.75456,3986.1967 C4098.05138,3997.84118 4110.46807,3991.63081 4127.54096,3993.18339 C4129.86909,3993.18339 4130.64515,4000.17002 4134.52534,3999.39382 C4141.50977,3998.6175 4167.1191,3973.77591 4168.67117,3972.9997 C4172.55141,3968.34191 4184.19204,3966.78927 4188.8483,3969.11812 C4190.40031,3969.89449 4188.8483,3976.88112 4190.40031,3975.32854 C4194.28061,3971.44701 4196.60868,3965.23669 4196.60868,3959.80259 C4196.60868,3956.69737 4191.17642,3956.69737 4191.17642,3954.36848 C4190.40031,3949.71069 4194.28061,3945.05289 4195.83262,3940.3951 C4198.93681,3931.07957 4183.41598,3918.65878 4191.95248,3907.0143 C4195.05656,3903.13277 4232.30658,3896.14614 4238.51495,3895.36987 C4240.84307,3895.36987 4308.35867,3902.35656 4309.91074,3903.13277 C4340.17637,3911.67209 4334.74406,3934.18479 4375.09821,3937.28989 C4395.27528,3938.84258 4378.2024,3933.40847 4394.49922,3924.09289 C4398.37952,3921.76399 4403.81173,3925.64547 4407.69197,3923.31657 C4410.0201,3921.76399 4407.69197,3917.1062 4409.24404,3915.55357 C4414.67635,3911.67209 4438.73362,3908.56688 4441.8378,3907.0143 C4444.94193,3904.68546 4445.71799,3899.25135 4448.82218,3896.92245 C4451.15031,3896.14614 4451.15031,3901.58024 4453.47843,3900.80387 C4454.25449,3900.80387 4462.01482,3877.51497 4463.567,3878.29129 C4467.44713,3878.29129 4468.9992,3886.83055 4472.87945,3885.27797 C4488.40021,3880.62018 4475.98363,3871.30465 4476.75964,3864.31786 C4479.08776,3849.56827 4496.16065,3827.83189 4503.92109,3816.18742 C4519.44196,3795.22741 4565.22837,3821.62152 4570.66068,3817.74005 C4575.31693,3813.85852 4576.86905,3807.64815 4581.52531,3804.54294 C4583.07721,3802.99041 4604.80656,3807.64815 4593.94216,3790.56962 C4592.38971,3788.24072 4588.50941,3793.67483 4584.62965,3792.89851 C4582.30126,3792.12219 4586.95751,3789.01698 4589.28591,3787.4644 C4592.38971,3784.35919 4597.82192,3782.80661 4600.92626,3779.7014 C4605.58252,3773.49103 4604.03061,3761.07029 4611.79067,3759.51771 C4622.65562,3756.41249 4633.52003,3772.71471 4635.84842,3781.25403 C4636.62438,3785.13551 4610.23877,3820.06894 4612.56662,3825.503 C4617.22288,3835.59484 4635.84842,3837.92374 4637.40033,3850.34454 C4638.17628,3852.67343 4636.62438,3855.77864 4634.29598,3858.88386 C4639.72818,3856.55496 4654.47289,3866.64675 4657.57724,3862.76533 C4661.45754,3858.88386 4655.24938,3851.89717 4656.80129,3846.46306 C4658.35319,3842.58153 4665.33784,3841.80527 4666.88974,3837.92374 L4662.23349,3817.74005 C4662.23349,3816.18742 4684.7388,3808.42441 4686.2907,3806.87183 C4687.84315,3804.54294 4673.87439,3796.00372 4672.32195,3794.45109 C4666.11379,3786.68809 4659.90564,3758.74139 4664.56189,3750.20207 C4666.11379,3747.87317 4694.82725,3747.09691 4697.9316,3750.20207 C4698.70755,3750.97839 4694.0513,3764.1755 4703.36381,3758.74139 C4705.69166,3757.18881 4704.13976,3753.30728 4705.69166,3752.53102 C4713.45226,3747.87317 4723.54072,3750.20207 4731.30132,3745.54428 C4753.03013,3734.67617 4765.44698,3693.53236 4794.16045,3691.20347 C4805.0254,3690.42715 4815.8898,3699.74268 4827.53016,3699.74268 C4850.03547,3699.74268 4875.64513,3680.33525 4894.27013,3668.69077 C4924.5355,3649.28334 4938.50426,3613.57364 4967.21772,3592.61358 C4985.06678,3580.19284 5010.67643,3577.86394 5029.3009,3565.4432 C5037.83745,3560.00909 5054.1346,3550.69351 5059.56681,3540.60161 C5062.67115,3535.1675 5064.99901,3514.20749 5078.96777,3528.18087 C5082.07211,3530.50976 5084.39997,3534.39118 5085.95241,3538.27271 C5087.50432,3536.72008 5089.83217,3534.39118 5091.38462,3532.06229 Z M3872.22338,3454.43252 L3870.67126,3454.43252 C3866.01501,3455.20883 3861.35876,3454.43252 3856.70256,3455.98515 C3850.49424,3458.31404 3845.83794,3463.74815 3840.40568,3467.62963 C3838.85356,3468.40594 3840.40568,3471.51105 3839.62962,3470.73484 C3821.78062,3466.85326 3816.34841,3452.87994 3798.49941,3462.19552 L3785.30666,3476.94516 C3779.87446,3479.27405 3772.89008,3475.39258 3769.00984,3479.27405 C3764.35358,3483.15558 3769.00984,3490.91853 3765.90565,3495.57627 C3761.2494,3501.01038 3745.72863,3498.68148 3752.71301,3510.32596 C3769.7859,3514.20749 3793.0671,3530.50976 3781.42653,3544.48308 C3772.89008,3553.79867 3764.35358,3549.14087 3761.2494,3564.66688 L3767.45777,3587.17952 C3766.68171,3592.61358 3755.81719,3610.46843 3750.38488,3613.57364 L3749.60882,3622.11291 C3751.16083,3623.66554 3754.26502,3624.4418 3758.14532,3625.99444 C3769.7859,3629.87591 3815.57235,3598.04769 3812.46817,3613.57364 C3810.9161,3624.4418 3772.89008,3639.96776 3771.33796,3652.38855 C3771.33796,3654.71745 3775.99421,3655.49377 3776.77027,3657.82266 C3777.54633,3660.15156 3777.54633,3662.48045 3776.77027,3664.80935 C3775.99421,3669.46714 3770.5619,3682.66414 3774.44215,3679.55899 C3789.18696,3667.13824 3792.29115,3646.95444 3804.70773,3630.65223 C3815.57235,3615.12622 3835.74943,3612.02101 3845.83794,3594.94242 C3848.94212,3589.50842 3852.04631,3583.29799 3854.37444,3577.08762 C3855.1505,3572.42983 3852.04631,3566.99578 3855.1505,3563.1143 C3868.34314,3546.03572 3873.77545,3561.56167 3889.29633,3556.12756 C3891.62445,3555.3513 3890.07228,3550.69351 3892.4004,3548.36461 C3897.05665,3544.48308 3901.71291,3541.37792 3907.92128,3539.82529 C3925.77017,3533.61497 3934.30667,3553.0224 3930.42648,3533.61497 C3928.87436,3529.73339 3933.53061,3544.48308 3937.41086,3543.70682 C3943.61917,3542.9305 3963.02019,3539.04908 3965.34831,3532.83866 C3967.67644,3528.18087 3964.57225,3522.74676 3966.12437,3517.31265 C3966.12437,3514.20749 3972.33269,3508.77338 3968.4525,3507.2208 C3952.15567,3501.78675 3914.90566,3507.99707 3894.72853,3495.57627 C3864.46295,3476.94516 3876.87964,3466.85326 3872.22338,3454.43252 L3872.22338,3454.43252 Z" id="tr" fill="#87B024"></path>
                        <path d="M4537.29086,3922.54025 C4536.51485,3934.96099 4501.59296,3965.23669 4495.3847,3979.21002 C4488.40021,3996.2886 4523.32216,3998.6175 4519.44196,4004.82792 C4517.11384,4007.93303 4510.90547,4004.05161 4507.80128,4005.60413 C4504.69715,4006.38045 4503.92109,4011.03824 4500.8169,4012.59082 C4496.16065,4015.69603 4488.40021,4012.59082 4484.52008,4016.47235 C4481.41589,4020.35382 4485.29614,4027.34051 4482.96801,4031.22204 C4476.75964,4042.09015 4449.59819,4049.85315 4443.38987,4058.39242 C4441.06174,4061.49763 4445.71799,4066.93174 4443.38987,4070.81316 C4437.18155,4082.45769 4430.97318,4064.60284 4428.64505,4064.60284 C4423.98885,4064.60284 4420.88467,4070.81316 4416.22842,4072.36585 C4413.90029,4073.14206 4388.29096,4069.26064 4387.5149,4069.26064 C4385.18677,4067.70806 4385.96283,4063.82653 4384.41071,4061.49763 C4382.08259,4059.16874 4361.90557,4037.43236 4368.88989,4038.20873 C4372.77008,4038.20873 4375.09821,4042.09015 4378.97846,4042.09015 C4385.96283,4041.31383 4387.5149,4027.34051 4389.06691,4025.01162 C4394.49922,4016.47235 4409.24404,4022.68272 4414.67635,4018.02493 C4418.55654,4015.69603 4417.78054,4009.48572 4417.00448,4004.82792 C4416.22842,4000.94639 4409.24404,3996.2886 4412.34823,3992.40713 C4414.67635,3989.30192 4420.88467,3993.95971 4425.54087,3993.18339 C4434.85342,3992.40713 4457.35857,3986.97302 4465.89507,3982.31523 C4476.75964,3976.1048 4536.51485,3921.76399 4537.29086,3922.54025 L4537.29086,3922.54025 Z" id="cy" fill="#87B024"></path>
                        <path d="M3752.71301,3510.32596 C3748.83276,3509.5497 3744.95257,3509.5497 3742.62444,3509.5497 C3712.35881,3515.76007 3761.2494,3537.49639 3744.17651,3550.69351 C3744.17651,3550.69351 3720.11919,3558.45651 3719.34324,3558.45651 C3708.47862,3562.33799 3690.62961,3576.31131 3678.98904,3575.53499 C3676.66091,3575.53499 3678.21303,3571.65352 3676.66091,3570.8772 C3668.90047,3566.99578 3658.81202,3562.33799 3650.27552,3564.66688 C3647.17133,3565.4432 3647.17133,3571.65352 3644.0672,3572.42983 C3641.73908,3573.20609 3640.18696,3567.77209 3637.85883,3566.99578 C3636.30677,3566.21941 3633.97864,3569.32462 3633.20258,3567.77209 C3627.77027,3564.66688 3626.2182,3556.12756 3620.00994,3555.3513 C3615.35358,3553.79867 3613.02551,3561.56167 3608.36925,3562.33799 C3605.26512,3563.89051 3601.38488,3557.68019 3599.05675,3559.23277 C3585.08805,3567.77209 3579.65574,3577.08762 3557.92654,3584.85063 C3548.61409,3587.95579 3536.97346,3584.85063 3528.43697,3590.28468 C3525.33289,3591.83732 3525.33289,3598.04769 3522.2287,3599.60032 C3519.90058,3601.92922 3516.02028,3599.60032 3512.9162,3599.60032 L3502.82763,3599.60032 C3502.05157,3600.37653 3502.82763,3601.92922 3502.82763,3601.92922 C3504.3797,3597.27142 3502.82763,3556.90388 3502.05157,3556.90388 C3496.61926,3551.46977 3488.08287,3535.94387 3481.09849,3531.28608 C3477.21825,3528.95718 3471.78599,3531.28608 3467.12974,3528.95718 C3465.57762,3528.18087 3444.62454,3511.87859 3444.62454,3510.32596 C3448.50473,3503.33927 3459.3693,3501.78675 3455.48906,3491.69485 C3454.7131,3488.58964 3452.38498,3487.03706 3450.05685,3485.48448 C3448.50473,3484.70816 3446.17661,3486.26074 3445.4006,3484.70816 C3444.62454,3480.82669 3445.4006,3476.94516 3445.4006,3473.06368 C3444.62454,3468.40594 3439.19223,3463.74815 3441.52035,3459.86662 C3464.02555,3422.60434 3438.41617,3468.40594 3463.24949,3448.99846 C3465.57762,3446.66957 3481.87455,3417.9465 3477.21825,3413.28871 C3471.00993,3408.63092 3441.52035,3394.65759 3439.96829,3393.10502 C3430.65578,3385.34201 3415.91102,3352.73747 3421.34323,3341.09299 C3423.67146,3335.65888 3432.20785,3336.4352 3435.31204,3331.77746 C3437.64016,3326.34335 3434.53598,3319.35667 3436.8641,3313.92256 C3446.95267,3318.58035 3459.3693,3321.68556 3464.80161,3324.79077 C3471.78599,3327.89599 3442.29641,3344.97452 3455.48906,3350.40857 C3474.11412,3358.17158 3479.54637,3344.1982 3496.61926,3342.64557 C3518.3484,3340.31667 3543.95784,3352.73747 3565.68698,3344.97452 C3570.34323,3343.42189 3571.8953,3337.21152 3576.55155,3335.65888 C3588.19223,3331.77746 3601.38488,3332.55378 3613.80157,3333.32999 C3629.32239,3334.1063 3640.96302,3340.31667 3656.48389,3331.00109 C3673.55673,3320.13298 3675.88491,3303.83066 3689.07755,3290.63365 C3700.71818,3278.98917 3727.87963,3266.56843 3742.62444,3260.35795 C3777.54633,3247.16095 3766.68171,3265.79206 3779.87446,3264.23954 C3786.08278,3263.46322 3790.73898,3256.47653 3796.94735,3256.47653 C3817.12442,3255.70022 3792.29115,3271.22617 3810.9161,3261.13432 C3813.24423,3260.35795 3814.79629,3257.25285 3817.12442,3256.47653 C3821.78062,3254.14764 3822.55668,3265.01574 3826.43687,3268.12096 C3838.07755,3278.21286 3858.25457,3271.22617 3870.67126,3268.89727 L3872.22338,3268.89727 C3875.32752,3288.30476 3876.87964,3306.15966 3871.44732,3309.26477 C3868.34314,3310.8174 3864.46295,3305.38329 3860.5827,3306.15966 C3831.86918,3313.92256 3850.49424,3313.14629 3841.95775,3330.22488 C3841.18169,3333.32999 3835.74943,3333.32999 3834.19731,3335.65888 C3834.19731,3337.21152 3838.85356,3336.4352 3838.85356,3337.98778 C3840.40568,3350.40857 3839.62962,3358.17158 3842.73381,3370.59232 C3843.50981,3375.25011 3848.16606,3381.46048 3845.83794,3385.34201 C3843.50981,3389.22349 3836.52543,3386.89459 3832.64524,3389.22349 C3831.86918,3389.22349 3834.97337,3390.77612 3834.97337,3391.55238 C3833.4213,3394.65759 3829.54106,3395.43391 3828.765,3398.53902 C3827.98899,3400.86791 3832.64524,3403.19692 3831.09318,3404.74944 C3827.98899,3409.40723 3821.00467,3410.95981 3817.90048,3415.6176 C3803.93173,3434.24882 3838.07755,3406.30202 3846.614,3427.26214 C3847.39006,3428.81472 3845.06193,3431.14361 3845.06193,3432.69614 C3845.83794,3433.47245 3862.91083,3443.56435 3866.79107,3446.66957 C3869.1192,3449.77472 3871.44732,3452.10362 3872.22338,3454.43252 L3870.67126,3454.43252 C3866.01501,3455.20883 3861.35876,3454.43252 3856.70256,3455.98515 C3850.49424,3458.31404 3845.83794,3463.74815 3840.40568,3467.62963 C3838.85356,3468.40594 3840.40568,3471.51105 3839.62962,3470.73484 C3821.78062,3466.85326 3816.34841,3452.87994 3798.49941,3462.19552 L3785.30666,3476.94516 C3779.87446,3479.27405 3772.89008,3475.39258 3769.00984,3479.27405 C3764.35358,3483.15558 3769.00984,3490.91853 3765.90565,3495.57627 C3761.2494,3501.01038 3745.72863,3498.68148 3752.71301,3510.32596 L3752.71301,3510.32596 Z" id="bg" fill="#87B024"></path>
                        <path d="M3361.58807,3674.90125 C3361.58807,3684.99304 3372.45269,3688.09825 3370.12456,3697.41384 C3362.36413,3726.91317 3357.70787,3701.29537 3352.27562,3722.25537 C3352.27562,3722.25537 3347.61936,3753.30728 3347.61936,3754.0836 C3346.0673,3756.41249 3322.00992,3764.1755 3321.23397,3769.6095 L3331.32248,3785.13551 C3333.65061,3792.12219 3322.78598,3785.13551 3322.78598,3789.7933 C3323.56204,3809.97704 3315.0256,3799.10883 3301.8329,3801.43772 C3301.05684,3801.43772 3302.60891,3802.21404 3301.8329,3802.99041 C3301.05684,3803.76662 3301.05684,3803.76662 3300.28078,3804.54294 C3299.50478,3803.76662 3299.50478,3802.99041 3298.72872,3801.43772 L3298.72872,3796.77999 C3298.72872,3792.12219 3301.05684,3788.24072 3299.50478,3784.35919 C3297.95266,3782.03029 3293.29641,3784.35919 3291.74434,3782.03029 C3287.8642,3778.92514 3288.64015,3772.71471 3285.53597,3769.6095 C3280.10377,3762.62287 3230.43706,3749.42581 3235.86937,3737.00501 C3238.1975,3731.57096 3249.06212,3737.78138 3251.39025,3733.12359 C3252.1662,3731.57096 3236.64543,3721.47906 3234.31731,3712.93979 C3233.54125,3710.61089 3237.42144,3709.83458 3237.42144,3707.50568 C3238.1975,3704.40047 3237.42144,3700.51905 3238.1975,3697.41384 C3238.1975,3693.53236 3235.86937,3689.65083 3238.1975,3687.32194 C3239.74956,3684.21678 3245.95794,3686.54567 3248.28606,3684.21678 C3249.83813,3681.88788 3248.28606,3675.67746 3245.95794,3675.67746 C3242.85375,3676.45377 3245.18188,3682.66414 3242.85375,3684.99304 C3238.1975,3688.87457 3242.85375,3658.59892 3243.62981,3650.83592 C3245.18188,3641.52034 3231.98918,3646.17813 3231.98918,3636.86254 C3231.98918,3629.87591 3231.21312,3622.88922 3235.09331,3617.45512 C3237.42144,3614.3499 3244.40582,3617.45512 3247.51,3614.3499 C3249.06212,3612.79732 3243.62981,3612.02101 3242.85375,3609.69211 C3242.07769,3604.25811 3247.51,3596.49511 3243.62981,3592.61358 C3238.97356,3587.95579 3231.21312,3593.38989 3225.00475,3591.83732 L3225.00475,3576.31131 C3225.00475,3573.20609 3226.55687,3569.32462 3225.00475,3566.21941 C3222.67662,3562.33799 3215.69224,3562.33799 3214.91629,3558.45651 C3214.91629,3557.68019 3239.74956,3507.2208 3242.07769,3505.66817 C3242.85375,3504.89196 3246.73389,3524.29939 3252.94231,3525.07565 L3269.23914,3511.87859 C3281.65583,3511.87859 3279.32771,3531.28608 3286.31203,3535.1675 C3288.64015,3536.72008 3290.96828,3533.61497 3294.07247,3534.39118 C3299.50478,3535.94387 3304.93704,3538.27271 3308.81728,3542.15419 C3323.56204,3558.45651 3312.69747,3574.75873 3314.24959,3591.061 C3314.24959,3596.49511 3318.90585,3601.1529 3318.90585,3605.81064 C3318.12979,3608.13953 3311.92147,3608.13953 3312.69747,3610.46843 C3313.47353,3615.90254 3321.23397,3619.00775 3322.00992,3624.4418 C3322.78598,3626.7707 3318.12979,3629.09954 3318.12979,3631.42844 C3318.12979,3637.63886 3338.30686,3666.36193 3341.41099,3671.01967 C3346.0673,3676.45377 3349.17143,3667.91445 3351.4995,3667.91445 C3354.60369,3667.13824 3358.48388,3667.91445 3360.81201,3669.46714 C3362.36413,3671.01967 3360.036,3674.90125 3361.58807,3674.90125 L3361.58807,3674.90125 Z" id="al" fill="#87B024"></path>
                        <path d="M3169.12978,3445.11693 L3170.6819,3442.78804 L3169.12978,3445.11693 C3158.26521,3457.53773 3159.81728,3475.39258 3156.7132,3479.27405 C3150.50477,3487.03706 3148.1767,3475.39258 3145.84857,3487.03706 C3141.96838,3509.5497 3165.83965,3510.32595 3148.78989,3526.94871 L3148.78989,3530.89345 L3152.8329,3539.04908 C3143.52045,3516.53639 3127.99957,3524.29939 3108.59856,3510.32596 C3103.94231,3506.44449 3102.39024,3499.45785 3096.95793,3497.90517 C3093.07774,3496.35264 3088.42154,3501.01038 3083.76529,3501.01038 C3081.43716,3501.01038 3076.00485,3500.23417 3076.78091,3497.90517 C3078.33298,3494.80006 3085.3173,3495.57627 3086.09341,3491.69485 C3089.97355,3481.60295 3056.60378,3468.40594 3053.4996,3462.97184 C3050.39541,3458.31404 3052.72354,3451.32736 3049.61946,3446.66957 C3047.29133,3443.56435 3041.85902,3444.34067 3037.97883,3442.78804 C3021.68189,3432.69614 3011.59338,3414.06502 2997.62463,3402.42054 C2992.96838,3399.31533 2975.11943,3381.46048 2969.68717,3379.13159 C2967.35904,3378.35532 2964.25486,3381.46048 2961.92673,3379.9079 C2958.04659,3376.02643 2967.35904,3367.48711 2967.35904,3365.93458 C2966.58298,3362.82937 2962.70279,3362.053 2960.37467,3359.72416 C2954.16629,3350.40857 2951.83817,3337.98778 2943.30178,3330.22488 C2940.19759,3326.34335 2933.98922,3326.34335 2930.10903,3323.23814 C2927.00484,3320.90924 2921.57264,3275.88396 2938.64553,3276.66028 C2946.40591,3276.66028 2959.59861,3293.73887 2966.58298,3297.62034 L2972.7913,3296.84397 L2966.58298,3297.62034 C2975.89549,3296.84397 2974.34342,3282.09433 2978.99967,3275.88396 C2987.53606,3265.79206 2991.41631,3278.21286 3002.28088,3275.88396 C3005.38507,3275.10764 3005.38507,3268.89727 3008.48925,3266.56843 C3008.48925,3266.56843 3013.1455,3271.22617 3026.33815,3275.10764 C3027.89027,3275.88396 3030.21839,3276.66028 3032.54652,3275.88396 C3034.09858,3275.88396 3034.87464,3272.77875 3037.20277,3272.00249 C3046.51527,3271.22617 3067.46835,3282.87065 3077.55692,3281.31807 C3079.88504,3281.31807 3082.21311,3279.76544 3082.98923,3277.43654 C3085.3173,3275.88396 3084.54124,3270.44985 3087.64543,3270.44985 C3092.30168,3269.67364 3095.40586,3274.33138 3100.06212,3275.88396 C3108.59856,3278.21286 3098.51005,3272.00249 3103.1663,3270.44985 C3107.82255,3268.89727 3113.25487,3268.89727 3117.91112,3270.44985 C3121.01519,3271.22617 3123.34332,3275.88396 3126.44751,3275.88396 C3128.77563,3275.88396 3126.44751,3270.44985 3128.77563,3270.44985 C3146.62463,3271.22617 3141.96838,3290.63365 3150.50477,3292.18623 C3165.24959,3293.73887 3173.01003,3282.87065 3186.97873,3283.64697 C3186.97873,3307.71219 3173.01003,3324.01446 3175.33815,3338.76409 C3178.44234,3355.84268 3183.09859,3343.42189 3193.96311,3348.07968 C3200.94748,3351.18489 3202.4996,3361.27679 3209.48398,3365.15821 C3211.81211,3365.93458 3219.57254,3363.60569 3217.24442,3370.59232 C3212.58817,3386.11833 3193.1871,3369.03979 3189.30685,3374.47379 C3189.30685,3374.47379 3224.22874,3407.07834 3214.91629,3417.17024 C3211.81211,3419.49913 3207.93186,3411.73613 3204.05167,3413.28871 C3199.39542,3414.84134 3198.61936,3421.05171 3195.51523,3424.93324 C3190.08291,3426.48582 3175.33815,3423.38061 3174.56209,3427.26214 C3172.23397,3438.13024 3191.63498,3438.90656 3185.42672,3455.20883 L3182.32253,3455.20883 L3185.42672,3455.20883 C3177.66628,3449.77472 3177.66628,3444.34067 3169.12978,3445.11693 Z" id="ba" fill="#87B024"></path>
                        <path d="M3315.0256,3575.53499 C3314.24959,3580.9691 3313.47353,3586.40321 3314.24959,3591.061 C3314.24959,3596.49511 3318.90585,3601.1529 3318.90585,3605.81064 C3318.12979,3608.13953 3311.92147,3608.13953 3312.69747,3610.46843 C3313.47353,3615.90254 3321.23397,3619.00775 3322.00992,3624.4418 C3322.78598,3626.7707 3318.12979,3629.09954 3318.12979,3631.42844 C3318.12979,3637.63886 3338.30686,3666.36193 3341.41099,3671.01967 C3346.0673,3676.45377 3349.17143,3667.91445 3351.4995,3667.91445 C3354.60369,3667.13824 3358.48388,3667.91445 3360.81201,3669.46714 C3362.36413,3671.01967 3360.036,3674.90125 3361.58807,3674.90125 C3367.02038,3675.67746 3419.0151,3659.37524 3422.11929,3657.04634 C3430.65578,3647.73076 3424.44741,3635.31002 3439.96829,3629.87591 C3445.4006,3627.54702 3475.66618,3631.42844 3480.32243,3628.32333 C3482.65056,3626.7707 3481.87455,3622.11291 3484.20268,3620.56033 C3485.75475,3619.78401 3488.08287,3624.4418 3489.63488,3622.88922 C3498.94739,3616.67885 3477.99431,3604.25811 3502.82763,3599.60032 L3502.82763,3599.60032 L3503.60369,3599.60032 C3504.3797,3589.50842 3502.82763,3556.90388 3502.05157,3556.90388 C3496.61926,3551.46977 3488.08287,3535.94387 3481.09849,3531.28608 C3477.21825,3528.95718 3471.78599,3531.28608 3467.12974,3528.95718 C3465.57762,3528.18087 3444.62454,3511.87859 3444.62454,3510.32596 C3434.53598,3501.01038 3409.70265,3525.07565 3397.28596,3527.40455 C3382.54114,3529.73339 3376.33288,3519.6416 3369.3485,3536.72008 C3368.57244,3539.04908 3371.67663,3542.15419 3370.90057,3545.2594 C3369.3485,3549.14087 3362.36413,3539.82529 3358.48388,3539.82529 C3348.39542,3540.60161 3339.08287,3547.58829 3330.54642,3553.0224 C3325.89017,3556.12756 3336.75474,3588.7321 3317.35367,3575.53499 L3315.0256,3575.53499 L3315.0256,3575.53499 Z" id="mk" fill="#87B024"></path>
                        <path d="M3149.72871,3533.61497 C3140.41626,3518.08897 3125.67145,3523.52307 3108.59856,3510.32596 C3103.94231,3506.44449 3102.39024,3499.45785 3096.95793,3497.90517 C3093.8538,3496.35264 3089.97355,3499.45785 3086.09341,3500.23417 C3087.64543,3501.01038 3088.42154,3501.01038 3089.97355,3501.78675 C3091.52562,3502.56307 3093.07774,3507.2208 3091.52562,3507.2208 C3079.10904,3506.44449 3069.79648,3494.80006 3057.3799,3493.24743 C3051.94758,3492.47117 3045.73921,3494.02374 3040.30695,3493.24743 C3038.75483,3493.24743 3037.20277,3489.36595 3036.42671,3490.14227 C3034.87464,3490.91853 3034.87464,3494.80006 3036.42671,3495.57627 C3041.08296,3497.12896 3046.51527,3494.80006 3051.94758,3495.57627 C3056.60378,3496.35264 3062.03609,3497.90517 3067.46835,3501.01038 C3069.02047,3501.78675 3068.24441,3504.89196 3069.79648,3505.66817 C3096.18192,3519.6416 3090.74961,3497.12896 3131.87982,3529.73339 C3137.31213,3533.61497 3144.29651,3537.49639 3151.28089,3539.04908 L3149.72871,3533.61497 Z M3164.47353,3289.85734 C3157.48915,3282.09433 3169.12978,3285.97586 3172.23397,3280.54175 C3173.01003,3279.76544 3173.01003,3278.21286 3172.23397,3277.43654 C3162.1454,3267.34475 3169.12978,3263.46322 3169.90584,3253.37132 C3170.6819,3249.48984 3190.08291,3265.01574 3187.75484,3249.48984 C3176.89022,3249.48984 3164.47353,3246.38463 3155.16102,3240.17426 C3151.28089,3237.06905 3158.26521,3235.51652 3158.26521,3234.74015 C3158.26521,3232.41131 3150.50477,3230.85873 3155.16102,3226.20083 C3155.93708,3225.42462 3161.3694,3230.08242 3162.1454,3225.42462 C3162.92146,3216.8853 3146.62463,3226.9772 3146.62463,3219.2142 C3148.1767,3201.3594 3151.28089,3206.01714 3138.08814,3187.38597 L3137.31213,3185.83339 C3134.984,3186.60971 3132.65588,3186.60971 3128.77563,3187.38597 C3123.34332,3187.38597 3122.56737,3198.25419 3121.01519,3199.80672 C3110.92669,3208.34604 3076.78091,3209.12235 3065.91629,3204.46451 C3060.48397,3202.13561 3055.82772,3196.70161 3049.61946,3194.37272 C3048.06728,3193.5964 3032.54652,3195.92529 3030.21839,3192.82008 C3013.92146,3171.86002 2996.07256,3162.54449 2975.11943,3145.4659 C2969.68717,3144.68959 2956.49442,3141.58437 2953.39023,3142.36069 C2944.85385,3143.91327 2956.49442,3154.78149 2951.83817,3157.8867 C2947.95803,3159.43928 2943.30178,3157.11038 2939.42153,3158.66296 C2937.86947,3159.43928 2940.19759,3162.54449 2938.64553,3164.09702 C2930.88509,3170.30749 2918.46845,3171.0837 2910.70802,3178.07039 C2901.39551,3186.60971 2927.7809,3208.34604 2916.14033,3216.8853 C2888.97882,3236.29273 2906.05176,3203.68824 2888.20276,3229.3061 C2885.87464,3232.41131 2895.18714,3233.18763 2896.73926,3237.06905 C2898.29133,3240.17426 2888.97882,3239.39794 2888.97882,3242.50316 C2888.97882,3244.05574 2896.73926,3254.14764 2893.63507,3258.02911 C2885.09868,3266.56843 2872.68199,3253.37132 2864.92156,3253.37132 C2853.28098,3253.37132 2875.78613,3264.23954 2856.38506,3258.80543 C2850.95286,3257.25285 2843.96848,3248.71353 2841.64035,3244.05574 C2840.08823,3242.50316 2838.53617,3237.84537 2837.76011,3239.39794 C2834.65592,3244.05574 2835.43198,3249.48984 2832.32779,3253.37132 C2822.23934,3266.56843 2808.27053,3253.37132 2796.6299,3257.25285 C2795.07783,3258.02911 2798.18196,3261.13432 2796.6299,3262.68685 C2789.64552,3266.56843 2775.67682,3265.79206 2768.69244,3262.68685 C2766.36432,3262.68685 2761.70801,3260.35795 2761.70801,3262.68685 C2762.48407,3268.89727 2767.91638,3273.55507 2770.24451,3278.98917 C2770.24451,3279.76544 2768.69244,3279.76544 2768.69244,3280.54175 C2769.46845,3286.75218 2767.91638,3292.96255 2771.02057,3297.62034 C2771.02057,3297.62034 2771.79657,3297.62034 2771.79657,3298.39666 C2768.69244,3303.05439 2781.10902,3308.4885 2784.98932,3313.92256 C2788.09351,3318.58035 2790.42158,3338.76409 2794.30177,3334.1063 C2798.18196,3329.44857 2800.51009,3323.23814 2803.61428,3317.80409 C2804.39034,3315.47519 2805.1664,3313.14629 2805.1664,3310.8174 C2805.1664,3310.04108 2802.83827,3310.8174 2802.83827,3309.26477 C2802.83827,3308.4885 2802.83827,3305.38329 2803.61428,3306.15966 C2806.71846,3306.93587 2804.39034,3324.79077 2812.92673,3310.8174 C2814.4789,3306.93587 2814.4789,3303.05439 2814.4789,3298.39666 C2814.4789,3297.62034 2812.92673,3296.84397 2812.92673,3295.29144 C2812.92673,3294.51513 2813.70284,3297.62034 2814.4789,3296.84397 C2820.68716,3293.73887 2815.25485,3272.77875 2822.23934,3272.77875 C2844.74448,3271.22617 2836.98405,3279.76544 2850.95286,3291.40997 C2854.05693,3293.73887 2858.71318,3291.40997 2861.04136,3293.73887 C2875.01012,3310.04108 2858.71318,3330.22488 2874.23406,3347.30342 C2878.89031,3352.73747 2892.08301,3364.382 2897.51527,3368.26342 C2903.72364,3371.36869 2923.12465,3374.47379 2916.91628,3376.80269 C2906.05176,3379.9079 2885.87464,3357.39526 2888.97882,3386.89459 C2889.75488,3396.21012 2925.45278,3416.39392 2930.88509,3423.38061 C2932.43716,3424.15692 2924.67672,3421.05171 2926.22884,3421.82803 C2930.88509,3424.93324 2951.06211,3431.14361 2951.83817,3433.47245 C2953.39023,3438.90656 2948.73398,3447.44583 2952.61428,3452.10362 C2954.94235,3453.65625 2978.99967,3445.11693 2979.77573,3444.34067 C2995.2965,3441.23546 2984.43199,3447.44583 3003.833,3454.43252 C3010.04132,3455.98515 3017.02564,3453.65625 3023.23407,3455.98515 C3031.77046,3459.09031 3037.20277,3473.06368 3046.51527,3477.72147 C3057.3799,3482.37927 3064.36422,3485.48448 3067.46835,3488.58964 C3067.46835,3489.36595 3068.24441,3488.58964 3068.24441,3488.58964 C3069.79648,3488.58964 3071.3486,3487.03706 3072.1246,3488.58964 C3075.22879,3494.02374 3070.57254,3494.02374 3077.55692,3497.12896 C3079.88504,3494.80006 3085.3173,3494.80006 3086.09341,3491.69485 C3089.97355,3481.60295 3056.60378,3468.40594 3053.4996,3462.97184 C3050.39541,3458.31404 3052.72354,3451.32736 3049.61946,3446.66957 C3047.29133,3443.56435 3041.85902,3444.34067 3037.97883,3442.78804 C3021.68189,3432.69614 3011.59338,3414.06502 2997.62463,3402.42054 C2992.96838,3399.31533 2975.11943,3381.46048 2969.68717,3379.13159 C2967.35904,3378.35532 2964.25486,3381.46048 2961.92673,3379.9079 C2958.04659,3376.02643 2967.35904,3367.48711 2967.35904,3365.93458 C2966.58298,3362.82937 2962.70279,3362.053 2960.37467,3359.72416 C2954.16629,3350.40857 2951.83817,3337.98778 2943.30178,3330.22488 C2940.19759,3326.34335 2933.98922,3326.34335 2930.10903,3323.23814 C2927.00484,3320.90924 2921.57264,3275.88396 2938.64553,3276.66028 C2946.40591,3276.66028 2959.59861,3293.73887 2966.58298,3297.62034 L2972.7913,3296.84397 L2966.58298,3297.62034 C2975.89549,3296.84397 2974.34342,3282.09433 2978.99967,3275.88396 C2987.53606,3265.79206 2991.41631,3278.21286 3002.28088,3275.88396 C3005.38507,3275.10764 3005.38507,3268.89727 3008.48925,3266.56843 C3008.48925,3266.56843 3013.1455,3271.22617 3026.33815,3275.10764 C3027.89027,3275.88396 3030.21839,3276.66028 3032.54652,3275.88396 C3034.09858,3275.88396 3034.87464,3272.77875 3037.20277,3272.00249 C3046.51527,3271.22617 3067.46835,3282.87065 3077.55692,3281.31807 C3079.88504,3281.31807 3082.21311,3279.76544 3082.98923,3277.43654 C3085.3173,3275.88396 3084.54124,3270.44985 3087.64543,3270.44985 C3092.30168,3269.67364 3095.40586,3274.33138 3100.06212,3275.88396 C3108.59856,3278.21286 3098.51005,3272.00249 3103.1663,3270.44985 C3107.82255,3268.89727 3113.25487,3268.89727 3117.91112,3270.44985 C3121.01519,3271.22617 3123.34332,3275.88396 3126.44751,3275.88396 C3128.77563,3275.88396 3126.44751,3270.44985 3128.77563,3270.44985 C3146.62463,3271.22617 3141.96838,3290.63365 3150.50477,3292.18623 C3155.93708,3292.96255 3160.59334,3291.40997 3164.47353,3289.85734 L3164.47353,3289.85734 Z" id="hr" fill="#87B024"></path>
                        <path d="M2871.90593,4215.20465 C2868.02574,4214.42833 2860.2653,4213.65202 2860.2653,4213.65202 C2860.2653,4213.65202 2868.02574,4214.42833 2871.90593,4215.20465 L2871.90593,4215.20465 Z M2888.20276,4237.71734 C2885.09868,4236.16471 2878.1142,4233.05944 2878.1142,4233.05944 C2878.1142,4233.05944 2885.09868,4236.16471 2888.20276,4237.71734 L2888.20276,4237.71734 Z" id="mt" fill="#87B024"></path>
                        <path d="M3152.27552,3539.05698 C3156.15517,3539.83276 3158.26857,3539.85872 3162.14882,3539.85872 C3160.59697,3541.41033 3159.04453,3542.96188 3159.82107,3545.28931 C3170.68526,3569.33915 3173.01366,3546.84092 3183.87791,3552.27156 C3186.2063,3553.82316 3184.65445,3556.92637 3186.2063,3559.25375 C3192.41494,3567.01182 3200.17484,3565.46022 3205.60753,3573.99402 C3207.15944,3576.3214 3205.60753,3580.97626 3207.93533,3583.30364 C3212.59153,3587.95851 3218.80017,3590.28583 3225.00822,3591.83755 L3225.00822,3576.3214 C3225.00822,3573.21813 3226.56067,3569.33915 3225.00822,3566.23594 C3222.68042,3562.35701 3215.69583,3562.35701 3214.91993,3558.47803 C3214.91993,3557.7022 3239.75331,3507.27498 3242.0817,3505.72338 C3242.8576,3504.9476 3246.73785,3524.34268 3252.94589,3525.11846 L3270.79777,3511.54131 C3269.16713,3503.37265 3270.54935,3503.12944 3272.99186,3495.10057 C3274.19134,3491.15773 3272.41736,3493.68841 3276.64805,3490.20084 C3278.50839,3488.6676 3282.46101,3483.68996 3282.46101,3483.68996 C3282.46101,3483.68996 3293.39747,3479.65402 3289.10586,3476.37065 C3280.5934,3469.85738 3267.92008,3459.55989 3259.63489,3455.70864 C3254.28716,3453.22299 3260.99338,3442.63189 3255.77804,3437.50025 C3246.01242,3427.8907 3222.31892,3422.0401 3214.91993,3417.28189 C3211.81558,3419.60927 3207.93533,3411.85125 3204.05509,3413.40285 C3199.39889,3414.95445 3198.62299,3421.16087 3195.51864,3425.03996 C3190.08655,3426.59151 3175.34146,3423.4883 3174.56551,3427.3674 C3172.23776,3438.22852 3191.6384,3439.00435 3185.43035,3455.29622 L3182.32606,3455.29622 L3185.43035,3455.29622 C3177.66986,3449.86557 3177.66986,3444.43499 3169.13341,3445.21076 L3170.68526,3442.88333 L3169.13341,3445.21076 C3158.26857,3457.62365 3159.82107,3475.46707 3156.71672,3479.34611 C3150.50808,3487.10413 3148.18028,3475.46707 3145.85188,3487.10413 C3141.97164,3509.60242 3165.98666,3510.37819 3148.13788,3527.44584 L3148.13788,3530.34883 L3152.27552,3539.05698 Z" id="me" fill="#87B024"></path>
                        <path d="M3317.58885,3458.37261 C3319.38047,3452.48237 3315.036,3454.28904 3316.58812,3442.98803 C3328.76217,3437.34663 3334.56811,3437.09844 3338.44836,3440.97742 C3348.80967,3449.51528 3352.58395,3453.62685 3356.69102,3459.81572 C3359.76163,3464.44269 3362.56004,3473.02475 3362.56004,3473.02475 C3381.96133,3486.21347 3365.57651,3483.4455 3370.23271,3480.34234 C3372.36682,3478.98471 3372.30606,3480.76062 3371.17213,3484.17604 C3370.0382,3487.59147 3389.87376,3485.41131 3387.71517,3490.61175 C3385.55653,3495.81218 3401.35611,3496.67917 3400.41625,3500.67645 C3400.1813,3501.67583 3401.99983,3504.70109 3398.18316,3506.60668 C3394.36648,3508.51226 3399.94705,3513.71822 3395.0807,3515.75125 C3390.21436,3517.78435 3382.54554,3529.77343 3397.28997,3527.44605 C3409.70666,3525.11862 3434.54004,3501.06868 3444.62899,3510.37835 C3448.50923,3503.39611 3459.37342,3501.84456 3455.49318,3491.7591 C3454.71728,3488.65595 3452.38948,3487.10429 3450.06108,3485.55274 C3448.50923,3484.77686 3446.18084,3486.32852 3445.40488,3484.77686 C3444.62899,3480.89788 3445.40488,3477.01884 3445.40488,3473.13985 C3444.62899,3468.4851 3439.19624,3463.83023 3441.52464,3459.95119 C3464.02962,3422.71269 3438.42034,3468.4851 3463.25367,3449.08996 C3465.58212,3446.76258 3481.87906,3418.05783 3477.22286,3413.40307 C3471.01422,3408.7482 3441.52464,3394.78376 3439.97279,3393.23221 C3430.6598,3385.47414 3415.91536,3352.8904 3421.34746,3341.25339 C3423.67585,3335.82275 3432.2123,3336.59853 3435.316,3331.94382 C3437.64439,3326.51313 3434.54004,3319.53088 3436.86844,3314.10029 C3426.00365,3309.44543 3415.91536,3302.46323 3417.46721,3291.60206 C3418.24311,3284.61976 3443.85303,3283.84404 3436.09254,3279.96495 C3353.83191,3238.84741 3427.5561,3276.08596 3394.18568,3295.48104 C3388.75358,3299.35997 3385.64924,3285.39559 3380.21714,3283.06821 C3376.33689,3280.74078 3370.90475,3283.06821 3367.0245,3283.06821 C3362.3683,3283.06821 3357.71216,3285.39559 3353.05596,3283.84404 C3350.72756,3282.29233 3352.27941,3278.41334 3350.72756,3275.31013 C3346.84732,3267.55222 3313.47749,3279.96495 3332.10223,3266.77639 C3336.75902,3263.67313 3348.39917,3260.56987 3344.51892,3257.46671 C3340.63927,3255.13928 3332.87878,3257.46671 3331.32628,3252.81195 C3330.55038,3248.15709 3346.84732,3239.62324 3335.98248,3233.41688 C3321.23799,3224.88303 3291.74846,3228.76206 3281.65952,3210.91859 C3279.33177,3207.0395 3279.33177,3188.42025 3279.33177,3183.76549 L3279.33177,3182.21383 C3277.00338,3182.9896 3275.45153,3187.64447 3273.89903,3186.09281 C3268.46693,3182.9896 3267.69098,3174.45581 3263.03484,3170.57688 C3258.37864,3167.47362 3251.39405,3168.24934 3246.73785,3164.37035 C3242.0817,3162.04298 3239.75331,3156.61239 3236.64896,3152.73335 C3232.76871,3152.73335 3228.88847,3148.85431 3225.00822,3148.85431 C3224.23227,3148.85431 3204.05509,3155.06073 3203.27914,3155.06073 C3190.08655,3154.28495 3204.83163,3142.6479 3186.9822,3154.28495 C3178.44576,3158.93971 3173.78961,3168.24934 3166.80502,3173.67998 C3159.82107,3179.11062 3156.71672,3171.35255 3154.38833,3173.67998 C3144.30003,3185.31704 3143.52408,3186.09281 3137.31544,3186.09281 L3138.09139,3187.64447 C3151.28463,3206.26372 3148.18028,3201.60896 3146.62784,3219.45233 C3146.62784,3227.2104 3162.92477,3217.1249 3162.14882,3225.65885 C3161.37292,3230.31361 3155.94077,3225.65885 3155.16428,3226.43452 C3150.50808,3231.08944 3158.26857,3232.64105 3158.26857,3234.96843 C3158.26857,3235.74431 3151.28463,3237.2958 3155.16428,3240.39901 C3164.47722,3246.60543 3176.89391,3249.70869 3187.75815,3249.70869 C3190.08655,3265.22468 3170.68526,3249.70869 3169.90937,3253.58768 C3169.13341,3263.67313 3162.14882,3267.55222 3172.23776,3277.63751 C3173.01366,3278.41334 3173.01366,3279.96495 3172.23776,3280.74078 C3169.13341,3286.17136 3157.49268,3282.29233 3164.47722,3290.05045 C3172.23776,3287.72302 3178.44576,3283.06821 3186.9822,3283.84404 C3186.9822,3307.89388 3173.01366,3324.18575 3175.34146,3338.92596 C3178.44576,3355.99366 3183.10195,3343.58077 3193.96679,3348.23564 C3200.95139,3351.33885 3202.50324,3361.42425 3209.48783,3365.30328 C3211.81558,3366.07911 3219.57607,3363.75168 3217.24832,3370.73387 C3212.59153,3386.25002 3193.19084,3369.18238 3189.3106,3374.61285 C3189.3106,3374.61285 3224.23227,3407.1966 3214.91993,3417.2821 C3233.1653,3426.78814 3224.01427,3423.1184 3252.45818,3435.10093 C3262.12156,3438.21113 3253.10233,3454.7169 3261.65415,3458.11229 C3275.18977,3463.4866 3275.44985,3469.7416 3284.69635,3474.62294 C3293.32018,3479.17586 3291.98403,3477.27458 3297.33489,3478.46311 C3309.75158,3478.46311 3315.79723,3464.26286 3317.58885,3458.37261 Z" id="sr" fill="#87B024"></path>
                        <path d="M3311.39588,3545.28152 C3314.82322,3550.82618 3316.2478,3555.61662 3317.79965,3557.944 C3318.15318,3561.22319 3313.67078,3567.71724 3315.33836,3574.47368 C3318.58893,3577.29472 3323.25566,3578.97881 3326.20737,3578.81648 C3329.15907,3578.65415 3327.90198,3575.3649 3330.39963,3575.98919 C3330.39963,3570.5585 3328.63308,3551.92478 3333.15494,3550.82617 C3345.92803,3547.72291 3342.11022,3541.68522 3351.65324,3540.90701 C3351.65324,3540.13118 3355.72423,3541.76956 3362.53003,3540.90701 C3367.27136,3545.28152 3367.27136,3548.04246 3369.87811,3546.30741 C3372.48485,3544.57237 3371.55875,3529.4259 3374.63289,3527.41447 C3380.78115,3523.39157 3395.79103,3530.52315 3392.38702,3525.94721 C3391.53602,3524.80321 3402.24496,3503.79911 3401.15121,3501.79554 C3400.05746,3499.79191 3403.89044,3494.96155 3402.6696,3492.64473 C3401.44871,3490.32786 3391.56591,3493.78911 3390.33348,3491.70542 C3389.48863,3490.27699 3388.21557,3488.04259 3385.42403,3487.02987 C3384.1434,3486.56528 3381.45032,3488.27688 3380.27519,3487.02987 C3376.53854,3483.0646 3381.529,3481.14374 3380.4561,3480.32284 C3376.19984,3477.06629 3373.5191,3471.76413 3367.27136,3468.59305 C3361.02357,3465.42202 3356.15257,3450.89485 3352.00991,3448.96928 C3346.66224,3446.48357 3337.44642,3439.92536 3334.28233,3438.90419 C3331.89391,3438.13336 3326.71378,3434.42011 3317.3676,3442.48006 C3308.02136,3450.54 3320.90367,3451.75523 3317.79965,3459.90114 L3303.19557,3476.18651 C3296.46834,3481.78085 3291.73254,3474.08896 3288.62819,3477.968 C3282.41955,3485.72602 3274.23665,3485.80299 3271.90825,3497.44005 C3265.25435,3521.2443 3279.05848,3509.23713 3279.05848,3521.2443 C3279.05848,3521.2443 3281.40899,3531.45415 3286.38081,3534.95637 C3291.35263,3538.4586 3298.69483,3535.20386 3304.71947,3538.8203 L3311.39588,3545.28152 Z" id="path2228" fill="#87B024"></path>
                        <path d="M3877.65565,4146.89042 C3869.1192,4163.19269 3884.63997,4152.32453 3876.10358,4176.38975 C3875.32752,4178.71865 3812.46818,4192.69202 3806.25986,4195.02092 C3801.60361,4196.5735 3758.14533,4216.75724 3753.48908,4212.87577 C3739.52027,4197.34981 3764.35359,4198.90245 3720.1192,4193.46834 C3675.10885,4188.03423 3730.98382,4198.90245 3692.95775,4198.90245 C3690.62962,4198.90245 3689.85367,4195.02092 3687.52554,4195.02092 C3682.86929,4194.2446 3677.43698,4195.02092 3672.00467,4195.79723 C3666.57235,4197.34981 3660.36404,4200.45503 3654.93173,4201.23134 C3643.29115,4201.23134 3647.9474,4186.48165 3648.72346,4181.82386 C3648.72346,4175.61343 3646.39534,4168.6268 3648.72346,4163.19269 C3657.25985,4139.12742 3665.02029,4166.2979 3670.4526,4168.6268 C3675.88491,4170.9557 3682.09323,4167.85043 3687.52554,4165.52159 C3691.40568,4163.96901 3693.73381,4153.87711 3696.83799,4156.98232 C3700.71818,4160.08753 3687.52554,4163.19269 3689.07755,4167.07422 C3689.85367,4170.9557 3696.83799,4168.6268 3700.71818,4170.17933 C3704.59843,4171.73201 3707.70256,4177.16601 3712.35881,4177.94233 C3716.23906,4178.71865 3719.34325,4175.61343 3723.22338,4174.06091 C3730.98382,4171.73201 3736.41613,4165.52159 3743.40051,4163.19269 C3751.93696,4160.8638 3760.47345,4161.64011 3769.00984,4160.08753 C3774.44215,4158.5349 3769.7859,4164.74532 3774.44215,4165.52159 C3782.9786,4167.85043 3791.5151,4160.8638 3800.82755,4161.64011 C3803.15567,4161.64011 3804.70774,4166.2979 3807.03586,4165.52159 C3810.91611,4164.74532 3824.88481,4153.10079 3831.86919,4154.65342 C3833.42131,4155.42969 3820.22861,4171.73201 3838.85357,4177.16601 C3842.73381,4178.71865 3842.73381,4170.17933 3845.83794,4167.85043 C3862.13483,4151.54821 3859.80675,4172.50822 3877.65565,4146.89042 L3877.65565,4146.89042 Z M3717.79113,3559.23279 L3718.56719,3558.45652 L3718.56719,3558.45652 L3719.34325,3558.45652 L3719.34325,3558.45652 L3719.34325,3558.45652 L3719.34325,3558.45652 L3719.34325,3558.45652 L3719.34325,3558.45652 L3719.34325,3558.45652 L3719.34325,3558.45652 L3719.34325,3558.45652 L3719.34325,3558.45652 L3719.34325,3558.45652 L3719.34325,3558.45652 L3719.34325,3558.45652 L3719.34325,3558.45652 L3719.34325,3558.45652 L3719.34325,3558.45652 L3719.34325,3558.45652 L3719.34325,3558.45652 L3719.34325,3558.45652 L3719.34325,3558.45652 C3720.1192,3558.45652 3744.17652,3550.69352 3744.17652,3550.69352 C3761.2494,3537.49641 3712.35881,3515.76008 3742.62445,3509.54971 L3742.62445,3509.54971 L3742.62445,3509.54971 L3742.62445,3509.54971 L3743.40051,3509.54971 L3743.40051,3509.54971 L3743.40051,3509.54971 L3743.40051,3509.54971 L3743.40051,3509.54971 L3743.40051,3509.54971 L3745.72864,3509.54971 L3745.72864,3509.54971 L3746.50464,3509.54971 L3746.50464,3509.54971 L3747.2807,3509.54971 L3747.2807,3509.54971 L3747.2807,3509.54971 L3747.2807,3509.54971 C3748.83277,3509.54971 3750.38489,3509.54971 3751.16084,3510.32597 L3751.16084,3510.32597 L3752.71302,3510.32597 L3752.71302,3510.32597 C3769.7859,3514.2075 3793.06711,3530.50977 3781.42653,3544.4831 C3772.89009,3553.79868 3764.35359,3549.14089 3761.2494,3564.6669 L3767.45778,3587.17954 C3766.68172,3592.61359 3755.8172,3610.46844 3750.38489,3613.57365 L3749.60883,3622.11292 C3736.41613,3615.12623 3761.2494,3614.34992 3748.83277,3603.48175 C3742.62445,3598.82402 3717.79113,3609.69212 3710.03069,3608.91586 C3685.19742,3607.36323 3682.09323,3591.06101 3665.79635,3611.24476 C3661.9161,3615.90255 3658.03591,3619.78402 3653.37971,3622.88924 C3631.65052,3634.53366 3643.29115,3607.36323 3621.56201,3620.56034 C3613.02551,3625.99445 3619.23388,3639.19145 3602.16094,3646.95446 C3587.41618,3653.16483 3585.86412,3634.53366 3571.89531,3652.38857 C3566.46305,3659.37525 3575.77555,3658.59894 3578.10368,3660.15157 C3585.08806,3664.03305 3584.31194,3675.67747 3590.52037,3681.8879 C3592.07238,3683.44047 3595.17656,3682.66416 3598.28075,3681.8879 C3599.05676,3681.8879 3599.83282,3681.11158 3600.60888,3679.559 C3600.60888,3678.00637 3597.50469,3674.90126 3599.83282,3674.90126 C3602.937,3674.12489 3602.937,3681.11158 3606.04113,3681.8879 C3614.57763,3684.21679 3632.42653,3687.32195 3635.53071,3698.96648 C3641.73908,3721.47907 3615.35358,3688.87458 3615.35358,3688.87458 C3606.81719,3684.21679 3581.98387,3681.11158 3579.65574,3695.86127 C3577.32762,3705.1768 3597.50469,3702.07159 3603.71301,3708.28201 C3608.36926,3712.9398 3607.59325,3728.46576 3602.16094,3726.13686 C3589.74425,3721.47907 3588.96819,3707.5057 3576.55156,3701.29538 C3573.44743,3700.51906 3570.34324,3702.07159 3567.23905,3701.29538 C3563.35886,3701.29538 3558.70261,3697.41385 3556.37454,3700.51906 C3538.52554,3719.92649 3590.52037,3725.3606 3586.64007,3732.34729 C3585.08806,3734.67618 3564.91093,3733.89981 3558.70261,3732.34729 C3556.37454,3731.57097 3550.94223,3706.72938 3550.94223,3706.72938 C3544.73391,3698.96648 3523.00477,3703.62428 3514.46827,3697.41385 C3498.17139,3684.99305 3514.46827,3687.32195 3514.46827,3671.796 C3514.46827,3668.69078 3505.93183,3677.2301 3501.27557,3681.11158 C3497.39533,3684.99305 3491.18707,3688.09827 3490.41095,3693.53237 C3489.63489,3697.41385 3497.39533,3698.19017 3498.17139,3702.07159 L3492.73908,3725.3606 C3495.0672,3740.11029 3512.9162,3747.09692 3521.45259,3756.41251 L3531.54116,3776.59625 C3536.97347,3782.03031 3576.55156,3801.43774 3570.34324,3810.75337 C3568.79117,3813.08227 3538.52554,3797.55632 3536.19741,3798.33263 C3533.86928,3798.33263 3536.19741,3802.99042 3536.19741,3805.31932 C3534.64534,3810.75337 3526.10885,3822.39785 3531.54116,3821.62154 C3533.09322,3820.84522 3532.31722,3816.96375 3533.86928,3817.74006 C3536.19741,3818.51632 3535.42135,3822.39785 3537.74948,3823.95043 C3543.18179,3827.83191 3560.25468,3827.83191 3547.06203,3839.47644 C3536.19741,3848.79197 3525.33289,3849.56829 3510.58808,3855.77866 C3508.25995,3856.55498 3515.24433,3858.88387 3517.57246,3858.10755 C3519.90058,3857.33124 3521.45259,3853.44976 3524.55678,3853.44976 C3527.66097,3853.44976 3527.66097,3858.10755 3529.98909,3859.66013 C3531.54116,3860.43645 3533.09322,3858.88387 3534.64534,3858.10755 C3540.85366,3858.10755 3547.06203,3856.55498 3552.49424,3858.88387 C3557.15049,3860.43645 3556.37454,3868.19945 3561.03074,3868.97577 C3566.46305,3870.52835 3571.89531,3861.98903 3576.55156,3864.31787 C3581.20786,3866.64677 3575.77555,3876.73867 3580.4318,3879.06756 C3586.64007,3882.94909 3594.4005,3872.08088 3599.83282,3875.9624 C3602.937,3877.51498 3599.83282,3889.93578 3612.24951,3890.7121 C3627.77027,3891.48836 3632.42653,3886.05425 3643.29115,3898.47499 C3651.82754,3907.79068 3638.6349,3903.9091 3638.6349,3909.34321 C3638.6349,3913.22468 3643.29115,3915.55358 3644.06721,3918.65879 C3645.61928,3922.54027 3643.29115,3927.19811 3644.84322,3930.30327 C3648.72346,3937.2899 3658.81203,3940.39512 3650.27553,3953.59223 C3648.72346,3955.92112 3645.61928,3954.36849 3643.29115,3953.59223 C3641.73908,3952.0396 3643.29115,3949.7107 3642.51509,3948.15812 C3641.73908,3946.60554 3632.42653,3940.39512 3631.65052,3940.39512 C3630.0984,3939.6188 3629.32239,3943.50033 3627.77027,3942.72401 C3622.33807,3938.84259 3613.80157,3923.31658 3606.04113,3920.98769 C3595.95257,3917.88247 3601.38488,3929.52701 3595.95257,3931.07959 C3586.64007,3934.1848 3560.25468,3941.9477 3562.5828,3945.82922 C3564.91093,3951.26333 3574.22343,3948.93444 3579.65574,3951.26333 C3581.98387,3952.0396 3574.99949,3953.59223 3574.99949,3955.92112 C3574.99949,3958.25002 3578.87974,3958.25002 3579.65574,3959.8026 C3581.20786,3962.90781 3578.87974,3967.5656 3581.20786,3969.8945 C3589.74425,3978.43371 3604.48907,3973.77592 3612.24951,3983.0915 C3616.90576,3988.52561 3599.83282,3990.07825 3592.84844,3990.07825 C3581.98387,3990.85451 3573.44743,3990.07825 3570.34324,3989.30193 C3568.01511,3988.52561 3569.56718,3984.64414 3568.01511,3982.31524 C3567.23905,3981.53892 3564.91093,3981.53892 3564.13492,3981.53892 C3557.92655,3981.53892 3549.39016,3976.88113 3545.50991,3981.53892 C3539.3016,3990.07825 3564.91093,4009.48573 3568.01511,4014.91973 C3568.79117,4018.02494 3566.46305,4021.13015 3567.23905,4023.45905 C3568.79117,4025.78795 3573.44743,4023.45905 3574.99949,4025.78795 C3578.10368,4031.22205 3587.41618,4048.30059 3590.52037,4055.28727 C3593.62444,4062.27396 3584.31194,4057.61617 3584.31194,4059.94507 C3584.31194,4062.27396 3587.41618,4063.05028 3588.19224,4064.60286 C3588.19224,4066.15544 3585.08806,4068.48428 3585.86412,4070.03697 C3586.64007,4071.58949 3604.48907,4081.68139 3602.937,4087.89176 C3601.38488,4090.22066 3595.95257,4090.22066 3592.84844,4089.4444 C3590.52037,4087.89176 3591.29632,4083.23397 3588.96819,4081.68139 C3587.41618,4080.12876 3584.31194,4084.01029 3581.98387,4082.45771 C3568.79117,4072.36586 3563.35886,4041.31385 3543.95785,4068.48428 C3543.18179,4070.03697 3544.73391,4086.33918 3546.28597,4095.65477 C3547.06203,4097.98366 3547.06203,4103.41777 3544.73391,4102.6414 C3525.33289,4100.31256 3537.74948,4080.90508 3531.54116,4072.36586 C3530.7651,4071.58949 3528.43697,4072.36586 3527.66097,4071.58949 C3523.00477,4066.93175 3520.67664,4061.49765 3516.7964,4056.06354 C3514.46827,4052.18206 3512.9162,4045.19537 3508.25995,4044.41906 C3471.00994,4035.87985 3504.37971,4071.58949 3491.18707,4077.79986 C3468.68181,4087.89176 3474.89013,4062.27396 3474.11412,4056.83985 C3474.11412,4055.28727 3471.786,4055.28727 3471.00994,4055.28727 C3464.02556,4056.06354 3460.14531,4046.74795 3458.59325,4038.20874 C3457.04124,4026.56426 3466.35369,4039.76127 3467.90575,4021.90642 C3468.68181,4009.48573 3448.50474,3993.95972 3438.41617,3990.85451 C3436.08805,3990.07825 3433.75992,3995.5123 3432.20786,3993.1834 C3429.10367,3989.30193 3432.20786,3982.31524 3428.32766,3978.43371 C3423.67147,3973.77592 3402.71828,3979.98635 3413.5829,3965.23671 C3414.35891,3964.46039 3417.46309,3966.01303 3418.23915,3964.46039 C3430.65579,3955.92112 3424.44742,3948.93444 3428.32766,3934.1848 C3428.32766,3932.63217 3429.87973,3937.2899 3431.4318,3937.2899 C3432.20786,3937.2899 3429.87973,3934.1848 3430.65579,3934.1848 C3438.41617,3934.1848 3446.17661,3941.9477 3452.38498,3935.73738 C3460.92137,3927.19811 3449.2808,3926.4218 3464.80162,3916.3299 C3475.66619,3909.34321 3483.42663,3920.98769 3491.96302,3924.0929 C3504.37971,3928.75069 3519.12447,3927.19811 3532.31722,3931.07959 C3540.07766,3932.63217 3544.73391,3941.9477 3552.49424,3942.72401 C3555.59842,3943.50033 3561.8068,3939.6188 3561.03074,3935.73738 C3559.47872,3932.63217 3550.94223,3936.5137 3549.39016,3932.63217 C3541.62972,3914.77732 3568.79117,3941.17143 3578.10368,3915.55358 C3578.87974,3913.22468 3572.67137,3917.10621 3569.56718,3915.55358 C3568.01511,3914.77732 3569.56718,3910.89579 3568.01511,3910.89579 C3566.46305,3910.89579 3565.68699,3920.21137 3561.8068,3915.55358 C3555.59842,3907.79068 3550.94223,3918.65879 3540.85366,3914.001 C3535.42135,3910.89579 3533.86928,3901.58026 3527.66097,3900.80389 C3523.78072,3900.02768 3526.10885,3912.44842 3521.45259,3912.44842 C3507.48389,3911.6721 3516.7964,3879.84388 3506.70783,3897.69878 C3505.15577,3900.80389 3510.58808,3907.01431 3507.48389,3909.34321 C3502.05158,3914.77732 3477.21826,3904.68547 3471.786,3907.01431 C3461.69743,3910.89579 3453.937,3920.21137 3439.19223,3924.0929 C3430.65579,3926.4218 3428.32766,3913.22468 3423.67147,3910.89579 C3421.34323,3910.11953 3424.44742,3916.3299 3422.89541,3917.88247 C3419.79117,3922.54027 3414.35891,3926.4218 3409.70266,3928.75069 C3408.15059,3929.52701 3408.92665,3925.64548 3408.15059,3925.64548 C3399.61409,3921.764 3408.15059,3914.77732 3402.71828,3906.238 C3399.61409,3901.58026 3395.7339,3896.92247 3391.07765,3893.81725 C3389.52564,3893.04099 3387.19751,3896.14615 3386.42145,3894.59357 C3382.54115,3891.48836 3384.09333,3884.50167 3380.21308,3882.17278 C3372.4527,3876.73867 3358.48389,3897.69878 3370.12457,3868.97577 C3368.57245,3868.19945 3367.02038,3867.42308 3364.69226,3865.87056 C3362.36413,3863.54166 3363.9162,3859.66013 3362.36413,3857.33124 C3353.82763,3846.46307 3332.09849,3836.37123 3322.78599,3828.60822 C3319.6818,3827.05565 3324.33806,3819.29264 3322.00993,3816.96375 C3319.6818,3814.63485 3308.04123,3823.17412 3300.28079,3804.54295 C3301.05685,3803.76663 3301.05685,3803.76663 3301.83291,3802.99042 C3302.60892,3802.21405 3301.05685,3801.43774 3301.83291,3801.43774 C3315.02561,3799.10884 3323.56205,3809.97706 3322.78599,3789.79331 C3322.78599,3785.13552 3333.65061,3792.12221 3331.32249,3785.13552 L3321.23398,3769.60951 C3322.00993,3764.17551 3346.0673,3756.41251 3347.61937,3754.08361 C3347.61937,3753.3073 3352.27562,3722.25539 3352.27562,3722.25539 C3357.70788,3701.29538 3362.36413,3726.91318 3370.12457,3697.41385 C3372.4527,3688.09827 3361.58807,3684.99305 3361.58807,3674.90126 C3367.02038,3675.67747 3419.01511,3659.37525 3422.11929,3657.04636 C3430.65579,3647.73077 3424.44742,3635.31003 3439.96829,3629.87592 C3445.40061,3627.54703 3475.66619,3631.42845 3480.32244,3628.32335 C3482.65057,3626.77071 3481.87456,3622.11292 3484.20269,3620.56034 C3485.75475,3619.78402 3488.08288,3624.44182 3489.63489,3622.88924 C3498.94739,3616.67887 3477.99432,3604.25812 3502.82764,3599.60033 L3502.82764,3599.60033 C3502.05158,3600.37654 3502.82764,3601.92923 3502.82764,3601.92923 C3503.6037,3600.37654 3503.6037,3595.7188 3503.6037,3589.50843 L3503.6037,3599.60033 L3502.82764,3599.60033 L3512.9162,3599.60033 C3516.02028,3599.60033 3519.90058,3601.92923 3522.22871,3599.60033 C3525.33289,3598.0477 3525.33289,3591.83733 3528.43697,3590.2847 C3536.97347,3584.85064 3548.6141,3587.9558 3557.92655,3584.85064 C3579.65574,3577.08764 3585.08806,3567.77211 3599.05676,3559.23279 C3601.38488,3557.68021 3605.26513,3563.89052 3608.36926,3562.338 C3613.02551,3561.56168 3615.35358,3553.79868 3620.00994,3555.35131 C3626.21821,3556.12757 3627.77027,3564.6669 3633.20259,3567.77211 C3633.97865,3569.32463 3636.30677,3566.21942 3637.85884,3566.99579 C3640.18696,3567.77211 3641.73908,3573.20611 3644.06721,3572.42985 C3647.17134,3571.65353 3647.17134,3565.44321 3650.27553,3564.6669 C3658.81203,3562.338 3668.90048,3566.99579 3676.66092,3570.87721 C3678.21304,3571.65353 3676.66092,3575.535 3678.98904,3575.535 C3689.85367,3576.31132 3706.92656,3563.11432 3717.79113,3559.23279 L3717.79113,3559.23279 L3717.79113,3559.23279 L3717.79113,3559.23279 Z M3401.94222,3859.66013 C3411.25478,3842.58155 3387.97346,3861.21277 3387.19751,3860.43645 C3381.7652,3858.10755 3377.10895,3848.01565 3372.4527,3851.12087 C3370.90058,3851.12087 3376.33289,3862.76535 3375.55683,3867.42308 C3383.31727,3867.42308 3397.28597,3867.42308 3401.94222,3859.66013 L3401.94222,3859.66013 Z M3388.74952,3952.0396 C3382.54115,3957.4737 3380.21308,3949.7107 3374.78082,3948.93444 C3371.67664,3948.93444 3368.57245,3952.81591 3365.46832,3952.0396 C3360.03601,3950.48702 3362.36413,3932.63217 3357.70788,3936.5137 C3355.37981,3938.06622 3359.25995,3943.50033 3357.70788,3946.60554 C3351.49951,3959.8026 3347.61937,3937.2899 3364.69226,3914.77732 C3367.02038,3918.65879 3370.12457,3922.54027 3371.67664,3927.19811 C3371.67664,3927.97437 3369.34851,3934.96101 3373.2287,3935.73738 C3377.10895,3936.5137 3397.28597,3945.05291 3388.74952,3952.0396 L3388.74952,3952.0396 Z M3654.15567,3886.05425 C3650.27553,3881.39646 3644.84322,3877.51498 3638.6349,3875.18609 C3629.32239,3872.08088 3616.1297,3886.83057 3606.04113,3876.73867 C3604.48907,3874.40977 3609.14532,3871.30467 3607.59325,3868.97577 C3605.26513,3861.98903 3559.47872,3840.25265 3550.94223,3841.80528 C3546.28597,3843.35786 3543.95785,3848.79197 3540.07766,3851.12087 C3537.74948,3851.89718 3541.62972,3846.46307 3543.18179,3844.91044 C3545.50991,3842.58155 3548.6141,3840.25265 3550.94223,3837.92375 C3554.04641,3834.81865 3556.37454,3832.48975 3559.47872,3830.16086 C3564.13492,3827.05565 3568.79117,3824.72675 3573.44743,3822.39785 C3586.64007,3829.38454 3585.08806,3836.37123 3598.28075,3843.35786 C3600.60888,3844.91044 3603.71301,3845.68676 3606.81719,3845.68676 C3608.36926,3845.68676 3609.14532,3842.58155 3610.69739,3843.35786 C3614.57763,3844.91044 3617.68182,3849.56829 3622.33807,3851.12087 C3626.99427,3851.89718 3643.29115,3842.58155 3646.39534,3848.01565 C3647.17134,3848.79197 3645.61928,3849.56829 3645.61928,3850.34455 C3644.84322,3851.12087 3644.06721,3852.67345 3644.84322,3853.44976 C3647.9474,3856.55498 3653.37971,3856.55498 3655.70784,3860.43645 C3655.70784,3861.21277 3654.15567,3884.50167 3661.9161,3889.93578 C3670.4526,3896.14615 3705.37444,3884.50167 3691.40568,3907.79068 C3683.6453,3920.21137 3662.69216,3904.68547 3658.03591,3899.25136 C3657.25985,3897.69878 3660.36404,3896.92247 3660.36404,3895.36989 C3659.58798,3893.04099 3657.25985,3890.7121 3654.93173,3889.15946 C3653.37971,3889.15946 3651.82754,3893.04099 3651.05159,3891.48836 C3651.05159,3889.93578 3655.70784,3887.60688 3654.15567,3886.05425 L3654.15567,3886.05425 Z M3644.734,3629.56149 C3644.72717,3629.51902 3639.48124,3634.31158 3638.52898,3634.47538 C3640.22211,3636.79366 3638.08166,3637.2713 3636.20216,3638.87203 C3636.89402,3639.71238 3637.348,3640.6207 3637.49485,3641.71692 C3635.79236,3642.95983 3635.75001,3645.43963 3635.9436,3646.63081 C3639.16068,3646.0775 3645.0956,3646.97943 3644.47544,3650.76882 C3648.84199,3648.44708 3645.30938,3651.94315 3649.1292,3651.28611 C3648.82147,3649.59519 3649.43389,3648.5182 3650.93896,3647.92393 C3652.75007,3648.72002 3650.45628,3648.14856 3653.26584,3647.66534 C3653.13122,3647.15666 3653.02092,3646.64159 3653.00728,3646.11358 C3653.71598,3645.77319 3653.91611,3645.84827 3653.78291,3646.63081 C3656.07204,3646.23708 3652.37125,3646.11417 3656.88541,3645.33769 C3655.81625,3643.86512 3657.79544,3641.6932 3655.85123,3641.45827 C3653.93912,3641.22715 3654.90942,3638.6057 3656.36829,3638.3548 C3656.17812,3636.33476 3655.36535,3635.77928 3653.78291,3636.54438 C3653.91514,3635.56234 3654.45072,3635.14385 3654.29997,3634.21673 C3655.10424,3634.33882 3655.82263,3634.35323 3656.62685,3634.47538 C3656.19133,3633.59116 3655.74342,3633.33344 3655.59272,3632.40637 C3652.57631,3634.6083 3652.02849,3629.15172 3649.64626,3629.56149 C3648.8277,3632.80634 3645.85997,3629.47233 3644.734,3629.56149 L3644.734,3629.56149 Z M3797.79013,3745.16745 C3796.56956,3745.68767 3794.9647,3746.53587 3795.20474,3748.01234 C3794.42852,3747.96646 3792.26587,3745.32064 3792.6193,3747.4951 C3789.36875,3748.05421 3786.64891,3749.42663 3784.34602,3749.8227 C3789.01922,3751.35719 3778.9808,3759.8249 3778.65812,3757.84012 C3776.65597,3758.39663 3777.08716,3760.37713 3775.29711,3760.68501 C3776.49033,3756.88912 3772.8047,3760.18408 3772.97023,3761.20225 C3770.08968,3763.12035 3767.7804,3762.13565 3765.73108,3760.68501 C3765.93674,3761.95062 3762.96738,3764.9424 3762.11151,3767.66791 C3762.83326,3767.28316 3763.27722,3767.38267 3763.14569,3768.1852 C3759.43667,3767.62214 3759.81647,3770.73477 3763.14569,3768.96108 C3762.53078,3773.56525 3766.85564,3771.98727 3767.54084,3776.20262 C3769.0811,3775.08127 3770.69019,3775.54076 3771.67754,3777.75434 C3774.51179,3777.23109 3779.91194,3778.85018 3781.50207,3777.49575 C3783.87617,3775.47289 3786.36983,3771.09249 3785.89727,3768.1852 C3787.20502,3767.54522 3788.73624,3766.12427 3788.48266,3764.56443 C3789.18989,3764.07937 3793.17281,3763.8712 3793.65348,3763.78855 C3794.38975,3768.31785 3799.84637,3765.02994 3794.17055,3770.77144 C3794.20185,3770.96411 3789.11847,3773.90097 3788.74122,3776.20262 C3784.81825,3775.01805 3789.28395,3778.50384 3784.34602,3777.75434 C3784.25792,3778.13908 3783.90833,3778.58097 3783.57039,3778.78887 C3784.3125,3779.70634 3788.16118,3783.32159 3787.44852,3783.44411 C3788.20699,3788.11019 3791.84974,3783.01197 3792.87786,3782.66823 C3793.17199,3784.47691 3797.73901,3784.237 3799.34138,3783.9614 C3801.45085,3784.81686 3801.44999,3786.3741 3803.73658,3787.06488 C3803.65969,3786.59141 3812.19613,3784.76323 3813.81967,3785.25452 C3813.529,3783.46708 3814.35997,3785.12534 3815.11237,3784.99588 C3814.77026,3782.89123 3820.42149,3783.59643 3819.76613,3779.56475 C3817.84975,3780.54338 3816.5022,3780.07159 3815.62943,3778.01298 C3816.77863,3777.81527 3821.37873,3779.68392 3821.31733,3779.3061 C3824.02455,3777.33525 3822.5275,3781.18932 3824.6784,3776.46122 C3820.72326,3775.86094 3818.02541,3767.5144 3815.62943,3767.92655 C3816.48423,3766.55511 3816.11981,3765.20517 3814.85381,3764.04714 C3811.28892,3766.64925 3807.24753,3752.933 3801.92677,3756.80565 C3801.42741,3753.73288 3805.19302,3751.90324 3804.77071,3749.30546 C3802.21402,3750.66862 3800.62904,3749.20921 3798.56575,3749.56411 C3799.34262,3747.09552 3798.38408,3748.82132 3797.79013,3745.16745 L3797.79013,3745.16745 Z M3292.08435,3789.39253 C3291.93614,3789.86102 3288.42519,3789.56603 3288.98184,3789.65118 C3289.20331,3791.01374 3284.90059,3794.6863 3284.58664,3792.75466 C3282.24157,3792.39857 3279.83319,3794.48501 3277.86456,3794.82372 C3277.8253,3794.19571 3277.46505,3793.56672 3276.83043,3793.27195 C3276.61838,3793.97449 3274.41404,3796.2294 3276.57187,3795.85819 C3276.37466,3796.97928 3275.66769,3797.51515 3274.50354,3797.6686 C3275.73148,3799.31657 3277.13642,3801.33406 3279.15731,3801.54797 C3278.90048,3803.47175 3278.56914,3804.29692 3279.67437,3806.20327 C3287.26191,3804.89801 3281.43193,3809.67968 3285.10371,3809.04815 C3287.58134,3811.60894 3287.72965,3814.55642 3290.01597,3811.37575 C3290.91728,3813.34996 3292.98024,3815.51993 3294.66973,3816.03105 C3295.64062,3817.45807 3294.34896,3820.4075 3295.70392,3822.23806 C3297.19929,3821.74856 3298.18838,3822.57449 3298.54787,3824.82436 C3297.74371,3824.70227 3297.39407,3824.88535 3297.77224,3825.60024 C3302.2863,3824.82365 3298.58556,3824.70086 3300.8747,3824.30707 C3301.56645,3825.59044 3300.16405,3825.70218 3300.35763,3826.89336 C3302.54047,3826.82977 3308.98753,3826.6429 3309.40654,3829.22101 C3310.27644,3829.56427 3316.61119,3831.0818 3316.90424,3831.03137 C3317.4185,3827.8935 3314.44194,3822.45365 3310.95779,3824.30707 C3307.41462,3826.19239 3303.29531,3820.95686 3300.35763,3821.46218 C3300.07892,3819.18772 3299.56722,3811.23676 3297.25512,3811.6344 C3297.41481,3809.88503 3298.12838,3808.78577 3298.03075,3806.97915 C3296.36925,3807.22907 3291.68516,3807.22566 3291.30872,3804.91009 L3294.41117,3804.39285 C3293.88073,3801.12893 3289.80766,3807.46145 3291.30872,3802.0652 C3291.76926,3800.41052 3292.81492,3799.16306 3294.15267,3798.18584 C3294.02103,3798.98827 3294.46494,3799.34636 3295.1868,3798.96173 C3295.4596,3797.30038 3300.55917,3794.98513 3297.51368,3793.0133 C3295.88673,3791.96112 3292.59421,3791.43862 3292.08435,3789.39253 L3292.08435,3789.39253 Z M3784.34602,3826.89336 C3780.97423,3828.28918 3777.5562,3829.01117 3774.77999,3831.03137 C3774.91162,3830.22884 3774.72649,3829.87242 3774.00436,3830.25549 C3774.21256,3831.53604 3772.36761,3833.79019 3771.41898,3834.65214 C3772.11971,3835.5362 3772.74329,3836.47935 3773.22874,3837.49703 C3774.53421,3840.71187 3775.92984,3840.94457 3779.43375,3840.34192 C3782.36813,3844.3606 3785.28983,3847.71405 3787.44852,3850.68699 C3783.25319,3849.41976 3787.95476,3853.72368 3787.96559,3853.79047 C3785.58792,3854.19959 3784.9684,3860.55323 3782.79476,3858.70436 C3781.0085,3857.18342 3779.84317,3862.62998 3780.20938,3863.61831 C3781.32186,3863.42694 3779.45536,3865.22646 3783.05332,3865.9459 C3786.52448,3866.63729 3788.36916,3869.90402 3792.10223,3870.08397 C3791.68215,3867.49989 3793.23334,3868.92009 3793.13642,3866.72179 C3792.41456,3867.10648 3792.22921,3867.00708 3792.36079,3866.20455 C3793.87539,3865.66944 3797.69044,3864.59553 3797.53162,3863.61831 C3798.81809,3862.39409 3799.63178,3861.09907 3797.0145,3861.5493 C3797.02273,3861.50277 3796.64856,3858.09222 3796.49743,3858.44577 C3802.40658,3857.42922 3800.68638,3847.73063 3796.75599,3846.54893 C3796.281,3846.40604 3797.66537,3845.2316 3797.53162,3844.99722 C3798.9005,3844.76165 3794.74415,3838.10315 3794.68767,3837.75567 C3798.08691,3838.77769 3796.61531,3833.4374 3796.75599,3831.03137 C3795.6519,3830.83133 3792.82068,3829.86505 3793.13642,3831.80725 C3792.24968,3831.95984 3784.37093,3827.0466 3784.34602,3826.89336 L3784.34602,3826.89336 Z M3871.47424,3893.87754 C3872.43089,3899.7621 3872.15576,3894.51416 3872.76699,3898.2742 C3868.28737,3897.25575 3853.76002,3891.13265 3852.08368,3896.46384 C3848.15854,3897.13897 3848.49995,3898.11067 3846.65435,3901.37773 C3843.28472,3900.86699 3845.03535,3900.93833 3842.77621,3903.44673 C3840.36952,3906.11932 3843.16327,3907.22865 3843.55184,3910.42963 C3847.8513,3909.5777 3846.4776,3906.47736 3851.30811,3905.77438 C3855.59582,3905.14903 3856.50373,3906.708 3858.28869,3910.17104 C3863.52428,3911.33405 3867.06188,3910.40493 3867.85467,3905.51574 C3872.8709,3904.65308 3873.34741,3901.78002 3878.71339,3901.11908 C3875.82223,3895.62821 3878.92527,3901.16783 3878.45488,3898.2742 C3875.18906,3898.8359 3876.57376,3896.581 3876.38656,3895.42931 C3873.96346,3894.95091 3873.13921,3893.59122 3871.47424,3893.87754 L3871.47424,3893.87754 Z M3989.62743,4009.22492 C3989.0971,4009.2631 3988.58301,4009.31992 3988.07618,4009.48351 C3987.02959,4010.32174 3989.8632,4010.12739 3989.11031,4011.03527 C3987.49711,4011.31272 3987.18034,4013.76473 3985.7493,4012.84569 C3985.32867,4012.11151 3984.76444,4011.76132 3983.93954,4011.81116 C3982.643,4014.66233 3981.33011,4014.51857 3979.02722,4014.91469 C3978.14925,4017.7267 3974.13558,4019.04095 3972.5637,4019.31135 C3973.19935,4023.22158 3968.34849,4023.19602 3966.8758,4023.44935 C3967.03749,4024.4432 3961.06044,4032.44855 3961.44647,4033.01849 C3961.29036,4032.49172 3961.2485,4031.75462 3961.18791,4031.20813 C3958.37688,4031.69179 3958.41771,4039.82383 3958.86108,4041.03592 C3957.25292,4040.7932 3956.8135,4041.41638 3957.56833,4042.84633 C3956.02537,4043.1118 3955.78121,4043.38014 3953.17313,4044.3981 C3954.67441,4047.63076 3956.07264,4050.13917 3959.37815,4049.57058 C3959.90929,4052.83764 3962.09723,4063.96981 3958.60252,4064.5709 C3958.15292,4067.34521 3962.90859,4070.59017 3965.84167,4069.2262 C3967.66475,4068.37903 3967.50225,4066.01119 3969.71975,4064.82955 C3970.7508,4061.55122 3971.76863,4064.74098 3971.78807,4060.69154 C3971.02528,4058.74982 3971.55046,4057.89979 3973.33932,4058.10524 C3973.49424,4057.96787 3975.64265,4052.63127 3975.92476,4052.15687 C3977.23614,4049.93631 3985.70712,4047.41577 3985.23223,4045.69122 C3985.08933,4046.2975 3978.81826,4043.12101 3983.42242,4042.32904 C3983.76345,4040.73096 3981.02265,4038.87066 3984.97367,4038.19103 C3983.67849,4036.40938 3985.24328,4036.22061 3986.26637,4035.60479 C3986.99954,4035.1356 3987.54162,4034.42282 3986.52493,4032.50125 C3991.46026,4031.6523 3986.76367,4027.93278 3987.55906,4025.25971 C3992.29356,4020.3182 3987.33163,4023.6287 3990.40306,4017.75958 C3988.29548,4018.12195 3990.3899,4016.5938 3990.92013,4016.20781 C3990.78865,4017.01035 3990.9739,4017.10974 3991.69575,4016.72505 C3992.12992,4014.57122 3991.5848,4013.84441 3989.88594,4014.65605 C3989.75988,4011.3131 3991.14241,4012.08855 3989.62743,4009.22492 L3989.62743,4009.22492 Z" id="gr" fill="#FFFFFF"></path>
                    </g>
                </g>
            </g>
        </g>
    </g>
</svg>