<?xml version="1.0" encoding="UTF-8" standalone="no"?>
<svg width="346px" height="422px" viewBox="0 0 346 422" version="1.1" xmlns="http://www.w3.org/2000/svg" xmlns:xlink="http://www.w3.org/1999/xlink">
    <!-- Generator: Sketch 3.6 (26304) - http://www.bohemiancoding.com/sketch -->
    <title>gr</title>
    <desc>Created with Sketch.</desc>
    <defs></defs>
    <g id="Page-1" stroke="none" stroke-width="1" fill="none" fill-rule="evenodd">
        <g id="Group" transform="translate(-352.000000, -139.000000)" fill="#FFFFFF">
            <path d="M697.124379,520.53287 C692.022233,530.275646 701.298838,523.780473 696.196725,538.162645 C695.732882,539.55447 658.16249,547.905421 654.451841,549.297247 C651.668847,550.225119 625.694275,562.287594 622.911281,559.967896 C614.562265,550.689072 629.404891,551.616977 602.966444,548.369374 C576.064219,545.121771 609.460119,551.616977 586.732321,551.616977 C585.340824,551.616977 584.877045,549.297247 583.485548,549.297247 C580.702554,548.833294 577.455716,549.297247 574.208878,549.761199 C570.962041,550.689072 567.251392,552.54485 564.004555,553.008802 C557.047101,553.008802 559.830095,544.193898 560.293939,541.410248 C560.293939,537.698692 558.902441,533.523249 560.293939,530.275646 C565.396052,515.893441 570.034387,532.131424 573.281224,533.523249 C576.528062,534.915074 580.23871,533.059264 583.485548,531.667471 C585.804667,530.739599 587.196164,524.708345 589.051505,526.564123 C591.370656,528.419901 583.485548,530.275646 584.41317,532.595376 C584.877045,534.915074 589.051505,533.523249 591.370656,534.451089 C593.689839,535.379027 595.545147,538.626565 598.328142,539.090518 C600.647325,539.55447 602.502666,537.698692 604.821785,536.770852 C609.460119,535.379027 612.706957,531.667471 616.881449,530.275646 C621.983594,528.883821 627.085772,529.347773 632.187886,528.419901 C635.434723,527.491996 632.651729,531.203551 635.434723,531.667471 C640.536869,533.059264 645.639047,528.883821 651.205003,529.347773 C652.596501,529.347773 653.524155,532.131424 654.915652,531.667471 C657.234835,531.203551 665.583786,524.244393 669.758278,525.172298 C670.685964,525.636218 662.800824,535.379027 673.93277,538.626565 C676.251953,539.55447 676.251953,534.451089 678.107261,533.059264 C687.847742,523.31652 686.456277,535.842915 697.124379,520.53287 L697.124379,520.53287 Z M601.574979,169.32922 L602.038823,168.8653 L602.038823,168.8653 L602.502666,168.8653 L602.502666,168.8653 L602.502666,168.8653 L602.502666,168.8653 L602.502666,168.8653 L602.502666,168.8653 L602.502666,168.8653 L602.502666,168.8653 L602.502666,168.8653 L602.502666,168.8653 L602.502666,168.8653 L602.502666,168.8653 L602.502666,168.8653 L602.502666,168.8653 L602.502666,168.8653 L602.502666,168.8653 L602.502666,168.8653 L602.502666,168.8653 L602.502666,168.8653 L602.502666,168.8653 C602.966444,168.8653 617.34526,164.225871 617.34526,164.225871 C627.549551,156.33884 598.328142,143.348493 616.417606,139.63697 L616.417606,139.63697 L616.417606,139.63697 L616.417606,139.63697 L616.881449,139.63697 L616.881449,139.63697 L616.881449,139.63697 L616.881449,139.63697 L616.881449,139.63697 L616.881449,139.63697 L618.272946,139.63697 L618.272946,139.63697 L618.736757,139.63697 L618.736757,139.63697 L619.2006,139.63697 L619.2006,139.63697 L619.2006,139.63697 L619.2006,139.63697 C620.128254,139.63697 621.05594,139.63697 621.519719,140.10089 L621.519719,140.10089 L622.447438,140.10089 L622.447438,140.10089 C632.651729,142.42062 646.566669,152.163397 639.609215,160.514316 C634.507069,166.081617 629.404891,163.297966 627.549551,172.576823 L631.260232,186.031123 C630.796388,189.278693 624.302778,199.949342 621.05594,201.80512 L620.592097,206.908468 C612.706957,202.732993 627.549551,202.26904 620.128254,195.773867 C616.417606,192.990249 601.574979,199.48539 596.936645,199.02147 C582.094051,198.093565 580.23871,188.35082 570.49823,200.413295 C568.179046,203.196945 565.859895,205.516643 563.076933,207.372421 C550.089615,214.331515 557.047101,198.093565 544.059815,205.980596 C538.957637,209.228199 542.668318,217.115165 532.463994,221.754593 C523.6512,225.466117 522.723546,214.331515 514.374531,225.002196 C511.127725,229.177672 516.693714,228.71372 518.085211,229.641625 C522.259703,231.961323 521.795828,238.920416 525.506541,242.631972 C526.434162,243.559844 528.289503,243.095892 530.144843,242.631972 C530.608654,242.631972 531.072497,242.168019 531.53634,241.240147 C531.53634,240.312241 529.681,238.456528 531.072497,238.456528 C532.927838,237.992544 532.927838,242.168019 534.783146,242.631972 C539.885324,244.023797 550.553426,245.879542 552.408766,252.838701 C556.119447,266.292968 540.349102,246.807447 540.349102,246.807447 C535.246989,244.023797 520.404363,242.168019 519.012865,250.982923 C517.621368,256.550192 529.681,254.694414 533.391648,258.405969 C536.174643,261.18962 535.710832,270.468444 532.463994,269.076619 C525.042665,266.292968 524.578822,257.942017 517.157525,254.230526 C515.302217,253.766574 513.446877,254.694414 511.591536,254.230526 C509.272385,254.230526 506.489391,251.910796 505.097926,253.766574 C494.429759,265.365095 525.506541,268.612698 523.187325,272.788174 C522.259703,274.179999 510.200039,273.716014 506.489391,272.788174 C505.097926,272.324222 501.851088,257.478064 501.851088,257.478064 C498.14044,252.838701 485.153154,255.622351 480.050976,251.910796 C470.310495,244.487717 480.050976,245.879542 480.050976,236.600718 C480.050976,234.744941 474.94883,239.848321 472.165836,242.168019 C469.846652,244.487717 466.136036,246.343495 465.672161,249.591098 C465.208317,251.910796 469.846652,252.374748 470.310495,254.694414 L467.063658,268.612698 C468.455155,277.427602 479.123322,281.603046 484.225435,287.170347 L490.255267,299.232821 C493.502105,302.480392 517.157525,314.078914 513.446877,319.646247 C512.519223,321.038072 494.429759,311.759248 493.038262,312.223201 C491.646764,312.223201 493.038262,315.006851 493.038262,316.398676 C492.110608,319.646247 487.00843,326.605373 490.255267,326.14142 C491.182921,325.677468 490.71911,323.35777 491.646764,323.821722 C493.038262,324.285643 492.574418,326.605373 493.965916,327.533246 C497.212753,329.852944 507.417045,329.852944 499.531937,336.812102 C493.038262,342.379371 486.544651,342.843323 477.731825,346.554846 C476.340328,347.018799 480.514819,348.410624 481.906316,347.946671 C483.297814,347.482719 484.225435,345.163021 486.080776,345.163021 C487.936116,345.163021 487.936116,347.946671 489.327613,348.874544 C490.255267,349.338497 491.182921,348.410624 492.110608,347.946671 C495.821256,347.946671 499.531937,347.018799 502.77871,348.410624 C505.561704,349.338497 505.097926,353.977925 507.880888,354.441877 C511.127725,355.36975 514.374531,350.266369 517.157525,351.658162 C519.940552,353.049987 516.693714,359.081241 519.476709,360.473066 C523.187325,362.792796 527.82566,356.29759 531.072497,358.617321 C532.927838,359.545193 531.072497,366.968272 538.493826,367.432225 C547.770431,367.896145 550.553426,364.648542 557.047101,372.071588 C562.149214,377.638954 554.264107,375.319191 554.264107,378.566794 C554.264107,380.886492 557.047101,382.278317 557.510944,384.134095 C558.438598,386.453793 557.047101,389.237476 557.974755,391.093221 C560.293939,395.268664 566.323771,397.124442 561.221593,405.011473 C560.293939,406.403298 558.438598,405.475393 557.047101,405.011473 C556.119447,404.083568 557.047101,402.691743 556.583258,401.76387 C556.119447,400.835997 550.553426,397.124442 550.089615,397.124442 C549.161929,396.660489 548.698118,398.98022 547.770431,398.516267 C544.523658,396.196602 539.42148,386.917745 534.783146,385.52592 C528.753314,383.670142 532.000151,390.629301 528.753314,391.557173 C523.187325,393.412951 507.417045,398.052315 508.808542,400.372045 C510.200039,403.619648 515.766028,402.227823 519.012865,403.619648 C520.404363,404.083568 516.229871,405.011473 516.229871,406.403298 C516.229871,407.795124 518.549055,407.795124 519.012865,408.722996 C519.940552,410.578774 518.549055,413.362425 519.940552,414.75425 C525.042665,419.857566 533.855492,417.073915 538.493826,422.641216 C541.276821,425.888819 531.072497,426.816724 526.898006,426.816724 C520.404363,427.280644 515.302217,426.816724 513.446877,426.352772 C512.055379,425.888819 512.983033,423.569121 512.055379,422.177296 C511.591536,421.713343 510.200039,421.713343 509.736228,421.713343 C506.025547,421.713343 500.923434,418.929693 498.604251,421.713343 C494.893602,426.816724 510.200039,438.415279 512.055379,441.662817 C512.519223,443.518595 511.127725,445.374372 511.591536,446.766197 C512.519223,448.158023 515.302217,446.766197 516.229871,448.158023 C518.085211,451.405626 523.6512,461.612322 525.506541,465.787798 C527.361816,469.963274 521.795828,467.179623 521.795828,468.571449 C521.795828,469.963274 523.6512,470.427226 524.115044,471.355099 C524.115044,472.282972 522.259703,473.674764 522.723546,474.602702 C523.187325,475.530542 533.855492,481.561796 532.927838,485.273319 C532.000151,486.665144 528.753314,486.665144 526.898006,486.201224 C525.506541,485.273319 525.970319,482.489668 524.578822,481.561796 C523.6512,480.633891 521.795828,482.953621 520.404363,482.025748 C512.519223,475.994527 509.272385,457.436814 497.676597,473.674764 C497.212753,474.602702 498.14044,484.345446 499.068094,489.912747 C499.531937,491.304572 499.531937,494.552175 498.14044,494.08819 C486.544651,492.696397 493.965916,481.097843 490.255267,475.994527 C489.791424,475.530542 488.399927,475.994527 487.936116,475.530542 C485.153154,472.746924 483.761657,469.499321 481.442473,466.251718 C480.050976,463.93202 479.123322,459.756545 476.340328,459.292592 C454.076372,454.189276 474.021144,475.530542 466.136036,479.242065 C452.684875,485.273319 456.395523,469.963274 455.931713,466.715671 C455.931713,465.787798 454.540215,465.787798 454.076372,465.787798 C449.90188,466.251718 447.582697,460.684417 446.655043,455.581101 C445.727421,448.621975 451.293378,456.508942 452.221032,445.838292 C452.684875,438.415279 440.625243,429.136422 434.595411,427.280644 C433.203914,426.816724 431.812417,430.064295 430.884763,428.67247 C429.029422,426.352772 430.884763,422.177296 428.565611,419.857566 C425.782649,417.073915 413.259142,420.785471 419.752817,411.970599 C420.216628,411.506647 422.071969,412.434552 422.535812,411.506647 C429.957109,406.403298 426.246428,402.227823 428.565611,393.412951 C428.565611,392.485046 429.493266,395.268664 430.42092,395.268664 C430.884763,395.268664 429.493266,393.412951 429.957109,393.412951 C434.595411,393.412951 439.233746,398.052315 442.944427,394.340824 C448.04654,389.237476 441.089086,388.773523 450.365724,382.74227 C456.859367,378.566794 461.497701,385.52592 466.599815,387.381698 C474.021144,390.165348 482.833938,389.237476 490.71911,391.557173 C495.357445,392.485046 498.14044,398.052315 502.77871,398.516267 C504.63405,398.98022 508.344731,396.660489 507.880888,394.340824 C506.953266,392.485046 501.851088,394.804776 500.923434,392.485046 C496.285099,381.814397 512.519223,397.588395 518.085211,382.278317 C518.549055,380.886492 514.838374,383.206222 512.983033,382.278317 C512.055379,381.814397 512.983033,379.494667 512.055379,379.494667 C511.127725,379.494667 510.663882,385.061968 508.344731,382.278317 C504.63405,377.638954 501.851088,384.134095 495.821256,381.350444 C492.574418,379.494667 491.646764,373.927398 487.936116,373.463413 C485.616932,372.999525 487.00843,380.422572 484.225435,380.422572 C475.876484,379.958619 481.442473,360.937019 475.412641,371.6077 C474.484987,373.463413 477.731825,377.174969 475.876484,378.566794 C472.629647,381.814397 457.787021,375.783176 454.540215,377.174969 C448.510383,379.494667 443.872048,385.061968 435.059254,387.381698 C429.957109,388.773523 428.565611,380.886492 425.782649,379.494667 C424.391088,379.030746 426.246428,382.74227 425.318806,383.670142 C423.463433,386.453793 420.216628,388.773523 417.433634,390.165348 C416.50598,390.629301 416.969823,388.30957 416.50598,388.30957 C411.403802,385.989873 416.50598,381.814397 413.259142,376.711016 C411.403802,373.927398 409.084651,371.143748 406.301656,369.28797 C405.374034,368.82405 403.982537,370.679795 403.518694,369.751922 C401.199478,367.896145 402.127197,363.720669 399.808013,362.328844 C395.169711,359.081241 386.820695,371.6077 393.778214,354.441877 C392.850527,353.977925 391.922873,353.51394 390.531376,352.5861 C389.139879,351.194274 390.067533,348.874544 389.139879,347.482719 C384.037701,340.987545 371.050415,334.956324 365.484426,330.316896 C363.629086,329.389023 366.41208,324.749595 365.020583,323.35777 C363.629086,321.965945 356.671632,327.069293 352.033297,315.934691 C352.49714,315.470739 352.49714,315.470739 352.960984,315.006851 C353.424794,314.542866 352.49714,314.078914 352.960984,314.078914 C360.846124,312.687088 365.948269,319.182294 365.484426,307.11982 C365.484426,304.336169 371.978101,308.511645 370.586604,304.336169 L364.556805,295.057313 C365.020583,291.809775 379.399431,287.170347 380.327085,285.778521 C380.327085,285.314569 383.110079,266.756921 383.110079,266.756921 C386.356884,254.230526 389.139879,269.540571 393.778214,251.910796 C395.169711,246.343495 388.676036,244.487717 388.676036,238.456528 C391.922873,238.920416 422.99959,229.177672 424.854931,227.785847 C429.957109,222.218546 426.246428,214.7955 435.523098,211.547897 C438.769935,210.156071 456.859367,212.475737 459.642361,210.620024 C461.033858,209.692119 460.570047,206.908468 461.961545,205.980596 C462.889199,205.516643 464.280696,208.300294 465.208317,207.372421 C470.774306,203.660898 458.250864,196.237852 473.09349,193.454201 L473.09349,193.454201 C472.629647,193.918089 473.09349,194.846026 473.09349,194.846026 C473.557333,193.918089 473.557333,191.134471 473.557333,187.422948 L473.557333,193.454201 L473.09349,193.454201 L479.123322,193.454201 C480.978598,193.454201 483.297814,194.846026 484.689311,193.454201 C486.544651,192.526296 486.544651,188.814773 488.399927,187.886868 C493.502105,184.639297 500.459591,186.495043 506.025547,184.639297 C519.012865,179.999869 522.259703,174.432601 530.608654,169.32922 C532.000151,168.401347 534.319335,172.112838 536.174643,171.184998 C538.957637,170.721045 540.349102,166.081617 543.132161,167.009522 C546.842777,167.473442 547.770431,172.576823 551.017269,174.432601 C551.481112,175.360441 552.872609,173.504663 553.800263,173.968648 C555.191761,174.432601 556.119447,177.680139 557.510944,177.216219 C559.366252,176.752266 559.366252,173.040775 561.221593,172.576823 C566.323771,171.184998 572.353538,173.968648 576.991873,176.288314 C577.919559,176.752266 576.991873,179.071964 578.38337,179.071964 C584.877045,179.535917 595.081337,171.64895 601.574979,169.32922 L601.574979,169.32922 L601.574979,169.32922 L601.574979,169.32922 Z M412.795299,348.874544 C418.36132,338.667815 404.446316,349.802449 403.982537,349.338497 C400.7357,347.946671 397.952705,341.915418 395.169711,343.771196 C394.242024,343.771196 397.488862,350.730322 397.025019,353.51394 C401.663354,353.51394 410.012305,353.51394 412.795299,348.874544 L412.795299,348.874544 Z M404.910159,404.083568 C401.199478,407.331171 399.808013,402.691743 396.561208,402.227823 C394.705868,402.227823 392.850527,404.547521 390.995219,404.083568 C387.748382,403.155695 389.139879,392.485046 386.356884,394.804776 C384.965419,395.732617 387.284538,398.98022 386.356884,400.835997 C382.646204,408.722996 380.327085,395.268664 390.531376,381.814397 C391.922873,384.134095 393.778214,386.453793 394.705868,389.237476 C394.705868,389.701396 393.31437,393.876839 395.633522,394.340824 C397.952705,394.804776 410.012305,399.908092 404.910159,404.083568 L404.910159,404.083568 Z M563.540712,364.648542 C561.221593,361.864891 557.974755,359.545193 554.264107,358.153368 C548.698118,356.29759 540.812978,365.112494 534.783146,359.081241 C533.855492,357.689416 536.638486,355.833703 535.710832,354.441877 C534.319335,350.266369 506.953266,337.27599 501.851088,338.203895 C499.068094,339.131768 497.676597,342.379371 495.357445,343.771196 C493.965916,344.235148 496.285099,340.987545 497.212753,340.05964 C498.604251,338.667815 500.459591,337.27599 501.851088,335.884165 C503.706429,334.028452 505.097926,332.636626 506.953266,331.244801 C509.736228,329.389023 512.519223,327.997198 515.302217,326.605373 C523.187325,330.780849 522.259703,334.956324 530.144843,339.131768 C531.53634,340.05964 533.391648,340.523593 535.246989,340.523593 C536.174643,340.523593 536.638486,338.667815 537.56614,339.131768 C539.885324,340.05964 541.740664,342.843323 544.523658,343.771196 C547.306621,344.235148 557.047101,338.667815 558.902441,341.915418 C559.366252,342.379371 558.438598,342.843323 558.438598,343.307243 C557.974755,343.771196 557.510944,344.699068 557.974755,345.163021 C559.830095,347.018799 563.076933,347.018799 564.46843,349.338497 C564.46843,349.802449 563.540712,363.720669 568.179046,366.968272 C573.281224,370.679795 594.15365,363.720669 585.804667,377.638954 C581.166364,385.061968 568.64289,375.783176 565.859895,372.535573 C565.396052,371.6077 567.251392,371.143748 567.251392,370.215875 C566.787549,368.82405 565.396052,367.432225 564.004555,366.504319 C563.076933,366.504319 562.149214,368.82405 561.685436,367.896145 C561.685436,366.968272 564.46843,365.576447 563.540712,364.648542 L563.540712,364.648542 Z" id="gr"></path>
        </g>
    </g>
</svg>