<?xml version="1.0" encoding="UTF-8" standalone="no"?>
<svg width="182px" height="170px" viewBox="0 0 182 170" version="1.1" xmlns="http://www.w3.org/2000/svg" xmlns:xlink="http://www.w3.org/1999/xlink">
    <!-- Generator: Sketch 3.6 (26304) - http://www.bohemiancoding.com/sketch -->
    <title>hr</title>
    <desc>Created with Sketch.</desc>
    <defs></defs>
    <g id="Page-1" stroke="none" stroke-width="1" fill="none" fill-rule="evenodd">
        <g id="Group" transform="translate(-434.000000, -265.000000)" fill="#FFFFFF">
            <path d="M600.157438,434.413672 L599.496922,432.10118 C595.534081,425.494069 589.259539,427.80656 581.994304,422.190513 C580.012872,420.538747 579.352403,417.565576 577.040725,416.904828 C575.719785,416.24415 574.068577,417.565576 572.417414,417.895939 C573.077861,418.226255 573.40813,418.226255 574.068577,418.556641 C574.729046,418.887003 575.389539,420.869109 574.729046,420.869109 C569.445266,420.538747 565.482379,415.583448 560.198599,414.922723 C557.886921,414.592383 555.244997,415.253085 552.933341,414.922723 C552.272849,414.922723 551.612379,413.270956 551.282133,413.601319 C550.621663,413.931658 550.621663,415.583448 551.282133,415.913764 C553.263565,416.574512 555.575243,415.583448 557.886921,415.913764 C559.86833,416.24415 562.180008,416.904828 564.491663,418.226255 C565.152156,418.556641 564.82191,419.878068 565.482379,420.208384 C576.710501,426.154794 574.398823,416.574512 591.901464,430.449368 C594.213142,432.10118 597.18529,433.752924 600.157438,434.413672 L600.157438,434.413672 Z M605.771464,328.369823 C602.799316,325.066268 607.752896,326.718057 609.073858,324.405566 C609.404105,324.075203 609.404105,323.414501 609.073858,323.084139 C604.780748,318.789565 607.752896,317.137775 608.083142,312.843155 C608.413389,311.191389 616.66934,317.798454 615.678647,311.191389 C611.05529,311.191389 605.771464,309.869962 601.8086,307.227131 C600.157438,305.905704 603.129563,305.245025 603.129563,304.914639 C603.129563,303.923598 599.827168,303.262896 601.8086,301.280721 C602.138847,300.950405 604.450525,302.932534 604.780748,300.950405 C605.110995,297.316486 598.176006,301.611107 598.176006,298.307551 C598.836476,290.709421 600.157438,292.691527 594.543365,284.763011 L594.213142,284.102309 C593.222426,284.432672 592.23171,284.432672 590.580502,284.763011 C588.268823,284.763011 587.938623,289.387994 587.278107,290.048673 C582.98502,293.682591 568.45455,294.012954 563.831194,292.030802 C561.519516,291.039737 559.538084,288.727292 556.896205,287.736228 C556.23569,287.405865 549.630947,288.39693 548.640231,287.075503 C541.705197,278.155923 534.109738,274.191688 525.193295,266.923874 C522.88164,266.593512 517.267567,265.272085 515.946605,265.602448 C512.31401,266.26315 517.267567,270.888132 515.286135,272.209559 C513.634973,272.870261 511.653541,271.879197 510.002332,272.539899 C509.341863,272.870261 510.332579,274.191688 509.672109,274.852367 C506.369715,277.495244 501.085912,277.82556 497.783517,280.798754 C493.820654,284.432672 505.048752,293.682591 500.095196,297.316486 C488.536828,305.575341 495.802086,291.700462 488.206581,302.602171 C487.215865,303.923598 491.178729,304.253961 491.839222,305.905704 C492.499691,307.227131 488.536828,306.896768 488.536828,308.218195 C488.536828,308.878897 491.839222,313.173517 490.518259,314.825284 C486.885665,318.459202 481.601839,312.843155 478.299445,312.843155 C473.345888,312.843155 482.922778,317.468138 474.666804,315.155646 C472.355172,314.494944 469.383024,310.861026 468.392308,308.878897 C467.731816,308.218195 467.071346,306.236066 466.7411,306.896768 C465.420137,308.878897 465.750384,311.191389 464.429421,312.843155 C460.136357,318.459202 454.192039,312.843155 449.238459,314.494944 C448.577989,314.825284 449.898928,316.146711 449.238459,316.80739 C446.266311,318.459202 440.322038,318.128817 437.34989,316.80739 C436.359174,316.80739 434.37772,315.816325 434.37772,316.80739 C434.707966,319.450243 437.019644,321.432372 438.01036,323.744864 C438.01036,324.075203 437.34989,324.075203 437.34989,324.405566 C437.680114,327.048419 437.019644,329.69125 438.340606,331.673379 C438.340606,331.673379 438.67083,331.673379 438.67083,332.003742 C437.34989,333.985847 442.63367,336.298339 444.284902,338.610807 C445.605864,340.592936 446.596557,349.182153 448.247743,347.200025 C449.898928,345.217919 450.889644,342.575065 452.210607,340.262597 C452.540853,339.271532 452.871099,338.280468 452.871099,337.289403 C452.871099,336.959041 451.880383,337.289403 451.880383,336.628678 C451.880383,336.298339 451.880383,334.976912 452.210607,335.307297 C453.531569,335.637614 452.540853,343.23579 456.173447,337.289403 C456.833963,335.637614 456.833963,333.985847 456.833963,332.003742 C456.833963,331.673379 456.173447,331.342994 456.173447,330.682315 C456.173447,330.351952 456.503717,331.673379 456.833963,331.342994 C459.475842,330.021613 457.164163,321.10201 460.136357,321.10201 C469.713247,320.441308 466.410853,324.075203 472.355172,329.030548 C473.676088,330.021613 475.65752,329.030548 476.648259,330.021613 C482.592555,336.959041 475.65752,345.548281 482.262309,352.816072 C484.24374,355.12854 489.85779,360.083885 492.169445,361.735629 C494.81137,363.057079 503.06732,364.378459 500.425396,365.369524 C495.802086,366.690951 487.215865,357.110669 488.536828,369.664144 C488.867074,373.628379 504.058036,382.217619 506.369715,385.190813 C507.030184,385.521175 503.72779,384.199748 504.388283,384.530111 C506.369715,385.851538 514.955889,388.494368 515.286135,389.48541 C515.946605,391.797901 513.965173,395.431796 515.616405,397.413925 C516.607098,398.07465 526.844503,394.440732 527.17475,394.110392 C533.779492,392.788966 529.156182,395.431796 537.412133,398.40499 C540.054034,399.065715 543.026159,398.07465 545.668106,399.065715 C549.300701,400.387119 551.612379,406.333505 555.575243,408.315634 C560.198599,410.297763 563.170724,411.61919 564.491663,412.940594 C564.491663,413.270956 564.82191,412.940594 564.82191,412.940594 C565.482379,412.940594 566.142872,412.279892 566.473095,412.940594 C567.794058,415.253085 565.812626,415.253085 568.784774,416.574512 C569.77549,415.583448 572.087145,415.583448 572.417414,414.262021 C574.068577,409.9674 559.86833,404.351399 558.547368,402.038908 C557.226405,400.056779 558.217121,397.083586 556.896205,395.101457 C555.905489,393.78003 553.593811,394.110392 551.942625,393.449668 C545.007591,389.155047 540.714504,381.226555 534.770208,376.271233 C532.788776,374.949806 525.193295,367.351653 522.88164,366.360588 C521.890924,366.030249 520.569961,367.351653 519.579245,366.690951 C517.928083,365.039184 521.890924,361.405266 521.890924,360.744587 C521.560677,359.42316 519.909492,359.092775 518.918776,358.101733 C516.276851,354.137476 515.286135,348.851791 511.653541,345.548281 C510.332579,343.896492 507.690654,343.896492 506.039468,342.575065 C504.718506,341.584 502.406874,322.423437 509.672109,322.753799 C512.97448,322.753799 518.588529,330.021613 521.560677,331.673379 L524.202579,331.342994 L521.560677,331.673379 C525.523541,331.342994 524.863071,325.066268 526.844503,322.423437 C530.477098,318.128817 532.128306,323.414501 536.75164,322.423437 C538.072602,322.093074 538.072602,319.450243 539.393564,318.459202 C539.393564,318.459202 541.374996,320.441308 546.989023,322.093074 C547.649515,322.423437 548.640231,322.753799 549.630947,322.423437 C550.291417,322.423437 550.621663,321.10201 551.612379,320.77167 C555.575243,320.441308 564.491663,325.39663 568.784774,324.735928 C569.77549,324.735928 570.766182,324.075203 571.096452,323.084139 C572.087145,322.423437 571.756898,320.110945 573.077861,320.110945 C575.059293,319.780629 576.380255,321.762735 578.361687,322.423437 C581.994304,323.414501 577.701217,320.77167 579.682649,320.110945 C581.664081,319.450243 583.975759,319.450243 585.957191,320.110945 C587.278107,320.441308 588.268823,322.423437 589.589786,322.423437 C590.580502,322.423437 589.589786,320.110945 590.580502,320.110945 C598.176006,320.441308 596.194574,328.700186 599.827168,329.360888 C602.138847,329.69125 604.120279,329.030548 605.771464,328.369823 L605.771464,328.369823 Z" id="hr"></path>
        </g>
    </g>
</svg>