<?xml version="1.0" encoding="UTF-8" standalone="no"?>
<svg width="193px" height="136px" viewBox="0 0 193 136" version="1.1" xmlns="http://www.w3.org/2000/svg" xmlns:xlink="http://www.w3.org/1999/xlink">
    <!-- Generator: Sketch 3.6 (26304) - http://www.bohemiancoding.com/sketch -->
    <title>hu</title>
    <desc>Created with Sketch.</desc>
    <defs></defs>
    <g id="Page-1" stroke="none" stroke-width="1" fill="none" fill-rule="evenodd">
        <g id="Group" transform="translate(-429.000000, -282.000000)" fill="#FFFFFF">
            <path d="M434.215486,375.040839 L434.215486,375.040839 L434.215486,375.040839 L434.215486,375.040839 C435.536448,375.040839 438.178327,385.281822 445.113338,390.89787 C454.029782,398.165683 461.62524,402.129918 468.560275,411.049498 C469.550991,412.370925 476.155733,411.37986 476.816249,411.710223 C479.458127,412.701287 481.439559,415.013732 483.751237,416.004797 C488.374594,417.986949 502.905064,417.656586 507.198151,414.022668 C507.858667,413.361989 508.188867,408.737006 510.500545,408.737006 C516.775087,407.745942 515.784371,409.067369 521.398444,402.79062 C522.38916,401.799555 523.710076,405.103111 526.682224,402.79062 C529.654395,400.478128 531.635827,396.513894 535.268421,394.531765 C542.863925,389.576443 536.589383,394.531765 542.203433,394.862127 C542.533679,394.862127 551.119876,392.219273 551.450099,392.219273 C553.101308,392.219273 554.752494,393.871063 556.403702,393.871063 C557.064172,393.5407 557.394418,392.219273 558.054888,391.888934 C560.03632,391.228209 569.943479,390.237145 570.603949,387.924676 C571.264419,386.603249 566.310839,384.951506 572.255134,383.960395 C574.566813,383.630079 576.878491,385.94257 578.8599,385.281822 C585.134442,382.969331 583.15301,371.076581 584.804196,367.442686 C585.464665,366.451621 587.115874,366.451621 587.776343,365.460557 L591.408984,353.898169 C592.069431,352.24638 593.060146,350.924953 593.060146,349.273186 C593.060146,348.612484 591.408984,348.612484 591.408984,347.951759 C591.739184,344.978566 595.371825,335.728647 597.02301,333.085816 C597.683503,332.425091 599.334689,333.085816 599.334689,332.094751 C600.985874,325.818025 598.674219,321.193043 605.939477,314.255592 C608.251109,311.612784 610.893034,313.26455 614.525651,311.943123 C618.158292,310.291357 618.488492,305.336035 621.130416,302.693181 C617.167576,299.389625 622.451402,300.050373 618.158292,297.07718 C617.497799,296.746817 616.507083,296.086115 615.516367,296.086115 C614.195428,296.416455 613.204712,298.068244 611.88375,297.737882 C609.902318,296.416455 609.572071,293.112899 607.590639,291.791495 C606.599923,291.13077 605.278961,292.78256 604.288268,292.452197 C599.004442,290.470068 603.958045,286.836196 596.362541,286.505811 C596.362541,289.148641 591.408984,289.148641 588.767059,289.809366 C587.44612,290.139706 586.125158,291.791495 585.134442,291.13077 C578.8599,289.148641 583.81348,282.871892 575.557529,282.541576 C572.255134,282.541576 570.273703,287.166512 566.971308,287.496875 C561.357282,288.487939 554.092024,282.541576 549.138467,288.818302 C547.157035,291.461133 548.477952,300.38069 544.845357,302.032479 C543.524395,302.362841 541.542963,301.041415 540.222001,301.702116 C534.938175,305.005672 542.533679,307.318164 534.277728,308.639568 C531.635827,308.96993 525.691508,301.702116 523.049606,306.327099 C522.05889,307.978866 523.710076,310.952059 522.38916,312.273486 C518.756519,315.907358 508.519113,313.594913 503.895803,316.898422 C499.602693,319.541276 504.226026,324.166236 505.546988,326.148342 C506.867951,328.460833 478.797658,333.416155 474.834817,332.755453 C468.560275,331.434026 463.936918,322.844832 457.992646,322.184107 C456.671683,321.853768 455.680968,322.184107 455.020498,322.51447 L455.020498,322.51447 C450.397141,324.496598 455.020498,335.067945 454.690252,336.389372 C452.70882,340.023267 440.820251,334.737582 436.196895,338.70184 C434.215486,340.353629 444.122622,339.692904 444.452869,345.308929 C445.113338,351.91604 439.499289,346.960695 437.187611,351.585678 C435.536448,354.889233 441.480721,361.826661 440.820251,363.148088 C437.848126,368.103411 435.206179,369.094475 429.261906,375.701541 L429.261906,375.701541 C429.261906,375.701541 429.261906,375.701541 428.93166,376.031903 C429.592152,375.701541 429.922376,375.371201 430.582868,375.371201 L434.215486,375.040839 L434.215486,375.040839 Z" id="hu"></path>
        </g>
    </g>
</svg>