<?xml version="1.0" encoding="UTF-8" standalone="no"?>
<svg width="132px" height="150px" viewBox="0 0 132 150" version="1.1" xmlns="http://www.w3.org/2000/svg" xmlns:xlink="http://www.w3.org/1999/xlink">
    <!-- Generator: Sketch 3.6 (26304) - http://www.bohemiancoding.com/sketch -->
    <title>ie</title>
    <desc>Created with Sketch.</desc>
    <defs></defs>
    <g id="Page-1" stroke="none" stroke-width="1" fill="none" fill-rule="evenodd">
        <g id="Group" transform="translate(-459.000000, -275.000000)" fill="#FFFFFF">
            <path d="M588.036196,333.336645 C588.696666,334.988411 591.668814,336.640201 590.347874,337.961581 C589.026912,339.94371 585.064071,338.291967 583.082639,339.613394 C582.091923,340.604435 585.724518,341.265137 585.724518,342.586564 C586.054787,345.229395 584.403556,347.872249 584.403556,350.51508 C584.733825,352.827571 587.04548,354.148998 587.04548,356.461443 C587.04548,358.113233 584.403556,359.104297 584.403556,361.086426 C584.073355,362.407853 586.715234,363.729257 586.054787,365.050684 C585.064071,366.372111 582.422147,363.398917 581.761677,364.720321 C580.770961,366.041748 583.41284,367.363175 583.743109,369.014918 C583.743109,369.675666 583.082639,370.336345 583.082639,370.997047 C583.41284,375.291667 584.733825,377.934521 583.41284,382.229141 C582.422147,385.202312 570.863825,402.050384 568.882393,403.702174 C568.2219,404.362875 566.570714,404.693238 566.240468,406.014642 C565.579999,408.327133 566.570714,410.969987 566.240468,413.282432 C566.240468,413.612795 565.579999,413.612795 565.579999,413.282432 C564.589283,410.969987 563.92879,413.943157 560.626419,412.62173 C559.305456,412.291368 559.305456,410.309239 557.984494,409.978923 C555.672816,409.318175 548.407581,412.952093 546.756395,410.969987 C546.426149,410.309239 548.077358,410.309239 548.077358,409.64856 C548.407581,408.657496 545.765679,410.639625 544.774964,410.309239 C539.821407,409.978923 538.170198,407.336069 533.546865,408.987858 C532.886372,409.318175 534.867804,410.639625 534.867804,411.630666 C534.537581,413.282432 528.593308,414.603859 528.593308,414.603859 C527.272346,414.603859 526.61183,412.62173 525.290914,412.952093 C522.979236,413.943157 521.98852,416.916351 520.007088,418.237778 C513.072099,421.871673 517.365163,411.961052 511.090667,412.952093 C509.109212,413.282432 512.741853,416.916351 512.081383,418.568117 C511.090667,419.889544 508.778989,419.889544 507.12778,420.880608 C506.137064,421.54131 505.476595,423.523462 504.155633,423.853779 C503.495163,423.853779 503.825409,422.532352 503.164917,422.202035 C502.504447,421.54131 501.513731,420.880608 500.523038,421.210971 C499.862522,421.871673 500.523038,423.853779 499.532322,424.184164 C496.229928,424.514527 490.285632,420.550246 488.304223,420.880608 C485.662276,421.210971 483.680867,423.1931 481.369189,423.523462 C474.764423,424.184164 485.001829,418.898479 479.718003,419.889544 C477.736571,420.550246 469.810867,421.54131 469.150374,420.880608 C467.829412,418.898479 480.378473,415.264584 481.699435,412.291368 C482.029681,411.630666 480.708719,411.630666 480.048249,411.300303 C479.718003,410.639625 472.122499,412.291368 462.545609,411.300303 C462.215362,411.300303 463.206078,410.969987 467.499188,409.64856 C468.159658,409.64856 468.820105,409.318175 468.820105,408.657496 C468.820105,408.327133 467.829412,407.996794 468.159658,407.666431 C471.131783,405.023577 469.810867,409.318175 473.773707,407.666431 C475.755139,407.005729 481.369189,406.675367 480.048249,405.023577 C479.718003,404.693238 464.857264,406.675367 464.196794,406.675367 C461.224646,406.014642 458.912968,401.389682 459.243214,398.086126 C459.573438,396.764699 462.215362,399.407553 463.206078,398.746874 C464.196794,398.086126 462.545609,397.095062 462.545609,396.103997 C463.206078,393.130827 468.489904,394.782571 471.462052,394.121892 C473.773707,393.791529 476.745855,394.121892 478.397041,392.470125 C479.718003,391.479061 475.094647,389.166569 473.443461,390.157634 C473.113215,390.818336 474.103931,392.139763 473.443461,392.470125 C473.113215,392.800465 463.206078,387.845143 461.224646,385.202312 C460.8944,384.541587 463.206078,386.193376 463.866548,385.863014 C464.52704,385.532651 463.866548,384.21127 464.52704,383.880885 C466.178226,382.88982 470.801583,383.220206 473.113215,383.550522 C476.085363,383.550522 478.066817,386.523716 480.708719,387.845143 C483.350621,389.166569 475.755139,382.559458 477.076078,379.91665 C478.066817,377.604159 482.029681,379.255925 484.341313,378.264861 C485.662276,377.604159 485.662276,375.62203 486.983238,375.291667 C487.313507,375.291667 508.448743,378.925586 510.760421,377.604159 C512.411606,376.613094 506.467311,376.943457 505.476595,375.291667 C505.146348,374.300603 506.467311,372.648837 506.137064,371.657772 C505.806841,370.997047 499.202076,377.604159 495.899682,377.273796 C495.239212,376.943457 497.881113,375.291667 496.890398,374.961328 C495.899682,374.630965 494.578742,375.952392 493.25778,375.62203 C491.936818,375.291667 490.946102,374.300603 490.285632,373.309539 C489.955386,372.648837 490.615855,371.988112 490.285632,371.657772 C490.285632,371.657772 480.708719,373.639901 479.387757,372.979176 C478.397041,372.648837 481.699435,372.979176 482.690151,372.648837 C485.332029,371.32741 487.313507,369.675666 489.955386,368.684602 C490.615855,368.023854 491.936818,369.014918 492.597287,368.684602 C493.91825,367.363175 494.248496,365.050684 495.899682,363.398917 C496.560174,362.738192 497.55089,362.407853 498.541606,362.07749 C499.202076,361.416788 496.229928,362.07749 495.569458,361.086426 C494.248496,359.434659 498.541606,358.113233 499.862522,356.791806 C500.853238,355.470379 501.513731,353.818612 503.164917,353.48825 C504.155633,353.157933 504.485879,355.800741 505.476595,355.470379 C508.118496,355.470379 510.760421,354.479314 513.072099,353.157933 C513.732569,352.827571 510.430175,353.48825 510.430175,352.497185 C510.430175,351.506144 512.741853,351.836506 512.741853,350.845442 C512.411606,349.854378 505.806841,351.175805 498.541606,349.193676 C491.606571,347.211524 498.541606,347.541886 496.890398,341.925885 C495.239212,335.979476 485.992545,340.274073 483.350621,336.309838 C476.085363,326.729533 489.62514,330.693791 489.955386,330.693791 C490.285632,330.363451 488.634424,329.372387 488.96467,329.042024 C490.285632,326.729533 491.936818,324.417088 494.578742,323.756363 C496.890398,323.095661 499.532322,325.07779 502.174201,325.07779 C502.834716,325.07779 503.495163,324.747404 503.825409,324.086725 C508.118496,313.845719 495.899682,321.443872 495.239212,318.470678 C494.578742,317.149274 498.21136,318.470678 499.202076,317.479614 C501.183485,316.15821 497.881113,312.854654 497.55089,312.524292 C497.55089,310.2118 500.523038,307.23863 498.871806,305.256501 C497.55089,303.935074 494.908966,308.890419 493.588003,307.568992 C492.267064,306.247566 495.569458,304.595799 496.229928,302.94401 C496.560174,301.622606 493.25778,301.952945 496.229928,301.292243 C499.202076,300.631541 514.723262,300.631541 516.374447,304.926139 C517.365163,307.23863 516.044247,310.872548 518.025656,311.533227 C520.007088,312.193929 520.007088,308.229694 521.658273,307.23863 C524.630421,305.586864 533.216618,315.497485 533.546865,314.50642 C534.537581,312.193929 531.235187,309.551121 531.565433,306.908267 C532.225902,303.935074 542.133039,304.926139 542.133039,304.595799 C544.774964,303.604735 546.756395,301.622606 548.407581,299.640477 C549.398297,298.31905 543.454001,299.640477 543.454001,298.979752 C542.463285,295.34588 543.454001,300.301179 539.160914,299.970816 C538.500445,299.970816 539.49116,298.649389 539.49116,297.988688 C539.49116,297.658325 539.49116,296.997623 539.160914,296.997623 C537.839975,296.336944 531.235187,296.006582 532.225902,292.042324 C534.207334,285.435212 540.812123,292.703026 542.793555,292.042324 C544.114517,291.381622 538.830691,289.39947 539.821407,288.078066 C541.142323,286.756639 543.784271,289.39947 545.435433,289.069131 C547.086642,288.738768 544.114517,286.426277 543.123755,285.435212 C542.463285,284.77451 545.435433,284.77451 545.765679,283.783446 C547.086642,278.167422 532.886372,283.783446 550.05879,275.854954 C551.049506,275.524591 552.370468,276.515656 553.691407,276.846018 C558.314764,278.167422 563.598567,277.837082 567.56143,280.479913 C569.873109,282.131657 561.617135,285.435212 562.938074,287.747704 C564.259036,289.069131 566.900938,286.756639 568.552146,285.104873 C569.212616,284.444148 567.56143,281.470955 568.882393,281.470955 C570.863825,282.131657 572.184741,284.77451 573.505703,286.426277 L573.505703,286.426277 C566.240468,286.426277 568.2219,294.685132 562.938074,297.988688 C561.947358,298.649389 553.361184,296.006582 554.021653,297.988688 C554.3519,299.970816 558.644964,300.961881 557.984494,302.94401 C557.984494,302.94401 545.105233,306.247566 544.774964,306.247566 C543.454001,307.899355 556.333332,325.07779 561.286888,324.747404 C576.477851,323.425977 558.314764,316.818912 572.514987,314.836783 C576.147605,314.176058 574.496419,322.104596 576.147605,325.408152 C576.808097,326.729533 580.110491,326.068831 579.780245,328.381323 C579.119776,330.033089 576.808097,333.006282 578.459283,333.336645 C589.687382,337.300902 582.752393,329.702726 587.70595,332.675943 L589.026912,334.327709 C588.696666,333.997347 588.366442,333.667007 588.036196,333.336645 L588.036196,333.336645 Z" id="ie"></path>
        </g>
    </g>
</svg>