<?xml version="1.0" encoding="UTF-8" standalone="no"?>
<svg width="1638px" height="780px" viewBox="0 0 1638 780" version="1.1" xmlns="http://www.w3.org/2000/svg" xmlns:xlink="http://www.w3.org/1999/xlink">
    <!-- Generator: Sketch 3.6 (26304) - http://www.bohemiancoding.com/sketch -->
    <title>Blank_political_map_Europe_in_2008_WF_(with_Kosovo)</title>
    <desc>Created with Sketch.</desc>
    <defs>
        <rect id="path-1" x="0" y="3.11689748e-13" width="1638" height="779.469705"></rect>
    </defs>
    <g id="Page-1" stroke="none" stroke-width="1" fill="none" fill-rule="evenodd">
        <g id="Blank_political_map_Europe_in_2008_WF_(with_Kosovo)">
            <g id="Group">
                <mask id="mask-2" fill="white">
                    <use xlink:href="#path-1"></use>
                </mask>
                <use id="maska" xlink:href="#path-1"></use>
                <rect id="ocean" fill="#2096BD" mask="url(#mask-2)" x="-2282.26962" y="-2535.51623" width="8492.47326" height="5438.73246"></rect>
                <g id="outlines" mask="url(#mask-2)" stroke="#FFFFFF" stroke-width="3">
                    <g transform="translate(-986.639598, -2539.455185)">
                        <path d="M1966.96099,2897.69676 C1963.03041,2903.59063 1951.2388,2898.67916 1945.34296,2902.60843 C1942.39504,2905.5553 1953.20399,2907.5199 1953.20399,2911.44916 C1954.18672,2919.30763 1949.2734,2927.16616 1949.2734,2935.02463 C1950.25613,2941.90083 1957.13457,2945.8301 1957.13457,2952.70616 C1957.13457,2957.61776 1949.2734,2960.56469 1949.2734,2966.45856 C1948.29088,2970.38783 1956.15191,2974.31703 1954.18672,2978.24629 C1951.2388,2982.17556 1943.37763,2973.33476 1941.41237,2977.26396 C1938.46445,2981.19323 1946.32548,2985.12249 1947.30821,2990.03396 C1947.30821,2991.99869 1945.34296,2993.96322 1945.34296,2995.92782 C1946.32548,3008.69789 1950.25613,3016.55642 1946.32548,3029.32649 C1943.37763,3038.16722 1908.98532,3088.26502 1903.08948,3093.17662 C1901.12416,3095.14122 1896.21098,3096.12355 1895.22832,3100.05275 C1893.26306,3106.92895 1896.21098,3114.78749 1895.22832,3121.66355 C1895.22832,3122.64588 1893.26306,3122.64588 1893.26306,3121.66355 C1890.31514,3114.78749 1888.34981,3123.62822 1878.52346,3119.69895 C1874.59288,3118.71662 1874.59288,3112.82275 1870.66229,3111.84055 C1863.78379,3109.87582 1842.16576,3120.68128 1837.25258,3114.78749 C1836.26992,3112.82275 1841.18316,3112.82275 1841.18316,3110.85822 C1842.16576,3107.91129 1834.30466,3113.80515 1831.35674,3112.82275 C1816.61721,3111.84055 1811.70396,3103.98202 1797.94702,3108.89362 C1795.9817,3109.87582 1801.87754,3113.80515 1801.87754,3116.75202 C1800.89494,3121.66355 1783.20749,3125.59282 1783.20749,3125.59282 C1779.27691,3125.59282 1777.31151,3119.69895 1773.38107,3120.68128 C1766.50257,3123.62822 1763.55465,3132.46902 1757.65881,3136.39828 C1737.02343,3147.20368 1749.79764,3117.73442 1731.12759,3120.68128 C1725.23168,3121.66355 1736.04077,3132.46902 1734.07551,3137.38055 C1731.12759,3141.30982 1724.24909,3141.30982 1719.33584,3144.25675 C1716.38792,3146.22135 1714.42267,3152.11528 1710.49208,3153.09748 C1708.52683,3153.09748 1709.50949,3149.16821 1707.54416,3148.18602 C1705.57891,3146.22135 1702.63099,3144.25675 1699.68314,3145.23908 C1697.71774,3147.20368 1699.68314,3153.09748 1696.73522,3154.07988 C1686.90879,3155.06222 1669.22127,3143.27442 1663.3255,3144.25675 C1655.46427,3145.23908 1649.56849,3151.13295 1642.68999,3152.11528 C1623.03721,3154.07988 1653.49908,3138.36288 1637.77681,3141.30982 C1631.88097,3143.27442 1608.29768,3146.22135 1606.33236,3144.25675 C1602.40177,3138.36288 1639.74207,3127.55748 1643.67265,3118.71662 C1644.65532,3116.75202 1640.72473,3116.75202 1638.75948,3115.76968 C1637.77681,3113.80515 1615.17605,3118.71662 1586.67958,3115.76968 C1585.69692,3115.76968 1588.64484,3114.78749 1601.41918,3110.85822 C1603.38444,3110.85822 1605.34963,3109.87582 1605.34963,3107.91129 C1605.34963,3106.92895 1602.40177,3105.94669 1603.38444,3104.96435 C1612.22813,3097.10582 1608.29768,3109.87582 1620.08929,3104.96435 C1625.98513,3102.99975 1642.68999,3102.01742 1638.75948,3097.10582 C1637.77681,3096.12355 1593.55801,3102.01742 1591.59276,3102.01742 C1582.749,3100.05275 1575.87049,3086.30042 1576.85316,3076.47729 C1577.83575,3072.54802 1585.69692,3080.40655 1588.64484,3078.44202 C1591.59276,3076.47729 1586.67958,3073.53035 1586.67958,3070.58342 C1588.64484,3061.74269 1604.3671,3066.65415 1613.21086,3064.68962 C1620.08929,3063.70729 1628.93305,3064.68962 1633.84623,3059.77809 C1637.77681,3056.83116 1624.01981,3049.95496 1619.10663,3052.90189 C1618.12397,3054.86649 1621.07189,3058.79575 1619.10663,3059.77809 C1618.12397,3060.76035 1588.64484,3046.02569 1582.749,3038.16722 C1581.76633,3036.20255 1588.64484,3041.11416 1590.61009,3040.13182 C1592.57542,3039.14949 1590.61009,3035.22036 1592.57542,3034.23796 C1597.4886,3031.29102 1611.2456,3032.27342 1618.12397,3033.25562 C1626.96773,3033.25562 1632.86364,3042.09642 1640.72473,3046.02569 C1648.58583,3049.95496 1625.98513,3030.30869 1629.91565,3022.45029 C1632.86364,3015.57409 1644.65532,3020.48562 1651.53368,3017.53869 C1655.46427,3015.57409 1655.46427,3009.68022 1659.39485,3008.69789 C1660.37758,3008.69789 1723.26643,3019.50336 1730.14493,3015.57409 C1735.05811,3012.62716 1717.37059,3013.60949 1714.42267,3008.69789 C1713.44,3005.75096 1717.37059,3000.83942 1716.38792,2997.89249 C1715.40533,2995.92782 1700.66579,3014.03129 1690.83937,3013.04895 C1688.87411,3012.06669 1691.82197,3008.69789 1688.87405,3007.71562 C1685.92613,3006.73329 1681.99562,3010.66256 1678.06503,3009.68022 C1674.13445,3008.69789 1671.18653,3005.75096 1669.22127,3002.80402 C1668.23861,3000.83942 1670.20387,2998.87476 1669.22127,2997.89249 C1669.22127,2997.89249 1640.72473,3003.78636 1636.79415,3001.82169 C1633.84623,3000.83942 1643.67265,3001.82169 1646.62057,3000.83942 C1654.4816,2996.91016 1660.37758,2991.99869 1668.23861,2989.05176 C1670.20387,2987.08702 1674.13445,2990.03396 1676.09971,2989.05176 C1680.03029,2985.12249 1681.01295,2978.24629 1685.92613,2973.33476 C1687.89146,2971.37009 1690.83938,2970.38783 1693.7873,2969.40549 C1695.75255,2967.44089 1686.90879,2969.40549 1684.94354,2966.45856 C1681.01295,2961.54703 1693.7873,2957.61776 1697.71774,2953.68849 C1700.66566,2949.75923 1702.63099,2944.84769 1707.54416,2943.86536 C1710.49208,2942.88316 1711.47475,2950.74156 1714.42267,2949.75923 C1722.28376,2949.75923 1730.14493,2946.81229 1737.02343,2942.88316 C1738.98869,2941.90083 1729.16227,2943.86536 1729.16227,2940.91843 C1729.16227,2937.97156 1736.04077,2938.9539 1736.04077,2936.00696 C1735.05811,2933.06003 1715.40533,2936.9893 1693.7873,2931.09543 C1673.15179,2925.20149 1693.7873,2926.18383 1688.87405,2909.48463 C1683.96087,2891.80296 1656.447,2904.57296 1648.58583,2892.7853 C1626.96773,2864.29823 1667.25595,2876.08596 1668.23861,2876.08596 C1669.22127,2875.1037 1664.30803,2872.15677 1665.29069,2871.17443 C1669.22127,2864.29823 1674.13445,2857.42217 1681.99562,2855.4575 C1688.87405,2853.4929 1696.73522,2859.38677 1704.59624,2859.38677 C1706.56164,2859.38677 1708.52683,2858.40436 1709.50949,2856.43983 C1722.28376,2825.98817 1685.92613,2848.5813 1683.96087,2839.7405 C1681.99562,2835.8113 1692.80463,2839.7405 1695.75255,2836.79357 C1701.64832,2832.86437 1691.82197,2823.04123 1690.83938,2822.0589 C1690.83938,2815.1827 1699.68314,2806.34197 1694.76982,2800.4481 C1690.83938,2796.51884 1682.97821,2811.25357 1679.04763,2807.3243 C1675.11711,2803.39504 1684.94354,2798.4835 1686.90879,2793.5719 C1687.89146,2789.6427 1678.06503,2790.62497 1686.90879,2788.66037 C1695.75255,2786.69577 1741.93654,2786.69577 1746.84972,2799.46577 C1749.79764,2806.34197 1745.86719,2817.14744 1751.76297,2819.11197 C1757.65881,2821.07657 1757.65881,2809.2889 1762.57198,2806.34197 C1771.41574,2801.43044 1796.96436,2830.8997 1797.94702,2827.95277 C1800.89494,2821.07657 1791.06852,2813.21817 1792.05118,2805.35964 C1794.01644,2796.51884 1823.49557,2799.46577 1823.49557,2798.4835 C1831.35674,2795.53657 1837.25258,2789.6427 1842.16576,2783.74884 C1845.11368,2779.81957 1827.42616,2783.74884 1827.42616,2781.78417 C1824.47824,2770.97884 1827.42616,2785.71344 1814.65188,2784.7311 C1812.68662,2784.7311 1815.63454,2780.80184 1815.63454,2778.83724 C1815.63454,2777.8549 1815.63454,2775.8903 1814.65188,2775.8903 C1810.72137,2773.92577 1791.06852,2772.94344 1794.01644,2761.15571 C1799.91228,2741.50944 1819.56513,2763.1203 1825.46097,2761.15571 C1829.39155,2759.19111 1813.66929,2753.29717 1816.61721,2749.36797 C1820.54765,2745.43871 1828.40889,2753.29717 1833.322,2752.31491 C1838.23524,2751.33257 1829.39155,2744.45637 1826.44349,2741.50944 C1824.47824,2739.54484 1833.322,2739.54484 1834.30466,2736.59791 C1838.23524,2719.89864 1795.9817,2736.59791 1847.079,2713.02251 C1850.02692,2712.04017 1853.9575,2714.98711 1857.88802,2715.96944 C1871.64502,2719.89864 1887.36722,2718.91638 1899.1589,2726.77484 C1906.0374,2731.6863 1881.47138,2741.50944 1885.40189,2748.38564 C1889.33248,2752.31491 1897.19357,2745.43871 1902.10682,2740.52717 C1904.07208,2738.56251 1899.1589,2729.72171 1903.08948,2729.72171 C1908.98532,2731.6863 1912.91577,2739.54484 1916.84635,2744.45637 C1895.22832,2744.45637 1901.12416,2769.0141 1885.40189,2778.83724 C1882.45397,2780.80184 1856.90542,2772.94344 1858.87068,2778.83724 C1859.85334,2784.7311 1872.62755,2787.67804 1870.66229,2793.5719 C1870.66229,2793.5719 1832.33947,2803.39504 1831.35674,2803.39504 C1827.42616,2808.30664 1865.74918,2859.38677 1880.48872,2858.40436 C1925.69011,2854.4751 1871.64502,2834.82897 1913.89843,2828.9351 C1924.70745,2826.97043 1919.79427,2850.54597 1924.70745,2860.3691 C1926.67277,2864.29823 1936.4992,2862.33363 1935.51653,2869.20983 C1933.55128,2874.12136 1926.67277,2882.96216 1931.58595,2883.9445 C1964.99567,2895.73223 1944.36029,2873.13903 1959.09983,2881.9799 L1963.03041,2886.89143 C1962.04775,2885.9091 1961.06515,2884.92683 1960.08249,2883.9445 C1962.04775,2888.85603 1970.89151,2893.76763 1966.96099,2897.69676 Z" id="ie" fill="#FFFFFF"></path>
                        <path d="M2083.47648,2991.43199 C2101.16393,3005.18426 2115.90353,3013.04279 2097.23335,3021.88359 L2083.47648,2991.43199 Z M2086.4244,3026.79512 C2083.47648,3028.75965 2080.52856,3029.74206 2077.58064,3029.74206 C2074.63272,3029.74206 2080.52856,3025.81272 2079.54589,3023.84819 C2073.65005,3003.21966 2058.91045,2999.29039 2083.47648,2991.43199 L2086.4244,3026.79512 Z M2184.68829,2324.44316 C2190.58413,2327.3901 2203.35847,2333.28396 2204.34113,2340.16016 C2204.34113,2345.0717 2190.58413,2353.91243 2194.51471,2350.96549 C2200.41055,2347.03636 2202.37581,2335.24856 2209.25431,2336.2309 C2215.15015,2338.1955 2208.27165,2350.96549 2213.18489,2354.89476 C2217.11534,2357.84169 2219.08073,2347.03636 2223.01131,2346.05403 C2237.75085,2342.12476 2271.16056,2348.01863 2290.81334,2350.96549 C2298.6745,2351.9479 2309.48345,2345.0717 2314.3967,2350.96549 C2319.30988,2355.87716 2306.53553,2360.78863 2303.58768,2366.68249 C2301.62242,2372.57636 2303.58768,2378.47023 2301.62242,2384.36409 C2299.65717,2389.27569 2237.75085,2426.60349 2225.95923,2435.44429 C2206.30639,2450.17889 2234.80293,2433.47956 2244.62928,2441.33816 C2248.55986,2443.30269 2239.7161,2447.23196 2235.78552,2450.17889 C2232.8376,2453.12582 2230.87234,2458.03736 2225.95923,2459.01969 C2223.99384,2459.01969 2225.95923,2452.14349 2223.99384,2452.14349 C2220.06326,2451.16122 2217.11534,2455.09042 2214.16749,2456.07276 C2207.28905,2459.01969 2206.30639,2451.16122 2203.35847,2458.03736 C2195.4973,2475.71902 2214.16749,2481.61289 2219.08073,2475.71902 C2220.06326,2473.75436 2215.15015,2470.80742 2217.11534,2470.80742 C2222.02865,2469.82516 2226.94176,2473.75436 2232.8376,2473.75436 C2243.64669,2472.77209 2257.40362,2460.98429 2271.16056,2463.93122 C2278.03906,2464.91356 2283.9349,2471.78976 2290.81334,2473.75436 C2307.51826,2478.66596 2362.54601,2477.68362 2371.38977,2497.32982 C2373.3551,2503.22369 2374.33769,2509.11755 2372.37244,2515.01142 L2349.77167,2537.60448 C2346.82382,2541.53375 2344.85856,2546.44535 2343.8759,2551.35688 C2342.89324,2553.32148 2344.85856,2555.28615 2343.8759,2556.26842 C2336.0148,2571.00315 2294.74392,2628.95941 2281.96958,2629.94168 C2262.31687,2631.90635 2255.43837,2622.08321 2238.73344,2634.85328 C2235.78552,2636.81788 2244.62928,2637.80021 2247.57727,2636.81788 C2255.43837,2635.83555 2262.31687,2630.92401 2269.19524,2629.94168 C2282.95224,2628.95941 2272.14329,2638.78255 2273.12582,2641.72948 C2276.07374,2648.60554 2288.84808,2650.57028 2287.86542,2657.44634 C2284.9175,2679.05721 2264.28213,2660.39328 2258.38629,2661.37561 C2227.92442,2666.28721 2282.95224,2679.05721 2219.08073,2674.14568 C2218.09807,2674.14568 2218.09807,2684.95108 2219.08073,2684.95108 C2225.95923,2687.89808 2218.09807,2682.00414 2224.97657,2682.98648 C2232.8376,2684.95108 2249.54253,2697.72107 2258.38629,2691.82721 C2262.31687,2688.88034 2263.2994,2682.00414 2267.22998,2680.03954 C2269.19524,2679.05721 2306.53553,2706.56187 2310.46612,2710.49114 C2317.34462,2715.40274 2320.29254,2739.96054 2327.17104,2747.81894 C2331.10156,2751.74821 2336.9974,2752.73047 2339.94532,2756.65974 C2340.92798,2758.62434 2338.96272,2760.58901 2338.96272,2763.53594 C2337.98006,2769.42981 2337.98006,2776.30601 2337.98006,2782.19987 C2338.96272,2799.8814 2345.84123,2872.57233 2351.73707,2887.30707 C2352.71959,2889.27167 2354.68499,2883.3778 2356.65017,2884.36013 C2360.58076,2885.3424 2363.52868,2890.254 2367.45919,2892.2186 C2385.14678,2903.02393 2381.2162,2894.1832 2397.92112,2914.81173 C2403.81689,2921.68786 2400.86904,2933.47566 2405.78215,2941.33413 C2410.69533,2952.13946 2424.45233,2942.31646 2424.45233,2961.96259 C2424.45233,2967.85646 2413.64325,2967.85646 2412.66065,2973.75033 C2408.73007,2989.46726 2427.40025,3012.06046 2431.33084,3025.81272 C2436.24395,3044.47665 2420.52175,3016.97199 2419.53916,3037.60059 C2419.53916,3042.51206 2454.91413,3079.83985 2437.22668,3098.50379 C2423.46967,3112.25612 2417.57383,3096.53912 2407.74741,3121.09685 C2406.76481,3124.04378 2414.62591,3120.11465 2416.59117,3122.07918 C2420.52175,3125.02612 2421.50441,3130.91998 2424.45233,3133.86692 C2427.40025,3136.81385 2432.31336,3141.72545 2435.26128,3139.76078 C2454.91413,3126.99072 2440.1746,3114.22079 2460.80997,3117.16772 C2494.21968,3122.07918 2548.26491,3136.81385 2538.43849,3189.85865 C2535.49057,3206.55798 2512.88987,3250.76184 2496.18501,3256.65571 C2490.2891,3258.62038 2481.44534,3246.83258 2479.48008,3251.74418 C2470.63639,3269.42578 2516.82045,3264.51424 2477.5149,3275.31964 C2474.56698,3276.30198 2472.60165,3274.33731 2469.65373,3272.37271 C2468.67114,3272.37271 2468.67114,3270.40811 2467.68847,3270.40811 C2459.82731,3271.39038 2448.03563,3269.42578 2444.10518,3275.31964 C2441.15712,3281.21351 2458.84471,3273.35504 2462.77523,3278.26658 C2466.70581,3282.19584 2463.75789,3290.05424 2460.80997,3294.96584 C2452.94887,3307.73591 2431.33084,3298.89504 2420.52175,3302.82431 C2417.57383,3303.80664 2409.71273,3306.75357 2412.66065,3308.71817 C2413.64325,3308.71817 2442.13979,3299.87737 2441.15712,3312.64744 C2440.1746,3317.55897 2429.36551,3311.66511 2425.435,3314.61204 C2422.48708,3317.55897 2433.2961,3322.47057 2437.22668,3320.50591 C2439.19187,3318.54131 2439.19187,3312.64744 2442.13979,3312.64744 C2446.07037,3311.66511 2450.00095,3315.59437 2453.93147,3318.54131 C2467.68847,3331.31137 2425.435,3324.43517 2453.93147,3329.34677 C2467.68847,3331.31137 2482.428,3320.50591 2497.1676,3326.39984 C2501.09819,3327.38204 2491.27176,3332.29371 2490.2891,3336.22284 C2488.32384,3343.09904 2489.30651,3349.97524 2488.32384,3357.8337 C2485.37592,3367.65684 2467.68847,3363.72757 2457.86205,3368.63917 C2453.93147,3371.5861 2456.87939,3381.40917 2451.96621,3383.37377 C2434.27876,3389.26764 2443.12245,3373.55064 2432.31336,3380.42684 C2421.50441,3387.30304 2411.67799,3384.3561 2400.86904,3389.26764 C2395.95573,3391.23223 2393.99054,3399.09077 2388.0947,3399.09077 C2379.25094,3399.09077 2363.52868,3382.39143 2354.68499,3380.42684 C2347.80648,3379.4445 2298.6745,3391.23223 2295.72658,3380.42684 C2294.74392,3375.51537 2308.50093,3379.4445 2298.6745,3372.5683 C2292.77866,3368.63917 2295.72658,3377.4799 2293.76126,3380.42684 C2291.796,3381.40917 2288.84808,3379.4445 2287.86542,3377.4799 C2287.86542,3374.53304 2294.74392,3371.5861 2291.796,3371.5861 C2288.84808,3370.60377 2285.90016,3377.4799 2282.95224,3376.49757 C2280.00432,3375.51537 2285.90016,3370.60377 2283.9349,3367.65684 C2277.0564,3358.81604 2280.98698,3376.49757 2278.03906,3375.51537 C2266.24732,3371.5861 2257.40362,3351.93984 2254.4557,3354.88677 C2250.52519,3359.79837 2262.31687,3366.67443 2261.33421,3372.5683 C2260.35154,3382.39143 2205.32373,3369.62137 2203.35847,3372.5683 C2200.41055,3377.4799 2210.23697,3384.3561 2209.25431,3390.24997 C2208.27165,3393.1969 2203.35847,3389.26764 2200.41055,3389.26764 L2199.42789,3389.26764 C2194.51471,3386.3207 2178.79251,3375.51537 2173.87934,3377.4799 C2167.98343,3380.42684 2169.94875,3389.26764 2167.00083,3394.17917 C2165.03551,3396.14384 2168.96609,3388.2853 2167.98343,3385.33837 C2166.01817,3380.42684 2161.10499,3376.49757 2156.19175,3372.5683 C2143.4174,3359.79837 2106.07718,3350.95757 2088.38965,3357.8337 C2088.38965,3357.8337 2077.58064,3404.98464 2062.84104,3411.86084 C2051.04943,3416.7723 2030.41392,3388.2853 2022.55282,3384.3561 C2017.63957,3381.40917 2032.37924,3393.1969 2019.6049,3390.24997 C2007.81329,3387.30304 1991.10836,3375.51537 1977.35149,3379.4445 C1972.43818,3380.42684 1974.40344,3389.26764 1970.47299,3391.23223 C1964.57715,3393.1969 1957.69865,3389.26764 1950.82014,3389.26764 C1949.83748,3389.26764 1948.85489,3389.26764 1947.87222,3390.24997 C1945.90697,3395.1615 1934.11536,3419.71923 1930.1847,3419.71923 C1924.28893,3418.7369 1927.23685,3405.96697 1923.30627,3401.05537 C1917.41043,3391.23223 1893.82707,3398.10843 1893.82707,3387.30304 C1893.82707,3380.42684 1933.13262,3378.4623 1934.11536,3378.4623 C1938.0458,3377.4799 1941.97638,3373.55064 1944.9243,3369.62137 C1946.88956,3368.63917 1944.9243,3364.7099 1946.88956,3363.72757 C1948.85489,3361.76297 1952.78547,3364.7099 1954.75073,3363.72757 C1961.62923,3357.8337 1963.59449,3348.9929 1970.47299,3344.08137 C1973.42091,3342.1167 1978.33402,3346.04597 1981.28194,3345.06364 C1984.22986,3343.09904 1983.24726,3339.16977 1986.19518,3337.20517 C1991.10836,3332.29371 1999.95212,3331.31137 2004.86537,3325.41751 C2007.81329,3321.48824 2006.83062,3298.89504 2013.70913,3295.94811 C2017.63957,3294.96584 2021.57016,3302.82431 2025.50074,3303.80664 C2048.10137,3305.77124 2021.57016,3271.39038 2076.59797,3281.21351 C2095.26809,3284.16037 2119.83411,3309.70051 2138.5043,3294.96584 C2144.40007,3290.05424 2142.43488,3280.23124 2145.38273,3274.33731 C2146.36532,3272.37271 2193.53205,3242.90345 2199.42789,3236.02724 C2205.32373,3229.15104 2173.87934,3249.77951 2169.94875,3252.72658 C2165.03551,3254.69111 2160.12233,3255.67344 2155.20915,3256.65571 C2152.26123,3256.65571 2150.29591,3251.74418 2147.34799,3252.72658 C2122.78203,3259.60264 2128.67787,3280.23124 2099.19874,3263.53191 C2089.37232,3256.65571 2091.33751,3239.95651 2082.49381,3231.11571 C2074.63272,3223.25718 2059.89319,3240.93871 2050.06676,3236.02724 C2048.10137,3235.04491 2046.13618,3204.59324 2045.15352,3201.64631 C2044.17092,3199.68178 2043.18826,3205.57558 2041.223,3205.57558 C2034.3445,3206.55798 2043.18826,3198.69945 2019.6049,3205.57558 C2016.65705,3205.57558 2017.63957,3211.46945 2015.67432,3213.43404 C2009.77854,3215.39871 2001.91745,3217.36331 1996.02154,3215.39871 C1991.10836,3214.41638 1982.2646,3208.52251 1984.22986,3204.59324 C1987.17778,3198.69945 1997.0042,3202.62871 2002.90004,3201.64631 C2005.84796,3200.66398 1978.33402,3199.68178 1975.3861,3195.75251 C1971.45552,3189.85865 1973.42091,3182.00018 1973.42091,3175.12398 C1973.42091,3155.47778 2009.77854,3166.28325 2014.69165,3164.31851 C2020.58749,3162.35391 2021.57016,3152.53085 2028.44866,3151.54852 C2033.36184,3151.54852 2038.27508,3156.46012 2043.18826,3155.47778 C2058.91045,3151.54852 2090.35498,3125.02612 2096.25082,3111.27385 C2098.21601,3107.34459 2094.28543,3069.03445 2088.38965,3063.14059 C2071.6848,3042.51206 2053.01468,3101.45072 2046.13618,3061.17599 C2044.17092,3054.29979 2064.80629,3053.31745 2077.58064,3043.49439 C2079.54589,3040.54746 2078.5633,3035.63585 2080.52856,3032.68892 C2082.49381,3029.74206 2084.45914,3027.77746 2086.4244,3026.79512 C2090.35498,3023.84819 2094.28543,3022.86586 2097.23335,3021.88359 C2104.11185,3021.88359 2110.00769,3024.83052 2123.7647,3019.91892 C2125.72995,3018.93666 2119.83411,3012.06046 2122.78203,3013.04279 C2129.66054,3014.02506 2133.59112,3021.88359 2140.46948,3022.86586 C2154.22649,3024.83052 2157.17441,3012.06046 2167.00083,3020.90126 C2171.91401,3025.81272 2173.87934,3040.54746 2179.77518,3036.61819 C2185.67102,3032.68892 2174.86193,3021.88359 2176.82726,3015.00739 C2177.80978,3011.07812 2195.4973,3013.04279 2208.27165,3028.75965 C2211.21957,3031.70672 2200.41055,3028.75965 2196.47997,3026.79512 C2187.63621,3021.88359 2183.70562,3007.14893 2185.67102,2996.34346 C2186.65354,2990.44966 2192.54938,2985.53813 2197.46263,2981.60886 C2201.39321,2978.66193 2211.21957,2981.60886 2210.23697,2976.69726 C2208.27165,2970.80339 2196.47997,2970.80339 2194.51471,2964.90953 C2181.74043,2937.40486 2215.15015,2959.01566 2215.15015,2947.228 C2216.13281,2941.33413 2208.27165,2944.28106 2211.21957,2937.40486 C2214.16749,2930.52866 2223.01131,2925.61713 2222.02865,2917.75866 C2221.04599,2903.02393 2209.25431,2929.5464 2195.4973,2930.52866 C2186.65354,2930.52866 2198.44529,2911.86487 2195.4973,2904.00626 C2193.53205,2900.077 2188.61887,2911.86487 2184.68829,2910.88246 C2172.89667,2906.9532 2182.7231,2896.14787 2181.74043,2890.254 L2169.94875,2865.69627 C2168.96609,2853.90847 2201.39321,2821.4922 2202.37581,2821.4922 C2204.34113,2822.4746 2203.35847,2827.38607 2205.32373,2826.40373 C2213.18489,2824.43913 2223.99384,2822.4746 2225.95923,2815.5984 C2227.92442,2809.70454 2214.16749,2815.5984 2208.27165,2814.61607 C2204.34113,2813.6338 2200.41055,2808.7222 2195.4973,2809.70454 C2189.60146,2811.66914 2186.65354,2819.52767 2180.7577,2821.4922 C2175.84459,2823.4568 2169.94875,2819.52767 2165.03551,2820.50987 C2159.13967,2822.4746 2156.19175,2827.38607 2151.27857,2829.35067 C2149.31331,2830.333 2146.36532,2830.333 2145.38273,2828.3684 C2144.40007,2825.42154 2150.29591,2820.50987 2147.34799,2819.52767 C2144.40007,2818.54534 2145.38273,2825.42154 2143.4174,2827.38607 C2142.43488,2828.3684 2140.46948,2827.38607 2139.48696,2826.40373 C2134.57364,2820.50987 2134.57364,2805.77527 2123.7647,2803.81067 C2110.00769,2800.86374 2128.67787,2817.56293 2118.85145,2833.27993 C2114.92094,2839.1738 2110.00769,2823.4568 2106.07718,2817.56293 C2077.58064,2780.23514 2107.05977,2823.4568 2068.73688,2800.86374 C2058.91045,2794.96987 2082.49381,2799.8814 2081.51122,2794.96987 C2080.52856,2772.37674 2084.45914,2774.34127 2098.21601,2758.62434 C2123.7647,2730.13741 2080.52856,2763.53594 2111.97302,2735.04887 C2114.92094,2732.10201 2121.79937,2732.10201 2123.7647,2728.17274 C2127.69528,2721.29661 2109.0251,2698.70341 2108.04243,2696.73888 C2107.05977,2693.79194 2112.95561,2693.79194 2113.93827,2690.84501 C2116.88619,2683.96881 2113.93827,2675.12801 2116.88619,2667.26948 C2120.81678,2658.42868 2128.67787,2668.25181 2137.52156,2672.18108 C2169.94875,2686.91574 2120.81678,2663.34028 2120.81678,2661.37561 C2117.86886,2655.48174 2120.81678,2647.62335 2121.79937,2639.76481 C2121.79937,2634.85328 2125.72995,2628.95941 2122.78203,2625.03015 C2121.79937,2624.04781 2082.49381,2645.65868 2079.54589,2648.60554 C2071.6848,2655.48174 2084.45914,2669.23414 2082.49381,2680.03954 C2081.51122,2683.96881 2073.65005,2682.98648 2070.70213,2685.93341 C2068.73688,2687.89808 2066.77155,2690.84501 2066.77155,2693.79194 C2065.78896,2696.73888 2067.75421,2700.66801 2066.77155,2702.63268 C2063.82363,2710.49114 2055.9626,2714.42041 2053.01468,2722.27887 C2052.03195,2724.24354 2057.92779,2728.17274 2055.9626,2729.15507 C2049.0841,2733.08434 2040.24034,2736.03127 2032.37924,2733.08434 C2026.4834,2730.13741 2040.24034,2722.27887 2043.18826,2717.36734 C2049.0841,2709.50881 2047.11884,2696.73888 2053.01468,2688.88034 L2073.65005,2671.19874 C2071.6848,2666.28721 2060.87571,2673.16334 2058.91045,2668.25181 C2056.94527,2664.32254 2085.44173,2647.62335 2071.6848,2644.67641 C2065.78896,2642.71175 2062.84104,2657.44634 2057.92779,2654.49941 C2052.03195,2649.58795 2071.6848,2645.65868 2075.61538,2638.78255 C2079.54589,2630.92401 2076.59797,2613.24241 2079.54589,2606.36628 C2081.51122,2600.47242 2086.4244,2594.57855 2091.33751,2593.59622 C2096.25082,2592.61395 2105.09451,2603.41935 2105.09451,2598.50782 C2105.09451,2593.59622 2094.28543,2593.59622 2091.33751,2588.68468 C2084.45914,2574.93228 2124.74736,2568.05622 2125.72995,2568.05622 C2128.67787,2565.10929 2112.95561,2569.03842 2112.95561,2565.10929 C2112.95561,2559.21528 2122.78203,2558.23309 2124.74736,2552.33922 C2126.71262,2549.39229 2118.85145,2554.30382 2115.90353,2557.25075 C2109.0251,2562.16222 2110.00769,2564.12695 2104.11185,2567.07388 C2091.33751,2573.95002 2079.54589,2584.75542 2070.70213,2580.82615 C2071.6848,2582.79082 2072.66739,2583.77308 2074.63272,2584.75542 C2075.61538,2586.72001 2079.54589,2588.68468 2077.58064,2590.64928 C2069.71947,2597.52548 2030.41392,2611.27775 2023.53541,2597.52548 C2022.55282,2596.54315 2023.53541,2593.59622 2024.51808,2593.59622 C2044.17092,2585.73775 2028.44866,2615.20701 2053.01468,2581.80848 C2068.73688,2561.18002 2006.83062,2571.98535 2051.04943,2557.25075 C2053.01468,2561.18002 2054.97987,2565.10929 2057.92779,2568.05622 C2058.91045,2570.02075 2060.87571,2571.98535 2062.84104,2572.96768 C2060.87571,2570.02075 2058.91045,2566.09148 2057.92779,2561.18002 C2056.94527,2558.23309 2064.80629,2561.18002 2067.75421,2561.18002 C2075.61538,2561.18002 2083.47648,2565.10929 2090.35498,2562.16222 C2099.19874,2558.23309 2037.29242,2559.21528 2045.15352,2547.42762 C2051.04943,2539.56915 2076.59797,2550.37455 2078.5633,2546.44535 C2082.49381,2536.62222 2053.99735,2524.83455 2081.51122,2517.95835 C2088.38965,2515.99375 2095.26809,2524.83455 2103.12932,2522.86982 C2129.66054,2516.97602 2096.25082,2499.29442 2096.25082,2499.29442 C2099.19874,2492.41822 2113.93827,2501.25902 2118.85145,2495.36515 C2123.7647,2489.47129 2119.83411,2479.64815 2119.83411,2471.78976 C2119.83411,2465.89589 2120.81678,2460.00202 2118.85145,2456.07276 C2117.86886,2454.10816 2085.44173,2419.72729 2107.05977,2410.88649 C2111.97302,2407.93956 2112.95561,2426.60349 2118.85145,2424.63882 C2126.71262,2422.67423 2115.90353,2400.08103 2127.69528,2406.95723 C2143.4174,2415.79803 2144.40007,2416.78036 2144.40007,2415.79803 C2147.34799,2403.02796 2136.53904,2402.04576 2137.52156,2389.27569 C2137.52156,2384.36409 2150.29591,2395.16956 2152.26123,2390.25789 C2156.19175,2383.38183 2147.34799,2374.54103 2148.33065,2367.66483 C2148.33065,2364.7179 2151.27857,2372.57636 2154.22649,2372.57636 C2161.10499,2375.52329 2171.91401,2381.41716 2176.82726,2375.52329 C2180.7577,2370.61176 2167.00083,2365.70016 2165.03551,2359.80629 C2160.12233,2343.1071 2174.86193,2355.87716 2174.86193,2355.87716 C2176.82726,2353.91243 2171.91401,2349.9833 2172.89667,2348.01863 C2174.86193,2347.03636 2179.77518,2351.9479 2179.77518,2349.9833 C2179.77518,2347.03636 2172.89667,2345.0717 2173.87934,2342.12476 C2174.86193,2335.24856 2180.7577,2330.33703 2184.68829,2324.44316 L2184.68829,2324.44316 Z M2475.5495,2138.78644 C2475.5495,2141.73337 2477.5149,2143.69811 2476.53223,2145.66264 C2475.5495,2147.62738 2470.63639,2144.68031 2470.63639,2146.64497 C2469.65373,2151.55651 2479.48008,2141.73337 2484.39326,2142.71571 C2487.34118,2143.69811 2479.48008,2147.62738 2477.5149,2150.57424 C2477.5149,2151.55651 2481.44534,2154.50344 2480.46282,2155.48577 C2478.49742,2156.46811 2474.56698,2151.55651 2473.58431,2154.50344 C2473.58431,2156.46811 2479.48008,2156.46811 2479.48008,2159.41504 C2480.46282,2168.25584 2467.68847,2165.30891 2468.67114,2168.25584 C2469.65373,2181.02591 2470.63639,2190.8489 2450.98355,2211.47751 C2450.00095,2213.4421 2451.96621,2207.54824 2452.94887,2205.58364 C2458.84471,2192.81357 2469.65373,2171.20277 2464.74055,2168.25584 C2460.80997,2164.32657 2456.87939,2179.06124 2451.96621,2176.11431 C2445.08771,2173.16737 2442.13979,2164.32657 2440.1746,2157.45037 C2439.19187,2155.48577 2443.12245,2156.46811 2445.08771,2155.48577 C2452.94887,2154.50344 2460.80997,2156.46811 2467.68847,2153.52117 C2472.60165,2150.57424 2472.60165,2143.69811 2475.5495,2138.78644 L2475.5495,2138.78644 Z M2344.85856,2315.60236 C2332.08422,2341.14243 2273.12582,2286.13303 2314.3967,2283.1861 C2320.29254,2283.1861 2326.18838,2290.0623 2326.18838,2296.9385 C2327.17104,2300.86777 2314.3967,2299.88543 2316.36196,2302.83237 C2319.30988,2308.72623 2328.15364,2308.72623 2334.04948,2310.69076 C2336.9974,2312.6555 2340.92798,2313.6377 2344.85856,2315.60236 L2344.85856,2315.60236 Z M1924.77361,2748.06781 C1930.66945,2745.12088 1932.63471,2735.29775 1938.53055,2732.35088 C1944.42646,2728.42168 1951.30489,2737.26248 1957.20066,2736.28015 C1964.07917,2736.28015 1968.99248,2731.36862 1974.88825,2732.35088 C1981.76669,2733.33322 1985.69727,2740.20942 1991.59311,2742.17395 C1994.54103,2744.13868 2000.4368,2740.20942 2001.41953,2743.15628 C2005.35012,2750.03248 2007.31531,2759.85555 2005.35012,2767.71408 C2005.35012,2770.66101 2001.41953,2771.64335 2001.41953,2773.60795 C2012.22848,2815.84728 2007.31531,2760.83788 2019.10699,2798.16568 C2023.03757,2808.97108 1997.48895,2823.70581 1997.48895,2823.70581 C2014.19381,2819.77654 2031.88133,2807.00648 2028.93341,2846.29887 C2025.00283,2884.60901 1997.48895,2863.98054 1989.62785,2872.82134 C1982.74935,2879.6974 1987.66253,2895.4144 1969.97501,2892.46747 C1966.04442,2892.46747 1963.0965,2888.53827 1960.14858,2885.59127 L1956.21814,2880.67974 C1949.3373,2877.18296 1962.11398,2894.43214 1928.7042,2882.64434 C1923.79095,2881.66207 1930.66945,2872.82134 1932.63471,2867.90967 C1933.61737,2861.03347 1923.79095,2862.99821 1921.82569,2859.06894 C1916.91245,2849.24581 1924.77354,2827.52353 1913.96453,2829.48813 C1902.8863,2831.03341 1898.9173,2834.97691 1897.55412,2837.88178 C1895.28559,2842.71589 1902.08739,2848.84661 1899.73881,2852.5824 C1898.11589,2855.16391 1891.23525,2855.91966 1877.60689,2857.10434 C1862.86736,2858.08661 1824.54447,2807.00648 1828.47498,2802.09494 C1829.45765,2802.09494 1867.78054,2792.27181 1867.78054,2792.27181 C1869.74586,2786.37801 1856.97152,2783.43108 1855.98886,2777.53721 C1854.0236,2771.64335 1879.57229,2779.50181 1882.52014,2777.53721 C1898.2424,2767.71408 1892.34649,2743.15628 1913.96453,2743.15628 C1916.91245,2747.08562 1920.84303,2750.03248 1924.77361,2748.06781 Z M2101.16393,2336.2309 C2096.25082,2344.08943 2082.49381,2351.9479 2080.52856,2357.84169 C2079.54589,2362.75323 2078.5633,2390.25789 2065.78896,2390.25789 C2058.91045,2389.27569 2059.89319,2378.47023 2054.97987,2373.55869 C2049.0841,2369.62943 2056.94527,2390.25789 2051.04943,2393.20496 C2048.10137,2394.18716 2044.17092,2389.27569 2042.2056,2391.24029 C2035.32716,2395.16956 2034.3445,2408.92182 2026.4834,2408.92182 C2019.6049,2408.92182 2013.70913,2397.13409 2017.63957,2391.24029 C2021.57016,2384.36409 2038.27508,2396.1519 2041.223,2388.29336 C2044.17092,2381.41716 2027.466,2380.4349 2024.51808,2372.57636 C2023.53541,2369.62943 2031.39658,2370.61176 2033.36184,2368.64716 C2034.3445,2367.66483 2030.41392,2368.64716 2030.41392,2367.66483 C2028.44866,2363.73556 2027.466,2359.80629 2028.44866,2355.87716 C2037.29242,2331.31936 2044.17092,2353.91243 2057.92779,2356.85936 C2058.91045,2356.85936 2053.01468,2342.12476 2055.9626,2339.17783 C2065.78896,2327.3901 2065.78896,2338.1955 2075.61538,2337.21323 C2076.59797,2336.2309 2076.59797,2333.28396 2077.58064,2333.28396 C2083.47648,2328.37243 2089.37232,2320.5139 2096.25082,2321.49623 C2101.16393,2322.47856 2099.19874,2331.31936 2101.16393,2336.2309 L2101.16393,2336.2309 Z" id="uk" fill="#87B024"></path>
                        <path d="M3137.2845,2931.09543 C3124.51015,2929.13076 3111.73581,2922.25456 3098.96147,2920.28996 C3096.01362,2920.28996 3084.22194,2921.2723 3077.34343,2920.28996 C3077.34343,2915.37843 3077.34343,2910.46683 3078.3261,2904.57296 C3078.3261,2899.6615 3086.18719,2893.76763 3082.25668,2889.83836 C3086.18719,2884.92683 3080.29135,2877.0683 3080.29135,2870.1921 C3079.30869,2864.29823 3082.25668,2855.4575 3078.3261,2851.52816 C3069.48234,2842.68743 3043.93372,2852.51057 3039.02054,2834.82897 C3036.07262,2824.0235 3045.89898,2812.23584 3045.89898,2799.46577 C3046.88164,2800.4481 3046.88164,2800.4481 3047.8643,2801.43044 C3078.3261,2816.1651 3058.67325,2776.87271 3056.70806,2772.94344 C3055.72533,2770.97884 3054.74267,2765.08497 3051.79475,2767.04957 C3046.88164,2769.0141 3047.8643,2777.8549 3042.95106,2778.83724 C3040.00314,2779.81957 3041.96846,2771.96104 3041.96846,2769.0141 C3042.95106,2762.13804 3044.91638,2755.26184 3044.91638,2749.36797 C3045.89898,2743.47411 3040.00314,2735.61557 3044.91638,2731.6863 C3045.89898,2730.70411 3047.8643,2729.72171 3048.8469,2729.72171 C3047.8643,2727.75717 3043.93372,2685.51784 3053.76014,2689.44697 C3059.65598,2691.41171 3055.72533,2701.23471 3058.67325,2706.14631 C3067.51701,2726.77484 3109.77055,2675.69471 3111.73581,2675.69471 C3132.37125,2669.80084 3108.78789,2702.21704 3112.71847,2707.12857 C3116.64899,2712.04017 3124.51015,2708.11091 3131.38866,2706.14631 C3129.42333,2706.14631 3128.44067,2706.14631 3128.44067,2705.16397 C3126.47541,2700.25244 3132.37125,2694.35864 3129.42333,2690.42938 C3127.45807,2687.48244 3121.56223,2695.34084 3120.57957,2692.39391 C3118.61431,2688.46478 3126.47541,2685.51784 3126.47541,2681.58858 C3127.45807,2658.99538 3112.71847,2665.87158 3131.38866,2652.11918 C3135.31917,2648.19005 3147.11078,2649.17224 3150.0587,2652.11918 C3152.02403,2654.08384 3147.11078,2662.92464 3149.07611,2660.96004 C3153.00662,2657.03078 3153.00662,2648.19005 3157.91987,2645.24311 C3161.85045,2643.27838 3166.76363,2645.24311 3170.69421,2645.24311 C3175.60739,2648.19005 3199.19068,2654.08384 3199.19068,2654.08384 C3201.15601,2659.97771 3196.24276,2666.85391 3197.22542,2673.73004 C3197.22542,2678.64164 3205.08659,2683.55318 3203.12126,2688.46478 C3201.15601,2692.39391 3194.2775,2687.48244 3190.34692,2688.46478 C3184.45108,2689.44697 3205.08659,2693.37624 3204.10393,2699.27011 C3204.10393,2701.23471 3203.12126,2702.21704 3203.12126,2703.19938 C3207.05185,2704.18164 3208.03451,2713.02251 3212.94769,2714.00477 C3224.73937,2716.95171 3242.42682,2700.25244 3247.34007,2722.84557 C3249.30532,2730.70411 3225.72203,2769.99651 3217.86086,2766.06724 C3210.98243,2762.13804 3210.98243,2749.36797 3203.12126,2746.42104 C3194.2775,2743.47411 3195.26017,2794.55424 3192.31225,2800.4481 C3187.399,2813.21817 3179.53797,2822.0589 3165.78097,2822.0589 C3158.90253,2822.0589 3144.16286,2811.25357 3146.12826,2818.12963 C3149.07611,2825.00583 3164.79837,2821.07657 3168.72889,2828.9351 L3168.72889,2831.88203 L3170.69421,2831.88203 C3174.62473,2831.88203 3175.60739,2838.75823 3178.55531,2838.75823 C3189.3644,2835.8113 3197.22542,2819.11197 3208.03451,2823.04123 C3213.93035,2825.98817 3216.87827,2834.82897 3223.75664,2835.8113 C3227.68722,2836.79357 3228.66995,2829.91737 3231.6178,2827.95277 C3249.30532,2864.29823 3227.68722,2832.86437 3234.56572,2846.6167 C3240.46156,2857.42217 3259.13175,2902.60843 3222.77411,2898.67916 C3214.91294,2897.69676 3208.03451,2891.80296 3200.17334,2889.83836 C3197.22542,2889.83836 3192.31225,2894.7499 3189.3644,2891.80296 C3181.50316,2885.9091 3209.0171,2887.87377 3193.29484,2879.0329 C3168.72889,2866.2629 3193.29484,2887.87377 3185.43381,2887.87377 C3182.48589,2887.87377 3175.60739,2858.40436 3175.60739,2857.42217 C3172.65947,2850.54597 3162.83305,2846.6167 3160.86779,2838.75823 C3160.86779,2837.7759 3161.85045,2837.7759 3161.85045,2837.7759 C3153.98929,2840.72283 3143.18034,2842.68743 3143.18034,2843.66977 C3141.21494,2847.59903 3153.00662,2843.66977 3154.97195,2847.59903 C3155.95461,2850.54597 3149.07611,2851.52816 3149.07611,2854.4751 C3148.09345,2860.3691 3149.07611,2866.2629 3151.04137,2871.17443 C3152.02403,2874.12136 3156.93721,2875.1037 3156.93721,2878.05063 C3156.93721,2888.85603 3139.24975,2892.7853 3137.2845,2903.59063 C3137.2845,2907.5199 3145.14553,2901.62603 3148.09345,2903.59063 C3154.97195,2908.50223 3160.86779,2915.37843 3161.85045,2923.2369 C3162.83305,2927.16616 3154.97195,2915.37843 3151.04137,2916.36069 C3146.12826,2918.32536 3140.23242,2927.16616 3137.2845,2931.09543 L3137.2845,2931.09543 Z M2160.54098,1935.03262 C2159.55832,1943.87342 2157.59306,1959.59042 2157.59306,1959.59042 C2157.59306,1959.59042 2159.55832,1943.87342 2160.54098,1935.03262 L2160.54098,1935.03262 Z M2175.28052,1838.76616 C2163.4889,1863.32396 2180.19369,1832.87236 2183.14161,1847.60696 C2183.14161,1849.57162 2178.22844,1849.57162 2178.22844,1850.55396 C2180.19369,1854.48316 2188.05486,1853.50089 2188.05486,1857.43009 C2188.05486,1864.30629 2186.08953,1876.09402 2179.2111,1876.09402 C2173.31533,1875.11176 2180.19369,1863.32396 2179.2111,1857.43009 C2176.26318,1847.60696 2146.78398,1836.80163 2175.28052,1838.76616 L2175.28052,1838.76616 Z M3323.00326,2769.0141 C3333.81234,2761.15571 3350.5172,2765.08497 3362.30881,2767.04957 C3363.29147,2769.0141 3367.22206,2770.97884 3367.22206,2772.94344 C3366.23939,2778.83724 3360.34355,2782.7665 3360.34355,2788.66037 C3361.32628,2808.30664 3377.04848,2807.3243 3363.29147,2823.04123 C3358.37836,2827.95277 3350.5172,2828.9351 3345.60402,2833.84663 C3336.76026,2843.66977 3347.56928,2846.6167 3356.41297,2851.52816 L3362.30881,2866.2629 C3354.44778,2873.13903 3332.82968,2870.1921 3332.82968,2879.0329 C3333.81234,2889.83836 3357.39563,2904.57296 3332.82968,2905.5553 C3323.98592,2905.5553 3317.10741,2899.6615 3309.24639,2895.73223 C3313.17683,2897.69676 3318.09008,2899.6615 3319.07267,2896.71456 C3321.038,2889.83836 3315.14223,2881.9799 3310.22891,2876.08596 C3308.26372,2874.12136 3307.28106,2880.01523 3305.3158,2880.01523 C3299.41996,2880.01523 3295.48938,2875.1037 3290.5762,2874.12136 C3285.66296,2873.13903 3280.74978,2877.0683 3276.8192,2876.08596 C3274.85394,2876.08596 3274.85394,2873.13903 3274.85394,2872.15677 C3280.74978,2856.43983 3263.06233,2860.3691 3264.04485,2857.42217 C3265.02759,2853.4929 3271.90609,2854.4751 3272.88861,2850.54597 C3276.8192,2822.0589 3267.97551,2829.91737 3252.25324,2816.1651 C3250.28799,2814.2005 3244.39215,2809.2889 3247.34007,2808.30664 C3256.18383,2803.39504 3303.35055,2814.2005 3294.50672,2783.74884 C3292.54146,2776.87271 3281.73244,2778.83724 3275.83653,2774.90797 C3272.88861,2772.94344 3282.71504,2776.87271 3285.66296,2776.87271 C3290.5762,2778.83724 3295.48938,2780.80184 3300.40256,2780.80184 C3315.14223,2780.80184 3338.72552,2773.92577 3333.81234,2804.37737 C3332.82968,2809.2889 3320.05534,2814.2005 3323.98592,2817.14744 C3341.67344,2831.88203 3335.7776,2796.51884 3332.82968,2782.7665 C3331.84702,2776.87271 3316.12475,2781.78417 3318.09008,2776.87271 C3319.07267,2772.94344 3323.00326,2769.0141 3323.00326,2769.0141 Z M3337.74286,2925.20149 L3337.74286,2927.16616 C3338.72552,2929.13076 3337.74286,2930.1131 3337.74286,2931.09543 C3334.79494,2933.06003 3330.86442,2936.00696 3329.88176,2937.97156 C3326.93384,2939.93623 3323.00326,2945.8301 3323.00326,2945.8301 L3323.00326,2946.81229 C3323.00326,2946.81229 3310.22891,2943.86536 3307.28106,2944.84769 C3302.36788,2945.8301 3298.4373,2954.67083 3292.54146,2953.68849 C3284.68036,2952.70616 3280.74978,2942.88316 3273.87128,2938.9539 C3268.95817,2936.00696 3262.07967,2934.04236 3258.14908,2930.1131 C3255.20116,2928.14843 3266.01025,2926.18383 3275.83653,2908.50223 C3289.59354,2920.28996 3310.22891,2923.2369 3322.02059,2933.06003 L3323.00326,2934.04236 C3317.10741,2925.20149 3304.33314,2918.32536 3309.24639,2910.46683 C3311.21164,2906.5377 3317.10741,2908.50223 3320.05534,2907.5199 C3326.93384,2914.3961 3341.67344,2913.41376 3343.6387,2922.25456 C3343.6387,2923.2369 3343.6387,2924.21923 3342.6561,2925.20149 L3337.74286,2925.20149 Z M3045.89898,2781.78417 L3045.89898,2789.6427 C3044.91638,2783.74884 3044.91638,2777.8549 3045.89898,2781.78417 L3045.89898,2781.78417 Z M3217.86086,2594.16291 C3220.80872,2604.96838 3210.98243,2658.01304 3193.29484,2652.11918 C3187.399,2650.15458 3182.48589,2643.27838 3175.60739,2643.27838 C3182.48589,2634.43765 3153.00662,2641.31385 3145.14553,2643.27838 C3138.26702,2645.24311 3132.37125,2651.13698 3125.49275,2652.11918 C3122.54483,2652.11918 3120.57957,2647.20764 3117.63165,2647.20764 C3109.77055,2646.22531 3101.90939,2647.20764 3095.03089,2649.17224 C3092.08303,2650.15458 3094.04836,2656.04844 3091.10044,2658.01304 C3077.34343,2663.90698 3092.08303,2624.61451 3072.43026,2676.67698 C3071.44759,2677.65931 3077.34343,2705.16397 3076.36077,2705.16397 C3043.93372,2704.18164 3061.62117,2643.27838 3080.29135,2636.40231 C3096.99628,2628.54378 3120.57957,2637.38458 3137.2845,2630.50838 C3159.88513,2619.70298 3154.97195,2588.26905 3175.60739,2576.48132 C3182.48589,2573.53438 3191.32958,2575.49898 3198.20809,2572.55205 C3205.08659,2568.62292 3209.0171,2554.87052 3216.87827,2554.87052 C3231.6178,2554.87052 3209.0171,2565.67598 3208.03451,2574.51672 C3206.06918,2588.26905 3212.94769,2579.42825 3217.86086,2594.16291 L3217.86086,2594.16291 Z M3308.26372,2928.14843 L3299.41996,2929.13076 C3306.29847,2931.09543 3312.19431,2934.04236 3317.10741,2938.9539 L3318.09008,2938.9539 C3315.14223,2935.02463 3311.21164,2932.07769 3308.26372,2928.14843 L3308.26372,2928.14843 Z" id="dk" fill="#87B024"></path>
                        <path d="M2113.93827,2867.6608 C2109.0251,2868.6432 2104.11185,2868.6432 2099.19874,2871.59007 C2095.26809,2874.537 2094.28543,2881.41313 2090.35498,2885.3424 C2048.10137,2923.65253 2115.90353,2913.8294 2113.93827,2867.6608 L2113.93827,2867.6608 Z" id="im" fill="#87B024"></path>
                    </g>
                </g>
            </g>
        </g>
    </g>
</svg>