<?xml version="1.0" encoding="UTF-8" standalone="no"?>
<svg width="188px" height="156px" viewBox="0 0 188 156" version="1.1" xmlns="http://www.w3.org/2000/svg" xmlns:xlink="http://www.w3.org/1999/xlink">
    <!-- Generator: Sketch 3.6 (26304) - http://www.bohemiancoding.com/sketch -->
    <title>is</title>
    <desc>Created with Sketch.</desc>
    <defs></defs>
    <g id="Page-1" stroke="none" stroke-width="1" fill="none" fill-rule="evenodd">
        <g id="Group" transform="translate(-431.000000, -272.000000)" fill="#FFFFFF">
            <path d="M458.461193,386.385364 C457.470477,386.055025 436.335219,375.813995 435.344503,375.153316 C434.023564,374.162252 438.316628,372.840825 439.307344,371.519421 C440.29806,369.867631 439.307344,364.912309 440.958552,365.573011 C443.600454,366.564076 441.949268,370.858696 443.600454,372.840825 C443.9307,373.50155 444.260946,371.189058 445.251662,371.189058 C447.893564,370.858696 450.865712,373.171187 453.17739,372.180123 C463.414773,368.215865 449.874996,364.581947 462.424057,363.590882 C464.735735,363.590882 467.047413,365.242672 469.359045,365.573011 C471.010254,365.903374 466.717167,363.260566 465.396205,362.599818 L463.414773,362.599818 C460.772871,362.269501 458.130947,362.93018 455.819268,361.939139 C454.168083,360.948075 459.782155,362.599818 461.103095,361.278437 C461.763587,360.617712 458.461193,360.287327 458.791439,359.296285 C458.791439,357.644519 460.112379,356.323092 461.763587,355.66239 C462.754303,355.332027 464.405489,356.323092 465.726451,356.323092 C468.038129,355.992752 470.680008,355.66239 472.66144,354.010624 C473.652156,353.349899 470.019538,353.680261 469.028845,353.019559 C468.038129,352.689197 459.782155,356.653454 457.470477,356.323092 C455.819268,355.992752 458.461193,352.689197 458.791439,351.037407 C458.791439,349.055278 457.470477,347.403535 457.8007,345.421406 C458.130947,343.439277 461.763587,342.11785 461.103095,339.805359 C460.772871,338.483955 457.8007,340.466084 456.479761,339.805359 C455.489045,339.475019 455.819268,336.832166 454.828553,337.492891 C454.498352,337.82323 455.819268,339.475019 455.158799,339.144657 C452.51692,337.82323 449.874996,333.52861 447.563318,331.876866 C447.233094,331.216165 446.242378,331.546504 445.581886,331.546504 C444.921416,331.546504 444.260946,332.537545 443.9307,332.207229 C443.27023,331.876866 443.600454,330.2251 442.609738,329.894738 C441.288776,329.234036 423.125688,329.234036 436.335219,322.957287 C439.967859,321.305497 439.307344,324.609053 442.609738,326.591182 C445.581886,328.242971 450.205242,323.948351 453.17739,325.600117 C454.498352,326.260819 450.865712,328.903673 452.186674,329.894738 C453.17739,330.885802 453.837837,327.912609 455.158799,327.582246 C457.470477,326.921544 460.112379,325.600117 462.093811,326.921544 C463.414773,328.242971 461.433341,330.885802 461.763587,332.537545 C461.763587,333.52861 461.763587,330.885802 462.093811,330.55544 C463.745019,328.573311 488.512895,344.760704 479.926698,330.55544 C478.605735,328.573311 475.303364,332.207229 472.66144,331.876866 C469.689292,331.546504 467.377614,327.912609 466.056651,325.269755 C466.056651,325.269755 466.386921,324.939415 466.717167,324.609053 C470.349761,321.966222 476.29408,321.305497 480.256944,320.975181 C482.238376,320.975181 484.550031,322.957287 485.87097,321.305497 C488.512895,318.993006 475.963834,319.984116 476.29408,316.350198 C476.624304,314.037707 482.898823,315.028771 482.898823,312.38594 C482.568576,296.859272 471.340477,314.037707 470.680008,311.064513 C470.349761,309.082384 472.00097,307.100256 471.340477,305.448512 C471.010254,304.787764 470.019538,306.769893 469.359045,306.769893 C468.698576,306.769893 470.019538,305.11815 469.359045,305.11815 C467.047413,305.778829 467.047413,309.743086 465.396205,305.448512 C465.065935,305.11815 465.726451,303.796723 465.396205,303.796723 C464.075242,304.787764 464.075242,307.100256 462.424057,307.430618 C461.433341,307.430618 461.763587,305.11815 460.772871,304.787764 C458.791439,304.127085 449.544749,308.752022 449.214526,303.466383 C449.214526,302.475273 450.865712,302.475273 450.865712,301.484231 C449.874996,298.511038 441.949268,298.841401 442.609738,295.537845 C445.251662,281.662966 453.17739,301.484231 454.828553,300.493167 C459.451909,297.519974 449.544749,287.939715 456.149515,287.939715 C462.093811,287.609352 458.130947,310.073449 465.726451,299.832465 C466.717167,298.511038 461.763587,296.859272 463.084526,295.868207 C464.405489,294.216418 468.038129,297.850336 469.689292,296.19857 C470.680008,294.54678 465.396205,296.19857 464.075242,294.877143 C462.093811,292.895014 461.433341,289.921844 461.103095,287.27899 C459.782155,276.046942 467.377614,297.519974 470.349761,294.216418 C471.340477,293.225354 460.112379,284.305797 465.065935,281.993305 C467.377614,281.002241 469.028845,287.27899 471.340477,286.287926 C472.66144,285.296861 465.065935,274.725492 474.642872,278.029048 C482.568576,281.002241 473.652156,294.877143 482.568576,300.493167 C482.568576,300.82353 488.182649,298.180699 488.512895,291.573587 C488.512895,290.25216 486.531463,290.912908 485.87097,289.921844 C484.880254,288.930779 481.24766,282.65403 482.568576,280.671901 C484.880254,278.029048 489.503611,282.98437 492.806005,284.636159 C493.796721,284.966499 489.833834,283.975434 489.833834,282.98437 C489.503611,281.993305 491.485043,282.323668 492.145512,281.993305 C492.475759,281.662966 492.475759,281.002241 492.145512,281.002241 C487.852402,281.332603 488.182649,287.939715 483.229069,277.037983 C478.935982,267.457701 488.182649,274.725492 488.512895,274.725492 C488.512895,274.725492 488.843118,274.395175 488.843118,274.064813 C488.843118,273.404111 488.182649,272.082684 488.843118,272.413046 C489.833834,273.404111 489.833834,275.38624 491.154796,276.377304 C492.475759,277.368369 494.787437,277.037983 496.108353,278.029048 C499.410747,280.671901 494.457191,283.975434 494.787437,285.627224 C494.787437,286.287926 496.4386,285.627224 497.099069,285.957563 C497.429315,286.287926 499.740994,288.270054 499.080501,289.591481 C498.420031,289.921844 496.768869,289.591481 497.099069,290.25216 C497.759562,291.573587 500.401463,291.243225 500.401463,292.895014 C500.73171,295.207505 497.429315,297.519974 498.089785,299.832465 C498.750278,301.814594 503.703858,300.493167 503.373611,302.475273 C503.373611,304.457448 498.420031,301.153892 497.759562,302.805658 C497.429315,304.457448 512.620278,311.064513 497.429315,313.377005 C494.787437,314.037707 493.796721,309.412747 491.154796,308.421683 C490.164081,308.09132 491.485043,310.403811 492.145512,311.394876 C492.806005,314.037707 495.778153,316.350198 495.117637,318.662689 C494.457191,321.305497 489.503611,321.305497 489.173365,323.948351 C488.512895,325.600117 493.136228,324.609053 493.466475,326.260819 C494.126944,327.912609 491.485043,329.564375 490.82455,331.216165 C490.164081,333.198293 487.852402,337.162528 489.833834,337.492891 C496.768869,338.814294 496.4386,324.939415 500.73171,322.626924 C514.271487,315.359134 505.02482,324.609053 504.694573,325.93048 C502.713142,334.189358 512.620278,325.269755 513.280771,324.609053 C517.573881,319.984116 515.922672,306.769893 519.225066,307.100256 C530.783412,308.09132 520.546029,322.626924 527.150771,327.912609 C532.434597,332.537545 529.462449,321.966222 530.783412,319.323368 C531.113635,317.671625 532.434597,315.689496 534.085806,315.028771 C535.076522,314.698432 536.397461,315.359134 537.718423,316.019836 C538.04867,316.350198 538.04867,317.341262 538.37887,317.341262 C541.020794,316.680561 543.662696,313.046642 545.974374,314.368069 C548.286052,315.359134 547.955806,318.993006 548.286052,321.63586 C548.286052,323.287626 546.30462,324.27869 546.634844,325.93048 C548.286052,334.189358 552.248916,319.984116 549.937238,332.207229 C548.946522,339.144657 546.634844,335.510739 548.286052,341.787488 C550.927954,353.019559 550.927954,320.314433 554.230325,319.653754 C562.816545,317.341262 560.835113,331.546504 561.495583,334.850037 C561.495583,335.510739 561.495583,333.198293 562.156053,332.867931 C562.486299,332.537545 563.807261,332.867931 563.477015,332.537545 C561.495583,328.242971 564.137485,334.519674 564.137485,334.519674 C564.467731,334.519674 564.467731,333.52861 564.797977,333.198293 C566.44914,330.55544 569.751534,325.93048 573.384151,325.600117 C577.016792,325.269755 576.686546,332.867931 579.65867,334.850037 C580.979633,335.510739 578.998224,331.876866 579.98894,330.885802 C581.970349,328.573311 583.291311,333.858972 583.291311,333.858972 C583.62158,334.519674 582.961065,332.207229 583.291311,331.546504 C583.951781,330.55544 585.602989,329.894738 585.933212,328.573311 C586.593705,327.251884 585.933212,325.600117 585.933212,323.948351 C586.263459,321.966222 585.933212,319.323368 587.584421,318.332327 C589.896076,317.341262 592.207755,318.993006 594.519433,319.653754 C600.463705,320.975181 595.510149,323.617989 596.170595,325.93048 C596.831111,327.251884 598.81252,326.921544 599.472989,327.912609 C601.784668,332.867931 589.565853,334.189358 600.463705,340.135721 C601.784668,340.796423 601.784668,337.162528 603.10563,336.501849 C604.426569,335.841101 606.077778,337.162528 607.39874,336.501849 C610.370888,335.510739 613.673236,328.242971 617.966346,336.171464 C618.626839,337.492891 614.994198,336.832166 613.343013,337.162528 C608.389456,338.153593 606.408001,337.492891 603.10563,342.778552 C602.775384,343.439277 604.756816,343.439277 604.756816,344.099979 C605.087062,345.091044 603.10563,345.751769 603.7661,346.082108 C605.417285,347.403535 608.389456,346.412471 610.040642,347.733897 C615.324445,351.698132 602.775384,358.965946 602.114914,359.626648 C601.454421,359.95701 603.435853,358.635583 604.426569,358.965946 C606.738247,359.626648 609.049926,361.278437 611.031335,362.93018 C611.361604,363.260566 609.380172,363.260566 609.380172,363.921245 C609.380172,364.912309 611.031335,365.903374 611.031335,366.894438 C611.031335,367.55514 609.710372,366.564076 609.380172,366.894438 C607.068494,368.215865 600.793952,370.858696 603.10563,371.84976 C606.077778,372.840825 608.719656,365.573011 611.031335,367.55514 C612.022051,368.876567 613.012766,370.197994 614.333729,371.189058 C614.994198,371.84976 616.315161,370.528356 616.645407,371.519421 C618.296593,374.492614 619.947778,380.108615 615.984914,382.751469 C614.003482,384.072873 611.031335,383.742534 609.049926,384.733598 C608.05921,385.3943 606.738247,386.715727 607.39874,387.376429 C608.389456,388.367493 625.561828,390.349599 612.022051,398.278138 C609.049926,399.929904 601.454421,392.992453 601.454421,392.66209 C599.142766,389.68892 612.022051,397.947775 608.719656,400.920968 C607.068494,402.242395 604.426569,397.617413 602.775384,398.938839 C601.454421,399.929904 606.077778,400.920968 606.738247,402.572758 C607.068494,403.23346 605.417285,403.894139 604.756816,404.224524 C601.784668,405.545951 597.821804,409.179823 595.510149,406.867332 C593.858963,405.215589 594.189163,398.608477 592.538001,400.260266 C590.886815,402.242395 596.170595,405.215589 594.849679,407.528057 C593.858963,409.510186 589.565853,407.197694 587.914644,408.849461 C585.933212,410.50125 587.254175,414.465508 585.602989,416.447637 C584.942497,417.438701 582.961065,415.456572 581.970349,415.786935 C579.65867,416.447637 578.337754,419.420807 576.026076,419.751193 C574.044644,420.081555 575.03536,411.492315 569.751534,410.170888 C568.100371,409.840525 570.08178,413.804806 569.091087,415.456572 C568.760818,416.117274 567.439856,414.79587 566.779409,415.456572 C566.44914,415.456572 568.100371,416.447637 567.770125,416.447637 C558.853682,418.09938 563.807261,415.786935 555.551287,417.108316 C551.2582,417.769064 547.62556,421.402936 543.332473,423.054725 C542.67198,423.385065 541.351064,423.715427 540.690548,423.385065 C538.37887,422.394 537.718423,418.760128 535.406745,418.760128 C533.425313,419.090491 534.085806,423.385065 532.434597,424.04579 C531.113635,424.376129 530.783412,421.733298 529.462449,421.07262 C527.481017,420.411872 520.215782,420.081555 517.573881,419.090491 C512.950524,417.769064 512.620278,425.697556 511.629562,426.688621 C509.31793,428.670749 497.099069,427.349346 494.787437,426.358258 C488.843118,424.376129 483.889538,414.79587 480.917414,411.822677 C476.624304,408.188759 472.991686,411.161952 470.680008,404.554887 C470.349761,402.903097 468.698576,400.920968 469.359045,399.269202 C470.019538,396.956711 476.29408,395.965646 474.312625,394.974582 C472.331193,393.983517 470.680008,400.260266 469.028845,398.938839 C467.047413,397.287073 471.340477,393.653155 470.019538,391.340663 C469.359045,390.019283 467.707883,394.31388 466.386921,393.653155 C464.075242,392.331728 464.075242,389.028218 462.093811,387.376429 C461.103095,386.385364 459.782155,386.715727 458.461193,386.385364 L458.461193,386.385364 Z" id="is"></path>
        </g>
    </g>
</svg>