<?xml version="1.0" encoding="UTF-8" standalone="no"?>
<svg width="1638px" height="780px" viewBox="0 0 1638 780" version="1.1" xmlns="http://www.w3.org/2000/svg" xmlns:xlink="http://www.w3.org/1999/xlink">
    <!-- Generator: Sketch 3.6 (26304) - http://www.bohemiancoding.com/sketch -->
    <title>Blank_political_map_Europe_in_2008_WF_(with_Kosovo)</title>
    <desc>Created with Sketch.</desc>
    <defs>
        <rect id="path-1" x="0" y="0" width="1638" height="779.482086"></rect>
    </defs>
    <g id="Page-1" stroke="none" stroke-width="1" fill="none" fill-rule="evenodd">
        <g id="Blank_political_map_Europe_in_2008_WF_(with_Kosovo)">
            <g id="Group">
                <mask id="mask-2" fill="white">
                    <use xlink:href="#path-1"></use>
                </mask>
                <use id="maska" xlink:href="#path-1"></use>
                <rect id="ocean" fill="#2096BD" mask="url(#mask-2)" x="-2922.15212" y="-1208.52396" width="10786.028" height="6907.67582"></rect>
                <g id="outlines" mask="url(#mask-2)" stroke="#FFFFFF" stroke-width="3">
                    <g transform="translate(-1276.612440, -1213.526786)">
                        <path d="M2866.82785,0.611347098 C2873.06801,5.60183237 2876.81207,9.34469196 2876.81207,9.34469196 C2880.55605,18.0780542 2874.31589,26.8114165 2874.31589,35.5447614 C2874.31589,39.2876297 2880.55605,41.7828723 2879.308,44.278115 C2879.308,46.7733576 2875.56394,40.5352467 2873.06801,40.5352467 C2869.32395,41.7828723 2865.57989,45.5257406 2864.33184,49.2686002 C2859.33973,66.7353074 2859.33973,112.897327 2834.37934,119.135429 C2789.45059,131.611651 2828.13918,99.173479 2819.40318,87.9448828 C2815.65912,81.7067719 2801.93083,87.9448828 2796.93872,81.7067719 C2774.47435,62.9924478 2803.17888,20.5733056 2771.97842,0.611347098 L2866.82785,0.611347098 L2866.82785,0.611347098 Z M2492.4218,383.631305 C2487.42987,408.58367 2527.36641,479.69815 2504.90204,472.212431 C2469.95752,459.736183 2538.59869,441.021877 2474.94963,446.012405 C2471.20557,446.012405 2472.45362,453.498125 2472.45362,457.240984 C2478.69369,479.69815 2507.39823,483.44101 2476.19768,503.402977 C2472.45362,505.898176 2458.72533,495.917258 2458.72533,493.422059 C2457.47728,489.679199 2467.46151,489.679199 2466.21346,485.936331 C2466.21346,482.19335 2459.97338,488.43153 2456.22932,485.936331 C2448.74128,482.19335 2452.48534,467.221902 2449.98916,457.240984 C2443.74917,428.545637 2418.7887,416.069389 2421.2848,383.631305 C2422.53276,371.155065 2430.02088,358.678817 2437.50892,348.697899 C2444.99722,337.46932 2492.4218,383.631305 2492.4218,383.631305 L2492.4218,383.631305 Z M2768.23436,0.611347098 C2769.48223,8.09708371 2789.45059,48.0209746 2781.96247,46.7733576 C2766.98631,45.5257406 2748.266,16.8304286 2748.266,16.8304286 C2748.266,16.8304286 2754.50607,26.8114165 2759.49818,31.8019018 C2769.48223,43.0304893 2808.1709,90.4401167 2789.45059,109.15445 C2785.70653,112.897327 2769.48223,96.6782277 2760.74623,97.9258533 C2750.76201,99.173479 2740.77787,110.402075 2730.79365,106.659216 C2725.80171,105.41159 2733.28975,94.1829937 2732.0417,89.1925085 C2729.54569,80.4591462 2725.80171,60.4971964 2720.80951,66.7353074 C2714.56935,74.221044 2727.04959,84.2020145 2728.29764,92.9353681 C2729.54569,99.173479 2725.80171,105.41159 2728.29764,111.649701 C2734.53771,127.868774 2758.25013,85.4496315 2779.46646,116.640186 C2785.70653,126.621165 2761.9942,134.106885 2757.00217,145.335498 C2753.25811,151.5736 2759.49818,161.554571 2753.25811,165.297439 C2747.01795,170.287933 2735.78576,162.802197 2727.04959,166.545056 C2725.80171,167.792682 2761.9942,180.268912 2763.24225,182.764112 C2768.23436,187.75464 2765.73817,198.983219 2773.2263,202.726079 C2780.71442,205.221278 2789.45059,195.24036 2796.93872,196.48802 C2799.43482,196.48802 2800.68278,223.935706 2796.93872,232.668964 C2791.94669,245.145212 2776.97036,251.383393 2764.4903,256.373791 C2729.54569,271.34536 2739.52982,221.440385 2739.52982,210.211798 C2740.77787,202.726079 2695.84913,192.74516 2690.8571,185.259441 C2684.61694,176.526053 2693.35311,152.821217 2683.36889,155.316469 C2673.38475,157.811711 2687.11295,177.773713 2682.12093,186.506971 C2679.62483,192.74516 2672.1367,196.48802 2664.64858,196.48802 C2658.40859,196.48802 2650.92047,180.268912 2645.92835,185.259441 C2642.18429,191.4975 2660.90452,197.735559 2658.40859,205.221278 C2654.66453,217.697526 2624.71194,201.478418 2624.71194,221.440385 C2624.71194,228.926105 2637.19218,233.916625 2639.68828,241.402353 C2642.18429,252.630931 2615.97586,286.316807 2617.22382,295.050065 C2617.22382,300.040585 2625.95999,287.564337 2627.20804,281.326278 C2633.44812,265.107179 2635.94422,245.145212 2654.66453,237.659493 C2657.16054,236.411954 2678.37686,282.573939 2679.62483,283.821477 C2684.61694,288.812006 2695.84913,287.564337 2698.34523,293.802526 C2704.5853,310.021634 2677.12881,307.526304 2674.6328,312.516824 C2664.64858,329.983592 2684.61694,336.221651 2654.66453,351.193098 C2644.6803,356.183618 2620.96788,328.735932 2614.72781,324.993072 C2605.99163,320.002552 2608.48782,334.973991 2607.23977,336.221651 C2600.9997,338.71685 2592.26352,337.46932 2586.02336,337.46932 C2577.28727,337.46932 2567.30305,342.459719 2559.81492,338.71685 C2542.34275,331.231131 2519.87829,258.869112 2532.35853,237.659493 C2544.83876,218.945186 2566.05509,285.069138 2566.05509,286.316807 C2567.30305,287.564337 2569.79915,288.812006 2572.29516,290.059667 C2582.2793,290.059667 2603.49571,297.545386 2600.9997,288.812006 C2597.25563,280.078618 2579.78328,291.307205 2571.04711,285.069138 C2556.07086,276.335758 2558.56687,235.164294 2542.34275,221.440385 C2521.12634,203.973739 2507.39823,252.630931 2499.90993,251.383393 C2486.18182,248.888072 2492.4218,177.773713 2491.17393,165.297439 C2489.92588,162.802197 2486.18182,166.545056 2486.18182,169.040308 C2483.6858,175.278392 2481.1897,181.516582 2482.43775,189.002301 C2482.43775,190.24984 2489.92588,248.888072 2487.42987,250.135732 C2479.94174,256.373791 2469.95752,241.402353 2459.97338,240.154814 C2453.73322,240.154814 2418.7887,278.831079 2406.30846,248.888072 C2403.81245,243.897674 2406.30846,236.411954 2403.81245,231.421426 C2402.5644,228.926105 2398.82034,231.421426 2397.57246,230.173765 C2393.8284,227.678566 2390.08434,225.183245 2388.83629,221.440385 C2385.09222,211.459467 2393.8284,197.735559 2386.34027,190.24984 C2383.84417,187.75464 2376.35605,186.506971 2375.108,190.24984 C2372.61199,200.23088 2396.32432,246.392873 2396.32432,246.392873 C2382.59621,278.831079 2365.12386,236.411954 2362.62785,235.164294 C2355.13973,228.926105 2343.90745,227.678566 2333.9234,226.430906 C2330.17934,225.183245 2347.65169,231.421426 2345.1555,236.411954 C2341.41144,246.392873 2327.68333,248.888072 2322.69122,257.621452 C2318.94715,267.6025 2357.63574,237.659493 2358.88379,238.907154 C2365.12386,242.650013 2365.12386,255.126252 2372.61199,257.621452 C2378.85215,260.116651 2383.84417,248.888072 2391.33221,248.888072 C2396.32432,250.135732 2436.26105,298.793046 2436.26105,300.040585 C2438.75706,341.21218 2396.32432,308.773965 2392.58026,308.773965 C2378.85215,307.526304 2370.11598,326.240611 2358.88379,311.269164 C2355.13973,303.783445 2356.38769,293.802526 2350.14761,288.812006 C2347.65169,286.316807 2316.45114,273.840559 2317.6991,277.583419 C2321.44317,286.316807 2365.12386,295.050065 2352.64363,310.021634 C2347.65169,315.012023 2336.41933,301.288246 2331.42739,306.278766 C2326.43528,313.764494 2322.69122,329.983592 2331.42739,334.973991 C2338.91552,341.21218 2347.65169,323.745412 2356.38769,322.497751 C2361.3798,321.250213 2365.12386,327.488271 2370.11598,327.488271 C2402.5644,326.240611 2398.82034,315.012023 2411.30057,356.183618 C2412.54862,358.678817 2413.79667,362.421677 2413.79667,366.164545 C2401.31644,413.57419 2381.34816,374.897925 2353.89168,382.383644 C2348.89957,383.631305 2365.12386,387.374164 2363.87581,391.117033 C2358.88379,399.850412 2347.65169,401.097951 2341.41144,407.336131 C2336.41933,411.078991 2330.17934,414.821859 2328.93129,422.307579 C2327.68333,424.802778 2335.17145,422.307579 2337.66738,421.059918 C2342.65958,417.317058 2343.90745,409.831331 2348.89957,404.84081 C2358.88379,396.107553 2387.58815,389.869363 2396.32432,403.593272 C2400.06839,411.078991 2397.57246,419.812258 2401.31644,426.050438 C2405.0605,434.783818 2416.29268,439.774216 2416.29268,448.507604 C2417.54073,455.993324 2402.5644,457.240984 2402.5644,464.726703 C2402.5644,469.717232 2412.54862,463.479043 2416.29268,467.221902 C2422.53276,472.212431 2427.52487,480.945811 2428.77292,489.679199 C2428.77292,492.174398 2422.53276,492.174398 2420.03675,494.669598 C2418.7887,497.164919 2426.27682,497.164919 2427.52487,498.412457 C2435.013,507.145837 2447.49323,519.622085 2441.25316,528.355465 C2437.50892,534.593523 2428.77292,533.345863 2421.2848,535.841184 C2416.29268,537.088722 2401.31644,537.088722 2406.30846,539.584043 C2413.79667,545.822111 2432.51698,537.088722 2436.26105,547.069771 C2438.75706,555.803151 2420.03675,553.30783 2413.79667,559.54601 C2392.58026,579.507978 2448.74128,565.784069 2454.98127,567.03173 C2457.47728,567.03173 2448.74128,570.774598 2446.2451,570.774598 C2441.25316,572.022128 2436.26105,572.022128 2432.51698,573.269797 C2408.80456,582.003177 2392.58026,596.974624 2390.08434,623.174641 C2390.08434,624.42231 2393.8284,623.174641 2395.07627,621.927111 C2402.5644,615.688922 2403.81245,604.460343 2412.54862,600.717483 C2421.2848,595.726955 2432.51698,598.222284 2442.50103,600.717483 C2444.99722,600.717483 2441.25316,604.460343 2441.25316,605.708004 C2438.75706,615.688922 2441.25316,626.917509 2433.76495,633.15569 C2428.77292,638.146088 2417.54073,626.917509 2413.79667,631.908029 C2407.55651,639.393749 2417.54073,651.869997 2412.54862,659.355716 C2408.80456,664.346236 2382.59621,655.612856 2378.85215,653.117657 C2367.61988,650.622336 2407.55651,655.612856 2410.05261,666.841435 C2411.30057,675.574823 2388.83629,666.841435 2387.58815,674.327163 C2386.34027,681.812882 2405.0605,679.317683 2406.30846,686.803402 C2407.55651,698.031981 2377.6041,690.546262 2376.35605,699.27965 C2376.35605,705.517709 2388.83629,704.27017 2388.83629,709.260569 C2390.08434,713.003428 2380.10011,709.260569 2377.6041,713.003428 C2376.35605,716.746288 2391.33221,722.984477 2386.34027,722.984477 C2382.59621,724.232007 2378.85215,715.498749 2376.35605,717.993948 C2356.38769,736.708237 2418.7887,717.993948 2366.37191,756.670231 C2350.14761,769.146487 2331.42739,755.422579 2325.18723,740.451106 C2320.1952,727.974875 2351.39566,689.298601 2355.13973,678.070023 C2358.88379,661.850915 2336.41933,699.27965 2328.93129,714.251089 C2317.6991,734.213021 2291.49067,741.698758 2279.01052,715.498749 C2257.7942,674.327163 2270.27435,648.127137 2288.99474,610.698524 C2293.98668,600.717483 2288.99474,578.260317 2290.24262,572.022128 C2291.49067,564.536409 2302.72286,558.29835 2298.97879,552.060291 C2293.98668,544.574442 2281.50645,552.060291 2274.01841,547.069771 C2270.27435,543.326912 2272.77045,505.898176 2271.5224,499.660118 C2255.2981,454.745785 2247.80997,475.955291 2221.60162,465.974373 C2210.36944,460.983844 2221.60162,434.783818 2221.60162,429.793298 C2221.60162,428.545637 2220.35357,378.640785 2216.60951,373.650265 C2204.12928,358.678817 2209.12139,392.364693 2204.12928,364.917007 C2202.88131,356.183618 2205.37733,344.95504 2201.63326,336.221651 C2184.16092,301.288246 2184.16092,349.945438 2187.90498,367.412206 L2210.36944,388.621703 C2211.6174,391.117033 2210.36944,396.107553 2209.12139,394.859892 C2199.13725,388.621703 2192.89709,373.650265 2206.62538,408.58367 C2210.36944,414.821859 2216.60951,421.059918 2215.36146,428.545637 C2211.6174,454.745785 2164.19273,404.84081 2150.46444,418.564719 C2128.00007,439.774216 2185.40897,426.050438 2194.14514,434.783818 C2199.13725,441.021877 2196.64115,451.002804 2196.64115,459.736183 C2196.64115,462.231504 2194.14514,464.726703 2195.39319,465.974373 C2200.38521,465.974373 2205.37733,460.983844 2210.36944,462.231504 C2215.36146,463.479043 2216.60951,469.717232 2220.35357,474.70763 C2220.35357,475.955291 2220.35357,477.202951 2221.60162,478.45049 C2237.82584,492.174398 2290.24262,509.641036 2256.54615,543.326912 C2232.83372,565.784069 2149.21639,557.05069 2132.99218,530.850664 C2132.99218,529.603003 2140.48031,495.917258 2140.48031,495.917258 C2139.23226,493.422059 2134.24014,488.43153 2134.24014,490.926729 C2129.24821,502.155317 2135.48819,532.098324 2125.50397,525.860144 C2123.00796,523.364944 2123.00796,518.374416 2120.51203,515.879217 C2113.02391,509.641036 2103.03968,492.174398 2095.55156,499.660118 C2088.06344,505.898176 2109.27985,517.126886 2108.0318,527.107804 C2104.28773,552.060291 2075.5832,544.574442 2066.8472,549.56497 C2064.3511,550.812631 2069.34321,555.803151 2066.8472,557.05069 C2048.1268,567.03173 2014.43033,523.364944 2005.69415,552.060291 C2004.44619,557.05069 2049.37485,557.05069 2055.61493,565.784069 C2060.60704,572.022128 2031.9025,575.764996 2046.87884,585.746036 C2055.61493,593.231756 2129.24821,613.193723 2134.24014,623.174641 C2137.98421,630.660369 2129.24821,640.641409 2123.00796,645.631938 C2108.0318,656.860517 2106.78375,633.15569 2099.29562,630.660369 C2093.05555,628.16517 2084.31937,628.16517 2076.83125,629.41283 C2058.11102,633.15569 2065.59915,649.374798 2039.39071,634.403229 C2033.15055,631.908029 2034.3986,620.679451 2028.15844,616.936582 C2020.67032,611.946062 1994.46197,611.946062 2000.70204,619.431781 C2005.69415,624.42231 2016.92625,624.42231 2021.91837,629.41283 C2024.41438,633.15569 2020.67032,639.393749 2023.16641,644.384269 C2028.15844,653.117657 2034.3986,660.603376 2043.13478,666.841435 C2056.86297,676.822484 2066.8472,649.374798 2075.5832,645.631938 C2109.27985,630.660369 2096.79961,654.365196 2119.26398,665.593775 C2126.75202,669.336634 2185.40897,659.355716 2187.90498,666.841435 C2191.64913,674.327163 2166.68874,676.822484 2170.4328,684.308203 C2172.92873,691.793922 2185.40897,676.822484 2192.89709,679.317683 C2197.8892,680.565344 2192.89709,688.051063 2194.14514,691.793922 C2199.13725,701.774849 2217.85756,729.222536 2226.59374,742.946409 C2237.82584,759.165447 2259.04216,771.641704 2276.51451,780.375005 C2287.74661,786.61309 2313.95504,775.384485 2315.20309,789.108394 C2316.45114,800.336999 2293.98668,815.308472 2285.25068,806.575083 C2282.7545,805.327519 2287.74661,800.336999 2286.49856,797.841782 C2284.00263,794.098827 2279.01052,807.822735 2274.01841,806.575083 C2265.28232,805.327519 2257.7942,790.355958 2250.30599,794.098827 C2240.32185,797.841782 2247.80997,820.298992 2237.82584,821.546557 C2229.08975,824.04186 2235.32974,801.58465 2227.84161,797.841782 C2222.84967,795.346479 2230.3378,812.813255 2225.34569,815.308472 C2204.12928,824.04186 2202.88131,802.832215 2191.64913,796.59413 C2187.90498,794.098827 2201.63326,802.832215 2201.63326,807.822735 C2200.38521,816.556124 2194.14514,825.289338 2187.90498,831.527597 C2174.17687,846.498983 2164.19273,809.070387 2159.20062,805.327519 C2147.96843,799.089347 2182.91295,832.775249 2155.45655,839.013246 C2140.48031,841.508463 2149.21639,801.58465 2125.50397,817.803688 C2116.76797,824.04186 2121.75991,839.013246 2115.51992,847.746635 C2108.0318,856.479936 2096.79961,822.794208 2086.81539,827.784729 C2078.0793,831.527597 2086.81539,846.498983 2083.07132,853.98472 C2080.57531,856.479936 2076.83125,852.737068 2073.08719,851.489503 C2065.59915,848.9942 2058.11102,841.508463 2049.37485,840.260985 C2045.63079,840.260985 2051.87086,847.746635 2050.6229,851.489503 C2045.63079,858.97524 2039.39071,867.708628 2030.65454,871.451496 C2026.91048,872.699061 2026.91048,863.96576 2023.16641,863.96576 C2020.67032,862.718108 2023.16641,867.708628 2021.91837,868.956193 C2016.92625,871.451496 2011.93432,873.946713 2006.9422,872.699061 C2000.70204,872.699061 1996.95798,862.718108 1990.7179,863.96576 C1970.74954,865.213325 1995.71002,883.927579 1974.49361,875.194365 C1968.25353,873.946713 1962.01337,872.699061 1957.02143,868.956193 C1955.77338,866.460976 1964.50956,861.470456 1960.76549,861.470456 C1948.28526,857.727588 1934.55697,870.203845 1920.82877,868.956193 C1915.83666,867.708628 1912.0926,860.222892 1907.10049,858.97524 C1900.8605,857.727588 1869.65995,855.232371 1867.16394,853.98472 C1863.41988,848.9942 1863.41988,830.279858 1860.92378,835.270378 C1858.42777,840.260985 1860.92378,852.737068 1857.17972,850.241851 C1853.43565,847.746635 1853.43565,840.260985 1849.69159,837.765595 C1844.69948,836.518117 1840.9555,847.746635 1835.96348,845.251331 C1824.73129,841.508463 1820.98723,824.04186 1809.75496,824.04186 C1803.51488,825.289338 1807.25894,837.765595 1803.51488,840.260985 C1792.28278,847.746635 1774.81043,845.251331 1773.56247,830.279858 C1773.56247,826.537077 1779.80255,825.289338 1779.80255,821.546557 C1781.0506,812.813255 1787.29067,799.089347 1779.80255,796.59413 C1757.33817,791.60361 1756.09012,841.508463 1733.62584,830.279858 C1711.16146,817.803688 1734.87389,827.784729 1733.62584,805.327519 C1732.37779,796.59413 1714.90553,777.879876 1716.15349,786.61309 C1718.64959,805.327519 1734.87389,807.822735 1717.40154,825.289338 C1698.68123,842.756115 1676.21694,785.365525 1673.72084,782.870222 C1669.97678,777.879876 1656.24858,780.375005 1658.74459,775.384485 C1661.24069,766.651184 1679.961,771.641704 1679.961,762.908316 C1681.20897,754.175014 1663.7367,751.679711 1661.24069,741.698758 C1656.24858,726.727337 1682.45702,710.508229 1674.96889,679.317683 C1674.96889,678.070023 1669.97678,696.784321 1666.23272,696.784321 C1631.28819,691.793922 1681.20897,736.708237 1651.25647,749.184494 C1643.76834,751.679711 1638.77623,739.203541 1632.53624,734.213021 C1631.28819,732.965369 1637.52836,736.708237 1637.52836,737.955889 C1641.27242,746.689278 1643.76834,755.422579 1643.76834,764.155967 C1645.01639,779.127354 1636.28031,761.660751 1630.04023,767.898836 C1623.80007,775.384485 1622.55202,790.355958 1612.56788,791.60361 C1603.83171,794.098827 1602.58375,779.127354 1595.09554,775.384485 C1595.09554,775.384485 1567.63922,785.365525 1566.39117,785.365525 C1557.655,784.117874 1551.41493,776.632224 1542.67875,774.137008 C1541.4307,774.137008 1540.18274,777.879876 1540.18274,779.127354 C1541.4307,781.622744 1547.67086,784.117874 1545.17476,786.61309 C1541.4307,790.355958 1533.94258,789.108394 1528.95047,791.60361 C1521.46234,796.59413 1517.71837,806.575083 1508.98228,807.822735 C1477.78182,815.308472 1501.49407,772.889356 1471.54166,816.556124 C1466.54946,824.04186 1469.04564,834.022726 1464.05353,839.013246 C1461.55752,841.508463 1460.30947,835.270378 1456.56541,834.022726 C1449.07728,832.775249 1439.09306,832.775249 1431.60494,835.270378 C1429.10892,836.518117 1435.349,842.756115 1432.85299,844.003767 C1430.35697,845.251331 1429.10892,837.765595 1426.613,839.013246 C1424.11681,839.013246 1426.613,842.756115 1425.36486,845.251331 C1420.37275,852.737068 1415.38081,861.470456 1406.64464,866.460976 C1404.14854,867.708628 1410.3887,855.232371 1406.64464,855.232371 C1402.90057,853.98472 1404.14854,862.718108 1401.65252,865.213325 C1392.91635,871.451496 1381.68416,875.194365 1370.45198,876.441929 C1369.20393,876.441929 1370.45198,871.451496 1371.70011,868.956193 C1374.19604,862.718108 1379.18815,856.479936 1381.68416,848.9942 C1384.18026,844.003767 1371.70011,855.232371 1366.70792,857.727588 C1365.45987,858.97524 1362.96394,876.441929 1362.96394,876.441929 C1361.7158,877.689581 1314.29104,895.156358 1306.80292,885.175231 C1303.05895,878.937233 1315.53909,870.203845 1314.29104,862.718108 C1313.04317,858.97524 1305.55504,861.470456 1303.05895,863.96576 C1296.81887,868.956193 1298.06692,880.184711 1290.5788,882.680101 C1285.58668,883.927579 1288.0827,872.699061 1286.83473,868.956193 C1280.59457,853.98472 1295.57082,867.708628 1280.59457,830.279858 C1278.09856,825.289338 1279.34652,862.718108 1274.3545,865.213325 C1266.86646,870.203845 1256.88215,867.708628 1249.39411,868.956193 C1246.8981,856.479936 1226.92974,885.175231 1214.4495,883.927579 C1209.45739,883.927579 1215.69755,860.222892 1208.20951,845.251331 C1206.96138,844.003767 1203.2174,857.727588 1198.22529,858.97524 C1191.98522,858.97524 1155.79256,856.479936 1157.04061,852.737068 C1158.28857,851.489503 1160.78467,851.489503 1162.03281,850.241851 C1168.27279,841.508463 1174.51287,832.775249 1179.50498,824.04186 C1180.75303,819.05134 1173.2649,831.527597 1169.52084,834.022726 C1155.79256,839.013246 1157.04061,858.97524 1139.56835,856.479936 C1130.83226,853.98472 1144.56046,829.03238 1134.57632,814.06082 C1132.08022,810.317952 1120.84803,817.803688 1120.84803,812.813255 C1122.09608,807.822735 1132.08022,811.565604 1137.07233,807.822735 C1142.06444,804.079867 1129.58421,796.59413 1143.31241,795.346479 C1155.79256,792.851262 1155.79256,795.346479 1168.27279,791.60361 C1175.76092,789.108394 1184.49709,789.108394 1193.23327,787.860742 C1196.97733,786.61309 1204.46545,790.355958 1204.46545,786.61309 C1203.2174,780.375005 1193.23327,777.879876 1191.98522,771.641704 C1190.73717,761.660751 1193.23327,749.184494 1185.74505,742.946409 C1179.50498,737.955889 1168.27279,741.698758 1160.78467,742.946409 C1159.53662,742.946409 1158.28857,744.193974 1159.53662,745.441626 C1163.28068,754.175014 1174.51287,762.908316 1172.01686,772.889356 C1170.76881,779.127354 1160.78467,762.908316 1154.54451,762.908316 C1150.80044,764.155967 1159.53662,771.641704 1157.04061,774.137008 C1153.29663,777.879876 1145.80851,775.384485 1142.06444,779.127354 C1133.32827,784.117874 1128.33616,794.098827 1119.59998,800.336999 C1117.10397,801.58465 1122.09608,775.384485 1105.87179,769.146487 C1049.71085,744.193974 1144.56046,821.546557 1074.67132,827.784729 C1069.67921,827.784729 1070.92726,819.05134 1069.67921,815.308472 C1065.93515,807.822735 1064.6871,794.098827 1057.19898,795.346479 C1048.46298,796.59413 1055.95101,817.803688 1048.46298,817.803688 C1004.78219,824.04186 1038.47875,776.632224 1033.48655,762.908316 C1033.48655,760.413099 1029.74258,765.403619 1027.24657,767.898836 C1021.00649,775.384485 1017.26243,784.117874 1009.7743,790.355958 C1001.03813,796.59413 1011.02227,767.898836 1011.02227,756.670231 C1011.02227,754.175014 1007.27821,756.670231 1004.78219,757.917883 C997.294069,761.660751 991.053907,772.889356 982.317907,771.641704 C973.581733,770.394139 972.333683,756.670231 963.597509,752.927362 C959.853447,751.679711 961.101496,760.413099 962.349546,764.155967 C964.845558,771.641704 973.581733,777.879876 972.333683,785.365525 C969.83767,802.832215 939.885086,814.06082 927.405024,815.308472 C860.011904,822.794208 937.389073,786.61309 903.692601,776.632224 C896.204476,774.137008 891.212364,787.860742 883.724327,787.860742 C879.980265,787.860742 888.716439,780.375005 887.468302,776.632224 C886.220252,769.146487 883.724327,755.422579 876.236203,756.670231 C867.500028,757.917883 871.244091,775.384485 863.755966,780.375005 C856.267842,787.860742 862.507916,760.413099 853.771829,775.384485 C852.52378,777.879876 850.027767,782.870222 850.027767,786.61309 C850.027767,791.60361 856.267842,795.346479 855.019792,799.089347 C853.771829,802.832215 847.531668,795.346479 846.283618,799.089347 C843.787605,809.070387 846.283618,819.05134 845.035655,829.03238 C845.035655,831.527597 850.027767,831.527597 848.779717,832.775249 C843.787605,841.508463 833.803556,847.746635 828.811444,856.479936 C825.067381,865.213325 825.067381,876.441929 821.323319,885.175231 C820.075269,886.42297 817.579257,885.175231 816.331207,883.927579 C816.331207,882.680101 817.579257,880.184711 816.331207,880.184711 C813.835195,878.937233 810.091133,882.680101 808.843083,880.184711 C807.595033,876.441929 813.835195,872.699061 812.587145,868.956193 C808.843083,852.737068 790.122772,863.96576 780.138548,855.232371 C768.906361,846.498983 772.650424,832.775249 752.68215,835.270378 C750.186137,836.518117 756.426299,840.260985 756.426299,844.003767 C750.186137,887.670447 760.170361,875.194365 783.88261,902.642008 C786.37871,905.137224 782.634647,910.127744 780.138548,910.127744 C770.154498,912.622961 758.922312,905.137224 751.434187,910.127744 C746.442075,912.622961 757.674262,918.861046 757.674262,925.099217 C757.674262,937.575474 747.690125,948.803992 737.705901,956.289729 C733.961839,958.784945 716.489665,936.327822 715.241615,933.832606 L705.257478,903.889572 C705.257478,898.899139 713.993478,891.41349 709.00154,887.670447 C666.568893,856.479936 730.217777,957.53738 704.009428,966.270682 C691.529192,971.261202 695.273254,930.089737 682.793018,933.832606 C674.057018,936.327822 675.304893,957.53738 666.568893,956.289729 C656.584669,953.794512 661.576781,937.575474 657.832719,928.842086 C656.584669,922.604001 661.576781,938.822952 662.824831,945.061211 C662.824831,951.299208 664.072707,958.784945 664.072707,965.023117 C662.824831,968.765985 661.576781,976.251722 660.328732,973.756418 C656.584669,967.518333 655.33662,960.032597 655.33662,953.794512 C655.33662,950.051557 659.080595,947.55634 659.080595,945.061211 C660.328732,933.832606 665.320844,922.604001 659.080595,913.870612 C656.584669,907.632441 646.600533,911.375309 640.360371,913.870612 C636.616309,915.118177 635.368346,920.108697 635.368346,925.099217 C634.120296,930.089737 637.864358,933.832606 637.864358,938.822952 C637.864358,943.813472 621.64006,922.604001 627.880135,941.318342 C631.624284,955.042077 650.344595,945.061211 624.136072,977.499287 C592.935612,1016.17562 626.632172,952.54686 609.159824,933.832606 C592.935612,917.613481 580.455463,957.53738 581.703425,962.527813 C582.951475,971.261202 599.175774,977.499287 596.679674,986.232675 C594.183662,997.461193 570.471239,1003.69936 565.479127,993.718325 C562.983114,989.975456 566.727177,982.489807 562.983114,979.99459 C541.766878,961.280249 525.54258,984.984936 506.822356,965.023117 C504.326169,963.775465 504.326169,960.032597 503.078119,957.53738 C499.334057,950.051557 499.334057,938.822952 491.84602,933.832606 C489.350007,931.337302 484.357895,938.822952 485.605945,942.56582 C486.853995,951.299208 495.589995,956.289729 498.086181,965.023117 C501.830244,976.251722 489.350007,987.480327 488.101958,998.708845 C486.853995,1009.93745 500.582194,1018.67084 498.086181,1028.65179 C491.84602,1049.86144 474.373758,972.508854 471.877659,970.01355 C465.637584,962.527813 473.125709,992.470847 473.125709,994.966063 C473.125709,999.956583 466.885634,1004.94693 468.133597,1009.93745 C470.629696,1018.67084 479.36587,1024.90892 483.109933,1033.64231 C485.605945,1043.62318 431.941112,1058.59474 425.70095,1059.8423 C424.452987,1061.08995 428.197049,1062.33761 429.445012,1063.58517 C438.181186,1068.57569 453.157348,1068.57569 454.405398,1077.30908 C456.90141,1084.79482 443.173298,1088.53768 435.685174,1089.78534 C404.484626,1097.27107 399.492514,1092.28055 388.260415,1064.83282 C387.012365,1062.33761 393.252527,1064.83282 394.500403,1067.32804 C395.748539,1073.56621 390.75634,1081.05195 393.252527,1087.29003 C398.244465,1094.77568 409.476651,1097.27107 414.468763,1104.75681 C416.964863,1108.49959 400.740651,1110.99481 383.268303,1113.49011 C373.284166,1114.73767 362.05198,1071.07091 357.059868,1072.31856 C328.35542,1079.8043 375.780179,1099.76629 378.276191,1110.99481 C379.524241,1117.23298 369.540104,1119.7282 365.796042,1122.22341 C358.307917,1127.21393 350.81988,1137.19488 342.083706,1134.69967 C299.650972,1120.97585 385.764403,1097.27107 315.875183,1094.77568 C270.946524,1093.5282 352.067756,1169.63305 320.867295,1157.15679 C305.891047,1150.91879 284.674636,1099.76629 272.194574,1097.27107 C264.706449,1096.02342 278.434648,1110.99481 282.178711,1117.23298 C290.914885,1130.9568 304.642997,1142.1854 310.883158,1158.40444 C310.883158,1160.89966 307.139096,1157.15679 304.642997,1157.15679 C295.906997,1158.40444 285.922686,1165.89018 275.938636,1163.39496 C275.938636,1163.39496 258.466288,1128.46158 258.466288,1127.21393 C255.970275,1125.96628 249.730114,1129.70915 250.978163,1132.20445 C258.466288,1150.91879 277.186599,1160.89966 275.938636,1184.60452 C275.938636,1187.09982 269.698474,1180.86165 267.202462,1178.36644 C263.4584,1173.37592 239.745977,1134.69967 240.994114,1137.19488 C243.490039,1144.68071 275.938636,1194.58556 267.202462,1194.58556 C260.962387,1195.83313 254.722225,1195.83313 249.730114,1192.09026 C242.241989,1188.34739 237.250051,1164.64253 234.753865,1172.12835 C231.009803,1182.1093 240.994114,1192.09026 247.234101,1198.32843 C252.226213,1202.0713 264.706449,1194.58556 264.706449,1199.57591 C260.962387,1227.02364 226.017865,1195.83313 226.017865,1195.83313 C203.553404,1175.87122 192.321218,1148.42358 181.089031,1123.47106 C179.840981,1120.97585 181.089031,1128.46158 179.840981,1129.70915 C178.593106,1130.9568 178.593106,1127.21393 177.345056,1127.21393 C167.360919,1127.21393 186.08123,1144.68071 187.329106,1154.66166 C187.329106,1159.65218 181.089031,1162.14731 178.593106,1167.13783 C177.345056,1170.8807 186.08123,1159.65218 189.825205,1162.14731 C191.073168,1162.14731 204.801454,1188.34739 204.801454,1194.58556 C206.049504,1205.81417 183.585044,1194.58556 172.352944,1197.08078 C167.360919,1197.08078 182.337168,1198.32843 187.329106,1200.82365 C194.817317,1203.31895 201.057392,1207.06182 208.545516,1209.55703 C212.289579,1212.05216 197.31333,1199.57591 193.569268,1203.31895 C179.840981,1228.27129 214.785591,1237.00468 176.096919,1249.48093 C157.376695,1255.71902 158.624745,1213.29982 157.376695,1208.3093 C156.128646,1207.06182 152.384583,1212.05216 151.136621,1210.80469 C141.152397,1205.81417 141.152397,1190.84269 133.664272,1183.35696 C131.16826,1180.86165 126.176148,1182.1093 126.176148,1179.61409 C127.424285,1167.13783 152.384583,1169.63305 156.128646,1158.40444 C157.376695,1153.41392 146.144509,1152.16645 141.152397,1154.66166 C136.160459,1155.90931 136.160459,1165.89018 131.16826,1168.3854 C128.67216,1169.63305 128.67216,1162.14731 126.176148,1163.39496 C121.184036,1164.64253 126.176148,1178.36644 116.192098,1172.12835 C112.448036,1170.8807 112.448036,1164.64253 108.703974,1164.64253 C98.7197499,1165.89018 89.9835757,1179.61409 81.2475757,1175.87122 C73.7594513,1173.37592 89.9835757,1164.64253 91.2316255,1158.40444 C92.4796752,1152.16645 91.2316255,1144.68071 87.4875633,1139.69019 C81.2475757,1134.69967 68.7673394,1140.93784 63.7752274,1134.69967 C52.5430408,1125.96628 73.7594513,1119.7282 75.0073269,1118.48054 C77.5035135,1117.23298 93.7276379,1117.23298 106.207874,1115.98533 C114.944048,1114.73767 121.184036,1109.74715 126.176148,1104.75681 C128.67216,1102.26142 118.688111,1099.76629 121.184036,1098.51855 C132.416397,1093.5282 162.368807,1099.76629 171.104981,1086.04247 C173.600994,1081.05195 158.624745,1082.2996 152.384583,1083.54716 C138.656384,1084.79482 91.2316255,1101.01394 102.463812,1081.05195 C107.455924,1069.82334 126.176148,1076.06143 137.408335,1071.07091 C152.384583,1063.58517 137.408335,1047.36622 131.16826,1044.87083 C127.424285,1043.62318 126.176148,1052.35657 122.432173,1052.35657 C111.199986,1056.09943 101.215849,1061.08995 88.735613,1062.33761 C65.0232772,1064.83282 113.695999,1048.6137 109.951936,1038.63283 C104.959912,1028.65179 89.9835757,1031.14709 82.4954513,1023.66136 C67.5192896,1009.93745 102.463812,1033.64231 117.440061,1034.88996 C121.184036,1034.88996 108.703974,1032.39466 106.207874,1029.89944 C103.711862,1026.15657 99.9677996,1018.67084 103.711862,1018.67084 C111.199986,1017.42319 118.688111,1024.90892 126.176148,1026.15657 C127.424285,1027.40423 124.928098,1023.66136 126.176148,1022.41371 C133.664272,1022.41371 142.400447,1022.41371 149.888571,1023.66136 C153.632633,1024.90892 156.128646,1033.64231 159.872708,1031.14709 C193.569268,1002.45171 121.184036,1019.91849 119.93616,1019.91849 C111.199986,1018.67084 93.7276379,991.223195 93.7276379,989.975456 C92.4796752,984.984936 124.928098,987.480327 132.416397,991.223195 C177.345056,1016.17562 147.392558,997.461193 198.56138,998.708845 C206.049504,998.708845 178.593106,1009.93745 176.096919,1003.69936 C172.352944,993.718325 193.569268,984.984936 188.577156,975.00407 C186.08123,967.518333 179.840981,989.975456 172.352944,994.966063 C158.624745,1003.69936 133.664272,989.975456 121.184036,983.737458 C118.688111,981.242155 121.184036,973.756418 124.928098,973.756418 C167.360919,965.023117 122.432173,989.975456 169.856932,982.489807 C172.352944,982.489807 167.360919,976.251722 168.608882,973.756418 C172.352944,965.023117 188.577156,958.784945 184.833093,950.051557 C182.337168,940.070604 167.360919,935.080083 158.624745,940.070604 C152.384583,945.061211 164.86482,957.53738 162.368807,965.023117 C159.872708,970.01355 152.384583,973.756418 148.640521,971.261202 C139.904434,966.270682 138.656384,950.051557 128.67216,948.803992 C122.432173,947.55634 122.432173,971.261202 117.440061,966.270682 C112.448036,960.032597 123.680223,950.051557 123.680223,942.56582 C124.928098,940.070604 121.184036,948.803992 118.688111,948.803992 C116.192098,948.803992 118.688111,941.318342 116.192098,942.56582 C113.695999,943.813472 116.192098,952.54686 112.448036,951.299208 C109.951936,948.803992 113.695999,941.318342 109.951936,940.070604 C72.5114016,915.118177 88.735613,933.832606 66.2711528,947.55634 C63.7752274,948.803992 61.279215,945.061211 62.5271776,942.56582 C62.5271776,941.318342 66.2711528,942.56582 67.5192896,941.318342 C73.7594513,933.832606 83.7435011,926.346869 81.2475757,917.613481 C78.7513891,910.127744 65.0232772,917.613481 58.7831154,912.622961 C57.5351528,911.375309 67.5192896,867.708628 36.3187422,881.43245 C27.5825681,885.175231 42.5589039,901.394356 38.8148417,910.127744 C36.3187422,915.118177 31.3266303,902.642008 28.8306178,897.651487 C20.0944437,885.175231 6.3663317,876.441929 0.126169976,862.718108 C-1.1217927,858.97524 7.61438146,860.222892 10.1103939,861.470456 C25.0865556,862.718108 36.3187422,878.937233 51.294991,875.194365 C58.7831154,873.946713 13.8544561,844.003767 16.3503815,832.775249 C17.5985183,827.784729 23.8385059,837.765595 26.3346054,840.260985 C33.8227298,847.746635 37.566792,860.222892 47.5509288,861.470456 C55.0390532,863.96576 72.5114016,858.97524 70.0153891,850.241851 C67.5192896,841.508463 51.294991,846.498983 42.5589039,842.756115 C40.0628044,841.508463 42.5589039,837.765595 45.0549164,836.518117 C55.0390532,830.279858 73.7594513,836.518117 78.7513891,820.298992 C84.9915508,795.346479 36.3187422,769.146487 36.3187422,749.184494 C38.8148417,720.489147 144.896459,851.489503 96.2237374,770.394139 C82.4954513,747.936842 30.0786676,770.394139 46.3029661,717.993948 C46.3029661,715.498749 51.294991,720.489147 53.7910906,719.241609 C55.0390532,719.241609 53.7910906,715.498749 55.0390532,715.498749 C60.0311652,722.984477 62.5271776,731.717717 67.5192896,737.955889 C73.7594513,744.193974 81.2475757,749.184494 89.9835757,752.927362 C92.4796752,752.927362 89.9835757,746.689278 87.4875633,745.441626 C81.2475757,737.955889 70.0153891,735.46076 66.2711528,726.727337 C53.7910906,691.793922 122.432173,706.765369 127.424285,704.27017 C133.664272,703.02251 118.688111,694.289121 112.448036,693.041461 C97.4717001,693.041461 83.7435011,705.517709 70.0153891,703.02251 C66.2711528,703.02251 68.7673394,694.289121 72.5114016,691.793922 C78.7513891,688.051063 93.7276379,695.536782 97.4717001,688.051063 C99.9677996,681.812882 81.2475757,690.546262 75.0073269,686.803402 C72.5114016,685.555742 93.7276379,670.584295 102.463812,675.574823 C121.184036,686.803402 142.400447,708.01303 143.648496,665.593775 C143.648496,663.098575 138.656384,663.098575 136.160459,664.346236 C127.424285,666.841435 121.184036,675.574823 113.695999,676.822484 C111.199986,676.822484 82.4954513,655.612856 88.735613,648.127137 C103.711862,629.41283 123.680223,683.060543 141.152397,643.136608 C142.400447,640.641409 118.688111,621.927111 112.448036,609.450863 C111.199986,606.955542 132.416397,614.441383 126.176148,594.479425 C124.928098,590.736556 114.944048,600.717483 113.695999,596.974624 C111.199986,589.488896 116.192098,582.003177 117.440061,574.517458 C129.92021,530.850664 194.817317,552.060291 226.017865,535.841184 C228.513877,534.593523 226.017865,528.355465 223.521765,528.355465 C202.305442,518.374416 184.833093,523.364944 161.120758,523.364944 C159.872708,523.364944 166.112869,523.364944 167.360919,522.117284 C168.608882,520.869745 167.360919,517.126886 169.856932,515.879217 C173.600994,513.383896 179.840981,512.136357 184.833093,512.136357 C189.825205,510.888696 204.801454,518.374416 202.305442,513.383896 C198.56138,503.402977 179.840981,507.145837 177.345056,497.164919 C171.104981,467.221902 214.785591,482.19335 219.777703,479.69815 C228.513877,474.70763 229.761927,460.983844 238.497927,455.993324 C242.241989,454.745785 243.490039,464.726703 248.482151,464.726703 C250.978163,465.974373 248.482151,459.736183 245.986051,457.240984 C242.241989,453.498125 237.250051,453.498125 233.505989,449.755265 C228.513877,444.764745 204.801454,421.059918 209.793566,416.069389 C211.041529,413.57419 216.033641,414.821859 217.281691,412.32653 C218.529653,411.078991 212.289579,408.58367 214.785591,407.336131 C224.769815,397.355091 268.450512,444.764745 274.690586,424.802778 C285.922686,393.612232 207.297467,421.059918 219.777703,386.126504 C221.025753,381.135984 232.257939,388.621703 236.001914,384.878843 C242.241989,376.145585 237.250051,359.926478 247.234101,356.183618 C253.474176,352.440759 257.218325,367.412206 263.4584,369.907405 C273.442536,373.650265 284.674636,373.650265 294.65886,373.650265 C294.65886,373.650265 253.474176,359.926478 254.722225,357.431157 C262.21035,351.193098 275.938636,353.688297 280.930574,344.95504 C284.674636,338.71685 274.690586,331.231131 275.938636,323.745412 C277.186599,321.250213 283.42676,322.497751 284.674636,324.993072 C287.170823,331.231131 283.42676,338.71685 287.170823,344.95504 C289.666748,347.450239 288.418872,334.973991 290.914885,336.221651 C300.898935,337.46932 310.883158,354.935958 318.371283,359.926478 C323.363395,362.421677 332.099482,359.926478 335.843457,364.917007 C339.587519,368.659866 335.843457,376.145585 339.587519,379.888445 C344.579631,384.878843 353.315805,383.631305 359.55588,387.374164 C362.05198,388.621703 362.05198,396.107553 365.796042,396.107553 C368.292054,394.859892 367.044004,388.621703 365.796042,386.126504 C359.55588,378.640785 339.587519,378.640785 343.331581,368.659866 C345.827768,359.926478 367.044004,371.155065 372.036116,362.421677 C377.028228,354.935958 355.811818,363.669346 347.075644,361.174147 C335.843457,358.678817 323.363395,352.440759 313.379171,347.450239 C293.41081,336.221651 278.434648,298.793046 294.65886,300.040585 C329.603469,302.535906 293.41081,346.202578 330.851519,343.707379 C338.339644,342.459719 360.80393,313.764494 373.284166,333.726452 C377.028228,341.21218 374.532129,351.193098 377.028228,358.678817 C378.276191,361.174147 384.516353,366.164545 384.516353,363.669346 C384.516353,354.935958 362.05198,296.297725 395.748539,307.526304 C403.236577,310.021634 411.972751,311.269164 416.964863,317.507353 C431.941112,336.221651 400.740651,347.450239 398.244465,363.669346 C396.996589,363.669346 396.996589,411.078991 401.988527,407.336131 C415.716813,399.850412 404.484626,372.402726 409.476651,359.926478 C420.708925,331.231131 443.173298,363.669346 456.90141,329.983592 C464.389535,311.269164 429.445012,337.46932 420.708925,308.773965 C415.716813,290.059667 470.629696,267.6025 475.621808,257.621452 C478.117821,251.383393 473.125709,240.154814 465.637584,240.154814 C459.39751,240.154814 459.39751,252.630931 454.405398,257.621452 C449.413286,261.364311 439.429236,262.61198 438.181186,268.850039 C438.181186,272.592899 446.91736,272.592899 445.669311,276.335758 C443.173298,290.059667 428.197049,297.545386 415.716813,306.278766 C414.468763,307.526304 411.972751,306.278766 410.724701,305.031105 C410.724701,302.535906 416.964863,301.288246 415.716813,300.040585 C409.476651,297.545386 403.236577,300.040585 396.996589,298.793046 C390.75634,297.545386 378.276191,298.793046 378.276191,291.307205 C377.028228,282.573939 400.740651,280.078618 395.748539,272.592899 C393.252527,268.850039 300.898935,305.031105 288.418872,285.069138 C285.922686,281.326278 313.379171,265.107179 314.627221,263.85951 C325.859407,250.135732 345.827768,226.430906 377.028228,230.173765 C384.516353,231.421426 390.75634,233.916625 396.996589,238.907154 C398.244465,240.154814 392.004477,246.392873 394.500403,246.392873 C406.980639,250.135732 440.677112,247.640533 430.693062,242.650013 C428.197049,242.650013 425.70095,243.897674 424.452987,243.897674 C413.220801,241.402353 398.244465,243.897674 394.500403,235.164294 C390.75634,228.926105 418.212825,223.935706 411.972751,221.440385 C403.236577,217.697526 396.996589,232.668964 389.508465,232.668964 C378.276191,233.916625 355.811818,222.688046 362.05198,213.954666 C369.540104,205.221278 384.516353,211.459467 394.500403,206.468938 C398.244465,205.221278 390.75634,200.23088 392.004477,196.48802 C392.004477,193.992699 396.996589,193.992699 398.244465,191.4975 C400.740651,189.002301 395.748539,182.764112 399.492514,181.516582 C403.236577,180.268912 405.732589,187.75464 410.724701,189.002301 C414.468763,190.24984 409.476651,179.021252 413.220801,177.773713 C421.956888,174.030854 439.429236,184.011781 441.925248,174.030854 C445.669311,152.821217 373.284166,192.74516 420.708925,142.840247 C429.445012,135.35451 458.14946,157.811711 465.637584,159.059328 C479.36587,161.554571 493.094069,150.325983 506.822356,154.068843 C524.29453,159.059328 552.999065,192.74516 550.502965,212.707128 C549.255003,228.926105 530.534604,198.983219 541.766878,200.23088 C544.262891,201.478418 544.262891,206.468938 546.758903,206.468938 C548.006953,207.716599 541.766878,174.030854 536.774766,167.792682 C530.534604,160.306954 500.582194,145.335498 490.598057,146.583106 C485.605945,146.583106 481.861883,155.316469 476.869771,155.316469 C470.629696,155.316469 465.637584,147.830732 460.645472,146.583106 C451.909472,144.087873 440.677112,145.335498 433.189074,140.344996 C425.70095,136.602136 446.91736,134.106885 453.157348,130.364025 C458.14946,127.868774 493.094069,102.916339 484.357895,90.4401167 C479.36587,82.9543975 468.133597,99.173479 460.645472,95.4306194 C450.661423,90.4401167 445.669311,62.9924478 456.90141,62.9924478 C463.141572,62.9924478 468.133597,67.982933 474.373758,70.4781757 C484.357895,72.9734183 496.838132,69.2305587 503.078119,76.7162866 C509.318281,85.4496315 499.334057,97.9258533 503.078119,107.906841 C503.078119,107.906841 519.302418,105.41159 538.022816,109.15445 C544.262891,110.402075 559.239052,120.383054 555.495077,115.39256 C549.255003,106.659216 539.270779,101.66873 530.534604,97.9258533 C524.29453,96.6782277 514.310393,105.41159 511.814293,100.421105 C506.822356,92.9353681 520.550468,84.2020145 518.054455,75.4686609 C515.558356,64.2400734 451.909472,81.7067719 481.861883,29.3066504 C484.357895,26.8114165 489.350007,25.5637908 493.094069,26.8114165 C510.566418,28.0590248 524.29453,39.2876297 540.518828,41.7828723 C545.51094,43.0304893 550.502965,39.2876297 555.495077,39.2876297 C565.479127,40.5352467 575.463351,41.7828723 584.199525,45.5257406 C591.687649,49.2686002 596.679674,58.0019625 604.167886,61.7448221 C606.663898,62.9924478 605.415848,56.7543368 606.663898,55.5067112 C612.903886,51.7638516 620.39201,49.2686002 627.880135,50.5162259 C637.864358,51.7638516 642.85647,66.7353074 652.840607,67.982933 C662.824831,67.982933 671.560831,60.4971964 680.297005,61.7448221 C684.041068,62.9924478 680.297005,70.4781757 684.041068,72.9734183 C686.53708,74.221044 689.03318,64.2400734 690.281142,66.7353074 C711.497553,110.402075 664.072707,69.2305587 711.497553,111.649701 C712.745603,112.897327 711.497553,107.906841 710.249503,105.41159 C704.009428,94.1829937 681.545055,75.4686609 702.761379,70.4781757 C730.217777,62.9924478 733.961839,129.116399 743.946063,112.897327 C747.690125,106.659216 717.73754,67.982933 710.249503,65.4876817 C689.03318,56.7543368 651.592558,45.5257406 627.880135,44.278115 C619.144047,44.278115 611.65601,50.5162259 604.167886,49.2686002 C587.943587,48.0209746 575.463351,36.7923871 560.487189,35.5447614 C556.743127,34.2971357 495.589995,36.7923871 498.086181,18.0780542 C504.326169,-18.102977 525.54258,15.5828029 536.774766,20.5733056 C540.518828,21.8209138 533.030704,13.087569 530.534604,10.5923176 C526.790542,6.84945804 520.550468,4.3542067 516.806405,0.611347098 L569.223363,0.611347098 C572.967338,1.85897277 577.959363,1.85897277 581.703425,5.60183237 C586.695537,11.8399433 586.695537,23.0685395 591.687649,31.8019018 C592.935612,33.0495187 597.927724,34.2971357 597.927724,31.8019018 C599.175774,23.0685395 589.19155,11.8399433 580.455463,0.611347098 L605.415848,0.611347098 C614.151936,14.3351946 625.384122,23.0685395 644.104433,14.3351946 C655.33662,8.09708371 661.576781,4.3542067 664.072707,0.611347098 L731.465826,0.611347098 C730.217777,9.34469196 727.721764,18.0780542 722.729652,29.3066504 C713.993478,49.2686002 726.473714,36.7923871 743.946063,54.2590855 C750.186137,60.4971964 760.170361,81.7067719 760.170361,72.9734183 C761.418324,50.5162259 727.721764,53.0114598 722.729652,39.2876297 C721.481603,36.7923871 735.209889,8.09708371 738.953951,0.611347098 L746.442075,0.611347098 C755.178249,5.60183237 766.410436,18.0780542 762.666374,11.8399433 C758.922312,6.84945804 752.68215,4.3542067 746.442075,0.611347098 L792.618784,0.611347098 L792.618784,5.60183237 C792.618784,13.087569 786.37871,20.5733056 787.626759,28.0590248 C788.874722,36.7923871 810.091133,84.2020145 813.835195,56.7543368 C813.835195,55.5067112 773.898473,28.0590248 797.610896,8.09708371 C802.603008,3.10658973 807.595033,14.3351946 813.835195,16.8304286 C821.323319,19.3256799 830.059493,20.5733056 836.299481,24.3161652 C840.043543,26.8114165 841.291593,38.040004 843.787605,34.2971357 C851.27573,24.3161652 823.819245,19.3256799 812.587145,14.3351946 C802.603008,9.34469196 798.858946,5.60183237 796.362847,0.611347098 L838.795493,0.611347098 C845.035655,8.09708371 851.27573,20.5733056 850.027767,14.3351946 C850.027767,10.5923176 848.779717,5.60183237 846.283618,0.611347098 L857.515892,0.611347098 C860.011904,4.3542067 863.755966,6.84945804 868.748078,10.5923176 C871.244091,11.8399433 863.755966,5.60183237 862.507916,1.85897277 C862.507916,1.85897277 862.507916,1.85897277 862.507916,0.611347098 L2768.23436,0.611347098 L2768.23436,0.611347098 Z" id="gl" fill="#87B024"></path>
                        <path d="M1854.19814,1727.8054 C1850.45408,1726.55784 1770.58081,1687.88141 1766.83674,1685.38628 C1761.84472,1681.64342 1778.06884,1676.6529 1781.81291,1671.66246 C1785.55697,1665.42429 1781.81291,1646.70995 1788.05307,1649.20517 C1798.0372,1652.94803 1791.79713,1669.16716 1798.0372,1676.6529 C1799.28525,1679.1482 1800.5333,1670.41481 1804.27737,1670.41481 C1814.2615,1669.16716 1825.49369,1677.90055 1834.22986,1674.15768 C1872.91845,1659.18621 1821.74963,1645.4623 1869.17439,1641.71943 C1877.91056,1641.71943 1886.64673,1647.9576 1895.38273,1649.20517 C1901.6229,1650.45282 1885.39868,1640.47195 1880.40657,1637.97656 L1872.91845,1637.97656 C1862.93431,1636.72908 1852.95009,1639.22421 1844.21391,1635.48143 C1837.97384,1631.73856 1859.19025,1637.97656 1864.18227,1632.98622 C1866.67837,1630.49091 1854.19814,1629.24317 1855.44619,1625.50039 C1855.44619,1619.26231 1860.43821,1614.27179 1866.67837,1611.77657 C1870.42244,1610.52892 1876.66251,1614.27179 1881.65462,1614.27179 C1890.3908,1613.02422 1900.37485,1611.77657 1907.86297,1605.53849 C1911.60703,1603.04318 1897.87883,1604.29083 1894.13486,1601.79562 C1890.3908,1600.54797 1859.19025,1615.51944 1850.45408,1614.27179 C1844.21391,1613.02422 1854.19814,1600.54797 1855.44619,1594.30979 C1855.44619,1586.82406 1850.45408,1580.58606 1851.70204,1573.10032 C1852.95009,1565.61459 1866.67837,1560.62407 1864.18227,1551.89068 C1862.93431,1546.90024 1851.70204,1554.38598 1846.71001,1551.89068 C1842.96595,1550.64311 1844.21391,1540.66207 1840.46985,1543.15738 C1839.22198,1544.40494 1844.21391,1550.64311 1841.7179,1549.39546 C1831.73385,1544.40494 1821.74963,1528.18582 1813.01345,1521.94782 C1811.76549,1519.4526 1808.02143,1520.70017 1805.52533,1520.70017 C1803.02932,1520.70017 1800.5333,1524.44295 1799.28525,1523.19547 C1796.78924,1521.94782 1798.0372,1515.70973 1794.29314,1514.46208 C1789.30103,1511.96686 1720.66004,1511.96686 1770.58081,1488.262 C1784.30909,1482.02383 1781.81291,1494.50009 1794.29314,1501.98582 C1805.52533,1508.224 1822.99768,1492.00487 1834.22986,1498.24296 C1839.22198,1500.73817 1825.49369,1510.71921 1830.4858,1514.46208 C1834.22986,1518.20495 1836.72579,1506.97634 1841.7179,1505.72869 C1850.45408,1503.23348 1860.43821,1498.24296 1867.92634,1503.23348 C1872.91845,1508.224 1865.43032,1518.20495 1866.67837,1524.44295 C1866.67837,1528.18582 1866.67837,1518.20495 1867.92634,1516.9573 C1874.1665,1509.47156 1967.76797,1570.60511 1935.31946,1516.9573 C1930.32734,1509.47156 1917.84719,1523.19547 1907.86297,1521.94782 C1896.63078,1520.70017 1887.89461,1506.97634 1882.9025,1496.9953 C1882.9025,1496.9953 1884.15064,1495.74774 1885.39868,1494.50009 C1899.1268,1484.51913 1921.59126,1482.02383 1936.56751,1480.77635 C1944.05563,1480.77635 1952.79172,1488.262 1957.78374,1482.02383 C1967.76797,1473.29044 1920.34321,1477.03349 1921.59126,1463.30958 C1922.83922,1454.57619 1946.55156,1458.31906 1946.55156,1448.3381 C1945.30351,1389.69986 1902.87086,1454.57619 1900.37485,1443.34758 C1899.1268,1435.86185 1905.36696,1428.37611 1902.87086,1422.13811 C1901.6229,1419.64272 1897.87883,1427.12846 1895.38273,1427.12846 C1892.88672,1427.12846 1897.87883,1420.89046 1895.38273,1420.89046 C1886.64673,1423.38559 1886.64673,1438.35706 1880.40657,1422.13811 C1879.15844,1420.89046 1881.65462,1415.89994 1880.40657,1415.89994 C1875.41446,1419.64272 1875.41446,1428.37611 1869.17439,1429.62376 C1865.43032,1429.62376 1866.67837,1420.89046 1862.93431,1419.64272 C1855.44619,1417.14759 1820.50158,1434.6142 1819.25361,1414.65238 C1819.25361,1410.90933 1825.49369,1410.90933 1825.49369,1407.16655 C1821.74963,1395.93795 1791.79713,1397.1856 1794.29314,1384.70934 C1804.27737,1332.30927 1834.22986,1407.16655 1840.46985,1403.42368 C1857.9422,1392.19508 1820.50158,1356.01413 1845.46196,1356.01413 C1867.92634,1354.76648 1852.95009,1439.60472 1881.65462,1400.92847 C1885.39868,1395.93795 1866.67837,1389.69986 1871.6704,1385.95699 C1876.66251,1379.71882 1890.3908,1393.44273 1896.63078,1387.20465 C1900.37485,1380.96647 1880.40657,1387.20465 1875.41446,1382.21413 C1867.92634,1374.72839 1865.43032,1363.49987 1864.18227,1353.51883 C1859.19025,1311.09972 1887.89461,1392.19508 1899.1268,1379.71882 C1902.87086,1375.97595 1860.43821,1342.29023 1879.15844,1333.55684 C1887.89461,1329.81397 1894.13486,1353.51883 1902.87086,1349.77596 C1907.86297,1346.03309 1879.15844,1306.10911 1915.3511,1318.58536 C1945.30351,1329.81397 1911.60703,1382.21413 1945.30351,1403.42368 C1945.30351,1404.67134 1966.51992,1394.69038 1967.76797,1369.73787 C1967.76797,1364.74735 1960.27984,1367.24274 1957.78374,1363.49987 C1954.03968,1359.757 1940.31157,1336.05214 1945.30351,1328.5664 C1954.03968,1318.58536 1971.51203,1337.29971 1983.99226,1343.53788 C1987.73633,1344.78544 1972.75999,1341.04257 1972.75999,1337.29971 C1971.51203,1333.55684 1979.00015,1334.80449 1981.49617,1333.55684 C1982.74421,1332.30927 1982.74421,1329.81397 1981.49617,1329.81397 C1965.27187,1331.06162 1966.51992,1356.01413 1947.79961,1314.8425 C1931.57539,1278.66147 1966.51992,1306.10911 1967.76797,1306.10911 C1967.76797,1306.10911 1969.01593,1304.86163 1969.01593,1303.61398 C1969.01593,1301.11876 1966.51992,1296.12824 1969.01593,1297.37589 C1972.75999,1301.11876 1972.75999,1308.6045 1977.7521,1312.34737 C1982.74421,1316.09024 1991.48039,1314.8425 1996.47233,1318.58536 C2008.95256,1328.5664 1990.23234,1341.04257 1991.48039,1347.28075 C1991.48039,1349.77596 1997.72038,1347.28075 2000.21639,1348.52831 C2001.46444,1349.77596 2010.20061,1357.2617 2007.70451,1362.25222 C2005.2085,1363.49987 1998.96851,1362.25222 2000.21639,1364.74735 C2002.71249,1369.73787 2012.69663,1368.49022 2012.69663,1374.72839 C2013.94468,1383.46178 2001.46444,1392.19508 2003.96045,1400.92847 C2006.45655,1408.4142 2025.17686,1403.42368 2023.92881,1410.90933 C2023.92881,1418.39524 2005.2085,1405.91899 2002.71249,1412.15707 C2001.46444,1418.39524 2058.87333,1443.34758 2001.46444,1452.08097 C1991.48039,1454.57619 1987.73633,1437.1095 1977.7521,1433.36663 C1974.00804,1432.11898 1979.00015,1440.85237 1981.49617,1444.59524 C1983.99226,1454.57619 1995.22445,1463.30958 1992.72826,1472.04297 C1990.23234,1482.02383 1971.51203,1482.02383 1970.26398,1492.00487 C1967.76797,1498.24296 1985.24023,1494.50009 1986.48828,1500.73817 C1988.98429,1506.97634 1979.00015,1513.21443 1976.50405,1519.4526 C1974.00804,1526.93834 1965.27187,1541.90972 1972.75999,1543.15738 C1998.96851,1548.14781 1997.72038,1495.74774 2013.94468,1487.01435 C2065.1135,1459.56671 2030.16897,1494.50009 2028.92092,1499.49061 C2021.4328,1530.68121 2058.87333,1496.9953 2061.36943,1494.50009 C2077.59373,1477.03349 2071.35357,1427.12846 2083.83381,1428.37611 C2127.5145,1432.11898 2088.82592,1487.01435 2113.78622,1506.97634 C2133.75458,1524.44295 2122.52239,1484.51913 2127.5145,1474.53809 C2128.76247,1468.3001 2133.75458,1460.81436 2139.99474,1458.31906 C2143.7388,1457.07149 2148.73083,1459.56671 2153.72294,1462.06192 C2154.97099,1463.30958 2154.97099,1467.05245 2156.21886,1467.05245 C2166.20309,1464.55723 2176.18723,1450.83332 2184.9234,1455.82384 C2193.65957,1459.56671 2192.41152,1473.29044 2193.65957,1483.27148 C2193.65957,1489.50957 2186.17145,1493.25244 2187.41941,1499.49061 C2193.65957,1530.68121 2208.63582,1477.03349 2199.89965,1523.19547 C2196.15559,1549.39546 2187.41941,1535.67155 2193.65957,1559.37641 C2203.64371,1601.79562 2203.64371,1478.28096 2216.12386,1475.78583 C2248.57246,1467.05245 2241.08433,1520.70017 2243.58035,1533.17634 C2243.58035,1535.67155 2243.58035,1526.93834 2246.07636,1525.69069 C2247.32441,1524.44295 2252.31652,1525.69069 2251.06847,1524.44295 C2243.58035,1508.224 2253.56448,1531.92868 2253.56448,1531.92868 C2254.81253,1531.92868 2254.81253,1528.18582 2256.06058,1526.93834 C2262.30057,1516.9573 2274.78081,1499.49061 2288.509,1498.24296 C2302.23729,1496.9953 2300.98924,1525.69069 2312.22134,1533.17634 C2317.21345,1535.67155 2309.72541,1521.94782 2313.46948,1518.20495 C2320.95751,1509.47156 2325.94963,1529.43347 2325.94963,1529.43347 C2327.19776,1531.92868 2324.70158,1523.19547 2325.94963,1520.70017 C2328.44564,1516.9573 2334.6858,1514.46208 2335.93376,1509.47156 C2338.42986,1504.48104 2335.93376,1498.24296 2335.93376,1492.00487 C2337.18181,1484.51913 2335.93376,1474.53809 2342.17393,1470.79531 C2350.91001,1467.05245 2359.64619,1473.29044 2368.38236,1475.78583 C2390.84665,1480.77635 2372.12642,1490.75722 2374.62235,1499.49061 C2377.11853,1504.48104 2384.60657,1503.23348 2387.10258,1506.97634 C2395.83876,1525.69069 2349.66205,1530.68121 2390.84665,1553.13833 C2395.83876,1555.63355 2395.83876,1541.90972 2400.83087,1539.41459 C2405.8229,1536.9192 2412.06306,1541.90972 2417.05517,1539.41459 C2428.28736,1535.67155 2440.76742,1508.224 2456.99172,1538.16686 C2459.48782,1543.15738 2445.75953,1540.66207 2439.51946,1541.90972 C2420.79923,1545.65259 2413.31102,1543.15738 2400.83087,1563.11928 C2399.58282,1565.61459 2407.07095,1565.61459 2407.07095,1568.1098 C2408.31899,1571.85267 2400.83087,1574.34797 2403.32688,1575.59554 C2409.56696,1580.58606 2420.79923,1576.84319 2427.03931,1581.83371 C2447.00758,1596.8051 2399.58282,1624.25283 2397.08681,1626.74804 C2394.59071,1627.9957 2402.07883,1623.00517 2405.8229,1624.25283 C2414.55907,1626.74804 2423.29524,1632.98622 2430.78328,1639.22421 C2432.03142,1640.47195 2424.54329,1640.47195 2424.54329,1642.96708 C2424.54329,1646.70995 2430.78328,1650.45282 2430.78328,1654.19569 C2430.78328,1656.6909 2425.79117,1652.94803 2424.54329,1654.19569 C2415.80712,1659.18621 2392.0947,1669.16716 2400.83087,1672.91003 C2412.06306,1676.6529 2422.04711,1649.20517 2430.78328,1656.6909 C2434.52734,1661.68142 2438.27141,1666.67194 2443.26352,1670.41481 C2445.75953,1672.91003 2450.75164,1667.91959 2451.99969,1671.66246 C2458.23977,1682.89107 2464.47984,1704.10054 2449.50359,1714.08158 C2442.01547,1719.07201 2430.78328,1717.82445 2423.29524,1721.56732 C2419.55118,1724.06253 2414.55907,1729.05305 2417.05517,1731.54827 C2420.79923,1735.29114 2485.69616,1742.77679 2434.52734,1772.71982 C2423.29524,1778.9579 2394.59071,1752.75783 2394.59071,1751.51017 C2385.85462,1740.28166 2434.52734,1771.47217 2422.04711,1782.70077 C2415.80712,1787.69129 2405.8229,1770.22452 2399.58282,1775.21504 C2394.59071,1778.9579 2412.06306,1782.70077 2414.55907,1788.93895 C2415.80712,1791.43416 2409.56696,1793.92929 2407.07095,1795.17703 C2395.83876,1800.16755 2380.86251,1813.89128 2372.12642,1805.1579 C2365.88635,1798.9199 2367.13422,1773.96738 2360.89424,1780.20556 C2354.65416,1787.69129 2374.62235,1798.9199 2369.63041,1807.6532 C2365.88635,1815.13894 2349.66205,1806.40555 2343.42189,1812.64363 C2335.93376,1818.8818 2340.92588,1833.85328 2334.6858,1841.33901 C2332.1897,1845.08188 2324.70158,1837.59615 2320.95751,1838.8438 C2312.22134,1841.33901 2307.2294,1852.56753 2298.49323,1853.81527 C2291.0051,1855.06292 2294.74917,1822.62467 2274.78081,1817.63415 C2268.54082,1816.3865 2276.02886,1831.35806 2272.28488,1837.59615 C2271.03674,1840.09136 2266.04463,1835.10093 2263.54871,1837.59615 C2262.30057,1837.59615 2268.54082,1841.33901 2267.29277,1841.33901 C2233.59621,1847.57701 2252.31652,1838.8438 2221.11597,1843.83414 C2204.89176,1846.32953 2191.16347,1860.05327 2174.93926,1866.29144 C2172.44316,1867.53901 2167.45123,1868.78666 2164.95504,1867.53901 C2156.21886,1863.79614 2153.72294,1850.0724 2144.98677,1850.0724 C2137.49864,1851.32005 2139.99474,1867.53901 2133.75458,1870.03431 C2128.76247,1871.28187 2127.5145,1861.30092 2122.52239,1858.80579 C2115.03427,1856.3104 2087.57787,1855.06292 2077.59373,1851.32005 C2060.12138,1846.32953 2058.87333,1876.27239 2055.12927,1880.01526 C2046.39327,1887.501 2000.21639,1882.51057 1991.48039,1878.76761 C1969.01593,1871.28187 1950.29562,1835.10093 1939.06352,1823.87232 C1922.83922,1810.14842 1909.11102,1821.37702 1900.37485,1796.42468 C1899.1268,1790.18651 1892.88672,1782.70077 1895.38273,1776.46269 C1897.87883,1767.7293 1921.59126,1763.98643 1914.10305,1760.24356 C1906.61492,1756.5007 1900.37485,1780.20556 1894.13486,1775.21504 C1886.64673,1768.97695 1902.87086,1755.25304 1897.87883,1746.51965 C1895.38273,1741.52931 1889.14275,1757.74835 1884.15064,1755.25304 C1875.41446,1750.26252 1875.41446,1737.78644 1867.92634,1731.54827 C1864.18227,1727.8054 1859.19025,1729.05305 1854.19814,1727.8054 L1854.19814,1727.8054 Z" id="is" fill="#FFFFFF"></path>
                    </g>
                </g>
            </g>
        </g>
    </g>
</svg>