<?xml version="1.0" encoding="UTF-8" standalone="no"?>
<svg width="418px" height="478px" viewBox="0 0 418 478" version="1.1" xmlns="http://www.w3.org/2000/svg" xmlns:xlink="http://www.w3.org/1999/xlink">
    <!-- Generator: Sketch 3.6 (26304) - http://www.bohemiancoding.com/sketch -->
    <title>it</title>
    <desc>Created with Sketch.</desc>
    <defs></defs>
    <g id="Page-1" stroke="none" stroke-width="1" fill="none" fill-rule="evenodd">
        <g id="Group" transform="translate(-316.000000, -111.000000)" fill="#FFFFFF">
            <path d="M635.192118,513.384483 C630.589583,515.862858 615.365882,552.684247 618.906246,557.640997 C620.322417,559.765311 627.403243,559.765311 625.279,561.181529 C623.508781,562.243686 623.86283,558.703154 622.800708,561.181529 C622.800708,561.889626 622.092611,562.597722 622.44666,563.659879 C623.154757,566.492315 627.403243,567.908532 628.465365,570.740919 C628.819364,571.449015 627.403243,571.094979 626.695146,571.803076 C624.924951,572.865233 623.154757,573.92739 622.092611,575.697668 C621.030489,577.467922 620.676465,579.592236 620.322417,581.362465 C619.968368,583.486779 621.384538,586.319215 620.322417,588.089468 C619.614344,589.151626 618.552222,584.548986 611.825469,584.902997 C604.390593,585.611143 607.576983,588.089468 597.663865,583.486779 C593.415354,581.71655 592.353232,573.92739 587.750722,571.094979 C581.377968,567.200387 575.713336,571.094979 568.632559,568.262544 C567.570438,567.908532 566.508316,567.554472 565.446194,566.846375 C564.030024,565.784169 563.321951,563.305843 561.551732,562.597722 C560.135562,561.535565 558.365368,562.597722 556.595173,561.889626 C549.514371,559.411251 544.557812,552.684247 536.768937,550.559958 C533.582548,549.851861 530.042159,553.038308 526.855795,551.62209 C526.147697,551.268079 517.65075,542.062701 518.004798,540.646483 C518.004798,539.230265 520.129041,538.522169 520.129041,537.460012 C520.483041,536.397879 519.06692,536.043794 519.06692,534.981662 C519.06692,533.565469 519.774993,531.79519 520.837114,530.378973 C521.899211,528.96278 524.023454,528.608719 525.439624,527.192501 C527.209819,525.776308 528.980038,520.465498 530.396183,522.235801 C531.104281,523.297933 532.166403,530.378973 535.352767,530.024937 C547.390128,528.254658 535.352767,519.403365 550.576493,520.111487 C554.470955,520.111487 551.284541,524.36009 553.408833,525.422248 C554.824954,526.130344 556.949197,524.36009 558.719416,525.068187 C559.781538,525.422248 559.427489,527.546562 560.135562,527.900622 C562.25983,529.316815 565.092146,530.733033 567.570438,530.733033 C567.924437,530.733033 576.775458,526.484405 576.775458,526.484405 C579.607799,526.130344 585.626454,528.254658 589.874965,527.192501 C598.725986,525.422248 598.371938,521.881716 602.974448,519.403365 C613.595639,513.738544 605.806764,521.527655 616.07393,520.819583 C623.154757,520.465498 618.198173,516.570955 621.030489,513.738544 C622.092611,512.676362 622.092611,516.925015 623.154757,516.570955 C629.527486,515.154737 629.527486,509.489891 635.192118,513.384483 L635.192118,513.384483 Z M401.525527,382.739256 C402.587648,387.695956 418.165423,386.633799 416.041204,394.42296 C415.687131,396.547274 409.66845,395.839177 410.376548,398.317552 C411.084621,400.795927 416.041204,400.087781 417.811374,402.212095 C418.519447,402.920217 416.041204,403.274253 416.041204,404.33641 C418.165423,417.082295 421.351787,399.025624 422.05986,416.020163 C422.413909,422.03902 416.041204,424.163334 414.270961,429.120084 C412.500791,433.722749 417.811374,433.722749 418.519447,437.617316 C418.519447,439.033534 416.749252,440.449752 416.749252,442.220006 C415.687131,453.903734 417.103301,470.190127 410.376548,481.87383 C410.022499,482.581951 410.376548,480.811673 409.66845,480.457637 C404.711891,478.687359 398.339187,473.730659 392.320482,474.08467 C391.25836,474.08467 394.798773,475.500912 394.798773,476.563045 C394.444725,477.979262 392.67453,478.687359 392.320482,480.457637 C390.196238,488.600834 395.860895,487.184641 385.947752,491.78728 C372.140172,498.160248 380.637169,485.060302 373.910391,482.227891 C372.140172,481.519794 370.369978,484.352205 368.24576,484.352205 C366.829589,484.352205 372.494221,483.998144 372.84827,482.227891 C372.84827,479.749516 369.307856,478.333348 368.599808,476.208984 C366.475565,469.127969 371.432099,464.52528 372.494221,458.506374 C372.84827,456.028048 371.432099,453.903734 372.140172,451.425359 C372.494221,449.301045 376.388683,448.238888 375.680586,446.114598 C375.326562,444.344295 371.432099,446.114598 370.369978,444.69838 C369.307856,442.928127 371.078051,440.803788 371.078051,439.033534 C371.078051,438.679474 369.66193,438.679474 370.015929,438.325438 C370.724051,437.263281 372.84827,437.617316 373.556343,436.201123 C374.972513,432.660591 369.66193,415.312017 367.537687,412.833691 C363.289176,408.231002 360.45686,423.455238 361.518981,405.752627 C361.87303,403.274253 364.351297,401.503999 364.705346,399.025624 C365.059395,397.609406 363.289176,396.193238 364.351297,395.131081 C364.705346,394.77702 367.183638,402.212095 373.556343,402.212095 C378.86695,402.566156 398.339187,386.633799 401.525527,382.739256 L401.525527,382.739256 Z M547.390128,134.902759 C546.682055,141.983823 537.831059,140.567605 537.122937,146.232427 C536.414889,150.481055 544.557812,149.772934 546.328007,151.189152 C548.806298,153.313441 542.07952,156.145901 541.017399,159.332348 C539.601229,163.935037 545.265885,158.978287 545.973958,160.748566 C546.682055,162.518819 542.787593,167.121508 545.265885,168.537726 C548.806298,170.66204 562.967903,179.159273 550.576493,178.451176 C551.284541,176.680898 551.284541,175.26468 549.86842,173.494426 C543.141642,167.121508 543.495691,169.953894 539.601229,174.910644 C539.955277,174.556584 539.955277,174.202523 539.955277,174.202523 C539.955277,170.66204 533.228524,169.953894 530.042159,171.370112 C528.27194,172.432269 530.042159,176.326837 528.625989,177.743055 C527.209819,179.159273 524.731527,178.097116 522.607284,178.805212 C517.65075,180.929526 513.048215,186.594348 507.383558,187.656505 C505.613389,188.010566 503.84317,186.240337 502.427024,187.302494 C501.010854,187.656505 502.427024,189.780819 501.718926,191.197037 C501.364902,192.259194 500.302781,193.675412 499.594683,194.737569 C499.948732,194.383508 499.948732,194.029448 500.302781,194.029448 C502.072975,194.029448 500.656805,197.92404 502.072975,198.632137 C502.781048,198.986197 503.135097,196.507823 503.84317,197.215944 C504.551267,198.632137 505.967388,201.464572 504.551267,202.526705 C503.84317,202.880741 503.489146,203.588862 503.84317,204.296958 C504.197218,204.651019 504.905266,203.942947 505.613389,203.942947 C507.737607,205.713176 511.27802,206.775333 511.632044,209.253708 C513.756288,219.167158 505.25934,215.272565 502.781048,221.291472 C502.072975,223.061726 506.67551,242.180554 507.737607,244.304868 C509.86185,247.845376 534.644694,265.547986 539.601229,268.380397 C544.557812,271.212832 545.973958,269.442554 550.576493,273.337147 C555.533052,277.585775 562.25983,305.555896 566.154267,312.636911 C570.048729,320.072035 578.191628,326.798989 584.564333,331.755739 C586.688576,333.171957 589.874965,333.525993 591.64516,335.296271 C592.707281,336.004367 591.64516,338.128657 592.353232,338.836803 C601.912326,348.750253 619.968368,345.563781 631.297656,343.793503 C633.775948,343.439443 639.086556,339.544875 642.27292,343.085407 C651.123917,352.998881 624.570903,356.539389 638.024434,365.744742 C650.769893,374.241999 668.47191,373.533878 681.571393,380.260881 C686.173928,382.739256 687.944122,386.633799 693.254705,388.404078 C697.503191,390.174331 709.186528,391.94461 712.726941,394.77702 C714.143087,395.839177 712.726941,398.317552 713.789063,399.379709 C718.037549,405.398567 729.366837,404.33641 732.907226,416.728235 C734.323396,421.330924 731.137032,419.914706 730.07491,423.101177 C729.366837,424.871456 730.428959,431.95247 729.012789,432.660591 C727.596618,433.722749 725.118327,432.660591 722.994083,431.598459 C712.018844,427.34983 716.621379,420.976863 710.956722,413.541788 C707.770358,409.293159 697.503191,413.541788 692.192583,411.771534 C685.111806,409.293159 681.217344,401.149938 674.490566,408.231002 C673.782518,409.293159 664.931497,426.99577 664.931497,427.703866 C664.931497,428.765999 666.701691,429.828156 666.347642,431.244374 C664.931497,437.971377 657.850695,437.617316 663.869375,445.406452 C667.409789,449.655081 668.47191,445.760537 672.366347,446.82267 C676.614809,448.238888 679.44715,452.487516 683.341587,454.25777 C684.757757,454.965891 686.882,454.25777 687.590073,455.673987 C688.298171,456.736145 686.173928,458.152362 686.173928,459.568531 C686.527952,469.48203 691.130462,460.276677 690.422414,473.022537 C690.06834,480.457637 675.906736,477.625202 669.534032,485.060302 C664.931497,490.371112 670.950177,495.681873 669.534032,502.054816 C668.47191,507.365576 664.931497,505.949408 661.391083,508.781794 C652.894136,516.216894 658.912791,533.211408 641.210799,528.254658 C637.670385,527.192501 633.775948,517.987172 635.900191,514.09258 C637.316361,511.968266 640.856775,512.322326 642.626969,510.552048 C643.689091,509.135855 643.689091,507.011565 644.043139,505.241287 C644.397139,503.471033 645.813309,502.054816 645.45926,500.284562 C645.105261,498.160248 641.564847,497.098091 641.918896,494.973752 C643.335017,488.600834 651.832014,492.141341 654.310281,488.600834 C660.328962,481.519794 653.24816,480.457637 650.415844,476.563045 C647.583503,472.314441 648.999674,466.295534 646.87543,461.692894 C645.813309,458.860459 644.397139,456.382084 642.626969,454.25777 C642.27292,453.549673 640.856775,453.549673 640.148677,452.841577 C633.775948,443.282163 640.502726,448.946984 636.25424,438.325438 C630.943607,424.871456 627.757243,431.598459 617.136052,432.306531 C616.782003,432.306531 617.490101,431.244374 617.136052,430.536302 C615.719882,429.120084 613.949712,427.34983 611.825469,426.287673 C609.701226,425.225516 605.45274,426.287673 604.036569,423.809299 C602.620399,421.330924 606.868885,418.852549 606.514861,416.020163 C606.160812,413.187703 604.036569,410.709377 602.620399,408.585063 C594.123451,396.901335 592.707281,413.187703 582.794163,409.64722 C581.732042,409.293159 589.520916,403.628313 585.980503,401.149938 C573.235069,391.94461 585.626454,401.503999 571.818899,399.73377 C570.756777,399.379709 571.818899,397.609406 571.46485,396.547274 C570.048729,392.298645 562.613854,380.969002 559.07344,379.552785 C549.514371,376.012253 556.949197,382.739256 553.762833,382.03116 C550.576493,381.323038 547.744177,377.42847 544.203764,377.782506 C541.017399,378.490628 538.539107,382.739256 535.706816,382.03116 C532.520427,381.323038 532.874475,376.720349 530.750232,374.596035 C528.27194,372.471721 521.899211,373.179842 519.774993,371.763624 L514.464385,364.328549 C511.986093,362.20421 508.09168,361.850174 505.967388,359.371799 C501.718926,352.998881 506.67551,354.061038 501.718926,350.166446 C499.594683,348.396192 497.116392,346.979974 494.638124,345.563781 C493.930027,345.209721 492.513906,346.271878 491.805784,345.917817 C487.911371,342.731346 487.911371,336.712489 484.016909,333.525993 C477.290131,327.861171 473.04167,332.109799 465.960867,329.277364 C464.898746,328.923328 467.731062,327.861171 468.439135,327.15305 C470.563378,324.320664 466.314891,319.717975 465.25277,318.655817 C464.544697,317.947696 463.128527,318.655817 462.420454,317.947696 C461.358357,316.531503 461.358357,314.407189 459.942187,313.345032 C458.171993,311.928814 454.631579,312.990971 453.215409,310.866657 C452.153287,309.450439 455.339652,306.618053 453.569458,305.555896 C451.445215,303.785618 447.904801,305.909907 445.072461,304.847775 C443.302291,304.139678 446.134632,300.953207 446.134632,298.828893 C447.196753,291.747829 446.134632,289.269479 442.240169,283.250597 C434.805319,272.629025 440.115926,263.069611 431.264905,254.926415 C430.556857,253.864258 429.140687,253.510222 428.078565,253.156161 C427.724517,253.156161 427.370443,254.218318 427.016444,253.864258 C425.246225,253.156161 424.184103,251.031847 422.413909,251.031847 C421.351787,251.031847 423.47603,254.218318 422.413909,253.864258 C419.581593,253.156161 417.457325,251.031847 414.979083,249.261618 C413.916961,248.553472 405.06594,239.348143 402.2336,239.348143 C401.525527,239.348143 402.587648,241.118397 401.8796,241.472458 C401.171478,241.826493 400.109356,241.472458 399.755308,240.764336 C397.985138,238.640022 390.550287,235.09949 387.009874,235.09949 C385.593704,235.09949 376.388683,240.4103 375.680586,241.826493 C374.972513,243.242711 376.034634,245.367025 374.972513,246.429158 C373.910391,247.845376 371.078051,247.491315 370.015929,248.553472 C367.537687,251.031847 365.767468,256.696693 362.935152,259.175068 C358.332617,263.777708 350.189693,263.423697 344.879086,264.131768 C343.108891,257.75885 355.146252,249.615629 349.835669,245.721086 C348.06545,244.658929 345.587158,246.075097 343.462915,246.429158 C341.338672,246.429158 338.86038,247.491315 336.736137,246.783243 C332.841725,245.721086 323.636655,238.994083 323.990703,234.037333 C323.990703,233.329236 325.760898,233.329236 325.760898,232.621165 C325.406874,231.559008 321.866485,230.49685 322.928607,228.372511 C324.344777,226.956318 326.114947,225.894161 327.177068,224.123883 C327.531117,223.769847 326.468995,223.061726 326.823019,222.353629 C327.177068,221.291472 330.363433,223.061726 330.717481,221.999569 C330.717481,219.167158 330.363433,216.334723 329.301311,214.210433 C327.531117,211.378022 315.84778,206.775333 316.555877,201.110487 C316.555877,199.340258 319.742242,199.340258 321.512436,198.986197 C322.574533,198.986197 323.282655,201.110487 324.344777,200.756426 C326.114947,200.402415 337.444259,191.197037 335.67404,188.010566 C334.611919,185.886276 331.07153,185.532191 330.009384,183.053816 C328.947262,181.637647 330.363433,179.159273 329.65536,177.743055 C324.698776,169.245823 315.493756,173.494426 331.779603,163.935037 C335.320016,170.30798 344.879086,163.226916 349.48162,162.164759 C352.667985,161.456662 355.146252,165.705291 358.332617,165.705291 C358.686666,165.705291 368.599808,155.437755 368.599808,153.667526 C368.953808,151.897273 365.767468,151.189152 366.121516,149.772934 C366.829589,147.64862 369.66193,146.940523 371.432099,145.524305 C373.202294,144.108112 374.618464,142.691895 376.388683,141.275677 C377.096756,140.921616 377.804829,140.21352 378.158877,140.567605 C378.86695,142.691895 378.512926,144.816209 378.512926,146.940523 C378.512926,148.00268 377.450805,149.418898 377.804829,150.835116 C380.283121,155.437755 385.947752,156.499912 389.84219,157.91613 C390.196238,157.91613 390.904311,158.624227 390.904311,159.332348 C390.550287,160.748566 388.071995,161.810723 388.426044,163.226916 C388.780068,164.643134 391.25836,163.935037 392.320482,164.997194 C393.736652,166.767448 394.444725,172.78633 396.568968,171.016052 C402.587648,166.413387 395.506846,167.829605 395.506846,164.289073 C395.506846,156.499912 404.003819,154.375598 405.419964,148.00268 C405.419964,147.294584 401.525527,137.735145 407.544207,138.797302 C412.146742,139.505448 406.482086,146.586462 415.687131,148.710777 C421.351787,150.481055 416.749252,143.399991 426.308346,145.170269 C429.140687,145.524305 427.724517,151.189152 430.202808,152.605369 C431.618979,153.313441 434.45127,151.897273 434.097221,150.481055 C433.389148,149.418898 431.972978,148.710777 431.618979,147.294584 C431.618979,145.878366 433.743197,144.816209 433.389148,143.399991 C432.681076,141.629737 426.308346,137.735145 431.264905,134.194662 C437.637635,129.591973 435.159343,139.859459 442.594218,138.08923 C446.84268,136.673012 440.115926,131.716287 440.115926,131.008166 C440.823999,129.591973 441.886121,128.529816 442.240169,127.113598 C442.948218,125.697381 442.594218,123.927152 442.948218,122.510934 L442.948218,122.510934 C448.612874,125.343369 443.65634,121.802837 449.320971,122.510934 C452.153287,122.864995 454.985628,130.30007 460.650235,127.113598 L465.25277,117.554209 C468.085111,115.429895 480.476496,116.846088 483.662885,116.492052 C488.973493,116.137991 493.221954,111.535302 498.532562,111.535302 C499.948732,111.535302 496.05427,113.305556 495.700246,114.721773 C493.930027,122.156849 498.532562,117.200148 501.364902,121.448777 C502.072975,122.510934 500.302781,123.927152 501.010854,125.343369 C501.364902,126.051441 502.427024,124.635223 503.135097,125.343369 C509.86185,130.30007 511.632044,131.008166 520.837114,132.424384 C529.688111,133.486541 538.539107,134.194662 547.390128,134.902759 L547.390128,134.902759 Z M508.799729,258.112911 C509.507801,257.050754 509.507801,255.634536 510.569923,254.926415 C513.402263,252.094004 512.694166,263.069611 508.799729,258.112911 L508.799729,258.112911 Z" id="it"></path>
        </g>
    </g>
</svg>