<?xml version="1.0" encoding="UTF-8" standalone="no"?>
<svg width="300px" height="664px" viewBox="0 0 300 664" version="1.1" xmlns="http://www.w3.org/2000/svg" xmlns:xlink="http://www.w3.org/1999/xlink">
    <!-- Generator: Sketch 3.6 (26304) - http://www.bohemiancoding.com/sketch -->
    <title>kz</title>
    <desc>Created with Sketch.</desc>
    <defs></defs>
    <g id="Page-1" stroke="none" stroke-width="1" fill="none" fill-rule="evenodd">
        <g id="Group" transform="translate(-375.000000, -18.000000)" fill="#FFFFFF">
            <path d="M674.395159,25.303031 C672.780065,25.303031 670.087865,23.95695 667.395666,28.5335954 C666.857113,29.6104377 670.62623,30.9565187 669.818495,33.648662 C667.934031,40.109772 664.434284,30.1488776 663.088184,36.3407677 C662.819189,38.2252698 666.318748,40.9174131 664.703654,41.7250542 C663.895919,41.9942742 655.819508,39.840552 656.088503,39.0329109 C656.357873,37.6868487 657.973155,36.8792076 658.51152,35.5331266 C659.050072,34.1870831 654.473408,35.2639442 650.704479,30.1488776 C648.012092,26.6490932 653.935043,28.2643754 649.627562,26.1106721 C646.396997,24.7645911 646.127627,30.9565187 639.935868,26.1106721 C639.935868,26.1106721 636.436122,21.5340454 634.551469,21.2648067 C632.397822,20.7264043 630.244175,21.2648067 628.359711,20.4571844 C627.821158,20.4571844 627.551976,16.6881988 626.205876,19.1111221 C623.513864,24.2261699 623.783046,25.033811 624.052229,30.1488776 C624.052229,30.9565187 625.398329,31.7641598 624.859964,32.3025809 C620.821664,36.0715665 616.514182,33.1102033 612.206889,35.8023465 C597.400166,44.9556186 615.437453,35.5331266 606.284124,43.3403364 C605.74576,43.8787388 605.207207,42.2634753 604.668842,42.5326953 C603.322742,42.8019153 601.70746,43.3403364 600.630731,44.4171975 C599.553813,45.7632409 605.74576,47.1093407 605.74576,47.9169631 C606.284124,48.7246042 603.591925,47.6477431 602.515195,47.9169631 C601.438278,48.1861642 600.899913,49.5322453 600.092178,50.0706664 C598.476896,51.4167474 603.322742,53.5704508 603.322742,55.7241353 C603.591925,58.4162786 598.746078,59.7623596 598.746078,62.4544841 C598.746078,63.2621252 599.553813,63.5313452 600.36136,63.5313452 C603.05356,63.8005651 604.938025,63.2621252 604.39966,67.8387706 C604.130477,72.6845985 599.822996,69.7232728 599.822996,73.4922396 C600.092178,83.7223539 599.553813,76.1843828 595.784884,83.9915739 C595.515514,84.799215 597.130796,85.6068561 596.861614,86.4144972 C596.054066,90.4527027 592.015767,95.8369705 590.131302,99.605956 C588.785203,102.298099 587.16992,104.990243 585.823821,107.682367 C585.554638,108.490008 586.093191,110.10529 585.285456,110.374492 C583.939356,110.374492 583.670174,107.951568 582.324074,107.951568 C580.170427,108.220788 583.400991,112.258994 582.593256,114.143496 C581.785709,115.758759 579.632062,116.027998 578.285962,117.104822 C577.747597,117.643261 579.901244,118.181683 579.901244,118.989324 C579.36288,121.143046 575.593763,121.412247 577.478227,124.37361 C578.824327,126.258112 583.400991,127.065753 582.593256,129.488658 C581.516527,132.719222 579.632062,130.296299 577.209045,130.83472 C574.247663,131.373141 577.209045,136.488208 572.632381,137.026648 C572.363198,137.026648 572.094016,136.219007 572.094016,136.488208 C570.747916,140.526432 568.055904,144.026179 566.171252,148.064403 C565.632887,149.410466 572.363198,148.602824 567.517352,152.10259 C566.440622,152.910231 564.55597,151.83337 563.47924,152.641011 C561.594775,154.525513 562.671505,158.025298 561.325405,160.179001 C561.056223,160.717441 560.248676,160.448221 559.979493,160.717441 C559.171758,161.794265 558.094841,162.871126 557.556476,164.217188 C557.287294,164.755628 559.440941,165.294049 558.902576,166.10169 C557.825658,168.793833 550.826165,172.293618 552.710629,175.793383 C553.248994,176.870225 555.941194,178.485508 556.479559,179.831589 C557.018111,181.177651 553.248994,180.90845 552.172265,180.100809 C551.36453,179.562369 551.903082,177.139445 551.095347,177.677867 C548.672518,179.023948 545.172771,180.90845 544.903401,183.869794 C544.903401,184.946655 547.5956,184.946655 547.5956,186.292699 C547.5956,187.638799 545.711136,188.177201 544.634218,188.446421 C543.826671,188.446421 543.557489,187.10034 543.018936,187.36956 C540.865289,188.177201 540.865289,191.676985 540.326737,191.676985 C539.519189,191.946186 536.557807,190.869344 536.019443,190.869344 C530.365861,192.215406 536.557807,198.407315 535.75026,198.676516 C533.058061,199.753378 534.942525,193.292267 532.519696,200.022597 C530.904414,204.868444 538.442272,198.138095 538.980825,201.63788 C538.980825,203.253162 538.711454,204.868444 538.980825,206.483726 C539.250007,207.022166 540.326737,207.291367 540.326737,207.829807 C539.788372,208.906631 537.365542,211.329554 538.442272,211.060353 C538.711454,211.060353 546.788053,206.483726 546.788053,206.483726 C547.326418,205.945305 545.980318,205.137664 546.249501,204.330023 C546.788053,202.983942 550.01843,200.291817 551.095347,204.060803 C551.36453,205.406865 551.095347,207.291367 550.01843,208.368228 C549.210883,209.175851 548.133965,207.560587 547.057236,207.829807 C544.903401,208.368228 547.5956,214.829338 549.749247,215.367778 C554.325912,216.983061 558.094841,210.252731 558.902576,209.714272 C560.248676,209.175851 561.594775,210.521913 562.940687,209.983492 C564.017605,209.714272 568.055904,205.137664 570.209551,207.829807 C574.517033,213.483276 569.401816,213.483276 567.786534,214.560137 C566.440622,215.63698 566.440622,218.059903 565.094522,218.867525 C564.017605,219.675204 562.13314,218.059903 560.78704,218.867525 C559.440941,219.675204 558.902576,221.559668 558.094841,222.90575 C557.018111,224.251812 555.133647,225.328673 555.133647,226.943955 C554.864276,227.751596 557.018111,226.674735 557.556476,227.213175 C559.440941,228.828457 553.787547,239.596993 557.825658,239.866213 C558.902576,240.135414 559.710123,238.520132 560.78704,239.058553 C561.863958,239.327773 561.863958,241.212275 563.210058,241.750696 C564.017605,242.019916 565.094522,240.404634 565.902069,240.673854 C568.055904,241.212275 570.478734,242.019916 571.286469,243.904418 C571.286469,243.904418 569.940369,254.403715 569.670999,254.403715 C569.132634,255.749815 567.248169,256.288217 566.440622,257.634279 C565.363705,260.057221 567.248169,263.018566 565.902069,265.441489 C565.094522,267.325991 561.056223,267.595211 564.017605,269.748896 C568.594269,272.71024 570.209551,267.864394 574.517033,266.51835 C576.939862,265.710709 573.709298,273.5179 576.67068,271.902599 C580.170427,270.018116 582.593256,266.51835 586.362373,265.17225 C587.977655,264.903068 589.054385,268.402852 590.669855,267.864394 C599.553813,265.710709 590.400485,260.595643 604.130477,264.364628 C604.668842,264.364628 605.74576,263.287786 606.014942,263.826207 C606.553307,264.903068 604.938025,265.710709 604.938025,266.51835 C605.74576,270.556537 614.091353,277.017647 612.745253,280.786651 C610.860789,287.24778 604.938025,297.747114 598.207713,300.439258 C594.438784,301.78532 592.55432,297.208675 590.131302,298.554756 C586.900738,300.708459 596.861614,310.400152 590.131302,317.668903 C584.208538,323.591611 592.823502,310.130932 585.285456,314.707578 C582.324074,316.592042 579.632062,319.822607 575.32458,320.899468 C574.247663,321.437908 573.170933,321.168688 571.824833,320.899468 C571.286469,320.630266 571.017098,319.822607 570.209551,319.822607 C569.401816,320.091827 569.132634,321.707109 568.325087,321.437908 C567.517352,321.437908 567.517352,319.822607 566.978987,319.553405 C566.440622,319.553405 566.171252,320.630266 565.632887,320.630266 C565.094522,320.630266 564.55597,320.361047 564.017605,319.822607 C563.210058,318.207324 563.748422,314.438339 560.517858,315.784401 C559.440941,316.053621 558.633393,317.399683 557.287294,317.668903 C556.479559,317.668903 555.941194,316.053621 555.133647,316.322841 C551.095347,317.938123 554.864276,319.284185 554.595094,320.630266 C554.325912,322.51475 547.864783,324.399252 547.057236,324.937654 C544.903401,326.822157 551.633712,331.129582 550.556982,332.206443 C549.749247,333.014084 547.864783,332.475644 547.057236,333.552505 C546.518683,334.360146 547.5956,335.437007 547.326418,336.513869 C546.518683,340.282835 537.634725,333.821725 537.365542,333.821725 C536.019443,334.090945 535.75026,335.706227 534.942525,336.783051 C534.134978,337.590692 529.019949,340.282835 529.558314,341.898118 C530.096679,342.705759 531.711961,342.705759 531.981143,343.78262 C532.519696,346.743945 526.058567,343.78262 525.789385,344.05184 C524.174102,347.013184 529.827496,348.090045 527.404667,352.128232 C526.866114,353.205093 524.712467,352.397452 524.174102,353.474294 C523.097185,355.089595 526.596932,357.78172 526.596932,359.127801 C526.596932,359.127801 523.904732,370.973197 523.904732,371.24238 C523.097185,373.126882 519.86662,369.896336 517.712974,370.165556 C516.636056,370.165556 516.636056,372.050021 515.559139,372.319241 C512.597757,373.126882 494.829652,365.588911 494.291288,372.319241 C494.022105,373.396102 494.022105,375.011384 495.099023,375.549805 C495.90657,376.088245 498.060405,373.665303 499.406317,375.280604 C500.752416,377.165087 505.867445,382.549374 505.059898,385.241498 C504.252163,387.395202 501.021599,388.472063 499.406317,386.318341 C498.329587,384.972278 497.521852,383.357015 496.983487,381.472513 C496.714305,380.395652 497.521852,378.241948 496.445122,378.241948 L488.099341,378.511168 C481.907583,375.819025 489.176259,373.126882 479.753748,375.011384 C477.600101,375.549805 476.254001,377.703527 474.369536,377.703527 C466.023943,377.434307 473.831172,370.434738 463.062561,373.934523 C459.831997,375.011384 451.217221,386.318341 448.794204,385.241498 C445.563639,383.357015 443.409992,379.857231 439.910245,378.241948 C439.371693,377.972728 440.179428,379.318809 439.910245,379.588011 C439.371693,381.472513 439.10251,383.357015 437.75641,384.972278 C436.948863,386.049139 435.064399,385.779919 434.256664,386.587561 C430.756917,390.894986 437.218046,392.241048 435.064399,396.548455 C433.987481,398.432957 432.372199,392.241048 431.026099,394.933173 C429.410817,398.163737 432.103017,400.048239 427.25717,400.317459 C422.142141,400.85588 429.410817,396.817675 426.449435,395.202411 C420.526859,391.971847 421.603588,397.625316 417.027112,398.702177 C415.41183,398.971378 413.796548,397.894536 412.181265,398.432957 C411.37353,398.432957 416.488559,401.932741 416.219377,402.740383 C414.334912,411.085995 414.604095,398.702177 411.911895,403.817244 C410.027431,406.778569 414.06573,407.58621 414.06573,410.009134 C414.06573,410.278354 412.450448,419.431607 412.181265,419.970028 C411.104348,421.585329 409.219883,422.39297 408.142966,424.008252 C407.335419,425.892736 408.142966,428.046458 407.066236,429.93096 C405.720137,431.815425 401.412655,431.007784 400.60492,433.430707 C398.451273,440.430276 405.450954,440.430276 404.912402,442.045539 C404.374037,443.391639 403.566302,445.006902 402.489572,446.352965 C402.22039,446.891386 401.412655,446.622184 401.143472,447.160606 C401.143472,447.429826 399.52819,455.775438 399.259008,456.313859 C398.18209,458.467581 393.067061,457.929141 393.067061,458.736782 C393.067061,460.352064 395.759073,459.006002 395.759073,459.006002 C397.643726,460.352064 404.104854,468.159255 405.720137,469.774538 C406.258501,470.582179 405.720137,472.197461 406.527684,472.735901 C408.681331,474.620366 408.950701,468.697695 410.565983,473.812743 C410.835166,474.889604 410.835166,476.235685 410.565983,477.312509 C404.104854,492.92691 400.066555,484.042858 390.644044,480.004652 C389.567315,479.466231 378.529522,474.889604 377.721787,476.504868 C376.645057,479.466231 374.22204,484.850499 376.645057,488.350264 C377.183422,488.888723 379.606439,489.427125 379.606439,490.773188 C379.875621,496.695895 375.56814,498.311159 375.56814,501.541723 C375.298957,502.349383 382.029268,520.655908 382.029268,520.655908 C383.644551,522.001971 388.490397,519.579047 390.105679,522.809593 C391.990144,527.386238 389.028762,529.539942 388.490397,533.308946 C387.952032,537.347133 390.105679,544.077481 390.644044,548.115668 C390.913414,549.73095 390.374862,551.884673 391.451779,552.961515 C392.259326,553.499955 405.181584,550.26939 407.066236,550.807811 C408.950701,551.346233 407.604601,554.846017 409.219883,555.653658 C410.027431,556.192098 411.104348,554.576797 411.642713,555.115237 C412.181265,555.653658 411.642713,556.999739 411.37353,558.076563 C411.104348,558.615021 409.489066,558.884204 410.027431,559.422662 C411.104348,561.037926 413.257995,561.037926 414.604095,562.383988 C415.14246,562.653208 414.334912,563.460849 414.06573,563.99927 C414.06573,563.99927 414.334912,564.26849 414.334912,564.53771 C414.604095,564.53771 421.872959,565.614552 421.872959,565.614552 C422.411323,565.076131 419.719124,559.961065 419.988306,559.691845 C421.872959,559.422662 424.026606,560.230285 426.180253,559.691845 C429.679999,558.615021 431.564652,553.230735 435.871946,554.307596 C446.102004,556.999739 450.678668,562.114768 459.024262,567.499055 C462.793379,569.921959 468.17759,569.921959 470.86979,573.152524 C472.485072,575.306246 468.715955,579.613671 467.370043,579.882854 C465.754761,579.882854 462.524196,575.844667 461.178096,580.690495 C459.293632,587.959283 475.715636,584.728719 481.36903,584.459499 C480.2923,580.690495 478.946201,576.921528 479.753748,576.113887 C481.36903,574.767806 483.792047,577.190748 485.407329,576.113887 C486.214877,575.575447 482.445947,574.498605 483.253495,573.960165 C484.330412,573.152524 485.676512,574.767806 487.022612,575.037026 C487.560976,575.037026 493.21437,566.691414 493.752923,565.076131 C494.56047,562.922428 493.48374,557.268922 495.368205,558.345783 C495.90657,558.615021 496.175752,560.230285 496.445122,559.691845 C497.25267,556.999739 496.175752,553.769156 496.983487,551.615453 C497.25267,550.807811 498.329587,551.884673 498.867952,551.615453 C499.675687,551.346233 499.675687,549.73095 500.214052,550.00017 C501.021599,550.26939 500.214052,551.884673 501.021599,552.423094 C501.290969,552.961515 501.290969,551.346233 501.290969,550.807811 C501.021599,549.461749 500.483234,544.077481 502.367699,546.500386 C502.636881,546.769625 503.713798,547.577247 503.713798,547.038807 C504.252163,541.116118 502.636881,539.500836 508.290463,534.654989 C513.405492,530.078382 518.520521,535.462631 523.366367,533.578128 C524.443285,533.308946 524.443285,531.693664 525.250832,531.155224 C525.789385,530.616803 525.250832,532.770506 525.789385,532.770506 C528.481396,533.039726 531.442778,531.693664 533.865796,530.886023 C535.48089,530.078382 534.673343,521.732732 534.942525,521.194329 C535.75026,520.117468 537.903907,521.194329 539.250007,520.386688 C541.672836,519.309827 545.711136,513.92556 548.672518,516.079263 C550.01843,516.886904 550.826165,518.771406 552.441447,519.848267 C553.518364,520.386688 556.748929,519.579047 556.748929,522.001971 C556.748929,522.271191 555.672011,522.271191 555.672011,522.54041 C555.402829,524.694095 555.402829,527.117018 555.672011,529.27074 C555.672011,530.078382 555.672011,527.655439 556.210376,527.386238 C557.018111,526.847798 557.556476,528.463081 558.364211,529.001521 C562.671505,532.501305 565.363705,537.077913 566.440622,542.731419 C567.786534,548.654089 565.902069,555.653658 568.055904,561.307127 C569.132634,563.730069 583.131809,559.153424 582.593256,560.499486 C580.170427,566.422194 571.286469,567.229835 565.902069,569.383557 C562.402323,570.99882 560.248676,575.306246 556.479559,576.652308 C554.595094,577.459949 552.172265,577.190748 550.2878,578.26759 C548.403148,579.075231 550.2878,582.574997 548.9417,584.190279 C548.133965,585.53636 545.711136,585.805561 545.172771,587.420843 C541.403654,597.381757 547.057236,590.651427 548.672518,597.920178 C548.9417,598.727819 546.788053,597.112537 545.980318,597.650958 C544.365036,598.997039 543.018936,601.150742 542.749754,603.304464 C541.672836,609.765574 550.01843,607.073431 552.441447,607.611852 C554.056729,608.150292 554.864276,610.303995 556.479559,610.573215 C557.556476,610.573215 557.825658,608.688713 558.633393,608.419493 C560.248676,608.150292 562.402323,608.150292 563.748422,609.496354 C564.286787,610.034794 561.594775,610.034794 560.78704,610.573215 C559.979493,611.111637 557.556476,611.380857 557.018111,612.188498 C556.748929,613.265359 557.287294,614.880641 556.748929,615.419062 C552.710629,619.457249 550.826165,614.880641 547.057236,615.419062 C541.134472,616.495923 547.864783,616.226684 545.172771,618.111187 C541.403654,620.53411 533.327243,619.457249 534.673343,626.456818 C537.365542,640.994339 548.9417,626.187579 554.056729,629.418143 C555.672011,630.495004 555.941194,632.917928 557.287294,634.264009 C561.325405,637.494573 575.32458,643.148042 577.747597,645.840185 C580.170427,648.263108 578.555145,654.724219 582.054891,655.80108 C583.939356,656.0703 588.51602,650.147611 590.939037,649.609152 C591.477402,649.609152 590.939037,651.224472 591.477402,651.493654 C593.631049,652.839735 596.054066,653.378156 598.476896,654.724219 C599.284631,655.262658 600.36136,655.80108 601.70746,656.0703 C603.861295,656.608721 604.130477,652.301295 606.014942,650.955252 C607.899407,649.609152 608.707142,652.839735 610.322424,652.301295 C611.937706,651.762874 615.168083,643.686482 621.090847,647.724687 C622.436947,648.532328 624.590594,651.224472 623.244682,652.032113 C621.629399,653.108936 619.475565,650.147611 617.5911,650.147611 C616.245,650.147611 620.014117,651.224472 621.090847,652.032113 C624.052229,653.916577 624.859964,657.954802 625.398329,661.454549 C625.667511,663.608271 625.936693,665.761974 625.667511,667.646476 C625.398329,668.184897 624.590594,667.915696 624.590594,668.454117 C624.052229,672.761543 629.167258,673.030763 631.051722,676.261308 C632.12864,677.876591 631.051722,680.299514 632.397822,681.645576 C634.013104,675.453686 634.820839,667.646476 637.512851,661.454549 C639.935868,656.0703 652.858314,639.379075 658.51152,637.763793 C662.011454,636.686932 668.741766,635.879291 674.395159,636.148492 L674.395159,576.113887 C670.35686,569.921959 666.318748,563.460849 662.280449,557.268922 C660.12699,554.038376 643.704798,531.424444 643.435803,529.809162 C643.435803,527.117018 649.896744,520.117468 651.512026,517.963765 C658.51152,507.19523 665.511013,496.157474 672.510695,485.388939 C673.04906,484.312078 673.856795,483.235216 674.395159,481.619934 L674.395159,25.303031 L674.395159,25.303031 Z" id="kz"></path>
        </g>
    </g>
</svg>