<?xml version="1.0" encoding="UTF-8" standalone="no"?>
<svg width="146px" height="115px" viewBox="0 0 146 115" version="1.1" xmlns="http://www.w3.org/2000/svg" xmlns:xlink="http://www.w3.org/1999/xlink">
    <!-- Generator: Sketch 3.6 (26304) - http://www.bohemiancoding.com/sketch -->
    <title>lt</title>
    <desc>Created with Sketch.</desc>
    <defs></defs>
    <g id="Page-1" stroke="none" stroke-width="1" fill="none" fill-rule="evenodd">
        <g id="Group" transform="translate(-452.000000, -293.000000)" fill="#FFFFFF">
            <path d="M507.496035,391.803731 C508.156527,391.143053 508.156527,389.821626 509.147243,389.491263 C514.100823,387.839497 511.789145,392.134117 515.091539,393.455544 C524.338206,397.419779 520.705588,390.151988 526.649884,398.741183 C528.631316,401.384036 526.649884,405.017909 528.631316,406.339336 C532.594157,408.982166 542.171093,403.696528 544.812971,402.375101 C547.454896,401.384036 548.775835,407.3304 551.748006,404.687592 C553.729438,403.366165 554.059661,400.062609 556.041093,398.741183 C557.692302,397.750118 559.673711,398.741183 561.324896,398.410843 C562.976105,397.750118 558.352748,394.116223 559.673711,392.794796 C561.324896,390.81269 564.627291,391.473369 566.938969,390.482305 C572.222795,387.509134 564.957537,387.839497 568.590154,384.205578 C569.58087,382.884175 577.176352,379.250256 577.836821,383.544877 C578.167068,384.535941 576.515882,385.196666 576.515882,386.18773 C576.185636,389.160924 582.790424,386.848432 583.450894,385.196666 C586.423041,377.928875 576.185636,379.910981 576.185636,378.589554 C575.855389,377.268127 579.157783,368.018208 579.157783,367.687846 L576.185636,358.437926 C576.185636,358.107587 577.506598,358.107587 577.506598,357.446862 C581.469462,345.223749 578.497314,358.107587 584.771856,348.196919 C586.423041,346.214814 584.771856,342.911258 586.092772,340.598789 C587.744004,338.286298 592.69756,341.589854 594.678992,339.277363 C595.669708,337.955936 594.348746,335.973807 594.678992,334.65238 C595.339462,333.661315 596.990671,333.661315 597.320894,332.670251 C598.641856,328.045314 587.744004,333.991678 588.074204,331.018508 C588.40445,326.063185 590.716129,321.768565 588.73472,316.813266 L588.73472,316.482904 C587.744004,316.813266 586.753288,316.813266 585.762572,316.813266 C578.167068,315.491839 568.259931,303.268726 561.985389,301.616937 C557.692302,300.295533 553.399192,302.938364 549.106082,302.938364 C544.812971,302.938364 543.492055,292.366995 540.189661,293.027743 C536.226797,293.688422 536.226797,299.304469 534.245365,301.616937 C531.603441,305.581218 531.603441,300.625873 528.631316,301.286598 C526.98013,301.616937 526.319638,303.929428 524.668452,304.259791 C524.338206,304.590153 514.431069,301.9473 514.100823,302.277662 C512.119391,302.277662 511.128675,304.259791 509.147243,304.590153 C505.514603,304.92047 504.193663,301.616937 501.221539,304.590153 C500.230823,305.581218 500.561046,307.232961 499.57033,307.893663 C498.249368,309.545452 496.928429,303.929428 494.61675,303.599089 C493.295788,303.599089 492.305072,306.241897 490.98411,306.572282 C488.672478,307.232961 478.104825,306.572282 475.793147,307.232961 C471.830306,308.224026 461.262654,314.831137 458.620776,318.134647 C457.299813,320.116822 457.63006,323.089992 456.309097,325.072121 C455.318382,326.063185 453.997419,325.732823 452.67648,325.732823 C453.006703,326.393525 453.006703,326.723887 453.33695,327.05425 C455.648628,335.64349 451.685764,330.357806 454.988135,338.616661 C455.318382,339.277363 455.648628,339.938064 456.309097,340.598789 C456.969544,341.920193 457.63006,342.911258 458.290506,343.902345 C459.941738,346.214814 461.262654,348.857667 461.592901,351.500475 C461.923147,353.482604 460.602185,355.464733 460.932454,357.446862 C461.262654,358.107587 461.592901,355.795095 462.25337,355.795095 C463.574332,355.464733 463.574332,358.107587 463.904579,359.098651 L463.904579,360.420078 C464.895295,360.089716 465.225518,358.768289 466.216234,358.768289 C467.206973,359.098651 467.206973,360.750418 468.197689,361.411143 C472.160553,363.723588 478.765295,363.393271 483.058405,364.714652 C483.718898,365.045015 482.728159,366.036079 483.388652,366.036079 C488.342208,366.036079 492.965565,361.741482 497.588898,363.062909 C498.90986,363.393271 498.249368,366.036079 499.57033,367.027144 C499.900576,367.357506 500.891292,366.366442 501.551739,366.696781 C502.872701,367.357506 504.193663,368.348571 505.184379,369.669997 C507.165811,372.97353 500.230823,381.89311 507.496035,391.803731 L507.496035,391.803731 Z M456.309097,340.598789 C455.978851,340.929129 455.978851,341.259491 455.978851,341.259491 C454.988135,343.902345 457.299813,346.545176 457.63006,349.187984 C457.96026,352.49154 457.299813,356.125458 455.978851,360.089716 L456.309097,360.089716 C457.299813,358.107587 457.63006,356.125458 457.96026,353.482604 C457.96026,352.1612 458.290506,347.53624 458.290506,343.902345 C458.290506,339.607725 457.96026,336.634555 456.309097,340.598789 L456.309097,340.598789 Z" id="lt"></path>
        </g>
    </g>
</svg>