<?xml version="1.0" encoding="UTF-8" standalone="no"?>
<svg width="24px" height="32px" viewBox="0 0 24 32" version="1.1" xmlns="http://www.w3.org/2000/svg" xmlns:xlink="http://www.w3.org/1999/xlink">
    <!-- Generator: Sketch 3.6 (26304) - http://www.bohemiancoding.com/sketch -->
    <title>lu</title>
    <desc>Created with Sketch.</desc>
    <defs></defs>
    <g id="Page-1" stroke="none" stroke-width="1" fill="none" fill-rule="evenodd">
        <g id="Group" transform="translate(-513.000000, -334.000000)" fill="#FFFFFF">
            <path d="M530.584945,365.552499 C528.933759,364.891774 526.952327,363.900709 524.970895,363.900709 C523.319687,363.900709 521.668501,365.552499 519.687092,365.552499 C519.356846,365.882815 519.687092,364.561434 519.356846,364.231072 C518.035907,363.57037 516.714944,362.909645 515.063736,362.248943 L515.393982,360.927516 C522.659217,361.588241 512.752081,348.704403 513.742796,345.73121 C515.063736,342.097338 521.668501,329.874179 525.301119,336.150928 C524.970895,337.802717 524.640649,339.454461 525.301119,342.097338 C526.952327,349.034766 534.878032,349.695468 535.538547,350.686532 C540.161858,356.302556 526.952327,358.945387 530.584945,365.552499 L530.584945,365.552499 Z" id="lu"></path>
        </g>
    </g>
</svg>