<?xml version="1.0" encoding="UTF-8" standalone="no"?>
<svg width="1638px" height="780px" viewBox="0 0 1638 780" version="1.1" xmlns="http://www.w3.org/2000/svg" xmlns:xlink="http://www.w3.org/1999/xlink">
    <!-- Generator: Sketch 3.6 (26304) - http://www.bohemiancoding.com/sketch -->
    <title>Group</title>
    <desc>Created with Sketch.</desc>
    <defs>
        <rect id="path-1" x="0" y="0" width="1638" height="779.908381"></rect>
    </defs>
    <g id="Page-1" stroke="none" stroke-width="1" fill="none" fill-rule="evenodd">
        <g id="Blank_political_map_Europe_in_2008_WF_(with_Kosovo)">
            <g id="Group">
                <mask id="mask-2" fill="white">
                    <use xlink:href="#path-1"></use>
                </mask>
                <use id="maska" xlink:href="#path-1"></use>
                <rect id="ocean" fill="#2096BD" mask="url(#mask-2)" x="-6680.92341" y="-6040.02785" width="15405.1015" height="9871.25604"></rect>
                <g id="outlines" mask="url(#mask-2)" stroke="#FFFFFF" stroke-width="3">
                    <g transform="translate(-4330.687927, -6047.177033)">
                        <path d="M5129.4624,6542.97424 C5124.11496,6541.19131 5118.76752,6539.40851 5113.42008,6539.40851 C5100.9428,6537.62558 5088.46552,6550.10583 5077.77063,6544.75717 C5068.85815,6541.19131 5075.98811,6525.14533 5070.64067,6518.01374 C5067.07575,6512.66508 5058.16326,6516.23094 5052.81582,6512.66508 C5051.0333,6510.88228 5059.94578,6507.31642 5059.94578,6505.53374 C5058.16326,6501.96776 5056.38086,6498.40215 5052.81582,6496.6191 C5049.2509,6494.83642 5043.90346,6501.96776 5042.12094,6500.18508 C5034.99097,6494.83642 5033.20857,6484.1391 5026.07861,6478.79044 C5013.6012,6473.44165 4995.77636,6478.79044 4988.64664,6468.09299 C4981.51668,6460.96153 4995.77636,6450.26421 4995.77636,6441.34969 C4993.99408,6434.21835 4983.2992,6432.4353 4983.2992,6425.30371 C4983.2992,6416.38944 4990.42904,6409.25785 4992.21156,6402.12627 C4993.99408,6396.77761 5002.90645,6391.42895 4999.34153,6387.86321 C4986.86412,6377.16589 4976.16924,6409.25785 4963.69183,6419.95505 C4938.73727,6443.13262 4879.91528,6428.86944 4885.26272,6418.17212 C4890.61017,6409.25785 4899.52265,6403.90919 4899.52265,6394.9948 C4899.52265,6389.64614 4885.26272,6389.64614 4887.04525,6382.51455 C4887.04525,6371.81723 4901.30505,6362.90272 4901.30505,6352.2054 C4897.74013,6321.89649 4824.65846,6339.72515 4821.09354,6325.46222 C4819.31102,6318.33063 4824.65846,6309.41624 4822.87594,6302.28465 C4817.5285,6273.75842 4778.31389,6302.28465 4767.619,6277.3244 C4760.48929,6263.0611 4771.18417,6222.05487 4748.01188,6213.14035 C4737.317,6207.79169 4728.40451,6232.75219 4714.14471,6232.75219 C4674.93022,6232.75219 4673.14769,6165.00253 4669.58277,6140.04204 L4671.3653,6138.25923 C4703.44982,6129.34472 4753.35932,6090.12129 4794.35634,6077.64117 L4797.92126,6084.77263 C4794.35634,6131.12764 4831.78843,6100.81861 4858.52551,6113.29873 C4862.09043,6115.08179 4854.96072,6122.21338 4858.52551,6125.77898 C4879.91528,6140.04204 4897.74013,6115.08179 4911.99993,6102.60154 C4922.69494,6111.51581 4933.38982,6118.6474 4936.95462,6116.86447 C4942.30206,6113.29873 4940.51954,6106.16715 4936.95462,6099.03581 C4942.30206,6100.81861 4945.86698,6102.60154 4951.21442,6100.81861 C4963.69183,6100.81861 4929.82466,6059.81226 4972.60432,6072.29238 C4976.16924,6072.29238 4969.03927,6081.2069 4970.82179,6082.98983 C4992.21156,6100.81861 4997.559,6058.02933 5013.6012,6070.50958 C5018.94865,6075.85824 4999.34153,6086.55556 5004.68897,6090.12129 C5045.68586,6111.51581 5010.03641,6084.77263 5042.12094,6077.64117 C5047.46838,6075.85824 5056.38086,6127.56204 5068.85815,6129.34472 C5097.37775,6134.69338 5134.80985,6132.91057 5157.98201,6163.21961 C5159.76466,6166.78546 5150.8523,6170.35119 5149.06977,6173.91693 C5145.50486,6184.61412 5136.59237,6193.52876 5134.80985,6204.22596 C5134.80985,6207.79169 5143.72233,6206.00876 5141.93981,6209.57462 C5140.15729,6214.92328 5131.24493,6216.70621 5129.4624,6223.83767 C5116.98512,6268.40976 5147.28725,6255.92976 5175.80686,6257.71256 L5177.58938,6257.71256 C5184.71922,6270.19269 5195.41423,6289.8044 5197.19663,6289.8044 C5200.76167,6293.37026 5211.45656,6286.23867 5211.45656,6291.58733 C5213.23895,6298.71892 5198.97915,6305.85051 5200.76167,6312.98197 C5204.32659,6323.67929 5220.36892,6321.89649 5225.71636,6330.81088 C5245.32373,6362.90272 5197.19663,6368.25138 5184.71922,6402.12627 C5165.11198,6368.25138 5129.4624,6434.21835 5122.33257,6453.82994 C5116.98512,6469.87592 5170.45942,6539.40851 5131.24493,6535.84265 L5129.4624,6542.97424 L5129.4624,6542.97424 Z" id="be" fill="#87B024"></path>
                        <path d="M6355.80825,5562.38722 C6359.3733,5590.91333 6387.89278,5646.18286 6391.45795,5664.01164 C6396.80539,5706.80093 6339.76593,5735.32703 6352.24333,5769.20192 C6359.3733,5790.59656 6427.1074,5799.51083 6427.1074,5826.25426 C6427.1074,5852.99756 6405.71763,5861.91195 6421.75996,5881.52379 C6427.1074,5890.43806 6439.5848,5894.00379 6443.14985,5904.70123 C6448.49729,5913.61562 6441.36733,5926.09587 6443.14985,5935.01027 C6444.93225,5940.35893 6452.06221,5938.576 6453.84473,5942.14185 C6462.75709,5954.6221 6441.36733,5984.93101 6436.01988,5995.62833 C6425.325,6011.67431 6452.06221,6020.58883 6457.40965,6036.63481 C6460.97445,6045.54908 6448.49729,6056.2464 6453.84473,6063.37799 C6460.97445,6074.07531 6477.01677,6070.50958 6484.14674,6077.64117 C6509.10155,6100.81861 6498.40666,6230.96926 6477.01677,6234.53499 C6453.84473,6239.88365 6416.41251,6141.82496 6396.80539,6197.09437 C6393.24047,6206.00876 6425.325,6213.14035 6418.19504,6218.48901 C6396.80539,6236.31792 6366.50314,6238.10085 6345.11337,6250.58097 C6341.54845,6252.3639 6345.11337,6261.27842 6341.54845,6263.0611 C6327.28852,6270.19269 6307.6814,6259.49549 6296.98652,6268.40976 C6288.07403,6275.54135 6291.63908,6289.8044 6282.72659,6296.93599 C6279.16167,6300.50184 6275.59675,6288.0216 6270.24931,6289.8044 C6254.20686,6293.37026 6252.42446,6314.7649 6241.7297,6321.89649 C6236.38226,6327.24515 6225.68738,6318.33063 6220.33993,6323.67929 C6214.99249,6327.24515 6220.33993,6337.94247 6214.99249,6343.29113 C6207.86253,6352.2054 6188.25516,6336.15954 6182.90772,6336.15954 C6138.34578,6343.29113 6131.21594,6377.16589 6116.95601,6405.69212 C6113.3911,6412.82346 6113.3911,6387.86321 6106.26113,6382.51455 C6100.91369,6375.38296 6090.21881,6373.60004 6081.30657,6371.81723 C6065.26412,6368.25138 6099.13117,6425.30371 6134.78086,6448.48128 C6138.34578,6450.26421 6150.82319,6452.04701 6152.60571,6462.74433 C6157.95315,6487.70483 6134.78086,6478.79044 6131.21594,6498.40215 C6129.43342,6503.75069 6168.64791,6569.71741 6173.99535,6575.06607 C6204.29748,6605.37523 6211.42745,6583.98072 6231.03482,6603.5923 C6243.51197,6616.07255 6245.2945,6635.68427 6257.7719,6646.38146 C6286.29163,6665.9933 6362.93822,6692.7366 6361.1557,6739.09162 C6359.3733,6787.22956 6348.67841,6776.53224 6311.2462,6767.61784 C6307.6814,6767.61784 6304.11648,6769.40065 6302.33396,6772.96651 C6298.76892,6790.79541 6309.46392,6810.407 6291.63908,6824.67006 C6275.59675,6837.1503 6200.73256,6854.97921 6198.95004,6883.50544 C6198.95004,6883.50544 6241.7297,6942.34058 6241.7297,6944.12351 C6243.51197,6945.90644 6218.55741,6967.30096 6227.46977,6974.43267 C6247.07714,6992.26133 6266.68426,6965.51803 6250.64194,7024.35341 C6250.64194,7027.91915 6247.07714,7033.26781 6243.51197,7033.26781 C6186.47276,7017.22183 6231.03482,6988.6956 6204.29748,6986.91267 C6190.03768,6986.91267 6177.56027,6999.39292 6163.30059,6997.60999 C6156.17063,6995.82718 6157.95315,6983.34694 6152.60571,6981.56401 C6141.91083,6977.99828 6131.21594,6986.91267 6122.30346,6983.34694 C6118.73854,6981.56401 6125.8685,6970.86669 6122.30346,6970.86669 C6100.91369,6972.64962 6120.52093,7001.17584 6115.17349,7002.95865 C6090.21881,7010.09024 6049.22179,6999.39292 6026.0495,7008.30731 C6018.91966,7011.87317 6022.48458,7024.35341 6015.35462,7027.91915 C6008.2249,7033.26781 5999.31242,7024.35341 5992.18258,7029.70207 C5986.83501,7031.48475 5993.96498,7040.3994 5990.40006,7043.965 C5988.61753,7045.74806 5928.01327,7061.79391 5920.88319,7058.22818 C5917.31839,7054.66232 5920.88319,7045.74806 5917.31839,7042.18207 C5915.53587,7038.61634 5906.62351,7038.61634 5904.84098,7035.05073 C5903.05859,7031.48475 5913.75347,7033.26781 5911.97095,7029.70207 C5904.84098,7006.52451 5854.93149,7035.05073 5840.67181,7019.00475 C5840.67181,7019.00475 5844.23673,7017.22183 5844.23673,7015.4389 C5833.54184,7008.30731 5844.23673,7038.61634 5840.67181,7051.09659 C5840.67181,7058.22818 5806.80463,7099.23453 5794.32723,7086.75429 C5787.19726,7079.62282 5806.80463,7068.9255 5801.45719,7061.79391 C5799.67467,7060.01098 5794.32723,7067.14257 5790.76231,7067.14257 C5787.19726,7067.14257 5781.84982,7065.35964 5780.06755,7061.79391 C5776.50238,7056.44525 5788.97978,7049.31366 5780.06755,7042.18207 C5772.93758,7036.83341 5769.37266,7027.91915 5762.2427,7024.35341 C5756.89526,7020.78756 5749.76529,7029.70207 5742.63533,7027.91915 C5739.07041,7024.35341 5742.63533,7015.4389 5739.07041,7011.87317 C5730.15805,7004.74158 5731.94045,7036.83341 5703.42071,7027.91915 C5683.81359,7020.78756 5671.33619,7001.17584 5651.72894,6995.82718 C5649.94642,6995.82718 5591.12468,6999.39292 5591.12468,6999.39292 C5583.99472,6995.82718 5583.99472,6983.34694 5576.86475,6979.7812 C5575.08223,6976.21535 5580.42967,6988.6956 5576.86475,6990.47852 C5573.29984,6992.26133 5566.16987,6990.47852 5564.38735,6986.91267 C5562.60495,6981.56401 5571.51731,6974.43267 5567.95239,6970.86669 C5541.21506,6944.12351 5510.91305,6992.26133 5516.2605,6994.04426 C5526.95538,6995.82718 5537.65026,6992.26133 5548.34502,6994.04426 C5555.47499,6995.82718 5535.86762,6997.60999 5530.5203,7001.17584 C5526.95538,7002.95865 5532.30282,7011.87317 5530.5203,7013.65609 C5485.95824,7036.83341 5518.04302,7002.95865 5482.39332,7004.74158 C5477.04588,7004.74158 5395.05198,7024.35341 5389.70454,7013.65609 C5387.92201,7010.09024 5400.3993,7008.30731 5398.61677,7006.52451 C5382.57457,6994.04426 5375.44461,7047.53073 5375.44461,6985.12986 C5373.66221,6960.16937 5391.48681,6936.99192 5393.26933,6912.03155 C5393.26933,6908.46569 5386.13937,6908.46569 5386.13937,6903.11703 C5384.35709,6894.20264 5387.92201,6885.28837 5391.48681,6876.37385 L5416.44162,6835.3675 C5418.22414,6824.67006 5420.00654,6785.44663 5425.35398,6772.96651 C5439.61391,6744.44028 5475.26336,6723.04576 5494.87073,6689.17087 C5502.00069,6676.69062 5395.05198,6664.21037 5387.92201,6658.86171 C5382.57457,6653.51305 5386.13937,6642.81585 5380.79205,6637.46719 C5371.87969,6630.33561 5314.84023,6653.51305 5311.27543,6648.16451 C5309.49291,6642.81585 5316.62287,6635.68427 5313.0577,6632.11853 C5259.58341,6583.98072 5295.2331,6657.07903 5273.84321,6633.90146 C5256.01849,6616.07255 5247.106,6575.06607 5232.84632,6566.15181 C5227.49888,6560.80315 5216.804,6566.15181 5213.23895,6560.80315 C5193.63171,6525.14533 5264.93085,6510.88228 5239.97629,6480.57324 C5236.41112,6475.22458 5193.63171,6471.65885 5184.71922,6434.21835 C5168.6769,6368.25138 5250.67105,6371.81723 5225.71636,6330.81088 C5220.36892,6321.89649 5204.32659,6323.67929 5200.76167,6312.98197 C5198.97915,6305.85051 5213.23895,6298.71892 5211.45656,6291.58733 C5211.45656,6286.23867 5200.76167,6293.37026 5197.19663,6289.8044 C5195.41423,6288.0216 5170.45942,6250.58097 5172.24194,6245.23231 C5174.02434,6238.10085 5186.50174,6238.10085 5188.28427,6230.96926 C5193.63171,6200.6601 5141.93981,6189.96278 5157.98201,6186.39718 C5163.32945,6184.61412 5166.89462,6191.74571 5170.45942,6191.74571 L5204.32659,6161.43668 C5206.10911,6152.52229 5182.93682,6163.21961 5190.06679,6148.95655 C5195.41423,6136.4763 5207.89151,6127.56204 5213.23895,6115.08179 C5229.28115,6075.85824 5190.06679,6047.33201 5179.37178,6027.72017 C5177.58938,6024.15456 5181.1543,6018.8059 5182.93682,6015.24017 C5182.93682,6011.67431 5179.37178,6006.32565 5182.93682,6004.54285 C5191.84919,5999.19419 5202.54407,6004.54285 5213.23895,6000.97699 C5216.804,5999.19419 5209.67403,5988.49687 5213.23895,5990.27967 C5223.93371,5993.84553 5231.0638,6006.32565 5243.54108,6006.32565 C5256.01849,6008.10858 5304.14547,5992.0626 5309.49291,5979.58235 C5314.84023,5967.1021 5275.62573,5965.31942 5291.66806,5954.6221 C5320.18767,5935.01027 5354.05484,5927.87868 5346.92488,5883.30647 C5345.14248,5858.34622 5279.19078,5869.04354 5295.2331,5842.30024 C5297.0155,5836.95158 5305.92799,5842.30024 5305.92799,5838.73438 C5307.71026,5833.38572 5298.79802,5828.03706 5300.58055,5822.6884 C5300.58055,5819.12267 5305.92799,5819.12267 5309.49291,5819.12267 C5321.97019,5819.12267 5332.66507,5824.47133 5345.14248,5824.47133 C5359.40228,5824.47133 5346.92488,5795.94522 5352.27232,5781.68217 C5355.83736,5769.20192 5386.13937,5712.14959 5382.57457,5681.84055 C5387.92201,5680.05762 5393.26933,5676.49189 5398.61677,5669.3603 C5405.74674,5662.22872 5389.70454,5665.79445 5373.66221,5665.79445 L5373.66221,5665.79445 C5370.09717,5662.22872 5364.74972,5664.01164 5361.1848,5664.01164 C5357.61976,5664.01164 5355.83736,5662.22872 5354.05484,5660.44579 C5339.79504,5642.61713 5379.00965,5587.34772 5393.26933,5580.21613 C5402.18169,5574.86747 5412.8767,5585.56467 5421.78906,5585.56467 C5555.47499,5580.21613 5282.7557,5569.51881 5485.95824,5574.86747 C5487.74076,5574.86747 5493.08821,5576.65015 5494.87073,5578.43308 C5505.56561,5598.04492 5512.69558,5680.05762 5557.25763,5662.22872 C5571.51731,5656.88006 5542.99758,5533.86099 5583.99472,5533.86099 C5587.55964,5533.86099 5587.55964,5544.55831 5592.90708,5546.34124 C5598.25452,5549.90697 5607.16701,5549.90697 5614.29672,5549.90697 C5632.12157,5553.47283 5651.72894,5535.64392 5667.77127,5542.77551 C5680.24867,5548.12417 5680.24867,5565.95283 5687.37851,5576.65015 C5696.291,5590.91333 5744.41785,5681.84055 5744.41785,5621.22236 C5744.41785,5608.74224 5717.68064,5612.30797 5706.98588,5601.61065 C5689.16104,5585.56467 5692.72583,5544.55831 5658.85878,5539.20965 C5653.51134,5539.20965 5612.51445,5548.12417 5616.07937,5523.16367 C5617.86189,5507.11769 5642.81646,5457.19695 5626.77413,5437.58511 C5621.42669,5432.23645 5582.2122,5451.84829 5576.86475,5432.23645 C5575.08223,5428.67072 5587.55964,5432.23645 5589.34216,5428.67072 C5592.90708,5425.10511 5576.86475,5417.97352 5580.42967,5417.97352 C5598.25452,5412.62486 5628.55678,5430.45377 5633.90409,5394.79595 C5633.90409,5391.23022 5592.90708,5346.65813 5589.34216,5339.52654 C5583.99472,5327.04629 5582.2122,5312.78324 5582.2122,5300.30299 C5594.6896,5302.08592 5616.07937,5300.30299 5621.42669,5300.30299 C5644.59898,5303.86873 5667.77127,5316.34897 5690.94356,5319.91483 C5689.16104,5325.26349 5689.16104,5327.04629 5692.72583,5325.26349 C5699.85592,5319.91483 5703.42071,5311.00031 5710.55068,5309.21739 C5714.1156,5309.21739 5708.76816,5318.1319 5710.55068,5321.69763 C5715.89812,5325.26349 5723.02808,5323.48056 5728.37553,5325.26349 C5740.85293,5327.04629 5753.33021,5327.04629 5762.2427,5332.39496 C5767.59014,5335.96081 5769.37266,5343.09215 5769.37266,5348.44081 C5769.37266,5350.22374 5765.80762,5348.44081 5765.80762,5348.44081 C5762.2427,5350.22374 5755.11274,5353.78947 5758.67766,5355.5724 C5760.46018,5359.13813 5769.37266,5352.00667 5771.15494,5355.5724 C5776.50238,5364.48692 5774.72011,5375.18424 5771.15494,5384.09863 C5767.59014,5393.01302 5742.63533,5398.36168 5749.76529,5407.2762 C5758.67766,5419.75645 5792.5447,5387.66436 5794.32723,5403.71034 C5796.10975,5414.40779 5776.50238,5434.01938 5787.19726,5437.58511 C5799.67467,5442.93377 5799.67467,5412.62486 5812.15207,5410.84193 C5822.84696,5409.05913 5863.8441,5444.7167 5872.75633,5441.15096 C5874.53886,5441.15096 5910.18843,5400.14461 5922.66583,5421.53913 C5947.62052,5467.89427 5822.84696,5516.03208 5890.58118,5523.16367 C5904.84098,5524.9466 5915.53587,5507.11769 5929.7958,5507.11769 C5947.62052,5508.90074 5928.01327,5560.60429 5967.22777,5533.86099 C5976.14013,5528.51233 5981.48757,5483.94025 5997.53002,5475.02585 C6020.70206,5462.54561 6045.65687,5457.19695 6056.35176,5482.15732 C6054.56923,5476.80866 6052.78684,5467.89427 6054.56923,5466.11134 C6065.26412,5453.63121 6079.52405,5448.28243 6088.43628,5437.58511 C6099.13117,5425.10511 6100.91369,5405.49327 6111.60857,5393.01302 C6115.17349,5389.44729 6138.34578,5398.36168 6159.73543,5405.49327 C6168.64791,5403.71034 6177.56027,5401.92754 6181.12532,5401.92754 C6193.6026,5401.92754 6186.47276,5426.88779 6193.6026,5437.58511 C6198.95004,5444.7167 6211.42745,5441.15096 6216.77489,5448.28243 C6227.46977,5457.19695 6232.81709,5482.15732 6248.85942,5480.37451 C6261.33682,5480.37451 6275.59675,5471.46 6289.85655,5475.02585 C6295.204,5476.80866 6282.72659,5485.72318 6282.72659,5491.07184 C6284.50911,5505.33476 6289.85655,5519.59794 6295.204,5533.86099 C6300.55144,5548.12417 6318.37616,5553.47283 6332.63596,5558.82149 C6343.33085,5562.38722 6350.46081,5564.17015 6355.80825,5562.38722 L6355.80825,5562.38722 Z M6193.6026,5425.10511 C6197.16764,5409.05913 6190.03768,5389.44729 6195.38512,5373.40131 C6200.73256,5357.35533 6254.20686,5403.71034 6243.51197,5387.66436 C6236.38226,5376.96704 6213.20997,5382.3157 6207.86253,5369.83558 C6206.08001,5359.13813 6222.12233,5350.22374 6229.2523,5341.30947 C6236.38226,5335.96081 6223.90485,5362.70399 6231.03482,5364.48692 C6243.51197,5368.05265 6255.98938,5362.70399 6266.68426,5366.26972 C6277.37915,5369.83558 6252.42446,5384.09863 6255.98938,5394.79595 C6259.55442,5407.2762 6275.59675,5409.05913 6280.94419,5421.53913 C6284.50911,5425.10511 6261.33682,5442.93377 6232.81709,5450.06536 C6218.55741,5455.41402 6206.08001,5434.01938 6193.6026,5425.10511 L6193.6026,5425.10511 Z" id="de" fill="#87B024"></path>
                        <path d="M3779.36621,5429.42521 C3811.45074,5454.38546 3838.18795,5468.64864 3804.32078,5484.69462 L3779.36621,5429.42521 Z M3784.71366,5493.60901 C3779.36621,5497.17462 3774.01877,5498.95767 3768.67133,5498.95767 C3763.32389,5498.95767 3774.01877,5491.82596 3772.23625,5488.26035 C3761.54137,5450.81973 3734.80416,5443.68814 3779.36621,5429.42521 L3784.71366,5493.60901 Z M3962.96151,4218.84581 C3973.6564,4224.19447 3996.82869,4234.89179 3998.61121,4247.37204 C3998.61121,4256.28643 3973.6564,4272.33229 3980.78636,4266.98362 C3991.48125,4259.85229 3995.04616,4238.45752 4007.52357,4240.24045 C4018.21845,4243.80618 4005.74105,4266.98362 4014.65353,4274.11521 C4021.78325,4279.46387 4025.34842,4259.85229 4032.47838,4258.06936 C4059.21547,4250.93777 4119.81973,4261.63509 4155.4693,4266.98362 C4169.72923,4268.76668 4189.33635,4256.28643 4198.24883,4266.98362 C4207.16119,4275.89827 4183.98891,4284.81253 4178.64159,4295.50985 C4175.07667,4306.20718 4178.64159,4316.9045 4175.07667,4327.60182 C4171.51175,4336.51633 4059.21547,4404.26599 4037.82582,4420.31197 C4002.17613,4447.05515 4053.86803,4416.74599 4071.69275,4431.00929 C4078.82271,4434.5749 4062.78039,4441.70649 4055.65042,4447.05515 C4050.30298,4452.40381 4046.73806,4461.3182 4037.82582,4463.10113 C4034.26066,4463.10113 4037.82582,4450.62088 4034.26066,4450.62088 C4027.13069,4448.83807 4021.78325,4455.96954 4016.43593,4457.75247 C4003.95865,4463.10113 4002.17613,4448.83807 3996.82869,4461.3182 C3982.56876,4493.41029 4016.43593,4504.10761 4025.34842,4493.41029 C4027.13069,4489.84443 4018.21845,4484.49577 4021.78325,4484.49577 C4030.69586,4482.71296 4039.6081,4489.84443 4050.30298,4489.84443 C4069.91035,4488.06162 4094.86504,4466.66686 4119.81973,4472.01552 C4132.29713,4473.79845 4142.99202,4486.2787 4155.4693,4489.84443 C4185.77155,4498.75895 4285.5903,4496.97602 4301.63263,4532.63371 C4305.19767,4543.33103 4306.98007,4554.02835 4303.41515,4564.72567 L4262.41801,4605.7319 C4257.07069,4612.86349 4253.50577,4621.77801 4251.72325,4630.6924 C4249.94073,4634.25813 4253.50577,4637.82399 4251.72325,4639.60679 C4237.46345,4666.35022 4162.59926,4771.54037 4139.42697,4773.32318 C4103.77753,4776.88903 4091.30012,4759.06012 4060.99787,4782.23769 C4055.65042,4785.80342 4071.69275,4787.58635 4077.04032,4785.80342 C4091.30012,4784.0205 4103.77753,4775.1061 4116.25468,4773.32318 C4141.20949,4771.54037 4121.60237,4789.36928 4123.38465,4794.71794 C4128.73209,4807.19794 4151.90438,4810.76392 4150.12186,4823.24392 C4144.77441,4862.46747 4107.34245,4828.59258 4096.64756,4830.37551 C4041.39062,4839.29003 4141.20949,4862.46747 4025.34842,4853.55308 C4023.5659,4853.55308 4023.5659,4873.16479 4025.34842,4873.16479 C4037.82582,4878.51358 4023.5659,4867.81613 4036.0433,4869.59906 C4050.30298,4873.16479 4080.60524,4896.34224 4096.64756,4885.64492 C4103.77753,4880.29638 4105.5598,4867.81613 4112.68976,4864.2504 C4116.25468,4862.46747 4183.98891,4912.38822 4191.11887,4919.51981 C4203.59628,4928.43432 4208.94372,4973.00653 4221.42112,4987.26946 C4228.55096,4994.40105 4239.24585,4996.18385 4244.59329,5003.31544 C4246.37581,5006.88118 4242.81089,5010.44703 4242.81089,5015.79569 C4241.02837,5026.49301 4241.02837,5038.97326 4241.02837,5049.67058 C4242.81089,5081.76242 4255.2883,5213.69587 4265.98318,5240.4393 C4267.76545,5244.00503 4271.33062,5233.30771 4274.89542,5235.09064 C4282.02538,5236.87344 4287.37282,5245.78796 4294.50266,5249.35369 C4326.58744,5268.96528 4319.45748,5252.91942 4349.75973,5290.36005 C4360.45449,5302.84017 4355.10717,5324.23494 4364.01941,5338.49799 C4372.93177,5358.10958 4397.88658,5340.28092 4397.88658,5375.93849 C4397.88658,5386.63581 4378.27921,5386.63581 4376.49681,5397.33313 C4369.36685,5425.85923 4403.23402,5466.86571 4410.36399,5491.82596 C4419.27622,5525.70085 4390.75662,5475.7801 4388.97422,5513.22085 C4388.97422,5522.13512 4453.1434,5589.88477 4421.05887,5623.75966 C4396.10406,5648.72004 4385.40918,5620.19381 4367.58433,5664.76589 C4365.80193,5670.11455 4380.06173,5662.98321 4383.62665,5666.54882 C4390.75662,5671.89748 4392.53914,5682.5948 4397.88658,5687.94346 C4403.23402,5693.29212 4412.14626,5702.20664 4417.4937,5698.64078 C4453.1434,5675.46321 4426.40631,5652.28589 4463.83828,5657.63455 C4524.44254,5666.54882 4622.47902,5693.29212 4604.65417,5789.56801 C4599.30673,5819.87717 4558.30971,5900.10682 4528.00759,5910.80414 C4517.31258,5914.37 4501.27025,5892.97523 4497.70533,5901.88975 C4481.66313,5933.98171 4565.43968,5925.06732 4494.14054,5944.67903 C4488.79309,5946.46196 4485.22805,5942.8961 4479.88061,5939.33037 C4478.09821,5939.33037 4478.09821,5935.76464 4476.31569,5935.76464 C4462.05576,5937.54744 4440.66599,5933.98171 4433.53628,5944.67903 C4428.18859,5955.37635 4460.27336,5941.1133 4467.4032,5950.02769 C4474.53317,5957.15928 4469.18572,5971.42221 4463.83828,5980.33673 C4449.57848,6003.51429 4410.36399,5987.46819 4390.75662,5994.59978 C4385.40918,5996.38271 4371.14937,6001.73137 4376.49681,6005.2971 C4378.27921,6005.2971 4429.97111,5989.25112 4428.18859,6012.42869 C4426.40631,6021.34308 4406.79894,6010.64576 4399.6691,6015.99442 C4394.32166,6021.34308 4413.92891,6030.2576 4421.05887,6026.69174 C4424.62367,6023.12601 4424.62367,6012.42869 4429.97111,6012.42869 C4437.10107,6010.64576 4444.23104,6017.77735 4451.36088,6023.12601 C4476.31569,6046.30358 4399.6691,6033.82333 4451.36088,6042.73784 C4476.31569,6046.30358 4503.05277,6026.69174 4529.78998,6037.38918 C4536.91995,6039.17186 4519.0951,6048.08651 4517.31258,6055.21784 C4513.74766,6067.69809 4515.53018,6080.17834 4513.74766,6094.4414 C4508.40022,6112.2703 4476.31569,6105.13872 4458.49084,6114.05323 C4451.36088,6119.40189 4456.70832,6137.23068 4447.79596,6140.79641 C4415.71143,6151.49373 4431.75363,6122.9675 4412.14626,6135.44775 C4392.53914,6147.928 4374.71429,6142.57934 4355.10717,6151.49373 C4346.19456,6155.05946 4342.62976,6169.32264 4331.93488,6169.32264 C4315.89256,6169.32264 4287.37282,6139.01348 4271.33062,6135.44775 C4258.85322,6133.66482 4169.72923,6155.05946 4164.38178,6135.44775 C4162.59926,6126.53348 4187.55407,6133.66482 4169.72923,6121.18457 C4159.03434,6114.05323 4164.38178,6130.09909 4160.81674,6135.44775 C4157.25182,6137.23068 4151.90438,6133.66482 4150.12186,6130.09909 C4150.12186,6124.75055 4162.59926,6119.40189 4157.25182,6119.40189 C4151.90438,6117.61896 4146.55694,6130.09909 4141.20949,6128.31616 C4135.86205,6126.53348 4146.55694,6117.61896 4142.99202,6112.2703 C4130.51461,6096.22432 4137.64457,6128.31616 4132.29713,6126.53348 C4110.90724,6119.40189 4094.86504,6083.74407 4089.5176,6089.09273 C4082.38776,6098.00725 4103.77753,6110.48725 4101.995,6121.18457 C4100.21248,6139.01348 4000.39361,6115.83591 3996.82869,6121.18457 C3991.48125,6130.09909 4009.30609,6142.57934 4007.52357,6153.27666 C4005.74105,6158.62532 3996.82869,6151.49373 3991.48125,6151.49373 L3989.69872,6151.49373 C3980.78636,6146.14507 3952.26675,6126.53348 3943.35439,6130.09909 C3932.65938,6135.44775 3936.22443,6151.49373 3930.87699,6160.40812 C3927.31194,6163.97398 3934.44191,6149.7108 3932.65938,6144.36214 C3929.09446,6135.44775 3920.1821,6128.31616 3911.26962,6121.18457 C3888.09733,6098.00725 3820.36323,6081.96127 3788.27858,6094.4414 C3788.27858,6094.4414 3768.67133,6180.01996 3741.93412,6192.50021 C3720.54448,6201.41448 3683.11226,6149.7108 3668.85246,6142.57934 C3659.93997,6137.23068 3686.6773,6158.62532 3663.50501,6153.27666 C3642.11537,6147.928 3611.81312,6126.53348 3586.85855,6133.66482 C3577.94594,6135.44775 3581.51086,6151.49373 3574.38115,6155.05946 C3563.68627,6158.62532 3551.20886,6151.49373 3538.73145,6151.49373 C3536.94893,6151.49373 3535.16653,6151.49373 3533.38401,6153.27666 C3529.81909,6162.19105 3508.42945,6206.76314 3501.29936,6206.76314 C3490.6046,6204.98021 3495.95204,6181.80289 3488.82208,6172.88837 C3478.12719,6155.05946 3435.34766,6167.53971 3435.34766,6147.928 C3435.34766,6135.44775 3506.6468,6131.88214 3508.42945,6131.88214 C3515.55916,6130.09909 3522.68913,6122.9675 3528.03657,6115.83591 C3531.60149,6114.05323 3528.03657,6106.92164 3531.60149,6105.13872 C3535.16653,6101.57298 3542.2965,6106.92164 3545.86142,6105.13872 C3558.33882,6094.4414 3561.90374,6078.39541 3574.38115,6069.48102 C3579.72859,6065.91517 3588.64083,6073.04675 3593.98827,6071.26383 C3599.33571,6067.69809 3597.55331,6060.56651 3602.90076,6057.00077 C3611.81312,6048.08651 3627.85544,6046.30358 3636.76793,6035.60626 C3642.11537,6028.47467 3640.33285,5987.46819 3652.81026,5982.11953 C3659.93997,5980.33673 3667.06993,5994.59978 3674.1999,5996.38271 C3715.19679,5999.94844 3667.06993,5937.54744 3766.88881,5955.37635 C3800.75586,5960.72489 3845.31792,6007.08003 3879.18509,5980.33673 C3889.87985,5971.42221 3886.31505,5953.59355 3891.66237,5942.8961 C3893.44477,5939.33037 3979.00384,5885.84389 3989.69872,5873.36364 C4000.39361,5860.8834 3943.35439,5898.32389 3936.22443,5903.6728 C3927.31194,5907.23841 3918.39958,5909.02134 3909.48722,5910.80414 C3904.13978,5910.80414 3900.57473,5901.88975 3895.22729,5903.6728 C3850.66536,5916.1528 3861.36024,5953.59355 3807.88595,5923.28439 C3790.0611,5910.80414 3793.62589,5880.49523 3777.58369,5864.44925 C3763.32389,5850.18607 3736.5868,5882.27791 3718.76196,5873.36364 C3715.19679,5871.58072 3711.63199,5816.31118 3709.84947,5810.96252 C3708.06707,5807.39692 3706.28455,5818.09411 3702.71963,5818.09411 C3690.24222,5819.87717 3706.28455,5805.61399 3663.50501,5818.09411 C3658.1577,5818.09411 3659.93997,5828.79143 3656.37505,5832.35717 C3645.68029,5835.92302 3631.42049,5839.48875 3620.72548,5835.92302 C3611.81312,5834.14009 3595.77079,5823.44277 3599.33571,5816.31118 C3604.68315,5805.61399 3622.508,5812.74558 3633.20289,5810.96252 C3638.55033,5809.1796 3588.64083,5807.39692 3583.29339,5800.26533 C3576.16342,5789.56801 3579.72859,5775.30496 3579.72859,5762.82471 C3579.72859,5727.16701 3645.68029,5746.77885 3654.59253,5743.21287 C3665.28741,5739.64714 3667.06993,5721.81835 3679.54734,5720.03542 C3688.4597,5720.03542 3697.37219,5728.94994 3706.28455,5727.16701 C3734.80416,5720.03542 3791.84362,5671.89748 3802.5385,5646.93723 C3806.1033,5639.80564 3798.97334,5570.27306 3788.27858,5559.57574 C3757.97645,5522.13512 3724.1094,5629.10832 3711.63199,5556.01001 C3708.06707,5543.52976 3745.49904,5541.74683 3768.67133,5523.91805 C3772.23625,5518.56939 3770.45385,5509.65487 3774.01877,5504.30621 C3777.58369,5498.95767 3781.14874,5495.39194 3784.71366,5493.60901 C3791.84362,5488.26035 3798.97334,5486.47742 3804.32078,5484.69462 C3816.79818,5484.69462 3827.49307,5490.04328 3852.44788,5481.12876 C3856.0128,5479.34596 3845.31792,5466.86571 3850.66536,5468.64864 C3863.14276,5470.43144 3870.27273,5484.69462 3882.74988,5486.47742 C3907.7047,5490.04328 3913.05214,5466.86571 3930.87699,5482.91169 C3939.78935,5491.82596 3943.35439,5518.56939 3954.04928,5511.4378 C3964.74416,5504.30621 3945.13679,5484.69462 3948.70183,5472.21437 C3950.48411,5465.08278 3982.56876,5468.64864 4005.74105,5497.17462 C4011.08849,5502.52353 3991.48125,5497.17462 3984.35128,5493.60901 C3968.30896,5484.69462 3961.17899,5457.95132 3964.74416,5438.33948 C3966.52643,5427.64229 3977.22132,5418.72789 3986.1338,5411.5963 C3993.26377,5406.24764 4011.08849,5411.5963 4009.30609,5402.68179 C4005.74105,5391.98447 3984.35128,5391.98447 3980.78636,5381.28715 C3957.6142,5331.3664 4018.21845,5370.58983 4018.21845,5349.19531 C4020.00098,5338.49799 4005.74105,5343.84665 4011.08849,5331.3664 C4016.43593,5318.88615 4032.47838,5309.97176 4030.69586,5295.70871 C4028.91334,5268.96528 4007.52357,5317.10335 3982.56876,5318.88615 C3966.52643,5318.88615 3987.91633,5285.01151 3982.56876,5270.74821 C3979.00384,5263.61662 3970.09148,5285.01151 3962.96151,5283.22846 C3941.57187,5276.09687 3959.39672,5256.48528 3957.6142,5245.78796 L3936.22443,5201.21587 C3934.44191,5179.82111 3993.26377,5120.98584 3995.04616,5120.98584 C3998.61121,5122.7689 3996.82869,5131.68317 4000.39361,5129.90024 C4014.65353,5126.33451 4034.26066,5122.7689 4037.82582,5110.28865 C4041.39062,5099.59133 4016.43593,5110.28865 4005.74105,5108.50572 C3998.61121,5106.72292 3991.48125,5097.8084 3982.56876,5099.59133 C3971.87388,5103.15706 3966.52643,5117.42024 3955.83155,5120.98584 C3946.91931,5124.55158 3936.22443,5117.42024 3927.31194,5119.20292 C3916.61706,5122.7689 3911.26962,5131.68317 3902.35725,5135.2489 C3898.79233,5137.03183 3893.44477,5137.03183 3891.66237,5133.46609 C3889.87985,5128.11756 3900.57473,5119.20292 3895.22729,5117.42024 C3889.87985,5115.63731 3891.66237,5128.11756 3888.09733,5131.68317 C3886.31505,5133.46609 3882.74988,5131.68317 3880.96761,5129.90024 C3872.055,5119.20292 3872.055,5092.45974 3852.44788,5088.89401 C3827.49307,5083.54535 3861.36024,5113.85426 3843.53539,5142.38049 C3836.40555,5153.07781 3827.49307,5124.55158 3820.36323,5113.85426 C3768.67133,5046.1046 3822.14563,5124.55158 3752.62901,5083.54535 C3734.80416,5072.84803 3777.58369,5081.76242 3775.8013,5072.84803 C3774.01877,5031.84167 3781.14874,5035.40728 3806.1033,5006.88118 C3852.44788,4955.17762 3774.01877,5015.79569 3831.05811,4964.09189 C3836.40555,4958.74336 3848.88284,4958.74336 3852.44788,4951.61177 C3859.57784,4939.13164 3825.71067,4898.12517 3823.92815,4894.55956 C3822.14563,4889.2109 3832.84051,4889.2109 3834.62303,4883.86224 C3839.97047,4871.38199 3834.62303,4855.33601 3839.97047,4841.07283 C3847.10044,4825.02685 3861.36024,4842.85576 3877.40244,4849.98735 C3936.22443,4876.73065 3847.10044,4833.94137 3847.10044,4830.37551 C3841.753,4819.67819 3847.10044,4805.41526 3848.88284,4791.15208 C3848.88284,4782.23769 3856.0128,4771.54037 3850.66536,4764.40878 C3848.88284,4762.62585 3777.58369,4801.8494 3772.23625,4807.19794 C3757.97645,4819.67819 3781.14874,4844.63869 3777.58369,4864.2504 C3775.8013,4871.38199 3761.54137,4869.59906 3756.19393,4874.94772 C3752.62901,4878.51358 3749.06396,4883.86224 3749.06396,4889.2109 C3747.28156,4894.55956 3750.84648,4901.6909 3749.06396,4905.25675 C3743.71652,4919.51981 3729.45684,4926.6514 3724.1094,4940.91445 C3722.32675,4944.4803 3733.02164,4951.61177 3729.45684,4953.3947 C3716.97943,4960.52629 3700.93711,4965.87495 3686.6773,4960.52629 C3675.98242,4955.17762 3700.93711,4940.91445 3706.28455,4932.00006 C3716.97943,4917.73688 3713.41451,4894.55956 3724.1094,4880.29638 L3761.54137,4848.20442 C3757.97645,4839.29003 3738.36908,4851.77015 3734.80416,4842.85576 C3731.23936,4835.72417 3782.93113,4805.41526 3757.97645,4800.0666 C3747.28156,4796.50074 3741.93412,4823.24392 3733.02164,4817.89526 C3722.32675,4808.98099 3757.97645,4801.8494 3765.10641,4789.36928 C3772.23625,4775.1061 3766.88881,4743.01414 3772.23625,4730.53402 C3775.8013,4719.8367 3784.71366,4709.13938 3793.62589,4707.35645 C3802.5385,4705.57364 3818.58071,4725.18536 3818.58071,4716.27096 C3818.58071,4707.35645 3798.97334,4707.35645 3793.62589,4698.44206 C3781.14874,4673.48156 3854.2304,4661.00156 3856.0128,4661.00156 C3861.36024,4655.6529 3832.84051,4662.78424 3832.84051,4655.6529 C3832.84051,4644.95533 3850.66536,4643.17265 3854.2304,4632.47533 C3857.79532,4627.12667 3843.53539,4636.04106 3838.18795,4641.38972 C3825.71067,4650.30399 3827.49307,4653.86997 3816.79818,4659.21863 C3793.62589,4671.69875 3772.23625,4691.31047 3756.19393,4684.17888 C3757.97645,4687.74473 3759.75885,4689.52754 3763.32389,4691.31047 C3765.10641,4694.8762 3772.23625,4698.44206 3768.67133,4702.00779 C3754.4114,4714.48804 3683.11226,4739.44829 3670.63485,4714.48804 C3668.85246,4712.70511 3670.63485,4707.35645 3672.41738,4707.35645 C3708.06707,4693.0934 3679.54734,4746.57987 3724.1094,4685.96181 C3752.62901,4648.52131 3640.33285,4668.1329 3720.54448,4641.38972 C3724.1094,4648.52131 3727.67419,4655.6529 3733.02164,4661.00156 C3734.80416,4664.56717 3738.36908,4668.1329 3741.93412,4669.91583 C3738.36908,4664.56717 3734.80416,4657.43558 3733.02164,4648.52131 C3731.23936,4643.17265 3745.49904,4648.52131 3750.84648,4648.52131 C3765.10641,4648.52131 3779.36621,4655.6529 3791.84362,4650.30399 C3807.88595,4643.17265 3695.58967,4644.95533 3709.84947,4623.56081 C3720.54448,4609.29776 3766.88881,4628.90947 3770.45385,4621.77801 C3777.58369,4603.9491 3725.89192,4582.55458 3775.8013,4570.07433 C3788.27858,4566.5086 3800.75586,4582.55458 3815.01591,4578.9886 C3863.14276,4568.2914 3802.5385,4536.19944 3802.5385,4536.19944 C3807.88595,4523.71919 3834.62303,4539.76518 3843.53539,4529.06785 C3852.44788,4518.37053 3845.31792,4500.54162 3845.31792,4486.2787 C3845.31792,4475.58138 3847.10044,4464.88406 3843.53539,4457.75247 C3841.753,4454.18673 3782.93113,4391.78574 3822.14563,4375.73976 C3831.05811,4370.3911 3832.84051,4404.26599 3843.53539,4400.70013 C3857.79532,4397.1344 3838.18795,4356.12792 3859.57784,4368.60817 C3888.09733,4384.65415 3889.87985,4386.43708 3889.87985,4384.65415 C3895.22729,4361.47658 3875.62017,4359.6939 3877.40244,4336.51633 C3877.40244,4327.60182 3900.57473,4347.21365 3904.13978,4338.29901 C3911.26962,4325.81901 3895.22729,4309.77303 3897.00981,4297.29278 C3897.00981,4291.94412 3902.35725,4306.20718 3907.7047,4306.20718 C3920.1821,4311.55584 3939.78935,4322.25316 3948.70183,4311.55584 C3955.83155,4302.64144 3930.87699,4293.72693 3927.31194,4283.02961 C3918.39958,4252.7207 3945.13679,4275.89827 3945.13679,4275.89827 C3948.70183,4272.33229 3939.78935,4265.20095 3941.57187,4261.63509 C3945.13679,4259.85229 3954.04928,4268.76668 3954.04928,4265.20095 C3954.04928,4259.85229 3941.57187,4256.28643 3943.35439,4250.93777 C3945.13679,4238.45752 3955.83155,4229.54313 3962.96151,4218.84581 L3962.96151,4218.84581 Z M4490.57537,3881.88033 C4490.57537,3887.22899 4494.14054,3890.79497 4492.35801,3894.36058 C4490.57537,3897.92656 4481.66313,3892.57765 4481.66313,3896.14351 C4479.88061,3905.0579 4497.70533,3887.22899 4506.61769,3889.01192 C4511.96514,3890.79497 4497.70533,3897.92656 4494.14054,3903.2751 C4494.14054,3905.0579 4501.27025,3910.40656 4499.48798,3912.18949 C4495.92281,3913.97242 4488.79309,3905.0579 4487.01057,3910.40656 C4487.01057,3913.97242 4497.70533,3913.97242 4497.70533,3919.32108 C4499.48798,3935.36706 4476.31569,3930.0184 4478.09821,3935.36706 C4479.88061,3958.54463 4481.66313,3976.37329 4446.01343,4013.81404 C4444.23104,4017.37977 4447.79596,4006.68245 4449.57848,4003.11672 C4460.27336,3979.93915 4479.88061,3940.71572 4470.96825,3935.36706 C4463.83828,3928.23547 4456.70832,3954.97877 4447.79596,3949.63011 C4435.31855,3944.28145 4429.97111,3928.23547 4426.40631,3915.75522 C4424.62367,3912.18949 4431.75363,3913.97242 4435.31855,3912.18949 C4449.57848,3910.40656 4463.83828,3913.97242 4476.31569,3908.62376 C4485.22805,3903.2751 4485.22805,3890.79497 4490.57537,3881.88033 L4490.57537,3881.88033 Z M4253.50577,4202.79983 C4230.33348,4249.15484 4123.38465,4149.31322 4198.24883,4143.96456 C4208.94372,4143.96456 4219.6386,4156.44481 4219.6386,4168.92506 C4221.42112,4176.05665 4198.24883,4174.27372 4201.81375,4179.62238 C4207.16119,4190.3197 4223.20352,4190.3197 4233.8984,4193.88531 C4239.24585,4197.45129 4246.37581,4199.23397 4253.50577,4202.79983 L4253.50577,4202.79983 Z M3491.4838,4987.72117 C3502.17868,4982.37251 3505.7436,4964.5436 3516.43848,4959.19506 C3527.13349,4952.0636 3539.61077,4968.10958 3550.30553,4966.32665 C3562.78294,4966.32665 3571.69555,4957.41226 3582.39031,4959.19506 C3594.86759,4960.97799 3601.99756,4973.45824 3612.69244,4977.02384 C3618.03988,4980.58983 3628.73464,4973.45824 3630.51729,4978.80677 C3637.64725,4991.28702 3641.21205,5009.11581 3637.64725,5023.37898 C3637.64725,5028.72764 3630.51729,5030.51057 3630.51729,5034.0763 C3650.12441,5110.74035 3641.21205,5010.89873 3662.60181,5078.64839 C3669.73178,5098.2601 3623.38732,5125.00353 3623.38732,5125.00353 C3653.68945,5117.87194 3685.7741,5094.69437 3680.42666,5166.00976 C3673.2967,5235.54234 3623.38732,5198.10184 3609.12752,5214.14783 C3596.65011,5226.62783 3605.56248,5255.15406 3573.47782,5249.8054 C3566.34786,5249.8054 3561.00042,5242.67393 3555.65298,5237.32515 L3548.52326,5228.41075 C3536.04162,5222.06413 3559.21814,5253.37125 3498.61376,5231.97649 C3489.70128,5230.19368 3502.17868,5214.14783 3505.7436,5205.23318 C3507.52612,5192.75294 3489.70128,5196.31892 3486.13636,5189.18733 C3477.22387,5171.35842 3491.48367,5131.93265 3471.87643,5135.49838 C3451.78085,5138.30306 3444.5812,5145.46049 3442.10842,5150.7328 C3437.99337,5159.50667 3450.33164,5170.63388 3446.07139,5177.41431 C3443.12746,5182.09973 3430.64617,5183.47141 3405.92473,5185.6216 C3379.18764,5187.4044 3309.67102,5094.69437 3316.80086,5085.77998 C3318.58338,5085.77998 3388.1,5067.95107 3388.1,5067.95107 C3391.66505,5057.25387 3368.49276,5051.90521 3366.71024,5041.20789 C3363.14532,5030.51057 3409.4899,5044.77362 3414.83721,5041.20789 C3443.35694,5023.37898 3432.66194,4978.80677 3471.87643,4978.80677 C3477.22387,4985.93849 3484.35383,4991.28702 3491.4838,4987.72117 Z M3811.45074,4240.24045 C3802.5385,4254.50362 3777.58369,4268.76668 3774.01877,4279.46387 C3772.23625,4288.37827 3770.45385,4338.29901 3747.28156,4338.29901 C3734.80416,4336.51633 3736.5868,4316.9045 3727.67419,4307.9901 C3716.97943,4300.85851 3731.23936,4338.29901 3720.54448,4343.64792 C3715.19679,4345.4306 3708.06707,4336.51633 3704.50203,4340.08207 C3692.02475,4347.21365 3690.24222,4372.1739 3675.98242,4372.1739 C3663.50501,4372.1739 3652.81026,4350.77926 3659.93997,4340.08207 C3667.06993,4327.60182 3697.37219,4348.99658 3702.71963,4334.7334 C3708.06707,4322.25316 3677.76482,4320.47035 3672.41738,4306.20718 C3670.63485,4300.85851 3684.89478,4302.64144 3688.4597,4299.07571 C3690.24222,4297.29278 3683.11226,4299.07571 3683.11226,4297.29278 C3679.54734,4290.16119 3677.76482,4283.02961 3679.54734,4275.89827 C3695.58967,4231.32606 3708.06707,4272.33229 3733.02164,4277.68095 C3734.80416,4277.68095 3724.1094,4250.93777 3729.45684,4245.58911 C3747.28156,4224.19447 3747.28156,4243.80618 3765.10641,4242.02338 C3766.88881,4240.24045 3766.88881,4234.89179 3768.67133,4234.89179 C3779.36621,4225.9774 3790.0611,4211.71422 3802.5385,4213.49715 C3811.45074,4215.28007 3807.88595,4231.32606 3811.45074,4240.24045 L3811.45074,4240.24045 Z" id="uk" fill="#87B024"></path>
                        <path d="M5698.07327,7027.91915 C5698.07327,7040.3994 5721.24556,7043.965 5714.1156,7061.79391 C5712.3332,7065.35964 5705.20324,7063.57684 5703.42071,7065.35964 C5701.63844,7070.7083 5696.291,7084.97148 5690.94356,7101.01746 L5699.85592,7120.62905 L5699.85592,7142.02369 C5717.68064,7143.80662 5746.20037,7147.37248 5747.98277,7147.37248 C5751.54782,7150.93821 5742.63533,7156.28687 5746.20037,7159.8526 C5755.11274,7170.54992 5765.80762,7177.68151 5778.28503,7183.03017 C5806.80463,7197.29335 5812.15207,7149.15528 5831.75932,7152.72114 C5869.19141,7158.0698 5829.97692,7177.68151 5842.45408,7183.03017 C5870.97381,7197.29335 5846.01925,7179.46444 5874.53886,7183.03017 C5888.79866,7184.8131 5903.05859,7222.2536 5931.57807,7206.20762 L5954.75036,7158.0698 C5969.01029,7147.37248 6031.39694,7154.50394 6047.43939,7152.72114 C6074.1766,7150.93821 6095.56625,7127.76064 6122.30346,7127.76064 C6129.43342,7127.76064 6109.82605,7136.67503 6108.04365,7143.80662 C6099.13117,7181.24712 6122.30346,7156.28687 6136.56338,7177.68151 C6140.1283,7183.03017 6131.21594,7190.16176 6134.78086,7197.29335 C6136.56338,7200.85896 6141.91083,7193.72737 6145.47575,7197.29335 C6179.3428,7222.2536 6188.25516,7225.81933 6234.59974,7232.95092 C6288.07403,7240.08251 6343.33085,7241.86543 6398.58791,7250.77983 C6412.84759,7252.56275 6427.1074,7263.26007 6441.36733,7265.04275 C6455.62713,7266.82568 6469.88706,7256.12849 6484.14674,7257.91141 C6493.05922,7259.69409 6498.40666,7272.17434 6507.31903,7272.17434 C6510.88395,7273.9574 6509.10155,7263.26007 6512.66647,7261.47715 C6521.57883,7252.56275 6535.83876,7248.9969 6544.75099,7238.29958 C6551.88096,7232.95092 6546.53364,7220.47067 6551.88096,7215.12201 C6585.74813,7188.37871 6621.39783,7222.2536 6653.48236,7207.99054 C6664.17724,7202.64201 6665.95976,7186.59578 6676.65465,7183.03017 C6678.43704,7181.24712 6737.2589,7190.16176 6739.0413,7188.37871 C6744.38874,7186.59578 6733.69386,7179.46444 6731.91146,7174.11578 C6728.34642,7156.28687 6735.47638,7145.58955 6747.95379,7142.02369 L6747.95379,7142.02369 C6780.03831,7106.36612 6794.29837,7101.01746 6810.34057,7074.27416 C6813.90549,7067.14257 6781.82096,7029.70207 6790.7332,7011.87317 C6803.2106,6986.91267 6833.51273,7013.65609 6829.94781,6977.99828 C6828.16529,6947.68924 6774.691,6951.2551 6785.38576,6942.34058 C6810.34057,6920.94594 6874.50975,6949.47217 6885.20463,6929.86046 C6886.98715,6922.72887 6862.03234,6865.67653 6886.98715,6854.97921 C6865.59739,6831.80164 6847.77266,6808.62407 6831.73034,6781.8809 C6817.47041,6758.70333 6869.16231,6721.26283 6831.73034,6694.51953 C6826.38289,6690.95367 6819.25293,6701.65112 6813.90549,6701.65112 C6804.99313,6699.86819 6787.16828,6676.69062 6774.691,6680.25635 C6765.77864,6683.82221 6762.21359,6698.08526 6751.51871,6703.43392 C6744.38874,6705.21685 6735.47638,6701.65112 6728.34642,6701.65112 C6680.21956,6696.30233 6639.22243,6657.07903 6587.53065,6657.07903 C6578.61817,6657.07903 6571.48833,6667.77623 6562.57584,6667.77623 C6559.01092,6665.9933 6562.57584,6657.07903 6559.01092,6655.2961 C6551.88096,6651.73012 6541.1862,6648.16451 6535.83876,6653.51305 C6534.05624,6657.07903 6537.62128,6708.78258 6534.05624,6712.34844 C6530.49132,6717.6971 6518.01391,6705.21685 6510.88395,6710.56551 L6496.62414,6756.92052 C6484.14674,6760.48626 6471.66933,6744.44028 6459.19217,6744.44028 C6452.06221,6744.44028 6453.84473,6758.70333 6446.71477,6760.48626 C6409.28267,6774.74931 6387.89278,6737.30869 6359.3733,6723.04576 L6357.59078,6723.04576 C6359.3733,6728.39442 6361.1557,6733.74308 6361.1557,6739.09162 C6359.3733,6787.22956 6348.67841,6776.53224 6311.2462,6767.61784 C6307.6814,6767.61784 6304.11648,6769.40065 6302.33396,6772.96651 C6298.76892,6790.79541 6309.46392,6810.407 6291.63908,6824.67006 C6275.59675,6837.1503 6200.73256,6854.97921 6198.95004,6883.50544 C6198.95004,6883.50544 6241.7297,6942.34058 6241.7297,6944.12351 C6243.51197,6945.90644 6218.55741,6967.30096 6227.46977,6974.43267 C6247.07714,6992.26133 6266.68426,6965.51803 6250.64194,7024.35341 C6250.64194,7027.91915 6247.07714,7033.26781 6243.51197,7033.26781 C6186.47276,7017.22183 6231.03482,6988.6956 6204.29748,6986.91267 C6190.03768,6986.91267 6177.56027,6999.39292 6163.30059,6997.60999 C6156.17063,6995.82718 6157.95315,6983.34694 6152.60571,6981.56401 C6141.91083,6977.99828 6131.21594,6986.91267 6122.30346,6983.34694 C6118.73854,6981.56401 6125.8685,6970.86669 6122.30346,6970.86669 C6100.91369,6972.64962 6120.52093,7001.17584 6115.17349,7002.95865 C6090.21881,7010.09024 6049.22179,6999.39292 6026.0495,7008.30731 C6018.91966,7011.87317 6022.48458,7024.35341 6015.35462,7027.91915 C6008.2249,7033.26781 5999.31242,7024.35341 5992.18258,7029.70207 C5986.83501,7031.48475 5993.96498,7040.3994 5990.40006,7043.965 C5988.61753,7045.74806 5928.01327,7061.79391 5920.88319,7058.22818 C5917.31839,7054.66232 5920.88319,7045.74806 5917.31839,7042.18207 C5915.53587,7038.61634 5906.62351,7038.61634 5904.84098,7035.05073 C5903.05859,7031.48475 5913.75347,7033.26781 5911.97095,7029.70207 C5904.84098,7006.52451 5854.93149,7035.05073 5840.67181,7019.00475 C5840.67181,7019.00475 5844.23673,7017.22183 5844.23673,7015.4389 C5833.54184,7008.30731 5844.23673,7038.61634 5840.67181,7051.09659 C5840.67181,7058.22818 5806.80463,7099.23453 5794.32723,7086.75429 C5787.19726,7079.62282 5806.80463,7068.9255 5801.45719,7061.79391 C5799.67467,7060.01098 5794.32723,7067.14257 5790.76231,7067.14257 C5787.19726,7067.14257 5781.84982,7065.35964 5780.06755,7061.79391 C5776.50238,7056.44525 5788.97978,7049.31366 5780.06755,7042.18207 C5772.93758,7036.83341 5769.37266,7027.91915 5762.2427,7024.35341 C5756.89526,7020.78756 5749.76529,7029.70207 5742.63533,7027.91915 C5739.07041,7024.35341 5742.63533,7015.4389 5739.07041,7011.87317 C5730.15805,7004.74158 5731.94045,7036.83341 5703.42071,7027.91915 C5701.63844,7026.13622 5699.85592,7026.13622 5698.07327,7026.13622 L5698.07327,7027.91915 L5698.07327,7027.91915 Z" id="at" fill="#87B024"></path>
                        <path d="M5213.23895,6560.80315 C5204.32659,6557.23729 5193.63171,6551.88863 5182.93682,6551.88863 C5174.02434,6551.88863 5165.11198,6560.80315 5154.41722,6560.80315 C5152.63469,6562.58583 5154.41722,6555.45449 5152.63469,6553.67156 C5145.50486,6550.10583 5138.37489,6546.53997 5129.4624,6542.97424 L5131.24493,6535.84265 C5170.45942,6539.40851 5116.98512,6469.87592 5122.33257,6453.82994 C5129.4624,6434.21835 5165.11198,6368.25138 5184.71922,6402.12627 C5182.93682,6411.04078 5181.1543,6419.95505 5184.71922,6434.21835 C5193.63171,6471.65885 5236.41112,6475.22458 5239.97629,6480.57324 C5264.93085,6510.88228 5193.63171,6525.14533 5213.23895,6560.80315 L5213.23895,6560.80315 Z" id="lu" fill="#FFFFFF"></path>
                        <path d="M4714.14471,6232.75219 C4728.40451,6232.75219 4737.317,6207.79169 4748.01188,6213.14035 C4771.18417,6222.05487 4760.48929,6263.0611 4767.619,6277.3244 C4778.31389,6302.28465 4817.5285,6273.75842 4822.87594,6302.28465 C4824.65846,6309.41624 4819.31102,6318.33063 4821.09354,6325.46222 C4824.65846,6339.72515 4897.74013,6321.89649 4901.30505,6352.2054 C4901.30505,6362.90272 4887.04525,6371.81723 4887.04525,6382.51455 C4885.26272,6389.64614 4899.52265,6389.64614 4899.52265,6394.9948 C4899.52265,6403.90919 4890.61017,6409.25785 4885.26272,6418.17212 C4879.91528,6428.86944 4938.73727,6443.13262 4963.69183,6419.95505 C4976.16924,6409.25785 4986.86412,6377.16589 4999.34153,6387.86321 C5002.90645,6391.42895 4993.99408,6396.77761 4992.21156,6402.12627 C4990.42904,6409.25785 4983.2992,6416.38944 4983.2992,6425.30371 C4983.2992,6432.4353 4993.99408,6434.21835 4995.77636,6441.34969 C4995.77636,6450.26421 4981.51668,6460.96153 4988.64664,6468.09299 C4995.77636,6478.79044 5013.6012,6473.44165 5026.07861,6478.79044 C5033.20857,6484.1391 5034.99097,6494.83642 5042.12094,6500.18508 C5043.90346,6501.96776 5049.2509,6494.83642 5052.81582,6496.6191 C5056.38086,6498.40215 5058.16326,6501.96776 5059.94578,6505.53374 C5059.94578,6507.31642 5051.0333,6510.88228 5052.81582,6512.66508 C5058.16326,6516.23094 5067.07575,6512.66508 5070.64067,6518.01374 C5075.98811,6525.14533 5068.85815,6541.19131 5077.77063,6544.75717 C5088.46552,6550.10583 5100.9428,6537.62558 5113.42008,6539.40851 C5118.76752,6539.40851 5124.11496,6541.19131 5129.4624,6542.97424 C5138.37489,6546.53997 5145.50486,6550.10583 5152.63469,6553.67156 C5154.41722,6555.45449 5152.63469,6562.58583 5154.41722,6560.80315 C5165.11198,6560.80315 5174.02434,6551.88863 5182.93682,6551.88863 C5193.63171,6551.88863 5204.32659,6557.23729 5213.23895,6560.80315 C5216.804,6566.15181 5227.49888,6560.80315 5232.84632,6566.15181 C5247.106,6575.06607 5256.01849,6616.07255 5273.84321,6633.90146 C5295.2331,6657.07903 5259.58341,6583.98072 5313.0577,6632.11853 C5316.62287,6635.68427 5309.49291,6642.81585 5311.27543,6648.16451 C5314.84023,6653.51305 5371.87969,6630.33561 5380.79205,6637.46719 C5386.13937,6642.81585 5382.57457,6653.51305 5387.92201,6658.86171 C5395.05198,6664.21037 5502.00069,6676.69062 5494.87073,6689.17087 C5475.26336,6723.04576 5439.61391,6744.44028 5425.35398,6772.96651 C5420.00654,6785.44663 5418.22414,6824.67006 5416.44162,6835.3675 L5391.48681,6876.37385 C5387.92201,6885.28837 5384.35709,6894.20264 5386.13937,6903.11703 C5386.13937,6908.46569 5393.26933,6908.46569 5393.26933,6912.03155 C5391.48681,6936.99192 5373.66221,6960.16937 5375.44461,6985.12986 C5375.44461,7008.30731 5375.44461,7015.4389 5377.22713,7015.4389 C5316.62287,7077.83989 5338.01252,7010.09024 5288.10314,7024.35341 C5284.53822,7026.13622 5291.66806,7033.26781 5291.66806,7036.83341 C5282.7557,7043.965 5268.49577,7051.09659 5272.06081,7060.01098 C5273.84321,7068.9255 5300.58055,7051.09659 5300.58055,7060.01098 C5298.79802,7084.97148 5289.88566,7065.35964 5280.97318,7072.49123 C5264.93085,7084.97148 5250.67105,7120.62905 5238.19377,7131.32637 C5227.49888,7143.80662 5202.54407,7138.45796 5195.41423,7152.72114 C5190.06679,7165.20126 5200.76167,7181.24712 5195.41423,7191.94469 C5188.28427,7211.55628 5156.19974,7211.55628 5143.72233,7229.38518 C5122.33257,7256.12849 5145.50486,7281.08898 5136.59237,7309.61496 C5134.80985,7314.96362 5116.98512,7306.04923 5116.98512,7329.2268 C5116.98512,7332.79253 5108.07264,7336.35839 5109.85516,7336.35839 C5131.24493,7341.70705 5156.19974,7332.79253 5166.89462,7311.39789 C5168.6769,7307.83216 5159.76466,7304.2663 5157.98201,7300.70057 C5157.98201,7295.35191 5156.19974,7291.78618 5159.76466,7288.22032 C5175.80686,7263.26007 5225.71636,7263.26007 5248.88852,7273.9574 C5256.01849,7275.74007 5241.75856,7286.43752 5243.54108,7291.78618 C5243.54108,7300.70057 5254.23597,7304.2663 5256.01849,7313.18082 C5257.80089,7323.87814 5232.84632,7322.09521 5243.54108,7339.92412 C5247.106,7343.48973 5257.80089,7338.14107 5259.58341,7343.48973 C5263.14833,7348.83839 5254.23597,7357.75291 5256.01849,7363.10157 C5257.80089,7366.6673 5264.93085,7355.96998 5266.71337,7359.53571 C5275.62573,7368.45023 5275.62573,7380.93048 5282.7557,7391.6278 C5200.76167,7439.76562 5247.106,7418.3711 5272.06081,7461.16026 C5275.62573,7468.29184 5268.49577,7480.77209 5273.84321,7487.90343 C5279.19078,7500.38368 5297.0155,7502.16673 5302.36294,7512.86393 C5311.27543,7528.90991 5254.23597,7575.26505 5245.32373,7577.04773 C5239.97629,7578.83066 5236.41112,7568.13346 5231.0638,7568.13346 C5222.15144,7569.91639 5206.10911,7569.91639 5206.10911,7578.83066 C5202.54407,7607.35689 5261.36593,7630.53446 5270.27829,7644.79751 C5275.62573,7655.49471 5277.40826,7669.75788 5277.40826,7684.02094 C5275.62573,7689.3696 5259.58341,7680.4552 5257.80089,7685.80386 C5256.01849,7689.3696 5261.36593,7692.93545 5259.58341,7694.71826 C5254.23597,7703.63277 5245.32373,7708.98143 5238.19377,7716.1129 C5232.84632,7726.81034 5250.67105,7732.159 5252.45344,7737.50766 C5252.45344,7741.07327 5243.54108,7741.07327 5243.54108,7744.639 C5241.75856,7769.5995 5288.10314,7803.47439 5307.71026,7808.82305 C5318.40515,7812.38866 5330.88255,7807.04 5341.57744,7807.04 C5352.27232,7805.25707 5364.74972,7798.12573 5373.66221,7803.47439 C5400.3993,7823.08598 5339.79504,7864.09246 5348.7074,7896.18429 C5346.92488,7896.18429 5316.62287,7906.88162 5313.0577,7910.44747 C5300.58055,7912.23028 5288.10314,7914.0132 5280.97318,7921.14479 C5275.62573,7926.49345 5284.53822,7938.97358 5277.40826,7944.32224 C5270.27829,7949.67102 5257.80089,7942.53943 5248.88852,7947.88809 C5241.75856,7953.23675 5243.54108,7967.49968 5234.62885,7974.63127 C5227.49888,7978.197 5218.5864,7969.28261 5211.45656,7972.84834 C5206.10911,7974.63127 5209.67403,7983.54566 5204.32659,7988.89432 C5198.97915,7996.02591 5184.71922,7997.80884 5181.1543,8006.72323 C5179.37178,8013.85482 5195.41423,8024.55214 5188.28427,8029.9008 C5179.37178,8038.81532 5161.54718,8029.9008 5149.06977,8031.68373 C5133.02745,8035.24934 5122.33257,8051.29532 5108.07264,8056.64398 C5092.03031,8061.99264 5104.50772,8037.03239 5068.85815,8035.24934 C5045.68586,8033.46641 5070.64067,8044.16398 5067.07575,8047.72959 C5063.5107,8051.29532 5056.38086,8051.29532 5051.0333,8049.51264 C5045.68586,8049.51264 5040.33841,8049.51264 5038.55602,8045.94666 C5038.55602,8042.38105 5051.0333,8033.46641 5026.07861,8020.98641 C5020.73117,8019.20348 5015.38373,8020.98641 5008.25376,8020.98641 C4995.77636,8017.42055 4981.51668,8019.20348 4972.60432,8010.28909 C4963.69183,8001.37457 4972.60432,7983.54566 4965.47435,7974.63127 C4961.90931,7969.28261 4954.77947,7981.76286 4947.6495,7981.76286 C4936.95462,7981.76286 4915.56498,7985.32859 4917.34725,7974.63127 C4919.1299,7960.36834 4951.21442,7965.717 4952.99695,7951.45383 C4952.99695,7937.19077 4933.38983,7926.49345 4920.91242,7928.27626 C4910.21754,7930.05918 4929.82466,7949.67102 4924.47721,7956.80236 C4915.56498,7965.717 4901.30505,7971.06566 4888.82777,7969.28261 C4860.30816,7967.49968 4869.2204,7917.57894 4863.87296,7924.71052 C4838.91839,7953.23675 4894.17521,7965.717 4878.13288,7972.84834 C4821.09354,7996.02591 4846.04811,7958.58541 4844.26583,7951.45383 C4842.48331,7944.32224 4780.09641,7937.19077 4774.74897,7933.62492 C4760.48929,7926.49345 4742.66444,7903.31588 4724.83959,7914.0132 C4705.23247,7924.71052 4676.71274,7960.36834 4657.10537,7971.06566 C4639.28052,7979.97993 4603.63107,7972.84834 4582.24131,8003.1575 C4578.67626,8006.72323 4587.58875,8013.85482 4587.58875,8019.20348 C4584.0237,8037.03239 4560.85141,8047.72959 4559.06902,8067.3413 C4559.06902,8072.68996 4571.54642,8070.90716 4573.32882,8076.25582 C4582.24131,8108.34778 4559.06902,8099.43339 4571.54642,8135.09096 C4575.11134,8145.78828 4585.80623,8154.70279 4596.50111,8163.61718 L4589.37114,8163.61718 C4560.85141,8156.4856 4528.76689,8140.43962 4502.02968,8158.26852 C4496.68223,8161.83426 4503.8122,8176.09743 4496.68223,8177.88036 C4478.85739,8183.22902 4448.55538,8147.5712 4430.73053,8147.5712 C4414.68821,8147.5712 4402.2108,8156.4856 4387.95112,8158.26852 C4377.25599,8160.05145 4375.47372,8140.43962 4371.90867,8136.87388 C4362.99631,8129.74229 4348.73651,8126.17656 4336.2591,8120.82803 C4354.08395,8097.65046 4350.51891,8074.47289 4304.17457,8078.03862 C4302.39205,8078.03862 4297.04461,8085.17021 4293.47957,8094.08473 C4284.5672,8086.95314 4289.91465,8070.90716 4281.00228,8063.77557 C4275.65484,8058.42691 4264.95996,8058.42691 4256.04747,8056.64398 C4252.48255,8056.64398 4247.13511,8058.42691 4245.35259,8056.64398 C4225.74547,8038.81532 4207.92062,8017.42055 4177.61837,8012.07189 C4156.2286,8008.50616 4165.14121,8049.51264 4165.14121,8049.51264 C4145.53384,8047.72959 4129.49151,8033.46641 4111.66667,8035.24934 C4106.31922,8035.24934 4106.31922,8045.94666 4100.97178,8045.94666 C4090.2769,8044.16398 4084.92958,8031.68373 4074.2347,8029.9008 C4063.53981,8028.11775 4056.40985,8038.81532 4045.71496,8037.03239 C4022.54268,8037.03239 4031.45516,8013.85482 4018.97776,8003.1575 C3994.02307,7981.76286 3970.85078,8013.85482 3947.67861,7996.02591 C3945.89609,7996.02591 3928.07124,7955.01968 3926.28872,7953.23675 C3903.11668,7935.40784 3863.90219,7944.32224 3838.94738,7921.14479 C3835.38246,7917.57894 3840.7299,7908.66454 3838.94738,7905.09881 C3835.38246,7901.53296 3824.68757,7921.14479 3813.99269,7917.57894 C3790.8204,7906.88162 3842.51217,7885.48697 3826.46997,7867.65819 C3821.12253,7860.52673 3810.42765,7856.96087 3801.51528,7855.17794 C3799.73276,7855.17794 3801.51528,7864.09246 3797.95024,7862.30953 C3797.95024,7862.30953 3778.34299,7844.48062 3767.64823,7833.7833 C3778.34299,7832.0005 3785.47296,7830.21757 3792.6028,7826.65184 C3844.29482,7801.69146 3865.68446,7630.53446 3885.29183,7577.04773 C3888.85675,7568.13346 3892.42167,7555.65321 3901.33416,7552.08748 C3908.46412,7548.52175 3924.50645,7564.56773 3928.07124,7555.65321 C3933.41868,7546.73882 3920.94128,7532.47564 3910.24652,7530.69284 C3901.33416,7528.90991 3899.55164,7553.87041 3890.63927,7550.30455 C3872.81443,7544.95589 3899.55164,7516.42966 3903.11668,7498.60075 C3910.24652,7470.07477 3929.85389,7364.88437 3949.46101,7350.62132 C3956.59097,7347.05571 3981.54566,7386.27914 3988.67563,7404.10792 C4013.63044,7457.59452 3979.76326,7407.67378 3997.58811,7464.72611 C4001.15303,7475.42343 4011.84779,7484.33783 4015.41271,7495.03515 C4017.19523,7500.38368 4010.06527,7516.42966 4015.41271,7514.64686 C4024.3252,7512.86393 4029.67264,7500.38368 4027.89012,7493.25209 C4024.3252,7482.5549 4011.84779,7478.98917 4004.71783,7470.07477 C3990.45815,7446.8972 4010.06527,7404.10792 3995.80559,7377.36462 C3988.67563,7363.10157 3976.19822,7350.62132 3965.50334,7338.14107 C3958.3735,7329.2268 3949.46101,7320.31229 3938.76613,7313.18082 C3949.46101,7316.74655 3961.93842,7320.31229 3972.6333,7314.96362 C3985.11071,7307.83216 3945.89609,7290.00325 3949.46101,7275.74007 C3953.02605,7261.47715 3969.06838,7254.34556 3970.85078,7240.08251 C3972.6333,7229.38518 3960.15589,7220.47067 3960.15589,7209.77335 C3960.15589,7197.29335 3970.85078,7184.8131 3970.85078,7172.33285 C3970.85078,7168.76712 3961.93842,7168.76712 3956.59097,7170.54992 C3953.02605,7172.33285 3956.59097,7183.03017 3953.02605,7181.24712 C3944.11357,7177.68151 3942.3313,7163.41846 3935.20133,7158.0698 C3929.85389,7156.28687 3922.72393,7163.41846 3917.37648,7159.8526 C3912.02904,7156.28687 3917.37648,7143.80662 3912.02904,7140.24089 C3879.94439,7109.93173 3897.76924,7175.89858 3867.46698,7117.06332 C3865.68446,7111.71478 3863.90219,7072.49123 3856.7721,7063.57684 C3854.98958,7061.79391 3849.64214,7063.57684 3847.85961,7061.79391 C3840.7299,7051.09659 3831.81741,7038.61634 3826.46997,7026.13622 C3819.34013,7008.30731 3854.98958,6990.47852 3858.55475,6983.34694 C3865.68446,6967.30096 3822.90505,6956.60376 3822.90505,6954.82083 C3819.34013,6942.34058 3819.34013,6935.20912 3821.12253,6929.86046 C3746.25847,6922.72887 3813.99269,6904.89996 3815.77509,6865.67653 C3817.55761,6842.49896 3742.69342,6862.1108 3740.91102,6853.19629 C3737.34598,6838.93323 3758.73575,6833.58457 3769.43076,6826.45298 C3771.21303,6824.67006 3760.51827,6830.01872 3758.73575,6828.23591 C3756.95335,6826.45298 3758.73575,6821.10432 3756.95335,6819.3214 C3751.60591,6819.3214 3749.82339,6824.67006 3744.47594,6826.45298 C3730.21614,6826.45298 3715.95621,6815.75566 3703.47881,6821.10432 C3701.69653,6822.88725 3699.91389,6824.67006 3699.91389,6826.45298 C3703.47881,6801.49273 3721.30365,6778.31517 3683.87169,6774.74931 C3664.26432,6772.96651 3669.61176,6797.92688 3655.35195,6789.01249 C3644.65707,6781.8809 3630.39739,6758.70333 3619.70226,6753.35467 C3612.57254,6751.57186 3603.66006,6758.70333 3598.31261,6753.35467 C3575.14033,6735.52576 3603.66006,6714.13124 3559.098,6717.6971 C3555.53308,6719.4799 3562.66304,6728.39442 3559.098,6730.1771 C3546.62084,6735.52576 3528.79599,6746.2232 3518.10111,6737.30869 C3507.40623,6730.1771 3518.10111,6710.56551 3514.53607,6698.08526 C3509.18862,6676.69062 3486.01633,6682.03928 3471.75653,6673.12489 C3469.97401,6671.34196 3475.32145,6665.9933 3478.8865,6665.9933 C3496.71134,6662.42769 3514.53607,6664.21037 3532.36091,6664.21037 C3535.92571,6664.21037 3544.83832,6671.34196 3544.83832,6667.77623 C3544.83832,6664.21037 3528.79599,6639.25012 3518.10111,6621.42121 C3528.79599,6626.76987 3539.49088,6623.20414 3550.18564,6624.98695 C3557.3156,6624.98695 3573.35793,6632.11853 3568.01049,6628.5528 C3555.53308,6621.42121 3534.14344,6624.98695 3528.79599,6612.50682 C3525.23095,6601.80938 3553.75056,6605.37523 3555.53308,6594.67791 C3560.88052,6573.2834 3448.58437,6655.2961 3486.01633,6559.02022 C3487.79886,6559.02022 3546.62084,6535.84265 3562.66304,6535.84265 C3582.27029,6535.84265 3537.70836,6559.02022 3580.48777,6546.53997 C3592.96517,6544.75717 3605.44258,6530.49399 3617.91998,6534.05984 C3628.61474,6537.62558 3623.26743,6559.02022 3633.96219,6562.58583 C3641.09215,6562.58583 3635.74471,6541.19131 3642.87455,6539.40851 C3655.35195,6539.40851 3664.26432,6562.58583 3676.74172,6559.02022 C3687.43661,6555.45449 3680.30677,6532.27692 3691.00165,6525.14533 C3694.56657,6521.5796 3701.69653,6532.27692 3707.04385,6532.27692 C3717.73873,6532.27692 3730.21614,6521.5796 3739.1285,6526.92826 C3748.04086,6532.27692 3740.91102,6550.10583 3749.82339,6555.45449 C3755.17083,6559.02022 3755.17083,6546.53997 3760.51827,6542.97424 C3769.43076,6535.84265 3797.95024,6612.50682 3805.0802,6626.76987 C3806.86273,6628.5528 3806.86273,6619.63829 3810.42765,6619.63829 C3821.12253,6612.50682 3831.81741,6610.72389 3844.29482,6605.37523 C3853.2073,6600.02657 3860.33702,6585.7634 3869.24951,6589.32925 C3885.29183,6596.46072 3871.0319,6658.86171 3913.81156,6641.0328 C3926.28872,6635.68427 3919.15901,6612.50682 3928.07124,6600.02657 C3936.9836,6587.54632 3938.76613,6624.98695 3949.46101,6626.76987 C3960.15589,6628.5528 3969.06838,6623.20414 3979.76326,6624.98695 C3990.45815,6624.98695 4011.84779,6641.0328 4015.41271,6630.33561 C4018.97776,6610.72389 3977.98074,6596.46072 3983.32818,6576.84913 C3986.89323,6564.36888 3990.45815,6551.88863 3995.80559,6539.40851 C3992.24067,6539.40851 3988.67563,6537.62558 3990.45815,6530.49399 C3994.02307,6518.01374 4004.71783,6503.75069 4004.71783,6489.48776 C4004.71783,6485.9219 3994.02307,6491.27044 3992.24067,6487.70483 C3988.67563,6478.79044 3992.24067,6464.52726 3986.89323,6455.61287 C3985.11071,6450.26421 3974.41582,6450.26421 3970.85078,6444.91555 C3967.28586,6434.21835 3965.50334,6419.95505 3967.28586,6409.25785 C3967.28586,6403.90919 3976.19822,6402.12627 3976.19822,6398.56053 C3976.19822,6386.08029 3969.06838,6373.60004 3967.28586,6361.11991 C3967.28586,6357.55406 3970.85078,6368.25138 3972.6333,6370.0343 C3986.89323,6377.16589 3999.37039,6384.29736 4013.63044,6387.86321 C4017.19523,6389.64614 4022.54268,6386.08029 4026.10759,6386.08029 C4040.36752,6386.08029 4054.62733,6378.9487 4067.10473,6386.08029 C4074.2347,6387.86321 4070.66953,6398.56053 4067.10473,6405.69212 C4065.32221,6409.25785 4059.97477,6407.47493 4056.40985,6411.04078 C4051.06241,6416.38944 4070.66953,6473.44165 4072.45217,6473.44165 C4145.53384,6484.1391 4040.36752,6439.56689 4097.40686,6460.96153 C4124.14407,6471.65885 4158.01125,6477.00751 4182.96581,6489.48776 C4191.87829,6494.83642 4197.22574,6507.31642 4206.1381,6509.09935 C4247.13511,6514.44801 4238.22262,6491.27044 4268.52488,6482.35617 C4275.65484,6480.57324 4282.78468,6480.57324 4291.69717,6480.57324 C4272.0898,6477.00751 4254.26508,6464.52726 4279.21976,6421.7381 C4297.04461,6393.21187 4416.47061,6389.64614 4448.55538,6371.81723 C4461.03254,6366.46857 4469.94515,6355.77138 4482.42256,6348.63979 C4493.11731,6343.29113 4512.72456,6345.07406 4518.072,6334.37649 C4523.41944,6323.67929 4503.8122,6318.33063 4502.02968,6307.63331 C4500.24715,6302.28465 4502.02968,6293.37026 4505.5946,6289.8044 C4509.15964,6286.23867 4516.28948,6293.37026 4516.28948,6289.8044 C4516.28948,6286.23867 4507.37712,6286.23867 4507.37712,6280.89001 C4507.37712,6268.40976 4521.63705,6182.83144 4525.20197,6173.91693 C4532.33193,6152.52229 4591.15367,6148.95655 4607.19599,6147.17362 C4628.58564,6145.3907 4649.9754,6143.60789 4669.58277,6140.04204 C4673.14769,6165.00253 4674.93022,6232.75219 4714.14471,6232.75219 Z M5669.55367,8085.17021 C5694.50848,8102.99912 5669.55367,8151.13694 5669.55367,8170.74877 C5669.55367,8177.88036 5685.59612,8193.92634 5683.81359,8186.79475 C5680.24867,8179.66317 5669.55367,8160.05145 5671.33619,8167.18292 C5674.90111,8177.88036 5682.03107,8185.0117 5685.59612,8193.92634 C5690.94356,8206.40634 5690.94356,8245.62989 5690.94356,8256.32709 C5692.72583,8286.63625 5662.42383,8309.81382 5662.42383,8331.20846 C5662.42383,8354.3859 5671.33619,8386.47786 5651.72894,8407.87251 C5649.94642,8411.43836 5641.03406,8407.87251 5641.03406,8411.43836 C5641.03406,8416.78702 5653.51134,8411.43836 5651.72894,8415.00409 C5651.72894,8422.13568 5641.03406,8422.13568 5637.46901,8427.48434 C5632.12157,8439.96459 5637.46901,8456.01045 5628.55678,8466.70777 C5603.60196,8491.66814 5610.73193,8439.96459 5605.38449,8438.18154 C5582.2122,8431.04995 5567.95239,8448.87886 5551.91019,8422.13568 C5548.34502,8416.78702 5559.03991,8409.65543 5555.47499,8402.52384 C5550.12767,8391.82652 5528.7379,8388.26079 5530.5203,8375.78054 C5530.5203,8361.51749 5559.03991,8354.3859 5557.25763,8340.12273 C5555.47499,8329.42553 5526.95538,8350.82029 5525.17286,8340.12273 C5521.60794,8325.8598 5550.12767,8318.72821 5548.34502,8306.24808 C5546.56275,8291.98491 5519.82542,8295.55064 5516.2605,8281.28759 C5514.47797,8270.59039 5537.65026,8267.02466 5537.65026,8254.54441 C5537.65026,8243.84709 5519.82542,8238.49843 5514.47797,8227.80111 C5512.69558,8220.66952 5532.30282,8226.01818 5535.86762,8220.66952 C5539.43279,8208.18927 5537.65026,8192.14341 5544.78023,8181.44609 C5546.56275,8177.88036 5550.12767,8190.36036 5553.69247,8188.57768 C5562.60495,8186.79475 5564.38735,8174.31451 5573.29984,8170.74877 C5580.42967,8167.18292 5589.34216,8174.31451 5596.47212,8170.74877 C5605.38449,8165.40011 5605.38449,8149.35413 5614.29672,8147.5712 C5624.99161,8145.78828 5633.90409,8160.05145 5646.3815,8160.05145 C5657.07638,8160.05145 5644.59898,8136.87388 5646.3815,8124.39363 C5648.1639,8110.13071 5662.42383,8099.43339 5669.55367,8085.17021 L5669.55367,8085.17021 Z" id="fr" fill="#87B024"></path>
                        <path d="M5109.85516,5706.80093 L5077.77063,5731.40638 C5059.94578,5793.80738 5138.37489,5763.85326 5109.85516,5785.2479 C5097.37775,5794.16217 5077.77063,5790.59656 5070.64067,5803.07681 C5061.72831,5815.55706 5089.95464,5826.93822 5079.25976,5837.63554 C5075.69496,5842.98432 5052.81582,5854.78049 5056.38086,5860.12915 L5078.72371,5868.62866 C5089.41859,5868.62866 5128.80459,5796.50764 5157.8605,5813.77401 C5168.69642,5820.21318 5154.41722,5808.42547 5150.8523,5795.94522 C5147.28725,5783.46497 5175.80686,5770.98485 5170.45942,5758.5046 C5163.32945,5742.45862 5120.55004,5763.85326 5120.55004,5747.80728 C5122.33257,5735.32703 5129.4624,5724.62984 5131.24493,5712.14959 C5131.24493,5708.58385 5127.68001,5705.018 5125.89749,5701.45227 C5124.11496,5697.88653 5104.15276,5717.42871 5111.28272,5708.51431 L5075.98811,5729.9785 C5063.5107,5733.5441 5049.2509,5728.19544 5036.77349,5728.19544 C5031.42605,5728.19544 5026.07861,5724.62984 5024.29609,5726.41276 C5001.1238,5754.93874 5008.25376,5811.99108 4997.559,5842.30024 C4986.86412,5869.04354 4965.47435,5899.35257 4945.86698,5920.74721 C4938.73727,5929.66161 4933.38983,5940.35893 4924.47721,5945.70759 C4919.1299,5949.27344 4906.65249,5942.14185 4904.87009,5949.27344 C4901.30505,5959.97076 4917.34725,5974.23369 4911.99993,5984.93101 C4894.17521,6013.45724 4838.91839,5999.19419 4851.39555,6006.32565 C4865.65548,6015.24017 4876.35036,6027.72017 4892.39269,6034.85176 C4899.52265,6036.63481 4906.65249,6025.93749 4911.99993,6027.72017 C4919.1299,6029.50322 4931.6073,6040.20042 4926.25986,6045.54908 C4917.34725,6050.89774 4894.17521,6031.28615 4894.17521,6041.98335 C4895.95761,6058.02933 4942.30206,6056.2464 4933.38983,6068.72665 C4906.65249,6104.38447 4881.6978,6038.41774 4871.00292,6036.63481 C4837.13587,6027.72017 4805.05122,6033.06908 4810.39866,6045.54908 C4810.39866,6047.33201 4865.65548,6084.77263 4876.35036,6082.98983 C4879.91528,6082.98983 4878.13288,6075.85824 4881.6978,6072.29238 C4888.82777,6066.94372 4895.95761,6079.42397 4903.08757,6081.2069 C4910.21754,6084.77263 4920.91242,6077.64117 4928.04238,6084.77263 C4931.6073,6088.33849 4935.1721,6093.68715 4936.95462,6099.03581 C4942.30206,6100.81861 4945.86698,6102.60154 4951.21442,6100.81861 C4963.69183,6100.81861 4929.82466,6059.81226 4972.60432,6072.29238 C4976.16924,6072.29238 4969.03927,6081.2069 4970.82179,6082.98983 C4992.21156,6100.81861 4997.559,6058.02933 5013.6012,6070.50958 C5018.94865,6075.85824 4999.34153,6086.55556 5004.68897,6090.12129 C5045.68586,6111.51581 5010.03641,6084.77263 5042.12094,6077.64117 C5047.46838,6075.85824 5056.38086,6127.56204 5068.85815,6129.34472 C5097.37775,6134.69338 5134.80985,6132.91057 5157.98201,6163.21961 C5159.76466,6166.78546 5150.8523,6170.35119 5149.06977,6173.91693 C5145.50486,6184.61412 5136.59237,6193.52876 5134.80985,6204.22596 C5134.80985,6207.79169 5143.72233,6206.00876 5141.93981,6209.57462 C5140.15729,6214.92328 5131.24493,6216.70621 5129.4624,6223.83767 C5116.98512,6268.40976 5147.28725,6255.92976 5175.80686,6257.71256 L5177.58938,6257.71256 C5174.02434,6252.3639 5172.24194,6247.01524 5172.24194,6245.23231 C5174.02434,6238.10085 5186.50174,6238.10085 5188.28427,6230.96926 C5193.63171,6200.6601 5141.93981,6189.96278 5157.98201,6186.39718 C5163.32945,6184.61412 5166.89462,6191.74571 5170.45942,6191.74571 L5204.32659,6161.43668 C5206.10911,6152.52229 5182.93682,6163.21961 5190.06679,6148.95655 C5195.41423,6136.4763 5207.89151,6127.56204 5213.23895,6115.08179 C5229.28115,6075.85824 5190.06679,6047.33201 5179.37178,6027.72017 C5177.58938,6024.15456 5181.1543,6018.8059 5182.93682,6015.24017 C5182.93682,6011.67431 5179.37178,6006.32565 5182.93682,6004.54285 C5191.84919,5999.19419 5202.54407,6004.54285 5213.23895,6000.97699 C5216.804,5999.19419 5209.67403,5988.49687 5213.23895,5990.27967 C5223.93371,5993.84553 5231.0638,6006.32565 5243.54108,6006.32565 C5256.01849,6008.10858 5304.14547,5992.0626 5309.49291,5979.58235 C5314.84023,5967.1021 5275.62573,5965.31942 5291.66806,5954.6221 C5320.18767,5935.01027 5354.05484,5927.87868 5346.92488,5883.30647 C5345.14248,5858.34622 5279.19078,5869.04354 5295.2331,5842.30024 C5297.0155,5836.95158 5305.92799,5842.30024 5305.92799,5838.73438 C5307.71026,5833.38572 5298.79802,5828.03706 5300.58055,5822.6884 C5300.58055,5819.12267 5305.92799,5819.12267 5309.49291,5819.12267 C5321.97019,5819.12267 5332.66507,5824.47133 5345.14248,5824.47133 C5359.40228,5824.47133 5346.92488,5795.94522 5352.27232,5781.68217 C5355.83736,5769.20192 5386.13937,5712.14959 5382.57457,5681.84055 C5346.92488,5699.66934 5343.35996,5633.70261 5313.0577,5626.57102 C5286.32062,5621.22236 5145.50486,5651.53152 5129.4624,5676.49189 C5120.55004,5687.18921 5116.98512,5697.88653 5109.85516,5706.80093 L5109.85516,5706.80093 Z M4797.92126,6084.77263 C4794.35634,6131.12764 4831.78843,6100.81861 4858.52551,6113.29873 C4862.09043,6115.08179 4854.96072,6122.21338 4858.52551,6125.77898 C4879.91528,6140.04204 4897.74013,6115.08179 4911.99993,6102.60154 C4903.08757,6093.68715 4892.39269,6086.55556 4888.82777,6084.77263 C4879.91528,6082.98983 4878.13288,6099.03581 4869.2204,6099.03581 C4838.91839,6099.03581 4858.52551,6081.2069 4822.87594,6075.85824 C4813.96358,6074.07531 4805.05122,6074.07531 4794.35634,6077.64117 L4797.92126,6084.77263 L4797.92126,6084.77263 Z" id="nl" fill="#87B024"></path>
                    </g>
                </g>
            </g>
        </g>
    </g>
</svg>