<?xml version="1.0" encoding="UTF-8" standalone="no"?>
<svg width="174px" height="106px" viewBox="0 0 174 106" version="1.1" xmlns="http://www.w3.org/2000/svg" xmlns:xlink="http://www.w3.org/1999/xlink">
    <!-- Generator: Sketch 3.6 (26304) - http://www.bohemiancoding.com/sketch -->
    <title>lv</title>
    <desc>Created with Sketch.</desc>
    <defs></defs>
    <g id="Page-1" stroke="none" stroke-width="1" fill="none" fill-rule="evenodd">
        <g id="Group" transform="translate(-438.000000, -297.000000)" fill="#FFFFFF">
            <path d="M443.956502,402.182602 C445.277442,402.182602 446.598404,402.512964 447.58912,401.5219 C448.910082,399.539771 448.579836,396.566601 449.900798,394.584426 C452.542677,391.280916 463.110329,384.673805 467.073169,383.68274 C469.384848,383.022061 479.9525,383.68274 482.264132,383.022061 C483.585094,382.691676 484.57581,380.048868 485.896773,380.048868 C488.208451,380.379207 489.52939,385.995232 490.850352,384.343442 C491.841068,383.68274 491.510845,382.030997 492.501561,381.039932 C495.473686,378.066716 496.794625,381.370249 500.427266,381.039932 C502.408697,380.70957 503.399413,378.727441 505.380845,378.727441 C505.711092,378.397079 515.618228,381.039932 515.948474,380.70957 C517.59966,380.379207 518.260153,378.066716 519.911338,377.736377 C522.883463,377.075652 522.883463,382.030997 525.525388,378.066716 C527.50682,375.754248 527.50682,370.138201 531.469683,369.477522 C534.772078,368.816774 536.092994,379.388143 540.386104,379.388143 C544.679214,379.388143 548.972324,376.745312 553.265411,378.066716 C559.539953,379.718505 569.44709,391.941618 577.042594,393.263045 C585.298545,394.584426 585.628768,382.030997 590.582371,382.361313 C592.233557,382.361313 593.224273,384.343442 594.545235,384.343442 C595.535928,384.343442 594.875435,382.030997 595.535928,381.700634 C597.51736,381.039932 600.159261,383.022061 601.81047,381.700634 C601.81047,381.700634 603.461656,371.78999 604.122125,370.798949 C604.782618,368.816774 611.057137,363.861475 611.057137,363.531135 C613.699038,353.950853 604.122125,345.03125 598.508076,340.406291 C596.196398,338.754547 600.819754,335.781331 596.196398,335.120629 C594.545235,334.790266 593.224273,337.43312 591.573087,337.102758 C590.912594,337.102758 591.573087,336.111693 591.573087,335.450991 C591.573087,335.120629 591.903287,334.459927 591.903287,334.129565 C591.903287,331.817073 592.563803,329.504605 592.233557,327.192113 C591.903287,326.201072 589.591632,326.531388 589.591632,325.540324 C589.591632,321.24575 597.51736,318.602896 586.619484,314.638638 C585.298545,314.308276 583.317113,314.308276 582.326397,313.317211 C581.335658,311.995784 582.986867,309.683339 581.665905,309.022614 C580.344942,308.03155 579.024026,309.683339 577.372794,310.013656 C577.042594,311.665468 567.135412,308.03155 565.814495,308.361912 C565.814495,308.361912 559.539953,315.29934 559.209707,315.29934 C556.898029,315.629703 546.3304,308.692275 545.00946,306.710146 C544.348968,306.049421 545.66993,304.067292 544.679214,303.73693 C542.697782,303.076228 540.71635,305.058356 538.734918,304.397655 C537.744202,304.067292 538.074426,302.085163 537.08371,301.754801 C536.092994,301.754801 535.102278,303.73693 534.111585,303.40659 C532.130153,302.745865 528.497536,297.790543 525.525388,297.790543 C524.864895,297.790543 525.525388,298.781607 525.525388,299.442332 C525.525388,299.772672 525.855611,299.772672 525.855611,300.103034 C526.846327,304.397655 523.213709,298.120905 521.232301,299.442332 C518.260153,301.754801 508.02277,311.335083 505.380845,311.995784 L504.720376,311.665468 C505.050576,312.326147 505.050576,313.317211 505.050576,314.308276 C506.371561,321.24575 514.957759,330.826009 512.976327,338.424185 C511.985611,343.049121 504.059883,352.629426 499.106303,353.290105 C497.124871,353.620468 495.803909,351.638362 494.152723,351.307999 C490.850352,350.316935 490.189883,352.629426 488.208451,349.32587 C485.896773,346.022338 485.896773,341.397355 482.924625,338.754547 C479.9525,335.781331 473.017465,334.459927 469.715094,331.486734 C467.733662,329.834944 469.715094,325.540324 467.733662,324.54926 C464.761491,323.227879 462.449859,327.852815 459.807935,329.504605 C456.50554,332.147436 451.882207,332.808138 448.910082,336.111693 C440.984331,344.370548 447.919366,353.950853 444.947218,362.209708 C443.956502,365.513264 439.663392,366.834645 438.672676,370.138201 C438.012184,372.120329 439.663392,374.102458 439.663392,376.41495 C439.663392,378.727441 438.672676,381.039932 439.333146,383.022061 C439.333146,383.352378 439.663392,383.68274 439.993615,383.68274 L439.993615,383.68274 C436.691267,387.646998 441.97507,397.557665 443.956502,402.182602 L443.956502,402.182602 Z" id="lv"></path>
        </g>
    </g>
</svg>