<?xml version="1.0" encoding="UTF-8" standalone="no"?>
<svg width="120px" height="124px" viewBox="0 0 120 124" version="1.1" xmlns="http://www.w3.org/2000/svg" xmlns:xlink="http://www.w3.org/1999/xlink">
    <!-- Generator: Sketch 3.6 (26304) - http://www.bohemiancoding.com/sketch -->
    <title>md</title>
    <desc>Created with Sketch.</desc>
    <defs></defs>
    <g id="Page-1" stroke="none" stroke-width="1" fill="none" fill-rule="evenodd">
        <g id="Group" transform="translate(-465.000000, -288.000000)" fill="#FFFFFF">
            <path d="M465.529181,303.79209 C470.152514,301.479599 473.124662,303.461727 476.75728,306.434944 C483.692291,311.390243 485.013254,319.649121 490.62728,325.265122 C499.87397,334.184725 524.972092,350.04171 527.94424,362.92557 C530.255918,371.184425 527.28377,380.434345 529.265202,388.693223 C529.925672,392.327095 535.869967,400.585973 535.539721,404.219891 C535.539721,405.541318 532.897797,405.871658 533.228043,407.193085 C533.558312,408.514511 535.539721,407.853763 536.530437,408.514511 C537.521153,409.17519 537.521153,411.487682 538.842115,411.487682 C540.493301,411.818021 539.172339,407.853763 540.493301,407.523447 C542.474733,407.193085 544.456165,407.853763 546.107373,407.523447 C548.419005,407.193085 543.465449,399.925271 546.437574,395.300288 C547.428289,393.978907 549.409721,392.987843 550.730684,391.336054 C552.381892,389.023585 547.758536,387.702158 550.730684,385.389667 C552.051646,384.06824 554.363324,384.06824 555.023794,382.746836 C555.684263,381.425409 553.702832,380.103982 553.702832,378.452239 C553.702832,376.80045 555.35404,375.148683 555.023794,373.496917 C554.363324,370.854063 546.107373,368.211232 550.730684,362.92557 C552.381892,360.943442 555.35404,355.988119 556.674979,358.300588 C557.335472,359.622015 557.995942,361.273781 558.326188,362.92557 C558.326188,363.586272 557.665695,363.916635 557.665695,364.577314 C557.995942,364.907699 558.656434,365.238062 558.986658,364.907699 C559.977351,363.586272 559.64715,361.273781 561.298336,359.952377 C561.628582,359.291652 561.958782,361.934506 562.619298,361.604144 C563.940214,361.273781 563.609991,359.291652 564.270461,358.300588 C564.270461,358.300588 568.563571,361.604144 569.884533,361.934506 C571.865965,362.264845 569.884533,355.988119 571.865965,355.988119 C574.507867,355.988119 576.159075,362.264845 577.810238,360.613079 C578.140484,359.952377 577.810238,359.291652 578.470707,358.63095 C580.121916,357.309523 582.433571,356.979184 584.415026,355.657757 C584.415026,355.327394 576.819522,354.33633 576.159075,352.023839 C575.828829,351.363137 577.810238,351.363137 577.810238,350.702458 L574.507867,340.461451 C572.526435,338.809662 564.270461,338.479299 562.289029,337.157918 C560.968066,335.836491 561.958782,330.550807 560.30762,331.541871 C556.01451,334.184725 563.609991,324.934782 557.665695,321.63125 C553.042362,318.988396 557.995942,326.256186 554.033078,324.934782 C552.051646,324.274057 543.795695,318.327694 543.465449,316.675928 C541.15377,309.408137 546.437574,302.470663 538.842115,297.515341 C535.869967,295.863574 538.181623,302.470663 534.879274,301.149259 C526.953524,297.845703 531.907081,291.238615 520.678982,294.211785 C518.69755,294.872533 520.018512,300.488534 518.69755,299.16713 C517.706834,298.176066 517.706834,296.524276 516.716141,295.202849 C516.055671,294.542147 514.404463,299.49747 513.743993,296.854639 C513.413747,295.533212 515.064955,292.229656 513.743993,292.560042 C511.102092,292.890404 508.790413,295.202849 506.478735,295.202849 C505.488019,295.202849 506.478735,292.890404 505.488019,292.229656 C502.515894,289.917211 498.553031,288.595784 494.92039,288.265421 C486.00397,287.604719 487.985401,292.560042 481.710859,295.533212 C481.05039,295.863574 468.501329,297.515341 468.501329,297.845703 C468.501329,299.16713 470.152514,299.827832 470.152514,301.149259 C470.482761,302.470663 467.510613,299.16713 466.519897,299.827832 C465.198935,300.488534 465.859404,302.470663 465.529181,303.79209 L465.529181,303.79209 Z" id="md"></path>
        </g>
    </g>
</svg>