<?xml version="1.0" encoding="UTF-8" standalone="no"?>
<svg width="62px" height="77px" viewBox="0 0 62 77" version="1.1" xmlns="http://www.w3.org/2000/svg" xmlns:xlink="http://www.w3.org/1999/xlink">
    <!-- Generator: Sketch 3.6 (26304) - http://www.bohemiancoding.com/sketch -->
    <title>me</title>
    <desc>Created with Sketch.</desc>
    <defs></defs>
    <g id="Page-1" stroke="none" stroke-width="1" fill="none" fill-rule="evenodd">
        <g id="Group" transform="translate(-494.000000, -311.000000)" fill="#FFFFFF">
            <path d="M496.554805,363.210694 L497.215459,365.521687 C498.866414,365.851819 500.187422,365.851819 501.838631,365.851819 C501.178253,366.512106 500.517622,367.17237 500.848076,368.162812 C505.471248,378.397249 506.462079,368.823099 511.085275,371.134115 C512.076106,371.794402 511.415728,373.114976 512.076106,374.105395 C514.718146,377.406853 518.020309,376.746566 520.332149,380.378133 C520.992549,381.368553 520.332149,383.349437 521.322727,384.339856 C523.304135,386.32074 525.946175,387.311136 528.587961,387.971469 L528.587961,381.368553 C528.587961,380.047955 529.248592,378.397249 528.587961,377.076675 C527.597384,375.425992 524.625144,375.425992 524.294967,373.775286 C524.294967,373.445131 534.862619,351.985768 535.85345,351.325481 C536.183627,350.995349 537.834836,359.248949 540.476622,359.579081 L548.073348,353.80131 C547.379443,350.325127 548.070997,350.509464 546.899881,347.160682 C546.113967,344.914231 548.762551,346.203987 550.562892,344.719845 C551.354543,344.067372 550.958855,343.054894 549.917169,341.861859 C548.857948,340.649093 556.723557,340.572496 554.897294,339.175255 C551.274884,336.403525 546.848772,331.680553 543.323073,330.041649 C541.047387,328.983876 543.901165,324.476821 541.681818,322.293044 C537.526134,318.203691 527.443551,315.713962 524.294967,313.689098 C522.973935,314.679517 521.322727,311.378081 519.671518,312.038369 C517.690109,312.698656 517.359932,315.339804 516.0389,316.990556 C513.727314,317.65082 507.452657,316.330246 507.122457,317.980998 C506.131902,322.602961 514.387692,322.933116 511.745905,329.866141 L510.424897,329.866141 L511.745905,329.866141 C508.443488,327.555125 508.443488,325.244132 504.810871,325.574264 L505.471248,324.583822 L504.810871,325.574264 C500.187422,330.856583 500.848076,338.449873 499.527045,340.100602 C496.885005,343.402037 495.894427,338.449873 494.903596,343.402037 C493.252387,352.97621 503.489839,353.306342 495.894427,360.5695 L497.545636,360.239391 L497.875836,365.521687 C497.545636,364.531222 497.215459,363.870935 496.554805,363.210694 L496.554805,363.210694 Z" id="me"></path>
        </g>
    </g>
</svg>