<?xml version="1.0" encoding="UTF-8" standalone="no"?>
<svg width="82px" height="72px" viewBox="0 0 82 72" version="1.1" xmlns="http://www.w3.org/2000/svg" xmlns:xlink="http://www.w3.org/1999/xlink">
    <!-- Generator: Sketch 3.6 (26304) - http://www.bohemiancoding.com/sketch -->
    <title>mk</title>
    <desc>Created with Sketch.</desc>
    <defs></defs>
    <g id="Page-1" stroke="none" stroke-width="1" fill="none" fill-rule="evenodd">
        <g id="Group" transform="translate(-484.000000, -314.000000)" fill="#FFFFFF">
            <path d="M485.28284,343.222166 C484.952617,345.534657 484.62237,347.847148 484.952617,349.829277 C484.952617,352.141769 486.934049,354.123898 486.934049,356.106003 C486.603802,357.097068 483.961901,357.097068 484.292124,358.088132 C484.62237,360.400624 487.924765,361.722051 488.254965,364.034519 C488.585211,365.025583 486.603802,366.016625 486.603802,367.007689 C486.603802,369.650543 495.19,381.873679 496.510939,383.855785 C498.492394,386.168276 499.813333,382.534358 500.804026,382.534358 C502.124988,382.204041 503.776174,382.534358 504.76689,383.195106 C505.427382,383.855785 504.436666,385.507597 505.097136,385.507597 C507.408814,385.837913 529.534766,378.900485 530.855728,377.909421 C534.488368,373.945163 531.846444,368.659502 538.451232,366.34701 C540.76291,365.355946 553.642195,367.007689 555.623627,365.686308 C556.614343,365.025583 556.284119,363.043454 557.274835,362.382753 C557.935305,362.05239 558.926021,364.034519 559.586467,363.373817 C563.549331,360.730986 554.632911,355.445325 565.20054,353.463196 L565.20054,353.463196 L565.530786,353.463196 C565.861009,349.168575 565.20054,335.293673 564.870294,335.293673 C562.558615,332.981182 558.926021,326.374116 555.953873,324.391988 C554.302664,323.400923 551.991009,324.391988 550.009577,323.400923 C549.349085,323.070561 540.432664,316.13311 540.432664,315.472385 C536.139554,311.508127 525.571925,321.749134 520.288099,322.740198 C514.013557,323.73124 511.371678,319.436665 508.39953,326.704433 C508.069284,327.695543 509.390246,329.016924 509.06,330.338351 C508.39953,331.990118 505.427382,328.02586 503.776174,328.02586 C499.48311,328.356222 495.520223,331.329416 491.887605,333.641907 C489.906174,334.963311 494.529507,348.838213 486.273533,343.222166 L485.28284,343.222166 L485.28284,343.222166 Z" id="mk"></path>
        </g>
    </g>
</svg>