<?xml version="1.0" encoding="UTF-8" standalone="no"?>
<svg width="110px" height="118px" viewBox="0 0 110 118" version="1.1" xmlns="http://www.w3.org/2000/svg" xmlns:xlink="http://www.w3.org/1999/xlink">
    <!-- Generator: Sketch 3.6 (26304) - http://www.bohemiancoding.com/sketch -->
    <title>nl</title>
    <desc>Created with Sketch.</desc>
    <defs></defs>
    <g id="Page-1" stroke="none" stroke-width="1" fill="none" fill-rule="evenodd">
        <g id="Group" transform="translate(-470.000000, -291.000000)" fill="#FFFFFF">
            <path d="M528.991751,306.454007 L523.047478,311.013204 C519.745084,322.575614 534.275577,317.025354 528.991751,320.989611 C526.680073,322.641355 523.047478,321.980676 521.726516,324.293167 C520.07533,326.605659 525.304799,328.714497 523.323367,330.696626 C522.66292,331.687714 518.424122,333.873449 519.084614,334.864514 L523.224054,336.439406 C525.205485,336.439406 532.502496,323.075953 537.885659,326.275273 C539.893221,327.4684 537.247725,325.284232 536.587255,322.97174 C535.926763,320.659249 541.210566,318.346781 540.21985,316.034289 C538.898887,313.061096 530.973183,317.025354 530.973183,314.05216 C531.303429,311.739669 532.624368,309.757563 532.954615,307.445072 C532.954615,306.78437 532.294145,306.123645 531.963899,305.462943 C531.633652,304.802241 527.935271,308.423251 529.256234,306.771485 L522.717232,310.748628 C520.405554,311.409307 517.763652,310.418242 515.451974,310.418242 C514.461258,310.418242 513.470542,309.757563 513.140296,310.087926 C508.847185,315.373564 510.168148,325.944911 508.186739,331.560958 C506.205307,336.51628 502.242443,342.132304 498.609803,346.096562 C497.288886,347.748328 496.298171,349.730457 494.646939,350.721521 C493.656246,351.382246 491.344568,350.06082 491.014344,351.382246 C490.353852,353.364375 493.325977,356.007183 492.335284,357.989312 C489.032913,363.274997 478.79553,360.632166 481.107162,361.95357 C483.749086,363.605359 485.730518,365.917804 488.702666,367.239231 C490.023628,367.569617 491.344568,365.587488 492.335284,365.917804 C493.656246,366.24819 495.967924,368.230296 494.977208,369.22136 C493.325977,370.212425 489.032913,366.578552 489.032913,368.560658 C489.363136,371.533852 497.949333,371.203489 496.298171,373.51598 C491.344568,380.123092 486.721234,367.899979 484.739802,367.569617 C478.465283,365.917804 472.520988,366.908915 473.511704,369.22136 C473.511704,369.551723 483.749086,376.489174 485.730518,376.158834 C486.390988,376.158834 486.060765,374.837407 486.721234,374.176682 C488.042197,373.185618 489.363136,375.498109 490.684098,375.828472 C492.00506,376.489174 493.986492,375.16777 495.307455,376.489174 C495.967924,377.149899 496.628371,378.140963 496.958617,379.132028 C497.949333,379.462367 498.609803,379.79273 499.600519,379.462367 C501.912197,379.462367 495.637655,371.864214 503.563405,374.176682 C504.223875,374.176682 502.902913,375.828472 503.233159,376.158834 C507.196023,379.462367 508.186739,371.533852 511.158864,373.846343 C512.14958,374.837407 508.516985,376.819536 509.507701,377.480238 C517.103159,381.444473 510.498417,376.489174 516.44269,375.16777 C517.433406,374.837407 519.084614,384.417712 521.39627,384.748029 C526.680073,385.739093 533.615084,385.408754 537.908171,391.024778 C538.238441,391.685503 536.587255,392.346205 536.257009,393.006907 C535.596539,394.989012 533.945331,396.640825 533.615084,398.622931 C533.615084,399.283633 535.266293,398.95327 534.936047,399.613995 C534.6058,400.60506 532.954615,400.935422 532.624368,402.256826 C530.312713,410.515681 535.926763,408.203236 541.210566,408.533575 L541.540812,408.533575 C540.880319,407.542511 540.550096,406.551446 540.550096,406.221084 C540.880319,404.89968 543.191997,404.89968 543.522244,403.578253 C544.51296,397.962206 534.936047,395.980077 537.908171,395.319398 C538.898887,394.989012 539.559403,396.310439 540.21985,396.310439 L546.494392,390.694415 C546.824638,389.042649 542.531528,391.024778 543.85249,388.381947 C544.843206,386.069456 547.154861,384.417712 548.145577,382.105221 C551.117702,374.837407 543.85249,369.551723 541.871035,365.917804 C541.540812,365.257126 542.201282,364.266061 542.531528,363.605359 C542.531528,362.944634 541.871035,361.95357 542.531528,361.62323 C544.182713,360.632166 546.164145,361.62323 548.145577,360.962505 C548.80607,360.632166 547.485108,358.650037 548.145577,358.980376 C550.126986,359.641101 551.447971,361.95357 553.759627,361.95357 C556.071305,362.283932 564.987748,359.310739 565.978464,356.998248 C566.969157,354.685756 559.703922,354.35544 562.67607,352.373311 C567.959873,348.739393 574.234415,347.417966 572.913453,339.159088 C572.58323,334.534151 560.364415,336.51628 563.336563,331.560958 C563.666786,330.569893 565.317995,331.560958 565.317995,330.900233 C565.648195,329.909168 563.997033,328.918104 564.327279,327.927039 C564.327279,327.266338 565.317995,327.266338 565.978464,327.266338 C568.29012,327.266338 570.271552,328.257402 572.58323,328.257402 C575.225131,328.257402 572.913453,322.97174 573.904169,320.32891 C574.564662,318.016418 580.178688,307.445072 579.518241,301.829048 C572.913453,305.132581 572.252983,292.909468 566.638911,291.588041 C561.685354,290.596976 535.596539,296.213024 532.624368,300.837983 C530.973183,302.820112 530.312713,304.802241 528.991751,306.454007 L528.991751,306.454007 Z M471.200025,376.489174 C470.539556,385.078391 477.474567,379.462367 482.428124,381.774835 C483.088594,382.105221 481.767678,383.426648 482.428124,384.087327 C486.390988,386.730158 489.693382,382.105221 492.335284,379.79273 C490.684098,378.140963 488.702666,376.819536 488.042197,376.489174 C486.390988,376.158834 486.060765,379.132028 484.409556,379.132028 C478.79553,379.132028 482.428124,375.828472 475.823359,374.837407 C474.172173,374.507045 472.520988,374.507045 470.539556,375.16777 L471.200025,376.489174 L471.200025,376.489174 Z" id="nl"></path>
        </g>
    </g>
</svg>