<?xml version="1.0" encoding="UTF-8" standalone="no"?>
<svg width="1638px" height="780px" viewBox="0 0 1638 780" version="1.1" xmlns="http://www.w3.org/2000/svg" xmlns:xlink="http://www.w3.org/1999/xlink">
    <!-- Generator: Sketch 3.6 (26304) - http://www.bohemiancoding.com/sketch -->
    <title>Blank_political_map_Europe_in_2008_WF_(with_Kosovo)</title>
    <desc>Created with Sketch.</desc>
    <defs>
        <rect id="path-1" x="0" y="0" width="1638" height="779.199453"></rect>
    </defs>
    <g id="Page-1" stroke="none" stroke-width="1" fill="none" fill-rule="evenodd">
        <g id="Blank_political_map_Europe_in_2008_WF_(with_Kosovo)">
            <g id="Group">
                <mask id="mask-2" fill="white">
                    <use xlink:href="#path-1"></use>
                </mask>
                <use id="maska" xlink:href="#path-1"></use>
                <rect id="ocean" fill="#2096BD" mask="url(#mask-2)" x="-6652.08949" y="-5501.23603" width="15370.0899" height="9839.8689"></rect>
                <g id="outlines" mask="url(#mask-2)" stroke="#FFFFFF" stroke-width="3">
                    <g transform="translate(-4307.195455, -5508.362480)">
                        <path d="M5117.80454,6522.16987 C5112.46925,6520.39261 5107.13396,6518.61547 5101.79867,6518.61547 C5089.34975,6516.83821 5076.90082,6529.27878 5066.23024,6523.94713 C5057.33801,6520.39261 5064.45177,6504.39765 5059.11648,6497.28874 C5055.55967,6491.95708 5046.66744,6495.5116 5041.33215,6491.95708 C5039.55368,6490.17995 5048.44591,6486.62543 5048.44591,6484.84842 C5046.66744,6481.29378 5044.88909,6477.73951 5041.33215,6475.96212 C5037.77533,6474.18511 5032.44004,6481.29378 5030.66157,6479.51676 C5023.54781,6474.18511 5021.76946,6463.5218 5014.6557,6458.19015 C5002.20666,6452.85837 4984.42232,6458.19015 4977.30881,6447.52672 C4970.19505,6440.41793 4984.42232,6429.75462 4984.42232,6420.86845 C4982.6441,6413.75979 4971.97352,6411.98241 4971.97352,6404.87349 C4971.97352,6395.98757 4979.08716,6388.87866 4980.86563,6381.76974 C4982.6441,6376.43809 4991.5362,6371.10644 4987.97939,6367.55204 C4975.53034,6356.88874 4964.85976,6388.87866 4952.41071,6399.54184 C4927.51286,6422.64571 4868.82456,6408.42789 4874.15985,6397.76458 C4879.49514,6388.87866 4888.38737,6383.547 4888.38737,6374.66096 C4888.38737,6369.3293 4874.15985,6369.3293 4875.93832,6362.22039 C4875.93832,6351.55708 4890.16572,6342.67091 4890.16572,6332.0076 C4886.6089,6301.79507 4813.69333,6319.56704 4810.13651,6305.34946 C4808.35804,6298.24055 4813.69333,6289.3545 4811.91486,6282.24559 C4806.57957,6253.81006 4767.45408,6282.24559 4756.7835,6257.3647 C4749.66999,6243.14675 4760.34057,6202.27091 4737.22094,6193.38474 C4726.55037,6188.05309 4717.65814,6212.93422 4703.43074,6212.93422 C4664.30537,6212.93422 4662.5269,6145.39998 4658.97009,6120.51885 L4660.74856,6118.74172 C4692.76016,6109.85554 4742.55623,6070.75683 4783.46007,6058.31639 L4787.01689,6065.42518 C4783.46007,6111.6328 4820.80709,6081.42014 4847.48341,6093.86058 C4851.04023,6095.63797 4843.92672,6102.74688 4847.48341,6106.30115 C4868.82456,6120.51885 4886.6089,6095.63797 4900.8363,6083.1974 C4911.507,6092.08332 4922.17758,6099.19224 4925.73427,6097.41498 C4931.06956,6093.86058 4929.29109,6086.75167 4925.73427,6079.64301 C4931.06956,6081.42014 4934.62638,6083.1974 4939.96166,6081.42014 C4952.41071,6081.42014 4918.62051,6040.54417 4961.30294,6052.98461 C4964.85976,6052.98461 4957.746,6061.87079 4959.52447,6063.64805 C4980.86563,6081.42014 4986.20091,6038.76691 5002.20666,6051.20748 C5007.54195,6056.53913 4987.97939,6067.20244 4993.31467,6070.75683 C5034.21839,6092.08332 4998.64996,6065.42518 5030.66157,6058.31639 C5035.99686,6056.53913 5044.88909,6108.07853 5057.33801,6109.85554 C5085.7928,6115.1872 5123.13982,6113.41006 5146.25933,6143.62272 C5148.03792,6147.17724 5139.14581,6150.73164 5137.36734,6154.28603 C5133.81053,6164.94921 5124.9183,6173.83551 5123.13982,6184.49869 C5123.13982,6188.05309 5132.03205,6186.27583 5130.25358,6189.83034 C5128.47511,6195.162 5119.58301,6196.93926 5117.80454,6204.04805 C5105.35561,6248.47841 5135.58887,6236.03809 5164.04366,6237.81523 L5165.82213,6237.81523 C5172.93577,6250.25567 5183.60647,6269.80502 5185.38482,6269.80502 C5188.94176,6273.35954 5199.61234,6266.25063 5199.61234,6271.58228 C5201.39068,6278.69119 5187.16329,6285.80011 5188.94176,6292.90889 C5192.49858,6303.5722 5208.50444,6301.79507 5213.83973,6310.68111 C5233.40254,6342.67091 5185.38482,6348.00256 5172.93577,6381.76974 C5153.37309,6348.00256 5117.80454,6413.75979 5110.6909,6433.30902 C5105.35561,6449.30398 5158.70837,6518.61547 5119.58301,6515.06096 L5117.80454,6522.16987 L5117.80454,6522.16987 Z" id="be" fill="#87B024"></path>
                        <path d="M6341.36324,5544.70078 C6344.92018,5573.13618 6373.37484,5628.22997 6376.93191,5646.00207 C6382.2672,5688.6553 6325.35737,5717.0907 6337.80642,5750.85788 C6344.92018,5772.18449 6412.50033,5781.07041 6412.50033,5807.72881 C6412.50033,5834.38707 6391.15918,5843.27312 6407.16505,5862.8226 C6412.50033,5871.70852 6424.94938,5875.26292 6428.50632,5885.92635 C6433.84161,5894.8124 6426.72785,5907.25296 6428.50632,5916.13901 C6430.28467,5921.47066 6437.39843,5919.6934 6439.1769,5923.24792 C6448.06901,5935.68849 6426.72785,5965.90103 6421.39257,5976.56433 C6410.72199,5992.55929 6437.39843,6001.44546 6442.73372,6017.44042 C6446.29041,6026.32635 6433.84161,6036.98965 6439.1769,6044.09857 C6446.29041,6054.76187 6462.29628,6051.20748 6469.41004,6058.31639 C6494.30814,6081.42014 6483.63756,6211.15696 6462.29628,6214.71135 C6439.1769,6220.04301 6401.82976,6122.29611 6382.2672,6177.38978 C6378.71038,6186.27583 6410.72199,6193.38474 6403.60823,6198.71639 C6382.2672,6216.48861 6352.03381,6218.26587 6330.69266,6230.70631 C6327.13584,6232.48357 6330.69266,6241.36974 6327.13584,6243.14675 C6312.90832,6250.25567 6293.34576,6239.59248 6282.67518,6248.47841 C6273.78295,6255.58732 6277.3399,6269.80502 6268.44767,6276.91393 C6264.89085,6280.46845 6261.33403,6268.02789 6255.99874,6269.80502 C6239.99275,6273.35954 6238.2144,6294.68615 6227.54395,6301.79507 C6222.20866,6307.12672 6211.53809,6298.24055 6206.2028,6303.5722 C6200.86751,6307.12672 6206.2028,6317.79003 6200.86751,6323.12168 C6193.75375,6332.0076 6174.19094,6316.01277 6168.85565,6316.01277 C6124.395,6323.12168 6117.28136,6356.88874 6103.05384,6385.32426 C6099.49702,6392.43293 6099.49702,6367.55204 6092.38326,6362.22039 C6087.04798,6355.11148 6076.3774,6353.33422 6067.48542,6351.55708 C6051.47943,6348.00256 6085.26951,6404.87349 6120.83818,6427.97737 C6124.395,6429.75462 6136.84404,6431.53176 6138.62252,6442.19507 C6143.9578,6467.0762 6120.83818,6458.19015 6117.28136,6477.73951 C6115.50289,6483.07103 6154.62826,6548.82801 6159.96355,6554.15966 C6190.19681,6584.37245 6197.31057,6563.04596 6216.87337,6582.59519 C6229.32217,6595.03576 6231.10065,6614.58511 6243.54969,6625.24829 C6272.00461,6644.79777 6348.477,6671.45604 6346.69852,6717.66366 C6344.92018,6765.64854 6334.2496,6754.98523 6296.90246,6746.09919 C6293.34576,6746.09919 6289.78894,6747.87632 6288.01047,6751.43084 C6284.45353,6769.20306 6295.12423,6788.75229 6277.3399,6802.96999 C6261.33403,6815.41056 6186.63999,6833.18278 6184.86152,6861.6183 C6184.86152,6861.6183 6227.54395,6920.26637 6227.54395,6922.04363 C6229.32217,6923.82089 6204.42433,6945.14737 6213.31643,6952.25641 C6232.87924,6970.02838 6252.4418,6943.37012 6236.43593,7002.01843 C6236.43593,7005.57282 6232.87924,7010.90448 6229.32217,7010.90448 C6172.41259,6994.90951 6216.87337,6966.47399 6190.19681,6964.69673 C6175.96941,6964.69673 6163.52036,6977.1373 6149.29309,6975.36004 C6142.17933,6973.5829 6143.9578,6961.14234 6138.62252,6959.36508 C6127.95194,6955.81068 6117.28136,6964.69673 6108.38913,6961.14234 C6104.83231,6959.36508 6111.94607,6948.70177 6108.38913,6948.70177 C6087.04798,6950.47903 6106.61066,6978.91455 6101.27537,6980.69169 C6076.3774,6987.8006 6035.47356,6977.1373 6012.35394,6986.02334 C6005.2403,6989.57786 6008.79712,7002.01843 6001.68336,7005.57282 C5994.56985,7010.90448 5985.67762,7002.01843 5978.56398,7007.35008 C5973.22857,7009.12709 5980.34233,7018.01339 5976.78551,7021.56766 C5975.00704,7023.34504 5914.54052,7039.33988 5907.42663,7035.78548 C5903.86994,7032.23096 5907.42663,7023.34504 5903.86994,7019.7904 C5902.09147,7016.236 5893.19936,7016.236 5891.42089,7012.68173 C5889.64254,7009.12709 5900.31312,7010.90448 5898.53465,7007.35008 C5891.42089,6984.24621 5841.62482,7012.68173 5827.39755,6996.68677 C5827.39755,6996.68677 5830.95437,6994.90951 5830.95437,6993.13226 C5820.28379,6986.02334 5830.95437,7016.236 5827.39755,7028.67657 C5827.39755,7035.78548 5793.60735,7076.66145 5781.1583,7064.22089 C5774.04454,7057.1121 5793.60735,7046.44879 5788.27206,7039.33988 C5786.49359,7037.56262 5781.1583,7044.67153 5777.60148,7044.67153 C5774.04454,7044.67153 5768.70925,7042.89427 5766.93103,7039.33988 C5763.37396,7034.00822 5775.82301,7026.89931 5766.93103,7019.7904 C5759.81727,7014.45875 5756.26045,7005.57282 5749.14669,7002.01843 C5743.8114,6998.46391 5736.69765,7007.35008 5729.58389,7005.57282 C5726.02707,7002.01843 5729.58389,6993.13226 5726.02707,6989.57786 C5717.13496,6982.46895 5718.91331,7014.45875 5690.45839,7005.57282 C5670.89583,6998.46391 5658.44679,6978.91455 5638.8841,6973.5829 C5637.10563,6973.5829 5578.41758,6977.1373 5578.41758,6977.1373 C5571.30382,6973.5829 5571.30382,6961.14234 5564.19006,6957.58794 C5562.41159,6954.03342 5567.74688,6966.47399 5564.19006,6968.25125 C5560.63324,6970.02838 5553.51948,6968.25125 5551.74101,6964.69673 C5549.96267,6959.36508 5558.85477,6952.25641 5555.29796,6948.70177 C5528.62139,6922.04363 5498.38825,6970.02838 5503.72354,6971.80564 C5514.39412,6973.5829 5525.06469,6970.02838 5535.73515,6971.80564 C5542.84891,6973.5829 5523.2861,6975.36004 5517.95094,6978.91455 C5514.39412,6980.69169 5519.72941,6989.57786 5517.95094,6991.35512 C5473.49016,7014.45875 5505.50201,6980.69169 5469.93334,6982.46895 C5464.59805,6982.46895 5382.7905,7002.01843 5377.45521,6991.35512 C5375.67674,6987.8006 5388.12566,6986.02334 5386.34719,6984.24621 C5370.34145,6971.80564 5363.22769,7025.12205 5363.22769,6962.91959 C5361.44934,6938.03846 5379.23343,6914.93471 5381.0119,6890.05371 C5381.0119,6886.49919 5373.89814,6886.49919 5373.89814,6881.16753 C5372.11992,6872.28149 5375.67674,6863.39556 5379.23343,6854.50939 L5404.13153,6813.63342 C5405.91,6802.96999 5407.68834,6763.87128 5413.02363,6751.43084 C5427.25115,6722.99531 5462.81958,6701.66882 5482.38239,6667.90165 C5489.49615,6655.46108 5382.7905,6643.02051 5375.67674,6637.68886 C5370.34145,6632.35721 5373.89814,6621.69402 5368.56298,6616.36237 C5359.67087,6609.25346 5302.76104,6632.35721 5299.20435,6627.02568 C5297.42588,6621.69402 5304.53964,6614.58511 5300.98257,6611.03072 C5247.62981,6563.04596 5283.19848,6635.91185 5261.8572,6612.80798 C5244.07299,6595.03576 5235.18076,6554.15966 5220.95349,6545.27374 C5215.6182,6539.94209 5204.94762,6545.27374 5201.39068,6539.94209 C5181.828,6504.39765 5252.9651,6490.17995 5228.06725,6459.96729 C5224.51018,6454.63563 5181.828,6451.08124 5172.93577,6413.75979 C5156.9299,6348.00256 5238.7377,6351.55708 5213.83973,6310.68111 C5208.50444,6301.79507 5192.49858,6303.5722 5188.94176,6292.90889 C5187.16329,6285.80011 5201.39068,6278.69119 5199.61234,6271.58228 C5199.61234,6266.25063 5188.94176,6273.35954 5185.38482,6269.80502 C5183.60647,6268.02789 5158.70837,6230.70631 5160.48684,6225.37466 C5162.26519,6218.26587 5174.71424,6218.26587 5176.49271,6211.15696 C5181.828,6180.94417 5130.25358,6170.28087 5146.25933,6166.7266 C5151.59461,6164.94921 5155.15168,6172.05813 5158.70837,6172.05813 L5192.49858,6141.84546 C5194.27705,6132.95942 5171.15742,6143.62272 5178.27118,6129.40502 C5183.60647,6116.96446 5196.05539,6108.07853 5201.39068,6095.63797 C5217.39642,6056.53913 5178.27118,6028.10361 5167.60048,6008.55413 C5165.82213,6004.99986 5169.37895,5999.6682 5171.15742,5996.11381 C5171.15742,5992.55929 5167.60048,5987.22764 5171.15742,5985.4505 C5180.04953,5980.11885 5190.72011,5985.4505 5201.39068,5981.89599 C5204.94762,5980.11885 5197.83387,5969.45554 5201.39068,5971.23268 C5212.06114,5974.7872 5219.17502,5987.22764 5231.62394,5987.22764 C5244.07299,5989.0049 5292.09059,5973.00994 5297.42588,5960.56937 C5302.76104,5948.12881 5263.63568,5946.35179 5279.64154,5935.68849 C5308.09633,5916.13901 5341.88653,5909.0301 5334.77277,5864.59961 C5332.99443,5839.71873 5267.19262,5850.38203 5283.19848,5823.72377 C5284.97683,5818.39211 5293.86906,5823.72377 5293.86906,5820.16925 C5295.64728,5814.83759 5286.7553,5809.50594 5288.53377,5804.17429 C5288.53377,5800.61989 5293.86906,5800.61989 5297.42588,5800.61989 C5309.8748,5800.61989 5320.54538,5805.95155 5332.99443,5805.95155 C5347.22182,5805.95155 5334.77277,5777.51614 5340.10806,5763.29844 C5343.66501,5750.85788 5373.89814,5693.98695 5370.34145,5663.77429 C5375.67674,5661.99703 5381.0119,5658.44263 5386.34719,5651.33372 C5393.46095,5644.22481 5377.45521,5647.7792 5361.44934,5647.7792 L5361.44934,5647.7792 C5357.8924,5644.22481 5352.55711,5646.00207 5349.00029,5646.00207 C5345.44335,5646.00207 5343.66501,5644.22481 5341.88653,5642.44755 C5327.65914,5624.67558 5366.78463,5569.58191 5381.0119,5562.473 C5389.90401,5557.14134 5400.57471,5567.80453 5409.46682,5567.80453 C5542.84891,5562.473 5270.74944,5551.80969 5473.49016,5557.14134 C5475.26863,5557.14134 5480.60391,5558.91835 5482.38239,5560.69561 C5493.05296,5580.24509 5500.16672,5661.99703 5544.6275,5644.22481 C5558.85477,5638.89316 5530.39986,5516.26525 5571.30382,5516.26525 C5574.86064,5516.26525 5574.86064,5526.92856 5580.19593,5528.70582 C5585.53122,5532.26021 5594.42345,5532.26021 5601.53696,5532.26021 C5619.3213,5535.81473 5638.8841,5518.04251 5654.88997,5525.15142 C5667.33902,5530.48308 5667.33902,5548.25505 5674.45265,5558.91835 C5683.34488,5573.13618 5731.36236,5663.77429 5731.36236,5603.34884 C5731.36236,5590.9084 5704.68591,5594.46279 5694.01546,5583.79949 C5676.23112,5567.80453 5679.78782,5526.92856 5645.99774,5521.5969 C5640.66245,5521.5969 5599.75874,5530.48308 5603.31555,5505.60194 C5605.09402,5489.60698 5629.99187,5439.84497 5613.98601,5420.29549 C5608.65072,5414.96384 5569.52535,5434.51331 5564.19006,5414.96384 C5562.41159,5411.40944 5574.86064,5414.96384 5576.63911,5411.40944 C5580.19593,5407.85517 5564.19006,5400.74626 5567.74688,5400.74626 C5585.53122,5395.41461 5615.7646,5413.18682 5621.09977,5377.64239 C5621.09977,5374.08799 5580.19593,5329.65763 5576.63911,5322.54872 C5571.30382,5310.10815 5569.52535,5295.89045 5569.52535,5283.44988 C5581.9744,5285.22714 5603.31555,5283.44988 5608.65072,5283.44988 C5631.77034,5287.00428 5654.88997,5299.44484 5678.00959,5302.99936 C5676.23112,5308.33102 5676.23112,5310.10815 5679.78782,5308.33102 C5686.9017,5302.99936 5690.45839,5294.11319 5697.57215,5292.33593 C5701.12897,5292.33593 5695.79368,5301.2221 5697.57215,5304.7765 C5702.90744,5308.33102 5710.0212,5306.55376 5715.35649,5308.33102 C5727.80554,5310.10815 5740.25446,5310.10815 5749.14669,5315.4398 C5754.48198,5318.99432 5756.26045,5326.10299 5756.26045,5331.43464 C5756.26045,5333.2119 5752.70351,5331.43464 5752.70351,5331.43464 C5749.14669,5333.2119 5742.03293,5336.76629 5745.58975,5338.54355 C5747.36822,5342.09795 5756.26045,5334.98916 5758.03868,5338.54355 C5763.37396,5347.42972 5761.59574,5358.09303 5758.03868,5366.97908 C5754.48198,5375.86513 5729.58389,5381.19678 5736.69765,5390.08295 C5745.58975,5402.52352 5779.37983,5370.53347 5781.1583,5386.52843 C5782.93677,5397.19186 5763.37396,5416.7411 5774.04454,5420.29549 C5786.49359,5425.62714 5786.49359,5395.41461 5798.94264,5393.63735 C5809.61322,5391.86021 5850.51718,5427.4044 5859.40916,5423.85001 C5861.18763,5423.85001 5896.75618,5382.97404 5909.20523,5404.30053 C5934.1032,5450.50827 5809.61322,5498.49303 5877.1935,5505.60194 C5891.42089,5507.3792 5902.09147,5489.60698 5916.31899,5489.60698 C5934.1032,5491.38437 5914.54052,5542.92352 5953.66588,5516.26525 C5962.55799,5510.9336 5967.89328,5466.50323 5983.89927,5457.61719 C6007.01865,5445.17662 6031.91674,5439.84497 6042.58732,5464.72598 C6040.80885,5459.39432 6039.0305,5450.50827 6040.80885,5448.73102 C6051.47943,5436.29057 6065.70695,5430.9588 6074.59893,5420.29549 C6085.26951,5407.85517 6087.04798,5388.30569 6097.71855,5375.86513 C6101.27537,5372.31073 6124.395,5381.19678 6145.73603,5388.30569 C6154.62826,5386.52843 6163.52036,5384.7513 6167.07731,5384.7513 C6179.52623,5384.7513 6172.41259,5409.63218 6179.52623,5420.29549 C6184.86152,5427.4044 6197.31057,5423.85001 6202.64586,5430.9588 C6213.31643,5439.84497 6218.6516,5464.72598 6234.65746,5462.94884 C6247.10651,5462.94884 6261.33403,5454.06267 6275.56143,5457.61719 C6280.89671,5459.39432 6268.44767,5468.28049 6268.44767,5473.61215 C6270.22614,5487.82972 6275.56143,5502.04755 6280.89671,5516.26525 C6286.232,5530.48308 6304.01622,5535.81473 6318.24361,5541.14638 C6328.91419,5544.70078 6336.02795,5546.47804 6341.36324,5544.70078 L6341.36324,5544.70078 Z M6179.52623,5407.85517 C6183.08317,5391.86021 6175.96941,5372.31073 6181.3047,5356.31577 C6186.63999,5340.32081 6239.99275,5386.52843 6229.32217,5370.53347 C6222.20866,5359.87017 6199.08904,5365.20182 6193.75375,5352.76138 C6191.97528,5342.09795 6207.98114,5333.2119 6215.0949,5324.32598 C6222.20866,5318.99432 6209.75961,5345.65247 6216.87337,5347.42972 C6229.32217,5350.98412 6241.77122,5345.65247 6252.4418,5349.20686 C6263.11238,5352.76138 6238.2144,5366.97908 6241.77122,5377.64239 C6245.32816,5390.08295 6261.33403,5391.86021 6266.66932,5404.30053 C6270.22614,5407.85517 6247.10651,5425.62714 6218.6516,5432.73606 C6204.42433,5438.06771 6191.97528,5416.7411 6179.52623,5407.85517 L6179.52623,5407.85517 Z" id="de" fill="#87B024"></path>
                        <path d="M3770.77675,5412.16154 C3802.78835,5437.04242 3829.4648,5451.26025 3795.67459,5467.25521 L3770.77675,5412.16154 Z M3776.11203,5476.14126 C3770.77675,5479.69553 3765.44146,5481.47291 3760.10617,5481.47291 C3754.77088,5481.47291 3765.44146,5474.36387 3763.66299,5470.8096 C3752.99241,5433.48803 3726.31597,5426.37912 3770.77675,5412.16154 L3776.11203,5476.14126 Z M3953.95478,4205.43135 C3964.62536,4210.76301 3987.74499,4221.42631 3989.52346,4233.86688 C3989.52346,4242.75293 3964.62536,4258.74776 3971.73912,4253.41611 C3982.4097,4246.30744 3985.96651,4224.98071 3998.41556,4226.75797 C4009.08614,4230.31236 3996.63709,4253.41611 4005.52932,4260.52502 C4012.64283,4265.85668 4016.1999,4246.30744 4023.31366,4244.53019 C4049.98998,4237.42127 4110.4565,4248.08458 4146.02505,4253.41611 C4160.25257,4255.19349 4179.81513,4242.75293 4188.70736,4253.41611 C4197.59946,4262.30241 4174.47984,4271.18833 4169.14467,4281.85164 C4165.58786,4292.51494 4169.14467,4303.17825 4165.58786,4313.84156 C4162.03104,4322.72773 4049.98998,4390.26196 4028.64895,4406.25692 C3993.08027,4432.91507 4044.65469,4402.70228 4062.4389,4416.92023 C4069.55266,4420.4745 4053.5468,4427.58341 4046.43304,4432.91507 C4041.09775,4438.24672 4037.54093,4447.13277 4028.64895,4448.91003 C4025.09188,4448.91003 4028.64895,4436.46946 4025.09188,4436.46946 C4017.97812,4434.69233 4012.64283,4441.80111 4007.30767,4443.57837 C3994.85874,4448.91003 3993.08027,4434.69233 3987.74499,4447.13277 C3973.51747,4479.12281 4007.30767,4489.78612 4016.1999,4479.12281 C4017.97812,4475.56829 4009.08614,4470.23664 4012.64283,4470.23664 C4021.53519,4468.45951 4030.42717,4475.56829 4041.09775,4475.56829 C4060.66056,4473.79116 4085.55853,4452.46442 4110.4565,4457.79607 C4122.90555,4459.57333 4133.57613,4472.0139 4146.02505,4475.56829 C4176.25843,4484.45447 4275.85032,4482.67721 4291.85619,4518.22152 C4295.41313,4528.88483 4297.19148,4539.54813 4293.63466,4550.21144 L4252.7307,4591.08729 C4247.39553,4598.1962 4243.83872,4607.08237 4242.06024,4615.96842 C4240.28177,4619.52281 4243.83872,4623.07733 4242.06024,4624.85447 C4227.83285,4651.51286 4153.13881,4756.36854 4130.01918,4758.14568 C4094.45076,4761.7002 4082.00171,4743.92798 4051.76832,4767.03185 C4046.43304,4770.58624 4062.4389,4772.3635 4067.77431,4770.58624 C4082.00171,4768.80898 4094.45076,4759.92294 4106.89956,4758.14568 C4131.79765,4756.36854 4112.23509,4774.14076 4114.01332,4779.47241 C4119.34861,4791.91273 4142.46823,4795.46737 4140.68976,4807.90769 C4135.35447,4847.00653 4098.00758,4813.23935 4087.337,4815.01661 C4032.20564,4823.90278 4131.79765,4847.00653 4016.1999,4838.12048 C4014.42143,4838.12048 4014.42143,4857.66983 4016.1999,4857.66983 C4028.64895,4863.00161 4014.42143,4852.33818 4026.87048,4854.11544 C4041.09775,4857.66983 4071.33113,4880.77358 4087.337,4870.11027 C4094.45076,4864.77875 4096.22898,4852.33818 4103.34274,4848.78379 C4106.89956,4847.00653 4174.47984,4896.76854 4181.5936,4903.87745 C4194.04265,4912.76363 4199.37794,4957.19411 4211.82698,4971.41169 C4218.94062,4978.5206 4229.6112,4980.29774 4234.94649,4987.40665 C4236.72496,4990.96104 4233.16814,4994.51556 4233.16814,4999.84722 C4231.38967,5010.51052 4231.38967,5022.95109 4231.38967,5033.6144 C4233.16814,5065.60419 4245.61719,5197.11814 4256.28776,5223.77654 C4258.06599,5227.33093 4261.62305,5216.66762 4265.17975,5218.44488 C4272.29351,5220.22202 4277.62879,5229.10819 4284.74243,5232.66258 C4316.75429,5252.21181 4309.64053,5236.21698 4339.87391,5273.53855 C4350.54436,5285.97899 4345.2092,5307.30573 4354.10118,5321.52343 C4362.99329,5341.07266 4387.89138,5323.30069 4387.89138,5358.84488 C4387.89138,5369.50819 4368.32858,5369.50819 4366.55023,5380.1715 C4359.43647,5408.6069 4393.22667,5449.48299 4400.34043,5474.36387 C4409.23242,5508.13105 4380.77763,5458.36904 4378.99928,5495.69074 C4378.99928,5504.57666 4443.02262,5572.11089 4411.01101,5605.87807 C4386.11291,5630.75908 4375.44234,5602.32356 4357.658,5646.75392 C4355.87965,5652.08557 4370.10705,5644.97691 4373.66387,5648.53118 C4380.77763,5653.86283 4382.5561,5664.52614 4387.89138,5669.85779 C4393.22667,5675.18944 4402.11866,5684.07562 4407.45394,5680.5211 C4443.02262,5657.41723 4416.3463,5634.3136 4453.6932,5639.64525 C4514.15972,5648.53118 4611.97338,5675.18944 4594.18905,5771.15921 C4588.85376,5801.37199 4547.94992,5881.34654 4517.71666,5892.00985 C4507.04596,5895.56437 4491.04009,5874.23763 4487.48327,5883.1238 C4471.47753,5915.11372 4555.06368,5906.22768 4483.92658,5925.77703 C4478.59129,5927.55429 4475.03435,5923.99977 4469.69906,5920.44538 C4467.92071,5920.44538 4467.92071,5916.89098 4466.14224,5916.89098 C4451.91472,5918.66812 4430.57357,5915.11372 4423.46006,5925.77703 C4418.12452,5936.44034 4450.13638,5922.22264 4457.25001,5931.10868 C4464.36377,5938.2176 4459.02848,5952.43517 4453.6932,5961.32135 C4439.4658,5984.42522 4400.34043,5968.43013 4380.77763,5975.53905 C4375.44234,5977.31631 4361.21494,5982.64796 4366.55023,5986.20235 C4368.32858,5986.20235 4419.90299,5970.20739 4418.12452,5993.31127 C4416.3463,6002.19731 4396.78349,5991.53401 4389.66986,5996.86566 C4384.33457,6002.19731 4403.89725,6011.08349 4411.01101,6007.52897 C4414.5677,6003.97457 4414.5677,5993.31127 4419.90299,5993.31127 C4427.01675,5991.53401 4434.13051,5998.64292 4441.24415,6003.97457 C4466.14224,6027.07845 4389.66986,6014.63788 4441.24415,6023.52405 C4466.14224,6027.07845 4492.81856,6007.52897 4519.49501,6018.1924 C4526.60877,6019.96941 4508.82443,6028.85571 4507.04596,6035.96437 C4503.48914,6048.40494 4505.26761,6060.8455 4503.48914,6075.0632 C4498.15385,6092.83542 4466.14224,6085.72651 4448.35791,6094.61268 C4441.24415,6099.94434 4446.57944,6117.71643 4437.68733,6121.27082 C4405.67572,6131.93413 4421.68146,6103.49861 4402.11866,6115.93917 C4382.5561,6128.37974 4364.77176,6123.04808 4345.2092,6131.93413 C4336.31685,6135.48853 4332.76015,6149.70635 4322.08957,6149.70635 C4306.08371,6149.70635 4277.62879,6119.49357 4261.62305,6115.93917 C4249.174,6114.16191 4160.25257,6135.48853 4154.91728,6115.93917 C4153.13881,6107.05325 4178.03691,6114.16191 4160.25257,6101.72135 C4149.58199,6094.61268 4154.91728,6110.60752 4151.36034,6115.93917 C4147.80352,6117.71643 4142.46823,6114.16191 4140.68976,6110.60752 C4140.68976,6105.27599 4153.13881,6099.94434 4147.80352,6099.94434 C4142.46823,6098.16708 4137.13294,6110.60752 4131.79765,6108.83026 C4126.46237,6107.05325 4137.13294,6098.16708 4133.57613,6092.83542 C4121.12708,6076.84046 4128.24084,6108.83026 4122.90555,6107.05325 C4101.56427,6099.94434 4085.55853,6064.3999 4080.22324,6069.73155 C4073.1096,6078.61772 4094.45076,6091.05804 4092.67229,6101.72135 C4090.89382,6119.49357 3991.3018,6096.38969 3987.74499,6101.72135 C3982.4097,6110.60752 4000.19403,6123.04808 3998.41556,6133.71139 C3996.63709,6139.04304 3987.74499,6131.93413 3982.4097,6131.93413 L3980.63123,6131.93413 C3971.73912,6126.60248 3943.28433,6107.05325 3934.39222,6110.60752 C3923.72152,6115.93917 3927.27846,6131.93413 3921.94317,6140.82018 C3918.38623,6144.3747 3925.49999,6130.15687 3923.72152,6124.82522 C3920.1647,6115.93917 3911.2726,6108.83026 3902.38037,6101.72135 C3879.26074,6078.61772 3811.68058,6062.62276 3779.66885,6075.0632 C3779.66885,6075.0632 3760.10617,6160.36966 3733.42973,6172.81022 C3712.0887,6181.69615 3674.74155,6130.15687 3660.51416,6123.04808 C3651.62193,6117.71643 3678.29849,6139.04304 3655.17887,6133.71139 C3633.83784,6128.37974 3603.60445,6107.05325 3578.7066,6114.16191 C3569.81425,6115.93917 3573.37107,6131.93413 3566.25756,6135.48853 C3555.58698,6139.04304 3543.13793,6131.93413 3530.68888,6131.93413 C3528.91041,6131.93413 3527.13206,6131.93413 3525.35359,6133.71139 C3521.79678,6142.59744 3500.45574,6187.0278 3493.34186,6187.0278 C3482.67141,6185.25054 3488.0067,6162.14692 3480.89294,6153.26075 C3470.22236,6135.48853 3427.54005,6147.92909 3427.54005,6128.37974 C3427.54005,6115.93917 3498.67715,6112.3849 3500.45574,6112.3849 C3507.56926,6110.60752 3514.68302,6103.49861 3520.0183,6096.38969 C3523.57512,6094.61268 3520.0183,6087.50377 3523.57512,6085.72651 C3527.13206,6082.17212 3534.24582,6087.50377 3537.80264,6085.72651 C3550.25169,6075.0632 3553.80851,6059.06824 3566.25756,6050.1822 C3571.59284,6046.62768 3580.48483,6053.73659 3585.82011,6051.95933 C3591.1554,6048.40494 3589.37706,6041.29602 3594.71235,6037.74163 C3603.60445,6028.85571 3619.61032,6027.07845 3628.50255,6016.41514 C3633.83784,6009.30623 3632.05937,5968.43013 3644.50841,5963.09848 C3651.62193,5961.32135 3658.73568,5975.53905 3665.84944,5977.31631 C3706.75316,5980.8707 3658.73568,5918.66812 3758.3277,5936.44034 C3792.11778,5941.77187 3836.57856,5987.97961 3870.36876,5961.32135 C3881.03921,5952.43517 3877.48252,5934.6632 3882.81768,5923.99977 C3884.59603,5920.44538 3969.96065,5867.12897 3980.63123,5854.6884 C3991.3018,5842.24784 3934.39222,5879.56929 3927.27846,5884.90119 C3918.38623,5888.45546 3909.49413,5890.23272 3900.60202,5892.00985 C3895.26673,5892.00985 3891.70979,5883.1238 3886.3745,5884.90119 C3841.91385,5897.34151 3852.58442,5934.6632 3799.23166,5904.45042 C3781.44732,5892.00985 3785.00402,5861.79731 3768.99828,5845.80235 C3754.77088,5831.58453 3728.09456,5863.57433 3710.31022,5854.6884 C3706.75316,5852.91114 3703.19646,5797.81735 3701.41799,5792.4857 C3699.63965,5788.93143 3697.86118,5799.59461 3694.30436,5799.59461 C3681.85531,5801.37199 3697.86118,5787.15417 3655.17887,5799.59461 C3649.8437,5799.59461 3651.62193,5810.25792 3648.06511,5813.81231 C3637.39465,5817.36683 3623.16726,5820.92122 3612.49656,5817.36683 C3603.60445,5815.58957 3587.59859,5804.92626 3591.1554,5797.81735 C3596.49069,5787.15417 3614.27503,5794.26308 3624.94561,5792.4857 C3630.28089,5790.70844 3580.48483,5788.93143 3575.14954,5781.82251 C3568.03578,5771.15921 3571.59284,5756.94151 3571.59284,5744.50094 C3571.59284,5708.95662 3637.39465,5728.5061 3646.28664,5724.95146 C3656.95721,5721.39707 3658.73568,5703.62497 3671.18473,5701.84771 C3680.07684,5701.84771 3688.96907,5710.73388 3697.86118,5708.95662 C3726.31597,5701.84771 3783.22579,5653.86283 3793.89637,5628.98195 C3797.45307,5621.87303 3790.33931,5552.56154 3779.66885,5541.89823 C3749.43559,5504.57666 3715.64551,5611.20973 3703.19646,5538.34384 C3699.63965,5525.90327 3736.98654,5524.12601 3760.10617,5506.35392 C3763.66299,5501.02227 3761.88464,5492.13609 3765.44146,5486.80444 C3768.99828,5481.47291 3772.55522,5477.91852 3776.11203,5476.14126 C3783.22579,5470.8096 3790.33931,5469.03234 3795.67459,5467.25521 C3808.12364,5467.25521 3818.79422,5472.58686 3843.69232,5463.70069 C3847.24913,5461.92356 3836.57856,5449.48299 3841.91385,5451.26025 C3854.36289,5453.03738 3861.47665,5467.25521 3873.92545,5469.03234 C3898.82355,5472.58686 3904.15884,5449.48299 3921.94317,5465.47795 C3930.83528,5474.36387 3934.39222,5501.02227 3945.0628,5493.91335 C3955.73338,5486.80444 3936.17057,5467.25521 3939.72751,5454.81464 C3941.50573,5447.70573 3973.51747,5451.26025 3996.63709,5479.69553 C4001.97238,5485.02743 3982.4097,5479.69553 3975.29594,5476.14126 C3959.29007,5467.25521 3952.17631,5440.59694 3955.73338,5421.04746 C3957.5116,5410.38428 3968.18218,5401.49823 3977.07441,5394.38932 C3984.18817,5389.05767 4001.97238,5394.38932 4000.19403,5385.50315 C3996.63709,5374.83984 3975.29594,5374.83984 3971.73912,5364.17654 C3948.61962,5314.41452 4009.08614,5353.51323 4009.08614,5332.18674 C4010.86461,5321.52343 3996.63709,5326.85509 4001.97238,5314.41452 C4007.30767,5301.97395 4023.31366,5293.08791 4021.53519,5278.8702 C4019.75672,5252.21181 3998.41556,5300.19682 3973.51747,5301.97395 C3957.5116,5301.97395 3978.85288,5268.20702 3973.51747,5253.98907 C3969.96065,5246.88016 3961.06854,5268.20702 3953.95478,5266.42964 C3932.61375,5259.32073 3950.39809,5239.7715 3948.61962,5229.10819 L3927.27846,5184.67783 C3925.49999,5163.35109 3984.18817,5104.7029 3985.96651,5104.7029 C3989.52346,5106.48028 3987.74499,5115.36621 3991.3018,5113.58895 C4005.52932,5110.03455 4025.09188,5106.48028 4028.64895,5094.03972 C4032.20564,5083.37641 4007.30767,5094.03972 3996.63709,5092.26246 C3989.52346,5090.48532 3982.4097,5081.59915 3973.51747,5083.37641 C3962.84689,5086.93081 3957.5116,5101.14863 3946.84102,5104.7029 C3937.94904,5108.2573 3927.27846,5101.14863 3918.38623,5102.92564 C3907.71566,5106.48028 3902.38037,5115.36621 3893.48826,5118.9206 C3889.93144,5120.69786 3884.59603,5120.69786 3882.81768,5117.14347 C3881.03921,5111.81194 3891.70979,5102.92564 3886.3745,5101.14863 C3881.03921,5099.37137 3882.81768,5111.81194 3879.26074,5115.36621 C3877.48252,5117.14347 3873.92545,5115.36621 3872.14723,5113.58895 C3863.25488,5102.92564 3863.25488,5076.2675 3843.69232,5072.7131 C3818.79422,5067.38145 3852.58442,5097.59399 3834.80009,5126.02951 C3827.68645,5136.69282 3818.79422,5108.2573 3811.68058,5097.59399 C3760.10617,5030.05975 3813.45893,5108.2573 3744.1003,5067.38145 C3726.31597,5056.71814 3768.99828,5065.60419 3767.21993,5056.71814 C3765.44146,5015.84218 3772.55522,5019.39645 3797.45307,4990.96104 C3843.69232,4939.42189 3765.44146,4999.84722 3822.35116,4948.30782 C3827.68645,4942.97629 3840.13537,4942.97629 3843.69232,4935.86737 C3850.80608,4923.42693 3817.01587,4882.55084 3815.2374,4878.99657 C3813.45893,4873.66492 3824.12951,4873.66492 3825.90798,4868.33326 C3831.24327,4855.8927 3825.90798,4839.89774 3831.24327,4825.67991 C3838.35703,4809.68495 3852.58442,4827.45717 3868.59016,4834.56608 C3927.27846,4861.22435 3838.35703,4818.57112 3838.35703,4815.01661 C3833.02174,4804.3533 3838.35703,4790.13572 3840.13537,4775.9179 C3840.13537,4767.03185 3847.24913,4756.36854 3841.91385,4749.25963 C3840.13537,4747.48237 3768.99828,4786.5812 3763.66299,4791.91273 C3749.43559,4804.3533 3772.55522,4829.23443 3768.99828,4848.78379 C3767.21993,4855.8927 3752.99241,4854.11544 3747.65712,4859.44709 C3744.1003,4863.00161 3740.54336,4868.33326 3740.54336,4873.66492 C3738.76501,4878.99657 3742.32183,4886.10523 3740.54336,4889.65975 C3735.20807,4903.87745 3720.9808,4910.98637 3715.64551,4925.20407 C3713.86692,4928.75859 3724.5375,4935.86737 3720.9808,4937.64463 C3708.53175,4944.75355 3692.52589,4950.0852 3678.29849,4944.75355 C3667.62792,4939.42189 3692.52589,4925.20407 3697.86118,4916.31802 C3708.53175,4902.1002 3704.97494,4878.99657 3715.64551,4864.77875 L3752.99241,4832.78882 C3749.43559,4823.90278 3729.87278,4836.34322 3726.31597,4827.45717 C3722.75927,4820.34826 3774.33356,4790.13572 3749.43559,4784.80407 C3738.76501,4781.24955 3733.42973,4807.90769 3724.5375,4802.57604 C3713.86692,4793.69012 3749.43559,4786.5812 3756.54935,4774.14076 C3763.66299,4759.92294 3758.3277,4727.93302 3763.66299,4715.49257 C3767.21993,4704.82927 3776.11203,4694.16596 3785.00402,4692.3887 C3793.89637,4690.61157 3809.90211,4710.16092 3809.90211,4701.27487 C3809.90211,4692.3887 3790.33931,4692.3887 3785.00402,4683.50265 C3772.55522,4658.62152 3845.47079,4646.1812 3847.24913,4646.1812 C3852.58442,4640.84955 3824.12951,4647.95821 3824.12951,4640.84955 C3824.12951,4630.18599 3841.91385,4628.40898 3845.47079,4617.74568 C3849.0276,4612.41402 3834.80009,4621.30007 3829.4648,4626.63172 C3817.01587,4635.51765 3818.79422,4639.07229 3808.12364,4644.40394 C3785.00402,4656.84439 3763.66299,4676.39374 3747.65712,4669.28483 C3749.43559,4672.83935 3751.21394,4674.61648 3754.77088,4676.39374 C3756.54935,4679.94813 3763.66299,4683.50265 3760.10617,4687.05705 C3745.87865,4699.49761 3674.74155,4724.3785 3662.2925,4699.49761 C3660.51416,4697.72035 3662.2925,4692.3887 3664.07097,4692.3887 C3699.63965,4678.171 3671.18473,4731.48741 3715.64551,4671.06209 C3744.1003,4633.74064 3632.05937,4653.28987 3712.0887,4626.63172 C3715.64551,4633.74064 3719.20221,4640.84955 3724.5375,4646.1812 C3726.31597,4649.73547 3729.87278,4653.28987 3733.42973,4655.06713 C3729.87278,4649.73547 3726.31597,4642.62656 3724.5375,4633.74064 C3722.75927,4628.40898 3736.98654,4633.74064 3742.32183,4633.74064 C3756.54935,4633.74064 3770.77675,4640.84955 3783.22579,4635.51765 C3799.23166,4628.40898 3687.1906,4630.18599 3701.41799,4608.85951 C3712.0887,4594.6418 3758.3277,4614.19116 3761.88464,4607.08237 C3768.99828,4589.31015 3717.42398,4567.98366 3767.21993,4555.5431 C3779.66885,4551.9887 3792.11778,4567.98366 3806.34542,4564.42902 C3854.36289,4553.76584 3793.89637,4521.77592 3793.89637,4521.77592 C3799.23166,4509.33535 3825.90798,4525.33031 3834.80009,4514.667 C3843.69232,4504.0037 3836.57856,4486.23148 3836.57856,4472.0139 C3836.57856,4461.35059 3838.35703,4450.68729 3834.80009,4443.57837 C3833.02174,4440.02398 3774.33356,4377.8214 3813.45893,4361.82644 C3822.35116,4356.49478 3824.12951,4390.26196 3834.80009,4386.70744 C3849.0276,4383.15305 3829.4648,4342.27696 3850.80608,4354.71752 C3879.26074,4370.71248 3881.03921,4372.48974 3881.03921,4370.71248 C3886.3745,4347.60861 3866.81194,4345.8316 3868.59016,4322.72773 C3868.59016,4313.84156 3891.70979,4333.39103 3895.26673,4324.50474 C3902.38037,4312.06442 3886.3745,4296.06946 3888.15297,4283.62889 C3888.15297,4278.29724 3893.48826,4292.51494 3898.82355,4292.51494 C3911.2726,4297.8466 3930.83528,4308.5099 3939.72751,4297.8466 C3946.84102,4288.96055 3921.94317,4280.07438 3918.38623,4269.41107 C3909.49413,4239.19853 3936.17057,4262.30241 3936.17057,4262.30241 C3939.72751,4258.74776 3930.83528,4251.6391 3932.61375,4248.08458 C3936.17057,4246.30744 3945.0628,4255.19349 3945.0628,4251.6391 C3945.0628,4246.30744 3932.61375,4242.75293 3934.39222,4237.42127 C3936.17057,4224.98071 3946.84102,4216.09466 3953.95478,4205.43135 L3953.95478,4205.43135 Z M4480.36951,3869.53731 C4480.36951,3874.86896 4483.92658,3878.42361 4482.14811,3881.97788 C4480.36951,3885.53252 4471.47753,3880.20062 4471.47753,3883.75514 C4469.69906,3892.64118 4487.48327,3874.86896 4496.37538,3876.64622 C4501.71067,3878.42361 4487.48327,3885.53252 4483.92658,3890.86405 C4483.92658,3892.64118 4491.04009,3897.97284 4489.26187,3899.7501 C4485.7048,3901.52736 4478.59129,3892.64118 4476.81282,3897.97284 C4476.81282,3901.52736 4487.48327,3901.52736 4487.48327,3906.85901 C4489.26187,3922.85397 4466.14224,3917.52232 4467.92071,3922.85397 C4469.69906,3945.95784 4471.47753,3963.72981 4435.90886,4001.05151 C4434.13051,4004.60591 4437.68733,3993.9426 4439.4658,3990.3882 C4450.13638,3967.28433 4469.69906,3928.18562 4460.80695,3922.85397 C4453.6932,3915.74506 4446.57944,3942.40332 4437.68733,3937.07167 C4425.23828,3931.74002 4419.90299,3915.74506 4416.3463,3903.30449 C4414.5677,3899.7501 4421.68146,3901.52736 4425.23828,3899.7501 C4439.4658,3897.97284 4453.6932,3901.52736 4466.14224,3896.1957 C4475.03435,3890.86405 4475.03435,3878.42361 4480.36951,3869.53731 L4480.36951,3869.53731 Z M4243.83872,4189.43639 C4220.71909,4235.64401 4114.01332,4136.11986 4188.70736,4130.7882 C4199.37794,4130.7882 4210.04851,4143.22877 4210.04851,4155.66934 C4211.82698,4162.77825 4188.70736,4161.00099 4192.26418,4166.33264 C4197.59946,4176.99595 4213.60533,4176.99595 4224.27591,4180.55022 C4229.6112,4184.10486 4236.72496,4185.88187 4243.83872,4189.43639 L4243.83872,4189.43639 Z M3483.54861,4971.86196 C3494.21918,4966.5303 3497.776,4948.75808 3508.44658,4943.42655 C3519.11728,4936.31777 3531.5662,4952.31273 3542.23666,4950.53547 C3554.68571,4950.53547 3563.57806,4941.64942 3574.24851,4943.42655 C3586.69744,4945.20381 3593.8112,4957.64438 3604.48177,4961.19865 C3609.81706,4964.75329 3620.48752,4957.64438 3622.26611,4962.97591 C3629.37987,4975.41648 3632.93656,4993.18857 3629.37987,5007.4064 C3629.37987,5012.73805 3622.26611,5014.51531 3622.26611,5018.0697 C3641.82867,5094.48999 3632.93656,4994.96583 3654.27772,5062.50006 C3661.39148,5082.04942 3615.15235,5108.70781 3615.15235,5108.70781 C3645.38561,5101.5989 3677.39734,5078.49503 3672.06206,5149.58365 C3664.9483,5218.89515 3615.15235,5181.5737 3600.92496,5197.56866 C3588.47591,5210.00898 3597.36801,5238.4445 3565.35628,5233.11285 C3558.24252,5233.11285 3552.90723,5226.00406 3547.57195,5220.67228 L3540.45843,5211.78624 C3528.00517,5205.45979 3551.12901,5236.66737 3490.66237,5215.34063 C3481.77014,5213.5635 3494.21918,5197.56866 3497.776,5188.68236 C3499.55447,5176.2418 3481.77014,5179.79644 3478.21332,5172.68753 C3469.32109,5154.91531 3483.54848,5115.6149 3463.9858,5119.1693 C3443.93589,5121.96505 3436.7526,5129.09972 3434.28545,5134.35527 C3430.17975,5143.10124 3442.48998,5154.19307 3438.23941,5160.95194 C3435.30217,5165.62247 3422.84924,5166.98978 3398.18399,5169.13313 C3371.50767,5170.91027 3302.14904,5078.49503 3309.26268,5069.60898 C3311.04115,5069.60898 3380.39978,5051.83676 3380.39978,5051.83676 C3383.95672,5041.17358 3360.83709,5035.84192 3359.05862,5025.17861 C3355.5018,5014.51531 3401.74105,5028.73301 3407.07622,5025.17861 C3435.53113,5007.4064 3424.86043,4962.97591 3463.9858,4962.97591 C3469.32109,4970.08495 3476.43485,4975.41648 3483.54861,4971.86196 Z M3802.78835,4226.75797 C3793.89637,4240.97579 3768.99828,4255.19349 3765.44146,4265.85668 C3763.66299,4274.74272 3761.88464,4324.50474 3738.76501,4324.50474 C3726.31597,4322.72773 3728.09456,4303.17825 3719.20221,4294.2922 C3708.53175,4287.18329 3722.75927,4324.50474 3712.0887,4329.83664 C3706.75316,4331.61365 3699.63965,4322.72773 3696.08271,4326.28212 C3683.63378,4333.39103 3681.85531,4358.27192 3667.62792,4358.27192 C3655.17887,4358.27192 3644.50841,4336.9453 3651.62193,4326.28212 C3658.73568,4313.84156 3688.96907,4335.16829 3694.30436,4320.95047 C3699.63965,4308.5099 3669.40626,4306.73277 3664.07097,4292.51494 C3662.2925,4287.18329 3676.52002,4288.96055 3680.07684,4285.40615 C3681.85531,4283.62889 3674.74155,4285.40615 3674.74155,4283.62889 C3671.18473,4276.51998 3669.40626,4269.41107 3671.18473,4262.30241 C3687.1906,4217.87192 3699.63965,4258.74776 3724.5375,4264.07942 C3726.31597,4264.07942 3715.64551,4237.42127 3720.9808,4232.08962 C3738.76501,4210.76301 3738.76501,4230.31236 3756.54935,4228.53523 C3758.3277,4226.75797 3758.3277,4221.42631 3760.10617,4221.42631 C3770.77675,4212.54027 3781.44732,4198.32244 3793.89637,4200.0997 C3802.78835,4201.87696 3799.23166,4217.87192 3802.78835,4226.75797 L3802.78835,4226.75797 Z" id="uk" fill="#87B024"></path>
                        <path d="M4703.43074,6212.93422 C4717.65814,6212.93422 4726.55037,6188.05309 4737.22094,6193.38474 C4760.34057,6202.27091 4749.66999,6243.14675 4756.7835,6257.3647 C4767.45408,6282.24559 4806.57957,6253.81006 4811.91486,6282.24559 C4813.69333,6289.3545 4808.35804,6298.24055 4810.13651,6305.34946 C4813.69333,6319.56704 4886.6089,6301.79507 4890.16572,6332.0076 C4890.16572,6342.67091 4875.93832,6351.55708 4875.93832,6362.22039 C4874.15985,6369.3293 4888.38737,6369.3293 4888.38737,6374.66096 C4888.38737,6383.547 4879.49514,6388.87866 4874.15985,6397.76458 C4868.82456,6408.42789 4927.51286,6422.64571 4952.41071,6399.54184 C4964.85976,6388.87866 4975.53034,6356.88874 4987.97939,6367.55204 C4991.5362,6371.10644 4982.6441,6376.43809 4980.86563,6381.76974 C4979.08716,6388.87866 4971.97352,6395.98757 4971.97352,6404.87349 C4971.97352,6411.98241 4982.6441,6413.75979 4984.42232,6420.86845 C4984.42232,6429.75462 4970.19505,6440.41793 4977.30881,6447.52672 C4984.42232,6458.19015 5002.20666,6452.85837 5014.6557,6458.19015 C5021.76946,6463.5218 5023.54781,6474.18511 5030.66157,6479.51676 C5032.44004,6481.29378 5037.77533,6474.18511 5041.33215,6475.96212 C5044.88909,6477.73951 5046.66744,6481.29378 5048.44591,6484.84842 C5048.44591,6486.62543 5039.55368,6490.17995 5041.33215,6491.95708 C5046.66744,6495.5116 5055.55967,6491.95708 5059.11648,6497.28874 C5064.45177,6504.39765 5057.33801,6520.39261 5066.23024,6523.94713 C5076.90082,6529.27878 5089.34975,6516.83821 5101.79867,6518.61547 C5107.13396,6518.61547 5112.46925,6520.39261 5117.80454,6522.16987 C5126.69677,6525.72426 5133.81053,6529.27878 5140.92416,6532.83317 C5142.70263,6534.61043 5140.92416,6541.7191 5142.70263,6539.94209 C5153.37309,6539.94209 5162.26519,6531.05592 5171.15742,6531.05592 C5181.828,6531.05592 5192.49858,6536.38757 5201.39068,6539.94209 C5204.94762,6545.27374 5215.6182,6539.94209 5220.95349,6545.27374 C5235.18076,6554.15966 5244.07299,6595.03576 5261.8572,6612.80798 C5283.19848,6635.91185 5247.62981,6563.04596 5300.98257,6611.03072 C5304.53964,6614.58511 5297.42588,6621.69402 5299.20435,6627.02568 C5302.76104,6632.35721 5359.67087,6609.25346 5368.56298,6616.36237 C5373.89814,6621.69402 5370.34145,6632.35721 5375.67674,6637.68886 C5382.7905,6643.02051 5489.49615,6655.46108 5482.38239,6667.90165 C5462.81958,6701.66882 5427.25115,6722.99531 5413.02363,6751.43084 C5407.68834,6763.87128 5405.91,6802.96999 5404.13153,6813.63342 L5379.23343,6854.50939 C5375.67674,6863.39556 5372.11992,6872.28149 5373.89814,6881.16753 C5373.89814,6886.49919 5381.0119,6886.49919 5381.0119,6890.05371 C5379.23343,6914.93471 5361.44934,6938.03846 5363.22769,6962.91959 C5363.22769,6986.02334 5363.22769,6993.13226 5365.00616,6993.13226 C5304.53964,7055.33484 5325.88067,6987.8006 5276.08472,7002.01843 C5272.52791,7003.79556 5279.64154,7010.90448 5279.64154,7014.45875 C5270.74944,7021.56766 5256.52192,7028.67657 5260.07886,7037.56262 C5261.8572,7046.44879 5288.53377,7028.67657 5288.53377,7037.56262 C5286.7553,7062.44375 5277.86319,7042.89427 5268.97096,7050.00318 C5252.9651,7062.44375 5238.7377,7097.98794 5226.28878,7108.65125 C5215.6182,7121.09181 5190.72011,7115.76016 5183.60647,7129.97799 C5178.27118,7142.41843 5188.94176,7158.41326 5183.60647,7169.07682 C5176.49271,7188.62605 5144.4811,7188.62605 5132.03205,7206.39827 C5110.6909,7233.05654 5133.81053,7257.93767 5124.9183,7286.37295 C5123.13982,7291.7046 5105.35561,7282.81855 5105.35561,7305.92242 C5105.35561,7309.47682 5096.46338,7313.03134 5098.24185,7313.03134 C5119.58301,7318.36299 5144.4811,7309.47682 5155.15168,7288.1502 C5156.9299,7284.59581 5148.03792,7281.04129 5146.25933,7277.4869 C5146.25933,7272.15524 5144.4811,7268.60085 5148.03792,7265.04633 C5164.04366,7240.16545 5213.83973,7240.16545 5236.95923,7250.82875 C5244.07299,7252.60577 5229.84547,7263.2692 5231.62394,7268.60085 C5231.62394,7277.4869 5242.29452,7281.04129 5244.07299,7289.92746 C5245.85134,7300.59077 5220.95349,7298.81351 5231.62394,7316.58573 C5235.18076,7320.14 5245.85134,7314.80835 5247.62981,7320.14 C5251.18663,7325.47165 5242.29452,7334.35783 5244.07299,7339.68948 C5245.85134,7343.24387 5252.9651,7332.58057 5254.74357,7336.13496 C5263.63568,7345.02113 5263.63568,7357.4617 5270.74944,7368.12501 C5188.94176,7416.10976 5235.18076,7394.78327 5260.07886,7437.43638 C5263.63568,7444.54529 5256.52192,7456.98586 5261.8572,7464.09452 C5267.19262,7476.53509 5284.97683,7478.31247 5290.31212,7488.97565 C5299.20435,7504.97061 5242.29452,7551.17836 5233.40254,7552.95537 C5228.06725,7554.73263 5224.51018,7544.06944 5219.17502,7544.06944 C5210.28291,7545.8467 5194.27705,7545.8467 5194.27705,7554.73263 C5190.72011,7583.16815 5249.40828,7606.27203 5258.30039,7620.48973 C5263.63568,7631.15291 5265.41415,7645.37074 5265.41415,7659.58844 C5263.63568,7664.92009 5247.62981,7656.03404 5245.85134,7661.3657 C5244.07299,7664.92009 5249.40828,7668.47461 5247.62981,7670.25174 C5242.29452,7679.13792 5233.40254,7684.46957 5226.28878,7691.57836 C5220.95349,7702.24179 5238.7377,7707.57344 5240.51605,7712.9051 C5240.51605,7716.45937 5231.62394,7716.45937 5231.62394,7720.01376 C5229.84547,7744.89489 5276.08472,7778.66207 5295.64728,7783.99372 C5306.31786,7787.54799 5318.76691,7782.21634 5329.43749,7782.21634 C5340.10806,7780.43908 5352.55711,7773.33042 5361.44934,7778.66207 C5388.12566,7798.2113 5327.65914,7839.08739 5336.55125,7871.07719 C5334.77277,7871.07719 5304.53964,7881.7405 5300.98257,7885.29502 C5288.53377,7887.07215 5276.08472,7888.84941 5268.97096,7895.95832 C5263.63568,7901.28998 5272.52791,7913.73042 5265.41415,7919.06207 C5258.30039,7924.39385 5245.85134,7917.28494 5236.95923,7922.61659 C5229.84547,7927.94824 5231.62394,7942.16582 5222.73196,7949.27473 C5215.6182,7952.82913 5206.72597,7943.94308 5199.61234,7947.49747 C5194.27705,7949.27473 5197.83387,7958.16078 5192.49858,7963.49243 C5187.16329,7970.60135 5172.93577,7972.37861 5169.37895,7981.26465 C5167.60048,7988.37357 5183.60647,7999.03687 5176.49271,8004.36853 C5167.60048,8013.2547 5149.81639,8004.36853 5137.36734,8006.14579 C5121.36148,8009.70006 5110.6909,8025.69502 5096.46338,8031.02667 C5080.45752,8036.35832 5092.90656,8011.47744 5057.33801,8009.70006 C5034.21839,8007.9228 5059.11648,8018.58635 5055.55967,8022.14062 C5052.00273,8025.69502 5044.88909,8025.69502 5039.55368,8023.918 C5034.21839,8023.918 5028.8831,8023.918 5027.10475,8020.36336 C5027.10475,8016.80909 5039.55368,8007.9228 5014.6557,7995.48248 C5009.32042,7993.70522 5003.98513,7995.48248 4996.87137,7995.48248 C4984.42232,7991.92796 4970.19505,7993.70522 4961.30294,7984.81917 C4952.41071,7975.933 4961.30294,7958.16078 4954.18918,7949.27473 C4950.63224,7943.94308 4943.51861,7956.38365 4936.40485,7956.38365 C4925.73427,7956.38365 4904.39324,7959.93804 4906.17146,7949.27473 C4907.95006,7935.05716 4939.96166,7940.38881 4941.74013,7926.17098 C4941.74013,7911.95328 4922.17758,7901.28998 4909.72853,7903.06711 C4899.05795,7904.84437 4918.62051,7924.39385 4913.28522,7931.50251 C4904.39324,7940.38881 4890.16572,7945.72046 4877.7168,7943.94308 C4849.26201,7942.16582 4858.15399,7892.4038 4852.8187,7899.51272 C4827.92085,7927.94824 4883.05208,7940.38881 4867.04622,7947.49747 C4810.13651,7970.60135 4835.03436,7933.2799 4833.25614,7926.17098 C4831.47767,7919.06207 4769.23255,7911.95328 4763.89726,7908.39876 C4749.66999,7901.28998 4731.88566,7878.1861 4714.10132,7888.84941 C4694.53876,7899.51272 4666.08384,7935.05716 4646.52104,7945.72046 C4628.7367,7954.60639 4593.16827,7947.49747 4571.82712,7977.71026 C4568.27018,7981.26465 4577.16241,7988.37357 4577.16241,7993.70522 C4573.60547,8011.47744 4550.48584,8022.14062 4548.70749,8041.68998 C4548.70749,8047.02163 4561.15654,8045.24449 4562.93489,8050.57615 C4571.82712,8082.56607 4548.70749,8073.68002 4561.15654,8109.22421 C4564.71336,8119.88752 4575.38394,8128.77369 4586.05452,8137.65974 L4578.94076,8137.65974 C4550.48584,8130.55082 4518.47423,8114.55586 4491.79779,8132.32808 C4486.4625,8135.88248 4493.57626,8150.1003 4486.4625,8151.87756 C4468.67817,8157.20922 4438.44503,8121.66478 4420.66069,8121.66478 C4404.65483,8121.66478 4392.20578,8130.55082 4377.97851,8132.32808 C4367.30768,8134.10534 4365.52946,8114.55586 4361.97252,8111.00147 C4353.08041,8103.89256 4338.85302,8100.33816 4326.40397,8095.00663 C4344.1883,8071.90276 4340.63136,8048.79889 4294.39236,8052.35328 C4292.61389,8052.35328 4287.2786,8059.4622 4283.72166,8068.34837 C4274.82955,8061.23945 4280.16484,8045.24449 4271.27273,8038.13558 C4265.93745,8032.80393 4255.26687,8032.80393 4246.37464,8031.02667 C4242.81782,8031.02667 4237.48253,8032.80393 4235.70406,8031.02667 C4216.1415,8013.2547 4198.35716,7991.92796 4168.12378,7986.59631 C4146.78262,7983.04191 4155.67498,8023.918 4155.67498,8023.918 C4136.11217,8022.14062 4120.10631,8007.9228 4102.32197,8009.70006 C4096.98668,8009.70006 4096.98668,8020.36336 4091.65139,8020.36336 C4080.98081,8018.58635 4075.64565,8006.14579 4064.97507,8004.36853 C4054.30449,8002.59114 4047.19074,8013.2547 4036.52016,8011.47744 C4013.40053,8011.47744 4022.29276,7988.37357 4009.84371,7977.71026 C3984.94574,7956.38365 3961.82612,7988.37357 3938.70662,7970.60135 C3936.92814,7970.60135 3919.14381,7929.7255 3917.36534,7927.94824 C3894.24596,7910.17602 3855.12059,7919.06207 3830.2225,7895.95832 C3826.66568,7892.4038 3832.00097,7883.51776 3830.2225,7879.96336 C3826.66568,7876.40884 3815.9951,7895.95832 3805.32452,7892.4038 C3782.2049,7881.7405 3833.77919,7860.41388 3817.77345,7842.64179 C3812.43816,7835.533 3801.76758,7831.97848 3792.87548,7830.20122 C3791.097,7830.20122 3792.87548,7839.08739 3789.31853,7837.31013 C3789.31853,7837.31013 3769.75585,7819.53792 3759.0854,7808.87461 C3769.75585,7807.09747 3776.86961,7805.32021 3783.98325,7801.76582 C3835.55778,7776.88481 3856.89882,7606.27203 3876.46162,7552.95537 C3880.01844,7544.06944 3883.57526,7531.62888 3892.46749,7528.07448 C3899.58125,7524.52009 3915.58711,7540.51505 3919.14381,7531.62888 C3924.4791,7522.74283 3912.03005,7508.52501 3901.3596,7506.74787 C3892.46749,7504.97061 3890.68902,7529.85174 3881.79691,7526.29723 C3864.01257,7520.96557 3890.68902,7492.53005 3894.24596,7474.75783 C3901.3596,7446.32255 3920.9224,7341.46661 3940.48496,7327.24891 C3947.59872,7323.69464 3972.49669,7362.79335 3979.61045,7380.56545 C4004.50855,7433.88198 3970.71835,7384.11997 3988.50268,7440.99089 C3992.0595,7451.6542 4002.72996,7460.54025 4006.28677,7471.20356 C4008.06524,7476.53509 4000.95148,7492.53005 4006.28677,7490.75291 C4015.179,7488.97565 4020.51429,7476.53509 4018.73582,7469.42617 C4015.179,7458.76299 4002.72996,7455.2086 3995.6162,7446.32255 C3981.38892,7423.21868 4000.95148,7380.56545 3986.72421,7353.90718 C3979.61045,7339.68948 3967.16141,7327.24891 3956.49083,7314.80835 C3949.37719,7305.92242 3940.48496,7297.03625 3929.81439,7289.92746 C3940.48496,7293.48186 3952.93401,7297.03625 3963.60459,7291.7046 C3976.05364,7284.59581 3936.92814,7266.82359 3940.48496,7252.60577 C3944.0419,7238.38819 3960.04777,7231.27928 3961.82612,7217.06158 C3963.60459,7206.39827 3951.15554,7197.5121 3951.15554,7186.84879 C3951.15554,7174.40847 3961.82612,7161.96791 3961.82612,7149.52734 C3961.82612,7145.97295 3952.93401,7145.97295 3947.59872,7147.75008 C3944.0419,7149.52734 3947.59872,7160.19065 3944.0419,7158.41326 C3935.14967,7154.85899 3933.37145,7140.64129 3926.25769,7135.30964 C3920.9224,7133.53238 3913.80864,7140.64129 3908.47335,7137.08677 C3903.13807,7133.53238 3908.47335,7121.09181 3903.13807,7117.53742 C3871.12633,7087.32463 3888.91067,7153.08173 3858.67729,7094.43355 C3856.89882,7089.10202 3855.12059,7050.00318 3848.00671,7041.11714 C3846.22824,7039.33988 3840.89295,7041.11714 3839.11448,7039.33988 C3832.00097,7028.67657 3823.10874,7016.236 3817.77345,7003.79556 C3810.65981,6986.02334 3846.22824,6968.25125 3849.7853,6961.14234 C3856.89882,6945.14737 3814.21663,6934.48419 3814.21663,6932.70693 C3810.65981,6920.26637 3810.65981,6913.15758 3812.43816,6907.82592 C3737.74424,6900.71701 3805.32452,6882.94479 3807.10287,6843.84608 C3808.88134,6820.74221 3734.1873,6840.29169 3732.40895,6831.40552 C3728.85201,6817.18782 3750.19317,6811.85616 3760.86387,6804.74725 C3762.64209,6802.96999 3751.97164,6808.30165 3750.19317,6806.52451 C3748.41482,6804.74725 3750.19317,6799.4156 3748.41482,6797.63834 C3743.07953,6797.63834 3741.30106,6802.96999 3735.96577,6804.74725 C3721.73838,6804.74725 3707.51086,6794.08394 3695.06181,6799.4156 C3693.28359,6801.19286 3691.50499,6802.96999 3691.50499,6804.74725 C3695.06181,6779.86637 3712.84615,6756.76249 3675.49925,6753.20798 C3655.93644,6751.43084 3661.27173,6776.31185 3647.04434,6767.4258 C3636.37376,6760.31689 3622.14649,6737.21302 3611.47566,6731.88136 C3604.36215,6730.10423 3595.46992,6737.21302 3590.13463,6731.88136 C3567.01501,6714.10914 3595.46992,6692.78265 3551.00914,6696.33717 C3547.45232,6698.11431 3554.56608,6707.00048 3551.00914,6708.77749 C3538.56034,6714.10914 3520.776,6724.77257 3510.10543,6715.8864 C3499.43485,6708.77749 3510.10543,6689.22826 3506.54848,6676.78769 C3501.2132,6655.46108 3478.09357,6660.79273 3463.86618,6651.90668 C3462.0877,6650.12943 3467.42299,6644.79777 3470.97993,6644.79777 C3488.76427,6641.2435 3506.54848,6643.02051 3524.33282,6643.02051 C3527.88951,6643.02051 3536.78187,6650.12943 3536.78187,6646.57503 C3536.78187,6643.02051 3520.776,6618.13963 3510.10543,6600.36741 C3520.776,6605.69906 3531.44658,6602.14467 3542.11703,6603.9218 C3549.23079,6603.9218 3565.23666,6611.03072 3559.90137,6607.47632 C3547.45232,6600.36741 3526.11129,6603.9218 3520.776,6591.48136 C3517.21906,6580.81793 3545.67385,6584.37245 3547.45232,6573.70914 C3552.78761,6552.38265 3440.74667,6634.13459 3478.09357,6538.16483 C3479.87204,6538.16483 3538.56034,6515.06096 3554.56608,6515.06096 C3574.12877,6515.06096 3529.66811,6538.16483 3572.35029,6525.72426 C3584.79934,6523.94713 3597.24839,6509.7293 3609.69744,6513.28382 C3620.36789,6516.83821 3615.03273,6538.16483 3625.70318,6541.7191 C3632.81694,6541.7191 3627.48165,6520.39261 3634.59529,6518.61547 C3647.04434,6518.61547 3655.93644,6541.7191 3668.38549,6538.16483 C3679.05607,6534.61043 3671.94243,6511.50656 3682.61301,6504.39765 C3686.16983,6500.84325 3693.28359,6511.50656 3698.61875,6511.50656 C3709.28933,6511.50656 3721.73838,6500.84325 3730.63048,6506.17491 C3739.52259,6511.50656 3732.40895,6529.27878 3741.30106,6534.61043 C3746.63635,6538.16483 3746.63635,6525.72426 3751.97164,6522.16987 C3760.86387,6515.06096 3789.31853,6591.48136 3796.43229,6605.69906 C3798.21076,6607.47632 3798.21076,6598.59015 3801.76758,6598.59015 C3812.43816,6591.48136 3823.10874,6589.7041 3835.55778,6584.37245 C3844.45002,6579.0408 3851.56353,6564.82297 3860.45576,6568.37749 C3876.46162,6575.48628 3862.2341,6637.68886 3904.91654,6619.91664 C3917.36534,6614.58511 3910.25183,6591.48136 3919.14381,6579.0408 C3928.03591,6566.60023 3929.81439,6603.9218 3940.48496,6605.69906 C3951.15554,6607.47632 3960.04777,6602.14467 3970.71835,6603.9218 C3981.38892,6603.9218 4002.72996,6619.91664 4006.28677,6609.25346 C4009.84371,6589.7041 3968.93988,6575.48628 3974.27517,6555.93705 C3977.83211,6543.49648 3981.38892,6531.05592 3986.72421,6518.61547 C3983.1674,6518.61547 3979.61045,6516.83821 3981.38892,6509.7293 C3984.94574,6497.28874 3995.6162,6483.07103 3995.6162,6468.85346 C3995.6162,6465.29894 3984.94574,6470.63047 3983.1674,6467.0762 C3979.61045,6458.19015 3983.1674,6443.97233 3977.83211,6435.08628 C3976.05364,6429.75462 3965.38306,6429.75462 3961.82612,6424.42297 C3958.2693,6413.75979 3956.49083,6399.54184 3958.2693,6388.87866 C3958.2693,6383.547 3967.16141,6381.76974 3967.16141,6378.21535 C3967.16141,6365.77478 3960.04777,6353.33422 3958.2693,6340.89378 C3958.2693,6337.33926 3961.82612,6348.00256 3963.60459,6349.77982 C3977.83211,6356.88874 3990.28091,6363.99752 4004.50855,6367.55204 C4008.06524,6369.3293 4013.40053,6365.77478 4016.95735,6365.77478 C4031.18487,6365.77478 4045.41226,6358.66587 4057.86131,6365.77478 C4064.97507,6367.55204 4061.41801,6378.21535 4057.86131,6385.32426 C4056.08284,6388.87866 4050.74755,6387.1014 4047.19074,6390.65592 C4041.85545,6395.98757 4061.41801,6452.85837 4063.1966,6452.85837 C4136.11217,6463.5218 4031.18487,6419.09132 4088.09457,6440.41793 C4114.77102,6451.08124 4148.56122,6456.41289 4173.45907,6468.85346 C4182.3513,6474.18511 4187.68659,6486.62543 4196.57869,6488.40269 C4237.48253,6493.73434 4228.5903,6470.63047 4258.82369,6461.74454 C4265.93745,6459.96729 4273.05108,6459.96729 4281.94331,6459.96729 C4262.3805,6456.41289 4244.59629,6443.97233 4269.49426,6401.31922 C4287.2786,6372.8837 4406.43317,6369.3293 4438.44503,6351.55708 C4450.89383,6346.22543 4459.78618,6335.56225 4472.23523,6328.45333 C4482.90568,6323.12168 4502.46837,6324.89894 4507.80366,6314.23538 C4513.13895,6303.5722 4493.57626,6298.24055 4491.79779,6287.57724 C4490.01932,6282.24559 4491.79779,6273.35954 4495.35461,6269.80502 C4498.91155,6266.25063 4506.02519,6273.35954 4506.02519,6269.80502 C4506.02519,6266.25063 4497.13308,6266.25063 4497.13308,6260.91897 C4497.13308,6248.47841 4511.3606,6163.1722 4514.91742,6154.28603 C4522.03118,6132.95942 4580.71923,6129.40502 4596.72509,6127.62776 C4618.06612,6125.8505 4639.40728,6124.07337 4658.97009,6120.51885 C4662.5269,6145.39998 4664.30537,6212.93422 4703.43074,6212.93422 Z M5656.66832,8059.4622 C5681.56641,8077.23441 5656.66832,8125.21917 5656.66832,8144.76865 C5656.66832,8151.87756 5672.67431,8167.87252 5670.89583,8160.76361 C5667.33902,8153.6547 5656.66832,8134.10534 5658.44679,8141.21413 C5662.0036,8151.87756 5669.11736,8158.98623 5672.67431,8167.87252 C5678.00959,8180.31284 5678.00959,8219.41167 5678.00959,8230.07486 C5679.78782,8260.28764 5649.55468,8283.39151 5649.55468,8304.71813 C5649.55468,8327.82188 5658.44679,8359.8118 5638.8841,8381.13841 C5637.10563,8384.69293 5628.21353,8381.13841 5628.21353,8384.69293 C5628.21353,8390.02458 5640.66245,8384.69293 5638.8841,8388.24732 C5638.8841,8395.35624 5628.21353,8395.35624 5624.65658,8400.68789 C5619.3213,8413.12846 5624.65658,8429.12329 5615.7646,8439.7866 C5590.86651,8464.66761 5597.98026,8413.12846 5592.64498,8411.35107 C5569.52535,8404.24216 5555.29796,8422.01438 5539.29221,8395.35624 C5535.73515,8390.02458 5546.40573,8382.91567 5542.84891,8375.80676 C5537.51374,8365.14345 5516.17259,8361.58906 5517.95094,8349.14849 C5517.95094,8334.93079 5546.40573,8327.82188 5544.6275,8313.60405 C5542.84891,8302.94087 5514.39412,8324.26761 5512.61565,8313.60405 C5509.05883,8299.38648 5537.51374,8292.27756 5535.73515,8279.83712 C5533.95693,8265.6193 5507.28036,8269.17369 5503.72354,8254.95599 C5501.94507,8244.29281 5525.06469,8240.73841 5525.06469,8228.29785 C5525.06469,8217.63454 5507.28036,8212.30289 5501.94507,8201.63958 C5500.16672,8194.53067 5519.72941,8199.86232 5523.2861,8194.53067 C5526.84317,8182.0901 5525.06469,8166.09526 5532.17845,8155.43196 C5533.95693,8151.87756 5537.51374,8164.31788 5541.07044,8162.54087 C5549.96267,8160.76361 5551.74101,8148.32304 5560.63324,8144.76865 C5567.74688,8141.21413 5576.63911,8148.32304 5583.75287,8144.76865 C5592.64498,8139.437 5592.64498,8123.44204 5601.53696,8121.66478 C5612.20754,8119.88752 5621.09977,8134.10534 5633.54881,8134.10534 C5644.21939,8134.10534 5631.77034,8111.00147 5633.54881,8098.5609 C5635.32716,8084.34333 5649.55468,8073.68002 5656.66832,8059.4622 L5656.66832,8059.4622 Z" id="fr" fill="#87B024"></path>
                        <path d="M5098.24185,5688.6553 L5066.23024,5713.18251 C5048.44591,5775.3851 5126.69677,5745.52622 5098.24185,5766.85284 C5085.7928,5775.73876 5066.23024,5772.18449 5059.11648,5784.62506 C5050.22438,5797.06562 5078.38656,5808.41059 5067.71598,5819.0739 C5064.15929,5824.40568 5041.33215,5836.16433 5044.88909,5841.49599 L5067.18115,5849.96847 C5077.85173,5849.96847 5117.14822,5778.07678 5146.13809,5795.28824 C5156.94939,5801.70693 5142.70263,5789.95671 5139.14581,5777.51614 C5135.58887,5765.07558 5164.04366,5752.63514 5158.70837,5740.19457 C5151.59461,5724.19961 5108.91243,5745.52622 5108.91243,5729.53126 C5110.6909,5717.0907 5117.80454,5706.42751 5119.58301,5693.98695 C5119.58301,5690.43255 5116.02619,5686.87804 5114.24772,5683.32364 C5112.46925,5679.76925 5092.55241,5699.24928 5099.66617,5690.36323 L5064.45177,5711.75917 C5052.00273,5715.31344 5037.77533,5709.98179 5025.32628,5709.98179 C5019.99099,5709.98179 5014.6557,5706.42751 5012.87723,5708.20477 C4989.75761,5736.64005 4996.87137,5793.51098 4986.20091,5823.72377 C4975.53034,5850.38203 4954.18918,5880.59469 4934.62638,5901.92131 C4927.51286,5910.80736 4922.17758,5921.47066 4913.28522,5926.80232 C4907.95006,5930.35683 4895.50101,5923.24792 4893.72266,5930.35683 C4890.16572,5941.02014 4906.17146,5955.23772 4900.8363,5965.90103 C4883.05208,5994.33655 4827.92085,5980.11885 4840.36965,5987.22764 C4854.59717,5996.11381 4865.26775,6008.55413 4881.27361,6015.66304 C4888.38737,6017.44042 4895.50101,6006.77712 4900.8363,6008.55413 C4907.95006,6010.33151 4920.3991,6020.99469 4915.06382,6026.32635 C4906.17146,6031.658 4883.05208,6012.10877 4883.05208,6022.77195 C4884.83043,6038.76691 4931.06956,6036.98965 4922.17758,6049.43022 C4895.50101,6084.97466 4870.60304,6019.21768 4859.93246,6017.44042 C4826.14238,6008.55413 4794.13065,6013.88603 4799.46594,6026.32635 C4799.46594,6028.10361 4854.59717,6065.42518 4865.26775,6063.64805 C4868.82456,6063.64805 4867.04622,6056.53913 4870.60304,6052.98461 C4877.7168,6047.65296 4884.83043,6060.09353 4891.94419,6061.87079 C4899.05795,6065.42518 4909.72853,6058.31639 4916.84229,6065.42518 C4920.3991,6068.9797 4923.9558,6074.31135 4925.73427,6079.64301 C4931.06956,6081.42014 4934.62638,6083.1974 4939.96166,6081.42014 C4952.41071,6081.42014 4918.62051,6040.54417 4961.30294,6052.98461 C4964.85976,6052.98461 4957.746,6061.87079 4959.52447,6063.64805 C4980.86563,6081.42014 4986.20091,6038.76691 5002.20666,6051.20748 C5007.54195,6056.53913 4987.97939,6067.20244 4993.31467,6070.75683 C5034.21839,6092.08332 4998.64996,6065.42518 5030.66157,6058.31639 C5035.99686,6056.53913 5044.88909,6108.07853 5057.33801,6109.85554 C5085.7928,6115.1872 5123.13982,6113.41006 5146.25933,6143.62272 C5148.03792,6147.17724 5139.14581,6150.73164 5137.36734,6154.28603 C5133.81053,6164.94921 5124.9183,6173.83551 5123.13982,6184.49869 C5123.13982,6188.05309 5132.03205,6186.27583 5130.25358,6189.83034 C5128.47511,6195.162 5119.58301,6196.93926 5117.80454,6204.04805 C5105.35561,6248.47841 5135.58887,6236.03809 5164.04366,6237.81523 L5165.82213,6237.81523 C5162.26519,6232.48357 5160.48684,6227.15192 5160.48684,6225.37466 C5162.26519,6218.26587 5174.71424,6218.26587 5176.49271,6211.15696 C5181.828,6180.94417 5130.25358,6170.28087 5146.25933,6166.7266 C5151.59461,6164.94921 5155.15168,6172.05813 5158.70837,6172.05813 L5192.49858,6141.84546 C5194.27705,6132.95942 5171.15742,6143.62272 5178.27118,6129.40502 C5183.60647,6116.96446 5196.05539,6108.07853 5201.39068,6095.63797 C5217.39642,6056.53913 5178.27118,6028.10361 5167.60048,6008.55413 C5165.82213,6004.99986 5169.37895,5999.6682 5171.15742,5996.11381 C5171.15742,5992.55929 5167.60048,5987.22764 5171.15742,5985.4505 C5180.04953,5980.11885 5190.72011,5985.4505 5201.39068,5981.89599 C5204.94762,5980.11885 5197.83387,5969.45554 5201.39068,5971.23268 C5212.06114,5974.7872 5219.17502,5987.22764 5231.62394,5987.22764 C5244.07299,5989.0049 5292.09059,5973.00994 5297.42588,5960.56937 C5302.76104,5948.12881 5263.63568,5946.35179 5279.64154,5935.68849 C5308.09633,5916.13901 5341.88653,5909.0301 5334.77277,5864.59961 C5332.99443,5839.71873 5267.19262,5850.38203 5283.19848,5823.72377 C5284.97683,5818.39211 5293.86906,5823.72377 5293.86906,5820.16925 C5295.64728,5814.83759 5286.7553,5809.50594 5288.53377,5804.17429 C5288.53377,5800.61989 5293.86906,5800.61989 5297.42588,5800.61989 C5309.8748,5800.61989 5320.54538,5805.95155 5332.99443,5805.95155 C5347.22182,5805.95155 5334.77277,5777.51614 5340.10806,5763.29844 C5343.66501,5750.85788 5373.89814,5693.98695 5370.34145,5663.77429 C5334.77277,5681.54638 5331.21596,5615.78941 5300.98257,5608.68049 C5274.30625,5603.34884 5133.81053,5633.56163 5117.80454,5658.44263 C5108.91243,5669.10594 5105.35561,5679.76925 5098.24185,5688.6553 L5098.24185,5688.6553 Z M4787.01689,6065.42518 C4783.46007,6111.6328 4820.80709,6081.42014 4847.48341,6093.86058 C4851.04023,6095.63797 4843.92672,6102.74688 4847.48341,6106.30115 C4868.82456,6120.51885 4886.6089,6095.63797 4900.8363,6083.1974 C4891.94419,6074.31135 4881.27361,6067.20244 4877.7168,6065.42518 C4868.82456,6063.64805 4867.04622,6079.64301 4858.15399,6079.64301 C4827.92085,6079.64301 4847.48341,6061.87079 4811.91486,6056.53913 C4803.02275,6054.76187 4794.13065,6054.76187 4783.46007,6058.31639 L4787.01689,6065.42518 L4787.01689,6065.42518 Z" id="nl" fill="#FFFFFF"></path>
                    </g>
                </g>
            </g>
        </g>
    </g>
</svg>