<?xml version="1.0" encoding="UTF-8" standalone="no"?>
<svg width="453px" height="644px" viewBox="0 0 453 644" version="1.1" xmlns="http://www.w3.org/2000/svg" xmlns:xlink="http://www.w3.org/1999/xlink">
    <!-- Generator: Sketch 3.6 (26304) - http://www.bohemiancoding.com/sketch -->
    <title>no</title>
    <desc>Created with Sketch.</desc>
    <defs></defs>
    <g id="Page-1" stroke="none" stroke-width="1" fill="none" fill-rule="evenodd">
        <g id="Group" transform="translate(-299.000000, -28.000000)" fill="#FFFFFF">
            <path d="M595.73933,146.830342 C596.093379,146.830342 596.093379,146.830342 596.093379,147.184403 L595.73933,146.830342 Z M653.447893,207.126207 L653.093844,207.126207 L653.447893,207.126207 Z M746.56049,73.2944833 C748.684734,76.1269188 753.641268,82.8539221 749.392806,84.2701151 C745.14432,85.6863329 734.169081,80.0214866 737.709494,83.207958 C744.436247,88.8727795 730.982716,97.0160006 729.212497,101.264629 C729.212497,101.61869 733.461008,116.842925 728.504424,115.072672 C715.050893,109.761861 730.982716,100.910568 726.380181,93.121408 C719.299379,80.7296079 708.324115,85.332297 699.119094,75.4187975 L698.765046,73.6485686 C698.410997,73.6485686 698.056973,73.6485686 697.702924,74.0026292 C697.702924,73.6485686 697.348875,73.6485686 697.348875,73.2944833 L697.348875,74.0026292 C690.268098,75.4187975 691.684219,83.5620186 685.665563,85.332297 C680.354955,86.74849 682.479198,79.3133901 676.460493,86.0403935 C675.752445,87.1025506 676.460493,88.8727795 676.106445,90.2889973 C675.752445,90.6430826 671.857983,98.0781577 671.857983,98.4322183 C670.795862,101.264629 672.920105,110.469983 673.274153,112.948357 C673.274153,114.010515 672.566081,114.718611 672.566081,115.780768 C672.566081,117.905082 672.920105,119.675311 673.274153,121.799675 C674.336275,124.632061 676.814567,126.756375 677.168566,129.588811 C678.938785,141.980611 675.752445,133.483379 671.503959,137.377922 C666.547375,142.334672 671.14991,143.750889 669.73374,149.769747 C669.379691,151.185989 667.963546,151.894061 667.609497,153.310279 C667.609497,153.664339 663.006962,149.415736 662.298889,149.061675 C661.236792,148.353578 648.13731,143.750889 647.075188,145.167082 C645.659018,146.5833 646.721115,149.415736 645.659018,150.831904 C641.410532,158.267028 635.745875,153.664339 629.72717,154.726496 C627.957,154.726496 625.478709,156.49675 624.062538,155.434593 C622.292344,154.018375 623.000417,151.185989 621.938295,149.415736 C619.460028,145.167082 611.317104,134.19145 607.068618,131.713125 C592.907014,123.569904 599.279743,144.813046 599.279743,144.813046 C597.1555,145.167082 595.385281,142.688732 593.261038,142.688732 C592.198917,142.688732 590.428722,143.750889 590.782746,144.458986 C591.136795,144.813046 591.490844,145.167082 591.844893,145.167082 L591.136795,145.167082 C588.304479,145.875204 584.410017,144.104925 582.993896,146.5833 C581.931725,148.353578 586.53426,149.415736 587.596382,151.185989 C588.658503,153.310279 589.366601,155.788654 589.366601,158.267028 C589.366601,162.515657 583.34792,165.702128 584.410017,169.950732 C584.764091,173.137203 597.1555,172.429107 585.472139,179.864207 C582.285799,181.988496 557.857003,169.950732 552.900469,176.323675 C550.776226,179.15611 559.627222,199.337046 552.54642,202.169482 L541.217107,197.212732 C539.092864,197.212732 532.366111,209.604581 532.012087,212.437017 C531.303989,216.33156 531.303989,221.28831 528.471673,224.828817 C526.34743,227.307167 522.452968,223.412624 523.51509,229.785542 C524.93126,237.574703 534.13633,238.282799 530.241868,247.842213 C528.117625,253.861095 516.434312,267.669138 514.310069,274.042081 C513.601972,277.228527 518.204507,280.060963 517.142385,283.247434 L509.353486,289.974437 C506.521194,291.390606 500.856538,288.204134 499.440368,291.390606 L502.980781,305.198673 C502.980781,305.198673 501.210562,315.82022 501.210562,316.17428 L502.272684,329.274202 C501.91866,330.690419 500.148441,331.044455 499.794416,332.460673 C496.608052,342.020087 491.651493,351.933562 488.465128,361.847012 C486.340885,368.21993 501.210562,364.679423 498.732295,382.027948 C496.254003,398.668401 486.694934,382.027948 472.179281,391.233326 C467.576746,394.065712 459.787871,406.103526 458.72575,411.768322 C458.371701,413.538601 460.495944,414.954819 460.14192,416.371012 C459.787871,420.265604 454.831288,422.743979 454.831288,426.638547 C454.831288,469.478843 460.14192,395.127919 460.14192,437.968215 C460.14192,440.092529 457.663628,441.508747 457.663628,443.633061 C457.309579,446.111386 458.72575,448.235725 459.079798,450.714075 C459.079798,452.83839 457.309579,455.316764 457.663628,457.441054 C458.017652,462.75184 463.682284,467.354529 464.390381,472.66529 C465.098454,480.45445 459.433822,490.3679 461.204042,497.803025 C463.328285,505.946196 476.781816,505.2381 478.197937,514.089417 L474.303524,528.251496 C471.471184,530.729871 464.390381,528.959617 464.744406,532.5001 C466.514625,547.724385 475.719645,543.829792 471.825232,564.010777 L472.179281,574.278288 C468.992916,582.42146 457.663628,583.129581 456.955531,585.607931 C456.601507,586.316052 458.371701,586.670088 458.371701,587.732245 C459.079798,589.148463 459.787871,590.918741 459.079798,592.334934 C458.017652,594.459224 454.477264,594.813309 453.769166,597.29166 C451.644923,603.664602 461.558041,617.826681 453.769166,628.802288 C450.582801,633.404977 449.166631,629.864445 448.10451,626.323962 C448.458558,626.323962 448.458558,626.323962 448.812607,625.969902 C450.228777,624.907745 448.10451,622.075309 447.042388,620.659116 C439.607562,608.975363 443.502024,626.323962 431.818662,615.348306 C430.756566,614.286149 432.880784,612.161835 432.880784,610.745666 C432.880784,608.621352 430.756566,610.745666 430.756566,610.745666 C428.632322,607.559195 429.340371,602.248385 430.048493,602.956506 C430.048493,602.248385 429.694444,601.894349 429.694444,601.540288 C428.986371,597.999756 427.92425,594.813309 427.216152,591.272777 C426.862128,589.148463 430.048493,584.545774 427.570201,584.545774 C418.71918,584.545774 433.942905,595.521381 425.091909,601.540288 C424.737885,601.540288 424.383836,601.186227 424.383836,600.832191 C424.029787,598.707877 425.091909,596.229527 424.383836,594.459224 C423.321715,592.688995 419.781301,589.502524 419.427253,591.272777 C419.073229,594.105213 422.613617,595.875442 423.675763,598.353817 C424.383836,599.770034 422.259593,602.956506 422.967666,604.726759 C425.800007,612.161835 427.92425,608.267291 425.800007,613.223992 C425.800007,613.578052 425.800007,614.640209 425.091909,614.640209 C424.383836,614.640209 423.675763,612.515895 422.967666,613.223992 C420.489374,617.826681 423.675763,623.845588 420.843423,623.845588 C419.427253,623.845588 421.197472,619.242898 420.13535,619.950995 C414.11667,623.845588 425.445958,627.740131 410.576256,627.740131 C408.806062,627.740131 410.576256,624.199599 409.160111,623.137442 C407.389892,622.075309 404.203527,618.180741 403.141405,619.950995 C402.079284,622.42937 406.681819,623.845588 407.74394,626.323962 C408.097989,627.38612 398.538895,628.094191 397.476774,631.634723 C397.12275,633.050916 401.017187,634.467134 399.955065,635.529291 C398.184871,637.653605 393.582336,635.883352 391.812117,637.653605 C390.749996,639.069823 395.352531,639.423884 394.998482,640.840052 C392.874239,655.356191 390.041923,636.591448 388.271753,644.026548 C387.91768,644.734645 389.33385,645.442741 388.979801,646.150862 C387.209582,648.629213 378.004562,659.60482 377.650513,659.95888 C376.94244,660.667002 375.880319,658.542663 375.172221,659.250784 C373.047978,661.021037 373.402027,665.623727 370.569736,665.977787 C368.445443,666.685884 368.091444,660.667002 365.613152,661.375098 C363.13486,662.083195 364.196982,666.685884 362.426787,668.102101 C361.010617,669.164259 358.532325,667.39398 357.116204,668.102101 C356.054083,668.456137 355.700009,669.872355 354.637912,670.226416 C351.097499,672.350705 352.159621,669.164259 347.203062,669.164259 C344.72477,669.164259 341.892429,673.058802 340.476308,671.288573 C339.060138,669.518319 345.078819,668.102101 344.370721,665.977787 C343.3086,664.207509 341.184356,668.810198 339.060138,668.810198 C336.227822,669.164259 333.395482,668.102101 330.563166,667.039944 C324.544461,664.207509 336.227822,660.312941 337.289944,657.834566 C337.643968,656.418348 335.165701,655.00218 333.74953,655.356191 C332.33336,655.710277 332.687409,658.896723 330.91719,659.250784 C328.792947,659.60482 326.668704,658.188627 324.544461,657.126494 C320.295999,655.356191 317.817707,648.983273 315.693464,647.567055 C314.631343,646.504898 312.507099,647.21302 311.090929,646.504898 C308.612687,645.088705 304.364176,635.883352 304.718225,633.404977 C304.718225,631.280663 307.196516,629.864445 307.904589,627.38612 C308.258638,625.261805 305.426297,619.950995 307.904589,620.659116 C310.73693,621.367213 308.612687,627.38612 311.444978,628.448252 C312.861148,629.510409 313.215172,624.907745 314.985391,624.199599 C315.693464,623.491527 316.401537,624.199599 317.109634,624.907745 C316.401537,623.137442 316.047513,621.367213 315.339415,619.596959 C314.985391,617.118584 320.295999,617.826681 321.712169,616.056427 C322.420242,615.348306 318.525805,616.056427 318.879829,614.99427 C319.587926,613.223992 321.358121,612.161835 323.12829,611.453738 C325.252533,610.03752 329.501044,611.099677 330.563166,608.621352 C331.979311,605.434856 322.066193,610.03752 319.94195,607.913231 C318.525805,609.683509 317.817707,609.683509 317.817707,606.497013 C318.171756,603.664602 324.190412,602.956506 323.482364,600.478131 C322.420242,597.645695 318.171756,596.937599 315.339415,597.645695 C310.73693,599.061913 312.507099,610.03752 307.904589,609.683509 C305.426297,609.683509 307.196516,605.08082 306.134395,603.310542 C305.426297,602.248385 304.010152,601.540288 302.593982,600.832191 C302.593982,600.832191 302.593982,601.186227 302.94803,601.186227 C302.593982,601.186227 302.593982,601.186227 302.239933,601.540288 C302.239933,601.186227 302.593982,600.832191 302.593982,600.832191 C301.53186,600.12407 300.469738,599.415974 300.469738,598.353817 C300.469738,596.583538 304.718225,599.770034 306.134395,598.707877 C308.258638,596.937599 307.550516,592.334934 310.028808,591.272777 C311.799027,590.21062 312.861148,594.105213 314.631343,594.459224 C315.339415,594.813309 314.277294,592.688995 314.985391,592.334934 C315.693464,591.626838 316.755586,592.688995 317.463683,592.334934 C318.879829,591.980899 313.92327,591.980899 314.277294,590.564681 C314.277294,590.21062 328.792947,583.837678 327.730825,583.837678 C316.401537,583.129581 323.482364,592.688995 312.507099,582.77552 C312.153051,582.42146 314.277294,582.77552 314.631343,582.067449 C315.339415,581.359303 314.631343,579.589074 315.693464,579.234988 C317.109634,578.172856 318.879829,579.589074 320.295999,578.526917 C321.004072,578.172856 319.94195,577.110699 319.94195,576.402602 C320.650048,574.986385 321.358121,573.924228 322.066193,573.216131 C323.836412,572.153974 327.730825,573.216131 328.084874,571.445853 C328.438923,569.321538 323.482364,569.675599 323.482364,567.905321 C323.12829,567.197224 323.836412,566.135067 324.544461,565.072935 C323.836412,565.072935 322.774291,563.302681 322.066193,564.010777 C320.295999,565.072935 319.233878,566.843164 318.171756,568.259381 C316.755586,571.091792 317.463683,574.632324 315.339415,576.756638 C314.277294,577.818771 314.631343,573.924228 314.277294,572.86207 C312.153051,568.967478 310.382856,570.029635 311.799027,566.489152 C313.215172,563.656692 318.879829,557.283774 315.693464,557.991871 C312.153051,559.054028 309.674808,574.632324 305.426297,566.843164 C304.364176,564.364838 303.302054,561.532403 302.593982,558.699992 C302.239933,555.867556 307.550516,558.699992 313.92327,556.575678 C315.339415,556.221617 316.047513,554.805399 316.401537,553.035146 C313.92327,555.513521 309.32076,550.20271 309.32076,548.786542 C309.32076,545.600071 314.277294,544.891949 317.109634,543.475732 C316.401537,539.581164 313.215172,543.121696 310.382856,546.308167 C310.382856,546.308167 310.028808,546.308167 310.028808,545.954106 C309.674808,545.600071 309.32076,544.891949 308.612687,544.183853 C309.674808,545.24601 310.028808,546.662228 310.382856,546.308167 C308.612687,548.078396 307.196516,549.494614 306.134395,549.848699 C304.364176,549.848699 305.072273,546.308167 304.364176,544.891949 C304.010152,544.183853 297.637398,537.81091 299.407617,537.456849 C301.885909,537.456849 304.010152,539.581164 306.134395,541.351417 C306.134395,540.997381 305.780346,540.28926 306.134395,539.581164 C306.842468,537.102789 311.090929,537.102789 313.215172,535.332535 C313.569221,534.978475 312.861148,533.562257 312.153051,533.916317 C309.32076,534.270403 304.718225,537.81091 302.239933,536.394692 C299.053568,534.624414 301.53186,526.481242 303.302054,525.419085 C305.780346,523.648807 308.612687,528.959617 311.799027,528.959617 C312.153051,529.313653 319.233878,520.816396 327.022752,524.710964 C329.501044,525.773121 329.855068,529.313653 332.33336,530.37581 C334.811652,531.437967 330.209117,525.065025 338.352065,522.94071 C348.619207,520.108324 337.998017,538.164946 348.973256,537.456849 C355.700009,536.748778 346.494964,531.083931 346.849013,526.481242 C347.203062,521.524493 365.259103,533.208246 362.780836,520.816396 C362.426787,518.338021 357.824252,522.94071 355.700009,522.232614 C354.283839,521.878553 353.92984,519.754239 353.92984,518.338021 C353.92984,514.443478 363.842958,510.548885 360.302544,509.132668 C351.451548,505.59216 354.283839,521.878553 353.575791,523.648807 C353.575791,524.002867 349.327305,525.065025 345.786891,525.419085 C345.078819,525.773121 345.432843,524.356928 345.078819,524.002867 C342.600527,522.58665 339.768186,521.878553 337.289944,520.462335 C337.289944,520.462335 337.289944,520.462335 336.935895,520.108324 C335.873773,522.58665 334.811652,524.356928 334.103554,525.065025 C333.74953,525.419085 322.774291,520.462335 319.94195,520.462335 C318.879829,520.108324 319.587926,522.232614 318.879829,522.58665 C314.985391,524.356928 310.382856,525.065025 306.488394,524.002867 C305.780346,524.002867 300.469738,517.983961 301.177811,516.921803 C302.94803,514.443478 306.134395,513.381321 308.612687,512.6732 C311.444978,511.965103 316.755586,515.151575 316.755586,512.319164 C317.109634,509.840789 311.444978,511.611043 308.612687,511.965103 C306.842468,511.965103 305.426297,514.443478 303.656103,513.735357 C296.221252,510.902946 305.072273,507.008353 307.196516,507.008353 C310.73693,507.362414 316.755586,511.611043 321.004072,508.778632 C325.252533,505.59216 308.612687,509.840789 306.488394,504.884039 C305.780346,502.759725 314.631343,503.11381 312.861148,502.051653 C310.73693,500.989496 307.550516,502.405714 305.780346,500.635435 C300.11569,496.032746 308.612687,486.827418 313.92327,486.473357 C317.817707,486.473357 322.774291,487.181429 324.898534,490.3679 C325.960631,491.784118 322.774291,494.262493 323.836412,495.67871 C324.898534,497.094903 324.190412,491.430057 325.606582,491.076021 C327.376826,490.721961 328.084874,494.262493 329.855068,494.616553 C331.271239,494.616553 327.022752,492.138178 327.730825,491.430057 C329.501044,489.305743 337.998017,496.740868 344.370721,490.721961 C345.432843,489.659804 342.600527,488.951732 341.184356,488.951732 C328.792947,488.243586 347.203062,491.784118 336.935895,492.492239 C335.165701,492.846275 324.190412,487.535514 319.233878,486.827418 C317.463683,486.827418 316.047513,485.76526 314.277294,485.76526 C312.153051,485.76526 308.258638,488.951732 307.904589,486.827418 C307.550516,484.349043 313.215172,484.349043 313.92327,481.870668 C314.631343,478.684196 307.550516,477.267979 307.550516,473.727447 C307.550516,472.311278 311.090929,473.727447 311.799027,474.789653 C312.861148,476.559882 312.861148,480.808511 314.985391,480.45445 C317.109634,480.100414 312.507099,474.435568 314.631343,474.081507 C317.463683,473.727447 318.879829,479.392293 321.712169,479.392293 C323.836412,479.392293 323.12829,472.66529 324.544461,474.081507 C326.314704,475.497725 323.836412,478.684196 323.836412,481.162571 C323.836412,481.516607 323.12829,482.578764 323.482364,482.578764 C325.606582,481.870668 324.544461,477.267979 326.668704,477.267979 C327.730825,477.267979 327.022752,479.746354 328.084874,480.45445 C330.209117,481.516607 333.74953,483.640946 334.811652,481.516607 C335.519725,479.746354 330.209117,480.45445 329.146995,479.038257 C327.376826,476.913943 326.668704,474.435568 326.668704,471.957218 C326.314704,468.770746 331.625287,466.292372 334.811652,467.000493 C336.227822,467.354529 335.519725,470.186964 336.227822,471.603133 C337.289944,473.727447 339.060138,475.143665 339.768186,477.267979 C339.768186,477.9761 337.998017,479.392293 338.706065,479.392293 C339.768186,479.392293 340.122235,477.9761 340.122235,477.267979 C338.706065,470.186964 330.91719,465.584275 343.3086,463.459961 C347.557086,462.75184 348.265183,468.770746 348.265183,474.435568 C348.619207,473.727447 348.973256,472.66529 349.681329,472.311278 C351.805572,470.540975 357.824252,474.435568 357.116204,471.957218 C356.408082,469.124807 351.451548,471.603133 348.973256,469.832904 C347.203062,468.416686 347.911134,465.230215 346.494964,463.459961 C344.72477,460.981586 335.165701,457.795139 333.74953,456.732982 C333.395482,456.378922 334.811652,455.316764 335.873773,455.316764 C337.289944,454.962679 339.060138,454.962679 340.476308,455.670825 C341.184356,456.024836 340.830308,457.795139 341.538405,457.795139 C342.600527,458.1492 346.849013,450.714075 351.805572,454.608668 C353.221742,455.670825 351.097499,459.211357 352.867718,459.919429 C354.283839,460.627525 352.159621,456.024836 353.575791,455.316764 C356.054083,453.900547 361.364666,461.689683 361.364666,462.043743 C363.488909,462.397804 367.737395,460.627525 366.675274,458.857272 C365.613152,456.732982 361.364666,460.273489 359.594447,458.857272 C357.116204,456.732982 362.072739,452.83839 365.967201,451.422197 C363.13486,452.484354 360.656568,453.19245 358.178301,453.19245 C336.935895,453.546511 355.700009,451.068136 354.991961,446.819508 C354.637912,443.987072 350.035378,444.341133 348.265183,441.862758 C345.786891,439.030372 346.849013,436.551997 356.408082,437.614154 C358.532325,437.968215 358.532325,441.862758 360.656568,442.570904 C362.072739,442.924915 363.13486,440.446589 364.55103,440.446589 C366.675274,440.092529 368.445443,440.092529 370.569736,440.446589 C370.215687,440.092529 369.861613,439.384432 369.507565,439.030372 C369.153565,436.906058 371.985857,434.781743 374.1101,434.427683 C375.172221,434.073622 374.1101,436.551997 374.818197,437.614154 C375.880319,439.030372 378.358586,439.030372 379.066683,440.800601 C379.774756,442.216843 377.650513,444.341133 379.066683,445.40329 C380.836878,447.173543 385.439388,450.360039 386.855583,447.881665 C387.91768,445.40329 381.190926,444.341133 380.836878,441.508747 C380.836878,439.738468 384.73134,441.154686 386.147461,440.092529 C386.855583,439.384432 383.669218,440.800601 382.961121,440.092529 C382.607097,439.738468 385.085339,438.322251 384.377291,438.676311 C382.607097,439.030372 381.190926,441.508747 379.774756,440.800601 C377.296464,439.384432 376.588391,436.197936 375.880319,433.719586 C375.172221,432.657429 377.650513,434.781743 378.712635,435.135779 C379.774756,435.8439 375.172221,431.595272 378.712635,432.303368 C379.066683,432.303368 393.228287,439.738468 391.812117,430.179054 C390.395972,418.495326 380.482854,440.446589 382.607097,425.222304 C382.961121,422.035858 391.458093,416.371012 393.93636,417.787229 C396.060603,418.849386 393.582336,423.452076 395.352531,425.57639 C396.060603,426.638547 397.12275,423.806136 398.184871,423.098015 C399.955065,422.389918 404.9116,422.389918 403.495454,420.973701 C402.433357,419.557483 397.476774,424.514233 397.830822,422.389918 C397.830822,419.911544 401.725235,419.203447 403.495454,417.079133 C405.619697,414.954819 405.619697,410.706165 408.452013,410.352154 C410.576256,409.644008 409.514135,413.892686 410.576256,415.662915 C411.284354,417.079133 413.762596,417.787229 413.762596,419.557483 C413.762596,421.681822 410.576256,422.743979 410.930305,424.868293 C411.284354,426.284462 413.054548,423.098015 414.470718,423.452076 C416.594961,423.806136 419.073229,429.116897 420.13535,427.346619 C421.197472,424.514233 415.886889,422.389918 416.240888,419.557483 C416.240888,416.725072 430.756566,420.265604 431.110614,420.265604 C433.588906,418.495326 433.942905,414.600758 433.588906,411.768322 C433.234833,410.352154 428.986371,413.18454 429.340371,411.768322 C430.402492,407.165683 444.918145,406.457562 444.210097,402.91703 C443.856048,400.084619 435.359076,400.084619 437.12927,397.606244 C438.54544,395.127919 444.918145,395.836015 445.272218,393.00358 C446.33434,378.841501 433.588906,396.190076 430.756566,398.668401 C429.340371,399.730558 425.091909,400.792715 426.154031,402.562994 C427.570201,405.041369 431.818662,403.625151 434.296954,404.687308 C434.651003,404.687308 433.588906,405.041369 433.234833,405.395404 C431.464614,406.457562 429.340371,407.165683 427.570201,408.581876 C425.800007,409.998094 416.94901,417.787229 414.11667,417.079133 C412.346475,416.725072 413.054548,413.892686 412.346475,412.476468 C411.638378,411.060226 409.160111,409.998094 409.868183,408.581876 C410.930305,406.103526 414.470718,405.749465 416.594961,403.979211 C416.94901,403.625151 415.178766,405.041369 414.470718,404.687308 C413.762596,404.687308 415.53284,402.91703 415.178766,403.27109 C412.700499,404.333247 408.806062,409.998094 405.265648,408.581876 C399.955065,406.457562 407.74394,401.854872 411.638378,399.376522 C413.762596,398.31439 416.594961,398.31439 418.011132,396.190076 C419.073229,395.127919 414.824767,397.252233 413.408597,396.898147 C412.700499,396.898147 413.054548,396.190076 413.054548,395.48193 C413.408597,393.00358 413.054548,390.525229 414.470718,388.400915 C415.178766,387.338758 417.303009,389.109012 418.365131,388.400915 C419.073229,388.400915 416.94901,388.400915 416.94901,387.692794 C416.94901,386.630637 417.303009,385.56848 417.657058,384.506323 C418.71918,383.444165 421.197472,385.92254 421.905544,384.506323 C422.613617,383.444165 421.551496,381.319851 422.613617,379.903633 C423.675763,378.487465 426.862128,378.841501 427.570201,376.717187 C427.92425,375.300969 422.967666,373.530715 424.383836,373.176655 C426.862128,372.468558 428.986371,376.717187 431.464614,376.00909 C433.234833,375.65503 428.632322,373.884776 427.570201,372.114498 C425.800007,369.636148 431.110614,366.803712 433.942905,365.033483 C436.775246,363.263205 437.837368,371.406401 441.377781,372.822619 C443.502024,373.530715 446.33434,372.822619 447.75051,371.052341 C448.458558,369.990183 442.793927,371.052341 443.502024,369.636148 C444.564146,367.511809 449.166631,367.865869 450.228777,365.741555 C451.998972,360.784855 439.253513,373.884776 442.439902,360.430794 C442.793927,358.30648 443.502024,356.890262 443.856048,356.182166 C442.439902,357.244323 441.023732,358.30648 439.253513,359.014576 C433.942905,361.492951 449.166631,352.287573 448.10451,350.871405 C447.75051,350.163259 447.042388,350.163259 445.980266,350.517344 L445.980266,350.163259 C445.980266,349.455187 443.502024,350.163259 443.856048,349.455187 C444.918145,346.976812 455.893409,347.684909 457.663628,346.976812 C458.371701,346.268716 456.955531,344.498437 457.663628,343.790341 C462.974211,338.833591 470.055038,342.020087 471.825232,331.752576 C471.825232,329.982298 468.992916,333.52283 467.576746,334.230951 C465.806527,334.584963 464.036333,334.230951 462.266163,334.230951 C460.849993,334.584963 458.371701,336.709277 458.371701,335.293108 C459.079798,330.690419 471.825232,330.690419 468.284819,324.671513 C467.930795,323.609355 464.744406,324.317477 462.266163,324.317477 C462.620162,325.025573 463.328285,325.73367 464.036333,327.149887 C462.266163,328.920141 460.849993,331.044455 459.079798,332.814734 C458.371701,333.168794 456.955531,335.293108 456.601507,334.230951 C456.247458,332.460673 456.247458,322.547198 459.079798,322.193138 C459.079798,321.130981 459.079798,320.422884 459.787871,319.006666 C460.849993,316.17428 465.452503,317.590498 467.930795,316.17428 C468.638868,315.82022 466.160576,316.17428 465.806527,315.82022 C464.744406,314.404002 463.682284,312.633748 463.328285,311.217531 C462.974211,309.093216 466.160576,300.950045 468.284819,300.950045 C471.117159,300.595984 472.533305,305.198673 475.365646,305.906745 C476.427767,306.260806 474.303524,303.42837 473.949475,302.012202 C473.241403,300.241923 473.595427,297.055452 471.825232,295.993295 C470.055038,294.931138 466.868649,297.763573 465.098454,296.347356 C459.433822,291.744666 471.117159,293.51492 472.887354,292.806824 C476.073718,291.390606 476.427767,286.787917 481.384301,287.850074 C483.508545,288.55822 484.570666,291.390606 486.694934,291.390606 C488.465128,291.390606 483.862593,289.266292 483.508545,287.850074 L483.508545,287.496063 C483.154521,287.496063 482.800472,287.850074 482.446423,287.850074 C481.73835,287.850074 482.446423,285.725784 481.73835,285.371748 C478.197937,284.663627 475.719645,291.036595 471.825232,290.682509 C459.433822,288.91228 478.551986,286.433906 480.676229,284.663627 C481.384301,284.309591 479.260058,284.309591 478.197937,284.309591 C475.719645,283.955531 473.595427,285.017688 471.117159,284.663627 C467.930795,283.955531 468.992916,278.290684 469.700989,275.458298 C472.179281,262.358352 477.489889,268.023174 486.340885,264.482667 C491.297419,262.358352 480.676229,258.817845 479.260058,256.33947 C478.551986,254.923252 482.446423,255.98541 483.862593,255.277313 C485.278764,254.569217 477.843937,249.258406 486.694934,252.090842 C487.403007,252.090842 485.632812,253.507059 485.632812,254.215156 C485.986836,259.171856 487.757055,251.736781 487.757055,251.028685 C487.757055,250.674624 488.465128,248.90437 488.819177,249.612467 C489.881299,250.674624 488.465128,253.861095 490.235323,254.215156 C493.067663,254.569217 496.962076,253.152999 497.670173,250.674624 C498.732295,248.196249 493.775711,247.134092 493.421662,244.655767 C493.421662,244.301706 501.91866,239.344956 504.750975,240.761174 C506.521194,241.469246 502.980781,247.134092 505.105024,246.780056 C507.229267,246.780056 504.750975,241.823331 506.521194,240.761174 C506.875194,240.407113 506.875194,240.407113 507.229267,240.053077 C506.875194,239.699017 506.521194,239.344956 506.167146,238.99092 C505.105024,238.282799 508.291364,236.158485 507.229267,235.804449 C506.167146,235.450388 505.459073,237.928763 504.042903,238.63686 C500.502489,240.053077 496.254003,242.885463 492.71359,240.761174 C491.297419,239.699017 495.545955,237.574703 496.608052,235.804449 C498.732295,231.20176 499.440368,220.580189 504.750975,224.474781 C506.521194,225.89095 499.440368,228.015313 501.210562,229.431482 C502.626732,230.847699 504.750975,226.953156 507.229267,226.599095 C508.999437,226.599095 510.769656,227.307167 512.185826,228.723385 C514.310069,230.847699 518.204507,238.63686 517.142385,235.804449 C516.434312,233.326074 512.893899,231.20176 513.601972,228.369324 C513.956021,225.89095 518.204507,225.536938 519.620677,223.412624 C520.32875,222.350467 517.496434,224.120721 516.434312,224.474781 C511.12368,226.245035 509.353486,228.723385 506.875194,221.996406 C505.459073,218.455874 508.645438,220.580189 508.999437,218.809935 C509.353486,218.455874 507.937315,219.163996 507.937315,218.809935 C506.875194,215.623464 516.788336,220.580189 518.204507,218.809935 C520.682799,214.561331 509.707559,211.020799 508.999437,211.020799 C508.291364,211.020799 509.707559,212.437017 509.353486,213.145089 C508.291364,215.269403 502.272684,222.704503 500.148441,221.642346 C497.670173,220.580189 497.316125,216.685621 498.378246,214.207246 C499.086319,212.082956 502.626732,213.499174 504.042903,212.082956 C505.105024,211.020799 500.856538,213.499174 500.148441,212.437017 C498.732295,210.312703 504.750975,208.896485 506.521194,210.312703 C507.229267,210.666739 505.813097,212.437017 506.167146,212.082956 C511.831777,206.41811 521.036847,209.958642 520.32875,202.169482 C520.32875,201.107325 518.204507,203.231639 517.142385,202.523542 C516.434312,202.169482 517.496434,200.753264 516.788336,200.399253 C516.434312,200.045167 516.434312,201.815421 516.080264,201.815421 C514.664093,202.523542 513.601972,202.169482 512.53985,202.169482 C510.415607,202.523542 507.583316,204.293796 506.875194,202.523542 C502.272684,193.318189 516.080264,199.691107 516.434312,199.691107 C518.558555,197.920878 516.788336,194.026285 517.850458,191.547935 C518.204507,190.485753 518.91258,194.026285 519.266628,195.442503 C519.620677,195.796564 520.682799,195.088442 520.682799,195.442503 C520.682799,197.566793 519.266628,199.691107 519.974701,201.461385 C519.974701,202.169482 527.763576,213.499174 529.533795,211.37486 C533.782281,206.41811 516.080264,190.839814 521.390871,188.361439 C523.16109,187.299282 526.701454,190.131717 529.533795,192.610092 C529.179746,191.547935 529.179746,190.485753 528.471673,189.777657 C526.701454,188.361439 521.390871,189.06956 522.098969,186.591185 C522.452968,183.758799 527.055503,184.112811 529.887844,183.758799 C545.111569,181.280424 532.366111,188.7155 541.925205,193.318189 C548.651983,196.50466 534.13633,182.342582 540.509034,182.342582 C542.279229,182.342582 543.34135,184.466871 544.757521,184.466871 C546.881764,184.112811 550.068128,184.112811 549.714104,182.342582 C547.589861,167.472357 538.738865,182.342582 535.198451,181.634436 C534.490354,181.280424 536.614572,180.572279 536.260573,179.864207 C536.260573,179.15611 535.198451,178.093953 534.490354,178.447989 C533.428232,178.80205 533.428232,180.926364 532.012087,180.926364 C529.887844,181.280424 526.34743,181.634436 525.285334,179.510121 C524.577211,178.093953 524.93126,176.323675 525.639333,174.907482 C523.869139,175.261518 521.74492,175.615578 520.682799,176.677735 C518.91258,178.447989 520.682799,183.050653 518.558555,184.466871 C517.142385,185.529028 518.558555,180.218267 517.142385,179.15611 C515.372191,178.093953 513.247948,178.447989 511.477729,178.80205 C510.061558,179.15611 510.769656,181.988496 509.707559,183.050653 C508.645438,184.112811 507.229267,185.174968 506.167146,186.237125 C504.750975,187.653343 503.688854,189.06956 502.626732,190.485753 L502.626732,189.06956 C503.688854,186.591185 505.813097,184.112811 506.167146,181.634436 C506.521194,180.218267 504.750975,178.447989 505.459073,177.031796 C507.229267,175.261518 510.769656,175.969639 512.53985,174.199361 C519.974701,167.118346 500.856538,169.242636 511.12368,158.267028 C518.558555,149.769747 517.142385,165.702128 515.372191,173.491264 C516.080264,172.075046 517.142385,171.012889 518.204507,170.658829 C518.91258,170.304793 519.620677,172.783143 519.974701,172.075046 C521.036847,170.304793 519.264677,153.310279 525.285334,161.4535 C528.471673,165.702128 529.533795,168.888575 529.533795,170.658829 C530.949965,169.950732 532.012087,169.242636 533.074208,169.242636 C534.490354,169.242636 535.198451,172.075046 536.614572,172.075046 C539.446938,172.429107 542.633278,171.720986 545.111569,170.304793 C548.651983,168.180503 537.676694,171.012889 536.968646,166.4102 C536.968646,164.994032 538.738865,163.223753 540.509034,163.223753 L541.217107,163.223753 C540.863108,162.869693 540.509034,162.869693 540.509034,162.161596 C540.509034,160.037282 544.757521,160.745379 546.527715,159.329186 C546.881764,158.975125 545.111569,158.975125 544.757521,158.621064 C542.279229,156.850811 541.217107,152.956218 541.925205,149.769747 C542.279229,146.937361 549.360056,149.415736 550.068128,146.5833 C550.776226,144.458986 549.006007,142.334672 548.297934,140.210357 C548.297934,142.688732 547.943885,144.104925 547.589861,144.458986 C545.111569,144.458986 542.633278,142.334672 540.509034,143.750889 C536.968646,145.167082 536.260573,149.769747 534.13633,152.956218 C532.366111,151.894061 529.179746,151.894061 529.179746,150.123832 C529.887844,147.291421 534.490354,146.937361 535.198451,144.104925 C535.906524,142.688732 531.303989,145.875204 530.949965,144.458986 C530.241868,142.334672 534.13633,140.564418 533.782281,138.086043 C533.782281,136.669825 528.825697,138.440128 529.887844,137.731982 C534.844403,135.253608 542.987326,137.377922 539.446938,132.775282 C538.030743,131.359064 532.72016,132.067161 534.13633,131.005004 C535.906524,129.942847 538.738865,133.129318 540.863108,132.067161 C542.987326,130.650968 541.925205,126.048279 544.049448,125.340158 C547.589861,124.278 548.297934,131.005004 548.651983,136.669825 C548.651983,134.545536 549.360056,132.775282 550.068128,131.005004 C551.838347,128.172593 552.54642,138.086043 555.024712,139.502261 C557.502979,140.918454 560.689344,139.502261 563.167611,138.440128 C563.52166,138.440128 552.54642,134.545536 553.254468,132.067161 C553.96259,129.588811 556.440882,126.402315 558.919125,126.756375 C561.397417,126.756375 561.043368,131.359064 562.813587,133.129318 C564.583781,134.899596 567.062073,134.545536 569.186316,136.315765 C570.248413,137.377922 571.310535,141.980611 572.018607,140.564418 C574.850948,132.067161 553.96259,134.19145 561.751465,117.551022 C563.167611,114.718611 569.186316,111.178079 572.018607,113.302393 C574.496899,114.718611 571.310535,131.359064 571.310535,132.067161 C572.018607,132.775282 573.080729,131.005004 573.434778,129.942847 C573.788826,127.818532 572.018607,124.986122 573.434778,123.215843 C574.496899,121.445614 579.099434,124.278 579.453483,122.153686 C579.453483,120.029372 574.496899,120.383457 573.788826,118.259143 C573.080729,116.488865 576.621142,101.264629 581.931725,107.637547 C583.34792,109.761861 581.931725,129.588811 581.931725,130.296907 C581.223677,132.775282 576.621142,137.023911 579.099434,137.731982 C585.472139,139.856297 582.285799,127.464472 584.410017,126.048279 C586.53426,124.632061 589.720625,126.048279 591.844893,124.986122 C592.907014,124.278 590.074674,123.569904 589.366601,122.861832 C586.888309,120.737518 581.577726,117.905082 583.701969,112.948357 C592.907014,92.4133115 583.701969,115.780768 594.32316,108.699704 C597.1555,106.929451 594.32316,101.61869 596.447403,99.1403148 C597.1555,98.4322183 598.217622,99.4943755 598.925695,100.202472 C599.633743,100.910568 599.279743,102.326786 599.987792,103.034907 C601.758035,104.451076 603.882254,104.805161 605.652448,106.221379 C607.068618,107.283536 608.13074,109.407825 609.900934,110.115922 C611.671153,110.469983 606.71457,107.637547 606.006497,105.867318 C606.006497,105.513233 607.422642,105.513233 607.422642,104.805161 C608.13074,99.8484114 607.068618,92.4133115 606.360521,92.7673721 C604.590326,92.7673721 594.32316,101.61869 591.490844,91.3511544 C590.074674,85.6863329 600.341865,83.207958 603.174156,83.9160792 C605.652448,84.2701151 607.068618,87.4566112 609.54691,88.1647077 C610.254983,88.1647077 609.192861,86.0403935 609.900934,85.6863329 C610.609032,84.9782363 612.025177,85.6863329 612.733275,86.0403935 C614.857518,86.0403935 617.33576,85.6863329 619.105979,86.3944541 C623.708514,87.8106471 617.689809,98.0781577 627.248928,97.3700612 C629.019122,97.0160006 630.081243,94.5376257 629.72717,92.7673721 C629.72717,91.7052397 627.602952,93.121408 626.54083,92.7673721 C625.478709,92.4133115 623.708514,92.0592509 623.708514,90.9970938 C623.708514,89.5809254 627.957,90.2889973 626.54083,87.8106471 C625.12466,85.6863329 624.770636,83.5620186 626.186781,76.8350153 L626.186781,76.1269188 C625.478709,77.5431612 624.416587,78.9593295 623.354465,80.7296079 C621.584271,78.9593295 618.397931,77.8971724 617.689809,75.7728581 C615.919639,69.3999401 637.162046,54.1757045 629.019122,71.1701937 C632.205462,68.337783 636.807997,71.5242544 637.870118,70.4620972 C639.640313,69.3999401 633.975656,69.3999401 633.267583,67.6296865 C630.789292,61.6107796 641.410532,62.6729368 642.118605,61.6107796 C643.534775,58.424333 632.559511,54.5297404 632.559511,53.4675833 C632.913535,51.343269 637.870118,56.3000187 638.578191,54.5297404 C639.994361,52.0513902 635.391827,49.2189548 636.099924,46.386544 C637.162046,43.5541086 656.634257,45.3244116 656.988306,46.386544 C657.696379,47.4487011 648.13731,64.797251 648.491309,65.8594081 C648.491309,66.2134687 648.845358,66.2134687 649.199407,66.2134687 C648.491309,66.2134687 648.13731,66.2134687 648.13731,66.5675046 C648.845358,67.6296865 650.969601,65.8594081 652.031722,66.5675046 C656.634257,69.7540007 646.013067,71.1701937 652.031722,72.9404721 C654.155966,73.6485686 650.615552,76.8350153 650.261528,78.9593295 C650.261528,79.6674507 649.553431,89.9349366 655.572136,83.9160792 C656.634257,82.8539221 655.572136,80.7296079 655.926185,79.3133901 C656.280209,77.1890759 657.34233,75.7728581 658.050428,74.0026292 C658.7585,71.878315 654.864063,74.3566404 655.926185,71.1701937 C658.050428,65.1513116 663.715084,41.7838796 667.609497,39.6595654 C667.609497,39.6595654 670.087789,48.8648942 670.087789,49.5730154 C669.379691,51.6973296 665.839303,52.7594868 666.193327,55.2378616 C666.547375,56.6540546 669.73374,52.7594868 670.795862,54.1757045 C672.212032,55.9459581 669.379691,60.5486225 671.503959,61.6107796 C673.982226,63.3810333 677.522615,61.6107796 679.646858,59.8405507 C681.063028,58.424333 676.460493,57.3621759 676.460493,55.5918975 C676.460493,53.1135474 675.398396,49.927076 676.814567,47.8027371 C677.876688,45.3244116 681.417077,44.9703263 683.187271,42.8460368 C683.895344,42.1379402 681.417077,42.8460368 680.708979,42.4919761 C678.230688,41.429819 673.982226,40.7217225 673.982226,37.889287 C673.628202,35.7649728 679.292809,38.2433477 680.354955,36.473094 C681.771101,33.9947192 678.584736,31.1622837 679.292809,28.6839583 C679.646858,26.9136799 682.12515,32.2244902 683.895344,31.1622837 C686.727685,30.1001266 688.851928,27.6218011 694.51656,31.5163443 C698.765046,34.3487798 687.081709,49.5730154 686.019587,51.6973296 C685.665563,52.4054262 688.14383,50.6351725 688.497879,49.927076 C690.622097,48.1567977 691.684219,44.2622545 694.162511,43.5541086 C695.932705,43.2000974 694.870584,46.7405799 694.51656,48.5108583 C693.454463,50.9892331 689.205977,53.4675833 690.622097,55.9459581 C692.038268,58.0702724 695.578681,51.6973296 697.702924,53.1135474 C698.056973,53.4675833 698.410997,53.8216439 698.410997,54.1757045 C699.119094,53.8216439 700.53524,54.883801 701.243338,54.5297404 C703.367581,52.4054262 698.056973,50.6351725 698.056973,50.6351725 C697.702924,49.2189548 697.348875,37.1811905 698.765046,35.0568763 C705.137775,26.9136799 709.386236,42.4919761 709.740285,42.4919761 C732.75291,43.5541086 698.056973,28.6839583 720.715549,35.7649728 C732.398862,39.3055048 723.901889,39.6595654 722.13172,44.2622545 C721.777671,44.9703263 723.901889,44.6162657 724.610012,44.2622545 C726.73423,43.5541086 728.504424,41.7838796 730.628667,41.429819 C731.33674,41.429819 730.628667,42.8460368 730.982716,43.2000974 C732.044838,43.9081939 733.461008,43.9081939 734.523129,44.2622545 C734.877153,44.6162657 735.231202,45.3244116 735.93925,45.6784228 C737.709494,47.0946405 740.541785,48.1567977 741.957956,50.2811119 C742.312004,50.9892331 740.541785,50.9892331 739.833712,51.6973296 C738.063493,52.7594868 735.585251,53.1135474 734.523129,54.883801 C732.398862,57.7161871 734.169081,62.6729368 731.33674,64.0891545 C723.547841,67.9837224 713.988771,62.6729368 707.616067,69.7540007 C706.553945,70.4620972 709.740285,68.6918436 711.156455,68.6918436 C712.92665,68.6918436 714.34282,69.0458795 716.113014,69.3999401 C716.467063,69.7540007 716.821112,70.1080366 717.175136,70.1080366 C720.007477,70.4620972 723.901889,68.337783 725.672108,70.8161578 C727.088254,72.5864115 721.423597,75.0647863 722.485719,77.1890759 C723.547841,78.9593295 724.964011,72.2323509 727.088254,72.5864115 C729.566546,73.2944833 728.858473,78.9593295 727.796351,82.4998615 C728.150375,81.791765 728.504424,81.4377044 728.858473,81.0836438 C731.33674,80.0214866 734.877153,81.791765 737.709494,80.7296079 C738.417542,80.3755472 735.585251,79.3133901 735.585251,78.251233 C735.231202,75.7728581 735.585251,73.6485686 736.293324,71.5242544 C736.647373,70.8161578 735.93925,73.6485686 737.001372,73.6485686 C739.833712,74.3566404 742.666028,73.6485686 745.498369,73.2944833 L746.56049,73.2944833 L746.56049,73.2944833 Z M594.677209,146.229239 L595.031257,146.229239 L594.677209,146.229239 L594.677209,146.229239 Z M659.112549,37.889287 C659.466549,40.7217225 654.510014,41.429819 652.739795,43.5541086 C638.578191,29.7461154 657.696379,29.7461154 659.112549,37.889287 L659.112549,37.889287 Z M605.298399,65.5053475 C606.71457,65.5053475 607.422642,67.9837224 608.484764,67.2756259 C609.900934,66.2134687 606.006497,62.3188762 607.422642,62.6729368 C608.13074,63.0269974 608.13074,64.797251 609.192861,64.797251 C609.900934,64.4431904 608.484764,62.6729368 609.192861,62.3188762 C612.379226,60.9027078 610.963056,69.7540007 614.149396,65.1513116 C614.857518,64.4431904 612.379226,63.0269974 613.087299,62.3188762 C615.211517,59.4864901 618.751931,58.424333 621.938295,56.3000187 C621.938295,56.6540546 621.584271,56.6540546 621.584271,56.6540546 C621.584271,57.0081152 623.000417,57.0081152 623.000417,57.3621759 C622.646393,58.7783936 621.230222,60.1945619 620.52215,61.6107796 C617.689809,69.3999401 613.795396,72.5864115 605.298399,74.0026292 C606.006497,71.878315 608.484764,69.3999401 607.422642,67.2756259 C607.068618,66.9215653 606.360521,66.5675046 605.652448,66.5675046 C605.652448,66.2134687 604.944375,65.5053475 605.298399,65.5053475 L605.298399,65.5053475 Z M602.820132,66.9215653 L601.403962,66.9215653 C600.695914,66.5675046 601.403962,66.9215653 602.820132,66.9215653 L602.820132,66.9215653 Z M581.577726,92.0592509 C582.285799,90.6430826 584.410017,89.9349366 586.180261,89.2268648 C586.53426,88.8727795 587.596382,89.2268648 587.242358,89.5809254 C586.180261,92.4133115 584.410017,94.8916864 582.993896,97.3700612 C582.639847,95.5997829 580.869628,93.8295292 581.577726,92.0592509 L581.577726,92.0592509 Z M574.850948,100.910568 L575.204997,101.61869 C575.204997,101.972726 574.850948,102.326786 574.850948,102.680847 C574.850948,101.972726 574.496899,101.61869 574.850948,100.910568 L574.850948,100.910568 Z M556.086809,107.637547 C558.919125,99.8484114 587.242358,101.61869 562.813587,112.948357 C561.043368,110.824018 555.378711,110.115922 556.086809,107.637547 L556.086809,107.637547 Z M506.875194,165.348068 C507.583316,166.056189 505.459073,166.764285 505.813097,167.826418 C506.521194,171.720986 515.726215,171.36695 502.980781,176.677735 C501.564611,177.031796 500.148441,175.261518 498.378246,174.553421 C507.583316,167.118346 502.272684,166.056189 502.272684,168.180503 C502.626732,172.429107 498.024197,169.596671 495.899954,171.012889 C494.12976,171.720986 492.71359,177.739893 492.359541,175.615578 C491.297419,169.596671 500.502489,159.329186 506.875194,165.348068 L506.875194,165.348068 Z M478.551986,197.566793 C479.260058,195.442503 477.843937,191.547935 479.968181,191.193874 C493.067663,188.7155 481.384301,201.107325 477.135815,202.169482 C477.135815,201.815421 476.427767,201.815421 476.427767,201.461385 C477.135815,200.045167 478.197937,198.98301 478.551986,197.566793 L478.551986,197.566793 Z M391.104044,399.730558 C392.874239,400.084619 391.812117,402.562994 392.166166,404.333247 C391.812117,404.687308 391.104044,405.041369 390.749996,405.041369 C389.33385,405.395404 387.563631,405.395404 386.147461,405.749465 C371.277808,407.873779 390.749996,399.376522 391.104044,399.730558 L391.104044,399.730558 Z M325.252533,465.938336 C326.668704,465.230215 328.438923,465.938336 330.209117,466.292372 C330.209117,465.938336 330.209117,465.584275 330.563166,465.584275 C330.563166,465.230215 330.91719,465.938336 330.91719,466.292372 C330.563166,466.646432 330.209117,466.646432 329.855068,467.000493 L330.209117,466.646432 C328.792947,467.354529 327.376826,469.124807 325.960631,469.124807 C324.898534,469.124807 324.544461,466.646432 325.252533,465.938336 L325.252533,465.938336 Z M302.239933,601.894349 C302.593982,601.540288 302.593982,601.540288 302.94803,601.186227 C303.656103,604.726759 305.072273,608.621352 303.302054,612.161835 C299.407617,619.242898 301.53186,606.142977 302.239933,601.894349 L302.239933,601.894349 Z M307.904589,575.694481 L307.904589,575.340445 L307.904589,574.986385 C308.612687,575.694481 309.674808,576.048542 309.674808,576.756638 C311.799027,591.980899 304.010152,581.005291 307.196516,576.048542 C307.196516,576.048542 307.196516,576.402602 306.842468,576.756638 C307.196516,576.402602 307.904589,576.048542 307.904589,575.694481 L307.904589,575.694481 Z M443.856048,351.225416 C442.439902,351.579476 441.377781,351.933562 440.315635,351.933562 C437.837368,351.579476 441.023732,351.579476 443.856048,351.225416 L443.856048,351.225416 Z M651.677674,65.8594081 C650.969601,66.2134687 649.907479,66.2134687 649.199407,66.2134687 C650.261528,66.2134687 652.385771,65.5053475 651.677674,65.8594081 L651.677674,65.8594081 Z M591.844893,145.521143 L592.198917,145.521143 L591.844893,145.521143 L591.844893,145.521143 Z M592.907014,145.875204 L593.615087,145.875204 L592.907014,145.875204 L592.907014,145.875204 Z M593.969136,145.875204 C593.969136,146.229239 593.969136,146.229239 594.32316,146.229239 C593.969136,146.229239 593.969136,146.229239 593.969136,145.875204 L593.969136,145.875204 Z" id="no"></path>
        </g>
    </g>
</svg>