<?xml version="1.0" encoding="UTF-8" standalone="no"?>
<svg width="394px" height="335px" viewBox="0 0 394 335" version="1.1" xmlns="http://www.w3.org/2000/svg" xmlns:xlink="http://www.w3.org/1999/xlink">
    <!-- Generator: Sketch 3.6 (26304) - http://www.bohemiancoding.com/sketch -->
    <title>pl</title>
    <desc>Created with Sketch.</desc>
    <defs></defs>
    <g id="Page-1" stroke="none" stroke-width="1" fill="none" fill-rule="evenodd">
        <g id="Group" transform="translate(-328.000000, -182.000000)" fill="#FFFFFF">
            <path d="M365.067933,435.960981 C377.591408,434.105203 362.748749,423.898506 375.736067,426.218172 C384.085018,427.146109 377.127565,430.8576 382.229743,434.569155 C389.65104,440.600376 395.680839,436.424901 401.710639,440.136456 C403.565979,441.528281 403.102136,443.847979 404.029823,445.239805 C404.957477,445.703757 405.42132,444.311932 405.885131,444.311932 C407.276628,443.847979 408.668125,442.920107 409.131968,443.847979 C410.523465,445.239805 409.131968,447.559535 410.523465,448.95136 C410.523465,448.95136 420.727757,443.384027 423.046973,444.775884 C435.570415,450.807073 417.944795,453.126803 418.872416,459.158057 L429.540583,465.65323 C430.93208,467.509008 433.715075,479.571483 440.672528,476.7878 C442.527869,475.859927 442.064026,472.612324 443.455523,471.220499 C445.774707,469.364786 450.413041,470.292626 451.804539,467.509008 C452.268349,466.581071 442.064026,456.374406 444.847085,455.910454 C451.804539,454.982549 459.689646,461.941707 463.864138,463.333533 C465.719478,463.797453 468.038662,462.86958 469.89397,462.86958 C471.74931,462.86958 474.068462,463.797453 475.923802,462.86958 C476.851456,462.405627 476.387645,460.549882 476.851456,459.621977 C477.315299,459.158057 478.242921,459.158057 478.242921,459.621977 C483.808974,470.756611 480.098261,463.797453 474.068462,469.364786 C472.213154,470.756611 478.706796,471.220499 480.562137,472.612324 C481.953602,474.004149 481.489758,476.32388 482.881256,477.715705 C483.808974,478.643578 485.200439,479.10753 486.128093,479.10753 C499.579255,477.715705 484.272753,476.7878 492.157925,473.540229 C493.085579,473.076277 493.085579,474.932054 494.013266,475.395975 C495.868574,476.7878 500.970752,478.179625 503.289871,478.643578 C506.072865,479.571483 510.247357,478.179625 512.56654,480.035403 C513.030351,480.499355 517.204875,491.633925 517.668686,492.097877 C519.524026,493.489703 523.234642,492.097877 525.089983,493.953655 C526.945323,496.273353 525.553826,500.448829 527.409166,502.768559 C528.33682,504.160384 531.583658,501.840654 532.975155,503.232479 C534.366652,504.624304 532.047469,507.871907 533.438966,509.2637 C540.860263,515.294954 546.890095,491.633925 551.52843,494.881528 C554.311424,496.737305 554.311424,500.912781 556.630575,503.232479 C557.094419,503.696432 558.949759,502.304606 559.413538,502.768559 C559.877381,503.696432 558.02204,505.552209 558.949759,506.016097 C561.268878,506.480082 563.588094,504.160384 565.44337,505.088257 C568.690207,506.480082 565.907213,515.294954 565.907213,516.222826 C565.907213,518.542557 570.081704,514.831001 572.400888,514.367081 C574.256196,513.903128 576.111536,517.614651 577.966877,516.686779 C578.430655,516.222826 583.996709,501.840654 590.490319,500.448829 C592.34566,499.984876 594.200968,501.840654 596.056308,501.840654 C597.911649,501.376701 598.83927,498.593051 600.694643,499.057003 C604.405259,499.520956 606.724443,504.624304 610.435091,504.624304 C613.218086,504.624304 615.537269,501.840654 616.928766,499.520956 C617.392545,498.593051 614.609583,498.593051 614.609583,497.665178 C616.00108,491.170037 618.784107,497.665178 620.639382,496.737305 C622.03088,496.273353 622.03088,493.489703 623.422377,493.489703 C630.379895,491.633925 646.150175,492.097877 652.179975,496.737305 C653.571505,498.129131 653.107662,501.376701 654.963002,502.304606 C657.745996,504.160384 660.992769,504.160384 664.239607,505.088257 C670.269439,506.944035 675.835428,507.407922 681.401384,508.33586 C683.720568,508.33586 686.039719,507.407922 688.358903,507.871907 C689.286557,508.33586 691.141897,510.655525 690.678054,509.727685 C685.112065,492.097877 689.7504,510.655525 681.865227,500.912781 C680.009887,499.057003 683.720568,495.8094 683.256725,493.489703 C681.865227,488.850274 677.226925,485.138784 676.299271,480.035403 C674.907774,476.32388 703.201496,423.898506 706.912177,420.650903 C715.26116,413.691777 720.363274,423.898506 721.754771,407.196571 C721.754771,403.48508 712.478166,395.134129 712.014323,394.670176 C709.695172,390.030748 720.363274,390.494701 718.971777,389.102876 C711.550512,383.535607 698.099383,374.720703 693.924891,365.905832 C692.997205,363.586134 694.852545,360.338531 693.924891,357.55488 C692.533394,354.307277 688.358903,351.987579 686.967373,348.740009 C683.256725,340.389058 692.997205,324.614995 683.720568,317.191981 C680.009887,314.408298 675.371585,313.016473 671.197093,312.552553 C670.269439,312.088601 669.341785,314.408298 668.414098,313.944378 C654.963002,308.840998 684.184379,284.252128 687.431216,281.004525 C687.895059,280.540605 688.822713,279.6127 688.822713,278.684828 C687.431216,253.168053 667.022601,231.362802 658.67365,207.701774 C655.890656,205.845996 658.67365,200.74268 655.890656,197.031124 C647.541673,184.968682 652.643818,195.175379 639.656533,189.60811 C635.018198,187.752333 638.265035,181.721079 631.307549,184.040777 C629.916052,184.50473 629.916052,186.824395 628.524555,187.752333 C607.188286,200.278727 544.570944,202.598458 518.132529,198.886902 C509.783546,207.701774 496.79626,212.805154 486.128093,208.629646 C476.851456,204.918155 478.706796,196.103252 475.923802,190.535951 C474.996148,189.144125 471.74931,185.43257 473.604651,185.896555 C474.996148,185.896555 476.387645,185.896555 477.315299,186.360507 C474.996148,184.968682 472.213154,183.576857 469.430159,183.112904 C452.732193,180.329254 434.178918,195.175379 421.655475,202.598458 C417.480919,204.918155 412.378806,203.990283 409.131968,206.773933 C401.24686,213.733027 399.39152,224.867629 397.072304,225.331581 C379.910527,229.507025 363.676468,236.930103 347.442312,243.425277 C343.267853,245.281055 340.484859,250.384435 336.310335,251.312276 C333.991184,252.240148 331.672032,249.92045 329.352849,250.848323 C325.178357,253.168053 334.918838,263.374782 330.744346,264.302655 C331.672032,271.725701 339.093297,286.107906 340.021016,290.747302 C341.412513,301.881904 326.569854,309.30495 329.816692,318.119854 C331.672032,323.687155 349.29762,326.00682 349.29762,332.965979 C349.29762,339.925105 343.731632,342.244803 347.906123,347.348184 C349.29762,349.667849 352.544458,350.595722 353.472144,353.379405 C354.863642,355.699103 353.008301,358.946706 353.472144,361.266403 C353.935955,362.658229 355.791296,362.194276 356.255139,363.122181 C358.57429,366.369784 353.008301,374.256751 351.616804,377.040401 C348.83381,381.215877 355.791296,383.535607 357.182793,387.711083 C358.110415,390.030748 354.863642,392.814399 356.255139,394.670176 C358.110415,397.453827 362.284906,396.525954 364.140247,398.381732 C369.706235,403.48508 368.778581,427.146109 365.067933,435.960981 L365.067933,435.960981 Z" id="pl"></path>
        </g>
    </g>
</svg>