<?xml version="1.0" encoding="UTF-8" standalone="no"?>
<svg width="1638px" height="780px" viewBox="0 0 1638 780" version="1.1" xmlns="http://www.w3.org/2000/svg" xmlns:xlink="http://www.w3.org/1999/xlink">
    <!-- Generator: Sketch 3.6 (26304) - http://www.bohemiancoding.com/sketch -->
    <title>Blank_political_map_Europe_in_2008_WF_(with_Kosovo)</title>
    <desc>Created with Sketch.</desc>
    <defs>
        <rect id="path-1" x="0" y="0" width="1638" height="779.680953"></rect>
    </defs>
    <g id="Page-1" stroke="none" stroke-width="1" fill="none" fill-rule="evenodd">
        <g id="Blank_political_map_Europe_in_2008_WF_(with_Kosovo)">
            <g id="Group">
                <mask id="mask-2" fill="white">
                    <use xlink:href="#path-1"></use>
                </mask>
                <use id="maska" xlink:href="#path-1"></use>
                <rect id="ocean" fill="#2096BD" mask="url(#mask-2)" x="-1227.92918" y="-3134.24763" width="6475.74804" height="4148.30934"></rect>
                <g id="outlines" mask="url(#mask-2)" stroke="#FFFFFF" stroke-width="3">
                    <g transform="translate(-239.975104, -3137.252011)">
                        <path d="M1054.78447,3803.0623 C1056.28304,3771.59421 1048.79011,3766.3495 1073.5167,3744.62143 C1078.01244,3740.87523 1077.26313,3732.63353 1081.75888,3730.38585 C1083.25749,3729.63654 1119.97269,3728.88738 1110.98121,3713.9025 C1108.73333,3710.1563 1101.24046,3716.15022 1097.49403,3713.9025 C1093.74754,3710.90551 1094.49685,3704.91158 1092.99823,3700.41618 C1091.49967,3695.92072 1091.49967,3690.67601 1088.50249,3686.92981 C1087.75324,3685.43129 1083.25749,3686.92981 1083.25749,3685.43129 C1085.50536,3680.18663 1090.75036,3676.44038 1092.99823,3671.19567 C1097.49403,3662.20481 1084.75606,3668.94794 1097.49403,3658.45861 C1108.73333,3649.4677 1123.71913,3650.96617 1125.21774,3631.48588 C1125.21774,3629.98741 1110.98121,3620.24724 1107.98403,3614.25331 C1103.48828,3604.51319 1108.73333,3588.7791 1108.73333,3587.28058 C1107.98403,3586.53137 1095.99541,3563.30483 1095.99541,3562.55562 C1095.24616,3561.0571 1098.24323,3563.30483 1099.7419,3563.30483 C1106.48546,3565.55261 1110.98121,3566.30182 1117.72482,3567.80034 C1134.95853,3572.2958 1138.70492,3573.79421 1147.6964,3556.56165 C1158.1865,3535.58289 1146.94709,3543.07528 1144.69922,3527.34124 C1142.45135,3513.10561 1165.67932,3519.84879 1166.42863,3509.35947 C1167.17799,3501.86702 1158.93576,3508.61021 1163.43145,3499.6193 C1164.18081,3498.12078 1167.17799,3498.12078 1167.92719,3495.87305 C1170.17517,3490.62838 1170.17517,3485.38367 1170.92437,3480.13895 C1171.67368,3474.14508 1176.16942,3468.15111 1175.42011,3462.15718 L1168.6765,3444.17531 C1170.92437,3441.92758 1176.16942,3446.42303 1179.1666,3444.92457 L1194.9017,3428.44126 C1206.14101,3422.44734 1227.12116,3421.69808 1233.11551,3405.21478 C1237.61121,3390.22989 1218.12967,3391.72841 1212.88462,3390.97915 C1209.13819,3390.22989 1215.8818,3361.75874 1212.88462,3360.26022 C1198.64808,3352.76778 1195.65101,3359.51101 1178.41729,3352.76778 C1175.42011,3351.26931 1176.16942,3343.77686 1169.42581,3348.27232 C1167.92719,3349.77089 1170.92437,3353.51704 1169.42581,3355.0155 C1158.93576,3364.00647 1147.6964,3353.51704 1144.69922,3352.76778 C1141.7021,3351.26931 1137.95561,3355.0155 1135.70774,3353.51704 C1134.20923,3352.76778 1140.20348,3351.26931 1138.70492,3349.77089 C1137.95561,3346.7739 1134.20923,3346.02459 1131.21205,3346.02459 C1126.7163,3345.27544 1121.47125,3346.7739 1116.97551,3346.02459 C1116.22626,3345.27544 1117.72482,3343.77686 1117.72482,3342.27845 C1117.72482,3341.52919 1118.47413,3338.5322 1117.72482,3339.28146 C1113.97838,3340.03072 1104.98685,3350.52005 1098.24323,3346.02459 C1080.26031,3333.28754 1115.47695,3330.29055 1106.48546,3321.29964 C1104.98685,3319.80112 1101.98977,3321.29964 1100.4911,3319.80112 C1099.7419,3318.30265 1103.48828,3315.30566 1101.98977,3314.55651 C1088.50249,3311.55952 1069.77021,3316.05492 1058.53091,3322.0489 C1057.03234,3329.54129 1038.30012,3333.28754 1042.79581,3340.03072 C1045.79299,3343.77686 1054.78447,3342.27845 1056.28304,3346.7739 C1057.78165,3350.52005 1048.04086,3346.02459 1045.79299,3349.02158 C1041.2973,3355.76476 1042.0465,3387.98216 1043.54512,3396.22387 C1043.54512,3398.47159 1047.29155,3399.22085 1047.29155,3402.21779 C1046.54224,3414.9549 1041.2973,3422.44734 1036.05225,3432.93672 C1033.80438,3437.43217 1024.06358,3447.17229 1029.30863,3446.42303 C1034.55358,3444.92457 1034.55358,3433.68598 1039.79863,3432.18746 C1043.54512,3431.43825 1045.79299,3438.93069 1044.29437,3441.92758 C1040.54794,3447.17229 1030.05789,3444.92457 1026.31145,3450.91849 C1021.0664,3459.90945 1018.06922,3470.39883 1012.07492,3479.38969 C1009.82705,3483.13594 1005.3313,3485.38367 1006.08066,3489.12986 C1006.08066,3492.87611 1012.82423,3494.37458 1014.32279,3498.12078 C1015.0721,3499.6193 1010.57635,3493.62532 1008.32853,3495.12384 C1004.582,3497.37157 1003.08348,3503.36549 1000.0863,3507.86089 C992.593383,3519.84879 984.351205,3534.83368 975.359772,3545.32301 C973.111901,3548.32 968.616158,3549.06926 965.618979,3552.81545 C964.869671,3553.56471 969.365361,3555.81244 967.86685,3556.56165 C961.872491,3558.06017 954.379622,3552.81545 950.633135,3556.56165 C946.8867,3560.3079 953.630314,3566.30182 952.13175,3570.79722 C949.883879,3578.28967 927.405165,3609.75791 929.653037,3617.25025 C931.151652,3622.49496 934.898087,3626.99042 937.895266,3632.23514 C945.388188,3644.97224 942.390957,3650.96617 942.390957,3650.96617 C948.385263,3652.46463 955.128877,3651.71543 961.123236,3650.96617 C964.120415,3650.96617 965.618979,3647.21997 968.616158,3647.96918 C971.613232,3647.96918 973.111901,3652.46463 976.858283,3653.21389 C979.106154,3653.96315 979.106154,3643.47372 980.604718,3645.72145 C982.852642,3649.4677 979.106154,3654.71236 980.604718,3657.70935 C982.852642,3660.70634 993.342691,3662.20481 990.345511,3663.70333 C970.114721,3673.44339 982.103334,3647.96918 965.618979,3650.21691 C961.123236,3650.96617 970.864029,3656.96009 972.36254,3660.70634 C973.111901,3665.20179 972.36254,3670.44651 971.613232,3675.69112 C970.114721,3685.43129 957.376749,3694.4222 957.376749,3701.9146 C957.376749,3704.91158 961.872491,3707.15931 961.872491,3710.1563 C962.621799,3715.40102 954.379622,3725.14113 959.62462,3726.63965 C961.123236,3726.63965 966.368286,3724.39193 964.869671,3725.89039 C963.371107,3728.13812 958.875364,3726.63965 957.376749,3728.88738 C953.630314,3736.37983 955.878185,3745.37069 952.13175,3752.86313 C949.134571,3758.85705 931.151652,3783.58201 932.650216,3791.82371 C933.399524,3794.8207 938.64447,3788.82672 941.641649,3788.82672 C946.137392,3788.07746 950.633135,3789.57598 955.128877,3788.82672 C957.376749,3788.82672 959.62462,3786.579 961.872491,3787.32826 C973.861104,3790.32524 1012.82423,3815.79946 1018.06922,3815.0502 C1020.31715,3815.0502 1043.54512,3803.81156 1045.04368,3803.0623 L1054.78447,3803.0623 L1054.78447,3803.0623 Z" id="pt" fill="#FFFFFF"></path>
                        <path d="M1822.80665,3412.70722 C1828.0517,3414.9549 1834.04601,3416.45336 1837.79244,3419.45035 C1839.29106,3420.94882 1840.04026,3429.19052 1844.53611,3428.44126 C1850.53036,3427.692 1855.77541,3423.94581 1862.51903,3423.94581 C1870.01195,3423.94581 1882.74982,3438.93069 1890.24274,3436.68297 C1893.23992,3435.93371 1890.24274,3429.93973 1892.49061,3428.44126 C1903.72997,3420.94882 1917.21714,3427.692 1929.20581,3430.68899 L1932.20299,3430.68899 C1935.94942,3434.43524 1938.9466,3438.18143 1937.44804,3442.67689 C1935.94942,3448.67076 1926.20868,3447.17229 1922.46219,3450.91849 C1919.46507,3453.91548 1931.45368,3471.14809 1923.96081,3483.88515 C1920.21432,3492.12685 1887.99487,3504.86391 1879.00343,3508.61021 C1870.76121,3511.60719 1858.02328,3514.60408 1852.02893,3519.84879 C1847.53318,3522.84578 1840.78962,3534.08442 1834.04601,3535.58289 C1808.57017,3543.07528 1762.86343,3537.83056 1742.63264,3554.31392 C1737.38759,3558.80938 1726.89754,3562.55562 1728.39611,3569.29881 C1730.64398,3574.54352 1741.88333,3573.79421 1741.13408,3579.03893 C1741.13408,3581.28665 1717.90611,3586.53137 1716.40744,3587.28058 C1707.41601,3594.02376 1704.41883,3606.76087 1696.92596,3614.25331 C1675.94586,3635.98128 1648.22204,3656.96009 1634.73487,3684.68208 C1628.74056,3695.92072 1636.98274,3731.88427 1643.72635,3741.62444 C1645.97423,3744.62143 1673.69794,3760.35552 1666.95432,3764.85092 C1661.70932,3769.34638 1648.9714,3770.8449 1643.72635,3774.5911 C1642.22779,3776.08962 1642.22779,3779.83581 1640.72923,3780.58507 C1639.23061,3782.08354 1636.98274,3779.83581 1635.48418,3779.83581 C1629.48982,3781.33428 1622.7462,3782.08354 1617.50115,3785.82974 C1615.25328,3788.07746 1616.75195,3793.32218 1613.75477,3795.56991 C1611.5069,3797.06843 1607.76046,3794.07144 1606.26185,3795.56991 C1603.26472,3799.31615 1605.51259,3805.31003 1603.26472,3808.30701 C1600.26754,3811.304 1594.27318,3808.30701 1592.02531,3812.05321 C1589.02824,3816.54867 1593.52393,3823.29185 1591.27606,3827.78736 C1585.2817,3842.77214 1571.79452,3825.53952 1571.04521,3849.51532 C1571.04521,3855.5093 1583.03388,3857.75703 1581.53532,3863.00164 C1579.28744,3868.24635 1571.04521,3867.4972 1565.05091,3866.74789 C1561.30442,3866.74789 1557.55799,3863.00164 1553.8116,3862.25248 C1538.07645,3857.75703 1519.34417,3865.24947 1505.857,3874.24033 C1482.62903,3889.22517 1482.62903,3918.44563 1458.6517,3930.43353 C1449.66026,3935.67814 1446.66309,3910.95318 1424.18442,3916.94711 C1419.68868,3918.44563 1417.44081,3924.43955 1412.19576,3925.93807 C1405.45215,3928.1858 1389.7171,3915.44864 1382.97348,3914.69938 C1373.98195,3912.45165 1364.24126,3917.69637 1354.50046,3916.1979 C1349.25541,3914.69938 1346.25823,3910.20392 1341.01324,3908.70546 C1331.27249,3904.95926 1287.06438,3898.21602 1278.82215,3899.71454 C1269.83066,3901.96227 1265.33492,3913.20091 1257.09274,3916.94711 C1245.10413,3921.44262 1230.11834,3907.9562 1213.63393,3916.1979 C1200.14675,3922.94108 1201.64526,3928.93495 1194.9017,3938.67513 C1194.15239,3939.42439 1189.65665,3934.92893 1186.65947,3937.17666 C1182.16373,3940.92285 1178.41729,3946.91683 1172.42299,3949.16456 C1170.17517,3949.91377 1170.17517,3944.6691 1167.92719,3943.17058 C1164.93012,3940.92285 1160.43438,3940.17365 1158.1865,3937.92587 C1155.18932,3934.17967 1154.44002,3928.93495 1150.69358,3925.93807 C1148.44571,3923.69034 1143.94997,3925.93807 1141.7021,3923.69034 C1136.45705,3918.44563 1128.96418,3893.72057 1127.46561,3886.22823 C1127.46561,3885.47897 1138.70492,3896.71756 1137.20641,3889.97443 C1137.20641,3887.7267 1132.71066,3889.97443 1131.96136,3888.47596 C1131.21205,3886.97744 1134.95853,3885.47897 1134.20923,3883.9805 C1131.96136,3871.24334 1120.722,3886.22823 1121.47125,3864.50021 C1121.47125,3864.50021 1150.69358,3851.01384 1143.94997,3849.51532 C1137.95561,3848.01686 1134.20923,3860.75391 1128.21482,3859.2555 C1122.96987,3858.50624 1125.21774,3849.51532 1122.96987,3845.01987 C1120.722,3840.52441 1117.72482,3836.77822 1114.72764,3833.03197 L1094.49685,3813.55173 L1094.49685,3812.05321 C1093.74754,3813.55173 1092.99823,3814.30094 1091.49967,3814.30094 C1087.00393,3815.0502 1084.75606,3809.05627 1081.00962,3806.80849 C1078.01244,3805.31003 1064.52527,3803.0623 1054.78447,3803.0623 C1056.28304,3771.59421 1048.79011,3766.3495 1073.5167,3744.62143 C1078.01244,3740.87523 1077.26313,3732.63353 1081.75888,3730.38585 C1083.25749,3729.63654 1119.97269,3728.88738 1110.98121,3713.9025 C1108.73333,3710.1563 1101.24046,3716.15022 1097.49403,3713.9025 C1093.74754,3710.90551 1094.49685,3704.91158 1092.99823,3700.41618 C1091.49967,3695.92072 1091.49967,3690.67601 1088.50249,3686.92981 C1087.75324,3685.43129 1083.25749,3686.92981 1083.25749,3685.43129 C1085.50536,3680.18663 1090.75036,3676.44038 1092.99823,3671.19567 C1097.49403,3662.20481 1084.75606,3668.94794 1097.49403,3658.45861 C1108.73333,3649.4677 1123.71913,3650.96617 1125.21774,3631.48588 C1125.21774,3629.98741 1110.98121,3620.24724 1107.98403,3614.25331 C1103.48828,3604.51319 1108.73333,3588.7791 1108.73333,3587.28058 C1107.98403,3586.53137 1095.99541,3563.30483 1095.99541,3562.55562 C1095.24616,3561.0571 1098.24323,3563.30483 1099.7419,3563.30483 C1106.48546,3565.55261 1110.98121,3566.30182 1117.72482,3567.80034 C1134.95853,3572.2958 1138.70492,3573.79421 1147.6964,3556.56165 C1158.1865,3535.58289 1146.94709,3543.07528 1144.69922,3527.34124 C1142.45135,3513.10561 1165.67932,3519.84879 1166.42863,3509.35947 C1167.17799,3501.86702 1158.93576,3508.61021 1163.43145,3499.6193 C1164.18081,3498.12078 1167.17799,3498.12078 1167.92719,3495.87305 C1170.17517,3490.62838 1170.17517,3485.38367 1170.92437,3480.13895 C1171.67368,3474.14508 1176.16942,3468.15111 1175.42011,3462.15718 L1168.6765,3444.17531 C1170.92437,3441.92758 1176.16942,3446.42303 1179.1666,3444.92457 L1194.9017,3428.44126 C1206.14101,3422.44734 1227.12116,3421.69808 1233.11551,3405.21478 C1237.61121,3390.22989 1218.12967,3391.72841 1212.88462,3390.97915 C1209.13819,3390.22989 1215.8818,3361.75874 1212.88462,3360.26022 C1198.64808,3352.76778 1195.65101,3359.51101 1178.41729,3352.76778 C1175.42011,3351.26931 1176.16942,3343.77686 1169.42581,3348.27232 C1167.92719,3349.77089 1170.92437,3353.51704 1169.42581,3355.0155 C1158.93576,3364.00647 1147.6964,3353.51704 1144.69922,3352.76778 C1141.7021,3351.26931 1137.95561,3355.0155 1135.70774,3353.51704 C1134.20923,3352.76778 1140.20348,3351.26931 1138.70492,3349.77089 C1137.95561,3346.7739 1134.20923,3346.02459 1131.21205,3346.02459 C1126.7163,3345.27544 1121.47125,3346.7739 1116.97551,3346.02459 C1116.22626,3345.27544 1117.72482,3343.77686 1117.72482,3342.27845 C1117.72482,3341.52919 1118.47413,3338.5322 1117.72482,3339.28146 C1113.97838,3340.03072 1104.98685,3350.52005 1098.24323,3346.02459 C1080.26031,3333.28754 1115.47695,3330.29055 1106.48546,3321.29964 C1104.98685,3319.80112 1101.98977,3321.29964 1100.4911,3319.80112 C1099.7419,3318.30265 1103.48828,3315.30566 1101.98977,3314.55651 C1088.50249,3311.55952 1069.77021,3316.05492 1058.53091,3322.0489 C1060.02952,3316.05492 1051.78729,3310.81021 1051.78729,3304.81633 C1051.03799,3302.56861 1055.53373,3307.81332 1057.03234,3306.3148 C1058.53091,3305.56559 1055.53373,3302.56861 1056.28304,3301.07009 C1057.78165,3294.3269 1069.02101,3296.57463 1074.26596,3292.07917 C1075.76457,3291.32997 1078.76175,3287.58372 1076.51388,3288.33298 C1072.01808,3289.08224 1067.52234,3293.57769 1063.02665,3294.3269 C1059.28022,3295.07616 1057.78165,3288.33298 1060.77878,3285.33599 C1065.27447,3282.339 1075.01526,3284.58684 1076.51388,3279.34212 C1077.26313,3274.84666 1066.77314,3280.84054 1063.02665,3279.34212 C1060.02952,3277.84355 1057.78165,3274.0974 1057.03234,3271.10042 C1056.28304,3263.60797 1063.77596,3273.34814 1064.52527,3272.59894 C1066.02383,3269.60195 1064.52527,3265.85575 1066.77314,3262.85876 C1069.02101,3259.11252 1075.76457,3258.36331 1076.51388,3253.86791 C1080.26031,3217.15495 1050.28873,3259.11252 1044.29437,3223.14892 C1039.79863,3198.42392 1060.77878,3205.91636 1061.52809,3202.17016 C1062.2774,3199.92244 1055.53373,3202.17016 1053.28586,3200.67164 C1052.5366,3199.17318 1055.53373,3197.67471 1056.28304,3197.67471 C1064.52527,3196.17619 1069.02101,3198.42392 1075.01526,3197.67471 C1094.49685,3196.17619 1120.722,3179.69289 1138.70492,3172.20049 C1145.44853,3169.20351 1152.94145,3159.46333 1159.68507,3163.95879 C1162.68225,3166.20652 1155.18932,3175.19743 1158.93576,3175.94669 C1164.93012,3176.69595 1168.6765,3166.20652 1174.67086,3166.20652 C1194.9017,3166.20652 1193.40314,3201.4209 1212.13536,3205.91636 C1215.8818,3206.66562 1217.38036,3198.42392 1221.12685,3199.17318 C1242.10695,3204.41789 1230.86764,3205.1671 1251.84774,3208.16409 C1257.09274,3208.91335 1266.83348,3206.66562 1271.32922,3207.41483 C1275.82497,3208.91335 1278.07284,3213.4088 1282.56863,3213.4088 C1288.56294,3213.4088 1293.80799,3205.91636 1299.80224,3207.41483 C1305.04729,3208.91335 1305.7966,3217.90421 1310.29234,3221.6504 C1314.78809,3225.39665 1323.77957,3220.90119 1328.27526,3225.39665 C1329.77383,3226.89512 1325.27808,3229.14285 1326.77675,3229.89211 C1328.27526,3232.13983 1332.77101,3226.89512 1335.01888,3228.39364 C1353.75116,3241.13075 1402.45497,3265.10649 1427.1816,3257.61405 C1428.68011,3256.86479 1428.68011,3253.86791 1430.17868,3253.11859 C1433.17586,3252.36933 1436.17304,3253.11859 1439.17022,3253.11859 C1445.16452,3253.86791 1460.89957,3252.36933 1465.39531,3261.36024 C1465.39531,3262.1095 1464.64606,3263.60797 1463.89675,3264.35723 C1469.89111,3265.85575 1486.37541,3281.58985 1492.36977,3281.58985 C1494.61764,3281.58985 1490.87126,3276.34513 1492.36977,3274.84666 C1493.86833,3272.59894 1496.86551,3271.84968 1499.86269,3271.10042 C1521.59204,3268.10348 1507.35561,3270.35121 1516.3471,3280.84054 C1519.34417,3283.83752 1525.33853,3279.34212 1528.33571,3281.58985 C1532.83145,3283.83752 1535.07932,3289.08224 1538.82576,3291.32997 C1548.56655,3296.57463 1569.54665,3295.82542 1583.78319,3292.07917 C1588.27888,3296.57463 1596.52105,3304.06707 1596.52105,3304.06707 C1598.01967,3304.81633 1597.27036,3301.07009 1598.01967,3301.07009 C1601.76611,3301.81935 1606.26185,3303.31787 1608.50972,3306.3148 C1615.25328,3313.80719 1593.52393,3322.79811 1603.26472,3327.29356 C1607.76046,3328.79208 1612.25621,3320.55038 1613.75477,3322.0489 C1614.50408,3323.54737 1612.25621,3327.29356 1613.75477,3328.79208 C1624.24487,3338.5322 1640.72923,3334.786 1650.46992,3342.27845 C1651.21922,3343.02771 1658.71215,3360.26022 1659.46145,3360.26022 C1669.20219,3367.75266 1678.94299,3354.2663 1689.43304,3363.25721 C1694.67809,3367.75266 1690.9316,3377.49283 1700.67239,3377.49283 C1705.16814,3378.24209 1708.16532,3373.74653 1712.66106,3374.49585 C1717.1568,3375.24511 1719.40462,3380.48982 1723.90036,3381.23898 C1726.14823,3381.23898 1726.14823,3376.74352 1728.39611,3376.74352 C1735.88903,3375.99426 1742.63264,3381.98824 1750.87487,3382.73755 C1750.87487,3382.73755 1747.12833,3365.50493 1756.11982,3367.0034 C1768.85779,3369.25113 1776.35071,3378.24209 1784.59284,3385.73443 C1785.34215,3386.48369 1787.59002,3385.73443 1789.08858,3385.73443 C1792.83507,3386.48369 1797.33081,3386.48369 1799.57868,3388.73142 C1803.32512,3391.72841 1801.07724,3398.47159 1804.82368,3400.71932 L1804.82368,3401.46858 C1801.07724,3408.96092 1799.57868,3419.45035 1822.80665,3412.70722 L1822.80665,3412.70722 Z M1170.17517,3967.14633 L1175.42011,3988.8744 L1191.90452,3988.8744 C1191.90452,3986.62667 1191.15527,3985.12815 1191.15527,3982.88042 C1190.40596,3978.38497 1188.9074,3973.88951 1190.40596,3969.39406 C1191.15527,3967.14633 1197.89888,3966.39707 1197.14957,3964.14934 C1192.65383,3953.66001 1171.67368,3966.39707 1170.17517,3967.14633 L1170.17517,3967.14633 L1170.17517,3967.14633 Z M1363.4919,4057.8046 L1374.73125,4065.29704 C1374.73125,4058.55391 1376.22987,4051.06147 1375.48056,4045.06754 C1373.98195,4039.07357 1367.98764,4054.05846 1363.4919,4057.8046 L1363.4919,4057.8046 L1363.4919,4057.8046 Z M1377.72843,4063.79858 L1379.227,4061.5509 C1378.47774,4061.5509 1377.72843,4061.5509 1377.72843,4063.04932 L1377.72843,4063.79858 L1377.72843,4063.79858 Z M1905.97784,3670.44651 C1894.73848,3708.65778 1908.22566,3681.6851 1926.95794,3697.41919 C1932.20299,3701.9146 1893.98917,3738.62755 1890.99205,3737.87824 C1887.24556,3737.87824 1887.99487,3729.63654 1884.24849,3727.38886 C1873.00908,3720.64568 1872.25982,3732.63353 1868.51333,3721.39494 C1867.01477,3716.15022 1868.51333,3709.40704 1864.7669,3706.41005 C1861.76972,3703.41317 1857.27398,3708.65778 1854.2768,3707.90857 C1849.03185,3707.15931 1843.7868,3704.91158 1839.29106,3701.9146 C1838.54175,3701.16544 1840.04026,3699.66687 1840.78962,3698.91771 C1859.52185,3684.68208 1882.74982,3674.94191 1905.97784,3670.44651 L1905.97784,3670.44651 L1905.97784,3670.44651 Z M1984.65328,3671.19567 C2001.88695,3714.65176 1981.65611,3684.68208 1971.166,3679.43737 C1966.67031,3677.9389 1960.67601,3681.6851 1956.18026,3678.68811 C1937.44804,3665.95105 1962.17457,3660.70634 1984.65328,3671.19567 L1984.65328,3671.19567 Z M1851.27967,3741.62444 C1846.78398,3746.11989 1840.04026,3746.11989 1840.04026,3749.86614 C1840.04026,3752.86313 1843.03749,3758.85705 1846.78398,3758.85705 C1851.27967,3758.85705 1854.2768,3758.85705 1860.27116,3753.61234 C1866.26546,3748.36762 1860.27116,3744.62143 1860.27116,3744.62143 L1852.02893,3741.62444 L1851.27967,3741.62444 L1851.27967,3741.62444 Z M1833.2967,3719.14721 C1827.30239,3720.64568 1825.80383,3724.39193 1822.80665,3728.13812 C1819.80947,3732.63353 1815.31373,3739.37671 1822.05734,3742.3737 C1825.80383,3744.62143 1837.04319,3738.62755 1839.29106,3734.1321 C1840.78962,3730.38585 1845.28531,3729.63654 1845.28531,3725.14113 C1845.28531,3721.39494 1840.04026,3718.39795 1840.04026,3718.39795 L1833.2967,3719.14721 L1833.2967,3719.14721 Z" id="es" fill="#87B024"></path>
                        <path d="M1822.80665,3412.70722 C1789.08858,3422.44734 1807.82086,3394.72535 1809.31947,3394.72535 C1828.80096,3393.22688 1830.29957,3402.96705 1822.80665,3412.70722 L1822.80665,3412.70722 Z" id="ad" fill="#87B024"></path>
                        <path d="M1981.65611,2619.2598 C1987.65041,2619.2598 1991.3969,2608.77037 1995.89264,2611.0181 C2005.63343,2614.76435 2001.13769,2631.99686 2004.13477,2637.99088 C2008.63051,2648.48021 2025.11492,2636.49231 2027.36279,2648.48021 C2028.1121,2651.4772 2025.86423,2655.22339 2026.61353,2658.22038 C2028.1121,2664.21425 2058.83299,2656.72191 2060.33155,2669.45897 C2060.33155,2673.95443 2054.33724,2677.70067 2054.33724,2682.19613 C2053.58794,2685.19312 2059.5823,2685.19312 2059.5823,2687.44085 C2059.5823,2691.18704 2055.83581,2693.43477 2053.58794,2697.18091 C2051.34007,2701.67637 2076.0667,2707.67034 2086.5567,2697.93017 C2091.80175,2693.43477 2096.29749,2679.9484 2101.54254,2684.44386 C2103.04111,2685.94232 2099.29467,2688.19005 2098.54536,2690.43778 C2097.79606,2693.43477 2094.79893,2696.43176 2094.79893,2700.1779 C2094.79893,2703.17489 2099.29467,2703.9242 2100.04388,2706.92108 C2100.04388,2710.66733 2094.04962,2715.16279 2097.0468,2718.15972 C2100.04388,2722.65523 2107.5368,2720.40745 2112.78185,2722.65523 C2115.77903,2724.90296 2116.52828,2729.39841 2119.52546,2731.64614 C2120.27477,2732.3953 2122.52264,2729.39841 2124.02121,2730.14757 C2125.51982,2730.89688 2126.26908,2732.3953 2127.01838,2733.89387 C2127.01838,2734.64303 2123.2719,2736.14155 2124.02121,2736.89075 C2126.26908,2738.38927 2130.01556,2736.89075 2131.51413,2739.13848 C2133.762,2742.13547 2130.76482,2748.87865 2134.51131,2750.37717 C2139.00705,2752.6249 2144.25205,2747.38019 2149.49705,2748.12945 C2151.74492,2748.12945 2153.99279,2748.87865 2156.24066,2749.62791 C2159.98715,2751.12638 2162.98433,2752.6249 2165.98145,2754.12337 C2166.73076,2754.87263 2165.98145,2757.86951 2166.73076,2757.12036 C2171.22645,2757.12036 2174.97289,2753.37411 2178.71937,2753.37411 C2183.21512,2753.37411 2187.71086,2755.62184 2191.45729,2757.12036 C2192.95591,2759.36808 2197.45165,2757.12036 2199.69952,2759.36808 C2205.69378,2763.11423 2209.44026,2780.34684 2216.93313,2787.83929 C2225.92467,2797.57946 2210.93883,2766.86053 2233.41749,2787.09003 C2234.91616,2788.5885 2231.91898,2791.58548 2232.66829,2793.83321 C2234.1668,2796.08089 2258.14413,2786.34077 2261.89056,2789.33776 C2264.13838,2791.58548 2262.63987,2796.08089 2264.88774,2798.32861 C2267.88492,2800.57634 2312.8423,2805.82106 2309.84512,2811.06577 C2301.60289,2825.3014 2286.61715,2834.29226 2280.62279,2846.28016 C2278.37492,2851.52482 2277.62566,2868.00813 2276.87635,2872.50363 L2266.38625,2889.7362 C2264.88774,2893.48245 2263.38918,2897.22859 2264.13838,2900.97478 C2264.13838,2903.22251 2267.13556,2903.22251 2267.13556,2904.72103 C2266.38625,2915.21041 2258.89343,2924.95053 2259.64269,2935.43996 C2259.64269,2945.18008 2259.64269,2948.17707 2260.392,2948.17707 C2234.91616,2974.40054 2243.90759,2945.92934 2222.92749,2951.92332 C2221.42893,2952.67253 2224.42606,2955.66951 2224.42606,2957.16793 C2220.67962,2960.16492 2214.68526,2963.16191 2216.18388,2966.9081 C2216.93313,2970.65435 2228.17254,2963.16191 2228.17254,2966.9081 C2227.42324,2977.39753 2223.6768,2969.15583 2219.93031,2972.15282 C2213.1867,2977.39753 2207.19239,2992.38232 2201.9474,2996.87777 C2197.45165,3002.12249 2186.96155,2999.87476 2183.96442,3005.86874 C2181.71655,3011.1134 2186.2123,3017.85653 2183.96442,3022.35209 C2180.96724,3030.59369 2167.48007,3030.59369 2162.23502,3038.08613 C2153.24353,3049.32477 2162.98433,3059.8142 2159.23784,3071.802 C2158.48853,3074.04973 2150.99566,3070.30353 2150.99566,3080.0437 C2150.99566,3081.54217 2147.24917,3083.04069 2147.99848,3083.04069 C2156.98997,3085.28842 2167.48007,3081.54217 2171.97581,3072.55126 C2172.72502,3071.05279 2168.97863,3069.55427 2168.22927,3068.0558 C2168.22927,3065.80808 2167.48007,3064.30961 2168.97863,3062.81109 C2175.72219,3052.32176 2196.70234,3052.32176 2206.44309,3056.81722 C2209.44026,3057.56637 2203.44591,3062.06188 2204.19521,3064.30961 C2204.19521,3068.0558 2208.69096,3069.55427 2209.44026,3073.30052 C2210.18952,3077.79598 2199.69952,3077.04672 2204.19521,3084.53916 C2205.69378,3086.03757 2210.18952,3083.78985 2210.93883,3086.03757 C2212.43739,3088.2853 2208.69096,3092.03155 2209.44026,3094.27928 C2210.18952,3095.77775 2213.1867,3091.28229 2213.93601,3092.78076 C2217.68244,3096.52701 2217.68244,3101.77172 2220.67962,3106.26718 C2186.2123,3126.49668 2205.69378,3117.50582 2216.18388,3135.48759 C2217.68244,3138.48458 2214.68526,3143.72929 2216.93313,3146.72617 C2219.18106,3151.97089 2226.67393,3152.7202 2228.9218,3157.21561 C2232.66829,3163.95879 2208.69096,3183.43913 2204.94457,3184.18829 C2202.6967,3184.93755 2201.19803,3180.44215 2198.95022,3180.44215 C2195.20378,3181.19141 2188.46017,3181.19141 2188.46017,3184.93755 C2186.96155,3196.92545 2211.68814,3206.66562 2215.43457,3212.65954 C2217.68244,3217.15495 2218.43175,3223.14892 2218.43175,3229.14285 C2217.68244,3231.39057 2210.93883,3227.64438 2210.18952,3229.89211 C2209.44026,3231.39057 2211.68814,3232.88909 2210.93883,3233.6383 C2208.69096,3237.38455 2204.94457,3239.63228 2201.9474,3242.62921 C2199.69952,3247.12472 2207.19239,3249.37245 2207.94165,3251.62018 C2207.94165,3253.11859 2204.19521,3253.11859 2204.19521,3254.61706 C2203.44591,3265.10649 2222.92749,3279.34212 2231.16962,3281.58985 C2235.66536,3283.08826 2240.91041,3280.84054 2245.40615,3280.84054 C2249.9019,3280.09128 2255.14695,3277.09439 2258.89343,3279.34212 C2270.13274,3287.58372 2244.6569,3304.81633 2248.40333,3318.30265 C2247.65403,3318.30265 2234.91616,3322.79811 2233.41749,3324.29663 C2228.17254,3325.04583 2222.92749,3325.79509 2219.93031,3328.79208 C2217.68244,3331.03981 2221.42893,3336.28447 2218.43175,3338.5322 C2215.43457,3340.77998 2210.18952,3337.78299 2206.44309,3340.03072 C2203.44591,3342.27845 2204.19521,3348.27232 2200.44883,3351.26931 C2197.45165,3352.76778 2193.70517,3349.02158 2190.70804,3350.52005 C2188.46017,3351.26931 2189.95873,3355.0155 2187.71086,3357.26323 C2185.46299,3360.26022 2179.46863,3361.00948 2177.97007,3364.75567 C2177.22076,3367.75266 2183.96442,3372.24812 2180.96724,3374.49585 C2177.22076,3378.24209 2169.72794,3374.49585 2164.48289,3375.24511 C2157.73928,3376.74352 2153.24353,3383.48671 2147.24917,3385.73443 C2140.50556,3387.98216 2145.75061,3377.49283 2130.76482,3376.74352 C2121.02403,3375.99426 2131.51413,3380.48982 2130.01556,3381.98824 C2128.51695,3383.48671 2125.51982,3383.48671 2123.2719,3382.73755 C2121.02403,3382.73755 2118.77615,3382.73755 2118.0269,3381.23898 C2118.0269,3379.74056 2123.2719,3375.99426 2112.78185,3370.74965 C2110.53398,3370.00039 2108.28611,3370.74965 2105.28893,3370.74965 C2100.04388,3369.25113 2094.04962,3370.00039 2090.30319,3366.25419 C2086.5567,3362.50795 2090.30319,3355.0155 2087.30601,3351.26931 C2085.80739,3349.02158 2082.81026,3354.2663 2079.81309,3354.2663 C2075.31734,3354.2663 2066.32591,3355.76476 2067.07511,3351.26931 C2067.82447,3345.27544 2081.31165,3347.52316 2082.06096,3341.52919 C2082.06096,3335.53526 2073.81883,3331.03981 2068.57378,3331.78902 C2064.07804,3332.53828 2072.32016,3340.77998 2070.07229,3343.77686 C2066.32591,3347.52316 2060.33155,3349.77089 2055.08655,3349.02158 C2043.09794,3348.27232 2046.84432,3327.29356 2044.59645,3330.29055 C2034.10645,3342.27845 2057.33442,3347.52316 2050.59081,3350.52005 C2026.61353,3360.26022 2037.10353,3344.52618 2036.35433,3341.52919 C2035.60502,3338.5322 2009.37982,3335.53526 2007.13195,3334.03674 C2001.13769,3331.03981 1993.64477,3321.29964 1986.15185,3325.79509 C1977.90972,3330.29055 1965.92106,3345.27544 1957.67883,3349.77089 C1950.18591,3353.51704 1935.20017,3350.52005 1926.20868,3363.25721 C1924.71007,3364.75567 1928.45655,3367.75266 1928.45655,3370.00039 C1926.95794,3377.49283 1917.21714,3381.98824 1916.46789,3390.22989 C1916.46789,3392.47762 1921.71294,3391.72841 1922.46219,3393.97614 C1926.20868,3407.4625 1916.46789,3403.71631 1921.71294,3418.70109 C1923.2115,3423.19655 1927.70724,3426.9428 1932.20299,3430.68899 L1929.20581,3430.68899 C1917.21714,3427.692 1903.72997,3420.94882 1892.49061,3428.44126 C1890.24274,3429.93973 1893.23992,3435.93371 1890.24274,3436.68297 C1882.74982,3438.93069 1870.01195,3423.94581 1862.51903,3423.94581 C1855.77541,3423.94581 1850.53036,3427.692 1844.53611,3428.44126 C1840.04026,3429.19052 1839.29106,3420.94882 1837.79244,3419.45035 C1834.04601,3416.45336 1828.0517,3414.9549 1822.80665,3412.70722 C1830.29957,3402.96705 1828.80096,3393.22688 1809.31947,3394.72535 C1808.57017,3394.72535 1806.3223,3397.72233 1804.82368,3401.46858 C1801.07724,3398.47159 1803.32512,3391.72841 1799.57868,3388.73142 C1797.33081,3386.48369 1792.83507,3386.48369 1789.08858,3385.73443 C1787.59002,3385.73443 1785.34215,3386.48369 1784.59284,3385.73443 C1776.35071,3378.24209 1768.85779,3369.25113 1756.11982,3367.0034 C1747.12833,3365.50493 1750.87487,3382.73755 1750.87487,3382.73755 C1742.63264,3381.98824 1735.88903,3375.99426 1728.39611,3376.74352 C1726.14823,3376.74352 1726.14823,3381.23898 1723.90036,3381.23898 C1719.40462,3380.48982 1717.1568,3375.24511 1712.66106,3374.49585 C1708.16532,3373.74653 1705.16814,3378.24209 1700.67239,3377.49283 C1690.9316,3377.49283 1694.67809,3367.75266 1689.43304,3363.25721 C1678.94299,3354.2663 1669.20219,3367.75266 1659.46145,3360.26022 C1658.71215,3360.26022 1651.21922,3343.02771 1650.46992,3342.27845 C1640.72923,3334.786 1624.24487,3338.5322 1613.75477,3328.79208 C1612.25621,3327.29356 1614.50408,3323.54737 1613.75477,3322.0489 C1612.25621,3320.55038 1607.76046,3328.79208 1603.26472,3327.29356 C1593.52393,3322.79811 1615.25328,3313.80719 1608.50972,3306.3148 C1606.26185,3303.31787 1601.76611,3301.81935 1598.01967,3301.07009 C1597.27036,3301.07009 1598.01967,3304.81633 1596.52105,3304.06707 C1596.52105,3304.06707 1588.27888,3296.57463 1583.78319,3292.07917 C1588.27888,3291.32997 1591.27606,3290.58071 1594.27318,3289.08224 C1616.00264,3278.59286 1624.99407,3206.66562 1633.2363,3184.18829 C1634.73487,3180.44215 1636.23343,3175.19743 1639.97992,3173.69896 C1642.9771,3172.20049 1649.72071,3178.94368 1651.21922,3175.19743 C1653.46709,3171.45123 1648.22204,3165.45726 1643.72635,3164.70805 C1639.97992,3163.95879 1639.23061,3174.44822 1635.48418,3172.9497 C1627.99125,3170.70197 1639.23061,3158.71407 1640.72923,3151.22163 C1643.72635,3139.23384 1651.96858,3095.02849 1660.21071,3089.03456 C1663.20789,3087.53615 1673.69794,3104.01945 1676.69512,3111.51184 C1687.18522,3133.98912 1672.94868,3113.01036 1680.4416,3136.98611 C1681.94017,3141.48156 1686.43586,3145.22776 1687.93442,3149.72322 C1688.68373,3151.97089 1685.68655,3158.71407 1687.93442,3157.96487 C1691.68091,3157.21561 1693.92878,3151.97089 1693.17947,3148.9739 C1691.68091,3144.4785 1686.43586,3142.98003 1683.43868,3139.23384 C1677.44442,3129.49366 1685.68655,3111.51184 1679.6923,3100.2732 C1676.69512,3094.27928 1671.45007,3089.03456 1666.95432,3083.78985 C1663.9572,3080.0437 1660.21071,3076.29745 1655.71497,3073.30052 C1660.21071,3074.79899 1665.45576,3076.29745 1669.9515,3074.04973 C1675.19655,3071.05279 1658.71215,3063.56035 1660.21071,3057.56637 C1661.70932,3051.5725 1668.45294,3048.57551 1669.20219,3042.58159 C1669.9515,3038.08613 1664.70645,3034.33989 1664.70645,3029.84443 C1664.70645,3024.59982 1669.20219,3019.3551 1669.20219,3014.11039 C1669.20219,3012.61192 1665.45576,3012.61192 1663.20789,3013.36113 C1661.70932,3014.11039 1663.20789,3018.60584 1661.70932,3017.85653 C1657.96284,3016.35811 1657.21363,3010.36419 1654.21645,3008.11646 C1651.96858,3007.3672 1648.9714,3010.36419 1646.72353,3008.86567 C1644.47566,3007.3672 1646.72353,3002.12249 1644.47566,3000.62402 C1630.98843,2987.88686 1638.48136,3015.60885 1625.74338,2990.88385 C1624.99407,2988.63617 1624.24487,2972.15282 1621.24764,2968.40662 C1620.49833,2967.65736 1618.25046,2968.40662 1617.50115,2967.65736 C1614.50408,2963.16191 1610.75759,2957.91719 1608.50972,2952.67253 C1605.51259,2945.18008 1620.49833,2937.68769 1621.997,2934.6907 C1624.99407,2927.94752 1607.01116,2923.45212 1607.01116,2922.70286 C1605.51259,2917.45814 1605.51259,2914.4612 1606.26185,2912.21348 C1574.7917,2909.21649 1603.26472,2901.72404 1604.01398,2885.24074 C1604.76328,2875.50057 1573.29309,2883.74227 1572.54383,2879.99603 C1571.04521,2874.0021 1580.0367,2871.75437 1584.53249,2868.75739 C1585.2817,2868.00813 1580.78601,2870.25585 1580.0367,2869.50665 C1579.28744,2868.75739 1580.0367,2866.50966 1579.28744,2865.7604 C1577.03957,2865.7604 1576.29026,2868.00813 1574.04239,2868.75739 C1568.04809,2868.75739 1562.05373,2864.26193 1556.80868,2866.50966 C1556.05947,2867.25892 1555.31011,2868.00813 1555.31011,2868.75739 C1556.80868,2858.26806 1564.3016,2848.52789 1548.56655,2847.02937 C1540.32432,2846.28016 1542.57219,2856.76954 1536.57789,2853.02334 C1532.08215,2850.02636 1526.08789,2840.28618 1521.59204,2838.03846 C1518.59497,2837.28925 1514.84848,2840.28618 1512.60061,2838.03846 C1502.85982,2830.54601 1514.84848,2821.55515 1496.1162,2823.05367 C1494.61764,2823.80288 1497.61482,2827.54913 1496.1162,2828.29828 C1490.87126,2830.54601 1483.37834,2835.04152 1478.88259,2831.29527 C1474.38685,2828.29828 1478.88259,2820.05669 1477.38398,2814.81197 C1475.13611,2805.82106 1465.39531,2808.06879 1459.40101,2804.32259 C1458.6517,2803.57333 1460.89957,2801.3256 1462.39819,2801.3256 C1469.89111,2799.82719 1477.38398,2800.57634 1484.8769,2800.57634 C1486.37541,2800.57634 1490.12195,2803.57333 1490.12195,2802.07486 C1490.12195,2800.57634 1483.37834,2790.08702 1478.88259,2782.59457 C1483.37834,2784.8423 1487.87408,2783.34383 1492.36977,2784.09304 C1495.36695,2784.09304 1502.11056,2787.09003 1499.86269,2785.59156 C1494.61764,2782.59457 1485.62621,2784.09304 1483.37834,2778.84838 C1481.87972,2774.35287 1493.86833,2775.85139 1494.61764,2771.35593 C1496.86551,2762.36507 1449.66026,2796.8302 1465.39531,2756.3711 C1466.14462,2756.3711 1490.87126,2746.63093 1497.61482,2746.63093 C1505.857,2746.63093 1487.12477,2756.3711 1505.10769,2751.12638 C1510.35274,2750.37717 1515.59779,2744.3832 1520.84284,2745.88172 C1525.33853,2747.38019 1523.09071,2756.3711 1527.5864,2757.86951 C1530.58358,2757.86951 1528.33571,2748.87865 1531.33284,2748.12945 C1536.57789,2748.12945 1540.32432,2757.86951 1545.56937,2756.3711 C1550.06512,2754.87263 1547.06799,2745.13246 1551.56373,2742.13547 C1553.0623,2740.637 1556.05947,2745.13246 1558.30729,2745.13246 C1562.80304,2745.13246 1568.04809,2740.637 1571.79452,2742.88473 C1575.54096,2745.13246 1572.54383,2752.6249 1576.29026,2754.87263 C1578.53814,2756.3711 1578.53814,2751.12638 1580.78601,2749.62791 C1584.53249,2746.63093 1596.52105,2778.84838 1599.51823,2784.8423 C1600.26754,2785.59156 1600.26754,2781.84531 1601.76611,2781.84531 C1606.26185,2778.84838 1610.75759,2778.09912 1616.00264,2775.85139 C1619.74913,2773.60366 1622.7462,2767.60968 1626.49269,2769.1082 C1633.2363,2772.10514 1627.24195,2798.32861 1645.22497,2790.83617 C1650.46992,2788.5885 1647.47284,2778.84838 1651.21922,2773.60366 C1654.96566,2768.35894 1655.71497,2784.09304 1660.21071,2784.8423 C1664.70645,2785.59156 1668.45294,2783.34383 1672.94868,2784.09304 C1677.44442,2784.09304 1686.43586,2790.83617 1687.93442,2786.34077 C1689.43304,2778.09912 1672.19937,2772.10514 1674.44724,2763.86354 C1675.94586,2758.61882 1677.44442,2753.37411 1679.6923,2748.12945 C1678.19373,2748.12945 1676.69512,2747.38019 1677.44442,2744.3832 C1678.94299,2739.13848 1683.43868,2733.14456 1683.43868,2727.15069 C1683.43868,2725.65217 1678.94299,2727.89984 1678.19373,2726.40143 C1676.69512,2722.65523 1678.19373,2716.66126 1675.94586,2712.91506 C1675.19655,2710.66733 1670.70081,2710.66733 1669.20219,2708.4196 C1667.70363,2703.9242 1666.95432,2697.93017 1667.70363,2693.43477 C1667.70363,2691.18704 1671.45007,2690.43778 1671.45007,2688.93931 C1671.45007,2683.6946 1668.45294,2678.44988 1667.70363,2673.20522 C1667.70363,2671.7067 1669.20219,2676.20215 1669.9515,2676.95141 C1675.94586,2679.9484 1681.19081,2682.94534 1687.18522,2684.44386 C1688.68373,2685.19312 1690.9316,2683.6946 1692.43016,2683.6946 C1698.42452,2683.6946 1704.41883,2680.69761 1709.66388,2683.6946 C1712.66106,2684.44386 1711.16239,2688.93931 1709.66388,2691.9363 C1708.91457,2693.43477 1706.6667,2692.68551 1705.16814,2694.18403 C1702.92026,2696.43176 1711.16239,2720.40745 1711.91175,2720.40745 C1742.63264,2724.90296 1698.42452,2706.17188 1722.4018,2715.16279 C1733.64116,2719.65824 1747.87769,2721.90597 1758.36769,2727.15069 C1762.11418,2729.39841 1764.36205,2734.64303 1768.10848,2735.39229 C1785.34215,2737.64001 1781.59566,2727.89984 1794.33363,2724.1537 C1797.33081,2723.40444 1800.32794,2723.40444 1804.07442,2723.40444 C1795.83219,2721.90597 1788.33932,2716.66126 1798.82937,2698.67948 C1806.3223,2686.69158 1856.52467,2685.19312 1870.01195,2677.70067 C1875.2569,2675.45295 1879.00343,2670.95754 1884.24849,2667.96055 C1888.74418,2665.71283 1896.98635,2666.46209 1899.23423,2661.96653 C1901.4821,2657.47112 1893.23992,2655.22339 1892.49061,2650.72794 C1891.7413,2648.48021 1892.49061,2644.73402 1893.98917,2643.2355 C1895.48779,2641.73703 1898.48492,2644.73402 1898.48492,2643.2355 C1898.48492,2641.73703 1894.73848,2641.73703 1894.73848,2639.4893 C1894.73848,2634.24458 1900.73284,2598.28104 1902.2314,2594.53479 C1905.22858,2585.54388 1929.95512,2584.04541 1936.69873,2583.29615 C1945.69016,2582.54689 1954.68165,2581.79769 1962.92388,2580.29917 C1964.42244,2590.7886 1965.17175,2619.2598 1981.65611,2619.2598 Z M2383.27551,3397.72233 C2393.76561,3405.21478 2383.27551,3425.44428 2383.27551,3433.68598 C2383.27551,3436.68297 2390.01918,3443.42615 2389.26987,3440.42916 C2387.77131,3437.43217 2383.27551,3429.19052 2384.02482,3432.18746 C2385.52338,3436.68297 2388.52056,3439.67985 2390.01918,3443.42615 C2392.26705,3448.67076 2392.26705,3465.15412 2392.26705,3469.64952 C2393.01625,3482.38668 2380.27838,3492.12685 2380.27838,3501.11776 C2380.27838,3510.85788 2384.02482,3524.34425 2375.78264,3533.33516 C2375.03333,3534.83368 2371.2869,3533.33516 2371.2869,3534.83368 C2371.2869,3537.08141 2376.5319,3534.83368 2375.78264,3536.33215 C2375.78264,3539.32914 2371.2869,3539.32914 2369.78828,3541.57687 C2367.54041,3546.82158 2369.78828,3553.56471 2366.0419,3558.06017 C2355.5518,3568.54955 2358.54898,3546.82158 2356.30111,3546.07227 C2346.56031,3543.07528 2340.56601,3550.56772 2333.82245,3539.32914 C2332.32378,3537.08141 2336.81952,3534.08442 2335.32096,3531.08743 C2333.07314,3526.59198 2324.08165,3525.09351 2324.83091,3519.84879 C2324.83091,3513.85487 2336.81952,3510.85788 2336.07032,3504.86391 C2335.32096,3500.3685 2323.33234,3509.35947 2322.58304,3504.86391 C2321.08447,3498.87004 2333.07314,3495.87305 2332.32378,3490.62838 C2331.57457,3484.63441 2320.33517,3486.13288 2318.8366,3480.13895 C2318.08729,3475.64355 2327.82809,3474.14508 2327.82809,3468.90037 C2327.82809,3464.40491 2320.33517,3462.15718 2318.08729,3457.66173 C2317.33804,3454.66474 2325.58022,3456.91247 2327.07873,3454.66474 C2328.5774,3449.42002 2327.82809,3442.67689 2330.82527,3438.18143 C2331.57457,3436.68297 2333.07314,3441.92758 2334.57165,3441.17842 C2338.31814,3440.42916 2339.06739,3435.18445 2342.81388,3433.68598 C2345.81101,3432.18746 2349.55749,3435.18445 2352.55467,3433.68598 C2356.30111,3431.43825 2356.30111,3424.69507 2360.04749,3423.94581 C2364.54323,3423.19655 2368.28972,3429.19052 2373.53477,3429.19052 C2378.03051,3429.19052 2372.78546,3419.45035 2373.53477,3414.20564 C2374.28403,3408.21176 2380.27838,3403.71631 2383.27551,3397.72233 L2383.27551,3397.72233 Z" id="fr" fill="#87B024"></path>
                    </g>
                </g>
            </g>
        </g>
    </g>
</svg>