<?xml version="1.0" encoding="UTF-8" standalone="no"?>
<svg width="135px" height="222px" viewBox="0 0 135 222" version="1.1" xmlns="http://www.w3.org/2000/svg" xmlns:xlink="http://www.w3.org/1999/xlink">
    <!-- Generator: Sketch 3.6 (26304) - http://www.bohemiancoding.com/sketch -->
    <title>pt</title>
    <desc>Created with Sketch.</desc>
    <defs></defs>
    <g id="Page-1" stroke="none" stroke-width="1" fill="none" fill-rule="evenodd">
        <g id="Group" transform="translate(-457.000000, -239.000000)" fill="#FFFFFF">
            <path d="M513.124057,455.220558 C513.784526,441.345702 510.482132,439.03321 521.380008,429.452906 C523.36144,427.801139 523.031193,424.167221 525.012625,423.17618 C525.673118,422.845794 541.854796,422.515478 537.891933,415.908366 C536.901217,414.2566 533.598846,416.89943 531.94766,415.908366 C530.296451,414.586939 530.626698,411.944108 529.966205,409.962002 C529.305735,407.979874 529.305735,405.667382 527.984773,404.015616 C527.65455,403.354891 525.673118,404.015616 525.673118,403.354891 C526.663834,401.042422 528.975489,399.390633 529.966205,397.078142 C531.94766,393.113907 526.333588,396.087077 531.94766,391.462141 C536.901217,387.497883 543.505982,388.158585 544.166475,379.569367 C544.166475,378.908665 537.891933,374.614045 536.57097,371.971214 C534.589538,367.676617 536.901217,360.739166 536.901217,360.078441 C536.57097,359.748102 531.287167,349.507095 531.287167,349.176755 C530.956944,348.51603 532.27786,349.507095 532.938376,349.507095 C535.910501,350.498182 537.891933,350.828522 540.86408,351.489247 C548.459585,353.471376 550.110747,354.132055 554.073611,346.533902 C558.696968,337.283982 553.743365,340.587515 552.752649,333.650087 C551.761933,327.373338 561.999316,330.346531 562.329562,325.721595 C562.659831,322.418039 559.027191,325.391232 561.0086,321.426974 C561.338869,320.766249 562.659831,320.766249 562.990032,319.775185 C563.980794,317.462717 563.980794,315.150225 564.310994,312.837734 C564.64124,310.194926 566.622672,307.552072 566.292426,304.909241 L563.320278,296.980703 C564.310994,295.989638 566.622672,297.971767 567.943634,297.311065 L574.878646,290.043275 C579.832203,287.400444 589.078893,287.070082 591.720817,279.802291 C593.702226,273.19518 585.116029,273.855904 582.804351,273.525542 C581.153165,273.19518 584.125313,260.641727 582.804351,259.981002 C576.529809,256.677447 575.208893,259.650663 567.613388,256.677447 C566.292426,256.016745 566.622672,252.713189 563.650524,254.695318 C562.990032,255.356066 564.310994,257.007809 563.650524,257.668511 C559.027191,261.632792 554.073611,257.007809 552.752649,256.677447 C551.43171,256.016745 549.780501,257.668511 548.789785,257.007809 C548.129338,256.677447 550.771217,256.016745 550.110747,255.356066 C549.780501,254.034639 548.129338,253.704253 546.808376,253.704253 C544.826944,253.373937 542.515266,254.034639 540.533834,253.704253 C540.203611,253.373937 540.86408,252.713189 540.86408,252.05251 C540.86408,251.722147 541.194327,250.400721 540.86408,250.731083 C539.212895,251.061446 535.250008,255.686382 532.27786,253.704253 C524.352156,248.088252 539.873365,246.766825 535.910501,242.802568 C535.250008,242.141843 533.929092,242.802568 533.268576,242.141843 C532.938376,241.481141 534.589538,240.159714 533.929092,239.829397 C527.984773,238.50797 519.728799,240.490076 514.775242,243.13293 C514.114773,246.436463 505.858822,248.088252 507.840231,251.061446 C509.161193,252.713189 513.124057,252.05251 513.784526,254.034639 C514.445019,255.686382 510.151909,253.704253 509.161193,255.02568 C507.179784,257.998874 507.509984,272.204115 508.170477,275.838033 C508.170477,276.829098 509.821663,277.15946 509.821663,278.480864 C509.491416,284.096888 507.179784,287.400444 504.868106,292.025404 C503.87739,294.007533 499.58428,298.30213 501.895958,297.971767 C504.20759,297.311065 504.20759,292.355766 506.519268,291.695041 C508.170477,291.364702 509.161193,294.668258 508.5007,295.989638 C506.849515,298.30213 502.226181,297.311065 500.574996,299.953896 C498.263318,303.918177 496.942355,308.543137 494.300454,312.507371 C493.309738,314.159161 491.328306,315.150225 491.658575,316.801992 C491.658575,318.453781 494.6307,319.114483 495.29117,320.766249 C495.621416,321.426974 493.639984,318.78412 492.649291,319.444845 C490.99806,320.43591 490.337613,323.078741 489.016651,325.060847 C485.714256,330.346531 482.081639,336.953643 478.118798,341.578579 C477.128082,342.900006 475.14665,343.230369 473.825688,344.882135 C473.495442,345.212498 475.476851,346.203562 474.816404,346.533902 C472.174479,347.194627 468.872108,344.882135 467.2209,346.533902 C465.569714,348.185691 468.541862,350.828522 467.881392,352.810628 C466.890676,356.114183 456.983517,369.989109 457.974233,373.292618 C458.634726,375.60511 460.285911,377.587239 461.606873,379.89973 C464.909268,385.515754 463.588282,388.158585 463.588282,388.158585 C466.230184,388.819287 469.202332,388.488947 471.844256,388.158585 C473.165218,388.158585 473.825688,386.506818 475.14665,386.837158 C476.467567,386.837158 477.128082,388.819287 478.779245,389.149649 C479.769961,389.480012 479.769961,384.855029 480.43043,385.846093 C481.421169,387.497883 479.769961,389.810351 480.43043,391.131778 C481.421169,392.453205 486.044503,393.113907 484.723541,393.774632 C475.80712,398.069206 481.090923,386.837158 473.825688,387.828222 C471.844256,388.158585 476.137366,390.801416 476.797813,392.453205 C477.128082,394.435334 476.797813,396.747825 476.467567,399.060271 C475.80712,403.354891 470.193048,407.319149 470.193048,410.622681 C470.193048,411.944108 472.174479,412.935173 472.174479,414.2566 C472.504726,416.569091 468.872108,420.863688 471.183764,421.524413 C471.844256,421.524413 474.155934,420.533349 473.495442,421.194051 C472.834972,422.185115 470.85354,421.524413 470.193048,422.515478 C468.541862,425.819033 469.532578,429.783268 467.881392,433.086824 C466.56043,435.729655 458.634726,446.63134 459.295195,450.265259 C459.625441,451.586686 461.937074,448.943832 463.258036,448.943832 C465.239468,448.613469 467.2209,449.274194 469.202332,448.943832 C470.193048,448.943832 471.183764,447.952767 472.174479,448.28313 C477.458283,449.604557 494.6307,460.836605 496.942355,460.506243 C497.933094,460.506243 508.170477,455.55092 508.830947,455.220558 L513.124057,455.220558 L513.124057,455.220558 Z" id="pt"></path>
        </g>
    </g>
</svg>