<?xml version="1.0" encoding="UTF-8" standalone="no"?>
<svg width="408px" height="302px" viewBox="0 0 408 302" version="1.1" xmlns="http://www.w3.org/2000/svg" xmlns:xlink="http://www.w3.org/1999/xlink">
    <!-- Generator: Sketch 3.6 (26304) - http://www.bohemiancoding.com/sketch -->
    <title>ro</title>
    <desc>Created with Sketch.</desc>
    <defs></defs>
    <g id="Page-1" stroke="none" stroke-width="1" fill="none" fill-rule="evenodd">
        <g id="Group" transform="translate(-321.000000, -199.000000)" fill="#FFFFFF">
            <path d="M700.703999,450.81027 C693.28267,452.202096 681.22307,456.377571 674.265552,450.346318 C671.946401,448.49054 671.482557,441.995399 668.699595,443.387224 C667.308098,443.851177 666.380444,445.70689 664.988947,446.170875 C653.857002,452.202096 668.699595,442.923272 656.639964,443.387224 C652.929283,443.387224 650.146321,447.5627 646.435672,448.026652 C638.5505,448.954493 645.044175,437.819923 624.171717,445.70689 C615.35889,449.418477 599.124767,456.841524 592.167281,463.80065 C584.282173,471.687616 582.890644,481.430425 572.686385,487.925566 C563.409715,493.492867 556.452229,489.781344 547.175592,489.317392 C539.754263,488.853504 531.869155,488.389551 524.911636,490.709217 C522.128642,491.637122 521.200988,495.348645 518.417994,496.27655 C505.430708,500.915946 490.124206,493.492867 477.13692,494.884693 C466.932629,495.812598 463.685824,504.163549 452.553814,499.524121 C444.668706,496.27655 462.294327,486.069853 458.119835,484.214076 C450.698538,480.966473 428.434583,476.327045 429.82608,464.264602 C430.289923,460.089094 445.59636,459.625174 440.958025,457.305444 C391.791812,432.716542 435.85588,454.985746 415.911108,466.5843 C412.66427,468.903966 410.80893,460.553047 407.562125,459.161222 C405.242973,457.769396 401.996136,459.161222 399.676985,459.161222 C396.89399,459.161222 394.110996,460.553047 391.328034,459.625174 C389.936536,458.697269 390.86419,456.377571 389.936536,454.521793 C387.617353,449.88243 367.672581,457.305444 378.804526,449.418477 C381.587521,447.5627 388.545039,445.70689 386.225856,443.851177 C383.906704,442.459351 379.26837,443.851177 378.340716,441.067526 C377.876872,438.283876 387.617353,433.180495 381.12371,429.469004 C372.310916,424.365623 354.685263,426.685354 348.655463,416.014672 C347.263966,413.694942 347.263966,402.560372 347.263966,399.776722 L347.263966,398.848849 C345.872469,399.312769 344.944815,402.09642 344.017128,401.168547 C340.770323,399.312769 340.30648,394.209421 337.523486,391.889756 C334.740491,390.033978 330.566032,390.497866 327.782973,388.178168 C325.000011,386.786375 323.608514,383.538772 321.753205,381.219074 C322.680859,380.755121 323.144703,378.899344 324.072357,378.435424 C326.855351,377.507518 340.770323,376.115693 341.697977,372.868123 C342.625631,371.012345 335.668145,368.692679 344.017128,367.300789 C347.263966,366.836902 350.510804,370.084505 353.293766,369.156567 C362.106592,365.908964 359.323598,349.207094 361.642749,344.103745 C362.570403,342.71192 364.889587,342.71192 365.817241,341.320095 L370.919419,325.082177 C371.84704,322.762447 373.238538,320.906669 373.238538,318.586971 C373.238538,317.659099 370.919419,317.659099 370.919419,316.731194 C371.383197,312.555718 376.485375,299.565371 378.804526,295.853848 C379.732213,294.925943 382.051364,295.853848 382.051364,294.462022 C384.370515,285.647151 381.12371,279.151945 391.328034,269.409168 C394.574807,265.697678 398.285487,268.017375 403.387633,266.161598 C408.489811,263.8419 408.953589,256.882774 412.66427,253.171218 C414.055768,254.099123 416.838762,252.243346 420.0856,243.428474 C420.54941,242.500601 420.54941,241.108776 421.477097,241.108776 C422.868594,241.108776 434.464382,246.676077 435.85588,246.676077 C436.783534,246.676077 437.247377,244.356347 438.175031,243.892427 C444.204863,241.572696 459.511332,247.60395 466.932629,245.748172 C471.107153,244.356347 473.890148,240.644824 478.064607,240.180871 C485.485936,239.716918 490.588049,249.459727 495.690227,250.85152 C502.647713,253.171218 504.966865,240.180871 506.822205,238.325093 C515.171156,229.510254 536.507425,230.438094 543.0011,223.942921 C555.524543,211.880446 537.435111,222.087176 546.247938,210.488654 C548.567089,207.705003 552.27777,205.385273 555.988386,204.4574 L556.452229,203.065575 L558.307537,198.890099 L558.307537,198.890099 C557.843726,199.817972 557.843726,201.67375 557.843726,202.601622 C564.337369,199.354019 568.511861,202.13767 573.614006,206.313178 C583.354487,213.272272 585.209827,224.870826 593.094935,232.757792 C606.082253,245.284252 641.333494,267.553391 645.507986,285.647151 C648.754824,297.245673 644.580332,310.23602 647.363326,321.834574 C648.29098,326.93789 656.639964,338.536445 656.17612,343.639825 C656.17612,345.495603 652.46544,345.959523 652.929283,347.815301 C653.393158,349.671079 656.17612,348.743141 657.567618,349.671079 C658.959115,350.598919 658.959115,353.846522 660.814455,353.846522 C661.742109,354.310442 663.133606,353.382569 664.06126,354.310442 C665.45279,355.702267 664.988947,358.48595 666.844287,359.877775 C668.699595,361.733521 688.644399,362.661426 688.180556,360.341696 C688.180556,359.877775 681.686881,358.48595 686.325216,355.702267 C689.10821,354.310442 692.355048,354.774395 695.13801,353.382569 C699.776345,351.062904 701.631685,344.567698 706.733831,342.71192 C716.938122,339.000397 722.040268,342.71192 724.359451,351.526792 C723.895608,351.990744 722.504111,351.526792 722.504111,351.990744 C722.504111,353.382569 723.431797,354.310442 724.359451,354.774395 C725.287105,355.238347 726.214792,353.382569 726.678603,354.310442 C727.606289,356.16622 728.0701,371.940218 728.0701,373.795995 C727.606289,379.827249 713.691285,380.291201 709.980668,383.074852 C707.661485,384.930597 707.661485,391.425771 704.87849,390.961818 C704.41468,390.497866 708.125328,375.187821 701.631685,371.47633 C699.312502,370.548392 696.529507,374.259948 695.13801,376.579646 C693.28267,379.827249 701.631685,382.610899 701.167842,386.32239 C701.167842,390.033978 694.210388,392.353643 696.065664,395.137294 C697.921004,397.920944 701.631685,390.961818 704.87849,390.961818 C705.806177,390.497866 704.41468,393.281548 703.486993,394.209421 C703.023182,394.673374 702.559339,395.137294 701.631685,395.601246 C702.095496,395.137294 702.559339,395.137294 703.023182,395.601246 C705.806177,397.920944 694.674167,416.014672 694.674167,416.478625 C695.13801,419.726195 699.312502,435.964145 701.631685,450.81027 L700.703999,450.81027 L700.703999,450.81027 Z" id="ro"></path>
        </g>
    </g>
</svg>