<?xml version="1.0" encoding="UTF-8" standalone="no"?>
<svg width="146px" height="184px" viewBox="0 0 146 184" version="1.1" xmlns="http://www.w3.org/2000/svg" xmlns:xlink="http://www.w3.org/1999/xlink">
    <!-- Generator: Sketch 3.6 (26304) - http://www.bohemiancoding.com/sketch -->
    <title>rs</title>
    <desc>Created with Sketch.</desc>
    <defs></defs>
    <g id="Page-1" stroke="none" stroke-width="1" fill="none" fill-rule="evenodd">
        <g id="Group" transform="translate(-452.000000, -258.000000)" fill="#FFFFFF">
            <path d="M508.599316,413.086193 C513.883142,413.086193 512.892587,421.339815 515.864551,422.990498 C516.855382,423.650785 517.84596,422.330257 519.166968,422.660343 C521.478831,423.320676 523.790417,424.311095 525.441625,425.961802 C529.73462,430.583834 529.074243,435.535998 528.083412,440.157984 L528.083412,440.157984 L529.074243,440.157984 C537.330309,445.770458 532.70686,431.904385 534.688269,430.583834 C538.320887,428.272818 542.283681,425.301538 546.57693,424.971382 C548.228138,424.971382 551.200125,428.933082 551.860756,427.282376 C552.190956,425.961802 550.869925,424.641251 551.200125,423.650785 C554.172365,416.387674 556.814405,420.679505 563.088785,419.689086 C568.372611,418.698644 578.940264,408.464161 583.233535,412.425906 C584.884744,409.454603 589.507916,408.794339 587.856707,404.502462 C587.52653,403.181911 586.535952,402.521601 585.545121,401.861337 C584.884744,401.531158 583.893913,402.191469 583.563712,401.531158 C583.233535,399.880452 583.563712,398.229723 583.563712,396.579017 C583.233535,394.598179 580.921673,392.617295 581.912504,390.966566 C591.489325,375.119677 580.591495,394.598179 591.159124,386.344557 C592.149979,385.354138 599.085013,373.138793 597.103605,371.157955 C594.461565,369.177071 581.912504,363.234488 581.252126,362.574224 C577.289055,359.272766 571.014674,345.406715 573.32626,340.454574 C574.317092,338.143558 577.949709,338.47369 579.270464,336.492875 C580.261295,334.181836 578.940264,331.210532 579.931095,328.899539 C575.307669,326.918655 571.014674,323.947375 571.675052,319.325389 C572.005229,316.354063 582.903335,316.023954 579.600918,314.373202 C544.595544,296.875584 575.9683,312.722496 561.767777,320.976095 C559.456191,322.626778 558.13516,316.684218 555.823573,315.693799 C554.172365,314.703357 551.860756,315.693799 550.209547,315.693799 C548.228138,315.693799 546.246752,316.684218 544.265344,316.023954 C543.274512,315.363621 543.93489,313.712915 543.274512,312.392341 C541.623304,309.090952 527.423034,314.373202 535.348647,308.760797 C537.330309,307.440199 542.283681,306.119602 540.632473,304.799051 C538.981517,303.808609 535.6791,304.799051 535.018446,302.818213 C534.688269,300.837329 541.623304,297.205739 536.999855,294.564614 C530.725451,290.933024 518.176413,292.583753 513.883142,284.99044 C512.892587,283.339688 512.892587,275.416244 512.892587,273.435406 L512.892587,272.775096 C511.901756,273.105228 511.241379,275.086112 510.580725,274.425802 C508.269139,273.105228 507.938938,269.473661 505.957553,267.822978 C503.976144,266.502381 501.003904,266.83249 499.022495,265.181784 C497.041109,264.191365 496.050278,261.880371 494.729246,260.229642 C493.078038,260.229642 491.426829,258.578913 489.775621,258.578913 C489.44542,258.578913 480.859177,261.220061 480.528977,261.220061 C474.914973,260.889929 481.189631,255.937765 473.593942,260.889929 C469.961325,262.870767 467.979939,266.83249 465.007699,269.143506 C462.035735,271.454522 460.714704,268.153064 459.723873,269.143506 C455.430878,274.09567 455.100677,274.425802 452.458638,274.425802 L452.788838,275.086112 C458.403118,283.009556 457.082086,281.028718 456.421455,288.621985 C456.421455,291.923443 463.35649,287.631542 463.02629,291.263179 C462.696113,293.244017 460.384503,291.263179 460.054073,291.593265 C458.072664,293.574172 461.375081,294.234459 461.375081,295.224878 C461.375081,295.555056 458.403118,296.215297 460.054073,297.535871 C464.017121,300.177019 469.300947,301.497616 473.924142,301.497616 C474.914973,308.100463 466.658907,301.497616 466.32873,303.148322 C465.99853,307.440199 463.02629,309.090952 467.319561,313.38276 C467.649738,313.712915 467.649738,314.373202 467.319561,314.703357 C465.99853,317.01435 461.044904,315.363621 464.017121,318.665102 C467.319561,317.67466 469.961325,315.693799 473.593942,316.023954 C473.593942,326.258391 467.649738,333.191417 468.640316,339.464132 C469.961325,346.727312 471.942733,341.444993 476.566182,343.425877 C479.538422,344.746451 480.1988,349.038305 483.17104,350.689034 C484.161594,351.019189 487.464011,350.028747 486.473457,353.000027 C484.491794,359.602944 476.235982,352.339786 474.584773,354.650733 C474.584773,354.650733 489.44542,368.516784 485.482626,372.808684 C493.246802,376.853988 489.352651,375.292327 501.456737,380.391509 C505.568916,381.715056 501.730851,388.739109 505.370013,390.184018 C511.129991,392.471062 511.09409,395.426114 515.028865,397.503373 C518.698674,399.440876 509.356933,399.802864 511.652804,401.436697 C515.453379,404.141626 508.667729,403.918057 507.994494,405.684455 C511.208359,417.718137 509.025419,411.270951 508.599316,413.086193 L508.599316,413.086193 Z" id="rs"></path>
        </g>
    </g>
</svg>