<?xml version="1.0" encoding="UTF-8" standalone="no"?>
<svg width="587px" height="680px" viewBox="0 0 587 680" version="1.1" xmlns="http://www.w3.org/2000/svg" xmlns:xlink="http://www.w3.org/1999/xlink">
    <!-- Generator: Sketch 3.6 (26304) - http://www.bohemiancoding.com/sketch -->
    <title>ru</title>
    <desc>Created with Sketch.</desc>
    <defs></defs>
    <g id="Page-1" stroke="none" stroke-width="1" fill="none" fill-rule="evenodd">
        <g id="Group" transform="translate(-231.000000, 0.000000)" fill="#FFFFFF">
            <g id="ru" transform="translate(231.784300, 0.000000)">
                <path d="M474.163937,660.038 C473.464738,660.387653 472.940338,660.737306 472.590739,660.912133 L472.590739,660.912133 L472.590739,660.912133 C471.891539,660.737306 469.444342,661.961092 468.745142,661.786265 C468.045943,661.786265 467.346744,661.086959 466.822344,661.086959 C466.647544,661.086959 462.452348,663.184877 462.277548,663.184877 C461.753149,663.184877 461.403549,662.135918 460.70435,661.786265 C460.005151,661.611439 459.131151,661.786265 458.431952,661.786265 L455.984754,661.786265 C455.809955,661.786265 455.460355,661.961092 455.460355,661.786265 C455.110755,660.737306 455.984754,654.968032 454.061956,654.968032 C453.013157,655.142859 451.789558,655.142859 450.740759,655.492512 C449.86676,655.842165 449.342361,657.415603 448.293562,657.415603 C444.447965,657.415603 444.972365,655.142859 439.55357,656.016991 C438.155171,656.191818 440.077969,659.338694 439.02917,660.212827 C437.805572,661.086959 436.057573,657.940082 434.484375,658.639388 C429.24038,661.086959 430.813578,668.429672 423.996385,668.429672 C421.374387,668.429672 424.345984,664.933142 423.297185,664.933142 C419.276789,664.758315 414.731993,666.156927 410.711597,665.807274 C409.837598,665.632448 408.963599,665.282795 408.264399,664.933142 C407.9148,664.583489 408.0896,663.884183 407.74,663.709357 C405.118002,663.010051 401.796806,665.457621 401.796806,665.457621 C400.573207,665.807274 399.174808,665.107968 397.776409,665.282795 C387.638019,667.555539 397.60161,665.982101 393.056814,668.954151 C392.882014,668.954151 385.190821,671.926201 385.190821,671.926201 C383.792423,671.926201 382.568824,670.52759 381.170425,670.352763 C380.646026,670.352763 376.10123,672.450681 375.75163,672.450681 C373.479232,672.800334 371.206834,670.52759 368.934437,671.052069 C368.060437,671.226895 367.710838,672.450681 366.836839,672.800334 C361.592844,675.247905 359.495246,670.877243 359.495246,679.094087 L357.572447,678.919261 L354.076451,677.170996 L353.901651,677.345823 C350.580454,676.47169 347.608857,674.024119 344.46246,672.625507 C341.490863,671.401722 333.62487,668.080019 330.478473,668.254845 C328.380875,668.429672 326.283277,670.52759 324.010879,669.828284 C322.437681,669.303804 315.795287,664.408662 314.921288,664.758315 C314.222088,665.107968 316.669286,666.156927 316.144887,666.856233 C315.970087,667.03106 311.075691,668.080019 310.900891,668.080019 C307.929294,668.254845 306.705695,664.059009 304.083698,663.010051 C300.238102,661.611439 296.567305,664.408662 293.246108,662.310745 C290.449311,660.737306 300.762501,659.688347 297.965704,657.240776 C297.091705,656.54147 296.217705,659.163868 295.343706,658.639388 C294.469707,658.114909 294.294907,656.366644 294.994106,655.492512 C295.518506,654.793206 296.742105,655.667338 297.616104,655.667338 C298.490103,655.667338 299.538902,655.492512 300.238102,655.842165 C300.587701,656.016991 299.713702,656.891123 300.063302,656.716297 C300.412901,656.54147 300.412901,655.842165 300.762501,655.667338 C301.6365,655.142859 302.685299,654.618379 303.734098,654.443553 C304.083698,654.443553 304.083698,655.142859 304.258498,655.142859 C304.957697,654.443553 304.957697,653.219767 305.656896,652.870114 C306.880495,652.345635 308.278894,653.044941 309.502493,652.870114 C309.852092,652.870114 308.803293,652.695288 308.803293,652.345635 C308.628494,651.821155 309.327693,651.121849 309.152893,650.59737 C308.978093,649.548411 305.307297,647.974973 304.608097,646.576361 C303.559298,645.002922 306.006496,647.275667 306.356096,646.226708 C306.530896,645.877055 305.482097,645.877055 305.482097,645.352575 C305.656896,644.303616 306.705695,643.429484 307.230095,642.205698 C307.929294,640.457434 305.482097,636.960904 306.530896,635.911945 C309.152893,632.765068 307.929294,635.911945 310.026892,639.758128 C310.201692,640.282607 309.852092,638.709169 309.852092,638.184689 C309.852092,638.009863 308.628494,632.415415 310.026892,631.890936 C311.250491,631.366456 314.396888,634.16368 315.795287,631.890936 C315.970087,631.541283 315.620487,630.841977 315.096087,630.492324 C313.697689,629.618191 311.774891,630.317497 310.201692,629.618191 C309.152893,629.093712 308.453694,627.869926 307.230095,627.6951 C302.3357,626.646141 302.860099,629.268538 299.713702,625.247529 C299.189303,624.548223 297.965704,624.023744 298.315303,623.499264 C298.664903,622.799958 299.713702,623.848917 300.412901,623.848917 C301.286901,623.674091 302.1609,623.324438 302.860099,622.799958 C304.083698,621.750999 303.908898,619.478255 305.482097,618.778949 C305.831696,618.604123 306.006496,619.478255 306.356096,619.653081 C307.055295,620.002734 311.425291,620.177561 310.726092,618.604123 C310.376492,617.555164 308.278894,619.128602 307.230095,618.429296 C303.559298,615.632072 308.453694,614.932766 308.628494,614.932766 C311.250491,613.534154 313.522889,607.76488 314.571688,607.240401 C314.921288,607.240401 314.921288,607.939707 315.096087,607.939707 C315.970087,607.76488 317.018886,607.590054 317.543285,606.890748 C319.291284,604.268351 318.067685,602.345259 315.270887,601.471127 C314.396888,601.2963 313.348089,601.471127 312.47409,601.995606 C309.152893,603.394218 311.600091,603.044565 311.250491,604.967656 C310.726092,607.590054 303.559298,608.813839 301.9861,610.562104 C301.9861,610.736931 301.8113,610.736931 301.8113,610.911757 L301.8113,610.736931 C300.412901,609.163492 301.286901,608.639013 301.6365,607.065574 C301.9861,605.142483 299.538902,607.590054 299.538902,606.541095 C299.713702,605.317309 298.664903,601.121474 299.189303,600.072515 C299.364102,600.072515 304.433298,595.3522 304.433298,595.3522 C304.782897,594.652894 303.908898,593.778761 303.908898,593.079455 C303.734098,592.380149 303.559298,591.506017 304.083698,590.806711 C306.705695,587.659834 314.921288,589.058446 317.368485,585.38709 C317.892885,584.687784 317.018886,583.638825 316.669286,582.764692 C316.494486,582.41504 315.795287,582.240213 315.795287,581.89056 C315.795287,581.366081 316.844086,581.366081 316.844086,581.016428 C316.844086,580.491948 316.144887,580.142295 315.970087,579.617816 C315.795287,578.743683 315.970087,577.694724 316.144887,576.645765 C316.144887,576.296112 316.669286,575.946459 316.669286,575.596806 C317.368485,573.498889 314.222088,575.42198 314.222088,575.42198 C313.697689,575.072327 314.746488,574.198195 314.571688,573.498889 C313.872489,572.275103 312.82369,571.051318 311.94969,570.002359 C310.726092,568.778573 308.803293,571.750624 308.628494,569.827532 C307.754494,564.233085 308.278894,565.806523 311.425291,564.407911 C311.600091,564.233085 312.998489,561.261034 311.94969,561.610687 C309.502493,562.135167 308.278894,563.883432 306.181296,562.135167 C303.908898,560.212076 307.929294,559.687596 308.453694,558.813464 C308.978093,558.288984 308.278894,557.414852 308.453694,556.890372 C308.978093,554.617628 311.075691,553.393842 308.978093,551.121098 C308.278894,550.246966 307.055295,550.072139 306.356096,549.372833 C305.482097,548.323874 307.579695,546.05113 306.181296,545.876303 C302.860099,545.701477 304.957697,548.498701 302.3357,549.02318 C293.420908,550.421792 304.608097,547.799395 297.441304,546.575609 C295.168906,546.225956 294.994106,548.848354 293.071308,547.624568 C292.372109,547.274915 291.847709,546.400783 291.32331,545.876303 C289.750111,544.827345 290.449311,548.848354 288.526513,548.848354 C287.302914,548.848354 286.079315,548.498701 284.855716,547.974221 C284.331317,547.624568 283.981717,546.400783 283.282518,546.575609 C282.408518,546.575609 282.058919,548.323874 281.01012,548.323874 C279.786521,548.323874 278.912522,547.100089 277.514123,546.925262 C272.969327,546.225956 279.786521,553.04419 275.066925,552.170057 C273.843326,551.995231 273.493727,550.421792 272.444928,549.897313 C271.745728,549.54766 270.696929,550.072139 269.82293,549.722486 C267.200933,548.848354 265.278135,545.526651 263.005737,543.778386 C262.306537,543.253906 255.838944,549.897313 253.566546,553.04419 C252.867346,554.093148 251.119348,552.170057 249.895749,551.995231 C249.19655,551.995231 249.19655,553.04419 248.67215,553.393842 C247.798151,553.918322 247.098952,551.820404 246.050153,551.470751 C241.854957,550.421792 240.980958,556.540719 238.00936,554.967281 C236.785762,554.442801 235.736963,553.743495 234.862963,552.869363 C234.163764,552.170057 233.464565,551.295925 233.289765,550.246966 C233.289765,549.722486 234.338564,549.54766 234.163764,549.02318 C234.163764,548.323874 229.618968,544.302865 229.444168,543.778386 C229.269369,543.253906 230.318168,542.379774 229.968568,542.030121 C229.793768,541.855294 229.444168,541.855294 229.269369,541.855294 C228.570169,542.030121 228.04577,542.5546 227.34657,542.5546 C226.122972,542.729427 225.948172,540.631509 225.248972,539.757376 C225.074173,539.407723 224.724573,539.407723 224.374973,539.58255 C223.675774,539.932203 220.004977,542.204947 219.305778,542.204947 C218.956178,542.379774 218.956178,541.330815 218.431779,541.330815 C217.20818,541.330815 215.984581,541.505641 214.935782,541.855294 C214.586182,542.030121 213.537383,544.477692 212.663384,542.729427 C212.488584,542.379774 213.187784,542.030121 213.187784,541.680468 C213.362584,541.155988 213.362584,540.456682 213.012984,540.107029 C212.488584,539.58255 211.789385,539.932203 211.264986,539.407723 C210.390986,538.883244 211.439785,537.134979 210.740586,536.435673 C210.041387,535.561541 207.594189,535.037061 208.118589,533.988102 C208.817788,533.11397 212.838184,532.239837 211.789385,530.666399 C210.390986,528.568481 207.06979,528.743308 206.020991,527.869175 C205.321791,527.344696 204.797392,526.64539 204.622592,525.946084 C204.272992,525.246778 204.797392,524.372645 204.447792,524.022992 C203.748593,523.323687 202.699794,523.323687 202.000594,522.799207 C200.951795,522.099901 200.427396,520.701289 199.203797,520.526463 C197.805398,520.17681 197.280999,523.323687 195.7078,523.323687 C195.183401,523.323687 195.358201,522.099901 194.833801,522.099901 C188.016608,521.575422 192.211804,525.421604 188.191407,527.169869 C188.191407,527.169869 180.675015,527.694349 180.500215,527.694349 C180.150615,527.694349 181.374214,532.939143 179.801015,534.512582 C178.752216,535.386714 177.528618,536.260847 176.130219,536.435673 C175.605819,536.435673 175.780619,535.386714 175.25622,535.037061 C174.90662,534.862235 174.38222,535.736367 174.032621,535.561541 C173.508221,535.211888 173.857821,534.512582 173.508221,533.988102 C173.508221,533.988102 169.837425,531.715358 169.837425,531.540531 C169.662625,531.190878 170.361824,530.666399 170.187024,530.316746 C169.662625,529.092961 168.439026,528.393655 168.264226,527.344696 C168.089426,526.820216 169.138225,526.64539 169.138225,526.12091 C168.788626,524.897125 166.341428,524.897125 166.166628,523.498513 C165.991828,522.974034 167.040627,522.799207 167.215427,522.274728 C167.739827,520.17681 161.447033,518.953024 160.922633,517.554412 C160.223434,516.155801 161.447033,514.407536 161.272233,512.834097 C161.272233,510.036873 169.662625,513.70823 171.935023,512.309618 C173.508221,511.435485 175.25622,508.113782 175.08142,506.365517 C175.08142,506.190691 174.38222,506.365517 174.55702,506.190691 C175.43102,505.316558 177.004218,504.966905 177.528618,503.917946 C178.053017,503.21864 177.528618,501.645202 176.829418,501.295549 C173.857821,500.24659 173.508221,501.470376 171.935023,499.722111 C171.410623,499.022805 173.158622,496.575234 171.235823,496.75006 C169.138225,496.924887 168.089426,496.225581 165.117829,497.099713 C164.06903,497.449366 163.020231,498.498325 161.971432,498.148672 C161.097433,497.799019 162.670632,492.903878 161.097433,491.854919 C160.573034,491.505266 155.154239,491.505266 153.40624,490.28148 C150.609443,488.533215 152.357441,486.78495 148.337045,485.561165 C147.637846,485.211512 149.385844,482.239462 148.686645,482.064635 C146.239447,482.064635 145.365448,481.889809 142.568651,479.966717 C141.345052,479.267412 143.61745,475.596055 143.26785,474.896749 C142.219051,473.323311 144.666249,474.547096 143.967049,473.498137 C143.44265,472.624005 139.247454,469.302302 139.422254,468.428169 C140.121453,465.980598 140.471053,464.232334 139.072654,461.784763 C138.723054,461.085457 137.674255,462.484069 136.975056,462.484069 C136.800256,462.484069 131.206661,458.987539 131.206661,458.987539 C126.836665,457.239274 129.983062,458.637886 127.535865,459.686845 C127.186265,459.861671 125.088667,459.512018 124.564268,460.036498 C123.690268,461.260283 122.29187,464.581987 120.893471,465.281292 C118.096674,466.679904 118.271474,459.512018 118.271474,459.512018 C112.852679,458.288233 113.901478,458.987539 110.230681,461.784763 C109.356682,462.484069 108.657483,460.036498 107.783483,459.337192 C104.811886,457.239274 105.685885,463.008548 101.31589,459.512018 C102.714288,454.44205 97.645093,449.721735 94.6734958,447.274164 C93.449897,446.400032 95.8970947,444.826593 93.449897,444.47694 C92.5758978,444.302114 91.8766985,445.700726 91.0026993,445.525899 C90.6530996,445.525899 91.0026993,445.00142 91.0026993,444.651767 C91.0026993,444.47694 91.1774991,444.127287 91.1774991,443.952461 C91.1774991,442.728675 91.5270988,441.50489 91.352299,440.281105 C91.1774991,439.756625 89.9539003,439.931452 89.9539003,439.406972 C89.9539003,437.134228 94.1490963,435.735616 88.3807018,433.637698 C87.6815024,433.462872 86.6327034,433.462872 86.1083039,432.938392 C85.5839044,432.239086 86.4579036,431.015301 85.7587043,430.665648 C85.0595049,430.141168 84.3603056,431.015301 83.4863064,431.190127 C83.8359061,430.315995 82.6123072,427.868424 83.1367067,427.343945 C83.4863064,426.994292 84.3603056,426.994292 84.5351054,426.469812 C84.7099053,426.120159 84.0107059,425.945333 84.0107059,425.420853 C83.8359061,425.0712 83.8359061,424.546721 84.0107059,424.197068 C86.1083039,422.448803 86.2831038,424.371894 86.9823031,422.273976 C87.1571029,421.749497 85.5839044,422.09915 85.0595049,421.57467 C83.8359061,420.350885 84.5351054,419.476753 84.1855058,418.252967 C84.0107059,417.728488 81.2139086,416.155049 80.6895091,415.63057 C79.2911104,413.182999 80.8643089,414.231958 80.8643089,411.959214 C80.8643089,408.812337 77.3683122,405.490634 76.8439127,402.343757 C76.6691129,400.420665 78.7667109,399.022053 79.2911104,397.623442 L79.4659102,393.252779 C79.4659102,392.378647 78.7667109,391.329688 79.2911104,390.630382 C81.0391087,386.959026 84.0107059,388.532464 79.8155099,385.910067 C80.1651096,383.28767 76.1447134,380.490446 78.2423114,378.392528 C78.7667109,378.042875 79.2911104,379.091834 79.64071,379.26666 C80.5147092,379.79114 81.5635082,381.189752 82.2627076,380.490446 C83.1367067,379.79114 81.9131079,378.217701 82.0879077,376.993916 C82.2627076,374.721172 86.2831038,376.644263 86.8075033,376.469436 C91.0026993,375.595304 83.3115066,370.874989 92.7506977,370.350509 C95.8970947,370.175683 106.035485,371.923948 101.14109,367.902939 C100.267091,367.203633 98.5190922,368.252592 97.4702932,367.728112 C94.8482957,366.504327 96.0718945,363.35745 91.8766985,365.105715 C90.3035,365.630194 88.3807018,368.077765 86.1083039,367.028806 C85.7587043,366.85398 85.5839044,366.154674 85.2343048,365.805021 C84.5351054,364.930888 83.8359061,364.056756 82.7871071,363.707103 C82.0879077,363.35745 80.8643089,364.581235 80.3399094,363.881929 C78.7667109,361.784011 80.3399094,358.112655 78.7667109,356.014737 C78.591911,355.665084 75.445514,360.909879 75.2707142,360.909879 C73.8723155,361.609185 72.299117,361.434358 71.0755181,362.133664 C70.7259185,362.308491 70.9007183,362.658144 70.9007183,363.007797 L70.5511186,362.658144 C71.5999176,358.637135 74.9211145,354.441299 77.0187125,350.944769 C82.4375074,341.329312 85.7587043,330.315244 89.4295008,320.000481 C92.2262982,312.482942 93.1002973,310.55985 93.449897,302.517832 C93.6246968,301.294047 94.3238962,299.895435 93.7994967,298.671649 C92.401098,294.65064 76.8439127,288.881366 72.8235165,286.084142 C72.299117,285.734489 78.591911,276.119032 74.2219152,272.797329 C72.6487167,271.573544 69.3275198,272.797329 68.2787208,271.049064 C63.7339251,263.181872 69.3275198,266.853228 67.9291211,264.580484 C65.8315231,261.433607 63.5591252,263.881178 60.9371277,260.734301 C58.6647299,258.111904 60.2379284,257.937078 61.4615272,255.489507 C62.1607266,253.916068 57.9655305,253.916068 57.9655305,253.216762 C58.1403304,251.992977 58.1403304,245.699223 58.1403304,245.524397 C54.4695338,242.37752 58.8395297,244.300611 59.8883287,243.076826 C60.5875281,242.027867 56.2175322,235.734114 55.6931327,235.034808 C52.7215355,231.013798 49.4003386,226.293483 45.9043419,222.796953 C45.3799424,222.272474 42.5831451,220.174556 42.0587456,219.125597 C39.436748,214.230455 47.8271401,201.817775 44.5059433,198.845725 C43.6319441,197.796766 42.0587456,197.796766 41.0099466,197.09746 C39.0871484,195.698848 38.2131492,193.251277 36.290351,192.027491 C36.1155512,192.027491 30.1723568,191.153359 29.997557,191.153359 C28.948758,190.279227 28.5991583,188.880615 27.8999589,187.656829 C24.0543626,181.363076 28.5991583,181.887555 26.6763601,177.342066 C25.8023609,175.244149 22.4811641,177.16724 23.1803634,175.943455 L23.1803634,175.943455 L26.8511599,172.097272 L26.8511599,172.097272 C28.948758,172.796578 27.8999589,168.076263 27.3755594,165.978345 C27.5503593,166.327998 27.5503593,166.677651 27.7251591,167.027304 L28.5991583,163.530774 C28.2495586,163.880427 27.8999589,164.23008 27.7251591,164.579733 C29.2983576,162.306989 34.3675528,158.810459 31.3959556,156.362888 C29.6479573,154.78945 35.0667522,157.586673 37.1643502,156.887367 C39.2619482,156.188061 36.8147505,152.866358 35.7659515,151.467746 C38.2131492,151.29292 43.4571442,151.29292 43.6319441,151.118093 C44.1563436,150.418787 42.2335454,149.719481 42.0587456,148.845349 C41.7091459,147.446737 41.8839457,146.048125 42.4083452,144.649513 C42.5831451,143.950207 47.3027406,146.222952 48.0019399,146.747431 C49.050739,147.971216 51.6727365,145.173993 52.8963353,146.222952 C53.7703345,147.271911 53.4207348,149.544655 52.3719358,150.418787 C50.7987373,152.167052 46.9531409,147.097084 45.3799424,148.845349 C44.5059433,150.069134 45.0303428,152.167052 46.0791418,153.041185 C46.9531409,153.740491 48.3515396,151.29292 49.4003386,151.992226 C50.099538,152.516705 49.7499383,153.565664 49.4003386,154.614623 C52.0223361,152.691532 58.48993,150.76844 58.8395297,152.341879 C59.7135289,156.188061 56.392332,150.069134 57.9655305,156.188061 C58.1403304,157.23702 60.0631286,157.23702 60.0631286,158.285979 C60.2379284,159.859418 55.5183328,161.432856 58.8395297,163.7056 C59.538729,164.055253 58.1403304,162.132162 58.48993,161.432856 C58.8395297,160.034244 60.2379284,159.160112 60.9371277,157.936326 C61.1119276,157.586673 60.9371277,157.23702 60.9371277,156.712541 C61.4615272,155.488755 61.8111269,153.740491 62.6851261,152.866358 C65.3071236,150.418787 66.3559226,153.390838 68.9779201,152.516705 C72.9983163,151.118093 74.9211145,149.195002 79.64071,150.243961 C85.0595049,151.467746 92.9254975,152.866358 98.5190922,155.139102 C99.742691,155.663582 100.61669,156.887367 101.840289,157.411847 C102.714288,157.7615 103.763087,157.411847 104.637086,157.936326 C105.336286,158.285979 105.336286,159.509765 106.035485,159.684591 C107.084284,160.034244 109.007082,160.558724 109.356682,159.509765 C109.881081,158.460806 107.433884,158.985285 106.559885,158.635632 C106.210285,158.635632 107.259084,158.810459 107.433884,158.635632 C107.608684,158.460806 107.084284,157.936326 107.259084,157.936326 C109.181882,157.7615 119.495072,163.006294 120.369072,160.73355 C120.718671,159.684591 118.446273,159.160112 118.446273,158.111153 C118.446273,157.586673 119.669872,158.635632 120.194272,158.985285 C121.417871,159.684591 122.29187,160.73355 123.340669,161.25803 C124.039868,161.607683 125.088667,161.083203 125.787866,161.432856 C126.836665,162.132162 127.361065,163.355947 128.235064,164.055253 C129.458663,165.104212 131.031861,162.656641 132.60506,162.831468 C134.353058,163.006294 134.003459,166.852477 135.401857,167.901436 C135.576657,168.076263 135.751457,167.551783 135.926257,167.551783 C137.849055,168.076263 137.674255,171.048313 138.548254,171.922445 C139.247454,172.446925 140.471053,171.397966 141.170252,171.922445 C143.44265,173.67071 143.792249,181.363076 143.26785,184.1603 C142.91825,186.782697 143.26785,188.006482 142.91825,190.454053 C141.345052,198.496072 132.77986,206.887743 125.088667,208.286355 C121.76747,208.810834 119.669872,207.761875 116.523475,207.761875 C113.027478,207.936702 109.706282,209.51014 106.210285,209.859793 C104.637086,210.03462 103.063888,210.908752 101.490689,210.733926 C99.3930914,210.559099 95.3726952,207.761875 93.2750972,208.636008 C92.2262982,208.985661 92.2262982,210.733926 91.1774991,211.083579 C90.4782998,211.258405 90.1287001,209.859793 89.4295008,209.684967 C88.5555016,209.335314 87.5067026,210.03462 86.8075033,209.51014 C86.1083039,208.985661 87.3319028,207.062569 86.4579036,207.062569 C85.5839044,207.237396 86.1083039,209.160487 85.4091046,209.51014 C84.3603056,210.209446 82.9619069,210.209446 81.7383081,210.03462 C80.5147092,210.03462 74.2219152,208.111528 73.347916,206.53809 C72.9983163,205.838784 74.396715,204.789825 73.8723155,203.915693 C73.5227158,203.56604 65.1323238,204.964652 64.0835248,205.314305 C63.7339251,205.489131 64.4331244,206.363264 64.7827241,206.363264 C67.4047216,206.188437 69.6771195,204.440172 71.4251178,207.761875 C71.7747175,208.111528 70.201519,208.111528 70.0267191,208.636008 C69.8519193,208.985661 70.9007183,208.286355 71.0755181,208.636008 C71.4251178,208.985661 70.5511186,209.51014 70.9007183,209.859793 C71.0755181,210.209446 71.5999176,209.335314 71.9495173,209.51014 C73.347916,210.03462 74.0471153,212.132538 75.445514,212.307364 C81.0391087,213.356323 78.0675115,210.908752 83.3115066,214.055629 C84.0107059,214.580108 85.4091046,214.580108 85.7587043,215.629067 C85.9335041,216.153547 81.3887084,218.076638 83.1367067,219.47525 C83.8359061,219.99973 84.7099053,218.251465 85.5839044,218.076638 C86.4579036,217.901812 97.1206935,220.524209 98.1694925,221.922821 C99.3930914,223.845912 99.0434917,223.146606 100.61669,225.244524 C101.14109,225.94383 103.413488,226.293483 102.714288,226.817963 C101.840289,227.517269 100.44189,225.594177 99.3930914,226.118657 C99.0434917,226.118657 102.015089,229.790013 102.015089,229.964839 C104.287487,236.083766 101.490689,231.363451 99.5678912,236.258593 C99.3930914,236.783072 100.96629,236.083766 101.490689,236.433419 C102.189889,236.957899 107.259084,241.853041 107.259084,242.027867 C107.259084,242.552347 106.559885,242.902 106.734684,243.426479 C106.734684,244.825091 109.706282,244.125785 110.055881,245.524397 C110.405481,246.223703 108.482683,247.272662 109.007082,247.971968 C109.531482,248.671274 110.755081,246.398529 111.45428,246.923009 C111.978679,247.447488 110.055881,247.971968 110.055881,248.8461 C109.881081,250.069886 110.055881,251.643324 110.92988,252.517456 C110.92988,252.692283 118.446273,254.965027 118.970673,254.790201 C120.019472,254.615374 118.096674,251.293671 125.787866,254.090895 C140.471053,259.685342 116.873075,250.944018 129.808263,258.28673 C130.157862,258.636383 142.74345,257.937078 143.09305,257.762251 C143.792249,257.237772 142.74345,255.83916 143.26785,255.139854 C143.61745,254.615374 144.666249,255.31468 145.015848,254.790201 C147.288246,251.643324 145.190648,247.971968 142.91825,245.524397 C141.694651,244.300611 141.694651,245.524397 140.121453,244.650264 C139.597053,244.475438 139.771853,243.251653 139.247454,243.426479 C138.723054,243.426479 138.897854,244.300611 138.723054,244.825091 C138.723054,245.174744 139.072654,245.524397 138.723054,245.699223 C137.674255,246.573356 136.101057,247.272662 134.527858,247.097835 C133.479059,246.923009 122.11707,239.055817 122.46667,238.006858 C122.991069,236.783072 124.913867,236.608246 125.787866,235.734114 C126.836665,234.685155 124.039868,232.93689 124.039868,231.363451 C124.214668,226.817963 136.450656,233.461369 136.975056,233.461369 C138.373455,233.286543 139.597053,231.887931 140.995452,232.062757 C141.345052,232.062757 141.519852,232.587237 141.694651,233.111716 L141.869451,232.93689 C143.792249,231.013798 152.532241,234.335502 153.93064,233.636196 C154.979439,233.111716 154.455039,231.188625 155.329039,230.489319 C156.902237,229.265533 159.524235,232.41241 162.670632,230.314492 C164.06903,229.44036 160.573034,227.866922 159.873834,226.46831 C159.699034,226.118657 160.398234,225.769004 160.398234,225.419351 C159.524235,222.272474 149.385844,218.950771 146.938646,215.97872 C143.44265,211.608058 147.463046,208.985661 148.686645,204.789825 C149.211044,203.216387 148.337045,201.293295 149.211044,199.894683 C150.784243,196.922633 153.58104,195.524021 154.804639,191.852665 C154.979439,190.978533 154.629839,182.237208 155.329039,181.887555 C156.377838,181.537902 157.776236,181.712729 158.999835,181.712729 C161.447033,181.887555 159.524235,183.63582 159.699034,183.63582 C165.117829,180.66377 161.447033,178.915505 166.865828,181.013423 C168.089426,181.363076 169.487825,181.013423 170.536624,181.537902 C171.061024,181.712729 171.061024,182.237208 170.886224,182.586861 C171.235823,182.237208 171.760223,181.887555 172.459422,181.887555 C175.25622,182.237208 176.130219,187.13235 178.752216,186.782697 C179.101816,186.782697 177.703417,185.558911 174.207421,180.838596 C171.410623,176.817587 173.508221,173.321057 172.284622,168.950395 C172.284622,168.775569 171.935023,169.474875 171.585423,169.474875 C170.711424,168.950395 169.837425,168.425916 169.313025,167.551783 C169.138225,167.20213 169.662625,166.502824 169.662625,166.153171 C169.487825,165.453865 169.313025,164.754559 168.963426,164.23008 C167.739827,163.355947 164.06903,160.908377 163.195031,160.73355 C161.971432,160.73355 160.747833,161.957336 159.349435,161.607683 C157.776236,161.083203 157.077037,155.488755 156.902237,154.26497 C156.203038,151.118093 156.902237,150.593614 156.902237,150.593614 C156.203038,149.894308 153.93064,146.747431 153.58104,145.348819 C153.40624,144.125034 154.629839,142.901248 154.280239,141.852289 C154.10544,141.152983 153.58104,143.775381 153.056641,143.425728 C150.434643,142.551595 153.93064,138.35576 144.491449,136.607495 C144.316649,136.607495 137.324656,135.208883 139.247454,133.810271 C141.519852,132.236833 143.967049,133.985097 146.064647,133.985097 C147.987445,133.985097 152.532241,129.089956 154.280239,128.39065 C156.377838,127.516517 158.650235,126.817211 160.747833,127.166864 C161.097433,127.166864 160.573034,127.86617 160.747833,128.040997 C161.272233,128.740303 162.146232,129.614435 163.020231,129.964088 C166.691028,131.537527 172.109823,131.88718 174.207421,136.607495 C174.207421,136.607495 171.061024,138.530586 170.361824,139.579545 C169.313025,140.80333 164.76823,143.600554 165.292629,145.173993 C165.292629,145.348819 165.817029,145.173993 165.817029,145.348819 C166.341428,145.873299 166.865828,146.397778 166.691028,147.097084 C166.691028,148.845349 163.369831,151.118093 166.691028,153.915317 C168.439026,155.313929 172.284622,153.740491 174.207421,154.439797 C175.780619,155.139102 179.451416,160.558724 181.723814,159.334938 C183.122212,158.635632 183.996211,154.78945 185.21981,155.838408 C186.093809,156.712541 184.695411,158.460806 185.39461,159.334938 C186.093809,160.034244 185.56941,157.586673 185.91901,156.712541 C187.142608,154.614623 188.715807,152.516705 190.813405,150.943267 C191.337804,150.593614 192.211804,151.642573 192.736203,151.118093 C193.435402,150.243961 189.764606,144.999166 189.415006,144.474687 C188.541007,143.076075 188.890607,139.579545 188.191407,138.35576 C186.793009,135.908189 183.996211,136.957148 185.56941,133.985097 C185.91901,133.460618 187.142608,135.208883 187.317408,134.684403 C187.492208,133.810271 186.793009,132.936138 186.967809,132.062006 C187.142608,131.187874 188.715807,131.712353 189.240206,131.013047 C189.589806,130.663394 189.065407,129.614435 189.589806,129.439609 C190.813405,128.740303 192.561403,129.789262 193.785002,128.915129 C194.833801,128.215823 190.988205,129.439609 190.114206,128.740303 C189.415006,128.215823 189.589806,126.992038 188.890607,126.642385 C188.191407,125.943079 186.618209,126.467558 186.093809,125.768252 C185.56941,125.068947 187.667008,126.292732 188.541007,125.943079 C189.589806,125.593426 190.638605,124.719294 191.512604,123.845161 C192.911003,122.271723 192.911003,117.726234 193.959802,115.977969 C194.309402,115.45349 193.610202,117.376581 193.785002,118.075887 C193.959802,118.42554 194.309402,117.551408 194.309402,117.201755 C194.484201,113.880051 194.659001,110.208695 195.358201,106.886992 C195.533001,106.187686 197.106199,106.537339 197.630599,105.838033 C198.154998,104.789074 198.154998,103.565288 198.679398,102.51633 C198.854197,102.166677 199.553397,102.166677 199.553397,101.817024 C199.728197,101.467371 198.854197,101.292544 199.028997,100.768065 C199.203797,100.243585 200.077796,100.418412 200.252596,99.8939322 C200.951795,98.6701468 200.602196,96.7470554 201.650995,95.872923 C204.272992,93.9498316 204.622592,100.942891 206.19579,100.768065 C207.594189,100.593238 206.89499,97.9708409 207.06979,96.572229 C207.244589,96.222576 207.244589,95.52327 206.89499,95.3484435 C205.846191,94.8239641 204.447792,94.9987906 203.398993,94.4743111 C202.874594,94.2994846 203.748593,92.3763932 203.398993,92.5512197 C203.049393,92.9008727 202.874594,93.6001787 202.699794,94.1246581 C202.699794,94.2994846 203.049393,94.6491376 202.874594,94.9987906 C202.699794,95.1736171 202.000594,95.52327 202.000594,95.1736171 C200.951795,90.9777813 206.37059,79.6140596 209.516987,76.8168358 C209.691787,76.4671828 210.390986,76.1175298 210.565786,76.4671828 C210.740586,77.1664888 210.216187,77.8657947 209.866587,78.5651007 C209.866587,78.5651007 205.671391,82.7609364 206.020991,83.1105894 C206.89499,83.8098953 208.118589,81.7119775 209.342187,81.886804 C209.866587,82.0616304 208.992588,83.1105894 208.992588,83.6350688 C209.342187,84.8588543 209.691787,86.0826397 210.390986,87.1315986 C211.789385,88.355384 214.760982,88.5302105 215.634982,90.2784754 C216.85858,92.5512197 207.244589,96.7470554 214.236583,96.572229 C215.285382,96.572229 215.460182,94.9987906 216.334181,94.2994846 C217.03338,93.7750051 218.431779,94.1246581 218.781379,93.4253522 C219.305778,92.5512197 217.73258,90.9777813 218.606579,90.6281284 C219.480578,90.1036489 219.655378,93.0756992 220.354577,92.7260462 C221.403376,92.0267403 219.830178,89.7539959 220.878977,89.2295165 C222.102575,88.5302105 223.675774,90.4533019 224.899373,89.9288224 C225.598572,89.7539959 222.102575,85.7329867 222.102575,85.2085072 C220.878977,81.3623245 223.151374,81.0126715 224.200173,78.2154477 C224.549773,77.1664888 223.850574,75.9427034 224.374973,74.8937444 C224.549773,74.5440915 225.423772,74.7189179 225.948172,74.7189179 C230.492967,73.4951325 227.52137,72.9706531 229.094569,71.9216941 C229.793768,71.5720412 230.667767,72.0965206 231.541766,71.9216941 C232.590565,71.3972147 233.464565,70.6979087 234.338564,69.8237763 C235.387363,68.5999909 233.114965,66.6768995 233.114965,65.1034611 C233.289765,64.2293287 234.688163,63.8796757 234.862963,63.0055432 C235.212563,61.6069313 233.639364,59.68384 234.688163,58.984534 C235.736963,58.1104016 238.18416,61.7817578 238.18416,60.3831459 C238.18416,59.1593605 235.387363,59.5090135 234.688163,58.2852281 C234.338564,57.9355751 236.261362,53.5649129 236.785762,53.0404334 C237.310161,52.6907804 237.135361,54.2642188 237.659761,54.4390453 C238.18416,54.6138718 238.88336,53.9145659 239.407759,53.9145659 C248.322551,53.5649129 241.680157,55.6628307 243.952555,58.8097075 C246.574552,62.3062373 246.399752,62.4810638 249.546149,61.0824519 C250.420149,60.5579724 251.643747,61.0824519 252.168147,60.2083194 C254.790144,54.0893923 248.322551,57.0614426 247.273752,53.3900864 C246.924152,52.3411275 249.720949,50.4180361 250.420149,49.1942507 C251.294148,47.0963328 249.720949,44.998415 250.070549,43.2501501 C250.594948,41.1522322 236.610962,38.3550084 234.163764,36.9563965 C231.541766,35.5577846 234.862963,34.1591727 235.387363,32.4109078 C235.911762,30.8374694 233.114965,29.613684 233.114965,28.0402456 C233.114965,26.9912867 238.70856,25.7675013 238.70856,25.7675013 C242.554156,23.3199304 245.525753,18.9492682 250.070549,16.8513504 C254.440545,14.7534325 259.50974,13.1799941 264.404135,13.0051676 C264.753735,13.0051676 265.278135,13.3548206 265.627734,13.3548206 C266.676533,13.3548206 267.900132,13.0051676 268.774131,12.6555147 C269.99773,12.1310352 271.046529,11.0820763 272.270128,10.3827703 C274.367726,9.50863786 269.123731,12.1310352 272.270128,12.3058617 C273.318927,11.9562087 274.192926,11.0820763 275.241725,10.5575968 C276.814924,9.68346435 278.562922,10.2079438 280.136121,9.50863786 C280.83532,9.15898489 282.583318,6.71141405 283.632117,6.88624054 C284.156517,6.88624054 283.806917,7.93519947 284.156517,8.11002596 C286.254115,9.33381138 289.225712,7.58554649 291.32331,7.58554649 C292.022509,7.41072001 292.896508,7.41072001 293.595708,7.76037298 C293.945307,7.76037298 292.721709,7.76037298 292.896508,8.11002596 C293.071308,8.28485245 293.595708,8.11002596 293.945307,8.11002596 C294.994106,7.58554649 295.868106,6.53658757 297.091705,6.53658757 C297.965704,6.53658757 298.664903,8.11002596 299.538902,7.76037298 C300.587701,7.41072001 301.112101,6.0121081 301.286901,4.78832268 C301.286901,4.26384322 300.238102,4.96314917 299.888502,4.6134962 C299.189303,3.91419024 299.014503,2.86523131 298.490103,1.81627239 C298.315303,1.46661941 297.965704,0.942139945 297.616104,0.0680075039 L341.316063,0.0680075039 C342.190062,0.767313456 343.064061,1.29179292 342.714461,1.99109887 C342.015262,3.38971078 340.966463,4.43866971 340.616863,5.66245512 C340.442064,6.18693459 341.490863,5.13797566 341.840462,5.31280215 C342.889261,5.31280215 347.084457,7.06106703 347.608857,8.11002596 C347.958456,8.63450542 347.434057,9.50863786 346.909657,9.68346435 C346.734858,10.0331173 346.385258,8.9841584 346.035658,8.9841584 C345.686059,8.9841584 346.560058,9.50863786 346.560058,9.68346435 C346.385258,10.2079438 345.686059,10.5575968 345.686059,10.9072498 C345.686059,11.2569027 346.734858,10.5575968 346.734858,10.9072498 C346.560058,11.4317292 345.686059,11.4317292 345.511259,11.9562087 C345.336459,12.1310352 346.035658,12.3058617 346.035658,12.4806882 C346.210458,13.7044736 346.909657,15.277912 346.210458,16.3268709 C345.511259,17.7254828 343.238861,18.5996152 341.840462,17.9003093 C341.665662,17.7254828 341.316063,17.3758298 341.316063,17.0261769 C341.316063,16.8513504 341.840462,16.6765239 341.840462,16.5016974 C341.840462,15.277912 342.889261,12.4806882 341.490863,12.6555147 C340.267264,12.8303411 341.665662,15.6275649 340.791663,16.6765239 C339.742864,17.5506563 338.169666,17.2010033 336.771267,17.3758298 C336.246868,17.3758298 335.722468,17.0261769 335.198069,17.0261769 C334.673669,17.0261769 335.722468,18.0751358 335.547668,18.5996152 C335.198069,18.9492682 334.149269,19.1240947 334.149269,19.6485742 C333.97447,20.1730536 335.372868,19.9982272 335.198069,20.3478801 C332.750871,23.6695834 332.226471,16.1520444 331.527272,24.5437158 C331.527272,25.0681953 332.576071,23.8444099 332.925671,24.0192364 C336.771267,25.4178483 335.023269,27.8654191 339.393265,25.9423277 C340.092464,25.5926748 347.259257,21.5716655 347.783657,21.0471861 C349.706455,19.1240947 349.881255,15.9772179 351.978853,13.8793001 C353.552051,12.1310352 356.873248,12.6555147 358.271647,10.9072498 C361.767643,6.36176108 353.726851,4.96314917 353.027652,2.16592536 C352.852852,1.46661941 353.202451,0.767313456 353.552051,0.0680075039 L586.210649,0.0680075039 L586.210649,184.1603 C585.16185,184.1603 583.413851,183.286167 581.665853,186.258217 C581.316253,186.957523 583.763451,187.831656 583.239052,189.579921 C582.015453,193.775756 579.743055,187.307176 578.869056,191.328186 C578.694256,192.551971 580.966654,194.300236 579.917855,194.824715 C579.393455,194.999542 574.14946,193.60093 574.32426,193.07645 C574.49906,192.202318 575.547859,191.677839 575.897458,190.803706 C576.247058,189.929574 573.275461,190.62888 570.828263,187.307176 C569.080265,185.034432 572.925861,186.083391 570.129064,184.684779 C568.031448,183.810647 567.856649,187.831656 563.836252,184.684779 C563.836252,184.684779 561.563855,181.712729 560.340256,181.537902 C558.941857,181.188249 557.543458,181.537902 556.31986,181.013423 C555.97026,181.013423 555.79546,178.565852 554.921461,180.13929 C553.173462,183.460994 553.348262,183.985473 553.523062,187.307176 C553.523062,187.831656 554.397061,188.356135 554.047462,188.705788 C551.425464,191.153359 548.628667,189.230268 545.831869,190.978533 C536.217879,196.922633 547.929467,190.803706 541.986273,195.873674 C541.636673,196.223327 541.287074,195.174368 540.937474,195.349195 C540.063475,195.524021 539.014676,195.873674 538.315477,196.57298 C537.616277,197.447113 541.636673,198.321245 541.636673,198.845725 C541.986273,199.370204 540.238275,198.670898 539.539075,198.845725 C538.839876,199.020551 538.490276,199.894683 537.965877,200.244336 C536.917078,201.118469 540.063475,202.517081 540.063475,203.915693 C540.238275,205.663958 537.091878,206.53809 537.091878,208.286355 C537.091878,208.810834 537.616277,208.985661 538.140677,208.985661 C539.888675,209.160487 541.112274,208.810834 540.762674,211.782885 C540.587874,214.929761 537.791077,213.00667 537.791077,215.454241 C537.965877,222.097647 537.616277,217.202506 535.169079,222.272474 C534.99428,222.796953 536.043079,223.321433 535.868279,223.845912 C535.343879,226.46831 532.721882,229.964839 531.498283,232.41241 C530.624284,234.160675 529.575485,235.90894 528.701486,237.657205 C528.526686,238.181684 528.876285,239.230643 528.351886,239.40547 C527.477887,239.40547 527.303087,237.832031 526.429088,237.832031 C525.030689,238.006858 527.128287,240.629255 526.603888,241.853041 C526.079488,242.902 524.681089,243.076826 523.80709,243.776132 C523.457491,244.125785 524.855889,244.475438 524.855889,244.999917 C524.50629,246.398529 522.059092,246.573356 523.282691,248.496447 C524.15669,249.720233 527.128287,250.244712 526.603888,251.81815 C525.904688,253.916068 524.681089,252.34263 523.107891,252.692283 C521.185093,253.041936 523.107891,256.363639 520.136294,256.713292 C519.961494,256.713292 519.786694,256.188813 519.786694,256.363639 C518.912695,258.986036 517.164697,261.258781 515.941098,263.881178 C515.591498,264.755311 519.961494,264.230831 516.815097,266.503575 C516.115898,267.028055 514.892299,266.328749 514.193099,266.853228 C512.9695,268.077014 513.6687,270.349758 512.794701,271.74837 C512.619901,272.098023 512.095501,271.923197 511.920701,272.098023 C511.396302,272.797329 510.697103,273.496635 510.347503,274.370767 C510.172703,274.72042 511.571102,275.070073 511.221502,275.594553 C510.522303,277.342818 505.977507,279.615562 507.201106,281.888306 C507.550706,282.587612 509.298704,283.636571 509.648304,284.510704 C509.997903,285.384836 507.550706,285.21001 506.851506,284.68553 C506.327107,284.335877 506.676706,282.762439 506.152307,283.112092 C504.579108,283.986224 502.306711,285.21001 502.131911,287.133101 C502.131911,287.832407 503.879909,287.832407 503.879909,288.706539 C503.879909,289.580672 502.65631,289.930325 501.957111,290.105151 C501.432711,290.105151 501.257912,289.231019 500.908312,289.405845 C499.509913,289.930325 499.509913,292.203069 499.160314,292.203069 C498.635914,292.377896 496.713116,291.67859 496.363516,291.67859 C492.69272,292.552722 496.713116,296.573731 496.188716,296.748558 C494.440718,297.447864 495.664317,293.252028 494.091118,297.62269 C493.042319,300.769567 497.936715,296.398905 498.286314,298.671649 C498.286314,299.720608 498.111515,300.769567 498.286314,301.818526 C498.461114,302.168179 499.160314,302.343006 499.160314,302.692658 C498.810714,303.391964 497.237515,304.965403 497.936715,304.790576 C498.111515,304.790576 503.35551,301.818526 503.35551,301.818526 C503.705109,301.468873 502.83111,300.944394 503.00591,300.419914 C503.35551,299.545782 505.453108,297.797517 506.152307,300.245088 C506.327107,301.11922 506.152307,302.343006 505.453108,303.042311 C504.928708,303.566791 504.229509,302.517832 503.530309,302.692658 C502.131911,303.042311 503.879909,307.238147 505.278308,307.5878 C508.249905,308.636759 510.697103,304.266097 511.221502,303.916444 C512.095501,303.566791 512.9695,304.440923 513.8435,304.09127 C514.542699,303.916444 517.164697,300.944394 518.563095,302.692658 C521.359893,306.364015 518.038696,306.364015 516.989897,307.063321 C516.115898,307.762627 516.115898,309.336065 515.241898,309.860544 C514.542699,310.385024 513.3191,309.336065 512.445101,309.860544 C511.571102,310.385024 511.221502,311.608809 510.697103,312.482942 C509.997903,313.357074 508.774304,314.05638 508.774304,315.105339 C508.599505,315.629819 509.997903,314.930513 510.347503,315.280166 C511.571102,316.329125 507.900305,323.322184 510.522303,323.497011 C511.221502,323.671837 511.745902,322.622878 512.445101,322.972531 C513.1443,323.147358 513.1443,324.371143 514.018299,324.720796 C514.542699,324.895622 515.241898,323.846664 515.766298,324.02149 C517.164697,324.371143 518.737895,324.895622 519.262295,326.119408 C519.262295,326.119408 518.388295,332.937641 518.213496,332.937641 C517.863896,333.811773 516.640297,334.161426 516.115898,335.035559 C515.416698,336.608997 516.640297,338.532089 515.766298,340.105527 C515.241898,341.329312 512.619901,341.504139 514.542699,342.902751 C517.514296,344.825842 518.563095,341.678965 521.359893,340.804833 C522.933091,340.280353 520.835493,345.350322 522.758291,344.301363 C525.030689,343.077577 526.603888,340.804833 529.051085,339.9307 C530.099884,339.755874 530.799084,342.028618 531.847883,341.678965 C537.616277,340.280353 531.673083,336.95865 540.587874,339.406221 C540.937474,339.406221 541.636673,338.706915 541.811473,339.056568 C542.161073,339.755874 541.112274,340.280353 541.112274,340.804833 C541.636673,343.42723 547.055468,347.623066 546.181469,350.070637 C544.95787,354.266472 541.112274,361.084706 536.742278,362.83297 C534.29508,363.707103 533.071481,360.735053 531.498283,361.609185 C529.400685,363.007797 535.868279,369.30155 531.498283,374.021866 C527.652687,377.868048 533.246281,369.126724 528.351886,372.098774 C526.429088,373.32256 524.681089,375.420478 521.884292,376.119784 C521.185093,376.469436 520.485893,376.29461 519.611894,376.119784 C519.262295,375.944957 519.087495,375.420478 518.563095,375.420478 C518.038696,375.595304 517.863896,376.644263 517.339496,376.469436 C516.815097,376.469436 516.815097,375.420478 516.465497,375.245651 C516.115898,375.245651 515.941098,375.944957 515.591498,375.944957 C515.241898,375.944957 514.892299,375.770131 514.542699,375.420478 C514.018299,374.371519 514.367899,371.923948 512.270301,372.79808 C511.571102,372.972907 511.046702,373.847039 510.172703,374.021866 C509.648304,374.021866 509.298704,373.32256 508.949104,373.147733 L508.599505,373.32256 C508.599505,373.32256 508.599505,373.32256 508.424705,373.32256 L508.424705,373.32256 L508.599505,373.32256 C506.327107,374.371519 508.599505,375.070825 508.424705,375.944957 L508.424705,375.944957 C507.201106,376.819089 504.753908,377.518395 504.404309,377.868048 C504.229509,378.042875 504.054709,378.217701 504.054709,378.392528 C505.278308,377.868048 507.900305,377.168742 508.424705,376.119784 C507.725505,377.343569 503.879909,378.392528 503.530309,378.742181 C502.306711,379.79114 505.103508,381.889058 505.802707,382.938017 C505.278308,382.938017 504.753908,383.112843 504.404309,383.462496 L504.404309,383.812149 C504.579108,383.812149 504.928708,383.812149 505.278308,383.637322 C504.579108,383.812149 503.879909,383.812149 503.530309,384.336628 C503.18071,384.861108 503.879909,385.560414 503.705109,386.084893 L503.705109,386.084893 C501.957111,386.25972 498.286314,383.637322 498.111515,383.637322 C497.587115,383.812149 497.412315,384.161802 497.062716,384.511455 L497.062716,384.511455 C496.363516,384.686281 496.188716,385.73524 495.664317,386.25972 C495.839117,386.25972 495.839117,386.084893 495.839117,386.084893 C495.139917,386.609373 493.741519,387.483505 493.217119,388.182811 C493.741519,387.833158 494.265918,387.483505 494.790318,387.133852 C493.566719,387.833158 491.99352,389.056944 492.16832,389.75625 C492.51792,390.280729 493.566719,390.280729 493.741519,390.980035 C492.51792,390.805209 490.769921,390.105903 490.769921,390.280729 C490.420322,390.630382 490.420322,390.980035 490.595122,391.329688 L490.595122,391.329688 C490.070722,391.154861 489.895922,391.154861 489.721122,391.154861 C488.672323,392.903126 492.16832,393.777259 490.769921,396.22483 C490.944721,396.22483 490.944721,396.050003 490.944721,395.875177 C490.420322,395.875177 489.721122,395.875177 489.546323,396.22483 C489.371523,396.399656 489.371523,396.574483 489.371523,396.924136 C489.546323,396.749309 489.721122,396.749309 489.895922,396.749309 C489.371523,396.924136 488.847123,396.749309 488.672323,397.273789 C487.973124,398.322747 490.245522,400.071012 490.245522,400.945145 C490.245522,400.945145 489.021923,406.539592 488.672323,408.287857 C487.623524,408.113031 486.399926,407.064072 485.351127,407.064072 C485.001527,407.238898 484.826727,407.588551 484.651927,407.938204 C484.826727,408.113031 485.176327,408.113031 485.525926,408.287857 C485.176327,408.113031 484.826727,407.938204 484.477127,408.113031 C484.127528,408.113031 483.952728,408.462684 483.777928,408.812337 L483.777928,408.63751 C481.50553,408.812337 471.716739,404.791328 470.318341,408.113031 C471.36714,407.588551 473.115138,407.588551 475.037936,407.938204 C472.066339,407.413725 469.444342,407.413725 469.269542,409.511643 C469.094742,410.210949 469.094742,411.259908 469.793941,411.609561 C470.318341,411.959214 471.716739,410.385775 472.590739,411.434734 C473.464738,412.65852 476.785935,416.155049 476.261535,417.903314 C476.086735,418.252967 475.737136,418.777447 475.387536,418.952273 C475.737136,418.777447 475.911936,418.427794 476.086735,418.078141 C475.212736,418.60262 474.163937,418.60262 473.639538,417.728488 C472.765538,416.854355 472.241139,415.63057 471.891539,414.581611 C471.716739,413.882305 472.241139,412.483693 471.54194,412.483693 C471.54194,412.483693 466.297945,412.65852 466.123145,412.65852 C466.123145,412.65852 465.773545,412.833346 464.899546,413.357825 C461.403549,411.784387 465.773545,410.036122 459.830351,411.259908 C458.431952,411.609561 457.557953,413.008173 456.334354,413.008173 C450.915559,412.833346 455.984754,408.287857 448.992761,410.560602 C446.895163,411.259908 441.301568,418.60262 439.72837,417.903314 C437.630772,416.679529 436.232373,414.406784 433.959975,413.357825 C433.610375,413.182999 434.134775,414.057131 433.959975,414.231958 C433.610375,415.455743 433.435576,416.679529 432.561576,417.728488 C432.037177,418.427794 430.813578,418.252967 430.289179,418.777447 C428.016781,421.57467 432.211977,422.448803 430.813578,425.246027 C430.114379,426.469812 429.06558,422.448803 428.191581,424.197068 C427.142782,426.294986 428.89078,427.518771 425.744383,427.693598 C422.423186,428.04325 427.142782,425.420853 425.219983,424.371894 C421.374387,422.273976 422.073586,425.945333 419.101989,426.644639 C418.05319,426.819465 417.004391,426.120159 415.955592,426.469812 C415.431193,426.469812 418.75239,428.742556 418.57759,429.267036 C417.353991,434.686657 417.528791,426.644639 415.780792,429.966342 C414.557193,431.889433 417.179191,432.413913 417.179191,433.987351 C417.179191,434.162178 416.130392,440.106278 415.955592,440.455931 C415.256393,441.50489 414.032794,442.02937 413.333595,443.078328 C412.809195,444.302114 413.333595,445.700726 412.634395,446.924511 C411.760396,448.148297 408.963599,447.623817 408.439199,449.197256 C407.040801,453.742744 411.585596,453.742744 411.235997,454.791703 C410.886397,455.665836 410.361997,456.714795 409.662798,457.588927 C409.487998,457.93858 408.963599,457.763753 408.788799,458.113406 C408.788799,458.288233 407.74,463.707854 407.5652,464.057507 C406.866001,465.456119 403.544804,465.106466 403.544804,465.630945 C403.544804,466.679904 405.292802,465.805772 405.292802,465.805772 C406.516401,466.679904 410.711597,471.749873 411.760396,472.798831 C412.109996,473.323311 411.760396,474.37227 412.284796,474.721923 C413.683194,475.945708 413.857994,472.099525 414.906793,475.421229 C415.081593,476.120535 415.081593,476.994667 414.906793,477.693973 C410.711597,487.833909 408.0896,482.064635 401.971605,479.442238 C401.272406,479.092585 394.105613,476.120535 393.581213,477.169494 C392.882014,479.092585 391.308815,482.589115 392.882014,484.861859 C393.231614,485.211512 394.804812,485.561165 394.804812,486.435298 C394.979612,490.28148 392.182815,491.330439 392.182815,493.428357 C392.008015,493.952837 396.378011,505.841038 396.378011,505.841038 C397.42681,506.71517 400.573207,505.141732 401.622006,507.23965 C402.845605,510.2117 400.922806,511.610312 400.573207,514.057883 C400.223607,516.68028 401.622006,521.050942 401.971605,523.673339 C402.146405,524.722298 401.796806,526.12091 402.496005,526.820216 C403.020404,527.169869 411.410796,525.071951 412.634395,525.421604 C413.857994,525.771257 412.983995,528.044002 414.032794,528.568481 C414.557193,528.918134 415.256393,527.869175 415.605993,528.218828 C415.955592,528.568481 415.605993,529.442614 415.431193,530.14192 C415.256393,530.491573 414.207594,530.666399 414.557193,531.016052 C415.256393,532.065011 416.654792,532.065011 417.528791,532.939143 C417.87839,533.11397 417.353991,533.638449 417.179191,533.988102 C417.179191,533.988102 417.353991,534.162929 417.353991,534.337755 C417.528791,534.337755 422.248386,535.037061 422.248386,535.037061 C422.597986,534.687408 420.849988,531.365705 421.024787,531.190878 C422.248386,531.016052 423.646785,531.540531 425.045184,531.190878 C427.317581,530.491573 428.54118,526.995043 431.337978,527.694349 C437.980371,529.442614 440.951969,532.764317 446.370763,536.260847 C448.817961,537.834285 452.313958,537.834285 454.061956,539.932203 C455.110755,541.330815 452.663557,544.128039 451.789558,544.302865 C450.740759,544.302865 448.643161,541.680468 447.769162,544.827345 C446.545563,549.54766 457.208353,547.449742 460.87915,547.274915 C461.05395,547.799395 461.228749,548.323874 461.403549,548.848354 L461.403549,548.848354 L461.403549,548.848354 C461.578349,549.372833 461.753149,549.722486 461.927949,550.072139 L461.927949,550.072139 L461.927949,550.421792 L461.927949,550.421792 C462.102749,550.596619 462.102749,550.771445 462.102749,550.946272 L462.102749,550.946272 C462.102749,550.946272 462.102749,551.121098 462.277548,551.121098 L462.277548,551.121098 C462.277548,551.121098 462.277548,551.121098 462.277548,551.295925 L462.277548,551.295925 L462.277548,551.295925 L462.277548,551.295925 L462.277548,551.470751 L462.277548,551.470751 L462.277548,551.470751 L462.277548,551.470751 C462.277548,551.470751 462.277548,551.470751 462.277548,551.645578 L462.277548,551.645578 L462.277548,551.645578 L462.277548,551.645578 L462.277548,551.645578 L462.452348,551.645578 L462.452348,551.645578 L462.452348,551.820404 L462.452348,551.820404 L462.452348,551.820404 L462.452348,551.820404 L462.452348,551.820404 L462.452348,551.820404 L462.452348,551.995231 L462.452348,551.995231 L462.452348,551.995231 L462.452348,551.995231 L462.452348,551.995231 L462.452348,551.995231 L462.452348,551.995231 L462.452348,551.995231 L462.452348,552.170057 L462.452348,552.170057 L462.452348,552.170057 C461.753149,561.261034 459.131151,552.694537 458.082352,555.316934 C457.907553,555.841413 460.17995,556.365893 459.480751,556.715546 C457.557953,557.939331 457.208353,554.617628 456.858754,556.540719 C456.334354,558.813464 460.35475,558.98829 461.403549,560.911381 C462.801948,564.058258 457.907553,560.037249 457.208353,560.386902 C455.809955,561.086208 457.033553,563.184126 456.334354,564.582738 C456.159554,565.107217 455.110755,564.932391 454.761155,565.45687 C454.586356,565.98135 455.285555,566.680656 455.110755,567.205135 C454.411556,568.42892 453.537557,569.477879 452.488758,570.526838 C450.565959,572.275103 450.39116,569.303053 450.21636,571.400971 C450.04156,572.44993 451.789558,573.498889 451.090359,574.023368 C449.51716,575.247153 447.943962,572.974409 446.720363,572.624756 C446.195964,572.624756 445.321964,572.624756 445.496764,572.799583 C446.370763,573.848542 447.769162,574.198195 448.468361,575.072327 C448.992761,575.596806 449.51716,576.645765 448.992761,576.645765 L448.992761,576.645765 L448.992761,576.645765 L448.992761,576.645765 L448.992761,576.645765 L448.992761,576.645765 L448.992761,576.645765 L448.992761,576.645765 L448.992761,576.645765 L447.769162,576.645765 L447.943962,576.645765 C446.720363,576.470939 445.846364,576.121286 444.797565,575.596806 C444.447965,575.42198 445.496764,574.722674 445.147165,574.373021 C444.622765,574.198195 442.874767,574.198195 443.399166,574.547848 C444.447965,575.247153 445.846364,575.072327 447.069963,575.596806 C447.419562,575.771633 447.769162,576.296112 447.943962,576.995418 L447.943962,576.995418 C448.118762,576.995418 448.118762,577.170245 448.118762,577.345071 L448.118762,577.345071 L448.118762,577.519898 L448.118762,577.519898 C448.293562,577.694724 448.293562,577.869551 448.293562,577.869551 C448.293562,577.869551 448.293562,577.869551 448.293562,578.044377 L448.293562,578.044377 L448.293562,578.219204 L448.293562,578.219204 L448.293562,578.219204 L448.293562,578.219204 L448.293562,578.568857 L448.293562,578.568857 L448.293562,578.568857 C448.468361,578.91851 448.468361,579.268163 448.468361,579.617816 L448.468361,579.617816 L448.468361,579.617816 L448.468361,579.617816 L448.468361,579.617816 L448.468361,579.792642 L448.468361,579.792642 L448.468361,579.792642 L448.468361,580.142295 L448.468361,580.142295 L448.468361,580.142295 L448.468361,580.142295 L448.468361,580.142295 L448.468361,580.142295 L448.468361,580.142295 L448.468361,580.317122 L448.468361,580.317122 L448.468361,580.317122 L448.468361,580.491948 L448.468361,580.491948 L448.468361,580.491948 L448.468361,580.491948 L448.468361,580.491948 L448.468361,580.491948 L448.468361,580.491948 L448.468361,580.491948 L448.468361,580.491948 L448.468361,580.666775 C448.293562,581.191254 446.895163,580.841601 447.069963,581.366081 C447.069963,581.89056 448.293562,581.016428 448.643161,581.366081 C448.992761,582.065387 448.118762,582.939519 448.293562,583.813651 C448.468361,584.687784 449.51716,585.212263 449.51716,586.261222 C449.69196,586.610875 448.468361,586.436049 448.468361,586.785702 C448.118762,588.533967 449.69196,590.457058 449.342361,592.205323 C449.342361,592.729802 448.118762,592.729802 448.118762,593.254282 C448.118762,594.652894 451.090359,596.925638 449.69196,596.925638 C448.643161,596.750812 447.943962,594.128414 447.069963,594.82772 C446.195964,595.527026 448.293562,596.925638 448.293562,598.149423 C448.293562,600.946647 443.923566,602.170433 446.895163,605.666962 C450.39116,609.687972 448.468361,605.492136 453.187957,606.016615 C454.411556,606.016615 454.761155,607.76488 455.809955,607.939707 C456.509154,608.28936 457.208353,607.065574 457.907553,607.240401 C458.956352,607.590054 459.131151,608.988666 460.005151,609.513145 C461.578349,610.736931 466.472744,613.708981 466.472744,614.23346 C466.822344,618.429296 464.724746,618.079643 467.871143,620.527214 C468.045943,620.70204 468.395543,620.527214 468.395543,620.352387 C468.045943,618.604123 465.773545,612.135542 465.948345,611.960716 C466.297945,611.086584 467.696343,609.862798 468.220743,610.562104 C469.094742,611.611063 468.045943,613.184501 468.220743,614.583113 C468.395543,615.806899 468.745142,617.030684 469.094742,618.079643 C469.619141,619.827908 469.444342,622.799958 471.19234,624.023744 C471.716739,624.373397 472.590739,622.625132 472.590739,623.149611 C472.940338,626.296488 470.84274,626.820968 473.989137,629.967844 C474.863136,630.841977 476.261535,630.841977 477.310334,631.016803 C477.834734,631.19163 478.533933,630.66715 478.883533,631.016803 C479.233132,631.366456 480.631531,635.212639 481.85513,635.562292 C482.729129,635.737118 483.428328,634.862986 484.127528,635.037812 C485.875526,635.562292 494.091118,640.282607 495.839117,641.506393 C496.887916,642.380525 497.587115,643.779137 498.810714,644.303616 C499.859513,644.653269 500.733512,643.779137 501.782311,643.779137 L501.782311,643.779137 L501.782311,643.779137 L501.782311,643.779137 L501.782311,643.779137 L501.782311,643.779137 L501.782311,643.779137 L501.957111,643.779137 L501.957111,643.779137 L501.957111,643.779137 L501.957111,643.779137 L501.957111,643.779137 L501.957111,643.779137 L501.957111,643.779137 L501.957111,643.779137 L501.957111,643.779137 L501.957111,643.779137 L501.957111,643.779137 L501.957111,643.779137 L501.957111,643.779137 L502.131911,643.779137 L502.131911,643.779137 L502.131911,643.779137 L502.131911,643.779137 L502.131911,643.779137 L502.131911,643.779137 L502.306711,643.779137 L502.306711,643.779137 C502.48151,643.779137 502.65631,643.953963 502.83111,643.953963 L502.83111,644.478443 C500.034313,654.443553 501.957111,649.023931 499.160314,656.54147 C498.635914,658.114909 499.859513,662.660398 499.335113,663.184877 C497.587115,665.107968 491.294321,668.254845 488.672323,666.331754 C484.651927,663.359704 494.265918,664.933142 484.127528,662.310745 C483.603128,662.135918 483.603128,663.359704 483.078729,663.359704 C482.729129,663.359704 478.708733,661.961092 477.659934,661.436612 L474.338737,660.038 L474.163937,660.038 L474.163937,660.038 Z M95.7222948,326.818714 C97.1206935,326.99354 100.96629,327.692846 101.31589,327.867673 C103.238688,328.566979 104.637086,331.01455 106.734684,331.888682 C110.230681,333.287294 114.775477,332.587988 117.747074,335.385212 C119.320273,336.783824 120.718671,338.007609 122.11707,339.581047 C122.641469,340.280353 122.29187,341.504139 122.991069,342.203445 C123.515469,342.727924 124.739067,342.378271 125.088667,343.077577 C125.438267,344.476189 125.263467,346.049628 124.564268,347.273413 C124.214668,347.972719 122.46667,346.92376 122.29187,347.623066 C122.11707,348.497198 123.690268,348.672025 124.214668,349.546157 C124.389468,349.89581 124.214668,350.595116 124.389468,351.119596 C124.389468,352.343381 124.913867,353.741993 124.564268,354.965778 C122.991069,359.511267 117.397474,353.39234 115.299876,356.539217 C113.202278,359.686094 116.348675,363.881929 115.299876,364.581235 C113.377078,365.805021 110.230681,365.979847 110.055881,365.979847 C109.706282,365.280541 110.755081,364.406409 110.580281,363.707103 C110.405481,362.83297 110.055881,361.958838 109.356682,361.259532 C108.832282,360.735053 107.783483,360.909879 107.259084,360.3854 C104.637086,357.763002 104.287487,355.665084 102.889088,354.091646 C102.364689,353.567167 99.5678912,351.818902 99.0434917,351.294422 C98.3442924,350.42029 98.8686919,349.021678 98.3442924,348.147545 C95.7222948,344.825842 91.5270988,344.476189 88.5555016,342.028618 C88.0311021,341.504139 90.8278995,343.252404 90.4782998,342.553098 C90.1287001,341.678965 88.0311021,341.853792 88.0311021,340.979659 C88.0311021,338.357262 93.449897,334.336253 94.1490963,331.713856 C94.3238962,331.364203 93.1002973,331.713856 93.1002973,331.364203 C92.9254975,330.49007 93.6246968,329.615938 93.7994967,328.916632 C93.9742965,328.042499 93.9742965,326.99354 94.498696,326.469061 C94.8482957,326.119408 96.2466944,326.643887 95.7222948,326.818714 L95.7222948,326.818714 Z M160.398234,0.0680075039 L157.776236,0.0680075039 C157.251837,0.767313456 156.727437,1.6414459 155.503838,0.942139945 C154.979439,0.767313456 154.629839,0.41766048 154.455039,0.0680075039 L143.792249,0.0680075039 L143.792249,0.592486968 C143.26785,3.21488429 138.023855,4.08901673 140.121453,8.11002596 C140.820652,9.50863786 141.694651,10.7324233 142.91825,11.4317292 C143.44265,11.7813822 144.141849,10.7324233 144.666249,11.0820763 C145.015848,11.0820763 144.491449,11.7813822 144.666249,12.1310352 C144.841048,12.3058617 145.715048,11.7813822 145.365448,11.9562087 C144.491449,12.4806882 143.44265,12.3058617 142.74345,13.1799941 C142.219051,13.5296471 140.820652,18.2499623 142.393851,18.7744417 C144.316649,19.2989212 146.414247,15.8023914 148.162245,16.8513504 C148.511845,17.0261769 148.337045,17.7254828 148.162245,18.2499623 C148.162245,19.4737477 147.113446,20.8723596 147.637846,22.096145 C148.162245,23.1451039 150.434643,22.6206245 150.784243,23.6695834 C151.133842,24.7185423 149.211044,25.5926748 149.385844,26.8164602 C149.385844,27.8654191 150.434643,28.5647251 151.133842,29.264031 C151.308642,29.7885105 152.707041,30.1381635 152.357441,30.31299 C151.133842,31.0122959 149.211044,30.31299 147.987445,31.1871224 C145.715048,32.9353873 150.259843,38.8794879 151.133842,40.1032733 C153.056641,41.8515382 160.048634,48.3201182 161.447033,41.5018852 C161.621833,40.2780998 158.475436,38.8794879 159.524235,38.0053554 C160.573034,37.131223 161.447033,39.9284468 162.670632,40.4529263 C164.06903,41.1522322 166.341428,41.5018852 166.341428,39.2291408 C166.166628,38.0053554 165.117829,36.78157 165.292629,35.5577846 C165.292629,34.6836522 165.817029,37.3060495 166.516228,38.0053554 C167.215427,38.8794879 168.089426,39.4039673 169.138225,39.9284468 C169.487825,40.1032733 170.187024,40.4529263 170.361824,39.9284468 C170.361824,39.4039673 170.361824,38.7046614 170.187024,38.0053554 C170.361824,38.3550084 170.536624,38.7046614 170.711424,39.2291408 C170.711424,39.7536203 170.012225,40.6277528 170.536624,40.8025792 C171.935023,40.9774057 173.508221,40.8025792 174.73182,39.9284468 C174.90662,39.7536203 174.90662,39.5787938 174.73182,39.4039673 C175.43102,39.9284468 177.703417,38.7046614 177.004218,39.5787938 C176.130219,41.1522322 172.109823,41.8515382 172.983822,43.2501501 C173.857821,44.4739355 175.955419,43.5998031 176.829418,44.648762 C177.703417,45.6977209 176.305019,47.6208123 177.179018,48.4949447 C178.053017,49.0194242 178.577417,46.9215063 179.451416,46.5718534 C180.325415,46.3970269 181.024614,47.2711593 181.898613,47.2711593 C182.423013,47.0963328 183.297012,46.7466798 183.297012,46.0473739 C183.122212,45.8725474 182.423013,45.5228944 182.772613,45.5228944 C183.996211,45.3480679 190.463805,46.0473739 191.163005,45.1732414 C192.037004,43.7746295 188.016608,41.3270587 189.415006,40.4529263 C191.512604,39.0543144 195.7078,38.7046614 198.154998,37.8305289 C197.280999,37.480876 196.407,37.480876 195.358201,37.3060495 C195.183401,37.131223 194.659001,37.6557025 194.659001,37.480876 C194.833801,33.1102138 207.768989,34.5088257 202.000594,29.7885105 C201.126595,29.0892045 197.630599,30.31299 196.5818,30.31299 C193.260603,30.4878164 190.114206,29.264031 186.793009,28.5647251 C183.122212,27.8654191 177.179018,24.5437158 174.032621,22.096145 C173.333421,21.5716655 172.983822,20.5227066 172.109823,20.1730536 C171.410623,19.9982272 170.711424,21.3968391 170.012225,21.0471861 C167.739827,19.4737477 168.788626,16.3268709 167.565027,14.4037795 C166.691028,13.3548206 165.467429,13.0051676 164.41863,12.3058617 C164.06903,11.9562087 163.89423,10.9072498 163.195031,10.9072498 C162.321032,10.9072498 161.447033,12.8303411 161.097433,12.1310352 C160.573034,10.9072498 162.146232,9.85829084 162.321032,8.63450542 C162.495832,7.23589352 162.495832,5.83728161 161.971432,4.78832268 C161.621833,4.08901673 160.747833,3.73936375 160.048634,3.73936375 C158.999835,3.91419024 157.951036,5.83728161 157.426637,4.96314917 C155.853438,2.51557834 164.06903,2.86523131 160.398234,0.0680075039 L160.398234,0.0680075039 Z M213.712183,26.8164602 C214.935782,25.4178483 220.179777,28.7395516 221.228576,28.7395516 C223.850574,28.914378 234.338564,26.4668072 234.338564,31.7116019 C234.338564,32.9353873 230.143368,36.6067435 229.444168,36.78157 C228.04577,36.78157 227.171771,34.6836522 225.773372,34.6836522 C224.549773,34.8584786 224.025374,36.431917 223.151374,37.3060495 C222.452175,37.131223 214.586182,35.5577846 214.236583,33.9843462 C214.061783,32.9353873 216.683781,32.7605608 216.159381,32.0612548 C215.809781,31.1871224 214.236583,32.5857343 213.362584,32.0612548 C212.838184,31.8864283 214.061783,31.3619489 214.061783,30.8374694 C214.061783,29.4388575 212.838184,27.8654191 213.712183,26.8164602 L213.712183,26.8164602 Z M174.73182,91.8519138 C177.878217,92.0267403 179.626216,91.5022608 182.073413,93.6001787 C182.597813,94.1246581 183.297012,96.3974025 183.122212,97.2715349 C182.597813,98.3204938 182.423013,94.1246581 181.374214,94.1246581 C180.150615,94.2994846 181.549014,101.467371 181.549014,101.642197 C181.549014,103.914941 179.626216,107.411471 177.878217,108.98491 C177.528618,109.159736 177.179018,108.46043 176.829418,108.635257 C172.809022,110.208695 171.410623,107.935951 169.138225,104.439421 C165.292629,97.4463614 165.292629,91.3274343 174.73182,91.8519138 L174.73182,91.8519138 Z M149.549999,329.42431 C146.586355,329.81503 149.838279,326.486299 144.622444,321.457677 C142.254815,319.175177 125.368469,318.43921 131.857389,312.370826 C122.202774,308.17971 131.061158,308.407159 127.883804,303.169847 C129.970477,303.308258 132.722997,309.316834 136.802721,311.517882 C136.846211,308.277421 134.245277,305.086523 135.157749,304.542917 C141.700874,294.622353 127.760745,297.25239 122.216077,291.967018 C127.926472,291.276192 131.466361,293.697084 137.596417,295.763953 C139.520561,307.019457 142.186066,308.374362 147.250245,312.641737 C156.008223,316.957783 155.340907,323.450979 153.18559,323.37652 C150.933557,323.29881 152.52448,329.032052 149.549999,329.42431 L149.549999,329.42431 Z" id="ru-main"></path>
                <path d="M41.8839457,514.932015 C38.0383494,509.68722 41.7091459,504.966905 40.6603469,503.21864 C40.1359474,502.519334 39.436748,501.994855 38.7375487,501.645202 C38.387949,501.470376 37.8635495,501.994855 37.6887497,501.820028 C36.9895504,501.295549 37.33915,499.896937 36.6399507,499.722111 C34.192753,499.022805 31.7455553,501.295549 29.1235578,501.295549 C28.7739581,501.295549 29.2983576,500.77107 28.948758,500.596243 C26.6763601,499.896937 23.1803634,500.071764 21.0827654,498.847978 C20.5583659,498.498325 20.5583659,497.624193 20.0339664,497.449366 C19.5095669,497.449366 19.334767,498.148672 18.8103675,498.323499 C18.9851674,498.847978 18.9851674,499.197631 18.8103675,499.547284 C18.6355677,499.896937 17.7615685,499.372458 17.7615685,499.722111 C17.5867687,501.645202 20.0339664,503.393467 19.5095669,505.316558 C18.9851674,507.589303 9.72077613,507.414476 10.0703758,506.365517 C10.2451756,506.015864 10.4199755,505.666211 10.5947753,505.316558 C8.67197712,507.414476 6.57437911,507.064823 3.77758175,507.764129 C3.42798208,507.764129 2.90358258,507.589303 2.90358258,507.938956 C2.72878274,509.337567 3.42798208,510.736179 3.42798208,512.134791 C3.42798208,514.582362 2.20438324,517.204759 0.106785219,519.302677 C10.0703758,520.701289 33.6683535,519.827157 41.7091459,515.106842 C41.7091459,515.106842 41.7091459,515.106842 41.8839457,514.932015 L41.8839457,514.932015 Z M14.7899713,498.148672 L14.6151715,498.148672 C14.4403717,498.673152 14.090772,499.372458 13.9159722,499.896937 C14.2655718,499.372458 14.6151715,498.673152 14.7899713,498.148672 L14.7899713,498.148672 Z" id="ru-kaliningrad"></path>
            </g>
        </g>
    </g>
</svg>