<?xml version="1.0" encoding="UTF-8" standalone="no"?>
<svg width="243px" height="654px" viewBox="0 0 243 654" version="1.1" xmlns="http://www.w3.org/2000/svg" xmlns:xlink="http://www.w3.org/1999/xlink">
    <!-- Generator: Sketch 3.6 (26304) - http://www.bohemiancoding.com/sketch -->
    <title>se</title>
    <desc>Created with Sketch.</desc>
    <defs></defs>
    <g id="Page-1" stroke="none" stroke-width="1" fill="none" fill-rule="evenodd">
        <g id="Group" transform="translate(-403.000000, -23.000000)" fill="#FFFFFF">
            <path d="M442.116112,676.126691 C442.824234,674.002377 441.408039,672.940245 439.28382,671.878087 L437.86765,668.337555 C440.699991,670.107784 445.302476,671.169941 443.886331,674.356462 C443.886331,675.064534 443.178233,675.772631 442.116112,676.126691 L442.116112,676.126691 Z M473.979733,487.416932 C474.333782,500.870889 474.333782,508.660025 463.712591,517.511343 C461.234299,519.635632 459.818129,522.468068 456.985813,523.530225 C454.507546,523.884286 452.029254,521.05185 449.550987,521.405911 C445.656525,522.114007 444.240355,536.630146 436.805528,532.027482 C434.681285,530.965325 440.699991,524.946443 440.699991,520.343778 C440.699991,517.865403 432.557042,502.287107 442.824234,500.870889 C445.302476,500.516854 447.780768,504.057386 449.905011,502.641168 L451.67523,489.541246 C457.339887,482.106122 467.607029,484.938557 473.979733,487.416932 L473.979733,487.416932 Z M496.284286,508.660025 C496.992383,515.387029 499.470625,520.697789 494.160042,526.0086 C493.097921,527.070757 491.681751,527.778853 490.973678,529.195071 C489.203483,533.089639 489.557508,537.692303 488.141387,541.940932 L483.538852,552.208443 C474.333782,549.021996 488.141387,513.262714 496.284286,508.660025 L496.284286,508.660025 Z M443.532282,659.840298 C448.488865,654.175477 442.824234,654.529538 442.47016,647.448474 C442.47016,645.324159 444.594403,643.907942 444.948452,641.783652 C444.948452,641.075556 443.532282,640.36741 443.178233,639.659338 C438.575698,638.951241 432.557042,637.535024 428.66258,640.36741 C432.557042,635.410709 439.28382,636.826927 444.594403,637.889084 C441.762112,633.286395 439.991868,629.745863 440.699991,629.037791 C442.116112,625.851271 447.072695,632.932334 450.25906,631.516117 C453.091376,630.45396 443.178233,626.205331 444.594403,623.372945 C445.656525,620.89457 450.613109,623.726981 451.67523,621.602667 C453.445424,619.124317 452.383303,615.583785 450.967133,613.10541 C450.25906,611.689192 448.134817,612.751349 446.718646,612.397338 C443.886331,611.335181 444.594403,606.378431 442.47016,603.900056 C441.05399,602.129803 438.221699,602.129803 436.805528,600.359524 C436.097456,598.943331 437.159577,597.173053 436.45148,595.756885 C435.743407,593.986606 431.494921,588.32176 431.494921,587.967724 C431.494921,587.259603 432.911091,586.905567 432.557042,586.551506 C432.202994,585.84341 430.786848,586.197446 430.07875,585.84341 C428.308556,584.427192 426.892386,582.302903 425.830264,580.5326 C424.060095,577.346153 426.184338,568.848896 423.706046,564.954303 C422.997973,563.892146 420.519681,565.308364 419.45756,564.246232 C418.395438,562.830014 418.749462,560.351664 418.749462,558.227349 C418.041389,552.916539 427.954507,540.524739 423.351997,534.859917 C416.979268,526.716696 420.519681,548.667935 407.06615,535.213929 C404.941907,533.089639 408.48232,526.716696 408.48232,524.238321 C408.128272,519.989693 403.879785,504.057386 403.879785,504.057386 C405.295956,502.287107 408.83632,505.473554 410.960563,505.119543 C412.022684,508.660025 413.438855,512.200557 416.625219,507.597868 C424.414094,496.622261 414.500976,482.460182 416.625219,476.08724 C417.333317,473.60889 420.873705,473.254804 421.935852,471.130515 C422.643924,469.714322 421.935852,467.944043 421.227754,466.527826 C421.227754,465.465669 419.45756,465.111633 419.811584,464.403511 C420.519681,461.925161 431.84897,461.21704 435.035334,453.073868 L434.681285,442.806358 C438.575698,422.625372 429.370678,426.519965 427.600459,411.29568 C427.246435,407.755197 434.327237,409.525451 437.159577,407.047076 L441.05399,392.884998 C439.637869,384.03368 426.184338,384.741777 424.060095,376.598605 C422.289876,369.16348 427.954507,359.25003 427.246435,351.46087 C426.538337,346.150109 420.873705,341.54742 420.519681,336.236634 C420.165633,334.112345 421.935852,331.63397 421.935852,329.509656 C421.581803,327.031305 420.165633,324.906967 420.519681,322.428641 C420.519681,320.304327 422.997973,318.888109 422.997973,316.763795 C422.997973,273.923499 417.687341,348.274423 417.687341,305.434127 C417.687341,301.539559 422.643924,299.061184 422.997973,295.166592 C423.351997,293.750399 421.227754,292.334181 421.581803,290.563903 C422.643924,284.899106 430.432799,272.861292 435.035334,270.028906 C449.550987,260.823528 459.110056,277.463981 461.588348,260.823528 C464.066615,243.475003 449.196938,247.01551 451.321181,240.642592 C454.507546,230.729142 459.464105,220.815667 462.65047,211.256253 C463.004494,209.840036 464.774713,209.486 465.128737,208.069782 L464.066615,194.96986 C464.066615,194.6158 465.836834,183.994253 465.836834,183.994253 L462.296421,170.186186 C463.712591,166.999715 469.377248,170.186186 472.209539,168.770018 L479.998438,162.043014 C481.06056,158.856543 476.458025,156.024108 477.166122,152.837661 C479.290366,146.464718 490.973678,132.656676 493.097921,126.637793 C496.992383,117.078379 487.787313,116.370283 486.371143,108.581122 C485.309021,102.208204 489.203483,106.102748 491.327727,103.624397 C494.160042,100.08389 494.160042,95.1271404 494.86814,91.2325972 C495.222164,88.4001617 501.948917,76.0083122 504.07316,76.0083122 L515.402473,80.9650619 C522.483275,78.1326264 513.632279,57.9516905 515.756522,55.119255 C520.713056,48.7463123 545.141852,60.7840765 548.328192,58.659787 C560.011553,51.2246871 547.620144,51.9327837 547.26607,48.7463123 C546.203973,44.4977085 552.222654,41.3112371 552.222654,37.0626086 C552.222654,34.5842338 551.514556,32.1058589 550.452435,29.9815694 C549.390313,28.2113158 544.787778,27.1491586 545.849949,25.3788803 C547.26607,22.9005054 551.160532,24.6707838 553.992848,23.9626626 L554.700946,23.9626626 C555.763067,24.6707838 557.533262,24.6707838 558.949432,25.7329409 C563.197918,28.565327 557.533262,28.2113158 560.365553,29.9815694 C566.384258,34.5842338 576.651449,43.0814908 583.024154,45.9139262 C590.459005,49.1003729 596.477685,46.2679374 603.204463,52.9949408 C604.620609,54.0570979 603.558487,57.2435693 604.974658,57.9516905 C606.036779,58.3057017 606.744827,56.5354728 607.45295,56.8895334 C610.285241,57.9516905 611.347362,61.4922225 613.471605,63.616512 C614.179703,64.3246085 616.303946,64.3246085 615.949897,65.3867656 C612.05546,72.8218655 616.303946,73.1759261 617.366067,81.6731584 C617.720116,83.0893761 616.303946,84.5055938 616.303946,85.9217869 C615.595848,90.1704401 620.906481,86.983944 622.676675,88.4001617 C627.279185,91.940669 619.844359,96.8974187 621.968602,100.437926 C624.092845,105.394676 632.589793,109.99734 633.297866,115.662186 C633.651915,119.910815 630.46555,133.364797 630.819599,135.13505 C634.005963,146.464718 641.794838,150.359286 646.043324,159.56464 C644.981203,160.980857 643.919081,162.751111 642.502911,163.459207 C641.086741,164.167329 640.024619,160.626797 638.25445,160.980857 C637.546377,161.334893 637.192328,163.105172 636.484255,163.105172 C633.651915,163.459207 630.46555,160.980857 627.987258,162.39705 C626.217064,163.459207 629.04938,167.707861 627.279185,168.770018 C619.844359,173.372657 617.366067,164.875425 612.05546,163.813268 C611.347362,163.813268 612.763533,165.937582 612.763533,166.999715 C612.763533,167.707861 613.117581,168.415957 612.763533,169.124029 C612.409484,171.602404 610.285241,173.726718 610.993363,175.851032 C610.993363,176.205093 611.347362,176.559153 611.701411,176.913189 C609.223119,176.205093 606.744827,175.851032 604.620609,174.788875 C603.558487,174.434815 602.496366,171.602404 602.142342,172.664561 C601.434244,176.559153 610.993363,175.142936 611.701411,179.037504 C612.409484,181.161793 607.45295,179.745625 605.328706,180.807782 C604.974658,181.161793 606.390828,181.161793 607.098901,181.161793 C607.45295,181.515879 611.347362,183.994253 609.223119,185.764482 C608.86912,186.118543 608.515071,183.994253 607.806998,184.348265 C607.45295,184.702325 608.86912,186.118543 608.160998,186.472604 C605.328706,188.242857 597.185758,186.472604 595.769588,191.783389 C595.769588,192.845546 597.893831,191.783389 598.601928,192.137425 C601.08022,193.907703 603.204463,196.386078 604.266585,199.218464 C606.390828,205.591407 595.769588,208.423842 595.415564,215.504857 C595.061515,224.002139 606.744827,224.710235 609.577168,231.083153 C609.931241,231.437214 602.496366,240.642592 601.08022,243.829063 C598.955977,248.077667 598.24788,265.426217 593.999393,266.134338 C593.291345,266.134338 593.291345,263.655963 592.583223,264.009999 C590.104981,264.36406 593.645345,270.028906 591.167102,271.091063 C590.104981,271.79916 590.459005,266.842435 589.396883,267.550531 C589.042835,267.550531 589.042835,267.904592 589.042835,268.258653 L588.68881,268.258653 C587.980713,269.32081 589.396883,271.445124 588.334762,272.15322 C587.27264,273.569438 583.024154,272.861292 581.962032,274.985656 C580.899911,276.401824 581.253984,279.23426 579.483741,279.942356 C577.359522,280.650453 574.173158,276.755885 572.756987,278.526138 C571.340817,280.650453 576.651449,283.482888 575.589328,285.961263 C574.527206,287.731517 572.048915,282.420731 570.632744,283.482888 C568.86255,284.899106 570.986793,287.731517 570.632744,289.855806 C570.278695,292.334181 569.924671,295.874713 567.44638,297.290906 C565.322136,298.353063 562.843845,294.812556 560.365553,295.166592 C558.949432,295.166592 563.551967,296.228749 563.905966,297.644967 C564.260015,298.353063 562.489796,298.707124 561.781748,298.707124 C561.073675,298.707124 562.843845,296.93687 562.135797,296.228749 C561.427674,295.874713 560.011553,295.874713 559.657505,296.58281 C559.303456,297.644967 561.781748,298.707124 561.073675,299.769281 C560.365553,300.477402 558.241334,298.353063 557.179213,299.41522 C556.47114,300.123342 558.949432,300.477402 559.303456,301.539559 C559.303456,301.893595 557.88731,301.185499 557.533262,301.539559 C556.825189,302.955752 557.533262,305.434127 556.47114,306.49626 C555.05497,307.912477 549.744362,306.850345 551.160532,307.912477 C553.284775,309.682731 559.657505,306.850345 558.949432,309.328695 C557.88731,312.161106 554.700946,313.931359 552.930727,316.409734 C552.222654,317.117831 551.514556,318.534049 550.452435,318.888109 C549.390313,319.24217 547.26607,318.888109 547.26607,317.825952 C547.620144,316.763795 550.098411,317.471891 550.452435,316.409734 C551.514556,314.28542 547.620144,317.117831 546.203973,317.471891 C546.558022,318.534049 547.26607,319.596181 547.974192,320.658338 C549.036314,323.136713 550.806484,329.863716 547.974192,329.15562 C547.26607,329.15562 547.620144,325.615088 546.912071,326.323184 C545.849949,328.093463 547.26607,330.925873 545.849949,332.696127 C545.495901,333.758259 543.725682,332.342091 542.66356,332.342091 C540.185293,332.696127 536.998928,332.342091 534.87466,333.758259 C529.210053,338.006937 538.769123,339.777166 543.017609,344.733916 C543.371658,345.087952 541.601438,345.442012 541.247414,345.087952 C541.247414,344.733916 540.185293,344.733916 540.185293,345.087952 C539.831244,347.920387 540.539317,350.752798 540.185293,353.585234 C539.831244,355.355462 538.415074,356.77168 538.06105,358.541934 C537.707001,360.666248 537.707001,362.790562 538.415074,364.914877 C538.415074,365.268937 539.477195,364.20678 539.831244,364.560841 C541.247414,367.039166 545.141852,370.579698 543.017609,372.704012 C540.893366,374.828327 537.707001,368.809444 534.87466,369.871602 C526.731762,372.704012 540.539317,380.139137 539.477195,387.928248 C539.477195,389.344466 535.936782,387.220151 535.936782,388.282309 C535.582758,390.052587 538.415074,390.406623 538.769123,391.822841 C539.123171,392.530937 537.352952,392.176901 537.352952,392.884998 C537.352952,394.301215 537.352952,396.071469 538.06105,397.487687 C538.415074,398.903905 538.06105,400.674133 538.769123,402.090351 C539.123171,402.798448 540.539317,401.38223 540.539317,402.090351 C540.893366,402.444387 539.123171,402.444387 538.769123,402.798448 C538.415074,403.506544 538.415074,404.568701 538.769123,405.276823 C539.477195,407.047076 541.955487,408.109233 542.309536,410.233548 C542.66356,412.357837 540.539317,414.482151 540.893366,416.60649 C540.893366,417.314587 541.955487,416.25243 542.66356,416.60649 C543.725682,416.960526 543.017609,419.438901 544.07973,419.438901 C547.974192,419.438901 555.409019,417.314587 558.949432,419.438901 C560.365553,420.146998 558.949432,422.625372 559.657505,424.04159 C560.719626,426.165904 562.843845,427.582122 564.968088,428.99829 C565.322136,429.352351 566.738307,427.936133 567.092331,428.644279 C567.800428,429.352351 566.030209,430.768569 566.738307,431.122605 C567.092331,431.122605 585.148397,424.04159 575.589328,434.663137 C574.173158,436.433415 570.986793,431.476665 568.86255,432.184762 C567.092331,432.892883 571.340817,434.309101 572.402963,435.725294 C573.819109,437.849608 574.173158,441.036055 576.297401,442.452272 C577.359522,442.806358 578.06757,438.911765 579.483741,439.619886 C581.253984,440.327983 580.191813,443.51443 581.607984,444.576587 C586.918591,450.595494 590.813054,446.700901 589.750932,456.26034 C589.396883,459.800872 586.210519,455.906279 585.85647,455.906279 C584.086276,456.26034 583.732227,458.384654 582.316081,459.446811 C579.129692,462.987318 582.316081,466.17379 572.402963,470.776479 C572.048915,471.130515 574.173158,474.316961 574.173158,474.671022 C573.465085,475.733179 571.694866,473.96295 570.278695,474.316961 C567.800428,474.671022 565.322136,476.795336 562.489796,476.795336 C559.657505,476.795336 562.135797,471.484575 562.135797,469.0062 C562.489796,466.527826 560.365553,466.881886 559.303456,465.465669 C559.303456,465.111633 559.657505,464.403511 559.303456,463.695415 C557.88731,461.571101 557.533262,458.384654 555.05497,457.322497 C553.284775,456.614351 550.806484,458.384654 549.744362,460.154883 C549.390313,461.21704 552.576678,459.800872 552.930727,460.508944 C554.346897,462.987318 553.284775,466.17379 554.700946,468.298104 C555.763067,470.068358 561.073675,469.714322 560.011553,471.484575 C555.763067,479.627772 545.495901,467.235947 543.371658,467.944043 C540.539317,468.652165 539.123171,472.546732 535.936782,472.546732 C533.812539,472.546732 533.45854,467.944043 531.334296,468.298104 C529.564077,468.652165 531.334296,472.192647 530.272175,473.96295 C529.918126,474.671022 528.856005,473.254804 527.793883,473.254804 C524.961543,473.60889 521.775178,473.60889 519.296935,475.025107 C518.588813,475.379119 520.359032,476.441276 521.067105,477.149397 C523.899421,478.919651 527.439834,476.08724 529.564077,475.379119 C533.104466,475.025107 536.64488,479.627772 539.831244,478.565615 C541.247414,477.857493 536.998928,473.60889 538.769123,473.96295 C540.893366,473.96295 541.601438,477.857493 543.725682,478.919651 C545.849949,479.627772 549.036314,477.149397 550.806484,478.919651 C551.868605,479.981808 547.974192,482.106122 548.682241,483.8764 C549.390313,484.938557 552.222654,484.230436 553.284775,483.168279 C553.992848,482.460182 551.160532,480.689929 551.868605,480.335868 C553.6388,479.627772 555.05497,481.752086 556.47114,482.106122 C559.303456,482.814243 561.781748,484.584497 564.260015,483.52234 C566.030209,482.814243 564.614088,478.919651 566.030209,477.857493 C567.800428,476.795336 570.278695,478.919651 572.048915,477.857493 C574.527206,476.795336 574.88123,472.192647 577.713571,471.838636 C579.837789,471.484575 583.378203,475.025107 582.316081,476.795336 C580.545862,479.273711 576.297401,476.795336 573.465085,477.857493 C573.111036,477.857493 574.173158,478.919651 574.527206,479.273711 C575.589328,481.398025 577.713571,483.52234 577.713571,486.000714 C578.06757,486.708811 575.943352,485.646654 575.235279,486.354775 C572.756987,487.770943 569.924671,489.187186 568.508501,491.665536 C567.092331,494.143886 568.154452,497.330382 567.092331,499.808732 C566.384258,501.22495 565.322136,494.497947 563.551967,495.206068 C562.489796,495.914164 565.322136,499.808732 564.260015,499.100636 C560.719626,497.684418 565.676185,485.646654 560.011553,486.354775 C560.011553,486.354775 561.073675,501.933022 554.700946,506.535711 C552.576678,507.951929 549.390313,506.889772 546.912071,507.243832 C545.849949,507.597868 549.744362,508.305989 549.744362,509.368146 C551.160532,513.616775 545.849949,510.784339 545.141852,511.492461 C544.433779,511.846497 547.26607,511.846497 547.26607,512.908678 C547.620144,513.262714 546.203973,512.554618 545.495901,512.908678 C545.141852,513.262714 544.787778,513.970836 544.433779,513.970836 C543.725682,513.970836 525.66964,511.492461 527.085786,514.678932 C527.439834,515.387029 528.501956,515.387029 529.564077,515.387029 C529.918126,515.387029 530.272175,514.324871 530.626174,514.324871 C531.334296,514.678932 531.334296,516.803246 532.396418,516.449186 C533.104466,516.449186 532.042369,514.324871 533.104466,514.324871 C538.769123,512.908678 543.371658,514.324871 545.849949,519.989693 C545.849949,520.697789 544.07973,519.635632 543.725682,519.989693 C542.309536,521.405911 545.495901,523.530225 541.601438,523.530225 C538.769123,523.530225 535.228709,519.635632 533.45854,521.759996 C531.688296,523.884286 538.769123,522.822128 540.893366,524.238321 C542.309536,525.300479 545.141852,531.673446 544.07973,533.4437 C543.371658,534.859917 539.831244,532.381543 539.477195,533.79776 C539.123171,535.567989 546.912071,545.127403 544.433779,548.313899 C542.66356,550.438214 538.415074,547.251718 535.936782,548.313899 C534.87466,548.313899 536.290831,549.730068 536.998928,550.438214 C538.415074,552.208443 544.07973,553.978696 544.07973,556.811132 C544.07973,559.289507 539.477195,560.7057 539.831244,563.538135 C539.831244,565.662449 543.371658,565.662449 544.787778,567.432678 C545.141852,568.140824 543.371658,568.140824 543.017609,568.494835 C541.601438,570.97321 540.185293,573.805621 539.831244,576.638056 C539.123171,578.762371 544.07973,586.551506 543.725682,587.259603 C543.017609,587.967724 541.247414,586.551506 540.185293,587.613664 C537.352952,590.446074 543.371658,596.110896 542.309536,600.713585 C542.309536,601.775742 539.477195,600.713585 539.123171,601.775742 C538.415074,602.837899 540.893366,604.254117 540.185293,605.316274 C536.290831,616.999978 538.06105,596.819042 536.290831,608.856806 C535.228709,616.291881 534.87466,627.975634 528.856005,633.640431 C528.501956,633.994492 527.439834,633.640431 527.085786,632.932334 C527.085786,632.224238 528.147932,631.516117 527.793883,630.80802 C527.793883,629.745863 521.775178,630.45396 521.775178,630.45396 C521.421154,630.099924 522.483275,628.683706 522.129227,628.683706 C518.588813,629.037791 518.234765,630.80802 516.46457,632.578274 C513.27823,635.056649 515.402473,629.745863 514.340352,630.099924 C511.86206,631.516117 508.675695,632.224238 507.967623,632.224238 C506.197403,632.578274 504.781258,631.870177 503.011039,631.870177 C501.594918,631.870177 499.470625,630.80802 499.116626,632.224238 C498.408529,634.348552 502.302991,636.472866 501.240869,638.24312 C499.470625,640.013398 496.284286,637.889084 493.806018,638.597181 C491.681751,639.305277 491.327727,641.783652 490.265605,643.553881 C481.06056,657.007863 492.743897,652.759259 492.389848,661.964613 C492.035799,664.797023 490.265605,667.275398 488.141387,669.399713 C486.371143,671.169941 480.706511,667.629459 479.64439,667.629459 C471.147417,666.921338 473.625709,672.940245 464.774713,672.940245 C461.942372,672.940245 459.464105,671.169941 456.985813,670.81593 C455.569643,670.81593 453.445424,671.878087 452.029254,671.169941 C449.550987,669.753773 455.923716,668.691616 455.923716,668.691616 C455.923716,666.567302 453.799473,664.797023 454.153473,662.672709 C454.153473,660.548395 456.985813,659.486238 457.693886,657.716009 C457.693886,657.716009 451.321181,648.864691 446.364598,641.075556 C446.010574,642.491724 444.240355,643.907942 444.240355,645.67822 C444.594403,653.11332 451.67523,652.405199 443.886331,659.486238 C443.886331,659.840298 443.886331,659.840298 443.532282,659.840298 L443.532282,659.840298 Z M554.346897,572.035367 C555.05497,570.97321 556.47114,571.327271 557.533262,570.97321 C555.05497,576.638056 550.098411,601.067645 549.036314,608.502745 C548.682241,610.273024 550.098411,624.081042 545.495901,624.435102 C544.787778,624.435102 543.371658,608.502745 543.371658,607.440588 C544.07973,597.173053 551.160532,591.862292 552.930727,582.302903 C553.6388,578.054274 551.160532,576.283996 554.346897,572.035367 L554.346897,572.035367 Z M602.142342,562.475978 C602.142342,564.600292 599.310001,564.954303 597.893831,566.370521 C593.291345,571.681307 601.434244,567.786739 594.707466,573.097524 C589.396883,576.992117 592.583223,576.992117 589.750932,582.302903 C588.68881,584.073132 586.210519,589.383917 585.148397,587.259603 C584.086276,585.135289 586.918591,582.302903 587.980713,579.824528 C587.626689,580.178588 587.27264,580.88666 586.918591,580.88666 C586.564567,580.88666 586.564567,579.824528 586.564567,579.470442 C586.210519,576.992117 582.670105,572.743464 582.670105,572.035367 C582.670105,569.911053 584.086276,567.786739 584.086276,565.662449 C583.732227,563.184074 581.607984,561.413821 581.607984,558.935446 C581.253984,557.165192 591.875175,540.170678 593.291345,539.462582 C595.769588,538.4004 598.601928,539.462582 601.08022,539.108521 C604.974658,544.773367 600.372123,545.481464 597.185758,552.916539 C593.291345,562.121917 602.142342,559.289507 602.142342,562.475978 L602.142342,562.475978 Z M614.179703,177.975347 C614.887776,178.329407 615.241824,178.683468 615.949897,179.037504 C616.303946,179.391564 615.241824,178.683468 614.179703,177.975347 L614.179703,177.975347 Z M589.750932,272.15322 C589.750932,272.861292 589.750932,271.79916 589.396883,270.737003 C589.750932,271.091063 589.750932,271.79916 589.750932,272.15322 L589.750932,272.15322 Z M431.494921,652.759259 L431.140872,651.697102 C431.140872,649.572788 430.432799,648.15657 429.370678,647.448474 L429.016629,646.032256 C429.724702,646.032256 430.432799,646.386316 430.786848,647.094413 C431.140872,648.510631 431.494921,650.634945 431.494921,652.759259 L431.494921,652.759259 Z" id="se"></path>
        </g>
    </g>
</svg>