<?xml version="1.0" encoding="UTF-8" standalone="no"?>
<svg width="96px" height="68px" viewBox="0 0 96 68" version="1.1" xmlns="http://www.w3.org/2000/svg" xmlns:xlink="http://www.w3.org/1999/xlink">
    <!-- Generator: Sketch 3.6 (26304) - http://www.bohemiancoding.com/sketch -->
    <title>si</title>
    <desc>Created with Sketch.</desc>
    <defs></defs>
    <g id="Page-1" stroke="none" stroke-width="1" fill="none" fill-rule="evenodd">
        <g id="Group" transform="translate(-477.000000, -316.000000)" fill="#FFFFFF">
            <path d="M572.884567,332.382019 C570.572911,332.051657 564.958839,330.73023 563.637877,331.060592 C560.005282,331.721294 564.958839,336.346277 562.977407,337.667704 C561.326245,338.328406 559.344813,337.337341 557.693604,337.998043 C557.033134,338.328406 558.02385,339.649833 557.363381,340.310512 C554.060987,342.953388 548.777183,343.283705 545.474789,346.256898 C541.511925,349.890816 552.740024,359.140736 547.786468,362.774631 C536.228099,371.033486 543.493357,357.158607 535.897853,368.060316 C534.907137,369.381743 538.870001,369.712105 539.530494,371.363849 C540.190963,372.685275 536.228099,372.354913 536.228099,373.67634 C536.228099,374.337042 539.530494,378.631662 538.209531,380.283428 C534.576937,383.917347 529.293111,378.3013 525.990717,378.3013 C521.03716,378.3013 530.61405,382.926282 522.358076,380.613791 C520.046444,379.953089 517.074296,376.319171 516.08358,374.337042 C515.423087,373.67634 514.762618,371.694211 514.432371,372.354913 C513.111409,374.337042 513.441655,376.649533 512.120693,378.3013 C507.827629,383.917347 501.88331,378.3013 496.929731,379.953089 C496.269261,380.283428 497.5902,381.604855 496.929731,382.265534 C493.957583,383.917347 488.01331,383.586961 485.041162,382.265534 C485.041162,382.265534 485.041162,381.935218 485.371386,381.935218 C487.022594,380.283428 489.004026,378.631662 489.664496,376.979896 C501.222841,377.640598 488.01331,369.712105 484.710916,367.729976 C482.399238,366.408549 486.031878,362.113929 485.371386,360.462163 C484.710916,358.810373 479.42709,363.435356 480.748052,359.140736 C481.738768,356.167566 488.01331,353.524689 485.701632,351.542583 C484.050446,350.221156 476.454965,350.881881 477.115412,346.917623 C477.775927,341.631962 486.031878,342.953388 486.692348,336.346277 L486.031878,336.346277 C488.01331,336.676639 489.994742,337.006979 492.30642,337.337341 C494.948299,337.667704 497.5902,339.649833 500.232125,339.980149 C502.874026,340.310512 505.515951,338.328406 508.157829,338.658768 C509.809038,338.989085 510.799754,341.301576 512.45094,341.301576 C513.111409,341.631962 512.781186,339.649833 513.441655,339.31947 C515.092841,337.667704 517.734766,337.006979 519.385928,335.02485 C520.70689,334.033786 519.716198,331.721294 520.70689,330.73023 C526.981433,325.774908 533.586221,332.051657 539.530494,329.408826 C541.511925,328.417784 541.842172,325.444545 543.823604,324.783866 C544.153827,324.453481 555.051702,326.105293 555.381926,325.774908 C556.372642,325.444545 554.39121,324.123164 554.060987,323.1321 C553.070271,317.846415 557.033134,316.524988 561.986714,316.524988 C563.307676,316.524988 565.949555,326.765972 572.884567,332.382019 L572.884567,332.382019 Z" id="si"></path>
        </g>
    </g>
</svg>