<?xml version="1.0" encoding="UTF-8" standalone="no"?>
<svg width="1638px" height="780px" viewBox="0 0 1638 780" version="1.1" xmlns="http://www.w3.org/2000/svg" xmlns:xlink="http://www.w3.org/1999/xlink">
    <!-- Generator: Sketch 3.6 (26304) - http://www.bohemiancoding.com/sketch -->
    <title>Blank_political_map_Europe_in_2008_WF_(with_Kosovo)</title>
    <desc>Created with Sketch.</desc>
    <defs>
        <rect id="path-1" x="0" y="0" width="1637.27884" height="779.058994"></rect>
    </defs>
    <g id="Page-1" stroke="none" stroke-width="1" fill="none" fill-rule="evenodd">
        <g id="Blank_political_map_Europe_in_2008_WF_(with_Kosovo)">
            <g id="Group">
                <mask id="mask-2" fill="white">
                    <use xlink:href="#path-1"></use>
                </mask>
                <use id="maska" xlink:href="#path-1"></use>
                <rect id="ocean" fill="#2096BD" mask="url(#mask-2)" x="-9037.53131" y="-7736.84507" width="17106.6767" height="10954.4735"></rect>
                <g id="outlines" mask="url(#mask-2)" stroke="#FFFFFF" stroke-width="3">
                    <g transform="translate(-6427.699831, -7744.778761)">
                        <path d="M7562.57886,10155.5532 C7536.84707,10169.4029 7451.7346,10375.1698 7471.52802,10402.8694 C7479.44553,10414.7405 7519.03292,10414.7405 7507.15673,10422.6547 C7497.25981,10428.5903 7499.23922,10408.8049 7493.30113,10422.6547 C7493.30113,10426.6117 7489.34231,10430.5687 7491.32172,10436.5043 C7495.28054,10452.3327 7519.03292,10460.2468 7524.97102,10476.0749 C7526.95015,10480.0319 7519.03292,10478.0535 7515.0741,10482.0105 C7505.17732,10487.9461 7495.28054,10493.8817 7489.34231,10503.7744 C7483.40421,10513.667 7481.42494,10525.5382 7479.44553,10535.4307 C7477.46612,10547.3019 7485.38362,10563.1302 7479.44553,10573.0228 C7475.48684,10578.9584 7469.54875,10553.2378 7431.9409,10555.2161 C7390.3741,10559.1733 7408.18852,10573.0228 7352.76639,10547.3019 C7329.01387,10537.4094 7323.07578,10493.8817 7297.34412,10478.0535 C7261.71541,10456.2896 7230.04566,10478.0535 7190.45855,10462.2251 C7184.52045,10460.2468 7178.58235,10458.2683 7172.64426,10454.3113 C7164.72675,10448.3754 7160.76807,10434.5259 7150.87115,10430.5687 C7142.95365,10424.6331 7133.05687,10430.5687 7123.16009,10426.6117 C7083.57283,10412.762 7055.86177,10375.1698 7012.31583,10363.2988 C6994.5014,10359.3418 6974.70784,10377.1484 6956.89356,10369.2342 C6952.93473,10367.2559 6905.43011,10315.814 6907.40952,10307.8999 C6907.40952,10299.9857 6919.28571,10296.0287 6919.28571,10290.0931 C6921.26485,10284.1576 6913.34762,10282.1789 6913.34762,10276.2435 C6913.34762,10268.3294 6917.3063,10258.4367 6923.2444,10250.5225 C6929.18235,10242.6085 6941.05854,10240.6299 6948.97605,10232.7157 C6958.87283,10224.8017 6968.76975,10195.1236 6976.68712,10205.0165 C6980.64594,10210.9519 6986.58403,10250.5225 7004.39832,10248.5441 C7071.69664,10238.6513 7004.39832,10189.1881 7089.51093,10193.1453 C7111.28403,10193.1453 7093.46947,10216.8875 7105.34594,10222.8231 C7113.26317,10226.7801 7125.13936,10216.8875 7135.03628,10220.8446 C7140.97437,10222.8231 7138.99496,10234.6943 7142.95365,10236.6729 C7154.82997,10244.5869 7170.66485,10252.5011 7184.52045,10252.5011 C7186.49959,10252.5011 7235.98376,10228.7587 7235.98376,10228.7587 C7251.81877,10226.7801 7285.46779,10238.6513 7309.22031,10232.7157 C7358.70449,10222.8231 7356.72508,10203.0378 7382.45673,10189.1881 C7441.83754,10157.5317 7398.2916,10201.0592 7455.69315,10197.1023 C7495.28054,10195.1236 7467.56934,10173.3599 7483.40421,10157.5317 C7489.34231,10151.596 7489.34231,10175.3385 7495.28054,10173.3599 C7530.90911,10165.4458 7530.90911,10133.7892 7562.57886,10155.5532 L7562.57886,10155.5532 Z M6256.19873,9425.47579 C6262.13682,9453.17504 6349.22884,9447.23945 6337.35279,9490.76717 C6335.37324,9502.63836 6301.72408,9498.68134 6305.6829,9512.53111 C6309.64159,9526.38087 6337.35279,9522.42358 6347.24943,9534.29476 C6351.20811,9538.25192 6337.35279,9540.23036 6337.35279,9546.16595 C6349.22884,9617.39306 6367.04313,9516.48798 6371.00181,9611.45761 C6372.98122,9645.09245 6337.35279,9656.96364 6327.45573,9684.66316 C6317.55909,9710.38397 6347.24943,9710.38397 6351.20811,9732.14777 C6351.20811,9740.06194 6341.31134,9747.97611 6341.31134,9757.86872 C6335.37324,9823.16024 6343.29075,9914.17257 6305.6829,9979.46396 C6303.70349,9983.42111 6305.6829,9973.52836 6301.72408,9971.54992 C6274.01301,9961.65718 6238.38458,9933.95793 6204.73528,9935.93623 C6198.79719,9935.93623 6218.59088,9943.85054 6218.59088,9949.78599 C6216.61147,9957.70016 6206.71469,9961.65718 6204.73528,9971.54992 C6192.85909,10017.0561 6224.52898,10009.1421 6169.10671,10034.8627 C6091.91147,10070.4764 6139.41637,9997.27073 6101.80839,9981.44253 C6091.91147,9977.48552 6082.01469,9993.31372 6070.13864,9993.31372 C6062.22113,9993.31372 6093.89088,9991.33514 6095.87029,9981.44253 C6095.87029,9967.59277 6076.0766,9959.67888 6072.11805,9947.80741 C6060.24186,9908.23698 6087.95279,9882.51603 6093.89088,9848.88091 C6095.87029,9835.03142 6087.95279,9823.16024 6091.91147,9809.31048 C6093.89088,9797.43929 6115.66399,9791.5037 6111.70517,9779.63265 C6109.7259,9769.73976 6087.95279,9779.63265 6082.01469,9771.71848 C6076.0766,9761.82587 6085.97338,9749.95455 6085.97338,9740.06194 C6085.97338,9738.08336 6078.05615,9738.08336 6080.03528,9736.10492 C6083.99424,9730.16933 6095.87029,9732.14777 6099.82898,9724.23374 C6107.74648,9704.44838 6078.05615,9607.50032 6066.17996,9593.65083 C6042.42744,9567.92988 6026.59256,9653.00662 6032.53066,9554.08012 C6034.51007,9540.23036 6048.36553,9530.33775 6050.34494,9516.48798 C6052.32435,9508.57381 6042.42744,9500.65992 6048.36553,9494.72433 C6050.34494,9492.74575 6064.20054,9534.29476 6099.82898,9534.29476 C6129.51945,9536.27334 6238.38458,9447.23945 6256.19873,9425.47579 L6256.19873,9425.47579 Z M7071.69664,8040.50503 C7067.73796,8080.07574 7018.25392,8072.16157 7014.29496,8103.81797 C7010.33641,8127.56034 7055.86177,8123.60319 7065.75854,8131.51736 C7079.61415,8143.38841 7042.00616,8159.21689 7036.06807,8177.02353 C7028.15056,8202.74448 7059.82045,8175.04495 7063.77913,8184.9377 C7067.73796,8194.83031 7045.96485,8220.55125 7059.82045,8228.46542 C7079.61415,8240.33661 7158.78866,8287.82122 7089.51093,8283.8642 C7093.46947,8273.97145 7093.46947,8266.05728 7085.55224,8256.16467 C7047.94426,8220.55125 7049.92367,8236.37932 7028.15056,8264.07884 C7030.12997,8262.10027 7030.12997,8260.12169 7030.12997,8260.12169 C7030.12997,8240.33661 6992.52213,8236.37932 6974.70784,8244.29349 C6964.81092,8250.22908 6974.70784,8271.99288 6966.79034,8279.90705 C6958.87283,8287.82122 6945.01723,8281.88562 6933.14104,8285.84264 C6905.43011,8297.71382 6879.69832,8329.37023 6848.02843,8335.30582 C6838.13179,8337.2844 6828.23487,8327.39193 6820.3175,8333.32752 C6812.4,8335.30582 6820.3175,8347.17701 6816.35868,8355.09118 C6814.37941,8361.02677 6808.44131,8368.94094 6804.48249,8374.87653 C6806.4619,8372.89796 6806.4619,8370.91938 6808.44131,8370.91938 C6818.33809,8370.91938 6810.42059,8392.68331 6818.33809,8396.64033 C6822.29678,8398.6189 6824.27619,8384.76914 6828.23487,8388.7263 C6832.19369,8396.64033 6840.11092,8412.46867 6832.19369,8418.40412 C6828.23487,8420.38256 6826.2556,8424.33971 6828.23487,8428.29673 C6830.21428,8430.27531 6834.17283,8426.31843 6838.13179,8426.31843 C6850.00784,8436.2109 6869.80154,8442.14649 6871.78081,8455.99626 C6883.657,8511.39503 6836.15238,8489.6311 6822.29678,8523.26622 C6818.33809,8533.15883 6844.06988,8639.9995 6850.00784,8651.87068 C6861.88403,8671.6559 7000.43963,8770.5824 7028.15056,8786.41061 C7055.86177,8802.23895 7063.77913,8792.3462 7089.51093,8814.11013 C7117.22199,8837.8525 7154.82997,8994.15636 7176.60294,9033.72679 C7198.37605,9075.27608 7243.90126,9112.86794 7279.5297,9140.56747 C7291.40589,9148.48164 7309.22031,9150.46008 7319.11709,9160.35282 C7325.05519,9164.30984 7319.11709,9176.18089 7323.07578,9180.13818 C7376.51863,9235.53695 7477.46612,9217.73017 7540.80575,9207.83743 C7554.66135,9205.85885 7584.35183,9184.09506 7602.16612,9203.88041 C7651.65015,9259.27933 7503.19791,9279.06454 7578.41374,9330.5063 C7649.67088,9377.99105 7748.63909,9374.03389 7821.8755,9411.62603 C7847.6073,9425.47579 7857.50408,9447.23945 7887.19441,9457.13219 C7910.94679,9467.0248 7976.26584,9476.91755 7996.05954,9492.74575 C8003.97691,9498.68134 7996.05954,9512.53111 8001.99764,9518.4667 C8025.75002,9552.10154 8089.08965,9546.16595 8108.88321,9615.41449 C8116.80072,9641.13544 8098.98643,9633.22127 8093.04834,9651.02804 C8089.08965,9660.92079 8095.02775,9700.49123 8087.11024,9704.44838 C8079.19274,9710.38397 8065.33713,9704.44838 8053.46094,9698.51293 C7992.10072,9674.77055 8017.83251,9639.15686 7986.16262,9597.60785 C7968.34834,9573.86547 7910.94679,9597.60785 7881.25632,9587.71524 C7841.6692,9573.86547 7819.89609,9528.35917 7782.28811,9567.92988 C7778.32956,9573.86547 7728.84539,9672.79198 7728.84539,9676.74899 C7728.84539,9682.68445 7738.74217,9688.62004 7736.76276,9696.53421 C7728.84539,9734.12634 7689.25813,9732.14777 7722.9073,9775.67536 C7742.70099,9799.41773 7748.63909,9777.65407 7770.41206,9783.58953 C7794.1643,9791.5037 7809.99931,9815.24607 7831.77228,9825.13868 C7839.68979,9829.09583 7851.56598,9825.13868 7855.52466,9833.05285 C7859.48349,9838.98844 7847.6073,9846.90261 7847.6073,9854.8165 C7849.58657,9910.21556 7875.31822,9858.7738 7871.35968,9930.00077 C7869.38013,9971.54992 7790.20562,9955.72158 7754.57718,9997.27073 C7728.84539,10026.9488 7762.49455,10056.6267 7754.57718,10092.2402 C7748.63909,10121.918 7728.84539,10114.0042 7709.05169,10129.8322 C7661.54707,10171.3814 7695.19609,10266.3509 7596.22802,10238.6513 C7576.43432,10232.7157 7554.66135,10181.2741 7566.53754,10159.5102 C7574.45505,10147.639 7594.24875,10149.6176 7604.14553,10139.7248 C7610.08362,10131.8108 7610.08362,10119.9397 7612.06303,10110.047 C7614.04217,10100.1544 7621.95968,10092.2402 7619.98026,10082.3476 C7618.00113,10070.4764 7598.20743,10064.5408 7600.18684,10052.6695 C7608.10407,10017.0561 7655.60897,10036.8413 7669.46444,10017.0561 C7703.1136,9977.48552 7663.52634,9971.54992 7647.69147,9949.78599 C7631.85645,9926.04376 7639.77396,9892.40864 7627.89777,9866.68797 C7621.95968,9850.85963 7614.04217,9837.00986 7604.14553,9825.13868 C7602.16612,9821.18166 7594.24875,9821.18166 7590.28993,9817.22465 C7554.66135,9763.80431 7592.26934,9795.46071 7568.51696,9736.10492 C7538.82634,9660.92079 7521.01206,9698.51293 7461.63124,9702.4698 C7459.65183,9702.4698 7463.61065,9696.53421 7461.63124,9692.57733 C7453.71373,9684.66316 7443.81709,9674.77055 7431.9409,9668.83496 C7420.06471,9662.89937 7396.31233,9668.83496 7388.39482,9654.9852 C7380.47732,9641.13544 7404.2297,9627.28567 7402.25043,9611.45761 C7400.27102,9595.62913 7388.39482,9581.77964 7380.47732,9569.90846 C7332.97269,9504.61694 7325.05519,9595.62913 7269.63306,9575.84405 C7263.69496,9573.86547 7307.2409,9542.20893 7287.4472,9528.35917 C7216.1902,9476.91755 7285.46779,9530.33775 7208.27269,9520.44528 C7202.3346,9518.4667 7208.27269,9508.57381 7206.29328,9502.63836 C7198.37605,9478.89599 7156.80925,9415.58318 7137.01555,9407.66901 C7083.57283,9387.88365 7125.13936,9425.47579 7107.32507,9421.51877 C7089.51093,9417.56162 7073.67605,9395.79782 7053.88235,9397.77626 C7036.06807,9401.73342 7022.21247,9425.47579 7006.37773,9421.51877 C6988.56331,9417.56162 6990.54272,9391.84067 6978.66653,9379.96948 C6964.81092,9368.0983 6929.18235,9372.05545 6917.3063,9364.14128 L6887.61582,9322.59227 C6873.76022,9310.72095 6851.98739,9308.74251 6840.11092,9294.89274 C6816.35868,9259.27933 6844.06988,9265.21492 6816.35868,9243.45099 C6804.48249,9233.55838 6790.62689,9225.64421 6776.77143,9217.73017 C6772.8126,9215.7516 6764.89537,9221.68719 6760.93641,9219.70861 C6739.16358,9201.90184 6739.16358,9168.26699 6717.39047,9150.46008 C6679.78249,9118.80367 6656.03025,9142.54604 6616.44299,9126.7177 C6610.5049,9124.73927 6626.33977,9118.80367 6630.29845,9114.84652 C6642.17464,9099.01845 6618.42226,9073.29751 6612.48417,9067.36191 C6608.52548,9063.40476 6600.60798,9067.36191 6596.64929,9063.40476 C6590.71134,9055.49073 6590.71134,9043.61954 6582.79383,9037.68395 C6572.89705,9029.76978 6553.10335,9035.70537 6545.18585,9023.83419 C6539.24775,9015.92002 6557.06204,9000.09195 6547.16526,8994.15636 C6535.28907,8984.26361 6515.49537,8996.13466 6499.66036,8990.1992 C6489.76372,8986.24219 6505.59873,8968.43541 6505.59873,8956.56422 C6511.53683,8916.99351 6505.59873,8903.14389 6483.82562,8869.50891 C6442.25895,8810.15298 6471.94943,8756.73264 6422.46526,8711.22648 C6418.50671,8705.29088 6410.58921,8703.31244 6404.65111,8701.33387 C6402.6717,8701.33387 6400.69215,8707.26946 6398.71301,8705.29088 C6388.8161,8701.33387 6382.878,8689.46268 6372.98122,8689.46268 C6367.04313,8689.46268 6378.91932,8707.26946 6372.98122,8705.29088 C6357.14635,8701.33387 6345.27002,8689.46268 6331.41469,8679.57021 C6325.4766,8675.61292 6275.99243,8624.1713 6260.15741,8624.1713 C6256.19873,8624.1713 6262.13682,8634.06391 6258.17828,8636.04248 C6254.21932,8638.02092 6248.28122,8636.04248 6246.30181,8632.08533 C6236.40517,8620.21414 6194.8385,8600.42879 6175.04481,8600.42879 C6167.1273,8600.42879 6115.66399,8630.10689 6111.70517,8638.02092 C6107.74648,8645.93509 6113.68458,8657.80628 6107.74648,8663.74173 C6101.80839,8671.6559 6085.97338,8669.67733 6080.03528,8675.61292 C6066.17996,8689.46268 6056.28304,8721.11922 6040.44816,8734.96899 C6014.71637,8760.68966 5969.19102,8758.71136 5939.50054,8762.66824 C5929.60376,8727.05482 5996.90209,8681.54851 5967.21175,8659.78485 C5957.31483,8653.84926 5943.45923,8661.76316 5931.58304,8663.74173 C5919.70685,8663.74173 5905.85124,8669.67733 5893.97505,8665.72045 C5872.20222,8659.78485 5820.73864,8622.19272 5822.71805,8594.49319 C5822.71805,8590.53618 5832.61483,8590.53618 5832.61483,8586.5793 C5830.63556,8580.64371 5810.842,8574.70811 5816.78009,8562.83679 C5824.6976,8554.92276 5834.59424,8548.98717 5840.53233,8539.09442 C5842.51175,8537.11598 5836.57365,8533.15883 5838.55292,8529.20181 C5840.53233,8523.26622 5858.34662,8533.15883 5860.32603,8527.22323 C5860.32603,8511.39503 5858.34662,8495.56669 5852.40853,8483.69564 C5842.51175,8467.86744 5777.1927,8442.14649 5781.15152,8410.48995 C5781.15152,8400.59748 5798.96581,8400.59748 5808.86259,8398.6189 C5814.80054,8398.6189 5818.7595,8410.48995 5824.6976,8408.51137 C5834.59424,8406.53307 5897.93401,8355.09118 5888.0371,8337.2844 C5882.099,8325.41335 5862.30544,8323.43464 5856.36721,8309.58487 C5850.42911,8301.67098 5858.34662,8287.82122 5854.38794,8279.90705 C5826.67673,8232.42244 5775.21342,8256.16467 5866.26413,8202.74448 C5886.05782,8238.35803 5939.50054,8198.78732 5965.23234,8192.85173 C5983.04662,8188.89471 5996.90209,8212.63708 6014.71637,8212.63708 C6016.69578,8212.63708 6072.11805,8155.25959 6072.11805,8145.36712 C6074.09719,8135.47451 6056.28304,8131.51736 6058.26245,8123.60319 C6062.22113,8111.732 6078.05615,8107.77499 6087.95279,8099.86082 C6097.84957,8091.94679 6105.76707,8084.03262 6115.66399,8076.11845 C6119.62267,8074.13987 6123.58136,8070.18285 6125.56077,8072.16157 C6129.51945,8084.03262 6127.54018,8095.9038 6127.54018,8107.77499 C6127.54018,8113.71058 6121.60209,8121.62475 6123.58136,8129.53892 C6137.43696,8155.25959 6169.10671,8161.19519 6190.87968,8169.10936 C6192.85909,8169.10936 6196.81778,8173.06637 6196.81778,8177.02353 C6194.8385,8184.9377 6180.9829,8190.87329 6182.96231,8198.78732 C6184.94158,8206.70149 6198.79719,8202.74448 6204.73528,8208.68007 C6212.65279,8218.57268 6216.61147,8252.20766 6228.48766,8242.31491 C6262.13682,8216.5941 6222.54957,8224.50827 6222.54957,8204.72291 C6222.54957,8161.19519 6270.05433,8149.324 6277.9717,8113.71058 C6277.9717,8109.75357 6256.19873,8056.33309 6289.84789,8062.26868 C6315.57968,8066.22598 6283.90979,8105.79641 6335.37324,8117.6676 C6367.04313,8127.56034 6341.31134,8087.98963 6394.75419,8097.88238 C6410.58921,8099.86082 6402.6717,8131.51736 6416.5273,8139.43153 C6424.44481,8143.38841 6440.27954,8135.47451 6438.30013,8127.56034 C6434.34145,8121.62475 6426.42394,8117.6676 6424.44481,8109.75357 C6424.44481,8101.8394 6436.32086,8095.9038 6434.34145,8087.98963 C6430.38276,8078.09702 6394.75419,8056.33309 6422.46526,8036.54801 C6458.09383,8010.82706 6444.23823,8068.20428 6485.80503,8058.31181 C6509.55728,8050.39764 6471.94943,8022.69825 6471.94943,8018.7411 C6475.90812,8010.82706 6481.84621,8004.89147 6483.82562,7996.9773 C6487.78417,7989.06313 6485.80503,7979.17066 6487.78417,7971.25649 L6487.78417,7971.25649 C6519.45406,7987.08483 6491.74313,7967.29947 6523.41288,7971.25649 C6539.24775,7973.23507 6555.08277,8014.78408 6586.75238,7996.9773 L6612.48417,7943.5571 C6628.31918,7931.68592 6697.59678,7939.59995 6715.4112,7937.62151 C6745.10168,7935.64293 6768.85392,7909.92198 6798.5444,7909.92198 C6806.4619,7909.92198 6784.68879,7919.81459 6782.70952,7927.72876 C6772.8126,7969.27777 6798.5444,7941.57853 6814.37941,7965.3209 C6818.33809,7971.25649 6808.44131,7979.17066 6812.4,7987.08483 C6814.37941,7991.04171 6820.3175,7983.12754 6824.27619,7987.08483 C6861.88403,8014.78408 6871.78081,8018.7411 6923.2444,8026.65527 C6972.72843,8032.59086 7022.21247,8036.54801 7071.69664,8040.50503 L7071.69664,8040.50503 Z M6855.94594,8729.03339 C6859.90462,8723.0978 6859.90462,8715.18363 6865.84272,8711.22648 C6881.67773,8695.39827 6877.71891,8756.73264 6855.94594,8729.03339 L6855.94594,8729.03339 Z" id="it" fill="#87B024"></path>
                        <path d="M7057.84104,6172.77308 C7061.79986,6204.42948 7093.46947,6265.76399 7097.42843,6285.5492 C7103.36653,6333.03395 7040.02675,6364.69035 7053.88235,6402.28249 C7061.79986,6426.02486 7137.01555,6435.91733 7137.01555,6465.59543 C7137.01555,6495.2734 7113.26317,6505.166 7131.07745,6526.92994 C7137.01555,6536.82241 7150.87115,6540.77942 7154.82997,6552.65075 C7160.76807,6562.54336 7152.85056,6576.39312 7154.82997,6586.28573 C7156.80925,6592.22132 7164.72675,6590.24274 7166.70616,6594.1999 C7176.60294,6608.04966 7152.85056,6641.6845 7146.91247,6653.55569 C7135.03628,6671.36247 7164.72675,6681.25522 7170.66485,6699.06199 C7174.62339,6708.95447 7160.76807,6720.82565 7166.70616,6728.73982 C7174.62339,6740.61101 7192.43768,6736.65399 7200.35519,6744.56816 C7228.06639,6770.28897 7216.1902,6914.72164 7192.43768,6918.67866 C7166.70616,6924.61425 7125.13936,6815.79514 7103.36653,6877.12951 C7099.40784,6887.02211 7135.03628,6894.93628 7127.11877,6900.87188 C7103.36653,6920.65723 7069.71723,6922.63581 7045.96485,6936.48544 C7042.00616,6938.46401 7045.96485,6948.35676 7042.00616,6950.33506 C7026.17115,6958.24923 7004.39832,6946.37818 6992.52213,6956.27065 C6982.62521,6964.18482 6986.58403,6980.01302 6976.68712,6987.92719 C6972.72843,6991.88435 6968.76975,6978.03459 6962.83165,6980.01302 C6945.01723,6983.97018 6943.03795,7007.71255 6931.1619,7015.62672 C6925.22381,7021.56231 6913.34762,7011.66957 6907.40952,7017.60516 C6901.47143,7021.56231 6907.40952,7033.4335 6901.47143,7039.36909 C6893.55392,7049.26156 6871.78081,7031.45492 6865.84272,7031.45492 C6816.35868,7039.36909 6808.44131,7076.96109 6792.6063,7108.61763 C6788.64762,7116.53152 6788.64762,7088.83227 6780.73011,7082.89668 C6774.79201,7074.98251 6762.91582,7073.00393 6753.01918,7071.0255 C6735.20476,7067.06834 6772.8126,7130.38129 6812.4,7156.10224 C6816.35868,7158.08081 6830.21428,7160.05925 6832.19369,7171.93044 C6838.13179,7199.62996 6812.4,7189.73735 6808.44131,7211.50115 C6806.4619,7217.4366 6850.00784,7290.64216 6855.94594,7296.57775 C6889.5951,7330.21287 6897.5126,7306.47064 6919.28571,7328.23429 C6933.14104,7342.08405 6935.12045,7363.84785 6948.97605,7375.7189 C6980.64594,7397.48283 7065.75854,7427.16079 7063.77913,7478.60255 C7061.79986,7532.02289 7049.92367,7520.1517 7008.35686,7510.2591 C7004.39832,7510.2591 7000.43963,7512.23753 6998.46022,7516.19469 C6994.5014,7535.98004 7006.37773,7557.7437 6986.58403,7573.5719 C6968.76975,7587.42167 6885.63641,7607.20702 6883.657,7638.86356 C6883.657,7638.86356 6931.1619,7704.15495 6931.1619,7706.13352 C6933.14104,7708.1121 6905.43011,7731.85433 6915.32689,7739.76864 C6937.1,7759.55372 6958.87283,7729.87576 6941.05854,7795.16742 C6941.05854,7799.12443 6937.1,7805.06003 6933.14104,7805.06003 C6869.80154,7787.25325 6919.28571,7755.59671 6889.5951,7753.61813 C6873.76022,7753.61813 6859.90462,7767.46789 6844.06988,7765.48931 C6836.15238,7763.51088 6838.13179,7749.66111 6832.19369,7747.68254 C6820.3175,7743.72552 6808.44131,7753.61813 6798.5444,7749.66111 C6794.58571,7747.68254 6802.50322,7735.81135 6798.5444,7735.81135 C6774.79201,7737.78993 6796.56498,7769.44647 6790.62689,7771.42491 C6762.91582,7779.33908 6717.39047,7767.46789 6691.65868,7777.3605 C6683.74131,7781.31765 6687.7,7795.16742 6679.78249,7799.12443 C6671.86526,7805.06003 6661.96834,7795.16742 6654.05097,7801.10301 C6648.11274,7803.08131 6656.03025,7812.9742 6652.07156,7816.93107 C6650.09215,7818.90979 6582.79383,7836.71643 6574.87619,7832.75941 C6570.91764,7828.80226 6574.87619,7818.90979 6570.91764,7814.9525 C6568.93823,7810.99548 6559.04145,7810.99548 6557.06204,7807.0386 C6555.08277,7803.08131 6566.95896,7805.06003 6564.97954,7801.10301 C6557.06204,7775.38206 6501.63977,7807.0386 6485.80503,7789.23182 C6485.80503,7789.23182 6489.76372,7787.25325 6489.76372,7785.27467 C6477.88753,7777.3605 6489.76372,7810.99548 6485.80503,7824.84524 C6485.80503,7832.75941 6448.19705,7878.26558 6434.34145,7864.41582 C6426.42394,7856.50179 6448.19705,7844.6306 6442.25895,7836.71643 C6440.27954,7834.73785 6434.34145,7842.65202 6430.38276,7842.65202 C6426.42394,7842.65202 6420.48585,7840.67345 6418.50671,7836.71643 C6414.54775,7830.78084 6428.40335,7822.86667 6418.50671,7814.9525 C6410.58921,7809.0169 6406.63052,7799.12443 6398.71301,7795.16742 C6392.77492,7791.21026 6384.85741,7801.10301 6376.93991,7799.12443 C6372.98122,7795.16742 6376.93991,7785.27467 6372.98122,7781.31765 C6363.08444,7773.40348 6365.06372,7809.0169 6333.39383,7799.12443 C6311.621,7791.21026 6297.7654,7769.44647 6275.99243,7763.51088 C6274.01301,7763.51088 6208.6941,7767.46789 6208.6941,7767.46789 C6200.7766,7763.51088 6200.7766,7749.66111 6192.85909,7745.7041 C6190.87968,7741.74694 6196.81778,7755.59671 6192.85909,7757.57528 C6188.90041,7759.55372 6180.9829,7757.57528 6179.00349,7753.61813 C6177.02422,7747.68254 6186.921,7739.76864 6182.96231,7735.81135 C6153.2717,7706.13352 6119.62267,7759.55372 6125.56077,7761.5323 C6137.43696,7763.51088 6149.31315,7759.55372 6161.1892,7761.5323 C6169.10671,7763.51088 6147.3336,7765.48931 6141.39564,7769.44647 C6137.43696,7771.42491 6143.37506,7781.31765 6141.39564,7783.29623 C6091.91147,7809.0169 6127.54018,7771.42491 6087.95279,7773.40348 C6082.01469,7773.40348 5990.96413,7795.16742 5985.02603,7783.29623 C5983.04662,7779.33908 5996.90209,7777.3605 5994.92267,7775.38206 C5977.10853,7761.5323 5969.19102,7820.88809 5969.19102,7751.63969 C5967.21175,7723.94016 5987.00517,7698.21935 5988.98458,7670.51997 C5988.98458,7666.56281 5981.06707,7666.56281 5981.06707,7660.62722 C5979.08794,7650.73461 5983.04662,7640.84214 5987.00517,7630.94939 L6014.71637,7585.44323 C6016.69578,7573.5719 6018.67506,7530.04431 6024.61315,7516.19469 C6040.44816,7484.53815 6080.03528,7460.79591 6101.80839,7423.20378 C6109.7259,7409.35402 5990.96413,7395.50425 5983.04662,7389.56866 C5977.10853,7383.63307 5981.06707,7371.76202 5975.12912,7365.82643 C5965.23234,7357.91226 5901.89256,7383.63307 5897.93401,7377.69761 C5895.9546,7371.76202 5903.87211,7363.84785 5899.91315,7359.89083 C5840.53233,7306.47064 5880.11973,7387.59036 5856.36721,7361.86941 C5836.57365,7342.08405 5826.67673,7296.57775 5810.842,7286.68528 C5804.9039,7280.74969 5793.02771,7286.68528 5789.06889,7280.74969 C5767.29592,7241.17897 5846.47043,7225.35077 5818.7595,7191.71579 C5814.80054,7185.7802 5767.29592,7181.82318 5757.399,7140.27417 C5739.58472,7067.06834 5830.63556,7071.0255 5802.92449,7025.51933 C5796.98639,7015.62672 5779.17211,7017.60516 5775.21342,7005.73397 C5773.23401,6997.81994 5789.06889,6989.90577 5787.08962,6981.9916 C5787.08962,6976.05601 5775.21342,6983.97018 5771.2546,6980.01302 C5769.27533,6978.03459 5741.56413,6936.48544 5743.54354,6930.54984 C5745.52281,6922.63581 5759.37841,6922.63581 5761.35782,6914.72164 C5767.29592,6881.08652 5709.89438,6869.21534 5727.70852,6865.25846 C5733.64662,6863.27974 5737.60558,6871.19391 5741.56413,6871.19391 L5779.17211,6837.55893 C5781.15152,6827.66632 5755.41973,6839.53751 5763.33723,6823.70931 C5769.27533,6809.85954 5783.13079,6799.96707 5789.06889,6786.11731 C5806.88304,6742.58958 5763.33723,6710.93304 5751.46091,6689.16911 C5749.48163,6685.21223 5753.44032,6679.27664 5755.41973,6675.31962 C5755.41973,6671.36247 5751.46091,6665.42688 5755.41973,6663.44844 C5765.31651,6657.51284 5777.1927,6663.44844 5789.06889,6659.49128 C5793.02771,6657.51284 5785.1102,6645.64166 5789.06889,6647.6201 C5800.94494,6651.57725 5808.86259,6665.42688 5822.71805,6665.42688 C5836.57365,6667.40545 5890.01651,6649.59867 5895.9546,6635.74891 C5901.89256,6621.89915 5858.34662,6619.92085 5876.16091,6608.04966 C5907.83066,6586.28573 5945.43864,6578.37156 5937.52113,6528.90824 C5935.54186,6501.20899 5862.30544,6513.08017 5880.11973,6483.40221 C5882.099,6477.46662 5891.99592,6483.40221 5891.99592,6479.44506 C5893.97505,6473.50946 5884.07841,6467.57387 5886.05782,6461.63828 C5886.05782,6457.68126 5891.99592,6457.68126 5895.9546,6457.68126 C5909.81007,6457.68126 5921.68626,6463.61685 5935.54186,6463.61685 C5951.37673,6463.61685 5937.52113,6431.96045 5943.45923,6416.13225 C5947.41805,6402.28249 5981.06707,6338.96954 5977.10853,6305.33456 C5983.04662,6303.35598 5988.98458,6299.39897 5994.92267,6291.4848 C6002.84018,6283.57063 5985.02603,6287.52764 5967.21175,6287.52764 L5967.21175,6287.52764 C5963.25292,6283.57063 5957.31483,6285.5492 5953.35615,6285.5492 C5949.39732,6285.5492 5947.41805,6283.57063 5945.43864,6281.59205 C5929.60376,6261.80697 5973.14984,6200.4726 5988.98458,6192.55843 C5998.88136,6186.62284 6010.75769,6198.49389 6020.65447,6198.49389 C6169.10671,6192.55843 5866.26413,6180.68725 6091.91147,6186.62284 C6093.89088,6186.62284 6099.82898,6188.60114 6101.80839,6190.57972 C6113.68458,6212.34365 6121.60209,6303.35598 6171.08626,6283.57063 C6186.921,6277.63504 6155.25111,6141.11654 6200.7766,6141.11654 C6204.73528,6141.11654 6204.73528,6152.98772 6210.67338,6154.9663 C6216.61147,6158.92331 6226.50839,6158.92331 6234.42562,6158.92331 C6254.21932,6162.88047 6275.99243,6143.09511 6293.80671,6151.00928 C6307.66231,6156.94488 6307.66231,6176.72996 6315.57968,6188.60114 C6325.4766,6204.42948 6378.91932,6305.33456 6378.91932,6238.06446 C6378.91932,6224.21484 6349.22884,6228.17185 6337.35279,6216.30067 C6317.55909,6198.49389 6321.51764,6152.98772 6283.90979,6147.05213 C6277.9717,6147.05213 6232.44649,6156.94488 6236.40517,6129.24535 C6238.38458,6111.43857 6266.09551,6056.0398 6248.28122,6034.27586 C6242.34313,6028.34027 6198.79719,6050.1042 6192.85909,6028.34027 C6190.87968,6024.38325 6204.73528,6028.34027 6206.71469,6024.38325 C6210.67338,6020.42638 6192.85909,6012.51221 6196.81778,6012.51221 C6216.61147,6006.57661 6250.26077,6026.36197 6256.19873,5986.79126 C6256.19873,5982.83424 6210.67338,5933.37106 6206.71469,5925.45689 C6200.7766,5911.60713 6198.79719,5895.77893 6198.79719,5881.92916 C6212.65279,5883.90774 6236.40517,5881.92916 6242.34313,5881.92916 C6268.07492,5885.88618 6293.80671,5899.73594 6319.5385,5903.6931 C6317.55909,5909.62869 6317.55909,5911.60713 6321.51764,5909.62869 C6329.43528,5903.6931 6333.39383,5893.80035 6341.31134,5891.82177 C6345.27002,5891.82177 6339.33192,5901.71452 6341.31134,5905.67153 C6347.24943,5909.62869 6355.16694,5907.65011 6361.10503,5909.62869 C6374.96063,5911.60713 6388.8161,5911.60713 6398.71301,5917.54272 C6404.65111,5921.49987 6406.63052,5929.41377 6406.63052,5935.34936 C6406.63052,5937.32794 6402.6717,5935.34936 6402.6717,5935.34936 C6398.71301,5937.32794 6390.79551,5941.28495 6394.75419,5943.26353 C6396.7336,5947.22055 6406.63052,5939.30651 6408.60966,5943.26353 C6414.54775,5953.15628 6412.56862,5965.02746 6408.60966,5974.92007 C6404.65111,5984.81268 6376.93991,5990.74827 6384.85741,6000.64102 C6394.75419,6014.49078 6432.36204,5978.87709 6434.34145,5996.68387 C6436.32086,6008.55519 6414.54775,6030.31885 6426.42394,6034.27586 C6440.27954,6040.21146 6440.27954,6006.57661 6454.13515,6004.59804 C6466.01134,6002.6196 6511.53683,6042.19003 6521.43347,6038.23302 C6523.41288,6038.23302 6563.00013,5992.72685 6576.85574,6016.46908 C6604.5668,6067.91098 6466.01134,6121.33118 6541.22716,6129.24535 C6557.06204,6131.22393 6568.93823,6111.43857 6584.77324,6111.43857 C6604.5668,6113.41729 6582.79383,6170.7945 6626.33977,6141.11654 C6636.23655,6135.18094 6642.17464,6085.71776 6659.98907,6075.82515 C6685.72058,6061.97539 6713.43179,6056.0398 6725.30798,6083.73918 C6723.32857,6077.80359 6721.34929,6067.91098 6723.32857,6065.9324 C6735.20476,6052.08278 6751.03977,6046.14705 6760.93641,6034.27586 C6772.8126,6020.42638 6774.79201,5998.66244 6786.6682,5984.81268 C6790.62689,5980.85567 6816.35868,5990.74827 6840.11092,5998.66244 C6850.00784,5996.68387 6859.90462,5994.70543 6863.86344,5994.70543 C6877.71891,5994.70543 6869.80154,6022.40468 6877.71891,6034.27586 C6883.657,6042.19003 6897.5126,6038.23302 6903.4507,6046.14705 C6915.32689,6056.0398 6921.26485,6083.73918 6939.07913,6081.76074 C6952.93473,6081.76074 6968.76975,6071.868 6984.60462,6075.82515 C6990.54272,6077.80359 6976.68712,6087.69634 6976.68712,6093.63193 C6978.66653,6109.45999 6984.60462,6125.28833 6990.54272,6141.11654 C6996.48081,6156.94488 7016.27437,6162.88047 7032.10925,6168.81606 C7043.98544,6172.77308 7051.90294,6174.75165 7057.84104,6172.77308 L7057.84104,6172.77308 Z M6877.71891,6020.42638 C6881.67773,6002.6196 6873.76022,5980.85567 6879.69832,5963.04889 C6885.63641,5945.24211 6945.01723,5996.68387 6933.14104,5978.87709 C6925.22381,5967.0059 6899.49201,5972.9415 6893.55392,5959.09187 C6891.57451,5947.22055 6909.38879,5937.32794 6917.3063,5927.43547 C6925.22381,5921.49987 6911.36821,5951.1777 6919.28571,5953.15628 C6933.14104,5957.11329 6946.99664,5951.1777 6958.87283,5955.13472 C6970.74902,5959.09187 6943.03795,5974.92007 6946.99664,5986.79126 C6950.95546,6000.64102 6968.76975,6002.6196 6974.70784,6016.46908 C6978.66653,6020.42638 6952.93473,6040.21146 6921.26485,6048.12563 C6905.43011,6054.06122 6891.57451,6030.31885 6877.71891,6020.42638 L6877.71891,6020.42638 Z" id="de" fill="#87B024"></path>
                        <path d="M6487.78417,7971.25649 C6485.80503,7979.17066 6487.78417,7989.06313 6483.82562,7996.9773 C6481.84621,8004.89147 6475.90812,8010.82706 6471.94943,8018.7411 C6471.94943,8022.69825 6509.55728,8050.39764 6485.80503,8058.31181 C6444.23823,8068.20428 6458.09383,8010.82706 6422.46526,8036.54801 C6394.75419,8056.33309 6430.38276,8078.09702 6434.34145,8087.98963 C6436.32086,8095.9038 6424.44481,8101.8394 6424.44481,8109.75357 C6426.42394,8117.6676 6434.34145,8121.62475 6438.30013,8127.56034 C6440.27954,8135.47451 6424.44481,8143.38841 6416.5273,8139.43153 C6402.6717,8131.51736 6410.58921,8099.86082 6394.75419,8097.88238 C6341.31134,8087.98963 6367.04313,8127.56034 6335.37324,8117.6676 C6283.90979,8105.79641 6315.57968,8066.22598 6289.84789,8062.26868 C6256.19873,8056.33309 6277.9717,8109.75357 6277.9717,8113.71058 C6270.05433,8149.324 6222.54957,8161.19519 6222.54957,8204.72291 C6222.54957,8224.50827 6262.13682,8216.5941 6228.48766,8242.31491 C6216.61147,8252.20766 6212.65279,8218.57268 6204.73528,8208.68007 C6198.79719,8202.74448 6184.94158,8206.70149 6182.96231,8198.78732 C6180.9829,8190.87329 6194.8385,8184.9377 6196.81778,8177.02353 C6196.81778,8173.06637 6192.85909,8169.10936 6190.87968,8169.10936 C6169.10671,8161.19519 6137.43696,8155.25959 6123.58136,8129.53892 C6121.60209,8121.62475 6127.54018,8113.71058 6127.54018,8107.77499 C6127.54018,8095.9038 6129.51945,8084.03262 6125.56077,8072.16157 C6123.58136,8070.18285 6119.62267,8074.13987 6115.66399,8076.11845 C6105.76707,8084.03262 6097.84957,8091.94679 6087.95279,8099.86082 C6078.05615,8107.77499 6062.22113,8111.732 6058.26245,8123.60319 C6056.28304,8131.51736 6074.09719,8135.47451 6072.11805,8145.36712 C6072.11805,8155.25959 6016.69578,8212.63708 6014.71637,8212.63708 C5996.90209,8212.63708 5983.04662,8188.89471 5965.23234,8192.85173 C5939.50054,8198.78732 5886.05782,8238.35803 5866.26413,8202.74448 C5858.34662,8190.87329 5858.34662,8177.02353 5848.44984,8167.13078 C5846.47043,8163.17376 5838.55292,8175.04495 5836.57365,8171.08793 C5834.59424,8165.15234 5844.49102,8155.25959 5840.53233,8149.324 C5838.55292,8143.38841 5826.67673,8149.324 5822.71805,8145.36712 C5810.842,8125.58177 5838.55292,8127.56034 5836.57365,8115.68916 C5834.59424,8105.79641 5822.71805,8101.8394 5822.71805,8091.94679 C5820.73864,8086.01119 5836.57365,8074.13987 5828.65614,8072.16157 C5802.92449,8060.29038 5747.50222,8060.29038 5729.68807,8087.98963 C5725.72939,8091.94679 5727.70852,8095.9038 5727.70852,8101.8394 C5729.68807,8105.79641 5739.58472,8109.75357 5737.60558,8113.71058 C5725.72939,8137.45295 5698.01819,8147.3457 5674.26581,8141.41011 C5672.28639,8141.41011 5682.18331,8137.45295 5682.18331,8133.49594 C5682.18331,8107.77499 5701.97687,8117.6676 5703.95628,8111.732 C5713.8532,8080.07574 5688.12141,8052.37621 5711.87379,8022.69825 C5725.72939,8002.91289 5761.35782,8002.91289 5769.27533,7981.14924 C5775.21342,7969.27777 5763.33723,7951.47113 5769.27533,7937.62151 C5777.1927,7921.79317 5804.9039,7927.72876 5816.78009,7913.879 C5830.63556,7902.00781 5846.47043,7862.43738 5864.28472,7848.58762 C5874.18163,7840.67345 5884.07841,7862.43738 5886.05782,7834.73785 C5886.05782,7824.84524 5856.36721,7844.6306 5854.38794,7834.73785 C5850.42911,7824.84524 5866.26413,7816.93107 5872.20222,7809.0169 C5872.20222,7809.0169 5876.16091,7810.99548 5876.16091,7809.0169 C5876.16091,7805.06003 5868.24354,7797.14586 5872.20222,7795.16742 C5927.62435,7779.33908 5903.87211,7854.52321 5971.17043,7785.27467 C5973.14984,7785.27467 5977.10853,7781.31765 5979.08794,7777.3605 L5983.04662,7773.40348 C5987.00517,7771.42491 5990.96413,7771.42491 5994.92267,7775.38206 C5996.90209,7777.3605 5983.04662,7779.33908 5985.02603,7783.29623 C5990.96413,7795.16742 6082.01469,7773.40348 6087.95279,7773.40348 C6127.54018,7771.42491 6091.91147,7809.0169 6141.39564,7783.29623 C6143.37506,7781.31765 6137.43696,7771.42491 6141.39564,7769.44647 C6147.3336,7765.48931 6169.10671,7763.51088 6161.1892,7761.5323 C6149.31315,7759.55372 6137.43696,7763.51088 6125.56077,7761.5323 C6119.62267,7759.55372 6153.2717,7706.13352 6182.96231,7735.81135 C6186.921,7739.76864 6177.02422,7747.68254 6179.00349,7753.61813 C6180.9829,7757.57528 6188.90041,7759.55372 6192.85909,7757.57528 C6196.81778,7755.59671 6190.87968,7741.74694 6192.85909,7745.7041 C6200.7766,7749.66111 6200.7766,7763.51088 6208.6941,7767.46789 C6208.6941,7767.46789 6274.01301,7763.51088 6275.99243,7763.51088 C6295.78598,7767.46789 6309.64159,7787.25325 6327.45573,7797.14586 L6327.45573,7799.12443 C6327.45573,7812.9742 6353.18753,7816.93107 6345.27002,7836.71643 C6343.29075,7840.67345 6335.37324,7838.69501 6333.39383,7840.67345 C6327.45573,7850.56619 6307.66231,7921.79317 6311.621,7923.77175 C6315.57968,7925.75019 6380.89873,7931.68592 6382.878,7931.68592 C6386.83682,7935.64293 6376.93991,7941.57853 6380.89873,7945.53554 C6390.79551,7957.40673 6402.6717,7965.3209 6416.5273,7971.25649 C6448.19705,7987.08483 6454.13515,7933.66436 6475.90812,7937.62151 C6481.84621,7937.62151 6485.80503,7939.59995 6489.76372,7941.57853 L6487.78417,7959.3853 C6485.80503,7965.3209 6483.82562,7969.27777 6487.78417,7971.25649 L6487.78417,7971.25649 Z" id="ch" fill="#87B024"></path>
                        <path d="M6327.45573,7799.12443 C6327.45573,7812.9742 6353.18753,7816.93107 6345.27002,7836.71643 C6343.29075,7840.67345 6335.37324,7838.69501 6333.39383,7840.67345 C6331.41469,7846.60904 6325.4766,7862.43738 6319.5385,7880.24416 L6329.43528,7902.00781 L6329.43528,7925.75019 C6349.22884,7927.72876 6380.89873,7931.68592 6382.878,7931.68592 C6386.83682,7935.64293 6376.93991,7941.57853 6380.89873,7945.53554 C6390.79551,7957.40673 6402.6717,7965.3209 6416.5273,7971.25649 C6448.19705,7987.08483 6454.13515,7933.66436 6475.90812,7937.62151 C6517.47478,7943.5571 6473.92884,7965.3209 6487.78417,7971.25649 C6519.45406,7987.08483 6491.74313,7967.29947 6523.41288,7971.25649 C6539.24775,7973.23507 6555.08277,8014.78408 6586.75238,7996.9773 L6612.48417,7943.5571 C6628.31918,7931.68592 6697.59678,7939.59995 6715.4112,7937.62151 C6745.10168,7935.64293 6768.85392,7909.92198 6798.5444,7909.92198 C6806.4619,7909.92198 6784.68879,7919.81459 6782.70952,7927.72876 C6772.8126,7969.27777 6798.5444,7941.57853 6814.37941,7965.3209 C6818.33809,7971.25649 6808.44131,7979.17066 6812.4,7987.08483 C6814.37941,7991.04171 6820.3175,7983.12754 6824.27619,7987.08483 C6861.88403,8014.78408 6871.78081,8018.7411 6923.2444,8026.65527 C6982.62521,8034.56944 7043.98544,8036.54801 7105.34594,8046.44062 C7121.18068,8048.4192 7137.01555,8060.29038 7152.85056,8062.26868 C7168.68544,8064.24726 7184.52045,8052.37621 7200.35519,8054.35479 C7210.2521,8056.33309 7216.1902,8070.18285 7226.08698,8070.18285 C7230.04566,8072.16157 7228.06639,8060.29038 7232.02507,8058.31181 C7241.92185,8048.4192 7257.75687,8044.46204 7267.65351,8032.59086 C7275.57101,8026.65527 7269.63306,8012.8055 7275.57101,8006.86991 C7313.179,7977.19194 7352.76639,8014.78408 7388.39482,7998.95588 C7400.27102,7993.02042 7402.25043,7975.21337 7414.12662,7971.25649 C7416.10589,7969.27777 7481.42494,7979.17066 7483.40421,7977.19194 C7489.34231,7975.21337 7477.46612,7967.29947 7475.48684,7961.36388 C7471.52802,7941.57853 7479.44553,7929.70734 7493.30113,7925.75019 L7493.30113,7925.75019 C7528.92956,7886.17975 7544.76471,7880.24416 7562.57886,7850.56619 C7566.53754,7842.65202 7530.90911,7801.10301 7540.80575,7781.31765 C7554.66135,7753.61813 7588.31051,7783.29623 7584.35183,7743.72552 C7582.37242,7710.09054 7522.9916,7714.04769 7534.86766,7704.15495 C7562.57886,7680.41257 7633.83587,7712.06912 7645.71206,7690.30532 C7647.69147,7682.39115 7619.98026,7619.07821 7647.69147,7607.20702 C7623.93909,7581.48607 7604.14553,7555.76512 7586.33124,7526.0873 C7570.49623,7500.36635 7627.89777,7458.81734 7586.33124,7429.13937 C7580.39315,7425.18222 7572.47564,7437.05354 7566.53754,7437.05354 C7556.64077,7435.07496 7536.84707,7409.35402 7522.9916,7413.31103 C7513.09483,7417.26819 7509.136,7433.09639 7497.25981,7439.03198 C7489.34231,7441.01056 7479.44553,7437.05354 7471.52802,7437.05354 C7418.0853,7431.11781 7372.55981,7387.59036 7315.15841,7387.59036 C7305.26149,7387.59036 7297.34412,7399.46141 7287.4472,7399.46141 C7283.48852,7397.48283 7287.4472,7387.59036 7283.48852,7385.61178 C7275.57101,7381.65449 7263.69496,7377.69761 7257.75687,7383.63307 C7255.77746,7387.59036 7259.73628,7444.96757 7255.77746,7448.92473 C7251.81877,7454.86032 7237.96317,7441.01056 7230.04566,7446.94615 L7214.21079,7498.38791 C7200.35519,7502.34493 7186.49959,7484.53815 7172.64426,7484.53815 C7164.72675,7484.53815 7166.70616,7500.36635 7158.78866,7502.34493 C7117.22199,7518.17313 7093.46947,7476.62398 7061.79986,7460.79591 L7059.82045,7460.79591 C7061.79986,7466.73151 7063.77913,7472.6671 7063.77913,7478.60255 C7061.79986,7532.02289 7049.92367,7520.1517 7008.35686,7510.2591 C7004.39832,7510.2591 7000.43963,7512.23753 6998.46022,7516.19469 C6994.5014,7535.98004 7006.37773,7557.7437 6986.58403,7573.5719 C6968.76975,7587.42167 6885.63641,7607.20702 6883.657,7638.86356 C6883.657,7638.86356 6931.1619,7704.15495 6931.1619,7706.13352 C6933.14104,7708.1121 6905.43011,7731.85433 6915.32689,7739.76864 C6937.1,7759.55372 6958.87283,7729.87576 6941.05854,7795.16742 C6941.05854,7799.12443 6937.1,7805.06003 6933.14104,7805.06003 C6869.80154,7787.25325 6919.28571,7755.59671 6889.5951,7753.61813 C6873.76022,7753.61813 6859.90462,7767.46789 6844.06988,7765.48931 C6836.15238,7763.51088 6838.13179,7749.66111 6832.19369,7747.68254 C6820.3175,7743.72552 6808.44131,7753.61813 6798.5444,7749.66111 C6794.58571,7747.68254 6802.50322,7735.81135 6798.5444,7735.81135 C6774.79201,7737.78993 6796.56498,7769.44647 6790.62689,7771.42491 C6762.91582,7779.33908 6717.39047,7767.46789 6691.65868,7777.3605 C6683.74131,7781.31765 6687.7,7795.16742 6679.78249,7799.12443 C6671.86526,7805.06003 6661.96834,7795.16742 6654.05097,7801.10301 C6648.11274,7803.08131 6656.03025,7812.9742 6652.07156,7816.93107 C6650.09215,7818.90979 6582.79383,7836.71643 6574.87619,7832.75941 C6570.91764,7828.80226 6574.87619,7818.90979 6570.91764,7814.9525 C6568.93823,7810.99548 6559.04145,7810.99548 6557.06204,7807.0386 C6555.08277,7803.08131 6566.95896,7805.06003 6564.97954,7801.10301 C6557.06204,7775.38206 6501.63977,7807.0386 6485.80503,7789.23182 C6485.80503,7789.23182 6489.76372,7787.25325 6489.76372,7785.27467 C6477.88753,7777.3605 6489.76372,7810.99548 6485.80503,7824.84524 C6485.80503,7832.75941 6448.19705,7878.26558 6434.34145,7864.41582 C6426.42394,7856.50179 6448.19705,7844.6306 6442.25895,7836.71643 C6440.27954,7834.73785 6434.34145,7842.65202 6430.38276,7842.65202 C6426.42394,7842.65202 6420.48585,7840.67345 6418.50671,7836.71643 C6414.54775,7830.78084 6428.40335,7822.86667 6418.50671,7814.9525 C6410.58921,7809.0169 6406.63052,7799.12443 6398.71301,7795.16742 C6392.77492,7791.21026 6384.85741,7801.10301 6376.93991,7799.12443 C6372.98122,7795.16742 6376.93991,7785.27467 6372.98122,7781.31765 C6363.08444,7773.40348 6365.06372,7809.0169 6333.39383,7799.12443 C6331.41469,7797.14586 6329.43528,7797.14586 6327.45573,7797.14586 L6327.45573,7799.12443 L6327.45573,7799.12443 Z" id="at" fill="#87B024"></path>
                        <path d="M7522.9916,7921.79317 L7522.9916,7921.79317 L7522.9916,7921.79317 L7522.9916,7921.79317 C7530.90911,7921.79317 7546.74385,7983.12754 7588.31051,8016.76266 C7641.75337,8060.29038 7687.27859,8084.03262 7728.84539,8137.45295 C7734.78349,8145.36712 7774.3706,8139.43153 7778.32956,8141.41011 C7794.1643,8147.3457 7806.04049,8161.19519 7819.89609,8167.13078 C7847.6073,8179.0021 7934.69918,8177.02353 7960.43083,8155.25959 C7964.38979,8151.30272 7966.36893,8123.60319 7980.22453,8123.60319 C8017.83251,8117.6676 8011.89441,8125.58177 8045.54371,8087.98963 C8051.48181,8082.05404 8059.39904,8101.8394 8077.21332,8087.98963 C8095.02775,8074.13987 8106.90394,8050.39764 8128.67677,8038.52645 C8174.20226,8008.84849 8136.59428,8038.52645 8170.24344,8040.50503 C8172.22285,8040.50503 8223.6863,8024.67669 8225.66557,8024.67669 C8235.56249,8024.67669 8245.45927,8034.56944 8255.35618,8034.56944 C8259.31487,8032.59086 8261.29428,8024.67669 8265.25296,8022.69825 C8277.12915,8018.7411 8336.51011,8012.8055 8340.46879,7998.95588 C8344.42747,7991.04171 8314.737,7981.14924 8350.36557,7975.21337 C8364.22117,7973.23507 8378.07677,7987.08483 8389.95282,7983.12754 C8427.56081,7969.27777 8415.68462,7898.0508 8425.5814,7876.287 C8429.54008,7870.35141 8439.437,7870.35141 8443.39568,7864.41582 L8465.16879,7795.16742 C8469.12734,7785.27467 8475.06543,7777.3605 8475.06543,7767.46789 C8475.06543,7763.51088 8465.16879,7763.51088 8465.16879,7759.55372 C8467.14793,7741.74694 8488.92103,7686.34817 8498.81781,7670.51997 C8502.77664,7666.56281 8512.67341,7670.51997 8512.67341,7664.58437 C8522.57019,7626.99238 8508.71473,7599.29285 8552.26081,7557.7437 C8566.11613,7541.91564 8581.95115,7551.80825 8603.72412,7543.89408 C8625.49722,7534.00147 8627.47636,7504.3235 8643.31137,7488.49516 C8619.55913,7468.70981 8651.22902,7472.6671 8625.49722,7454.86032 C8621.5384,7452.88174 8615.60031,7448.92473 8609.66221,7448.92473 C8601.74484,7450.90317 8595.80675,7460.79591 8587.88924,7458.81734 C8576.01305,7450.90317 8574.03364,7431.11781 8562.15745,7423.20378 C8556.21935,7419.24662 8548.30185,7429.13937 8542.36389,7427.16079 C8510.694,7415.28961 8540.38462,7393.52595 8494.85913,7391.54724 C8494.85913,7407.37544 8465.16879,7407.37544 8449.33378,7411.33259 C8441.41641,7413.31103 8433.4989,7423.20378 8427.56081,7419.24662 C8389.95282,7407.37544 8419.6433,7369.7833 8370.15927,7367.805 C8350.36557,7367.805 8338.48938,7395.50425 8318.69568,7397.48283 C8285.04666,7403.41842 8241.50058,7367.805 8211.81024,7405.397 C8199.93405,7421.2252 8207.85128,7474.6454 8186.07845,7484.53815 C8178.16094,7486.51672 8166.28475,7478.60255 8158.36725,7482.55957 C8126.69736,7502.34493 8172.22285,7516.19469 8122.73881,7524.10872 C8106.90394,7526.0873 8071.27523,7482.55957 8055.44035,7510.2591 C8049.50226,7520.1517 8059.39904,7537.95848 8051.48181,7545.87265 C8029.7087,7567.63631 7968.34834,7553.78682 7940.63741,7573.5719 C7914.90562,7589.40024 7942.61668,7617.09963 7950.53419,7628.97068 C7958.4517,7642.82044 7790.20562,7672.4984 7766.45337,7668.54139 C7728.84539,7660.62722 7701.13419,7609.1856 7665.50575,7605.22844 C7657.58825,7603.25 7651.65015,7605.22844 7647.69147,7607.20702 L7647.69147,7607.20702 C7619.98026,7619.07821 7647.69147,7682.39115 7645.71206,7690.30532 C7633.83587,7712.06912 7562.57886,7680.41257 7534.86766,7704.15495 C7522.9916,7714.04769 7582.37242,7710.09054 7584.35183,7743.72552 C7588.31051,7783.29623 7554.66135,7753.61813 7540.80575,7781.31765 C7530.90911,7801.10301 7566.53754,7842.65202 7562.57886,7850.56619 C7544.76471,7880.24416 7528.92956,7886.17975 7493.30113,7925.75019 L7493.30113,7925.75019 C7493.30113,7925.75019 7493.30113,7925.75019 7491.32172,7927.72876 C7495.28054,7925.75019 7497.25981,7923.77175 7501.21863,7923.77175 L7522.9916,7921.79317 L7522.9916,7921.79317 Z" id="hu" fill="#87B024"></path>
                        <path d="M8083.15142,8780.47501 C8055.44035,8812.13156 8059.39904,8857.63772 8051.48181,8867.53033 C8035.64666,8887.31569 8029.7087,8857.63772 8023.7706,8887.31569 C8013.87383,8944.69304 8074.75964,8946.67146 8031.27271,8989.03743 L8031.27271,8999.09127 L8041.58475,9019.87731 C8017.83251,8962.49982 7978.24512,8982.28517 7928.76108,8946.67148 C7916.88489,8936.77887 7912.92621,8918.97223 7899.0706,8915.01494 C7889.17382,8911.05806 7877.29777,8922.92911 7865.42158,8922.92911 C7859.48349,8922.92911 7845.62788,8920.9508 7847.6073,8915.01494 C7851.56598,8907.10104 7869.38013,8909.07934 7871.35968,8899.18687 C7881.25632,8873.46592 7796.14371,8839.83108 7788.2262,8825.98132 C7780.3087,8814.11013 7786.24679,8796.30335 7778.32956,8784.43217 C7772.39147,8776.518 7758.53587,8778.49657 7748.63909,8774.53942 C7707.07228,8748.81847 7681.34063,8701.33387 7645.71206,8671.6559 C7633.83587,8663.74173 7588.31051,8618.23557 7574.45505,8612.29997 C7568.51696,8610.32153 7560.59945,8618.23557 7554.66135,8614.27855 C7544.76471,8604.38594 7568.51696,8582.62201 7568.51696,8578.66513 C7566.53754,8570.75096 7556.64077,8568.77225 7550.70267,8562.83679 C7534.86766,8539.09442 7528.92956,8507.43788 7507.15673,8487.6528 C7499.23922,8477.76005 7483.40421,8477.76005 7473.50743,8469.84588 C7465.58993,8463.91029 7451.7346,8349.15558 7495.28054,8351.13416 C7515.0741,8351.13416 7548.72326,8394.66189 7566.53754,8404.5545 L7582.37242,8402.57578 L7566.53754,8404.5545 C7590.28993,8402.57578 7586.33124,8364.98379 7598.20743,8349.15558 C7619.98026,8323.43464 7629.87718,8355.09118 7657.58825,8349.15558 C7665.50575,8347.17701 7665.50575,8331.3488 7673.42326,8325.41335 C7673.42326,8325.41335 7685.29945,8337.2844 7718.94847,8347.17701 C7722.9073,8349.15558 7728.84539,8351.13416 7734.78349,8349.15558 C7738.74217,8349.15558 7740.72158,8341.24141 7746.65968,8339.26297 C7770.41206,8337.2844 7823.85478,8366.96236 7849.58657,8363.00535 C7855.52466,8363.00535 7861.46262,8359.04819 7863.44217,8353.1126 C7869.38013,8349.15558 7867.40072,8335.30582 7875.31822,8335.30582 C7887.19441,8333.32752 7895.11192,8345.19857 7906.98811,8349.15558 C7928.76108,8355.09118 7903.02943,8339.26297 7914.90562,8335.30582 C7926.78181,8331.3488 7940.63741,8331.3488 7952.5136,8335.30582 C7960.43083,8337.2844 7966.36893,8349.15558 7974.28643,8349.15558 C7980.22453,8349.15558 7974.28643,8335.30582 7980.22453,8335.30582 C8025.75002,8337.2844 8013.87383,8386.74772 8035.64666,8390.70473 C8073.25464,8394.66189 8093.04834,8366.96236 8128.67677,8368.94094 C8128.67677,8430.27531 8093.04834,8471.82446 8098.98643,8509.41645 C8106.90394,8552.94418 8118.78013,8521.28764 8146.49106,8533.15883 C8164.30534,8541.073 8168.26416,8566.79394 8186.07845,8576.68642 C8192.01655,8578.66513 8211.81024,8572.72954 8205.87215,8590.53618 C8193.99596,8630.10689 8144.51178,8586.5793 8134.61487,8600.42879 C8134.61487,8600.42879 8223.6863,8683.52709 8199.93405,8709.24804 C8192.01655,8715.18363 8182.11963,8695.39827 8172.22285,8699.35529 C8160.34666,8703.31244 8158.36725,8719.14065 8150.44988,8729.03339 C8136.59428,8732.99041 8098.98643,8725.07624 8097.00702,8734.96899 C8091.06893,8762.66824 8140.55296,8764.64681 8124.71822,8806.19596 L8116.80072,8806.19596 L8124.71822,8806.19596 C8104.92453,8792.3462 8104.92453,8778.49657 8083.15142,8780.47501 Z" id="ba" fill="#87B024"></path>
                        <path d="M7588.31051,8016.76266 C7574.45505,8014.78408 7540.80575,8006.86991 7532.88825,8008.84849 C7511.11541,8012.8055 7540.80575,8040.50503 7528.92956,8048.4192 C7519.03292,8052.37621 7507.15673,8046.44062 7497.25981,8050.39764 C7493.30113,8052.37621 7499.23922,8060.29038 7495.28054,8064.24726 C7475.48684,8080.07574 7443.81709,8082.05404 7424.0234,8099.86082 C7400.27102,8121.62475 7467.56934,8177.02353 7437.879,8198.78732 C7368.60113,8248.2505 7412.14721,8165.15234 7366.62172,8230.44386 C7360.68362,8238.35803 7384.436,8240.33661 7388.39482,8250.22908 C7392.35351,8258.14325 7368.60113,8256.16467 7368.60113,8264.07884 C7368.60113,8268.03586 7388.39482,8293.75681 7380.47732,8303.64942 C7358.70449,8325.41335 7327.0346,8291.77823 7307.2409,8291.77823 C7277.55056,8291.77823 7334.95197,8319.47776 7285.46779,8305.62799 C7271.61247,8301.67098 7253.79818,8279.90705 7247.86009,8268.03586 C7243.90126,8264.07884 7239.94258,8252.20766 7237.96317,8256.16467 C7230.04566,8268.03586 7232.02507,8281.88562 7224.10757,8291.77823 C7198.37605,8325.41335 7162.74734,8291.77823 7133.05687,8301.67098 C7129.09818,8303.64942 7137.01555,8311.56359 7133.05687,8315.52047 C7115.24258,8325.41335 7079.61415,8323.43464 7061.79986,8315.52047 C7061.79986,8315.52047 7061.79986,8313.54216 7063.77913,8313.54216 C7073.67605,8303.64942 7085.55224,8293.75681 7089.51093,8283.8642 C7158.78866,8287.82122 7079.61415,8240.33661 7059.82045,8228.46542 C7045.96485,8220.55125 7067.73796,8194.83031 7063.77913,8184.9377 C7059.82045,8175.04495 7028.15056,8202.74448 7036.06807,8177.02353 C7042.00616,8159.21689 7079.61415,8143.38841 7065.75854,8131.51736 C7055.86177,8123.60319 7010.33641,8127.56034 7014.29496,8103.81797 C7018.25392,8072.16157 7067.73796,8080.07574 7071.69664,8040.50503 L7067.73796,8040.50503 C7079.61415,8042.4836 7091.49034,8044.46204 7105.34594,8046.44062 C7121.18068,8048.4192 7137.01555,8060.29038 7152.85056,8062.26868 C7168.68544,8064.24726 7184.52045,8052.37621 7200.35519,8054.35479 C7210.2521,8056.33309 7216.1902,8070.18285 7226.08698,8070.18285 C7230.04566,8072.16157 7228.06639,8060.29038 7232.02507,8058.31181 C7241.92185,8048.4192 7257.75687,8044.46204 7267.65351,8032.59086 C7275.57101,8026.65527 7269.63306,8012.8055 7275.57101,8006.86991 C7313.179,7977.19194 7352.76639,8014.78408 7388.39482,7998.95588 C7400.27102,7993.02042 7402.25043,7975.21337 7414.12662,7971.25649 C7416.10589,7969.27777 7481.42494,7979.17066 7483.40421,7977.19194 C7489.34231,7975.21337 7477.46612,7967.29947 7475.48684,7961.36388 C7469.54875,7929.70734 7493.30113,7921.79317 7522.9916,7921.79317 C7530.90911,7921.79317 7546.74385,7983.12754 7588.31051,8016.76266 L7588.31051,8016.76266 Z" id="si" fill="#FFFFFF"></path>
                        <path d="M8033.66725,9006.02754 C8009.915,8966.45683 7972.30702,8980.3066 7928.76108,8946.67148 C7916.88489,8936.77887 7912.92621,8918.97223 7899.0706,8915.01494 C7891.15324,8911.05806 7881.25632,8918.97223 7871.35968,8920.9508 C7875.31822,8922.92911 7877.29777,8922.92911 7881.25632,8924.90782 C7885.215,8926.8864 7889.17382,8938.75745 7885.215,8938.75745 C7853.54539,8936.77887 7829.79287,8907.10104 7798.12326,8903.14389 C7784.26766,8901.16545 7768.43265,8905.12247 7754.57718,8903.14389 C7750.61836,8903.14389 7746.65968,8893.25128 7744.68027,8895.22986 C7740.72158,8897.2083 7740.72158,8907.10104 7744.68027,8909.07934 C7756.55646,8913.03664 7770.41206,8907.10104 7784.26766,8909.07934 C7796.14371,8911.05806 7809.99931,8915.01494 7823.85478,8922.92911 C7827.8136,8924.90782 7825.83419,8932.82199 7829.79287,8934.80029 C7897.09133,8970.41399 7883.23573,8913.03664 7988.14203,8996.13466 C8001.99764,9006.02754 8019.81192,9015.92002 8037.62621,9019.87731 L8033.66725,9006.02754 Z M8071.27523,8384.76914 C8053.46094,8364.98379 8083.15142,8374.87653 8091.06893,8361.02677 C8093.04834,8359.04819 8093.04834,8355.09118 8091.06893,8353.1126 C8065.33713,8327.39193 8083.15142,8317.49918 8085.13083,8291.77823 C8087.11024,8281.88562 8136.59428,8321.45606 8130.65632,8281.88562 C8102.94512,8281.88562 8071.27523,8273.97145 8047.52285,8258.14325 C8037.62621,8250.22908 8055.44035,8246.2722 8055.44035,8244.29349 C8055.44035,8238.35803 8035.64666,8234.40102 8047.52285,8222.52956 C8049.50226,8220.55125 8063.35786,8232.42244 8065.33713,8220.55125 C8067.31654,8198.78732 8025.75002,8224.50827 8025.75002,8204.72291 C8029.7087,8159.21689 8037.62621,8171.08793 8003.97691,8123.60319 L8001.99764,8119.64617 C7996.05954,8121.62475 7990.12144,8121.62475 7980.22453,8123.60319 C7966.36893,8123.60319 7964.38979,8151.30272 7960.43083,8155.25959 C7934.69918,8177.02353 7847.6073,8179.0021 7819.89609,8167.13078 C7806.04049,8161.19519 7794.1643,8147.3457 7778.32956,8141.41011 C7774.3706,8139.43153 7734.78349,8145.36712 7728.84539,8137.45295 C7687.27859,8084.03262 7641.75337,8060.29038 7588.31051,8016.76266 C7574.45505,8014.78408 7540.80575,8006.86991 7532.88825,8008.84849 C7511.11541,8012.8055 7540.80575,8040.50503 7528.92956,8048.4192 C7519.03292,8052.37621 7507.15673,8046.44062 7497.25981,8050.39764 C7493.30113,8052.37621 7499.23922,8060.29038 7495.28054,8064.24726 C7475.48684,8080.07574 7443.81709,8082.05404 7424.0234,8099.86082 C7400.27102,8121.62475 7467.56934,8177.02353 7437.879,8198.78732 C7368.60113,8248.2505 7412.14721,8165.15234 7366.62172,8230.44386 C7360.68362,8238.35803 7384.436,8240.33661 7388.39482,8250.22908 C7392.35351,8258.14325 7368.60113,8256.16467 7368.60113,8264.07884 C7368.60113,8268.03586 7388.39482,8293.75681 7380.47732,8303.64942 C7358.70449,8325.41335 7327.0346,8291.77823 7307.2409,8291.77823 C7277.55056,8291.77823 7334.95197,8319.47776 7285.46779,8305.62799 C7271.61247,8301.67098 7253.79818,8279.90705 7247.86009,8268.03586 C7243.90126,8264.07884 7239.94258,8252.20766 7237.96317,8256.16467 C7230.04566,8268.03586 7232.02507,8281.88562 7224.10757,8291.77823 C7198.37605,8325.41335 7162.74734,8291.77823 7133.05687,8301.67098 C7129.09818,8303.64942 7137.01555,8311.56359 7133.05687,8315.52047 C7115.24258,8325.41335 7079.61415,8323.43464 7061.79986,8315.52047 C7055.86177,8315.52047 7043.98544,8309.58487 7043.98544,8315.52047 C7045.96485,8331.3488 7059.82045,8343.21999 7065.75854,8357.06975 C7065.75854,8359.04819 7061.79986,8359.04819 7061.79986,8361.02677 C7063.77913,8376.85511 7059.82045,8392.68331 7067.73796,8404.5545 C7067.73796,8404.5545 7069.71723,8404.5545 7069.71723,8406.53307 C7061.79986,8418.40412 7093.46947,8432.25388 7103.36653,8446.10351 C7111.28403,8457.9747 7117.22199,8509.41645 7127.11877,8497.54527 C7137.01555,8485.67422 7142.95365,8469.84588 7150.87115,8455.99626 C7152.85056,8450.06066 7154.82997,8444.12507 7154.82997,8438.18948 C7154.82997,8436.2109 7148.89188,8438.18948 7148.89188,8434.23232 C7148.89188,8432.25388 7148.89188,8424.33971 7150.87115,8426.31843 C7158.78866,8428.29673 7152.85056,8473.80304 7174.62339,8438.18948 C7178.58235,8428.29673 7178.58235,8418.40412 7178.58235,8406.53307 C7178.58235,8404.5545 7174.62339,8402.57578 7174.62339,8398.6189 C7174.62339,8396.64033 7176.60294,8404.5545 7178.58235,8402.57578 C7194.41709,8394.66189 7180.56149,8341.24141 7198.37605,8341.24141 C7255.77746,8337.2844 7235.98376,8359.04819 7271.61247,8388.7263 C7279.5297,8394.66189 7291.40589,8388.7263 7297.34412,8394.66189 C7332.97269,8436.2109 7291.40589,8487.6528 7330.99328,8531.18039 C7342.86947,8545.03001 7376.51863,8574.70811 7390.3741,8584.60059 C7406.20911,8592.51489 7455.69315,8600.42879 7439.85813,8606.36438 C7412.14721,8614.27855 7360.68362,8556.9012 7368.60113,8632.08533 C7370.58054,8655.82756 7461.63124,8707.26946 7475.48684,8725.07624 C7479.44553,8727.05482 7459.65183,8719.14065 7463.61065,8721.11922 C7475.48684,8729.03339 7526.95015,8744.86159 7528.92956,8750.79705 C7532.88825,8764.64681 7521.01206,8786.41061 7530.90911,8798.28179 C7536.84707,8802.23895 7598.20743,8780.47501 7600.18684,8778.49657 C7639.77396,8770.5824 7612.06303,8786.41061 7661.54707,8804.21739 C7677.38194,8808.17454 7695.19609,8802.23895 7711.03124,8808.17454 C7732.80407,8816.08857 7746.65968,8851.70213 7770.41206,8863.57331 C7798.12326,8875.4445 7815.93741,8883.35867 7823.85478,8891.2727 C7823.85478,8893.25128 7825.83419,8891.2727 7825.83419,8891.2727 C7829.79287,8891.2727 7833.75169,8887.31569 7835.73097,8891.2727 C7843.64847,8905.12247 7831.77228,8905.12247 7849.58657,8913.03664 C7855.52466,8907.10104 7869.38013,8907.10104 7871.35968,8899.18687 C7881.25632,8873.46592 7796.14371,8839.83108 7788.2262,8825.98132 C7780.3087,8814.11013 7786.24679,8796.30335 7778.32956,8784.43217 C7772.39147,8776.518 7758.53587,8778.49657 7748.63909,8774.53942 C7707.07228,8748.81847 7681.34063,8701.33387 7645.71206,8671.6559 C7633.83587,8663.74173 7588.31051,8618.23557 7574.45505,8612.29997 C7568.51696,8610.32153 7560.59945,8618.23557 7554.66135,8614.27855 C7544.76471,8604.38594 7568.51696,8582.62201 7568.51696,8578.66513 C7566.53754,8570.75096 7556.64077,8568.77225 7550.70267,8562.83679 C7534.86766,8539.09442 7528.92956,8507.43788 7507.15673,8487.6528 C7499.23922,8477.76005 7483.40421,8477.76005 7473.50743,8469.84588 C7465.58993,8463.91029 7451.7346,8349.15558 7495.28054,8351.13416 C7515.0741,8351.13416 7548.72326,8394.66189 7566.53754,8404.5545 L7582.37242,8402.57578 L7566.53754,8404.5545 C7590.28993,8402.57578 7586.33124,8364.98379 7598.20743,8349.15558 C7619.98026,8323.43464 7629.87718,8355.09118 7657.58825,8349.15558 C7665.50575,8347.17701 7665.50575,8331.3488 7673.42326,8325.41335 C7673.42326,8325.41335 7685.29945,8337.2844 7718.94847,8347.17701 C7722.9073,8349.15558 7728.84539,8351.13416 7734.78349,8349.15558 C7738.74217,8349.15558 7740.72158,8341.24141 7746.65968,8339.26297 C7770.41206,8337.2844 7823.85478,8366.96236 7849.58657,8363.00535 C7855.52466,8363.00535 7861.46262,8359.04819 7863.44217,8353.1126 C7869.38013,8349.15558 7867.40072,8335.30582 7875.31822,8335.30582 C7887.19441,8333.32752 7895.11192,8345.19857 7906.98811,8349.15558 C7928.76108,8355.09118 7903.02943,8339.26297 7914.90562,8335.30582 C7926.78181,8331.3488 7940.63741,8331.3488 7952.5136,8335.30582 C7960.43083,8337.2844 7966.36893,8349.15558 7974.28643,8349.15558 C7980.22453,8349.15558 7974.28643,8335.30582 7980.22453,8335.30582 C8025.75002,8337.2844 8013.87383,8386.74772 8035.64666,8390.70473 C8049.50226,8392.68331 8061.37845,8388.7263 8071.27523,8384.76914 L8071.27523,8384.76914 Z" id="hr" fill="#87B024"></path>
                        <path d="M8461.80966,8814.2594 C8466.37935,8799.24709 8455.29841,8803.85172 8459.25723,8775.04915 C8490.30824,8760.67105 8505.11681,8760.0385 8515.01373,8769.92475 C8541.44119,8791.68496 8551.06782,8802.16402 8561.54329,8817.93741 C8569.37516,8829.73005 8576.51276,8851.6029 8576.51276,8851.6029 C8625.99748,8885.21662 8584.20652,8878.16197 8596.08257,8870.25305 C8601.52582,8866.79288 8601.37086,8871.31909 8598.47867,8880.02389 C8595.58648,8888.72869 8646.17886,8883.17219 8640.67319,8896.4264 C8635.16738,8909.6806 8675.46563,8911.89028 8673.06844,8922.07804 C8672.46917,8924.62512 8677.1075,8932.33553 8667.37273,8937.19223 C8657.63795,8942.04894 8671.8717,8955.31722 8659.45964,8960.49877 C8647.04758,8965.68046 8627.48756,8996.23672 8665.09458,8990.30499 C8696.76447,8984.37312 8760.10424,8923.07768 8785.837,8946.80501 C8795.73392,8929.00955 8823.44402,8925.05516 8813.5471,8899.35064 C8811.5681,8891.44171 8805.63084,8887.48704 8799.69205,8883.53265 C8795.73392,8881.55518 8789.79513,8885.50985 8787.816,8881.55518 C8785.837,8871.66892 8787.816,8861.78252 8787.816,8851.89627 C8785.837,8840.03281 8771.9803,8828.16908 8777.91908,8818.28268 C8835.32007,8723.37394 8770.0013,8840.03281 8833.34094,8790.60097 C8839.27986,8784.66924 8880.84666,8711.51021 8868.97061,8699.64675 C8853.13491,8687.78302 8777.91908,8652.19224 8773.96095,8648.23785 C8750.20733,8628.46506 8712.60031,8545.41977 8726.45536,8515.76086 C8732.39414,8501.91993 8754.16711,8503.89713 8762.08338,8492.03381 C8768.02216,8478.19274 8760.10424,8460.39728 8766.04303,8446.5565 C8738.33141,8434.69276 8712.60031,8416.89744 8716.55844,8389.21587 C8718.53744,8371.42027 8783.85787,8369.44321 8764.06403,8359.55668 C8554.25087,8254.76154 8742.29106,8349.67042 8657.1768,8399.10212 C8643.32175,8408.98824 8635.40383,8373.3976 8621.54878,8367.46588 C8611.65186,8361.53401 8597.79667,8367.46588 8587.89976,8367.46588 C8576.0237,8367.46588 8564.14779,8373.3976 8552.27174,8369.44321 C8546.33295,8365.4884 8550.29108,8355.60215 8546.33295,8347.69308 C8536.43603,8327.9207 8451.32329,8359.55668 8498.82736,8325.94337 C8510.70493,8318.03417 8540.39416,8310.12497 8530.49725,8302.21605 C8520.60185,8296.28418 8500.80801,8302.21605 8496.84822,8290.35259 C8494.86923,8278.48886 8536.43603,8256.73887 8508.72428,8240.92088 C8471.11712,8219.1709 8395.90143,8229.05729 8370.16867,8183.58012 C8364.23155,8173.69358 8364.23155,8126.23921 8364.23155,8114.37576 L8364.23155,8110.42109 C8358.29276,8112.39828 8354.33463,8124.26201 8350.37484,8120.30735 C8336.51979,8112.39828 8334.54066,8090.64843 8322.66474,8080.76231 C8310.78869,8072.85311 8292.97385,8074.83017 8281.0978,8064.94391 C8269.22188,8059.01218 8263.2831,8045.17139 8255.36518,8035.285 C8245.46826,8035.285 8235.57134,8025.3986 8225.67442,8025.3986 C8223.69529,8025.3986 8172.23157,8041.21673 8170.25243,8041.21673 C8136.60355,8039.23953 8174.21222,8009.58048 8128.68563,8039.23953 C8106.91266,8051.10298 8095.03674,8074.83017 8077.2219,8088.6711 C8059.40872,8102.51202 8051.4908,8082.73923 8045.55202,8088.6711 C8019.82092,8118.33015 8017.84178,8120.30735 8002.00608,8120.30735 L8003.98521,8124.26201 C8037.63575,8171.71639 8029.71783,8159.85293 8025.75818,8205.32983 C8025.75818,8225.10262 8067.32499,8199.39796 8065.34585,8221.14823 C8063.36686,8233.01168 8049.51167,8221.14823 8047.53115,8223.12515 C8035.6551,8234.98902 8055.44893,8238.94355 8055.44893,8244.87528 C8055.44893,8246.85275 8037.63575,8250.80701 8047.53115,8258.71607 C8071.28464,8274.53419 8102.95453,8282.44339 8130.66476,8282.44339 C8136.60355,8321.98856 8087.11882,8282.44339 8085.13983,8292.32965 C8083.16069,8318.03417 8065.34585,8327.9207 8091.07861,8353.62481 C8093.05761,8355.60215 8093.05761,8359.55668 8091.07861,8361.53401 C8083.16069,8375.3748 8053.46994,8365.4884 8071.28464,8385.26133 C8091.07861,8379.32947 8106.91266,8367.46588 8128.68563,8369.44321 C8128.68563,8430.73837 8093.05761,8472.26102 8098.99487,8509.82899 C8106.91266,8553.32897 8118.78871,8521.69258 8146.50047,8533.55632 C8164.3153,8541.46538 8168.27344,8567.16976 8186.08827,8577.05616 C8192.0254,8579.03349 8211.81924,8573.10162 8205.88211,8590.89695 C8194.00454,8630.44253 8144.52133,8586.94269 8134.62441,8600.7832 C8134.62441,8600.7832 8223.69529,8683.82849 8199.94332,8709.53315 C8246.47979,8733.76092 8223.13925,8724.40796 8295.68801,8754.94751 C8320.33536,8762.87438 8297.33099,8804.9422 8319.14318,8813.59592 C8353.667,8827.29327 8354.33035,8843.23523 8377.91437,8855.67616 C8399.91025,8867.28007 8396.50228,8862.43432 8410.15013,8865.4635 C8441.82001,8865.4635 8457.23998,8829.27171 8461.80966,8814.2594 Z" id="sr" fill="#87B024"></path>
                    </g>
                </g>
            </g>
        </g>
    </g>
</svg>