<?xml version="1.0" encoding="UTF-8" standalone="no"?>
<svg width="160px" height="88px" viewBox="0 0 160 88" version="1.1" xmlns="http://www.w3.org/2000/svg" xmlns:xlink="http://www.w3.org/1999/xlink">
    <!-- Generator: Sketch 3.6 (26304) - http://www.bohemiancoding.com/sketch -->
    <title>sk</title>
    <desc>Created with Sketch.</desc>
    <defs></defs>
    <g id="Page-1" stroke="none" stroke-width="1" fill="none" fill-rule="evenodd">
        <g id="Group" transform="translate(-445.000000, -306.000000)" fill="#FFFFFF">
            <path d="M604.359117,316.920832 C604.689341,320.224387 602.377663,324.84937 602.047439,328.152903 C601.717193,330.465371 602.047439,332.777863 601.056723,334.759991 C600.066007,337.072483 597.093859,337.733185 596.763613,340.045676 C596.103167,342.358168 597.754329,344.670613 597.754329,347.313467 C597.754329,349.956297 592.800772,349.956297 590.158848,350.617022 C588.837909,350.947362 587.516946,352.599151 586.52623,351.938426 C580.251688,349.956297 585.205268,343.679548 576.949317,343.349232 C573.646923,343.349232 571.665491,347.974169 568.363097,348.304531 C562.749071,349.295596 555.483813,343.349232 550.530256,349.625958 C548.548824,352.268789 549.86974,361.188346 546.237146,362.840135 C544.916183,363.170498 542.934751,361.849071 541.613789,362.509773 C536.329963,365.813328 543.925467,368.12582 535.669516,369.447224 C533.027615,369.777586 527.083296,362.509773 524.441395,367.134755 C523.450679,368.786522 525.101864,371.759715 523.780948,373.081142 C520.148308,376.715014 509.910902,374.402569 505.287591,377.706079 C500.994481,380.348932 505.617815,384.973892 506.938777,386.955998 C508.259739,389.268489 480.189446,394.223811 476.226605,393.56311 C469.952063,392.241683 465.328707,383.652488 459.384434,382.991763 C458.063472,382.661424 457.072756,382.991763 456.412286,383.322126 C452.449423,379.027506 449.147051,374.732885 446.174904,369.777586 C444.193472,366.47403 449.147051,361.849071 448.816805,357.554473 C453.440138,338.063547 464.337991,354.250918 474.245173,342.027805 C474.905643,341.036741 473.914927,339.384974 474.575397,338.39391 C475.566113,337.072483 477.877791,337.733185 478.868484,336.411758 C478.868484,336.411758 481.510431,326.170774 481.510431,325.840435 C484.482556,320.55475 492.408284,316.260153 498.022333,313.617322 C498.682803,314.608386 500.994481,312.956597 501.985197,313.947661 C502.975913,314.938726 501.324704,317.251217 502.31542,318.242259 C507.599223,322.536879 511.892334,305.688783 515.194728,308.001275 C517.17616,309.322702 517.17616,312.295895 518.827345,313.947661 C519.157592,314.278024 520.478554,313.286959 520.808754,313.617322 C521.139,314.278024 519.818038,315.599451 520.478554,315.929767 C522.129716,316.260153 523.780948,314.608386 525.101864,315.269088 C527.413543,316.260153 525.432111,322.536879 525.432111,323.197581 C525.432111,324.84937 528.404258,322.206516 530.055467,321.876177 C531.376406,321.545814 532.697369,324.188645 534.018331,323.527943 C534.348531,323.197581 538.311441,312.956597 542.934751,311.965533 C544.255714,311.63517 545.576653,312.956597 546.897615,312.956597 C548.218578,312.626234 548.879024,310.644106 550.200009,310.974468 C552.841888,311.304831 554.493097,314.938726 557.134998,314.938726 C559.11643,314.938726 560.767639,312.956597 561.758355,311.304831 C562.088555,310.644106 560.107146,310.644106 560.107146,309.983404 C561.097862,305.358467 563.079317,309.983404 564.400233,309.322702 C565.390949,308.992339 565.390949,307.01021 566.381665,307.01021 C571.335268,305.688783 582.563367,306.019146 586.856454,309.322702 C587.847193,310.313766 587.516946,312.626234 588.837909,313.286959 C590.81934,314.608386 593.130973,314.608386 595.442651,315.269088 C598.414799,316.260153 601.386947,316.590515 604.359117,316.920832 L604.359117,316.920832 Z" id="sk"></path>
        </g>
    </g>
</svg>