<?xml version="1.0" encoding="UTF-8" standalone="no"?>
<svg width="1638px" height="780px" viewBox="0 0 1638 780" version="1.1" xmlns="http://www.w3.org/2000/svg" xmlns:xlink="http://www.w3.org/1999/xlink">
    <!-- Generator: Sketch 3.6 (26304) - http://www.bohemiancoding.com/sketch -->
    <title>sr</title>
    <desc>Created with Sketch.</desc>
    <defs>
        <rect id="path-1" x="0" y="0" width="1638" height="779.129616"></rect>
        <rect id="path-3" x="0" y="0" width="1638" height="779.129616"></rect>
    </defs>
    <g id="Page-1" stroke="none" stroke-width="1" fill="none" fill-rule="evenodd">
        <g id="sr">
            <g id="Page-1">
                <g id="Blank_political_map_Europe_in_2008_WF_(with_Kosovo)">
                    <g id="Group">
                        <g id="mask-2" fill="#FFFFFF">
                            <rect id="path-1" x="0" y="0" width="1638" height="779.129616"></rect>
                        </g>
                        <g id="maska"></g>
                        <g id="ocean-Clipped">
                            <mask id="mask-2" fill="white">
                                <use xlink:href="#path-1"></use>
                            </mask>
                            <g id="path-1"></g>
                            <rect id="ocean" fill="#2096BD" mask="url(#mask-2)" x="-6900.65408" y="-5590.4078" width="12040.6639" height="7707.69307"></rect>
                        </g>
                        <g id="outlines-Clipped">
                            <mask id="mask-4" fill="white">
                                <use xlink:href="#path-3"></use>
                            </mask>
                            <g id="path-1"></g>
                            <g id="outlines" mask="url(#mask-4)">
                                <g transform="translate(-995.437389, -483.735990)" id="Group">
                                    <g>
                                        <path d="M1254.7113,2033.30952 C1236.59978,2043.05437 1176.69272,2187.83432 1190.62447,2207.32402 C1196.19727,2215.67672 1224.06116,2215.67672 1215.70201,2221.24522 C1208.73599,2225.42157 1210.12921,2211.50037 1205.94964,2221.24522 C1205.94964,2224.02943 1203.16319,2226.81363 1204.55642,2230.98998 C1207.34286,2242.12698 1224.06116,2247.69548 1228.24073,2258.83229 C1229.63376,2261.61649 1224.06116,2260.22444 1221.27471,2263.00864 C1214.30879,2267.18499 1207.34286,2271.36134 1203.16319,2278.32199 C1198.98362,2285.28254 1197.59049,2293.63525 1196.19727,2300.5957 C1194.80405,2308.9484 1200.37684,2320.08541 1196.19727,2327.04596 C1193.41092,2331.22231 1189.23135,2313.12495 1162.76078,2314.5169 C1133.50367,2317.3013 1146.04249,2327.04596 1107.0332,2308.9484 C1090.31481,2301.98795 1086.13524,2271.36134 1068.02382,2260.22444 C1042.94628,2244.91108 1020.65529,2260.22444 992.791596,2249.08744 C988.612023,2247.69548 984.432449,2246.30333 980.252876,2243.51913 C974.680079,2239.34258 971.893729,2229.59793 964.927709,2226.81363 C959.354912,2222.63728 952.388989,2226.81363 945.423066,2224.02943 C917.559277,2214.28457 898.054634,2187.83432 867.404494,2179.48171 C854.865677,2176.69751 840.933831,2189.22647 828.395111,2183.65797 C825.608664,2182.26601 792.172175,2146.0709 793.565398,2140.5024 C793.565398,2134.9339 801.924545,2132.1497 801.924545,2127.97335 C803.317574,2123.79709 797.744972,2122.40485 797.744972,2118.22859 C797.744972,2112.66019 800.531322,2105.69954 804.710895,2100.13104 C808.890371,2094.56264 817.249518,2093.17049 822.822314,2087.60199 C829.788237,2082.03358 836.754258,2061.15173 842.326957,2068.11248 C845.113404,2072.28873 849.292978,2100.13104 861.831697,2098.73899 C909.20013,2091.77834 861.831697,2056.97547 921.73885,2059.75977 C937.064017,2059.75977 924.525102,2076.46508 932.884443,2080.64143 C938.457046,2083.42563 946.816192,2076.46508 953.782213,2079.24928 C957.961786,2080.64143 956.568563,2088.99413 959.354912,2090.38628 C967.714156,2095.95469 978.859652,2101.52319 988.612023,2101.52319 C990.005052,2101.52319 1024.83486,2084.81778 1024.83486,2084.81778 C1035.98046,2083.42563 1059.66457,2091.77834 1076.38296,2087.60199 C1111.21277,2080.64143 1109.81955,2066.72023 1127.93097,2056.97547 C1169.72661,2034.70167 1139.07647,2065.32808 1179.47898,2062.54398 C1207.34286,2061.15173 1187.83812,2045.83857 1198.98362,2034.70167 C1203.16319,2030.52522 1203.16319,2047.23072 1207.34286,2045.83857 C1232.4203,2040.27007 1232.4203,2017.99616 1254.7113,2033.30952 L1254.7113,2033.30952 L1254.7113,2033.30952 Z M335.205754,1519.61871 C339.385327,1539.10822 400.685703,1534.93187 392.326654,1565.55848 C390.933333,1573.91118 367.249117,1571.12698 370.035564,1580.87183 C372.821914,1590.61668 392.326654,1587.83228 399.29248,1596.18499 C402.07883,1598.96929 392.326654,1600.36134 392.326654,1604.53769 C400.685703,1654.6539 413.224423,1583.65593 416.010773,1650.47765 C417.403996,1674.14351 392.326654,1682.49621 385.360536,1701.98592 C378.394711,1720.08337 399.29248,1720.08337 402.07883,1735.39663 C402.07883,1740.96513 395.112906,1746.53363 395.112906,1753.49418 C390.933333,1799.43405 396.50613,1863.47137 370.035564,1909.41113 C368.64234,1912.19543 370.035564,1905.23478 367.249117,1903.84273 C347.744474,1896.88208 322.667131,1877.39257 298.982818,1878.78452 C294.803245,1878.78452 308.735188,1884.35312 308.735188,1888.52938 C307.341965,1894.09788 300.376041,1896.88208 298.982818,1903.84273 C290.623671,1935.86139 312.914761,1930.29298 273.905378,1948.39034 C219.570925,1973.44855 253.007609,1921.94018 226.536946,1910.80328 C219.570925,1908.01908 212.605002,1919.15598 204.245953,1919.15598 C198.673156,1919.15598 220.964149,1917.76383 222.357372,1910.80328 C222.357372,1901.05843 208.425429,1895.49012 205.639176,1887.13723 C197.28003,1859.29501 216.784576,1841.19746 220.964149,1817.53141 C222.357372,1807.78675 216.784576,1799.43405 219.570925,1789.68919 C220.964149,1781.33649 236.289316,1777.16014 233.502869,1768.80753 C232.109742,1761.84679 216.784576,1768.80753 212.605002,1763.23903 C208.425429,1756.27848 215.391352,1747.92568 215.391352,1740.96513 C215.391352,1739.57298 209.81875,1739.57298 211.211779,1738.18093 C213.998323,1734.00458 222.357372,1735.39663 225.143722,1729.82822 C230.716519,1715.90702 209.81875,1647.69325 201.459603,1637.9486 C184.741213,1619.85104 173.595716,1679.71201 177.77529,1610.10619 C179.168513,1600.36134 188.920786,1593.40079 190.31401,1583.65593 C191.707233,1578.08743 184.741213,1572.51913 188.920786,1568.34278 C190.31401,1566.95063 200.06638,1596.18499 225.143722,1596.18499 C246.041589,1597.57714 322.667131,1534.93187 335.205754,1519.61871 L335.205754,1519.61871 L335.205754,1519.61871 Z M909.20013,545.137415 C906.41378,572.979821 871.584068,567.411321 868.797523,589.685129 C866.011271,606.390533 898.054634,603.606235 905.020557,609.174735 C914.772927,617.52734 888.302264,628.664439 884.12269,641.193395 C878.549893,659.290949 900.840983,639.801246 903.627333,646.761896 C906.41378,653.722449 891.088613,671.820003 900.840983,677.388504 C914.772927,685.741206 970.500506,719.151918 921.73885,716.367717 C924.525102,709.407067 924.525102,703.838566 918.9525,696.878013 C892.481837,671.820003 893.87506,682.95681 878.549893,702.446514 C879.943117,701.054364 879.943117,699.662215 879.943117,699.662215 C879.943117,685.741206 853.472551,682.95681 840.933831,688.525311 C833.967811,692.701662 840.933831,708.014917 835.361034,713.583418 C829.788237,719.151918 820.035867,714.975567 811.676721,717.759769 C792.172175,726.112471 774.060658,748.386279 751.769568,752.562631 C744.803742,753.95478 737.837722,746.994324 732.265023,751.170675 C726.692226,752.562631 732.265023,760.915333 729.478576,766.483834 C728.085449,770.660185 723.905876,776.228685 721.119429,780.405037 C722.512652,779.012887 722.512652,777.620738 723.905876,777.620738 C730.871799,777.620738 725.299002,792.93409 730.871799,795.718292 C733.658149,797.110441 735.051372,787.36559 737.837722,790.149888 C740.624169,795.718292 746.196772,806.855293 740.624169,811.031547 C737.837722,812.4236 736.444596,815.207898 737.837722,817.9921 C739.230946,819.38425 742.017198,816.600145 744.803742,816.600145 C753.162792,823.560601 767.094735,827.736952 768.487861,837.481804 C776.847008,876.461017 743.410519,861.147664 733.658149,884.813719 C730.871799,891.774272 748.983316,966.948593 753.162792,975.301296 C761.521938,989.222401 859.045348,1058.82822 878.549893,1069.96513 C898.054634,1081.10213 903.627333,1074.14148 921.73885,1089.45483 C941.243493,1106.16023 967.714156,1216.13742 983.039226,1243.97963 C998.364393,1273.21418 1030.40766,1299.66425 1055.485,1319.15395 C1063.84415,1324.72245 1076.38296,1326.1145 1083.34889,1333.07515 C1087.52846,1335.85936 1083.34889,1344.21196 1086.13524,1346.99636 C1123.7514,1385.97557 1194.80405,1373.44652 1239.38613,1366.48587 C1249.1385,1365.09372 1270.03637,1349.78046 1282.57508,1363.70166 C1317.4048,1402.68097 1212.91556,1416.60208 1265.85679,1452.79709 C1316.01167,1486.2079 1385.67119,1483.4236 1437.2192,1509.87386 C1455.33072,1519.61871 1462.29664,1534.93187 1483.19441,1541.89252 C1499.9127,1548.85307 1545.88801,1555.81372 1559.81995,1566.95063 C1565.39265,1571.12698 1559.81995,1580.87183 1563.99952,1585.04818 C1580.71782,1608.71404 1625.2999,1604.53769 1639.23175,1653.26175 C1644.80454,1671.35931 1632.26582,1665.79081 1628.08625,1678.31986 C1625.2999,1685.28051 1629.47947,1713.12272 1623.90668,1715.90702 C1618.33388,1720.08337 1608.58151,1715.90702 1600.22236,1711.73077 C1557.0335,1695.02536 1575.14502,1669.96716 1552.85393,1640.7328 C1540.31521,1624.02739 1499.9127,1640.7328 1479.01484,1633.77224 C1451.15114,1624.02739 1435.82598,1592.00864 1409.35531,1619.85104 C1406.56906,1624.02739 1371.73925,1693.63321 1371.73925,1696.41742 C1371.73925,1700.59367 1378.70517,1704.77002 1377.31195,1710.33852 C1371.73925,1736.78878 1343.87546,1735.39663 1367.55968,1766.02314 C1381.49162,1782.72854 1385.67119,1767.41539 1400.99626,1771.59164 C1417.71446,1777.16014 1428.86005,1793.86554 1444.18512,1800.8261 C1449.75792,1803.6104 1458.11707,1800.8261 1460.90342,1806.3946 C1463.68986,1810.57095 1455.33072,1816.13945 1455.33072,1821.70776 C1456.72384,1860.68716 1474.83526,1824.49215 1472.04901,1874.60827 C1470.65569,1903.84273 1414.92811,1892.70573 1389.85077,1921.94018 C1371.73925,1942.82204 1395.42347,1963.7037 1389.85077,1988.7618 C1385.67119,2009.64346 1371.73925,2004.07516 1357.80731,2015.21196 C1324.37082,2044.44642 1348.05494,2111.26804 1278.39551,2091.77834 C1264.46357,2087.60199 1249.1385,2051.40707 1257.49765,2036.09372 C1263.07044,2027.74102 1277.00239,2029.13317 1283.96831,2022.17252 C1288.14788,2016.60411 1288.14788,2008.25151 1289.54111,2001.29086 C1290.93413,1994.3303 1296.50693,1988.7618 1295.11371,1981.80125 C1293.72068,1973.44855 1279.78874,1969.2722 1281.18196,1960.9194 C1286.75456,1935.86139 1320.19124,1949.78249 1329.94352,1935.86139 C1353.62773,1908.01908 1325.76394,1903.84273 1314.61845,1888.52938 C1303.47285,1871.82407 1309.04565,1848.15801 1300.6865,1830.06065 C1296.50693,1818.92365 1290.93413,1809.1788 1283.96831,1800.8261 C1282.57508,1798.0419 1277.00239,1798.0419 1274.21594,1795.25769 C1249.1385,1757.67053 1275.60916,1779.94434 1258.89087,1738.18093 C1237.99291,1685.28051 1225.45419,1711.73077 1183.65855,1714.51487 C1182.26533,1714.51487 1185.05177,1710.33852 1183.65855,1707.55442 C1178.08575,1701.98592 1171.11993,1695.02536 1162.76078,1690.84901 C1154.40163,1686.67266 1137.68334,1690.84901 1132.11054,1681.10416 C1126.53775,1671.35931 1143.25604,1661.61446 1141.86291,1650.47765 C1140.46969,1639.34055 1132.11054,1629.59589 1126.53775,1621.24319 C1093.10126,1575.30333 1087.52846,1639.34055 1048.51917,1625.41954 C1044.3396,1624.02739 1074.98974,1601.75349 1061.0578,1592.00864 C1010.90302,1555.81372 1059.66457,1593.40079 1005.33022,1586.44033 C1001.15065,1585.04818 1005.33022,1578.08743 1003.937,1573.91118 C998.364393,1557.20577 969.107282,1512.65816 955.175339,1507.08966 C917.559277,1493.16845 946.816192,1519.61871 934.277473,1516.83451 C921.73885,1514.05021 910.593353,1498.73695 896.66141,1500.12901 C884.12269,1502.91331 874.37032,1519.61871 863.224921,1516.83451 C850.686104,1514.05021 852.079327,1495.95266 843.720181,1487.59995 C833.967811,1479.24725 808.890371,1482.03155 800.531322,1476.46305 L779.633455,1447.22869 C769.881085,1438.87589 754.556113,1437.48384 746.196772,1427.73898 C729.478576,1402.68097 748.983316,1406.85733 729.478576,1391.54397 C721.119429,1384.58342 711.367059,1379.01492 701.614786,1373.44652 C698.828339,1372.05437 693.255737,1376.23072 690.469192,1374.83857 C675.14422,1362.30951 675.14422,1338.64365 659.819053,1326.1145 C633.34839,1303.8407 616.630194,1320.5461 588.766404,1309.4091 C584.586831,1308.01705 595.732327,1303.8407 598.518677,1301.0564 C606.877824,1289.91959 590.159531,1271.82204 585.979957,1267.64568 C583.193607,1264.86139 577.620811,1267.64568 574.834461,1264.86139 C570.654985,1259.29298 570.654985,1250.94028 565.082188,1246.76393 C558.116265,1241.19543 544.184322,1245.37178 538.611525,1237.01908 C534.431951,1231.45058 546.970671,1220.31377 540.004748,1216.13742 C531.645602,1209.17677 517.713658,1217.52937 506.568065,1213.35312 C499.602239,1210.56892 510.747832,1198.03986 510.747832,1189.68716 C514.927406,1161.84476 510.747832,1152.1 495.422666,1128.43404 C466.165652,1086.67053 487.063519,1049.08337 452.233709,1017.06471 C449.447457,1012.88836 443.87466,1011.49631 439.695086,1010.10416 C438.301863,1010.10416 436.908542,1014.28051 435.515513,1012.88836 C428.549493,1010.10416 424.36992,1001.75146 417.403996,1001.75146 C413.224423,1001.75146 421.58357,1014.28051 417.403996,1012.88836 C406.2585,1010.10416 397.899256,1001.75146 388.147081,994.790999 C383.967507,992.006603 349.137697,955.811689 337.992104,955.811689 C335.205754,955.811689 339.385327,962.772242 336.599075,964.164392 C333.812531,965.556444 329.632957,964.164392 328.239734,961.380093 C321.273908,953.02739 292.016895,939.106187 278.084951,939.106187 C272.512155,939.106187 236.289316,959.98804 233.502869,965.556444 C230.716519,971.124944 234.896092,979.477647 230.716519,983.653901 C226.536946,989.222401 215.391352,987.830252 211.211779,992.006603 C201.459603,1001.75146 194.493583,1024.02536 183.348086,1033.77021 C165.23657,1051.86757 133.193207,1050.47562 112.29534,1053.25972 C105.329417,1028.20171 152.69785,996.182954 131.800081,980.869796 C124.83406,976.693445 115.08169,982.261751 106.722544,983.653901 C98.363397,983.653901 88.611027,987.830252 80.2518804,985.046147 C64.9269079,980.869796 28.7038746,954.41954 30.0970981,934.929836 C30.0970981,932.145634 37.0630211,932.145634 37.0630211,929.36153 C35.6698948,925.185179 21.7380487,921.008827 25.917622,912.656028 C31.4904188,907.087624 38.4562446,902.911273 42.6358179,895.950623 C44.0290414,894.558571 39.8494681,891.774272 41.2425944,888.99007 C42.6358179,884.813719 55.1745378,891.774272 56.5677613,887.597921 C56.5677613,876.461017 55.1745378,865.324015 50.9949645,856.97141 C44.0290414,845.834506 -1.9462648,827.736952 0.840182208,805.463047 C0.840182208,798.502591 13.3789021,798.502591 20.3448252,797.110441 C24.5243013,797.110441 27.3108455,805.463047 31.4904188,804.070897 C38.4562446,802.678942 83.0384246,766.483834 76.0724043,753.95478 C71.892831,745.602175 57.9609848,744.209928 53.7813143,734.465076 C49.601741,728.89677 55.1745378,719.151918 52.388188,713.583418 C32.8834478,680.172705 -3.33939109,696.878013 60.7473346,659.290949 C74.679278,684.349057 112.29534,656.506651 130.406857,652.330299 C142.945577,649.546098 152.69785,666.251502 165.23657,666.251502 C166.629793,666.251502 205.639176,625.880043 205.639176,618.919587 C207.032205,611.959034 194.493583,609.174735 195.886806,603.606235 C198.673156,595.253532 209.81875,592.469331 216.784576,586.90083 C223.750499,581.332426 229.323295,575.763926 236.289316,570.195425 C239.075666,568.803276 241.862015,566.019074 243.255239,567.411321 C246.041589,575.763926 244.648462,584.116628 244.648462,592.469331 C244.648462,596.645682 240.468889,602.214182 241.862015,607.782683 C251.614385,625.880043 273.905378,630.056394 289.230448,635.624895 C290.623671,635.624895 293.410021,638.409096 293.410021,641.193395 C292.016895,646.761896 282.264525,650.938247 283.657748,656.506651 C285.050875,662.075151 294.803245,659.290949 298.982818,663.467301 C304.555615,670.427854 307.341965,694.093811 315.701111,687.133161 C339.385327,669.035704 311.521538,674.604205 311.521538,660.683002 C311.521538,630.056394 344.958124,621.703692 350.530824,596.645682 C350.530824,593.86148 335.205754,556.274222 358.88997,560.450573 C377.001487,563.234969 354.710397,591.077181 390.933333,599.429883 C413.224423,606.390533 395.112906,578.548128 432.729066,585.508778 C443.87466,586.90083 438.301863,609.174735 448.054233,614.743236 C453.62703,617.52734 464.772429,611.959034 463.379205,606.390533 C460.592856,602.214182 455.020059,599.429883 453.62703,593.86148 C453.62703,588.292979 461.986079,584.116628 460.592856,578.548128 C457.806506,571.587575 432.729066,556.274222 452.233709,542.353213 C477.311149,524.255659 467.558779,564.626925 496.815889,557.666469 C513.534085,552.097968 487.063519,532.608362 487.063519,529.824063 C489.849869,524.255659 494.029442,520.079308 495.422666,514.510807 C498.208918,508.942307 496.815889,501.981851 498.208918,496.41335 L498.208918,496.41335 C520.500008,507.550352 500.995462,493.629149 523.286455,496.41335 C534.431951,497.8055 545.577545,527.039861 567.868441,514.510807 L585.979957,476.923744 C597.125551,468.571042 645.88711,474.139445 658.425927,472.747393 C679.323793,471.355243 696.041989,453.257689 716.939856,453.257689 C722.512652,453.257689 707.187486,460.218242 705.794359,465.786743 C698.828339,495.021104 716.939856,475.531595 728.085449,492.236999 C730.871799,496.41335 723.905876,501.981851 726.692226,507.550352 C728.085449,510.334456 732.265023,504.765956 735.051372,507.550352 C761.521938,527.039861 768.487861,529.824063 804.710895,535.392563 C839.540607,539.568915 874.37032,542.353213 909.20013,545.137415 L909.20013,545.137415 L909.20013,545.137415 Z M757.342365,1029.59386 C760.128715,1025.41751 760.128715,1019.84901 764.308288,1017.06471 C775.453882,1005.92781 772.667435,1049.08337 757.342365,1029.59386 L757.342365,1029.59386 L757.342365,1029.59386 Z" id="it" stroke="#FFFFFF" stroke-width="3" fill="#87B024"></path>
                                        <path d="M385.360536,375.299263 C385.360536,385.044115 403.472053,387.82822 397.899256,401.749423 C396.50613,404.533624 390.933333,403.141572 389.54011,404.533624 C388.147081,408.709976 383.967507,419.846977 379.787934,432.37603 L386.753857,447.689189 L386.753857,464.394593 C400.685703,465.786743 422.976793,468.571042 424.36992,468.571042 C427.156367,471.355243 420.190346,475.531595 422.976793,478.315796 C429.942716,486.668499 438.301863,492.236999 448.054233,496.41335 C470.345226,507.550352 474.524799,469.963094 489.849869,472.747393 C519.106882,476.923744 488.456742,492.236999 498.208918,496.41335 C520.500008,507.550352 500.995462,493.629149 523.286455,496.41335 C534.431951,497.8055 545.577545,527.039861 567.868441,514.510807 L585.979957,476.923744 C597.125551,468.571042 645.88711,474.139445 658.425927,472.747393 C679.323793,471.355243 696.041989,453.257689 716.939856,453.257689 C722.512652,453.257689 707.187486,460.218242 705.794359,465.786743 C698.828339,495.021104 716.939856,475.531595 728.085449,492.236999 C730.871799,496.41335 723.905876,501.981851 726.692226,507.550352 C728.085449,510.334456 732.265023,504.765956 735.051372,507.550352 C761.521938,527.039861 768.487861,529.824063 804.710895,535.392563 C846.506531,540.961064 889.69539,542.353213 932.884443,549.313766 C944.029843,550.705916 955.175339,559.058618 966.320933,560.450573 C977.466429,561.842723 988.612023,553.490118 999.757422,554.882267 C1006.72344,556.274222 1010.90302,566.019074 1017.86894,566.019074 C1020.65529,567.411321 1019.26216,559.058618 1022.04851,557.666469 C1029.01443,550.705916 1040.16003,547.921617 1047.12585,539.568915 C1052.69865,535.392563 1048.51917,525.647712 1052.69865,521.47136 C1079.16931,500.589604 1107.0332,527.039861 1132.11054,515.902957 C1140.46969,511.726703 1141.86291,499.197455 1150.22206,496.41335 C1151.61519,495.021104 1197.59049,501.981851 1198.98362,500.589604 C1203.16319,499.197455 1194.80405,493.629149 1193.41092,489.452798 C1190.62447,475.531595 1196.19727,467.178892 1205.94964,464.394593 L1205.94964,464.394593 C1231.02698,436.552382 1242.17267,432.37603 1254.7113,411.494274 C1257.49765,405.925774 1232.4203,376.691413 1239.38613,362.77021 C1249.1385,343.280506 1272.82271,364.162359 1270.03637,336.319953 C1268.64314,312.653996 1226.84751,315.438294 1235.20656,308.477644 C1254.7113,291.77224 1304.86608,314.046145 1313.22522,298.73289 C1314.61845,293.164389 1295.11371,248.616675 1314.61845,240.263973 C1297.90015,222.166419 1283.96831,204.068865 1271.42959,183.187206 C1260.284,165.089652 1300.6865,135.855291 1271.42959,114.973535 C1267.25002,112.189236 1261.67722,120.542035 1257.49765,120.542035 C1250.53172,119.149886 1236.59978,101.052332 1226.84751,103.836533 C1219.88158,106.620832 1217.09514,117.757736 1208.73599,121.934088 C1203.16319,123.326237 1196.19727,120.542035 1190.62447,120.542035 C1153.00841,116.365587 1120.96495,85.7391736 1080.56254,85.7391736 C1073.59652,85.7391736 1068.02382,94.0917788 1061.0578,94.0917788 C1058.27145,92.6996294 1061.0578,85.7391736 1058.27145,84.3470242 C1052.69865,81.5626281 1044.3396,78.7785235 1040.16003,82.9547776 C1038.7668,85.7391736 1041.55325,126.110439 1038.7668,128.894738 C1035.98046,133.071089 1026.22808,123.326237 1020.65529,127.502588 L1009.50979,163.6976 C999.757422,166.481801 990.005052,153.952748 980.252876,153.952748 C974.680079,153.952748 976.073303,165.089652 970.500506,166.481801 C941.243493,177.618705 924.525102,148.384247 902.234207,137.24744 L900.840983,137.24744 C902.234207,141.423791 903.627333,145.600142 903.627333,149.776397 C902.234207,187.363557 893.87506,179.010855 864.61795,172.050302 C861.831697,172.050302 859.045348,173.442354 857.652124,176.226653 C854.865677,190.147856 863.224921,205.461014 849.292978,216.597918 C836.754258,226.34277 778.240232,240.263973 776.847008,262.537878 C776.847008,262.537878 810.283692,308.477644 810.283692,309.869794 C811.676721,311.261943 792.172175,327.967251 799.138098,333.535849 C814.463265,347.456857 829.788237,326.575101 817.249518,372.515062 C817.249518,375.299263 814.463265,379.475614 811.676721,379.475614 C767.094735,366.946561 801.924545,344.672656 781.026581,343.280506 C769.881085,343.280506 760.128715,353.025358 748.983316,351.633208 C743.410519,350.241156 744.803742,340.496304 740.624169,339.104155 C732.265023,336.319953 723.905876,343.280506 716.939856,340.496304 C714.153506,339.104155 719.726303,330.751453 716.939856,330.751453 C700.221563,332.143602 715.546632,354.417507 711.367059,355.80956 C691.862416,361.37806 659.819053,353.025358 641.707536,359.985911 C636.134837,362.77021 638.921187,372.515062 633.34839,375.299263 C627.775787,379.475614 620.809767,372.515062 615.237068,376.691413 C611.057397,378.083368 616.630194,385.044115 613.843844,387.82822 C612.450621,389.220466 565.082188,401.749423 559.509294,398.965221 C556.723041,396.180922 559.509294,389.220466 556.723041,386.43607 C555.329818,383.651868 548.363895,383.651868 546.970671,380.867764 C545.577545,378.083368 553.936692,379.475614 552.543468,376.691413 C546.970671,358.593859 507.961288,380.867764 496.815889,368.33871 C496.815889,368.33871 499.602239,366.946561 499.602239,365.554411 C491.243092,359.985911 499.602239,383.651868 496.815889,393.39672 C496.815889,398.965221 470.345226,430.983881 460.592856,421.239029 C455.020059,415.670626 470.345226,407.317923 466.165652,401.749423 C464.772429,400.357273 460.592856,405.925774 457.806506,405.925774 C455.020059,405.925774 450.840486,404.533624 449.447457,401.749423 C446.660912,397.573071 456.413282,392.004571 449.447457,386.43607 C443.87466,382.259719 441.08831,375.299263 435.515513,372.515062 C431.33594,369.730763 425.763143,376.691413 420.190346,375.299263 C417.403996,372.515062 420.190346,365.554411 417.403996,362.77021 C410.438073,357.201709 411.8312,382.259719 389.54011,375.299263 C388.147081,373.907114 386.753857,373.907114 385.360536,373.907114 L385.360536,375.299263 L385.360536,375.299263 L385.360536,375.299263 Z" id="at" stroke="#FFFFFF" stroke-width="3" fill="#87B024"></path>
                                        <path d="M1226.84751,461.610392 L1226.84751,461.610392 L1226.84751,461.610392 L1226.84751,461.610392 C1232.4203,461.610392 1243.5657,504.765956 1272.82271,528.43201 C1310.43887,559.058618 1342.48214,575.763926 1371.73925,613.351086 C1375.91882,618.919587 1403.78252,614.743236 1406.56906,616.135385 C1417.71446,620.311736 1426.07361,630.056394 1435.82598,634.232745 C1455.33072,642.585545 1516.631,641.193395 1534.74241,625.880043 C1537.52896,623.095938 1538.92199,603.606235 1548.67436,603.606235 C1575.14502,599.429883 1570.96545,604.998384 1594.64976,578.548128 C1598.82933,574.371776 1604.40194,588.292979 1616.94066,578.548128 C1629.47947,568.803276 1637.83862,552.097968 1653.16359,543.745266 C1685.20705,522.86351 1658.73639,543.745266 1682.42061,545.137415 C1683.81383,545.137415 1720.03677,534.000414 1721.42989,534.000414 C1728.39591,534.000414 1735.36184,540.961064 1742.32786,540.961064 C1745.11421,539.568915 1746.50743,534.000414 1749.29378,532.608362 C1757.65293,529.824063 1799.44866,525.647712 1802.23501,515.902957 C1805.02136,510.334456 1784.12349,503.374 1809.20093,499.197455 C1818.9533,497.8055 1828.70567,507.550352 1837.06472,504.765956 C1863.53538,495.021104 1855.17624,444.904987 1862.14216,429.591732 C1864.92851,425.41538 1871.89453,425.41538 1874.68088,421.239029 L1890.00605,372.515062 C1892.7923,365.554411 1896.97187,359.985911 1896.97187,353.025358 C1896.97187,350.241156 1890.00605,350.241156 1890.00605,347.456857 C1891.39908,334.927804 1906.72424,295.948591 1913.69017,284.811687 C1916.47661,282.027388 1923.44254,284.811687 1923.44254,280.635335 C1930.40846,254.185176 1920.65619,234.695472 1951.30642,205.461014 C1961.0586,194.324207 1972.20419,201.28476 1987.52926,195.71626 C2002.85443,188.755707 2004.24746,167.873951 2015.39305,156.736949 C1998.67486,142.815746 2020.96595,145.600142 2002.85443,133.071089 C2000.06798,131.678939 1995.88841,128.894738 1991.70884,128.894738 C1986.13614,130.28679 1981.95656,137.24744 1976.38377,135.855291 C1968.02462,130.28679 1966.6314,116.365587 1958.27225,110.797184 C1954.09268,108.012885 1948.51988,114.973535 1944.3404,113.581385 C1922.04931,105.228683 1942.94728,89.9155248 1910.90382,88.5232782 C1910.90382,99.6601823 1890.00605,99.6601823 1878.86045,102.444481 C1873.28775,103.836533 1867.71496,110.797184 1863.53538,108.012885 C1837.06472,99.6601823 1857.96259,73.2099258 1823.13287,71.8179706 C1809.20093,71.8179706 1800.84178,91.30748 1786.90984,92.6996294 C1763.22572,96.8759806 1732.57549,71.8179706 1711.67772,98.26813 C1703.31857,109.405034 1708.89117,146.992098 1693.5662,153.952748 C1687.9934,155.344897 1679.63426,149.776397 1674.06146,152.560598 C1651.77037,166.481801 1683.81383,176.226653 1648.98412,181.795057 C1637.83862,183.187206 1612.76108,152.560598 1601.61559,172.050302 C1597.43601,179.010855 1604.40194,191.539908 1598.82933,197.108409 C1583.50417,212.421567 1540.31521,202.67691 1520.81067,216.597918 C1502.69915,227.73492 1522.20379,247.224526 1527.77659,255.577131 C1533.34939,265.321983 1414.92811,286.203739 1398.20991,283.419537 C1371.73925,277.851037 1352.23451,241.656123 1327.15717,238.871824 C1321.58437,237.479771 1317.4048,238.871824 1314.61845,240.263973 L1314.61845,240.263973 C1295.11371,248.616675 1314.61845,293.164389 1313.22522,298.73289 C1304.86608,314.046145 1254.7113,291.77224 1235.20656,308.477644 C1226.84751,315.438294 1268.64314,312.653996 1270.03637,336.319953 C1272.82271,364.162359 1249.1385,343.280506 1239.38613,362.77021 C1232.4203,376.691413 1257.49765,405.925774 1254.7113,411.494274 C1242.17267,432.37603 1231.02698,436.552382 1205.94964,464.394593 L1205.94964,464.394593 C1205.94964,464.394593 1205.94964,464.394593 1204.55642,465.786743 C1207.34286,464.394593 1208.73599,463.002541 1211.52244,463.002541 L1226.84751,461.610392 L1226.84751,461.610392 L1226.84751,461.610392 Z" id="hu" stroke="#FFFFFF" stroke-width="3" fill="#87B024"></path>
                                        <path d="M2801.15225,748.386279 C2794.18632,742.817779 2792.7931,723.328269 2784.43405,727.504621 C2780.25448,728.89677 2777.46813,734.465076 2773.28856,735.857323 C2739.85207,753.95478 2784.43405,726.112471 2748.21112,727.504621 C2737.06552,727.504621 2728.70647,740.033674 2717.56098,741.425824 C2693.87666,744.209928 2713.3814,710.799216 2650.6878,734.465076 C2624.21714,745.602175 2575.45548,767.875983 2554.55762,788.757739 C2530.8735,812.4236 2526.69383,841.658155 2496.04379,861.147664 C2468.1799,877.853069 2447.28203,866.716165 2419.41824,865.324015 C2397.12715,863.93206 2373.44303,862.539911 2352.54507,869.500367 C2344.18592,872.284666 2341.39957,883.42157 2333.04043,886.205868 C2294.03114,900.126974 2248.05574,877.853069 2209.04645,882.02942 C2178.39631,884.813719 2168.64404,909.871826 2135.20736,895.950623 C2111.52324,886.205868 2164.46447,855.579358 2151.92575,850.010857 C2129.63475,840.266005 2062.76158,826.344802 2066.94115,790.149888 C2068.33438,777.620738 2114.30959,776.228685 2100.37764,769.268035 C1952.69945,695.485864 2085.05257,762.307482 2025.14542,797.110441 C2015.39305,804.070897 2009.82025,779.012887 2000.06798,774.836536 C1993.10206,770.660185 1983.34969,774.836536 1976.38377,774.836536 C1968.02462,774.836536 1959.66547,779.012887 1951.30642,776.228685 C1947.12685,773.444387 1949.9132,766.483834 1947.12685,760.915333 C1940.16083,746.994324 1880.25368,769.268035 1913.69017,745.602175 C1922.04931,740.033674 1942.94728,734.465076 1935.98126,728.89677 C1929.01533,724.720419 1915.08339,728.89677 1912.29704,720.544068 C1910.90382,712.191365 1940.16083,696.878013 1920.65619,685.741206 C1894.18562,670.427854 1841.24429,677.388504 1823.13287,645.369746 C1818.9533,638.409096 1818.9533,604.998384 1818.9533,596.645682 L1818.9533,593.86148 C1814.77373,595.253532 1811.98738,603.606235 1809.20093,600.822033 C1799.44866,595.253532 1798.05543,579.940277 1789.69629,572.979821 C1781.33714,567.411321 1768.79852,568.803276 1760.43918,561.842723 C1752.08013,557.666469 1747.90056,547.921617 1742.32786,540.961064 C1745.11421,539.568915 1746.50743,534.000414 1749.29378,532.608362 C1757.65293,529.824063 1799.44866,525.647712 1802.23501,515.902957 C1805.02136,510.334456 1784.12349,503.374 1809.20093,499.197455 C1818.9533,497.8055 1828.70567,507.550352 1837.06472,504.765956 C1863.53538,495.021104 1855.17624,444.904987 1862.14216,429.591732 C1864.92851,425.41538 1871.89453,425.41538 1874.68088,421.239029 L1890.00605,372.515062 C1892.7923,365.554411 1896.97187,359.985911 1896.97187,353.025358 C1896.97187,350.241156 1890.00605,350.241156 1890.00605,347.456857 C1891.39908,334.927804 1906.72424,295.948591 1913.69017,284.811687 C1916.47661,282.027388 1923.44254,284.811687 1923.44254,280.635335 C1930.40846,254.185176 1920.65619,234.695472 1951.30642,205.461014 C1961.0586,194.324207 1972.20419,201.28476 1987.52926,195.71626 C2002.85443,188.755707 2004.24746,167.873951 2015.39305,156.736949 C2019.57262,159.521248 2027.93177,153.952748 2037.68414,127.502588 C2039.07727,124.718387 2039.07727,120.542035 2041.86371,120.542035 C2046.04329,120.542035 2080.873,137.24744 2085.05257,137.24744 C2087.83892,137.24744 2089.23215,130.28679 2092.0185,128.894738 C2110.13001,121.934088 2156.10532,140.031642 2178.39631,134.463141 C2190.93513,130.28679 2199.29428,119.149886 2211.8329,117.757736 C2234.12399,116.365587 2249.44896,145.600142 2264.77413,149.776397 C2285.672,156.736949 2292.63792,117.757736 2298.21071,112.189236 C2323.28806,85.7391736 2387.37478,88.5232782 2406.87952,69.0336717 C2444.49559,32.8386605 2390.16123,63.4652682 2416.63189,28.6624065 C2423.59782,20.3097041 2434.74341,13.349054 2445.88881,10.5648523 L2447.28203,6.38850112 C2447.28203,6.38850112 2448.57345,5.86527945 2451.46161,4.99635168 C2452.85326,4.57764807 2461.71901,-0.155912578 2470.82212,1.00750162 C2480.61099,2.25855168 2490.88936,9.6413731 2498.83004,16.1333529 C2528.08705,37.0150117 2533.65985,71.8179706 2557.34397,95.4838311 C2596.35335,133.071089 2702.23581,199.892514 2714.77453,254.185176 C2724.5269,288.988038 2711.98818,327.967251 2720.34733,362.77021 C2723.13368,378.083368 2748.21112,412.886327 2746.81789,428.199679 C2746.81789,433.76818 2735.6723,435.160232 2737.06552,440.728733 C2738.45884,446.297233 2746.81789,443.512837 2750.99747,446.297233 C2755.17704,449.081338 2755.17704,458.82619 2760.74984,458.82619 C2763.53619,460.218242 2767.71576,457.43404 2770.50211,460.218242 C2774.68178,464.394593 2773.28856,472.747393 2778.86135,476.923744 C2784.43405,482.492147 2844.3413,485.276446 2842.94808,478.315796 C2842.94808,476.923744 2823.44334,472.747393 2837.37528,464.394593 C2845.73443,460.218242 2855.4868,461.610392 2863.84585,457.43404 C2877.77779,450.473585 2883.35059,430.983881 2898.67566,425.41538 C2929.3258,414.278476 2944.65087,425.41538 2951.61689,451.86554 C2950.22366,453.257689 2946.04409,451.86554 2946.04409,453.257689 C2946.04409,457.43404 2948.83054,460.218242 2951.61689,461.610392 C2954.40324,463.002541 2957.18968,457.43404 2958.58281,460.218242 C2961.36926,465.786743 2962.76238,513.118658 2962.76238,518.687159 C2961.36926,536.784713 2919.57343,538.176862 2908.42803,546.529565 C2901.46201,552.097968 2901.46201,571.587575 2893.10286,570.195425 C2891.70973,568.803276 2902.85523,522.86351 2883.35059,511.726703 C2876.38457,508.942307 2868.02542,520.079308 2863.84585,527.039861 C2858.27305,536.784713 2883.35059,545.137415 2881.95736,556.274222 C2881.95736,567.411321 2861.05959,574.371776 2866.6322,582.724479 C2872.20499,591.077181 2883.35059,570.195425 2893.10286,570.195425 C2895.88931,568.803276 2891.70973,577.156075 2888.92329,579.940277 C2887.53016,581.332426 2886.13694,582.724479 2883.35059,584.116628 C2884.74371,582.724479 2886.13694,582.724479 2887.53016,584.116628 C2895.88931,591.077181 2862.45262,645.369746 2862.45262,646.761896 C2863.84585,656.506651 2876.38457,705.230715 2883.35059,749.778429 C2858.27305,753.95478 2822.05021,766.483834 2801.15225,748.386279 L2801.15225,748.386279 Z" id="ro" stroke="#FFFFFF" stroke-width="3" fill="#87B024"></path>
                                        <path d="M2668.79932,1182.72651 C2661.8333,1181.33446 2654.86738,1181.33446 2650.6878,1181.33446 C2596.35335,1192.47136 2684.12429,1231.45058 2653.47415,1255.11663 C2653.47415,1255.11663 2610.2852,1269.03783 2608.89217,1269.03783 C2589.38743,1275.99839 2557.34397,1301.0564 2536.4462,1299.66425 C2532.26662,1299.66425 2535.05307,1292.70369 2532.26662,1291.31154 C2518.33468,1284.35109 2500.22336,1275.99839 2484.89819,1280.17474 C2479.3254,1281.56689 2479.3254,1292.70369 2473.7527,1294.09584 C2469.57312,1295.4879 2466.78668,1285.74324 2462.6071,1284.35109 C2459.82075,1282.95884 2455.64118,1288.52734 2454.24796,1285.74324 C2444.49559,1280.17474 2441.70924,1264.86139 2430.56384,1263.46933 C2422.2045,1260.68503 2418.02502,1274.60624 2409.66587,1275.99839 C2404.09317,1278.78249 2397.12715,1267.64568 2392.94758,1270.42989 C2367.87024,1285.74324 2358.11787,1302.44855 2319.10848,1316.36975 C2302.39029,1321.93815 2281.49242,1316.36975 2266.16725,1326.1145 C2260.59465,1328.8988 2260.59465,1340.03571 2255.02186,1342.82001 C2250.84228,1346.99636 2243.87616,1342.82001 2238.30356,1342.82001 L2220.19205,1342.82001 C2218.79882,1344.21196 2220.19205,1346.99636 2220.19205,1346.99636 C2222.9784,1338.64365 2220.19205,1266.25353 2218.79882,1266.25353 C2209.04645,1256.50868 2193.72148,1228.66647 2181.18276,1220.31377 C2174.21674,1216.13742 2164.46447,1220.31377 2156.10532,1216.13742 C2153.31887,1214.74527 2115.70281,1185.51081 2115.70281,1182.72651 C2122.66873,1170.19746 2142.17338,1167.41335 2135.20736,1149.3158 C2133.81433,1143.7473 2129.63475,1140.9631 2125.45518,1138.17889 C2122.66873,1136.78675 2118.48916,1139.57095 2117.09603,1136.78675 C2115.70281,1129.82619 2117.09603,1122.86554 2117.09603,1115.90499 C2115.70281,1107.55238 2105.95044,1099.19968 2110.13001,1092.23903 C2150.53252,1025.41751 2104.55722,1107.55238 2149.1393,1072.74943 C2153.31887,1068.57307 2182.57598,1017.06471 2174.21674,1008.71201 C2163.07124,1000.35931 2110.13001,975.301296 2107.34366,972.517094 C2090.62537,958.595891 2064.1548,900.126974 2073.90698,879.245218 C2078.08675,869.500367 2093.41172,870.892516 2098.98452,862.539911 C2103.16409,852.795059 2097.59129,840.266005 2101.77087,830.521154 C2119.88238,838.873856 2142.17338,844.442357 2151.92575,850.010857 C2164.46447,855.579358 2111.52324,886.205868 2135.20736,895.950623 C2168.64404,909.871826 2178.39631,884.813719 2209.04645,882.02942 C2248.05574,877.853069 2294.03114,900.126974 2333.04043,886.205868 C2341.39957,883.42157 2344.18592,872.284666 2352.54507,869.500367 C2373.44303,862.539911 2397.12715,863.93206 2419.41824,865.324015 C2447.28203,866.716165 2468.1799,877.853069 2496.04379,861.147664 C2526.69383,841.658155 2530.8735,812.4236 2554.55762,788.757739 C2575.45548,767.875983 2624.21714,745.602175 2650.6878,734.465076 C2713.3814,710.799216 2693.87666,744.209928 2717.56098,741.425824 C2728.70647,740.033674 2737.06552,727.504621 2748.21112,727.504621 C2784.43405,726.112471 2739.85207,753.95478 2773.28856,735.857323 C2777.46813,734.465076 2780.25448,728.89677 2784.43405,727.504621 C2792.7931,723.328269 2794.18632,742.817779 2801.15225,748.386279 C2822.05021,766.483834 2858.27305,753.95478 2880.56414,749.778429 L2883.35059,749.778429 C2888.92329,784.581388 2891.70973,816.600145 2881.95736,822.168451 C2876.38457,824.95275 2869.41864,815.207898 2862.45262,816.600145 C2810.90462,830.521154 2844.3413,829.129101 2829.01613,859.755709 C2827.62291,865.324015 2817.87064,865.324015 2815.08419,869.500367 C2815.08419,872.284666 2823.44334,870.892516 2823.44334,873.676718 C2826.22978,895.950623 2824.83656,909.871826 2830.40936,932.145634 C2831.80248,940.498337 2840.16163,951.635241 2835.98206,958.595891 C2831.80248,965.556444 2819.26376,961.380093 2812.29784,965.556444 C2810.90462,965.556444 2816.47741,968.340743 2816.47741,969.732795 C2813.69106,975.301296 2806.72504,976.693445 2805.33182,982.261751 C2803.93869,986.438103 2812.29784,990.614648 2809.51149,993.398753 C2803.93869,1001.75146 2791.40007,1004.53566 2785.82728,1012.88836 C2760.74984,1046.29927 2822.05021,996.182954 2837.37528,1033.77021 C2838.7685,1036.55441 2834.58893,1040.73077 2834.58893,1043.51487 C2835.98206,1044.90702 2866.6322,1063.00457 2873.59822,1068.57307 C2877.77779,1074.14148 2881.95736,1078.31783 2883.35059,1082.49418 L2880.56414,1082.49418 C2872.20499,1083.88633 2863.84585,1082.49418 2855.4868,1085.27848 C2844.3413,1089.45483 2835.98206,1099.19968 2826.22978,1106.16023 C2823.44334,1107.55238 2826.22978,1113.12069 2824.83656,1111.72874 C2792.7931,1104.76799 2783.04093,1079.70998 2750.99747,1096.41538 L2727.31315,1122.86554 C2717.56098,1127.04189 2705.02226,1120.08134 2698.05624,1127.04189 C2689.69709,1134.00254 2698.05624,1147.92365 2692.48344,1156.27625 C2684.12429,1166.02111 2656.2606,1161.84476 2668.79932,1182.72651 L2668.79932,1182.72651 L2668.79932,1182.72651 Z" id="bg" stroke="#FFFFFF" stroke-width="3" fill="#87B024"></path>
                                        <path d="M1966.6314,1477.8553 C1966.6314,1495.95266 1986.13614,1501.52116 1981.95656,1518.22656 C1968.02462,1571.12698 1959.66547,1525.18721 1949.9132,1562.77427 C1949.9132,1562.77427 1941.55405,1618.45889 1941.55405,1619.85104 C1938.7677,1624.02739 1895.57865,1637.9486 1894.18562,1647.69325 L1912.29704,1675.53566 C1916.47661,1688.06471 1896.97187,1675.53566 1896.97187,1683.88836 C1898.3651,1720.08337 1883.04003,1700.59367 1859.35581,1704.77002 C1857.96259,1704.77002 1860.74894,1706.16217 1859.35581,1707.55442 C1857.96259,1708.94637 1857.96259,1708.94637 1856.56936,1710.33852 C1855.17624,1708.94637 1855.17624,1707.55442 1853.78301,1704.77002 L1853.78301,1696.41742 C1853.78301,1688.06471 1857.96259,1681.10416 1855.17624,1674.14351 C1852.38979,1669.96716 1844.03064,1674.14351 1841.24429,1669.96716 C1834.27847,1664.39876 1835.6715,1653.26175 1830.0987,1647.69325 C1820.34652,1635.1643 1731.18226,1611.49834 1740.93463,1589.22443 C1745.11421,1579.47968 1764.61895,1590.61668 1768.79852,1582.26398 C1770.19155,1579.47968 1742.32786,1561.38213 1738.14828,1546.06887 C1736.75506,1541.89252 1743.72098,1540.50037 1743.72098,1536.32402 C1745.11421,1530.75552 1743.72098,1523.79506 1745.11421,1518.22656 C1745.11421,1511.26601 1740.93463,1504.30536 1745.11421,1500.12901 C1747.90056,1494.5606 1759.04615,1498.73695 1763.22572,1494.5606 C1766.01207,1490.38425 1763.22572,1479.24725 1759.04615,1479.24725 C1753.47335,1480.6394 1757.65293,1491.7763 1753.47335,1495.95266 C1745.11421,1502.91331 1753.47335,1448.62074 1754.86658,1434.69954 C1757.65293,1417.99413 1733.96871,1426.34683 1733.96871,1409.64143 C1733.96871,1397.11247 1732.57549,1384.58342 1739.54141,1374.83857 C1743.72098,1369.27007 1756.2597,1374.83857 1761.8325,1369.27007 C1764.61895,1366.48587 1754.86658,1365.09372 1753.47335,1360.91737 C1752.08013,1351.17271 1761.8325,1337.2515 1754.86658,1330.29085 C1746.50743,1321.93815 1732.57549,1331.683 1721.42989,1328.8988 L1721.42989,1301.0564 C1721.42989,1295.4879 1724.21634,1288.52734 1721.42989,1282.95884 C1717.25032,1275.99839 1704.7116,1275.99839 1703.31857,1269.03783 C1703.31857,1267.64568 1747.90056,1177.15811 1752.08013,1174.37381 C1753.47335,1172.98185 1760.43918,1207.78472 1771.58487,1209.17677 L1800.84178,1185.51081 C1823.13287,1185.51081 1818.9533,1220.31377 1831.49192,1227.27422 C1835.6715,1230.05843 1839.85107,1224.49012 1845.42387,1225.88208 C1855.17624,1228.66647 1864.92851,1232.84273 1871.89453,1239.80328 C1898.3651,1269.03783 1878.86045,1298.27219 1881.6469,1327.50665 C1881.6469,1337.2515 1890.00605,1345.60421 1890.00605,1353.95681 C1888.61282,1358.13316 1877.46733,1358.13316 1878.86045,1362.30951 C1880.25368,1372.05437 1894.18562,1377.62287 1895.57865,1387.36762 C1896.97187,1391.54397 1888.61282,1395.72023 1888.61282,1399.89658 C1888.61282,1411.03358 1924.83576,1462.54194 1930.40846,1470.89455 C1938.7677,1480.6394 1944.3404,1465.32605 1948.51988,1465.32605 C1954.09268,1463.93409 1961.0586,1465.32605 1965.23817,1468.11044 C1968.02462,1470.89455 1963.84505,1477.8553 1966.6314,1477.8553 L1966.6314,1477.8553 L1966.6314,1477.8553 Z" id="al" stroke="#FFFFFF" stroke-width="3" fill="#87B024"></path>
                                        <path d="M1621.12023,1065.78878 L1623.90668,1061.61242 L1621.12023,1065.78878 C1601.61559,1088.06268 1604.40194,1120.08134 1598.82933,1127.04189 C1587.68364,1140.9631 1583.50417,1120.08134 1579.32459,1140.9631 C1572.35867,1181.33446 1615.21361,1182.72649 1584.605,1212.53567 L1584.605,1219.60968 L1591.86322,1234.23497 C1575.14502,1193.86351 1547.28113,1207.78472 1512.45142,1182.72651 C1504.09228,1175.76596 1501.30593,1163.237 1491.55356,1160.45261 C1484.58763,1157.6685 1476.22858,1166.02111 1467.86944,1166.02111 C1463.68986,1166.02111 1453.93749,1164.62915 1455.33072,1160.45261 C1458.11707,1154.8843 1470.65569,1156.27625 1472.04901,1149.3158 C1479.01484,1131.21824 1419.10768,1107.55238 1413.53489,1097.80753 C1407.96209,1089.45483 1412.14166,1076.92578 1406.56906,1068.57307 C1402.38949,1063.00457 1392.63712,1064.39672 1385.67119,1061.61242 C1356.41408,1043.51487 1338.30266,1010.10416 1313.22522,989.222401 C1304.86608,983.653901 1272.82271,951.635241 1263.07044,947.45889 C1258.89087,946.066837 1253.31807,951.635241 1249.1385,948.851039 C1242.17267,941.890486 1258.89087,926.577134 1258.89087,923.793029 C1257.49765,918.224529 1250.53172,916.832282 1246.35215,912.656028 C1235.20656,895.950623 1231.02698,873.676718 1215.70201,859.755709 C1210.12921,852.795059 1198.98362,852.795059 1192.0177,847.226558 C1186.4449,843.050207 1176.69272,762.307482 1207.34286,763.699632 C1221.27471,763.699632 1244.95893,794.32624 1257.49765,801.286793 L1268.64314,799.894546 L1257.49765,801.286793 C1274.21594,799.894546 1271.42959,773.444387 1279.78874,762.307482 C1295.11371,744.209928 1302.07973,766.483834 1321.58437,762.307482 C1327.15717,760.915333 1327.15717,749.778429 1332.72996,745.602175 C1332.72996,745.602175 1341.08911,753.95478 1364.77323,760.915333 C1367.55968,762.307482 1371.73925,763.699632 1375.91882,762.307482 C1378.70517,762.307482 1380.0984,756.738982 1384.27797,755.34693 C1400.99626,753.95478 1438.61233,774.836536 1456.72384,772.052334 C1460.90342,772.052334 1465.08289,769.268035 1466.47621,765.091684 C1470.65569,762.307482 1469.26247,752.562631 1474.83526,752.562631 C1483.19441,751.170675 1488.76721,759.523281 1497.12635,762.307482 C1512.45142,766.483834 1494.34,755.34693 1502.69915,752.562631 C1511.0583,749.778429 1520.81067,749.778429 1529.16981,752.562631 C1534.74241,753.95478 1538.92199,762.307482 1544.49478,762.307482 C1548.67436,762.307482 1544.49478,752.562631 1548.67436,752.562631 C1580.71782,753.95478 1572.35867,788.757739 1587.68364,791.541941 C1614.15431,794.32624 1628.08625,774.836536 1653.16359,776.228685 C1653.16359,819.38425 1628.08625,848.618708 1632.26582,875.068867 C1637.83862,905.695475 1646.19777,883.42157 1665.70231,891.774272 C1678.24103,897.342773 1681.02748,915.440327 1693.5662,922.400783 C1697.74577,923.793029 1711.67772,919.616678 1707.49814,932.145634 C1699.139,959.98804 1664.30919,929.36153 1657.34317,939.106187 C1657.34317,939.106187 1720.03677,997.575104 1703.31857,1015.67266 C1697.74577,1019.84901 1690.77975,1005.92781 1683.81383,1008.71201 C1675.45468,1011.49631 1674.06146,1022.63321 1668.48876,1029.59386 C1658.73639,1032.37806 1632.26582,1026.80956 1630.8726,1033.77021 C1626.69303,1053.25972 1661.52274,1054.65187 1650.37734,1083.88633 L1644.80454,1083.88633 L1650.37734,1083.88633 C1636.4454,1074.14148 1636.4454,1064.39672 1621.12023,1065.78878 L1621.12023,1065.78878 Z" id="ba" stroke="#FFFFFF" stroke-width="3" fill="#87B024"></path>
                                        <path d="M1272.82271,528.43201 C1263.07044,527.039861 1239.38613,521.47136 1233.81333,522.86351 C1218.48836,525.647712 1239.38613,545.137415 1231.02698,550.705916 C1224.06116,553.490118 1215.70201,549.313766 1208.73599,552.097968 C1205.94964,553.490118 1210.12921,559.058618 1207.34286,561.842723 C1193.41092,572.979821 1171.11993,574.371776 1157.18798,586.90083 C1140.46969,602.214182 1187.83812,641.193395 1166.94035,656.506651 C1118.1786,691.309512 1148.82884,632.840693 1116.78538,678.780556 C1112.6058,684.349057 1129.3241,685.741206 1132.11054,692.701662 C1134.89689,698.270162 1118.1786,696.878013 1118.1786,702.446514 C1118.1786,705.230715 1132.11054,723.328269 1126.53775,730.288822 C1111.21277,745.602175 1088.92168,721.93612 1074.98974,721.93612 C1054.09197,721.93612 1094.49438,741.425824 1059.66457,731.680972 C1049.9124,728.89677 1037.37368,713.583418 1033.19411,705.230715 C1030.40766,702.446514 1027.62131,694.093811 1026.22808,696.878013 C1020.65529,705.230715 1022.04851,714.975567 1016.47571,721.93612 C998.364393,745.602175 973.286856,721.93612 952.388989,728.89677 C949.602639,730.288822 955.175339,735.857323 952.388989,738.641428 C939.850269,745.602175 914.772927,744.209928 902.234207,738.641428 C902.234207,738.641428 902.234207,737.249472 903.627333,737.249472 C910.593353,730.288822 918.9525,723.328269 921.73885,716.367717 C970.500506,719.151918 914.772927,685.741206 900.840983,677.388504 C891.088613,671.820003 906.41378,653.722449 903.627333,646.761896 C900.840983,639.801246 878.549893,659.290949 884.12269,641.193395 C888.302264,628.664439 914.772927,617.52734 905.020557,609.174735 C898.054634,603.606235 866.011271,606.390533 868.797523,589.685129 C871.584068,567.411321 906.41378,572.979821 909.20013,545.137415 L906.41378,545.137415 C914.772927,546.529565 923.132073,547.921617 932.884443,549.313766 C944.029843,550.705916 955.175339,559.058618 966.320933,560.450573 C977.466429,561.842723 988.612023,553.490118 999.757422,554.882267 C1006.72344,556.274222 1010.90302,566.019074 1017.86894,566.019074 C1020.65529,567.411321 1019.26216,559.058618 1022.04851,557.666469 C1029.01443,550.705916 1040.16003,547.921617 1047.12585,539.568915 C1052.69865,535.392563 1048.51917,525.647712 1052.69865,521.47136 C1079.16931,500.589604 1107.0332,527.039861 1132.11054,515.902957 C1140.46969,511.726703 1141.86291,499.197455 1150.22206,496.41335 C1151.61519,495.021104 1197.59049,501.981851 1198.98362,500.589604 C1203.16319,499.197455 1194.80405,493.629149 1193.41092,489.452798 C1189.23135,467.178892 1205.94964,461.610392 1226.84751,461.610392 C1232.4203,461.610392 1243.5657,504.765956 1272.82271,528.43201 L1272.82271,528.43201 L1272.82271,528.43201 Z" id="si" stroke="#FFFFFF" stroke-width="3" fill="#87B024"></path>
                                        <path d="M1883.04003,1299.66425 C1881.6469,1309.4091 1880.25368,1319.15395 1881.6469,1327.50665 C1881.6469,1337.2515 1890.00605,1345.60421 1890.00605,1353.95681 C1888.61282,1358.13316 1877.46733,1358.13316 1878.86045,1362.30951 C1880.25368,1372.05437 1894.18562,1377.62287 1895.57865,1387.36762 C1896.97187,1391.54397 1888.61282,1395.72023 1888.61282,1399.89658 C1888.61282,1411.03358 1924.83576,1462.54194 1930.40846,1470.89455 C1938.7677,1480.6394 1944.3404,1465.32605 1948.51988,1465.32605 C1954.09268,1463.93409 1961.0586,1465.32605 1965.23817,1468.11044 C1968.02462,1470.89455 1963.84505,1477.8553 1966.6314,1477.8553 C1976.38377,1479.24725 2069.72741,1450.01289 2075.3002,1445.83654 C2090.62537,1429.13113 2079.47978,1406.85733 2107.34366,1397.11247 C2117.09603,1392.93612 2171.43039,1399.89658 2179.78954,1394.32827 C2183.96911,1391.54397 2182.57598,1383.19127 2186.75556,1380.40707 C2189.54191,1379.01492 2193.72148,1387.36762 2196.50773,1384.58342 C2213.22603,1373.44652 2175.60996,1351.17271 2220.19205,1342.82001 L2220.19205,1342.82001 L2221.58527,1342.82001 C2222.9784,1324.72245 2220.19205,1266.25353 2218.79882,1266.25353 C2209.04645,1256.50868 2193.72148,1228.66647 2181.18276,1220.31377 C2174.21674,1216.13742 2164.46447,1220.31377 2156.10532,1216.13742 C2153.31887,1214.74527 2115.70281,1185.51081 2115.70281,1182.72651 C2097.59129,1166.02111 2053.00921,1209.17677 2030.71812,1213.35312 C2004.24746,1217.52937 1993.10206,1199.43201 1980.56334,1230.05843 C1979.17012,1234.23497 1984.74291,1239.80328 1983.34969,1245.37178 C1980.56334,1252.33233 1968.02462,1235.62693 1961.0586,1235.62693 C1942.94728,1237.01908 1926.22889,1249.54813 1910.90382,1259.29298 C1902.54467,1264.86139 1922.04931,1323.3303 1887.2195,1299.66425 L1883.04003,1299.66425 L1883.04003,1299.66425 L1883.04003,1299.66425 Z" id="mk" stroke="#FFFFFF" stroke-width="3" fill="#87B024"></path>
                                        <path d="M1586.29042,1224.49012 C1569.57222,1196.64771 1543.10156,1206.39257 1512.45142,1182.72651 C1504.09228,1175.76596 1501.30593,1163.237 1491.55356,1160.45261 C1485.98086,1157.6685 1479.01484,1163.237 1472.04901,1164.62915 C1474.83526,1166.02111 1476.22858,1166.02111 1479.01484,1167.41335 C1481.80119,1168.8055 1484.58763,1177.15811 1481.80119,1177.15811 C1459.51029,1175.76596 1442.7919,1154.8843 1420.501,1152.1 C1410.74863,1150.70795 1399.60304,1153.49215 1389.85077,1152.1 C1387.06432,1152.1 1384.27797,1145.13945 1382.88475,1146.5316 C1380.0984,1147.92365 1380.0984,1154.8843 1382.88475,1156.27625 C1391.24389,1159.06065 1400.99626,1154.8843 1410.74863,1156.27625 C1419.10768,1157.6685 1428.86005,1160.45261 1438.61233,1166.02111 C1441.39877,1167.41335 1440.00555,1172.98185 1442.7919,1174.37381 C1490.16043,1199.43201 1480.40806,1159.06065 1554.24715,1217.52937 C1563.99952,1224.49012 1576.53824,1231.45058 1589.07696,1234.23497 L1586.29042,1224.49012 L1586.29042,1224.49012 Z M1612.76108,787.36559 C1600.22236,773.444387 1621.12023,780.405037 1626.69303,770.660185 C1628.08625,769.268035 1628.08625,766.483834 1626.69303,765.091684 C1608.58151,746.994324 1621.12023,740.033674 1622.51345,721.93612 C1623.90668,714.975567 1658.73639,742.817779 1654.55691,714.975567 C1635.05217,714.975567 1612.76108,709.407067 1596.04279,698.270162 C1589.07696,692.701662 1601.61559,689.917557 1601.61559,688.525311 C1601.61559,684.349057 1587.68364,681.564855 1596.04279,673.211958 C1597.43601,671.820003 1607.18838,680.172705 1608.58151,671.820003 C1609.97473,656.506651 1580.71782,674.604205 1580.71782,660.683002 C1583.50417,628.664439 1589.07696,637.017044 1565.39265,603.606235 L1563.99952,600.822033 C1559.81995,602.214182 1555.64038,602.214182 1548.67436,603.606235 C1538.92199,603.606235 1537.52896,623.095938 1534.74241,625.880043 C1516.631,641.193395 1455.33072,642.585545 1435.82598,634.232745 C1426.07361,630.056394 1417.71446,620.311736 1406.56906,616.135385 C1403.78252,614.743236 1375.91882,618.919587 1371.73925,613.351086 C1342.48214,575.763926 1310.43887,559.058618 1272.82271,528.43201 C1263.07044,527.039861 1239.38613,521.47136 1233.81333,522.86351 C1218.48836,525.647712 1239.38613,545.137415 1231.02698,550.705916 C1224.06116,553.490118 1215.70201,549.313766 1208.73599,552.097968 C1205.94964,553.490118 1210.12921,559.058618 1207.34286,561.842723 C1193.41092,572.979821 1171.11993,574.371776 1157.18798,586.90083 C1140.46969,602.214182 1187.83812,641.193395 1166.94035,656.506651 C1118.1786,691.309512 1148.82884,632.840693 1116.78538,678.780556 C1112.6058,684.349057 1129.3241,685.741206 1132.11054,692.701662 C1134.89689,698.270162 1118.1786,696.878013 1118.1786,702.446514 C1118.1786,705.230715 1132.11054,723.328269 1126.53775,730.288822 C1111.21277,745.602175 1088.92168,721.93612 1074.98974,721.93612 C1054.09197,721.93612 1094.49438,741.425824 1059.66457,731.680972 C1049.9124,728.89677 1037.37368,713.583418 1033.19411,705.230715 C1030.40766,702.446514 1027.62131,694.093811 1026.22808,696.878013 C1020.65529,705.230715 1022.04851,714.975567 1016.47571,721.93612 C998.364393,745.602175 973.286856,721.93612 952.388989,728.89677 C949.602639,730.288822 955.175339,735.857323 952.388989,738.641428 C939.850269,745.602175 914.772927,744.209928 902.234207,738.641428 C898.054634,738.641428 889.69539,734.465076 889.69539,738.641428 C891.088613,749.778429 900.840983,758.131131 905.020557,767.875983 C905.020557,769.268035 902.234207,769.268035 902.234207,770.660185 C903.627333,781.797186 900.840983,792.93409 906.41378,801.286793 C906.41378,801.286793 907.806906,801.286793 907.806906,802.678942 C902.234207,811.031547 924.525102,820.776399 931.49122,830.521154 C937.064017,838.873856 941.243493,875.068867 948.209416,866.716165 C955.175339,858.36356 959.354912,847.226558 964.927709,837.481804 C966.320933,833.305453 967.714156,829.129101 967.714156,824.95275 C967.714156,823.560601 963.534583,824.95275 963.534583,822.168451 C963.534583,820.776399 963.534583,815.207898 964.927709,816.600145 C970.500506,817.9921 966.320933,850.010857 981.645905,824.95275 C984.432449,817.9921 984.432449,811.031547 984.432449,802.678942 C984.432449,801.286793 981.645905,799.894546 981.645905,797.110441 C981.645905,795.718292 983.039226,801.286793 984.432449,799.894546 C995.577848,794.32624 985.825478,756.738982 998.364393,756.738982 C1038.7668,753.95478 1024.83486,769.268035 1049.9124,790.149888 C1055.485,794.32624 1063.84415,790.149888 1068.02382,794.32624 C1093.10126,823.560601 1063.84415,859.755709 1091.70803,890.38222 C1100.06718,900.126974 1123.7514,921.008827 1133.50367,927.969283 C1144.64926,933.537881 1179.47898,939.106187 1168.33338,943.282538 C1148.82884,948.851039 1112.6058,908.479677 1118.1786,961.380093 C1119.57182,978.0854 1183.65855,1014.28051 1193.41092,1026.80956 C1196.19727,1028.20171 1182.26533,1022.63321 1185.05177,1024.02536 C1193.41092,1029.59386 1229.63376,1040.73077 1231.02698,1044.90702 C1233.81333,1054.65187 1225.45419,1069.96513 1232.4203,1078.31783 C1236.59978,1081.10213 1279.78874,1065.78878 1281.18196,1064.39672 C1309.04565,1058.82822 1289.54111,1069.96513 1324.37082,1082.49418 C1335.51631,1085.27848 1348.05494,1081.10213 1359.20063,1085.27848 C1374.5256,1090.84688 1384.27797,1115.90499 1400.99626,1124.25769 C1420.501,1132.61039 1433.03963,1138.17889 1438.61233,1143.7473 C1438.61233,1145.13945 1440.00555,1143.7473 1440.00555,1143.7473 C1442.7919,1143.7473 1445.57835,1140.9631 1446.97147,1143.7473 C1452.54427,1153.49215 1444.18512,1153.49215 1456.72384,1159.06065 C1460.90342,1154.8843 1470.65569,1154.8843 1472.04901,1149.3158 C1479.01484,1131.21824 1419.10768,1107.55238 1413.53489,1097.80753 C1407.96209,1089.45483 1412.14166,1076.92578 1406.56906,1068.57307 C1402.38949,1063.00457 1392.63712,1064.39672 1385.67119,1061.61242 C1356.41408,1043.51487 1338.30266,1010.10416 1313.22522,989.222401 C1304.86608,983.653901 1272.82271,951.635241 1263.07044,947.45889 C1258.89087,946.066837 1253.31807,951.635241 1249.1385,948.851039 C1242.17267,941.890486 1258.89087,926.577134 1258.89087,923.793029 C1257.49765,918.224529 1250.53172,916.832282 1246.35215,912.656028 C1235.20656,895.950623 1231.02698,873.676718 1215.70201,859.755709 C1210.12921,852.795059 1198.98362,852.795059 1192.0177,847.226558 C1186.4449,843.050207 1176.69272,762.307482 1207.34286,763.699632 C1221.27471,763.699632 1244.95893,794.32624 1257.49765,801.286793 L1268.64314,799.894546 L1257.49765,801.286793 C1274.21594,799.894546 1271.42959,773.444387 1279.78874,762.307482 C1295.11371,744.209928 1302.07973,766.483834 1321.58437,762.307482 C1327.15717,760.915333 1327.15717,749.778429 1332.72996,745.602175 C1332.72996,745.602175 1341.08911,753.95478 1364.77323,760.915333 C1367.55968,762.307482 1371.73925,763.699632 1375.91882,762.307482 C1378.70517,762.307482 1380.0984,756.738982 1384.27797,755.34693 C1400.99626,753.95478 1438.61233,774.836536 1456.72384,772.052334 C1460.90342,772.052334 1465.08289,769.268035 1466.47621,765.091684 C1470.65569,762.307482 1469.26247,752.562631 1474.83526,752.562631 C1483.19441,751.170675 1488.76721,759.523281 1497.12635,762.307482 C1512.45142,766.483834 1494.34,755.34693 1502.69915,752.562631 C1511.0583,749.778429 1520.81067,749.778429 1529.16981,752.562631 C1534.74241,753.95478 1538.92199,762.307482 1544.49478,762.307482 C1548.67436,762.307482 1544.49478,752.562631 1548.67436,752.562631 C1580.71782,753.95478 1572.35867,788.757739 1587.68364,791.541941 C1597.43601,792.93409 1605.79516,790.149888 1612.76108,787.36559 L1612.76108,787.36559 L1612.76108,787.36559 Z" id="hr" stroke="#FFFFFF" stroke-width="3" fill="#87B024"></path>
                                        <path d="M1590.86258,1234.24913 C1597.82753,1235.64031 1601.62162,1235.68688 1608.58764,1235.68688 C1605.80168,1238.46933 1603.01465,1241.25169 1604.40875,1245.42542 C1623.91271,1288.55339 1628.09277,1248.20787 1647.59683,1257.94651 C1651.77689,1260.72896 1648.99093,1266.29387 1651.77689,1270.4675 C1662.92297,1284.37986 1676.85394,1281.59741 1686.60699,1296.90085 C1689.39305,1301.07448 1686.60699,1309.42194 1690.78598,1313.59557 C1699.14503,1321.94303 1710.29111,1326.11656 1721.43612,1328.89921 L1721.43612,1301.07448 C1721.43612,1295.50948 1724.22315,1288.55339 1721.43612,1282.98849 C1717.25713,1276.0325 1704.71802,1276.0325 1703.32509,1269.07642 C1703.32509,1267.68514 1747.90727,1177.25526 1752.08733,1174.47281 C1753.48026,1173.08163 1760.44628,1207.86235 1771.59129,1209.25352 L1803.63991,1184.90597 C1800.7125,1170.25731 1803.19394,1169.82115 1807.57886,1155.42319 C1809.73222,1148.35258 1806.54748,1152.8908 1814.14265,1146.63662 C1817.48242,1143.8871 1824.57837,1134.96084 1824.57837,1134.96084 C1824.57837,1134.96084 1844.21208,1127.72326 1836.50755,1121.83528 C1821.22554,1110.15519 1798.47374,1091.68897 1783.59973,1084.78262 C1773.9992,1080.32516 1786.03855,1061.3324 1776.6757,1052.12996 C1759.14395,1034.89739 1716.60815,1024.40567 1703.32509,1015.87287 C1697.752,1020.04651 1690.78598,1006.13424 1683.81996,1008.91669 C1675.46091,1011.69915 1674.06798,1022.82896 1668.49489,1029.78524 C1658.74291,1032.56759 1632.27176,1027.00269 1630.87873,1033.95897 C1626.69984,1053.43595 1661.52887,1054.82722 1650.38386,1084.04303 L1644.81087,1084.04303 L1650.38386,1084.04303 C1636.45182,1074.30439 1636.45182,1064.56586 1621.12675,1065.95703 L1623.91271,1061.78331 L1621.12675,1065.95703 C1601.62162,1088.21676 1604.40875,1120.21492 1598.83566,1127.1711 C1587.68958,1141.08337 1583.51059,1120.21492 1579.33053,1141.08337 C1572.36451,1181.42899 1615.47754,1182.82017 1583.43447,1213.42716 L1583.43447,1218.63303 L1590.86258,1234.24913 L1590.86258,1234.24913 Z" id="me" stroke="#FFFFFF" stroke-width="3" fill="#87B024"></path>
                                        <path d="M1887.6417,1089.55985 C1890.85811,1078.99702 1883.0587,1082.23689 1885.84515,1061.97107 C1907.70064,1051.85448 1918.12376,1051.4094 1925.08978,1058.36549 C1943.69095,1073.67622 1950.46673,1081.0494 1957.83996,1092.14774 C1963.35249,1100.44518 1968.37634,1115.83517 1968.37634,1115.83517 C2003.20654,1139.48617 1973.79165,1134.52243 1982.1507,1128.95762 C1985.98197,1126.52301 1985.8729,1129.70771 1983.83721,1135.8325 C1981.80152,1141.9573 2017.41135,1138.04768 2013.53614,1147.37349 C2009.66084,1156.6993 2038.02507,1158.25405 2036.33778,1165.42228 C2035.91599,1167.21444 2039.18071,1172.63957 2032.32881,1176.0568 C2025.47692,1179.47404 2035.49545,1188.80975 2026.75913,1192.45555 C2018.0228,1196.10144 2004.25534,1217.60118 2030.72532,1213.42754 C2053.01641,1209.25382 2097.59859,1166.12564 2115.71079,1182.82046 C2122.67681,1170.29937 2142.18077,1167.51702 2135.21475,1149.43102 C2133.82182,1143.86621 2129.64283,1141.08366 2125.46277,1138.30131 C2122.67681,1136.90993 2118.49675,1139.69248 2117.10372,1136.90993 C2115.71079,1129.95385 2117.10372,1122.99767 2117.10372,1116.04158 C2115.71079,1107.69432 2105.95764,1099.34686 2110.1377,1092.39068 C2150.53982,1025.6118 2104.56471,1107.69432 2149.14679,1072.91351 C2153.32695,1068.73988 2182.58406,1017.26434 2174.22501,1008.91708 C2163.07893,1000.56962 2110.1377,975.527544 2107.35174,972.745188 C2090.63257,958.832824 2064.16259,900.401208 2073.91457,879.532857 C2078.09463,869.794222 2093.4197,871.1854 2098.99162,862.838234 C2103.17168,853.099502 2097.59859,840.578413 2101.77865,830.839875 C2082.27362,822.492418 2064.16259,809.971427 2066.94855,790.494351 C2068.34148,777.973166 2114.31776,776.582085 2100.38572,769.625806 C1952.70714,695.890745 2085.06065,762.669721 2025.15233,797.450436 C2015.40035,804.406423 2009.82726,779.364441 2000.07528,775.190809 C1993.10926,771.017081 1983.35718,775.190809 1976.39116,775.190809 C1968.03211,775.190809 1959.67316,779.364441 1951.31411,776.582085 C1947.13405,773.799437 1949.92001,766.843352 1947.13405,761.278446 C1940.16803,747.366374 1880.26078,769.625806 1913.69688,745.975098 C1922.057,740.410095 1942.95399,734.845091 1935.98797,729.280281 C1929.02302,725.106553 1915.09098,729.280281 1912.30385,720.933019 C1910.91092,712.585562 1940.16803,697.28202 1920.6629,686.152304 C1894.19282,670.848762 1841.25169,677.804944 1823.13949,645.806682 C1818.9606,638.850403 1818.9606,605.460964 1818.9606,597.113701 L1818.9606,594.331151 C1814.78054,595.722329 1811.99458,604.069786 1809.20745,601.287235 C1799.45547,595.722329 1798.06244,580.418884 1789.70349,573.462897 C1781.34444,567.897893 1768.80533,569.288974 1760.44628,562.332889 C1752.08733,558.159258 1747.90727,548.42072 1742.33418,541.464538 C1735.36816,541.464538 1728.40214,534.508356 1721.43612,534.508356 C1720.04309,534.508356 1683.81996,545.638169 1682.42693,545.638169 C1658.74291,544.246991 1685.21406,523.378543 1653.16982,544.246991 C1637.84475,552.594254 1629.4858,569.288974 1616.94669,579.027609 C1604.40875,588.766244 1598.83566,574.85388 1594.6556,579.027609 C1576.54457,599.896057 1575.15154,601.287235 1564.00546,601.287235 L1565.39849,604.069786 C1589.08368,637.459225 1583.51059,629.111963 1580.72356,661.11003 C1580.72356,675.022394 1609.98067,656.936301 1608.58764,672.240037 C1607.19471,680.5873 1597.44263,672.240037 1596.04863,673.631021 C1587.68958,681.978575 1601.62162,684.761029 1601.62162,688.93466 C1601.62162,690.326032 1589.08368,693.108291 1596.04863,698.673198 C1612.7677,709.803011 1635.05879,715.368015 1654.56285,715.368015 C1658.74291,743.192451 1623.91271,715.368015 1622.51978,722.3241 C1621.12675,740.410095 1608.58764,747.366374 1626.69984,765.452077 C1628.09277,766.843352 1628.09277,769.625806 1626.69984,771.017081 C1621.12675,780.755619 1600.22869,773.799437 1612.7677,787.711898 C1626.69984,783.538169 1637.84475,775.190809 1653.16982,776.582085 C1653.16982,819.710062 1628.09277,848.92587 1632.27176,875.359128 C1637.84475,905.966212 1646.2038,883.706488 1665.70893,892.053945 C1678.24804,897.618852 1681.034,915.70475 1693.57311,922.660932 C1697.752,924.052207 1711.68404,919.878478 1707.50515,932.399469 C1699.14503,960.224197 1664.3159,929.61721 1657.34988,939.355554 C1657.34988,939.355554 1720.04309,997.787171 1703.32509,1015.87326 C1736.08013,1032.9202 1719.65172,1026.33935 1770.71572,1047.82733 C1788.06394,1053.40476 1771.87214,1083.00416 1787.22481,1089.09302 C1811.52467,1098.73063 1811.99157,1109.94758 1828.59136,1118.70116 C1844.07333,1126.86581 1841.6746,1123.45627 1851.28074,1125.58764 C1873.57183,1125.58764 1884.42529,1100.12268 1887.6417,1089.55985 L1887.6417,1089.55985 Z" id="sr" stroke="#FFFFFF" stroke-width="3" fill="#FFFFFF"></path>
                                        <path d="M1876.52375,1245.41143 C1882.6767,1255.35454 1885.23418,1263.94512 1888.02014,1268.11875 C1888.65483,1273.99926 1880.60778,1285.64486 1883.60151,1297.76103 C1889.4371,1302.81993 1897.81506,1305.83995 1903.11411,1305.54886 C1908.41317,1305.25776 1906.15637,1299.35922 1910.64029,1300.47875 C1910.64029,1290.74002 1907.46889,1257.32464 1915.58676,1255.35454 C1938.51769,1249.78953 1931.66375,1238.9623 1948.79587,1237.56675 C1948.79587,1236.17547 1956.10433,1239.11354 1968.32245,1237.56675 C1976.83435,1245.41143 1976.83435,1250.36256 1981.51411,1247.25115 C1986.19387,1244.13975 1984.53129,1216.97795 1990.05014,1213.37091 C2001.08783,1206.15674 2028.03434,1218.94563 2021.92329,1210.7397 C2020.39552,1208.68819 2039.62078,1171.02206 2037.65722,1167.42911 C2035.69367,1163.83606 2042.57482,1155.17388 2040.38311,1151.01919 C2038.1913,1146.8644 2020.44918,1153.07138 2018.23667,1149.33476 C2016.71995,1146.77317 2014.43448,1142.76629 2009.42296,1140.9502 C2007.12391,1140.11706 2002.28914,1143.18643 2000.17949,1140.9502 C1993.47127,1133.83937 2002.43041,1130.39475 2000.50427,1128.92266 C1992.86322,1123.08276 1988.05061,1113.57453 1976.83435,1107.88791 C1965.61798,1102.20139 1956.8733,1076.15017 1949.4362,1072.69709 C1939.83577,1068.23953 1923.29104,1056.47885 1917.6107,1054.64762 C1913.32289,1053.26531 1904.02325,1046.60643 1887.2445,1061.06013 C1870.46564,1075.51383 1893.59265,1077.69307 1888.02014,1092.30093 L1861.80213,1121.50508 C1849.72506,1131.53726 1841.22311,1117.74359 1835.65002,1124.69978 C1824.50394,1138.61204 1809.81356,1138.75007 1805.6335,1159.61852 C1793.68807,1202.30608 1818.46998,1180.77393 1818.46998,1202.30608 C1818.46998,1202.30608 1822.68972,1220.61515 1831.6154,1226.89562 C1840.54107,1233.17608 1853.72217,1227.33942 1864.53793,1233.82469 L1876.52375,1245.41143 L1876.52375,1245.41143 Z" id="path2228" stroke="#FFFFFF" stroke-width="3" fill="#87B024"></path>
                                        <path d="M2893.10287,2324.26178 C2877.7778,2353.49623 2905.64149,2334.00663 2890.31652,2377.16219 C2888.9233,2381.33854 2776.07491,2406.39665 2764.92942,2410.573 C2756.57027,2413.3572 2678.5517,2449.55221 2670.19255,2442.59166 C2645.11502,2414.74935 2689.6971,2417.53365 2610.28521,2407.7888 C2529.48028,2398.04395 2629.78995,2417.53365 2561.52355,2417.53365 C2557.34398,2417.53365 2555.95095,2410.573 2551.77137,2410.573 C2543.41223,2409.18085 2533.65986,2410.573 2523.90749,2411.96515 C2514.15512,2414.74935 2503.00962,2420.31785 2493.25725,2421.71 C2472.35948,2421.71 2480.71863,2395.25975 2482.11185,2386.90704 C2482.11185,2375.77004 2477.93228,2363.24109 2482.11185,2353.49623 C2497.43682,2310.34057 2511.36877,2359.06473 2521.12114,2363.24109 C2530.87351,2367.41744 2542.019,2361.84884 2551.77137,2357.67259 C2558.7372,2354.88838 2562.91677,2336.79083 2568.48957,2342.35933 C2575.45549,2347.92783 2551.77137,2353.49623 2554.55763,2360.45688 C2555.95095,2367.41744 2568.48957,2363.24109 2575.45549,2366.02519 C2582.42151,2368.80959 2587.99421,2378.55424 2596.35336,2379.94639 C2603.31938,2381.33854 2608.89218,2375.77004 2615.858,2372.98594 C2629.78995,2368.80959 2639.54232,2357.67259 2652.08104,2353.49623 C2667.40611,2349.31988 2682.73127,2350.71203 2698.05625,2347.92783 C2707.80862,2345.14353 2699.44947,2356.28053 2707.80862,2357.67259 C2723.13369,2361.84884 2738.45885,2349.31988 2755.17705,2350.71203 C2759.35662,2350.71203 2762.14297,2359.06473 2766.32254,2357.67259 C2773.28856,2356.28053 2798.36591,2335.39868 2810.90463,2338.18298 C2813.69107,2339.57503 2790.00686,2368.80959 2823.44335,2378.55424 C2830.40937,2381.33854 2830.40937,2366.02519 2835.98207,2361.84884 C2865.23908,2332.61448 2861.0596,2370.20154 2893.10287,2324.26178 L2893.10287,2324.26178 L2893.10287,2324.26178 Z M2606.10573,1270.42991 L2607.49895,1269.03785 L2607.49895,1269.03785 L2608.89218,1269.03785 L2608.89218,1269.03785 L2608.89218,1269.03785 L2608.89218,1269.03785 L2608.89218,1269.03785 L2608.89218,1269.03785 L2608.89218,1269.03785 L2608.89218,1269.03785 L2608.89218,1269.03785 L2608.89218,1269.03785 L2608.89218,1269.03785 L2608.89218,1269.03785 L2608.89218,1269.03785 L2608.89218,1269.03785 L2608.89218,1269.03785 L2608.89218,1269.03785 L2608.89218,1269.03785 L2608.89218,1269.03785 L2608.89218,1269.03785 L2608.89218,1269.03785 C2610.28521,1269.03785 2653.47416,1255.11665 2653.47416,1255.11665 C2684.1243,1231.4506 2596.35336,1192.47138 2650.68781,1181.33448 L2650.68781,1181.33448 L2650.68781,1181.33448 L2650.68781,1181.33448 L2652.08104,1181.33448 L2652.08104,1181.33448 L2652.08104,1181.33448 L2652.08104,1181.33448 L2652.08104,1181.33448 L2652.08104,1181.33448 L2656.26061,1181.33448 L2656.26061,1181.33448 L2657.65374,1181.33448 L2657.65374,1181.33448 L2659.04696,1181.33448 L2659.04696,1181.33448 L2659.04696,1181.33448 L2659.04696,1181.33448 C2661.83331,1181.33448 2664.61976,1181.33448 2666.01279,1182.72653 L2666.01279,1182.72653 L2668.79933,1182.72653 L2668.79933,1182.72653 C2699.44947,1189.68718 2741.2451,1218.92164 2720.34734,1243.97965 C2705.02227,1260.68505 2689.6971,1252.33235 2684.1243,1280.17476 L2695.2699,1320.54612 C2693.87667,1330.29087 2674.37213,1362.30953 2664.61976,1367.87803 L2663.22653,1383.19129 C2639.54232,1370.66224 2684.1243,1369.27009 2661.83331,1349.78048 C2650.68781,1341.42788 2606.10573,1360.91738 2592.17379,1359.52533 C2547.5918,1356.74103 2542.019,1327.50667 2512.76199,1363.70168 C2505.79597,1372.05439 2498.83005,1379.01494 2490.471,1384.58344 C2451.46162,1405.4651 2472.35948,1356.74103 2433.3502,1380.40709 C2418.02503,1390.15194 2429.17062,1413.8178 2398.52039,1427.739 C2372.04982,1438.87591 2369.26347,1405.4651 2344.18593,1437.48386 C2334.43366,1450.01291 2351.15195,1448.62076 2355.33153,1451.40506 C2367.87025,1458.36561 2366.47693,1479.24727 2377.62262,1490.38427 C2380.40887,1493.16847 2385.98167,1491.77632 2391.55446,1490.38427 C2392.94759,1490.38427 2394.34081,1488.99212 2395.73404,1486.20792 C2395.73404,1483.42362 2390.16124,1477.85532 2394.34081,1477.85532 C2399.91361,1476.46307 2399.91361,1488.99212 2405.48631,1490.38427 C2420.81148,1494.56062 2452.85474,1500.12903 2458.42754,1521.01088 C2469.57313,1561.38214 2422.20451,1502.91333 2422.20451,1502.91333 C2406.87953,1494.56062 2362.29745,1488.99212 2358.11788,1515.44238 C2353.9383,1532.14769 2390.16124,1526.57919 2401.30674,1537.71619 C2409.66588,1546.06889 2408.27276,1573.9112 2398.52039,1569.73485 C2376.2293,1561.38214 2374.83607,1536.32404 2352.54508,1525.18723 C2346.97238,1523.79508 2341.39958,1526.57919 2335.82679,1525.18723 C2328.86086,1525.18723 2320.50172,1518.22658 2316.32224,1523.79508 C2284.27878,1558.59794 2377.62262,1568.34279 2370.6565,1580.87185 C2367.87025,1585.0482 2331.64721,1583.65595 2320.50172,1580.87185 C2316.32224,1579.4797 2306.56987,1534.93189 2306.56987,1534.93189 C2295.42437,1521.01088 2256.41509,1529.36358 2241.08992,1518.22658 C2211.83291,1495.95267 2241.08992,1500.12903 2241.08992,1472.28672 C2241.08992,1466.71822 2225.76485,1482.03157 2217.40571,1488.99212 C2210.43969,1495.95267 2199.29429,1501.52118 2197.90097,1511.26603 C2196.50774,1518.22658 2210.43969,1519.61873 2211.83291,1526.57919 L2202.08054,1568.34279 C2206.26011,1594.79305 2238.30357,1607.32201 2253.62854,1624.02741 L2271.74006,1660.22242 C2281.49243,1669.96718 2352.54508,1704.77004 2341.39958,1721.47554 C2338.61323,1725.65189 2284.27878,1697.80958 2280.09921,1699.20173 C2275.91963,1699.20173 2280.09921,1707.55444 2280.09921,1711.73079 C2277.31286,1721.47554 2261.98769,1742.3573 2271.74006,1740.96515 C2274.52641,1739.573 2273.13328,1732.61245 2275.91963,1734.0046 C2280.09921,1735.39665 2278.70598,1742.3573 2282.88556,1745.1415 C2292.63793,1752.10205 2323.28807,1752.10205 2299.60395,1772.98391 C2280.09921,1789.68921 2260.59466,1791.08136 2234.124,1802.21827 C2229.94443,1803.61042 2242.48315,1807.78677 2246.66272,1806.39462 C2250.84229,1805.00247 2253.62854,1798.04192 2259.20134,1798.04192 C2264.77414,1798.04192 2264.77414,1806.39462 2268.95371,1809.17882 C2271.74006,1810.57097 2274.52641,1807.78677 2277.31286,1806.39462 C2288.45835,1806.39462 2299.60395,1803.61042 2309.35612,1807.78677 C2317.71527,1810.57097 2316.32224,1824.49217 2324.68129,1825.88432 C2334.43366,1828.66852 2344.18593,1813.35517 2352.54508,1817.53142 C2360.90432,1821.70778 2351.15195,1839.80533 2359.5111,1843.98168 C2370.6565,1850.94233 2384.58844,1831.45263 2394.34081,1838.41328 C2399.91361,1841.19748 2394.34081,1863.47138 2416.6319,1864.86353 C2444.4956,1866.25559 2452.85474,1856.51073 2472.35948,1878.78454 C2487.68445,1895.49014 2464.00034,1888.52939 2464.00034,1898.27425 C2464.00034,1905.2348 2472.35948,1909.41115 2473.75271,1914.97965 C2476.53906,1921.9402 2472.35948,1930.293 2475.14583,1935.86141 C2482.11185,1948.39036 2500.22337,1953.95886 2484.8982,1977.62492 C2482.11185,1981.80127 2476.53906,1979.01697 2472.35948,1977.62492 C2469.57313,1974.84062 2472.35948,1970.66427 2470.96626,1967.88007 C2469.57313,1965.09587 2452.85474,1953.95886 2451.46162,1953.95886 C2448.67517,1952.56671 2447.28204,1959.52736 2444.4956,1958.13522 C2434.74342,1951.17476 2419.41825,1923.33235 2405.48631,1919.156 C2387.37479,1913.5875 2397.12716,1934.46935 2387.37479,1937.25356 C2370.6565,1942.82206 2323.28807,1956.74307 2327.46764,1963.70372 C2331.64721,1973.44857 2348.36551,1969.27222 2358.11788,1973.44857 C2362.29745,1974.84062 2349.75873,1977.62492 2349.75873,1981.80127 C2349.75873,1985.97762 2356.72475,1985.97762 2358.11788,1988.76182 C2360.90432,1994.33032 2356.72475,2002.68303 2360.90432,2006.85938 C2376.2293,2022.17254 2402.69996,2013.81983 2416.6319,2030.52524 C2424.99105,2040.27009 2394.34081,2043.05439 2381.80209,2043.05439 C2362.29745,2044.44644 2346.97238,2043.05439 2341.39958,2041.66224 C2337.22001,2040.27009 2340.00636,2033.30954 2337.22001,2029.13319 C2335.82679,2027.74104 2331.64721,2027.74104 2330.25409,2027.74104 C2319.10849,2027.74104 2303.78352,2019.38833 2296.8175,2027.74104 C2285.672,2043.05439 2331.64721,2077.85735 2337.22001,2087.602 C2338.61323,2093.17051 2334.43366,2098.73901 2335.82679,2102.91536 C2338.61323,2107.09171 2346.97238,2102.91536 2349.75873,2107.09171 C2355.33153,2116.83656 2372.04982,2147.46307 2377.62262,2159.99212 C2383.19522,2172.52118 2366.47693,2164.16848 2366.47693,2168.34483 C2366.47693,2172.52118 2372.04982,2173.91333 2373.44304,2176.69753 C2373.44304,2179.48173 2367.87025,2183.65799 2369.26347,2186.44238 C2370.6565,2189.22649 2402.69996,2207.32404 2399.91361,2218.46094 C2397.12716,2222.6373 2387.37479,2222.6373 2381.80209,2221.24524 C2377.62262,2218.46094 2379.01565,2210.10824 2374.83607,2207.32404 C2372.04982,2204.53974 2366.47693,2211.50039 2362.29745,2208.71619 C2338.61323,2190.61873 2328.86086,2134.93392 2294.03115,2183.65799 C2292.63793,2186.44238 2295.42437,2215.67674 2298.21072,2232.38215 C2299.60395,2236.5585 2299.60395,2246.30335 2295.42437,2244.9111 C2260.59466,2240.73485 2282.88556,2205.93189 2271.74006,2190.61873 C2270.34684,2189.22649 2266.16726,2190.61873 2264.77414,2189.22649 C2256.41509,2180.87388 2252.23552,2171.12903 2245.2695,2161.38418 C2241.08992,2154.42362 2238.30357,2141.89457 2229.94443,2140.50242 C2163.07125,2125.18926 2222.97841,2189.22649 2199.29429,2200.36339 C2158.89168,2218.46094 2170.03718,2172.52118 2168.64405,2162.77633 C2168.64405,2159.99212 2164.46448,2159.99212 2163.07125,2159.99212 C2150.53253,2161.38418 2143.56651,2144.67877 2140.78016,2129.36561 C2137.99391,2108.48386 2154.71211,2132.14972 2157.49846,2100.13106 C2158.89168,2077.85735 2122.66874,2050.01494 2104.55723,2044.44644 C2100.37765,2043.05439 2096.19808,2052.79914 2093.41173,2048.62279 C2087.83893,2041.66224 2093.41173,2029.13319 2086.44581,2022.17254 C2078.08676,2013.81983 2040.4705,2024.95683 2059.97524,1998.50667 C2061.36837,1997.11453 2066.94116,1999.89882 2068.33439,1997.11453 C2090.62538,1981.80127 2079.47979,1969.27222 2086.44581,1942.82206 C2086.44581,1940.03776 2089.23216,1948.39036 2092.01851,1948.39036 C2093.41173,1948.39036 2089.23216,1942.82206 2090.62538,1942.82206 C2104.55723,1942.82206 2118.48917,1956.74307 2129.63476,1945.60626 C2144.95974,1930.293 2124.06197,1928.90085 2151.92576,1910.8033 C2171.4304,1898.27425 2185.36234,1919.156 2200.68732,1924.7245 C2222.97841,1933.07721 2249.44897,1930.293 2273.13328,1937.25356 C2287.06523,1940.03776 2295.42437,1956.74307 2309.35612,1958.13522 C2314.92892,1959.52736 2326.07451,1952.56671 2324.68129,1945.60626 C2321.89504,1940.03776 2306.56987,1946.99841 2303.78352,1940.03776 C2289.85158,1908.0191 2338.61323,1955.35101 2355.33153,1909.41115 C2356.72475,1905.2348 2345.57916,1912.19545 2340.00636,1909.41115 C2337.22001,1908.0191 2340.00636,1901.05845 2337.22001,1901.05845 C2334.43366,1901.05845 2333.04044,1917.76385 2326.07451,1909.41115 C2314.92892,1895.49014 2306.56987,1914.97965 2288.45835,1906.62695 C2278.70598,1901.05845 2275.91963,1884.35314 2264.77414,1882.96089 C2257.80812,1881.56894 2261.98769,1903.84275 2253.62854,1903.84275 C2228.5512,1902.4506 2245.2695,1845.37383 2227.15798,1877.39259 C2224.37163,1882.96089 2234.124,1894.0979 2228.5512,1898.27425 C2218.79883,1908.0191 2174.21675,1889.92164 2164.46448,1894.0979 C2146.35296,1901.05845 2132.42102,1917.76385 2105.95045,1924.7245 C2090.62538,1928.90085 2086.44581,1905.2348 2078.08676,1901.05845 C2073.90699,1899.6664 2079.47979,1910.8033 2076.69353,1913.5875 C2071.12064,1921.9402 2061.36837,1928.90085 2053.00922,1933.07721 C2050.22287,1934.46935 2051.61609,1927.5087 2050.22287,1927.5087 C2034.8977,1920.54815 2050.22287,1908.0191 2040.4705,1892.70575 C2034.8977,1884.35314 2027.93178,1876.00044 2019.57263,1870.43194 C2016.78638,1869.03989 2012.60681,1874.60829 2011.21359,1871.82409 C2004.24747,1866.25559 2007.03401,1853.72653 2000.06799,1849.55018 C1986.13615,1839.80533 1961.05861,1877.39259 1981.95657,1825.88432 C1979.17013,1824.49217 1976.38378,1823.09993 1972.2042,1820.31582 C1968.02463,1816.13947 1970.81098,1809.17882 1968.02463,1805.00247 C1952.69946,1785.51286 1913.69018,1767.4154 1896.97188,1753.4942 C1891.39909,1750.71 1899.75823,1736.7888 1895.57866,1732.61245 C1891.39909,1728.43609 1870.50132,1743.74935 1856.56937,1710.33854 C1857.9626,1708.94639 1857.9626,1708.94639 1859.35582,1707.55444 C1860.74895,1706.16219 1857.9626,1704.77004 1859.35582,1704.77004 C1883.04004,1700.59369 1898.36511,1720.08339 1896.97188,1683.88838 C1896.97188,1675.53568 1916.47662,1688.06473 1912.29705,1675.53568 L1894.18563,1647.69327 C1895.57866,1637.94862 1938.76771,1624.02741 1941.55406,1619.85106 C1941.55406,1618.45891 1949.91321,1562.77429 1949.91321,1562.77429 C1959.66548,1525.18723 1968.02463,1571.127 1981.95657,1518.22658 C1986.13615,1501.52118 1966.63141,1495.95267 1966.63141,1477.85532 C1976.38378,1479.24727 2069.72742,1450.01291 2075.30021,1445.83656 C2090.62538,1429.13115 2079.47979,1406.85734 2107.34367,1397.11249 C2117.09604,1392.93614 2171.4304,1399.8966 2179.78955,1394.32829 C2183.96912,1391.54399 2182.57599,1383.19129 2186.75557,1380.40709 C2189.54192,1379.01494 2193.72149,1387.36764 2196.50774,1384.58344 C2213.22604,1373.44654 2175.60997,1351.17273 2220.19206,1342.82002 L2220.19206,1342.82002 C2218.79883,1344.21198 2220.19206,1346.99638 2220.19206,1346.99638 C2221.58528,1344.21198 2221.58528,1335.85937 2221.58528,1324.72247 L2221.58528,1342.82002 L2220.19206,1342.82002 L2238.30357,1342.82002 C2243.87617,1342.82002 2250.84229,1346.99638 2255.02187,1342.82002 C2260.59466,1340.03573 2260.59466,1328.89882 2266.16726,1326.11452 C2281.49243,1316.36977 2302.3903,1321.93817 2319.10849,1316.36977 C2358.11788,1302.44857 2367.87025,1285.74326 2392.94759,1270.42991 C2397.12716,1267.6457 2404.09318,1278.78251 2409.66588,1275.99841 C2418.02503,1274.60626 2422.20451,1260.68505 2430.56385,1263.46935 C2441.70925,1264.8614 2444.4956,1280.17476 2454.24797,1285.74326 C2455.64119,1288.52736 2459.82076,1282.95886 2462.60711,1284.35111 C2466.78669,1285.74326 2469.57313,1295.48792 2473.75271,1294.09586 C2479.32541,1292.70371 2479.32541,1281.56691 2484.8982,1280.17476 C2500.22337,1275.99841 2518.33469,1284.35111 2532.26663,1291.31156 C2535.05308,1292.70371 2532.26663,1299.66427 2536.44621,1299.66427 C2555.95095,1301.05642 2586.60109,1277.39056 2606.10573,1270.42991 L2606.10573,1270.42991 L2606.10573,1270.42991 L2606.10573,1270.42991 L2606.10573,1270.42991 Z M2039.07728,1809.17882 C2055.79567,1778.55221 2013.99984,1811.96312 2012.60681,1810.57097 C2002.85444,1806.39462 1994.49529,1788.29706 1986.13615,1793.86556 C1983.3497,1793.86556 1993.10207,1814.74732 1991.70885,1823.09993 C2005.64079,1823.09993 2030.71813,1823.09993 2039.07728,1809.17882 L2039.07728,1809.17882 L2039.07728,1809.17882 Z M2015.39306,1974.84062 C2004.24747,1984.58547 2000.06799,1970.66427 1990.31572,1969.27222 C1984.74292,1969.27222 1979.17013,1976.23277 1973.59743,1974.84062 C1963.84506,1972.05642 1968.02463,1940.03776 1959.66548,1946.99841 C1955.48601,1949.78251 1962.45183,1959.52736 1959.66548,1965.09587 C1948.51989,1988.76182 1941.55406,1948.39036 1972.2042,1908.0191 C1976.38378,1914.97965 1981.95657,1921.9402 1984.74292,1930.293 C1984.74292,1931.68506 1980.56335,1944.21401 1987.52927,1945.60626 C1994.49529,1946.99841 2030.71813,1962.31157 2015.39306,1974.84062 L2015.39306,1974.84062 L2015.39306,1974.84062 Z M2491.86403,1856.51073 C2484.8982,1848.15803 2475.14583,1841.19748 2464.00034,1837.02113 C2447.28204,1831.45263 2423.59783,1857.90288 2405.48631,1839.80533 C2402.69996,1835.62898 2411.05911,1830.06067 2408.27276,1825.88432 C2404.09318,1813.35517 2321.89504,1774.37586 2306.56987,1777.16016 C2298.21072,1779.94436 2294.03115,1789.68921 2287.06523,1793.86556 C2282.88556,1795.25771 2289.85158,1785.51286 2292.63793,1782.72856 C2296.8175,1778.55221 2302.3903,1774.37586 2306.56987,1770.19951 C2312.14267,1764.6312 2316.32224,1760.45485 2321.89504,1756.2785 C2330.25409,1750.71 2338.61323,1746.53365 2346.97238,1742.3573 C2370.6565,1754.88635 2367.87025,1767.4154 2391.55446,1779.94436 C2395.73404,1782.72856 2401.30674,1784.12071 2406.87953,1784.12071 C2409.66588,1784.12071 2411.05911,1778.55221 2413.84546,1779.94436 C2420.81148,1782.72856 2426.38427,1791.08136 2434.74342,1793.86556 C2443.10247,1795.25771 2472.35948,1778.55221 2477.93228,1788.29706 C2479.32541,1789.68921 2476.53906,1791.08136 2476.53906,1792.47341 C2475.14583,1793.86556 2473.75271,1796.64977 2475.14583,1798.04192 C2480.71863,1803.61042 2490.471,1803.61042 2494.65057,1810.57097 C2494.65057,1811.96312 2491.86403,1853.72653 2505.79597,1863.47138 C2521.12114,1874.60829 2583.81464,1853.72653 2558.7372,1895.49014 C2544.80535,1917.76385 2507.18919,1889.92164 2498.83005,1880.17679 C2497.43682,1877.39259 2503.00962,1876.00044 2503.00962,1873.21624 C2501.6164,1869.03989 2497.43682,1864.86353 2493.25725,1862.07924 C2490.471,1862.07924 2487.68445,1869.03989 2486.29143,1866.25559 C2486.29143,1863.47138 2494.65057,1859.29503 2491.86403,1856.51073 L2491.86403,1856.51073 L2491.86403,1856.51073 Z M2474.94976,1396.54862 C2474.93751,1396.47247 2465.51974,1405.06684 2463.81019,1405.36058 C2466.84978,1409.51789 2463.00713,1410.37444 2459.63295,1413.24499 C2460.87501,1414.75196 2461.69003,1416.38082 2461.95366,1418.34666 C2458.89726,1420.57553 2458.82124,1425.02251 2459.16877,1427.15862 C2464.94425,1426.16638 2475.59893,1427.78378 2474.48558,1434.57921 C2482.32465,1430.41568 2475.98272,1436.68511 2482.84025,1435.50685 C2482.2878,1432.47457 2483.38726,1430.54322 2486.08923,1429.47754 C2489.34063,1430.90514 2485.22269,1429.88036 2490.26656,1429.01381 C2490.0249,1428.10161 2489.82688,1427.17795 2489.80238,1426.23107 C2491.07468,1425.62067 2491.43397,1425.7553 2491.19483,1427.15862 C2495.30441,1426.45254 2488.66055,1426.23214 2496.76461,1424.8397 C2494.84519,1422.19896 2498.39834,1418.30411 2494.90799,1417.88283 C2491.47528,1417.46836 2493.2172,1412.76737 2495.83625,1412.31744 C2495.49485,1408.69496 2494.03571,1407.69883 2491.19483,1409.07087 C2491.43222,1407.3098 2492.39373,1406.55933 2492.12309,1404.89676 C2493.56696,1405.1157 2494.85666,1405.14154 2496.30043,1405.36058 C2495.51857,1403.77494 2494.71444,1403.31276 2494.4439,1401.65029 C2489.02868,1405.59895 2488.0452,1395.81379 2483.76852,1396.54862 C2482.29898,1402.36754 2476.97116,1396.38873 2474.94976,1396.54862 L2474.94976,1396.54862 L2474.94976,1396.54862 Z M2749.72411,1603.86194 C2747.53289,1604.79483 2744.65176,1606.31588 2745.08269,1608.9636 C2743.68918,1608.88133 2739.80668,1604.13664 2740.44117,1608.03605 C2734.60562,1609.03869 2729.72282,1611.49982 2725.58855,1612.21007 C2733.97812,1614.96183 2715.95662,1630.14677 2715.37734,1626.58752 C2711.78298,1627.58549 2712.55707,1631.13707 2709.34348,1631.68919 C2711.48561,1624.88211 2704.86896,1630.79088 2705.16614,1632.61674 C2699.99482,1636.05641 2695.84908,1634.29058 2692.17004,1631.68919 C2692.53925,1633.95876 2687.20851,1639.32386 2685.67199,1644.21144 C2686.96771,1643.52149 2687.76475,1643.69993 2687.52862,1645.13909 C2680.86998,1644.12936 2681.55182,1649.71117 2687.52862,1646.53046 C2686.4247,1654.787 2694.18891,1651.95724 2695.41902,1659.51654 C2698.18417,1657.50563 2701.07289,1658.32964 2702.84543,1662.29919 C2707.93363,1661.36085 2717.62826,1664.26434 2720.48294,1661.83546 C2724.74505,1658.20793 2729.2218,1650.35266 2728.37344,1645.13909 C2730.72117,1643.99143 2733.4701,1641.44327 2733.01486,1638.64605 C2734.28453,1637.7762 2741.43486,1637.40291 2742.2978,1637.25468 C2743.61957,1645.37697 2753.41559,1639.48083 2743.22606,1649.77693 C2743.28225,1650.12244 2734.15631,1655.38905 2733.47904,1659.51654 C2726.43632,1657.39228 2734.45338,1663.64325 2725.58855,1662.29919 C2725.43039,1662.98914 2724.80279,1663.78157 2724.1961,1664.15438 C2725.52837,1665.79967 2732.43772,1672.2828 2731.15833,1672.50252 C2732.51996,1680.87008 2739.05961,1671.72757 2740.90535,1671.11115 C2741.4334,1674.35461 2749.63235,1673.92439 2752.509,1673.43016 C2756.29604,1674.96423 2756.29449,1677.75678 2760.3995,1678.99556 C2760.26146,1678.14649 2775.58653,1674.86806 2778.5012,1675.74909 C2777.97937,1672.5437 2779.47116,1675.51742 2780.82191,1675.28526 C2780.20773,1671.51105 2790.35312,1672.77566 2789.17658,1665.54575 C2785.7362,1667.3007 2783.31701,1666.45465 2781.75017,1662.76301 C2783.81327,1662.40846 2792.07161,1665.75945 2791.96138,1665.08193 C2796.82152,1661.54765 2794.13394,1668.45905 2797.99534,1659.98026 C2790.89488,1658.90381 2786.05155,1643.93616 2781.75017,1644.67527 C2783.28474,1642.21589 2782.63051,1639.79507 2780.35773,1637.7184 C2773.95786,1642.38471 2766.70254,1617.7877 2757.15043,1624.73242 C2756.25395,1619.22211 2763.01417,1615.94106 2762.25603,1611.28252 C2757.66613,1613.72704 2754.82067,1611.10991 2751.11656,1611.74635 C2752.51124,1607.31948 2750.79042,1610.41432 2749.72411,1603.86194 L2749.72411,1603.86194 L2749.72411,1603.86194 Z M1841.85469,1683.16967 C1841.58862,1684.0098 1835.28558,1683.4808 1836.28491,1683.6335 C1836.6825,1686.07695 1828.95804,1692.66285 1828.39441,1689.19889 C1824.18441,1688.56032 1819.86077,1692.30189 1816.32658,1692.90928 C1816.2561,1691.78309 1815.60936,1690.65515 1814.47005,1690.12654 C1814.08937,1691.38639 1810.13202,1695.43005 1814.00587,1694.76438 C1813.65183,1696.7748 1812.38265,1697.73576 1810.29271,1698.01095 C1812.49716,1700.9662 1815.01939,1704.58412 1818.64739,1704.96771 C1818.18632,1708.41758 1817.59149,1709.89735 1819.57565,1713.31595 C1833.1972,1710.97527 1822.73092,1719.55012 1829.32268,1718.41761 C1833.77065,1723.0098 1834.03691,1728.29544 1838.14144,1722.59163 C1839.75951,1726.13194 1843.46304,1730.02329 1846.49611,1730.93987 C1848.2391,1733.49891 1845.92023,1738.78804 1848.35274,1742.07075 C1851.03731,1741.19293 1852.81296,1742.67406 1853.45834,1746.70869 C1852.01466,1746.48974 1851.38697,1746.81806 1852.06589,1748.10006 C1860.16977,1746.70742 1853.526,1746.48722 1857.63558,1745.78104 C1858.87745,1748.08248 1856.35979,1748.28287 1856.70732,1750.41898 C1860.62607,1750.30494 1872.20017,1749.96983 1872.95239,1754.5931 C1874.51408,1755.20865 1885.88656,1757.93 1886.41266,1757.83957 C1887.33587,1752.2125 1881.9922,1742.45735 1875.73728,1745.78104 C1869.37639,1749.16195 1861.98119,1739.7732 1856.70732,1740.67937 C1856.20697,1736.60065 1855.28833,1722.34238 1851.13753,1723.05545 C1851.42421,1719.91836 1852.70525,1717.94709 1852.52998,1714.70732 C1849.54717,1715.1555 1841.13805,1715.14938 1840.46224,1710.99693 L1846.03193,1710.06938 C1845.07965,1704.21627 1837.76747,1715.57221 1840.46224,1705.89526 C1841.28902,1702.92796 1843.16626,1700.69092 1845.56785,1698.9385 C1845.33153,1700.37746 1846.12846,1701.01963 1847.42438,1700.32987 C1847.91412,1697.35062 1857.06913,1693.19874 1851.60171,1689.66271 C1848.68092,1687.77585 1842.77003,1686.83888 1841.85469,1683.16967 L1841.85469,1683.16967 L1841.85469,1683.16967 Z M2725.58855,1750.41898 C2719.53533,1752.92207 2713.3991,1754.21679 2708.41511,1757.83957 C2708.65143,1756.40041 2708.31907,1755.76125 2707.02267,1756.4482 C2707.39644,1758.74458 2704.08428,1762.78689 2702.38125,1764.33261 C2703.63925,1765.91796 2704.75873,1767.60929 2705.63022,1769.43427 C2707.97387,1775.19938 2710.47938,1775.61667 2716.76979,1774.53594 C2722.03773,1781.74254 2727.28293,1787.75621 2731.15833,1793.08751 C2723.62664,1790.81502 2732.06715,1798.53313 2732.08659,1798.6529 C2727.81807,1799.38657 2726.70589,1810.78039 2722.80366,1807.46486 C2719.59687,1804.73738 2717.5048,1814.50458 2718.16223,1816.27692 C2720.15943,1815.93374 2716.80858,1819.16078 2723.26784,1820.45094 C2729.49943,1821.69078 2732.81111,1827.54894 2739.51291,1827.87162 C2738.75875,1823.23766 2741.54354,1825.78447 2741.36953,1821.84231 C2740.07362,1822.53217 2739.74087,1822.35392 2739.97709,1820.91476 C2742.69617,1819.95516 2749.54515,1818.02934 2749.26003,1816.27692 C2751.56956,1814.08155 2753.03034,1811.75923 2748.33167,1812.56662 C2748.34644,1812.48318 2747.67472,1806.36713 2747.4034,1807.00113 C2758.01181,1805.17819 2754.92362,1787.78594 2747.86758,1785.66682 C2747.01485,1785.41058 2749.50014,1783.30448 2749.26003,1782.88417 C2751.71751,1782.46173 2744.25582,1770.52122 2744.15443,1769.8981 C2750.25692,1771.73085 2747.61503,1762.15424 2747.86758,1757.83957 C2745.88546,1757.48085 2740.8027,1755.74804 2741.36953,1759.23094 C2739.77761,1759.50457 2725.63326,1750.69378 2725.58855,1750.41898 L2725.58855,1750.41898 L2725.58855,1750.41898 Z M2882.00569,1870.54005 C2883.72311,1881.09268 2883.22918,1871.68169 2884.32649,1878.42446 C2876.28445,1876.59811 2850.20418,1865.6177 2847.19474,1875.17799 C2840.14813,1876.38869 2840.76104,1878.13121 2837.44771,1883.98995 C2831.39839,1883.07406 2834.54121,1883.20199 2830.48548,1887.70024 C2826.16486,1892.49292 2831.18035,1894.48226 2831.87793,1900.2225 C2839.59655,1898.69475 2837.13042,1893.13499 2845.80239,1891.87436 C2853.49992,1890.75293 2855.12985,1893.54859 2858.3343,1899.75877 C2867.73351,1901.84437 2874.08438,1900.1782 2875.50764,1891.41054 C2884.51304,1889.86355 2885.3685,1884.71138 2895.00178,1883.52613 C2889.81141,1873.67948 2895.38217,1883.61355 2894.5377,1878.42446 C2888.67473,1879.43176 2891.1606,1875.38809 2890.82454,1873.32279 C2886.47446,1872.46489 2884.99472,1870.02659 2882.00569,1870.54005 L2882.00569,1870.54005 L2882.00569,1870.54005 Z M3094.12047,2077.38964 C3093.16838,2077.45812 3092.24547,2077.56001 3091.33557,2077.85336 C3089.45669,2079.35654 3094.54372,2079.00802 3093.1921,2080.63611 C3090.296,2081.13364 3089.72732,2085.53078 3087.15824,2083.88268 C3086.4031,2082.5661 3085.39017,2081.93812 3083.90926,2082.02748 C3081.58165,2087.14042 3079.22468,2086.88262 3075.09041,2087.59297 C3073.51423,2092.63568 3066.30868,2094.99248 3063.48675,2095.47738 C3064.62791,2102.48951 3055.91939,2102.44367 3053.27555,2102.89797 C3053.56582,2104.68022 3042.83551,2119.036 3043.52853,2120.05807 C3043.24827,2119.11342 3043.17312,2117.7916 3043.06435,2116.8116 C3038.01785,2117.67892 3038.09114,2132.26191 3038.88711,2134.43552 C3036.00005,2134.00025 3035.21118,2135.1178 3036.5663,2137.68208 C3033.79628,2138.15815 3033.35796,2138.63936 3028.6758,2140.46483 C3031.37097,2146.26189 3033.88114,2150.76015 3039.81537,2149.74052 C3040.76891,2155.59926 3044.6968,2175.5623 3038.42292,2176.64022 C3037.61578,2181.61532 3046.15341,2187.43443 3051.41902,2184.98845 C3054.69191,2183.46925 3054.40018,2179.22306 3058.38115,2177.10404 C3060.23214,2171.2251 3062.05941,2176.94523 3062.09431,2169.68345 C3060.7249,2166.20143 3061.66775,2164.67708 3064.8792,2165.04551 C3065.15732,2164.79918 3069.01425,2155.22917 3069.52072,2154.37846 C3071.87497,2150.39638 3087.08251,2145.87636 3086.22997,2142.78375 C3085.97343,2143.87099 3074.71527,2138.17466 3082.9809,2136.75444 C3083.59313,2133.88864 3078.67272,2130.55261 3085.76579,2129.33385 C3083.44061,2126.13886 3086.2498,2125.80034 3088.0865,2124.69601 C3089.40273,2123.85462 3090.37591,2122.57641 3088.55068,2119.13052 C3097.41085,2117.60811 3088.97928,2110.93799 3090.40721,2106.14444 C3098.90683,2097.28294 3089.99893,2103.21959 3095.51291,2092.69464 C3091.72928,2093.34448 3095.48929,2090.60408 3096.44118,2089.91189 C3096.20515,2091.35106 3096.53771,2091.5293 3097.83362,2090.83944 C3098.61306,2086.97703 3097.63444,2085.67367 3094.58455,2087.12915 C3094.35824,2081.13432 3096.84023,2082.52491 3094.12047,2077.38964 L3094.12047,2077.38964 L3094.12047,2077.38964 Z" id="gr" stroke="#FFFFFF" stroke-width="3" fill="#87B024"></path>
                                    </g>
                                </g>
                            </g>
                        </g>
                    </g>
                </g>
            </g>
        </g>
    </g>
</svg>