<?xml version="1.0" encoding="UTF-8" standalone="no"?>
<svg width="690px" height="410px" viewBox="0 0 690 410" version="1.1" xmlns="http://www.w3.org/2000/svg" xmlns:xlink="http://www.w3.org/1999/xlink">
    <!-- Generator: Sketch 3.6 (26304) - http://www.bohemiancoding.com/sketch -->
    <title>tr</title>
    <desc>Created with Sketch.</desc>
    <defs></defs>
    <g id="Page-1" stroke="none" stroke-width="1" fill="none" fill-rule="evenodd">
        <g id="Group" transform="translate(-180.000000, -145.000000)" fill="#FFFFFF">
            <path d="M790.030941,344.442224 C790.73894,343.734103 791.800938,342.671945 792.509184,341.609788 C793.925181,340.19362 795.341426,339.485499 796.049424,337.715245 C796.75767,335.944992 796.403671,326.739638 798.527914,326.385553 C801.006156,325.677481 803.484399,327.44771 805.608642,326.385553 C807.732885,325.32342 808.440884,321.428852 810.919126,320.366695 C816.229857,317.53426 833.931801,321.074792 838.888285,314.701849 C844.199017,307.97487 836.056044,309.391088 844.199017,306.912713 C854.820232,303.726242 848.801502,314.701849 854.820232,318.950478 C857.298475,320.366695 860.130716,306.558653 863.671204,303.726242 C865.441448,302.664085 870.751932,303.372181 869.689934,301.601928 C861.90096,289.564139 867.91969,300.539771 858.006473,293.812792 C852.695989,290.27226 853.757987,282.483099 853.403988,281.420967 C852.695989,280.35881 842.428773,278.942592 841.366775,278.942592 C839.95053,278.942592 837.118289,282.129039 836.764042,280.35881 C835.702044,275.756121 837.118289,268.675057 837.472288,263.718357 C837.472288,261.948078 838.180287,259.823764 837.826287,258.05351 C834.640046,249.556278 832.515803,261.948078 829.329315,256.283257 C829.329315,255.575135 820.832343,238.226586 820.832343,238.226586 C816.583857,236.456307 819.062099,244.245468 814.459613,234.331993 C813.751615,232.561764 814.459613,229.729353 813.751615,227.959075 C811.981371,224.418543 805.254642,224.064507 803.130399,220.169915 C801.006156,216.629407 813.751615,217.69154 814.459613,211.672682 C815.167612,202.467329 801.006156,190.783625 822.248587,196.094386 L822.956586,195.38629 C818.7081,193.261951 811.981371,190.42954 808.794883,189.367407 C796.049424,185.118779 791.446939,195.032229 776.931237,195.38629 C775.869239,195.38629 778.70148,192.907915 777.993482,192.199793 C776.577237,189.721468 773.390996,189.013322 771.266753,186.889033 C767.372266,182.640404 770.558754,174.497183 769.496509,169.540483 C767.372266,160.335104 756.397051,161.04325 753.56481,158.564876 C752.502565,157.502718 752.856564,155.378404 751.794566,154.316247 C750.732321,153.25409 749.316323,152.900029 748.254078,153.25409 C746.483835,153.962186 745.421837,156.086501 743.651593,156.440561 C742.589348,156.440561 742.589348,154.316247 741.52735,153.962186 C740.465105,153.962186 739.403107,156.440561 739.049107,155.378404 C738.340862,154.316247 740.465105,153.25409 740.465105,151.837872 C740.819351,149.359497 735.50862,150.775715 733.030377,150.067619 C730.906134,149.713558 729.135891,148.29734 727.011647,148.29734 C726.303649,148.29734 727.011647,150.067619 726.657648,150.421654 C720.638918,151.837872 725.595403,146.881122 723.825406,145.464954 C722.763161,144.756808 721.701163,146.527087 720.638918,147.235183 C719.222674,147.94328 716.744431,147.94328 716.036433,149.359497 C714.974188,151.483812 717.098431,154.316247 716.036433,156.440561 C714.974188,157.85673 712.849945,157.502718 711.433947,157.85673 C706.831462,159.272947 701.166731,158.918936 697.272244,162.105383 C695.856,163.16754 696.918245,165.999951 695.148001,167.416168 C693.732004,168.478326 691.607761,167.770229 689.837517,167.770229 C688.067273,167.770229 686.297029,168.124265 684.172786,168.124265 L683.464788,168.124265 C681.340545,176.621547 678.862302,183.348501 671.427328,190.42954 C670.36533,191.491697 668.595086,191.137636 667.88684,192.199793 C663.284355,197.510604 657.973871,211.318622 650.893143,214.505093 C649.122899,215.213214 646.644657,213.0889 644.874413,213.442936 C643.458168,213.796997 643.104169,216.275371 641.687925,216.629407 C640.27168,216.983468 638.855683,215.921311 637.439438,215.921311 C636.023194,216.275371 634.961196,218.045625 633.190952,217.69154 C632.836953,217.69154 626.110224,214.151057 623.985981,215.921311 C622.215737,217.337528 622.215737,219.815854 620.799493,220.87806 C619.383496,221.586132 617.613252,220.169915 616.197008,220.87806 C614.78101,221.940218 614.78101,223.710447 613.364766,224.772604 C611.240523,226.542857 608.054035,226.896918 605.929791,228.667172 C602.389551,231.853668 602.035552,234.331993 598.141065,237.164429 C593.538579,240.70496 582.209118,242.475214 576.898634,242.475214 C564.153175,242.475214 578.314631,241.058996 570.879904,238.226586 C566.631418,236.810368 565.56942,244.599528 564.153175,245.307625 C561.674933,246.369782 558.488445,244.953589 555.656178,244.599528 C555.30213,244.245468 555.30213,243.183311 554.594057,243.183311 C551.761716,243.537371 549.283474,246.015746 546.097109,245.661685 C545.034988,245.661685 545.389012,242.829275 544.32689,242.121154 C542.556696,241.058996 540.078404,239.996839 537.600112,239.996839 C523.792557,240.3509 530.519335,254.158918 516.711755,248.14006 C512.463269,246.015746 510.339025,235.040139 505.736491,235.748211 C503.966321,235.748211 503.966321,239.996839 502.196102,239.288743 C500.779956,238.934682 503.612272,234.686078 501.842078,234.686078 C498.301664,235.040139 492.637008,248.14006 480.245598,243.537371 C467.146116,238.580671 474.580942,231.853668 473.872894,231.145546 C472.10265,229.021232 468.91631,230.43745 466.438043,230.43745 C465.375921,230.43745 464.313775,229.729353 463.959751,230.43745 C462.897629,232.207703 463.605702,235.040139 462.189532,236.810368 C458.295119,243.891432 421.474914,248.848157 412.269893,252.742725 C408.021383,254.158918 404.480994,259.823764 401.294605,262.656199 C398.462289,265.488586 393.50573,266.550743 390.319365,268.675057 C381.468344,275.756121 375.449688,286.731728 367.30674,295.583046 C365.182521,298.06142 361.642108,301.955964 359.163841,303.726242 C358.809792,304.080278 357.039573,303.726242 357.039573,304.434338 C355.623428,311.515402 360.934035,311.515402 354.207257,316.472103 C353.499209,317.180199 351.728965,316.472103 350.666844,316.826163 C342.169896,320.012635 348.896674,321.074792 337.921435,321.428852 C334.026973,321.428852 324.11383,318.596417 320.573417,320.012635 C319.511295,320.366695 319.865369,322.136949 318.803247,322.845045 C314.90881,326.385553 307.827983,327.801795 302.871424,328.155856 C296.852743,328.863928 283.045163,329.218013 282.691139,329.926085 C281.274969,333.112556 280.566896,336.653088 279.858799,340.19362 C278.796677,344.796309 287.647698,344.796309 288.70982,345.15032 C289.417917,345.15032 290.480039,345.15032 290.834038,345.858442 C291.188087,346.920599 289.417917,348.336792 290.12599,348.690852 C291.188087,349.044913 291.89616,346.920599 292.958281,346.920599 C293.666379,347.274635 293.31233,349.044913 294.020403,349.044913 C300.747181,349.753009 306.765861,343.026006 313.846663,343.734103 C319.865369,344.088163 303.225473,350.815167 301.809302,351.169227 C300.747181,351.169227 300.747181,348.690852 300.039108,349.044913 C299.331035,349.398949 278.796677,362.498895 277.380507,363.915088 C272.423973,370.642091 295.436573,360.02052 288.70982,369.933995 C287.293625,371.704248 273.132045,372.766381 268.175486,373.474527 C258.616368,374.890695 250.473469,380.909602 250.11942,380.555541 C248.70325,378.785288 253.659833,375.244756 251.889614,373.828538 C249.765371,372.058309 246.225007,373.828538 243.392667,374.182599 C243.038593,374.536684 243.392667,375.244756 243.038593,375.244756 C242.330545,375.244756 241.268424,373.474527 241.622472,374.182599 C242.684594,375.952852 246.225007,377.015009 245.870934,379.493384 C244.808837,383.033916 240.560351,385.15823 237.019938,386.220387 C229.585111,389.052823 227.814868,381.263662 226.044698,380.909602 C221.442163,380.201505 219.31792,386.574448 215.777507,387.282545 C214.361336,387.636605 208.696729,387.282545 206.572462,389.760895 C204.448218,392.23927 204.094194,396.133837 201.969951,398.612212 C200.907854,399.674369 199.137611,398.966273 198.429563,400.02843 C197.72144,401.444623 198.783562,402.860841 198.783562,403.922973 C198.429563,405.693227 198.429563,407.817566 197.367441,409.233759 C195.243198,411.358073 191.348736,409.587819 191.348736,413.482387 C191.702785,419.147209 194.5351,421.979644 194.5351,426.228273 C194.889149,427.644491 190.286614,435.787662 195.597222,436.495808 C196.30532,436.495808 218.255798,425.874212 220.73409,425.166116 C221.442163,424.812055 222.858333,424.103959 222.504285,424.812055 C221.442163,428.706648 218.255798,436.141723 215.777507,439.682255 C215.423458,440.390351 212.237093,439.328194 214.361336,440.744412 C216.485579,442.514666 224.628528,442.514666 225.690649,447.825426 C225.690649,449.59573 222.150236,452.074104 223.566406,453.844333 C224.628528,454.55243 235.603767,450.657887 233.833573,455.260551 C232.063354,460.571337 221.442163,464.81994 223.566406,468.006412 C225.690649,471.192883 231.70933,476.149633 232.417403,475.441512 C233.833573,474.379355 235.603767,473.671258 237.019938,473.317197 C238.436108,472.963162 241.622472,471.901004 241.622472,473.317197 C241.268424,474.025319 230.647233,480.752322 229.231063,480.752322 C227.460868,481.106333 226.398747,476.857729 224.982577,477.919887 C223.212357,479.336104 227.460868,484.646865 225.690649,483.938769 C224.982577,483.938769 218.963871,470.484787 216.839628,469.42263 C215.777507,468.714533 213.299215,468.360472 212.591167,469.77669 C211.529045,471.901004 213.299215,474.733415 213.653264,477.21179 C213.653264,478.273947 212.591167,479.336104 213.299215,479.690165 C215.069459,480.398261 218.963871,478.628008 218.609847,480.044176 C217.90175,482.876612 214.715385,484.292805 212.237093,485.709022 C211.529045,485.709022 210.820972,483.584708 210.466924,484.292805 C210.112875,485.000926 211.883094,485.709022 211.529045,486.417143 C211.529045,487.479301 208.696729,488.541458 209.758851,489.249554 C211.883094,490.665772 214.715385,489.249554 217.193677,489.957651 C217.90175,489.957651 223.566406,494.560315 224.274479,493.852243 C226.398747,492.081965 226.752771,488.541458 229.231063,487.12524 C232.063354,485.709022 231.70933,493.498183 234.541646,494.560315 C235.957816,494.9144 237.019938,492.081965 238.436108,492.081965 C240.206302,492.081965 249.765371,494.9144 249.765371,494.9144 C250.11942,495.622472 252.243663,504.119754 250.827493,505.890008 C248.70325,508.014322 240.206302,509.784551 243.038593,510.846708 C245.870934,511.554854 249.057299,510.492697 251.53559,511.908865 C254.367906,514.033204 249.411347,522.1764 252.951761,522.530461 C256.138125,522.884522 257.554246,517.573711 260.386612,517.573711 C263.218903,517.927772 264.281024,521.822364 266.759316,523.238557 C267.467389,523.592618 268.883559,521.822364 268.883559,522.530461 C274.194142,539.879011 243.746716,521.822364 257.200247,536.692539 C258.970441,538.462768 261.802782,534.922286 263.927,534.922286 C267.467389,534.922286 266.051243,538.816854 269.945681,536.692539 C270.653778,536.338479 269.237608,535.276322 269.591632,535.276322 C272.069924,533.860129 274.902264,535.276322 277.380507,534.214165 C280.212847,532.797972 286.939625,529.611476 288.70982,528.903379 C291.54216,527.841222 295.436573,524.300715 297.206792,526.779065 C303.933521,535.276322 286.939625,532.08985 286.939625,534.922286 C286.939625,537.0466 290.480039,539.170914 289.063868,540.587132 C286.939625,542.711446 283.399212,540.587132 280.566896,541.295229 C274.902264,542.711446 269.945681,547.314086 265.343146,550.500582 C263.572951,551.916775 269.945681,549.792461 272.069924,549.438425 C273.840143,549.438425 275.610312,550.854618 276.672434,550.146521 C278.088604,549.084364 276.318385,546.251929 277.734556,545.189772 C279.858799,543.773579 282.691139,544.481675 285.169406,544.127615 C292.604257,542.0033 291.54216,538.462768 291.89616,539.170914 C296.498695,549.438425 291.54216,546.251929 288.355796,549.438425 C287.647698,550.146521 290.480039,551.208679 291.188087,550.500582 C291.89616,549.438425 302.163351,537.754697 302.163351,537.400636 C303.225473,535.630382 302.163351,532.797972 303.579521,532.08985 C312.784542,527.841222 308.536056,537.0466 311.014347,539.170914 C313.138591,540.587132 316.679004,539.879011 319.157296,540.941143 C319.865369,540.941143 319.865369,542.711446 320.219417,542.357361 C323.759831,539.170914 317.033053,534.568225 321.989587,533.860129 C331.90273,532.08985 331.194657,548.022207 331.90273,548.730304 C339.337556,554.041089 345.002212,551.208679 352.791087,551.916775 C353.853209,551.916775 354.207257,555.103222 355.977452,554.749211 C359.163841,554.39515 370.847153,543.065457 371.555226,542.711446 C373.325445,540.587132 378.636053,539.879011 380.760296,540.941143 C381.468344,541.295229 380.760296,544.481675 381.468344,543.773579 C383.238588,542.0033 384.300685,539.170914 384.300685,536.692539 C384.300685,535.276322 381.822417,535.276322 381.822417,534.214165 C381.468344,532.08985 383.238588,529.965536 383.946636,527.841222 C385.362806,523.592618 378.282004,517.927772 382.176466,512.616986 C383.592587,510.846708 400.586532,507.660261 403.418872,507.306225 C404.480994,507.306225 435.282494,510.492697 435.990567,510.846708 C449.798147,514.7413 447.319855,525.008836 465.729945,526.425004 C474.93499,527.13315 467.146116,524.654775 474.580942,520.406147 C476.351185,519.34399 478.829428,521.114243 480.599647,520.052086 C481.661768,519.34399 480.599647,517.219675 481.30772,516.511554 C483.786012,514.7413 494.761251,513.325083 496.177421,512.616986 C497.593567,511.554854 497.947616,509.076479 499.363786,508.014322 C500.425908,507.660261 500.425908,510.138636 501.488029,509.784551 C501.842078,509.784551 505.382442,499.163004 506.090564,499.517065 C507.860734,499.517065 508.568806,503.411633 510.339025,502.703536 C517.419803,500.579222 511.755196,496.330618 512.10922,493.144097 C513.171341,486.417143 520.960216,476.503669 524.50063,471.192883 C531.581456,461.633494 552.469814,473.671258 554.948106,471.901004 C557.072349,470.130726 557.780446,467.298315 559.904689,465.882098 C560.612688,465.174026 570.525905,467.298315 565.56942,459.50918 C564.861174,458.447022 562.382932,464.46588 562.736931,463.049711 C563.445177,461.279433 566.985417,460.217276 565.923419,458.801058 C565.215173,457.384865 563.09093,460.925397 561.320934,460.571337 C560.258689,460.217276 562.382932,458.801058 563.445177,458.092962 C564.861174,456.676744 567.339417,455.968648 568.755661,454.55243 C570.879904,451.720019 570.171905,446.055198 573.712146,445.347101 C578.668878,443.930883 583.625363,451.365958 584.687608,455.260551 C585.041607,457.030805 573.004147,472.963162 574.066145,475.441512 C576.190388,480.044176 584.687608,481.106333 585.395606,486.771179 C585.749606,487.833337 585.041607,489.249554 583.979362,490.665772 L583.979362,490.665772 C586.457604,489.603615 593.184333,494.206255 594.600577,492.436026 C596.370821,490.665772 593.538579,487.479301 594.246578,485.000926 C594.954577,483.230647 598.141065,482.876612 598.849064,481.106333 L596.72482,471.901004 C596.72482,471.192883 606.992037,467.652351 607.700035,466.944255 C608.408281,465.882098 602.035552,461.987554 601.327306,461.279433 C598.495064,457.738901 595.662822,444.99304 597.787066,441.098448 C598.495064,440.036291 611.594522,439.682255 613.010766,441.098448 C613.364766,441.452508 611.240523,447.471415 615.489009,444.99304 C616.551007,444.284944 615.843008,442.514666 616.551007,442.16063 C620.091494,440.036291 624.69398,441.098448 628.234467,438.974134 C638.147437,434.017433 643.812168,415.252666 656.911626,414.190509 C661.868357,413.836448 666.824842,418.085052 672.135327,418.085052 C682.402543,418.085052 694.086003,409.233759 702.582975,403.922973 C716.390432,395.07168 722.763161,378.785288 735.862619,369.225874 C744.005592,363.561052 755.689053,362.498895 764.185778,356.834073 C768.080265,354.355698 775.515239,350.10707 777.993482,345.504381 C779.409726,343.026006 780.471724,333.466617 786.844453,339.839559 C788.260698,340.901717 789.322696,342.671945 790.030941,344.442224 L790.030941,344.442224 Z M236.311865,306.204592 L235.603767,306.204592 C233.479524,306.558653 231.355281,306.204592 229.231063,306.912713 C226.398747,307.97487 224.274479,310.453245 221.796212,312.223499 C221.088114,312.57756 221.796212,313.993728 221.442163,313.639717 C213.299215,311.869414 210.820972,305.496496 202.678024,309.745124 L196.659319,316.472103 C194.181076,317.53426 190.994712,315.764006 189.224493,317.53426 C187.10025,319.304538 189.224493,322.845045 187.808322,324.969335 C185.684079,327.44771 178.603302,326.385553 181.789667,331.696338 C189.578542,333.466617 200.199732,340.901717 194.889149,347.274635 C190.994712,351.523263 187.10025,349.398949 185.684079,356.480013 L188.51642,366.747523 C188.162371,369.225874 183.205837,377.36907 180.727545,378.785288 L180.373496,382.679855 C181.081544,383.387977 182.497715,383.742013 184.267958,384.450134 C189.578542,386.220387 210.466924,371.704248 209.050753,378.785288 C208.342681,383.742013 190.994712,390.823052 190.286614,396.487898 C190.286614,397.550055 192.410857,397.904116 192.764906,398.966273 C193.118955,400.02843 193.118955,401.090587 192.764906,402.152744 C192.410857,404.277059 189.932566,410.295916 191.702785,408.879723 C198.429563,403.214901 199.845733,394.009523 205.51034,386.574448 C210.466924,379.493384 219.671969,378.077166 224.274479,370.288006 C225.690649,367.80968 227.10682,364.977245 228.168941,362.144834 C228.52299,360.02052 227.10682,357.54217 228.52299,355.771916 C234.541646,347.982756 237.019938,355.063795 244.100764,352.58542 C245.162886,352.231384 244.454764,350.10707 245.516885,349.044913 C247.641128,347.274635 249.765371,345.858442 252.597712,345.15032 C260.740611,342.317934 264.635073,351.169227 262.864879,342.317934 C262.156781,340.547631 264.281024,347.274635 266.051243,346.920599 C268.883559,346.566538 277.734556,344.796309 278.796677,341.963874 C279.858799,339.839559 278.442628,337.361185 279.150726,334.88281 C279.150726,333.466617 281.983042,330.988242 280.212847,330.280145 C272.778021,327.801795 255.784077,330.634181 246.579007,324.969335 C232.771451,316.472103 238.436108,311.869414 236.311865,306.204592 L236.311865,306.204592 Z" id="tr"></path>
        </g>
    </g>
</svg>