<?xml version="1.0" encoding="UTF-8" standalone="no"?>
<svg width="532px" height="366px" viewBox="0 0 532 366" version="1.1" xmlns="http://www.w3.org/2000/svg" xmlns:xlink="http://www.w3.org/1999/xlink">
    <!-- Generator: Sketch 3.6 (26304) - http://www.bohemiancoding.com/sketch -->
    <title>ua</title>
    <desc>Created with Sketch.</desc>
    <defs></defs>
    <g id="Page-1" stroke="none" stroke-width="1" fill="none" fill-rule="evenodd">
        <g id="Group" transform="translate(-259.000000, -167.000000)" fill="#FFFFFF">
            <path d="M758.187825,350.184969 L758.187825,349.830934 C755.355484,346.644462 757.125703,345.582305 757.833776,342.395809 C758.541849,338.501266 753.58529,343.457991 753.58529,341.333652 C753.939314,338.855326 751.815071,330.358045 752.877192,328.23373 C753.231241,328.23373 763.498408,318.674341 763.498408,318.674341 C764.206481,317.258123 762.436311,315.48787 762.436311,314.071652 C762.082238,312.655434 761.728189,310.885181 762.79031,309.468963 C768.100943,303.096045 784.740839,305.928431 789.697398,298.493356 C790.759495,297.077138 788.989325,294.952824 788.281227,293.182595 C787.927203,292.474498 786.511033,292.120438 786.511033,291.412341 C786.511033,290.350184 788.635276,290.350184 788.635276,289.642063 C788.635276,288.579906 787.219106,287.871809 786.865082,286.809652 C786.511033,285.039374 786.865082,282.91506 787.219106,280.790745 C787.219106,280.082649 788.281227,279.374528 788.281227,278.666431 C789.697398,274.417827 783.324669,278.31237 783.324669,278.31237 C782.262547,277.604299 784.38679,275.834045 784.032741,274.417827 C782.616596,271.939452 780.492328,269.461078 778.722134,267.336763 C776.243842,264.858438 772.349429,270.877295 771.99538,266.982727 C770.225186,255.65306 771.287307,258.839531 777.660012,256.00712 C778.014085,255.65306 780.846377,249.634153 778.722134,250.342274 C773.765599,251.404431 771.287307,254.944963 767.038821,251.404431 C762.436311,247.509839 770.57921,246.447681 771.641332,244.677453 C772.703478,243.615295 771.287307,241.845017 771.641332,240.78286 C772.703478,236.180171 776.951964,233.701845 772.703478,229.099156 C771.287307,227.328878 768.809016,226.974842 767.392845,225.558624 C765.622651,223.43431 769.871137,218.831621 767.038821,218.47756 C760.312068,218.123549 764.560529,223.788371 759.249946,224.850528 C741.19388,227.682939 763.852481,222.372153 749.336804,219.893778 C744.734294,219.185682 744.380245,224.496467 740.485807,222.018092 C739.069637,221.309996 738.007516,219.539767 736.945394,218.47756 C733.759029,216.353246 735.175175,224.496467 731.280738,224.496467 C728.80247,224.496467 726.324179,223.788371 723.845911,222.726214 C722.78379,222.018092 722.075692,219.539767 720.659547,219.893778 C718.889328,219.893778 718.181255,223.43431 716.057037,223.43431 C713.578745,223.43431 711.80855,220.955935 708.97621,220.601899 C699.77114,219.185682 713.578745,232.993699 704.019651,231.223471 C701.541359,230.869385 700.833262,227.682939 698.709018,226.620781 C697.292898,225.912685 695.168654,226.974842 693.398435,226.266721 C688.087828,224.496467 684.193415,217.769464 679.59088,214.228957 C678.17471,213.166799 665.075227,226.620781 660.472692,232.993699 C659.056522,235.118014 655.516109,231.223471 653.037866,230.869385 C651.621696,230.869385 651.621696,232.993699 650.559574,233.701845 C648.78938,234.763978 647.37321,230.515374 645.248967,229.807253 C636.75197,227.682939 634.9818,240.074763 628.963095,236.888292 C626.484828,235.826135 624.360609,234.409917 622.590365,232.639688 C621.174195,231.223471 619.758074,229.453217 619.404026,227.328878 C619.404026,226.266721 621.528269,225.912685 621.174195,224.850528 C621.174195,223.43431 611.969175,215.291089 611.615126,214.228957 C611.261077,213.166799 613.385345,211.396546 612.677248,210.688449 C612.323199,210.334389 611.615126,210.334389 611.261077,210.334389 C609.844956,210.688449 608.782835,211.750606 607.366664,211.750606 C604.888373,212.104642 604.534349,207.856014 603.118178,206.08576 C602.76413,205.377639 602.056057,205.377639 601.347959,205.7317 C599.931814,206.439796 592.496938,211.042485 591.080817,211.042485 C590.37272,211.396546 590.37272,209.272232 589.310598,209.272232 C586.832331,209.272232 584.354039,209.626267 582.229796,210.334389 C581.521699,210.688449 579.397456,215.645174 577.627286,212.104642 C577.273213,211.396546 578.689383,210.688449 578.689383,209.980328 C579.043456,208.918171 579.043456,207.501953 578.335334,206.793857 C577.273213,205.7317 575.857042,206.439796 574.794945,205.377639 C573.024751,204.315482 575.148994,200.77495 573.732824,199.358782 C572.316678,197.588503 567.360095,196.526346 568.422216,194.402032 C569.838386,192.631778 577.981335,190.8615 575.857042,187.675029 C573.024751,183.426425 566.297973,183.780485 564.17373,182.010207 C562.75756,180.94805 561.695438,179.531857 561.341439,178.115639 C560.633341,176.699421 561.695438,174.929168 560.98739,174.221047 C559.57122,172.804853 557.446977,172.804853 556.030806,171.742721 C553.906563,170.326503 552.844442,167.494093 550.36615,167.140032 C547.533834,166.431935 546.471737,172.804853 543.285373,172.804853 C542.223251,172.804853 542.5773,170.326503 541.515153,170.326503 C527.707598,169.264346 536.204546,177.053482 528.061647,180.594014 C528.061647,180.594014 512.837896,181.656171 512.483872,181.656171 C511.775775,181.656171 514.254067,192.277718 511.067702,195.464189 C508.943459,197.234467 506.465167,199.004721 503.632851,199.358782 C502.570754,199.358782 502.924754,197.234467 501.862632,196.526346 C501.154584,196.17231 500.092463,197.942564 499.38439,197.588503 C495.489928,198.65066 490.887393,198.296624 487.701028,200.420939 C486.284858,201.12901 486.99298,203.607385 485.576785,204.315482 C483.452567,205.377639 480.620251,204.315482 478.141959,205.023603 C476.725789,205.377639 474.247497,208.918171 472.477303,218.831621 C472.123254,221.309996 471.415206,228.036999 471.415206,230.869385 C471.415206,234.763978 485.576785,244.323392 476.725789,246.09367 C467.520744,248.217985 471.769254,239.366667 463.626306,238.658546 C447.340459,237.596389 466.812671,241.490981 455.129358,243.615295 C453.359139,243.969331 451.588945,241.490981 449.464702,241.845017 C443.800046,243.261235 446.98641,249.280142 442.029826,250.69631 C439.197535,251.404431 436.365219,241.490981 433.532879,240.074763 C430.700563,238.658546 427.514223,243.615295 425.389931,246.447681 C423.97381,248.217985 426.806101,253.528745 424.681858,253.174685 C417.247032,251.404431 428.222271,253.528745 419.017226,247.155827 C414.060667,243.615295 415.830861,250.69631 412.644497,250.69631 C403.7935,250.69631 411.582375,247.509839 408.396035,245.385549 C406.271792,244.323392 406.271792,249.634153 404.855622,251.050371 C402.731379,253.528745 399.545014,250.342274 397.774795,250.69631 C396.004601,250.69631 397.774795,257.069277 396.004601,258.131435 C395.650552,258.839531 394.58843,257.777374 393.880382,257.069277 C389.277847,254.590903 402.023306,248.571996 387.861677,252.466588 C383.613191,253.528745 389.98592,259.193592 381.134899,255.65306 C380.072778,255.298999 382.197021,253.174685 381.488948,252.466588 C380.780875,251.758467 379.364705,253.528745 378.656657,253.174685 C376.532414,251.404431 379.364705,247.863924 375.470292,248.926056 C367.327344,251.050371 356.352104,252.112528 347.501108,251.050371 C346.438986,250.69631 346.084938,249.280142 345.022816,249.280142 C340.066257,248.926056 335.109673,252.112528 329.79909,252.820624 L324.488483,252.820624 C322.718264,252.820624 320.948069,252.112528 319.17785,252.466588 C314.575365,253.882781 311.388975,257.423313 307.140489,259.193592 C304.308173,260.255749 300.767785,259.547628 297.935469,260.963845 C296.519298,262.026002 291.562715,278.666431 288.022351,277.604299 C286.960229,277.250213 286.960229,275.479984 286.252107,275.479984 C284.127889,275.125924 281.649597,275.125924 279.879403,275.834045 C274.214746,277.604299 282.711718,280.790745 278.463232,281.852902 L278.109208,282.206963 L278.109208,281.852902 C279.17133,283.26912 280.587475,284.331277 281.295573,285.747495 C282.003646,287.871809 280.587475,290.350184 281.295573,292.120438 C284.481937,298.847416 294.749104,305.57442 300.413711,309.823024 C301.475833,310.885181 293.332934,310.53112 295.103128,314.071652 C295.457177,314.425713 302.537954,320.798655 302.537954,323.631041 C301.475833,336.376952 297.58142,328.587791 291.208691,333.898577 C288.37635,336.376952 266.77992,376.384837 267.842042,379.217248 C268.550114,383.11184 272.090503,385.944226 273.152625,389.484758 C273.506673,391.255012 270.674333,393.733387 272.090503,395.149605 C278.109208,402.58468 274.568795,388.422601 278.817281,401.876608 C279.17133,402.58468 277.755159,400.814451 277.047087,400.46039 C275.276868,400.106305 273.506673,400.814451 271.736454,400.814451 C270.674333,400.46039 269.258212,400.46039 268.19609,400.106305 C268.550114,403.646837 266.071822,408.603586 265.717798,412.144094 C265.36375,414.622444 265.717798,417.100819 264.655677,419.225133 C263.593555,421.703508 260.407191,422.411604 260.053142,424.889979 C259.345094,427.368354 261.115263,429.84668 261.115263,432.679115 C269.258212,433.0332 263.947579,436.927743 269.612236,439.052058 C270.674333,439.406118 272.090503,437.63584 273.152625,438.343961 C275.276868,439.760154 275.630916,443.300686 277.755159,444.716904 C279.17133,445.070965 280.233451,443.300686 281.649597,442.94665 C282.711718,442.94665 283.77384,443.654747 284.481937,444.008807 C289.084472,447.195279 283.419816,446.487133 287.668277,450.027665 C288.730399,450.735786 290.854642,449.319568 293.332934,442.59259 C293.686958,441.884493 293.686958,440.822336 294.395055,440.822336 C295.457177,440.822336 304.308173,445.070965 305.370295,445.070965 C306.078368,445.070965 306.432416,443.300686 307.140489,442.94665 C311.743024,441.176372 323.426361,445.779061 329.090993,444.362843 C332.277382,443.300686 334.401625,440.468275 337.587965,440.114215 C343.252622,439.760154 347.147034,447.195279 351.041497,448.257411 C356.352104,450.027665 358.122299,440.114215 359.538469,438.697997 C365.911173,431.971043 382.197021,432.679115 387.153604,427.72239 C396.712674,418.517037 382.905118,426.306197 389.631896,417.454904 C391.402091,415.33059 394.234431,413.560312 397.066722,412.852215 L397.420771,411.790058 L398.836917,408.603586 L398.836917,407.895465 L399.190965,406.479272 L402.731379,407.187369 C402.37733,406.479272 401.669257,405.771151 401.669257,405.063055 C401.669257,404.708994 415.122789,402.93874 415.830861,402.58468 C422.557639,399.398233 420.433396,394.087447 429.992465,394.795544 C433.886928,395.149605 438.135414,396.565822 441.321754,399.044148 C442.383875,399.752294 441.321754,402.230619 442.383875,402.230619 C444.862167,402.230619 447.340459,399.752294 450.172775,399.398233 C451.588945,399.044148 449.818726,402.58468 450.172775,404.000897 C450.880848,406.833308 452.651067,401.522523 453.359139,402.230619 C454.421236,403.646837 454.421236,405.417115 455.483358,406.479272 C456.899528,407.895465 455.483358,401.876608 457.607601,401.168462 C469.644962,397.982015 464.334379,405.063055 472.831376,408.603586 C476.37174,410.01978 473.893473,402.93874 477.079837,404.708994 C485.222736,410.01978 479.558105,417.454904 482.036396,425.24404 C482.390445,427.014293 491.241442,433.387212 493.365685,434.095333 C497.614171,435.511526 492.303563,427.72239 497.260122,430.554825 C503.632851,434.095333 495.489928,444.008807 500.092463,441.176372 C501.862632,440.114215 500.800511,445.779061 502.216681,447.195279 C504.340924,448.611447 513.191945,448.965508 515.316188,450.735786 L518.856577,461.711418 C518.856577,462.41949 516.732359,462.41949 517.086407,463.127586 C517.794455,465.605961 525.937404,466.668118 525.937404,467.022179 C523.813136,468.438397 521.334869,468.792432 519.56465,470.20865 C518.856577,470.916747 519.210626,471.624868 518.856577,472.332964 C517.086407,474.103218 515.316188,467.376239 512.483872,467.376239 C510.359629,467.376239 512.483872,474.103218 510.359629,473.749182 C508.943459,473.395122 504.340924,469.85459 504.340924,469.85459 C503.632851,470.916747 503.986875,473.041061 502.570754,473.395122 C501.862632,473.749182 501.508633,470.916747 501.154584,471.624868 C499.38439,473.041061 499.738389,475.519436 498.676292,476.935654 C498.322268,477.289714 497.614171,476.935654 497.260122,476.581568 C497.260122,475.873496 497.96822,475.519436 497.96822,474.811339 C497.614171,473.041061 496.906098,471.270807 496.198001,469.85459 C494.781855,467.376239 491.59549,472.687025 489.825271,474.811339 C484.868737,480.476161 493.719733,483.308572 494.427806,486.141007 C494.781855,487.911261 493.011636,489.681514 493.011636,491.451793 C493.011636,493.222022 495.135879,494.638239 494.427806,496.054457 C493.719733,497.47065 491.241442,497.47065 489.825271,498.886868 C486.638907,501.365243 491.59549,502.78146 489.825271,505.259811 C488.409101,507.030089 486.284858,508.092246 485.222736,509.508414 C482.036396,514.465164 487.346979,522.254325 484.868737,522.608385 C483.098518,522.962396 481.328324,522.254325 479.558105,522.608385 L479.912153,522.608385 L478.141959,525.086711 C478.141959,526.148868 477.78791,527.211025 477.079837,526.856989 C477.78791,527.211025 478.850032,526.502928 479.558105,527.211025 C480.620251,528.273182 480.266202,530.397521 481.682372,531.459678 C483.098518,532.875871 498.322268,533.583992 497.96822,531.813714 C497.96822,531.459678 493.011636,530.397521 496.552049,528.273182 C498.676292,527.211025 501.154584,527.565085 503.278803,526.502928 C506.819216,524.732699 508.235386,519.77595 512.129824,518.359732 C519.918699,515.527321 523.813136,518.359732 525.583355,525.086711 C526.291428,522.962396 529.123768,514.819225 524.875282,513.403007 C524.167185,513.048946 525.229306,514.819225 524.521233,514.819225 C524.167185,515.173261 524.167185,513.757068 523.813136,513.403007 C521.688893,512.69491 523.105063,519.067853 520.626771,514.465164 C518.502528,511.278693 518.856577,506.321943 518.502528,502.78146 C518.502528,501.365243 516.024286,497.824711 517.440407,498.532807 C520.626771,499.594964 519.918699,507.738161 523.105063,506.676028 C533.726303,502.4274 526.645477,501.365243 526.645477,496.762554 C526.645477,496.054457 527.353549,498.178771 528.061647,497.824711 C529.123768,497.47065 526.291428,494.638239 527.353549,493.930168 C529.123768,493.222022 531.248011,494.638239 533.018181,493.930168 C534.434351,493.576082 535.496473,492.159864 536.204546,490.743647 C539.036886,484.370729 542.223251,476.581568 544.347494,469.500554 C544.701543,468.084336 541.869202,466.668118 542.5773,465.2519 C542.931324,464.189743 545.055567,463.835707 545.763664,462.773575 C548.241907,458.170886 541.161129,458.878982 543.993445,454.984415 C551.78232,445.070965 562.40356,449.319568 562.40356,446.133122 C562.75756,443.300686 558.863147,439.406118 561.341439,437.63584 C563.111608,436.219647 562.049512,443.300686 564.527779,444.716904 C565.5899,445.779061 567.006046,442.94665 568.776265,442.59259 C570.546459,442.238529 572.670702,442.59259 574.794945,442.238529 C579.397456,441.530433 573.732824,433.741272 573.732824,433.741272 C573.3788,429.492668 576.919164,430.200765 574.794945,426.660233 C575.857042,426.660233 576.919164,426.306197 576.919164,427.014293 C577.273213,447.54929 588.956574,440.822336 599.931814,433.387212 C601.347959,432.325054 596.745449,435.865586 595.329279,437.281804 C593.55906,439.406118 596.037352,443.300686 592.850987,443.654747 C586.832331,444.716904 580.105578,445.070965 574.086873,445.779061 C573.732824,445.779061 564.881803,445.779061 565.943924,446.841194 C568.068167,448.611447 570.192435,451.089822 573.024751,451.797943 C574.086873,452.151979 572.316678,448.965508 573.3788,448.611447 C575.503043,447.54929 577.981335,448.965508 580.459577,448.611447 C581.167675,448.611447 583.999991,446.841194 584.354039,448.965508 C585.062112,452.50604 576.211116,454.984415 578.689383,457.462765 C579.751504,458.878982 592.142939,456.046572 593.913108,456.400608 C594.97523,456.754668 593.913108,459.233043 594.97523,459.587104 C597.453522,460.649261 600.639886,461.003272 603.472202,459.94114 C606.304543,459.233043 607.720713,455.692511 610.198956,454.630354 C612.677248,453.214136 615.863612,453.922257 617.987855,452.8601 C618.695953,452.50604 617.279782,450.735786 617.987855,450.381725 C618.695953,449.673629 620.112098,451.443883 620.820196,451.089822 C622.590365,450.381725 621.528269,445.424976 623.298488,446.133122 C626.484828,446.841194 629.317143,453.568197 631.795435,451.443883 C633.56563,449.673629 633.211606,446.487133 635.335849,445.070965 C641.354504,441.530433 634.9818,451.089822 638.876213,454.630354 C640.292383,455.692511 643.832796,451.443883 643.478748,453.214136 C643.478748,454.276293 632.503508,465.605961 630.379265,466.668118 C629.317143,467.022179 628.255022,465.2519 627.1929,465.960022 C626.838852,466.668118 628.963095,467.376239 628.609071,468.084336 C628.609071,468.084336 621.174195,474.811339 620.820196,474.811339 C620.112098,475.519436 619.404026,476.581568 619.049977,477.643725 C619.049977,478.351871 620.112098,478.705882 620.112098,479.059943 C619.758074,479.414028 607.012591,488.265321 611.615126,490.035575 C620.466147,493.576082 618.695953,487.5572 626.130779,487.5572 C628.609071,487.911261 636.39797,494.284179 638.876213,493.222022 C642.062602,492.159864 644.540869,488.265321 648.78938,492.51395 C658.348449,502.4274 650.205526,501.011182 651.975745,506.676028 C653.745939,511.632753 656.224206,513.403007 655.870157,513.757068 C654.453987,515.173261 649.497453,515.173261 650.205526,517.297575 C651.267647,519.77595 655.870157,518.359732 658.348449,519.421889 C660.826741,520.13001 660.826741,522.608385 664.013106,522.608385 C681.715123,520.484071 678.17471,499.949025 689.503998,492.159864 C691.628241,490.389636 693.752484,488.973418 696.5848,488.619357 C698.00097,488.619357 699.77114,490.389636 700.833262,489.681514 C703.311553,487.203164 701.18731,482.246414 703.665602,480.1221 C706.143894,478.351871 707.56004,479.059943 708.268137,475.873496 C708.622161,475.519436 707.56004,475.873496 707.206016,475.519436 C705.435796,473.749182 708.268137,470.20865 709.330259,469.85459 C711.100453,468.792432 713.578745,468.792432 715.702963,469.146493 C717.827206,469.500554 719.243377,472.332964 721.36762,471.978904 C723.845911,471.624868 724.553984,468.438397 726.678227,467.376239 C728.448446,466.668118 730.572689,467.376239 732.342859,466.668118 C739.423686,464.189743 733.759029,457.462765 734.467102,451.797943 C735.175175,448.965508 739.423686,446.133122 737.653467,444.008807 C737.653467,444.008807 723.137814,446.841194 722.78379,447.195279 C720.659547,448.611447 722.429741,452.8601 720.305498,453.922257 C718.889328,454.630354 717.119133,453.922257 715.702963,453.214136 C714.640866,452.8601 714.994915,450.735786 713.932794,450.735786 C711.454502,450.735786 713.578745,456.046572 712.162574,458.170886 C710.39238,459.94114 708.622161,462.065429 706.143894,462.773575 C700.125189,464.543804 680.298953,445.424976 677.112588,441.176372 C676.050467,440.114215 671.093883,431.262897 671.801981,430.554825 C673.926224,429.138608 676.050467,434.449369 678.528759,434.095333 C686.671657,432.679115 684.547414,416.392747 687.733779,411.435997 C688.795901,410.01978 690.920144,409.665744 691.628241,408.249526 C693.398435,405.771151 693.398435,402.58468 695.168654,400.46039 C700.479262,393.379326 703.311553,394.087447 707.914088,396.211762 C708.268137,396.565822 708.268137,395.50364 708.622161,395.149605 C711.80855,391.609073 707.914088,384.882069 716.411036,384.528009 C719.243377,384.173997 721.013571,389.838819 723.137814,388.422601 C725.616106,387.006383 722.429741,382.75778 723.491863,379.925369 C723.491863,379.217248 731.634811,370.011919 731.98881,370.011919 C733.404981,369.303773 735.175175,372.844305 735.883272,371.782148 C736.591345,370.720015 736.945394,361.160601 739.069637,359.390323 C741.901953,357.266009 750.752949,353.725477 754.293363,353.017405 C755.355484,353.017405 755.709533,356.557937 756.417606,355.49578 C757.479727,354.079562 757.125703,351.601187 758.187825,350.184969 L758.187825,350.184969 Z" id="ua"></path>
        </g>
    </g>
</svg>