<?xml version="1.0" encoding="UTF-8" standalone="no"?>
<svg width="1638px" height="779px" viewBox="0 0 1638 779" version="1.1" xmlns="http://www.w3.org/2000/svg" xmlns:xlink="http://www.w3.org/1999/xlink">
    <!-- Generator: Sketch 3.6 (26304) - http://www.bohemiancoding.com/sketch -->
    <title>Blank_political_map_Europe_in_2008_WF_(with_Kosovo)</title>
    <desc>Created with Sketch.</desc>
    <defs>
        <rect id="path-1" x="0" y="0" width="1637.734" height="778.934532"></rect>
    </defs>
    <g id="Page-1" stroke="none" stroke-width="1" fill="none" fill-rule="evenodd">
        <g id="Blank_political_map_Europe_in_2008_WF_(with_Kosovo)">
            <g id="Group">
                <mask id="mask-2" fill="white">
                    <use xlink:href="#path-1"></use>
                </mask>
                <use id="maska" xlink:href="#path-1"></use>
                <rect id="ocean" fill="#2096BD" mask="url(#mask-2)" x="-11758.0211" y="-9755.86666" width="19377.7637" height="12403.3618"></rect>
                <g id="outlines" mask="url(#mask-2)" stroke="#FFFFFF" stroke-width="3">
                    <g transform="translate(-8801.707736, -9764.849699)">
                        <path d="M8566.58885,11498.7726 C8537.4409,11514.4542 8441.02888,11747.4368 8463.45008,11778.8 C8472.41872,11792.2413 8517.26174,11792.2413 8503.80887,11801.2022 C8492.59803,11807.9229 8494.84023,11785.5206 8488.11379,11801.2022 C8488.11379,11805.6826 8483.62939,11810.163 8485.87159,11816.8837 C8490.35599,11834.8055 8517.26174,11843.7665 8523.98818,11861.688 C8526.23007,11866.1684 8517.26174,11863.9283 8512.77735,11868.4087 C8501.56667,11875.1293 8490.35599,11881.85 8483.62939,11893.0512 C8476.90296,11904.2523 8474.66091,11917.6936 8472.41872,11928.8945 C8470.17652,11942.3358 8479.14515,11960.2577 8472.41872,11971.4587 C8467.93448,11978.1794 8461.20804,11949.0568 8418.60736,11951.2967 C8371.52214,11955.7774 8391.70161,11971.4587 8328.92162,11942.3358 C8302.01571,11931.1349 8295.28927,11881.85 8266.14148,11863.9283 C8225.78269,11839.2858 8189.90846,11863.9283 8145.06574,11846.0064 C8138.33931,11843.7665 8131.61287,11841.5262 8124.88643,11837.0458 C8115.91779,11830.3248 8111.43355,11814.6435 8100.22272,11810.163 C8091.25408,11803.4423 8080.0434,11810.163 8068.83272,11805.6826 C8023.98985,11790.001 7992.59986,11747.4368 7943.27275,11733.9956 C7923.09328,11729.5152 7900.67192,11749.6771 7880.49261,11740.7161 C7876.00821,11738.4762 7822.19686,11680.2303 7824.43906,11671.2694 C7824.43906,11662.3085 7837.89193,11657.8281 7837.89193,11651.1074 C7840.13382,11644.3869 7831.1655,11642.1465 7831.1655,11635.426 C7831.1655,11626.4652 7835.64974,11615.264 7842.37617,11606.303 C7849.10246,11597.3423 7862.55533,11595.102 7871.52397,11586.1411 C7882.73465,11577.1803 7893.94548,11543.5768 7902.91396,11554.7782 C7907.39836,11561.4987 7914.1248,11606.303 7934.30411,11604.0629 C8010.53698,11592.8617 7934.30411,11536.8563 8030.71629,11541.3369 C8055.38,11541.3369 8035.20038,11568.2194 8048.65357,11574.94 C8057.62189,11579.4204 8071.07477,11568.2194 8082.2856,11572.6997 C8089.01204,11574.94 8086.76984,11588.3813 8091.25408,11590.6216 C8104.70711,11599.5824 8122.64423,11608.5433 8138.33931,11608.5433 C8140.58119,11608.5433 8196.6349,11581.6607 8196.6349,11581.6607 C8214.57217,11579.4204 8252.68845,11592.8617 8279.59436,11586.1411 C8335.64806,11574.94 8333.40586,11552.5378 8362.55366,11536.8563 C8429.81789,11501.0129 8380.49078,11550.2975 8445.51296,11545.8173 C8490.35599,11543.5768 8458.96584,11518.9346 8476.90296,11501.0129 C8483.62939,11494.2921 8483.62939,11521.1749 8490.35599,11518.9346 C8530.71462,11509.9737 8530.71462,11474.1301 8566.58885,11498.7726 L8566.58885,11498.7726 Z M7086.77334,10672.1319 C7093.49978,10703.4948 7192.15416,10696.7741 7178.70144,10746.059 C7176.45909,10759.5003 7138.34265,10755.02 7142.82705,10770.7016 C7147.31129,10786.3831 7178.70144,10781.9024 7189.91196,10795.3438 C7194.3962,10799.8243 7178.70144,10802.0644 7178.70144,10808.7851 C7192.15416,10889.433 7212.33348,10775.1818 7216.81772,10882.7125 C7219.05991,10920.7961 7178.70144,10934.2374 7167.49045,10965.6006 C7156.27993,10994.7233 7189.91196,10994.7233 7194.3962,11019.3657 C7194.3962,11028.3266 7183.18552,11037.2876 7183.18552,11048.4886 C7176.45909,11122.4159 7185.42772,11225.4659 7142.82705,11299.3931 C7140.58485,11303.8736 7142.82705,11292.6724 7138.34265,11290.4323 C7106.95266,11279.2311 7066.59419,11247.8682 7028.4776,11250.1082 C7021.75116,11250.1082 7044.17267,11259.0692 7044.17267,11265.7897 C7041.93047,11274.7507 7030.7198,11279.2311 7028.4776,11290.4323 C7015.02472,11341.9573 7050.89911,11332.9965 6988.11897,11362.1191 C6900.67527,11402.4432 6954.48693,11319.555 6911.8861,11301.6333 C6900.67527,11297.1529 6889.46459,11315.0747 6876.01187,11315.0747 C6867.04323,11315.0747 6902.91747,11312.8344 6905.15966,11301.6333 C6905.15966,11285.9517 6882.73815,11276.9911 6878.25407,11263.5495 C6864.80119,11218.7453 6896.19103,11189.6224 6902.91747,11151.5385 C6905.15966,11135.8572 6896.19103,11122.4159 6900.67527,11106.7343 C6902.91747,11093.293 6927.58118,11086.5723 6923.09678,11073.1312 C6920.85474,11061.9298 6896.19103,11073.1312 6889.46459,11064.1702 C6882.73815,11052.9692 6893.94883,11039.5277 6893.94883,11028.3266 C6893.94883,11026.0864 6884.98051,11026.0864 6887.22239,11023.8463 C6891.70694,11017.1256 6905.15966,11019.3657 6909.6439,11010.4049 C6918.61254,10988.0027 6884.98051,10878.2318 6871.52763,10862.5505 C6844.62172,10833.4276 6826.6846,10929.757 6833.41104,10817.746 C6835.65324,10802.0644 6851.34816,10790.8634 6853.59036,10775.1818 C6855.83255,10766.2209 6844.62172,10757.2602 6851.34816,10750.5396 C6853.59036,10748.2993 6869.28543,10795.3438 6909.6439,10795.3438 C6943.2761,10797.584 7066.59419,10696.7741 7086.77334,10672.1319 L7086.77334,10672.1319 Z M8010.53698,9103.97864 C8006.05274,9148.78315 7949.99919,9139.82222 7945.51463,9175.66564 C7941.03055,9202.54829 7992.59986,9198.06774 8003.81054,9207.02867 C8019.50561,9220.46984 7976.90479,9238.39187 7970.17835,9258.55369 C7961.20971,9287.67661 7997.0841,9256.31342 8001.56834,9267.51463 C8006.05274,9278.71568 7981.38903,9307.83859 7997.0841,9316.79953 C8019.50561,9330.24085 8109.19135,9384.00599 8030.71629,9379.5256 C8035.20038,9368.32439 8035.20038,9359.36346 8026.23205,9348.16241 C7983.63122,9307.83859 7985.87342,9325.76015 7961.20971,9357.12334 C7963.45191,9354.88307 7963.45191,9352.6428 7963.45191,9352.6428 C7963.45191,9330.24085 7920.85124,9325.76015 7900.67192,9334.72108 C7889.46109,9341.44175 7900.67192,9366.08412 7891.70328,9375.04505 C7882.73465,9384.00599 7867.03957,9377.28532 7853.5867,9381.76571 C7822.19686,9395.20704 7793.04891,9431.05046 7757.17452,9437.77112 C7745.96399,9440.01139 7734.75316,9428.8105 7725.78468,9435.53116 C7716.81604,9437.77112 7725.78468,9451.21244 7721.30028,9460.17338 C7719.05824,9466.89404 7712.3318,9475.85497 7707.84741,9482.57563 C7710.0896,9480.33536 7710.0896,9478.09509 7712.3318,9478.09509 C7723.54248,9478.09509 7714.57384,9502.73762 7723.54248,9507.21801 C7728.02672,9509.45828 7730.26892,9493.77668 7734.75316,9498.25723 C7739.23756,9507.21801 7748.20588,9525.13987 7739.23756,9531.86038 C7734.75316,9534.10049 7732.51112,9538.58104 7734.75316,9543.06143 C7736.99536,9545.3017 7741.47944,9540.82147 7745.96399,9540.82147 C7759.41671,9552.02236 7781.83823,9558.74302 7784.08027,9574.42462 C7797.53315,9637.15069 7743.7218,9612.50816 7728.02672,9650.59201 C7723.54248,9661.79306 7752.69043,9782.76496 7759.41671,9796.20629 C7772.86959,9818.60839 7929.81987,9930.61936 7961.20971,9948.54107 C7992.59986,9966.46294 8001.56834,9955.26173 8030.71629,9979.90426 C8062.10629,10006.7869 8104.70711,10183.7642 8129.37067,10228.5684 C8154.03438,10275.6132 8205.60353,10318.1771 8245.96201,10349.5403 C8259.41488,10358.5013 8279.59436,10360.7414 8290.80503,10371.9426 C8297.53147,10376.423 8290.80503,10389.8641 8295.28927,10394.3448 C8355.82722,10457.0709 8470.17652,10436.9089 8541.92514,10425.7077 C8557.62022,10423.4674 8591.25241,10398.8251 8611.43172,10421.2273 C8667.48527,10483.9535 8499.32447,10506.3556 8584.52597,10564.6013 C8665.24323,10618.3666 8777.35048,10613.8861 8860.30979,10656.4503 C8889.45774,10672.1319 8900.66842,10696.7741 8934.30045,10707.9753 C8961.20621,10719.1764 9035.19703,10730.3776 9057.61854,10748.2993 C9066.58702,10755.02 9057.61854,10770.7016 9064.34498,10777.4222 C9091.25073,10815.5058 9162.99936,10808.7851 9185.42072,10887.1928 C9194.38935,10916.3157 9174.21004,10907.3547 9167.4836,10927.5167 C9162.99936,10938.7179 9169.7258,10983.5221 9160.75716,10988.0027 C9151.78852,10994.7233 9136.09345,10988.0027 9122.64057,10981.2822 C9053.13415,10954.3995 9082.2821,10914.0754 9046.40771,10867.0309 C9026.22839,10840.1483 8961.20621,10867.0309 8927.57401,10855.8299 C8882.7313,10840.1483 8858.06759,10788.6231 8815.46676,10833.4276 C8810.98268,10840.1483 8754.92897,10952.1593 8754.92897,10956.6396 C8754.92897,10963.3601 8766.13965,10970.0808 8763.89745,10979.0417 C8754.92897,11021.606 8710.0861,11019.3657 8748.20253,11068.6505 C8770.62405,11095.5331 8777.35048,11070.8909 8802.01404,11077.6114 C8828.91964,11086.5723 8846.85691,11113.455 8871.52047,11124.656 C8880.4891,11129.1366 8893.94198,11124.656 8898.42622,11133.617 C8902.91062,11140.3376 8889.45774,11149.2985 8889.45774,11158.2592 C8891.69978,11220.9855 8920.84758,11162.7399 8916.36349,11243.3876 C8914.12114,11290.4323 8824.4354,11272.5104 8784.07692,11319.555 C8754.92897,11353.1585 8793.0454,11386.7617 8784.07692,11427.0856 C8777.35048,11460.6888 8754.92897,11451.7281 8732.50746,11469.6497 C8678.69611,11516.6943 8716.81238,11624.2249 8604.70528,11592.8617 C8582.28377,11586.1411 8557.62022,11527.8955 8571.07309,11503.253 C8580.04173,11489.8117 8602.46324,11492.052 8613.67392,11480.8508 C8620.40036,11471.89 8620.40036,11458.4488 8622.64256,11447.2476 C8624.88444,11436.0466 8633.85308,11427.0856 8631.61088,11415.8846 C8629.369,11402.4432 8606.94748,11395.7226 8609.18968,11382.2811 C8618.15801,11341.9573 8671.96967,11364.3594 8687.66459,11341.9573 C8725.78102,11297.1529 8680.93815,11290.4323 8663.00103,11265.7897 C8645.06376,11238.9073 8654.0324,11200.8234 8640.57952,11171.7008 C8633.85308,11153.7789 8624.88444,11138.0973 8613.67392,11124.656 C8611.43172,11120.1756 8602.46324,11120.1756 8597.97885,11115.6952 C8557.62022,11055.2093 8600.22104,11091.0527 8573.31529,11023.8463 C8539.68294,10938.7179 8519.50363,10981.2822 8452.2394,10985.7624 C8449.9972,10985.7624 8454.4816,10979.0417 8452.2394,10974.5615 C8443.27076,10965.6006 8432.06024,10954.3995 8418.60736,10947.6789 C8405.15449,10940.9582 8378.24873,10947.6789 8369.2801,10931.9973 C8360.31146,10916.3157 8387.21721,10900.6341 8384.97517,10882.7125 C8382.73297,10864.7905 8369.2801,10849.1092 8360.31146,10835.6679 C8306.50011,10761.7406 8297.53147,10864.7905 8234.75149,10842.3886 C8228.02505,10840.1483 8277.35216,10804.3047 8254.93064,10788.6231 C8174.21354,10730.3776 8252.68845,10790.8634 8165.2449,10779.6625 C8158.51847,10777.4222 8165.2449,10766.2209 8163.00271,10759.5003 C8154.03438,10732.6177 8106.94916,10660.9309 8084.52764,10651.9699 C8023.98985,10629.5677 8071.07477,10672.1319 8050.89545,10667.6515 C8030.71629,10663.171 8012.77918,10638.5286 7990.35766,10640.7687 C7970.17835,10645.2493 7954.48327,10672.1319 7936.54631,10667.6515 C7916.36684,10663.171 7918.60904,10634.0481 7905.15616,10620.6067 C7889.46109,10607.1654 7849.10246,10611.646 7835.64974,10602.685 L7802.01754,10555.6405 C7786.32247,10542.1991 7761.65907,10539.959 7748.20588,10524.2774 C7721.30028,10483.9535 7752.69043,10490.6742 7721.30028,10466.0317 C7707.84741,10454.8306 7692.15233,10445.8697 7676.45741,10436.9089 C7671.97302,10434.6686 7663.00469,10441.3893 7658.52014,10439.149 C7633.85674,10418.987 7633.85674,10380.9035 7609.19303,10360.7414 C7566.5922,10324.8979 7539.6866,10351.7806 7494.84373,10333.8587 C7488.11729,10331.6186 7506.05441,10324.8979 7510.53865,10320.4174 C7523.99153,10302.4958 7497.08577,10273.3729 7490.35934,10266.6523 C7485.8751,10262.1717 7476.90646,10266.6523 7472.42222,10262.1717 C7465.69594,10253.2109 7465.69594,10239.7696 7456.7273,10233.049 C7445.51662,10224.088 7423.09511,10230.8087 7414.12647,10217.3674 C7407.40003,10208.4064 7427.57935,10190.4849 7416.36867,10183.7642 C7402.91579,10172.563 7380.49428,10186.0042 7362.55701,10179.2837 C7351.34648,10174.8033 7369.28376,10154.6413 7369.28376,10141.2 C7376.0102,10096.3955 7369.28376,10080.714 7344.62005,10042.6303 C7297.53498,9975.42371 7331.16717,9914.93776 7275.11346,9863.41274 C7270.62938,9856.69208 7261.66074,9854.45197 7254.9343,9852.21169 C7252.69211,9852.21169 7250.44975,9858.93235 7248.20787,9856.69208 C7236.99703,9852.21169 7230.27059,9838.77037 7219.05991,9838.77037 C7212.33348,9838.77037 7225.78635,9858.93235 7219.05991,9856.69208 C7201.1228,9852.21169 7187.66976,9838.77037 7171.975,9827.56948 C7165.24856,9823.08878 7109.19486,9764.84325 7091.25758,9764.84325 C7086.77334,9764.84325 7093.49978,9776.0443 7089.0157,9778.28457 C7084.53115,9780.52469 7077.80471,9778.28457 7075.56251,9773.80403 C7064.35199,9760.36271 7017.26692,9737.96045 6994.84541,9737.96045 C6985.87677,9737.96045 6927.58118,9771.56391 6923.09678,9780.52469 C6918.61254,9789.48562 6925.33898,9802.92695 6918.61254,9809.64745 C6911.8861,9818.60839 6893.94883,9816.36811 6887.22239,9823.08878 C6871.52763,9838.77037 6860.31679,9874.61395 6842.37968,9890.29554 C6813.23172,9919.41815 6761.66242,9917.17819 6728.03022,9921.65842 C6716.81955,9881.33461 6793.05241,9829.80944 6759.42037,9805.16722 C6748.20954,9798.44656 6732.51446,9807.40718 6719.06159,9809.64745 C6705.60871,9809.64745 6689.91364,9816.36811 6676.46076,9811.88788 C6651.79736,9805.16722 6593.50146,9762.60298 6595.74365,9731.23979 C6595.74365,9726.7594 6606.95433,9726.7594 6606.95433,9722.27917 C6604.71229,9715.55851 6582.29093,9708.83785 6589.01737,9695.39637 C6597.98601,9686.43559 6609.19653,9679.71493 6615.92297,9668.51372 C6618.16517,9666.2736 6611.43873,9661.79306 6613.68077,9657.31267 C6615.92297,9650.59201 6636.10228,9661.79306 6638.34448,9655.0724 C6638.34448,9637.15069 6636.10228,9619.22882 6629.37585,9605.78765 C6618.16517,9587.86594 6544.17435,9558.74302 6548.65874,9522.89944 C6548.65874,9511.69855 6568.83806,9511.69855 6580.04874,9509.45828 C6586.77502,9509.45828 6591.25957,9522.89944 6597.98601,9520.65917 C6609.19653,9518.41921 6680.94531,9460.17338 6669.73448,9440.01139 C6663.00804,9426.57023 6640.58668,9424.3298 6633.86009,9408.6482 C6627.13365,9399.68758 6636.10228,9384.00599 6631.61804,9375.04505 C6600.22789,9321.27992 6541.9323,9348.16241 6645.07092,9287.67661 C6667.49243,9328.00058 6728.03022,9283.19607 6757.17818,9276.4754 C6777.35749,9271.99502 6793.05241,9298.87766 6813.23172,9298.87766 C6815.47392,9298.87766 6878.25407,9233.91116 6878.25407,9222.71027 C6880.49595,9211.50922 6860.31679,9207.02867 6862.55899,9198.06774 C6867.04323,9184.62642 6884.98051,9180.14603 6896.19103,9171.1851 C6907.40171,9162.22432 6916.37034,9153.26338 6927.58118,9144.30245 C6932.06542,9142.06218 6936.54966,9137.58179 6938.79186,9139.82222 C6943.2761,9153.26338 6941.03405,9166.70471 6941.03405,9180.14603 C6941.03405,9186.86669 6934.30762,9195.82762 6936.54966,9204.78856 C6952.24473,9233.91116 6988.11897,9240.63183 7012.78252,9249.59276 C7015.02472,9249.59276 7019.50896,9254.07315 7019.50896,9258.55369 C7017.26692,9267.51463 7001.57184,9274.23529 7003.81404,9283.19607 C7006.05608,9292.157 7021.75116,9287.67661 7028.4776,9294.39727 C7037.44623,9305.59832 7041.93047,9343.68202 7055.38335,9332.48081 C7093.49978,9303.35805 7048.65691,9312.31898 7048.65691,9289.91673 C7048.65691,9240.63183 7102.46842,9227.1905 7111.4369,9186.86669 C7111.4369,9182.3863 7086.77334,9121.90019 7124.88978,9128.62086 C7154.03773,9133.10156 7118.16334,9177.90576 7176.45909,9191.34708 C7212.33348,9202.54829 7183.18552,9157.74377 7243.72347,9168.94498 C7261.66074,9171.1851 7252.69211,9207.02867 7268.38718,9215.98961 C7277.35582,9220.46984 7295.29278,9211.50922 7293.05058,9202.54829 C7288.56634,9195.82762 7279.5977,9191.34708 7277.35582,9182.3863 C7277.35582,9173.42537 7290.80854,9166.70471 7288.56634,9157.74377 C7284.0821,9146.54272 7243.72347,9121.90019 7275.11346,9099.49825 C7315.47209,9070.37533 7299.77702,9135.34152 7346.86224,9124.14062 C7373.76784,9115.17969 7331.16717,9083.81665 7331.16717,9079.33611 C7335.65141,9070.37533 7342.37785,9063.65467 7344.62005,9054.69374 C7349.10413,9045.7328 7346.86224,9034.53191 7349.10413,9025.57098 L7349.10413,9025.57098 C7384.97852,9043.49284 7353.58868,9021.09059 7389.46292,9025.57098 C7407.40003,9027.81125 7425.33731,9074.85572 7461.21138,9054.69374 L7490.35934,8994.20794 C7508.29661,8980.76662 7586.77151,8989.7274 7606.95099,8987.48728 C7640.58318,8985.24701 7667.48878,8956.12409 7701.12097,8956.12409 C7710.0896,8956.12409 7685.42589,8967.32514 7683.18385,8976.28607 C7671.97302,9023.33055 7701.12097,8991.96767 7719.05824,9018.85031 C7723.54248,9025.57098 7712.3318,9034.53191 7716.81604,9043.49284 C7719.05824,9047.97308 7725.78468,9039.01214 7730.26892,9043.49284 C7772.86959,9074.85572 7784.08027,9079.33611 7842.37617,9088.29704 C7898.42972,9095.01771 7954.48327,9099.49825 8010.53698,9103.97864 L8010.53698,9103.97864 Z M7766.14315,9883.57488 C7770.62739,9876.85422 7770.62739,9867.89329 7777.35383,9863.41274 C7795.2911,9845.49103 7790.80671,9914.93776 7766.14315,9883.57488 L7766.14315,9883.57488 Z" id="it" fill="#87B024"></path>
                        <path d="M10842.3657,10129.9988 C10831.1548,10127.7587 10819.9442,10127.7587 10813.2177,10127.7587 C10725.774,10145.6804 10867.0291,10208.4064 10817.702,10246.4903 C10817.702,10246.4903 10748.1954,10268.8925 10745.9535,10268.8925 C10714.5633,10280.0936 10662.9939,10320.4174 10629.3618,10318.1771 C10622.6354,10318.1771 10627.1198,10306.9761 10622.6354,10304.7358 C10600.2139,10293.5349 10571.0662,10280.0936 10546.4025,10286.8143 C10537.4339,10289.0545 10537.4339,10306.9761 10528.4654,10309.2164 C10521.739,10311.4565 10517.2546,10295.7752 10510.5281,10293.5349 C10506.0439,10291.2945 10499.3175,10300.2554 10497.0753,10295.7752 C10481.3802,10286.8143 10476.8959,10262.1717 10458.959,10259.9316 C10445.5058,10255.4511 10438.7795,10277.8533 10425.3266,10280.0936 C10416.3582,10284.5738 10405.1473,10266.6523 10398.4209,10271.1327 C10358.0624,10295.7752 10342.3673,10322.6577 10279.5872,10345.0599 C10252.6816,10354.0207 10219.0494,10345.0599 10194.3857,10360.7414 C10185.4174,10365.2219 10185.4174,10383.1436 10176.4487,10387.6242 C10169.7223,10394.3448 10158.5113,10387.6242 10149.543,10387.6242 L10120.395,10387.6242 C10118.1528,10389.8641 10120.395,10394.3448 10120.395,10394.3448 C10124.8793,10380.9035 10120.395,10264.412 10118.1528,10264.412 C10102.4578,10248.7304 10077.7944,10203.9262 10057.615,10190.4849 C10046.4042,10183.7642 10030.7093,10190.4849 10017.2564,10183.7642 C10012.772,10181.5239 9952.23422,10134.4793 9952.23422,10129.9988 C9963.4449,10109.8368 9994.8349,10105.3566 9983.62406,10076.2336 C9981.38218,10067.2727 9974.65574,10062.7923 9967.9293,10058.3119 C9963.4449,10056.0716 9956.71846,10060.552 9954.47642,10056.0716 C9952.23422,10044.8706 9954.47642,10033.6694 9954.47642,10022.4683 C9952.23422,10009.0272 9936.53915,9995.58585 9943.26559,9984.38465 C10008.2878,9876.85422 9934.29695,10009.0272 10006.0456,9953.02161 C10012.772,9946.30095 10059.8572,9863.41274 10046.4042,9849.97142 C10028.4671,9836.5301 9943.26559,9796.20629 9938.78135,9791.7259 C9911.87559,9769.32364 9869.27492,9675.23438 9884.96968,9641.63108 C9891.69643,9625.94948 9916.35983,9628.18975 9925.32847,9614.74859 C9932.05491,9599.06699 9923.08627,9578.90501 9929.81271,9563.22341 C9958.96066,9576.66474 9994.8349,9585.62567 10010.53,9594.5866 C10030.7093,9603.54754 9945.50779,9652.83228 9983.62406,9668.51372 C10037.4357,9690.91598 10053.1306,9650.59201 10102.4578,9646.11146 C10165.2377,9639.3908 10239.2287,9675.23438 10302.0087,9652.83228 C10315.4616,9648.35174 10319.9458,9630.43003 10333.3987,9625.94948 C10367.031,9614.74859 10405.1473,9616.98886 10441.0217,9619.22882 C10485.8646,9621.46909 10519.4968,9639.3908 10564.3398,9612.50816 C10613.6668,9581.14528 10620.3934,9534.10049 10658.5096,9496.01696 C10692.1418,9462.41365 10770.6169,9426.57023 10813.2177,9408.6482 C10914.1143,9370.56466 10882.7241,9424.3298 10920.8407,9419.84956 C10938.7778,9417.60929 10952.2306,9397.44731 10970.1678,9397.44731 C11028.4636,9395.20704 10956.7151,9440.01139 11010.5265,9410.88863 C11017.2529,9408.6482 11021.7371,9399.68758 11028.4636,9397.44731 C11041.9163,9390.72665 11044.1585,9422.08952 11055.3692,9431.05046 C11089.0015,9460.17338 11147.2971,9440.01139 11183.1715,9433.29073 L11187.6559,9433.29073 C11196.6244,9489.29629 11201.1088,9540.82147 11185.4137,9549.78209 C11176.4451,9554.26263 11165.2344,9538.58104 11154.0236,9540.82147 C11071.0643,9563.22341 11124.8759,9560.9833 11100.2122,9610.2682 C11097.97,9619.22882 11082.2751,9619.22882 11077.7907,9625.94948 C11077.7907,9630.43003 11091.2436,9628.18975 11091.2436,9632.67014 C11095.728,9668.51372 11093.4858,9690.91598 11102.4544,9726.7594 C11104.6964,9740.20072 11118.1493,9758.12243 11111.4229,9769.32364 C11104.6964,9780.52469 11084.5171,9773.80403 11073.3065,9780.52469 C11071.0643,9780.52469 11080.0329,9785.00524 11080.0329,9787.24535 C11075.5487,9796.20629 11064.3378,9798.44656 11062.0956,9807.40718 C11059.8536,9814.12784 11073.3065,9820.84882 11068.8222,9825.32905 C11059.8536,9838.77037 11039.6744,9843.25076 11030.7058,9856.69208 C10990.3472,9910.45753 11089.0015,9829.80944 11113.6651,9890.29554 C11115.9073,9894.77593 11109.1808,9901.49659 11109.1808,9905.97683 C11111.4229,9908.2171 11160.75,9937.34002 11171.9608,9946.30095 C11178.6873,9955.26173 11185.4137,9961.98239 11187.6559,9968.70305 L11183.1715,9968.70305 C11169.7186,9970.94332 11156.2658,9968.70305 11142.813,9973.1836 C11124.8759,9979.90426 11111.4229,9995.58585 11095.728,10006.7869 C11091.2436,10009.0272 11095.728,10017.9878 11093.4858,10015.7478 C11041.9163,10004.5465 11026.2215,9964.22266 10974.6521,9991.10531 L10936.5355,10033.6694 C10920.8407,10040.3901 10900.6614,10029.189 10889.4506,10040.3901 C10875.9977,10051.5913 10889.4506,10073.9934 10880.4819,10087.4345 C10867.0291,10103.1161 10822.1863,10096.3955 10842.3657,10129.9988 L10842.3657,10129.9988 Z" id="bg" fill="#87B024"></path>
                        <path d="M9736.98835,10669.8916 C9714.56684,10755.02 9701.11396,10681.0928 9685.41904,10741.5786 C9685.41904,10741.5786 9671.96617,10831.1873 9671.96617,10833.4276 C9667.48193,10840.1483 9597.97519,10862.5505 9595.7333,10878.2318 L9624.8811,10923.0363 C9631.60754,10943.1983 9600.21739,10923.0363 9600.21739,10936.4777 C9602.45958,10994.7233 9577.79603,10963.3601 9539.6796,10970.0808 C9537.4374,10970.0808 9541.92164,10972.3211 9539.6796,10974.5615 C9537.4374,10976.8015 9537.4374,10976.8015 9535.1952,10979.0417 C9532.95316,10976.8015 9532.95316,10974.5615 9530.71096,10970.0808 L9530.71096,10956.6396 C9530.71096,10943.1983 9537.4374,10931.9973 9532.95316,10920.7961 C9528.46876,10914.0754 9515.01588,10920.7961 9510.53164,10914.0754 C9499.32112,10905.1146 9501.56301,10887.1928 9492.59437,10878.2318 C9476.89961,10858.07 9333.4022,10819.9863 9349.09728,10784.1427 C9355.82372,10768.4613 9387.21387,10786.3831 9393.94031,10772.9418 C9396.18219,10768.4613 9351.33948,10739.3384 9344.61304,10714.696 C9342.37084,10707.9753 9353.58152,10705.7351 9353.58152,10699.0144 C9355.82372,10690.0535 9353.58152,10678.8526 9355.82372,10669.8916 C9355.82372,10658.6906 9349.09728,10647.4894 9355.82372,10640.7687 C9360.30796,10631.8079 9378.24523,10638.5286 9384.97167,10631.8079 C9389.45591,10625.0873 9384.97167,10607.1654 9378.24523,10607.1654 C9369.27659,10609.4057 9376.00303,10627.3274 9369.27659,10634.0481 C9355.82372,10645.2493 9369.27659,10557.8807 9371.51879,10535.4784 C9376.00303,10508.5958 9337.8866,10522.0371 9337.8866,10495.1544 C9337.8866,10474.9926 9335.6444,10454.8306 9346.85508,10439.149 C9353.58152,10430.1881 9373.76083,10439.149 9382.72947,10430.1881 C9387.21387,10425.7077 9371.51879,10423.4674 9369.27659,10416.7468 C9367.0344,10401.0655 9382.72947,10378.6632 9371.51879,10367.462 C9358.06592,10354.0207 9335.6444,10369.7023 9317.70713,10365.2219 L9317.70713,10320.4174 C9317.70713,10311.4565 9322.19153,10300.2554 9317.70713,10291.2945 C9310.98069,10280.0936 9290.80138,10280.0936 9288.55949,10268.8925 C9288.55949,10266.6523 9360.30796,10121.038 9367.0344,10116.5574 C9369.27659,10114.3175 9380.48712,10170.3229 9398.42455,10172.563 L9445.50946,10134.4793 C9481.38385,10134.4793 9474.65741,10190.4849 9494.83657,10201.6858 C9501.56301,10206.1662 9508.28945,10197.2055 9517.25808,10199.4455 C9532.95316,10203.9262 9548.64808,10210.6467 9559.85891,10221.8478 C9602.45958,10268.8925 9571.06959,10315.937 9575.55399,10362.9816 C9575.55399,10378.6632 9589.00686,10392.1046 9589.00686,10405.5457 C9586.76466,10412.2664 9568.82755,10412.2664 9571.06959,10418.987 C9573.31179,10434.6686 9595.7333,10443.6296 9597.97519,10459.311 C9600.21739,10466.0317 9586.76466,10472.7522 9586.76466,10479.4728 C9586.76466,10497.3947 9645.06041,10580.2829 9654.02889,10593.7241 C9667.48193,10609.4057 9676.45041,10584.7632 9683.17669,10584.7632 C9692.14532,10582.5232 9703.356,10584.7632 9710.08244,10589.2439 C9714.56684,10593.7241 9707.8404,10604.9254 9712.32464,10604.9254 C9712.32464,10634.0481 9743.71479,10643.009 9736.98835,10669.8916 Z" id="al" fill="#87B024"></path>
                        <path d="M9156.27276,9941.82041 C9124.88277,9977.66399 9129.36701,10029.189 9120.39869,10040.3901 C9102.46126,10062.7923 9095.73497,10029.189 9089.00854,10062.7923 C9077.79786,10127.7587 9146.76689,10129.9987 9097.50662,10177.9682 L9097.50662,10189.3518 L9109.1877,10212.8871 C9082.2821,10147.9206 9037.43907,10170.3229 8981.38552,10129.9988 C8967.93265,10118.7977 8963.44841,10098.6359 8947.75333,10094.1552 C8936.54265,10089.675 8923.08993,10103.1161 8909.63705,10103.1161 C8902.91062,10103.1161 8887.21554,10100.8762 8889.45774,10094.1552 C8893.94198,10085.1946 8914.12114,10087.4345 8916.36349,10076.2336 C8927.57401,10047.1107 8831.16184,10009.0272 8822.1932,9993.34558 C8813.22456,9979.90426 8819.951,9959.74227 8810.98268,9946.30095 C8804.25624,9937.34002 8788.56116,9939.58029 8777.35048,9935.09975 C8730.26526,9905.97683 8701.11746,9852.21169 8660.75883,9818.60839 C8647.30596,9809.64745 8595.73665,9758.12243 8580.04173,9751.40177 C8573.31529,9749.16166 8564.34665,9758.12243 8557.62022,9753.64205 C8546.40969,9742.441 8573.31529,9717.79847 8573.31529,9713.31823 C8571.07309,9704.3573 8559.86241,9702.11687 8553.13598,9695.39637 C8535.1987,9668.51372 8528.47226,9632.67014 8503.80887,9610.2682 C8494.84023,9599.06699 8476.90296,9599.06699 8465.69228,9590.10606 C8456.72364,9583.3854 8441.02888,9453.45272 8490.35599,9455.69299 C8512.77735,9455.69299 8550.89378,9504.97789 8571.07309,9516.17894 L8589.01021,9513.93851 L8571.07309,9516.17894 C8597.97885,9513.93851 8593.49461,9471.37443 8606.94748,9453.45272 C8631.61088,9424.3298 8642.82172,9460.17338 8674.21171,9453.45272 C8683.18035,9451.21244 8683.18035,9433.29073 8692.14898,9426.57023 C8692.14898,9426.57023 8705.60186,9440.01139 8743.71814,9451.21244 C8748.20253,9453.45272 8754.92897,9455.69299 8761.65541,9453.45272 C8766.13965,9453.45272 8768.38185,9444.49178 8775.10829,9442.25166 C8802.01404,9440.01139 8862.55183,9473.6147 8891.69978,9469.13431 C8898.42622,9469.13431 8905.1525,9464.65377 8907.39486,9457.9331 C8914.12114,9453.45272 8911.87894,9437.77112 8920.84758,9437.77112 C8934.30045,9435.53116 8943.26909,9448.97233 8956.72197,9453.45272 C8981.38552,9460.17338 8952.23773,9442.25166 8965.6906,9437.77112 C8979.14348,9433.29073 8994.83856,9433.29073 9008.29143,9437.77112 C9017.25976,9440.01139 9023.98619,9453.45272 9032.95483,9453.45272 C9039.68127,9453.45272 9032.95483,9437.77112 9039.68127,9437.77112 C9091.25073,9440.01139 9077.79786,9496.01696 9102.46126,9500.49734 C9145.06209,9504.97789 9167.4836,9473.6147 9207.84207,9475.85497 C9207.84207,9545.3017 9167.4836,9592.34633 9174.21004,9634.91041 C9183.17867,9684.19532 9196.63155,9648.35174 9228.02139,9661.79306 C9248.2007,9670.75399 9252.6851,9699.87691 9272.86441,9711.07781 C9279.59085,9713.31823 9302.01237,9706.59757 9295.28593,9726.7594 C9281.83305,9771.56391 9225.77935,9722.27917 9214.56851,9737.96045 C9214.56851,9737.96045 9315.46509,9832.04971 9288.55949,9861.17263 C9279.59085,9867.89329 9268.38002,9845.49103 9257.16934,9849.97142 C9243.71646,9854.45197 9241.47426,9872.37368 9232.50578,9883.57488 C9216.81071,9888.05527 9174.21004,9879.09434 9171.96784,9890.29554 C9165.2414,9921.65842 9221.29495,9923.89869 9203.35799,9970.94332 L9194.38935,9970.94332 L9203.35799,9970.94332 C9180.93648,9955.26173 9180.93648,9939.58029 9156.27276,9941.82041 Z" id="ba" fill="#87B024"></path>
                        <path d="M9577.79603,10318.1771 C9575.55399,10333.8587 9573.31179,10349.5403 9575.55399,10362.9816 C9575.55399,10378.6632 9589.00686,10392.1046 9589.00686,10405.5457 C9586.76466,10412.2664 9568.82755,10412.2664 9571.06959,10418.987 C9573.31179,10434.6686 9595.7333,10443.6296 9597.97519,10459.311 C9600.21739,10466.0317 9586.76466,10472.7522 9586.76466,10479.4728 C9586.76466,10497.3947 9645.06041,10580.2829 9654.02889,10593.7241 C9667.48193,10609.4057 9676.45041,10584.7632 9683.17669,10584.7632 C9692.14532,10582.5232 9703.356,10584.7632 9710.08244,10589.2439 C9714.56684,10593.7241 9707.8404,10604.9254 9712.32464,10604.9254 C9728.01971,10607.1654 9878.24324,10560.1209 9887.21188,10553.4003 C9911.87559,10526.5176 9893.93832,10490.6742 9938.78135,10474.9926 C9954.47642,10468.2719 10041.92,10479.4728 10055.3728,10470.5122 C10062.0993,10466.0317 10059.8572,10452.5904 10066.5837,10448.11 C10071.0679,10445.8697 10077.7944,10459.311 10082.2784,10454.8306 C10109.1842,10436.9089 10048.6464,10401.0655 10120.395,10387.6242 L10120.395,10387.6242 L10122.6372,10387.6242 C10124.8793,10358.5013 10120.395,10264.412 10118.1528,10264.412 C10102.4578,10248.7304 10077.7944,10203.9262 10057.615,10190.4849 C10046.4042,10183.7642 10030.7093,10190.4849 10017.2564,10183.7642 C10012.772,10181.5239 9952.23422,10134.4793 9952.23422,10129.9988 C9923.08627,10103.1161 9851.33765,10172.563 9815.46326,10179.2837 C9772.86243,10186.0042 9754.92547,10156.8816 9734.74615,10206.1662 C9732.50395,10212.8871 9741.47259,10221.8478 9739.23039,10230.8087 C9734.74615,10242.0097 9714.56684,10215.1271 9703.356,10215.1271 C9674.20836,10217.3674 9647.30245,10237.5293 9622.6389,10253.2109 C9609.18602,10262.1717 9640.57602,10356.261 9584.52231,10318.1771 L9577.79603,10318.1771 L9577.79603,10318.1771 Z" id="mk" fill="#87B024"></path>
                        <path d="M9100.21906,10197.2055 C9073.31346,10152.401 9030.71263,10168.0826 8981.38552,10129.9988 C8967.93265,10118.7977 8963.44841,10098.6359 8947.75333,10094.1552 C8938.78485,10089.675 8927.57401,10098.6359 8916.36349,10100.8762 C8920.84758,10103.1161 8923.08993,10103.1161 8927.57401,10105.3566 C8932.05825,10107.5968 8936.54265,10121.038 8932.05825,10121.038 C8896.18418,10118.7977 8869.27827,10085.1946 8833.40419,10080.714 C8817.70912,10078.4739 8799.77184,10082.9543 8784.07692,10080.714 C8779.59253,10080.714 8775.10829,10069.513 8772.86609,10071.7532 C8768.38185,10073.9934 8768.38185,10085.1946 8772.86609,10087.4345 C8786.31896,10091.9152 8802.01404,10085.1946 8817.70912,10087.4345 C8831.16184,10089.675 8846.85691,10094.1552 8862.55183,10103.1161 C8867.03623,10105.3566 8864.79403,10114.3175 8869.27827,10116.5574 C8945.51129,10156.8816 8929.81621,10091.9152 9048.64991,10186.0042 C9064.34498,10197.2055 9084.5243,10208.4064 9104.70361,10212.8871 L9100.21906,10197.2055 Z M9142.81989,9493.77668 C9122.64057,9471.37443 9156.27276,9482.57563 9165.2414,9466.89404 C9167.4836,9464.65377 9167.4836,9460.17338 9165.2414,9457.9331 C9136.09345,9428.8105 9156.27276,9417.60929 9158.51496,9388.48637 C9160.75716,9377.28532 9216.81071,9422.08952 9210.08443,9377.28532 C9178.69428,9377.28532 9142.81989,9368.32439 9115.91413,9350.40268 C9104.70361,9341.44175 9124.88277,9336.96151 9124.88277,9334.72108 C9124.88277,9328.00058 9102.46126,9323.52019 9115.91413,9310.07855 C9118.15633,9307.83859 9133.85141,9321.27992 9136.09345,9307.83859 C9138.33565,9283.19607 9091.25073,9312.31898 9091.25073,9289.91673 C9095.73497,9238.39187 9104.70361,9251.83303 9066.58702,9198.06774 L9064.34498,9193.58735 C9057.61854,9195.82762 9050.8921,9195.82762 9039.68127,9198.06774 C9023.98619,9198.06774 9021.74431,9229.43093 9017.25976,9233.91116 C8988.11196,9258.55369 8889.45774,9260.79397 8858.06759,9247.35249 C8842.37251,9240.63183 8828.91964,9224.95054 8810.98268,9218.22988 C8806.49812,9215.98961 8761.65541,9222.71027 8754.92897,9213.74934 C8707.84375,9153.26338 8656.27459,9126.3809 8595.73665,9077.09599 C8580.04173,9074.85572 8541.92514,9065.89479 8532.9565,9068.13506 C8508.29311,9072.61545 8541.92514,9103.97864 8528.47226,9112.93957 C8517.26174,9117.41996 8503.80887,9110.6993 8492.59803,9115.17969 C8488.11379,9117.41996 8494.84023,9126.3809 8490.35599,9130.86113 C8467.93447,9148.78315 8432.06024,9151.02311 8409.63873,9171.1851 C8382.73297,9195.82762 8458.96584,9258.55369 8425.3338,9283.19607 C8346.85858,9339.20147 8396.18585,9245.11237 8344.61639,9319.03964 C8337.88995,9328.00058 8364.7957,9330.24085 8369.2801,9341.44175 C8373.76434,9350.40268 8346.85858,9348.16241 8346.85858,9357.12334 C8346.85858,9361.60373 8369.2801,9390.72665 8360.31146,9401.9277 C8335.64806,9426.57023 8299.77367,9388.48637 8277.35216,9388.48637 C8243.72012,9388.48637 8308.74215,9419.84956 8252.68845,9404.16797 C8236.99368,9399.68758 8216.81437,9375.04505 8210.08793,9361.60373 C8205.60353,9357.12334 8201.11929,9343.68202 8198.8771,9348.16241 C8189.90846,9361.60373 8192.15066,9377.28532 8183.18202,9388.48637 C8154.03438,9426.57023 8113.67559,9388.48637 8080.0434,9399.68758 C8075.55916,9401.9277 8084.52764,9410.88863 8080.0434,9415.36886 C8059.86409,9426.57023 8019.50561,9424.3298 7999.3263,9415.36886 C7992.59986,9415.36886 7979.14683,9408.6482 7979.14683,9415.36886 C7981.38903,9433.29073 7997.0841,9446.73205 8003.81054,9462.41365 C8003.81054,9464.65377 7999.3263,9464.65377 7999.3263,9466.89404 C8001.56834,9484.81591 7997.0841,9502.73762 8006.05274,9516.17894 C8006.05274,9516.17894 8008.29478,9516.17894 8008.29478,9518.41921 C7999.3263,9531.86038 8035.20038,9547.54197 8046.41137,9563.22341 C8055.38,9576.66474 8062.10629,9634.91041 8073.31696,9621.46909 C8084.52764,9608.02793 8091.25408,9590.10606 8100.22272,9574.42462 C8102.46492,9567.70396 8104.70711,9560.9833 8104.70711,9554.26263 C8104.70711,9552.02236 8097.98068,9554.26263 8097.98068,9549.78209 C8097.98068,9547.54197 8097.98068,9538.58104 8100.22272,9540.82147 C8109.19135,9543.06143 8102.46492,9594.5866 8127.12832,9554.26263 C8131.61287,9543.06143 8131.61287,9531.86038 8131.61287,9518.41921 C8131.61287,9516.17894 8127.12832,9513.93851 8127.12832,9509.45828 C8127.12832,9507.21801 8129.37067,9516.17894 8131.61287,9513.93851 C8149.54983,9504.97789 8133.85475,9444.49178 8154.03438,9444.49178 C8219.05641,9440.01139 8196.6349,9464.65377 8236.99368,9498.25723 C8245.96201,9504.97789 8259.41488,9498.25723 8266.14148,9504.97789 C8306.50011,9552.02236 8259.41488,9610.2682 8304.25791,9659.55294 C8317.71079,9675.23438 8355.82722,9708.83785 8371.52214,9720.03874 C8389.45941,9728.99983 8445.51296,9737.96045 8427.57569,9744.68111 C8396.18585,9753.64205 8337.88995,9688.67571 8346.85858,9773.80403 C8349.10078,9800.68652 8452.2394,9858.93235 8467.93447,9879.09434 C8472.41872,9881.33461 8449.9972,9872.37368 8454.4816,9874.61395 C8467.93447,9883.57488 8526.23007,9901.49659 8528.47226,9908.2171 C8532.9565,9923.89869 8519.50363,9948.54107 8530.71462,9961.98239 C8537.4409,9966.46294 8606.94748,9941.82041 8609.18968,9939.58029 C8654.0324,9930.61936 8622.64256,9948.54107 8678.69611,9968.70305 C8696.63322,9973.1836 8716.81238,9966.46294 8734.74981,9973.1836 C8759.41321,9982.14437 8775.10829,10022.4683 8802.01404,10035.9097 C8833.40419,10049.351 8853.58335,10058.3119 8862.55183,10067.2727 C8862.55183,10069.513 8864.79403,10067.2727 8864.79403,10067.2727 C8869.27827,10067.2727 8873.76266,10062.7923 8876.00471,10067.2727 C8884.97334,10082.9543 8871.52047,10082.9543 8891.69978,10091.9152 C8898.42622,10085.1946 8914.12114,10085.1946 8916.36349,10076.2336 C8927.57401,10047.1107 8831.16184,10009.0272 8822.1932,9993.34558 C8813.22456,9979.90426 8819.951,9959.74227 8810.98268,9946.30095 C8804.25624,9937.34002 8788.56116,9939.58029 8777.35048,9935.09975 C8730.26526,9905.97683 8701.11746,9852.21169 8660.75883,9818.60839 C8647.30596,9809.64745 8595.73665,9758.12243 8580.04173,9751.40177 C8573.31529,9749.16166 8564.34665,9758.12243 8557.62022,9753.64205 C8546.40969,9742.441 8573.31529,9717.79847 8573.31529,9713.31823 C8571.07309,9704.3573 8559.86241,9702.11687 8553.13598,9695.39637 C8535.1987,9668.51372 8528.47226,9632.67014 8503.80887,9610.2682 C8494.84023,9599.06699 8476.90296,9599.06699 8465.69228,9590.10606 C8456.72364,9583.3854 8441.02888,9453.45272 8490.35599,9455.69299 C8512.77735,9455.69299 8550.89378,9504.97789 8571.07309,9516.17894 L8589.01021,9513.93851 L8571.07309,9516.17894 C8597.97885,9513.93851 8593.49461,9471.37443 8606.94748,9453.45272 C8631.61088,9424.3298 8642.82172,9460.17338 8674.21171,9453.45272 C8683.18035,9451.21244 8683.18035,9433.29073 8692.14898,9426.57023 C8692.14898,9426.57023 8705.60186,9440.01139 8743.71814,9451.21244 C8748.20253,9453.45272 8754.92897,9455.69299 8761.65541,9453.45272 C8766.13965,9453.45272 8768.38185,9444.49178 8775.10829,9442.25166 C8802.01404,9440.01139 8862.55183,9473.6147 8891.69978,9469.13431 C8898.42622,9469.13431 8905.1525,9464.65377 8907.39486,9457.9331 C8914.12114,9453.45272 8911.87894,9437.77112 8920.84758,9437.77112 C8934.30045,9435.53116 8943.26909,9448.97233 8956.72197,9453.45272 C8981.38552,9460.17338 8952.23773,9442.25166 8965.6906,9437.77112 C8979.14348,9433.29073 8994.83856,9433.29073 9008.29143,9437.77112 C9017.25976,9440.01139 9023.98619,9453.45272 9032.95483,9453.45272 C9039.68127,9453.45272 9032.95483,9437.77112 9039.68127,9437.77112 C9091.25073,9440.01139 9077.79786,9496.01696 9102.46126,9500.49734 C9118.15633,9502.73762 9131.60921,9498.25723 9142.81989,9493.77668 L9142.81989,9493.77668 Z" id="hr" fill="#87B024"></path>
                        <path d="M9107.57731,10212.9099 C9118.78643,10215.1486 9124.89249,10215.2236 9136.10332,10215.2236 C9131.61971,10219.7012 9127.13437,10224.1786 9129.37798,10230.895 C9160.76688,10300.2973 9167.4941,10235.3726 9198.88316,10251.0442 C9205.61038,10255.5218 9201.12676,10264.4769 9205.61038,10271.1932 C9223.54843,10293.5812 9245.96838,10289.1036 9261.66455,10313.7302 C9266.14832,10320.4465 9261.66455,10333.8794 9268.39005,10340.5957 C9281.84277,10354.0286 9299.78083,10360.7447 9317.71716,10365.2226 L9317.71716,10320.4465 C9317.71716,10311.4912 9322.2025,10300.2973 9317.71716,10291.3422 C9310.99166,10280.1485 9290.81172,10280.1485 9288.56999,10268.9546 C9288.56999,10266.7158 9360.31877,10121.1943 9367.04599,10116.7168 C9369.28772,10114.4781 9380.49856,10170.4478 9398.43489,10172.6865 L9450.01265,10133.506 C9445.3014,10109.9331 9449.29493,10109.2312 9456.35184,10086.0618 C9459.81738,10074.6836 9454.69198,10081.9866 9466.91534,10071.9223 C9472.29023,10067.4977 9483.71018,10053.1334 9483.71018,10053.1334 C9483.71018,10053.1334 9515.30789,10041.4865 9502.90852,10032.0115 C9478.31427,10013.2157 9441.69843,9983.49949 9417.76079,9972.38566 C9402.31008,9965.21263 9421.68573,9934.64913 9406.61754,9919.84039 C9378.40264,9892.10943 9309.94722,9875.22595 9288.56999,9861.49483 C9279.60089,9868.21111 9268.39005,9845.82323 9257.17922,9850.30081 C9243.7265,9854.77838 9241.48477,9872.68869 9232.51566,9883.88286 C9216.82121,9888.36028 9174.2196,9879.40513 9171.97771,9890.5993 C9165.25237,9921.94201 9221.30483,9924.18088 9203.36849,9971.19549 C9180.94682,9955.5239 9180.602,9940.26902 9158.02595,9940.26902 C9136.10332,9949.51798 9129.37798,10029.404 9120.40888,10040.598 C9102.47082,10062.9859 9095.74532,10029.404 9089.0181,10062.9859 C9077.80726,10127.9108 9147.19164,10130.1495 9095.6228,10179.4028 L9095.6228,10187.7802 L9107.57731,10212.9099 Z" id="me" fill="#87B024"></path>
                        <path d="M9585.20178,9980.07327 C9590.37814,9963.07537 9577.82609,9968.28902 9582.31048,9935.67689 C9617.48383,9919.39709 9634.25839,9918.68086 9645.46923,9929.87472 C9675.4052,9954.51303 9686.30987,9966.3781 9698.17606,9984.23775 C9707.0477,9997.59013 9715.13288,10022.356 9715.13288,10022.356 C9771.18721,10060.4156 9723.84808,10052.4279 9737.3008,10043.4729 C9743.46668,10039.5551 9743.29115,10044.6799 9740.01499,10054.5361 C9736.73884,10064.3922 9794.04787,10058.1008 9787.81127,10073.108 C9781.57451,10088.1153 9827.22277,10090.6172 9824.50732,10102.1525 C9823.8285,10105.0365 9829.08261,10113.7667 9818.05545,10119.2658 C9807.02828,10124.7648 9823.15171,10139.788 9809.09182,10145.6549 C9795.03193,10151.522 9772.87512,10186.1197 9815.47485,10179.4034 C9851.34924,10172.687 9923.09802,10103.2844 9952.24707,10130.15 C9963.45791,10110.0008 9994.84681,10105.5234 9983.63597,10076.4191 C9981.39424,10067.4641 9974.66874,10062.9863 9967.94152,10058.5089 C9963.45791,10056.2699 9956.73069,10060.7476 9954.4888,10056.2699 C9952.24707,10045.076 9954.4888,10033.882 9954.4888,10022.6882 C9952.24707,10009.2556 9936.55074,9995.82271 9943.27797,9984.62869 C10008.2995,9877.16689 9934.30902,10009.2556 10006.0576,9953.28566 C10012.785,9946.56938 10059.8702,9863.734 10046.4175,9850.30143 C10028.4795,9836.86855 9943.27797,9796.57038 9938.79435,9792.09296 C9911.88719,9769.70493 9869.28746,9675.67569 9884.98191,9642.09396 C9891.70913,9626.42236 9916.37268,9628.66107 9925.33991,9615.22866 C9932.06713,9599.55691 9923.09802,9579.40775 9929.82525,9563.73631 C9898.43463,9550.30343 9869.28746,9530.15442 9873.77107,9498.81155 C9876.0128,9478.66223 9950.00519,9476.42368 9927.58352,9465.2295 C9689.9155,9346.57368 9902.91996,9454.03564 9806.5059,9510.00541 C9790.81146,9521.19911 9781.84235,9480.90109 9766.1479,9474.18481 C9754.93706,9467.46837 9739.24246,9474.18481 9728.03162,9474.18481 C9714.5789,9474.18481 9701.12634,9480.90109 9687.67362,9476.42368 C9680.9464,9471.94579 9685.43001,9460.75193 9680.9464,9451.79678 C9669.73556,9429.40921 9573.32323,9465.2295 9627.13395,9427.17035 C9640.58839,9418.21504 9674.21918,9409.25974 9663.00834,9400.30474 C9651.79923,9393.5883 9629.37756,9400.30474 9624.89207,9386.87217 C9622.65034,9373.43929 9669.73556,9348.81255 9638.34479,9330.9024 C9595.7449,9306.27566 9510.54355,9317.46968 9481.39451,9265.97749 C9474.66916,9254.78331 9474.66916,9201.05241 9474.66916,9187.61984 L9474.66916,9183.14211 C9467.94194,9185.38082 9463.45833,9198.8137 9458.97284,9194.33597 C9443.27839,9185.38082 9441.0365,9160.75424 9427.58394,9149.56053 C9414.13122,9140.60523 9393.95128,9142.84378 9380.49856,9131.64992 C9367.04599,9124.93364 9360.31877,9109.2622 9351.34967,9098.06818 C9340.13883,9098.06818 9328.928,9086.87417 9317.71716,9086.87417 C9315.47528,9086.87417 9257.17922,9104.78447 9254.93733,9104.78447 C9216.82121,9102.54576 9259.42282,9068.96387 9207.8521,9102.54576 C9183.18855,9115.97833 9169.73599,9142.84378 9149.55604,9158.51537 C9129.37798,9174.18696 9120.40888,9151.79893 9113.68165,9158.51537 C9084.53448,9192.09726 9082.2926,9194.33597 9064.35454,9194.33597 L9066.59643,9198.8137 C9104.71443,9252.54461 9095.74532,9239.11204 9091.25998,9290.60392 C9091.25998,9312.99195 9138.34521,9283.88747 9136.10332,9308.51453 C9133.8616,9321.9471 9118.16699,9308.51453 9115.92354,9310.75293 C9102.47082,9324.18596 9124.89249,9328.66354 9124.89249,9335.37982 C9124.89249,9337.61885 9104.71443,9342.09611 9115.92354,9351.05126 C9142.83054,9368.96156 9178.70494,9377.91687 9210.09399,9377.91687 C9216.82121,9422.69246 9160.76688,9377.91687 9158.52515,9389.11073 C9156.28327,9418.21504 9136.10332,9429.40921 9165.25237,9458.51306 C9167.4941,9460.75193 9167.4941,9465.2295 9165.25237,9467.46837 C9156.28327,9483.1398 9122.65076,9471.94579 9142.83054,9494.33398 C9165.25237,9487.61754 9183.18855,9474.18481 9207.8521,9476.42368 C9207.8521,9545.82601 9167.4941,9592.84063 9174.2196,9635.37752 C9183.18855,9684.631 9196.64127,9648.81024 9228.03205,9662.24312 C9248.21199,9671.19827 9252.6956,9700.30243 9272.87554,9711.49645 C9279.60089,9713.73531 9302.02256,9707.01887 9295.29721,9727.16788 C9281.84277,9771.94395 9225.79016,9722.69062 9214.57933,9738.36174 C9214.57933,9738.36174 9315.47528,9832.39098 9288.56999,9861.49545 C9341.28465,9888.92769 9314.84542,9878.33767 9397.02577,9912.91652 C9424.9453,9921.89184 9398.88687,9969.52373 9423.59485,9979.32203 C9462.70206,9994.83106 9463.45348,10012.8816 9490.16852,10026.968 C9515.08458,10040.1067 9511.22417,10034.62 9526.68391,10038.0498 C9562.5583,10038.0498 9580.02542,9997.07117 9585.20178,9980.07327 Z" id="sr" fill="#87B024"></path>
                        <path d="M9567.309,10230.8725 C9572.75188,10239.6674 9577.70175,10254.3363 9578.69965,10272.6219 C9579.51725,10287.6035 9576.52991,10306.3339 9578.69965,10315.1144 C9588.09123,10323.2553 9601.57438,10328.1152 9610.10247,10327.6468 C9618.63056,10327.1783 9614.99854,10317.6863 9622.21479,10319.4878 C9622.21479,10303.8161 9617.11086,10250.0435 9630.17544,10246.8731 C9667.07956,10237.9178 9666.33821,10224.2712 9679.61121,10221.3105 C9679.61121,10219.0716 9695.3828,10220.7378 9715.04616,10218.2487 C9728.74487,10230.8725 9728.74487,10238.84 9736.27629,10233.833 C9743.80771,10228.8261 9741.13203,10185.1168 9750.01383,10179.3123 C9767.77745,10167.7031 9811.14409,10188.2833 9801.3092,10175.0781 C9798.85048,10171.7768 9829.79085,10111.1638 9826.63078,10105.3819 C9823.4707,10099.5999 9834.54496,10085.6606 9831.01771,10078.9748 C9827.4903,10072.2888 9798.93684,10082.2772 9795.37611,10076.2642 C9792.93517,10072.142 9789.25702,10065.694 9781.19168,10062.7716 C9777.49168,10061.4309 9769.7108,10066.3701 9766.31561,10062.7716 C9755.51967,10051.3287 9769.93814,10045.7855 9766.8383,10043.4166 C9754.5411,10034.0189 9746.79588,10018.7181 9728.74487,10009.5671 C9710.6937,10000.4163 9696.62035,9958.49416 9684.65138,9952.9374 C9669.20083,9945.76421 9642.57441,9926.83871 9633.4327,9923.89185 C9626.53207,9921.66742 9611.5656,9910.95183 9584.56254,9934.21099 C9557.55932,9957.47015 9594.77899,9960.97703 9585.81083,9984.48426 L9543.6166,10031.4801 C9524.18026,10047.6241 9510.49756,10025.4271 9501.52845,10036.6211 C9483.5904,10059.009 9459.94828,10059.2311 9453.22106,10092.813 C9433.99656,10161.5066 9473.87958,10126.8566 9473.87958,10161.5066 C9473.87958,10161.5066 9480.67066,10190.9699 9495.03529,10201.0765 C9509.39991,10211.1831 9530.61304,10201.7907 9548.01949,10212.2269 L9567.309,10230.8725 Z" id="path2228" fill="#FFFFFF"></path>
                        <path d="M11203.3508,11966.9784 C11178.6873,12014.023 11223.53,11982.66 11198.8666,12052.1067 C11196.6244,12058.8274 11015.0107,12099.1513 10997.0736,12105.872 C10983.6207,12110.3524 10858.0608,12168.5981 10844.6079,12157.397 C10804.2491,12112.5926 10875.9977,12117.0732 10748.1954,12101.3916 C10618.1512,12085.71 10779.5855,12117.0732 10669.7203,12117.0732 C10662.9939,12117.0732 10660.752,12105.872 10654.0256,12105.872 C10640.5727,12103.6317 10624.8776,12105.872 10609.1825,12108.1123 C10593.4875,12112.5926 10575.5503,12121.5536 10559.8553,12123.7939 C10526.2232,12123.7939 10539.6761,12081.2296 10541.9183,12067.7883 C10541.9183,12049.8664 10535.1919,12029.7046 10541.9183,12014.023 C10566.5817,11944.5761 10589.0032,12022.9839 10604.6983,12029.7046 C10620.3934,12036.4253 10638.3305,12027.4642 10654.0256,12020.7437 C10665.2361,12016.2633 10671.9625,11987.1404 10680.9312,11996.1013 C10692.1418,12005.0622 10654.0256,12014.023 10658.5096,12025.2242 C10660.752,12036.4253 10680.9312,12029.7046 10692.1418,12034.1848 C10703.3527,12038.6655 10712.3212,12054.3468 10725.774,12056.5871 C10736.9849,12058.8274 10745.9535,12049.8664 10757.164,12045.3862 C10779.5855,12038.6655 10795.2806,12020.7437 10815.4599,12014.023 C10840.1235,12007.3023 10864.7872,12009.5426 10889.4506,12005.0622 C10905.1457,12000.5817 10891.6928,12018.5035 10905.1457,12020.7437 C10929.8092,12027.4642 10954.4729,12007.3023 10981.3785,12009.5426 C10988.105,12009.5426 10992.5892,12022.9839 10999.3157,12020.7437 C11010.5265,12018.5035 11050.885,11984.9001 11071.0643,11989.3806 C11075.5487,11991.6207 11037.4322,12038.6655 11091.2436,12054.3468 C11102.4544,12058.8274 11102.4544,12034.1848 11111.4229,12027.4642 C11158.508,11980.4197 11151.7817,12040.9055 11203.3508,11966.9784 L11203.3508,11966.9784 Z M10741.4691,10271.1327 L10743.7113,10268.8926 L10743.7113,10268.8926 L10745.9535,10268.8926 L10745.9535,10268.8926 L10745.9535,10268.8926 L10745.9535,10268.8926 L10745.9535,10268.8926 L10745.9535,10268.8926 L10745.9535,10268.8926 L10745.9535,10268.8926 L10745.9535,10268.8926 L10745.9535,10268.8926 L10745.9535,10268.8926 L10745.9535,10268.8926 L10745.9535,10268.8926 L10745.9535,10268.8926 L10745.9535,10268.8926 L10745.9535,10268.8926 L10745.9535,10268.8926 L10745.9535,10268.8926 L10745.9535,10268.8926 L10745.9535,10268.8926 C10748.1954,10268.8926 10817.702,10246.4903 10817.702,10246.4903 C10867.0291,10208.4065 10725.774,10145.6804 10813.2177,10127.7587 L10813.2177,10127.7587 L10813.2177,10127.7587 L10813.2177,10127.7587 L10815.4599,10127.7587 L10815.4599,10127.7587 L10815.4599,10127.7587 L10815.4599,10127.7587 L10815.4599,10127.7587 L10815.4599,10127.7587 L10822.1864,10127.7587 L10822.1864,10127.7587 L10824.4284,10127.7587 L10824.4284,10127.7587 L10826.6706,10127.7587 L10826.6706,10127.7587 L10826.6706,10127.7587 L10826.6706,10127.7587 C10831.1548,10127.7587 10835.6392,10127.7587 10837.8811,10129.9988 L10837.8811,10129.9988 L10842.3657,10129.9988 L10842.3657,10129.9988 C10891.6928,10141.2 10958.957,10188.2446 10925.325,10228.5685 C10900.6614,10255.4511 10875.9977,10242.0098 10867.0291,10286.8143 L10884.9664,10351.7806 C10882.7242,10367.4621 10851.3343,10418.9871 10835.6392,10427.948 L10833.397,10452.5904 C10795.2806,10432.4284 10867.0291,10430.1881 10831.1548,10398.8251 C10813.2177,10385.3839 10741.4691,10416.7468 10719.0476,10414.5067 C10647.2991,10410.0262 10638.3305,10362.9817 10591.2454,10421.2274 C10580.0346,10434.6687 10568.8239,10445.8697 10555.3712,10454.8307 C10492.591,10488.4338 10526.2232,10410.0262 10463.4432,10448.11 C10438.7795,10463.7916 10456.7168,10501.8751 10407.3895,10524.2774 C10364.7889,10542.1991 10360.3046,10488.4338 10319.9458,10539.959 C10304.2509,10560.121 10331.1567,10557.8807 10337.8831,10562.3612 C10358.0624,10573.5623 10355.8201,10607.1654 10373.7575,10625.0873 C10378.2416,10629.5677 10387.2102,10627.3274 10396.1789,10625.0873 C10398.4209,10625.0873 10400.6631,10622.847 10402.9053,10618.3667 C10402.9053,10613.8861 10393.9367,10604.9255 10400.6631,10604.9255 C10409.6317,10602.6851 10409.6317,10622.847 10418.6002,10625.0873 C10443.2639,10631.808 10494.8331,10640.7688 10503.8017,10674.3722 C10521.739,10739.3384 10445.5058,10645.2493 10445.5058,10645.2493 C10420.8424,10631.808 10349.0938,10622.847 10342.3674,10665.4113 C10335.6409,10692.2938 10393.9367,10683.3328 10411.8738,10701.2547 C10425.3267,10714.696 10423.0846,10759.5004 10407.3895,10752.7797 C10371.5152,10739.3384 10369.273,10699.0144 10333.3987,10681.0929 C10324.4302,10678.8526 10315.4616,10683.3328 10306.493,10681.0929 C10295.2823,10681.0929 10281.8294,10669.8917 10275.1031,10678.8526 C10223.5337,10734.858 10373.7575,10750.5396 10362.5465,10770.7016 C10358.0624,10777.4223 10299.7665,10775.1818 10281.8294,10770.7016 C10275.1031,10768.4613 10259.4081,10696.7742 10259.4081,10696.7742 C10241.4709,10674.3722 10178.691,10687.8135 10154.0272,10669.8917 C10106.9422,10634.0481 10154.0272,10640.7688 10154.0272,10595.9644 C10154.0272,10587.0035 10129.3637,10611.646 10115.9108,10622.847 C10104.7,10634.0481 10086.763,10643.009 10084.5207,10658.6906 C10082.2785,10669.8917 10104.7,10672.1319 10106.9422,10683.3328 L10091.2471,10750.5396 C10097.9735,10793.1038 10149.543,10813.2657 10174.2064,10840.1483 L10203.3543,10898.394 C10219.0494,10914.0754 10333.3987,10970.0808 10315.4616,10996.9636 C10310.9774,11003.6843 10223.5337,10958.88 10216.8072,10961.1202 C10210.0808,10961.1202 10216.8072,10974.5615 10216.8072,10981.2822 C10212.323,10996.9636 10187.6593,11030.567 10203.3543,11028.3267 C10207.8386,11026.0864 10205.5965,11014.8854 10210.0808,11017.1256 C10216.8072,11019.3657 10214.565,11030.567 10221.2915,11035.0473 C10236.9865,11046.2484 10286.3137,11046.2484 10248.1974,11079.8519 C10216.8072,11106.7343 10185.4174,11108.9746 10142.8166,11126.8963 C10136.0901,11129.1366 10156.2694,11135.8573 10162.9959,11133.617 C10169.7223,11131.3767 10174.2064,11120.1757 10183.175,11120.1757 C10192.1437,11120.1757 10192.1437,11133.617 10198.8701,11138.0974 C10203.3543,11140.3377 10207.8386,11135.8573 10212.323,11133.617 C10230.2601,11133.617 10248.1974,11129.1366 10263.8921,11135.8573 C10277.345,11140.3377 10275.1031,11162.7399 10288.5558,11164.9802 C10304.2509,11169.4606 10319.9458,11144.818 10333.3987,11151.5385 C10346.8518,11158.2592 10331.1567,11187.3821 10344.6096,11194.1028 C10362.5465,11205.304 10384.968,11173.9408 10400.6631,11185.142 C10409.6317,11189.6224 10400.6631,11225.466 10436.5375,11227.7062 C10481.3802,11229.9464 10494.8331,11214.2648 10526.2232,11250.1082 C10550.8866,11276.9912 10512.7704,11265.7898 10512.7704,11281.4714 C10512.7704,11292.6724 10526.2232,11299.3931 10528.4654,11308.354 C10532.9497,11319.5551 10526.2232,11332.9966 10530.7075,11341.9573 C10541.9183,11362.1192 10571.0663,11371.0801 10546.4026,11409.1639 C10541.9183,11415.8846 10532.9497,11411.4041 10526.2232,11409.1639 C10521.739,11404.6834 10526.2232,11397.9627 10523.981,11393.4824 C10521.739,11389.002 10494.8331,11371.0801 10492.591,11371.0801 C10488.1066,11368.8398 10485.8646,11380.041 10481.3802,11377.8008 C10465.6854,11366.5999 10441.0217,11321.7954 10418.6002,11315.0747 C10389.4523,11306.1138 10405.1473,11339.7172 10389.4523,11344.1976 C10362.5465,11353.1585 10286.3137,11375.5605 10293.0401,11386.7617 C10299.7665,11402.4433 10326.6723,11395.7226 10342.3674,11402.4433 C10349.0938,11404.6834 10328.9145,11409.1639 10328.9145,11415.8846 C10328.9145,11422.6053 10340.1253,11422.6053 10342.3674,11427.0857 C10346.8518,11436.0466 10340.1253,11449.4879 10346.8518,11456.2086 C10371.5152,11480.8508 10414.116,11467.4095 10436.5375,11494.2921 C10449.9904,11509.9737 10400.6631,11514.4543 10380.4838,11514.4543 C10349.0938,11516.6944 10324.4302,11514.4543 10315.4616,11512.214 C10308.7352,11509.9737 10313.2194,11498.7727 10308.7352,11492.052 C10306.493,11489.8117 10299.7665,11489.8117 10297.5245,11489.8117 C10279.5872,11489.8117 10254.9238,11476.3704 10243.713,11489.8117 C10225.7759,11514.4543 10299.7665,11570.4598 10308.7352,11586.1411 C10310.9774,11595.102 10304.2509,11604.063 10306.493,11610.7836 C10310.9774,11617.5043 10324.4302,11610.7836 10328.9145,11617.5043 C10337.8831,11633.1859 10364.7889,11682.4706 10373.7575,11702.6326 C10382.7258,11722.7946 10355.8201,11709.3533 10355.8201,11716.0739 C10355.8201,11722.7946 10364.7889,11725.0349 10367.0311,11729.5153 C10367.0311,11733.9957 10358.0624,11740.7162 10360.3046,11745.1969 C10362.5465,11749.6771 10414.116,11778.8 10409.6317,11796.7217 C10405.1473,11803.4424 10389.4523,11803.4424 10380.4838,11801.2023 C10373.7575,11796.7217 10375.9994,11783.2804 10369.273,11778.8 C10364.7889,11774.3195 10355.8201,11785.5207 10349.0938,11781.0403 C10310.9774,11751.9175 10295.2823,11662.3085 10239.2287,11740.7162 C10236.9865,11745.1969 10241.4709,11792.2413 10245.9552,11819.124 C10248.1974,11825.8446 10248.1974,11841.5262 10241.4709,11839.2858 C10185.4174,11832.5653 10221.2915,11776.5597 10203.3543,11751.9175 C10201.1122,11749.6771 10194.3857,11751.9175 10192.1437,11749.6771 C10178.691,11736.2359 10171.9645,11720.5543 10160.7537,11704.8727 C10154.0272,11693.6717 10149.543,11673.5097 10136.0901,11671.2694 C10028.4671,11646.6272 10124.8793,11749.6771 10086.763,11767.5988 C10021.7407,11796.7217 10039.6778,11722.7946 10037.4357,11707.113 C10037.4357,11702.6326 10030.7093,11702.6326 10028.4671,11702.6326 C10008.2878,11704.8727 9997.07696,11677.9901 9992.59272,11653.3479 C9988.10863,11619.7446 10015.0142,11657.8281 10019.4985,11606.3031 C10021.7407,11570.4598 9963.44492,11525.6553 9934.29697,11516.6944 C9927.57053,11514.4543 9920.84409,11530.1357 9916.35985,11523.415 C9907.39122,11512.214 9916.35985,11492.052 9905.14917,11480.8508 C9891.69645,11467.4095 9831.15835,11485.3313 9862.5485,11442.7673 C9864.79054,11440.527 9873.75918,11445.0075 9876.00138,11440.527 C9911.87561,11415.8846 9893.93834,11395.7226 9905.14917,11353.1585 C9905.14917,11348.678 9909.63341,11362.1192 9914.11765,11362.1192 C9916.35985,11362.1192 9909.63341,11353.1585 9911.87561,11353.1585 C9934.29697,11353.1585 9956.71848,11375.5605 9974.65576,11357.6389 C9999.31916,11332.9966 9965.68712,11330.7563 10010.53,11301.6334 C10041.92,11281.4714 10064.3415,11315.0747 10089.0049,11324.0356 C10124.8793,11337.4769 10167.48,11332.9966 10205.5965,11344.1976 C10228.0181,11348.678 10241.4709,11375.5605 10263.8921,11377.8008 C10272.8608,11380.041 10290.798,11368.8398 10288.5558,11357.6389 C10284.0718,11348.678 10259.4081,11359.8792 10254.9238,11348.678 C10232.5023,11297.153 10310.9774,11373.3204 10337.8831,11299.3931 C10340.1253,11292.6724 10322.188,11303.8736 10313.2194,11299.3931 C10308.7352,11297.153 10313.2194,11285.9518 10308.7352,11285.9518 C10304.2509,11285.9518 10302.0087,11312.8344 10290.798,11299.3931 C10272.8608,11276.9912 10259.4081,11308.354 10230.2601,11294.9127 C10214.565,11285.9518 10210.0808,11259.0693 10192.1437,11256.8289 C10180.9328,11254.5889 10187.6593,11290.4323 10174.2064,11290.4323 C10133.8479,11288.192 10160.7537,11196.3431 10131.6057,11247.8682 C10127.1215,11256.8289 10142.8166,11274.7507 10133.8479,11281.4714 C10118.1528,11297.153 10046.4042,11268.0302 10030.7093,11274.7507 C10001.5614,11285.9518 9979.13984,11312.8344 9936.53917,11324.0356 C9911.87561,11330.7563 9905.14917,11292.6724 9891.69645,11285.9518 C9884.9697,11283.7117 9893.93834,11301.6334 9889.45426,11306.1138 C9880.48546,11319.5551 9864.79054,11330.7563 9851.33767,11337.4769 C9846.85343,11339.7172 9849.09563,11328.516 9846.85343,11328.516 C9822.18972,11317.315 9846.85343,11297.153 9831.15835,11272.5104 C9822.18972,11259.0693 9810.97904,11245.628 9797.52616,11236.667 C9793.04208,11234.4269 9786.31564,11243.3877 9784.07344,11238.9073 C9772.86245,11229.9464 9777.347,11209.7844 9766.13617,11203.0637 C9743.71481,11187.3821 9703.35602,11247.8682 9736.98837,11164.9802 C9732.50397,11162.7399 9728.01973,11160.4995 9721.2933,11156.0192 C9714.56686,11149.2986 9719.0511,11138.0974 9714.56686,11131.3767 C9689.90315,11100.0137 9627.12316,11070.8909 9600.2174,11048.4887 C9591.24877,11044.0083 9604.70164,11021.606 9597.97521,11014.8854 C9591.24877,11008.1647 9557.61673,11032.8071 9535.19522,10979.0418 C9537.43742,10976.8015 9537.43742,10976.8015 9539.67962,10974.5615 C9541.92166,10972.3211 9537.43742,10970.0808 9539.67962,10970.0808 C9577.79605,10963.3602 9602.4596,10994.7234 9600.2174,10936.4777 C9600.2174,10923.0364 9631.60755,10943.1984 9624.88112,10923.0364 L9595.73332,10878.2319 C9597.97521,10862.5506 9667.48194,10840.1483 9671.96619,10833.4277 C9671.96619,10831.1874 9685.41906,10741.5787 9685.41906,10741.5787 C9701.11398,10681.0929 9714.56686,10755.02 9736.98837,10669.8917 C9743.71481,10643.009 9712.32466,10634.0481 9712.32466,10604.9255 C9728.01973,10607.1654 9878.24326,10560.121 9887.2119,10553.4003 C9911.87561,10526.5177 9893.93834,10490.6742 9938.78137,10474.9926 C9954.47644,10468.272 10041.92,10479.4729 10055.3729,10470.5123 C10062.0993,10466.0317 10059.8573,10452.5904 10066.5837,10448.11 C10071.0679,10445.8697 10077.7944,10459.3111 10082.2785,10454.8307 C10109.1842,10436.909 10048.6464,10401.0655 10120.395,10387.6242 L10120.395,10387.6242 C10118.1528,10389.8642 10120.395,10394.3449 10120.395,10394.3449 C10122.6372,10389.8642 10122.6372,10376.423 10122.6372,10358.5013 L10122.6372,10387.6242 L10120.395,10387.6242 L10149.543,10387.6242 C10158.5113,10387.6242 10169.7223,10394.3449 10176.4488,10387.6242 C10185.4174,10383.1437 10185.4174,10365.222 10194.3857,10360.7414 C10219.0494,10345.06 10252.6816,10354.0207 10279.5872,10345.06 C10342.3674,10322.6577 10358.0624,10295.7752 10398.4209,10271.1327 C10405.1473,10266.6523 10416.3582,10284.5739 10425.3267,10280.0936 C10438.7795,10277.8534 10445.5058,10255.4511 10458.959,10259.9316 C10476.896,10262.1718 10481.3802,10286.8143 10497.0753,10295.7752 C10499.3175,10300.2555 10506.0439,10291.2945 10510.5282,10293.5349 C10517.2546,10295.7752 10521.739,10311.4565 10528.4654,10309.2164 C10537.4339,10306.9761 10537.4339,10289.0546 10546.4026,10286.8143 C10571.0663,10280.0936 10600.2139,10293.5349 10622.6354,10304.7358 C10627.1198,10306.9761 10622.6354,10318.1772 10629.3619,10318.1772 C10660.752,10320.4174 10710.0791,10282.3339 10741.4691,10271.1327 L10741.4691,10271.1327 L10741.4691,10271.1327 L10741.4691,10271.1327 Z M9828.91615,11138.0974 C9855.82206,11088.8125 9788.55752,11142.5779 9786.31564,11140.3377 C9770.62056,11133.617 9757.16769,11104.4941 9743.71481,11113.455 C9739.23041,11113.455 9754.92549,11147.0583 9752.68329,11160.4995 C9775.1048,11160.4995 9815.46328,11160.4995 9828.91615,11138.0974 L9828.91615,11138.0974 Z M9790.79972,11404.6834 C9772.86245,11420.365 9766.13617,11397.9627 9750.44125,11395.7226 C9741.47261,11395.7226 9732.50397,11406.9237 9723.53549,11404.6834 C9707.84042,11400.203 9714.56686,11348.678 9701.11398,11359.8792 C9694.3877,11364.3594 9705.59822,11380.041 9701.11398,11389.002 C9683.17671,11427.0857 9671.96619,11362.1192 9721.2933,11297.153 C9728.01973,11308.354 9736.98837,11319.5551 9741.47261,11332.9966 C9741.47261,11335.2367 9734.74617,11355.3985 9745.95685,11357.6389 C9757.16769,11359.8792 9815.46328,11384.5214 9790.79972,11404.6834 L9790.79972,11404.6834 Z M10557.6131,11214.2648 C10546.4026,11200.8234 10530.7075,11189.6224 10512.7704,11182.9017 C10485.8646,11173.9408 10447.7482,11216.505 10418.6002,11187.3821 C10414.116,11180.6615 10427.5689,11171.7008 10423.0846,11164.9802 C10416.3582,11144.818 10284.0718,11082.0918 10259.4081,11086.5724 C10245.9552,11091.0527 10239.2287,11106.7343 10228.0181,11113.455 C10221.2915,11115.6953 10232.5023,11100.0137 10236.9865,11095.5331 C10243.713,11088.8125 10252.6816,11082.0918 10259.4081,11075.3712 C10268.3767,11066.4105 10275.1031,11059.6899 10284.0718,11052.9692 C10297.5245,11044.0083 10310.9774,11037.2876 10324.4302,11030.567 C10362.5465,11050.7289 10358.0624,11070.8909 10396.1789,11091.0527 C10402.9053,11095.5331 10411.8738,11097.7734 10420.8424,11097.7734 C10425.3267,11097.7734 10427.5689,11088.8125 10432.0531,11091.0527 C10443.2639,11095.5331 10452.2326,11108.9746 10465.6854,11113.455 C10479.1382,11115.6953 10526.2232,11088.8125 10535.1919,11104.4941 C10537.4339,11106.7343 10532.9497,11108.9746 10532.9497,11111.2147 C10530.7075,11113.455 10528.4654,11117.9354 10530.7075,11120.1757 C10539.6761,11129.1366 10555.3712,11129.1366 10562.0976,11140.3377 C10562.0976,11142.5779 10557.6131,11209.7844 10580.0346,11225.466 C10604.6983,11243.3877 10705.5947,11209.7844 10665.2361,11276.9912 C10642.8147,11312.8344 10582.2768,11268.0302 10568.8239,11252.3486 C10566.5817,11247.8682 10575.5503,11245.628 10575.5503,11241.1476 C10573.3081,11234.4269 10566.5817,11227.7062 10559.8553,11223.2257 C10555.3712,11223.2257 10550.8866,11234.4269 10548.6447,11229.9464 C10548.6447,11225.466 10562.0976,11218.7453 10557.6131,11214.2648 L10557.6131,11214.2648 Z M10530.3919,10474.0853 C10530.3722,10473.9627 10515.2156,10487.7929 10512.4643,10488.2656 C10517.3561,10494.9556 10511.1719,10496.334 10505.7417,10500.9534 C10507.7406,10503.3784 10509.0522,10505.9996 10509.4765,10509.1631 C10504.5577,10512.7498 10504.4353,10519.906 10504.9946,10523.3434 C10514.2895,10521.7467 10531.4367,10524.3495 10529.6449,10535.2848 C10542.2608,10528.5847 10532.0543,10538.6736 10543.0906,10536.7776 C10542.2015,10531.8979 10543.9709,10528.79 10548.3193,10527.0751 C10553.552,10529.3724 10546.9248,10527.7233 10555.0422,10526.3288 C10554.6533,10524.8609 10554.3346,10523.3745 10554.2951,10521.8508 C10556.3427,10520.8685 10556.921,10521.0852 10556.5361,10523.3434 C10563.1499,10522.2072 10552.4575,10521.8525 10565.4999,10519.6118 C10562.4108,10515.3623 10568.1291,10509.0946 10562.5119,10508.4167 C10556.9874,10507.7497 10559.7908,10500.1848 10564.0058,10499.4607 C10563.4564,10493.6314 10561.1081,10492.0284 10556.5361,10494.2363 C10556.9181,10491.4023 10558.4656,10490.1947 10558.03,10487.5192 C10560.3537,10487.8716 10562.4293,10487.9131 10564.7528,10488.2656 C10563.4945,10485.714 10562.2004,10484.9702 10561.765,10482.2949 C10553.05,10488.6492 10551.4672,10472.9027 10544.5845,10474.0853 C10542.2195,10483.4492 10533.6451,10473.828 10530.3919,10474.0853 L10530.3919,10474.0853 Z M10972.6028,10807.6977 C10969.0763,10809.1989 10964.4396,10811.6466 10965.1331,10815.9074 C10962.8904,10815.775 10956.6421,10808.1397 10957.6632,10814.4147 C10948.2717,10816.0282 10940.4135,10819.9887 10933.76,10821.1316 C10947.2618,10825.5598 10918.2587,10849.9957 10917.3265,10844.2681 C10911.5418,10845.8741 10912.7876,10851.5893 10907.6158,10852.4778 C10911.0633,10841.5237 10900.4147,10851.0322 10900.893,10853.9704 C10892.5705,10859.5056 10885.8985,10856.664 10879.9776,10852.4778 C10880.5718,10856.13 10871.9927,10864.7637 10869.5199,10872.6288 C10871.6052,10871.5185 10872.8879,10871.8057 10872.5079,10874.1216 C10861.7917,10872.4967 10862.889,10881.4791 10872.5079,10876.3606 C10870.7312,10889.6472 10883.2267,10885.0935 10885.2063,10897.2581 C10889.6565,10894.0221 10894.3055,10895.3481 10897.1581,10901.736 C10905.3469,10900.226 10920.949,10904.8983 10925.5432,10900.9897 C10932.4025,10895.1522 10939.6072,10882.5114 10938.2419,10874.1216 C10942.0202,10872.2748 10946.4442,10868.1742 10945.7116,10863.6729 C10947.7549,10862.2731 10959.2624,10861.6724 10960.6512,10861.4339 C10962.7784,10874.5044 10978.5437,10865.0163 10962.1451,10881.5849 C10962.2355,10882.1409 10947.5486,10890.616 10946.4586,10897.2581 C10935.1244,10893.8397 10948.0267,10903.8989 10933.76,10901.736 C10933.5054,10902.8463 10932.4954,10904.1215 10931.519,10904.7214 C10933.6631,10907.369 10944.7828,10917.8018 10942.7238,10918.1554 C10944.9151,10931.6206 10955.4398,10916.9083 10958.4102,10915.9163 C10959.2601,10921.1358 10972.4551,10920.4435 10977.0847,10919.6481 C10983.1794,10922.1168 10983.1769,10926.6106 10989.7833,10928.6041 C10989.5612,10927.2377 11014.2247,10921.962 11018.9155,10923.3798 C11018.0757,10918.2216 11020.4765,10923.007 11022.6503,10922.6334 C11021.6619,10916.5599 11037.9895,10918.5949 11036.096,10906.9604 C11030.5592,10909.7845 11026.6659,10908.423 11024.1443,10902.4824 C11027.4645,10901.9118 11040.7552,10907.3043 11040.5778,10906.214 C11048.3995,10900.5266 11044.0742,10911.6485 11050.2886,10898.0043 C11038.8614,10896.2721 11031.0667,10872.1858 11024.1443,10873.3752 C11026.6139,10869.4175 11025.561,10865.5219 11021.9033,10862.1801 C11011.6036,10869.6892 10999.9272,10830.1073 10984.5544,10841.2828 C10983.1117,10832.4155 10993.9913,10827.1356 10992.7712,10819.639 C10985.3844,10823.5728 10980.805,10819.3612 10974.8437,10820.3854 C10977.0883,10813.2616 10974.3189,10818.2419 10972.6028,10807.6977 L10972.6028,10807.6977 Z M9511.51399,10935.3211 C9511.0858,10936.6731 9500.94193,10935.8218 9502.55021,10936.0675 C9503.19008,10939.9996 9490.75864,10950.5977 9489.85156,10945.0235 C9483.07616,10943.9959 9476.11786,10950.0169 9470.43008,10950.9943 C9470.31665,10949.182 9469.27581,10947.3669 9467.44225,10946.5162 C9466.8296,10948.5436 9460.4608,10955.0508 9466.69522,10953.9796 C9466.12544,10957.2148 9464.08286,10958.7612 9460.71941,10959.204 C9464.26716,10963.9596 9468.32633,10969.7817 9474.16509,10970.3989 C9473.42306,10975.9505 9472.46576,10978.3318 9475.659,10983.8331 C9497.58098,10980.0664 9480.73696,10993.8652 9491.34547,10992.0428 C9498.50386,10999.4326 9498.93237,11007.9384 9505.53803,10998.7597 C9508.14209,11004.4568 9514.10241,11010.7188 9518.98371,11012.1938 C9521.78881,11016.3119 9518.05692,11024.8232 9521.97169,11030.1058 C9526.29213,11028.6932 9529.14979,11031.0767 9530.18845,11037.5693 C9527.86505,11037.217 9526.85487,11037.7453 9527.9475,11039.8083 C9540.98955,11037.5673 9530.29733,11037.2129 9536.91113,11036.0765 C9538.90974,11039.78 9534.85792,11040.1025 9535.41722,11043.54 C9541.72391,11043.3565 9560.3508,11042.8172 9561.56139,11050.257 C9564.07471,11051.2476 9582.37713,11055.6268 9583.22382,11055.4813 C9584.7096,11046.4261 9576.10971,11030.728 9566.04328,11036.0765 C9555.80633,11041.5171 9543.90478,11026.4086 9535.41722,11027.8668 C9534.61198,11021.3032 9533.13356,10998.3586 9526.45343,10999.5061 C9526.91479,10994.4578 9528.97645,10991.2856 9528.69438,10986.0721 C9523.89396,10986.7933 9510.36067,10986.7835 9509.27305,10980.1013 L9518.23668,10978.6086 C9516.70412,10969.1897 9504.93618,10987.4639 9509.27305,10971.8916 C9510.60363,10967.1165 9513.62478,10963.5167 9517.4898,10960.6966 C9517.10948,10963.0122 9518.39203,10964.0456 9520.47762,10962.9356 C9521.2658,10958.1414 9535.99951,10951.4601 9527.20046,10945.7699 C9522.49986,10942.7335 9512.9871,10941.2257 9511.51399,10935.3211 L9511.51399,10935.3211 Z M10933.76,11043.54 C10924.0182,11047.568 10914.1428,11049.6515 10906.1217,11055.4813 C10906.5021,11053.1654 10905.9672,11052.1368 10903.8808,11053.2423 C10904.4823,11056.9377 10899.1519,11063.4426 10896.4111,11065.93 C10898.4357,11068.4812 10900.2373,11071.2029 10901.6399,11074.1397 C10905.4116,11083.417 10909.4439,11084.0886 10919.5674,11082.3494 C10928.0454,11093.9464 10936.4869,11103.6237 10942.7238,11112.2029 C10930.6026,11108.546 10944.1864,11120.9661 10944.2177,11121.1589 C10937.3481,11122.3395 10935.5582,11140.6747 10929.2781,11135.3392 C10924.1172,11130.9501 10920.7503,11146.6677 10921.8084,11149.5198 C10925.0226,11148.9675 10919.6298,11154.1605 10930.0251,11156.2367 C10940.054,11158.2319 10945.3837,11167.6589 10956.1693,11168.1782 C10954.9556,11160.7211 10959.4373,11164.8195 10959.1573,11158.4757 C10957.0717,11159.5858 10956.5362,11159.299 10956.9163,11156.9831 C10961.2923,11155.4389 10972.3148,11152.3398 10971.8559,11149.5198 C10975.5728,11145.9869 10977.9237,11142.2498 10970.3619,11143.5491 C10970.3856,11143.4148 10969.3046,11133.5728 10968.8679,11134.593 C10985.9407,11131.6595 10980.9707,11103.6716 10969.615,11100.2614 C10968.2426,11099.8491 10972.2423,11096.4599 10971.8559,11095.7836 C10975.8109,11095.1037 10963.8023,11075.8889 10963.6392,11074.8861 C10973.4603,11077.8354 10969.2085,11062.4246 10969.615,11055.4813 C10966.425,11054.904 10958.245,11052.1156 10959.1573,11057.7203 C10956.5953,11058.1607 10933.8319,11043.9822 10933.76,11043.54 L10933.76,11043.54 Z M11185.4915,11236.841 C11188.2554,11253.8225 11187.4605,11238.6781 11189.2265,11249.5287 C11176.284,11246.5898 11134.3114,11228.9199 11129.4681,11244.3045 C11118.1276,11246.2527 11119.114,11249.0568 11113.7817,11258.4848 C11104.0461,11257.011 11109.104,11257.2168 11102.5769,11264.4555 C11095.6235,11272.168 11103.6952,11275.3693 11104.8179,11284.6065 C11117.2399,11282.1481 11113.271,11273.2012 11127.2273,11271.1726 C11139.6154,11269.3679 11142.2386,11273.8668 11147.3957,11283.8603 C11162.5224,11287.2165 11172.7432,11284.5353 11175.0338,11270.4262 C11189.5267,11267.9367 11190.9035,11259.6458 11206.4069,11257.7384 C11198.0537,11241.893 11207.0191,11257.8791 11205.66,11249.5287 C11196.2244,11251.1497 11200.225,11244.6426 11199.6842,11241.319 C11192.6834,11239.9385 11190.3019,11236.0147 11185.4915,11236.841 L11185.4915,11236.841 Z M11526.8605,11569.7072 C11525.3283,11569.8174 11523.843,11569.9813 11522.3786,11570.4534 C11519.3548,11572.8723 11527.5417,11572.3115 11525.3665,11574.9315 C11520.7056,11575.7321 11519.7904,11582.808 11515.6558,11580.1559 C11514.4405,11578.0372 11512.8103,11577.0267 11510.427,11577.1705 C11506.6811,11585.3983 11502.8879,11584.9835 11496.2343,11586.1266 C11493.6977,11594.2414 11482.1014,11598.034 11477.5599,11598.8143 C11479.3964,11610.0984 11465.3813,11610.0246 11461.1264,11610.7557 C11461.5935,11613.6237 11444.3246,11636.7253 11445.4399,11638.37 C11444.9889,11636.8499 11444.8679,11634.7228 11444.6929,11633.1457 C11436.5712,11634.5414 11436.6892,11658.0086 11437.9702,11661.5065 C11433.3239,11660.806 11432.0543,11662.6044 11434.2352,11666.7309 C11429.7772,11667.497 11429.0718,11668.2714 11421.5365,11671.2089 C11425.874,11680.5377 11429.9138,11687.7764 11439.4641,11686.1355 C11440.9987,11695.5635 11447.3201,11727.6884 11437.2231,11729.423 C11435.9242,11737.4291 11449.6643,11746.7933 11458.1385,11742.8572 C11463.4058,11740.4124 11462.9363,11733.5794 11469.3431,11730.1694 C11472.322,11720.7089 11475.2628,11729.9139 11475.3189,11718.2281 C11473.1151,11712.6247 11474.6324,11710.1717 11479.8008,11710.7646 C11480.2484,11710.3682 11486.4556,11694.968 11487.2707,11693.599 C11491.0595,11687.191 11515.5339,11679.9173 11514.1619,11674.9406 C11513.749,11676.6902 11495.6306,11667.5236 11508.933,11665.2381 C11509.9183,11660.6264 11501.9995,11655.258 11513.4149,11653.2968 C11509.6728,11648.1553 11514.1938,11647.6106 11517.1497,11645.8335 C11519.268,11644.4795 11520.8342,11642.4226 11517.8968,11636.8774 C11532.156,11634.4275 11518.5865,11623.6938 11520.8846,11615.9799 C11534.5635,11601.7198 11520.2275,11611.2732 11529.1015,11594.3363 C11523.0123,11595.382 11529.0635,11590.9721 11530.5954,11589.8582 C11530.2155,11592.1741 11530.7508,11592.461 11532.8363,11591.3508 C11534.0907,11585.1354 11532.5158,11583.038 11527.6074,11585.3802 C11527.2432,11575.7332 11531.2376,11577.971 11526.8605,11569.7072 L11526.8605,11569.7072 Z" id="gr" fill="#87B024"></path>
                    </g>
                </g>
            </g>
        </g>
    </g>
</svg>