G75*
G70*
%OFA0B0*%
%FSLAX24Y24*%
%IPPOS*%
%LPD*%
%AMOC8*
5,1,8,0,0,1.08239X$1,22.5*
%
%ADD10C,0.0060*%
%ADD11C,0.0080*%
%ADD12C,0.0040*%
%ADD13C,0.0050*%
%ADD14R,0.0003X0.0003*%
%ADD15R,0.0057X0.0003*%
%ADD16R,0.0080X0.0003*%
%ADD17R,0.0097X0.0003*%
%ADD18R,0.0112X0.0003*%
%ADD19R,0.0127X0.0003*%
%ADD20R,0.0138X0.0003*%
%ADD21R,0.0147X0.0003*%
%ADD22R,0.0160X0.0003*%
%ADD23R,0.0165X0.0003*%
%ADD24R,0.0175X0.0003*%
%ADD25R,0.0185X0.0003*%
%ADD26R,0.0190X0.0003*%
%ADD27R,0.0198X0.0003*%
%ADD28R,0.0205X0.0003*%
%ADD29R,0.0213X0.0003*%
%ADD30R,0.0217X0.0003*%
%ADD31R,0.0222X0.0003*%
%ADD32R,0.0230X0.0003*%
%ADD33R,0.0235X0.0003*%
%ADD34R,0.0240X0.0003*%
%ADD35R,0.0248X0.0003*%
%ADD36R,0.0253X0.0003*%
%ADD37R,0.0257X0.0003*%
%ADD38R,0.0262X0.0003*%
%ADD39R,0.0267X0.0003*%
%ADD40R,0.0272X0.0003*%
%ADD41R,0.0278X0.0003*%
%ADD42R,0.0283X0.0003*%
%ADD43R,0.0285X0.0003*%
%ADD44R,0.0290X0.0003*%
%ADD45R,0.0295X0.0003*%
%ADD46R,0.0297X0.0003*%
%ADD47R,0.0302X0.0003*%
%ADD48R,0.0305X0.0003*%
%ADD49R,0.0310X0.0003*%
%ADD50R,0.0315X0.0003*%
%ADD51R,0.0318X0.0003*%
%ADD52R,0.0323X0.0003*%
%ADD53R,0.0325X0.0003*%
%ADD54R,0.0330X0.0003*%
%ADD55R,0.0333X0.0003*%
%ADD56R,0.0335X0.0003*%
%ADD57R,0.0338X0.0003*%
%ADD58R,0.0343X0.0003*%
%ADD59R,0.0345X0.0003*%
%ADD60R,0.0350X0.0003*%
%ADD61R,0.0352X0.0003*%
%ADD62R,0.0357X0.0003*%
%ADD63R,0.0362X0.0003*%
%ADD64R,0.0365X0.0003*%
%ADD65R,0.0370X0.0003*%
%ADD66R,0.0372X0.0003*%
%ADD67R,0.0375X0.0003*%
%ADD68R,0.0377X0.0003*%
%ADD69R,0.0380X0.0003*%
%ADD70R,0.0385X0.0003*%
%ADD71R,0.0387X0.0003*%
%ADD72R,0.0390X0.0003*%
%ADD73R,0.0393X0.0003*%
%ADD74R,0.0395X0.0003*%
%ADD75R,0.0398X0.0003*%
%ADD76R,0.0403X0.0003*%
%ADD77R,0.0405X0.0003*%
%ADD78R,0.0410X0.0003*%
%ADD79R,0.0413X0.0003*%
%ADD80R,0.0418X0.0003*%
%ADD81R,0.0182X0.0003*%
%ADD82R,0.0232X0.0003*%
%ADD83R,0.0227X0.0003*%
%ADD84R,0.0180X0.0003*%
%ADD85R,0.0225X0.0003*%
%ADD86R,0.0220X0.0003*%
%ADD87R,0.0177X0.0003*%
%ADD88R,0.0215X0.0003*%
%ADD89R,0.0210X0.0003*%
%ADD90R,0.0173X0.0003*%
%ADD91R,0.0170X0.0003*%
%ADD92R,0.0208X0.0003*%
%ADD93R,0.0168X0.0003*%
%ADD94R,0.0203X0.0003*%
%ADD95R,0.0200X0.0003*%
%ADD96R,0.0187X0.0003*%
%ADD97R,0.0195X0.0003*%
%ADD98R,0.0192X0.0003*%
%ADD99R,0.0005X0.0003*%
%ADD100R,0.0008X0.0003*%
%ADD101R,0.0010X0.0003*%
%ADD102R,0.0013X0.0003*%
%ADD103R,0.0015X0.0003*%
%ADD104R,0.0018X0.0003*%
%ADD105R,0.0020X0.0003*%
%ADD106R,0.0022X0.0003*%
%ADD107R,0.0025X0.0003*%
%ADD108R,0.0030X0.0003*%
%ADD109R,0.0032X0.0003*%
%ADD110R,0.0035X0.0003*%
%ADD111R,0.0037X0.0003*%
%ADD112R,0.0040X0.0003*%
%ADD113R,0.0043X0.0003*%
%ADD114R,0.0045X0.0003*%
%ADD115R,0.0047X0.0003*%
%ADD116R,0.0238X0.0003*%
%ADD117R,0.0050X0.0003*%
%ADD118R,0.0053X0.0003*%
%ADD119R,0.0055X0.0003*%
%ADD120R,0.0243X0.0003*%
%ADD121R,0.0060X0.0003*%
%ADD122R,0.0063X0.0003*%
%ADD123R,0.0065X0.0003*%
%ADD124R,0.0245X0.0003*%
%ADD125R,0.0067X0.0003*%
%ADD126R,0.0070X0.0003*%
%ADD127R,0.0073X0.0003*%
%ADD128R,0.0430X0.0003*%
%ADD129R,0.0428X0.0003*%
%ADD130R,0.0075X0.0003*%
%ADD131R,0.0425X0.0003*%
%ADD132R,0.0423X0.0003*%
%ADD133R,0.0420X0.0003*%
%ADD134R,0.0077X0.0003*%
%ADD135R,0.0415X0.0003*%
%ADD136R,0.0083X0.0003*%
%ADD137R,0.0408X0.0003*%
%ADD138R,0.0085X0.0003*%
%ADD139R,0.0400X0.0003*%
%ADD140R,0.0088X0.0003*%
%ADD141R,0.0090X0.0003*%
%ADD142R,0.0382X0.0003*%
%ADD143R,0.0092X0.0003*%
%ADD144R,0.0095X0.0003*%
%ADD145R,0.0367X0.0003*%
%ADD146R,0.0360X0.0003*%
%ADD147R,0.0355X0.0003*%
%ADD148R,0.0100X0.0003*%
%ADD149R,0.0103X0.0003*%
%ADD150R,0.0340X0.0003*%
%ADD151R,0.0105X0.0003*%
%ADD152R,0.0107X0.0003*%
%ADD153R,0.0328X0.0003*%
%ADD154R,0.0110X0.0003*%
%ADD155R,0.0320X0.0003*%
%ADD156R,0.0312X0.0003*%
%ADD157R,0.0307X0.0003*%
%ADD158R,0.0300X0.0003*%
%ADD159R,0.0115X0.0003*%
%ADD160R,0.0118X0.0003*%
%ADD161R,0.0293X0.0003*%
%ADD162R,0.0288X0.0003*%
%ADD163R,0.0280X0.0003*%
%ADD164R,0.0120X0.0003*%
%ADD165R,0.0275X0.0003*%
%ADD166R,0.0123X0.0003*%
%ADD167R,0.0270X0.0003*%
%ADD168R,0.0265X0.0003*%
%ADD169R,0.0255X0.0003*%
%ADD170R,0.0125X0.0003*%
%ADD171R,0.0250X0.0003*%
%ADD172R,0.0130X0.0003*%
%ADD173R,0.0132X0.0003*%
%ADD174R,0.0135X0.0003*%
%ADD175R,0.0140X0.0003*%
%ADD176R,0.0143X0.0003*%
%ADD177R,0.0145X0.0003*%
%ADD178R,0.0150X0.0003*%
%ADD179R,0.0152X0.0003*%
%ADD180R,0.0155X0.0003*%
%ADD181R,0.0158X0.0003*%
%ADD182R,0.0163X0.0003*%
%ADD183R,0.0260X0.0003*%
%ADD184R,0.0440X0.0003*%
%ADD185R,0.0445X0.0003*%
%ADD186R,0.0447X0.0003*%
%ADD187R,0.0450X0.0003*%
%ADD188R,0.0452X0.0003*%
%ADD189R,0.0457X0.0003*%
%ADD190R,0.0462X0.0003*%
%ADD191R,0.0465X0.0003*%
%ADD192R,0.0467X0.0003*%
%ADD193R,0.0470X0.0003*%
%ADD194R,0.0473X0.0003*%
%ADD195R,0.0475X0.0003*%
%ADD196R,0.0478X0.0003*%
%ADD197R,0.0455X0.0003*%
%ADD198R,0.0432X0.0003*%
%ADD199R,0.0480X0.0003*%
%ADD200R,0.0483X0.0003*%
%ADD201R,0.0488X0.0003*%
%ADD202R,0.0485X0.0003*%
%ADD203R,0.0710X0.0003*%
%ADD204R,0.0493X0.0003*%
%ADD205R,0.0495X0.0003*%
%ADD206R,0.0435X0.0003*%
%ADD207R,0.0437X0.0003*%
%ADD208R,0.0500X0.0003*%
%ADD209R,0.0712X0.0003*%
%ADD210R,0.0498X0.0003*%
%ADD211R,0.0442X0.0003*%
%ADD212R,0.0508X0.0003*%
%ADD213R,0.0715X0.0003*%
%ADD214R,0.0348X0.0003*%
%ADD215R,0.0515X0.0003*%
%ADD216R,0.0503X0.0003*%
%ADD217R,0.0520X0.0003*%
%ADD218R,0.0505X0.0003*%
%ADD219R,0.0460X0.0003*%
%ADD220R,0.0527X0.0003*%
%ADD221R,0.0717X0.0003*%
%ADD222R,0.0532X0.0003*%
%ADD223R,0.0510X0.0003*%
%ADD224R,0.0540X0.0003*%
%ADD225R,0.0548X0.0003*%
%ADD226R,0.0720X0.0003*%
%ADD227R,0.0553X0.0003*%
%ADD228R,0.0722X0.0003*%
%ADD229R,0.0560X0.0003*%
%ADD230R,0.0517X0.0003*%
%ADD231R,0.0565X0.0003*%
%ADD232R,0.0573X0.0003*%
%ADD233R,0.0522X0.0003*%
%ADD234R,0.0578X0.0003*%
%ADD235R,0.0725X0.0003*%
%ADD236R,0.0525X0.0003*%
%ADD237R,0.0583X0.0003*%
%ADD238R,0.0512X0.0003*%
%ADD239R,0.0590X0.0003*%
%ADD240R,0.0530X0.0003*%
%ADD241R,0.0595X0.0003*%
%ADD242R,0.0602X0.0003*%
%ADD243R,0.0727X0.0003*%
%ADD244R,0.0535X0.0003*%
%ADD245R,0.0607X0.0003*%
%ADD246R,0.0730X0.0003*%
%ADD247R,0.0537X0.0003*%
%ADD248R,0.0612X0.0003*%
%ADD249R,0.0617X0.0003*%
%ADD250R,0.0542X0.0003*%
%ADD251R,0.0545X0.0003*%
%ADD252R,0.0622X0.0003*%
%ADD253R,0.0630X0.0003*%
%ADD254R,0.0732X0.0003*%
%ADD255R,0.0633X0.0003*%
%ADD256R,0.0550X0.0003*%
%ADD257R,0.0555X0.0003*%
%ADD258R,0.0638X0.0003*%
%ADD259R,0.0563X0.0003*%
%ADD260R,0.0645X0.0003*%
%ADD261R,0.0558X0.0003*%
%ADD262R,0.0490X0.0003*%
%ADD263R,0.0650X0.0003*%
%ADD264R,0.0735X0.0003*%
%ADD265R,0.0570X0.0003*%
%ADD266R,0.0653X0.0003*%
%ADD267R,0.0660X0.0003*%
%ADD268R,0.0580X0.0003*%
%ADD269R,0.0665X0.0003*%
%ADD270R,0.0575X0.0003*%
%ADD271R,0.0668X0.0003*%
%ADD272R,0.0587X0.0003*%
%ADD273R,0.0673X0.0003*%
%ADD274R,0.0737X0.0003*%
%ADD275R,0.0680X0.0003*%
%ADD276R,0.0585X0.0003*%
%ADD277R,0.0592X0.0003*%
%ADD278R,0.0683X0.0003*%
%ADD279R,0.0600X0.0003*%
%ADD280R,0.0688X0.0003*%
%ADD281R,0.0690X0.0003*%
%ADD282R,0.0597X0.0003*%
%ADD283R,0.0698X0.0003*%
%ADD284R,0.0740X0.0003*%
%ADD285R,0.0610X0.0003*%
%ADD286R,0.0700X0.0003*%
%ADD287R,0.0605X0.0003*%
%ADD288R,0.0705X0.0003*%
%ADD289R,0.0625X0.0003*%
%ADD290R,0.0742X0.0003*%
%ADD291R,0.0620X0.0003*%
%ADD292R,0.0635X0.0003*%
%ADD293R,0.0640X0.0003*%
%ADD294R,0.0643X0.0003*%
%ADD295R,0.0745X0.0003*%
%ADD296R,0.0648X0.0003*%
%ADD297R,0.0658X0.0003*%
%ADD298R,0.0655X0.0003*%
%ADD299R,0.0663X0.0003*%
%ADD300R,0.0747X0.0003*%
%ADD301R,0.0670X0.0003*%
%ADD302R,0.0675X0.0003*%
%ADD303R,0.0685X0.0003*%
%ADD304R,0.0695X0.0003*%
%ADD305R,0.0027X0.0003*%
%ADD306R,0.0568X0.0003*%
%ADD307R,0.0912X0.0003*%
%ADD308R,0.0907X0.0003*%
%ADD309R,0.0900X0.0003*%
%ADD310R,0.0895X0.0003*%
%ADD311R,0.0887X0.0003*%
%ADD312R,0.0882X0.0003*%
%ADD313R,0.0875X0.0003*%
%ADD314R,0.0862X0.0003*%
%ADD315R,0.0848X0.0003*%
%ADD316R,0.0833X0.0003*%
%ADD317R,0.0818X0.0003*%
%ADD318R,0.0800X0.0003*%
%ADD319R,0.0788X0.0003*%
%ADD320R,0.0770X0.0003*%
%ADD321R,0.0752X0.0003*%
%ADD322R,0.0615X0.0003*%
%ADD323C,0.0000*%
%ADD324C,0.0020*%
D10*
X000694Y004511D02*
X000696Y004599D01*
X000703Y004687D01*
X000713Y004775D01*
X000729Y004862D01*
X000748Y004948D01*
X000772Y005034D01*
X000799Y005117D01*
X000831Y005200D01*
X000867Y005281D01*
X000907Y005360D01*
X000950Y005436D01*
X000997Y005511D01*
X001048Y005583D01*
X001103Y005653D01*
X001160Y005720D01*
X001221Y005784D01*
X001285Y005845D01*
X001352Y005902D01*
X001422Y005957D01*
X001494Y006008D01*
X001569Y006055D01*
X001645Y006098D01*
X001724Y006138D01*
X001805Y006174D01*
X001888Y006206D01*
X001971Y006233D01*
X002057Y006257D01*
X002143Y006276D01*
X002230Y006292D01*
X002318Y006302D01*
X002406Y006309D01*
X002494Y006311D01*
X002582Y006309D01*
X002670Y006302D01*
X002758Y006292D01*
X002845Y006276D01*
X002931Y006257D01*
X003017Y006233D01*
X003100Y006206D01*
X003183Y006174D01*
X003264Y006138D01*
X003343Y006098D01*
X003419Y006055D01*
X003494Y006008D01*
X003566Y005957D01*
X003636Y005902D01*
X003703Y005845D01*
X003767Y005784D01*
X003828Y005720D01*
X003885Y005653D01*
X003940Y005583D01*
X003991Y005511D01*
X004038Y005436D01*
X004081Y005360D01*
X004121Y005281D01*
X004157Y005200D01*
X004189Y005117D01*
X004216Y005034D01*
X004240Y004948D01*
X004259Y004862D01*
X004275Y004775D01*
X004285Y004687D01*
X004292Y004599D01*
X004294Y004511D01*
X004292Y004423D01*
X004285Y004335D01*
X004275Y004247D01*
X004259Y004160D01*
X004240Y004074D01*
X004216Y003988D01*
X004189Y003905D01*
X004157Y003822D01*
X004121Y003741D01*
X004081Y003662D01*
X004038Y003586D01*
X003991Y003511D01*
X003940Y003439D01*
X003885Y003369D01*
X003828Y003302D01*
X003767Y003238D01*
X003703Y003177D01*
X003636Y003120D01*
X003566Y003065D01*
X003494Y003014D01*
X003419Y002967D01*
X003343Y002924D01*
X003264Y002884D01*
X003183Y002848D01*
X003100Y002816D01*
X003017Y002789D01*
X002931Y002765D01*
X002845Y002746D01*
X002758Y002730D01*
X002670Y002720D01*
X002582Y002713D01*
X002494Y002711D01*
X002406Y002713D01*
X002318Y002720D01*
X002230Y002730D01*
X002143Y002746D01*
X002057Y002765D01*
X001971Y002789D01*
X001888Y002816D01*
X001805Y002848D01*
X001724Y002884D01*
X001645Y002924D01*
X001569Y002967D01*
X001494Y003014D01*
X001422Y003065D01*
X001352Y003120D01*
X001285Y003177D01*
X001221Y003238D01*
X001160Y003302D01*
X001103Y003369D01*
X001048Y003439D01*
X000997Y003511D01*
X000950Y003586D01*
X000907Y003662D01*
X000867Y003741D01*
X000831Y003822D01*
X000799Y003905D01*
X000772Y003988D01*
X000748Y004074D01*
X000729Y004160D01*
X000713Y004247D01*
X000703Y004335D01*
X000696Y004423D01*
X000694Y004511D01*
X014728Y003106D02*
X014835Y003213D01*
X015049Y003213D01*
X015155Y003106D01*
X015155Y002999D01*
X014728Y002572D01*
X015155Y002572D01*
X015373Y002679D02*
X015800Y003106D01*
X015800Y002679D01*
X015693Y002572D01*
X015480Y002572D01*
X015373Y002679D01*
X015373Y003106D01*
X015480Y003213D01*
X015693Y003213D01*
X015800Y003106D01*
X016018Y002999D02*
X016231Y003213D01*
X016231Y002572D01*
X016018Y002572D02*
X016445Y002572D01*
X016662Y002679D02*
X016769Y002572D01*
X016982Y002572D01*
X017089Y002679D01*
X017089Y002786D01*
X016982Y002892D01*
X016662Y002892D01*
X016662Y002679D01*
X016662Y002892D02*
X016876Y003106D01*
X017089Y003213D01*
X016876Y002032D02*
X017089Y001818D01*
X017089Y001391D01*
X016662Y001391D02*
X016662Y001818D01*
X016876Y002032D01*
X016445Y001818D02*
X016231Y001391D01*
X016018Y001818D01*
X015800Y001711D02*
X015800Y001605D01*
X015373Y001605D01*
X015373Y001711D02*
X015373Y001498D01*
X015480Y001391D01*
X015693Y001391D01*
X015155Y001391D02*
X014942Y001605D01*
X015049Y001605D02*
X014728Y001605D01*
X015049Y001605D02*
X015155Y001711D01*
X015155Y001925D01*
X015049Y002032D01*
X014728Y002032D01*
X014728Y001391D01*
X015373Y001711D02*
X015480Y001818D01*
X015693Y001818D01*
X015800Y001711D01*
X016662Y001711D02*
X017089Y001711D01*
X017229Y004511D02*
X017231Y004599D01*
X017238Y004687D01*
X017248Y004775D01*
X017264Y004862D01*
X017283Y004948D01*
X017307Y005034D01*
X017334Y005117D01*
X017366Y005200D01*
X017402Y005281D01*
X017442Y005360D01*
X017485Y005436D01*
X017532Y005511D01*
X017583Y005583D01*
X017638Y005653D01*
X017695Y005720D01*
X017756Y005784D01*
X017820Y005845D01*
X017887Y005902D01*
X017957Y005957D01*
X018029Y006008D01*
X018104Y006055D01*
X018180Y006098D01*
X018259Y006138D01*
X018340Y006174D01*
X018423Y006206D01*
X018506Y006233D01*
X018592Y006257D01*
X018678Y006276D01*
X018765Y006292D01*
X018853Y006302D01*
X018941Y006309D01*
X019029Y006311D01*
X019117Y006309D01*
X019205Y006302D01*
X019293Y006292D01*
X019380Y006276D01*
X019466Y006257D01*
X019552Y006233D01*
X019635Y006206D01*
X019718Y006174D01*
X019799Y006138D01*
X019878Y006098D01*
X019954Y006055D01*
X020029Y006008D01*
X020101Y005957D01*
X020171Y005902D01*
X020238Y005845D01*
X020302Y005784D01*
X020363Y005720D01*
X020420Y005653D01*
X020475Y005583D01*
X020526Y005511D01*
X020573Y005436D01*
X020616Y005360D01*
X020656Y005281D01*
X020692Y005200D01*
X020724Y005117D01*
X020751Y005034D01*
X020775Y004948D01*
X020794Y004862D01*
X020810Y004775D01*
X020820Y004687D01*
X020827Y004599D01*
X020829Y004511D01*
X020827Y004423D01*
X020820Y004335D01*
X020810Y004247D01*
X020794Y004160D01*
X020775Y004074D01*
X020751Y003988D01*
X020724Y003905D01*
X020692Y003822D01*
X020656Y003741D01*
X020616Y003662D01*
X020573Y003586D01*
X020526Y003511D01*
X020475Y003439D01*
X020420Y003369D01*
X020363Y003302D01*
X020302Y003238D01*
X020238Y003177D01*
X020171Y003120D01*
X020101Y003065D01*
X020029Y003014D01*
X019954Y002967D01*
X019878Y002924D01*
X019799Y002884D01*
X019718Y002848D01*
X019635Y002816D01*
X019552Y002789D01*
X019466Y002765D01*
X019380Y002746D01*
X019293Y002730D01*
X019205Y002720D01*
X019117Y002713D01*
X019029Y002711D01*
X018941Y002713D01*
X018853Y002720D01*
X018765Y002730D01*
X018678Y002746D01*
X018592Y002765D01*
X018506Y002789D01*
X018423Y002816D01*
X018340Y002848D01*
X018259Y002884D01*
X018180Y002924D01*
X018104Y002967D01*
X018029Y003014D01*
X017957Y003065D01*
X017887Y003120D01*
X017820Y003177D01*
X017756Y003238D01*
X017695Y003302D01*
X017638Y003369D01*
X017583Y003439D01*
X017532Y003511D01*
X017485Y003586D01*
X017442Y003662D01*
X017402Y003741D01*
X017366Y003822D01*
X017334Y003905D01*
X017307Y003988D01*
X017283Y004074D01*
X017264Y004160D01*
X017248Y004247D01*
X017238Y004335D01*
X017231Y004423D01*
X017229Y004511D01*
D11*
X018183Y004511D02*
X018185Y004569D01*
X018191Y004626D01*
X018201Y004683D01*
X018214Y004739D01*
X018232Y004794D01*
X018253Y004848D01*
X018278Y004900D01*
X018306Y004951D01*
X018338Y004999D01*
X018373Y005045D01*
X018411Y005088D01*
X018452Y005129D01*
X018495Y005167D01*
X018541Y005202D01*
X018589Y005234D01*
X018640Y005262D01*
X018692Y005287D01*
X018746Y005308D01*
X018801Y005326D01*
X018857Y005339D01*
X018914Y005349D01*
X018971Y005355D01*
X019029Y005357D01*
X019087Y005355D01*
X019144Y005349D01*
X019201Y005339D01*
X019257Y005326D01*
X019312Y005308D01*
X019366Y005287D01*
X019418Y005262D01*
X019469Y005234D01*
X019517Y005202D01*
X019563Y005167D01*
X019606Y005129D01*
X019647Y005088D01*
X019685Y005045D01*
X019720Y004999D01*
X019752Y004951D01*
X019780Y004900D01*
X019805Y004848D01*
X019826Y004794D01*
X019844Y004739D01*
X019857Y004683D01*
X019867Y004626D01*
X019873Y004569D01*
X019875Y004511D01*
X019873Y004453D01*
X019867Y004396D01*
X019857Y004339D01*
X019844Y004283D01*
X019826Y004228D01*
X019805Y004174D01*
X019780Y004122D01*
X019752Y004071D01*
X019720Y004023D01*
X019685Y003977D01*
X019647Y003934D01*
X019606Y003893D01*
X019563Y003855D01*
X019517Y003820D01*
X019469Y003788D01*
X019418Y003760D01*
X019366Y003735D01*
X019312Y003714D01*
X019257Y003696D01*
X019201Y003683D01*
X019144Y003673D01*
X019087Y003667D01*
X019029Y003665D01*
X018971Y003667D01*
X018914Y003673D01*
X018857Y003683D01*
X018801Y003696D01*
X018746Y003714D01*
X018692Y003735D01*
X018640Y003760D01*
X018589Y003788D01*
X018541Y003820D01*
X018495Y003855D01*
X018452Y003893D01*
X018411Y003934D01*
X018373Y003977D01*
X018338Y004023D01*
X018306Y004071D01*
X018278Y004122D01*
X018253Y004174D01*
X018232Y004228D01*
X018214Y004283D01*
X018201Y004339D01*
X018191Y004396D01*
X018185Y004453D01*
X018183Y004511D01*
X001648Y004511D02*
X001650Y004569D01*
X001656Y004626D01*
X001666Y004683D01*
X001679Y004739D01*
X001697Y004794D01*
X001718Y004848D01*
X001743Y004900D01*
X001771Y004951D01*
X001803Y004999D01*
X001838Y005045D01*
X001876Y005088D01*
X001917Y005129D01*
X001960Y005167D01*
X002006Y005202D01*
X002054Y005234D01*
X002105Y005262D01*
X002157Y005287D01*
X002211Y005308D01*
X002266Y005326D01*
X002322Y005339D01*
X002379Y005349D01*
X002436Y005355D01*
X002494Y005357D01*
X002552Y005355D01*
X002609Y005349D01*
X002666Y005339D01*
X002722Y005326D01*
X002777Y005308D01*
X002831Y005287D01*
X002883Y005262D01*
X002934Y005234D01*
X002982Y005202D01*
X003028Y005167D01*
X003071Y005129D01*
X003112Y005088D01*
X003150Y005045D01*
X003185Y004999D01*
X003217Y004951D01*
X003245Y004900D01*
X003270Y004848D01*
X003291Y004794D01*
X003309Y004739D01*
X003322Y004683D01*
X003332Y004626D01*
X003338Y004569D01*
X003340Y004511D01*
X003338Y004453D01*
X003332Y004396D01*
X003322Y004339D01*
X003309Y004283D01*
X003291Y004228D01*
X003270Y004174D01*
X003245Y004122D01*
X003217Y004071D01*
X003185Y004023D01*
X003150Y003977D01*
X003112Y003934D01*
X003071Y003893D01*
X003028Y003855D01*
X002982Y003820D01*
X002934Y003788D01*
X002883Y003760D01*
X002831Y003735D01*
X002777Y003714D01*
X002722Y003696D01*
X002666Y003683D01*
X002609Y003673D01*
X002552Y003667D01*
X002494Y003665D01*
X002436Y003667D01*
X002379Y003673D01*
X002322Y003683D01*
X002266Y003696D01*
X002211Y003714D01*
X002157Y003735D01*
X002105Y003760D01*
X002054Y003788D01*
X002006Y003820D01*
X001960Y003855D01*
X001917Y003893D01*
X001876Y003934D01*
X001838Y003977D01*
X001803Y004023D01*
X001771Y004071D01*
X001743Y004122D01*
X001718Y004174D01*
X001697Y004228D01*
X001679Y004283D01*
X001666Y004339D01*
X001656Y004396D01*
X001650Y004453D01*
X001648Y004511D01*
D12*
X006949Y005883D02*
X006949Y006343D01*
X007179Y006343D01*
X007256Y006267D01*
X007256Y006113D01*
X007179Y006037D01*
X006949Y006037D01*
X007102Y006037D02*
X007256Y005883D01*
X007409Y005883D02*
X007716Y006190D01*
X007716Y006267D01*
X007639Y006343D01*
X007486Y006343D01*
X007409Y006267D01*
X007409Y005883D02*
X007716Y005883D01*
X010807Y005960D02*
X010884Y005883D01*
X011037Y005883D01*
X011114Y005960D01*
X011267Y005883D02*
X011574Y005883D01*
X011421Y005883D02*
X011421Y006343D01*
X011267Y006190D01*
X011114Y006267D02*
X011037Y006343D01*
X010884Y006343D01*
X010807Y006267D01*
X010807Y005960D01*
X013581Y006117D02*
X013581Y005733D01*
X013657Y005657D01*
X013811Y005657D01*
X013888Y005733D01*
X013888Y006117D01*
X014041Y005964D02*
X014194Y006117D01*
X014194Y005657D01*
X014041Y005657D02*
X014348Y005657D01*
X013311Y003233D02*
X013311Y002773D01*
X013464Y002773D02*
X013157Y002773D01*
X013004Y002773D02*
X012850Y002926D01*
X012927Y002926D02*
X013004Y003003D01*
X013004Y003156D01*
X012927Y003233D01*
X012697Y003233D01*
X012697Y002773D01*
X012697Y002926D02*
X012927Y002926D01*
X013157Y003080D02*
X013311Y003233D01*
X013427Y002367D02*
X013197Y002137D01*
X013503Y002137D01*
X013427Y001907D02*
X013427Y002367D01*
X013043Y002290D02*
X013043Y002137D01*
X012966Y002060D01*
X012736Y002060D01*
X012736Y001907D02*
X012736Y002367D01*
X012966Y002367D01*
X013043Y002290D01*
X012890Y002060D02*
X013043Y001907D01*
X010641Y001609D02*
X010641Y001533D01*
X010334Y001226D01*
X010641Y001226D01*
X010181Y001226D02*
X010027Y001379D01*
X009951Y001226D02*
X009874Y001302D01*
X009874Y001609D01*
X009951Y001686D01*
X010104Y001686D01*
X010181Y001609D01*
X010181Y001302D01*
X010104Y001226D01*
X009951Y001226D01*
X010334Y001609D02*
X010411Y001686D01*
X010565Y001686D01*
X010641Y001609D01*
X008740Y001464D02*
X008740Y001387D01*
X008663Y001310D01*
X008740Y001233D01*
X008740Y001157D01*
X008663Y001080D01*
X008509Y001080D01*
X008433Y001157D01*
X008279Y001080D02*
X008126Y001233D01*
X008203Y001233D02*
X007972Y001233D01*
X008203Y001233D02*
X008279Y001310D01*
X008279Y001464D01*
X008203Y001540D01*
X007972Y001540D01*
X007972Y001080D01*
X008586Y001310D02*
X008663Y001310D01*
X008740Y001464D02*
X008663Y001540D01*
X008509Y001540D01*
X008433Y001464D01*
D13*
X007324Y000949D02*
X004324Y000949D01*
X004324Y003149D01*
X004824Y003149D01*
X004824Y002649D01*
X006824Y002649D01*
X006824Y003149D01*
X007324Y003149D01*
X007324Y000949D01*
X006824Y003149D02*
X004824Y003149D01*
X007261Y003511D02*
X007261Y005479D01*
X010765Y005479D01*
X010765Y003511D01*
X007261Y003511D01*
X010765Y003511D02*
X014269Y003511D01*
X014269Y005479D01*
X010765Y005479D01*
D14*
X009257Y007034D03*
X009129Y007102D03*
X011579Y007102D03*
X005417Y005984D03*
X005417Y005982D03*
X005417Y005979D03*
X005417Y005977D03*
X005417Y005974D03*
X004214Y005534D03*
X004859Y007119D03*
X004859Y007122D03*
X004859Y007124D03*
X004862Y007129D03*
D15*
X004827Y006934D03*
X004827Y006932D03*
X004827Y006929D03*
X005284Y006677D03*
X005407Y006172D03*
X005407Y006169D03*
X004219Y005537D03*
X005849Y007639D03*
X009004Y008072D03*
X009102Y007044D03*
X009272Y006999D03*
X009522Y006944D03*
X011552Y007044D03*
D16*
X011540Y007022D03*
X011448Y007684D03*
X009278Y006984D03*
X009090Y007024D03*
X008990Y008067D03*
X005855Y007632D03*
X005285Y007589D03*
X004813Y006854D03*
X004813Y006852D03*
X004813Y006849D03*
X004813Y006847D03*
X005410Y006259D03*
X005410Y006257D03*
X005410Y006254D03*
X004220Y005539D03*
D17*
X004222Y005542D03*
X005419Y006332D03*
X005419Y006334D03*
X005419Y006337D03*
X005419Y006339D03*
X006382Y006697D03*
X007129Y006697D03*
X009082Y007007D03*
X009284Y006974D03*
X010189Y007372D03*
X010992Y006969D03*
X011532Y007004D03*
X011192Y006699D03*
D18*
X010877Y006969D03*
X010882Y006977D03*
X010894Y006992D03*
X010904Y007004D03*
X010907Y007007D03*
X010917Y007019D03*
X010919Y007022D03*
X010929Y007034D03*
X010939Y007047D03*
X010942Y007049D03*
X010952Y007062D03*
X010954Y007064D03*
X010962Y007074D03*
X010964Y007077D03*
X010974Y007089D03*
X010977Y007092D03*
X010987Y007104D03*
X010989Y007107D03*
X010997Y007117D03*
X010999Y007119D03*
X011002Y007122D03*
X011009Y007132D03*
X011012Y007134D03*
X011019Y007144D03*
X011022Y007147D03*
X011024Y007149D03*
X011032Y007159D03*
X011034Y007162D03*
X011037Y007164D03*
X011044Y007174D03*
X011047Y007177D03*
X011054Y007187D03*
X011057Y007189D03*
X011059Y007192D03*
X011067Y007202D03*
X011069Y007204D03*
X011072Y007207D03*
X011077Y007214D03*
X011079Y007217D03*
X011082Y007219D03*
X011084Y007222D03*
X011089Y007229D03*
X011092Y007232D03*
X011094Y007234D03*
X011102Y007244D03*
X011104Y007247D03*
X011107Y007249D03*
X011112Y007257D03*
X011114Y007259D03*
X011117Y007262D03*
X011119Y007264D03*
X011124Y007272D03*
X011127Y007274D03*
X011129Y007277D03*
X011134Y007284D03*
X011137Y007287D03*
X011139Y007289D03*
X011142Y007292D03*
X011147Y007299D03*
X011149Y007302D03*
X011152Y007304D03*
X011154Y007307D03*
X011159Y007314D03*
X011162Y007317D03*
X011164Y007319D03*
X011167Y007322D03*
X011169Y007327D03*
X011172Y007329D03*
X011174Y007332D03*
X011177Y007334D03*
X011182Y007342D03*
X011184Y007344D03*
X011187Y007347D03*
X011189Y007349D03*
X011192Y007354D03*
X011194Y007357D03*
X011197Y007359D03*
X011199Y007362D03*
X011202Y007364D03*
X011204Y007369D03*
X011207Y007372D03*
X011209Y007374D03*
X011212Y007377D03*
X011217Y007384D03*
X011219Y007387D03*
X011222Y007389D03*
X011224Y007392D03*
X011227Y007397D03*
X011229Y007399D03*
X011232Y007402D03*
X011234Y007404D03*
X011237Y007407D03*
X011239Y007412D03*
X011242Y007414D03*
X011244Y007417D03*
X011247Y007419D03*
X011249Y007422D03*
X011249Y007424D03*
X011252Y007427D03*
X011254Y007429D03*
X011257Y007432D03*
X011259Y007434D03*
X011262Y007439D03*
X011264Y007442D03*
X011267Y007444D03*
X011269Y007447D03*
X011432Y007679D03*
X010599Y007202D03*
X010587Y007187D03*
X010584Y007184D03*
X010582Y007182D03*
X010579Y007179D03*
X010577Y007174D03*
X010574Y007172D03*
X010572Y007169D03*
X010569Y007167D03*
X010567Y007164D03*
X010564Y007162D03*
X010559Y007154D03*
X010557Y007152D03*
X010554Y007149D03*
X010552Y007147D03*
X011524Y006989D03*
X009337Y006702D03*
X009289Y006967D03*
X009074Y006994D03*
X008269Y007627D03*
X008269Y007629D03*
X008267Y007624D03*
X008272Y007634D03*
X007869Y007684D03*
X008972Y008059D03*
X007734Y007182D03*
X007729Y007174D03*
X007727Y007172D03*
X007724Y007169D03*
X007724Y007167D03*
X007722Y007164D03*
X007719Y007162D03*
X007717Y007159D03*
X007712Y007152D03*
X007709Y007149D03*
X007707Y007147D03*
X005867Y007619D03*
X005284Y006682D03*
X005429Y006404D03*
X005429Y006402D03*
X005429Y006399D03*
X004222Y005544D03*
D19*
X004222Y005547D03*
X005442Y006464D03*
X005444Y006472D03*
X005444Y006474D03*
X006382Y006699D03*
X006774Y007004D03*
X006777Y007007D03*
X006779Y007009D03*
X006782Y007012D03*
X006784Y007014D03*
X006787Y007017D03*
X007557Y006984D03*
X007559Y006987D03*
X007562Y006989D03*
X007564Y006992D03*
X007567Y006994D03*
X007812Y007277D03*
X008242Y007574D03*
X008242Y007577D03*
X008244Y007579D03*
X008247Y007584D03*
X009067Y006982D03*
X009294Y006959D03*
X008684Y006704D03*
X010207Y007387D03*
X010454Y007042D03*
X010452Y007039D03*
X010449Y007037D03*
X010447Y007034D03*
X010444Y007032D03*
X010442Y007029D03*
X010439Y007027D03*
X010437Y007024D03*
X011514Y006974D03*
X011517Y006977D03*
X005872Y007614D03*
D20*
X005312Y007579D03*
X007532Y006962D03*
X007534Y006964D03*
X007537Y006967D03*
X008032Y006707D03*
X009042Y006957D03*
X009044Y006959D03*
X010212Y007392D03*
X010397Y006987D03*
X010394Y006984D03*
X010392Y006982D03*
X010389Y006979D03*
X011489Y006952D03*
X011492Y006954D03*
X008959Y008054D03*
X008232Y007557D03*
X008229Y007554D03*
X008229Y007552D03*
X008227Y007549D03*
X005457Y006527D03*
X005457Y006524D03*
X005457Y006522D03*
X005454Y006517D03*
X005454Y006514D03*
X004222Y005549D03*
D21*
X004222Y005552D03*
X005469Y006569D03*
X005472Y006574D03*
X005472Y006577D03*
X005472Y006579D03*
X005474Y006584D03*
X007132Y006702D03*
X007509Y006944D03*
X007512Y006947D03*
X008354Y006937D03*
X008359Y006939D03*
X008362Y006942D03*
X009019Y006939D03*
X009022Y006942D03*
X009334Y006707D03*
X010349Y006947D03*
X010352Y006949D03*
X010734Y006764D03*
X008217Y007532D03*
X008952Y008052D03*
D22*
X008945Y008049D03*
X009940Y007582D03*
X009870Y007517D03*
X009868Y007514D03*
X009865Y007512D03*
X009865Y007509D03*
X009863Y007507D03*
X009860Y007504D03*
X010225Y007404D03*
X010960Y007672D03*
X010323Y006927D03*
X010740Y006767D03*
X009003Y006929D03*
X008685Y006709D03*
X007490Y006932D03*
X006715Y006954D03*
X005500Y006664D03*
X005498Y006657D03*
X005498Y006654D03*
X005495Y006652D03*
X005495Y006649D03*
X005493Y006642D03*
X004223Y005554D03*
X008200Y007507D03*
X008203Y007509D03*
D23*
X008198Y007502D03*
X008195Y007499D03*
X009308Y006947D03*
X010310Y006919D03*
X009845Y007484D03*
X009848Y007487D03*
X009848Y007489D03*
X009850Y007492D03*
X009853Y007494D03*
X009948Y007587D03*
X007483Y006927D03*
X006708Y006949D03*
X005513Y006697D03*
X005510Y006692D03*
X005510Y006689D03*
X005508Y006687D03*
X005508Y006684D03*
X005505Y006679D03*
X005505Y006677D03*
X005323Y007574D03*
X005883Y007602D03*
X004223Y005557D03*
D24*
X004223Y005559D03*
X004120Y005744D03*
X004120Y005747D03*
X004120Y005749D03*
X004118Y005752D03*
X004118Y005754D03*
X004118Y005757D03*
X004118Y005817D03*
X004120Y005824D03*
X004120Y005827D03*
X004120Y005829D03*
X004123Y005832D03*
X004123Y005834D03*
X004123Y005837D03*
X005293Y006694D03*
X006700Y006944D03*
X005325Y007562D03*
X005328Y007569D03*
X005328Y007572D03*
X007120Y008352D03*
X007860Y007664D03*
X008185Y007484D03*
X009313Y006944D03*
X009333Y006712D03*
X008688Y006712D03*
X010298Y006912D03*
X009820Y007447D03*
X009823Y007452D03*
X009825Y007454D03*
X011448Y006927D03*
D25*
X010240Y007417D03*
X009803Y007417D03*
X009800Y007414D03*
X009800Y007412D03*
X009798Y007409D03*
X009795Y007404D03*
X008978Y006917D03*
X008125Y007329D03*
X008125Y007332D03*
X008123Y007327D03*
X008123Y007324D03*
X008175Y007472D03*
X008178Y007474D03*
X007858Y007659D03*
X007823Y007287D03*
X007133Y006707D03*
X005198Y006849D03*
X005195Y006854D03*
X005193Y006859D03*
X005310Y007494D03*
X005310Y007497D03*
X005313Y007504D03*
X005313Y007507D03*
X005313Y007509D03*
X005315Y007514D03*
X005315Y007517D03*
X004620Y006182D03*
X004618Y006177D03*
X004615Y006169D03*
X004613Y006164D03*
X004610Y006159D03*
X004610Y006157D03*
X004608Y006154D03*
X004608Y006152D03*
X004605Y006149D03*
X004605Y006147D03*
X004603Y006144D03*
X004603Y006142D03*
X004603Y006139D03*
X004600Y006137D03*
X004600Y006134D03*
X004598Y006132D03*
X004598Y006129D03*
X004595Y006124D03*
X004593Y006119D03*
X004590Y006114D03*
X004588Y006109D03*
X004140Y005882D03*
X004138Y005877D03*
X004138Y005874D03*
X004135Y005872D03*
X004223Y005562D03*
D26*
X004223Y005564D03*
X004145Y005892D03*
X004145Y005894D03*
X004148Y005897D03*
X004148Y005899D03*
X004530Y005992D03*
X004533Y005997D03*
X004535Y006002D03*
X004538Y006007D03*
X004540Y006012D03*
X004543Y006017D03*
X004545Y006022D03*
X004548Y006027D03*
X004550Y006029D03*
X004550Y006032D03*
X004553Y006034D03*
X004553Y006037D03*
X004555Y006039D03*
X004555Y006042D03*
X004558Y006044D03*
X004558Y006047D03*
X004560Y006052D03*
X004563Y006057D03*
X004565Y006062D03*
X004568Y006067D03*
X004570Y006072D03*
X004573Y006077D03*
X004575Y006082D03*
X006383Y006707D03*
X005295Y007442D03*
X005298Y007449D03*
X005298Y007452D03*
X005300Y007457D03*
X005300Y007459D03*
X005300Y007462D03*
X005303Y007464D03*
X005303Y007467D03*
X005303Y007469D03*
X005305Y007477D03*
X005890Y007592D03*
X007858Y007657D03*
X008170Y007467D03*
X008118Y007314D03*
X008115Y007309D03*
X008113Y007304D03*
X008038Y006719D03*
X009788Y007389D03*
X009790Y007394D03*
X009793Y007399D03*
X010243Y007419D03*
X010143Y007682D03*
D27*
X010247Y007424D03*
X009779Y007372D03*
X009779Y007369D03*
X009777Y007367D03*
X009777Y007364D03*
X010272Y006899D03*
X008689Y006717D03*
X008039Y006722D03*
X008099Y007277D03*
X008102Y007279D03*
X008102Y007282D03*
X008104Y007287D03*
X007824Y007289D03*
X008164Y007459D03*
X007857Y007652D03*
X005879Y007564D03*
X005877Y007559D03*
X005877Y007557D03*
X005874Y007554D03*
X005874Y007552D03*
X005872Y007547D03*
X005282Y007399D03*
X005279Y007392D03*
X005277Y007387D03*
X005277Y007384D03*
X005274Y007379D03*
X005274Y007377D03*
X005272Y007374D03*
X005272Y007372D03*
X005272Y007369D03*
X005269Y007364D03*
X005267Y007357D03*
X004487Y005912D03*
X004479Y005899D03*
X004477Y005894D03*
X004474Y005889D03*
X004472Y005887D03*
X004472Y005884D03*
X004469Y005882D03*
X004467Y005879D03*
X004467Y005877D03*
X004464Y005874D03*
X004464Y005872D03*
X004462Y005869D03*
X004459Y005864D03*
X004457Y005862D03*
X004454Y005857D03*
X004167Y005932D03*
X004164Y005929D03*
X004164Y005927D03*
X004162Y005924D03*
X004159Y005919D03*
X004224Y005567D03*
D28*
X004223Y005569D03*
X004405Y005782D03*
X004410Y005789D03*
X004413Y005794D03*
X004415Y005797D03*
X004418Y005799D03*
X004418Y005802D03*
X004420Y005804D03*
X004423Y005807D03*
X004425Y005812D03*
X004430Y005819D03*
X004190Y005969D03*
X004188Y005967D03*
X004185Y005962D03*
X004183Y005959D03*
X004180Y005954D03*
X005295Y006702D03*
X006383Y006709D03*
X006675Y006934D03*
X008085Y007247D03*
X008088Y007249D03*
X008088Y007252D03*
X008090Y007257D03*
X008158Y007452D03*
X008920Y008039D03*
X010143Y007679D03*
X010250Y007429D03*
X009768Y007344D03*
X009768Y007342D03*
X009765Y007339D03*
X009765Y007337D03*
X010980Y007667D03*
X005858Y007514D03*
X005855Y007509D03*
X005855Y007507D03*
X005853Y007504D03*
X005853Y007502D03*
X005850Y007497D03*
X005848Y007492D03*
X005248Y007309D03*
X005245Y007304D03*
X005243Y007297D03*
X005240Y007292D03*
X005240Y007289D03*
X005238Y007287D03*
X005238Y007284D03*
X005235Y007279D03*
X005233Y007274D03*
D29*
X005217Y007237D03*
X005214Y007232D03*
X005214Y007229D03*
X005212Y007227D03*
X005212Y007224D03*
X005209Y007222D03*
X005209Y007219D03*
X005207Y007214D03*
X005204Y007209D03*
X005824Y007437D03*
X005827Y007442D03*
X005829Y007447D03*
X005829Y007449D03*
X005832Y007452D03*
X005832Y007454D03*
X005834Y007459D03*
X005297Y006704D03*
X004219Y006009D03*
X004214Y006002D03*
X004212Y005999D03*
X004209Y005997D03*
X004207Y005992D03*
X004204Y005989D03*
X004389Y005759D03*
X004387Y005757D03*
X004384Y005752D03*
X004224Y005572D03*
X008069Y007209D03*
X008072Y007214D03*
X008072Y007217D03*
X008074Y007219D03*
X008074Y007222D03*
X008077Y007227D03*
X007827Y007292D03*
X008152Y007444D03*
X008154Y007447D03*
X007852Y007642D03*
X009754Y007307D03*
X009757Y007312D03*
X009757Y007314D03*
X009759Y007319D03*
X009759Y007322D03*
X010257Y007437D03*
X010257Y007439D03*
X010259Y006894D03*
D30*
X009749Y007289D03*
X009752Y007297D03*
X009752Y007299D03*
X010259Y007444D03*
X008914Y008037D03*
X007852Y007639D03*
X008147Y007439D03*
X008149Y007442D03*
X008064Y007199D03*
X008064Y007197D03*
X008062Y007194D03*
X008062Y007192D03*
X008059Y007187D03*
X007134Y006712D03*
X005804Y007392D03*
X005807Y007397D03*
X005809Y007402D03*
X005809Y007404D03*
X005812Y007407D03*
X005812Y007409D03*
X005814Y007412D03*
X005814Y007414D03*
X005817Y007419D03*
X005199Y007197D03*
X005197Y007194D03*
X005197Y007192D03*
X005194Y007189D03*
X005194Y007187D03*
X005192Y007182D03*
X004239Y006034D03*
X004237Y006032D03*
X004234Y006027D03*
X004232Y006024D03*
X004229Y006022D03*
X004227Y006019D03*
X004374Y005742D03*
X004372Y005739D03*
X004369Y005737D03*
X004224Y005574D03*
D31*
X004224Y005577D03*
X004359Y005724D03*
X004362Y005727D03*
X004249Y006047D03*
X004252Y006049D03*
X004254Y006052D03*
X004257Y006054D03*
X004257Y006057D03*
X004259Y006059D03*
X004262Y006062D03*
X004769Y006564D03*
X004772Y006567D03*
X004774Y006569D03*
X004779Y006577D03*
X004782Y006579D03*
X004784Y006582D03*
X004787Y006584D03*
X004789Y006587D03*
X004809Y006614D03*
X005297Y006707D03*
X005179Y007154D03*
X005182Y007159D03*
X005184Y007164D03*
X005184Y007167D03*
X005187Y007169D03*
X005782Y007342D03*
X005784Y007347D03*
X005787Y007352D03*
X005787Y007354D03*
X005789Y007357D03*
X005789Y007359D03*
X005792Y007362D03*
X005792Y007364D03*
X005794Y007369D03*
X005797Y007374D03*
X007829Y007294D03*
X008054Y007174D03*
X008052Y007169D03*
X008052Y007167D03*
X008049Y007164D03*
X008049Y007162D03*
X008144Y007437D03*
X007849Y007632D03*
X009744Y007274D03*
X009744Y007272D03*
X009747Y007279D03*
X009747Y007282D03*
X010262Y007452D03*
X010262Y007454D03*
X010264Y007457D03*
X010264Y007459D03*
X010264Y007462D03*
X010252Y006892D03*
X008692Y006722D03*
X008042Y006729D03*
D32*
X008043Y006732D03*
X008693Y006724D03*
X008033Y007119D03*
X008035Y007124D03*
X008035Y007127D03*
X008038Y007132D03*
X008138Y007432D03*
X007848Y007627D03*
X009738Y007249D03*
X009738Y007247D03*
X009738Y007244D03*
X009740Y007252D03*
X009740Y007254D03*
X009740Y007257D03*
X010263Y007527D03*
X010263Y007529D03*
X010260Y007537D03*
X010260Y007539D03*
X010260Y007542D03*
X010258Y007544D03*
X010258Y007547D03*
X007135Y006714D03*
X005765Y007307D03*
X005763Y007302D03*
X005760Y007297D03*
X005758Y007292D03*
X005758Y007289D03*
X005755Y007287D03*
X005755Y007284D03*
X005753Y007282D03*
X005753Y007279D03*
X005750Y007274D03*
X005748Y007269D03*
X005745Y007264D03*
X005170Y007137D03*
X005170Y007134D03*
X005168Y007132D03*
X005168Y007129D03*
X005298Y006709D03*
X004820Y006634D03*
X004818Y006632D03*
X004818Y006629D03*
X004743Y006534D03*
X004740Y006532D03*
X004738Y006529D03*
X004735Y006527D03*
X004733Y006524D03*
X004730Y006522D03*
X004728Y006519D03*
X004295Y006099D03*
X004293Y006097D03*
X004290Y006094D03*
X004288Y006092D03*
X004285Y006089D03*
X004283Y006087D03*
X004345Y005712D03*
X004225Y005579D03*
D33*
X004225Y005582D03*
X004310Y006117D03*
X004313Y006119D03*
X004315Y006122D03*
X004318Y006124D03*
X004320Y006127D03*
X004323Y006129D03*
X004325Y006132D03*
X004328Y006134D03*
X004700Y006489D03*
X004703Y006492D03*
X004705Y006494D03*
X004708Y006497D03*
X004825Y006644D03*
X004828Y006649D03*
X005160Y007114D03*
X005163Y007117D03*
X005163Y007119D03*
X005723Y007219D03*
X005725Y007224D03*
X005728Y007227D03*
X005728Y007229D03*
X005730Y007232D03*
X005730Y007234D03*
X005733Y007237D03*
X005733Y007239D03*
X005735Y007244D03*
X005738Y007249D03*
X005740Y007254D03*
X005743Y007259D03*
X007830Y007297D03*
X008030Y007109D03*
X008028Y007104D03*
X008028Y007102D03*
X008025Y007094D03*
X008135Y007429D03*
X007845Y007619D03*
X007845Y007622D03*
X009735Y007234D03*
X009735Y007232D03*
X009735Y007229D03*
X010248Y007567D03*
X010250Y007564D03*
X010253Y007559D03*
X010140Y007674D03*
D34*
X010240Y007579D03*
X010243Y007577D03*
X009733Y007219D03*
X009733Y007217D03*
X009733Y007214D03*
X009730Y007209D03*
X009730Y007207D03*
X009730Y007204D03*
X008693Y006727D03*
X008020Y007074D03*
X008020Y007077D03*
X008020Y007079D03*
X008023Y007084D03*
X008023Y007087D03*
X008130Y007424D03*
X008133Y007427D03*
X007843Y007614D03*
X008900Y008032D03*
X005713Y007199D03*
X005713Y007197D03*
X005710Y007194D03*
X005710Y007192D03*
X005708Y007189D03*
X005708Y007187D03*
X005705Y007184D03*
X005705Y007182D03*
X005703Y007179D03*
X005703Y007177D03*
X005700Y007174D03*
X005155Y007102D03*
X005153Y007099D03*
X005153Y007097D03*
X005298Y006712D03*
X004833Y006659D03*
X004830Y006654D03*
X004685Y006474D03*
X004363Y006172D03*
X004360Y006169D03*
X004358Y006167D03*
X004355Y006164D03*
X004353Y006162D03*
X004350Y006159D03*
X004225Y005584D03*
D35*
X004227Y005587D03*
X004402Y006209D03*
X004404Y006212D03*
X004407Y006214D03*
X004409Y006217D03*
X004412Y006219D03*
X004414Y006222D03*
X004417Y006224D03*
X004419Y006227D03*
X004422Y006229D03*
X004424Y006232D03*
X004679Y006467D03*
X004842Y006677D03*
X004844Y006679D03*
X004844Y006682D03*
X005299Y006714D03*
X005144Y007077D03*
X005144Y007079D03*
X005147Y007082D03*
X005664Y007104D03*
X005667Y007109D03*
X005669Y007112D03*
X005669Y007114D03*
X005672Y007117D03*
X005672Y007119D03*
X005674Y007122D03*
X005677Y007127D03*
X005679Y007132D03*
X005682Y007137D03*
X007839Y007602D03*
X007839Y007604D03*
X008127Y007422D03*
X008014Y007052D03*
X008014Y007049D03*
X008014Y007047D03*
X008694Y006729D03*
X009727Y007174D03*
X009727Y007177D03*
X009727Y007179D03*
X009727Y007182D03*
X010234Y007587D03*
D36*
X009727Y007167D03*
X009727Y007164D03*
X009727Y007162D03*
X009324Y006732D03*
X008047Y006739D03*
X008012Y007032D03*
X008012Y007034D03*
X008012Y007037D03*
X008012Y007039D03*
X008124Y007419D03*
X007837Y007594D03*
X008894Y008029D03*
X005662Y007099D03*
X005659Y007094D03*
X005657Y007089D03*
X005654Y007087D03*
X005654Y007084D03*
X005652Y007082D03*
X005652Y007079D03*
X005649Y007077D03*
X005647Y007072D03*
X005644Y007067D03*
X005142Y007072D03*
X005139Y007067D03*
X005299Y006717D03*
X004852Y006697D03*
X004852Y006694D03*
X004849Y006692D03*
X004677Y006462D03*
X004674Y006459D03*
X004227Y005589D03*
D37*
X004227Y005592D03*
X004672Y006454D03*
X004854Y006702D03*
X004857Y006707D03*
X004859Y006712D03*
X005302Y006719D03*
X005134Y007054D03*
X005632Y007047D03*
X005632Y007044D03*
X005634Y007049D03*
X005637Y007054D03*
X007834Y007302D03*
X008009Y007022D03*
X008009Y007019D03*
X008009Y007017D03*
X008694Y006732D03*
X009724Y007134D03*
X009724Y007137D03*
X009724Y007139D03*
X009724Y007142D03*
X009724Y007144D03*
X009937Y006714D03*
X007834Y007584D03*
X007834Y007587D03*
D38*
X007829Y007574D03*
X007829Y007572D03*
X007782Y007402D03*
X007782Y007399D03*
X007782Y007397D03*
X008117Y007414D03*
X008007Y007004D03*
X008007Y007002D03*
X008007Y006999D03*
X009724Y007117D03*
X009724Y007119D03*
X009724Y007122D03*
X009724Y007124D03*
X009724Y007127D03*
X009724Y007129D03*
X010222Y007594D03*
X008887Y008027D03*
X005624Y007032D03*
X005622Y007027D03*
X005619Y007024D03*
X005619Y007022D03*
X005617Y007019D03*
X005302Y006722D03*
X004867Y006727D03*
X004864Y006724D03*
X004864Y006722D03*
X004669Y006452D03*
X004667Y006449D03*
X005129Y007042D03*
X005129Y007044D03*
X004227Y005594D03*
D39*
X004229Y005597D03*
X004664Y006444D03*
X004872Y006737D03*
X004872Y006739D03*
X004874Y006742D03*
X005124Y007032D03*
X005127Y007037D03*
X005602Y006994D03*
X005604Y006999D03*
X005607Y007002D03*
X005609Y007007D03*
X007139Y006722D03*
X008007Y006989D03*
X008007Y006992D03*
X008007Y006994D03*
X008049Y006744D03*
X009322Y006737D03*
X009724Y007102D03*
X009724Y007104D03*
X009724Y007107D03*
X009724Y007109D03*
X010949Y006962D03*
X011177Y006727D03*
X007827Y007562D03*
X007827Y007564D03*
X007824Y007557D03*
X007784Y007417D03*
X007784Y007414D03*
X007784Y007412D03*
D40*
X007787Y007424D03*
X007787Y007427D03*
X007787Y007429D03*
X007789Y007432D03*
X007789Y007434D03*
X007789Y007437D03*
X007819Y007542D03*
X007822Y007547D03*
X007822Y007549D03*
X008109Y007409D03*
X008007Y006984D03*
X008007Y006982D03*
X008007Y006979D03*
X008049Y006747D03*
X008697Y006737D03*
X009322Y006739D03*
X009937Y006717D03*
X009727Y007084D03*
X009727Y007087D03*
X010139Y007667D03*
X008882Y008024D03*
X006692Y008207D03*
X006687Y008204D03*
X006679Y008199D03*
X006672Y008194D03*
X006664Y008189D03*
X006657Y008184D03*
X006654Y008182D03*
X006649Y008179D03*
X006647Y008177D03*
X006639Y008172D03*
X005597Y006987D03*
X005597Y006984D03*
X005594Y006982D03*
X005122Y007022D03*
X005122Y007024D03*
X004879Y006754D03*
X004879Y006752D03*
X004877Y006749D03*
X004659Y006439D03*
X004229Y005599D03*
D41*
X004229Y005602D03*
X004657Y006434D03*
X004884Y006764D03*
X004887Y006767D03*
X004887Y006769D03*
X005117Y007012D03*
X005582Y006962D03*
X005584Y006967D03*
X005587Y006969D03*
X007139Y006724D03*
X008007Y006974D03*
X007792Y007447D03*
X007792Y007449D03*
X007794Y007454D03*
X007794Y007457D03*
X007794Y007459D03*
X007797Y007464D03*
X007797Y007467D03*
X007802Y007484D03*
X007807Y007502D03*
X007809Y007509D03*
X007812Y007517D03*
X007812Y007519D03*
X007814Y007524D03*
X007814Y007527D03*
X006617Y008154D03*
X006614Y008152D03*
X006604Y008144D03*
X006602Y008142D03*
X006599Y008139D03*
X006597Y008137D03*
X006584Y008127D03*
X006582Y008124D03*
X006722Y008224D03*
X006727Y008227D03*
X006732Y008229D03*
X009727Y007077D03*
X009727Y007074D03*
X009727Y007072D03*
X009727Y007069D03*
D42*
X009729Y007059D03*
X009729Y007057D03*
X009729Y007054D03*
X008697Y006739D03*
X008009Y006964D03*
X008009Y006967D03*
X008612Y007107D03*
X008614Y007119D03*
X008614Y007122D03*
X008617Y007134D03*
X008619Y007147D03*
X008622Y007159D03*
X006564Y008107D03*
X006742Y008234D03*
X006747Y008237D03*
X005577Y006954D03*
X005574Y006952D03*
X005572Y006947D03*
X005114Y007002D03*
X005114Y007004D03*
X004894Y006784D03*
X004892Y006779D03*
X004652Y006427D03*
X004229Y005604D03*
X010954Y006959D03*
D43*
X009730Y007047D03*
X009730Y007049D03*
X009730Y007052D03*
X008643Y007244D03*
X008640Y007234D03*
X008638Y007227D03*
X008638Y007224D03*
X008635Y007217D03*
X008635Y007214D03*
X008633Y007209D03*
X008633Y007207D03*
X008633Y007204D03*
X008630Y007199D03*
X008630Y007197D03*
X008630Y007194D03*
X008628Y007189D03*
X008628Y007187D03*
X008628Y007184D03*
X008625Y007179D03*
X008625Y007177D03*
X008625Y007174D03*
X008625Y007172D03*
X008623Y007169D03*
X008623Y007167D03*
X008623Y007164D03*
X008623Y007162D03*
X008620Y007157D03*
X008620Y007154D03*
X008620Y007152D03*
X008620Y007149D03*
X008618Y007144D03*
X008618Y007142D03*
X008618Y007139D03*
X008618Y007137D03*
X008615Y007132D03*
X008615Y007129D03*
X008615Y007127D03*
X008615Y007124D03*
X008613Y007117D03*
X008613Y007114D03*
X008613Y007112D03*
X008613Y007109D03*
X008610Y007104D03*
X008775Y007689D03*
X008778Y007697D03*
X008778Y007699D03*
X008780Y007704D03*
X008780Y007707D03*
X008783Y007714D03*
X008785Y007722D03*
X008785Y007724D03*
X008788Y007729D03*
X008788Y007732D03*
X008790Y007739D03*
X008793Y007747D03*
X008793Y007749D03*
X008795Y007754D03*
X008795Y007757D03*
X008798Y007764D03*
X008800Y007772D03*
X008800Y007774D03*
X008803Y007779D03*
X008803Y007782D03*
X008805Y007789D03*
X008805Y007792D03*
X008808Y007797D03*
X008808Y007799D03*
X008810Y007804D03*
X008810Y007807D03*
X008813Y007814D03*
X008813Y007817D03*
X008815Y007822D03*
X008815Y007824D03*
X008818Y007829D03*
X008818Y007832D03*
X008820Y007839D03*
X008820Y007842D03*
X008823Y007847D03*
X008823Y007849D03*
X008825Y007854D03*
X008825Y007857D03*
X008828Y007864D03*
X008828Y007867D03*
X008830Y007872D03*
X008830Y007874D03*
X008833Y007879D03*
X008833Y007882D03*
X008833Y007884D03*
X008835Y007889D03*
X008835Y007892D03*
X008838Y007897D03*
X008838Y007899D03*
X008840Y007904D03*
X008840Y007907D03*
X008840Y007909D03*
X008843Y007914D03*
X008843Y007917D03*
X008845Y007922D03*
X008845Y007924D03*
X008848Y007929D03*
X008848Y007932D03*
X008848Y007934D03*
X008850Y007937D03*
X008850Y007939D03*
X008850Y007942D03*
X008853Y007947D03*
X008853Y007949D03*
X008853Y007952D03*
X008855Y007954D03*
X008855Y007957D03*
X008855Y007959D03*
X008858Y007962D03*
X008858Y007964D03*
X008858Y007967D03*
X008860Y007972D03*
X008860Y007974D03*
X008860Y007977D03*
X008863Y007979D03*
X008863Y007982D03*
X008863Y007984D03*
X008865Y007987D03*
X008865Y007989D03*
X008865Y007992D03*
X008868Y007997D03*
X008868Y007999D03*
X008868Y008002D03*
X008870Y008004D03*
X008870Y008007D03*
X008870Y008009D03*
X008873Y008012D03*
X008873Y008014D03*
X008873Y008017D03*
X008875Y008022D03*
X010138Y007664D03*
X006753Y008239D03*
X006560Y008104D03*
X006558Y008102D03*
X006555Y008099D03*
X006553Y008097D03*
X006550Y008094D03*
X006548Y008092D03*
X006545Y008089D03*
X006543Y008087D03*
X006540Y008084D03*
X006538Y008082D03*
X006535Y008079D03*
X005573Y006949D03*
X005570Y006944D03*
X005568Y006942D03*
X005113Y006999D03*
X004898Y006792D03*
X004895Y006789D03*
X004895Y006787D03*
X004230Y005607D03*
D44*
X004230Y005609D03*
X004645Y006419D03*
X004648Y006422D03*
X004903Y006802D03*
X004903Y006804D03*
X004905Y006807D03*
X004905Y006809D03*
X005108Y006987D03*
X005108Y006989D03*
X005560Y006932D03*
X005563Y006934D03*
X006385Y006727D03*
X007140Y006727D03*
X008010Y006957D03*
X008608Y007099D03*
X008660Y007304D03*
X008665Y007322D03*
X008670Y007339D03*
X008673Y007347D03*
X008673Y007349D03*
X008675Y007357D03*
X008678Y007364D03*
X008678Y007367D03*
X008680Y007372D03*
X008680Y007374D03*
X008683Y007382D03*
X008683Y007384D03*
X008685Y007389D03*
X008685Y007392D03*
X008688Y007397D03*
X008688Y007399D03*
X008688Y007402D03*
X008690Y007407D03*
X008690Y007409D03*
X008690Y007412D03*
X008693Y007414D03*
X008693Y007417D03*
X008693Y007419D03*
X008695Y007424D03*
X008695Y007427D03*
X008695Y007429D03*
X008698Y007432D03*
X008698Y007434D03*
X008698Y007437D03*
X008700Y007439D03*
X008700Y007442D03*
X008700Y007444D03*
X008700Y007447D03*
X008703Y007449D03*
X008703Y007452D03*
X008703Y007454D03*
X008705Y007457D03*
X008705Y007459D03*
X008705Y007462D03*
X008708Y007467D03*
X008708Y007469D03*
X008708Y007472D03*
X008710Y007477D03*
X008710Y007479D03*
X008713Y007484D03*
X009733Y007039D03*
X009733Y007037D03*
X009733Y007034D03*
X008698Y006742D03*
X006518Y008059D03*
X006515Y008057D03*
X006513Y008054D03*
X006510Y008052D03*
X006508Y008049D03*
X006770Y008247D03*
D45*
X006495Y008034D03*
X006493Y008032D03*
X006488Y008024D03*
X006485Y008022D03*
X006483Y008019D03*
X006480Y008017D03*
X006475Y008009D03*
X007840Y007312D03*
X008605Y007094D03*
X008013Y006949D03*
X009735Y007024D03*
X009735Y007027D03*
X011333Y007662D03*
X005553Y006919D03*
X005550Y006917D03*
X005105Y006979D03*
X004643Y006414D03*
X004230Y005612D03*
D46*
X004232Y005614D03*
X004639Y006409D03*
X004642Y006412D03*
X005547Y006912D03*
X005549Y006914D03*
X005104Y006974D03*
X005104Y006977D03*
X007142Y006729D03*
X008014Y006947D03*
X008604Y007092D03*
X008699Y006744D03*
X008054Y006757D03*
X008094Y007402D03*
X006479Y008014D03*
X006477Y008012D03*
X006474Y008007D03*
X006472Y008004D03*
X006469Y008002D03*
X006467Y007999D03*
X006464Y007994D03*
X006462Y007992D03*
X006784Y008252D03*
X009737Y007022D03*
X009737Y007019D03*
D47*
X009739Y007012D03*
X009739Y007009D03*
X009939Y006722D03*
X008612Y006964D03*
X008599Y007084D03*
X008014Y006944D03*
X007842Y007314D03*
X006449Y007974D03*
X006447Y007972D03*
X006444Y007967D03*
X006442Y007964D03*
X006439Y007962D03*
X006439Y007959D03*
X006437Y007957D03*
X006434Y007952D03*
X006432Y007949D03*
X007127Y008347D03*
X010137Y007659D03*
X005544Y006907D03*
X005542Y006904D03*
X005102Y006967D03*
X005102Y006969D03*
X004637Y006404D03*
X004634Y006402D03*
X004232Y005617D03*
D48*
X004233Y005619D03*
X005538Y006899D03*
X005540Y006902D03*
X005100Y006964D03*
X006415Y007924D03*
X006420Y007932D03*
X006423Y007937D03*
X006425Y007939D03*
X006428Y007942D03*
X006428Y007944D03*
X006430Y007947D03*
X006435Y007954D03*
X006798Y008257D03*
X007400Y008172D03*
X007403Y008174D03*
X007410Y008184D03*
X007413Y008187D03*
X007415Y008189D03*
X007418Y008192D03*
X007420Y008197D03*
X007423Y008199D03*
X007425Y008202D03*
X007428Y008204D03*
X007430Y008207D03*
X008598Y007082D03*
X008613Y006962D03*
X008613Y006959D03*
X008700Y006747D03*
X009315Y006752D03*
X009740Y007004D03*
X009740Y007007D03*
X011173Y006734D03*
X008055Y006759D03*
X008015Y006942D03*
D49*
X008018Y006937D03*
X008055Y006762D03*
X008615Y006952D03*
X008615Y006954D03*
X008618Y006949D03*
X008595Y007077D03*
X008700Y006749D03*
X009315Y006754D03*
X009745Y006992D03*
X009745Y006994D03*
X009743Y006999D03*
X008088Y007399D03*
X007343Y008094D03*
X007348Y008102D03*
X007353Y008109D03*
X007355Y008112D03*
X007358Y008117D03*
X007360Y008119D03*
X007363Y008122D03*
X007363Y008124D03*
X007365Y008127D03*
X007368Y008129D03*
X007370Y008132D03*
X007373Y008137D03*
X007375Y008139D03*
X007383Y008149D03*
X006408Y007912D03*
X006403Y007904D03*
X006400Y007899D03*
X006398Y007897D03*
X006398Y007894D03*
X006395Y007892D03*
X006395Y007889D03*
X006393Y007887D03*
X006390Y007882D03*
X005100Y006959D03*
X004630Y006397D03*
X004233Y005622D03*
X007143Y006732D03*
D50*
X008020Y006934D03*
X008593Y007072D03*
X008620Y006944D03*
X009315Y006757D03*
X009748Y006984D03*
X009748Y006987D03*
X009940Y006724D03*
X010965Y006954D03*
X010135Y007657D03*
X007338Y008087D03*
X007333Y008079D03*
X007328Y008072D03*
X007325Y008069D03*
X007325Y008067D03*
X007323Y008064D03*
X007320Y008062D03*
X007320Y008059D03*
X007318Y008057D03*
X007315Y008052D03*
X007313Y008049D03*
X007310Y008044D03*
X007305Y008037D03*
X006378Y007859D03*
X006375Y007854D03*
X006373Y007849D03*
X006370Y007847D03*
X006370Y007844D03*
X006368Y007842D03*
X006368Y007839D03*
X006365Y007837D03*
X006365Y007834D03*
X006363Y007832D03*
X006363Y007829D03*
X006360Y007827D03*
X006360Y007824D03*
X006358Y007822D03*
X006358Y007819D03*
X005098Y006952D03*
X005525Y006884D03*
X005528Y006887D03*
X004625Y006389D03*
X004233Y005624D03*
D51*
X004234Y005627D03*
X004624Y006387D03*
X005524Y006882D03*
X005097Y006947D03*
X005097Y006949D03*
X006387Y006734D03*
X007144Y006734D03*
X008022Y006932D03*
X008057Y006764D03*
X008622Y006942D03*
X008592Y007069D03*
X008702Y006752D03*
X009749Y006982D03*
X011169Y006737D03*
X007427Y008217D03*
X007317Y008054D03*
X007312Y008047D03*
X007309Y008042D03*
X007307Y008039D03*
X007304Y008034D03*
X007302Y008032D03*
X007302Y008029D03*
X007299Y008027D03*
X007299Y008024D03*
X007297Y008022D03*
X007294Y008019D03*
X007294Y008017D03*
X007292Y008014D03*
X007289Y008009D03*
X006357Y007817D03*
X006354Y007814D03*
X006354Y007812D03*
X006352Y007809D03*
X006352Y007807D03*
X006349Y007804D03*
X006349Y007802D03*
X006347Y007799D03*
X006347Y007797D03*
X006344Y007792D03*
X006342Y007787D03*
X006339Y007782D03*
X006337Y007774D03*
X006334Y007769D03*
D52*
X006327Y007752D03*
X006322Y007739D03*
X006319Y007734D03*
X006319Y007732D03*
X006317Y007729D03*
X006317Y007727D03*
X006314Y007722D03*
X006314Y007719D03*
X006312Y007717D03*
X006312Y007714D03*
X006312Y007712D03*
X006309Y007709D03*
X006309Y007707D03*
X006307Y007702D03*
X006304Y007694D03*
X006302Y007689D03*
X006302Y007687D03*
X006299Y007682D03*
X007242Y007922D03*
X007244Y007927D03*
X007247Y007932D03*
X007249Y007937D03*
X007252Y007942D03*
X007254Y007947D03*
X007257Y007949D03*
X007257Y007952D03*
X007259Y007954D03*
X007259Y007957D03*
X007262Y007959D03*
X007262Y007962D03*
X007264Y007964D03*
X007267Y007969D03*
X007269Y007974D03*
X007272Y007979D03*
X007424Y008219D03*
X008079Y007397D03*
X008587Y007062D03*
X008624Y006937D03*
X008024Y006929D03*
X007027Y007182D03*
X007027Y007184D03*
X007027Y007187D03*
X007027Y007189D03*
X007027Y007192D03*
X007027Y007194D03*
X007027Y007197D03*
X007029Y007199D03*
X007029Y007202D03*
X007029Y007204D03*
X007029Y007207D03*
X007029Y007209D03*
X007029Y007212D03*
X007029Y007214D03*
X007029Y007217D03*
X007032Y007219D03*
X007032Y007222D03*
X007032Y007224D03*
X007032Y007227D03*
X007032Y007229D03*
X007032Y007232D03*
X007032Y007234D03*
X007034Y007239D03*
X007034Y007242D03*
X007034Y007244D03*
X007034Y007247D03*
X007034Y007249D03*
X007037Y007257D03*
X007037Y007259D03*
X007037Y007262D03*
X007037Y007264D03*
X007037Y007267D03*
X007039Y007274D03*
X007039Y007277D03*
X007039Y007279D03*
X007042Y007289D03*
X007042Y007292D03*
X007042Y007294D03*
X007044Y007307D03*
X005519Y006877D03*
X005517Y006874D03*
X004619Y006379D03*
X004234Y005629D03*
X009754Y006972D03*
X010134Y007654D03*
D53*
X009755Y006969D03*
X009385Y006937D03*
X009313Y006762D03*
X008703Y006754D03*
X008625Y006934D03*
X008585Y007059D03*
X007048Y007322D03*
X007048Y007324D03*
X007048Y007327D03*
X007048Y007329D03*
X007048Y007332D03*
X007050Y007339D03*
X007050Y007342D03*
X007053Y007352D03*
X007053Y007354D03*
X007055Y007364D03*
X007045Y007319D03*
X007045Y007317D03*
X007045Y007314D03*
X007045Y007312D03*
X007045Y007309D03*
X007043Y007304D03*
X007043Y007302D03*
X007043Y007299D03*
X007043Y007297D03*
X007040Y007287D03*
X007040Y007284D03*
X007040Y007282D03*
X007038Y007272D03*
X007038Y007269D03*
X007035Y007254D03*
X007035Y007252D03*
X007033Y007237D03*
X007025Y007179D03*
X006280Y007627D03*
X006283Y007634D03*
X006285Y007642D03*
X006288Y007649D03*
X006290Y007654D03*
X006290Y007657D03*
X006293Y007662D03*
X006293Y007664D03*
X006295Y007669D03*
X006295Y007672D03*
X006298Y007674D03*
X006298Y007677D03*
X006298Y007679D03*
X006300Y007684D03*
X006303Y007692D03*
X006305Y007697D03*
X006305Y007699D03*
X006308Y007704D03*
X007225Y007889D03*
X007228Y007894D03*
X007230Y007899D03*
X007233Y007904D03*
X007235Y007909D03*
X007238Y007914D03*
X007238Y007917D03*
X007240Y007919D03*
X007243Y007924D03*
X007245Y007929D03*
X007248Y007934D03*
X007250Y007939D03*
X007253Y007944D03*
X005095Y006939D03*
X004618Y006377D03*
X004235Y005632D03*
D54*
X004235Y005634D03*
X004613Y006372D03*
X005093Y006932D03*
X006228Y007429D03*
X006230Y007442D03*
X006233Y007452D03*
X006233Y007454D03*
X006235Y007464D03*
X006238Y007474D03*
X006238Y007477D03*
X006240Y007484D03*
X006240Y007487D03*
X006240Y007489D03*
X006243Y007497D03*
X006243Y007499D03*
X006245Y007504D03*
X006245Y007507D03*
X006245Y007509D03*
X006248Y007514D03*
X006248Y007517D03*
X006248Y007519D03*
X006250Y007524D03*
X006250Y007527D03*
X006250Y007529D03*
X006253Y007534D03*
X006253Y007537D03*
X006253Y007539D03*
X006255Y007542D03*
X006255Y007544D03*
X006255Y007547D03*
X006258Y007552D03*
X006258Y007554D03*
X006258Y007557D03*
X006260Y007559D03*
X006260Y007562D03*
X006260Y007564D03*
X006263Y007569D03*
X006263Y007572D03*
X006265Y007577D03*
X006265Y007579D03*
X006265Y007582D03*
X006268Y007587D03*
X006268Y007589D03*
X006270Y007594D03*
X006270Y007597D03*
X006273Y007604D03*
X006275Y007612D03*
X007068Y007427D03*
X007068Y007424D03*
X007068Y007422D03*
X007068Y007419D03*
X007065Y007414D03*
X007065Y007412D03*
X007065Y007409D03*
X007063Y007402D03*
X007063Y007399D03*
X007060Y007389D03*
X007070Y007429D03*
X007070Y007432D03*
X007070Y007434D03*
X007070Y007437D03*
X007073Y007442D03*
X007073Y007444D03*
X007073Y007447D03*
X007075Y007452D03*
X007075Y007454D03*
X007075Y007457D03*
X007078Y007464D03*
X007078Y007467D03*
X007080Y007474D03*
X007083Y007484D03*
X007085Y007494D03*
X007168Y007754D03*
X007173Y007767D03*
X007175Y007774D03*
X007178Y007779D03*
X007180Y007787D03*
X007183Y007792D03*
X007185Y007797D03*
X007185Y007799D03*
X007188Y007804D03*
X007190Y007809D03*
X007190Y007812D03*
X007193Y007814D03*
X007193Y007817D03*
X007193Y007819D03*
X007195Y007822D03*
X007195Y007824D03*
X007198Y007827D03*
X007198Y007829D03*
X007200Y007832D03*
X007200Y007834D03*
X007203Y007839D03*
X007205Y007844D03*
X007208Y007852D03*
X007210Y007857D03*
X007213Y007862D03*
X006828Y008264D03*
X007020Y007169D03*
X007020Y007167D03*
X008060Y006772D03*
X008628Y006929D03*
X008583Y007054D03*
X008703Y006757D03*
X009353Y006852D03*
X009358Y006864D03*
X009360Y006869D03*
X009360Y006872D03*
X009363Y006874D03*
X009363Y006877D03*
X009365Y006882D03*
X009365Y006884D03*
X009368Y006887D03*
X009368Y006889D03*
X009368Y006892D03*
X009370Y006894D03*
X009370Y006897D03*
X009373Y006902D03*
X009375Y006909D03*
X009758Y006964D03*
X009760Y006959D03*
X009940Y006727D03*
X010970Y006952D03*
X011168Y006739D03*
D55*
X009762Y006957D03*
X009364Y006879D03*
X009359Y006867D03*
X009357Y006862D03*
X009357Y006859D03*
X009354Y006857D03*
X009354Y006854D03*
X009352Y006849D03*
X009352Y006847D03*
X009349Y006844D03*
X009349Y006842D03*
X009347Y006839D03*
X009347Y006837D03*
X009344Y006832D03*
X009342Y006827D03*
X009312Y006764D03*
X008629Y006927D03*
X008582Y007052D03*
X007104Y007562D03*
X007104Y007564D03*
X007107Y007572D03*
X007109Y007579D03*
X007102Y007554D03*
X007102Y007552D03*
X007099Y007547D03*
X007099Y007544D03*
X007097Y007537D03*
X007097Y007534D03*
X007094Y007529D03*
X007094Y007527D03*
X007094Y007524D03*
X007092Y007519D03*
X007092Y007517D03*
X007092Y007514D03*
X007089Y007512D03*
X007089Y007509D03*
X007089Y007507D03*
X007089Y007504D03*
X007087Y007502D03*
X007087Y007499D03*
X007087Y007497D03*
X007084Y007492D03*
X007084Y007489D03*
X007084Y007487D03*
X007082Y007482D03*
X007082Y007479D03*
X007082Y007477D03*
X007079Y007472D03*
X007079Y007469D03*
X007077Y007462D03*
X007077Y007459D03*
X007074Y007449D03*
X007072Y007439D03*
X007117Y007604D03*
X007127Y007637D03*
X007129Y007644D03*
X007132Y007652D03*
X007134Y007659D03*
X007137Y007667D03*
X007139Y007674D03*
X007142Y007682D03*
X007144Y007689D03*
X007147Y007697D03*
X007149Y007702D03*
X007149Y007704D03*
X007152Y007709D03*
X007152Y007712D03*
X007154Y007717D03*
X007154Y007719D03*
X007157Y007724D03*
X007157Y007727D03*
X007159Y007729D03*
X007159Y007732D03*
X007162Y007737D03*
X007162Y007739D03*
X007164Y007742D03*
X007164Y007744D03*
X007164Y007747D03*
X007167Y007749D03*
X007167Y007752D03*
X007169Y007757D03*
X007169Y007759D03*
X007172Y007762D03*
X007172Y007764D03*
X007174Y007769D03*
X007174Y007772D03*
X007177Y007777D03*
X007179Y007782D03*
X007179Y007784D03*
X007182Y007789D03*
X007184Y007794D03*
X007187Y007802D03*
X007189Y007807D03*
X006252Y007532D03*
X006249Y007522D03*
X006247Y007512D03*
X006244Y007502D03*
X006242Y007494D03*
X006242Y007492D03*
X006239Y007482D03*
X006239Y007479D03*
X006237Y007472D03*
X006237Y007469D03*
X006237Y007467D03*
X006234Y007462D03*
X006234Y007459D03*
X006234Y007457D03*
X006232Y007449D03*
X006232Y007447D03*
X006232Y007444D03*
X006229Y007439D03*
X006229Y007437D03*
X006229Y007434D03*
X006229Y007432D03*
X006227Y007427D03*
X006227Y007424D03*
X006227Y007422D03*
X006227Y007419D03*
X006227Y007417D03*
X006224Y007414D03*
X006224Y007412D03*
X006224Y007409D03*
X006224Y007407D03*
X006224Y007404D03*
X006224Y007402D03*
X006222Y007399D03*
X006222Y007397D03*
X006222Y007394D03*
X006222Y007392D03*
X006222Y007389D03*
X006222Y007387D03*
X006219Y007384D03*
X006219Y007382D03*
X006219Y007379D03*
X006219Y007377D03*
X006219Y007374D03*
X006219Y007372D03*
X006217Y007369D03*
X006217Y007367D03*
X006217Y007364D03*
X006217Y007362D03*
X006217Y007359D03*
X006217Y007357D03*
X006214Y007349D03*
X006214Y007347D03*
X006214Y007344D03*
X006214Y007342D03*
X006214Y007339D03*
X006214Y007337D03*
X006212Y007329D03*
X006212Y007327D03*
X006212Y007324D03*
X006212Y007322D03*
X006212Y007319D03*
X006212Y007317D03*
X006212Y007314D03*
X006209Y007304D03*
X006209Y007302D03*
X006209Y007299D03*
X006209Y007297D03*
X006209Y007294D03*
X006209Y007292D03*
X006209Y007289D03*
X006207Y007267D03*
X006207Y007264D03*
X006207Y007262D03*
X006207Y007259D03*
X006207Y007257D03*
X006207Y007254D03*
X005509Y006867D03*
X005507Y006864D03*
X005092Y006929D03*
X004612Y006369D03*
X004609Y006367D03*
X004237Y005637D03*
X007019Y007164D03*
X007419Y008224D03*
X010134Y007652D03*
D56*
X009763Y006954D03*
X009345Y006834D03*
X009343Y006829D03*
X009340Y006824D03*
X009340Y006822D03*
X009338Y006819D03*
X009338Y006817D03*
X009335Y006814D03*
X009335Y006812D03*
X009333Y006809D03*
X009330Y006804D03*
X009328Y006799D03*
X009325Y006794D03*
X009323Y006789D03*
X009310Y006767D03*
X008633Y006924D03*
X008580Y007049D03*
X008030Y006924D03*
X007145Y006739D03*
X007025Y007019D03*
X007025Y007022D03*
X007018Y007162D03*
X007093Y007522D03*
X007095Y007532D03*
X007098Y007539D03*
X007098Y007542D03*
X007100Y007549D03*
X007103Y007557D03*
X007103Y007559D03*
X007105Y007567D03*
X007105Y007569D03*
X007108Y007574D03*
X007108Y007577D03*
X007110Y007582D03*
X007110Y007584D03*
X007110Y007587D03*
X007113Y007589D03*
X007113Y007592D03*
X007113Y007594D03*
X007115Y007597D03*
X007115Y007599D03*
X007115Y007602D03*
X007118Y007607D03*
X007118Y007609D03*
X007118Y007612D03*
X007120Y007614D03*
X007120Y007617D03*
X007120Y007619D03*
X007123Y007622D03*
X007123Y007624D03*
X007123Y007627D03*
X007125Y007629D03*
X007125Y007632D03*
X007125Y007634D03*
X007128Y007639D03*
X007128Y007642D03*
X007130Y007647D03*
X007130Y007649D03*
X007133Y007654D03*
X007133Y007657D03*
X007135Y007662D03*
X007135Y007664D03*
X007138Y007669D03*
X007138Y007672D03*
X007140Y007677D03*
X007140Y007679D03*
X007143Y007684D03*
X007143Y007687D03*
X007145Y007692D03*
X007145Y007694D03*
X007148Y007699D03*
X007150Y007707D03*
X007153Y007714D03*
X007155Y007722D03*
X007160Y007734D03*
X007848Y007324D03*
X006388Y006739D03*
X006205Y007192D03*
X006205Y007194D03*
X006205Y007197D03*
X006205Y007199D03*
X006205Y007202D03*
X006205Y007204D03*
X006205Y007207D03*
X006205Y007209D03*
X006205Y007212D03*
X006205Y007214D03*
X006205Y007217D03*
X006205Y007219D03*
X006205Y007222D03*
X006205Y007224D03*
X006205Y007227D03*
X006205Y007229D03*
X006205Y007232D03*
X006205Y007234D03*
X006205Y007237D03*
X006205Y007239D03*
X006205Y007242D03*
X006205Y007244D03*
X006205Y007247D03*
X006205Y007249D03*
X006205Y007252D03*
X006208Y007269D03*
X006208Y007272D03*
X006208Y007274D03*
X006208Y007277D03*
X006208Y007279D03*
X006208Y007282D03*
X006208Y007284D03*
X006208Y007287D03*
X006210Y007307D03*
X006210Y007309D03*
X006210Y007312D03*
X006213Y007332D03*
X006213Y007334D03*
X006215Y007352D03*
X006215Y007354D03*
X005093Y006927D03*
X004608Y006364D03*
X004235Y005639D03*
D57*
X004237Y005642D03*
X004607Y006362D03*
X005092Y006922D03*
X005092Y006924D03*
X005502Y006859D03*
X005504Y006862D03*
X006207Y007162D03*
X006207Y007164D03*
X006207Y007167D03*
X006207Y007169D03*
X006207Y007172D03*
X006207Y007174D03*
X006207Y007177D03*
X006207Y007179D03*
X006207Y007182D03*
X006207Y007184D03*
X006207Y007187D03*
X006207Y007189D03*
X007017Y007159D03*
X007017Y007157D03*
X007027Y007017D03*
X007027Y007014D03*
X007027Y007012D03*
X007027Y007009D03*
X007029Y007004D03*
X008062Y006774D03*
X008704Y006759D03*
X009312Y006769D03*
X009314Y006774D03*
X009317Y006777D03*
X009317Y006779D03*
X009319Y006782D03*
X009319Y006784D03*
X009322Y006787D03*
X009324Y006792D03*
X009327Y006797D03*
X009329Y006802D03*
X009332Y006807D03*
X009764Y006952D03*
X009767Y006949D03*
X007417Y008227D03*
D58*
X007849Y007327D03*
X008577Y007044D03*
X009769Y006944D03*
X010977Y006949D03*
X007147Y006742D03*
X007032Y006992D03*
X007032Y006994D03*
X007014Y007152D03*
X006212Y007124D03*
X006212Y007122D03*
X006212Y007119D03*
X006212Y007117D03*
X006209Y007129D03*
X006209Y007132D03*
X006209Y007134D03*
X006209Y007137D03*
X006209Y007139D03*
X006209Y007142D03*
X005499Y006857D03*
X004602Y006354D03*
X004237Y005644D03*
D59*
X004238Y005647D03*
X004598Y006349D03*
X004600Y006352D03*
X005495Y006854D03*
X005090Y006914D03*
X005090Y006917D03*
X006213Y007107D03*
X006213Y007109D03*
X006213Y007112D03*
X006213Y007114D03*
X006210Y007127D03*
X007013Y007147D03*
X007013Y007149D03*
X007033Y006989D03*
X007033Y006987D03*
X006388Y006742D03*
X008063Y006777D03*
X008575Y007042D03*
X008638Y006919D03*
X008705Y006762D03*
X009770Y006942D03*
X007413Y008229D03*
D60*
X007410Y008232D03*
X007010Y007142D03*
X007008Y007137D03*
X007035Y006979D03*
X007038Y006974D03*
X007038Y006972D03*
X006220Y007072D03*
X006218Y007079D03*
X006218Y007082D03*
X006218Y007084D03*
X005088Y006909D03*
X004595Y006347D03*
X004238Y005649D03*
X008573Y007037D03*
X008705Y006764D03*
X009775Y006937D03*
D61*
X009777Y006934D03*
X009942Y006732D03*
X008642Y006917D03*
X008572Y007034D03*
X008037Y006922D03*
X007147Y006744D03*
X007039Y006969D03*
X007007Y007134D03*
X007009Y007139D03*
X006222Y007069D03*
X006222Y007067D03*
X006222Y007064D03*
X006219Y007074D03*
X006219Y007077D03*
X005492Y006852D03*
X005089Y006907D03*
X004594Y006344D03*
X004592Y006342D03*
X004239Y005652D03*
X006389Y006744D03*
X007129Y008344D03*
D62*
X007407Y008234D03*
X007004Y007129D03*
X007004Y007127D03*
X007042Y006962D03*
X007044Y006959D03*
X006227Y007047D03*
X006227Y007049D03*
X006224Y007054D03*
X006224Y007057D03*
X005487Y006849D03*
X005087Y006902D03*
X004589Y006337D03*
X004239Y005657D03*
X004239Y005654D03*
X008067Y006784D03*
X008569Y007029D03*
X009782Y006929D03*
X010982Y006947D03*
D63*
X009784Y006924D03*
X008567Y007024D03*
X008067Y006787D03*
X007047Y006952D03*
X007002Y007122D03*
X006232Y007034D03*
X006232Y007032D03*
X006229Y007039D03*
X005087Y006897D03*
X005087Y006894D03*
X004584Y006329D03*
X004239Y005659D03*
X007404Y008237D03*
D64*
X007000Y007119D03*
X007048Y006949D03*
X006235Y007022D03*
X006235Y007024D03*
X006233Y007027D03*
X006233Y007029D03*
X005483Y006847D03*
X004583Y006327D03*
X004580Y006324D03*
X004240Y005662D03*
X008565Y007022D03*
X009788Y006922D03*
X009943Y006734D03*
X011160Y006747D03*
X010130Y007642D03*
D65*
X008563Y007017D03*
X007053Y006942D03*
X007050Y006944D03*
X006998Y007112D03*
X006240Y007012D03*
X006238Y007014D03*
X006238Y007017D03*
X005085Y006889D03*
X004578Y006319D03*
X004240Y005664D03*
X007400Y008239D03*
D66*
X006997Y007109D03*
X007054Y006939D03*
X006242Y007007D03*
X006242Y007009D03*
X005087Y006887D03*
X004574Y006317D03*
X004242Y005667D03*
X008069Y006792D03*
X008562Y007014D03*
X008709Y006774D03*
X009792Y006917D03*
X009944Y006737D03*
X010987Y006944D03*
X010129Y007639D03*
D67*
X009795Y006914D03*
X007150Y006752D03*
X006995Y007107D03*
X006245Y007002D03*
X006245Y006999D03*
X006243Y007004D03*
X006390Y006752D03*
X005085Y006884D03*
X004573Y006314D03*
X004243Y005669D03*
D68*
X004242Y005672D03*
X004569Y006309D03*
X004572Y006312D03*
X005084Y006882D03*
X006247Y006997D03*
X006994Y007104D03*
X007057Y006937D03*
X008072Y006794D03*
X008669Y007487D03*
X008672Y007494D03*
X008672Y007497D03*
X010129Y007637D03*
X011159Y006749D03*
X007397Y008242D03*
D69*
X008673Y007504D03*
X008673Y007502D03*
X008673Y007499D03*
X008670Y007492D03*
X008670Y007489D03*
X008560Y007012D03*
X008710Y006777D03*
X009798Y006912D03*
X007058Y006934D03*
X006993Y007099D03*
X006993Y007102D03*
X006250Y006989D03*
X006248Y006994D03*
X006390Y006754D03*
X005085Y006879D03*
X004568Y006307D03*
X004243Y005674D03*
D70*
X004243Y005677D03*
X004563Y006299D03*
X006253Y006984D03*
X006990Y007094D03*
X007063Y006929D03*
X008073Y006799D03*
X008558Y007007D03*
X009800Y006909D03*
X010128Y007634D03*
D71*
X009804Y006907D03*
X010992Y006942D03*
X008557Y007004D03*
X007064Y006927D03*
X006989Y007092D03*
X006257Y006979D03*
X006254Y006982D03*
X004562Y006297D03*
X004559Y006294D03*
X004244Y005679D03*
D72*
X004245Y005682D03*
X004558Y006292D03*
X006258Y006977D03*
X006390Y006757D03*
X006988Y007089D03*
X007153Y006757D03*
X008555Y007002D03*
X008713Y006782D03*
X011155Y006752D03*
X007390Y008247D03*
X007130Y008342D03*
D73*
X006987Y007087D03*
X006987Y007084D03*
X007067Y006924D03*
X006262Y006972D03*
X006259Y006974D03*
X008074Y006802D03*
X008554Y006999D03*
X009807Y006904D03*
X009944Y006742D03*
X010127Y007632D03*
X004557Y006289D03*
X004554Y006287D03*
X004244Y005684D03*
D74*
X004245Y005687D03*
X004553Y006284D03*
X006263Y006969D03*
X006390Y006759D03*
X006985Y007082D03*
X008075Y006804D03*
X008713Y006784D03*
D75*
X008714Y006787D03*
X008554Y006997D03*
X007154Y006759D03*
X007069Y006922D03*
X006984Y007079D03*
X006264Y006967D03*
X004552Y006282D03*
X004549Y006279D03*
X004247Y005689D03*
X011129Y007452D03*
D76*
X010997Y006939D03*
X011152Y006754D03*
X008552Y006992D03*
X007154Y006762D03*
X006984Y007077D03*
X006392Y006762D03*
X004247Y005694D03*
X004247Y005692D03*
D77*
X004248Y005697D03*
X004543Y006272D03*
X004545Y006274D03*
X006270Y006959D03*
X006983Y007074D03*
X007073Y006919D03*
X008078Y006809D03*
X008550Y006989D03*
X008715Y006789D03*
X009815Y006899D03*
X009945Y006744D03*
X010125Y007627D03*
D78*
X008715Y006792D03*
X007155Y006764D03*
X006980Y007069D03*
X006275Y006954D03*
X004540Y006267D03*
X004538Y006264D03*
X004248Y005702D03*
X004248Y005699D03*
D79*
X004249Y005704D03*
X004534Y006259D03*
X004537Y006262D03*
X006277Y006952D03*
X006392Y006767D03*
X006979Y007067D03*
X008079Y006814D03*
X008549Y006987D03*
X009819Y006897D03*
X009947Y006747D03*
X011124Y007454D03*
X010124Y007624D03*
D80*
X010124Y007622D03*
X011002Y006937D03*
X011149Y006757D03*
X008547Y006982D03*
X008082Y006817D03*
X007157Y006767D03*
X007082Y006914D03*
X006977Y007059D03*
X006977Y007062D03*
X006279Y006949D03*
X004532Y006254D03*
X004529Y006252D03*
X004249Y005707D03*
X007377Y008254D03*
D81*
X008179Y007477D03*
X008322Y006922D03*
X007464Y006917D03*
X005317Y007519D03*
X005317Y007522D03*
X005317Y007524D03*
X005319Y007529D03*
X005319Y007532D03*
X005314Y007512D03*
X005189Y006869D03*
X005192Y006864D03*
X005192Y006862D03*
X005194Y006857D03*
X004637Y006219D03*
X004634Y006214D03*
X004632Y006209D03*
X004632Y006207D03*
X004629Y006204D03*
X004629Y006202D03*
X004627Y006197D03*
X004627Y006194D03*
X004624Y006192D03*
X004624Y006189D03*
X004622Y006187D03*
X004622Y006184D03*
X004619Y006179D03*
X004617Y006174D03*
X004617Y006172D03*
X004614Y006167D03*
X004612Y006162D03*
X004134Y005869D03*
X004134Y005867D03*
X004132Y005864D03*
X004132Y005862D03*
X004127Y005724D03*
X004129Y005719D03*
X004129Y005717D03*
X004132Y005714D03*
X004132Y005712D03*
X004132Y005709D03*
X009804Y007419D03*
X009804Y007422D03*
X009807Y007424D03*
X009809Y007429D03*
X010237Y007414D03*
X010969Y007669D03*
X010289Y006907D03*
D82*
X009737Y007237D03*
X009737Y007239D03*
X009737Y007242D03*
X010257Y007549D03*
X010257Y007552D03*
X010254Y007554D03*
X010254Y007557D03*
X010252Y007562D03*
X010992Y007664D03*
X011367Y007664D03*
X008034Y007122D03*
X008032Y007117D03*
X008032Y007114D03*
X008032Y007112D03*
X008029Y007107D03*
X007847Y007624D03*
X006384Y006714D03*
X005167Y007127D03*
X005164Y007124D03*
X005164Y007122D03*
X005734Y007242D03*
X005737Y007247D03*
X005739Y007252D03*
X005742Y007257D03*
X005744Y007262D03*
X005747Y007267D03*
X005749Y007272D03*
X005752Y007277D03*
X004824Y006642D03*
X004822Y006639D03*
X004822Y006637D03*
X004727Y006517D03*
X004724Y006514D03*
X004722Y006512D03*
X004719Y006509D03*
X004717Y006507D03*
X004714Y006504D03*
X004712Y006502D03*
X004709Y006499D03*
X004309Y006114D03*
X004307Y006112D03*
X004304Y006109D03*
X004302Y006107D03*
X004299Y006104D03*
X004297Y006102D03*
X004344Y005709D03*
D83*
X004349Y005714D03*
X004352Y005717D03*
X004354Y005719D03*
X004272Y006074D03*
X004274Y006077D03*
X004277Y006079D03*
X004279Y006082D03*
X004282Y006084D03*
X004744Y006537D03*
X004747Y006539D03*
X004749Y006542D03*
X004752Y006544D03*
X004754Y006547D03*
X004814Y006624D03*
X004817Y006627D03*
X005172Y007139D03*
X005174Y007142D03*
X005174Y007144D03*
X005177Y007149D03*
X005759Y007294D03*
X005762Y007299D03*
X005764Y007304D03*
X005767Y007309D03*
X005767Y007312D03*
X005769Y007314D03*
X005769Y007317D03*
X005772Y007319D03*
X005772Y007322D03*
X005774Y007327D03*
X008037Y007129D03*
X008039Y007134D03*
X008039Y007137D03*
X008042Y007139D03*
X008042Y007142D03*
X008042Y007144D03*
X008044Y007149D03*
X008142Y007434D03*
X008907Y008034D03*
X010262Y007534D03*
X010262Y007532D03*
X010264Y007524D03*
X010264Y007522D03*
X010264Y007519D03*
X010264Y007517D03*
X010267Y007509D03*
X010267Y007507D03*
X010267Y007504D03*
X010267Y007502D03*
X010267Y007499D03*
X010267Y007497D03*
X010267Y007494D03*
X010267Y007492D03*
X010267Y007489D03*
X010267Y007487D03*
X010267Y007482D03*
X010267Y007479D03*
X010267Y007477D03*
X009742Y007264D03*
X009742Y007262D03*
X009742Y007259D03*
X009327Y006724D03*
X011182Y006719D03*
D84*
X009813Y007434D03*
X009810Y007432D03*
X009808Y007427D03*
X009965Y007594D03*
X008933Y008044D03*
X007860Y007662D03*
X008180Y007479D03*
X006695Y006942D03*
X008035Y006717D03*
X005320Y007534D03*
X005320Y007537D03*
X005320Y007539D03*
X005320Y007542D03*
X005323Y007547D03*
X005323Y007549D03*
X005318Y007527D03*
X005188Y006874D03*
X005188Y006872D03*
X005190Y006867D03*
X004640Y006232D03*
X004640Y006229D03*
X004640Y006227D03*
X004638Y006224D03*
X004638Y006222D03*
X004635Y006217D03*
X004633Y006212D03*
X004628Y006199D03*
X004130Y005859D03*
X004130Y005857D03*
X004128Y005854D03*
X004128Y005852D03*
X004128Y005849D03*
X004123Y005737D03*
X004125Y005732D03*
X004125Y005729D03*
X004125Y005727D03*
X004128Y005722D03*
D85*
X004355Y005722D03*
X004263Y006064D03*
X004265Y006067D03*
X004268Y006069D03*
X004270Y006072D03*
X004755Y006549D03*
X004758Y006552D03*
X004760Y006554D03*
X004763Y006557D03*
X004765Y006559D03*
X004768Y006562D03*
X004775Y006572D03*
X004778Y006574D03*
X004810Y006617D03*
X004813Y006619D03*
X004813Y006622D03*
X005175Y007147D03*
X005178Y007152D03*
X005180Y007157D03*
X005183Y007162D03*
X005773Y007324D03*
X005775Y007329D03*
X005778Y007332D03*
X005778Y007334D03*
X005780Y007337D03*
X005780Y007339D03*
X005783Y007344D03*
X005785Y007349D03*
X007848Y007629D03*
X008048Y007159D03*
X008048Y007157D03*
X008045Y007154D03*
X008045Y007152D03*
X008043Y007147D03*
X009743Y007267D03*
X009743Y007269D03*
X009745Y007277D03*
X010265Y007464D03*
X010265Y007467D03*
X010265Y007469D03*
X010265Y007472D03*
X010265Y007474D03*
X010268Y007484D03*
X010265Y007512D03*
X010265Y007514D03*
D86*
X010260Y007449D03*
X010260Y007447D03*
X009750Y007294D03*
X009750Y007292D03*
X009748Y007287D03*
X009748Y007284D03*
X010143Y007677D03*
X008060Y007189D03*
X008058Y007184D03*
X008058Y007182D03*
X008055Y007179D03*
X008055Y007177D03*
X008053Y007172D03*
X007850Y007634D03*
X007850Y007637D03*
X006383Y006712D03*
X005190Y007177D03*
X005190Y007179D03*
X005188Y007174D03*
X005188Y007172D03*
X005193Y007184D03*
X005793Y007367D03*
X005795Y007372D03*
X005798Y007377D03*
X005798Y007379D03*
X005800Y007382D03*
X005800Y007384D03*
X005803Y007387D03*
X005803Y007389D03*
X005805Y007394D03*
X005808Y007399D03*
X004808Y006612D03*
X004805Y006609D03*
X004805Y006607D03*
X004803Y006604D03*
X004800Y006602D03*
X004798Y006599D03*
X004798Y006597D03*
X004795Y006594D03*
X004793Y006592D03*
X004790Y006589D03*
X004248Y006044D03*
X004245Y006042D03*
X004243Y006039D03*
X004240Y006037D03*
X004235Y006029D03*
X004368Y005734D03*
X004365Y005732D03*
X004363Y005729D03*
X009328Y006722D03*
X009935Y006709D03*
D87*
X009934Y006704D03*
X010294Y006909D03*
X010234Y007412D03*
X009822Y007449D03*
X009819Y007444D03*
X009817Y007442D03*
X009814Y007439D03*
X009814Y007437D03*
X008984Y006919D03*
X008184Y007482D03*
X007469Y006919D03*
X005887Y007597D03*
X005327Y007567D03*
X005327Y007564D03*
X005324Y007559D03*
X005324Y007557D03*
X005324Y007554D03*
X005324Y007552D03*
X005322Y007544D03*
X004127Y005847D03*
X004127Y005844D03*
X004124Y005842D03*
X004124Y005839D03*
X004122Y005742D03*
X004122Y005739D03*
X004124Y005734D03*
X011397Y007669D03*
D88*
X010258Y007442D03*
X009755Y007309D03*
X009753Y007304D03*
X009753Y007302D03*
X011183Y006717D03*
X008040Y006727D03*
X008065Y007202D03*
X008068Y007204D03*
X008068Y007207D03*
X008070Y007212D03*
X005828Y007444D03*
X005825Y007439D03*
X005823Y007434D03*
X005823Y007432D03*
X005820Y007429D03*
X005820Y007427D03*
X005818Y007424D03*
X005818Y007422D03*
X005815Y007417D03*
X005208Y007217D03*
X005205Y007212D03*
X005203Y007207D03*
X005203Y007204D03*
X005200Y007202D03*
X005200Y007199D03*
X004225Y006017D03*
X004223Y006014D03*
X004220Y006012D03*
X004218Y006007D03*
X004215Y006004D03*
X004380Y005749D03*
X004378Y005747D03*
X004375Y005744D03*
D89*
X004385Y005754D03*
X004390Y005762D03*
X004393Y005764D03*
X004395Y005767D03*
X004195Y005977D03*
X004200Y005984D03*
X004203Y005987D03*
X004208Y005994D03*
X005215Y007234D03*
X005218Y007239D03*
X005218Y007242D03*
X005220Y007244D03*
X005220Y007247D03*
X005223Y007249D03*
X005223Y007252D03*
X005225Y007257D03*
X005228Y007262D03*
X005833Y007457D03*
X005835Y007462D03*
X005835Y007464D03*
X005838Y007467D03*
X005838Y007469D03*
X005840Y007472D03*
X005840Y007474D03*
X005843Y007479D03*
X007853Y007644D03*
X008080Y007234D03*
X008078Y007229D03*
X008075Y007224D03*
X008690Y006719D03*
X009758Y007317D03*
X009760Y007324D03*
X009760Y007327D03*
X009763Y007332D03*
X010253Y007434D03*
X011425Y006922D03*
D90*
X010302Y006914D03*
X010232Y007409D03*
X009959Y007592D03*
X009832Y007464D03*
X009829Y007462D03*
X009829Y007459D03*
X009827Y007457D03*
X008939Y008047D03*
X008189Y007489D03*
X008187Y007487D03*
X007474Y006922D03*
X006704Y006947D03*
X005884Y007599D03*
X004119Y005822D03*
X004119Y005819D03*
X004117Y005814D03*
X004117Y005812D03*
X004117Y005809D03*
X004117Y005807D03*
X004117Y005804D03*
X004117Y005764D03*
X004117Y005762D03*
X004117Y005759D03*
D91*
X004115Y005767D03*
X004115Y005769D03*
X004115Y005772D03*
X004115Y005794D03*
X004115Y005797D03*
X004115Y005799D03*
X004115Y005802D03*
X005518Y006712D03*
X005520Y006717D03*
X005523Y006722D03*
X006383Y006704D03*
X007133Y006704D03*
X007478Y006924D03*
X008035Y006714D03*
X008330Y006924D03*
X008990Y006922D03*
X007820Y007284D03*
X008190Y007492D03*
X009833Y007467D03*
X009835Y007469D03*
X009838Y007474D03*
X010145Y007684D03*
X011453Y006929D03*
X011188Y006709D03*
D92*
X009764Y007334D03*
X009762Y007329D03*
X010252Y007432D03*
X011074Y007444D03*
X009329Y006719D03*
X008039Y006724D03*
X008079Y007232D03*
X008082Y007237D03*
X008082Y007239D03*
X008084Y007242D03*
X008084Y007244D03*
X008157Y007449D03*
X007854Y007647D03*
X005852Y007499D03*
X005849Y007494D03*
X005847Y007489D03*
X005847Y007487D03*
X005844Y007484D03*
X005844Y007482D03*
X005842Y007477D03*
X005237Y007282D03*
X005234Y007277D03*
X005232Y007272D03*
X005232Y007269D03*
X005229Y007267D03*
X005229Y007264D03*
X005227Y007259D03*
X005224Y007254D03*
X004199Y005982D03*
X004197Y005979D03*
X004194Y005974D03*
X004192Y005972D03*
X004187Y005964D03*
X004412Y005792D03*
X004409Y005787D03*
X004407Y005784D03*
X004404Y005779D03*
X004402Y005777D03*
X004399Y005774D03*
X004399Y005772D03*
X004397Y005769D03*
D93*
X004114Y005774D03*
X004114Y005777D03*
X004114Y005779D03*
X004114Y005782D03*
X004114Y005784D03*
X004114Y005787D03*
X004114Y005789D03*
X004114Y005792D03*
X005292Y006692D03*
X005512Y006694D03*
X005514Y006699D03*
X005514Y006702D03*
X005514Y006704D03*
X005517Y006707D03*
X005517Y006709D03*
X005519Y006714D03*
X005522Y006719D03*
X007862Y007667D03*
X008192Y007494D03*
X008194Y007497D03*
X008994Y006924D03*
X009837Y007472D03*
X009839Y007477D03*
X009842Y007479D03*
X009844Y007482D03*
X009954Y007589D03*
X010229Y007407D03*
X011074Y007442D03*
X010307Y006917D03*
D94*
X010267Y006897D03*
X009934Y006707D03*
X009769Y007347D03*
X009769Y007349D03*
X009772Y007352D03*
X009772Y007354D03*
X009774Y007359D03*
X008162Y007454D03*
X008094Y007264D03*
X008092Y007262D03*
X008092Y007259D03*
X008089Y007254D03*
X007854Y007649D03*
X007449Y006912D03*
X007134Y006709D03*
X005857Y007512D03*
X005859Y007517D03*
X005859Y007519D03*
X005862Y007522D03*
X005862Y007524D03*
X005864Y007529D03*
X005257Y007332D03*
X005254Y007327D03*
X005254Y007324D03*
X005252Y007319D03*
X005252Y007317D03*
X005249Y007314D03*
X005249Y007312D03*
X005247Y007307D03*
X005244Y007302D03*
X005244Y007299D03*
X005242Y007294D03*
X004992Y006874D03*
X004989Y006869D03*
X004984Y006862D03*
X004982Y006857D03*
X004979Y006854D03*
X004977Y006849D03*
X004974Y006847D03*
X004972Y006842D03*
X004969Y006839D03*
X004967Y006834D03*
X004964Y006832D03*
X004964Y006829D03*
X004962Y006827D03*
X004959Y006824D03*
X004959Y006822D03*
X004957Y006819D03*
X004182Y005957D03*
X004179Y005952D03*
X004177Y005949D03*
X004174Y005947D03*
X004174Y005944D03*
X004172Y005942D03*
X004427Y005814D03*
X004429Y005817D03*
X004432Y005822D03*
X004434Y005824D03*
X004437Y005829D03*
X004439Y005832D03*
X004442Y005837D03*
X004447Y005844D03*
X004424Y005809D03*
D95*
X004435Y005827D03*
X004440Y005834D03*
X004443Y005839D03*
X004445Y005842D03*
X004448Y005847D03*
X004450Y005849D03*
X004450Y005852D03*
X004453Y005854D03*
X004455Y005859D03*
X004460Y005867D03*
X004170Y005939D03*
X004168Y005937D03*
X004168Y005934D03*
X004955Y006817D03*
X004968Y006837D03*
X004973Y006844D03*
X004978Y006852D03*
X004983Y006859D03*
X004985Y006864D03*
X004988Y006867D03*
X004990Y006872D03*
X005253Y007322D03*
X005255Y007329D03*
X005258Y007334D03*
X005258Y007337D03*
X005260Y007339D03*
X005260Y007342D03*
X005263Y007344D03*
X005263Y007347D03*
X005263Y007349D03*
X005265Y007352D03*
X005265Y007354D03*
X005268Y007359D03*
X005268Y007362D03*
X005270Y007367D03*
X005863Y007527D03*
X005865Y007532D03*
X005865Y007534D03*
X005868Y007537D03*
X005868Y007539D03*
X005870Y007542D03*
X005870Y007544D03*
X005873Y007549D03*
X008095Y007269D03*
X008095Y007267D03*
X008098Y007272D03*
X008098Y007274D03*
X008163Y007457D03*
X009330Y006717D03*
X009773Y007357D03*
X009775Y007362D03*
X010248Y007427D03*
X011383Y007667D03*
X011185Y006714D03*
D96*
X011187Y006712D03*
X011439Y006924D03*
X010284Y006904D03*
X009332Y006714D03*
X008689Y006714D03*
X008117Y007312D03*
X008119Y007317D03*
X008119Y007319D03*
X008122Y007322D03*
X008174Y007469D03*
X006689Y006939D03*
X005294Y006697D03*
X005199Y006847D03*
X005197Y006852D03*
X005304Y007472D03*
X005304Y007474D03*
X005307Y007479D03*
X005307Y007482D03*
X005307Y007484D03*
X005309Y007487D03*
X005309Y007489D03*
X005309Y007492D03*
X005312Y007499D03*
X005312Y007502D03*
X005889Y007594D03*
X004597Y006127D03*
X004594Y006122D03*
X004592Y006117D03*
X004589Y006112D03*
X004587Y006107D03*
X004587Y006104D03*
X004584Y006102D03*
X004584Y006099D03*
X004582Y006097D03*
X004582Y006094D03*
X004579Y006092D03*
X004579Y006089D03*
X004577Y006087D03*
X004577Y006084D03*
X004574Y006079D03*
X004572Y006074D03*
X004569Y006069D03*
X004567Y006064D03*
X004564Y006059D03*
X004562Y006054D03*
X004559Y006049D03*
X004144Y005889D03*
X004142Y005887D03*
X004142Y005884D03*
X004139Y005879D03*
X009792Y007397D03*
X009794Y007402D03*
X009797Y007407D03*
D97*
X009785Y007384D03*
X009783Y007379D03*
X009783Y007377D03*
X009780Y007374D03*
X008970Y006914D03*
X008110Y007299D03*
X008108Y007294D03*
X008105Y007289D03*
X008103Y007284D03*
X008168Y007462D03*
X005885Y007579D03*
X005883Y007574D03*
X005883Y007572D03*
X005880Y007569D03*
X005880Y007567D03*
X005878Y007562D03*
X005293Y007434D03*
X005290Y007427D03*
X005288Y007419D03*
X005288Y007417D03*
X005285Y007412D03*
X005285Y007409D03*
X005283Y007407D03*
X005283Y007404D03*
X005283Y007402D03*
X005280Y007397D03*
X005280Y007394D03*
X005278Y007389D03*
X005275Y007382D03*
X005295Y006699D03*
X004515Y005964D03*
X004513Y005959D03*
X004510Y005954D03*
X004505Y005947D03*
X004503Y005942D03*
X004500Y005937D03*
X004498Y005932D03*
X004495Y005927D03*
X004493Y005924D03*
X004493Y005922D03*
X004490Y005919D03*
X004490Y005917D03*
X004488Y005914D03*
X004485Y005909D03*
X004483Y005907D03*
X004483Y005904D03*
X004480Y005902D03*
X004478Y005897D03*
X004475Y005892D03*
X004160Y005922D03*
X004158Y005917D03*
X004155Y005914D03*
X004155Y005912D03*
D98*
X004154Y005909D03*
X004152Y005907D03*
X004152Y005904D03*
X004149Y005902D03*
X004497Y005929D03*
X004499Y005934D03*
X004502Y005939D03*
X004504Y005944D03*
X004507Y005949D03*
X004509Y005952D03*
X004512Y005957D03*
X004514Y005962D03*
X004517Y005967D03*
X004519Y005969D03*
X004519Y005972D03*
X004522Y005974D03*
X004522Y005977D03*
X004524Y005979D03*
X004524Y005982D03*
X004527Y005984D03*
X004527Y005987D03*
X004529Y005989D03*
X004532Y005994D03*
X004534Y005999D03*
X004537Y006004D03*
X004539Y006009D03*
X004542Y006014D03*
X004544Y006019D03*
X004547Y006024D03*
X006684Y006937D03*
X007457Y006914D03*
X008107Y007292D03*
X008109Y007297D03*
X008112Y007302D03*
X008114Y007307D03*
X008169Y007464D03*
X007857Y007654D03*
X008927Y008042D03*
X010244Y007422D03*
X009789Y007392D03*
X009787Y007387D03*
X009784Y007382D03*
X009319Y006942D03*
X010279Y006902D03*
X005889Y007587D03*
X005889Y007589D03*
X005887Y007584D03*
X005887Y007582D03*
X005884Y007577D03*
X005299Y007454D03*
X005297Y007447D03*
X005297Y007444D03*
X005294Y007439D03*
X005294Y007437D03*
X005292Y007432D03*
X005292Y007429D03*
X005289Y007424D03*
X005289Y007422D03*
X005287Y007414D03*
D99*
X005833Y007657D03*
X004858Y007117D03*
X004858Y007114D03*
X004858Y007112D03*
X004858Y007109D03*
X005415Y005994D03*
X005415Y005992D03*
X005415Y005989D03*
X005415Y005987D03*
X008483Y007482D03*
X009078Y007694D03*
X009128Y007099D03*
X009553Y006957D03*
X011578Y007099D03*
X007115Y008354D03*
D100*
X009127Y007097D03*
X009257Y007032D03*
X010902Y007692D03*
X011577Y007097D03*
X005414Y005997D03*
X004857Y007102D03*
X004857Y007104D03*
X004857Y007107D03*
D101*
X004855Y007099D03*
X004855Y007097D03*
X004855Y007094D03*
X005253Y007602D03*
X008343Y007692D03*
X009030Y008082D03*
X009125Y007094D03*
X009258Y007029D03*
X011575Y007094D03*
X005415Y006004D03*
X005415Y006002D03*
X005415Y005999D03*
D102*
X005414Y006007D03*
X005414Y006009D03*
X005414Y006012D03*
X005414Y006014D03*
X004854Y007087D03*
X004854Y007089D03*
X004854Y007092D03*
X009124Y007092D03*
X009259Y007027D03*
X011069Y007437D03*
X011574Y007092D03*
D103*
X011573Y007089D03*
X010155Y007339D03*
X009548Y006954D03*
X009123Y007089D03*
X011468Y007692D03*
X005835Y007654D03*
X004853Y007084D03*
X004853Y007082D03*
X004853Y007079D03*
X005413Y006027D03*
X005413Y006024D03*
X005413Y006022D03*
X005413Y006019D03*
X005413Y006017D03*
D104*
X005412Y006029D03*
X005412Y006032D03*
X005412Y006034D03*
X004852Y007072D03*
X004852Y007074D03*
X004852Y007077D03*
X009122Y007087D03*
X009259Y007024D03*
X011572Y007087D03*
D105*
X011570Y007084D03*
X009120Y007084D03*
X007875Y007694D03*
X004850Y007069D03*
X004850Y007067D03*
X004850Y007064D03*
X005413Y006037D03*
D106*
X005412Y006039D03*
X005412Y006042D03*
X005412Y006044D03*
X005412Y006047D03*
X005412Y006049D03*
X004849Y007057D03*
X004849Y007059D03*
X004849Y007062D03*
X005259Y007599D03*
X005837Y007652D03*
X009024Y008079D03*
X010149Y007694D03*
X009119Y007082D03*
X009262Y007022D03*
X009542Y006952D03*
X011569Y007079D03*
X011569Y007082D03*
D107*
X011568Y007077D03*
X009263Y007019D03*
X009118Y007079D03*
X005410Y006062D03*
X005410Y006059D03*
X005410Y006057D03*
X005410Y006054D03*
X005410Y006052D03*
X004848Y007049D03*
X004848Y007052D03*
X004848Y007054D03*
D108*
X004845Y007039D03*
X004843Y007029D03*
X004843Y007027D03*
X004843Y007024D03*
X005410Y006074D03*
X005410Y006072D03*
X005410Y006069D03*
X005410Y006067D03*
X005410Y006064D03*
X009115Y007074D03*
X011565Y007072D03*
D109*
X011564Y007069D03*
X010909Y007689D03*
X009537Y006949D03*
X009264Y007014D03*
X009114Y007072D03*
X009017Y008077D03*
X004842Y007022D03*
X004842Y007019D03*
X004842Y007017D03*
X005409Y006087D03*
X005409Y006084D03*
X005409Y006082D03*
X005409Y006079D03*
X005409Y006077D03*
D110*
X005408Y006089D03*
X005408Y006092D03*
X004840Y007009D03*
X004840Y007012D03*
X004840Y007014D03*
X005265Y007597D03*
X009113Y007069D03*
X009265Y007012D03*
X011193Y006694D03*
X011563Y007067D03*
D111*
X011562Y007064D03*
X010162Y007344D03*
X009112Y007067D03*
X008027Y006694D03*
X005842Y007647D03*
X004839Y007007D03*
X004839Y007004D03*
X004839Y007002D03*
X005409Y006099D03*
X005409Y006097D03*
X005409Y006094D03*
D112*
X005408Y006102D03*
X005408Y006104D03*
X005408Y006107D03*
X005408Y006109D03*
X005408Y006112D03*
X004838Y006994D03*
X004838Y006997D03*
X004838Y006999D03*
X009110Y007064D03*
X009268Y007009D03*
X011560Y007062D03*
D113*
X011559Y007059D03*
X010164Y007347D03*
X009109Y007062D03*
X009109Y007059D03*
X005844Y007644D03*
X004837Y006992D03*
X004837Y006989D03*
X004837Y006987D03*
X004837Y006984D03*
X005409Y006114D03*
D114*
X005408Y006117D03*
X005408Y006119D03*
X005408Y006122D03*
X005408Y006124D03*
X005408Y006127D03*
X005408Y006129D03*
X005408Y006132D03*
X004835Y006977D03*
X004835Y006979D03*
X004835Y006982D03*
X009010Y008074D03*
X009108Y007057D03*
X009268Y007007D03*
X011558Y007057D03*
X011460Y007689D03*
D115*
X011557Y007054D03*
X009529Y006947D03*
X009269Y007004D03*
X009107Y007054D03*
X009054Y007692D03*
X005407Y006134D03*
X004834Y006969D03*
X004834Y006972D03*
X004834Y006974D03*
D116*
X005157Y007104D03*
X005157Y007107D03*
X005159Y007109D03*
X005159Y007112D03*
X005714Y007202D03*
X005717Y007204D03*
X005717Y007207D03*
X005719Y007209D03*
X005719Y007212D03*
X005722Y007214D03*
X005722Y007217D03*
X005724Y007222D03*
X004832Y006657D03*
X004829Y006652D03*
X004827Y006647D03*
X004697Y006487D03*
X004694Y006484D03*
X004692Y006482D03*
X004689Y006479D03*
X004687Y006477D03*
X004349Y006157D03*
X004347Y006154D03*
X004344Y006152D03*
X004342Y006149D03*
X004339Y006147D03*
X004337Y006144D03*
X004334Y006142D03*
X004332Y006139D03*
X004329Y006137D03*
X007844Y007617D03*
X008027Y007099D03*
X008027Y007097D03*
X008024Y007092D03*
X008024Y007089D03*
X008022Y007082D03*
X008044Y006734D03*
X009327Y006727D03*
X009734Y007222D03*
X009734Y007224D03*
X009734Y007227D03*
X010247Y007569D03*
X010247Y007572D03*
X010244Y007574D03*
X011074Y007447D03*
X010937Y006967D03*
D117*
X010998Y006972D03*
X011555Y007052D03*
X010165Y007349D03*
X009270Y007002D03*
X009105Y007052D03*
X009338Y006697D03*
X008680Y006697D03*
X005845Y007642D03*
X005273Y007594D03*
X004833Y006967D03*
X004833Y006964D03*
X004833Y006962D03*
X005408Y006149D03*
X005408Y006147D03*
X005408Y006144D03*
X005408Y006142D03*
X005408Y006139D03*
X005408Y006137D03*
D118*
X005407Y006152D03*
X005407Y006154D03*
X006382Y006694D03*
X007129Y006694D03*
X008507Y007484D03*
X009104Y007049D03*
X010917Y007687D03*
X011554Y007049D03*
X004832Y006959D03*
X004832Y006957D03*
X004832Y006954D03*
X004832Y006952D03*
D119*
X004830Y006949D03*
X004830Y006947D03*
X004830Y006944D03*
X004828Y006942D03*
X004828Y006939D03*
X004828Y006937D03*
X005408Y006167D03*
X005408Y006164D03*
X005408Y006162D03*
X005408Y006159D03*
X005408Y006157D03*
X009103Y007047D03*
X010168Y007352D03*
X011553Y007047D03*
D120*
X011182Y006722D03*
X010239Y006889D03*
X009937Y006712D03*
X009729Y007194D03*
X009729Y007197D03*
X009729Y007199D03*
X009729Y007202D03*
X009732Y007212D03*
X008019Y007072D03*
X008019Y007069D03*
X008017Y007064D03*
X008017Y007062D03*
X007137Y006717D03*
X005699Y007169D03*
X005699Y007172D03*
X005697Y007167D03*
X005697Y007164D03*
X005694Y007162D03*
X005694Y007159D03*
X005692Y007157D03*
X005689Y007152D03*
X005687Y007147D03*
X005684Y007142D03*
X005152Y007094D03*
X005152Y007092D03*
X005149Y007089D03*
X004837Y006667D03*
X004837Y006664D03*
X004834Y006662D03*
X004684Y006472D03*
X004682Y006469D03*
X004389Y006197D03*
X004387Y006194D03*
X004384Y006192D03*
X004382Y006189D03*
X004379Y006187D03*
X004377Y006184D03*
X004374Y006182D03*
X004372Y006179D03*
X004369Y006177D03*
X004367Y006174D03*
X007842Y007609D03*
X007842Y007612D03*
D121*
X007873Y007692D03*
X009100Y007042D03*
X009273Y006997D03*
X010170Y007354D03*
X011550Y007042D03*
X010675Y006694D03*
X005408Y006187D03*
X005408Y006184D03*
X005408Y006182D03*
X005408Y006179D03*
X005408Y006177D03*
X005408Y006174D03*
X004825Y006922D03*
X004825Y006924D03*
X004825Y006927D03*
D122*
X004824Y006919D03*
X004824Y006917D03*
X004824Y006914D03*
X004824Y006912D03*
X005409Y006189D03*
X009099Y007039D03*
X009274Y006994D03*
X011549Y007039D03*
X011454Y007687D03*
D123*
X010173Y007357D03*
X011548Y007037D03*
X005850Y007637D03*
X005278Y007592D03*
X004823Y006909D03*
X004823Y006907D03*
X004823Y006904D03*
X005408Y006204D03*
X005408Y006202D03*
X005408Y006199D03*
X005408Y006197D03*
X005408Y006194D03*
X005408Y006192D03*
D124*
X004840Y006672D03*
X004840Y006674D03*
X004838Y006669D03*
X005148Y007084D03*
X005148Y007087D03*
X005675Y007124D03*
X005678Y007129D03*
X005680Y007134D03*
X005683Y007139D03*
X005685Y007144D03*
X005688Y007149D03*
X005690Y007154D03*
X006385Y006717D03*
X007833Y007299D03*
X008018Y007067D03*
X008015Y007059D03*
X008015Y007057D03*
X008015Y007054D03*
X008045Y006737D03*
X009325Y006729D03*
X009728Y007184D03*
X009728Y007187D03*
X009728Y007189D03*
X009728Y007192D03*
X010235Y007584D03*
X010238Y007582D03*
X007840Y007607D03*
X004398Y006207D03*
X004395Y006204D03*
X004393Y006202D03*
X004390Y006199D03*
D125*
X005409Y006207D03*
X005409Y006209D03*
X005409Y006212D03*
X005409Y006214D03*
X005409Y006217D03*
X004822Y006897D03*
X004822Y006899D03*
X004822Y006902D03*
X008027Y006697D03*
X009097Y007037D03*
X009932Y006697D03*
X011547Y007034D03*
X008997Y008069D03*
X008314Y007689D03*
D126*
X009095Y007034D03*
X009275Y006992D03*
X010923Y007684D03*
X011545Y007032D03*
X005853Y007634D03*
X004820Y006894D03*
X004820Y006892D03*
X004820Y006889D03*
X005408Y006219D03*
D127*
X005409Y006222D03*
X005409Y006224D03*
X005409Y006227D03*
X005409Y006229D03*
X005409Y006232D03*
X005409Y006234D03*
X004817Y006872D03*
X004817Y006874D03*
X004819Y006879D03*
X004819Y006882D03*
X004819Y006884D03*
X004819Y006887D03*
X009094Y007032D03*
X009277Y006989D03*
X010177Y007359D03*
X011544Y007029D03*
X011194Y006697D03*
D128*
X011008Y006934D03*
X009948Y006752D03*
X008720Y006802D03*
X008085Y006824D03*
X007158Y006772D03*
X007088Y006912D03*
X006973Y007049D03*
X006288Y006942D03*
X004518Y006234D03*
X007370Y008257D03*
X010123Y007617D03*
D129*
X008544Y006974D03*
X006974Y007052D03*
X004522Y006239D03*
X004519Y006237D03*
X007132Y008339D03*
D130*
X009093Y007029D03*
X009278Y006987D03*
X011543Y007027D03*
X005410Y006247D03*
X005410Y006244D03*
X005410Y006242D03*
X005410Y006239D03*
X005410Y006237D03*
X004815Y006864D03*
X004815Y006867D03*
X004815Y006869D03*
X004818Y006877D03*
D131*
X004523Y006242D03*
X006285Y006944D03*
X006393Y006772D03*
X008083Y006822D03*
X008545Y006977D03*
X008718Y006799D03*
X010123Y007619D03*
X011120Y007457D03*
D132*
X009947Y006749D03*
X008547Y006979D03*
X007157Y006769D03*
X006974Y007054D03*
X004527Y006247D03*
X004524Y006244D03*
D133*
X004528Y006249D03*
X006283Y006947D03*
X006393Y006769D03*
X006975Y007057D03*
X008083Y006819D03*
X008718Y006797D03*
X009825Y006894D03*
D134*
X009512Y006942D03*
X009092Y007027D03*
X010179Y007362D03*
X011542Y007024D03*
X005412Y006252D03*
X005412Y006249D03*
X004814Y006857D03*
X004814Y006859D03*
X004814Y006862D03*
D135*
X004533Y006257D03*
X006978Y007064D03*
X008548Y006984D03*
X008718Y006794D03*
X008693Y007509D03*
D136*
X007872Y007689D03*
X009089Y007022D03*
X008682Y006699D03*
X010182Y007364D03*
X011539Y007019D03*
X005412Y006272D03*
X005412Y006269D03*
X005412Y006267D03*
X005412Y006264D03*
X005412Y006262D03*
X004812Y006839D03*
X004812Y006842D03*
X004812Y006844D03*
D137*
X004542Y006269D03*
X006272Y006957D03*
X006392Y006764D03*
X007077Y006917D03*
X006982Y007072D03*
X008079Y006812D03*
X007382Y008252D03*
D138*
X005858Y007629D03*
X004810Y006837D03*
X004810Y006834D03*
X004810Y006832D03*
X004808Y006824D03*
X005413Y006284D03*
X005413Y006282D03*
X005413Y006279D03*
X005413Y006277D03*
X005413Y006274D03*
X009088Y007019D03*
X009280Y006982D03*
X009338Y006699D03*
X010668Y006697D03*
X011538Y007017D03*
D139*
X010125Y007629D03*
X009810Y006902D03*
X008553Y006994D03*
X008075Y006807D03*
X006268Y006962D03*
X006265Y006964D03*
X004548Y006277D03*
X007385Y008249D03*
D140*
X010184Y007367D03*
X010932Y007682D03*
X011537Y007014D03*
X009282Y006979D03*
X009087Y007017D03*
X005414Y006297D03*
X005414Y006294D03*
X005414Y006292D03*
X005414Y006289D03*
X005414Y006287D03*
X004807Y006817D03*
X004807Y006819D03*
X004807Y006822D03*
X004809Y006827D03*
X004809Y006829D03*
D141*
X005285Y006679D03*
X005415Y006307D03*
X005415Y006304D03*
X005415Y006302D03*
X005415Y006299D03*
X008028Y006699D03*
X009085Y007014D03*
X010668Y006699D03*
X011535Y007012D03*
X010148Y007692D03*
X009033Y007689D03*
D142*
X008677Y007507D03*
X008559Y007009D03*
X008712Y006779D03*
X008072Y006797D03*
X007152Y006754D03*
X007059Y006932D03*
X006992Y007097D03*
X006252Y006987D03*
X006249Y006992D03*
X005084Y006877D03*
X004567Y006304D03*
X004564Y006302D03*
X007394Y008244D03*
X009944Y006739D03*
D143*
X010669Y006702D03*
X011534Y007009D03*
X010187Y007369D03*
X009084Y007012D03*
X008984Y008064D03*
X005859Y007627D03*
X005292Y007587D03*
X005417Y006317D03*
X005417Y006314D03*
X005417Y006312D03*
X005417Y006309D03*
D144*
X005418Y006319D03*
X005418Y006322D03*
X005418Y006324D03*
X005418Y006327D03*
X005418Y006329D03*
X009083Y007009D03*
X009283Y006977D03*
X010670Y006704D03*
X011533Y007007D03*
X011440Y007682D03*
D145*
X009789Y006919D03*
X008709Y006772D03*
X008564Y007019D03*
X008069Y006789D03*
X007149Y006749D03*
X007049Y006947D03*
X006999Y007114D03*
X006999Y007117D03*
X006389Y006749D03*
X006237Y007019D03*
X005087Y006892D03*
X004579Y006322D03*
D146*
X004585Y006332D03*
X004588Y006334D03*
X005088Y006899D03*
X006228Y007042D03*
X006228Y007044D03*
X006230Y007037D03*
X006388Y006747D03*
X007045Y006954D03*
X007045Y006957D03*
X007003Y007124D03*
X007148Y006747D03*
X008568Y007027D03*
X008645Y006914D03*
X008708Y006769D03*
X009783Y006927D03*
D147*
X009778Y006932D03*
X008708Y006767D03*
X008570Y007032D03*
X008065Y006782D03*
X007040Y006964D03*
X007040Y006967D03*
X007005Y007132D03*
X006225Y007052D03*
X006223Y007059D03*
X006223Y007062D03*
X005088Y006904D03*
X004590Y006339D03*
X007853Y007332D03*
X010130Y007644D03*
X011163Y006744D03*
D148*
X010675Y006709D03*
X010673Y006707D03*
X011530Y007002D03*
X010193Y007374D03*
X009080Y007004D03*
X007793Y007267D03*
X007788Y007259D03*
X007870Y007687D03*
X008293Y007679D03*
X008295Y007684D03*
X008295Y007687D03*
X005863Y007624D03*
X005420Y006349D03*
X005420Y006347D03*
X005420Y006344D03*
X005420Y006342D03*
D149*
X005422Y006352D03*
X005422Y006354D03*
X005422Y006357D03*
X005422Y006359D03*
X007777Y007242D03*
X007782Y007249D03*
X007784Y007252D03*
X007784Y007254D03*
X007787Y007257D03*
X007789Y007262D03*
X007792Y007264D03*
X007794Y007269D03*
X007797Y007272D03*
X008289Y007672D03*
X008292Y007674D03*
X008292Y007677D03*
X008294Y007682D03*
X008979Y008062D03*
X010722Y007357D03*
X010729Y007367D03*
X010734Y007374D03*
X010737Y007377D03*
X010742Y007384D03*
X010744Y007387D03*
X010749Y007394D03*
X010757Y007404D03*
X010762Y007412D03*
X010764Y007414D03*
X010767Y007419D03*
X010769Y007422D03*
X010772Y007424D03*
X010774Y007429D03*
X010777Y007432D03*
X010779Y007437D03*
X010782Y007439D03*
X010784Y007442D03*
X010787Y007447D03*
X010789Y007449D03*
X010792Y007454D03*
X010794Y007457D03*
X010797Y007459D03*
X010799Y007464D03*
X010802Y007467D03*
X011529Y006999D03*
X010679Y006714D03*
X010677Y006712D03*
X009287Y006972D03*
X009079Y007002D03*
D150*
X009313Y006772D03*
X009768Y006947D03*
X009940Y006729D03*
X011165Y006742D03*
X010133Y007649D03*
X008635Y006922D03*
X008578Y007047D03*
X007030Y007002D03*
X007030Y006999D03*
X007030Y006997D03*
X007028Y007007D03*
X007015Y007154D03*
X006208Y007154D03*
X006208Y007152D03*
X006208Y007149D03*
X006208Y007147D03*
X006208Y007144D03*
X006208Y007157D03*
X006208Y007159D03*
X005090Y006919D03*
X004605Y006359D03*
X004603Y006357D03*
D151*
X005423Y006362D03*
X005423Y006364D03*
X005423Y006367D03*
X007758Y007214D03*
X007763Y007222D03*
X007765Y007224D03*
X007768Y007229D03*
X007770Y007232D03*
X007773Y007237D03*
X007775Y007239D03*
X007778Y007244D03*
X007780Y007247D03*
X008280Y007652D03*
X008283Y007657D03*
X008283Y007659D03*
X008285Y007662D03*
X008285Y007664D03*
X008288Y007667D03*
X008288Y007669D03*
X009078Y006999D03*
X010195Y007377D03*
X010658Y007274D03*
X010668Y007287D03*
X010675Y007297D03*
X010678Y007299D03*
X010683Y007307D03*
X010685Y007309D03*
X010688Y007312D03*
X010690Y007317D03*
X010693Y007319D03*
X010695Y007322D03*
X010698Y007324D03*
X010698Y007327D03*
X010700Y007329D03*
X010703Y007332D03*
X010705Y007334D03*
X010705Y007337D03*
X010708Y007339D03*
X010710Y007342D03*
X010713Y007344D03*
X010713Y007347D03*
X010715Y007349D03*
X010718Y007352D03*
X010720Y007354D03*
X010723Y007359D03*
X010725Y007362D03*
X010728Y007364D03*
X010730Y007369D03*
X010733Y007372D03*
X010738Y007379D03*
X010740Y007382D03*
X010745Y007389D03*
X010748Y007392D03*
X010750Y007397D03*
X010753Y007399D03*
X010755Y007402D03*
X010758Y007407D03*
X010760Y007409D03*
X010765Y007417D03*
X010773Y007427D03*
X010778Y007434D03*
X010785Y007444D03*
X010790Y007452D03*
X010798Y007462D03*
X010803Y007469D03*
X010938Y007679D03*
X011528Y006997D03*
X010685Y006724D03*
X010683Y006722D03*
X010683Y006719D03*
X010680Y006717D03*
D152*
X010687Y006727D03*
X010689Y006729D03*
X010692Y006732D03*
X011527Y006994D03*
X010689Y007314D03*
X010682Y007304D03*
X010679Y007302D03*
X010674Y007294D03*
X010672Y007292D03*
X010669Y007289D03*
X010667Y007284D03*
X010664Y007282D03*
X010662Y007279D03*
X010659Y007277D03*
X010657Y007272D03*
X010654Y007269D03*
X010652Y007267D03*
X010649Y007264D03*
X010649Y007262D03*
X010647Y007259D03*
X010644Y007257D03*
X010642Y007254D03*
X010639Y007252D03*
X010637Y007247D03*
X010634Y007244D03*
X010632Y007242D03*
X010629Y007239D03*
X010624Y007232D03*
X010622Y007229D03*
X009287Y006969D03*
X008029Y006702D03*
X007749Y007202D03*
X007754Y007209D03*
X007757Y007212D03*
X007759Y007217D03*
X007762Y007219D03*
X007767Y007227D03*
X007772Y007234D03*
X008277Y007644D03*
X008279Y007649D03*
X008282Y007654D03*
X005864Y007622D03*
X005427Y006387D03*
X005427Y006384D03*
X005424Y006377D03*
X005424Y006374D03*
X005424Y006372D03*
X005424Y006369D03*
D153*
X004614Y006374D03*
X005094Y006934D03*
X005094Y006937D03*
X005512Y006869D03*
X005514Y006872D03*
X006387Y006737D03*
X007144Y006737D03*
X008027Y006927D03*
X008059Y006769D03*
X008627Y006932D03*
X008584Y007057D03*
X007847Y007322D03*
X007067Y007417D03*
X007064Y007407D03*
X007064Y007404D03*
X007062Y007397D03*
X007062Y007394D03*
X007062Y007392D03*
X007059Y007387D03*
X007059Y007384D03*
X007059Y007382D03*
X007059Y007379D03*
X007057Y007377D03*
X007057Y007374D03*
X007057Y007372D03*
X007057Y007369D03*
X007057Y007367D03*
X007054Y007362D03*
X007054Y007359D03*
X007054Y007357D03*
X007052Y007349D03*
X007052Y007347D03*
X007052Y007344D03*
X007049Y007337D03*
X007049Y007334D03*
X007024Y007177D03*
X007024Y007174D03*
X007022Y007172D03*
X006257Y007549D03*
X006262Y007567D03*
X006264Y007574D03*
X006267Y007584D03*
X006269Y007592D03*
X006272Y007599D03*
X006272Y007602D03*
X006274Y007607D03*
X006274Y007609D03*
X006277Y007614D03*
X006277Y007617D03*
X006277Y007619D03*
X006279Y007622D03*
X006279Y007624D03*
X006282Y007629D03*
X006282Y007632D03*
X006284Y007637D03*
X006284Y007639D03*
X006287Y007644D03*
X006287Y007647D03*
X006289Y007652D03*
X006292Y007659D03*
X006294Y007667D03*
X007202Y007837D03*
X007204Y007842D03*
X007207Y007847D03*
X007207Y007849D03*
X007209Y007854D03*
X007212Y007859D03*
X007214Y007864D03*
X007214Y007867D03*
X007217Y007869D03*
X007217Y007872D03*
X007219Y007874D03*
X007219Y007877D03*
X007222Y007879D03*
X007222Y007882D03*
X007224Y007884D03*
X007224Y007887D03*
X007227Y007892D03*
X007229Y007897D03*
X007232Y007902D03*
X007234Y007907D03*
X007237Y007912D03*
X007422Y008222D03*
X009757Y006967D03*
X009759Y006962D03*
X009387Y006939D03*
X009384Y006934D03*
X009384Y006932D03*
X009382Y006929D03*
X009382Y006927D03*
X009382Y006924D03*
X009379Y006922D03*
X009379Y006919D03*
X009379Y006917D03*
X009377Y006914D03*
X009377Y006912D03*
X009374Y006907D03*
X009374Y006904D03*
X009372Y006899D03*
D154*
X009075Y006997D03*
X008683Y006702D03*
X007753Y007207D03*
X007750Y007204D03*
X007748Y007199D03*
X007745Y007197D03*
X007743Y007194D03*
X007743Y007192D03*
X007740Y007189D03*
X007738Y007187D03*
X007735Y007184D03*
X007733Y007179D03*
X007730Y007177D03*
X008270Y007632D03*
X008273Y007637D03*
X008275Y007639D03*
X008275Y007642D03*
X008278Y007647D03*
X010198Y007379D03*
X010578Y007177D03*
X010588Y007189D03*
X010590Y007192D03*
X010593Y007194D03*
X010595Y007197D03*
X010598Y007199D03*
X010600Y007204D03*
X010603Y007207D03*
X010605Y007209D03*
X010608Y007212D03*
X010610Y007214D03*
X010610Y007217D03*
X010613Y007219D03*
X010615Y007222D03*
X010618Y007224D03*
X010620Y007227D03*
X010625Y007234D03*
X010628Y007237D03*
X010638Y007249D03*
X010930Y007037D03*
X010933Y007039D03*
X010935Y007042D03*
X010938Y007044D03*
X010943Y007052D03*
X010945Y007054D03*
X010948Y007057D03*
X010950Y007059D03*
X010955Y007067D03*
X010958Y007069D03*
X010960Y007072D03*
X010965Y007079D03*
X010968Y007082D03*
X010970Y007084D03*
X010973Y007087D03*
X010978Y007094D03*
X010980Y007097D03*
X010983Y007099D03*
X010985Y007102D03*
X010990Y007109D03*
X010993Y007112D03*
X010995Y007114D03*
X011003Y007124D03*
X011005Y007127D03*
X011008Y007129D03*
X011013Y007137D03*
X011015Y007139D03*
X011018Y007142D03*
X011025Y007152D03*
X011028Y007154D03*
X011030Y007157D03*
X011038Y007167D03*
X011040Y007169D03*
X011043Y007172D03*
X011048Y007179D03*
X011050Y007182D03*
X011053Y007184D03*
X011060Y007194D03*
X011063Y007197D03*
X011065Y007199D03*
X011073Y007209D03*
X011075Y007212D03*
X011085Y007224D03*
X011088Y007227D03*
X011095Y007237D03*
X011098Y007239D03*
X011100Y007242D03*
X011108Y007252D03*
X011110Y007254D03*
X011120Y007267D03*
X011123Y007269D03*
X011130Y007279D03*
X011133Y007282D03*
X011143Y007294D03*
X011145Y007297D03*
X011155Y007309D03*
X011158Y007312D03*
X011168Y007324D03*
X011178Y007337D03*
X011180Y007339D03*
X011190Y007352D03*
X011203Y007367D03*
X011213Y007379D03*
X011215Y007382D03*
X011225Y007394D03*
X011238Y007409D03*
X011260Y007437D03*
X011525Y006992D03*
X010928Y007032D03*
X010925Y007029D03*
X010923Y007027D03*
X010920Y007024D03*
X010915Y007017D03*
X010913Y007014D03*
X010910Y007012D03*
X010908Y007009D03*
X010903Y007002D03*
X010900Y006999D03*
X010898Y006997D03*
X010895Y006994D03*
X010893Y006989D03*
X010890Y006987D03*
X010888Y006984D03*
X010885Y006982D03*
X010883Y006979D03*
X010880Y006974D03*
X010878Y006972D03*
X010698Y006739D03*
X010695Y006737D03*
X010693Y006734D03*
X005428Y006397D03*
X005428Y006394D03*
X005428Y006392D03*
X005428Y006389D03*
X005425Y006382D03*
X005425Y006379D03*
X005298Y007584D03*
D155*
X006315Y007724D03*
X006320Y007737D03*
X006323Y007742D03*
X006323Y007744D03*
X006325Y007747D03*
X006325Y007749D03*
X006328Y007754D03*
X006328Y007757D03*
X006330Y007759D03*
X006330Y007762D03*
X006333Y007764D03*
X006333Y007767D03*
X006335Y007772D03*
X006338Y007777D03*
X006338Y007779D03*
X006340Y007784D03*
X006343Y007789D03*
X006345Y007794D03*
X007265Y007967D03*
X007268Y007972D03*
X007270Y007977D03*
X007273Y007982D03*
X007275Y007984D03*
X007275Y007987D03*
X007278Y007989D03*
X007278Y007992D03*
X007280Y007994D03*
X007283Y007997D03*
X007283Y007999D03*
X007285Y008002D03*
X007285Y008004D03*
X007288Y008007D03*
X007290Y008012D03*
X006815Y008262D03*
X007845Y007319D03*
X008588Y007064D03*
X008590Y007067D03*
X008623Y006939D03*
X008058Y006767D03*
X009313Y006759D03*
X009750Y006979D03*
X009753Y006977D03*
X009753Y006974D03*
X005520Y006879D03*
X005095Y006942D03*
X005095Y006944D03*
X004623Y006384D03*
X004620Y006382D03*
D156*
X004627Y006392D03*
X004629Y006394D03*
X005529Y006889D03*
X005532Y006892D03*
X005099Y006954D03*
X005099Y006957D03*
X006374Y007852D03*
X006377Y007857D03*
X006379Y007862D03*
X006382Y007864D03*
X006382Y007867D03*
X006384Y007869D03*
X006384Y007872D03*
X006387Y007874D03*
X006387Y007877D03*
X006389Y007879D03*
X006392Y007884D03*
X006807Y008259D03*
X007329Y008074D03*
X007332Y008077D03*
X007334Y008082D03*
X007337Y008084D03*
X007339Y008089D03*
X007342Y008092D03*
X007344Y008097D03*
X007347Y008099D03*
X007349Y008104D03*
X007352Y008107D03*
X007357Y008114D03*
X007429Y008214D03*
X007844Y007317D03*
X008594Y007074D03*
X008619Y006947D03*
X009747Y006989D03*
D157*
X009744Y006997D03*
X009742Y007002D03*
X008614Y006957D03*
X008597Y007079D03*
X008017Y006939D03*
X006387Y006732D03*
X005537Y006897D03*
X005534Y006894D03*
X005102Y006962D03*
X004632Y006399D03*
X006402Y007902D03*
X006404Y007907D03*
X006407Y007909D03*
X006409Y007914D03*
X006412Y007917D03*
X006412Y007919D03*
X006414Y007922D03*
X006417Y007927D03*
X006419Y007929D03*
X006422Y007934D03*
X007372Y008134D03*
X007377Y008142D03*
X007379Y008144D03*
X007382Y008147D03*
X007384Y008152D03*
X007387Y008154D03*
X007389Y008157D03*
X007392Y008159D03*
X007392Y008162D03*
X007394Y008164D03*
X007397Y008167D03*
X007399Y008169D03*
X007404Y008177D03*
X007407Y008179D03*
X007409Y008182D03*
X007419Y008194D03*
X007432Y008209D03*
X007432Y008212D03*
D158*
X006790Y008254D03*
X006465Y007997D03*
X006460Y007989D03*
X006458Y007987D03*
X006455Y007984D03*
X006455Y007982D03*
X006453Y007979D03*
X006450Y007977D03*
X006445Y007969D03*
X008600Y007087D03*
X008603Y007089D03*
X009318Y006749D03*
X009738Y007014D03*
X009738Y007017D03*
X010960Y006957D03*
X006385Y006729D03*
X005545Y006909D03*
X005103Y006972D03*
X004638Y006407D03*
D159*
X005430Y006407D03*
X005430Y006409D03*
X005430Y006412D03*
X005433Y006419D03*
X007678Y007112D03*
X007680Y007114D03*
X007690Y007127D03*
X007693Y007129D03*
X007695Y007132D03*
X007698Y007134D03*
X007698Y007137D03*
X007700Y007139D03*
X007703Y007142D03*
X007705Y007144D03*
X007713Y007154D03*
X007715Y007157D03*
X007805Y007274D03*
X008263Y007617D03*
X008265Y007619D03*
X008265Y007622D03*
X009073Y006992D03*
X009290Y006964D03*
X010200Y007382D03*
X010535Y007129D03*
X010538Y007132D03*
X010540Y007134D03*
X010543Y007137D03*
X010545Y007139D03*
X010548Y007142D03*
X010550Y007144D03*
X010560Y007157D03*
X010563Y007159D03*
X010533Y007124D03*
X010530Y007122D03*
X010528Y007119D03*
X010525Y007117D03*
X010523Y007114D03*
X010520Y007112D03*
X010705Y006747D03*
X010703Y006744D03*
X010700Y006742D03*
X011270Y007449D03*
D160*
X010534Y007127D03*
X010519Y007109D03*
X010517Y007107D03*
X010514Y007104D03*
X009932Y006699D03*
X009072Y006989D03*
X008257Y007604D03*
X008259Y007609D03*
X008262Y007612D03*
X008262Y007614D03*
X007689Y007124D03*
X007687Y007122D03*
X007684Y007119D03*
X007682Y007117D03*
X007677Y007109D03*
X007674Y007107D03*
X007672Y007104D03*
X007669Y007102D03*
X007667Y007099D03*
X007642Y007069D03*
X007639Y007067D03*
X007637Y007064D03*
X007634Y007062D03*
X005434Y006429D03*
X005434Y006427D03*
X005434Y006424D03*
X005434Y006422D03*
X005432Y006417D03*
X005432Y006414D03*
X011192Y006702D03*
X011522Y006987D03*
D161*
X011174Y006732D03*
X009734Y007029D03*
X009734Y007032D03*
X009319Y006747D03*
X008607Y007097D03*
X008012Y006954D03*
X008012Y006952D03*
X008052Y006754D03*
X008707Y007464D03*
X008709Y007474D03*
X008712Y007482D03*
X010137Y007662D03*
X006777Y008249D03*
X006507Y008047D03*
X006504Y008044D03*
X006502Y008042D03*
X006499Y008039D03*
X006497Y008037D03*
X006492Y008029D03*
X006489Y008027D03*
X005107Y006984D03*
X005107Y006982D03*
X004909Y006814D03*
X004907Y006812D03*
X005554Y006922D03*
X005557Y006924D03*
X005557Y006927D03*
X005559Y006929D03*
X004644Y006417D03*
D162*
X004649Y006424D03*
X004899Y006794D03*
X004899Y006797D03*
X004902Y006799D03*
X005109Y006992D03*
X005112Y006994D03*
X005112Y006997D03*
X005564Y006937D03*
X005567Y006939D03*
X007839Y007309D03*
X008099Y007404D03*
X008647Y007262D03*
X008647Y007259D03*
X008647Y007257D03*
X008647Y007254D03*
X008644Y007252D03*
X008644Y007249D03*
X008644Y007247D03*
X008642Y007242D03*
X008642Y007239D03*
X008642Y007237D03*
X008639Y007232D03*
X008639Y007229D03*
X008637Y007222D03*
X008637Y007219D03*
X008634Y007212D03*
X008632Y007202D03*
X008629Y007192D03*
X008627Y007182D03*
X008609Y007102D03*
X008649Y007264D03*
X008649Y007267D03*
X008649Y007269D03*
X008652Y007272D03*
X008652Y007274D03*
X008652Y007277D03*
X008654Y007279D03*
X008654Y007282D03*
X008654Y007284D03*
X008654Y007287D03*
X008657Y007289D03*
X008657Y007292D03*
X008657Y007294D03*
X008659Y007297D03*
X008659Y007299D03*
X008659Y007302D03*
X008662Y007307D03*
X008662Y007309D03*
X008662Y007312D03*
X008664Y007314D03*
X008664Y007317D03*
X008664Y007319D03*
X008667Y007324D03*
X008667Y007327D03*
X008667Y007329D03*
X008669Y007332D03*
X008669Y007334D03*
X008669Y007337D03*
X008672Y007342D03*
X008672Y007344D03*
X008674Y007352D03*
X008674Y007354D03*
X008677Y007359D03*
X008677Y007362D03*
X008679Y007369D03*
X008682Y007377D03*
X008682Y007379D03*
X008684Y007387D03*
X008687Y007394D03*
X008689Y007404D03*
X008694Y007422D03*
X008774Y007687D03*
X008777Y007692D03*
X008777Y007694D03*
X008779Y007702D03*
X008782Y007709D03*
X008782Y007712D03*
X008784Y007717D03*
X008784Y007719D03*
X008787Y007727D03*
X008789Y007734D03*
X008789Y007737D03*
X008792Y007742D03*
X008792Y007744D03*
X008794Y007752D03*
X008797Y007759D03*
X008797Y007762D03*
X008799Y007767D03*
X008799Y007769D03*
X008802Y007777D03*
X008804Y007784D03*
X008804Y007787D03*
X008807Y007794D03*
X008809Y007802D03*
X008812Y007809D03*
X008812Y007812D03*
X008814Y007819D03*
X008817Y007827D03*
X008819Y007834D03*
X008819Y007837D03*
X008822Y007844D03*
X008824Y007852D03*
X008827Y007859D03*
X008827Y007862D03*
X008829Y007869D03*
X008832Y007877D03*
X008834Y007887D03*
X008837Y007894D03*
X008839Y007902D03*
X008842Y007912D03*
X008844Y007919D03*
X008847Y007927D03*
X008852Y007944D03*
X008859Y007969D03*
X008867Y007994D03*
X008874Y008019D03*
X009732Y007044D03*
X009732Y007042D03*
X009939Y006719D03*
X009319Y006744D03*
X008052Y006752D03*
X008009Y006959D03*
X008009Y006962D03*
X006534Y008077D03*
X006532Y008074D03*
X006529Y008072D03*
X006527Y008069D03*
X006524Y008067D03*
X006522Y008064D03*
X006519Y008062D03*
X006759Y008242D03*
X006764Y008244D03*
D163*
X006738Y008232D03*
X006593Y008134D03*
X006590Y008132D03*
X006588Y008129D03*
X006578Y008122D03*
X006575Y008119D03*
X006573Y008117D03*
X006570Y008114D03*
X006568Y008112D03*
X006565Y008109D03*
X007813Y007522D03*
X007810Y007514D03*
X007810Y007512D03*
X007808Y007507D03*
X007808Y007504D03*
X007805Y007499D03*
X007805Y007497D03*
X007805Y007494D03*
X007803Y007492D03*
X007803Y007489D03*
X007803Y007487D03*
X007800Y007482D03*
X007800Y007479D03*
X007800Y007477D03*
X007798Y007474D03*
X007798Y007472D03*
X007798Y007469D03*
X007795Y007462D03*
X008105Y007407D03*
X008008Y006972D03*
X008008Y006969D03*
X008050Y006749D03*
X009320Y006742D03*
X009728Y007062D03*
X009728Y007064D03*
X009728Y007067D03*
X011175Y006729D03*
X006385Y006724D03*
X005583Y006964D03*
X005580Y006959D03*
X005578Y006957D03*
X005115Y007007D03*
X005115Y007009D03*
X004893Y006782D03*
X004890Y006777D03*
X004890Y006774D03*
X004888Y006772D03*
X004655Y006432D03*
X004653Y006429D03*
D164*
X005435Y006432D03*
X005435Y006434D03*
X005435Y006437D03*
X007605Y007032D03*
X007608Y007034D03*
X007610Y007037D03*
X007613Y007039D03*
X007615Y007042D03*
X007618Y007044D03*
X007620Y007047D03*
X007623Y007049D03*
X007625Y007052D03*
X007628Y007054D03*
X007630Y007057D03*
X007633Y007059D03*
X007643Y007072D03*
X007645Y007074D03*
X007648Y007077D03*
X007650Y007079D03*
X007650Y007082D03*
X007653Y007084D03*
X007655Y007087D03*
X007658Y007089D03*
X007660Y007092D03*
X007663Y007094D03*
X007665Y007097D03*
X008253Y007597D03*
X008255Y007599D03*
X008255Y007602D03*
X008258Y007607D03*
X009070Y006987D03*
X010503Y007094D03*
X010505Y007097D03*
X010508Y007099D03*
X010510Y007102D03*
X010708Y006749D03*
X011520Y006984D03*
X011073Y007439D03*
D165*
X011013Y007662D03*
X009725Y007082D03*
X009725Y007079D03*
X008008Y006977D03*
X007838Y007307D03*
X007790Y007439D03*
X007790Y007442D03*
X007790Y007444D03*
X007793Y007452D03*
X007815Y007529D03*
X007815Y007532D03*
X007818Y007534D03*
X007818Y007537D03*
X007818Y007539D03*
X007820Y007544D03*
X006695Y008209D03*
X006700Y008212D03*
X006703Y008214D03*
X006708Y008217D03*
X006713Y008219D03*
X006718Y008222D03*
X006683Y008202D03*
X006675Y008197D03*
X006668Y008192D03*
X006660Y008187D03*
X006643Y008174D03*
X006635Y008169D03*
X006633Y008167D03*
X006630Y008164D03*
X006625Y008162D03*
X006623Y008159D03*
X006620Y008157D03*
X006610Y008149D03*
X006608Y008147D03*
X005593Y006979D03*
X005590Y006977D03*
X005590Y006974D03*
X005588Y006972D03*
X005120Y007019D03*
X005118Y007017D03*
X005118Y007014D03*
X004883Y006762D03*
X004883Y006759D03*
X004880Y006757D03*
X004658Y006437D03*
D166*
X005437Y006439D03*
X005437Y006442D03*
X005437Y006444D03*
X005439Y006447D03*
X005439Y006449D03*
X005439Y006452D03*
X005439Y006454D03*
X006792Y007022D03*
X007589Y007014D03*
X007592Y007017D03*
X007594Y007019D03*
X007597Y007022D03*
X007599Y007024D03*
X007602Y007027D03*
X007604Y007029D03*
X008032Y006704D03*
X009069Y006984D03*
X009292Y006962D03*
X010204Y007384D03*
X010499Y007089D03*
X010497Y007087D03*
X010494Y007084D03*
X010492Y007082D03*
X010489Y007079D03*
X010487Y007077D03*
X010484Y007074D03*
X010482Y007072D03*
X010502Y007092D03*
X010712Y006752D03*
X011519Y006982D03*
X010147Y007689D03*
X008252Y007594D03*
X008249Y007589D03*
X005869Y007617D03*
X005304Y007582D03*
D167*
X005123Y007029D03*
X005123Y007027D03*
X004875Y006747D03*
X004875Y006744D03*
X004663Y006442D03*
X005598Y006989D03*
X005600Y006992D03*
X005603Y006997D03*
X006385Y006722D03*
X007785Y007419D03*
X007785Y007422D03*
X007823Y007552D03*
X007823Y007554D03*
X007825Y007559D03*
X008008Y006987D03*
X009725Y007089D03*
X009725Y007092D03*
X009725Y007094D03*
X009725Y007097D03*
X009725Y007099D03*
D168*
X009725Y007112D03*
X009725Y007114D03*
X008695Y006734D03*
X008008Y006997D03*
X007835Y007304D03*
X007783Y007404D03*
X007783Y007407D03*
X007783Y007409D03*
X007828Y007567D03*
X007828Y007569D03*
X008113Y007412D03*
X005615Y007017D03*
X005613Y007014D03*
X005613Y007012D03*
X005610Y007009D03*
X005608Y007004D03*
X005128Y007039D03*
X005125Y007034D03*
X004870Y006734D03*
X004868Y006732D03*
X004868Y006729D03*
X004665Y006447D03*
X011075Y007449D03*
D169*
X010228Y007592D03*
X009725Y007159D03*
X009725Y007157D03*
X009725Y007154D03*
X009725Y007152D03*
X009725Y007149D03*
X009725Y007147D03*
X010943Y006964D03*
X011180Y006724D03*
X008120Y007417D03*
X007835Y007589D03*
X007835Y007592D03*
X008010Y007029D03*
X008010Y007027D03*
X008010Y007024D03*
X007138Y006719D03*
X005648Y007074D03*
X005645Y007069D03*
X005643Y007064D03*
X005640Y007062D03*
X005640Y007059D03*
X005638Y007057D03*
X005635Y007052D03*
X005138Y007062D03*
X005138Y007064D03*
X005135Y007059D03*
X005135Y007057D03*
X004855Y006704D03*
X004853Y006699D03*
X004673Y006457D03*
D170*
X005440Y006457D03*
X005440Y006459D03*
X005440Y006462D03*
X005443Y006467D03*
X005443Y006469D03*
X006788Y007019D03*
X007130Y006699D03*
X007570Y006997D03*
X007573Y006999D03*
X007575Y007002D03*
X007578Y007004D03*
X007580Y007007D03*
X007583Y007009D03*
X007585Y007012D03*
X008245Y007582D03*
X008248Y007587D03*
X008250Y007592D03*
X007868Y007682D03*
X008965Y008057D03*
X010945Y007677D03*
X011423Y007677D03*
X010480Y007069D03*
X010478Y007067D03*
X010475Y007064D03*
X010473Y007062D03*
X010470Y007059D03*
X010468Y007057D03*
X010465Y007054D03*
X010463Y007052D03*
X010460Y007049D03*
X010458Y007047D03*
X010455Y007044D03*
X010715Y006754D03*
X011518Y006979D03*
D171*
X010230Y007589D03*
X010140Y007672D03*
X009725Y007172D03*
X009725Y007169D03*
X008013Y007044D03*
X008013Y007042D03*
X007838Y007597D03*
X007838Y007599D03*
X007125Y008349D03*
X005665Y007107D03*
X005663Y007102D03*
X005660Y007097D03*
X005658Y007092D03*
X005143Y007074D03*
X005140Y007069D03*
X004848Y006689D03*
X004848Y006687D03*
X004845Y006684D03*
X004678Y006464D03*
D172*
X005285Y006684D03*
X005448Y006489D03*
X005448Y006487D03*
X005445Y006482D03*
X005445Y006479D03*
X005445Y006477D03*
X006770Y007002D03*
X007548Y006977D03*
X007550Y006979D03*
X007553Y006982D03*
X008238Y007569D03*
X008240Y007572D03*
X009065Y006979D03*
X009335Y006704D03*
X010420Y007009D03*
X010423Y007012D03*
X010425Y007014D03*
X010428Y007017D03*
X010430Y007019D03*
X010433Y007022D03*
X010718Y006757D03*
X011513Y006972D03*
D173*
X011509Y006969D03*
X011507Y006967D03*
X011504Y006964D03*
X011502Y006962D03*
X010419Y007007D03*
X010417Y007004D03*
X010209Y007389D03*
X009064Y006977D03*
X009062Y006974D03*
X009059Y006972D03*
X008237Y007564D03*
X008237Y007567D03*
X008234Y007562D03*
X007867Y007679D03*
X007544Y006974D03*
X006769Y006999D03*
X006767Y006997D03*
X006764Y006994D03*
X005452Y006504D03*
X005452Y006502D03*
X005449Y006497D03*
X005449Y006494D03*
X005449Y006492D03*
X005447Y006484D03*
D174*
X005450Y006499D03*
X005453Y006507D03*
X005453Y006509D03*
X005453Y006512D03*
X005455Y006519D03*
X006755Y006987D03*
X006758Y006989D03*
X006760Y006992D03*
X007540Y006969D03*
X007543Y006972D03*
X008233Y007559D03*
X009010Y007687D03*
X009055Y006969D03*
X009053Y006967D03*
X009050Y006964D03*
X009048Y006962D03*
X009295Y006957D03*
X010400Y006989D03*
X010403Y006992D03*
X010405Y006994D03*
X010408Y006997D03*
X010410Y006999D03*
X010413Y007002D03*
X010723Y006759D03*
X011190Y006704D03*
X011495Y006957D03*
X011498Y006959D03*
X005873Y007612D03*
D175*
X006748Y006979D03*
X006750Y006982D03*
X006753Y006984D03*
X007525Y006957D03*
X007528Y006959D03*
X007815Y007279D03*
X008223Y007542D03*
X008225Y007547D03*
X007865Y007677D03*
X008388Y006964D03*
X008385Y006962D03*
X008383Y006959D03*
X009035Y006952D03*
X009038Y006954D03*
X009298Y006954D03*
X010380Y006972D03*
X010383Y006974D03*
X010385Y006977D03*
X010728Y006762D03*
X011485Y006949D03*
X005463Y006547D03*
X005460Y006539D03*
X005460Y006537D03*
X005460Y006534D03*
X005458Y006532D03*
X005458Y006529D03*
D176*
X005462Y006542D03*
X005462Y006544D03*
X005464Y006549D03*
X005464Y006552D03*
X005467Y006559D03*
X006742Y006974D03*
X006744Y006977D03*
X007519Y006952D03*
X007522Y006954D03*
X008372Y006949D03*
X008374Y006952D03*
X008377Y006954D03*
X008379Y006957D03*
X009029Y006947D03*
X009032Y006949D03*
X008222Y007539D03*
X008224Y007544D03*
X010214Y007394D03*
X010377Y006969D03*
X010374Y006967D03*
X010372Y006964D03*
X010367Y006962D03*
X010364Y006959D03*
X010362Y006957D03*
X011479Y006944D03*
X011482Y006947D03*
X011414Y007674D03*
X010954Y007674D03*
X005877Y007609D03*
D177*
X006735Y006969D03*
X006738Y006972D03*
X007515Y006949D03*
X008365Y006944D03*
X008368Y006947D03*
X008685Y006707D03*
X009025Y006944D03*
X009300Y006952D03*
X010218Y007397D03*
X010358Y006954D03*
X010355Y006952D03*
X011475Y006942D03*
X008220Y007537D03*
X008218Y007534D03*
X005470Y006572D03*
X005468Y006567D03*
X005468Y006564D03*
X005468Y006562D03*
X005465Y006557D03*
X005465Y006554D03*
X005288Y006687D03*
D178*
X005480Y006604D03*
X005478Y006597D03*
X005478Y006594D03*
X005475Y006592D03*
X005475Y006589D03*
X005475Y006587D03*
X005473Y006582D03*
X006733Y006967D03*
X007505Y006942D03*
X008033Y006709D03*
X008350Y006934D03*
X009015Y006937D03*
X009933Y006702D03*
X010343Y006942D03*
X010345Y006944D03*
X010220Y007399D03*
X010145Y007687D03*
X008215Y007529D03*
X008213Y007527D03*
X008210Y007522D03*
X007865Y007674D03*
X005878Y007607D03*
X005318Y007577D03*
D179*
X006727Y006962D03*
X006729Y006964D03*
X006382Y006702D03*
X005484Y006617D03*
X005482Y006609D03*
X005482Y006607D03*
X005479Y006602D03*
X005479Y006599D03*
X007502Y006939D03*
X008347Y006932D03*
X009012Y006934D03*
X008209Y007519D03*
X008212Y007524D03*
X009914Y007562D03*
X009917Y007564D03*
X010339Y006939D03*
X010337Y006937D03*
X011472Y006939D03*
D180*
X011468Y006937D03*
X011190Y006707D03*
X010333Y006934D03*
X009303Y006949D03*
X009008Y006932D03*
X007818Y007282D03*
X008205Y007514D03*
X008208Y007517D03*
X007498Y006937D03*
X006723Y006959D03*
X005488Y006627D03*
X005485Y006622D03*
X005485Y006619D03*
X005483Y006614D03*
X005483Y006612D03*
X005290Y006689D03*
X009883Y007532D03*
X009885Y007534D03*
X009888Y007537D03*
X009890Y007539D03*
X009893Y007542D03*
X009895Y007544D03*
X009898Y007547D03*
X009900Y007549D03*
X009903Y007552D03*
X009905Y007554D03*
X009908Y007557D03*
X009910Y007559D03*
X009920Y007567D03*
X009923Y007569D03*
X009925Y007572D03*
X010223Y007402D03*
D181*
X009932Y007577D03*
X009929Y007574D03*
X009937Y007579D03*
X009882Y007529D03*
X009879Y007527D03*
X009877Y007524D03*
X009874Y007522D03*
X009872Y007519D03*
X010329Y006932D03*
X010327Y006929D03*
X011464Y006934D03*
X011407Y007672D03*
X008342Y006929D03*
X008034Y006712D03*
X007494Y006934D03*
X006719Y006957D03*
X005494Y006647D03*
X005494Y006644D03*
X005492Y006639D03*
X005492Y006637D03*
X005489Y006634D03*
X005489Y006632D03*
X005489Y006629D03*
X005487Y006624D03*
X005879Y007604D03*
X007864Y007672D03*
X008204Y007512D03*
D182*
X008199Y007504D03*
X007862Y007669D03*
X006712Y006952D03*
X007487Y006929D03*
X008337Y006927D03*
X008999Y006927D03*
X009334Y006709D03*
X010314Y006922D03*
X010319Y006924D03*
X011459Y006932D03*
X009944Y007584D03*
X009859Y007502D03*
X009857Y007499D03*
X009854Y007497D03*
X005507Y006682D03*
X005504Y006674D03*
X005504Y006672D03*
X005502Y006669D03*
X005502Y006667D03*
X005499Y006662D03*
X005499Y006659D03*
D183*
X004863Y006719D03*
X004860Y006717D03*
X004860Y006714D03*
X004858Y006709D03*
X005130Y007047D03*
X005133Y007049D03*
X005133Y007052D03*
X005623Y007029D03*
X005625Y007034D03*
X005628Y007037D03*
X005628Y007039D03*
X005630Y007042D03*
X006385Y006719D03*
X008008Y007007D03*
X008008Y007009D03*
X008008Y007012D03*
X008008Y007014D03*
X008048Y006742D03*
X009323Y006734D03*
X009725Y007132D03*
X010140Y007669D03*
X007833Y007582D03*
X007833Y007579D03*
X007830Y007577D03*
D184*
X006968Y007039D03*
X006393Y006777D03*
X005388Y006727D03*
X005388Y006724D03*
X008088Y006832D03*
X009948Y006754D03*
X010120Y007612D03*
X007365Y008259D03*
D185*
X008853Y007679D03*
X006968Y007037D03*
X006393Y006779D03*
X006298Y006937D03*
X005388Y006729D03*
X008090Y006834D03*
D186*
X008092Y006837D03*
X008724Y006812D03*
X009949Y006757D03*
X011014Y006932D03*
X011139Y006762D03*
X010119Y007609D03*
X008854Y007682D03*
X008854Y007684D03*
X008852Y007677D03*
X008852Y007674D03*
X008852Y007672D03*
X008849Y007667D03*
X008849Y007664D03*
X008709Y007512D03*
X006967Y007034D03*
X005387Y006732D03*
D187*
X005388Y006734D03*
X006393Y006782D03*
X006965Y007032D03*
X007160Y006779D03*
X008850Y007669D03*
X009843Y006889D03*
X011113Y007462D03*
D188*
X010119Y007607D03*
X008724Y006814D03*
X008092Y006839D03*
X006964Y007029D03*
X005387Y006737D03*
D189*
X005387Y006739D03*
X005387Y006742D03*
X006304Y006934D03*
X007162Y006782D03*
X011109Y007464D03*
D190*
X010117Y007602D03*
X011019Y006929D03*
X008727Y006819D03*
X008097Y006847D03*
X005387Y006744D03*
D191*
X005385Y006747D03*
X006395Y006789D03*
X008098Y006849D03*
X008728Y006822D03*
X009950Y006762D03*
X011135Y006764D03*
D192*
X010117Y007599D03*
X008099Y006852D03*
X007164Y006787D03*
X005387Y006749D03*
D193*
X005385Y006752D03*
X006395Y006792D03*
X008728Y006824D03*
X009950Y006764D03*
X011105Y007467D03*
X007350Y008264D03*
D194*
X010114Y007597D03*
X008729Y006827D03*
X008099Y006854D03*
X007164Y006789D03*
X005384Y006754D03*
D195*
X005385Y006757D03*
D196*
X005384Y006759D03*
X006397Y006794D03*
X007164Y006792D03*
X008102Y006857D03*
X009952Y006767D03*
D197*
X009950Y006759D03*
X008725Y006817D03*
X008093Y006842D03*
X006963Y007027D03*
X006395Y006784D03*
X007358Y008262D03*
X010118Y007604D03*
D198*
X009832Y006892D03*
X008544Y006972D03*
X008087Y006827D03*
X006972Y007047D03*
X011144Y006759D03*
D199*
X011025Y006927D03*
X011103Y007469D03*
X008725Y007514D03*
X008103Y006859D03*
X008730Y006829D03*
X005385Y006762D03*
D200*
X005384Y006764D03*
X006397Y006797D03*
X007167Y006794D03*
X008104Y006862D03*
X008732Y006832D03*
D201*
X008732Y006834D03*
X008107Y006867D03*
X007167Y006797D03*
X006397Y006799D03*
X005384Y006769D03*
X005384Y006767D03*
X009952Y006769D03*
D202*
X011128Y006767D03*
X008105Y006864D03*
D203*
X009980Y006869D03*
X011018Y006769D03*
X011020Y006772D03*
D204*
X008734Y006839D03*
X006397Y006802D03*
X005384Y006774D03*
X005384Y006772D03*
D205*
X007168Y006799D03*
X008110Y006872D03*
X008825Y007662D03*
X007338Y008267D03*
X009953Y006772D03*
D206*
X008720Y006804D03*
X008543Y006969D03*
X008088Y006829D03*
X006970Y007044D03*
X006393Y006774D03*
X006293Y006939D03*
X010120Y007614D03*
D207*
X011117Y007459D03*
X008722Y006807D03*
X007159Y006774D03*
X006969Y007042D03*
D208*
X008110Y006874D03*
X008735Y006842D03*
X009953Y006774D03*
X011033Y006924D03*
D209*
X011022Y006774D03*
D210*
X007169Y006802D03*
X006397Y006804D03*
X005384Y006779D03*
X005384Y006777D03*
D211*
X007159Y006777D03*
X008542Y006967D03*
X008722Y006809D03*
D212*
X008737Y006847D03*
X008114Y006882D03*
X006399Y006809D03*
X005384Y006787D03*
X009954Y006777D03*
D213*
X009983Y006872D03*
X011025Y006777D03*
X011028Y006779D03*
X011030Y006782D03*
D214*
X009774Y006939D03*
X008574Y007039D03*
X008064Y006779D03*
X007037Y006977D03*
X007034Y006982D03*
X007034Y006984D03*
X007012Y007144D03*
X006217Y007094D03*
X006217Y007092D03*
X006217Y007089D03*
X006217Y007087D03*
X006214Y007097D03*
X006214Y007099D03*
X006214Y007102D03*
X006214Y007104D03*
X005089Y006912D03*
X007852Y007329D03*
X006842Y008267D03*
X010132Y007647D03*
D215*
X009955Y006779D03*
X008740Y006852D03*
X008118Y006887D03*
X005383Y006797D03*
X005383Y006794D03*
D216*
X005384Y006782D03*
X006399Y006807D03*
X008112Y006877D03*
X008737Y006844D03*
D217*
X008740Y006854D03*
X008120Y006892D03*
X007173Y006812D03*
X006400Y006817D03*
X005383Y006802D03*
X009955Y006782D03*
D218*
X008113Y006879D03*
X007170Y006804D03*
X005383Y006784D03*
D219*
X006395Y006787D03*
X006963Y007024D03*
X007163Y006784D03*
X008095Y006844D03*
X007133Y008337D03*
D220*
X008124Y006899D03*
X009957Y006784D03*
X005384Y006809D03*
D221*
X007142Y008309D03*
X011032Y006784D03*
X011034Y006787D03*
X011037Y006789D03*
D222*
X009957Y006787D03*
X008744Y006864D03*
X008127Y006904D03*
X005384Y006814D03*
D223*
X005383Y006792D03*
X005383Y006789D03*
X007170Y006807D03*
X008115Y006884D03*
X008738Y006849D03*
D224*
X008130Y006909D03*
X006403Y006827D03*
X009958Y006789D03*
D225*
X009957Y006792D03*
X008749Y006874D03*
X008134Y006917D03*
X007179Y006827D03*
X005384Y006829D03*
X005384Y006832D03*
D226*
X009983Y006874D03*
X011040Y006792D03*
D227*
X009959Y006794D03*
X008749Y006877D03*
X007944Y007342D03*
X007179Y006829D03*
X006404Y006834D03*
X005384Y006837D03*
X005384Y006839D03*
D228*
X009984Y006877D03*
X011042Y006794D03*
X011044Y006797D03*
X011047Y006799D03*
X011049Y006802D03*
D229*
X009960Y006797D03*
X008753Y006884D03*
D230*
X008119Y006889D03*
X006399Y006814D03*
X005384Y006799D03*
X007134Y008332D03*
D231*
X007943Y007354D03*
X007183Y006837D03*
X006405Y006842D03*
X009960Y006799D03*
D232*
X009962Y006802D03*
X008757Y006892D03*
X007944Y007364D03*
X007184Y006842D03*
D233*
X008122Y006894D03*
X008742Y006857D03*
X011044Y006922D03*
X005384Y006804D03*
D234*
X006407Y006849D03*
X007944Y007372D03*
X007944Y007374D03*
X008759Y006897D03*
X009962Y006804D03*
D235*
X011050Y006804D03*
X011053Y006807D03*
X011055Y006809D03*
X011058Y006812D03*
D236*
X008743Y006859D03*
X008123Y006897D03*
X007173Y006814D03*
X006400Y006819D03*
X005383Y006807D03*
D237*
X006407Y006852D03*
X007187Y006847D03*
X007944Y007379D03*
X007944Y007382D03*
X008759Y006899D03*
X009962Y006807D03*
D238*
X008742Y007517D03*
X007172Y006809D03*
X006399Y006812D03*
D239*
X006408Y006857D03*
X007188Y006852D03*
X007945Y007392D03*
X007945Y007394D03*
X008763Y006907D03*
X009963Y006809D03*
D240*
X008743Y006862D03*
X008125Y006902D03*
X007175Y006817D03*
X006400Y006822D03*
X005383Y006812D03*
D241*
X006408Y006859D03*
X007138Y008324D03*
X009963Y006812D03*
X011060Y007487D03*
X011063Y007489D03*
X011068Y007497D03*
X011070Y007499D03*
X011073Y007502D03*
X011073Y007504D03*
X011075Y007507D03*
X011078Y007509D03*
X011083Y007517D03*
X011085Y007519D03*
X011090Y007527D03*
D242*
X011127Y007577D03*
X011132Y007584D03*
X011137Y007592D03*
X011139Y007594D03*
X011139Y007597D03*
X011142Y007599D03*
X011144Y007602D03*
X011144Y007604D03*
X011147Y007607D03*
X011149Y007609D03*
X011149Y007612D03*
X011152Y007614D03*
X011154Y007619D03*
X011157Y007622D03*
X011159Y007627D03*
X009964Y006814D03*
X007192Y006859D03*
X006409Y006864D03*
D243*
X009984Y006879D03*
X011059Y006814D03*
D244*
X008745Y006867D03*
X008128Y006907D03*
X007175Y006819D03*
X005383Y006817D03*
D245*
X007192Y006862D03*
X009964Y006817D03*
X011169Y007644D03*
X011172Y007649D03*
X011174Y007654D03*
X011177Y007659D03*
D246*
X009985Y006882D03*
X011063Y006817D03*
X011065Y006819D03*
X011068Y006822D03*
X011070Y006824D03*
D247*
X007177Y006822D03*
X006402Y006824D03*
X005384Y006822D03*
X005384Y006819D03*
D248*
X006412Y006872D03*
X007194Y006867D03*
X009967Y006819D03*
D249*
X009967Y006822D03*
X007194Y006869D03*
X006412Y006874D03*
D250*
X005384Y006827D03*
X005384Y006824D03*
X008132Y006912D03*
X008747Y006869D03*
X008759Y007519D03*
D251*
X007945Y007334D03*
X008133Y006914D03*
X008748Y006872D03*
X007178Y006824D03*
X006403Y006829D03*
X007135Y008329D03*
D252*
X007197Y006872D03*
X009967Y006824D03*
D253*
X009968Y006827D03*
X007198Y006877D03*
X006413Y006882D03*
D254*
X011072Y006827D03*
X011074Y006829D03*
X011077Y006832D03*
X011079Y006834D03*
D255*
X009969Y006829D03*
X007199Y006879D03*
X006414Y006884D03*
D256*
X006403Y006832D03*
X005385Y006834D03*
X007945Y007337D03*
X007945Y007339D03*
X008135Y006919D03*
D257*
X008750Y006879D03*
X007945Y007344D03*
X008765Y007522D03*
X008765Y007524D03*
X008765Y007527D03*
X008768Y007532D03*
X008768Y007534D03*
X008768Y007537D03*
X008768Y007539D03*
X008770Y007544D03*
X008770Y007547D03*
X008770Y007549D03*
X008770Y007552D03*
X008773Y007557D03*
X008773Y007559D03*
X008773Y007562D03*
X008775Y007567D03*
X008775Y007569D03*
X008775Y007572D03*
X008775Y007574D03*
X008778Y007579D03*
X008778Y007582D03*
X008778Y007584D03*
X008778Y007587D03*
X008780Y007592D03*
X008780Y007594D03*
X008780Y007597D03*
X008783Y007604D03*
X008783Y007607D03*
X008783Y007609D03*
X008785Y007617D03*
X008785Y007619D03*
X008785Y007622D03*
X008788Y007629D03*
X008788Y007632D03*
X008790Y007642D03*
X008790Y007644D03*
X008793Y007654D03*
X008793Y007657D03*
X007180Y006832D03*
X005385Y006842D03*
D258*
X007139Y008319D03*
X009969Y006832D03*
D259*
X008754Y006887D03*
X007944Y007349D03*
X007944Y007352D03*
X007182Y006834D03*
X006404Y006839D03*
D260*
X007203Y006889D03*
X009970Y006834D03*
D261*
X008752Y006882D03*
X007944Y007347D03*
X008767Y007529D03*
X008769Y007542D03*
X008772Y007554D03*
X008774Y007564D03*
X008777Y007577D03*
X008779Y007589D03*
X008782Y007599D03*
X008782Y007602D03*
X008784Y007612D03*
X008784Y007614D03*
X008787Y007624D03*
X008787Y007627D03*
X008789Y007634D03*
X008789Y007637D03*
X008789Y007639D03*
X008792Y007647D03*
X008792Y007649D03*
X008792Y007652D03*
X008794Y007659D03*
X006404Y006837D03*
X005384Y006844D03*
D262*
X008108Y006869D03*
X008733Y006837D03*
X007133Y008334D03*
D263*
X007203Y006892D03*
X006418Y006897D03*
X009970Y006837D03*
D264*
X009985Y006884D03*
X011080Y006837D03*
X011083Y006839D03*
X011085Y006842D03*
X011088Y006844D03*
X011090Y006847D03*
X007143Y008307D03*
D265*
X007138Y008327D03*
X007943Y007362D03*
X008755Y006889D03*
X007183Y006839D03*
X006405Y006844D03*
D266*
X007204Y006894D03*
X009972Y006839D03*
D267*
X009973Y006842D03*
X007140Y008317D03*
D268*
X007943Y007377D03*
X007185Y006844D03*
D269*
X007208Y006902D03*
X006420Y006907D03*
X009973Y006844D03*
D270*
X008758Y006894D03*
X007943Y007367D03*
X007943Y007369D03*
X006405Y006847D03*
D271*
X007209Y006904D03*
X009974Y006847D03*
D272*
X008762Y006904D03*
X007187Y006849D03*
D273*
X006422Y006912D03*
X009974Y006849D03*
D274*
X011092Y006849D03*
X011094Y006852D03*
X011097Y006854D03*
X011099Y006857D03*
X011102Y006859D03*
D275*
X009975Y006852D03*
X007140Y008314D03*
X006423Y006917D03*
D276*
X006408Y006854D03*
X007945Y007384D03*
X007945Y007387D03*
X007945Y007389D03*
X008760Y006902D03*
D277*
X008764Y006909D03*
X007189Y006854D03*
X011049Y007472D03*
X011052Y007474D03*
X011054Y007477D03*
X011054Y007479D03*
X011057Y007482D03*
X011059Y007484D03*
X011064Y007492D03*
X011067Y007494D03*
D278*
X009977Y006854D03*
X006424Y006919D03*
D279*
X007190Y006857D03*
X011098Y007537D03*
X011103Y007544D03*
X011105Y007547D03*
X011110Y007554D03*
X011113Y007557D03*
X011115Y007562D03*
X011118Y007564D03*
X011120Y007567D03*
X011120Y007569D03*
X011123Y007572D03*
X011125Y007574D03*
X011128Y007579D03*
X011130Y007582D03*
X011133Y007587D03*
X011135Y007589D03*
D280*
X009977Y006857D03*
X006424Y006924D03*
D281*
X006425Y006927D03*
X009978Y006859D03*
D282*
X008764Y006912D03*
X006409Y006862D03*
X011079Y007512D03*
X011082Y007514D03*
X011087Y007522D03*
X011089Y007524D03*
X011092Y007529D03*
X011094Y007532D03*
X011097Y007534D03*
X011099Y007539D03*
X011102Y007542D03*
X011107Y007549D03*
X011109Y007552D03*
X011114Y007559D03*
D283*
X009979Y006862D03*
X007142Y008312D03*
X006427Y006932D03*
D284*
X009988Y006887D03*
X011103Y006862D03*
X011105Y006864D03*
X011108Y006867D03*
X011110Y006869D03*
X011113Y006872D03*
D285*
X007193Y006864D03*
X006410Y006869D03*
D286*
X009980Y006864D03*
D287*
X011153Y007617D03*
X011158Y007624D03*
X011160Y007629D03*
X011163Y007632D03*
X011163Y007634D03*
X011165Y007637D03*
X011165Y007639D03*
X011168Y007642D03*
X011170Y007647D03*
X011173Y007652D03*
X011175Y007657D03*
X006410Y006867D03*
D288*
X009980Y006867D03*
D289*
X007198Y006874D03*
X006413Y006879D03*
D290*
X011114Y006874D03*
X011117Y006877D03*
X011119Y006879D03*
X011122Y006882D03*
X011124Y006884D03*
D291*
X006413Y006877D03*
D292*
X006415Y006887D03*
X007200Y006882D03*
D293*
X007200Y006884D03*
X006415Y006889D03*
D294*
X006417Y006892D03*
X007202Y006887D03*
D295*
X011125Y006887D03*
X011128Y006889D03*
X011130Y006892D03*
X011133Y006894D03*
X011135Y006897D03*
X011138Y006902D03*
X011140Y006904D03*
X011143Y006907D03*
X011145Y006909D03*
D296*
X006417Y006894D03*
D297*
X006419Y006902D03*
X007207Y006897D03*
D298*
X006418Y006899D03*
D299*
X006419Y006904D03*
X007207Y006899D03*
D300*
X011137Y006899D03*
X011147Y006912D03*
X011149Y006914D03*
X011152Y006917D03*
X011154Y006919D03*
D301*
X007210Y006907D03*
X006420Y006909D03*
D302*
X006423Y006914D03*
X007210Y006909D03*
D303*
X006423Y006922D03*
D304*
X006425Y006929D03*
D305*
X004847Y007042D03*
X004847Y007044D03*
X004847Y007047D03*
X004844Y007037D03*
X004844Y007034D03*
X004844Y007032D03*
X005839Y007649D03*
X009117Y007077D03*
X009264Y007017D03*
X010159Y007342D03*
X011567Y007074D03*
D306*
X007944Y007357D03*
X007944Y007359D03*
D307*
X007129Y008269D03*
D308*
X007132Y008272D03*
D309*
X007135Y008274D03*
D310*
X007138Y008277D03*
D311*
X007142Y008279D03*
D312*
X007144Y008282D03*
D313*
X007148Y008284D03*
D314*
X007147Y008287D03*
D315*
X007147Y008289D03*
D316*
X007147Y008292D03*
D317*
X007147Y008294D03*
D318*
X007145Y008297D03*
D319*
X007144Y008299D03*
D320*
X007143Y008302D03*
D321*
X007144Y008304D03*
D322*
X007138Y008322D03*
D323*
X004338Y005524D02*
X004338Y005523D01*
X004337Y005522D01*
X004335Y005522D01*
X004333Y005524D02*
X004333Y005522D01*
X004332Y005522D02*
X004332Y005524D01*
X004332Y005525D01*
X004333Y005524D01*
X004332Y005524D02*
X004331Y005525D01*
X004330Y005525D01*
X004330Y005522D01*
X004329Y005523D02*
X004329Y005524D01*
X004328Y005525D01*
X004325Y005525D01*
X004325Y005527D02*
X004325Y005522D01*
X004328Y005522D01*
X004329Y005523D01*
X004324Y005523D02*
X004324Y005522D01*
X004323Y005522D01*
X004323Y005523D01*
X004324Y005523D01*
X004322Y005522D02*
X004320Y005522D01*
X004321Y005522D02*
X004321Y005527D01*
X004320Y005527D02*
X004322Y005527D01*
X004319Y005526D02*
X004319Y005524D01*
X004318Y005523D01*
X004315Y005523D01*
X004314Y005523D02*
X004314Y005526D01*
X004313Y005527D01*
X004311Y005527D01*
X004311Y005522D01*
X004313Y005522D01*
X004314Y005523D01*
X004315Y005522D02*
X004315Y005527D01*
X004318Y005527D01*
X004319Y005526D01*
X004309Y005526D02*
X004306Y005523D01*
X004307Y005522D01*
X004309Y005522D01*
X004309Y005523D01*
X004309Y005526D01*
X004309Y005527D01*
X004307Y005527D01*
X004306Y005526D01*
X004306Y005523D01*
X004305Y005523D02*
X004304Y005522D01*
X004302Y005522D01*
X004302Y005523D01*
X004305Y005526D01*
X004305Y005523D01*
X004305Y005526D02*
X004304Y005527D01*
X004302Y005527D01*
X004302Y005526D01*
X004302Y005523D01*
X004300Y005523D02*
X004300Y005523D01*
X004299Y005522D01*
X004298Y005522D01*
X004297Y005523D01*
X004297Y005524D01*
X004299Y005524D01*
X004300Y005523D01*
X004299Y005526D02*
X004297Y005524D01*
X004296Y005524D02*
X004292Y005524D01*
X004291Y005525D02*
X004289Y005525D01*
X004288Y005525D02*
X004287Y005525D01*
X004285Y005523D01*
X004285Y005522D02*
X004285Y005525D01*
X004284Y005525D02*
X004284Y005522D01*
X004284Y005524D02*
X004281Y005524D01*
X004281Y005525D02*
X004282Y005527D01*
X004284Y005525D01*
X004281Y005525D02*
X004281Y005522D01*
X004280Y005522D02*
X004280Y005525D01*
X004280Y005522D02*
X004277Y005522D01*
X004276Y005523D01*
X004276Y005525D01*
X004275Y005527D02*
X004272Y005522D01*
X004270Y005522D02*
X004268Y005522D01*
X004267Y005523D01*
X004268Y005523D01*
X004270Y005523D01*
X004270Y005524D02*
X004270Y005522D01*
X004270Y005524D02*
X004269Y005525D01*
X004268Y005525D01*
X004266Y005525D02*
X004263Y005525D01*
X004262Y005524D01*
X004262Y005523D01*
X004263Y005522D01*
X004266Y005522D01*
X004266Y005521D02*
X004266Y005525D01*
X004266Y005521D02*
X004265Y005520D01*
X004264Y005520D01*
X004261Y005523D02*
X004261Y005524D01*
X004260Y005525D01*
X004259Y005525D01*
X004258Y005524D01*
X004258Y005523D01*
X004259Y005522D01*
X004260Y005522D01*
X004261Y005523D01*
X004256Y005522D02*
X004255Y005522D01*
X004256Y005522D02*
X004256Y005527D01*
X004255Y005527D01*
X004253Y005527D02*
X004250Y005522D01*
X004249Y005522D02*
X004249Y005524D01*
X004248Y005525D01*
X004246Y005525D01*
X004246Y005522D01*
X004244Y005522D02*
X004242Y005522D01*
X004243Y005522D02*
X004243Y005527D01*
X004242Y005527D01*
X004240Y005525D02*
X004241Y005524D01*
X004241Y005523D01*
X004238Y005523D01*
X004238Y005524D01*
X004239Y005525D01*
X004240Y005525D01*
X004238Y005523D02*
X004239Y005522D01*
X004240Y005522D01*
X004237Y005521D02*
X004233Y005521D01*
X004232Y005521D02*
X004231Y005520D01*
X004230Y005520D01*
X004229Y005522D02*
X004232Y005522D01*
X004232Y005521D02*
X004232Y005525D01*
X004229Y005525D02*
X004229Y005523D01*
X004229Y005522D01*
X004227Y005522D02*
X004225Y005522D01*
X004224Y005523D01*
X004224Y005524D01*
X004225Y005525D01*
X004227Y005525D01*
X004227Y005527D02*
X004227Y005522D01*
X004223Y005522D02*
X004220Y005522D01*
X004219Y005523D01*
X004220Y005523D01*
X004223Y005523D01*
X004223Y005524D02*
X004223Y005522D01*
X004223Y005524D02*
X004222Y005525D01*
X004220Y005525D01*
X004217Y005527D02*
X004217Y005522D01*
X004216Y005522D02*
X004218Y005522D01*
X004215Y005522D02*
X004213Y005523D01*
X004215Y005525D01*
X004216Y005527D02*
X004217Y005527D01*
X004213Y005527D02*
X004213Y005522D01*
X004211Y005522D02*
X004209Y005522D01*
X004208Y005523D01*
X004209Y005523D01*
X004211Y005523D01*
X004211Y005524D02*
X004211Y005522D01*
X004211Y005524D02*
X004210Y005525D01*
X004209Y005525D01*
X004207Y005525D02*
X004203Y005522D01*
X004207Y005522D01*
X004207Y005525D02*
X004203Y005525D01*
X004202Y005527D02*
X004199Y005522D01*
X004197Y005523D02*
X004197Y005523D01*
X004197Y005522D01*
X004194Y005522D01*
X004193Y005522D02*
X004192Y005523D01*
X004192Y005526D01*
X004191Y005525D02*
X004193Y005525D01*
X004194Y005524D02*
X004195Y005525D01*
X004197Y005525D01*
X004197Y005523D02*
X004195Y005523D01*
X004194Y005524D01*
X004190Y005524D02*
X004190Y005522D01*
X004190Y005524D02*
X004189Y005525D01*
X004186Y005525D01*
X004186Y005522D01*
X004184Y005522D02*
X004183Y005522D01*
X004182Y005523D01*
X004182Y005524D01*
X004183Y005525D01*
X004184Y005525D01*
X004185Y005524D01*
X004185Y005523D01*
X004182Y005523D01*
X004181Y005524D02*
X004181Y005522D01*
X004179Y005524D02*
X004179Y005522D01*
X004177Y005522D02*
X004177Y005525D01*
X004178Y005525D01*
X004179Y005524D01*
X004180Y005525D01*
X004181Y005524D01*
X004176Y005522D02*
X004176Y005525D01*
X004176Y005522D02*
X004173Y005522D01*
X004173Y005523D01*
X004173Y005525D01*
X004171Y005525D02*
X004169Y005525D01*
X004168Y005524D01*
X004168Y005523D01*
X004169Y005522D01*
X004171Y005522D01*
X004167Y005523D02*
X004167Y005524D01*
X004166Y005525D01*
X004164Y005525D01*
X004163Y005524D01*
X004163Y005523D01*
X004164Y005522D01*
X004166Y005522D01*
X004167Y005523D01*
X004162Y005523D02*
X004162Y005526D01*
X004161Y005527D01*
X004159Y005527D01*
X004159Y005522D01*
X004161Y005522D01*
X004162Y005523D01*
X004158Y005527D02*
X004154Y005522D01*
X004153Y005523D02*
X004153Y005524D01*
X004152Y005525D01*
X004150Y005525D01*
X004150Y005524D01*
X004150Y005523D01*
X004150Y005522D01*
X004152Y005522D01*
X004153Y005523D01*
X004148Y005522D02*
X004146Y005522D01*
X004145Y005523D01*
X004145Y005524D01*
X004146Y005525D01*
X004148Y005525D01*
X004144Y005525D02*
X004141Y005525D01*
X004140Y005524D01*
X004141Y005523D01*
X004143Y005523D01*
X004144Y005523D01*
X004143Y005522D01*
X004140Y005522D01*
X004139Y005522D02*
X004137Y005522D01*
X004136Y005523D01*
X004137Y005523D01*
X004139Y005523D01*
X004139Y005524D02*
X004139Y005522D01*
X004139Y005524D02*
X004138Y005525D01*
X004137Y005525D01*
X004135Y005525D02*
X004133Y005522D01*
X004131Y005525D01*
X004130Y005527D02*
X004127Y005522D01*
X004125Y005523D02*
X004124Y005523D01*
X004123Y005523D01*
X004122Y005524D01*
X004123Y005525D01*
X004125Y005525D01*
X004125Y005523D02*
X004124Y005522D01*
X004122Y005522D01*
X004120Y005525D02*
X004121Y005525D01*
X004120Y005525D02*
X004118Y005523D01*
X004118Y005522D02*
X004118Y005525D01*
X004117Y005524D02*
X004117Y005523D01*
X004114Y005523D01*
X004114Y005524D01*
X004114Y005525D01*
X004116Y005525D01*
X004117Y005524D01*
X004116Y005522D02*
X004114Y005522D01*
X004114Y005523D01*
X004112Y005523D02*
X004111Y005523D01*
X004110Y005523D01*
X004109Y005524D01*
X004110Y005525D01*
X004112Y005525D01*
X004112Y005523D02*
X004111Y005522D01*
X004109Y005522D01*
X004108Y005523D02*
X004108Y005527D01*
X004104Y005527D02*
X004104Y005523D01*
X004105Y005522D01*
X004107Y005522D01*
X004108Y005523D01*
X004103Y005527D02*
X004100Y005522D01*
X004098Y005523D02*
X004098Y005526D01*
X004098Y005527D01*
X004095Y005527D01*
X004095Y005522D01*
X004098Y005522D01*
X004098Y005523D01*
X004094Y005523D02*
X004094Y005526D01*
X004093Y005527D01*
X004091Y005527D01*
X004091Y005522D01*
X004093Y005522D01*
X004094Y005523D01*
X004089Y005522D02*
X004089Y005527D01*
X004089Y005524D02*
X004086Y005524D01*
X004085Y005524D02*
X004085Y005522D01*
X004082Y005522D01*
X004081Y005523D01*
X004082Y005523D01*
X004085Y005523D01*
X004085Y005524D02*
X004084Y005525D01*
X004082Y005525D01*
X004080Y005525D02*
X004078Y005525D01*
X004077Y005524D02*
X004077Y005522D01*
X004074Y005522D01*
X004074Y005523D01*
X004074Y005523D01*
X004077Y005523D01*
X004077Y005524D02*
X004076Y005525D01*
X004074Y005525D01*
X004072Y005526D02*
X004072Y005527D01*
X004069Y005527D01*
X004069Y005522D01*
X004072Y005522D01*
X004072Y005523D01*
X004072Y005526D01*
X004068Y005527D02*
X004064Y005522D01*
X004063Y005523D02*
X004062Y005523D01*
X004061Y005523D01*
X004060Y005524D01*
X004061Y005525D01*
X004063Y005525D01*
X004063Y005523D02*
X004062Y005522D01*
X004060Y005522D01*
X004059Y005523D02*
X004055Y005523D01*
X004055Y005524D01*
X004056Y005525D01*
X004058Y005525D01*
X004059Y005524D01*
X004059Y005523D01*
X004058Y005522D02*
X004056Y005522D01*
X004055Y005523D01*
X004054Y005524D02*
X004054Y005522D01*
X004052Y005524D02*
X004052Y005522D01*
X004051Y005522D02*
X004051Y005525D01*
X004051Y005525D01*
X004052Y005524D01*
X004053Y005525D01*
X004054Y005524D01*
X004049Y005522D02*
X004049Y005525D01*
X004046Y005525D02*
X004046Y005523D01*
X004047Y005522D01*
X004049Y005522D01*
X004045Y005522D02*
X004043Y005522D01*
X004044Y005522D02*
X004044Y005527D01*
X004043Y005527D01*
X004041Y005525D02*
X004039Y005525D01*
X004038Y005524D01*
X004038Y005523D01*
X004039Y005522D01*
X004041Y005522D01*
X004042Y005523D01*
X004042Y005524D01*
X004041Y005525D01*
X004037Y005523D02*
X004037Y005527D01*
X004034Y005527D02*
X004034Y005523D01*
X004035Y005522D01*
X004037Y005523D01*
X004032Y005527D02*
X004029Y005522D01*
X004079Y005523D02*
X004080Y005522D01*
X004079Y005523D02*
X004079Y005526D01*
X004086Y005527D02*
X004086Y005522D01*
X004290Y005523D02*
X004291Y005522D01*
X004290Y005523D02*
X004290Y005526D01*
X004299Y005526D02*
X004300Y005527D01*
X004335Y005525D02*
X004337Y005525D01*
X004338Y005524D01*
X004335Y005525D02*
X004335Y005520D01*
D324*
X007521Y005241D02*
X007521Y005021D01*
X007632Y005021D01*
X007668Y005057D01*
X007668Y005204D01*
X007632Y005241D01*
X007521Y005241D01*
X011021Y005241D02*
X011168Y005241D01*
X011095Y005241D02*
X011095Y005021D01*
M02*
