G75*
G70*
%OFA0B0*%
%FSLAX24Y24*%
%IPPOS*%
%LPD*%
%AMOC8*
5,1,8,0,0,1.08239X$1,22.5*
%
%ADD10C,0.3150*%
%ADD11R,0.0433X0.0394*%
%ADD12R,0.0394X0.0433*%
%ADD13R,0.0740X0.0740*%
%ADD14C,0.0740*%
%ADD15R,0.0551X0.0394*%
%ADD16C,0.0560*%
%ADD17C,0.0160*%
D10*
X002494Y004511D03*
X019029Y004511D03*
D11*
X012671Y006086D03*
X012002Y006086D03*
X008399Y002680D03*
X008399Y002011D03*
D12*
X011608Y002149D03*
X012277Y002149D03*
X012277Y002936D03*
X011608Y002936D03*
X008931Y006086D03*
X008261Y006086D03*
D13*
X006824Y002149D03*
D14*
X005824Y002149D03*
X004824Y002149D03*
D15*
X009935Y002542D03*
X010801Y002168D03*
X010801Y002916D03*
D16*
X012273Y004495D03*
X013273Y004495D03*
X009257Y004495D03*
X008257Y004495D03*
D17*
X001005Y002339D02*
X001005Y000660D01*
X020518Y000660D01*
X020518Y002339D01*
X019963Y002048D01*
X019963Y002048D01*
X019347Y001896D01*
X018712Y001896D01*
X018095Y002048D01*
X017533Y002343D01*
X017058Y002764D01*
X017058Y002764D01*
X016697Y003287D01*
X016697Y003287D01*
X016472Y003880D01*
X016472Y003880D01*
X016395Y004511D01*
X016395Y004511D01*
X016472Y005141D01*
X016472Y005141D01*
X016697Y005735D01*
X016697Y005735D01*
X017058Y006257D01*
X017058Y006257D01*
X017533Y006678D01*
X017533Y006678D01*
X018095Y006973D01*
X018095Y006973D01*
X018712Y007125D01*
X019347Y007125D01*
X019963Y006973D01*
X019963Y006973D01*
X020518Y006682D01*
X020518Y008361D01*
X001005Y008361D01*
X001005Y006682D01*
X001560Y006973D01*
X001560Y006973D01*
X002176Y007125D01*
X002811Y007125D01*
X003428Y006973D01*
X003428Y006973D01*
X003990Y006678D01*
X003990Y006678D01*
X004465Y006257D01*
X004465Y006257D01*
X004826Y005735D01*
X004826Y005735D01*
X005051Y005141D01*
X005051Y005141D01*
X005127Y004511D01*
X005051Y003880D01*
X004826Y003287D01*
X004826Y003287D01*
X004465Y002764D01*
X004465Y002764D01*
X003990Y002343D01*
X003990Y002343D01*
X003428Y002048D01*
X003428Y002048D01*
X002811Y001896D01*
X002176Y001896D01*
X001560Y002048D01*
X001560Y002048D01*
X001005Y002339D01*
X001005Y002241D02*
X001193Y002241D01*
X001005Y002082D02*
X001495Y002082D01*
X001005Y001924D02*
X002066Y001924D01*
X002922Y001924D02*
X004322Y001924D01*
X004315Y001937D02*
X004354Y001860D01*
X004405Y001790D01*
X004466Y001729D01*
X004536Y001678D01*
X004613Y001639D01*
X004696Y001612D01*
X004781Y001599D01*
X004804Y001599D01*
X004804Y002128D01*
X004844Y002128D01*
X004844Y001599D01*
X004868Y001599D01*
X004953Y001612D01*
X005036Y001639D01*
X005113Y001678D01*
X005183Y001729D01*
X005244Y001790D01*
X005288Y001850D01*
X005307Y001803D01*
X005479Y001631D01*
X005703Y001539D01*
X005946Y001539D01*
X006170Y001631D01*
X006230Y001692D01*
X006251Y001643D01*
X006318Y001575D01*
X006407Y001539D01*
X006588Y001539D01*
X006643Y001484D01*
X007037Y001090D01*
X007154Y001041D01*
X012794Y001041D01*
X012911Y001090D01*
X013001Y001180D01*
X013545Y001723D01*
X013593Y001841D01*
X013593Y004080D01*
X013714Y004200D01*
X013793Y004392D01*
X013793Y004598D01*
X013714Y004790D01*
X013601Y004902D01*
X013601Y005992D01*
X013552Y006109D01*
X013305Y006357D01*
X013187Y006406D01*
X013096Y006406D01*
X013091Y006418D01*
X013023Y006486D01*
X012935Y006522D01*
X012407Y006522D01*
X012318Y006486D01*
X012284Y006451D01*
X012242Y006462D01*
X012020Y006462D01*
X012020Y006104D01*
X011983Y006104D01*
X011983Y006067D01*
X011605Y006067D01*
X011605Y005865D01*
X011617Y005819D01*
X011641Y005778D01*
X011675Y005745D01*
X011716Y005721D01*
X011761Y005709D01*
X011983Y005709D01*
X011983Y006067D01*
X012020Y006067D01*
X012020Y005709D01*
X012242Y005709D01*
X012284Y005720D01*
X012318Y005685D01*
X012407Y005649D01*
X012935Y005649D01*
X012961Y005659D01*
X012961Y005618D01*
X011681Y005618D01*
X010943Y006357D01*
X010825Y006406D01*
X009344Y006406D01*
X009331Y006438D01*
X009264Y006506D01*
X009175Y006542D01*
X008686Y006542D01*
X008598Y006506D01*
X008596Y006504D01*
X008594Y006506D01*
X008506Y006542D01*
X008017Y006542D01*
X007929Y006506D01*
X007861Y006438D01*
X007825Y006350D01*
X007825Y005821D01*
X007861Y005733D01*
X007929Y005666D01*
X007941Y005660D01*
X007941Y004914D01*
X007817Y004790D01*
X007737Y004598D01*
X007737Y004392D01*
X007817Y004200D01*
X007963Y004054D01*
X008154Y003975D01*
X008361Y003975D01*
X008552Y004054D01*
X008698Y004200D01*
X008777Y004392D01*
X008777Y004598D01*
X008698Y004790D01*
X008581Y004906D01*
X008581Y005660D01*
X008594Y005666D01*
X008596Y005667D01*
X008598Y005666D01*
X008686Y005629D01*
X009175Y005629D01*
X009264Y005666D01*
X009331Y005733D01*
X009344Y005766D01*
X010629Y005766D01*
X011278Y005117D01*
X011368Y005027D01*
X011485Y004978D01*
X012081Y004978D01*
X011979Y004936D01*
X011832Y004790D01*
X011753Y004598D01*
X011753Y004392D01*
X011832Y004200D01*
X011953Y004080D01*
X011953Y003360D01*
X011944Y003356D01*
X011896Y003308D01*
X011874Y003320D01*
X011828Y003332D01*
X011626Y003332D01*
X011626Y002954D01*
X011589Y002954D01*
X011589Y002917D01*
X011231Y002917D01*
X011231Y002898D01*
X010819Y002898D01*
X010819Y002935D01*
X010782Y002935D01*
X010782Y003293D01*
X010501Y003293D01*
X010456Y003281D01*
X010415Y003257D01*
X010381Y003224D01*
X010357Y003183D01*
X010345Y003137D01*
X010345Y002943D01*
X010258Y002979D01*
X010255Y002979D01*
X010255Y003039D01*
X010206Y003157D01*
X009852Y003511D01*
X009762Y003601D01*
X009644Y003650D01*
X006131Y003650D01*
X006013Y003601D01*
X005620Y003207D01*
X005530Y003117D01*
X005481Y003000D01*
X005481Y002666D01*
X005479Y002666D01*
X005307Y002494D01*
X005288Y002447D01*
X005244Y002507D01*
X005183Y002568D01*
X005113Y002619D01*
X005036Y002658D01*
X004953Y002685D01*
X004868Y002699D01*
X004844Y002699D01*
X004844Y002169D01*
X004804Y002169D01*
X004804Y002699D01*
X004781Y002699D01*
X004696Y002685D01*
X004613Y002658D01*
X004536Y002619D01*
X004466Y002568D01*
X004405Y002507D01*
X004354Y002437D01*
X004315Y002360D01*
X004288Y002277D01*
X004274Y002192D01*
X004274Y002169D01*
X004804Y002169D01*
X004804Y002129D01*
X004274Y002129D01*
X004274Y002105D01*
X004288Y002020D01*
X004315Y001937D01*
X004278Y002082D02*
X003492Y002082D01*
X003794Y002241D02*
X004282Y002241D01*
X004335Y002399D02*
X004053Y002399D01*
X004232Y002558D02*
X004456Y002558D01*
X004411Y002716D02*
X005481Y002716D01*
X005481Y002875D02*
X004541Y002875D01*
X004651Y003033D02*
X005495Y003033D01*
X005801Y002936D02*
X005801Y002172D01*
X005824Y002149D01*
X005345Y001765D02*
X005219Y001765D01*
X004918Y001607D02*
X005539Y001607D01*
X006110Y001607D02*
X006287Y001607D01*
X006679Y001448D02*
X001005Y001448D01*
X001005Y001607D02*
X004731Y001607D01*
X004804Y001607D02*
X004844Y001607D01*
X004844Y001765D02*
X004804Y001765D01*
X004804Y001924D02*
X004844Y001924D01*
X004844Y002082D02*
X004804Y002082D01*
X004824Y002149D02*
X004856Y002180D01*
X004856Y003133D01*
X005446Y003723D01*
X010368Y003723D01*
X010761Y003330D01*
X010761Y002956D01*
X010801Y002916D01*
X010801Y002936D01*
X011608Y002936D01*
X011589Y002954D02*
X011589Y003332D01*
X011387Y003332D01*
X011342Y003320D01*
X011301Y003296D01*
X011267Y003263D01*
X011243Y003222D01*
X011236Y003196D01*
X011220Y003224D01*
X011187Y003257D01*
X011146Y003281D01*
X011100Y003293D01*
X010819Y003293D01*
X010819Y002935D01*
X011256Y002935D01*
X011256Y002954D01*
X011589Y002954D01*
X011589Y003033D02*
X011626Y003033D01*
X011626Y003192D02*
X011589Y003192D01*
X011938Y003350D02*
X010012Y003350D01*
X009854Y003509D02*
X011953Y003509D01*
X011953Y003667D02*
X004970Y003667D01*
X005030Y003826D02*
X011953Y003826D01*
X011953Y003984D02*
X008383Y003984D01*
X008132Y003984D02*
X005063Y003984D01*
X005083Y004143D02*
X007875Y004143D01*
X007775Y004301D02*
X005102Y004301D01*
X005121Y004460D02*
X007737Y004460D01*
X007746Y004618D02*
X005114Y004618D01*
X005095Y004777D02*
X007811Y004777D01*
X007941Y004935D02*
X005076Y004935D01*
X005057Y005094D02*
X007941Y005094D01*
X007941Y005252D02*
X005009Y005252D01*
X004949Y005411D02*
X007941Y005411D01*
X007941Y005569D02*
X004889Y005569D01*
X004828Y005728D02*
X007867Y005728D01*
X007825Y005886D02*
X004721Y005886D01*
X004612Y006045D02*
X007825Y006045D01*
X007825Y006203D02*
X004502Y006203D01*
X004465Y006257D02*
X004465Y006257D01*
X004347Y006362D02*
X007829Y006362D01*
X007964Y006520D02*
X004168Y006520D01*
X003989Y006679D02*
X017534Y006679D01*
X017836Y006837D02*
X003687Y006837D01*
X003337Y006996D02*
X018185Y006996D01*
X017354Y006520D02*
X012941Y006520D01*
X013294Y006362D02*
X017176Y006362D01*
X017020Y006203D02*
X013459Y006203D01*
X013579Y006045D02*
X016911Y006045D01*
X016802Y005886D02*
X013601Y005886D01*
X013601Y005728D02*
X016694Y005728D01*
X016634Y005569D02*
X013601Y005569D01*
X013601Y005411D02*
X016574Y005411D01*
X016514Y005252D02*
X013601Y005252D01*
X013601Y005094D02*
X016466Y005094D01*
X016447Y004935D02*
X013601Y004935D01*
X013719Y004777D02*
X016428Y004777D01*
X016408Y004618D02*
X013785Y004618D01*
X013793Y004460D02*
X016402Y004460D01*
X016421Y004301D02*
X013756Y004301D01*
X013656Y004143D02*
X016440Y004143D01*
X016459Y003984D02*
X013593Y003984D01*
X013593Y003826D02*
X016493Y003826D01*
X016553Y003667D02*
X013593Y003667D01*
X013593Y003509D02*
X016613Y003509D01*
X016673Y003350D02*
X013593Y003350D01*
X013593Y003192D02*
X016763Y003192D01*
X016872Y003033D02*
X013593Y003033D01*
X013593Y002875D02*
X016982Y002875D01*
X017112Y002716D02*
X013593Y002716D01*
X013593Y002558D02*
X017291Y002558D01*
X017470Y002399D02*
X013593Y002399D01*
X013593Y002241D02*
X017729Y002241D01*
X018031Y002082D02*
X013593Y002082D01*
X013593Y001924D02*
X018601Y001924D01*
X019457Y001924D02*
X020518Y001924D01*
X020518Y002082D02*
X020028Y002082D01*
X020330Y002241D02*
X020518Y002241D01*
X020518Y001765D02*
X013562Y001765D01*
X013428Y001607D02*
X020518Y001607D01*
X020518Y001448D02*
X013269Y001448D01*
X013111Y001290D02*
X020518Y001290D01*
X020518Y001131D02*
X012952Y001131D01*
X012730Y001361D02*
X008399Y001361D01*
X008399Y002011D01*
X008399Y001361D02*
X007218Y001361D01*
X006824Y001755D01*
X006824Y002149D01*
X005371Y002558D02*
X005193Y002558D01*
X004844Y002558D02*
X004804Y002558D01*
X004804Y002399D02*
X004844Y002399D01*
X004844Y002241D02*
X004804Y002241D01*
X004430Y001765D02*
X001005Y001765D01*
X001005Y001290D02*
X006837Y001290D01*
X006996Y001131D02*
X001005Y001131D01*
X001005Y000973D02*
X020518Y000973D01*
X020518Y000814D02*
X001005Y000814D01*
X005801Y002936D02*
X006194Y003330D01*
X008399Y003330D01*
X008399Y002680D01*
X008399Y003330D02*
X009580Y003330D01*
X009935Y002975D01*
X009935Y002542D01*
X010801Y002168D02*
X010801Y002149D01*
X011608Y002149D01*
X012277Y002149D02*
X012277Y002936D01*
X012273Y002936D01*
X012273Y004495D01*
X011791Y004301D02*
X009675Y004301D01*
X009684Y004318D02*
X009706Y004387D01*
X009717Y004459D01*
X009717Y004495D01*
X009717Y004531D01*
X009706Y004603D01*
X009684Y004672D01*
X009651Y004736D01*
X009608Y004795D01*
X009557Y004846D01*
X009499Y004888D01*
X009434Y004921D01*
X009365Y004944D01*
X009294Y004955D01*
X009257Y004955D01*
X009221Y004955D01*
X009150Y004944D01*
X009081Y004921D01*
X009016Y004888D01*
X008958Y004846D01*
X008907Y004795D01*
X008864Y004736D01*
X008831Y004672D01*
X008809Y004603D01*
X008797Y004531D01*
X008797Y004495D01*
X008797Y004459D01*
X008809Y004387D01*
X008831Y004318D01*
X008864Y004254D01*
X008907Y004195D01*
X008958Y004144D01*
X009016Y004102D01*
X009081Y004069D01*
X009150Y004046D01*
X009221Y004035D01*
X009257Y004035D01*
X009257Y004495D01*
X008797Y004495D01*
X009257Y004495D01*
X009257Y004495D01*
X009257Y004955D01*
X009257Y004495D01*
X009257Y004495D01*
X009257Y004495D01*
X009257Y004035D01*
X009294Y004035D01*
X009365Y004046D01*
X009434Y004069D01*
X009499Y004102D01*
X009557Y004144D01*
X009608Y004195D01*
X009651Y004254D01*
X009684Y004318D01*
X009257Y004301D02*
X009257Y004301D01*
X009257Y004143D02*
X009257Y004143D01*
X009555Y004143D02*
X011890Y004143D01*
X011753Y004460D02*
X009717Y004460D01*
X009717Y004495D02*
X009257Y004495D01*
X009717Y004495D01*
X009701Y004618D02*
X011761Y004618D01*
X011827Y004777D02*
X009622Y004777D01*
X009257Y004777D02*
X009257Y004777D01*
X009257Y004618D02*
X009257Y004618D01*
X009257Y004495D02*
X009257Y004495D01*
X009257Y004460D02*
X009257Y004460D01*
X008840Y004301D02*
X008740Y004301D01*
X008777Y004460D02*
X008797Y004460D01*
X008814Y004618D02*
X008769Y004618D01*
X008704Y004777D02*
X008893Y004777D01*
X009123Y004935D02*
X008581Y004935D01*
X008581Y005094D02*
X011301Y005094D01*
X011278Y005117D02*
X011278Y005117D01*
X011142Y005252D02*
X008581Y005252D01*
X008581Y005411D02*
X010984Y005411D01*
X010825Y005569D02*
X008581Y005569D01*
X009326Y005728D02*
X010667Y005728D01*
X010761Y006086D02*
X011549Y005298D01*
X013045Y005298D01*
X013281Y005062D01*
X013281Y005928D01*
X013124Y006086D01*
X012671Y006086D01*
X012020Y006045D02*
X011983Y006045D01*
X011983Y006104D02*
X011605Y006104D01*
X011605Y006306D01*
X011617Y006352D01*
X011641Y006393D01*
X011675Y006426D01*
X011716Y006450D01*
X011761Y006462D01*
X011983Y006462D01*
X011983Y006104D01*
X011983Y006203D02*
X012020Y006203D01*
X012020Y006362D02*
X011983Y006362D01*
X011623Y006362D02*
X010931Y006362D01*
X011096Y006203D02*
X011605Y006203D01*
X011605Y006045D02*
X011255Y006045D01*
X011413Y005886D02*
X011605Y005886D01*
X011572Y005728D02*
X011704Y005728D01*
X011983Y005728D02*
X012020Y005728D01*
X012020Y005886D02*
X011983Y005886D01*
X010761Y006086D02*
X008931Y006086D01*
X008261Y006086D02*
X008261Y004499D01*
X008257Y004495D01*
X008640Y004143D02*
X008960Y004143D01*
X009257Y004935D02*
X009257Y004935D01*
X009392Y004935D02*
X011978Y004935D01*
X013281Y005062D02*
X013281Y004503D01*
X013273Y004495D01*
X013273Y001904D01*
X012730Y001361D01*
X010819Y003033D02*
X010782Y003033D01*
X010782Y003192D02*
X010819Y003192D01*
X010363Y003192D02*
X010171Y003192D01*
X010255Y003033D02*
X010345Y003033D01*
X005921Y003509D02*
X004910Y003509D01*
X004850Y003350D02*
X005762Y003350D01*
X005604Y003192D02*
X004760Y003192D01*
X008559Y006520D02*
X008633Y006520D01*
X009228Y006520D02*
X012401Y006520D01*
X019873Y006996D02*
X020518Y006996D01*
X020518Y007154D02*
X001005Y007154D01*
X001005Y006996D02*
X001650Y006996D01*
X001300Y006837D02*
X001005Y006837D01*
X001005Y007313D02*
X020518Y007313D01*
X020518Y007471D02*
X001005Y007471D01*
X001005Y007630D02*
X020518Y007630D01*
X020518Y007788D02*
X001005Y007788D01*
X001005Y007947D02*
X020518Y007947D01*
X020518Y008105D02*
X001005Y008105D01*
X001005Y008264D02*
X020518Y008264D01*
X020518Y006837D02*
X020223Y006837D01*
M02*
